<svg version="1.1" id="Layer_1" xmlns="http://www.w3.org/2000/svg" x="0" y="0" viewBox="0 0 103.2 65.4" xml:space="preserve"><style>.st2{fill:#3b4751}.st3{fill:#8ea2b1}.st4{fill:#657f99}.st5{fill:#647e99}.st13{fill:#556a7c}.st15{fill:#fff}.st17{fill:#ff4c64}.st22{fill:#4e7eaf}</style><g opacity=".3"><path class="st2" d="M83.5 62.3c-4.8-3.5-12.7-12.4-2.1-26.4 13.2-17.2-2.6-24.3-17.6-23.6C51.6 12.9 38-2.4 24.4.3 6.3 4 18 19.6 5.8 27.9c-10.4 7.2-6 28.9 7.6 34.3l70.1.1z"/><ellipse class="st2" cx="46.6" cy="62.6" rx="43" ry="2.8"/></g><path class="st3" d="M74.6 23.2v36l-.1.4c-.3.5-.8.9-1.4.9H17.7c-.6 0-1.2-.4-1.4-.9 0-.1-.1-.2-.1-.4v-36c0-.5.2-1 .6-1.3.3-.2.6-.4 1-.4h55.4c.4 0 .7.1 1 .4.2.4.4.8.4 1.3z"/><path class="st4" d="M79.3 61c-1.2.6-2.6 1-3.9 1H15.3c-1.4 0-2.8-.3-3.9-1h67.9z"/><path class="st5" d="M72.9 24.4v32.9c0 .4-.4.8-.8.8H18.4c-.4 0-.8-.4-.8-.8V24.4c0-.1 0-.2.1-.3.1-.3.4-.5.7-.5h53.7c.5 0 .8.3.8.8z"/><path class="st3" d="M11.3 59.6h68v1.5h-68v-1.5z"/><path class="st4" d="M61.9 60.4H28.7c-1.5 0-2.7-.4-2.7-.9h38.5c.1.6-1.2.9-2.6.9z"/><path d="M45.7 22.8h-1.9s-.1 0-.1-.1 0-.1.1-.1h1.9c.1 0 .1 0 0 .2.1-.1.1 0 0 0z" fill="#d4edff"/><linearGradient id="SVGID_1_" gradientUnits="userSpaceOnUse" x1="92.876" y1="440.324" x2="125.431" y2="472.878" gradientTransform="scale(1 -1) rotate(-9.62 -2875.594 485.372)"><stop offset="0" stop-color="#fff"/><stop offset=".194" stop-color="#fff"/><stop offset=".246" stop-color="#fffdf9"/><stop offset=".32" stop-color="#f7c1d4"/><stop offset=".394" stop-color="#f4a6be"/><stop offset=".48" stop-color="#f294ad"/><stop offset=".572" stop-color="#f47f98"/><stop offset=".626" stop-color="#f96982"/><stop offset="1" stop-color="#f93a5a"/></linearGradient><path d="M82 29.6c-1.2.9-2.5 1.8-3.7 2.6-1.3.9-2.5 1.7-3.8 2.6-6.1 4.1-12 8.4-18.9 11.4-3.3 1.5-12.5 5-14.4.9l-.7 3.3c5 3.2 15 0 19.8-2.2 5.8-2.7 11.6-5.5 17.2-8.6 1.4-.7 2.7-1.5 4.1-2.3s2.7-1.5 4.1-2.4L82 29.6z" fill="url(#SVGID_1_)"/><linearGradient id="SVGID_00000064330539313449073210000005418624648879564170_" gradientUnits="userSpaceOnUse" x1="86.057" y1="447.768" x2="98.948" y2="460.659" gradientTransform="scale(1 -1) rotate(-9.62 -2875.594 485.372)"><stop offset=".24" stop-color="#fff"/><stop offset=".901" stop-color="#fff" stop-opacity="0"/></linearGradient><path d="M48.2 34c-1.2.9-2.4 1.9-3.6 3-1.1 1.1-2.2 2.2-3.2 3.5-.5.6-.9 1.3-1.3 2s-.7 1.5-.9 2.4-.2 1.8.1 2.8c.2.5.4.9.7 1.3.3.4.7.7 1.1 1v-3c-.2-.5-.3-1.1-.2-1.8s.3-1.3.6-2 .6-1.3 1-1.9c.8-1.3 1.7-2.4 2.8-3.6 1-1.1 2.1-2.2 3.3-3.2 2.3-2-.5-.1 2.1-1.7-2.7 1.4 0-.7-2.5 1.2z" fill="url(#SVGID_00000064330539313449073210000005418624648879564170_)"/><linearGradient id="SVGID_00000032611038175015192360000013484473539162876086_" gradientUnits="userSpaceOnUse" x1="1199.428" y1="-3857.266" x2="1205.468" y2="-3857.266" gradientTransform="scale(1 -1) rotate(-58.666 4046.03 -958.885)"><stop offset="0" stop-color="#fff"/><stop offset="1" stop-color="#647e99"/></linearGradient><path d="M96.8 31.6l-2.5 6c-.3.7-.9 1.2-1.6 1.5l-7 2.2c-.2.1-.4-.1-.4-.4l1-5 10.5-4.3z" fill="url(#SVGID_00000032611038175015192360000013484473539162876086_)"/><linearGradient id="SVGID_00000064345315644362730790000003705173969661331095_" gradientUnits="userSpaceOnUse" x1="9137.431" y1="-3857.284" x2="9143.431" y2="-3857.975" gradientTransform="rotate(-121.334 5701.399 627.36)"><stop offset="0" stop-color="#fff"/><stop offset="1" stop-color="#647e99"/></linearGradient><path d="M90.3 21l-6.3-.5c-.8-.1-1.5.2-2 .8l-5.3 5.2c-.2.2-.1.5.1.5l4.9 1.4 8.6-7.4z" fill="url(#SVGID_00000064345315644362730790000003705173969661331095_)"/><path class="st5" d="M83.6 34.5l-1.9-3.1c-.4-.7-.2-1.7.5-2.1l.2-.1 3.5 5.8h-.2c-.7.4-1.6.2-2.1-.5z"/><linearGradient id="SVGID_00000015351969397671014310000011576409919439744910_" gradientUnits="userSpaceOnUse" x1="1185.742" y1="-3849.954" x2="1205.083" y2="-3849.954" gradientTransform="scale(1 -1) rotate(-58.666 4046.03 -958.885)"><stop offset="0" stop-color="#fff"/><stop offset="1" stop-color="#8ea2b1"/></linearGradient><path d="M103.2 20.5c-7.2-3.1-18.4-.3-21.4 7.6-.1.2-.1.5.1.7l4.1 6.9c.1.2.4.4.6.4 8.5.9 16.1-7.8 16.6-15.6z" fill="url(#SVGID_00000015351969397671014310000011576409919439744910_)"/><linearGradient id="SVGID_00000018205986318372858810000017943896171285494671_" gradientUnits="userSpaceOnUse" x1="1193.99" y1="-3852.742" x2="1193.99" y2="-3866.182" gradientTransform="scale(1 -1) rotate(-58.666 4046.03 -958.885)"><stop offset="0" stop-color="#fff"/><stop offset="1" stop-color="#647e99"/></linearGradient><path d="M81.4 34.8l-1.1-1.7 6.2-3.9c.7-.5 1.5-.9 2.3-1.2l3.3-1.3.3.5-2.6 2.4c-.6.6-1.4 1.1-2.1 1.5l-6.3 3.7z" fill="url(#SVGID_00000018205986318372858810000017943896171285494671_)"/><path class="st5" d="M97.7 31.6c2-2 3.6-4.6 4.6-7.1-.3.1-.6.3-.9.5-.8.8-1.6 1.7-2.3 2.5-.4.5-1.2.4-1.7-.2-1.2-1.6-2.2-3.2-3-5.1-.3-.6 0-1.4.6-1.5l3.3-.9c.3-.1.6-.3.9-.5-2.7-.4-5.7-.1-8.4.8 1.6 4.2 3.9 8.2 6.9 11.5z"/><path class="st13" d="M92.2 20.4s0 .1 0 0c.3.4.7.6 1 .5l3.6-.9c.3-.1.6-.4.6-.7h-.2c0 .3-.2.5-.5.6l-3.6.8c-.3.1-.7-.1-.8-.4l-.2-.5h-.2l.3.6zm6 9.9c-.3-.4-.3-.8 0-1.1l2.5-2.8c.2-.3.6-.3.9-.2 0 .1-.1.1-.1.2-.2-.1-.5 0-.7.2l-2.5 2.8c-.2.2-.2.6 0 .9l.4.4-.1.1-.4-.5z"/><linearGradient id="SVGID_00000166645087719525584480000002949808152871671936_" gradientUnits="userSpaceOnUse" x1="3840.246" y1="-5420.37" x2="3845.982" y2="-5421.255" gradientTransform="matrix(-.08528 .9964 .9964 .08528 5827.242 -3343.587)"><stop offset="0" stop-color="#fff"/><stop offset="1" stop-color="#647e99"/></linearGradient><path d="M98 26.1c-1.6-.1-2.7-1.5-2.6-3.1s1.5-2.7 3.1-2.6 2.7 1.5 2.6 3.1c0 1.6-1.4 2.7-3.1 2.6z" fill="url(#SVGID_00000166645087719525584480000002949808152871671936_)"/><path class="st5" d="M99.9 25c-1 .8-2.4.7-3.3-.3-.8-1-.7-2.4.3-3.3 1-.8 2.4-.7 3.3.3.8 1 .7 2.5-.3 3.3z"/><path class="st15" d="M100 22.2l-.2-.2h-.1c-.1.1-.1.2-.1.3 0 0 0 .1.1.1l.1.1h.1c.2 0 .2-.2.1-.3zm-.3.1zm-.1-.5c0-.1 0-.1 0 0-.5-.4-1.1-.5-1.6-.4-.1 0-.2.1-.2.2v.1c0 .1.1.1.2.1.4-.1.8 0 1.2.3h.1c.1 0 .1 0 .1-.1.2-.1.2-.1.2-.2z"/><path class="st13" d="M99.9 25c.4-.3.7-.8.8-1.3-.1 0-.1.1-.2.1-.2.2-.4.4-.7.5-.3.1-.5 0-.8-.2s-.4-.7-.7-.9c-.4-.3-.9-.1-1.3-.4-.2-.1-.3-.3-.4-.5-.1-.1-.1-.3-.1-.5-.6.8-.6 2 .1 2.8.7 1.1 2.2 1.2 3.3.4z"/><circle class="st15" cx="44.8" cy="41.4" r="10.4"/><path d="M36.9 23.6L19.1 58.1h11L48 23.6H36.9zm-18.5 0c-.3 0-.6.2-.7.5v29.6l15.6-30.1H18.4z" opacity=".1" fill="#fff"/><path class="st17" d="M14.4 50.6l1 1.2c.1.1.4.2.5 0l2.9-2.6 1.2-1.1-1.5-1.7-.7.6-3.4 3c-.2.2-.2.5 0 .6z"/><path d="M17.8 47.1c.1.6.4 1.4 1 2.1l1.2-1.1-1.5-1.7-.7.7z" fill="#e23056"/><path d="M9.6 55.9c.3.3.7.3 1 .1l4.8-4.1-.9-1-4.9 4c-.3.2-.3.7 0 1z" fill="#46497c"/><path d="M19.4 38.7c-2.6 2.3-2.9 6.4-.6 9s6.4 2.9 9 .6 2.9-6.4.6-9-6.4-2.9-9-.6zm.6.7c2.2-1.9 5.7-1.7 7.6.5s1.7 5.7-.5 7.6c-2.2 1.9-5.7 1.7-7.6-.5-1.9-2.1-1.7-5.6.5-7.6z" fill="#2e3062"/><path d="M18.8 41.1c-1.3 2.6-.2 6 2.4 7.3.2.1.5.2.7.3.6.2 1.2.3 1.8.3.6 0 1.3-.2 1.9-.4.9-.4 1.7-1 2.3-1.9.2-.2.3-.5.4-.7 1.3-2.6.2-6-2.4-7.3-.3-.1-.5-.2-.8-.3-1-.3-2-.3-3-.1-.6.2-1.2.4-1.7.8s-.9.8-1.3 1.3c-.1.3-.2.5-.3.7z" opacity=".4" fill="#fff"/><g id="logo"><g id="XMLID_121_"><g id="XMLID_122_"><path class="st5" d="M52.7 39.9c0-.7-.2-1.3-.4-2 .3-.2.1-.9-.3-.9-.6 0-.6 1 0 1 .3.9.4 2 .1 3-.1-.5-.6-.8-1.1-.7-.5-1.5-2.1-2.1-3.6-2.1-1.4-.1-2.8-.1-4.1 0-1.5 0-3.2.6-3.7 2.1-.5 0-1 .2-1.1.7-.3-1-.2-2.1.1-3.1.6 0 .6-1 0-1-.4 0-.6.6-.3.8-.3.8-.5 1.6-.4 2.5 0 .7.3 1.5.6 2.2.2.6.6.9 1.3.8.8 2.3 3.6 2.2 5.6 2.2s4.8 0 5.6-2.2c.8.1 1.2-.3 1.4-1.1.1-.6.3-1.4.3-2.2zm-3 1.5c0 1.2-.2 2.6-1.6 2.8-1.9.3-3.9.3-5.9 0-1.4-.2-1.6-1.6-1.6-2.8-.1-1.6 1.3-2.1 2.7-2.1 1.2-.1 2.5-.1 3.8 0 1.3-.1 2.8.5 2.6 2.1z" id="XMLID_123_"/></g></g><path class="st5" d="M43.8 41.7c0 .4-.3 0-.8-.1-.4-.1-.9.2-.8-.2.1-1 1.7-.7 1.6.3zm4.4-.3c0 .4-.3.1-.8.2-.4.1-.7.5-.8.1-.2-1 1.5-1.3 1.6-.3z"/><path class="st5" d="M43.8 41.7c0 .4-.3 0-.8-.1-.4-.1-.9.2-.8-.2.1-1 1.7-.7 1.6.3zm3.6-.1c-.4.1-.7.5-.8.1 0-.4.2-.8.7-.9.4-.1.9.2.9.6.1.4-.3.1-.8.2z"/><path id="XMLID_120_" class="st5" d="M43.8 41.7c0 .4-.3 0-.8-.1-.4-.1-.9.2-.8-.2.1-1 1.7-.7 1.6.3zm3.6-.1c-.4.1-.7.5-.8.1 0-.4.2-.8.7-.9.4-.1.9.2.9.6.1.4-.3.1-.8.2z"/><path class="st5" d="M46.2 42.9c0 1.2-2.1 1.2-2 0 0-.1.1-.2.2-.2h1.7c0 .1.1.1.1.2z"/></g><path class="st15" d="M63.3 18.2c0 1-.8 1.8-1.8 1.8H30.4c-1 0-1.8-.8-1.8-1.8s.8-1.8 1.8-1.8h31.2c.9 0 1.7.8 1.7 1.8z"/><path class="st17" d="M61.5 16.4h-4.9V20h5c1 0 1.8-.9 1.8-1.9-.1-.9-.9-1.7-1.9-1.7z"/><path class="st15" d="M60.3 18.5c-.3-.3-.4-.8 0-1.2.3-.3.8-.4 1.2 0 .3.3.4.8 0 1.2-.3.3-.9.5-1.2 0zm1-1c-.2-.2-.6-.2-.8 0s-.2.6 0 .8.6.2.8 0c.2-.2.2-.6 0-.8z"/><path class="st15" d="M59.4 19.6c-.1-.1-.1-.1 0-.2l.9-1c.1-.1.1-.1.2 0s.1.1 0 .2l-.9 1c-.1.1-.2.1-.2 0z"/><path class="st22" d="M23.8 15c.7 0 1.2.5 1.2 1.2s-.5 1.2-1.2 1.2-1.2-.5-1.2-1.2.6-1.2 1.2-1.2zm0 2c.5 0 .8-.4.8-.8 0-.5-.4-.8-.8-.8-.5 0-.8.4-.8.8s.4.8.8.8z"/><path class="st15" d="M27.3 25.5c.1 0 .2.1.2.2v.8c0 .1-.1.2-.2.2s-.2-.1-.2-.2v-.8c0-.1.1-.2.2-.2zm0-1.5c.1 0 .2.1.2.2v.8c0 .1-.1.2-.2.2s-.2-.1-.2-.2v-.8c0-.1.1-.2.2-.2zm-1.2 1.2h.7c.1 0 .2.1.2.2s-.1.2-.2.2h-.7c-.1 0-.2-.1-.2-.2s.1-.2.2-.2zm1.6 0h.7c.1 0 .2.1.2.2s-.1.2-.2.2h-.7c-.1 0-.2-.1-.2-.2s.1-.2.2-.2z"/><path class="st22" d="M14.3 37c.1 0 .2.1.2.2v.8c0 .1-.1.2-.2.2s-.2-.1-.2-.2v-.8c0-.1.1-.2.2-.2zm0-1.5c.1 0 .2.1.2.2v.8c0 .1-.1.2-.2.2s-.2-.1-.2-.2v-.8c0-.1.1-.2.2-.2zM13 36.7h.7c.1 0 .2.1.2.2s-.1.2-.2.2H13c-.1 0-.2-.1-.2-.2s.1-.2.2-.2zm1.7 0h.7c.1 0 .2.1.2.2s-.1.2-.2.2h-.7c-.1 0-.2-.1-.2-.2s.1-.2.2-.2z"/><path class="st3" d="M72.9 17.6c-1 .4-2.2-.1-2.6-1.1-.4-1 .1-2.2 1.1-2.6 1-.4 2.2.1 2.6 1.1.6.9.1 2.1-1.1 2.6z"/><path class="st15" d="M71.7 15.9l-.3-.5c0-.1 0-.1.1-.1l.6.1h.7c.1 0 .1.1.1.2l-.4.5-.4.5c0 .1-.1 0-.2 0l-.2-.7z"/></svg>