<svg version="1.1" id="Layer_1" xmlns="http://www.w3.org/2000/svg" x="0" y="0" viewBox="0 0 103.2 63.5" xml:space="preserve"><style>.st2{fill:#3b4751}.st3{fill:#8ea3b2}.st4{fill:#657f99}.st7{fill:#fff}.st8{fill:#ff4c64}.st17{fill:#303030}</style><g opacity=".3"><path class="st2" d="M41.6 61.9C32.8 46.1 25.9 58.8 15.3 47 1.5 31.5 13.8 23.6 28.1 21.8 39.7 20.4 50 3.7 63.3 4c17.7.4 9.2 17.1 22.1 22.9 11.1 5 10.4 26.3-1.5 33.7l-42.3 1.3z"/><ellipse class="st2" cx="51.6" cy="60.1" rx="51.6" ry="3.4"/></g><path class="st3" d="M85.1 12.7v43.1l-.1.4c-.3.6-1 1.1-1.7 1.1H16.9c-.7 0-1.4-.4-1.7-1.1 0-.1-.1-.3-.1-.4V12.7c0-.6.3-1.2.7-1.5.3-.2.7-.4 1.2-.4h66.3c.4 0 .9.1 1.2.4.3.4.6.9.6 1.5z"/><path class="st4" d="M90.8 58.1c-1.5.7-3.1 1.2-4.8 1.2H14.1c-1.7 0-3.3-.4-4.8-1.2h81.5zm-7.7-44v39.4c0 .5-.4.9-.9.9H17.8c-.5 0-.9-.4-.9-.9V14c0-.5.4-.9.9-.9h64.4c.6 0 1 .5.9 1z"/><path class="st3" d="M9.3 56.3h81.5v1.8H9.3v-1.8z"/><path class="st4" d="M69.9 57.3H30.2c-1.8 0-3.2-.5-3.2-1.1h46c.2.7-1.3 1.1-3.1 1.1zM50.6 12.2h-2.3s-.1 0-.1-.1c0 0 0-.1.1-.1h2.3c.1 0 .1 0 0 .2.1-.1.1 0 0 0z"/><path d="M8.4 39h-.8v-.8c0-.3-.2-.5-.5-.5s-.5.2-.5.5v.8h-.8c-.3 0-.5.2-.5.5s.2.5.5.5h.8v.8c0 .3.2.5.5.5s.5-.2.5-.5V40h.8c.3 0 .5-.2.5-.5s-.2-.5-.5-.5zm82.3-24.7h-.4v-.4c0-.1-.1-.2-.2-.2s-.2.1-.2.2v.4h-.4c-.1 0-.2.1-.2.2s.1.2.2.2h.4v.4c0 .1.1.2.2.2s.2-.1.2-.2v-.4h.4c.1 0 .2-.1.2-.2.1-.1 0-.2-.2-.2z" fill="#4e7fb0"/><path d="M40 13.2v-.1L18.7 54.4l-.1.1h13.3v-.1l21.3-41.2H40zm-22.2-.1c-.5 0-.9.4-.9.9v35.2l18.7-36.1H17.8z" opacity=".1" fill="#fff"/><path class="st7" d="M71.7 44.9c0 1.2-1 2.2-2.2 2.2H32.2c-1.2 0-2.2-1-2.2-2.2 0-1.2 1-2.2 2.2-2.2h37.3c1.2 0 2.2 1 2.2 2.2z"/><path class="st8" d="M69.5 42.7h-5.9v4.4h5.9c1.2 0 2.2-1 2.2-2.3 0-1.1-1-2.1-2.2-2.1z"/><path class="st7" d="M68 45.3c-.4-.4-.4-1-.1-1.4.4-.4 1-.4 1.4-.1.4.4.4 1 .1 1.4-.3.5-1 .5-1.4.1zm1.2-1.2c-.3-.3-.7-.2-1 0-.3.3-.2.7 0 1 .3.3.7.2 1 0 .3-.3.2-.8 0-1z"/><path class="st7" d="M66.9 46.5c-.1-.1-.1-.2 0-.2l1.1-1.2c.1-.1.2-.1.2 0 .1.1.1.2 0 .2l-1.1 1.2c0 .1-.1.1-.2 0zm28.8-9.4c.8 0 1.5.7 1.5 1.5s-.7 1.5-1.5 1.5-1.5-.7-1.5-1.5.7-1.5 1.5-1.5zm0 2.5c.6 0 1-.4 1-1s-.4-1-1-1-1 .4-1 1c0 .5.4 1 1 1zM27 51.3c.1 0 .2.1.2.2v1c0 .1-.1.2-.2.2s-.2-.1-.2-.2v-1c0-.1.1-.2.2-.2zm0-1.7c.1 0 .2.1.2.2v1c0 .1-.1.2-.2.2s-.2-.1-.2-.2v-1c0-.1.1-.2.2-.2zm-1.4 1.3h.9c.1 0 .2.1.2.2s-.1.2-.2.2h-.9c-.1 0-.2-.1-.2-.2-.1 0 .1-.2.2-.2zm1.9 0h.9c.1 0 .2.1.2.2s-.1.2-.2.2h-.9c-.1 0-.2-.1-.2-.2 0 0 .1-.2.2-.2z"/><path d="M58.6 23.5l-2.4 4.2-.7 1.2c-.1 0-.1-.1-.2-.1l-.6-.3c-.2-.1-.3-.2-.5-.2-.2-.1-.4-.2-.7-.3-.2-.1-.5-.2-.7-.2-.2-.1-.5-.1-.7-.2-.1 0-.2-.1-.3-.1-.2 0-.4-.1-.5-.1-.2 0-.5-.1-.8-.1h-.7v-6.2c3.1 0 6.2.9 8.8 2.4z" fill="#fc5480"/><path d="M44.2 28.8c-1.6 1-3 2.4-4 4 0 .1-.1.1-.1.2l-1.2-.7-4.2-2.4c1.5-2.7 3.7-5 6.4-6.5l2.5 4.3.6 1.1z" fill="#fc81ae"/><path d="M49.8 21.1v6.2h-.3c-1.9.1-3.8.6-5.3 1.5l-.7-1.1-2.5-4.3c2.6-1.4 5.6-2.3 8.8-2.3z" fill="#f96e99"/><path d="M65 29.9l-4.3 2.5-1.1.6c-1-1.8-2.4-3.2-4.1-4.1l.7-1.2 2.4-4.2c2.7 1.5 4.9 3.7 6.4 6.4z" fill="#ff3e68"/><path d="M61.1 38.6c0-2.2-.6-4-1.5-5.6l1.1-.6 4.3-2.5c.7 1.2 1.3 2.6 1.7 4.1.4 1.5.6 3 .6 4.6h-6.2z" fill="#ff2c50"/><path d="M40.1 33c-.8 1.5-1.4 3.2-1.5 5.2v.4h-6.2c0-3.1.8-6.1 2.3-8.7l4.2 2.4 1.2.7z" fill="#fc97c1"/><path d="M62.2 38.6h-1.1c0-2.1-.6-4-1.5-5.6-1-1.8-2.4-3.2-4.1-4.1-.1 0-.1-.1-.2-.1l-.6-.3c-.2-.1-.3-.2-.5-.2-.2-.1-.4-.2-.7-.3-.2-.1-.5-.2-.7-.2-.2-.1-.5-.1-.7-.2-.1 0-.2-.1-.3-.1-.2 0-.4-.1-.5-.1-.2 0-.5-.1-.8-.1h-1c-1.9.1-3.8.6-5.3 1.5-1.6 1-3 2.4-4 4 0 .1-.1.1-.1.2-.8 1.5-1.4 3.2-1.5 5.2v.4h-1.4c0-2.2.6-4.5 1.7-6.3 1.1-1.9 2.7-3.5 4.6-4.6 1.9-1.1 4-1.7 6.2-1.7 2.3 0 4.4.6 6.3 1.7h.1c1.9 1.1 3.4 2.7 4.5 4.6 1.2 1.9 1.8 4.1 1.6 6.3z" opacity=".2"/><path class="st17" d="M49.6 37.6l.5 1.9 13.4-4.6z"/><circle class="st17" cx="49.8" cy="38.6" r="2.1"/><circle class="st7" cx="49.8" cy="38.6" r="1.5"/><circle class="st17" cx="49.8" cy="38.6" r="1.1"/><path d="M34.7 30.5c1.5-2.7 3.7-4.9 6.4-6.4 2.6-1.5 5.6-2.3 8.7-2.3 3.2 0 6.2.9 8.7 2.3 2.7 1.5 4.9 3.7 6.4 6.4 1.4 2.4 2.2 5.1 2.3 8 0-3.2-.9-6.2-2.3-8.7-1.5-2.7-3.7-4.9-6.4-6.4-2.6-1.5-5.6-2.3-8.7-2.3-3.2 0-6.2.9-8.7 2.3-2.7 1.5-4.9 3.7-6.4 6.4-1.5 2.6-2.3 5.6-2.3 8.7.1-2.8.9-5.6 2.3-8z" opacity=".25" fill="#fc5480"/><path class="st8" d="M87.6 48.1l-1.4 1.2c-.2.1-.4.1-.6-.1l-2.9-3.5-1.2-1.5 2-1.7.7.9 3.4 4.1c.2.2.2.4 0 .6z"/><path d="M84.2 43.3c-.3.7-.7 1.6-1.5 2.3l-1.2-1.4 2-1.7.7.8z" fill="#e23056"/><path d="M92.1 54.9c-.4.3-.9.2-1.2-.1l-4.7-5.7 1.3-1 4.7 5.7c.3.3.2.9-.1 1.1z" fill="#46497c"/><path d="M84 33.4c2.6 3.2 2.2 7.8-1 10.5-3.2 2.6-7.8 2.2-10.5-1-2.6-3.2-2.2-7.8 1-10.5 3.1-2.6 7.8-2.2 10.5 1zm-.9.7c-2.2-2.7-6.2-3-8.9-.8s-3 6.2-.8 8.9 6.2 3 8.9.8c2.6-2.2 3-6.2.8-8.9z" fill="#2e3062"/><path d="M84.3 36.3c1 3.3-.9 6.8-4.2 7.9-.3.1-.6.2-.9.2-.7.1-1.5.1-2.2 0s-1.4-.4-2.1-.8c-1-.6-1.8-1.5-2.4-2.6-.1-.3-.3-.6-.4-.9-1-3.3.9-6.8 4.2-7.9.3-.1.6-.2 1-.2 1.2-.2 2.4 0 3.5.5.7.3 1.3.7 1.8 1.3.5.5.9 1.1 1.3 1.8.2.1.3.4.4.7z" opacity=".4" fill="#fff"/><circle class="st3" cx="74.6" cy="15.3" r=".9"/><circle class="st3" cx="77.4" cy="15.3" r=".9"/><circle class="st3" cx="80.1" cy="15.3" r=".9"/></svg>