<svg version="1.1" id="Layer_1" xmlns="http://www.w3.org/2000/svg" x="0" y="0" viewBox="0 0 89.2 63.5" xml:space="preserve"><style>.st1{fill:#647e99}.st3{fill:#f8f9fa}</style><path class="st1" d="M67.2 0v51.5H43.4c.7-1.2 1.2-2.4 1.6-3.8h18.4V3.6H37.7v7.6h-8v17c-1.3 0-2.6.2-3.8.6V9.2L35.3 0h31.9z"/><path class="st1" d="M67.2 0v51.5H43.4c3.9-6.7 2.4-15.2-3.9-20.1-3.9-3-8.9-3.8-13.5-2.5V9.2L35.3 0h31.9z"/><path fill="#7491aa" d="M37.7 0v11.2H25.9v-2L35.3 0z"/><path class="st1" d="M74.3 6.9v51.5H34.8c2.4-.8 4.5-2.1 6.2-3.8h29.5V6.8h3.8z"/><path class="st3" d="M33.8 17.5h25.6V20H33.8zm0 7.5h25.6v2.5H33.8zm11.8 7.6h13.8v2.5H45.6z"/><path class="st1" d="M18.2 57.8l1.7 1.3c.2.1.5.1.7-.1l3.2-4.3 1.3-1.8-2.3-1.9-.8 1.1-3.8 5c-.2.2-.2.4 0 .7z"/><path class="st1" d="M15.3 63.3c.5.3 1.1.2 1.4-.2l3.2-4.3-1.6-1.1-3.2 4.3c-.3.4-.2 1.1.2 1.3z"/><path d="M20.2 41c.1-.5-.1-1.8.2-2 .6-1.2 1.5-1.9 2.2-2.8.8-1 1.7-1.9 2.8-2.5 1.7-.9 5.1-1 7-.7.6 0 1 .4 1.5.5 5.4 1.6 7.6 7.4 6.2 12.8-.1.5-.4 1-.6 1.5-.9 1.8-2.1 3.3-3.7 4.4-1.1.7-2.2 1.2-3.3 1.4-1.1.2-2.4.3-3.6.1-.5 0-1-.1-1.5-.3-5.3-1.4-8.6-6.9-7.2-12.4z" opacity=".4" fill="#fff"/><path class="st1" d="M20.5 36.3c-4 5.4-3 12.8 2.3 16.9 5.4 4 12.8 3 16.9-2.3 4-5.4 3-12.8-2.3-16.9-5.2-4-12.8-3-16.9 2.3zm2 1.5c3.2-4.2 9.3-5 13.5-1.8 4.2 3.2 5 9.3 1.8 13.5-3.2 4.2-9.3 5-13.5 1.8-4.2-3.2-5-9.3-1.8-13.5z"/><path class="st1" d="M28.3 38.7l.7 3.9 1.8-.3-.7-3.9-.9-1.2c-.1-.2-.4-.1-.4.1l-.5 1.4zm.2 8.9l2.4-3.1-1.4-1.1-2.4 3.1-.3 1.5c0 .2.1.4.3.3l1.4-.7z"/><circle class="st1" cx="30.1" cy="43.8" r="2.1"/><circle class="st3" cx="30.1" cy="43.8" r="1"/></svg>