<svg version="1.1" id="Layer_1" xmlns="http://www.w3.org/2000/svg" x="0" y="0" viewBox="0 0 89.2 63.5" xml:space="preserve"><style>.st1{fill:#647e99}</style><path class="st1" d="M77.1 0H5.5C2.4 0 0 2.4 0 5.4v45.4c0 3 2.4 5.5 5.5 5.5h71.6c3 0 5.5-2.4 5.5-5.5V5.4c0-3-2.5-5.4-5.5-5.4zM5.2 8.7c-.6 0-1-.4-1-1V5.9c0-.6.4-1 1-1h49.7c.6 0 1 .4 1 1v1.8c0 .6-.4 1-1 1H5.2zm52.2 21.2C54.7 39.5 49.2 46 41 49c-16.3-6.3-17.5-25.3-17.4-31.9 8.8-.4 15.1-2.7 17.7-3.9 2.7 1.2 8.9 3.6 17.6 4.1.1 2.7-.1 7.5-1.5 12.6zM64 7.7c0 .6-.4 1-1 1h-3.3c-.6 0-1-.4-1-1V5.9c0-.6.4-1 1-1H63c.6 0 1 .4 1 1v1.8zm7.4 0c0 .6-.4 1-1 1H67c-.6 0-1-.4-1-1V5.9c0-.6.4-1 1-1h3.3c.6 0 1 .4 1 1v1.8zm7.2 0c0 .6-.4 1-1 1h-3.3c-.6 0-1-.4-1-1V5.9c0-.6.4-1 1-1h3.3c.6 0 1 .4 1 1v1.8z"/><path class="st1" d="M47.6 29.1h-.7v-2.3c0-3.1-2.5-5.6-5.6-5.6s-5.6 2.5-5.6 5.6v2.3H35c-.2 0-.4.2-.4.4V38c0 .2 1.8 3 6.9 3s6.6-2.8 6.6-3v-8.4c-.1-.3-.2-.5-.5-.5zm-9.7-2.3c0-1.9 1.5-3.4 3.4-3.4s3.4 1.5 3.4 3.4v2.3h-6.8v-2.3zm4.8 10.4h-2.9l.6-3c-.4-.3-.6-.6-.6-1.1 0-.8.6-1.4 1.4-1.4s1.4.6 1.4 1.4c0 .5-.2.8-.6 1.1l.7 3z"/><path class="st1" d="M86.9 8.1v44.4c0 4.5-3.6 8.1-8.1 8.1H7.5c.9 1.8 2.7 3 4.9 3h67.5c5.3 0 9.6-4.3 9.6-9.6V12.7c0-2-1.1-3.7-2.6-4.6z"/></svg>