<svg version="1.1" id="Layer_1" xmlns="http://www.w3.org/2000/svg" x="0" y="0" viewBox="0 0 512 512" xml:space="preserve"><style>.st4{fill:#fff}</style><path d="M383.5 74.9V226c0 18.3-2.2 36.7-5.9 55-66.7 17.6-106.3 85.8-88.7 152.5-22 19.1-46.9 34.5-74.1 45.5-7.3 2.9-14.7 5.9-22.7 8.1V8.9l191.4 66z" fill="#2b83c5"/><linearGradient id="SVGID_1_" gradientUnits="userSpaceOnUse" x1="0" y1="689.567" x2="192.124" y2="689.567" gradientTransform="translate(0 -442)"><stop offset="0" stop-color="#2b4a9f"/><stop offset="1" stop-color="#2bbaed"/></linearGradient><path d="M192.1 8.9v477.4c-8.1-2.2-15.4-5.1-23.5-8.1C66.7 436.4 0 336.7 0 225.9v-151l192.1-66z" fill="url(#SVGID_1_)"/><path d="M192.1 74.9v344.6c-5.9-1.5-11-3.7-16.9-5.9-74-30-122.4-101.9-121.7-181.8V122.5l138.6-47.6z" fill="#2bbaed"/><linearGradient id="SVGID_00000120555196485613230750000014057595179272456321_" gradientUnits="userSpaceOnUse" x1="330.026" y1="689.2" x2="191.585" y2="689.2" gradientTransform="translate(0 -442)"><stop offset="0" stop-color="#2b4a9f"/><stop offset="1" stop-color="#2bbaed"/></linearGradient><path d="M192.1 74.9v344.6c5.9-1.5 11-3.7 16.9-5.9 74.1-30.1 121.7-101.9 121.7-181.9V122.5L192.1 74.9z" fill="url(#SVGID_00000120555196485613230750000014057595179272456321_)"/><path class="st4" d="M232.5 216.4h-.7v-30.1c0-19.8-14.7-36.7-34.5-38.9h-9.5c-2.2.7-4.4.7-6.6 1.5-16.9 5.1-28.6 20.5-28.6 38.1v29.4c-11 0-19.8 8.8-19.8 19.8v49.9c0 10.3 8.8 19.1 19.1 19.1h79.9c11 0 19.1-8.8 19.8-19.8v-49.9c-.1-10.3-8.1-19.1-19.1-19.1zM198 263.3c-.7.7-.7 1.5-.7 2.2v14.7c0 2.9-2.2 5.1-4.4 5.1h-2.2c-2.2-.7-3.7-2.9-2.9-5.1v-14.7c0-.7-.7-1.5-1.5-2.2-3.7-2.2-4.4-6.6-3.7-10.3 1.5-5.1 7.3-8.1 12.5-5.9 2.9.7 5.1 2.9 5.9 5.9 1.4 3.7-.1 8.1-3 10.3zm13.9-46.9h-39.6v-30.8c0-11 8.8-19.8 19.1-19.8 11 0 19.8 8.8 19.8 19.1.7 10.2.7 20.5.7 31.5z"/><linearGradient id="SVGID_00000111872187526850977090000005084190809508586629_" gradientUnits="userSpaceOnUse" x1="409.913" y1="826.923" x2="409.913" y2="1030.512" gradientTransform="translate(0 -442)"><stop offset="0" stop-color="#dadadf"/><stop offset=".24" stop-color="#d0d1d5"/><stop offset=".55" stop-color="#b4b5ba"/><stop offset="1" stop-color="#8e9197"/></linearGradient><path d="M409.9 299.3c56.5 0 101.9 45.5 101.9 101.9 0 56.5-45.5 101.9-101.9 101.9-56.5 0-101.9-45.5-101.9-101.9 0-55.7 45.4-101.9 101.9-101.9z" fill="url(#SVGID_00000111872187526850977090000005084190809508586629_)"/><path class="st4" d="M392.3 415.9l-19.1-19.1-8 8.1 27.1 27.1 56.5-56.5-8.1-8z"/><path class="st4" d="M392.3 436.4l-31.5-31.5 12.5-12.5 19.1 19.1 48.4-48.4 12.5 12.5-61 60.8zm-22.7-31.5l23.5 23.5 52.1-52.1-4.4-4.4-48.4 48.4-19.1-19.1-3.7 3.7z"/></svg>