<svg version="1.1" id="Layer_1" xmlns="http://www.w3.org/2000/svg" x="0" y="0" viewBox="0 0 512 512" xml:space="preserve"><style/><linearGradient id="SVGID_1_" gradientUnits="userSpaceOnUse" x1=".135" y1="112.446" x2="491.47" y2="112.446" gradientTransform="matrix(1 0 0 -1 0 514)"><stop offset="0" stop-color="#2b4a9f"/><stop offset="1" stop-color="#2bbaed"/></linearGradient><path d="M268.4 421.9l-.3.4c-11.5 12.4-30.8 13.1-43.2 1.7-.6-.5-1.1-1.1-1.7-1.7-11.4-12.4-10.6-31.7 1.8-43.2 5.3-4.9 12.2-7.8 19.5-8.1h2.9c16.7.6 29.7 14.6 29.1 31.2-.2 7.4-3.1 14.3-8.1 19.7z" fill="url(#SVGID_1_)"/><linearGradient id="SVGID_00000176763608849094867830000016546532700728111511_" gradientUnits="userSpaceOnUse" x1=".135" y1="243.87" x2="491.597" y2="243.87" gradientTransform="matrix(1 0 0 -1 0 514)"><stop offset="0" stop-color="#2b4a9f"/><stop offset="1" stop-color="#2bbaed"/></linearGradient><path d="M246.7 216.9c-45.8-.1-90.5 14.3-127.7 41.1-13.8 9.8-17 29-7.1 42.8.7 1 1.5 2 2.3 2.9l9.2 9.9c10.5 11.5 27.9 13.2 40.4 4 39.9-29.9 92.8-36.3 138.7-16.8 9.9-23.8 27.2-43.8 49.4-57.1-32.3-17.8-68.4-27-105.2-26.8z" fill="url(#SVGID_00000176763608849094867830000016546532700728111511_)"/><linearGradient id="SVGID_00000090281198360859534020000006995194559920677535_" gradientUnits="userSpaceOnUse" x1=".132" y1="376.36" x2="491.433" y2="376.36" gradientTransform="matrix(1 0 0 -1 0 514)"><stop offset="0" stop-color="#2b4a9f"/><stop offset="1" stop-color="#2bbaed"/></linearGradient><path d="M483.5 186.9l-10.1 11.2c-10.4 11.5-27.9 13.2-40.4 4-111.3-82.8-263.9-82.7-375.1.3-12.5 9.2-30 7.5-40.5-4l-9.3-10.3c-11.4-12.5-10.5-31.8 1.9-43.2.9-.8 1.9-1.6 2.9-2.3 138.8-100.4 326.2-100.9 465.6-1.3 13.8 9.8 17 28.9 7.2 42.7-.6 1-1.4 1.9-2.2 2.9z" fill="url(#SVGID_00000090281198360859534020000006995194559920677535_)"/><linearGradient id="SVGID_00000152254931508976207700000005115052516082034866_" gradientUnits="userSpaceOnUse" x1="414.247" y1="146.316" x2="414.247" y2="120.09" gradientTransform="matrix(1 0 0 -1 0 514)"><stop offset=".1" stop-color="#dadadf"/><stop offset=".45" stop-color="#d0d1d5"/></linearGradient><path d="M420.4 361.1c1 2.6.1 5.6-2.2 7.2-.4.3-.7.9-.7 1.5v9.8c.1 1.8-1.4 3.4-3.2 3.4-.4 0-.8 0-1.2-.2-1.4-.6-2.2-1.9-2.2-3.4v-9.6c0-.6-.3-1.2-.8-1.5a6.08 6.08 0 01-2.1-7.1c1.2-3.4 4.9-5.2 8.3-4 1.9.6 3.4 2.1 4.1 3.9z" fill="url(#SVGID_00000152254931508976207700000005115052516082034866_)"/><linearGradient id="SVGID_00000137844912878677409690000007945440299527860352_" gradientUnits="userSpaceOnUse" x1="414.279" y1="208.237" x2="414.279" y2="175.511" gradientTransform="matrix(1 0 0 -1 0 514)"><stop offset="0" stop-color="#dadadf"/><stop offset=".66" stop-color="#d0d1d5"/></linearGradient><path d="M427.3 316.5V337h-26.1v-20.1c.3-7.2 6.4-12.8 13.6-12.4 6.7.3 12 5.4 12.5 12z" fill="url(#SVGID_00000137844912878677409690000007945440299527860352_)"/><linearGradient id="SVGID_00000137843603267232823670000001272924608397907351_" gradientUnits="userSpaceOnUse" x1="413.914" y1="182.684" x2="413.914" y2="-13.447" gradientTransform="matrix(1 0 0 -1 0 514)"><stop offset="0" stop-color="#dadadf"/><stop offset=".24" stop-color="#d0d1d5"/><stop offset=".55" stop-color="#b4b5ba"/><stop offset="1" stop-color="#8e9197"/></linearGradient><path d="M483.1 277.8c-38.3-38.2-100.3-38.2-138.5.1s-38.2 100.3.1 138.5 100.3 38.2 138.5-.1c18.3-18.4 28.6-43.3 28.6-69.2.1-26-10.3-50.9-28.7-69.3zm-29.5 105.3c-.1 7.1-5.8 12.9-12.9 12.9h-52.8c-7.1-.1-12.9-5.8-12.9-12.9v-32.9c-.1-4.6 2.4-8.9 6.4-11.2 2-1.2 4.3-1.8 6.6-1.8v-19.9c-.1-11.8 7.7-22.2 19.1-25.4 1.4-.4 2.9-.7 4.3-1h6.2c13 1.7 22.7 12.8 22.8 25.8v19.8h.5c7.1.2 12.7 6.1 12.6 13.2l.1 33.4z" fill="url(#SVGID_00000137843603267232823670000001272924608397907351_)"/></svg>