<svg version="1.1" id="Layer_1" xmlns="http://www.w3.org/2000/svg" x="0" y="0" viewBox="0 0 512 512" xml:space="preserve"><style/><path d="M258.9 175.8c-73.3 0-139.1 45.4-165.3 113.5-5.2 14 1.2 29.7 14.6 36.7l1.2.6c14.6 7 32 1.2 39-13.4v-.6c27.4-61.1 99.5-87.9 160.7-60.5 7.6 3.5 14.6 7.6 21.5 12.2l53-37.8c-33.9-32.7-78.7-50.7-124.7-50.7zm165.3 114c-5.2-13.4-12.2-26.8-20.4-38.4l-36.1 58.2 1.7 3.5c6.4 14.6 23.9 21.5 38.4 15.1l1.2-.6c14.1-7.5 21-23.2 15.2-37.8z" fill="#40bced"/><path d="M505.1 192.6C412 54.7 225.2 18 87.2 110.6c-31.4 21-58.8 47.7-80.3 79.2-10.5 15.1-6.4 36.1 8.7 46.6.6.6 1.7 1.2 2.3 1.2l1.7 1.2c15.7 8.7 35.5 4.1 44.8-11.1C132 121.6 272.9 90.8 378.8 158.3c16.9 11.1 32 23.9 46 38.4 2.9 2.9 5.2 5.8 7.6 9.3 5.8 7.6 11.6 15.1 16.9 23.3 9.9 15.7 30.3 20.4 46 10.5 9.9-6.4 15.7-16.9 15.7-27.9-.6-7.6-2.4-14-5.9-19.3z" fill="#71ccd6"/><linearGradient id="SVGID_1_" gradientUnits="userSpaceOnUse" x1="259.531" y1="559.3" x2="258.816" y2="821.507" gradientTransform="translate(0 -442)"><stop offset="0" stop-color="#27aee4"/><stop offset=".18" stop-color="#28a5de"/><stop offset=".47" stop-color="#2a8bcb"/><stop offset=".85" stop-color="#2d65b0"/><stop offset=".99" stop-color="#2956a6"/></linearGradient><path d="M258.9 175.8c-73.3 0-139.1 45.4-165.3 113.5-5.2 14 1.2 29.7 14.6 36.7l1.2.6c14.6 7 32 1.2 39-13.4v-.6c27.4-61.1 99.5-87.9 160.7-60.5 7.6 3.5 14.6 7.6 21.5 12.2l53-37.8c-33.9-32.7-78.7-50.7-124.7-50.7zm165.3 114c-5.2-13.4-12.2-26.8-20.4-38.4l-36.1 58.2 1.7 3.5c6.4 14.6 23.9 21.5 38.4 15.1l1.2-.6c14.1-7.5 21-23.2 15.2-37.8z" fill="url(#SVGID_1_)"/><linearGradient id="SVGID_00000026157863824907135710000001117902078812086920_" gradientUnits="userSpaceOnUse" x1="259.531" y1="559.3" x2="258.816" y2="821.507" gradientTransform="translate(0 -442)"><stop offset="0" stop-color="#27aee4"/><stop offset=".18" stop-color="#28a5de"/><stop offset=".47" stop-color="#2a8bcb"/><stop offset=".85" stop-color="#2d65b0"/><stop offset=".99" stop-color="#2956a6"/></linearGradient><path d="M258.9 175.8c-73.3 0-139.1 45.4-165.3 113.5-5.2 14 1.2 29.7 14.6 36.7l1.2.6c14.6 7 32 1.2 39-13.4v-.6c27.4-61.1 99.5-87.9 160.7-60.5 7.6 3.5 14.6 7.6 21.5 12.2l53-37.8c-33.9-32.7-78.7-50.7-124.7-50.7zm165.3 114c-5.2-13.4-12.2-26.8-20.4-38.4l-36.1 58.2 1.7 3.5c6.4 14.6 23.9 21.5 38.4 15.1l1.2-.6c14.1-7.5 21-23.2 15.2-37.8z" fill="url(#SVGID_00000026157863824907135710000001117902078812086920_)"/><linearGradient id="SVGID_00000125591981699801106470000012898166124800772526_" gradientUnits="userSpaceOnUse" x1="256.253" y1="559.291" x2="255.538" y2="821.498" gradientTransform="translate(0 -442)"><stop offset="0" stop-color="#27aee4"/><stop offset=".18" stop-color="#28a5de"/><stop offset=".47" stop-color="#2a8bcb"/><stop offset=".85" stop-color="#2d65b0"/><stop offset=".99" stop-color="#2956a6"/></linearGradient><path d="M505.1 192.6C412 54.7 225.2 18 87.2 110.6c-31.4 21-58.8 47.7-80.3 79.2-10.5 15.1-6.4 36.1 8.7 46.6.6.6 1.7 1.2 2.3 1.2l1.7 1.2c15.7 8.7 35.5 4.1 44.8-11.1C132 121.6 272.9 90.8 378.8 158.3c16.9 11.1 32 23.9 46 38.4 2.9 2.9 5.2 5.8 7.6 9.3 5.8 7.6 11.6 15.1 16.9 23.3 9.9 15.7 30.3 20.4 46 10.5 9.9-6.4 15.7-16.9 15.7-27.9-.6-7.6-2.4-14-5.9-19.3z" fill="url(#SVGID_00000125591981699801106470000012898166124800772526_)"/><linearGradient id="SVGID_00000031891557367200270720000002236714218774058386_" gradientUnits="userSpaceOnUse" x1="256.253" y1="559.291" x2="255.538" y2="821.498" gradientTransform="translate(0 -442)"><stop offset="0" stop-color="#27aee4"/><stop offset=".18" stop-color="#28a5de"/><stop offset=".47" stop-color="#2a8bcb"/><stop offset=".85" stop-color="#2d65b0"/><stop offset=".99" stop-color="#2956a6"/></linearGradient><path d="M505.1 192.6C412 54.7 225.2 18 87.2 110.6c-31.4 21-58.8 47.7-80.3 79.2-10.5 15.1-6.4 36.1 8.7 46.6.6.6 1.7 1.2 2.3 1.2l1.7 1.2c15.7 8.7 35.5 4.1 44.8-11.1C132 121.6 272.9 90.8 378.8 158.3c16.9 11.1 32 23.9 46 38.4 2.9 2.9 5.2 5.8 7.6 9.3 5.8 7.6 11.6 15.1 16.9 23.3 9.9 15.7 30.3 20.4 46 10.5 9.9-6.4 15.7-16.9 15.7-27.9-.6-7.6-2.4-14-5.9-19.3z" fill="url(#SVGID_00000031891557367200270720000002236714218774058386_)"/><linearGradient id="SVGID_00000151517927742591400810000000850186849953883012_" gradientUnits="userSpaceOnUse" x1="190.482" y1="770.105" x2="425.909" y2="770.105" gradientTransform="translate(0 -442)"><stop offset="0" stop-color="#dadadf"/><stop offset=".24" stop-color="#d0d1d5"/><stop offset=".55" stop-color="#b4b5ba"/><stop offset="1" stop-color="#8e9197"/></linearGradient><path d="M213.5 356.8c-23.9 15.7-30.8 47.7-15.1 72.2 15.7 23.9 47.7 30.8 72.2 15.1 5.8-4.1 11.1-9.3 15.1-15.1l1.2-2.9 138.5-222.4-211.9 153.1zm29.1 66.9c-13.4 0-23.9-11.1-23.9-24.4 0-9.9 6.4-18.6 15.1-22.1 2.9-1.2 5.8-1.7 8.7-1.7 13.4 0 23.9 10.5 23.9 23.9 0 2.9-.6 5.8-1.7 8.7-3.5 9.8-12.2 15.6-22.1 15.6z" fill="url(#SVGID_00000151517927742591400810000000850186849953883012_)"/></svg>