<svg version="1.1" id="Layer_1" xmlns="http://www.w3.org/2000/svg" x="0" y="0" viewBox="0 0 384.3 232.5" xml:space="preserve"><style>.st4{fill:#fff}.st5,.st9{enable-background:new}.st5{opacity:.2;fill:#fff}.st9{opacity:.1}.st10{fill:#f2f2f2}</style><g id="Layer_1-2"><g id="monitor"><linearGradient id="SVGID_1_" gradientUnits="userSpaceOnUse" x1="196.47" y1="231.89" x2="196.47" y2="62.8" gradientTransform="matrix(1 0 0 -1 0 231.89)"><stop offset="0" stop-color="#dceeff"/><stop offset=".39" stop-color="#d9ecfd"/><stop offset=".63" stop-color="#d1e4f8"/><stop offset=".84" stop-color="#c2d7ee"/><stop offset="1" stop-color="#b0c7e2"/></linearGradient><path d="M327.9 4.2v160.7c0 2.3-1.8 4.2-4.1 4.2H69.2c-2.3 0-4.1-1.9-4.1-4.2V4.2C65 1.9 66.9 0 69.2 0h254.6c2.2 0 4.1 1.9 4.1 4.2z" fill="url(#SVGID_1_)"/><linearGradient id="SVGID_2_" gradientUnits="userSpaceOnUse" x1="196.47" y1="231.89" x2="196.47" y2="45.44" gradientTransform="matrix(1 0 0 -1 0 231.89)"><stop offset=".81" stop-color="#d8d8d8" stop-opacity="0"/><stop offset=".89" stop-color="#efefef" stop-opacity=".6"/><stop offset=".94" stop-color="#fff"/></linearGradient><path d="M327.9 4.2v160.7c0 2.3-1.8 4.2-4.1 4.2H69.2c-2.3 0-4.1-1.9-4.1-4.2V4.2C65 1.9 66.9 0 69.2 0h254.6c2.2 0 4.1 1.9 4.1 4.2z" opacity=".5" fill="url(#SVGID_2_)"/><radialGradient id="SVGID_3_" cx="270.083" cy="149.41" r="136.32" gradientTransform="matrix(.98 0 0 -1 -68.78 231.89)" gradientUnits="userSpaceOnUse"><stop offset="0" stop-color="#2782cc"/><stop offset=".53" stop-color="#2582cd"/><stop offset=".75" stop-color="#1e83cf"/><stop offset=".9" stop-color="#1385d3"/></radialGradient><path fill="url(#SVGID_3_)" d="M75.2 9.2h242.5v146.5H75.2z"/><g opacity=".5"><path class="st4" d="M249.7 63.1c-.5-1.8-1.1-3.6-1.8-5.4 2.3-1.8 1.6-6.4-2.2-6.5-4.6 0-4.7 7-.1 7.2 1.5 4.3 2.2 8.8 2.1 13.4-.1 2.8-.6 5.6-1.4 8.3-1-4-4.5-5-8.4-5.2-3.7-11-15.2-15.3-26.4-15.4-6-.6-12-.9-18.1-.7-4 .1-8 .3-11.9.7-4.4-.1-8.7.6-12.8 2.2-6.4 2.4-11.5 6.8-13.7 13.2-3.9.2-7.4 1.3-8.3 5.5-1.9-6.1-2-12.7-.4-18.9.2-.9.6-2 1-3.2h.1c4.7 0 4.7-7.1 0-7.2-3.7 0-4.5 4.5-2.3 6.3-.7 1.8-1.4 3.6-1.9 5.4-2.9 10-.5 21 3.9 30.2l.1-.1c.9 2.5 2.7 4.3 6.4 4.4h2.3c2.6 7.2 8 12.6 17.4 14.3 14.6 2.3 29.4 2.4 44 .3.8-.1 1.5-.2 2.3-.3 8-1.3 14.7-6.7 17.6-14.3h2.4c3.7-.1 5.6-2 6.4-4.4l.1.1c2.8-5.6 4.5-11.7 5-18 .3-3.9-.2-8-1.4-11.9zm-20 20c-.1 7.2-1.1 14.7-7 18.3-1.5.9-3.2 1.5-5 1.8-2.7.4-5.5.8-8.2 1.1-11.4 1.1-23 .7-34.3-1.1-10.4-1.8-11.9-11.2-12-20.1-.3-8.8 5-12.9 12-14.5 2.5-.5 5-.8 7.5-.8 5.4-.6 10.9-.8 16.4-.7 3.7.1 7.5.3 11.2.7 10-.1 20 3.4 19.4 15.3z"/><path class="st4" d="M174.6 83.3c-.5 3.1 2.6.7 5.9 1.3s5.5 3.6 6 .6c.9-7.4-10.6-9.2-11.9-1.9zm43.8 0c-.1-1-.6-2-1.3-2.8-.3-.4-.7-.7-1.1-.9l-.4-.2c-.2-.1-.3-.1-.5-.2s-.4-.1-.6-.2l-.4-.1c-.3-.1-.6-.1-.8-.1h-.1c-1.8-.1-3.6.4-5 1.6-1.4 1.2-2.1 3-1.8 4.8.1.8.4 1.2.8 1.3h.4c.9-.1 2.1-1.1 3.7-1.6.3-.1.7-.2 1-.3h.2c3.3-.6 6.4 1.7 5.9-1.3z"/><path class="st4" d="M174.6 83.3c-.5 3.1 2.6.7 5.9 1.3s5.5 3.6 6 .6c.9-7.4-10.6-9.2-11.9-1.9zm43.9 0c-.1-1.1-.6-2.1-1.3-2.9-.3-.4-.7-.7-1.1-.9l-.4-.2c-.2-.1-.3-.1-.5-.2s-.4-.1-.6-.2l-.4-.1c-.3-.1-.6-.1-.8-.1h-.1c-1.8-.1-3.6.5-5 1.6-1.4 1.2-2 3-1.7 4.8.1.8.4 1.2.8 1.3h.4c.9-.1 2.1-1 3.7-1.6l.4-.1c.2-.1.4-.1.6-.1h.2c3.2-.6 6.3 1.7 5.8-1.3z"/><path class="st4" d="M174.6 83.3c-.5 3.1 2.6.7 5.9 1.3s5.5 3.6 6 .6c.9-7.4-10.6-9.2-11.9-1.9zm43.9 0c-.1-1.1-.6-2.1-1.3-2.9-.3-.4-.7-.7-1.1-.9l-.4-.2c-.2-.1-.3-.1-.5-.2s-.4-.1-.6-.2l-.4-.1c-.3-.1-.6-.1-.8-.1h-.1c-1.8-.1-3.6.5-5 1.6-1.4 1.2-2 3-1.7 4.8.1.8.4 1.2.8 1.3h.4c.9-.1 2.1-1 3.7-1.6l.4-.1c.2-.1.4-.1.6-.1h.2c3.2-.6 6.3 1.7 5.8-1.3zm-14.6 11c0 9.1-14.9 9.1-14.8 0 .1-.7.6-1.2 1.3-1.3h12.2c.7 0 1.3.6 1.3 1.3z"/></g><path class="st5" d="M327.9 4.2v160.7c0 2.3-1.8 4.2-4.1 4.2h-75.5L85.4 0h238.3c2.3 0 4.2 1.9 4.2 4.2z"/><radialGradient id="SVGID_4_" cx="196.46" cy="16.25" r="83.555" gradientTransform="matrix(1 0 0 -1 0 231.89)" gradientUnits="userSpaceOnUse"><stop offset="0" stop-color="#2782cc"/><stop offset=".53" stop-color="#2582cd"/><stop offset=".75" stop-color="#1e83cf"/><stop offset=".9" stop-color="#1385d3"/></radialGradient><ellipse cx="196.5" cy="215.6" rx="116.9" ry="16.9" opacity=".1" fill="url(#SVGID_4_)"/><linearGradient id="SVGID_5_" gradientUnits="userSpaceOnUse" x1="196.465" y1="22.18" x2="196.465" y2="62.89" gradientTransform="matrix(1 0 0 -1 0 231.89)"><stop offset="0" stop-color="#b0c7e2"/><stop offset=".2" stop-color="#b6cce6" stop-opacity=".93"/><stop offset=".58" stop-color="#c6dbf1" stop-opacity=".74"/><stop offset="1" stop-color="#dceeff" stop-opacity=".5"/></linearGradient><path fill="url(#SVGID_5_)" d="M261.6 209.7H131.3l37-17.4v-23.2h56.3v23.2z"/><path fill="#7293b2" d="M131.3 209.7h130.3v2.7H131.3z"/></g><g id="shield"><path class="st9" d="M67.4 180.3C2.1 140.3 6.6 94.9 6.6 94.9l62.3-44.2-6.9-7.2v-9s38.5 14.7 66.1 14.7v45.7s4.6 45.4-60.7 85.4z"/><path class="st10" d="M60.8 174.6C-4.5 134.6 0 89.2 0 89.2V43.5c27.6 0 60.8-13.6 60.8-13.6s33.1 13.6 60.8 13.6v45.6s4.5 45.4-60.8 85.5z"/><path d="M92.4 138.6c-7.5 8.4-17.7 17.2-31.5 25.7C4.8 129.9 8.7 91 8.7 91V51.8c23.7 0 52.2-11.7 52.2-11.7S89.3 51.8 113 51.8V91c0 .6 1.8 22.4-20.6 47.6z" fill="#018f98"/><path class="st5" d="M92.4 138.6L8.7 51.8c23.7 0 52.2-11.7 52.2-11.7S89.3 51.8 113 51.8V91c0 .6 1.8 22.4-20.6 47.6z"/><path class="st10" d="M38.6 86.5v31.8c-.1 2.3 1.7 4.3 4.1 4.4H79c2.3-.1 4.1-2.1 4-4.4V86.5H38.6zM63.1 104v8.7c0 1.3-1 2.3-2.3 2.3-1.3 0-2.3-1-2.3-2.3V104c-2.5-1.3-3.5-4.3-2.2-6.8s4.3-3.5 6.8-2.2c2.5 1.3 3.5 4.3 2.2 6.8-.4.9-1.2 1.7-2.2 2.2zm16.6-19.7v.3h-4.4v-.3c0-8-6.5-14.5-14.5-14.5s-14.5 6.5-14.5 14.5v.3h-4.4v-.3c0-10.4 8.5-18.9 18.9-18.9s18.9 8.4 18.9 18.9z"/></g><g id="popup"><path class="st9" d="M272.4 43.2v44.7c0 2.2 1.8 3.9 3.9 3.9h51.5v-6h49.4V43.2H272.4zm104.8-6c-.3-1.9-1.9-3.4-3.9-3.4h-97c-2.2 0-3.9 1.8-3.9 3.9v5.5h104.8v-5.5c.1-.1 0-.3 0-.5z"/><path class="st10" d="M384.3 31.8v5.5H279.4v-5.5c0-2.2 1.8-3.9 3.9-3.9h97c2.2 0 3.9 1.7 4 3.9-.1 0 0 0 0 0z"/><linearGradient id="SVGID_6_" gradientUnits="userSpaceOnUse" x1="287.631" y1="149.137" x2="379.151" y2="194.567" gradientTransform="matrix(1 0 0 -1 0 231.89)"><stop offset="0" stop-color="#00b5f8"/><stop offset=".28" stop-color="#2dc0f9"/><stop offset=".92" stop-color="#9ddbfb"/><stop offset="1" stop-color="#abdefb"/></linearGradient><path d="M384.3 37.2v44.7c0 2.2-1.8 3.9-3.9 3.9h-97c-2.2 0-3.9-1.8-3.9-3.9V37.2h104.8z" fill="url(#SVGID_6_)"/><path d="M384.3 31.8V82c0 2.2-1.8 3.9-3.9 3.9h-23.8l-1.2-1.2-14.5-14.5-1.5-1.5-8.3-8.3-1.3-1.3L317.7 47l-3.8-3.8-2.2-2.2-3.8-3.8-3.4-3.4-3.1-3.1-1.7-1.7-1.1-1.1h81.8c2.1 0 3.8 1.7 3.9 3.9z" opacity=".3" fill="#fff"/><path d="M285.8 32c0 .8-.7 1.5-1.5 1.5s-1.5-.7-1.5-1.5.7-1.5 1.5-1.5 1.5.7 1.5 1.5zm6.7 0c0 .8-.7 1.5-1.5 1.4-.8 0-1.5-.7-1.4-1.5 0-.8.7-1.4 1.5-1.4.7 0 1.4.6 1.4 1.5 0-.1 0 0 0 0zm6.7 0c0 .8-.7 1.5-1.5 1.5s-1.5-.7-1.5-1.5.7-1.5 1.5-1.5 1.5.7 1.5 1.5z" fill="#00b5f8"/><linearGradient id="SVGID_7_" gradientUnits="userSpaceOnUse" x1="299.074" y1="166.535" x2="309.106" y2="156.504" gradientTransform="matrix(1 0 0 -1 0 231.89)"><stop offset="0" stop-color="#fff"/><stop offset="1" stop-color="#abdefb"/></linearGradient><path d="M302.3 64h3.5c2.5 0 4.6 2.1 4.6 4.6v3.5c0 2.5-2.1 4.6-4.6 4.6h-3.5c-2.5 0-4.6-2.1-4.6-4.6v-3.5c0-2.5 2.1-4.6 4.6-4.6z" fill="url(#SVGID_7_)"/><linearGradient id="SVGID_8_" gradientUnits="userSpaceOnUse" x1="315.777" y1="166.538" x2="325.803" y2="156.502" gradientTransform="matrix(1 0 0 -1 0 231.89)"><stop offset="0" stop-color="#fff"/><stop offset="1" stop-color="#abdefb"/></linearGradient><path d="M319 64h3.5c2.5 0 4.6 2.1 4.6 4.6v3.5c0 2.5-2.1 4.6-4.6 4.6H319c-2.5 0-4.6-2.1-4.6-4.6v-3.5c0-2.5 2.1-4.6 4.6-4.6z" fill="url(#SVGID_8_)"/><path d="M301.1 69.9l2.3 2.3 3.7-3.7m15.6-.1l-3.8 3.9m3.8 0l-3.8-3.9" fill="none" stroke="#00b5f8" stroke-width="2" stroke-linecap="round" stroke-linejoin="round"/></g></g></svg>