<svg version="1.1" id="Layer_1" xmlns="http://www.w3.org/2000/svg" x="0" y="0" viewBox="0 0 512 512" xml:space="preserve"><style/><linearGradient id="SVGID_1_" gradientUnits="userSpaceOnUse" x1="142.738" y1="620.883" x2="363.012" y2="620.883" gradientTransform="translate(0 -442)"><stop offset="0" stop-color="#2b4a9f"/><stop offset="1" stop-color="#2bbaed"/></linearGradient><path d="M245.2.4c-69.1 3-119.2 76.7-97.9 141.9.7 8.4 96.4 199.7 101.7 212.6 1.5 2.3 4.6 3.8 6.8 2.3.8-.8 2.3-1.5 2.3-2.3 3.8-9.1 96.4-203.4 97.2-206.5C384.1 74.8 324.1-6.4 245.2.4zm12.9 146.5c-48.6 6.8-57.7-69.1-9.9-74.4 48.6-6.8 57.7 69.1 9.9 74.4z" fill="url(#SVGID_1_)"/><linearGradient id="SVGID_00000103950196903444443370000007845629416656163223_" gradientUnits="userSpaceOnUse" x1="255.832" y1="798.657" x2="255.832" y2="996.33" gradientTransform="translate(0 -442)"><stop offset="0" stop-color="#dadadf"/><stop offset=".24" stop-color="#d0d1d5"/><stop offset=".55" stop-color="#b4b5ba"/><stop offset="1" stop-color="#8e9197"/></linearGradient><path d="M340.8 235.7c-2.3 2.3-1.5 6.1.8 8.3l.8.8c34.9 19.7 57.7 50.9 57.7 85.8 0 59.2-64.5 107-145 107s-145-47.8-145-107.8c0-33.4 21.3-63.8 53.9-83.5 2.3-1.5 3.8-5.3 2.3-7.6-1.5-3-4.6-3.8-7.6-3h-.8c-50.9 26.6-83.5 72.9-83.5 126 0 82.7 81.2 150.3 181.4 150.3s181.4-66.8 181.4-150.3c0-54.7-35.7-102.5-88-129-3-.8-6.8 0-8.4 3z" fill="url(#SVGID_00000103950196903444443370000007845629416656163223_)"/></svg>