<?xml version="1.0" encoding="utf-8"?>
<!-- Generator: Adobe Illustrator 26.3.0, SVG Export Plug-In . SVG Version: 6.00 Build 0)  -->
<svg version="1.1" id="Layer_1" xmlns="http://www.w3.org/2000/svg" xmlns:xlink="http://www.w3.org/1999/xlink" x="0px" y="0px"
	 viewBox="0 0 512 512" style="enable-background:new 0 0 512 512;" xml:space="preserve">
<style type="text/css">
	.st0{opacity:0.1;}
	.st1{fill:#FAC212;}
	.st2{opacity:0.4;}
	.st3{fill:url(#SVGID_1_);}
	.st4{fill:url(#SVGID_00000135687354313925599270000009423474842154013584_);}
	.st5{fill:url(#SVGID_00000113327729381511696760000004583340419695541181_);}
	.st6{fill:#445F70;}
	.st7{fill:#FFFFFF;}
	.st8{fill:#435E6F;}
</style>
<g>
	<g>
		<g class="st0">
			<path class="st1" d="M412.4,295.6v94.7c0,12.2-10,22.1-22.1,22.1h-94.7c4.5,55.7,51.1,99.6,108,99.6
				c59.9,0,108.4-48.5,108.4-108.4C512,346.7,468.2,300.1,412.4,295.6z"/>
		</g>
		<g class="st2">
			<path class="st1" d="M414.4,328.4v63c0,12.2-10,22.1-22.1,22.1h-63c4.3,38.3,36.8,68.1,76.4,68.1c42.4,0,76.8-34.4,76.8-76.8
				C482.5,365.2,452.7,332.6,414.4,328.4z"/>
		</g>
	</g>
	<g>
		<g>
			
				<linearGradient id="SVGID_1_" gradientUnits="userSpaceOnUse" x1="255.9993" y1="493.8188" x2="255.9993" y2="31.0142" gradientTransform="matrix(1 0 0 -1 0 512)">
				<stop  offset="0" style="stop-color:#5F798A"/>
				<stop  offset="1" style="stop-color:#5F798A;stop-opacity:0"/>
			</linearGradient>
			<path class="st3" d="M499.9,433.4H12.1c-6.8,0-12.1-4.8-12.1-10.9v-333c-0.1-6.1,5.4-10.9,12.1-10.9h487.8
				c6.7,0,12.1,4.9,12.1,10.9v332.8C512,428.4,506.6,433.4,499.9,433.4z M12.1,80.8c-5.3,0-9.6,3.9-9.6,8.7v332.8
				c0,4.9,4.2,8.7,9.6,8.7h487.8c5.3,0,9.6-3.9,9.6-8.7V89.5c0-4.8-4.3-8.7-9.6-8.7H12.1z"/>
		</g>
		
			<linearGradient id="SVGID_00000138563996179676849900000000541078212006960282_" gradientUnits="userSpaceOnUse" x1="255.95" y1="79.8983" x2="255.95" y2="432.3" gradientTransform="matrix(1 0 0 -1 0 512)">
			<stop  offset="0" style="stop-color:#445F70"/>
			<stop  offset="1" style="stop-color:#242E38"/>
		</linearGradient>
		<path style="fill:url(#SVGID_00000138563996179676849900000000541078212006960282_);" d="M1.1,422.4V89.5c0-5.4,4.8-9.8,10.9-9.8
			h487.9c5.9,0,10.9,4.4,10.9,9.8v332.8c0,5.4-4.8,9.8-10.9,9.8H12.1C6.1,432.2,1.1,427.8,1.1,422.4z"/>
		
			<linearGradient id="SVGID_00000104702409264755451260000006075375074850828194_" gradientUnits="userSpaceOnUse" x1="256.05" y1="420.7104" x2="256.05" y2="91.1" gradientTransform="matrix(1 0 0 -1 0 512)">
			<stop  offset="0" style="stop-color:#445F70"/>
			<stop  offset="1" style="stop-color:#242E38"/>
		</linearGradient>
		<path style="fill:url(#SVGID_00000104702409264755451260000006075375074850828194_);" d="M498.1,97.1v318c0,3.3-2.8,5.8-6.4,5.8
			H20.4c-3.6,0-6.4-2.6-6.4-5.8v-318c0-3.3,2.8-5.8,6.4-5.8h471.4C495.1,91.1,498.1,93.8,498.1,97.1z"/>
		<g>
			<circle class="st6" cx="256" cy="255.9" r="114"/>
		</g>
		<g>
			<path class="st7" d="M303.5,200.1l-16.2,16.2c-9.4-4.7-19.7-7.8-30.6-7.8c-33.4,0-63.5,30-74.3,42.3c-2.6,3-2.6,7.4,0,10.3
				c5.9,6.7,17.4,18.5,32,28.1l-14,14l8.5,8.5l16.3-16.3l10.2-10.2l76.7-76.7L303.5,200.1z M263.3,240.4c-2.2-1-4.7-1.7-7.3-1.7
				c-9.5,0-17.4,7.7-17.4,17.4c0,2.6,0.5,5.1,1.7,7.3l-13.5,13.5c-4.2-5.9-6.7-13.1-6.7-20.8c0-19.7,16.1-35.7,35.7-35.7
				c7.7,0,14.9,2.5,20.8,6.7L263.3,240.4z M329.5,261.1c-10.3,12.3-39.1,42.5-72.8,42.5c-1.7,0-3.4-0.1-5.1-0.3
				c-4.8-0.4-9.5-1.4-14.1-2.9l9.7-9.7c2.7,0.7,5.6,1,8.6,1c19.7,0,35.7-16.1,35.7-35.7c0-3-0.4-5.9-1-8.6l17.5-17.5
				c3.3,2.6,6.3,5.4,9,8c5.4,5.1,9.5,9.8,12.4,13.2C332,254,332,258.3,329.5,261.1z"/>
		</g>
	</g>
	<g>
		<circle class="st1" cx="404" cy="404" r="57.3"/>
	</g>
	<g>
		<path class="st8" d="M421.7,407.5c7.8,0,14.1,6.3,14.1,14.1c0,7.8-6.3,14.1-14.1,14.1c-7.6,0-14.1-6.3-14.1-14.1h-7.1
			c0,7.8-6.3,14.1-14.1,14.1s-14.1-6.3-14.1-14.1c0-7.8,6.3-14.1,14.1-14.1c5,0,9.7,2.7,12.2,7.1h10.8
			C411.9,410.2,416.6,407.5,421.7,407.5z M368.8,404v-7.1h7.1v-10.6c0-7.8,6.3-14.1,14.1-14.1h28.2c7.8,0,14.1,6.3,14.1,14.1v10.6
			h7.1v7.1H368.8z"/>
	</g>
</g>
</svg>
