<?xml version="1.0" encoding="utf-8"?>
<!-- Generator: Adobe Illustrator 26.3.0, SVG Export Plug-In . SVG Version: 6.00 Build 0)  -->
<svg version="1.1" id="Layer_1" xmlns="http://www.w3.org/2000/svg" xmlns:xlink="http://www.w3.org/1999/xlink" x="0px" y="0px"
	 viewBox="0 0 512 512" style="enable-background:new 0 0 512 512;" xml:space="preserve">
<style type="text/css">
	.st0{opacity:0.1;}
	.st1{fill:#FAC212;}
	.st2{opacity:0.4;}
	.st3{fill:url(#SVGID_1_);}
	.st4{fill:url(#SVGID_00000145034328728996492140000001668276538648578180_);}
	.st5{fill:url(#SVGID_00000155122634777463234070000001427249065344839077_);}
	.st6{fill:url(#SVGID_00000057843347666195330340000011625414572667406233_);}
	.st7{opacity:0.2;fill:#242E38;enable-background:new    ;}
	.st8{fill:none;}
	.st9{fill:#445F70;}
	.st10{fill:#FFFFFF;}
	.st11{fill:#435E6F;}
</style>
<g class="st0">
	<circle class="st1" cx="404" cy="404" r="108.4"/>
</g>
<g class="st2">
	<circle class="st1" cx="404" cy="404" r="78.4"/>
</g>
<g>
	<g>
		
			<linearGradient id="SVGID_1_" gradientUnits="userSpaceOnUse" x1="256" y1="516.6158" x2="256" y2="3.745" gradientTransform="matrix(1 0 0 -1 0 512)">
			<stop  offset="0" style="stop-color:#5F798A"/>
			<stop  offset="1" style="stop-color:#5F798A;stop-opacity:0"/>
		</linearGradient>
		<path class="st3" d="M384.2,478.1H127.8L-0.4,255.9L127.8,34h256.4l0.6,1l127.6,221l-0.6,1L384.2,478.1z M130.2,474h251.6
			l125.9-218.1L381.9,38.1H130.2L4.4,255.9L130.2,474z"/>
	</g>
	
		<linearGradient id="SVGID_00000054235460996378342390000014216813622018001584_" gradientUnits="userSpaceOnUse" x1="256" y1="476.0281" x2="256" y2="36.0718">
		<stop  offset="0" style="stop-color:#445F70"/>
		<stop  offset="1" style="stop-color:#242E38"/>
	</linearGradient>
	<polygon style="fill:url(#SVGID_00000054235460996378342390000014216813622018001584_);" points="382.9,36.1 129,36.1 2,255.9 
		129,476 382.9,476 510,255.9 	"/>
	
		<linearGradient id="SVGID_00000063634499345700524050000013013303697212485008_" gradientUnits="userSpaceOnUse" x1="256" y1="61.8663" x2="256" y2="450.3373">
		<stop  offset="1.357930e-02" style="stop-color:#5A7788"/>
		<stop  offset="1" style="stop-color:#242E38"/>
	</linearGradient>
	<polygon style="fill:url(#SVGID_00000063634499345700524050000013013303697212485008_);" points="368.1,61.9 143.9,61.9 
		31.7,255.9 143.9,450.3 368.1,450.3 480.3,255.9 	"/>
	<g>
		
			<linearGradient id="SVGID_00000034054460330307076600000009150002408667540109_" gradientUnits="userSpaceOnUse" x1="40.7353" y1="255.9464" x2="471.2647" y2="255.9464">
			<stop  offset="0" style="stop-color:#445F70"/>
			<stop  offset="1" style="stop-color:#242E38"/>
		</linearGradient>
		<path style="fill:url(#SVGID_00000034054460330307076600000009150002408667540109_);" d="M471.3,255.9l-14.8,25.8l-10.3,17.7
			l-34,58.7L407,367l-13.4,23.3l-4.5,7.8l-21.7,37.4l-3.9,6.8H148.4l-3.1-5.4l-24.4-42.4l-10.3-17.7l-7.8-13.6l-1.1-2.1l-44.3-76.8
			L50.7,273l-9.9-17.2l9.8-17l1.7-2.8l19.6-33.9c0-0.1,0-0.1,0.1-0.1l3-5.3l0,0l33-57.2l17.3-30l0,0l22.3-38.4l0.8-1.6h215.4
			l4.4,7.5l19.2,33.4l0.6,1l19.5,33.8l0,0v0.1l5.2,8.9l21.5,37.3l5.2,9l2.1,3.6l10.3,17.6L471.3,255.9z"/>
		<path class="st7" d="M354,435.4v6.8h9.6l3.9-6.8H354z M336.9,441.8c-7.3-7.9-19.5-9-27.3-1.9l-1.9,1.9c-0.1,0.2-0.3,0.4-0.3,0.6
			h29.8C337.3,442.3,337,441.9,336.9,441.8z M266.6,435.4v6.8h19.3v-6.8H266.6z M232.8,435.4v6.8h19.3v-6.8H232.8z M215.2,441.8
			c-3.6-4.2-9.1-7.3-14.6-6.6c-5.5-0.6-10.9,1.9-14.6,6.6c-0.1,0.2-0.3,0.4-0.3,0.6h30C215.4,442.3,215.2,441.9,215.2,441.8z
			 M145.3,435.4v1.5l3.1,5.4h16.1v-6.8H145.3z M386.7,358.1l-1.9,1.9c-6,10.9-6,24.2,0.6,35c1.1,1.2,2.3,2.2,3.6,3.1l4.5-7.8
			c-0.2-0.3-0.4-0.6-0.7-0.9c-3-7.3-3-15.8,0-23.1c1.9-3.6,6.6-5.4,10.3-3.6c1.2,0.6,2.4,1.8,3.6,3.6c0.1,0.2,0.2,0.5,0.3,0.7
			l5.2-8.9C404.8,351.9,393.9,351.4,386.7,358.1z M344.2,354.3v9h9v38.2h10.3v-47.3L344.2,354.3L344.2,354.3z M310.4,354.3v9h9v38.2
			h10.3v-47.3L310.4,354.3L310.4,354.3z M293.3,360.4c-7.3-7.9-19.4-9-27.2-1.9l-1.9,1.9c-6.6,10.9-6.6,24.9,0,35.6
			c7.3,7.9,19.5,9,27.3,1.9l1.8-1.9C299.4,384.7,299.4,371.4,293.3,360.4z M285.5,389.4c-1.2,2.4-4.2,4.2-7.3,4.2
			c-3,0-5.5-1.9-6.6-4.2c-3-7.3-3-15.8,0-23.1c1.2-2.4,4.2-4.2,6.6-4.2c3,0,6,1.9,7.3,4.2C288.6,373.9,288.6,382.3,285.5,389.4z
			 M239.3,360.4c-3.6-4.9-9-7.3-14.6-6.6c-5.5-0.6-11.5,1.9-14.6,6.6c-6.6,10.9-6.6,24.9,0,35.6c3.6,4.2,9,7.3,14.6,6.6
			c5.4,0.6,10.9-2.4,14.6-6.6C245.8,384.7,245.8,371.4,239.3,360.4z M232.1,389.4c-1.9,3.6-6.6,5.4-10.3,3.6
			c-1.2-0.6-2.4-1.9-3.6-3.6c-3-7.3-3-15.8,0-23.1c1.8-3.6,6.6-5.4,10.3-3.6c1.2,0.6,2.4,1.8,3.6,3.6
			C235.2,373.9,235.2,382.3,232.1,389.4z M169.6,354.3v9h9v38.2h10.3v-47.3L169.6,354.3L169.6,354.3z M135.7,354.3v9h9.1v38.2h10.3
			v-47.3L135.7,354.3L135.7,354.3z M101.6,354.3v7l1.1,2.1h7.9V377l10.3,17.7v-40.3L101.6,354.3L101.6,354.3z M437.2,273.1v9h9.1
			v17.3l10.3-17.7v-8.6L437.2,273.1L437.2,273.1z M403.2,273.1v9h9v38.2h9.6V273L403.2,273.1L403.2,273.1z M368.4,273.1v9h9.1v38.2
			h10.3V273L368.4,273.1L368.4,273.1z M334.7,273.1v9h9v38.2H354V273L334.7,273.1L334.7,273.1z M317.5,279.2
			c-7.3-7.9-19.5-9-27.3-1.9l-1.8,1.9c-6.6,10.9-6.6,24.9,0,35.6c7.3,7.9,19.4,9,27.2,1.8l1.9-1.8
			C323.5,303.4,323.5,290,317.5,279.2z M309.9,308.2c-1.2,2.4-4.2,4.2-6.6,4.2c-3,0-6-1.9-7.3-4.2c-1.9-3.6-2.4-7.3-2.4-11.5
			c0-3.6,0.6-7.9,2.4-11.5c1.2-3,4.2-4.2,7.3-4.2c3,0,5.5,1.9,6.6,4.2c1.9,3.6,2.4,7.3,2.4,11.5C312,301,310.9,304.6,309.9,308.2z
			 M247.1,273.1v9h9.1v38.2h10.3V273L247.1,273.1L247.1,273.1z M213.3,273.1v9h9v38.2h10.3V273L213.3,273.1L213.3,273.1z
			 M195.7,279.2c-3.6-4.2-9.1-7.3-14.6-6.6c-5.5-0.6-11.5,2.4-14.6,6.6c-6.6,10.9-6.6,24.9,0,35.6c3.6,4.9,9,7.3,14.6,6.6
			c5.5,0.6,11.5-1.8,14.6-6.6C202.2,303.4,202.2,290,195.7,279.2z M187.7,308.2c-1.2,2.4-3.6,4.2-6.6,4.2s-6-1.9-7.3-4.2
			c-1.9-3.6-2.4-7.3-2.4-11.5c0-3.6,0.6-7.9,2.4-11.5c1.2-3,4.2-4.2,7.3-4.2s5.4,1.9,6.6,4.2c1.9,3.6,2.4,7.3,2.4,11.5
			C190.3,301,189.6,304.6,187.7,308.2z M142.3,279.2c-3.6-4.2-9-7.3-14.6-6.6c-6-0.6-11.5,1.9-15.2,6.6c-6.6,10.9-6.6,24.9,0,35.6
			c3.6,4.9,9,7.3,14.6,6.6c5.4,0.6,10.9-1.8,14.6-6.6C148.4,303.4,148.4,290,142.3,279.2z M134.4,308.2c-1.9,3.6-6.6,5.4-10.3,3.6
			c-1.9-0.6-3-1.8-3.6-3.6c-1.9-3.6-2.4-7.3-2.4-11.5c0-3.6,0.6-7.9,2.4-11.5c1.9-3.6,6.6-5.5,10.3-3.6c1.9,0.6,3,1.9,3.6,3.6
			c1.9,3.6,2.4,7.3,2.4,11.5C136.8,301,136.2,304.6,134.4,308.2z M71.9,273.1v9H81v38.2h10.3V273L71.9,273.1L71.9,273.1z
			 M50.7,273.1l6.6,11.5v-11.5H50.7z M441.4,204.3v34.6h10.3v-17L441.4,204.3z M434.1,191.7h-1.8v9h6.9L434.1,191.7z M414.6,197.8
			c-7.3-7.9-19.4-9-27.3-1.9l-1.8,1.9c-6.6,10.9-6.6,24.9,0,35.6c7.3,7.9,19.4,9,27.2,1.9l1.9-1.9c2.4-3.6,4.2-7.9,4.9-12.7v-10
			C418.8,205.7,417.6,201.5,414.6,197.8z M407.3,226.9c-1.9,3.6-6.6,5.4-10.3,3.6c-1.9-0.6-3-1.8-3.6-3.6c-1.9-3.6-2.4-7.3-2.4-11.5
			c0-4.2,0.6-7.9,2.4-11.5c1.8-3.6,6.6-5.5,10.3-3.6c1.9,0.6,3,1.9,3.6,3.6c1.9,3.6,2.4,7.3,2.4,11.5
			C409.2,219.5,408.5,223.3,407.3,226.9z M344.2,191.7v9h9v38.2h10.3v-47.3L344.2,191.7L344.2,191.7z M310.4,191.7v9h9v38.2h10.3
			v-47.3L310.4,191.7L310.4,191.7z M293.3,197.9c-7.3-7.9-19.4-9-27.2-1.9l-1.9,1.9c-6.6,10.9-6.6,24.9,0,35.6
			c7.3,7.9,19.5,9,27.3,1.8l1.8-1.8C299.4,222.1,299.4,208.7,293.3,197.9z M285.5,226.9c-1.2,3-4.2,4.2-7.3,4.2
			c-3,0-5.5-1.9-6.6-4.2c-1.9-3.6-2.4-7.3-2.4-11.5c0-4.2,0.6-7.9,2.4-11.5c1.2-3,3.6-4.2,6.6-4.2c3,0,6,1.9,7.3,4.2
			c1.9,3.6,2.4,7.3,2.4,11.5C288,219.5,286.7,223.3,285.5,226.9z M223,191.7v9h9v38.2h10.3v-47.3L223,191.7L223,191.7z M189.1,191.7
			v9h9v38.2h10.3v-47.3L189.1,191.7L189.1,191.7z M154.9,191.7v9h9.1v38.2h10.3v-47.3L154.9,191.7L154.9,191.7z M121.1,191.7v9h9
			v38.2h10.3v-47.3L121.1,191.7L121.1,191.7z M103.5,197.9c-3.6-4.2-9.1-7.3-14.6-6.6c-5.1-0.6-10.2,1.5-13.8,5.7l0,0
			c-0.3,0.3-0.5,0.6-0.8,0.9c-0.8,1.3-1.6,2.8-2.3,4.4c0,0.1,0,0.1-0.1,0.1c-4.2,10-3.5,21.9,2.3,31.3c3.6,4.9,9,7.3,14.6,6.6
			c5.4,0.6,10.9-2.4,14.6-6.6C109.6,222.1,109.6,208.7,103.5,197.9z M95.6,226.9c-1.9,3.6-6.6,5.4-10.3,3.6c-1.9-0.6-3-1.8-3.6-3.6
			c-1.9-3.6-2.4-7.3-2.4-11.5c0-4.2,0.6-7.9,2.4-11.5c1.8-3.6,6.6-5.5,10.3-3.6c1.9,0.6,3,1.9,3.6,3.6c1.8,3.6,2.4,7.3,2.4,11.5
			C98,219.5,97.4,223.3,95.6,226.9z M50.7,239h1.7v-2.8L50.7,239z M407.2,145.3c0.7,2.4,1.9,4.7,3.1,6.8c0.6,0.7,1.2,1.5,2.1,2.2
			L407.2,145.3z M368.4,110.5v9h9.1v38.3h10.3v-47.3H368.4z M351.4,116.4c-7.3-7.9-19.5-9-27.3-1.9l-1.9,1.9
			c-6.6,10.9-6.6,24.9,0,35.6c7.3,7.9,19.5,9,27.3,1.9l1.9-1.9C357.6,141.1,357.6,127.3,351.4,116.4z M343.5,145.5
			c-1.9,3.6-6.6,5.4-10.3,3.6c-1.2-0.6-2.4-1.9-3.6-3.6c-3-7.3-3-15.8,0-23.1c1.8-3.6,6.6-5.4,10.3-3.6c1.2,0.6,2.4,1.8,3.6,3.6
			C346.6,129.9,346.6,138.2,343.5,145.5z M281.4,110.5v9h9v38.3h10.3v-47.3H281.4z M247.1,110.5v9h9.1v38.3h10.3v-47.3H247.1z
			 M213.3,110.5v9h9v38.3h10.3v-47.3H213.3z M195.7,116.4c-3.6-4.9-9.1-7.3-14.6-6.6c-5.5-0.6-11.5,1.9-14.6,6.6
			c-6.6,10.9-6.6,24.9,0,35.6c3.6,4.2,9,7.3,14.6,6.6c5.5,0.6,10.9-2.4,14.6-6.6C202.2,141.1,202.2,127.3,195.7,116.4z M187.7,145.5
			c-1.2,2.4-4.2,4.2-6.6,4.2c-3,0-5.5-1.9-7.3-4.2c-3-7.3-3-15.8,0-23.1c1.2-2.4,4.2-4.2,7.3-4.2s5.4,1.9,6.6,4.2
			C190.8,129.9,190.8,138.2,187.7,145.5z M142.3,116.4c-3.6-4.9-9-7.3-14.6-6.6c-0.8-0.1-1.6-0.1-2.4-0.1l0,0l-17.3,30
			c0.7,4.4,2.2,8.6,4.6,12.3c3.6,4.2,9,7.3,14.6,6.6c5.4,0.6,10.9-2.4,14.6-6.6C148.4,141.1,148.4,127.3,142.3,116.4z M134.4,145.5
			c-1.9,3.6-6.6,5.4-10.3,3.6c-1.9-0.6-3-1.9-3.6-3.6c-3-7.3-3-15.8,0-23.1c1.9-3.6,6.6-5.4,10.3-3.6c1.9,0.6,3,1.8,3.6,3.6
			C137.5,129.9,137.5,138.2,134.4,145.5z M363.6,69.7h-0.5v7.5h4.9L363.6,69.7z M307.4,69.7c0.1,0.3,0.3,0.6,0.5,0.8
			c7.3,7.9,19.5,9,27.9,1.9l1.9-1.9c0.2-0.3,0.3-0.5,0.5-0.8H307.4z M253.3,69.7c0.1,0.3,0.3,0.6,0.5,0.8c3.6,4.2,9.1,7.3,14.6,6.6
			c5.5,0.6,10.9-1.9,14.6-6.6c0.2-0.3,0.4-0.5,0.5-0.8H253.3z M199.6,69.7c0.2,0.3,0.4,0.6,0.6,0.8c3.6,4.2,9,7.3,14.6,6.6
			c5.4,0.6,10.9-1.9,14.6-6.6c0.2-0.3,0.4-0.5,0.5-0.8H199.6z M148.4,69.7l-0.8,1.6c3.6,3.8,8.8,6.5,14,5.9
			c5.5,0.6,10.9-1.9,14.6-6.6c0.2-0.3,0.4-0.5,0.5-0.8C176.6,69.6,148.4,69.6,148.4,69.7z"/>
	</g>
	<polygon class="st8" points="363.6,69.7 148.4,69.7 40.8,255.9 148.4,442.4 363.6,442.4 471.3,255.9 	"/>
	<g>
		<g>
			<circle class="st9" cx="255.9" cy="255.8" r="83.6"/>
		</g>
		<g>
			<path class="st10" d="M226.1,213.3l6,8.6c-18.9,13.2-23.5,39.3-10.4,58.2c13.2,19,39.3,23.5,58.2,10.4
				c18.9-13.2,23.5-39.3,10.4-58.2c-2.8-4-6.3-7.5-10.4-10.4l6-8.6c14.1,9.8,22.4,25.8,22.4,42.8c0,28.9-23.4,52.3-52.3,52.3
				s-52.3-23.4-52.3-52.3C203.6,238.8,212.1,223,226.1,213.3z M250.7,255.9v-52.2h10.5V256h-10.5V255.9z"/>
			<path class="st10" d="M255.9,310.3c-29.9,0-54.3-24.3-54.3-54.3c0-17.7,8.7-34.4,23.1-44.4c0.9-0.6,2.2-0.4,2.8,0.5l6,8.6
				c0.6,0.9,0.4,2.2-0.5,2.8c-8.8,6.1-14.5,15.2-16.4,25.7c-1.9,10.6,0.5,21,6.6,29.8c6.1,8.8,15.2,14.5,25.7,16.4
				c10.6,1.9,21-0.5,29.8-6.6c17.9-12.5,22.4-37.4,9.8-55.5c-2.7-3.8-6-7.1-9.8-9.8c-0.9-0.6-1.1-1.9-0.5-2.8l6-8.6
				c0.6-0.9,1.9-1.1,2.8-0.5c14.5,10.2,23.2,26.7,23.1,44.4C310.4,286,286,310.3,255.9,310.3z M225.5,216
				c-12.4,9.5-19.8,24.3-19.8,40c0,27.8,22.6,50.3,50.3,50.3s50.3-22.6,50.3-50.3c0-15.7-7.4-30.6-19.8-40l-3.7,5.4
				c3.5,2.7,6.6,5.9,9.2,9.6c13.8,19.8,9.1,47.1-10.8,61c-9.6,6.7-21.2,9.3-32.7,7.3c-11.5-2.1-21.5-8.5-28.3-18
				c-6.7-9.6-9.3-21.2-7.3-32.7c2-10.9,7.8-20.4,16.4-27.1L225.5,216z M261.3,258.1h-10.5c-1.1,0-2-0.9-2-2v-52.2c0-1.1,0.9-2,2-2
				h10.5c1.1,0,2,0.9,2,2v52.3C263.3,257,262.3,258.1,261.3,258.1z M252.8,254h6.5v-48.3h-6.5L252.8,254L252.8,254z"/>
		</g>
	</g>
</g>
<g>
	<g>
		<g>
			<circle class="st1" cx="404" cy="404" r="57.3"/>
		</g>
		<g>
			<path class="st11" d="M421.9,395.5h-0.3v-13.4c0-8.9-6.6-16.4-15.5-17.4h-4.2c-1,0.3-1.9,0.3-2.9,0.6c-7.6,2.3-12.7,9.2-12.7,17
				v13c-4.9,0-8.9,3.9-8.9,8.9v22.3c0,4.7,3.9,8.6,8.6,8.6h35.7c4.9,0,8.6-3.9,8.9-8.9V404C430.4,399.4,426.8,395.5,421.9,395.5z
				 M406.6,416.5c-0.3,0.3-0.3,0.6-0.3,1v6.6c0,1.3-1,2.3-1.9,2.3h-1c-1-0.3-1.6-1.3-1.3-2.3v-6.6c0-0.3-0.3-0.6-0.6-1
				c-1.6-1-1.9-2.9-1.6-4.7c0.6-2.3,3.2-3.6,5.7-2.6c1.3,0.3,2.3,1.3,2.6,2.6C408.4,413.5,407.8,415.5,406.6,416.5z M412.7,395.5
				H395v-13.8c0-4.9,3.9-8.9,8.6-8.9c4.9,0,8.9,3.9,8.9,8.6C412.7,386.1,412.7,390.5,412.7,395.5z"/>
		</g>
	</g>
</g>
</svg>
