<?xml version="1.0" encoding="utf-8"?>
<!-- Generator: Adobe Illustrator 26.3.0, SVG Export Plug-In . SVG Version: 6.00 Build 0)  -->
<svg version="1.1" id="Layer_1" xmlns="http://www.w3.org/2000/svg" xmlns:xlink="http://www.w3.org/1999/xlink" x="0px" y="0px"
	 viewBox="0 0 512 512" style="enable-background:new 0 0 512 512;" xml:space="preserve">
<style type="text/css">
	.st0{opacity:0.1;}
	.st1{fill:#FAC212;}
	.st2{opacity:0.4;}
	.st3{fill:url(#SVGID_1_);}
	.st4{fill:url(#SVGID_00000098218571588362415990000011994510455026451097_);}
	.st5{fill:url(#SVGID_00000070112886745501274110000011438692503098619803_);}
	.st6{fill:#445F70;}
	.st7{fill:#FFFFFF;}
	.st8{fill:#435E6F;}
</style>
<g>
	<g>
		<g class="st0">
			<circle class="st1" cx="404" cy="404" r="108.4"/>
		</g>
		<g class="st2">
			<circle class="st1" cx="404" cy="404" r="78.4"/>
		</g>
	</g>
</g>
<g>
	<g>
		
			<linearGradient id="SVGID_1_" gradientUnits="userSpaceOnUse" x1="254.6" y1="453.3658" x2="254.6" y2="111.975" gradientTransform="matrix(1 0 0 -1 0 512)">
			<stop  offset="0" style="stop-color:#5F798A"/>
			<stop  offset="1" style="stop-color:#5F798A;stop-opacity:0"/>
		</linearGradient>
		<path class="st3" d="M254.6,413.8c-94.1,0-170.7-75.5-170.7-168.3S160.5,77.2,254.6,77.2s170.7,75.5,170.7,168.3
			S348.7,413.8,254.6,413.8z M254.6,80.2c-92.5,0-167.7,74.2-167.7,165.3s75.2,165.3,167.7,165.3s167.7-74.2,167.7-165.3
			S347.1,80.2,254.6,80.2z"/>
	</g>
	
		<linearGradient id="SVGID_00000092415002343105350970000013202482872333415050_" gradientUnits="userSpaceOnUse" x1="254.6" y1="433.3385" x2="254.6" y2="99.7385" gradientTransform="matrix(1 0 0 -1 0 512)">
		<stop  offset="0" style="stop-color:#445F70"/>
		<stop  offset="1" style="stop-color:#242E38"/>
	</linearGradient>
	
		<ellipse style="fill:url(#SVGID_00000092415002343105350970000013202482872333415050_);" cx="254.6" cy="245.5" rx="169.2" ry="166.8"/>
	
		<linearGradient id="SVGID_00000044143844742853091240000005791375004968112822_" gradientUnits="userSpaceOnUse" x1="254.6" y1="111.5385" x2="254.6" y2="421.5385" gradientTransform="matrix(1 0 0 -1 0 512)">
		<stop  offset="0" style="stop-color:#445F70"/>
		<stop  offset="1" style="stop-color:#242E38"/>
	</linearGradient>
	
		<ellipse style="fill:url(#SVGID_00000044143844742853091240000005791375004968112822_);" cx="254.6" cy="245.5" rx="157.2" ry="155"/>
	<path class="st6" d="M470.8,184.4C424.9,75.3,348.3,13,228.6,25.7C134.2,35.6,74,93.9,41.4,183.3c-17.8-1.8-26,3-32.2,20.7
		c-10.8,30.5-11,61.1,0.5,91.5c6.3,16.7,17.2,23.3,33.2,20.5c12.2,41.1,35.5,75.3,67.2,103.7c24.9,22.2,53.2,38,84.8,48.2
		c12.6,4.1,24.7,9,36.7,15c17.3,8.8,34.8,5.4,51.7-3.9c12.6-6.9,13.4-15.8,3.7-26.3c-11.1-11.9-38.6-12.6-54.6-2.8
		c-11.2,6.9-20.8,7.1-31.8,3.9c-86.7-25.2-138-89.2-149.4-168.7c-12.9-90.8,22.3-175.8,96.7-219.6c120.9-71,273.9-6.4,308.3,131.4
		c6.7,26.7,3.4,90.7,3.4,94.2c0.1,13.1,8.1,21.5,18.9,25.7c11.3,4.3,17.3-5.2,21.1-13.7c15.5-35.5,15.1-71.1-2.2-105.9
		C492.2,186.6,484,178.8,470.8,184.4z"/>
	<path class="st7" d="M232.7,204.2c-0.4,1.9-0.4,3.9-1.1,5.7c-1.9,4.7-4,9.4-6.1,13.9c-0.5,1.1-0.5,1.9,0.3,2.9
		c12.6,16.7,28.1,30.3,46.3,40.7c1.2,0.7,2,0.5,3-0.1c4.4-2.7,8.9-5.4,13.3-8.1c2.6-1.6,5.3-1.7,7.9-0.3c10.4,5.4,20.7,10.8,31,16.2
		c3.8,2,5.4,6.4,3.8,10.4c-3.8,9.5-9.7,17.5-17.2,24.3c-2.2,2-4.9,2.3-7.8,1.7c-17.1-4-33.4-10.2-48.7-18.8
		C231.6,278,210.6,258,194.7,233c-6.9-10.8-12.4-22.2-16.9-34.3c-1.2-3.2-0.8-6.2,1.3-9c5.5-7.6,12.2-13.8,20.3-18.7
		c4.6-2.8,9.1-1.9,12.1,2.5c6.5,9.2,12.9,18.3,19.4,27.6c0.6,0.9,1,2,1.5,3C232.4,204.1,232.6,204.2,232.7,204.2z"/>
</g>
<g>
	<circle class="st1" cx="404" cy="404" r="57.3"/>
</g>
<path class="st8" d="M439,382.8v31.7c0,4.1-3.4,7.5-7.5,7.5h-11L408,438.9c-1,1-2.5,1-3.5,0L392,422h-11.8c-4.1,0-7.5-3.4-7.5-7.5
	v-31.7c0-4.1,3.4-7.5,7.5-7.5h51.3C435.6,375.4,439,378.7,439,382.8z"/>
</svg>
