<svg width="32" height="32" viewBox="0 0 32 32" fill="none" xmlns="http://www.w3.org/2000/svg"><mask id="a" style="mask-type:alpha" maskUnits="userSpaceOnUse" x="0" y="0" width="32" height="32"><circle cx="16" cy="16" r="16" fill="#fff"/></mask><g mask="url(#a)"><circle cx="16" cy="16" r="16" fill="#fff" fill-opacity=".251"/><path d="M16 4c2.359 0 4.098.634 5.17 1.883 1.092 1.275 1.129 2.788 1.102 3.323l-.011.157V12.2c.292.34.472.764.513 1.208l.009.192v2.133a2.12 2.12 0 01-1.215 1.93 12.311 12.311 0 01-1.794 3.443l-.122.156v1.804c0 .488.242.932.639 1.19l.123.07 4.985 2.548c1.537.786 2.517 2.334 2.596 4.075l.005.228V32.8c0 2.531-7.85 3.2-12 3.2l-.697-.006c-4.191-.07-11.039-.771-11.296-3.06L4 32.8v-1.727c0-1.686.86-3.24 2.26-4.11l.193-.114 4.655-2.596a1.41 1.41 0 00.711-1.097l.007-.14v-1.765l-.123-.17c-.421-.594-1.274-1.949-1.705-3.69a2.136 2.136 0 01-.774-1.482l-.007-.176V13.6c0-.45.144-.887.404-1.25l.118-.15V9.363l-.011-.157c-.027-.535.01-2.049 1.103-3.323C11.902 4.633 13.64 4 16 4z" fill="#222E3A" fill-opacity=".749"/></g></svg>