<svg width="675" height="129" viewBox="0 0 675 129" fill="none" xmlns="http://www.w3.org/2000/svg"><path fill-rule="evenodd" clip-rule="evenodd" d="M250.999 78.326l-4.014 13.581h-41.094v-1.914l5.319-3.658V42.64l-5.319-3.659v-1.914h43.013l.96.957-2.703 12.276h-1.919c-1.745-7.575-4.277-8.617-16.841-8.617h-6.021v20.105l19.805-1.217.437.345-1.833 6.443-.523.175-17.886-1.739v21.497h5.672c10.207 0 15.532-1.564 21.028-9.66l1.919.694zm423.264-39.345l-5.323 3.659v48.568l-.695.7h-8.465L628.541 48.82v37.514l6.285 3.658v1.914h-17.279v-1.914l5.325-3.658V42.467l-6.108-3.486v-1.914h16.489l30.016 41.607V42.64l-6.282-3.659v-1.914h17.276v1.914zm-89.871 47.354l6.282 3.658v1.914h-22.683v-1.914l5.322-3.658V42.64l-5.322-3.659v-1.914h23.035c16.052 0 24.341 5.485 24.341 16.017 0 12.012-11.689 20.196-29.053 20.196-.786 0-1.485 0-1.922-.09v13.145zM563.628 38.98l-5.411 3.57-17.974 49.356h-10.384L510.75 42.813l-5.581-3.832v-1.914h22.51v1.914l-5.495 3.744 15.53 39.778h.61l13.089-39.863-5.586-3.659v-1.914h17.801v1.914zm20.764 29.686c12.215.348 19.632-5.485 19.632-15.318 0-8.098-4.184-12.188-12.564-12.188-2.356 0-5.058.607-7.068 1.564v25.942zm-231.742.52c0 13.667-9.163 23.417-21.991 23.417-3.75 0-6.892-.96-9.943-2.263v13.403l6.281 3.656v1.915h-22.251V107.4l5.413-3.656V56.045l-5.413-3.222v-1.917l14.397-2.872 1.573 1.048v6.091c3.403-4.352 8.811-7.048 14.397-7.048 10.381 0 17.537 9.05 17.537 21.063zM387.812 57.7h-1.919c-1.396-.872-2.881-1.308-4.365-1.308-3.225 0-6.28 1.22-8.985 3.568v26.376l6.458 3.658v1.914h-22.513v-1.914l5.41-3.658v-30.29l-5.41-3.222v-1.917l14.483-2.872 1.572 1.048v6.873c2.791-4.525 7.679-7.745 12.564-7.745 2.271 0 4.19.611 5.759 1.739l-3.054 7.75zm32.806 12.01c-5.845 0-12.388-.173-19.541-.433.959 9.75 6.279 15.405 15.005 15.405 5.234 0 8.638-1.306 11.516-3.741l1.834 1.393c-2.879 6.873-9.336 10.617-17.713 10.617-12.825 0-21.463-8.79-21.463-22.196 0-12.794 8.55-22.72 21.551-22.72 6.021 0 10.557 1.915 13.787 5.661 3.228 3.743 4.797 8.615 4.712 14.62l-1.311 1.309c-1.743.085-4.536.085-8.377.085zm17.276 9.838h1.834c3.403 5.57 8.376 8.79 12.651 8.79 3.841 0 6.197-2.002 6.197-5.135 0-3.57-2.095-5.485-7.332-7.484l-3.926-1.481c-7.415-2.786-11.865-7.224-11.865-13.057 0-7.224 6.806-12.795 16.926-12.795 5.845 0 11.429 1.394 15.533 3.829l-4.19 7.139h-1.745c-2.879-4.44-6.455-6.703-10.645-6.703-3.75 0-6.194 2.087-6.194 4.961 0 3.133 2.268 5.047 8.987 7.66l4.451 1.742c6.804 2.61 9.771 6.703 9.771 12.012 0 8.354-6.719 13.579-16.927 13.579-6.282 0-12.652-1.654-17.276-4.525l3.75-8.532zm38.304 0h1.834c3.403 5.57 8.377 8.79 12.649 8.79 3.841 0 6.197-2.002 6.197-5.135 0-3.57-2.093-5.485-7.33-7.484l-3.926-1.481c-7.417-2.786-11.865-7.224-11.865-13.057 0-7.224 6.804-12.795 16.924-12.795 5.85 0 11.431 1.394 15.533 3.829l-4.187 7.139h-1.749c-2.878-4.44-6.452-6.703-10.642-6.703-3.752 0-6.196 2.087-6.196 4.961 0 3.133 2.27 5.047 8.989 7.66l4.449 1.742c6.806 2.61 9.773 6.703 9.773 12.012 0 8.354-6.719 13.579-16.929 13.579-6.282 0-12.65-1.654-17.276-4.525l3.752-8.532zm-193.35-9.662l12.825 16.45 4.798 3.658v1.914h-21.724v-1.914l4.538-3.398-8.728-11.834-8.377 11.834 5.061 3.398v1.914h-17.275v-1.914l5.325-3.57 12.475-15.318-12.739-16.192-4.886-3.829V49.17h21.637v1.914l-4.449 3.393 8.638 11.752 8.377-11.752-5.059-3.393V49.17h17.274v1.914l-5.323 3.568-12.388 15.233zm136.374-5.834c-.96-7.66-4.534-11.316-9.334-11.316-5.235 0-8.726 5.137-8.987 12.451l18.321-1.135zm-77.044 9.575c0-9.66-4.709-17.671-12.302-17.671-3.14 0-6.194 1.047-9.16 3.223V82.07c2.443 3.743 6.193 5.573 10.642 5.573 6.633 0 10.82-5.225 10.82-14.017zM41.788 129c-18.06 0-29.578-10.121-29.578-24.188 0-4.633 1.375-10.291 6.706-21.785H0L17.366 45.97h120.887c2.752 0 4.643-2.056 4.643-4.455 0-2.405-1.891-4.464-4.643-4.464H40.41l8.599-18.354C54.339 7.377 65.86 0 78.41 0h41.1c23.729 0 41.268 16.295 41.268 37.565 0 25.22-23.213 45.462-50.038 45.462H31.298c-2.41 4.974.342 8.922 6.19 8.922h63.278c10.49 0 18.572 7.373 18.572 16.808 0 10.808-10.487 20.243-22.355 20.243H41.788z" fill="#fff" fill-opacity=".502"/></svg>