<svg version="1.1" id="Layer_1" xmlns="http://www.w3.org/2000/svg" x="0" y="0" viewBox="0 0 90.3 63.5" xml:space="preserve"><style>.st2{fill:#3b4751}.st3{fill:#637d99}.st4{fill:#8ea1b0}.st6{fill:#fff}.st8{fill:#ffaa01}</style><g id="Background_00000077321371601238209310000004283159251137981626_" opacity=".1"><path class="st2" d="M55.3 2.8c-9 5.2-6.7 10.5-14.4 20.7-3 3.9-5 3.5-8 8.5-8.2 13.6 12.2 31.1 24 21.6 11.9-9.4 22-.1 31.6-16.5 5.9-9.9-8-14.7-11.2-23.3-5.1-13.2-13.6-16-22-11zm22.4 30.5c-.1-.2 0-.6.2-.7.2-.1.6 0 .7.2.1.2 0 .6-.2.7-.3.2-.6 0-.7-.2z"/><path class="st2" d="M22.7 14.6c-5.6 4.5-2.7 7.8-6 15.7-1.3 3-3 3-4.1 6.7-2.9 10.1 17.2 19.3 24 11.5 6.9-7.7 17-2.8 20.3-14.9 2-7.4-9.8-9-14.5-14.4-7.3-8.2-14.4-9-19.7-4.6zm24.9 17.8c-.1-.1-.1-.3 0-.4.2-.1.3-.1.6.1.1.1.1.3 0 .4-.2 0-.5 0-.6-.1z"/><path id="Background_00000120540320885827229260000006368397916274691731_" class="st2" d="M65 43.9s4.2 1.4 6.3 4.1c2 2.5 7 7-9.2 10.2-14.8 3.1-44 4.4-37.8-2C30.5 49.7 0 54.6 0 47.9c0-10.1 65-4 65-4z"/><path id="Background_00000153670191204523817410000016418130365284968582_" class="st2" d="M43.1 53S39 51.3 37 48.9c-2-2.5-6.9-7.1 9.4-9.9 14.9-2.8 44-3.3 37.7 3-6.3 6.3 6.4 2.5 6.2 9.3C90 61.2 43.1 53 43.1 53z"/></g><path class="st3" d="M42.2 47.2c-20.8 4.6-38.4 5.6-39.1 2.2-.4-2 4.8-5 13.2-8.1.2-.1.4-.2.7-.2l1-20.7c1.8-6.3 7.6-4.3 9.7-3.8s6.9.7 9.4-.1c2.5-.8 3.6-1.8 8.8-5.2 5.1-3.3 8.3 1.3 8.3 1.3l9.5 18c8.6-.8 14.4-.2 14.8 1.8.7 3.6-15.5 10.2-36.3 14.8z"/><path class="st4" d="M63.7 30.7c.6 2.7-9.4 7.3-22.3 10.2-12.9 2.9-23.9 3.1-24.4.3-.1-.4-.4-1.2 0-1.8 3.2 1.4 13.2 1.1 23.9-1.3s19.8-6.3 22.1-9c.6.3.6 1.1.7 1.6z"/><path d="M37.2 47.9l5.1-39.7c.3-2.1 2.4-3.9 4.5-3.5l2.5.3c3.5.4 6.1 3.6 5.6 7.3l-4.8 37.2c-.4 3.5-3.6 6.1-7.3 5.6-3.6-.3-6-3.9-5.6-7.2z" opacity=".1"/><path class="st4" d="M41.7 58.6L76.3 63c1.2.1 2.5-.7 2.7-2.1l6.3-49.2c.1-1.2-.7-2.5-2.1-2.7L48.6 4.7c-1.2-.1-2.5.7-2.7 2.1L39.7 56c-.2 1.2.5 2.5 2 2.6z"/><path class="st6" d="M47.7 9.4l-5.4 42c-.1 1 .6 1.5 1.4 1.7l31.5 4.1c1 .1 1.8-.6 1.9-1.2l5.4-42c.1-1-.6-1.5-1.4-1.7L49.6 8.2c-.9-.4-1.7.2-1.9 1.2z"/><path class="st3" d="M49.6 8l31.5 4.1c1 .1 1.5.9 1.4 1.7l-5.4 42.3c-.1 1-.9 1.3-1.9 1.2l-31.5-4.1c-1-.1-1.5-.9-1.4-1.7l5.4-42c.2-1.1 1-1.7 1.9-1.5zm14.4.3l3.1.4s.2 0 .2-.2c0 0 0-.2-.2-.2L64 7.9v.4z"/><circle class="st6" cx="58.7" cy="58.3" r="1.7"/><path d="M81.9 12.6L53.4 54.3l-9.5-1.2c-1-.1-1.3-.9-1.2-1.9l1.5-11.7 22-29.4 15 2c.3 0 .5.2.7.5z" opacity=".1" fill="#fff"/><path class="st6" d="M76.4 39.8c-.1.8-.9 1.4-1.7 1.3L49.4 38c-.8-.1-1.4-.9-1.3-1.7.1-.8.9-1.4 1.7-1.3l25.4 3.2c.6.1 1.2.9 1.2 1.6z"/><path class="st8" d="M75 38.2l-4-.6-.3 3 4.1.6c.8.1 1.5-.6 1.7-1.3-.1-.8-.7-1.6-1.5-1.7z"/><path class="st6" d="M73.8 39.7c-.2-.3-.2-.7.1-1 .3-.2.7-.2 1 .1.2.3.2.7-.1 1-.3.3-.7.4-1-.1zm.9-.6c-.1-.2-.4-.2-.7-.1-.2.1-.2.4-.1.7s.4.2.7.1c.2-.3.3-.5.1-.7z"/><path class="st6" d="M72.9 40.5v-.2l.9-.8c.1-.1.1-.1.1 0s.1.1 0 .1l-1 .9c.2.1 0 .1 0 0z"/><text transform="rotate(7.342 -221.635 414.737)" class="st6" font-size="5.931" font-family="Gilroy-ExtraBold">HISTORY</text><path class="st8" d="M31.4 52.5l1.9 1.7c.2.1.6.1.8-.1l4-4.8 1.7-2-2.9-2.3-1 1.2-4.6 5.5c-.1.3-.1.6.1.8z"/><path d="M36 46c.4 1 1 2.2 2 3.1l1.7-1.9-2.8-2.3L36 46z" fill="#f88800"/><path d="M25.3 61.7c.6.4 1.2.2 1.7-.1l6.4-7.7-1.8-1.3-6.4 7.7c-.4.4-.3 1.2.1 1.4z" fill="#46497c"/><path d="M36.3 32.7c-3.5 4.3-3 10.6 1.3 14.3 4.4 3.4 10.6 2.9 14.4-1.4 3.5-4.3 3-10.6-1.3-14.3-4.4-3.6-10.7-3.1-14.4 1.4zm1.3.8c3-3.6 8.4-4.1 12-1.1 3.6 3 4.1 8.4 1.1 12-3 3.6-8.4 4.1-12 1.1-3.7-2.9-4.1-8.3-1.1-12z" fill="#2e3062"/><path d="M35.9 36.5c-1.3 4.4 1.2 9.2 5.7 10.7.4.1.8.2 1.2.2 1 .1 2 .1 3 0s1.9-.6 2.9-1.1c1.3-.8 2.4-2 3.2-3.5.1-.4.4-.8.6-1.2 1.3-4.4-1.2-9.2-5.7-10.7-.4-.1-.8-.2-1.3-.2-1.7-.2-3.2 0-4.8.7-1 .4-1.8 1-2.4 1.8-.7.7-1.2 1.4-1.8 2.4-.4.1-.5.6-.6.9z" opacity=".4" fill="#fff"/><g id="XMLID_00000049911444475249827830000016333428198842342534_"><path id="XMLID_00000066509626127479801400000018445496547884732320_" class="st6" d="M64.9 25.9l-3-.4c-.6-.1-.9-.6-.9-1.1l.3-2.2c.1-.6.6-.9 1.1-.9l3.1.4c.6.1.9.6.9 1.1l-.3 2.2c-.2.6-.7.9-1.2.9z"/><path id="XMLID_00000109002934523930463770000015589528524556741541_" class="st6" d="M65.9 22.6L62 22l.2-1.7c.1-1.1 1.1-1.9 2.2-1.7 1.1.1 1.9 1.1 1.7 2.2l-.2 1.8zm-3.2-1l2.8.3.1-1.1c.1-.7-.3-1.4-1.2-1.5-.7-.1-1.4.3-1.5 1.2l-.2 1.1z"/><path id="XMLID_00000039842592825457762380000001975593157422182309_" d="M64.3 23.4c0-.3-.2-.6-.4-.7-.3 0-.6.2-.7.4 0 .3.1.4.3.7l-.1.6c0 .1.1.3.2.3s.3-.1.3-.2l.1-.6c.1-.1.3-.3.3-.5z" fill="#647e99"/></g><path class="st6" d="M75.2 55c-.1 0-.2.1-.2.2v.7c0 .1.1.2.2.2s.2-.1.2-.2v-.8c-.1-.1-.1-.1-.2-.1zm0-1.5c-.1 0-.2.1-.2.2v.8c0 .1.1.2.2.2s.2-.1.2-.2v-.8c-.1 0-.1-.2-.2-.2z"/><path class="st6" d="M76.2 54.6h-.7c-.1 0-.2.1-.2.2s.1.2.2.2h.7c.1 0 .2-.1.2-.2 0-.2-.1-.2-.2-.2zm-1.5 0H74c-.1 0-.2.1-.2.2s.1.2.2.2h.7c.1 0 .2-.1.2-.2-.1-.2-.1-.2-.2-.2z"/><path d="M86 57c-.1 0-.3-.1-.3-.3v-1.3c0-.1.1-.3.3-.3.2 0 .3.1.3.3v1.3c-.1.2-.1.3-.3.3zm0 2.3c-.1 0-.3-.1-.3-.3v-1.3c0-.1.1-.3.3-.3.2 0 .3.1.3.3V59c-.1.2-.1.3-.3.3zm1.9-1.8h-1.1c-.1 0-.3-.1-.3-.3s.1-.3.3-.3h1.1c.1 0 .3.1.3.3s-.2.3-.3.3zm-2.6 0h-1.1c-.1 0-.3-.1-.3-.3s.1-.3.3-.3h1.1c.1 0 .3.1.3.3s-.1.3-.3.3zm-52-49.1c-.1 0-.3-.1-.3-.3V6.7c0-.1.1-.3.3-.3s.3.1.3.3v1.4c0 .2 0 .3-.3.3zm0 2.7c-.1 0-.3-.1-.3-.3V9.3c-.1-.1 0-.3.3-.3s.3.1.3.3v1.4c0 .3 0 .4-.3.4zm2.1-2H34c-.1 0-.3-.1-.3-.3 0-.1.1-.3.3-.3h1.3c.1 0 .3.1.3.3.1.2 0 .3-.2.3zm-2.8 0h-1.3c-.1 0-.3-.1-.3-.3 0-.1.1-.3.3-.3h1.3c.1 0 .3.1.3.3 0 .2-.1.3-.3.3z" fill="#ff8192"/></svg>