<svg version="1.1" id="Layer_1" xmlns="http://www.w3.org/2000/svg" x="0" y="0" viewBox="0 0 103.2 71.4" xml:space="preserve"><style>.st2{fill:#fff}.st4{fill:#1a9efe}.st5{fill:#71c6ff}.st6{fill:#5a6270}.st7{fill:#1e8cf9}.st9{fill:#ffe200}.st18{fill:#1d73fc}</style><g opacity=".03"><path class="st2" d="M12.3 57.2c0-.4-9.8-13 1.6-24.6 5.2-5.2 13.8 2.8 12.4-12.5C25.1 6.9 46.7-.8 57.4 8.1c8.6 7.3 8.7-5 21.8.8 13.2 5.8 4.5 21.4 9.9 22.9 10.6 2.9 18.9 12.6 10.4 22.1l-87.2 3.3z"/><path id="Background_00000176764788783531994060000006698794509258734505_" class="st2" d="M70.3 45.3s4.6 1.2 7.2 3.6c2.6 2.5 8.4 6.6-8.7 12.1-15.7 5.1-47.2 9.9-41.3 2.2S1 64.6.2 57.1C-.9 46.3 70.3 45.3 70.3 45.3z"/><path id="Background_00000133512354304438702300000000049636450861181886_" class="st2" d="M29.2 56.2s-4.3 2.2-6.2 5.1c-1.9 3-6.7 8.3 11.2 9.9 16.5 1.4 48.2-.9 40.7-7-7.5-6.2 26.1-4.6 25.3-12-1.4-10.9-71 4-71 4z"/></g><path d="M39.1 27.6H63v23.9H39.1V27.6z" fill="none"/><path class="st4" d="M70.9 40.1c-.9 7.6-6.5 13.7-13.7 15.6-.3.1-.6.3-.8.5l-3.3 4.4c-.1.2-.4.2-.6 0l-3.6-4.4c-.2-.3-.5-.4-.8-.5-8-2-13.9-9.3-13.9-17.9 0-9.6 7.3-17.5 16.7-18.4 12.4-1.1 21.6 8.4 20 20.7z"/><path class="st2" d="M60 43v3.5c0 .5-.4 1-.9 1H58c-8.8 0-15.9-7.1-15.9-15.9v-1.1c0-.5.5-.9 1-.9h3.5c.3 0 .5.2.5.4s0 .4.1.5c.2 1.4.6 2.7 1.2 4 .1.2 0 .4-.1.6l-2.1 1.5c1.3 3.1 3.7 5.5 6.8 6.8l1.5-2.1c.1-.2.4-.2.6-.1 1.3.6 2.6 1 4 1.2.1 0 .3 0 .5.1s.4.3.4.5z"/><path class="st5" d="M51.7 34.1c0 .2.1.4.4.5 1.5.5 2.8 1.7 3.4 3.1.1.2.3.3.5.3.4 0 .7-.4.5-.7-.7-1.8-2.2-3.1-4-3.7-.5-.2-.8.1-.8.5zm0-3.5c0 .3.2.5.5.6 3.3.7 5.9 3.3 6.7 6.5.1.3.3.4.5.4.4 0 .7-.4.6-.7-.9-3.7-3.9-6.5-7.6-7.4-.3 0-.6.2-.7.6z"/><path class="st5" d="M51.8 27.2c0 .3.2.6.5.7 5 .9 9 4.8 9.9 9.8.1.3.3.5.6.5.4 0 .7-.4.7-.8-1-5.5-5.4-9.9-10.9-10.9-.4 0-.8.3-.8.7z"/><path class="st2" d="M81.3 38.4c0 14.1-10.3 25.8-23.8 28.1-1.5.2-3 .4-4.6.4-.9 0-1.7 0-2.6-.1-.1-.2-.1-.5-.1-.7v-.2h1.7c1.9 0 3.8-.2 5.6-.5 13-2.6 22.9-14.1 22.9-28 0-7.5-2.9-14.3-7.6-19.4 5.1 5.2 8.5 12.4 8.5 20.4z"/><path class="st6" d="M76.4 21.2l-1.7 1.4c-5.2-6.3-13.1-10.4-22-10.4-8.8 0-16.7 4-22 10.4l-1.5-1.7C34.6 14 43 9.5 52.6 9.5 62.4 9.4 71 14 76.4 21.2z"/><path class="st7" d="M52.6 8.2c-8.3 0-15.8 3.3-21.3 8.6l3.2 3.3c4.6-4.6 11-7.5 18.1-7.5s13.5 2.9 18.2 7.5l3.3-3.3C68.5 11.5 61 8.2 52.6 8.2z"/><g id="speaker_00000055695185362675903070000017123157586558206884_"><path class="st7" d="M74.3 22.2c.1-.4.5-1.2 1.6-1.7 0 0 3.2 2 5.1 7.9.7 2.1 1 4.1 1.2 5.8.3 2.7 0 5.4-.7 8-.1.3-.2.5-.2.7-.2.5-.7.8-1.2.6H80c-.3-.2-.7 0-.7.4 0 .3 0 .8-.7.9 0 0-.4 0-.5-.3 0-.2-.2-.2-.5-.2s-.6.1-.8.4c-.4.4-1.2.8-2.3-.1 0 0-.9-.7-.8-2.9.1-1.8 0-6.5 0-8.3 0-.8.2-1.5.8-2 .5-.5 1.3-.9 2.3-.2 0 0 .9-.5 1.3.3 0 0 .4.2.3-.4-.1-.6-1-3.8-3.9-8.2-.2-.4-.3-.6-.2-.7z"/><path class="st6" d="M76.6 31.1s.8 7.3.2 12.8c0 .3.2.7.5.7.3.1.6 0 .8-.5.6-1.1.4-12.3 0-12.8 0 0-.1-.8-.9-.7-.6 0-.6.5-.6.5z"/></g><g id="speaker_00000147898987320666918000000004130846409729911435_"><path class="st7" d="M31 22.2c-.1-.4-.5-1.2-1.6-1.7 0 0-3.2 2-5.1 7.9-.7 2.1-1 4.1-1.2 5.8-.3 2.7 0 5.4.7 8 .1.3.2.5.2.7.2.5.7.8 1.2.6h.1c.3-.2.7 0 .7.4 0 .3 0 .8.7.9 0 0 .4 0 .5-.3 0-.2.2-.2.5-.2s.6.1.8.4c.4.4 1.2.8 2.3-.1 0 0 .9-.7.8-2.9-.1-1.8 0-6.5 0-8.3 0-.8-.2-1.5-.8-2-.5-.5-1.3-.9-2.3-.2 0 0-.9-.5-1.3.3 0 0-.4.2-.3-.4.1-.6 1-3.8 3.9-8.2.2-.4.2-.6.2-.7z"/><path class="st6" d="M28.7 31.1s-.8 7.3-.2 12.8c0 .3-.2.7-.5.7-.3.1-.6 0-.8-.5-.6-1.1-.4-12.3 0-12.8 0 0 .1-.8.9-.7.6 0 .6.5.6.5z"/></g><path class="st6" d="M57.3 66.1v.5c-.1.5-.3.9-.6 1.2-.4.4-1 .7-1.7.7h-2.6c-1.1 0-1.9-.7-2.3-1.6-.1-.2-.1-.5-.1-.7V66c.1-.6.3-1.1.7-1.4.4-.4 1-.7 1.7-.7h2.5c1.1 0 1.9.7 2.3 1.6.1.1.1.4.1.6z"/><path d="M70.4 37.3v1c-.6-10-8.8-17.9-18.9-17.9-.6 0-1.3 0-1.9.1 1.2-.3 2.4-.4 3.7-.4 9.5 0 17.1 7.7 17.1 17.2z" opacity=".1" fill="#fff"/><circle class="st9" cx="75.5" cy="5.3" r="4.6"/><radialGradient id="SVGID_1_" cx="74.111" cy="124.882" r="1.374" gradientTransform="matrix(1 0 0 -.8037 0 104.591)" gradientUnits="userSpaceOnUse"><stop offset="0" stop-color="#fff200"/><stop offset="1" stop-color="#ff6a00"/></radialGradient><path d="M74.9 4.3s-.1 0 0 0c-.2-.2-.5-.3-.7-.3s-.5.1-.7.3h-.2v-.1c.1-.4.4-.6.8-.6s.8.2.8.7c.1-.1.1-.1 0 0z" fill="url(#SVGID_1_)"/><radialGradient id="SVGID_00000085971703669772340520000016472404474340074652_" cx="74.112" cy="124.902" r=".742" gradientTransform="matrix(1 0 0 -.8037 0 104.588)" gradientUnits="userSpaceOnUse"><stop offset="0" stop-color="#4b1803"/><stop offset="1" stop-color="#210501"/></radialGradient><path d="M74.1 4c.3 0 .5.1.7.3h.1c-.1-.3-.4-.6-.8-.6s-.7.2-.8.6c0 0 0 .1.1 0 .2-.2.5-.3.7-.3z" fill="url(#SVGID_00000085971703669772340520000016472404474340074652_)"/><radialGradient id="SVGID_00000166648331141706162880000015574569161973059470_" cx="76.868" cy="124.882" r="1.374" gradientTransform="matrix(1 0 0 -.8037 0 104.591)" gradientUnits="userSpaceOnUse"><stop offset="0" stop-color="#fff200"/><stop offset="1" stop-color="#ff6a00"/></radialGradient><path d="M77.6 4.3c-.2-.2-.5-.3-.7-.3s-.5.1-.7.3H76v-.1c.1-.4.4-.6.8-.6.5 0 .8.2.8.7.1-.1.1-.1 0 0 .1 0 .1 0 0 0z" fill="url(#SVGID_00000166648331141706162880000015574569161973059470_)"/><radialGradient id="SVGID_00000168806095261708993450000001782099080579692989_" cx="76.869" cy="124.902" r=".742" gradientTransform="matrix(1 0 0 -.8037 0 104.588)" gradientUnits="userSpaceOnUse"><stop offset="0" stop-color="#4b1803"/><stop offset="1" stop-color="#210501"/></radialGradient><path d="M76.9 4c.3 0 .5.1.7.3h.1c-.1-.3-.4-.6-.8-.6s-.7.2-.8.6c0 0 0 .1.1 0 .2-.2.4-.3.7-.3z" fill="url(#SVGID_00000168806095261708993450000001782099080579692989_)"/><radialGradient id="SVGID_00000119824830695951199090000012544573103531648434_" cx="75.427" cy="-125.429" r="4.434" gradientTransform="matrix(1 0 0 -.5115 0 -56.94)" gradientUnits="userSpaceOnUse"><stop offset="0" stop-color="#fff200"/><stop offset="1" stop-color="#ff6a00"/></radialGradient><path d="M75.5 8c-.7 0-1.4-.2-2-.6-.6-.5-1-1.1-1.2-1.8v-.1c.1 0 .1.1.2.1.9.3 1.8.5 2.9.5 1 0 2-.2 2.9-.5.1 0 .1 0 .2-.1v.1c-.1.7-.5 1.4-1.2 1.8-.4.4-1.1.6-1.8.6z" fill="url(#SVGID_00000119824830695951199090000012544573103531648434_)"/><radialGradient id="SVGID_00000132794427044141991660000002934701369912583348_" cx="75.486" cy="22.794" r="3.221" gradientTransform="matrix(1 0 0 -.653 0 21.282)" gradientUnits="userSpaceOnUse"><stop offset="0" stop-color="#4b1803"/><stop offset="1" stop-color="#210501"/></radialGradient><path d="M78.6 5.4c-.1 0-.1.1-.2.1-.7.6-1.8 1-2.9 1s-2.2-.4-2.9-1c-.1 0-.1-.1-.2-.1.1.7.5 1.4 1.1 1.8.6-.2 1.3-.4 2-.4s1.4.1 2 .4c.6-.4 1-1.1 1.1-1.8z" fill="url(#SVGID_00000132794427044141991660000002934701369912583348_)"/><radialGradient id="SVGID_00000182497325687161962180000010250762894857412259_" cx="75.486" cy="8.261" r="3.474" gradientTransform="matrix(1 0 0 -.6353 0 11.335)" gradientUnits="userSpaceOnUse"><stop offset="0" stop-color="#fdfffc"/><stop offset="1" stop-color="#d6d5dd"/></radialGradient><path d="M72.6 5.5c.7.6 1.8 1 2.9 1s2.2-.4 2.9-1c-.8.3-1.8.5-2.9.5s-2.1-.2-2.9-.5z" fill="url(#SVGID_00000182497325687161962180000010250762894857412259_)"/><radialGradient id="SVGID_00000044157445262297393570000006966833138759162798_" cx="75.5" cy="-125.304" r="2.495" gradientTransform="matrix(1 0 0 -.5115 0 -57.002)" gradientUnits="userSpaceOnUse"><stop offset="0" stop-color="#ff2e27"/><stop offset="1" stop-color="#d30b05"/></radialGradient><path d="M73.5 7.2c.5.4 1.2.6 2 .6.7 0 1.4-.2 2-.6-.6-.2-1.3-.4-2-.4s-1.4.2-2 .4z" fill="url(#SVGID_00000044157445262297393570000006966833138759162798_)"/><path class="st18" d="M94.4 27.2h-8.7c-2.3 0-4.2-1.9-4.2-4.2 0-2.3 1.9-4.2 4.2-4.2h8.7c2.3 0 4.2 1.9 4.2 4.2-.1 2.4-1.9 4.2-4.2 4.2z"/><path class="st18" d="M86 26.9l-2.6 2.3v-3.7z"/><path class="st5" d="M85.1 21.9h6.8c.3 0 .5-.2.5-.5s-.2-.5-.5-.5h-6.8c-.3 0-.5.2-.5.5-.1.3.2.5.5.5zm-.4 1.6h6.9c.1 0 .2-.1.2-.2s-.1-.2-.2-.2h-6.9c-.1 0-.2.1-.2.2s.1.2.2.2zm7.9 0h2.6c.1 0 .2-.1.2-.2s-.1-.2-.2-.2h-2.6c-.1 0-.2.1-.2.2s.1.2.2.2zm-7.9 1.7h10.7c.1 0 .2-.1.2-.2s-.1-.2-.2-.2H84.7c-.1 0-.2.1-.2.2s.1.2.2.2z"/><path class="st4" d="M15.6 58.3h19.7c1.6 0 2.9-1.3 2.9-2.9 0-1.6-1.3-2.9-2.9-2.9H15.6c-1.6 0-2.9 1.3-2.9 2.9.1 1.6 1.3 2.9 2.9 2.9z"/><path class="st4" d="M31 57.7l3.9 3.4v-5.5z"/><path d="M18.3 55l.7.1c.1 0 .1.1 0 .1l-.5.5v.1l.1.7c0 .1-.1.1-.1.1l-.6-.3h-.1l-.6.3c-.1 0-.1 0-.1-.1l.1-.7v-.1l-.5-.5v-.1l.7-.1h.1l.3-.6c0-.1.1-.1.1 0l.4.6zm3.7 0l.7.1c.1 0 .1.1 0 .1l-.5.5v.1l.1.7c0 .1-.1.1-.1.1l-.6-.3h-.1l-.6.3c-.1 0-.1 0-.1-.1l.1-.7v-.1l-.5-.5v-.1l.7-.1h.1l.3-.6c0-.1.1-.1.1 0l.4.6zm3.7 0l.7.1c.1 0 .1.1 0 .1l-.5.5v.1l.1.7c0 .1-.1.1-.1.1l-.6-.3h-.1l-.6.3c-.1 0-.1 0-.1-.1l.1-.7v-.1l-.5-.5v-.1l.7-.1h.1l.3-.6c0-.1.1-.1.1 0l.4.6zm3.7 0l.7.1c.1 0 .1.1 0 .1l-.5.5v.1l.1.7c0 .1-.1.1-.1.1l-.6-.3h-.1l-.6.3c-.1 0-.1 0-.1-.1l.1-.7v-.1l-.5-.5v-.1l.7-.1h.1l.3-.6c0-.1.1-.1.1 0l.4.6zm3.7 0l.7.1c.1 0 .1.1 0 .1l-.5.5v.1l.1.7c0 .1-.1.1-.1.1l-.6-.3h-.1l-.6.3c-.1 0-.1 0-.1-.1l.1-.7v-.1l-.5-.5v-.1l.7-.1h.1l.3-.6c0-.1.1-.1.1 0l.4.6c-.1 0 0 0 0 0z" fill="#ffc900"/><path d="M33.2 55.1l.7.1-.1-.1h-.6zm-.4 1.2l.5.3-.5-.3zm-.8.3l.1-.7v-.1l-.5-.5v-.1l.7-.1h.1l.3-.6c0-.1-.1-.1-.1 0l-.3.5h-.1l-.7.1c-.1 0-.1.1 0 .1l.5.5v.1l-.1.7c0 .1 0 .1.1.1z" fill="#ffaf00"/><path class="st2" d="M47.1 22.7c.1 0 .2.1.2.2v.9c0 .1-.1.2-.2.2s-.2-.1-.2-.2v-.9c0-.1.1-.2.2-.2zm0-1.6c.1 0 .2.1.2.2v.9c0 .1-.1.2-.2.2s-.2-.1-.2-.2v-.9c0-.1.1-.2.2-.2zm-1.2 1.2h.8c.1 0 .2.1.2.2s-.1.2-.2.2h-.8c-.1 0-.2-.1-.2-.2s.1-.2.2-.2zm1.7 0h.8c.1 0 .2.1.2.2s-.1.2-.2.2h-.8c-.1 0-.2-.1-.2-.2s.1-.2.2-.2z"/><path d="M81.9 58.3h-.8v-.7c0-.2-.2-.5-.5-.5-.2 0-.5.2-.5.5v.7h-.7c-.2 0-.5.2-.5.5 0 .2.2.5.5.5h.7v.7c0 .2.2.5.5.5.2 0 .5-.2.5-.5v-.7h.7c.2 0 .5-.2.5-.5s-.2-.5-.4-.5zM19 46.3c.1 0 .2.1.2.2v.9c0 .1-.1.2-.2.2s-.2-.1-.2-.2v-.9c0-.1 0-.2.2-.2zm0-1.6c.1 0 .2.1.2.2v.9c0 .1-.1.2-.2.2s-.2-.1-.2-.2v-.9c0-.1 0-.2.2-.2zm-1.3 1.2h.8c.1 0 .2.1.2.2s-.1.2-.2.2h-.8c-.1 0-.2-.1-.2-.2s.1-.2.2-.2zm1.7 0h.8c.1 0 .2.1.2.2s-.1.2-.2.2h-.8c-.1 0-.2-.1-.2-.2s.1-.2.2-.2z" fill="#49b8f6"/><path class="st2" d="M41.6 58.6c.7 0 1.3.6 1.3 1.3s-.6 1.3-1.3 1.3-1.3-.6-1.3-1.3.6-1.3 1.3-1.3zm0 2.2c.5 0 .9-.4.9-.9s-.4-.9-.9-.9-.9.4-.9.9.4.9.9.9z"/><circle class="st9" cx="15.1" cy="34.1" r="4.6"/><radialGradient id="SVGID_00000158736293566095185030000013366779057609353880_" cx="15.085" cy="178.576" r="2.179" gradientTransform="matrix(1 0 0 -1 0 214.09)" gradientUnits="userSpaceOnUse"><stop offset="0" stop-color="#fff200"/><stop offset="1" stop-color="#ff6a00"/></radialGradient><path d="M15.1 36.4c-.6 0-1.2-.2-1.7-.5-.3-.2-.5-.3-.7-.5s-.4-.5-.5-.7v-.2h.1l.1.1h.1l.2.1s.1 0 .1.1c0 0 .1 0 .1.1h.1s.1 0 .1.1c.2.1.5.2.7.3h.5c.2 0 .5.1.7.1s.5 0 .7-.1c.1 0 .2 0 .3-.1h.3c.2-.1.5-.2.7-.3 0 0 .1 0 .1-.1h.3l.2-.1h.1l.1-.1h.2v.1c-.1.3-.3.5-.5.7s-.4.4-.7.5c-.5.3-1.1.5-1.7.5z" fill="url(#SVGID_00000158736293566095185030000013366779057609353880_)"/><radialGradient id="SVGID_00000111892060558672755860000015331673936857454476_" cx="15.089" cy="-216.697" r="3.129" gradientTransform="matrix(1 0 0 -.4682 0 -65.944)" gradientUnits="userSpaceOnUse"><stop offset="0" stop-color="#4b1803"/><stop offset="1" stop-color="#210501"/></radialGradient><path d="M12.3 34.6c.1 0 .1.1.2.1l.2.1c.1 0 .1.1.2.1s.1.1.2.1c.2.1.5.2.7.3h.4c.2 0 .5.1.7.1s.5 0 .7-.1c.1 0 .2 0 .4-.1h.2c.2-.1.5-.2.7-.3.1 0 .1-.1.2-.1 0 0 .1 0 .1-.1 0 0 .1 0 .1-.1l.2-.1c.1 0 .1-.1.2-.1-.1.3-.3.5-.5.7s-.4.4-.7.5c-.5.3-1.1.4-1.7.4-.6 0-1.2-.2-1.7-.4-.3-.1-.5-.3-.7-.5.1 0 0-.2-.1-.5-.1 0-.1 0 0 0z" fill="url(#SVGID_00000111892060558672755860000015331673936857454476_)"/><radialGradient id="SVGID_00000060724192000497337990000007887872936322854528_" cx="13.742" cy="-214.075" r="1.155" gradientTransform="matrix(1 0 0 -.4682 0 -67.332)" gradientUnits="userSpaceOnUse"><stop offset="0" stop-color="#fff200"/><stop offset="1" stop-color="#ff6a00"/></radialGradient><path d="M14.6 33.4c-.3-.3-.6-.5-.9-.5-.3 0-.6.2-.8.5h-.2v-.1c.1-.6.5-1 1-1s.9.4.9 1.1c.1-.1.1-.1 0 0 .1 0 .1 0 0 0z" fill="url(#SVGID_00000060724192000497337990000007887872936322854528_)"/><radialGradient id="SVGID_00000104694975712504628920000010215810252877049763_" cx="13.742" cy="-214.075" r="1.106" gradientTransform="matrix(1 0 0 -.4682 0 -67.332)" gradientUnits="userSpaceOnUse"><stop offset="0" stop-color="#4b1803"/><stop offset="1" stop-color="#210501"/></radialGradient><path d="M13.8 32.8c.3 0 .6.2.8.5h.1c-.1-.5-.5-.9-.9-.9s-.8.4-.9.9c0 .1.1.1.1 0 .1-.3.4-.5.8-.5z" fill="url(#SVGID_00000104694975712504628920000010215810252877049763_)"/><radialGradient id="SVGID_00000069381261174278362080000003433731369393356211_" cx="16.492" cy="-214.075" r="1.155" gradientTransform="matrix(1 0 0 -.4682 0 -67.332)" gradientUnits="userSpaceOnUse"><stop offset="0" stop-color="#fff200"/><stop offset="1" stop-color="#ff6a00"/></radialGradient><path d="M17.4 33.4s-.1 0 0 0c-.3-.3-.6-.5-.9-.5s-.6.2-.8.5h-.2v-.1c.1-.6.5-1 1-1s.9.4 1 1l-.1.1z" fill="url(#SVGID_00000069381261174278362080000003433731369393356211_)"/><radialGradient id="SVGID_00000100374586685436480330000005701581052182839437_" cx="16.492" cy="-214.075" r="1.106" gradientTransform="matrix(1 0 0 -.4682 0 -67.332)" gradientUnits="userSpaceOnUse"><stop offset="0" stop-color="#4b1803"/><stop offset="1" stop-color="#210501"/></radialGradient><path d="M16.5 32.8c.3 0 .6.2.8.5h.1c-.1-.5-.5-.9-.9-.9s-.8.4-.9.9c0 .1.1.1.1 0 .2-.3.5-.5.8-.5z" fill="url(#SVGID_00000100374586685436480330000005701581052182839437_)"/></svg>