<svg version="1.1" id="Layer_1" xmlns="http://www.w3.org/2000/svg" x="0" y="0" viewBox="0 0 103.2 60.4" xml:space="preserve"><style>.st1{fill:#1047c4}.st2{fill:#1a9efe}.st4{opacity:.51;fill:#e8e8f9;enable-background:new}.st5{fill:#fff}.st6{fill:#c7eaff}.st7{fill:#fcbf1e}</style><g id="bg" opacity=".07"><ellipse class="st1" cx="51.6" cy="55.7" rx="51.5" ry="3.4"/><path class="st1" d="M7.8 55.2c0-.4-9.2-13.2 2.5-24.2 5.3-5 13.6 3.3 12.7-11.9C22.3 6 43.9-.9 54 8.4c8.2 7.5 8.7-4.6 21.5 1.6s3.7 21.3 8.9 23C95 36.2 102.8 46.1 94 55.2H7.8z"/><path class="st1" d="M91.5 37.1c0-.3 6.7-8.7-.9-16.6-3.5-3.6-9.4 1.8-8.3-8.5.9-8.9-13.6-14.3-20.8-8.3-5.8 4.9-5.8-3.4-14.7.4S43.6 18.5 40 19.5c-7.2 1.9-12.8 8.4-7.2 14.8l58.7 2.8z"/></g><path class="st2" d="M84.5 8.4v1.8H22.1c-.5 0-.9.4-.9.9v37.6h-1.9c-.5 0-.9-.4-.9-.9V8.3c0-.5.4-.9.9-.9h64.3c.5 0 .9.4.9 1z"/><path class="st2" d="M80.3 4.2V6H18c-.5 0-.9.4-.9.9v37.6h-1.9c-.5 0-.9-.4-.9-.9V4.2c0-.5.4-.9.9-.9h64.3c.4-.1.8.4.8.9z"/><path class="st2" d="M88 11.7H23.7c-.5 0-.9.4-.9.9V52c0 .5.4.9.9.9H88c.5 0 .9-.4.9-.9V12.7c0-.5-.4-1-.9-1z"/><path id="fade" d="M22.8 11.7v36l18.6-36H22.8zm23 0L24.5 53h13.2l21.4-41.3H45.8z" opacity=".1" fill="#fff"/><g id="controller"><circle class="st4" cx="80.4" cy="13.9" r=".9"/><circle class="st4" cx="83.2" cy="13.9" r=".9"/><circle class="st4" cx="85.9" cy="13.9" r=".9"/></g><g id="XMLID_00000119809188221283200040000000402658516248928908_"><g id="XMLID_00000180339842150652879140000016000502548915319727_"><path id="XMLID_00000010996104151136746280000017248758878895095690_" class="st5" d="M52.6 40.5H43c-1 0-1.8-.8-1.8-1.8v-7.6c0-1 .8-1.8 1.8-1.8h9.7c1 0 1.8.8 1.8 1.8v7.6c-.1 1-.9 1.8-1.9 1.8z"/><path id="XMLID_00000042004179133223771320000018276733242821549751_" class="st5" d="M53.1 31.4H42.5v-4.5c0-2.9 2.4-5.3 5.3-5.3s5.3 2.4 5.3 5.3v4.5zM44 29.8h7.6v-3c0-2.1-1.7-3.8-3.8-3.8S44 24.7 44 26.8v3z"/><path id="XMLID_00000047748421926654971930000016771307128213838750_" class="st2" d="M49.4 33.8c0-.9-.7-1.6-1.6-1.6s-1.6.7-1.6 1.6c0 .7.4 1.2 1 1.5v1.6c0 .3.3.6.6.6s.6-.3.6-.6v-1.7c.6-.2 1-.8 1-1.4z"/></g><g id="XMLID_00000155857658108768232030000003248493401907683747_"><path id="XMLID_00000093876258910100606370000012065318672854960268_" class="st6" d="M69.2 33.9H53.4c-1 0-1.8-.8-1.8-1.8s.8-1.8 1.8-1.8h15.9c1 0 1.8.8 1.8 1.8-.1 1-.9 1.8-1.9 1.8z"/><path id="XMLID_00000164487364452309667520000014771666546603696304_" class="st6" d="M69.2 38.4H53.4c-1 0-1.8-.8-1.8-1.8s.8-1.8 1.8-1.8h15.9c1 0 1.8.8 1.8 1.8-.1 1-.9 1.8-1.9 1.8z"/><g id="XMLID_00000145048124013116931670000009566603118946009733_"><path id="XMLID_00000021087994670582349320000004171662710617497529_" class="st2" d="M56.8 32h-.3l.2-.2c.1-.1.1-.2 0-.2-.1-.1-.2-.1-.2 0l-.2.2v-.3c0-.1-.1-.2-.2-.2s-.2.1-.2.2v.3l-.2-.2c-.1-.1-.2-.1-.2 0-.1.1-.1.2 0 .2l.2.2h-.3c-.1 0-.2.1-.2.2s.1.2.2.2h.3l-.2.2c-.1.1-.1.2 0 .2h.2l.2-.2v.3c0 .1.1.2.2.2s.2-.1.2-.2v-.3l.2.2h.2c.1-.1.1-.2 0-.2l-.2-.2h.3c.1 0 .2-.1.2-.2s-.1-.2-.2-.2z"/><path id="XMLID_00000113319137916824730520000008743173366901226938_" class="st2" d="M58.9 32h-.3l.2-.2c.1-.1.1-.2 0-.2-.1-.1-.2-.1-.2 0l-.2.2v-.3c0-.1-.1-.2-.2-.2s-.2.1-.2.2v.3l-.2-.2c-.1-.1-.2-.1-.2 0-.1.1-.1.2 0 .2l.2.2h-.3c-.1 0-.2.1-.2.2s.1.2.2.2h.3l-.2.2c-.1.1-.1.2 0 .2h.2l.2-.2v.3c0 .1.1.2.2.2s.2-.1.2-.2v-.3l.2.2h.2c.1-.1.1-.2 0-.2l-.2-.2h.3c.1 0 .2-.1.2-.2l-.2-.2z"/><path id="XMLID_00000178915308547638482670000002890930821961717687_" class="st2" d="M60.9 32h-.3l.2-.2c.1-.1.1-.2 0-.2-.1-.1-.2-.1-.2 0l-.2.2v-.3c0-.1-.1-.2-.2-.2s-.2.1-.2.2v.3l-.2-.2c-.1-.1-.2-.1-.2 0-.1.1-.1.2 0 .2l.2.2h-.3c-.1 0-.2.1-.2.2s.1.2.2.2h.3l-.2.2c-.1.1-.1.2 0 .2h.2l.2-.2v.3c0 .1.1.2.2.2s.2-.1.2-.2v-.3l.2.2h.2c.1-.1.1-.2 0-.2l-.2-.2h.3c.1 0 .2-.1.2-.2s-.1-.2-.2-.2z"/><path id="XMLID_00000103969592203486864420000017523227163708104364_" class="st2" d="M63 32h-.3l.2-.2c.1-.1.1-.2 0-.2-.1-.1-.2-.1-.2 0l-.2.2v-.3c0-.1-.1-.2-.2-.2s-.2.1-.2.2v.3l-.1-.2c-.1-.1-.2-.1-.2 0-.1.1-.1.2 0 .2l.2.2h-.3c-.1 0-.2.1-.2.2s.1.2.2.2h.3l-.2.2c-.1.1-.1.2 0 .2h.2l.2-.2v.3c0 .1.1.2.2.2s.2-.1.2-.2v-.3l.2.2h.2c.1-.1.1-.2 0-.2l-.2-.2h.2c.1 0 .2-.1.2-.2-.1-.1-.1-.2-.2-.2z"/><path id="XMLID_00000134220305866181580310000009605649581613713050_" class="st2" d="M65 32h-.3l.2-.2c.1-.1.1-.2 0-.2-.1-.1-.2-.1-.2 0l-.2.2v-.3c0-.1-.1-.2-.2-.2s-.2.1-.2.2v.3l-.1-.2c-.1-.1-.2-.1-.2 0-.1.1-.1.2 0 .2l.2.2h-.3c-.1 0-.2.1-.2.2s.1.2.2.2h.3l-.2.2c-.1.1-.1.2 0 .2h.2l.2-.2v.3c0 .1.1.2.2.2s.2-.1.2-.2v-.3l.2.2h.2c.1-.1.1-.2 0-.2l-.2-.2h.2c.1 0 .2-.1.2-.2s-.1-.2-.2-.2z"/><path id="XMLID_00000084498947720087362060000003408044416954497184_" class="st2" d="M67.1 32h-.3l.2-.2c.1-.1.1-.2 0-.2-.1-.1-.2-.1-.2 0l-.2.2v-.3c0-.1-.1-.2-.2-.2s-.2.1-.2.2v.3l-.2-.2c-.1-.1-.2-.1-.2 0-.1.1-.1.2 0 .2l.2.2h-.3c-.1 0-.2.1-.2.2s.1.2.2.2h.3l-.2.2c-.1.1-.1.2 0 .2h.2l.2-.2v.3c0 .1.1.2.2.2s.2-.1.2-.2v-.3l.2.2h.2c.1-.1.1-.2 0-.2l-.2-.2h.3c.1 0 .2-.1.2-.2s-.1-.2-.2-.2z"/></g></g></g><g id="XMLID_00000140718913450284248170000010066613127202982039_"><path id="XMLID_00000065763474376711707970000005226649681430803115_" class="st7" d="M35.5 40.5l-11 9.2-2-2.4 11-9.2c.7-.5 1.6-.5 2.2.2.5.7.5 1.6-.2 2.2z"/><path id="XMLID_00000183949395521588821850000000155509069112389000_" class="st7" d="M34.7 39.8l-10.9 9.1-.7-.8L34 39c.2-.2.6-.2.8.1.2.2.2.5-.1.7z"/><path id="XMLID_00000086664701224935476300000009241729726260343480_" class="st7" d="M19.3 45c-2.3 1.9-2.6 5.3-.7 7.6 1.9 2.3 5.3 2.6 7.6.7s2.6-5.3.7-7.6-5.3-2.6-7.6-.7zm3.1 4.4c.3.4.3 1-.1 1.4s-1 .3-1.4-.1-.3-1 .1-1.4 1.1-.4 1.4.1z"/><path id="XMLID_00000167386159403714870870000010340496048753355939_" class="st7" d="M20.4 46.3c-1.6 1.3-1.8 3.6-.5 5.2s3.6 1.8 5.2.5 1.8-3.6.5-5.2c-1.4-1.6-3.7-1.8-5.2-.5zm1.9 4.5c-.4.4-1 .3-1.4-.1s-.3-1 .1-1.4 1-.3 1.4.1.3 1-.1 1.4z"/><path id="XMLID_00000163041245699077377240000010635392128207953572_" d="M20.4 46.3c-1.6 1.3-1.8 3.6-.5 5.2s3.6 1.8 5.2.5 1.8-3.6.5-5.2c-1.4-1.6-3.7-1.8-5.2-.5zm4.4 5.3c-1.4 1.2-3.5 1-4.6-.4-1.2-1.4-1-3.5.4-4.6 1.4-1.2 3.5-1 4.6.4 1.2 1.4 1 3.5-.4 4.6z" opacity=".5" fill="#fcbf1e"/><path id="XMLID_00000103264159181408584250000017341390993221438120_" class="st7" d="M33 44.5c-.3.2-.7.2-1-.1l-1-1.2 1.1-.9 1 1.2c.3.3.2.7-.1 1z"/><path id="XMLID_00000170997806076034011000000015820220737122832521_" class="st7" d="M35.8 42.2c-.3.2-.7.2-1-.1l-1-1.2 1.1-.9 1 1.2c.2.3.2.7-.1 1z"/><path id="XMLID_00000023996298048472265190000001777834939213439402_" class="st7" d="M35 43.9c-.3.2-.7.2-1-.1L32.5 42l1.1-.9 1.5 1.8c.2.3.2.7-.1 1z"/><path id="XMLID_00000096038282032250193050000012057070176559907492_" class="st7" d="M26.8 44.6l-.1.1c-.1.1-.2.1-.3 0-.1-.1-.1-.2 0-.3l.1-.1c.1-.1.2-.1.3 0 .1 0 .1.2 0 .3z"/><path id="XMLID_00000134929341688058228820000015973730763482570390_" class="st7" d="M28.3 43.3l-1.2 1c-.1.1-.2.1-.3 0-.1-.1-.1-.2 0-.3l1.2-1c.1-.1.2-.1.3 0 .1.1.1.2 0 .3z"/></g><path d="M97 10h-.8v-.8c0-.3-.2-.5-.5-.5s-.5.2-.5.5v.8h-.8c-.3 0-.5.2-.5.5s.2.5.5.5h.8v.8c0 .3.2.5.5.5s.5-.2.5-.5V11h.8c.3 0 .5-.2.5-.5s-.2-.5-.5-.5z" fill="#49b8f6"/><path class="st5" d="M42.5 50.4c.1 0 .2.1.2.2v1c0 .1-.1.2-.2.2s-.2-.1-.2-.2v-1c0-.1.1-.2.2-.2zm0-1.7c.1 0 .2.1.2.2v1c0 .1-.1.2-.2.2s-.2-.1-.2-.2v-1c0-.1.1-.2.2-.2zm-1.3 1.4h.9c.1 0 .2.1.2.2s-.1.2-.2.2h-.9c-.1 0-.2-.1-.2-.2s.1-.2.2-.2zm1.8 0h.9c.1 0 .2.1.2.2s-.1.2-.2.2H43c-.1 0-.2-.1-.2-.2s.1-.2.2-.2z" id="shape_00000137111598828081224750000006782479070403542458_"/><path class="st5" d="M27.9 14.2c.1 0 .2.1.2.2v1c0 .1-.1.2-.2.2s-.2-.1-.2-.2v-1c-.1-.1 0-.2.2-.2zm0-1.7c.1 0 .2.1.2.2v1c0 .1-.1.2-.2.2s-.2-.1-.2-.2v-1c-.1-.1 0-.2.2-.2zm-1.4 1.3h.9c.1 0 .2.1.2.2s-.1.2-.2.2h-.9c-.1 0-.2-.1-.2-.2s.1-.2.2-.2zm1.8 0h.9c.1 0 .2.1.2.2s-.1.2-.2.2h-.9c-.1 0-.2-.1-.2-.2s.1-.2.2-.2z" id="shape"/><path d="M103.1 34.1v-1.2h-1.2c-.1-.3-.2-.6-.3-.8l.8-.8-.9-.9-.8.8c-.3-.2-.7-.4-1-.4v-1.2h-1.2v1.2c-.2.1-.5.1-.7.3l-.8-.8-.9.9.8.8c-.2.3-.4.7-.4 1h-1v1.2h1c.1.3.2.6.4.9l-.8.8.9.9.8-.8c.3.2.6.3 1 .4v1.2h1.2v-1.3c.3-.1.5-.2.7-.3l.8.8.9-.9-.8-.8c.1-.2.2-.5.3-.7l1.2-.3zm-3.1.1c-.4.4-1.2.4-1.6 0s-.4-1.2 0-1.6c.4-.4 1.2-.4 1.6 0 .5.5.5 1.2 0 1.6zM10.9 16v-.8h-.8c0-.2-.1-.4-.2-.6l.6-.5-.6-.6-.6.4c-.2-.1-.5-.3-.7-.3v-.8h-.8v.8c-.2 0-.3.1-.5.2l-.5-.6-.7.7.5.5c-.1.2-.3.5-.3.7h-.7v.8h.7c.1.2.1.4.3.6l-.5.5.6.6.6-.5c.2.1.4.2.7.2v.8h.8v-.9c.2-.1.3-.1.5-.2l.5.5.6-.6-.5-.6c.1-.2.2-.3.2-.5l.8.2zm-2.1 0c-.3.3-.8.3-1.1 0-.3-.3-.3-.8 0-1.1.3-.3.8-.3 1.1 0 .3.4.3.8 0 1.1z" fill="#e8e8f9"/><path class="st5" d="M77.8 39.6c-.5.2-.7.6-.7 1v9.6c0 2 .9 3.8 2.5 4.9l5.6 3.6c.4.2.9.2 1.3 0l5.6-3.6c1.6-1.1 2.5-2.9 2.5-4.9v-9.5c0-.4-.3-.8-.8-1-6.9-2.4-9.7-2.5-16-.1z"/><path d="M78.9 40.9c-.4.1-.6.5-.6.8v8.2c0 1.7.8 3.2 2.1 4.2l4.8 3.1c.3.2.8.2 1.1 0l4.8-3.1c1.3-1 2.1-2.5 2.1-4.2v-8.1c0-.4-.3-.7-.7-.9-5.8-2-8.1-2.1-13.6 0z" fill="#39bdfc"/><path class="st2" d="M92.5 40.9c-2.8-1-4.8-1.5-6.8-1.5v17.9c.2 0 .4-.1.5-.2L91 54c1.3-1 2.1-2.5 2.1-4.2v-8.1c.1-.3-.2-.7-.6-.8z"/><path id="check" class="st5" d="M85.5 51.6c-.2 0-.4-.1-.6-.2l-2.6-2.6c-.4-.3-.4-.9-.1-1.2.3-.4.9-.4 1.2-.1l1.9 1.9 3.7-5.3c.3-.4.8-.5 1.2-.2.4.3.5.8.2 1.2l-4.2 6.1c-.1.2-.4.3-.7.4z"/></svg>