<svg width="41" height="40" viewBox="0 0 41 40" fill="none" xmlns="http://www.w3.org/2000/svg"><path d="M40.5 0v40H.5V0h40zM28.357 5.2c-4.944 0-7.352 1.906-7.352 5.443v18.659c0 3.61 2.408 5.498 7.352 5.498 4.944 0 6.543-2.273 6.543-5.498v-7.148h-5.845v7.404c0 .752-.312 1.082-.955 1.082-.625 0-.956-.312-.956-1.082V10.387c0-.642.313-1.008.956-1.008s.955.385.955 1.008v6.708H34.9v-6.451c0-3.171-1.58-5.444-6.543-5.444zm-14.39.11H6.1v29.362h6.157V23.345h1.71c4.061 0 5.77-1.906 5.77-5.444v-7.148c0-3.537-1.709-5.443-5.77-5.443zm-1.728 4.252c1.396 0 1.966.385 1.966 1.65v6.268c0 1.264-.57 1.631-1.966 1.631V9.562z" fill="#fff"/></svg>