<svg width="102" height="25" viewBox="0 0 102 25" fill="none" xmlns="http://www.w3.org/2000/svg"><path d="M99.581 8.144c0-.718.537-1.312 1.21-1.312.673 0 1.209.594 1.209 1.312 0 .73-.536 1.312-1.209 1.312s-1.21-.594-1.21-1.312zm.228 0c0 .594.434 1.077.982 1.077.536 0 .981-.483.981-1.077s-.445-1.077-.981-1.077c-.548 0-.981.483-.981 1.077zm.799.743h-.285V7.389h.548c.273 0 .49.149.49.47a.456.456 0 01-.262.434l.285.594h-.308l-.251-.545h-.217v.545zm.24-1.2h-.24v.37h.24c.102 0 .217-.049.217-.185 0-.149-.115-.186-.217-.186z" fill="#fff" fill-opacity=".502"/><path fill-rule="evenodd" clip-rule="evenodd" d="M42.968 18.479l-4.93-8.033v8.033h-2.201V6.832h2.544l4.655 7.6v-7.6h2.202V18.48h-2.27zm7.302-8.12c-2.225 0-4.017 1.795-4.017 4.172 0 2.4 1.769 4.134 3.994 4.134 2.213 0 4.005-1.783 4.005-4.184-.012-2.376-1.78-4.121-3.982-4.121zm-.023 6.164c-1.004 0-1.814-.829-1.814-2.042 0-1.188.798-2.017 1.791-2.017 1.004 0 1.814.829 1.814 2.017.012 1.213-.787 2.042-1.791 2.042zm9.538-3.713v-2.277a2.214 2.214 0 00-.582-.087c-.753 0-1.495.347-1.894 1.25h-.023v-1.163h-2.03v7.946h2.099v-3.478c0-1.473.718-2.252 1.745-2.252.091 0 .4 0 .685.061zm6.127-5.978v4.617h-.022c-.753-.966-1.769-1.052-2.19-1.052-2.1 0-3.515 2.091-3.515 4.109 0 2.141 1.358 4.134 3.48 4.134.49 0 1.586-.074 2.282-1.163h.022v1.014h2.077V6.832h-2.134zm-1.757 9.691c-1.004 0-1.814-.829-1.814-2.042 0-1.188.81-2.005 1.815-2.005 1.003 0 1.813.817 1.813 2.005-.01 1.213-.81 2.042-1.813 2.042zm4.541-9.69l3.89 11.646h2.556l3.902-11.647h-2.361l-2.796 8.85-2.784-8.85h-2.407zm15.255 0h-3.993v11.646h2.224v-4.11h1.678c2.247 0 3.924-1.237 3.924-3.811 0-2.463-1.688-3.726-3.833-3.726zm-.183 5.297h-1.586V9.11h1.575c.924 0 1.791.383 1.791 1.522 0 1.077-.901 1.498-1.78 1.498zm7.325-1.684l4.94 8.033h2.27V6.832h-2.202v7.6l-4.655-7.6h-2.544V18.48h2.19v-8.033zM2.647 24.012C.981 21.524 0 18.454 0 15.125 0 6.77 6.23 0 13.92 0c7.69 0 13.919 6.77 13.919 15.137 0 3.317-.981 6.387-2.647 8.887l-6.686-11.808-.65 1.188.65 3.293-4.598-8.54-2.83 5.21.662 3.33-2.407-4.468-6.686 11.783z" fill="#fff" fill-opacity=".502"/></svg>