<svg width="120" height="30" viewBox="0 0 120 30" fill="none" xmlns="http://www.w3.org/2000/svg"><path d="M31.54 10.44h12.14v2.26H38.9v12.74h-2.62V12.7h-4.76l.02-2.26zm11.62 4.14h2.24v2.1h.04c.08-.3.22-.58.42-.86.2-.28.44-.54.74-.76.28-.24.6-.42.96-.56.34-.14.7-.22 1.06-.22.28 0 .48.02.58.02.1.02.22.04.32.04v2.3c-.16-.04-.34-.06-.52-.08-.18-.02-.34-.04-.52-.04-.4 0-.78.08-1.14.24-.36.16-.66.4-.94.7-.26.32-.48.7-.64 1.16-.16.46-.24 1-.24 1.6v5.16h-2.4l.04-10.8zm17.36 10.86h-2.36v-1.52h-.04c-.3.56-.74.98-1.32 1.32-.58.34-1.18.5-1.78.5-1.42 0-2.46-.34-3.1-1.06-.64-.7-.96-1.78-.96-3.2v-6.9h2.4v6.66c0 .96.18 1.64.56 2.02.36.4.88.6 1.54.6.5 0 .92-.08 1.26-.24.34-.16.62-.36.82-.62.22-.26.36-.58.46-.94.1-.36.14-.76.14-1.18v-6.3h2.4v10.86h-.02zm4.08-3.48c.08.7.34 1.18.8 1.48.46.28 1.02.42 1.66.42.22 0 .48-.02.76-.06.28-.04.56-.1.8-.2.26-.1.46-.24.62-.44.16-.2.24-.44.22-.74-.02-.3-.12-.56-.34-.76-.22-.2-.48-.34-.8-.48-.32-.12-.7-.22-1.12-.3-.42-.08-.84-.18-1.28-.28-.44-.1-.88-.22-1.3-.36-.42-.14-.78-.32-1.12-.58-.32-.24-.6-.54-.78-.92-.2-.38-.3-.82-.3-1.38 0-.6.14-1.08.44-1.48.28-.4.66-.72 1.1-.96.44-.24.94-.42 1.48-.52.54-.1 1.06-.14 1.54-.14.56 0 1.1.06 1.6.18s.98.3 1.38.58c.42.26.76.62 1.02 1.04.28.42.44.94.52 1.54H69c-.12-.58-.38-.96-.78-1.16-.42-.2-.88-.3-1.42-.3-.16 0-.38.02-.6.04-.24.04-.44.08-.66.16-.2.08-.38.2-.52.34a.8.8 0 00-.22.58c0 .3.1.52.3.7.2.18.46.32.8.46.32.12.7.22 1.12.3.42.08.86.18 1.3.28.44.1.86.22 1.28.36.42.14.8.32 1.12.58.32.24.6.54.8.9.2.36.3.82.3 1.34 0 .64-.14 1.18-.44 1.64-.3.44-.68.82-1.14 1.1-.46.28-1 .48-1.56.62-.58.12-1.14.2-1.7.2-.68 0-1.32-.08-1.9-.24-.58-.16-1.1-.4-1.52-.7-.42-.32-.76-.7-1-1.18-.24-.46-.38-1.02-.4-1.68h2.42v.02h.02zm7.9-7.38h1.82V11.3h2.4v3.26h2.16v1.78h-2.16v5.8c0 .26.02.46.04.66.02.18.08.34.14.46.08.12.2.22.34.28.16.06.36.1.64.1.16 0 .34 0 .5-.02.16-.02.34-.04.5-.08v1.86c-.26.04-.52.06-.78.08-.26.04-.5.04-.78.04-.64 0-1.14-.06-1.52-.18-.38-.12-.68-.3-.9-.52a1.86 1.86 0 01-.44-.86c-.08-.34-.12-.76-.14-1.2v-6.4H72.5v-1.82.04zm8.06 0h2.26v1.48h.04c.34-.64.8-1.08 1.4-1.36.6-.28 1.24-.42 1.96-.42.86 0 1.6.14 2.24.46.64.3 1.16.7 1.58 1.24.42.52.74 1.14.94 1.84.2.7.32 1.46.32 2.24 0 .74-.1 1.44-.28 2.12-.2.68-.48 1.3-.86 1.82s-.86.94-1.46 1.26c-.6.32-1.28.48-2.08.48-.34 0-.7-.04-1.04-.1-.34-.06-.68-.16-1-.3-.32-.14-.62-.32-.88-.54-.28-.22-.5-.48-.68-.76h-.04v5.42h-2.4V14.58h-.02zm8.38 5.44c0-.48-.06-.96-.2-1.42-.12-.46-.32-.86-.58-1.22a3.2 3.2 0 00-.94-.86c-.38-.22-.82-.32-1.3-.32-1 0-1.76.34-2.28 1.04-.5.7-.76 1.64-.76 2.8 0 .56.06 1.06.2 1.52.14.46.32.86.6 1.2.26.34.58.6.96.8.38.2.8.3 1.3.3.56 0 1-.12 1.38-.34.38-.22.68-.52.94-.86.24-.36.42-.76.52-1.22.1-.48.16-.94.16-1.42zm4.22-9.58h2.4v2.26h-2.4v-2.26zm0 4.14h2.4v10.86h-2.4V14.58zm4.54-4.14h2.4v15h-2.4v-15zm9.72 15.3c-.86 0-1.64-.14-2.32-.44-.68-.3-1.24-.68-1.72-1.18-.46-.5-.82-1.12-1.06-1.82a7.11 7.11 0 01-.38-2.3c0-.82.12-1.58.38-2.28.24-.7.6-1.3 1.06-1.82.46-.5 1.04-.9 1.72-1.18a6.07 6.07 0 012.32-.44c.86 0 1.64.14 2.32.44.68.28 1.24.68 1.72 1.18.46.5.82 1.12 1.06 1.82.24.7.38 1.46.38 2.28 0 .84-.12 1.6-.38 2.3-.26.7-.6 1.3-1.06 1.82-.46.5-1.04.9-1.72 1.18-.68.28-1.44.44-2.32.44zm0-1.9c.52 0 1-.12 1.38-.34.4-.22.7-.52.96-.88s.44-.78.56-1.22a5.486 5.486 0 000-2.78c-.12-.46-.3-.86-.56-1.22-.26-.36-.58-.64-.96-.86-.4-.22-.86-.34-1.38-.34-.52 0-1 .12-1.38.34-.4.22-.7.52-.96.86-.26.36-.44.76-.56 1.22a5.448 5.448 0 000 2.78c.12.46.3.86.56 1.22.26.36.58.66.96.88.4.24.86.34 1.38.34zm6.2-9.26h1.82V11.3h2.4v3.26H120v1.78h-2.16v5.8c0 .26.02.46.04.66.02.18.08.34.14.46.08.12.2.22.34.28.16.06.36.1.64.1.16 0 .34 0 .5-.02.16-.02.34-.04.5-.08v1.86c-.26.04-.52.06-.78.08-.26.04-.5.04-.78.04-.64 0-1.14-.06-1.52-.18-.38-.12-.68-.3-.9-.52a1.86 1.86 0 01-.44-.86c-.08-.34-.12-.76-.14-1.2v-6.4h-1.82v-1.82.04z" fill="#fff"/><path d="M28.74 10.44H17.76L14.38 0l-3.4 10.44L0 10.42l8.88 6.46-3.4 10.44 8.88-6.46 8.88 6.46-3.38-10.44 8.88-6.44z" fill="#00B67A"/><path d="M20.62 19.24l-.76-2.36-5.48 3.98 6.24-1.62z" fill="#005128"/></svg>