<svg width="80" height="80" fill="none" xmlns="http://www.w3.org/2000/svg"><path d="M22.164 45.506s4.249-15.581 16.997-28.328c10.78-10.78 25.612-9.405 29.932-8.724a1.73 1.73 0 011.453 1.452c.68 4.321 2.056 19.154-8.724 29.934-12.747 12.747-28.328 16.996-28.328 16.996m-11.33-11.33L8 39.84l6.742-6.74a6 6 0 014.242-1.758h8.846m-5.666 14.164l11.33 11.33m0 0L39.161 71l6.74-6.742a6 6 0 001.758-4.242v-8.845m-15.58-7.082l-6.374-6.374m9.206 9.206l6.374 6.374m-23.37 2.124l-9.914 9.915m15.58-4.249l-2.833 2.833m15.58-24.078L22.164 56.836 39.16 42.673l-2.832-2.833zm19.829-8.498a6.009 6.009 0 11-8.498-8.498 6.009 6.009 0 018.498 8.498z" stroke="currentColor" stroke-width="1.5" stroke-linecap="round" stroke-linejoin="round"/></svg>