<!-- Generated by IcoMoon.io -->
<svg version="1.1" xmlns="http://www.w3.org/2000/svg" width="32" height="32" viewBox="0 0 32 32">
<title>android</title>
<path d="M20.375 3.973c2.196 1.448 3.625 3.903 3.625 6.692 0 0 0 0.001 0 0.001v-0h-16c0-0 0-0.001 0-0.001 0-2.789 1.429-5.245 3.595-6.674l0.030-0.019-1.513-2.271c-0.077-0.107-0.123-0.241-0.123-0.386 0-0.368 0.298-0.667 0.667-0.667 0.237 0 0.446 0.124 0.564 0.311l0.002 0.003 1.581 2.372c0.941-0.423 2.041-0.67 3.197-0.67s2.256 0.247 3.248 0.69l-0.051-0.020 1.581-2.372c0.12-0.19 0.328-0.314 0.566-0.314 0.368 0 0.667 0.298 0.667 0.667 0 0.145-0.046 0.278-0.124 0.388l0.001-0.002-1.513 2.271zM8 25.333v-13.333h16v13.333c0 0.736-0.597 1.333-1.333 1.333v0h-1.333v4c0 0.736-0.597 1.333-1.333 1.333s-1.333-0.597-1.333-1.333v0-4h-5.333v4c0 0.736-0.597 1.333-1.333 1.333s-1.333-0.597-1.333-1.333v0-4h-1.333c-0.736 0-1.333-0.597-1.333-1.333v0zM5.333 12c0.736 0 1.333 0.597 1.333 1.333v0 6.667c0 0.736-0.597 1.333-1.333 1.333s-1.333-0.597-1.333-1.333v0-6.667c0-0.736 0.597-1.333 1.333-1.333v0zM26.667 12c0.736 0 1.333 0.597 1.333 1.333v0 6.667c0 0.736-0.597 1.333-1.333 1.333s-1.333-0.597-1.333-1.333v0-6.667c0-0.736 0.597-1.333 1.333-1.333v0zM13.333 8c0.736 0 1.333-0.597 1.333-1.333s-0.597-1.333-1.333-1.333v0c-0.736 0-1.333 0.597-1.333 1.333s0.597 1.333 1.333 1.333v0zM18.667 8c0.736 0 1.333-0.597 1.333-1.333s-0.597-1.333-1.333-1.333v0c-0.736 0-1.333 0.597-1.333 1.333s0.597 1.333 1.333 1.333v0z"></path>
</svg>
