<!-- Generated by IcoMoon.io -->
<svg version="1.1" xmlns="http://www.w3.org/2000/svg" width="32" height="32" viewBox="0 0 32 32">
<title>platform-android-tv</title>
<path d="M21.2 24.4c0-1 0.8-1.9 1.9-1.9h0.1c0.4 0 0.7 0.1 1 0.4v-1.4h1v4.8h-1v-0.3c-0.3 0.3-0.7 0.4-1 0.4-1.2-0.1-2-0.9-2-2zM22.2 24.4c0 0.6 0.4 1 1 1 0.4 0 0.7-0.2 1-0.5v-1.2c-0.2-0.3-0.6-0.5-1-0.5-0.6 0.1-1 0.6-1 1.2zM15.4 24.4c-0.1-1.1 0.8-2 1.9-2.1s2 0.8 2.1 1.9-0.8 2-1.9 2.1h-0.1c-1.1 0-2-0.8-2-1.9v0zM16.4 24.4c0 0.6 0.4 1 1 1.1 0.6 0 1-0.4 1.1-1 0-0.6-0.4-1-1-1.1h-0.1c-0.6 0-1 0.4-1 1v0zM9 24.4c0-1 0.8-1.9 1.9-1.9h0.1c0.4 0 0.7 0.1 1 0.4v-1.4h1v4.8h-1v-0.3c-0.3 0.3-0.7 0.4-1 0.4-1.1-0.1-1.9-0.9-2-2 0 0 0 0 0 0v0zM10 24.4c0 0.6 0.4 1 1 1 0.4 0 0.7-0.2 1-0.5v-1.2c-0.2-0.3-0.6-0.5-1-0.5-0.5 0.1-1 0.6-1 1.2 0 0 0 0 0 0zM0.6 24.4c0-1 0.8-1.9 1.9-1.9h0.1c0.4 0 0.7 0.1 1 0.4v-0.3h1v3.7h-1v-0.3c-0.3 0.3-0.7 0.4-1 0.4-1.1-0.1-2-0.9-2-2 0 0 0 0 0 0v0zM1.6 24.4c0 0.6 0.4 1 1 1 0.4 0 0.7-0.2 1-0.5v-1.1c-0.2-0.3-0.6-0.5-1-0.5-0.5 0-1 0.5-1 1.1 0 0 0 0 0 0zM27.5 26.3c-0.8 0.1-1.6-0.4-1.6-1.3v-3.4h0.7v1h1v0.6h-1v1.6c0 0.4 0.4 0.9 0.8 0.9h0.2l-0.1 0.6c0.1 0.1 0 0 0 0zM29.3 26.2l-1.6-3.7h0.8l1.1 2.8 1.1-2.9h0.8l-1.5 3.7-0.7 0.1zM19.8 26.2v-3.7h1v3.7h-1zM13.5 26.2v-1.9c-0.1-0.9 0.5-1.7 1.5-1.8h0.4v0.9c-0.4-0.1-0.8 0.2-0.9 0.7v2.1h-1zM7.7 26.2v-2c0-0.4-0.4-0.8-0.9-0.8s-0.8 0.4-0.8 0.8v2h-0.9v-2c0-1 0.8-1.8 1.8-1.8s1.8 0.7 1.8 1.7v2l-1 0.1zM19.7 21.8c0-0.3 0.2-0.5 0.5-0.6s0.5 0.2 0.6 0.5c0 0.3-0.2 0.5-0.5 0.6-0.3 0-0.6-0.2-0.6-0.5v0zM0.6 19.2c0.5-5 3.5-9.4 7.9-11.7l-2.5-4.3c-0.2-0.2-0.1-0.5 0.1-0.7 0.3-0.1 0.6-0.1 0.7 0.1l2.7 4.4c2.1-0.9 4.4-1.3 6.6-1.3 2.3 0 4.5 0.4 6.6 1.3l2.6-4.3c0.1-0.2 0.4-0.3 0.7-0.1 0.2 0.1 0.3 0.4 0.2 0.7l-2.6 4.3c4.5 2.3 7.4 6.7 7.9 11.7h-30.9zM21.9 13.7c0 0.7 0.5 1.3 1.3 1.3 0.7 0 1.3-0.5 1.3-1.3 0-0.7-0.5-1.3-1.3-1.3h-0.1c-0.6 0.1-1.2 0.6-1.2 1.3v0zM7.7 13.7c0 0.7 0.5 1.3 1.3 1.3 0.7 0 1.3-0.5 1.3-1.3 0-0.7-0.5-1.3-1.3-1.3v0c-0.7 0-1.3 0.6-1.3 1.3v0zM-53.5 26.1c0-0.1-0.1-0.1-0.1-0.4-1.2 0-2.2-0.4-2.9-0.2-1.1 0.1-1.8 0.4-2.5 0.4-0.3 0.5-0.7 0.9-1.3 1-1 0.1-2 0-2.9-0.5-1-0.5-2.2-0.4-3-0.7-0.4-0.1-0.8-0.3-1-0.7-0.1-0.2-0.1-0.4-0.1-0.6 0-0.4 0.1-0.7 0.1-1 0.1-0.1 0.1-0.4 0.1-0.5s0-0.4-0.1-0.5c-0.1-0.2-0.1-0.4-0.1-0.6s0.1-0.4 0.1-0.7c0.3-0.4 0.6-0.6 1-0.7 0.3-0.1 0.6-0.2 0.8-0.4s0.4-0.6 0.7-1c0-0.1 0-0.1 0.1-0.1v-0.7c0-0.7 0.1-1.4 0.4-2.1 0.7-1.8 1.7-3.5 3-5 0.7-1 1.2-2.1 1.2-3.3 0-0.5-0.1-1.5-0.1-2.5 0-1.9 0.5-4.2 3.6-4.5h0.5c4.2 0 4 4.4 4.1 6.8 0 1.6 0.8 2.5 1.7 3.6 1 1.2 1.8 2.5 2.4 3.9 0.3 0.7 0.4 1.6 0.4 2.3 0 0.6-0.1 1.2-0.3 1.8 0.1 0 0.2 0 0.2 0.1s0.1 0.1 0.1 0.1c0.3 0.4 0.4 0.7 0.5 1.2 0 0.4 0.1 0.7 0.4 1v0.1c0.4 0.4 0.7 1 0.7 1.6-0.1 0.4-0.4 0.8-0.7 1-0.7 0.4-1.9 0.7-2.7 1.6-0.6 0.8-1.5 1.3-2.5 1.5h-0.2c-0.5-0.1-1.2-0.5-1.6-1.3v0zM-59.6 23.2c0.1 0.1 0.3 0.4 0.4 0.6 1.9 1.3 4.2 0.8 5.9-0.4 0.2-0.4 0.4-1 0.4-1.5l0.2-2.1c0.1-0.5 0.4-1 0.8-1.3 0.1 0 0.1-0.1 0.2-0.1v-0.1c0.1-0.8 1-1 1.9-0.5 0.9 0.4 1.3 0.7 1.3 1.1 0 0.1 0 0.1-0.1 0.2h0.1v0.1c0-0.1 0.1-0.2 0.1-0.3 0-0.5-0.4-0.9-1.4-1.4-0.1 0-0.1-0.1-0.2-0.1 0.1-0.3 0.1-0.7 0.1-1s-0.1-0.6-0.1-0.9c-0.3-1.2-0.9-2.2-1.8-3h-0.1c0 0.1 0.1 0.1 0.2 0.3 0.8 0.9 1.3 2 1.4 3.2 0 0.4-0.1 0.7-0.2 1.1-0.2-0.1-0.4-0.1-0.6-0.1-0.1-1.2-0.6-2.3-1.2-3.3-0.8-1.6-1.5-3.3-1.9-5-0.3 0.4-0.7 0.7-1.1 1-0.3 0.1-0.6 0.3-0.8 0.4-0.4 0.1-0.7 0.3-1.1 0.2h-0.1c-0.4 0.1-0.7-0.1-1-0.4-0.2-0.1-0.4-0.4-0.7-0.5-0.1-0.1-0.2-0.2-0.4-0.2-0.1 1.9-1.5 4.5-2.1 5.8-0.4 1-0.6 2.1-0.7 3.1-0.4-0.5-0.5-1.1-0.5-1.7 0.1-0.9 0.3-1.7 0.7-2.5 0.1-0.4 0.4-0.7 0.4-1.1-0.7 1-1.1 2-1.4 3-0.1 0.6-0.1 1.2 0 1.8 0.2 0.7 0.7 1.2 1.3 1.6 0.7 0.4 1.4 1 1.9 1.7 0.2 0.3 0.4 0.7 0.4 1v0.2c-0.1 0.1-0.2 0.3-0.4 0.4s-0.4 0.1-0.5 0.1c0.5 0.3 0.7 0.4 0.7 0.6v0zM-59.4 8.5c0.1 0.3 0.4 0.6 0.7 0.7 0.2 0.1 0.4 0.4 0.7 0.5 0.1 0.1 0.2 0.1 0.4 0.2 0.1 0.1 0.4 0.1 0.5 0.1 0.4 0.1 0.7-0.1 1.1-0.2 0.3-0.2 0.6-0.4 0.8-0.5 0.5-0.1 0.9-0.5 1.2-1 0.1-0.1 0.1-0.4 0-0.5v0.1c-0.1-0.2-0.3-0.4-0.5-0.4-0.5-0.1-0.8-0.2-1.2-0.5s-0.9-0.4-1.3-0.4h-0.5c-0.4 0.1-0.7 0.4-1 0.7l-0.1 0.1c-0.1 0.1-0.4 0.2-0.5 0.4-0.1 0.1-0.3 0.3-0.3 0.5 0 0.1 0 0.2 0 0.2zM-54.7 7.1c0.1 0.1 0.2 0.1 0.4 0.1l0.1 0.1c0.1-0.1 0.2-0.2 0.2-0.4 0.1-0.2 0.1-0.5 0.1-0.7 0-0.3-0.1-0.5-0.1-0.7-0.1-0.2-0.3-0.4-0.5-0.6-0.2-0.1-0.4-0.2-0.7-0.2-0.2 0-0.5 0.1-0.7 0-0.2 0.1-0.4 0.4-0.5 0.6-0.1 0.3-0.2 0.5-0.1 0.8v0.2l0.7 0.2v-0.2c0-0.1 0-0.3 0.1-0.4s0.1-0.2 0.2-0.4c0-0.1 0.1-0.1 0.2-0.1 0.1 0.1 0.2 0.1 0.4 0.1 0.1 0.1 0.1 0.1 0.1 0.4 0.1 0.1 0.1 0.3 0.1 0.4s0 0.3-0.1 0.4c0 0.1-0.1 0.1-0.1 0.2 0 0.2 0.1 0.2 0.2 0.2v0zM-59.2 7c0.1 0.1 0.1 0.2 0.2 0.4 0.1 0 0.1-0.1 0.1-0.1 0-0.1 0.1-0.1 0.1-0.1-0.1-0.1-0.1-0.1-0.1-0.2-0.1-0.1-0.1-0.2-0.1-0.4v-0.4c0-0.1 0-0.1 0.1-0.1 0-0.1 0.1-0.1 0.1-0.1 0.1 0 0.1 0 0.1 0.1 0.1 0 0.1 0.1 0.1 0.2s0.1 0.2 0.1 0.4v0.2c0.1-0.1 0.3-0.2 0.4-0.2h0.1v-0.5c0-0.3-0.1-0.5-0.1-0.7-0.1-0.2-0.2-0.4-0.4-0.5-0.1-0.1-0.3-0.1-0.5-0.1-0.1 0-0.2 0-0.4 0.1-0.1 0.1-0.3 0.4-0.4 0.6s-0.1 0.5-0.1 0.7v0c0.6 0.2 0.6 0.5 0.7 0.7v0 0zM-58.6 9.1l-0.4-0.5c-0.1-0.1-0.1-0.1-0.1-0.3v-0.1c0.1 0 0.1 0.1 0.2 0.2s0.2 0.2 0.4 0.4c0.4 0.3 0.8 0.5 1.3 0.5 0.5-0.1 1-0.2 1.6-0.5 0.2-0.1 0.4-0.3 0.7-0.5 0.2-0.1 0.1-0.2 0.4-0.2 0.1 0 0.1 0 0.1 0.1s-0.1 0.1-0.2 0.3l-1 0.5c-0.5 0.3-1 0.5-1.6 0.6-0.4-0.1-1-0.2-1.4-0.5v0zM-56.6 7.2c-0.1 0-0.1 0-0.1-0.1 0.1-0.1 0.2-0.1 0.4-0.1 0.1 0 0.1 0.1 0.1 0.1s-0.1 0.1-0.1 0.1c-0.2 0.2-0.2 0-0.3 0zM-57.9 7.2c0-0.1 0.1-0.1 0.1-0.1 0.1 0 0.3 0 0.4 0.1 0 0.1-0.1 0.1-0.1 0.1-0.1 0-0.1 0.1-0.1 0.1-0.1-0.1-0.3 0-0.3-0.2z"></path>
</svg>
