<!-- Generated by IcoMoon.io -->
<svg version="1.1" xmlns="http://www.w3.org/2000/svg" width="32" height="32" viewBox="0 0 32 32">
<title>ios</title>
<path d="M27.536 24.16c-0.693 1.532-1.023 2.216-1.915 3.569-1.241 1.891-2.992 4.247-5.161 4.267-1.928 0.017-2.424-1.253-5.040-1.24s-3.164 1.261-5.093 1.244c-2.169-0.020-3.827-2.147-5.071-4.039-3.472-5.288-3.836-11.492-1.693-14.789 1.52-2.347 3.923-3.716 6.183-3.716 2.3 0 3.744 1.26 5.647 1.26 1.844 0 2.968-1.263 5.627-1.263 2.011 0 4.141 1.095 5.657 2.984-4.971 2.727-4.163 9.824 0.86 11.723zM20.092 5.397c-1.172 1.5-3.183 2.663-5.128 2.603-0.355-1.933 0.557-3.924 1.661-5.267 1.219-1.477 3.303-2.612 5.084-2.733 0.303 2.020-0.525 3.997-1.617 5.397z"></path>
</svg>
