<svg xmlns="http://www.w3.org/2000/svg" viewBox="0 0 32 32"><path d="M27.536 24.16c-.693 1.532-1.023 2.216-1.915 3.569-1.241 1.891-2.992 4.247-5.161 4.267-1.928.017-2.424-1.253-5.04-1.24S12.256 32.017 10.327 32c-2.169-.02-3.827-2.147-5.071-4.039-3.472-5.288-3.836-11.492-1.693-14.789 1.52-2.347 3.923-3.716 6.183-3.716 2.3 0 3.744 1.26 5.647 1.26 1.844 0 2.968-1.263 5.627-1.263 2.011 0 4.141 1.095 5.657 2.984-4.971 2.727-4.163 9.824.86 11.723zM20.092 5.397C18.92 6.897 16.909 8.06 14.964 8c-.355-1.933.557-3.924 1.661-5.267C17.844 1.256 19.928.121 21.709 0c.303 2.02-.525 3.997-1.617 5.397z"/></svg>