<svg xmlns="http://www.w3.org/2000/svg" viewBox="0 0 32 32"><path d="M20.375 3.973C22.571 5.421 24 7.876 24 10.665v.001H8v-.001a7.983 7.983 0 013.595-6.674l.03-.019-1.513-2.271A.667.667 0 1111.22.959l.002.003 1.581 2.372c.941-.423 2.041-.67 3.197-.67s2.256.247 3.248.69l-.051-.02L20.778.962a.667.667 0 111.109.741l.001-.002-1.513 2.271zM8 25.333V12h16v13.333c0 .736-.597 1.333-1.333 1.333h-1.333v4a1.333 1.333 0 01-2.666 0v-4h-5.333v4a1.333 1.333 0 01-2.666 0v-4H9.336a1.333 1.333 0 01-1.333-1.333zM5.333 12c.736 0 1.333.597 1.333 1.333V20A1.333 1.333 0 014 20v-6.667C4 12.597 4.597 12 5.333 12zm21.334 0c.736 0 1.333.597 1.333 1.333V20a1.333 1.333 0 01-2.666 0v-6.667c0-.736.597-1.333 1.333-1.333zM13.333 8a1.333 1.333 0 000-2.666 1.333 1.333 0 000 2.666zm5.334 0a1.333 1.333 0 000-2.666 1.333 1.333 0 000 2.666z"/></svg>