<svg xmlns="http://www.w3.org/2000/svg" viewBox="0 0 1137.1 53.2" xmlns:v="https://vecta.io/nano"><path d="M979.246 42.706v-17.2h8.6v8.6h17.2v8.6h-25.8zm-17.1 0v-17.2h-8.6v-8.6h25.7v8.6h-8.6v17.2h-8.5zm126.7-8.8v-6.8h3.9v6.3c0 1.4.5 1.8 1.3 1.8s1.3-.4 1.3-1.8h0v-6.3h3.9v11.1h-3.9v-.8c-.8.6-1.8 1-2.8 1-2.5.1-3.7-1.6-3.7-4.5zm-25.4-3.1c0-4.8 2.8-7.6 6.9-7.6 3.7 0 5.2 1.6 6.2 4.4l-3.8 1.5c-.5-1.4-1-2.3-2.4-2.3-1.7 0-2.5 1.7-2.5 4.1 0 2.3.7 4.1 2.5 4.1 1.3 0 1.9-.7 2.7-2.1l3.5 1.8c-1.1 2.4-3.6 4-6.3 3.8-4.4 0-6.8-3.3-6.8-7.7h0zm-37 1.9c0-3.9 2.2-5.8 5.2-5.8 3.1 0 5 2 5 6.1v.8h-6.6a1.79 1.79 0 0 0 1.8 1.8h.1c1 0 2-.3 2.9-.8l1.5 2.4c-1.4.8-3 1.3-4.6 1.3-3.4 0-5.3-2.4-5.3-5.8zm3.6-1.3h3.2c-.2-1.1-.6-1.7-1.7-1.7-.9 0-1.4.6-1.5 1.7h0zm84.6 1.2c0-3.4 1.8-5.7 5.4-5.7 1.8-.1 3.5.9 4.3 2.5l-2.7 2c-.5-1-.9-1.4-1.7-1.4-1 0-1.5 1-1.5 2.7 0 1.8.5 2.7 1.6 2.7.7 0 1.3-.4 1.9-1.5l2.4 1.9c-1.3 1.9-2.5 2.6-4.5 2.6-3.2 0-5.2-2-5.2-5.8h0zm-76 0c0-3.4 1.8-5.7 5.4-5.7 1.8-.1 3.5.9 4.3 2.5l-2.7 2c-.6-1-.9-1.4-1.7-1.4-1 0-1.5 1-1.5 2.7 0 1.8.5 2.7 1.6 2.7.7 0 1.2-.4 2-1.5l2.4 1.9c-1.3 1.9-2.5 2.6-4.5 2.6-3.4 0-5.3-2-5.3-5.8h0zm94.6 5.7v-6.3c0-1.4-.5-1.8-1.3-1.8s-1.3.4-1.3 1.8v6.3h-3.9v-13.9l3.9-1.5v5c.8-.6 1.8-1 2.8-1 2.5 0 3.7 1.7 3.6 4.6v6.8h-3.8zm-76.1 0v-6.3c0-1.4-.5-1.8-1.3-1.8s-1.3.4-1.3 1.8v6.3h-3.9v-13.9l3.9-1.5v5c.8-.6 1.8-1 2.8-1 2.4 0 3.6 1.7 3.6 4.6v6.8h-3.8zm21.7-.1v-11.1h3.9v.8c.6-.7 1.5-1 2.4-1.1.6 0 1.3.2 1.8.5l-.9 3.9c-.4-.6-1.1-.9-1.8-.9-.9 0-1.5.5-1.5 1.8v6l-3.9.1zm-60.4 0v-11.2h-4.2v-3.6h12.6v3.6h-4.2v11.2h-4.2zm90.1 0v-6.3c0-1.4-.5-1.8-1.3-1.8s-1.3.4-1.3 1.8v6.3h-3.9v-11.1h3.9v.8c.8-.6 1.8-1 2.8-1 2.5 0 3.6 1.7 3.6 4.5v6.8h-3.8zm-120.7-12.7v-8.6h17.2v8.6h-17.2zm-138.6 9.2c0 3.8-4.7 3.6-4.7 3.6h-4.7v-6.9h4.7c4.8-.1 4.7 3.3 4.7 3.3m-9.5-13.8h3.6c3.8.2 3.6 3 3.6 3 0 3.5-4.1 3.5-4.1 3.5h-3.1v-6.5zm8.6 7.8c2-.9 3.2-2.9 3.2-5.1 0 0 .5-6-7.5-6.7h-8.8v25.2h10.1s8.5 0 8.5-7.1c0 0 .2-4.8-5.5-6.3m-22.9-16.7h37.2v35.1h-37.2v-35.1zm-19.1 22.7c0 3.8-4.7 3.6-4.7 3.6h-4.7v-6.9h4.7c4.8-.1 4.7 3.3 4.7 3.3m-9.5-13.8h3.6c3.8.2 3.6 3 3.6 3 0 3.5-4.1 3.5-4.1 3.5h-3.1v-6.5h0zm8.6 7.8c2-.9 3.2-2.9 3.2-5.1 0 0 .5-6-7.5-6.7h-8.8v25.2h10.1s8.5 0 8.5-7.1c0 0 .2-4.8-5.5-6.3m-22.9-16.7h37.2v35.1h-37.2v-35.1zm115.4 6.8v4.7c-2.9-1.7-6.2-2.7-9.6-2.9 0 0-9.4-.2-9.8 9 0 0-.3 8.4 9.7 8.9 0 0 4.2.5 9.9-3.1v4.8c-5.1 2.7-11.1 3.1-16.5 1-4.7-2-7.7-6.6-7.7-11.6 0 0-.3-9.2 9.6-12.2 2.4-.7 4.9-.9 7.4-.6s4.8 1 7 2m-29.6 28.3h37.2v-35.1h-37.2v35.1zm-190.4-23.5c0-3.8.1-7.4.3-10.7l-10.1 1.9v.9l1 .1a1.75 1.75 0 0 1 1.4.7 8.3 8.3 0 0 1 .6 2.1c.1 1.9.3 6.3.2 13.1 0 6.8-.1 11.1-.2 12.7 2.8.7 5.7 1 8.6 1.1 4 0 7.1-1.1 9.3-3.4 2.4-2.5 3.6-5.9 3.4-9.3.1-2.8-.8-5.5-2.6-7.7-1.6-2-4-3.1-6.5-3-1.8.2-3.7.7-5.4 1.5zm.2 20.3c-.1-2.1-.3-8.4-.3-18.8.8-.2 1.6-.3 2.4-.3 1.6 0 3.1 1 3.8 2.4 1 1.9 1.5 4 1.4 6.1.1 2.7-.5 5.3-1.6 7.7-1.1 2-2.4 3.1-4 3.1-.6 0-1.1-.1-1.7-.2h0zm-47.8-30.3h-26.4v1.3l1.4.1c.9.1 1.7.5 2.2 1.2.5 1 .8 2.1.8 3.2a132.19 132.19 0 0 1 0 19.9c0 1.1-.3 2.2-.8 3.2-.5.7-1.4 1.1-2.2 1.2l-1.4.2v1.3h17v-1.3l-1.8-.1c-.9-.1-1.7-.5-2.2-1.2-.5-1-.8-2.1-.8-3.2-.2-2.6-.3-5.7-.3-9l3.6.1c1.9.1 3.2 1.5 3.9 4.4h1.3v-10.7h-1.3c-.7 2.8-1.9 4.3-3.9 4.3l-3.6.1c0-5.9.1-10.1.3-12.7h5.2c3.7 0 6.2 2.4 7.6 7.1l1.6-.5-.2-8.9zm-3.1 20.3c-.1 3.1.9 6.1 2.9 8.5 1.9 2.2 4.7 3.3 8.3 3.3 3.2.2 6.3-1.1 8.6-3.4 2.1-2.3 3.2-5.4 3.1-8.5.1-3.1-.9-6.1-2.9-8.5-1.9-2.2-4.7-3.3-8.3-3.3-3.2-.2-6.3 1.1-8.6 3.4-2.1 2.3-3.3 5.4-3.1 8.5zm14.7-7.5c.8 2.4 1.2 4.9 1.1 7.4 0 7-1.5 10.4-4.3 10.4-1.4 0-2.6-1-3.4-3-.8-2.4-1.2-4.9-1.1-7.4 0-6.9 1.5-10.3 4.3-10.3 1.5-.1 2.6.9 3.4 2.9h0zm55.6 16c2.2 2.2 5.2 3.4 8.2 3.3 1.9 0 3.7-.4 5.4-1.3 1.5-.7 2.7-1.7 3.7-3l-.7-.8c-1.4 1.1-3.2 1.7-5 1.6-2.3.2-4.6-.8-6.1-2.6a10.04 10.04 0 0 1-2-6.9h14.1c.1-2.8-.7-5.6-2.4-7.8-1.7-2-4.3-3.1-6.9-3-3.2-.2-6.4 1.1-8.6 3.5-2 2.3-3.1 5.4-3 8.5 0 3.3 1.2 6.3 3.3 8.5h0zm4.9-16.5c.7-1.6 1.6-2.4 2.9-2.4 2 0 3 2.5 3 7.6l-7 .1c0-1.8.4-3.6 1.1-5.3h0zm30.6-2.7c-2.1-.9-4.4-1.3-6.7-1.3-2.4-.1-4.7.6-6.6 2.1-1.6 1.2-2.5 3.1-2.5 5.1-.1 1.5.5 3 1.5 4.2 1.3 1.2 2.9 2.1 4.6 2.6 1.4.4 2.7 1.1 3.8 1.9 1.3 1.2 1.4 3.3.2 4.6l-.2.2c-.7.7-1.7 1.1-2.8 1.1-2.9 0-5.1-2.1-6.6-6.3l-1.1.3.3 6.6c2.5 1 5.2 1.4 7.9 1.4 3 0 5.3-.7 7.1-2 1.7-1.3 2.7-3.4 2.6-5.6.1-1.4-.4-2.8-1.3-3.9-1.2-1.2-2.6-2.1-4.2-2.6s-3.1-1.2-4.5-2.2a2.98 2.98 0 0 1-1.2-2.4c0-.9.3-1.8.9-2.4s1.4-1 2.2-.9c2.6 0 4.5 1.9 5.7 5.7l1.1-.3-.2-5.9zm-63.4-.6c-.9-.5-2-.7-3-.7-1.3.1-2.5.6-3.5 1.4a8.73 8.73 0 0 0-2.9 3.9l.1-5.3-10 2v.9l1 .1c1.3.1 2 1.1 2.1 2.9.4 4.3.4 8.7 0 13-.1 1.8-.9 2.7-2.1 2.9l-1 .1v1.3h14v-1.2l-1.8-.1c-1.3-.1-2-1.1-2.1-2.9-.4-4-.5-8.1-.1-12.1.6-.8 1.6-1.2 2.6-1.2 1.6-.1 3.1.3 4.4 1.2l2.3-6.2zm-158.1 24.7h-10.1c-4.4 0-8.7-1.8-11.7-5-3.1-3.2-4.9-7.6-4.9-12.1s1.7-8.9 4.9-12.1c3.1-3.2 7.3-5 11.7-5h5.5v4.1h-5.5c-7.1.1-12.7 5.9-12.6 13-.1 7.1 5.6 12.9 12.6 13h10.1c1.4 0 2.5-1.2 2.5-2.6v-20.9c0-.3.1-.5.3-.7s.4-.3.7-.3.6.2.8.5l12.6 22.7c.3.6.9 1 1.5 1.2.2.1.4.1.7.1.4 0 .9-.1 1.2-.3.8-.5 1.3-1.3 1.3-2.2v-20.9c0-.3.1-.5.3-.7s.4-.3.7-.3.6.2.8.5l12.6 22.7c.3.6.9 1 1.5 1.2s1.3.1 1.9-.3c.8-.5 1.3-1.3 1.3-2.2v-27.5h4v27.5c0 3.6-2.8 6.6-6.5 6.6a6.48 6.48 0 0 1-5.6-3.3l-6.9-12.5v9.2c0 3.6-2.8 6.6-6.5 6.6a6.48 6.48 0 0 1-5.6-3.3l-6.9-12.5v9.2c-.2 3.5-3.1 6.5-6.7 6.6zm0-5.7h-10.1c-6.2-.1-11.1-5.2-11.1-11.4-.1-6.2 4.9-11.3 11.1-11.4h5.5v4.1h-5.5c-4 .1-7.2 3.3-7.1 7.3a7.11 7.11 0 0 0 7.1 7.3h6.2c.5 0 .9-.4.9-1v-16.8c0-3.6 2.8-6.6 6.5-6.6h0a6.48 6.48 0 0 1 5.6 3.3l6.9 12.5v-9.2c0-3.6 2.8-6.6 6.5-6.6h0a6.48 6.48 0 0 1 5.6 3.3l6.9 12.5v-15.8h3.9v27.5c0 .3-.2.6-.5.8-.2.1-.5.2-.7.1s-.4-.2-.6-.4l-12.6-22.7c-.4-.8-1.3-1.3-2.2-1.3-.7 0-1.3.3-1.8.8s-.7 1.1-.7 1.8v20.9c0 .3-.2.6-.5.8-.1.1-.3.1-.5.1-.3 0-.6-.2-.8-.5l-12.6-22.7c-.4-.8-1.3-1.3-2.2-1.3-.7 0-1.3.3-1.8.8s-.7 1.1-.7 1.8v20.9c.3.6-.2 1.1-.7 1.1zm-197.4-24l-4.9 13-4.9-13h-8.4v23.3h6v-15.3l6 15.3h2.7l5.8-15.3v15.5h6v-23.5h-8.3zm20.7 19.1v-1.5c-.5-.9-1.9-1.2-3.1-1.2-1.4 0-2.7.7-2.7 2 0 1.4 1.4 2 2.7 2 1.1-.1 2.2-.6 3.1-1.3zm0 4.3v-1.7c-1.4 1.4-3.3 2.1-5.3 2-3.1.1-5.7-2.4-5.8-5.6v-.1c0-4.1 3.2-5.5 5.8-5.5 2.2 0 4.3.7 5.3 2v-1.7c0-1.5-1.2-2.6-3.4-2.6-1.8 0-3.5.7-4.8 1.9l-2-3.7c2.2-1.7 4.9-2.6 7.7-2.6 4.1 0 7.8 1.5 7.8 6.8v10.6h-5.3v.2zm6.1-2.3l2.2-3.9c1.7 1.4 3.8 2.2 6 2.2 1.5 0 2.2-.5 2.2-1.2 0-2-9.9 0-9.9-6.8 0-3.1 2.6-5.6 7.3-5.6 2.6-.1 5.1.7 7.2 2.2l-2.1 3.7c-1.5-.9-3.3-1.5-5.1-1.5-1.2 0-2 .5-2 1.2 0 1.9 9.9 0 9.9 6.8 0 3.2-2.9 5.6-7.7 5.6-3.2.1-6.3-1-8-2.7m28.1 2.3v-9.9c0-2-1-2.7-2.7-2.7-1.3 0-2.5.7-3.2 1.7v10.9h-5.5v-23.3h5.5v8.5c1.5-1.6 3.6-2.6 5.8-2.6 3.7 0 5.5 2.2 5.5 5.3v12.1h-5.4zm17.6-4.3v-1.5c-.5-.9-1.9-1.2-3.1-1.2-1.4 0-2.7.7-2.7 2 0 1.4 1.4 2 2.7 2 1.1 0 2.2-.5 3.1-1.3zm0 4.3v-1.7c-1.4 1.4-3.3 2.1-5.3 2-3.1.1-5.7-2.4-5.8-5.6v-.1c0-4.1 3.2-5.5 5.8-5.5 2.2 0 4.3.7 5.3 2v-1.7c0-1.5-1.2-2.6-3.4-2.6-1.8 0-3.5.7-4.8 1.9l-2-3.7c2.2-1.7 4.9-2.6 7.7-2.6 4.1 0 7.8 1.5 7.8 6.8v10.6h-5.3v.2zm15.6-4.3c2.2 0 3.7-1.5 3.7-4.1s-1.5-4.1-3.7-4.1c-1.2 0-2.4.6-3.2 1.5v5.1c.8 1 2 1.5 3.2 1.6zm-8.5 4.3v-23.3h5.5v8.5c1.2-1.5 3-2.4 4.9-2.4 4.3 0 7.5 3.4 7.5 8.9 0 5.8-3.2 8.9-7.5 8.9-1.9 0-3.7-.9-4.9-2.4v2c0-.1-5.5-.2-5.5-.2zm18.9-23.4h5.5v23.3h-5.5v-23.3zm15.5 10.4c-2.4 0-3.2 1.4-3.4 2.6h7c-.2-1.2-1-2.6-3.6-2.6m-9 4.4c-.1-4.8 3.8-8.8 8.6-8.9h.4c4.9 0 8.7 3.7 8.7 9.4v1.2h-12.1c.3 1.5 1.9 2.7 4.3 2.7 1.5 0 2.9-.5 4.1-1.4l2.4 3.6c-1.7 1.5-4.4 2.2-7.2 2.2-5.1.3-9.2-3.1-9.2-8.8m-197.8 20.8c-14.7 0-26.6-11.9-26.6-26.6 0-10.7 6.4-20.3 16.2-24.5 13.5-5.7 29.2.6 34.9 14.2 5.7 13.5-.6 29.2-14.2 34.9-3.2 1.3-6.7 2-10.3 2zm-10-41.1v29.8h1.9v-29.8h-1.9zm19 7.2c-2.2 0-4 1.4-4 3.1v10c0 1.7 1.8 3.1 4 3.1s4-1.4 4-3.1v-2.1h-3v2.1c-.1.5-.5.8-1 .8s-.9-.3-1-.8v-4.1h5v-5.9c0-1.7-1.8-3.1-4-3.1zm-25 0c-2.2 0-4 1.4-4 3.1v10c0 1.7 1.8 3.1 4 3.1s4-1.4 4-3.1v-2.6h-3v2.6c-.1.5-.5.8-1 .8s-.9-.3-1-.8v-10c.1-.5.5-.8 1-.8.6 0 1 .3 1 .8v2.8h3v-2.8c0-1.7-1.8-3.1-4-3.1zm15 2.5c.5 0 .9.3 1 .8v12.8h4v-2.8h-1v-10c0-1.7-1.8-3.1-4-3.1l-1.2 1c-.5-.6-1.2-1-2-1h-2.1v3h1.3v10.1h-1.4v2.8h4.4v-12.8c.1-.5.5-.9 1-.8h0zm16.3-5.6v16c0 1.7 1.8 3.1 4 3.1h1v-2.3h-1c-.5.1-.9-.3-1-.8v-10.5h2v-2.3h-2v-3.2h-3 0zm-5.3 9.8h-2v-3.6c.1-.5.5-.8 1-.8.6 0 1 .3 1 .8v3.6h0zm-218.9-1.6h-3.6v-5.4h-5.9v5.4h-3v3.8h3v8c0 4.9 1.3 6.3 6.3 6.3 1.1 0 2.1-.2 3.2-.2v-4.3c-.5 0-1 .1-1.5.1-1.3 0-2.1-.3-2.1-1.7v-8.2h3.6v-3.8h0zm5 7.1c.4-2.2 1.7-3.6 3.8-3.6 1.9.1 3.5 1.7 3.5 3.6h-7.3zm13.1 3.3c.3-6-3-10.8-9.4-10.8-5.2-.2-9.5 3.9-9.7 9.1v.3c0 6 4 9.4 9.8 9.4 4 0 7.8-1.8 8.9-5.9h-5.5c-.6 1.3-1.9 2-3.3 2-2.5 0-3.9-1.6-4-4.1h13.2zm18.5-3.9c-.4-4.7-4.4-7.1-8.8-7.1-5.7 0-9.4 4.1-9.4 9.8 0 5.5 4 9.2 9.4 9.2 4.8 0 8.5-2.8 9-7.6h-5.7c-.3 1.9-1.3 3.1-3.3 3.1-2.5 0-3.5-2.4-3.5-4.7 0-2.5.5-5.3 3.8-5.3 1.5-.1 2.8 1.1 2.9 2.6h5.6zm.4 11.4h5.9v-9.8c0-2 1-3.8 3.2-3.8 3.2 0 3 2.5 3 4.9v8.7h5.9v-11.5c0-2.6-.5-6.9-6.5-6.9-2.1 0-4.6 1.1-5.5 3h-.1v-9.2h-5.9v24.6zm18.2 0h5.9v-8.9c-.1-2.3 1.7-4.2 4-4.3h.4c.8 0 1.5.1 2.2.4v-5.4c-.5-.1-.9-.2-1.4-.2-2.4-.1-4.6 1.3-5.4 3.5h-.1v-3.1h-5.7l.1 18h0zm17.6-5.1c0-1.4 1.1-2 2.4-2.3 1.3-.4 2.8-.4 3.6-1 .2 3.7-.8 5.3-3.6 5.3-1.2 0-2.4-.6-2.4-2zm.4-7.3c.3-1.5 1.3-2.2 3-2.2 1.2 0 2.8.5 2.8 1.9 0 1.1-.6 1.5-1.5 1.7-4.1.8-10.4.4-10.4 6.2 0 3.7 2.7 5.4 6.1 5.4 2.2.1 4.3-.7 5.9-2.2.1.6.2 1.1.4 1.7h5.9c-.6-1.4-.8-3-.7-4.6v-7.9c0-5.1-4.1-6-8.3-6-2-.1-3.9.4-5.7 1.3-1.7 1-2.8 2.8-2.8 4.8l5.3-.1zm20.9-1.5c2.6 0 3.5 2.4 3.5 5 0 2.3-.6 5-3.5 5-2.7 0-3.6-2.7-3.6-5.2.1-2.3 1-4.8 3.6-4.8zm9.2-10.8h-5.9v8.7h-.1a5.99 5.99 0 0 0-5.1-2.4c-5.1 0-7.6 4.4-7.6 9.1 0 5 2.4 9.9 8 9.9 2 0 3.8-.9 4.9-2.6h.1v2.1h5.6l.1-24.8h0zm6 19.6c0-1.4 1.1-2 2.4-2.3 1.3-.4 2.8-.4 3.6-1 .2 3.7-.8 5.3-3.6 5.3-1.3 0-2.4-.6-2.4-2zm.3-7.3c.3-1.5 1.3-2.2 3-2.2 1.2 0 2.8.5 2.8 1.9 0 1.1-.6 1.5-1.5 1.7-4.1.8-10.4.4-10.4 6.2 0 3.7 2.7 5.4 6.1 5.4 2.2.1 4.3-.7 5.9-2.2.1.6.2 1.1.4 1.7h5.9c-.6-1.5-.8-3-.7-4.6v-7.8c0-5.1-4.1-6-8.3-6-2-.1-3.9.4-5.7 1.3-1.7 1-2.8 2.8-2.8 4.8l5.3-.2zm12.2 12.4h5.9v-8.9c-.1-2.3 1.7-4.2 4-4.3h.4c.8 0 1.5.1 2.2.4v-5.4c-.5-.1-.9-.2-1.4-.2-2.4-.1-4.6 1.3-5.4 3.5h-.1v-3.1h-5.7l.1 18h0zm6.8 0h5.7v-5.7h-5.7v5.7z" fill="#6c6e9b"/></svg>