<?xml version="1.0" encoding="utf-8"?>
<!-- Generator: Adobe Illustrator 26.0.1, SVG Export Plug-In . SVG Version: 6.00 Build 0)  -->
<svg version="1.1" id="Layer_1" xmlns="http://www.w3.org/2000/svg" xmlns:xlink="http://www.w3.org/1999/xlink" x="0px" y="0px"
	 viewBox="0 0 103.2 65.7" style="enable-background:new 0 0 103.2 65.7;" xml:space="preserve">
<style type="text/css">
	.st0{display:none;opacity:0.54;fill:#FFFFFF;enable-background:new    ;}
	.st1{opacity:7.000000e-02;}
	.st2{fill:#1047C4;}
	.st3{fill:#A6EAFF;}
	.st4{fill:#38B7FC;}
	.st5{fill:#1A9EFE;}
	.st6{fill:#92E8FC;}
	.st7{fill:#D4EDFF;}
	.st8{fill:#49B8F6;}
	.st9{opacity:0.1;fill:#FFFFFF;enable-background:new    ;}
	.st10{fill:#FFFFFF;}
	.st11{fill:#FFAA01;}
	.st12{display:none;fill:#FFFFFF;}
	.st13{fill:#FF8800;}
	.st14{fill:#FFB001;}
	.st15{fill:#FE9B00;}
	.st16{fill:#FE6D00;}
	.st17{fill:#FF5A01;}
	.st18{fill:#FEC600;}
	.st19{opacity:0.2;enable-background:new    ;}
	.st20{fill:#303030;}
	.st21{opacity:0.25;fill:#FEC600;enable-background:new    ;}
	.st22{fill:#F88800;}
	.st23{fill:#2E3062;}
	.st24{opacity:0.4;fill:#FFFFFF;enable-background:new    ;}
	.st25{opacity:0.51;fill:#E8E8F9;enable-background:new    ;}
</style>
<rect x="-11.1" y="-29.8" class="st0" width="125.1" height="127.9"/>
<g>
	<g class="st1">
		<path class="st2" d="M41.6,62.9C32.8,47.1,25.9,59.8,15.3,48C1.5,32.5,13.8,24.6,28.1,22.8C39.7,21.4,50,4.7,63.3,5
			C81,5.4,72.5,22.1,85.4,27.9c11.1,5,10.4,26.3-1.5,33.7L41.6,62.9z"/>
		<ellipse class="st2" cx="51.6" cy="61.1" rx="51.6" ry="3.4"/>
	</g>
	<g>
		<path class="st3" d="M85.1,13.7v42.7c0,0.1,0,0.3,0,0.4L85,57.2c-0.3,0.6-1,1.1-1.7,1.1H16.9c-0.7,0-1.4-0.4-1.7-1.1
			c0-0.1-0.1-0.3-0.1-0.4s0-0.3,0-0.4V13.7c0-0.6,0.3-1.2,0.7-1.5c0.3-0.2,0.7-0.4,1.2-0.4h66.3c0.4,0,0.9,0.1,1.2,0.4
			C84.8,12.6,85.1,13.1,85.1,13.7z"/>
		
			<image style="overflow:visible;enable-background:new    ;" width="710" height="33" xlink:href="49D72A90.png"  transform="matrix(5.732430e-02 0 0 5.732430e-02 29.6981 57.266)">
		</image>
		<path class="st4" d="M90.8,59.1c-1.5,0.7-3.1,1.2-4.8,1.2H14.1c-1.7,0-3.3-0.4-4.8-1.2H90.8z"/>
		<path class="st5" d="M82.2,14.1H17.8c-0.5,0-0.9,0.4-0.9,0.9v39.5c0,0.5,0.4,0.9,0.9,0.9h64.4c0.5,0,0.9-0.4,0.9-0.9V15.1
			C83.2,14.6,82.8,14.1,82.2,14.1z"/>
		<path class="st6" d="M9.3,57.3h81.5v1.8H9.3V57.3z"/>
		<path class="st4" d="M69.9,58.3H30.2c-1.8,0-3.2-0.5-3.2-1.1h46C73.2,57.9,71.7,58.3,69.9,58.3z"/>
		<path class="st7" d="M50.6,13.2h-2.3c0,0-0.1,0-0.1-0.1c0,0,0-0.1,0.1-0.1h2.3C50.7,13,50.7,13,50.6,13.2
			C50.7,13.1,50.7,13.2,50.6,13.2z"/>
	</g>
	<path class="st8" d="M8.4,40H7.6v-0.8c0-0.3-0.2-0.5-0.5-0.5l0,0c-0.3,0-0.5,0.2-0.5,0.5V40H5.8c-0.3,0-0.5,0.2-0.5,0.5l0,0
		c0,0.3,0.2,0.5,0.5,0.5h0.8v0.8c0,0.3,0.2,0.5,0.5,0.5l0,0c0.3,0,0.5-0.2,0.5-0.5V41h0.8c0.3,0,0.5-0.2,0.5-0.5l0,0
		C8.9,40.2,8.7,40,8.4,40z"/>
	<path class="st8" d="M90.7,15.3h-0.4v-0.4c0-0.1-0.1-0.2-0.2-0.2l0,0c-0.1,0-0.2,0.1-0.2,0.2v0.4h-0.4c-0.1,0-0.2,0.1-0.2,0.2l0,0
		c0,0.1,0.1,0.2,0.2,0.2h0.4v0.4c0,0.1,0.1,0.2,0.2,0.2l0,0c0.1,0,0.2-0.1,0.2-0.2v-0.4h0.4c0.1,0,0.2-0.1,0.2-0.2l0,0
		C91,15.4,90.9,15.3,90.7,15.3z"/>
	<path class="st9" d="M16.9,14.1v36.1l18.7-36.1H16.9z M40,14.1L18.6,55.5h13.3l21.4-41.3H40V14.1z"/>
	<g>
		<g>
			<path class="st10" d="M71.7,45.9L71.7,45.9c0,1.2-1,2.2-2.2,2.2H32.2c-1.2,0-2.2-1-2.2-2.2l0,0c0-1.2,1-2.2,2.2-2.2h37.3
				C70.7,43.7,71.7,44.7,71.7,45.9z"/>
			<path class="st11" d="M69.5,43.7h-5.9v4.4h5.9c1.2,0,2.2-1,2.2-2.3l0,0C71.7,44.7,70.7,43.7,69.5,43.7z"/>
			<g>
				<g>
					<path class="st10" d="M68,46.3c-0.4-0.4-0.4-1-0.1-1.4c0.4-0.4,1-0.4,1.4-0.1c0.4,0.4,0.4,1,0.1,1.4
						C69.1,46.7,68.4,46.7,68,46.3z M69.2,45.1c-0.3-0.3-0.7-0.2-1,0c-0.3,0.3-0.2,0.7,0,1c0.3,0.3,0.7,0.2,1,0
						C69.5,45.8,69.4,45.3,69.2,45.1z"/>
				</g>
				<g>
					<path class="st10" d="M66.9,47.5c-0.1-0.1-0.1-0.2,0-0.2l1.1-1.2c0.1-0.1,0.2-0.1,0.2,0c0.1,0.1,0.1,0.2,0,0.2l-1.1,1.2
						C67.1,47.6,67,47.6,66.9,47.5z"/>
				</g>
			</g>
		</g>
	</g>
	<g>
		<path class="st10" d="M95.7,38.1c0.8,0,1.5,0.7,1.5,1.5s-0.7,1.5-1.5,1.5s-1.5-0.7-1.5-1.5S94.9,38.1,95.7,38.1z M95.7,40.6
			c0.6,0,1-0.4,1-1s-0.4-1-1-1s-1,0.4-1,1C94.7,40.1,95.1,40.6,95.7,40.6z"/>
	</g>
	<g>
		<g>
			<g>
				<g>
					<path class="st10" d="M27,52.3c0.1,0,0.2,0.1,0.2,0.2v1c0,0.1-0.1,0.2-0.2,0.2s-0.2-0.1-0.2-0.2v-1
						C26.8,52.4,26.9,52.3,27,52.3z"/>
				</g>
			</g>
			<g>
				<g>
					<path class="st10" d="M27,50.6c0.1,0,0.2,0.1,0.2,0.2v1c0,0.1-0.1,0.2-0.2,0.2s-0.2-0.1-0.2-0.2v-1
						C26.8,50.7,26.9,50.6,27,50.6z"/>
				</g>
			</g>
		</g>
		<g>
			<g>
				<g>
					<path class="st10" d="M25.6,51.9h0.9c0.1,0,0.2,0.1,0.2,0.2s-0.1,0.2-0.2,0.2h-0.9c-0.1,0-0.2-0.1-0.2-0.2
						C25.3,52.1,25.5,51.9,25.6,51.9z"/>
				</g>
			</g>
			<g>
				<g>
					<path class="st10" d="M27.5,51.9h0.9c0.1,0,0.2,0.1,0.2,0.2s-0.1,0.2-0.2,0.2h-0.9c-0.1,0-0.2-0.1-0.2-0.2
						C27.3,52.1,27.4,51.9,27.5,51.9z"/>
				</g>
			</g>
		</g>
	</g>
	<g>
		<g>
			<g>
				<path class="st8" d="M10.2,8.6c0.1,0,0.2,0.1,0.2,0.2v1c0,0.1-0.1,0.2-0.2,0.2C10.1,10,10,9.9,10,9.8v-1
					C10,8.7,10.1,8.6,10.2,8.6z"/>
			</g>
			<g>
				<path class="st8" d="M10.2,6.8c0.1,0,0.2,0.1,0.2,0.2v1c0,0.1-0.1,0.2-0.2,0.2C10.1,8.2,10,8.1,10,8V7C10,6.9,10.1,6.8,10.2,6.8
					z"/>
			</g>
		</g>
		<g>
			<g>
				<path class="st8" d="M8.8,8.2h0.9c0.1,0,0.2,0.1,0.2,0.2S9.8,8.6,9.7,8.6H8.8c-0.1,0-0.2-0.1-0.2-0.2C8.5,8.3,8.6,8.2,8.8,8.2z"
					/>
			</g>
			<g>
				<path class="st8" d="M10.7,8.2h0.9c0.1,0,0.2,0.1,0.2,0.2s-0.1,0.2-0.2,0.2h-0.9c-0.1,0-0.2-0.1-0.2-0.2
					C10.5,8.3,10.6,8.2,10.7,8.2z"/>
			</g>
		</g>
	</g>
	<g>
		<g>
			<path class="st12" d="M65,30.8c-1.5-2.7-3.7-4.9-6.4-6.4c-2.6-1.5-5.6-2.3-8.7-2.3c-3.2,0-6.2,0.9-8.7,2.3
				c-2.7,1.5-4.9,3.7-6.4,6.4c-1.5,2.6-2.3,5.6-2.3,8.7h6.2c0-2.1,0.6-4,1.5-5.6c1-1.7,2.4-3.1,4.1-4.1c1.7-1,3.6-1.5,5.6-1.5
				c2.1,0,4,0.6,5.6,1.5c1.7,1,3.1,2.4,4.1,4.1c1,1.7,1.5,3.6,1.5,5.6h6.2C67.3,36.4,66.5,33.4,65,30.8z"/>
			<g>
				<path class="st13" d="M58.6,24.5l-2.4,4.2l-0.7,1.2c-0.1,0-0.1-0.1-0.2-0.1c-0.2-0.1-0.4-0.2-0.6-0.3c-0.2-0.1-0.3-0.2-0.5-0.2
					c-0.2-0.1-0.4-0.2-0.7-0.3c-0.2-0.1-0.5-0.2-0.7-0.2c-0.2-0.1-0.5-0.1-0.7-0.2c-0.1,0-0.2-0.1-0.3-0.1c-0.2,0-0.4-0.1-0.5-0.1
					c-0.2,0-0.5-0.1-0.8-0.1c-0.2,0-0.4,0-0.7,0v-6.2C52.9,22.1,56,23,58.6,24.5z"/>
				<path class="st14" d="M44.2,29.8c-1.6,1-3,2.4-4,4c0,0.1-0.1,0.1-0.1,0.2l0,0l-1.2-0.7l-4.2-2.4c1.5-2.7,3.7-5,6.4-6.5l2.5,4.3
					L44.2,29.8z"/>
				<path class="st15" d="M49.8,22.1v6.2h-0.1c-0.1,0-0.1,0-0.2,0c-1.9,0.1-3.8,0.6-5.3,1.5l-0.7-1.1L41,24.4
					C43.6,23,46.6,22.1,49.8,22.1z"/>
				<path class="st16" d="M65,30.9l-4.3,2.5L59.6,34c-1-1.8-2.4-3.2-4.1-4.1l0.7-1.2l2.4-4.2C61.3,26,63.5,28.2,65,30.9z"/>
				<path class="st17" d="M61.1,39.6L61.1,39.6c0-2.2-0.6-4-1.5-5.6l1.1-0.6l4.3-2.5c0.7,1.2,1.3,2.6,1.7,4.1c0.4,1.5,0.6,3,0.6,4.6
					H61.1z"/>
				<path class="st18" d="M40.1,34c-0.8,1.5-1.4,3.2-1.5,5.2c0,0.1,0,0.3,0,0.4h-6.2c0-3.1,0.8-6.1,2.3-8.7l4.2,2.4L40.1,34z"/>
			</g>
		</g>
		<g>
			<path class="st19" d="M62.2,39.6h-1.1c0-2.1-0.6-4-1.5-5.6c-1-1.8-2.4-3.2-4.1-4.1c-0.1,0-0.1-0.1-0.2-0.1
				c-0.2-0.1-0.4-0.2-0.6-0.3c-0.2-0.1-0.3-0.2-0.5-0.2c-0.2-0.1-0.4-0.2-0.7-0.3c-0.2-0.1-0.5-0.2-0.7-0.2
				c-0.2-0.1-0.5-0.1-0.7-0.2c-0.1,0-0.2-0.1-0.3-0.1c-0.2,0-0.4-0.1-0.5-0.1c-0.2,0-0.5-0.1-0.8-0.1c-0.2,0-0.4,0-0.7,0h-0.1
				c-0.1,0-0.1,0-0.2,0c-1.9,0.1-3.8,0.6-5.3,1.5c-1.6,1-3,2.4-4,4c0,0.1-0.1,0.1-0.1,0.2l0,0c-0.8,1.5-1.4,3.2-1.5,5.2
				c0,0.1,0,0.3,0,0.4h-1.4c0-2.2,0.6-4.5,1.7-6.3l0,0c1.1-1.9,2.7-3.5,4.6-4.6l0,0c1.9-1.1,4-1.7,6.2-1.7c2.3,0,4.4,0.6,6.3,1.7
				h0.1c1.9,1.1,3.4,2.7,4.5,4.6l0,0C61.8,35.2,62.4,37.4,62.2,39.6z"/>
			<polygon class="st20" points="49.6,38.6 50.1,40.5 63.5,35.9 			"/>
			<g>
				<circle class="st20" cx="49.8" cy="39.6" r="2.1"/>
				<circle class="st10" cx="49.8" cy="39.6" r="1.5"/>
				<circle class="st20" cx="49.8" cy="39.6" r="1.1"/>
			</g>
		</g>
		<path class="st21" d="M34.7,31.5c1.5-2.7,3.7-4.9,6.4-6.4c2.6-1.5,5.6-2.3,8.7-2.3c3.2,0,6.2,0.9,8.7,2.3c2.7,1.5,4.9,3.7,6.4,6.4
			c1.4,2.4,2.2,5.1,2.3,8l0,0c0-3.2-0.9-6.2-2.3-8.7c-1.5-2.7-3.7-4.9-6.4-6.4c-2.6-1.5-5.6-2.3-8.7-2.3c-3.2,0-6.2,0.9-8.7,2.3
			c-2.7,1.5-4.9,3.7-6.4,6.4c-1.5,2.6-2.3,5.6-2.3,8.7l0,0C32.5,36.7,33.3,33.9,34.7,31.5z"/>
	</g>
	<g>
		<path class="st11" d="M89.1,50.1l-1.4,1.2c-0.2,0.1-0.4,0.1-0.6-0.1l-2.9-3.5L83,46.2l2-1.7l0.7,0.9l3.4,4.1
			C89.3,49.7,89.3,49.9,89.1,50.1z"/>
		<path class="st22" d="M85.7,45.3c-0.3,0.7-0.7,1.6-1.5,2.3L83,46.2l2-1.7L85.7,45.3z"/>
		<path class="st23" d="M93.6,56.9L93.6,56.9c-0.4,0.3-0.9,0.2-1.2-0.1l-4.7-5.7l1.3-1l4.7,5.7C94,56.1,93.9,56.7,93.6,56.9z"/>
		<g>
			<path class="st23" d="M85.5,35.4c2.6,3.2,2.2,7.8-1,10.5c-3.2,2.6-7.8,2.2-10.5-1c-2.6-3.2-2.2-7.8,1-10.5
				C78.1,31.8,82.8,32.2,85.5,35.4z M84.6,36.1c-2.2-2.7-6.2-3-8.9-0.8c-2.7,2.2-3,6.2-0.8,8.9s6.2,3,8.9,0.8
				C86.4,42.8,86.8,38.8,84.6,36.1z"/>
			<path class="st24" d="M85.8,38.3c1,3.3-0.9,6.8-4.2,7.9c-0.3,0.1-0.6,0.2-0.9,0.2c-0.7,0.1-1.5,0.1-2.2,0s-1.4-0.4-2.1-0.8
				c-1-0.6-1.8-1.5-2.4-2.6c-0.1-0.3-0.3-0.6-0.4-0.9c-1-3.3,0.9-6.8,4.2-7.9c0.3-0.1,0.6-0.2,1-0.2c1.2-0.2,2.4,0,3.5,0.5
				c0.7,0.3,1.3,0.7,1.8,1.3c0.5,0.5,0.9,1.1,1.3,1.8C85.6,37.7,85.7,38,85.8,38.3z"/>
		</g>
	</g>
	<g>
		<g>
			<path class="st11" d="M27.6,7.3L27.6,7.3c-1.8-0.5-2.8-2.2-2.3-3.9V3.3c0.5-1.7,2.2-2.7,3.9-2.2h0.1C31,1.6,32,3.3,31.5,5v0.1
				C31,6.8,29.3,7.8,27.6,7.3z"/>
		</g>
		<g>
			<g>
				<path class="st10" d="M27.9,4.4c-0.4-0.7-0.2-1.5,0.5-1.9s1.5-0.2,1.9,0.5s0.2,1.5-0.5,1.9C29.2,5.3,28.4,5.1,27.9,4.4z
					 M29.9,3.2c-0.3-0.4-0.8-0.6-1.3-0.3c-0.4,0.3-0.6,0.8-0.3,1.3c0.3,0.4,0.8,0.6,1.3,0.3C30.1,4.2,30.2,3.6,29.9,3.2z"/>
			</g>
			<g>
				<path class="st10" d="M26,5.6c-0.1-0.1,0-0.2,0.1-0.3L28,4.1c0.1-0.1,0.2,0,0.3,0.1c0.1,0.1,0,0.2-0.1,0.3l-1.9,1.2
					C26.2,5.7,26.1,5.7,26,5.6z"/>
			</g>
		</g>
	</g>
	<circle class="st25" cx="74.6" cy="16.3" r="0.9"/>
	<circle class="st25" cx="77.4" cy="16.3" r="0.9"/>
	<circle class="st25" cx="80.1" cy="16.3" r="0.9"/>
</g>
</svg>
