<?xml version="1.0" encoding="utf-8"?>
<!-- Generator: Adobe Illustrator 26.0.1, SVG Export Plug-In . SVG Version: 6.00 Build 0)  -->
<svg version="1.1" id="Layer_1" xmlns="http://www.w3.org/2000/svg" xmlns:xlink="http://www.w3.org/1999/xlink" x="0px" y="0px"
	 viewBox="0 0 103.2 87" style="enable-background:new 0 0 103.2 87;" xml:space="preserve">
<style type="text/css">
	.st0{display:none;opacity:0.54;fill:#FFFFFF;enable-background:new    ;}
	.st1{opacity:5.000000e-02;}
	.st2{fill:#1047C4;}
	.st3{fill:#75B8FF;}
	.st4{opacity:0.67;fill:url(#XMLID_00000012446322736155007390000002557248217697920942_);enable-background:new    ;}
	.st5{fill:#A6EAFF;}
	.st6{fill:#1A9EFE;}
	.st7{opacity:0.1;fill:#FFFFFF;enable-background:new    ;}
	.st8{fill:#C0E9FC;}
	.st9{opacity:0.1;enable-background:new    ;}
	.st10{fill:#FFFFFF;}
	.st11{fill:#49B8F6;}
	.st12{fill:#E8E8F9;}
	.st13{opacity:0.51;fill:#E8E8F9;enable-background:new    ;}
	.st14{fill:#E74040;}
	.st15{fill-rule:evenodd;clip-rule:evenodd;fill:#FFFFFF;}
	.st16{fill:#FFAA01;}
	.st17{fill:#39BDFC;}
</style>
<rect x="-11.1" y="-18.9" class="st0" width="125.1" height="127.9"/>
<g>
	<g id="Background_00000081641919421525421270000016314515433477042580_" class="st1">
		<path id="Background_00000131328102483674615410000003716595495609464709_" class="st2" d="M84.5,21.1C95.9,26.9,99.1,38,88.2,53
			c-7,9.7-2.3,28.1-17.5,28.9C46,83.1,49,65.5,30.2,59.2s-14.3-40.8,6.4-41.7c7.6-0.3,8.6,2.1,15.1,2.5C68.2,21.2,72.5,15,84.5,21.1
			z"/>
		<path id="Background_00000063598402844745660730000016672786947373009572_" class="st2" d="M78.7,65.7c0,0,4.9,1.8,7.4,4.8
			s8.4,8.2-10.8,12.1c-17.7,3.6-52.3,5.2-44.9-2.5c7.3-7.6-28.9-1.7-28.9-9.8C1.4,58.4,78.7,65.7,78.7,65.7z"/>
		<path id="Background_00000002343398988450280510000014719316158359246767_" class="st2" d="M49.9,83.4c0,0-4.5-0.9-7-3.2
			c-2.5-2.3-8.3-6,7.8-11.9c14.9-5.4,44.7-11.2,39.3-3.6s12.2,0.3,13.2,7.3C104.7,82.4,49.9,83.4,49.9,83.4z"/>
	</g>
	<polygon id="XMLID_00000174600830845515246190000004375371033173893278_" class="st3" points="57.5,77.2 41.5,77.2 42.8,64.3 
		56.2,64.3 	"/>
	
		<linearGradient id="XMLID_00000086658512716363313220000001411463339010628287_" gradientUnits="userSpaceOnUse" x1="49.5" y1="15.9948" x2="49.5" y2="19.537" gradientTransform="matrix(1 0 0 -1 0 88.7643)">
		<stop  offset="0" style="stop-color:#4498FA;stop-opacity:0"/>
		<stop  offset="1" style="stop-color:#4498FA"/>
	</linearGradient>
	
		<polygon id="XMLID_00000134226663093376089480000012646542583848935084_" style="opacity:0.67;fill:url(#XMLID_00000086658512716363313220000001411463339010628287_);enable-background:new    ;" points="
		41.9,72.8 57.1,72.8 56.8,69.2 42.3,69.2 	"/>
	<path id="XMLID_00000177481187717145704730000017086470463781918348_" class="st3" d="M63.8,77.8C63.8,77.8,63.9,77.8,63.8,77.8
		c0-1.2-0.9-2.1-2.1-2.1h-24c-1.1,0-2.1,0.9-2.1,2.1c0,0,0,0,0,0.1L63.8,77.8L63.8,77.8z"/>
	<path class="st5" d="M82.7,26.2v41.2c0,0.1,0,0.3,0,0.4l-0.1,0.4l0,0c-0.3,0.5-0.8,0.9-1.4,1c-0.1,0-0.2,0-0.3,0h-64
		c-0.7,0-1.4-0.4-1.7-1c0-0.1-0.1-0.3-0.1-0.4C15,67.7,15,67.5,15,67.4V26.2c0-0.6,0.3-1.1,0.7-1.5c0.3-0.2,0.7-0.4,1.2-0.4h64
		c0.4,0,0.8,0.1,1.1,0.4C82.5,25,82.7,25.6,82.7,26.2z"/>
	
		<image style="overflow:visible;enable-background:new    ;" width="702" height="35" xlink:href="AC606431.png"  transform="matrix(5.220088e-02 0 0 5.220088e-02 30.5206 67.2319)">
	</image>
	<path class="st6" d="M79.9,26.6H17.7c-0.5,0-0.9,0.4-0.9,0.9v38.1c0,0.5,0.4,0.9,0.9,0.9h62.2c0.5,0,0.9-0.4,0.9-0.9V27.5
		C80.8,27,80.4,26.6,79.9,26.6z"/>
	<path class="st3" d="M82.5,68.2L82.5,68.2c-0.3,0.6-0.8,1-1.4,1.1H30.9c-2.3,0-4.3-0.5-4.3-1.1H82.5z"/>
	<path class="st6" d="M49.4,25.6h-2.2c0,0-0.1,0-0.1-0.1c0,0,0-0.1,0.1-0.1h2.2C49.4,25.4,49.5,25.5,49.4,25.6
		C49.5,25.6,49.4,25.6,49.4,25.6z"/>
	<path class="st7" d="M15,26.6v34.8l18-34.8H15z M37.3,26.6L16.6,66.5h12.8l20.7-39.9C50.1,26.6,37.3,26.6,37.3,26.6z"/>
	<g id="time_line">
		<path class="st8" d="M74.9,61.3h-48c-0.2,0-0.3-0.1-0.3-0.3l0,0c0-0.2,0.1-0.3,0.3-0.3h48c0.2,0,0.3,0.1,0.3,0.3l0,0
			C75.2,61.2,75,61.3,74.9,61.3z"/>
		<circle class="st8" cx="75.3" cy="61.1" r="0.6"/>
		<path class="st8" d="M68.9,62.6v2.1h2.8v-2.1H68.9z M71.3,64.4h-2.1V63h2.1V64.4z"/>
		<path class="st8" d="M73.1,62.6v0.7h0.3v-0.4h0.4v-0.3C73.8,62.6,73.1,62.6,73.1,62.6z M75.1,62.6v0.3h0.4v0.4h0.3v-0.7
			C75.8,62.6,75.1,62.6,75.1,62.6z M73.4,64.4V64h-0.3v0.7h0.7v-0.3H73.4z M75.5,64v0.4h-0.4v0.3h0.7V64C75.8,64,75.5,64,75.5,64z"
			/>
		<path class="st8" d="M67.8,63.9v-0.3h-0.3c0-0.1,0-0.2-0.1-0.2l0.2-0.2L67.4,63l-0.2,0.2c-0.1-0.1-0.2-0.1-0.3-0.1v-0.3h-0.3v0.3
			c-0.1,0-0.1,0-0.2,0.1L66.2,63L66,63l0.2,0.2c-0.1,0.1-0.1,0.2-0.1,0.3h-0.3v0.3h0.3c0,0.1,0.1,0.2,0.1,0.2L66,64.2l0.2,0.2
			l0.2-0.2c0.1,0,0.2,0.1,0.3,0.1v0.3H67v-0.3c0.1,0,0.1-0.1,0.2-0.1l0.2,0.2l0.2-0.2L67.4,64c0-0.1,0.1-0.1,0.1-0.2L67.8,63.9z
			 M67,63.9c-0.1,0.1-0.3,0.1-0.4,0s-0.1-0.3,0-0.4s0.3-0.1,0.4,0S67.1,63.8,67,63.9z"/>
		<g>
			<path class="st8" d="M36.2,62.9l-0.6,0.5H35v0.7h0.6l0.6,0.5C36.2,64.6,36.2,62.9,36.2,62.9z"/>
			<path class="st8" d="M36.2,64.7C36.2,64.7,36.1,64.7,36.2,64.7l-0.6-0.5H35c0,0-0.1,0-0.1-0.1v-0.7c0,0,0-0.1,0.1-0.1h0.5
				l0.6-0.5h0.1c0,0,0.1,0,0.1,0.1L36.2,64.7C36.3,64.6,36.3,64.7,36.2,64.7L36.2,64.7z M35.1,64h0.5c0,0,0,0,0.1,0l0.5,0.4v-1.3
				l-0.5,0.4c0,0,0,0-0.1,0h-0.5V64z"/>
		</g>
		<g>
			<path class="st8" d="M37,64.7C36.9,64.7,36.9,64.7,37,64.7C36.9,64.7,36.9,64.6,37,64.7c0.3-0.6,0.3-1.2-0.1-1.7v-0.1H37
				c0.2,0.3,0.3,0.6,0.3,0.9C37.4,64.1,37.2,64.4,37,64.7L37,64.7z M36.7,64.4L36.7,64.4C36.6,64.4,36.6,64.3,36.7,64.4
				c0.2-0.4,0.2-0.9-0.1-1.2v-0.1h0.1c0.1,0.2,0.2,0.4,0.2,0.7C37,64,37,64.2,36.7,64.4C36.8,64.4,36.8,64.4,36.7,64.4z M36.5,64.2
				L36.5,64.2C36.4,64.2,36.4,64.1,36.5,64.2c0-0.3,0-0.6-0.1-0.8v-0.1h0.1C36.7,63.6,36.7,63.9,36.5,64.2L36.5,64.2z"/>
		</g>
		<polygon class="st8" points="32.2,64.3 32.2,62.8 33.2,63.3 33.2,62.8 33.5,62.8 33.5,64.3 33.2,64.3 33.2,63.8 		"/>
		<polygon class="st8" points="27.6,64.3 27.6,62.8 26.6,63.3 26.6,62.8 26.3,62.8 26.3,64.3 26.6,64.3 26.6,63.8 		"/>
	</g>
	<g id="phone_00000107550743421829308610000012011971445312294539_">
		<path class="st9" d="M30.8,73.3H8.7c-1.7,0-3.1-1.4-3.1-3.1v-0.1C5.6,68.4,7,67,8.7,67h22.1c1.7,0,3.1,1.4,3.1,3.1v0.1
			C33.9,71.9,32.5,73.3,30.8,73.3z"/>
		<path class="st6" d="M7.4,58.8h0.8v12.5H7.4c-0.6,0-1.1-0.5-1.1-1.1v-1.7c0-0.2,0.1-0.3,0.3-0.3H7c0.2,0,0.3-0.1,0.3-0.3v-5.8
			c0-0.2-0.1-0.3-0.3-0.3H6.6c-0.2,0-0.3-0.1-0.3-0.3v-1.7C6.3,59.3,6.8,58.8,7.4,58.8L7.4,58.8z"/>
		<path class="st5" d="M12.3,57.8L12.3,57.8H6.8c-1,0-1.8,0.8-1.8,1.8v10.7c0,1,0.8,1.8,1.8,1.8h2.1c0,0,0,0.1,0.1,0.1h0.9
			c0,0,0.1,0,0.1-0.1h1c0,0,0,0.1,0.1,0.1h2.3c0,0,0.1,0,0.1-0.1H14c0,0,0,0.1,0.1,0.1h2.3c0,0,0.1,0,0.1-0.1h15.4
			c1,0,1.8-0.8,1.8-1.8V59.6c0-1-0.8-1.8-1.8-1.8h-16l0,0c0,0,0-0.1-0.1-0.1h-3.2C12.4,57.7,12.3,57.7,12.3,57.8L12.3,57.8z"/>
		<path class="st6" d="M7.4,59.3h24.1c0.6,0,1.1,0.5,1.1,1v9.5c0,0.5-0.5,1-1.1,1H7.4c-0.6,0-1.1-0.5-1.1-1v-1.5
			c0-0.2,0.1-0.2,0.3-0.2H7c0.2,0,0.3-0.1,0.3-0.2v-5.4c0-0.2-0.1-0.2-0.3-0.2H6.5c-0.2,0-0.3-0.1-0.3-0.2v-1.5
			C6.3,59.7,6.8,59.3,7.4,59.3L7.4,59.3z"/>
		<path class="st6" d="M6.8,63.9V66c0,0,0,0.1-0.1,0.1c0,0-0.1,0-0.1-0.1v-2.1C6.6,63.9,6.7,63.8,6.8,63.9
			C6.8,63.8,6.8,63.9,6.8,63.9z"/>
	</g>
	<g>
		<path class="st10" d="M49.3,36.1c-5.7,0-10.4,4.7-10.4,10.4s4.7,10.4,10.4,10.4s10.4-4.7,10.4-10.4S55.1,36.1,49.3,36.1z"/>
		<path class="st6" d="M54.7,46.3l-7.6-5.2c-0.1-0.1-0.2-0.1-0.4,0c-0.1,0.1-0.2,0.2-0.2,0.3v10.4c0,0.1,0.1,0.2,0.2,0.3
			c0.1,0,0.1,0,0.2,0c0.1,0,0.1,0,0.2-0.1l7.6-5.2c0.1-0.1,0.2-0.2,0.2-0.3S54.8,46.3,54.7,46.3z"/>
	</g>
	<g>
		<path class="st10" d="M19.1,61.2c-2.1,0-3.8,1.7-3.8,3.8c0,2.1,1.7,3.8,3.8,3.8s3.8-1.7,3.8-3.8S21.2,61.2,19.1,61.2z"/>
		<path class="st6" d="M21.1,64.9L18.3,63h-0.1l-0.1,0.1v3.8c0,0,0,0.1,0.1,0.1c0,0,0,0,0.1,0c0,0,0,0,0.1,0l2.8-1.9l0.1-0.1
			C21.1,65,21.1,64.9,21.1,64.9z"/>
	</g>
	<path class="st7" d="M7.3,59.2h6.9L32.6,68v1.7c0,0.5-0.5,1-1.1,1H16.9l-9.7-4.6v-3.7c0-0.2-0.1-0.2-0.3-0.2H6.5
		c-0.2,0-0.3-0.1-0.3-0.2v-1.7C6.2,59.7,6.7,59.2,7.3,59.2z"/>
	<path class="st11" d="M89.4,20.5h-0.8v-0.8c0-0.3-0.2-0.5-0.5-0.5l0,0c-0.3,0-0.5,0.2-0.5,0.5v0.8h-0.8c-0.3,0-0.5,0.2-0.5,0.5l0,0
		c0,0.3,0.2,0.5,0.5,0.5h0.8v0.9c0,0.3,0.2,0.5,0.5,0.5l0,0c0.3,0,0.5-0.2,0.5-0.5v-0.8h0.8c0.3,0,0.5-0.2,0.5-0.5l0,0
		C89.9,20.8,89.7,20.5,89.4,20.5z"/>
	<path class="st12" d="M8.2,53v-1.3H7c-0.1-0.3-0.2-0.6-0.3-0.9L7.6,50l-0.9-0.9l-0.8,0.8c-0.5-0.4-0.9-0.5-1.3-0.6v-1.2H3.3v1.3
		c-0.3,0.1-0.5,0.2-0.8,0.3l-0.8-0.9l-0.9,0.9l0.8,0.8c-0.2,0.3-0.4,0.7-0.5,1.1H0v1.3h1.1c0.1,0.3,0.2,0.7,0.4,0.9l-0.8,0.8
		l0.9,0.9l0.9-0.8c0.3,0.2,0.7,0.3,1.1,0.4v1.2h1.3v-1.4c0.3-0.1,0.5-0.2,0.8-0.4l0.8,0.8l0.9-0.9l-0.8-0.9c0.1-0.2,0.2-0.5,0.3-0.7
		L8.2,53z M4.9,53.1c-0.5,0.5-1.2,0.5-1.7,0s-0.5-1.2,0-1.7s1.2-0.5,1.7,0C5.4,51.8,5.3,52.6,4.9,53.1z"/>
	<g>
		<g>
			<g>
				<g>
					<path class="st10" d="M21.4,29.4c0.1,0,0.2,0.1,0.2,0.2v1c0,0.1-0.1,0.2-0.2,0.2s-0.2-0.1-0.2-0.2v-1
						C21.2,29.5,21.3,29.4,21.4,29.4z"/>
				</g>
			</g>
			<g>
				<g>
					<path class="st10" d="M21.4,27.5c0.1,0,0.2,0.1,0.2,0.2v1c0,0.1-0.1,0.2-0.2,0.2s-0.2-0.1-0.2-0.2v-1
						C21.2,27.6,21.3,27.5,21.4,27.5z"/>
				</g>
			</g>
		</g>
		<g>
			<g>
				<g>
					<path class="st10" d="M20,29h0.9c0.1,0,0.2,0.1,0.2,0.2c0,0.1-0.1,0.2-0.2,0.2H20c-0.1,0-0.2-0.1-0.2-0.2
						C19.7,29.1,19.8,29,20,29z"/>
				</g>
			</g>
			<g>
				<g>
					<path class="st10" d="M22,29h0.9c0.1,0,0.2,0.1,0.2,0.2c0,0.1-0.1,0.2-0.2,0.2H22c-0.1,0-0.2-0.1-0.2-0.2
						C21.7,29.1,21.8,29,22,29z"/>
				</g>
			</g>
		</g>
	</g>
	<circle class="st13" cx="71.6" cy="28.9" r="0.9"/>
	<circle class="st13" cx="74.6" cy="28.9" r="0.9"/>
	<circle class="st13" cx="77.5" cy="28.9" r="0.9"/>
	<rect x="66.9" y="31.5" class="st14" width="11.3" height="3.9"/>
	<g id="live">
		<polygon class="st15" points="72.6,34.1 73,34.1 73,34.5 72,34.5 72,32.3 72.6,32.3 		"/>
		<rect x="73.2" y="32.3" class="st15" width="0.6" height="2.2"/>
		<path class="st15" d="M75,32.3h0.6l-0.3,2.2h-0.9L74,32.3h0.6c0.1,0.6,0.1,1.1,0.2,1.6c0-0.4,0.1-0.8,0.1-1.1L75,32.3z"/>
		<polygon class="st15" points="76.4,34.1 76.8,34.1 76.8,34.6 75.8,34.6 75.8,32.3 76.8,32.3 76.8,32.8 76.4,32.8 76.4,33.2 
			76.8,33.2 76.8,33.6 76.4,33.6 		"/>
		<g id="camera">
			<path class="st10" d="M69.2,34.4h-0.3c-0.4,0-0.8-0.4-0.8-0.8l0,0c0-0.4,0.4-0.8,0.8-0.8h0.3c0.4,0,0.8,0.4,0.8,0.8l0,0
				C70,34,69.7,34.4,69.2,34.4z"/>
			<path class="st10" d="M70.6,34.2l-0.5-0.3v-0.7l0.5-0.3c0.1-0.1,0.3,0,0.3,0.2V34C70.9,34.2,70.7,34.3,70.6,34.2z"/>
		</g>
	</g>
	<g>
		<path class="st16" d="M71,10.1c0,4.7-3.8,8.5-8.5,8.5c-1.6,0-3.2-0.5-4.5-1.3l-3.7,1.4l0.7-4.6c-0.7-1.2-1.1-2.6-1.1-4.2
			c0-4.7,3.8-8.5,8.5-8.5S71,5.4,71,10.1z"/>
		<circle class="st10" cx="58.4" cy="10.4" r="1.4"/>
		<circle class="st10" cx="62.7" cy="10.4" r="1.4"/>
		<circle class="st10" cx="66.8" cy="10.4" r="1.4"/>
	</g>
	<g>
		<path class="st16" d="M34.9,12.1c4.6,0.8,7.7,5.3,6.9,9.9c-0.3,1.6-1,3-2,4.2l0.7,3.9l-4.4-1.5c-1.3,0.5-2.8,0.6-4.3,0.3
			c-4.6-0.8-7.7-5.3-6.9-9.9S30.2,11.3,34.9,12.1z"/>
		<circle class="st10" cx="29.3" cy="19.8" r="1.4"/>
		<circle class="st10" cx="33.5" cy="20.5" r="1.4"/>
		<circle class="st10" cx="37.6" cy="21.3" r="1.4"/>
	</g>
	<path id="path4" class="st6" d="M91.5,41.6c0-0.5-0.3-1-0.8-1.3c-0.7-0.3-1.5-0.1-1.8,0.6c-0.7,1.3,0,1.9,0.9,4.3
		c2.4-0.8,3.2-0.6,3.9-1.9c0.3-0.7,0.1-1.5-0.6-1.8C92.5,41.3,91.9,41.3,91.5,41.6z"/>
	<path id="path4_00000173873497791471347170000016373978644943969209_" class="st17" d="M5.8,30c-0.5-0.2-1.1-0.1-1.5,0.2
		c-0.6,0.5-0.7,1.3-0.2,1.9c0.9,1.2,1.7,0.8,4.2,1.1c0.3-2.5,0.8-3.2-0.1-4.3c-0.5-0.6-1.3-0.7-1.9-0.2C5.9,28.9,5.7,29.4,5.8,30z"
		/>
</g>
</svg>
