<?xml version="1.0" encoding="utf-8"?>
<!-- Generator: Adobe Illustrator 25.4.1, SVG Export Plug-In . SVG Version: 6.00 Build 0)  -->
<svg version="1.1" id="Layer_1" xmlns="http://www.w3.org/2000/svg" xmlns:xlink="http://www.w3.org/1999/xlink" x="0px" y="0px"
	 viewBox="0 0 103.2 63.5" style="enable-background:new 0 0 103.2 63.5;" xml:space="preserve">
<style type="text/css">
	.st0{display:none;opacity:0.54;fill:#FFFFFF;enable-background:new    ;}
	.st1{opacity:0.3;}
	.st2{fill:#3B4751;}
	.st3{fill:#8EA3B2;}
	.st4{fill:#657F99;}
	.st5{fill:#4E7FB0;}
	.st6{opacity:0.1;fill:#FFFFFF;enable-background:new    ;}
	.st7{fill:#FFFFFF;}
	.st8{fill:#FF4C64;}
	.st9{display:none;fill:#FFFFFF;}
	.st10{fill:#FC5480;}
	.st11{fill:#FC81AE;}
	.st12{fill:#F96E99;}
	.st13{fill:#FF3E68;}
	.st14{fill:#FF2C50;}
	.st15{fill:#FC97C1;}
	.st16{opacity:0.2;enable-background:new    ;}
	.st17{fill:#303030;}
	.st18{opacity:0.25;fill:#FC5480;enable-background:new    ;}
	.st19{fill:#E23056;}
	.st20{fill:#46497C;}
	.st21{fill:#2E3062;}
	.st22{opacity:0.4;fill:#FFFFFF;enable-background:new    ;}
</style>
<rect x="-11.1" y="-30.4" class="st0" width="125.1" height="127.9"/>
<g>
	<g class="st1">
		<path class="st2" d="M41.6,61.9C32.8,46.1,25.9,58.8,15.3,47C1.5,31.5,13.8,23.6,28.1,21.8C39.7,20.4,50,3.7,63.3,4
			C81,4.4,72.5,21.1,85.4,26.9c11.1,5,10.4,26.3-1.5,33.7L41.6,61.9z"/>
		<ellipse class="st2" cx="51.6" cy="60.1" rx="51.6" ry="3.4"/>
	</g>
	<g>
		<path class="st3" d="M85.1,12.7v42.7c0,0.1,0,0.3,0,0.4L85,56.2c-0.3,0.6-1,1.1-1.7,1.1H16.9c-0.7,0-1.4-0.4-1.7-1.1
			c0-0.1-0.1-0.3-0.1-0.4s0-0.3,0-0.4V12.7c0-0.6,0.3-1.2,0.7-1.5c0.3-0.2,0.7-0.4,1.2-0.4h66.3c0.4,0,0.9,0.1,1.2,0.4
			C84.8,11.6,85.1,12.1,85.1,12.7z"/>
		<path class="st4" d="M90.8,58.1c-1.5,0.7-3.1,1.2-4.8,1.2H14.1c-1.7,0-3.3-0.4-4.8-1.2H90.8z"/>
		<path class="st4" d="M83.1,14.1v39.4c0,0.5-0.4,0.9-0.9,0.9H17.8c-0.5,0-0.9-0.4-0.9-0.9V14c0-0.5,0.4-0.9,0.9-0.9h64.4
			C82.8,13.1,83.2,13.6,83.1,14.1z"/>
		<path class="st3" d="M9.3,56.3h81.5v1.8H9.3V56.3z"/>
		<path class="st4" d="M69.9,57.3H30.2c-1.8,0-3.2-0.5-3.2-1.1h46C73.2,56.9,71.7,57.3,69.9,57.3z"/>
		<path class="st4" d="M50.6,12.2h-2.3c0,0-0.1,0-0.1-0.1c0,0,0-0.1,0.1-0.1h2.3C50.7,12,50.7,12,50.6,12.2
			C50.7,12.1,50.7,12.2,50.6,12.2z"/>
	</g>
	<path class="st5" d="M8.4,39H7.6v-0.8c0-0.3-0.2-0.5-0.5-0.5l0,0c-0.3,0-0.5,0.2-0.5,0.5V39H5.8c-0.3,0-0.5,0.2-0.5,0.5l0,0
		c0,0.3,0.2,0.5,0.5,0.5h0.8v0.8c0,0.3,0.2,0.5,0.5,0.5l0,0c0.3,0,0.5-0.2,0.5-0.5V40h0.8c0.3,0,0.5-0.2,0.5-0.5l0,0
		C8.9,39.2,8.7,39,8.4,39z"/>
	<path class="st5" d="M90.7,14.3h-0.4v-0.4c0-0.1-0.1-0.2-0.2-0.2l0,0c-0.1,0-0.2,0.1-0.2,0.2v0.4h-0.4c-0.1,0-0.2,0.1-0.2,0.2l0,0
		c0,0.1,0.1,0.2,0.2,0.2h0.4v0.4c0,0.1,0.1,0.2,0.2,0.2l0,0c0.1,0,0.2-0.1,0.2-0.2v-0.4h0.4c0.1,0,0.2-0.1,0.2-0.2l0,0
		C91,14.4,90.9,14.3,90.7,14.3z"/>
	<path class="st6" d="M40,13.2v-0.1L18.7,54.4l-0.1,0.1h13.3v-0.1l21.3-41.2C53.2,13.2,40,13.2,40,13.2z M17.8,13.1
		c-0.5,0-0.9,0.4-0.9,0.9v35.2l18.7-36.1C35.6,13.1,17.8,13.1,17.8,13.1z"/>
	<g>
		<g>
			<path class="st7" d="M71.7,44.9L71.7,44.9c0,1.2-1,2.2-2.2,2.2H32.2c-1.2,0-2.2-1-2.2-2.2l0,0c0-1.2,1-2.2,2.2-2.2h37.3
				C70.7,42.7,71.7,43.7,71.7,44.9z"/>
			<path class="st8" d="M69.5,42.7h-5.9v4.4h5.9c1.2,0,2.2-1,2.2-2.3l0,0C71.7,43.7,70.7,42.7,69.5,42.7z"/>
			<g>
				<g>
					<path class="st7" d="M68,45.3c-0.4-0.4-0.4-1-0.1-1.4c0.4-0.4,1-0.4,1.4-0.1c0.4,0.4,0.4,1,0.1,1.4
						C69.1,45.7,68.4,45.7,68,45.3z M69.2,44.1c-0.3-0.3-0.7-0.2-1,0c-0.3,0.3-0.2,0.7,0,1c0.3,0.3,0.7,0.2,1,0
						C69.5,44.8,69.4,44.3,69.2,44.1z"/>
				</g>
				<g>
					<path class="st7" d="M66.9,46.5c-0.1-0.1-0.1-0.2,0-0.2l1.1-1.2c0.1-0.1,0.2-0.1,0.2,0c0.1,0.1,0.1,0.2,0,0.2l-1.1,1.2
						C67.1,46.6,67,46.6,66.9,46.5z"/>
				</g>
			</g>
		</g>
	</g>
	<g>
		<path class="st7" d="M95.7,37.1c0.8,0,1.5,0.7,1.5,1.5s-0.7,1.5-1.5,1.5s-1.5-0.7-1.5-1.5S94.9,37.1,95.7,37.1z M95.7,39.6
			c0.6,0,1-0.4,1-1s-0.4-1-1-1s-1,0.4-1,1C94.7,39.1,95.1,39.6,95.7,39.6z"/>
	</g>
	<g>
		<g>
			<g>
				<g>
					<path class="st7" d="M27,51.3c0.1,0,0.2,0.1,0.2,0.2v1c0,0.1-0.1,0.2-0.2,0.2s-0.2-0.1-0.2-0.2v-1C26.8,51.4,26.9,51.3,27,51.3
						z"/>
				</g>
			</g>
			<g>
				<g>
					<path class="st7" d="M27,49.6c0.1,0,0.2,0.1,0.2,0.2v1c0,0.1-0.1,0.2-0.2,0.2s-0.2-0.1-0.2-0.2v-1C26.8,49.7,26.9,49.6,27,49.6
						z"/>
				</g>
			</g>
		</g>
		<g>
			<g>
				<g>
					<path class="st7" d="M25.6,50.9h0.9c0.1,0,0.2,0.1,0.2,0.2s-0.1,0.2-0.2,0.2h-0.9c-0.1,0-0.2-0.1-0.2-0.2
						C25.3,51.1,25.5,50.9,25.6,50.9z"/>
				</g>
			</g>
			<g>
				<g>
					<path class="st7" d="M27.5,50.9h0.9c0.1,0,0.2,0.1,0.2,0.2s-0.1,0.2-0.2,0.2h-0.9c-0.1,0-0.2-0.1-0.2-0.2
						C27.3,51.1,27.4,50.9,27.5,50.9z"/>
				</g>
			</g>
		</g>
	</g>
	<g>
		<g>
			<path class="st9" d="M65,29.8c-1.5-2.7-3.7-4.9-6.4-6.4c-2.6-1.5-5.6-2.3-8.7-2.3c-3.2,0-6.2,0.9-8.7,2.3
				c-2.7,1.5-4.9,3.7-6.4,6.4c-1.5,2.6-2.3,5.6-2.3,8.7h6.2c0-2.1,0.6-4,1.5-5.6c1-1.7,2.4-3.1,4.1-4.1c1.7-1,3.6-1.5,5.6-1.5
				c2.1,0,4,0.6,5.6,1.5c1.7,1,3.1,2.4,4.1,4.1s1.5,3.6,1.5,5.6h6.2C67.3,35.4,66.5,32.4,65,29.8z"/>
			<g>
				<path class="st10" d="M58.6,23.5l-2.4,4.2l-0.7,1.2c-0.1,0-0.1-0.1-0.2-0.1c-0.2-0.1-0.4-0.2-0.6-0.3c-0.2-0.1-0.3-0.2-0.5-0.2
					c-0.2-0.1-0.4-0.2-0.7-0.3c-0.2-0.1-0.5-0.2-0.7-0.2c-0.2-0.1-0.5-0.1-0.7-0.2c-0.1,0-0.2-0.1-0.3-0.1c-0.2,0-0.4-0.1-0.5-0.1
					c-0.2,0-0.5-0.1-0.8-0.1c-0.2,0-0.4,0-0.7,0v-6.2C52.9,21.1,56,22,58.6,23.5z"/>
				<path class="st11" d="M44.2,28.8c-1.6,1-3,2.4-4,4c0,0.1-0.1,0.1-0.1,0.2l0,0l-1.2-0.7l-4.2-2.4c1.5-2.7,3.7-5,6.4-6.5l2.5,4.3
					L44.2,28.8z"/>
				<path class="st12" d="M49.8,21.1v6.2h-0.1c-0.1,0-0.1,0-0.2,0c-1.9,0.1-3.8,0.6-5.3,1.5l-0.7-1.1L41,23.4
					C43.6,22,46.6,21.1,49.8,21.1z"/>
				<path class="st13" d="M65,29.9l-4.3,2.5L59.6,33c-1-1.8-2.4-3.2-4.1-4.1l0.7-1.2l2.4-4.2C61.3,25,63.5,27.2,65,29.9z"/>
				<path class="st14" d="M61.1,38.6L61.1,38.6c0-2.2-0.6-4-1.5-5.6l1.1-0.6l4.3-2.5c0.7,1.2,1.3,2.6,1.7,4.1c0.4,1.5,0.6,3,0.6,4.6
					H61.1z"/>
				<path class="st15" d="M40.1,33c-0.8,1.5-1.4,3.2-1.5,5.2c0,0.1,0,0.3,0,0.4h-6.2c0-3.1,0.8-6.1,2.3-8.7l4.2,2.4L40.1,33z"/>
			</g>
		</g>
		<g>
			<path class="st16" d="M62.2,38.6h-1.1c0-2.1-0.6-4-1.5-5.6c-1-1.8-2.4-3.2-4.1-4.1c-0.1,0-0.1-0.1-0.2-0.1
				c-0.2-0.1-0.4-0.2-0.6-0.3c-0.2-0.1-0.3-0.2-0.5-0.2c-0.2-0.1-0.4-0.2-0.7-0.3c-0.2-0.1-0.5-0.2-0.7-0.2
				c-0.2-0.1-0.5-0.1-0.7-0.2c-0.1,0-0.2-0.1-0.3-0.1c-0.2,0-0.4-0.1-0.5-0.1c-0.2,0-0.5-0.1-0.8-0.1c-0.2,0-0.4,0-0.7,0h-0.1
				c-0.1,0-0.1,0-0.2,0c-1.9,0.1-3.8,0.6-5.3,1.5c-1.6,1-3,2.4-4,4c0,0.1-0.1,0.1-0.1,0.2l0,0c-0.8,1.5-1.4,3.2-1.5,5.2
				c0,0.1,0,0.3,0,0.4h-1.4c0-2.2,0.6-4.5,1.7-6.3l0,0c1.1-1.9,2.7-3.5,4.6-4.6l0,0c1.9-1.1,4-1.7,6.2-1.7c2.3,0,4.4,0.6,6.3,1.7
				h0.1c1.9,1.1,3.4,2.7,4.5,4.6l0,0C61.8,34.2,62.4,36.4,62.2,38.6z"/>
			<polygon class="st17" points="49.6,37.6 50.1,39.5 63.5,34.9 			"/>
			<g>
				<circle class="st17" cx="49.8" cy="38.6" r="2.1"/>
				<circle class="st7" cx="49.8" cy="38.6" r="1.5"/>
				<circle class="st17" cx="49.8" cy="38.6" r="1.1"/>
			</g>
		</g>
		<path class="st18" d="M34.7,30.5c1.5-2.7,3.7-4.9,6.4-6.4c2.6-1.5,5.6-2.3,8.7-2.3c3.2,0,6.2,0.9,8.7,2.3c2.7,1.5,4.9,3.7,6.4,6.4
			c1.4,2.4,2.2,5.1,2.3,8l0,0c0-3.2-0.9-6.2-2.3-8.7c-1.5-2.7-3.7-4.9-6.4-6.4c-2.6-1.5-5.6-2.3-8.7-2.3c-3.2,0-6.2,0.9-8.7,2.3
			c-2.7,1.5-4.9,3.7-6.4,6.4c-1.5,2.6-2.3,5.6-2.3,8.7l0,0C32.5,35.7,33.3,32.9,34.7,30.5z"/>
	</g>
	<g>
		<path class="st8" d="M87.6,48.1l-1.4,1.2c-0.2,0.1-0.4,0.1-0.6-0.1l-2.9-3.5l-1.2-1.5l2-1.7l0.7,0.9l3.4,4.1
			C87.8,47.7,87.8,47.9,87.6,48.1z"/>
		<path class="st19" d="M84.2,43.3c-0.3,0.7-0.7,1.6-1.5,2.3l-1.2-1.4l2-1.7L84.2,43.3z"/>
		<path class="st20" d="M92.1,54.9L92.1,54.9c-0.4,0.3-0.9,0.2-1.2-0.1l-4.7-5.7l1.3-1l4.7,5.7C92.5,54.1,92.4,54.7,92.1,54.9z"/>
		<g>
			<path class="st21" d="M84,33.4c2.6,3.2,2.2,7.8-1,10.5c-3.2,2.6-7.8,2.2-10.5-1c-2.6-3.2-2.2-7.8,1-10.5
				C76.6,29.8,81.3,30.2,84,33.4z M83.1,34.1c-2.2-2.7-6.2-3-8.9-0.8c-2.7,2.2-3,6.2-0.8,8.9s6.2,3,8.9,0.8
				C84.9,40.8,85.3,36.8,83.1,34.1z"/>
			<path class="st22" d="M84.3,36.3c1,3.3-0.9,6.8-4.2,7.9c-0.3,0.1-0.6,0.2-0.9,0.2c-0.7,0.1-1.5,0.1-2.2,0s-1.4-0.4-2.1-0.8
				c-1-0.6-1.8-1.5-2.4-2.6c-0.1-0.3-0.3-0.6-0.4-0.9c-1-3.3,0.9-6.8,4.2-7.9c0.3-0.1,0.6-0.2,1-0.2c1.2-0.2,2.4,0,3.5,0.5
				c0.7,0.3,1.3,0.7,1.8,1.3c0.5,0.5,0.9,1.1,1.3,1.8C84.1,35.7,84.2,36,84.3,36.3z"/>
		</g>
	</g>
	<circle class="st3" cx="74.6" cy="15.3" r="0.9"/>
	<circle class="st3" cx="77.4" cy="15.3" r="0.9"/>
	<circle class="st3" cx="80.1" cy="15.3" r="0.9"/>
</g>
</svg>
