<?xml version="1.0" encoding="utf-8"?>
<!-- Generator: Adobe Illustrator 25.4.1, SVG Export Plug-In . SVG Version: 6.00 Build 0)  -->
<svg version="1.1" id="Layer_1" xmlns="http://www.w3.org/2000/svg" xmlns:xlink="http://www.w3.org/1999/xlink" x="0px" y="0px"
	 viewBox="0 0 90.3 63.5" style="enable-background:new 0 0 90.3 63.5;" xml:space="preserve">
<style type="text/css">
	.st0{display:none;opacity:0.54;fill:#FFFFFF;enable-background:new    ;}
	.st1{opacity:0.1;}
	.st2{fill:#3B4751;}
	.st3{fill:#7D91A2;}
	.st4{fill:#637D99;}
	.st5{fill:#8EA1B0;}
	.st6{opacity:0.17;}
	.st7{fill:#09225E;}
	.st8{opacity:7.000000e-02;fill:#FFFFFF;enable-background:new    ;}
	.st9{fill:#8EA2B1;}
	.st10{fill:url(#SVGID_1_);}
	.st11{fill:#FFFFFF;}
	.st12{fill:#FCBF1E;}
	.st13{fill:#F97C8D;}
</style>
<rect x="-17.5" y="-30.4" class="st0" width="125.1" height="127.9"/>
<g>
	<g id="Background_00000046307035119440735990000000414830542883714987_" class="st1">
		<path id="Background_00000134208600349348867520000017179816976011960740_" class="st2" d="M65.1,38.6c0,0,4.1,2.1,6.3,5.8
			c2,3.5,7,9.8-9.1,14.4c-14.8,4.3-44,6.3-37.8-2.9C30.5,46.9,0,54,0,44.3C0,30,65.1,38.6,65.1,38.6z"/>
		<path id="Background_00000166641362366052467320000009313845574801253256_" class="st2" d="M39.1,59.2c0,0-4.3-1.3-6.7-4.3
			s-7.9-8.3,7.6-16.3c14.3-7.5,42.9-15.2,37.7-4.9c-5.2,10.4,11.7,0.4,12.6,10C91.7,57.8,39.1,59.2,39.1,59.2z"/>
		<path id="Background_00000078750278804644907580000011073647029534781078_" class="st2" d="M33.7,41.1c0,0-4.5,0.1-7.7-2.1
			s-10.1-5.5,2.3-17.8C39.6,9.7,64.5-6.4,62.7,5c-1.8,11.5,11.3-3.2,15,5.7C83.4,23.7,33.7,41.1,33.7,41.1z"/>
	</g>
	<g id="loptop">
		<path class="st3" d="M71.5,41H20.8c-0.8,0-1.4-0.6-1.4-1.4V7c0-0.8,0.6-1.4,1.4-1.4h50.6c0.8,0,1.4,0.6,1.4,1.4v32.6
			C72.9,40.4,72.3,41,71.5,41z"/>
		<rect x="21.2" y="7.4" class="st4" width="50" height="31.5"/>
		<path d="M8.7,52.7L8.7,52.7L8.7,52.7L8.7,52.7z"/>
		<path class="st5" d="M83.7,50.6v1.9l0,0v0.1c0,0.1-0.1,0.3-0.1,0.4c-0.1,0.1-0.2,0.2-0.4,0.2h-74c-0.2,0-0.4-0.2-0.4-0.4l0,0v-2
			l1.9-0.3v0.4l8.8-7.8h53.8l8.4,7.5L83.7,50.6z"/>
		<path class="st4" d="M83.2,51.1h-74c-0.4,0-0.5-0.5-0.3-0.7l9.8-8.7c0.5-0.5,1.2-0.7,1.9-0.7h51.6c0.8,0,1.5,0.3,2.1,0.8l9.4,8.4
			C83.9,50.5,83.7,51.1,83.2,51.1z"/>
		<polygon class="st3" points="77.8,48.1 14.8,48.1 21.4,42.2 71.2,42.2 		"/>
	</g>
	<g class="st6">
		<g>
			<g>
				<g>
					<ellipse class="st7" cx="46.2" cy="43.9" rx="10.9" ry="0.7"/>
				</g>
			</g>
		</g>
	</g>
	<path class="st8" d="M21.2,7.4v27.4L34.7,7.4H21.2z M37.8,7.4L22.4,38.9H32L47.4,7.4H37.8z"/>
	<g id="location">
		<path class="st9" d="M45.4,8.8c-7.2,0.4-13.2,6.2-14,13.4c-1,8.4,5.8,13.8,11.1,18.9c0.1,0.1,1,1,1.9,1.8c1.1,1.1,2.9,1.1,4,0
			c0.9-0.9,1.8-1.7,1.9-1.8c4.9-4.8,11.2-9.7,11.2-17.2C61.4,15.2,54.1,8.3,45.4,8.8z"/>
		
			<radialGradient id="SVGID_1_" cx="46.3519" cy="101.3556" r="41.5446" gradientTransform="matrix(1 0 0 -1 0 105.1943)" gradientUnits="userSpaceOnUse">
			<stop  offset="0" style="stop-color:#718FAA"/>
			<stop  offset="0.326" style="stop-color:#637D99"/>
			<stop  offset="0.749" style="stop-color:#6D8AA5"/>
			<stop  offset="1" style="stop-color:#7D91A2"/>
		</radialGradient>
		<path class="st10" d="M46.5,43.7c-0.4,0-0.7-0.1-1.1-0.4c-0.7-0.6-1.4-1.4-1.8-1.7l-0.3-0.2c-0.6-0.6-1.2-1.2-1.8-1.8
			c-5.2-4.9-10.7-10-9.7-17.5C32.7,14.9,38.6,9.4,45.6,9c0.3,0,0.6,0,0.9,0c8.2,0,14.8,6.6,14.8,14.8c0,6.6-5,11.3-9.8,15.8
			c-0.6,0.6-1.3,1.2-1.8,1.8l-0.4,0.2c-0.4,0.4-1.1,1.1-1.8,1.7C47.3,43.6,46.9,43.7,46.5,43.7z"/>
		<circle class="st11" cx="46.3" cy="24.1" r="9"/>
		<path class="st12" d="M46.3,20.6c-3.3,0-5.9,3.6-5.9,3.6s2.6,3.6,5.9,3.6c3.3,0,5.9-3.6,5.9-3.6S49.6,20.6,46.3,20.6z M47.9,25.4
			c-0.4,0.5-1,0.8-1.6,0.8s-1.2-0.3-1.6-0.8c-0.3-0.3-0.4-0.7-0.4-1.2c0-1.1,0.9-2,2-2s2,0.9,2,2C48.3,24.6,48.2,25,47.9,25.4z"/>
		<path class="st11" d="M49.3,18.9l1,1l-7.9,8.4l-1-1L49.3,18.9z"/>
		<path class="st12" d="M50.1,19.4l1,1l-7.9,8.4l-1-1L50.1,19.4z"/>
	</g>
	<rect x="45.3" y="6.4" class="st4" width="2.6" height="0.2"/>
	<g>
		<g>
			<g>
				<g>
					<g>
						<path class="st11" d="M19,46.8c-0.1,0-0.1,0.1-0.1,0.1v0.6c0,0.1,0.1,0.1,0.1,0.1c0.1,0,0.1-0.1,0.1-0.1v-0.6
							C19.2,46.8,19.1,46.8,19,46.8z"/>
					</g>
				</g>
				<g>
					<g>
						<path class="st11" d="M19,45.7c-0.1,0-0.1,0.1-0.1,0.1v0.6c0,0.1,0.1,0.1,0.1,0.1c0.1,0,0.1-0.1,0.1-0.1v-0.6
							C19.2,45.8,19.1,45.7,19,45.7z"/>
					</g>
				</g>
			</g>
			<g>
				<g>
					<g>
						<path class="st11" d="M19.8,46.5h-0.5c-0.1,0-0.1,0.1-0.1,0.1l0.1,0.1h0.5c0.1,0,0.1-0.1,0.1-0.1S19.9,46.5,19.8,46.5z"/>
					</g>
				</g>
				<g>
					<g>
						<path class="st11" d="M18.7,46.5h-0.5c-0.1,0-0.2,0.1-0.2,0.1l0.1,0.1h0.5C18.7,46.7,18.7,46.6,18.7,46.5
							C18.8,46.6,18.8,46.5,18.7,46.5z"/>
					</g>
				</g>
			</g>
		</g>
		<g>
			<g>
				<g>
					<g>
						<g>
							<path class="st13" d="M81.4,42c-0.1,0-0.2-0.1-0.2-0.2v-1c0-0.1,0.1-0.2,0.2-0.2s0.2,0.1,0.2,0.2v1
								C81.6,41.9,81.6,42,81.4,42z"/>
						</g>
						<g>
							<path class="st13" d="M81.4,43.8c-0.1,0-0.2-0.1-0.2-0.2v-1c0-0.1,0.1-0.2,0.2-0.2s0.2,0.1,0.2,0.2v1
								C81.6,43.7,81.6,43.8,81.4,43.8z"/>
						</g>
					</g>
					<g>
						<g>
							<path class="st13" d="M82.8,42.5h-0.9c-0.1,0-0.2-0.1-0.2-0.2s0.1-0.2,0.2-0.2h0.9c0.1,0,0.2,0.1,0.2,0.2
								S82.9,42.5,82.8,42.5z"/>
						</g>
						<g>
							<path class="st13" d="M80.9,42.5H80c-0.1,0-0.2-0.1-0.2-0.2s0.1-0.2,0.2-0.2h0.9c0.1,0,0.2,0.1,0.2,0.2S81,42.5,80.9,42.5z"
								/>
						</g>
					</g>
				</g>
			</g>
		</g>
		<g>
			<g>
				<g>
					<g>
						<g>
							<path class="st13" d="M14.7,14.2c-0.1,0-0.3-0.1-0.3-0.3v-1.1c0-0.1,0.1-0.3,0.3-0.3c0.1,0,0.3,0.1,0.3,0.3V14
								C15,14.1,15,14.2,14.7,14.2z"/>
						</g>
						<g>
							<path class="st13" d="M14.7,16.3c-0.1,0-0.3-0.1-0.3-0.3v-1.2c0-0.1,0.1-0.3,0.3-0.3c0.2,0.1,0.3,0.2,0.3,0.3V16
								C15,16.1,15,16.3,14.7,16.3z"/>
						</g>
					</g>
					<g>
						<g>
							<path class="st13" d="M16.4,14.7h-1c-0.1,0-0.3-0.1-0.3-0.3c0-0.1,0.1-0.3,0.3-0.3h1c0.1,0,0.3,0.1,0.3,0.3
								C16.6,14.6,16.5,14.7,16.4,14.7z"/>
						</g>
						<g>
							<path class="st13" d="M14.2,14.7h-1c-0.1,0-0.3-0.1-0.3-0.3c0-0.1,0.1-0.3,0.3-0.3h1c0.1,0,0.3,0.1,0.3,0.3
								S14.3,14.7,14.2,14.7z"/>
						</g>
					</g>
				</g>
			</g>
		</g>
	</g>
	<g>
		<g>
			<circle class="st3" cx="64.1" cy="9.1" r="0.8"/>
			<circle class="st3" cx="66.7" cy="9.1" r="0.8"/>
			<circle class="st3" cx="69.2" cy="9.1" r="0.8"/>
		</g>
	</g>
</g>
</svg>
