<?xml version="1.0" encoding="utf-8"?>
<!-- Generator: Adobe Illustrator 25.4.1, SVG Export Plug-In . SVG Version: 6.00 Build 0)  -->
<svg version="1.1" id="Layer_1" xmlns="http://www.w3.org/2000/svg" xmlns:xlink="http://www.w3.org/1999/xlink" x="0px" y="0px"
	 viewBox="0 0 103.2 65.4" style="enable-background:new 0 0 103.2 65.4;" xml:space="preserve">
<style type="text/css">
	.st0{display:none;opacity:0.54;fill:#FFFFFF;enable-background:new    ;}
	.st1{opacity:0.3;}
	.st2{fill:#3B4751;}
	.st3{fill:#8EA2B1;}
	.st4{fill:#657F99;}
	.st5{fill:#647E99;}
	.st6{fill:#D4EDFF;}
	.st7{fill:url(#SVGID_1_);}
	.st8{fill:url(#SVGID_00000028289434677414053430000000257236474641548727_);}
	.st9{fill:url(#SVGID_00000127750690951471166000000015297296067277193140_);}
	.st10{fill:url(#SVGID_00000075877123424030577740000005474498950653472435_);}
	.st11{fill:url(#SVGID_00000087379428539706604770000000679562875452651935_);}
	.st12{fill:url(#SVGID_00000142142124062641478170000009347609702955133353_);}
	.st13{fill:#556A7C;}
	.st14{fill:url(#SVGID_00000020368783107385768830000003573014705702710206_);}
	.st15{fill:#FFFFFF;}
	.st16{opacity:0.1;fill:#FFFFFF;enable-background:new    ;}
	.st17{fill:#FF4C64;}
	.st18{fill:#E23056;}
	.st19{fill:#46497C;}
	.st20{fill:#2E3062;}
	.st21{opacity:0.4;fill:#FFFFFF;enable-background:new    ;}
	.st22{fill:#4E7EAF;}
</style>
<rect x="-11.1" y="-28.5" class="st0" width="125.1" height="127.9"/>
<g>
	<g class="st1">
		<path class="st2" d="M83.5,62.3c-4.8-3.5-12.7-12.4-2.1-26.4c13.2-17.2-2.6-24.3-17.6-23.6C51.6,12.9,38-2.4,24.4,0.3
			C6.3,4,18,19.6,5.8,27.9c-10.4,7.2-6,28.9,7.6,34.3L83.5,62.3L83.5,62.3z"/>
		<ellipse class="st2" cx="46.6" cy="62.6" rx="43" ry="2.8"/>
	</g>
	<g>
		<path class="st3" d="M74.6,23.2v35.6c0,0.1,0,0.2,0,0.4l-0.1,0.4c-0.3,0.5-0.8,0.9-1.4,0.9H17.7c-0.6,0-1.2-0.4-1.4-0.9
			c0-0.1-0.1-0.2-0.1-0.4c0-0.1,0-0.2,0-0.4V23.2c0-0.5,0.2-1,0.6-1.3c0.3-0.2,0.6-0.4,1-0.4h55.4c0.4,0,0.7,0.1,1,0.4
			C74.4,22.3,74.6,22.7,74.6,23.2z"/>
		<path class="st4" d="M79.3,61c-1.2,0.6-2.6,1-3.9,1H15.3c-1.4,0-2.8-0.3-3.9-1H79.3z"/>
		<path class="st5" d="M72.9,24.4v32.9c0,0.4-0.4,0.8-0.8,0.8H18.4c-0.4,0-0.8-0.4-0.8-0.8V24.4c0-0.1,0-0.2,0.1-0.3
			c0.1-0.3,0.4-0.5,0.7-0.5h53.7C72.6,23.6,72.9,23.9,72.9,24.4z"/>
		<path class="st3" d="M11.3,59.6h68v1.5h-68C11.3,61.1,11.3,59.6,11.3,59.6z"/>
		<path class="st4" d="M61.9,60.4H28.7c-1.5,0-2.7-0.4-2.7-0.9h38.5C64.6,60.1,63.3,60.4,61.9,60.4z"/>
		<path class="st6" d="M45.7,22.8h-1.9c0,0-0.1,0-0.1-0.1s0-0.1,0.1-0.1h1.9C45.8,22.6,45.8,22.6,45.7,22.8
			C45.8,22.7,45.8,22.8,45.7,22.8z"/>
	</g>
	<g>
		<g>
			
				<linearGradient id="SVGID_1_" gradientUnits="userSpaceOnUse" x1="92.8765" y1="440.324" x2="125.4306" y2="472.8778" gradientTransform="matrix(0.9859 0.1671 0.1671 -0.9859 -121.5383 473.6872)">
				<stop  offset="0" style="stop-color:#FFFFFF"/>
				<stop  offset="0.194" style="stop-color:#FFFFFF"/>
				<stop  offset="0.2457" style="stop-color:#FFFDF9"/>
				<stop  offset="0.3202" style="stop-color:#F7C1D4"/>
				<stop  offset="0.394" style="stop-color:#F4A6BE"/>
				<stop  offset="0.4804" style="stop-color:#F294AD"/>
				<stop  offset="0.5718" style="stop-color:#F47F98"/>
				<stop  offset="0.6258" style="stop-color:#F96982"/>
				<stop  offset="1" style="stop-color:#F93A5A"/>
			</linearGradient>
			<path class="st7" d="M82,29.6c-1.2,0.9-2.5,1.8-3.7,2.6c-1.3,0.9-2.5,1.7-3.8,2.6c-6.1,4.1-12,8.4-18.9,11.4
				c-3.3,1.5-12.5,5-14.4,0.9l-0.7,3.3c5,3.2,15,0,19.8-2.2c5.8-2.7,11.6-5.5,17.2-8.6c1.4-0.7,2.7-1.5,4.1-2.3s2.7-1.5,4.1-2.4
				L82,29.6z"/>
			
				<linearGradient id="SVGID_00000064330539313449073210000005418624648879564170_" gradientUnits="userSpaceOnUse" x1="86.0573" y1="447.7679" x2="98.948" y2="460.6586" gradientTransform="matrix(0.9859 0.1671 0.1671 -0.9859 -121.5383 473.6872)">
				<stop  offset="0.2401" style="stop-color:#FFFFFF"/>
				<stop  offset="0.9008" style="stop-color:#FFFFFF;stop-opacity:0"/>
			</linearGradient>
			<path style="fill:url(#SVGID_00000064330539313449073210000005418624648879564170_);" d="M48.2,34c-1.2,0.9-2.4,1.9-3.6,3
				c-1.1,1.1-2.2,2.2-3.2,3.5c-0.5,0.6-0.9,1.3-1.3,2c-0.4,0.7-0.7,1.5-0.9,2.4s-0.2,1.8,0.1,2.8c0.2,0.5,0.4,0.9,0.7,1.3
				c0.3,0.4,0.7,0.7,1.1,1v-3c-0.2-0.5-0.3-1.1-0.2-1.8s0.3-1.3,0.6-2s0.6-1.3,1-1.9c0.8-1.3,1.7-2.4,2.8-3.6c1-1.1,2.1-2.2,3.3-3.2
				c2.3-2-0.5-0.1,2.1-1.7C48,34.2,50.7,32.1,48.2,34z"/>
		</g>
		<g>
			<g>
				<g>
					
						<linearGradient id="SVGID_00000032611038175015192360000013484473539162876086_" gradientUnits="userSpaceOnUse" x1="1199.4277" y1="-3857.2664" x2="1205.4677" y2="-3857.2664" gradientTransform="matrix(0.52 0.8541 0.8541 -0.52 2760.8489 -2995.5039)">
						<stop  offset="0" style="stop-color:#FFFFFF"/>
						<stop  offset="1" style="stop-color:#647E99"/>
					</linearGradient>
					<path style="fill:url(#SVGID_00000032611038175015192360000013484473539162876086_);" d="M96.8,31.6l-2.5,6
						c-0.3,0.7-0.9,1.2-1.6,1.5l-7,2.2c-0.2,0.1-0.4-0.1-0.4-0.4l1-5L96.8,31.6z"/>
					
						<linearGradient id="SVGID_00000064345315644362730790000003705173969661331095_" gradientUnits="userSpaceOnUse" x1="9137.4307" y1="-3857.2844" x2="9143.4307" y2="-3857.9749" gradientTransform="matrix(-0.52 -0.8541 0.8541 -0.52 8129.9385 5823.0884)">
						<stop  offset="0" style="stop-color:#FFFFFF"/>
						<stop  offset="1" style="stop-color:#647E99"/>
					</linearGradient>
					<path style="fill:url(#SVGID_00000064345315644362730790000003705173969661331095_);" d="M90.3,21L84,20.5
						c-0.8-0.1-1.5,0.2-2,0.8l-5.3,5.2c-0.2,0.2-0.1,0.5,0.1,0.5l4.9,1.4L90.3,21z"/>
				</g>
				<path class="st5" d="M83.6,34.5l-1.9-3.1c-0.4-0.7-0.2-1.7,0.5-2.1l0.2-0.1l3.5,5.8h-0.2C85,35.4,84.1,35.2,83.6,34.5z"/>
				
					<linearGradient id="SVGID_00000015351969397671014310000011576409919439744910_" gradientUnits="userSpaceOnUse" x1="1185.7418" y1="-3849.9539" x2="1205.083" y2="-3849.9539" gradientTransform="matrix(0.52 0.8541 0.8541 -0.52 2760.8489 -2995.5039)">
					<stop  offset="0" style="stop-color:#FFFFFF"/>
					<stop  offset="1" style="stop-color:#8EA2B1"/>
				</linearGradient>
				<path style="fill:url(#SVGID_00000015351969397671014310000011576409919439744910_);" d="M103.2,20.5
					c-7.2-3.1-18.4-0.3-21.4,7.6c-0.1,0.2-0.1,0.5,0.1,0.7l4.1,6.9c0.1,0.2,0.4,0.4,0.6,0.4C95.1,37,102.7,28.3,103.2,20.5z"/>
				<g>
					<g>
						
							<linearGradient id="SVGID_00000018205986318372858810000017943896171285494671_" gradientUnits="userSpaceOnUse" x1="1193.9897" y1="-3852.7415" x2="1193.9897" y2="-3866.1821" gradientTransform="matrix(0.52 0.8541 0.8541 -0.52 2760.8489 -2995.5039)">
							<stop  offset="0" style="stop-color:#FFFFFF"/>
							<stop  offset="1" style="stop-color:#647E99"/>
						</linearGradient>
						<path style="fill:url(#SVGID_00000018205986318372858810000017943896171285494671_);" d="M81.4,34.8l-1.1-1.7l6.2-3.9
							c0.7-0.5,1.5-0.9,2.3-1.2l3.3-1.3l0.3,0.5l-2.6,2.4c-0.6,0.6-1.4,1.1-2.1,1.5L81.4,34.8z"/>
					</g>
				</g>
				<path class="st5" d="M97.7,31.6c2-2,3.6-4.6,4.6-7.1c-0.3,0.1-0.6,0.3-0.9,0.5c-0.8,0.8-1.6,1.7-2.3,2.5
					c-0.4,0.5-1.2,0.4-1.7-0.2c-1.2-1.6-2.2-3.2-3-5.1c-0.3-0.6,0-1.4,0.6-1.5c1.1-0.3,2.2-0.6,3.3-0.9c0.3-0.1,0.6-0.3,0.9-0.5
					c-2.7-0.4-5.7-0.1-8.4,0.8C92.4,24.3,94.7,28.3,97.7,31.6z"/>
				<path class="st13" d="M92.2,20.4C92.2,20.4,92.2,20.5,92.2,20.4c0.3,0.4,0.7,0.6,1,0.5l3.6-0.9c0.3-0.1,0.6-0.4,0.6-0.7
					c-0.1,0-0.1,0-0.2,0c0,0.3-0.2,0.5-0.5,0.6l-3.6,0.8c-0.3,0.1-0.7-0.1-0.8-0.4l-0.2-0.5c-0.1,0-0.1,0-0.2,0L92.2,20.4z"/>
				<path class="st13" d="M98.2,30.3L98.2,30.3c-0.3-0.4-0.3-0.8,0-1.1l2.5-2.8c0.2-0.3,0.6-0.3,0.9-0.2c0,0.1-0.1,0.1-0.1,0.2
					c-0.2-0.1-0.5,0-0.7,0.2l-2.5,2.8c-0.2,0.2-0.2,0.6,0,0.9l0.4,0.4l-0.1,0.1L98.2,30.3z"/>
				
					<linearGradient id="SVGID_00000166645087719525584480000002949808152871671936_" gradientUnits="userSpaceOnUse" x1="3840.2463" y1="-5420.3696" x2="3845.9824" y2="-5421.2549" gradientTransform="matrix(-8.527540e-02 0.9964 0.9964 8.527540e-02 5827.2422 -3343.5872)">
					<stop  offset="0" style="stop-color:#FFFFFF"/>
					<stop  offset="1" style="stop-color:#647E99"/>
				</linearGradient>
				<path style="fill:url(#SVGID_00000166645087719525584480000002949808152871671936_);" d="M98,26.1c-1.6-0.1-2.7-1.5-2.6-3.1
					s1.5-2.7,3.1-2.6s2.7,1.5,2.6,3.1C101.1,25.1,99.7,26.2,98,26.1z"/>
				<path class="st5" d="M99.9,25c-1,0.8-2.4,0.7-3.3-0.3c-0.8-1-0.7-2.4,0.3-3.3c1-0.8,2.4-0.7,3.3,0.3
					C101,22.7,100.9,24.2,99.9,25z"/>
				<g>
					<path class="st15" d="M100,22.2L100,22.2L99.8,22c-0.1,0-0.1,0-0.1,0c-0.1,0.1-0.1,0.2-0.1,0.3l0,0c0,0,0,0.1,0.1,0.1l0.1,0.1
						c0.1,0,0.1,0,0.1,0C100.1,22.5,100.1,22.3,100,22.2z M99.7,22.3L99.7,22.3L99.7,22.3L99.7,22.3z"/>
					<path class="st15" d="M99.6,21.8C99.6,21.7,99.6,21.7,99.6,21.8c-0.5-0.4-1.1-0.5-1.6-0.4c-0.1,0-0.2,0.1-0.2,0.2
						c0,0,0,0,0,0.1s0.1,0.1,0.2,0.1c0.4-0.1,0.8,0,1.2,0.3h0.1c0.1,0,0.1,0,0.1-0.1C99.6,21.9,99.6,21.9,99.6,21.8z"/>
				</g>
				<path class="st13" d="M99.9,25c0.4-0.3,0.7-0.8,0.8-1.3c-0.1,0-0.1,0.1-0.2,0.1c-0.2,0.2-0.4,0.4-0.7,0.5
					c-0.3,0.1-0.5,0-0.8-0.2s-0.4-0.7-0.7-0.9c-0.4-0.3-0.9-0.1-1.3-0.4c-0.2-0.1-0.3-0.3-0.4-0.5c-0.1-0.1-0.1-0.3-0.1-0.5
					c-0.6,0.8-0.6,2,0.1,2.8C97.3,25.7,98.8,25.8,99.9,25z"/>
			</g>
		</g>
	</g>
	<circle class="st15" cx="44.8" cy="41.4" r="10.4"/>
	<path class="st16" d="M36.9,23.6L19.1,58.1h11L48,23.6H36.9z M18.4,23.6c-0.3,0-0.6,0.2-0.7,0.5v29.6l15.6-30.1H18.4z"/>
	<g>
		<path class="st17" d="M14.4,50.6l1,1.2c0.1,0.1,0.4,0.2,0.5,0l2.9-2.6l1.2-1.1l-1.5-1.7L17.8,47l-3.4,3
			C14.2,50.2,14.2,50.5,14.4,50.6z"/>
		<path class="st18" d="M17.8,47.1c0.1,0.6,0.4,1.4,1,2.1l1.2-1.1l-1.5-1.7L17.8,47.1z"/>
		<path class="st19" d="M9.6,55.9L9.6,55.9c0.3,0.3,0.7,0.3,1,0.1l4.8-4.1l-0.9-1l-4.9,4C9.3,55.1,9.3,55.6,9.6,55.9z"/>
		<g>
			<path class="st20" d="M19.4,38.7c-2.6,2.3-2.9,6.4-0.6,9s6.4,2.9,9,0.6s2.9-6.4,0.6-9S22,36.4,19.4,38.7z M20,39.4
				c2.2-1.9,5.7-1.7,7.6,0.5s1.7,5.7-0.5,7.6c-2.2,1.9-5.7,1.7-7.6-0.5C17.6,44.9,17.8,41.4,20,39.4z"/>
			<path class="st21" d="M18.8,41.1c-1.3,2.6-0.2,6,2.4,7.3c0.2,0.1,0.5,0.2,0.7,0.3c0.6,0.2,1.2,0.3,1.8,0.3c0.6,0,1.3-0.2,1.9-0.4
				c0.9-0.4,1.7-1,2.3-1.9c0.2-0.2,0.3-0.5,0.4-0.7c1.3-2.6,0.2-6-2.4-7.3c-0.3-0.1-0.5-0.2-0.8-0.3c-1-0.3-2-0.3-3-0.1
				c-0.6,0.2-1.2,0.4-1.7,0.8s-0.9,0.8-1.3,1.3C19,40.7,18.9,40.9,18.8,41.1z"/>
		</g>
	</g>
	<g id="logo">
		<g id="XMLID_121_">
			<g id="XMLID_122_">
				<g id="XMLID_123_">
					<path class="st5" d="M52.7,39.9c0-0.7-0.2-1.3-0.4-2c0.3-0.2,0.1-0.9-0.3-0.9c-0.6,0-0.6,1,0,1c0.3,0.9,0.4,2,0.1,3
						c-0.1-0.5-0.6-0.8-1.1-0.7c-0.5-1.5-2.1-2.1-3.6-2.1c-1.4-0.1-2.8-0.1-4.1,0c-1.5,0-3.2,0.6-3.7,2.1c-0.5,0-1,0.2-1.1,0.7
						c-0.3-1-0.2-2.1,0.1-3.1c0.6,0,0.6-1,0-1c-0.4,0-0.6,0.6-0.3,0.8c-0.3,0.8-0.5,1.6-0.4,2.5c0,0.7,0.3,1.5,0.6,2.2
						c0.2,0.6,0.6,0.9,1.3,0.8c0.8,2.3,3.6,2.2,5.6,2.2s4.8,0,5.6-2.2c0.8,0.1,1.2-0.3,1.4-1.1C52.5,41.5,52.7,40.7,52.7,39.9z
						 M49.7,41.4c0,1.2-0.2,2.6-1.6,2.8c-1.9,0.3-3.9,0.3-5.9,0c-1.4-0.2-1.6-1.6-1.6-2.8c-0.1-1.6,1.3-2.1,2.7-2.1
						c1.2-0.1,2.5-0.1,3.8,0C48.4,39.2,49.9,39.8,49.7,41.4z"/>
				</g>
			</g>
		</g>
		<path class="st5" d="M43.8,41.7c0,0.4-0.3,0-0.8-0.1c-0.4-0.1-0.9,0.2-0.8-0.2C42.3,40.4,43.9,40.7,43.8,41.7z M48.2,41.4
			c0,0.4-0.3,0.1-0.8,0.2c-0.4,0.1-0.7,0.5-0.8,0.1C46.4,40.7,48.1,40.4,48.2,41.4z"/>
		<path class="st5" d="M43.8,41.7c0,0.4-0.3,0-0.8-0.1c-0.4-0.1-0.9,0.2-0.8-0.2C42.3,40.4,43.9,40.7,43.8,41.7z M47.4,41.6
			c-0.4,0.1-0.7,0.5-0.8,0.1c0-0.4,0.2-0.8,0.7-0.9c0.4-0.1,0.9,0.2,0.9,0.6C48.3,41.8,47.9,41.5,47.4,41.6L47.4,41.6z"/>
		<path id="XMLID_120_" class="st5" d="M43.8,41.7c0,0.4-0.3,0-0.8-0.1c-0.4-0.1-0.9,0.2-0.8-0.2C42.3,40.4,43.9,40.7,43.8,41.7z
			 M47.4,41.6c-0.4,0.1-0.7,0.5-0.8,0.1c0-0.4,0.2-0.8,0.7-0.9c0.4-0.1,0.9,0.2,0.9,0.6C48.3,41.8,47.9,41.5,47.4,41.6L47.4,41.6z"
			/>
		<path class="st5" d="M46.2,42.9c0,1.2-2.1,1.2-2,0c0-0.1,0.1-0.2,0.2-0.2h1.7C46.1,42.8,46.2,42.8,46.2,42.9z"/>
	</g>
	<g>
		<path class="st15" d="M63.3,18.2L63.3,18.2c0,1-0.8,1.8-1.8,1.8H30.4c-1,0-1.8-0.8-1.8-1.8l0,0c0-1,0.8-1.8,1.8-1.8h31.2
			C62.5,16.4,63.3,17.2,63.3,18.2z"/>
		<path class="st17" d="M61.5,16.4h-4.9V20h5c1,0,1.8-0.9,1.8-1.9l0,0C63.3,17.2,62.5,16.4,61.5,16.4z"/>
		<g>
			<g>
				<path class="st15" d="M60.3,18.5c-0.3-0.3-0.4-0.8,0-1.2c0.3-0.3,0.8-0.4,1.2,0c0.3,0.3,0.4,0.8,0,1.2
					C61.2,18.8,60.6,19,60.3,18.5z M61.3,17.5c-0.2-0.2-0.6-0.2-0.8,0s-0.2,0.6,0,0.8s0.6,0.2,0.8,0C61.5,18.1,61.5,17.7,61.3,17.5z
					"/>
			</g>
			<g>
				<path class="st15" d="M59.4,19.6c-0.1-0.1-0.1-0.1,0-0.2l0.9-1c0.1-0.1,0.1-0.1,0.2,0c0.1,0.1,0.1,0.1,0,0.2l-0.9,1
					C59.5,19.7,59.4,19.7,59.4,19.6z"/>
			</g>
		</g>
	</g>
	<g>
		<g>
			<path class="st22" d="M23.8,15c0.7,0,1.2,0.5,1.2,1.2s-0.5,1.2-1.2,1.2s-1.2-0.5-1.2-1.2C22.6,15.5,23.2,15,23.8,15z M23.8,17
				c0.5,0,0.8-0.4,0.8-0.8c0-0.5-0.4-0.8-0.8-0.8c-0.5,0-0.8,0.4-0.8,0.8C23,16.6,23.4,17,23.8,17z"/>
		</g>
	</g>
	<g>
		<g>
			<g>
				<g>
					<path class="st15" d="M27.3,25.5c0.1,0,0.2,0.1,0.2,0.2v0.8c0,0.1-0.1,0.2-0.2,0.2s-0.2-0.1-0.2-0.2v-0.8
						C27.1,25.6,27.2,25.5,27.3,25.5z"/>
				</g>
			</g>
			<g>
				<g>
					<path class="st15" d="M27.3,24c0.1,0,0.2,0.1,0.2,0.2V25c0,0.1-0.1,0.2-0.2,0.2s-0.2-0.1-0.2-0.2v-0.8
						C27.1,24.1,27.2,24,27.3,24z"/>
				</g>
			</g>
		</g>
		<g>
			<g>
				<g>
					<path class="st15" d="M26.1,25.2h0.7c0.1,0,0.2,0.1,0.2,0.2s-0.1,0.2-0.2,0.2h-0.7c-0.1,0-0.2-0.1-0.2-0.2
						C25.9,25.3,26,25.2,26.1,25.2z"/>
				</g>
			</g>
			<g>
				<g>
					<path class="st15" d="M27.7,25.2h0.7c0.1,0,0.2,0.1,0.2,0.2s-0.1,0.2-0.2,0.2h-0.7c-0.1,0-0.2-0.1-0.2-0.2
						C27.5,25.3,27.6,25.2,27.7,25.2z"/>
				</g>
			</g>
		</g>
	</g>
	<g>
		<g>
			<g>
				<g>
					<path class="st22" d="M14.3,37c0.1,0,0.2,0.1,0.2,0.2V38c0,0.1-0.1,0.2-0.2,0.2s-0.2-0.1-0.2-0.2v-0.8
						C14.1,37.1,14.2,37,14.3,37z"/>
				</g>
				<g>
					<path class="st22" d="M14.3,35.5c0.1,0,0.2,0.1,0.2,0.2v0.8c0,0.1-0.1,0.2-0.2,0.2s-0.2-0.1-0.2-0.2v-0.8
						C14.1,35.6,14.2,35.5,14.3,35.5z"/>
				</g>
			</g>
			<g>
				<g>
					<path class="st22" d="M13,36.7h0.7c0.1,0,0.2,0.1,0.2,0.2c0,0.1-0.1,0.2-0.2,0.2H13c-0.1,0-0.2-0.1-0.2-0.2S12.9,36.7,13,36.7z
						"/>
				</g>
				<g>
					<path class="st22" d="M14.7,36.7h0.7c0.1,0,0.2,0.1,0.2,0.2c0,0.1-0.1,0.2-0.2,0.2h-0.7c-0.1,0-0.2-0.1-0.2-0.2
						S14.6,36.7,14.7,36.7z"/>
				</g>
			</g>
		</g>
	</g>
	<g>
		<g>
			<g>
				<g>
					<path class="st3" d="M72.9,17.6L72.9,17.6c-1,0.4-2.2-0.1-2.6-1.1l0,0c-0.4-1,0.1-2.2,1.1-2.6l0,0c1-0.4,2.2,0.1,2.6,1.1l0,0
						C74.6,15.9,74.1,17.1,72.9,17.6z"/>
				</g>
			</g>
		</g>
		<path class="st15" d="M71.7,15.9l-0.3-0.5c0-0.1,0-0.1,0.1-0.1l0.6,0.1h0.7c0.1,0,0.1,0.1,0.1,0.2l-0.4,0.5l-0.4,0.5
			c0,0.1-0.1,0-0.2,0L71.7,15.9z"/>
	</g>
</g>
</svg>
