<?xml version="1.0" encoding="utf-8"?>
<!-- Generator: Adobe Illustrator 26.0.1, SVG Export Plug-In . SVG Version: 6.00 Build 0)  -->
<svg version="1.1" id="Layer_1" xmlns="http://www.w3.org/2000/svg" xmlns:xlink="http://www.w3.org/1999/xlink" x="0px" y="0px"
	 viewBox="0 0 103.2 65.8" style="enable-background:new 0 0 103.2 65.8;" xml:space="preserve">
<style type="text/css">
	.st0{display:none;opacity:0.54;fill:#FFFFFF;enable-background:new    ;}
	.st1{opacity:3.000000e-02;}
	.st2{fill:#FFFFFF;}
	.st3{fill:#C0E9FC;}
	.st4{fill:#38B7FC;}
	.st5{fill:#1A9EFE;}
	.st6{fill:#D4EDFF;}
	.st7{fill:url(#SVGID_1_);}
	.st8{fill:url(#SVGID_00000005228447941132715270000015052622994821669770_);}
	.st9{fill:url(#SVGID_00000139270562355175779260000009111258188300722347_);}
	.st10{fill:url(#SVGID_00000098930559913618184780000006849985210742454431_);}
	.st11{fill:#3A66EB;}
	.st12{fill:url(#SVGID_00000090985901937746682710000000703959861948622775_);}
	.st13{fill:url(#SVGID_00000116941346150470085860000000224421867164559243_);}
	.st14{fill:#1460DF;}
	.st15{fill:url(#SVGID_00000099657141844384073380000015549265291455219841_);}
	.st16{opacity:0.5;fill:#3A66EB;enable-background:new    ;}
	.st17{fill:#49B8F6;}
	.st18{opacity:0.1;fill:#FFFFFF;enable-background:new    ;}
	.st19{fill:#FFAA01;}
	.st20{fill:#F88800;}
	.st21{fill:#2E3062;}
	.st22{opacity:0.4;fill:#FFFFFF;enable-background:new    ;}
</style>
<rect x="-11.1" y="-28.9" class="st0" width="125.1" height="127.9"/>
<g>
	<g class="st1">
		<path class="st2" d="M83.5,62.7c-4.7-3.5-12.6-12.3-2.1-26.1c13-17-2.6-24-17.4-23.3C52,13.9,38.6-1.2,25.1,1.5
			c-17.9,3.6-6.3,19-18.4,27.2c-10.3,7.1-5.9,28.6,7.5,33.9L83.5,62.7L83.5,62.7z"/>
		<ellipse class="st2" cx="47.1" cy="63" rx="42.5" ry="2.8"/>
	</g>
	<g>
		<path class="st3" d="M74.7,24.1v35.2c0,0.1,0,0.2,0,0.4l-0.1,0.4c-0.3,0.5-0.8,0.9-1.4,0.9H18.5c-0.6,0-1.2-0.4-1.4-0.9
			c0-0.1-0.1-0.2-0.1-0.4c0-0.1,0-0.2,0-0.4V24.1c0-0.5,0.2-1,0.6-1.3c0.3-0.2,0.6-0.4,1-0.4h54.7c0.4,0,0.7,0.1,1,0.4
			C74.5,23.2,74.7,23.6,74.7,24.1z"/>
		<path class="st4" d="M79.4,61.5c-1.2,0.6-2.6,1-3.9,1H16.1c-1.4,0-2.8-0.3-3.9-1H79.4z"/>
		<path class="st5" d="M72.3,24.5H19.2c-0.4,0-0.8,0.4-0.8,0.8v32.5c0,0.4,0.4,0.8,0.8,0.8h53.1c0.4,0,0.8-0.4,0.8-0.8V25.3
			C73.1,24.8,72.8,24.5,72.3,24.5z"/>
		<path class="st3" d="M12.2,60.1h67.2v1.5H12.2V60.1z"/>
		<path class="st4" d="M62.2,60.9H29.4c-1.5,0-2.7-0.4-2.7-0.9h38C64.9,60.6,63.6,60.9,62.2,60.9z"/>
		<path class="st6" d="M46.2,23.7h-1.9c0,0-0.1,0-0.1-0.1s0-0.1,0.1-0.1h1.9C46.3,23.5,46.3,23.5,46.2,23.7
			C46.3,23.6,46.3,23.7,46.2,23.7z"/>
	</g>
	<g>
		<g>
			
				<linearGradient id="SVGID_1_" gradientUnits="userSpaceOnUse" x1="169.9109" y1="502.9923" x2="202.0823" y2="470.8211" gradientTransform="matrix(0.9859 0.1671 -0.1671 0.9859 -39.3523 -468.6222)">
				<stop  offset="0" style="stop-color:#FFFFFF"/>
				<stop  offset="0.194" style="stop-color:#FFFFFF"/>
				<stop  offset="0.2457" style="stop-color:#FFFDF9"/>
				<stop  offset="0.3149" style="stop-color:#FFF6E8"/>
				<stop  offset="0.394" style="stop-color:#FFECCC"/>
				<stop  offset="0.4804" style="stop-color:#FFDEA5"/>
				<stop  offset="0.5718" style="stop-color:#FFCB74"/>
				<stop  offset="0.6258" style="stop-color:#FFBF53"/>
				<stop  offset="1" style="stop-color:#FF7D30"/>
			</linearGradient>
			<path class="st7" d="M82,30.4c-1.2,0.9-2.5,1.8-3.7,2.6c-1.3,0.9-2.5,1.7-3.8,2.6c-6,4.1-11.9,8.3-18.7,11.3
				c-3.3,1.5-12.4,4.9-14.2,0.9l-0.7,3.3c4.9,3.2,14.8,0,19.6-2.2c5.7-2.7,11.5-5.4,17-8.5c1.4-0.7,2.7-1.5,4.1-2.3s2.7-1.5,4.1-2.4
				L82,30.4z"/>
			
				<linearGradient id="SVGID_00000176024898646379363120000000677234718860341131_" gradientUnits="userSpaceOnUse" x1="163.1987" y1="495.6628" x2="175.9379" y2="482.9236" gradientTransform="matrix(0.9859 0.1671 -0.1671 0.9859 -39.3523 -468.6222)">
				<stop  offset="0.2401" style="stop-color:#FFFFFF"/>
				<stop  offset="0.9008" style="stop-color:#FFFFFF;stop-opacity:0"/>
			</linearGradient>
			<path style="fill:url(#SVGID_00000176024898646379363120000000677234718860341131_);" d="M48.6,34.8c-1.2,0.9-2.4,1.9-3.6,3
				c-1.1,1.1-2.2,2.2-3.2,3.5c-0.5,0.6-0.9,1.3-1.3,2c-0.4,0.7-0.7,1.5-0.9,2.4s-0.2,1.8,0.1,2.8c0.2,0.5,0.4,0.9,0.7,1.3
				s0.7,0.7,1.1,1v-3c-0.2-0.5-0.3-1.1-0.2-1.8s0.3-1.3,0.6-2s0.6-1.3,1-1.9c0.8-1.3,1.7-2.4,2.8-3.6c1-1.1,2.1-2.2,3.3-3.2
				c2.3-2-0.5-0.1,2.1-1.7C48.4,35,51.1,32.9,48.6,34.8z"/>
		</g>
		<g>
			<g>
				<g>
					
						<linearGradient id="SVGID_00000034778851162859338020000012628756435215722129_" gradientUnits="userSpaceOnUse" x1="1190.1377" y1="3876.5103" x2="1196.1066" y2="3876.5103" gradientTransform="matrix(0.52 0.8541 -0.8541 0.52 2781.563 -2997.606)">
						<stop  offset="0" style="stop-color:#FFFFFF"/>
						<stop  offset="1" style="stop-color:#64C4F4"/>
					</linearGradient>
					<path style="fill:url(#SVGID_00000034778851162859338020000012628756435215722129_);" d="M96.7,32.4l-2.5,5.9
						c-0.3,0.7-0.9,1.2-1.6,1.5L85.7,42c-0.2,0.1-0.4-0.1-0.4-0.4l1-4.9L96.7,32.4z"/>
					
						<linearGradient id="SVGID_00000114060746568432073470000006310482234732592552_" gradientUnits="userSpaceOnUse" x1="7185.6646" y1="3876.5879" x2="7191.6333" y2="3876.5879" gradientTransform="matrix(-0.52 -0.8541 -0.8541 0.52 7132.4927 4148.6587)">
						<stop  offset="0" style="stop-color:#64C4F4"/>
						<stop  offset="1" style="stop-color:#FFFFFF"/>
					</linearGradient>
					<path style="fill:url(#SVGID_00000114060746568432073470000006310482234732592552_);" d="M90.3,21.9L84,21.4
						c-0.8-0.1-1.5,0.2-2,0.8l-5.2,5.1c-0.2,0.2-0.1,0.5,0.1,0.5l4.8,1.4L90.3,21.9z"/>
				</g>
				<path class="st11" d="M83.6,35.3l-1.9-3.1c-0.4-0.7-0.2-1.7,0.5-2.1l0.2-0.1l3.5,5.7l-0.2,0.1C85,36.2,84.1,36,83.6,35.3z"/>
				
					<linearGradient id="SVGID_00000109010128472160900910000008524075707363319728_" gradientUnits="userSpaceOnUse" x1="1178.7056" y1="3869.2236" x2="1192.9" y2="3869.2236" gradientTransform="matrix(0.52 0.8541 -0.8541 0.52 2781.563 -2997.606)">
					<stop  offset="0" style="stop-color:#FFFFFF"/>
					<stop  offset="1" style="stop-color:#64C4F4"/>
				</linearGradient>
				<path style="fill:url(#SVGID_00000109010128472160900910000008524075707363319728_);" d="M103,21.4c-7.1-3.1-18.2-0.3-21.1,7.5
					c-0.1,0.2-0.1,0.5,0.1,0.7l4.1,6.8c0.1,0.2,0.4,0.4,0.6,0.4C95,37.7,102.5,29.1,103,21.4z"/>
				<g>
					<g>
						
							<linearGradient id="SVGID_00000157269979789754115380000007942850290972655514_" gradientUnits="userSpaceOnUse" x1="1185.7354" y1="3883.854" x2="1185.7354" y2="3870.5713" gradientTransform="matrix(0.52 0.8541 -0.8541 0.52 2781.563 -2997.606)">
							<stop  offset="0" style="stop-color:#64C4F4"/>
							<stop  offset="1" style="stop-color:#FFFFFF"/>
						</linearGradient>
						<path style="fill:url(#SVGID_00000157269979789754115380000007942850290972655514_);" d="M81.5,35.6l-1.1-1.7l6.1-3.9
							c0.7-0.5,1.5-0.9,2.3-1.2l3.3-1.3l0.3,0.5l-2.6,2.4c-0.6,0.6-1.4,1.1-2.1,1.5L81.5,35.6z"/>
					</g>
				</g>
				<path class="st5" d="M97.6,32.4c2-2,3.6-4.5,4.5-7c-0.3,0.1-0.6,0.3-0.9,0.5c-0.8,0.8-1.6,1.7-2.3,2.5c-0.4,0.5-1.2,0.4-1.7-0.2
					c-1.2-1.6-2.2-3.2-3-5c-0.3-0.6,0-1.4,0.6-1.5c1.1-0.3,2.2-0.6,3.3-0.9c0.3-0.1,0.6-0.3,0.9-0.5c-2.7-0.4-5.6-0.1-8.3,0.8
					C92.3,25.2,94.6,29.1,97.6,32.4z"/>
				<path class="st14" d="M92.1,21.3C92.1,21.3,92.1,21.4,92.1,21.3c0.3,0.4,0.7,0.6,1,0.5l3.6-0.9c0.3-0.1,0.6-0.4,0.6-0.7
					c-0.1,0-0.1,0-0.2,0c0,0.3-0.2,0.5-0.5,0.6L93,21.6c-0.3,0.1-0.7-0.1-0.8-0.4L92,20.7c-0.1,0-0.1,0-0.2,0L92.1,21.3z"/>
				<path class="st14" d="M98.1,31.1L98.1,31.1c-0.3-0.4-0.3-0.8,0-1.1l2.5-2.8c0.2-0.3,0.6-0.3,0.9-0.2c0,0.1-0.1,0.1-0.1,0.2
					c-0.2-0.1-0.5,0-0.7,0.2l-2.5,2.8c-0.2,0.2-0.2,0.6,0,0.9l0.4,0.4l-0.1,0.1L98.1,31.1z"/>
				
					<linearGradient id="SVGID_00000165930544058049566780000015794334476810284681_" gradientUnits="userSpaceOnUse" x1="3316.3242" y1="4973.4561" x2="3321.9927" y2="4974.3311" gradientTransform="matrix(-8.527540e-02 0.9964 -0.9964 -8.527540e-02 5337.1357 -2858.6797)">
					<stop  offset="0" style="stop-color:#FFFFFF"/>
					<stop  offset="1" style="stop-color:#64C4F4"/>
				</linearGradient>
				<path style="fill:url(#SVGID_00000165930544058049566780000015794334476810284681_);" d="M97.9,27c-1.6-0.1-2.7-1.5-2.6-3.1
					s1.5-2.7,3.1-2.6c1.6,0.1,2.7,1.5,2.6,3.1S99.5,27.1,97.9,27z"/>
				<path class="st11" d="M99.7,25.9c-1,0.8-2.4,0.7-3.3-0.3c-0.8-1-0.7-2.4,0.3-3.3c1-0.8,2.4-0.7,3.3,0.3
					C100.8,23.6,100.7,25.1,99.7,25.9z"/>
				<g>
					<path class="st2" d="M99.8,23.1L99.8,23.1l-0.2-0.2c-0.1,0-0.1,0-0.1,0c-0.1,0.1-0.1,0.2-0.1,0.3l0,0c0,0,0,0.1,0.1,0.1
						l0.1,0.1c0.1,0,0.1,0,0.1,0C99.9,23.4,99.9,23.2,99.8,23.1z M99.5,23.2L99.5,23.2L99.5,23.2L99.5,23.2z"/>
					<path class="st2" d="M99.4,22.7C99.4,22.6,99.4,22.6,99.4,22.7c-0.5-0.4-1.1-0.5-1.6-0.4c-0.1,0-0.2,0.1-0.2,0.2c0,0,0,0,0,0.1
						s0.1,0.1,0.2,0.1c0.4-0.1,0.8,0,1.2,0.3h0.1c0.1,0,0.1,0,0.1-0.1C99.4,22.8,99.4,22.8,99.4,22.7z"/>
				</g>
				<path class="st16" d="M99.7,25.9c0.4-0.3,0.7-0.8,0.8-1.3c-0.1,0-0.1,0.1-0.2,0.1c-0.2,0.2-0.4,0.4-0.7,0.5
					c-0.3,0.1-0.5,0-0.8-0.2s-0.4-0.7-0.7-0.9c-0.4-0.3-0.9-0.1-1.3-0.4c-0.2-0.1-0.3-0.3-0.4-0.5c-0.1-0.1-0.1-0.3-0.1-0.5
					c-0.6,0.8-0.6,2,0.1,2.8C97.2,26.6,98.7,26.7,99.7,25.9z"/>
			</g>
		</g>
	</g>
	<circle class="st2" cx="45.3" cy="42.1" r="10.3"/>
	<path class="st17" d="M86.1,56.2h-0.7v-0.7c0-0.2-0.2-0.4-0.4-0.4l0,0c-0.2,0-0.4,0.2-0.4,0.4v0.7h-0.7c-0.2,0-0.4,0.2-0.4,0.4l0,0
		c0,0.2,0.2,0.4,0.4,0.4h0.7v0.7c0,0.2,0.2,0.4,0.4,0.4l0,0c0.2,0,0.4-0.2,0.4-0.4V57h0.7c0.2,0,0.4-0.2,0.4-0.4l0,0
		C86.5,56.4,86.3,56.2,86.1,56.2z"/>
	<path class="st17" d="M7.4,23.2H7v-0.3c0-0.1-0.1-0.2-0.2-0.2l0,0c-0.1,0-0.2,0.1-0.2,0.2v0.3H6.3c-0.1,0-0.2,0.1-0.2,0.2l0,0
		c0,0.1,0.1,0.2,0.2,0.2h0.3v0.3c0,0.1,0.1,0.2,0.2,0.2l0,0C7,24.2,7,24.1,7,24v-0.3h0.3c0.1,0,0.2-0.1,0.2-0.2l0,0
		C7.6,23.3,7.5,23.2,7.4,23.2z"/>
	<path class="st18" d="M18.5,24.5v29.7l15.4-29.7C33.9,24.5,18.5,24.5,18.5,24.5z M37.5,24.5L19.9,58.6h10.9l17.6-34.1H37.5z"/>
	<g>
		<path class="st19" d="M15.2,51.2l1,1.2c0.1,0.1,0.4,0.2,0.5,0l2.9-2.6l1.2-1.1L19.3,47l-0.7,0.6l-3.4,3C15,50.8,15,51.1,15.2,51.2
			z"/>
		<path class="st20" d="M18.6,47.7c0.1,0.6,0.4,1.4,1,2.1l1.2-1.1L19.3,47L18.6,47.7z"/>
		<path class="st21" d="M10.5,56.4L10.5,56.4c0.3,0.3,0.7,0.3,1,0.1l4.7-4.1l-0.9-1l-4.8,4C10.2,55.6,10.2,56.1,10.5,56.4z"/>
		<g>
			<path class="st21" d="M20.2,39.4c-2.6,2.3-2.9,6.3-0.6,8.9c2.3,2.6,6.3,2.9,8.9,0.6s2.9-6.3,0.6-8.9
				C26.8,37.4,22.8,37.1,20.2,39.4z M20.8,40.1c2.2-1.9,5.6-1.7,7.5,0.5s1.7,5.6-0.5,7.5c-2.2,1.9-5.6,1.7-7.5-0.5
				C18.4,45.5,18.6,42.1,20.8,40.1z"/>
			<path class="st22" d="M19.6,41.8c-1.3,2.6-0.2,5.9,2.4,7.2c0.2,0.1,0.5,0.2,0.7,0.3c0.6,0.2,1.2,0.3,1.8,0.3
				c0.6,0,1.3-0.2,1.9-0.4c0.9-0.4,1.7-1,2.3-1.9c0.2-0.2,0.3-0.5,0.4-0.7c1.3-2.6,0.2-5.9-2.4-7.2c-0.3-0.1-0.5-0.2-0.8-0.3
				c-1-0.3-2-0.3-3-0.1c-0.6,0.2-1.2,0.4-1.7,0.8c-0.5,0.4-0.9,0.8-1.3,1.3C19.8,41.4,19.7,41.6,19.6,41.8z"/>
		</g>
	</g>
	<g id="logo_00000036969808677920257300000010708457952394843052_">
		<g id="XMLID_00000131350616546097060860000004559838304066580364_">
			<g id="XMLID_00000096744046999267199100000013270886828857864601_">
				<path id="XMLID_00000036974181330839219320000014656813487167997589_" class="st5" d="M40.5,44.1h-1.1c-0.5,0-1-0.4-1-1v-1.2
					c0-0.5,0.4-1,1-1h1.1V44.1z"/>
			</g>
			<g id="XMLID_00000168092119229272288910000014243129473804230539_">
				<g id="XMLID_00000098922009492943407420000003452301740208046742_">
					<path id="XMLID_00000162350104056465199610000004361943713329641349_" class="st5" d="M38.5,43.5c0,0,0-0.1-0.1-0.2
						c0-0.1-0.1-0.1-0.1-0.3c0,0,0-0.1-0.1-0.2c0-0.1,0-0.1-0.1-0.2c0-0.1,0-0.1-0.1-0.2v-0.1v-0.1c0-0.1,0-0.2-0.1-0.2v-0.1v-0.1
						v-0.1c0,0,0,0,0-0.1c0,0,0,0,0-0.1s0-0.2,0-0.3s0-0.2,0-0.3v-0.1c0,0,0,0,0-0.1v-0.1v-0.1v-0.1v-0.1v-0.1c0,0,0,0,0-0.1
						s0-0.2,0-0.3s0-0.2,0-0.3s0-0.2,0-0.2v-0.1c0,0,0,0,0-0.1l0,0c0-0.1,0-0.1,0.1-0.2l0,0l0,0v-0.1c0-0.1,0-0.1,0.1-0.2
						c0,0,0-0.1,0.1-0.2c0,0,0-0.1,0.1-0.1v-0.1c0.1-0.1,0.1-0.2,0.1-0.2l0.3,0.1c0,0,0,0.1-0.1,0.2v0.1v0.1c0,0,0,0.1,0,0.2
						c0,0,0,0.1,0,0.2V39l0,0l0,0c0,0.1,0,0.1,0,0.2l0,0l0,0v0.1c0,0.1,0,0.1,0,0.2s0,0.2,0,0.2c0,0.1,0,0.2,0,0.2v0.5v0.1v0.1v0.1
						v0.1c0,0,0,0,0,0.1V41c0,0.1,0,0.2,0,0.2c0,0.1,0,0.2,0,0.2s0,0,0,0.1c0,0,0,0,0,0.1v0.1v0.1v0.1c0,0.1,0,0.1,0.1,0.2v0.1v0.1
						c0,0.1,0,0.1,0.1,0.2c0,0.1,0,0.1,0.1,0.2c0,0,0,0.1,0.1,0.1c0,0.1,0.1,0.2,0.1,0.2c0.1,0.1,0.1,0.2,0.1,0.2L38.5,43.5z"/>
				</g>
				<g id="XMLID_00000036241405926246321510000004409564841002955671_">
					<circle id="XMLID_00000145737585710005501780000015343077073083624584_" class="st5" cx="38.6" cy="38.1" r="0.5"/>
				</g>
			</g>
		</g>
		<g id="XMLID_00000040539817768664223910000001065189908968702348_">
			<g id="XMLID_00000032631246729815419420000006763424125481602989_">
				<path id="XMLID_00000047038165056548195720000012778095907060234166_" class="st5" d="M50.4,44.1h1.1c0.5,0,1-0.4,1-1v-1.2
					c0-0.5-0.4-1-1-1h-1.1V44.1L50.4,44.1z"/>
			</g>
			<g id="XMLID_00000068642141845119770200000010037384544861339315_">
				<g id="XMLID_00000045602587057693974480000018254358004382188171_">
					<path id="XMLID_00000063597638156199970580000003099765839330430625_" class="st5" d="M52.4,43.5c0,0,0-0.1,0.1-0.2
						c0-0.1,0.1-0.1,0.1-0.3c0,0,0-0.1,0.1-0.2c0-0.1,0-0.1,0.1-0.2c0-0.1,0-0.1,0.1-0.2v-0.1v-0.1c0-0.1,0-0.2,0.1-0.2v-0.1v-0.1
						v-0.1c0,0,0,0,0-0.1c0,0,0,0,0-0.1s0-0.2,0-0.3s0-0.2,0-0.3v-0.1c0,0,0,0,0-0.1v-0.1v-0.1v-0.1v-0.1v-0.1c0,0,0,0,0-0.1
						s0-0.2,0-0.3s0-0.2,0-0.3s0-0.2,0-0.2v-0.1c0,0,0,0,0-0.1l0,0c0-0.1,0-0.1-0.1-0.2l0,0l0,0v-0.1c0-0.1,0-0.1-0.1-0.2
						c0,0,0-0.1-0.1-0.2c0,0,0-0.1-0.1-0.1v-0.1c-0.1-0.1-0.1-0.2-0.1-0.2l-0.3,0.1c0,0,0,0.1,0.1,0.2v0.1v0.1c0,0,0,0.1,0,0.2
						c0,0,0,0.1,0,0.2V39l0,0l0,0c0,0.1,0,0.1,0,0.2l0,0l0,0v0.1c0,0.1,0,0.1,0,0.2s0,0.2,0,0.2c0,0.1,0,0.2,0,0.2v0.5v0.1v0.1v0.1
						v0.1c0,0,0,0,0,0.1V41c0,0.1,0,0.2,0,0.2c0,0.1,0,0.2,0,0.2s0,0,0,0.1c0,0,0,0,0,0.1v0.1v0.1v0.1c0,0.1,0,0.1-0.1,0.2v0.1v0.1
						c0,0.1,0,0.1-0.1,0.2c0,0.1,0,0.1-0.1,0.2c0,0,0,0.1-0.1,0.1c0,0.1-0.1,0.2-0.1,0.2c-0.1,0.1-0.1,0.2-0.1,0.2L52.4,43.5
						L52.4,43.5z"/>
				</g>
				<g id="XMLID_00000102515556526098452560000011313239601920789943_">
					<circle id="XMLID_00000151544720571707757100000017467793649575265160_" class="st5" cx="52.3" cy="38.1" r="0.5"/>
				</g>
			</g>
		</g>
		<path class="st5" d="M44,42.4c-0.1,0.4-0.4,0-0.8-0.1c-0.5-0.1-0.9,0.3-0.8-0.2c0.1-0.4,0.5-0.7,1-0.6
			C43.8,41.5,44.1,41.9,44,42.4z M48.5,42.1c0.1,0.4-0.4,0.1-0.8,0.2c-0.5,0.1-0.8,0.5-0.8,0.1c-0.1-0.4,0.3-0.8,0.7-0.9
			C48,41.4,48.4,41.7,48.5,42.1z"/>
		<path class="st5" d="M51.2,40.9c-0.4-1.1-1.4-1.9-2.6-2.1l-1-0.1c-1.4-0.1-2.8-0.1-4.2,0l-1,0.1c-1.3,0.1-2.3,1-2.7,2.1
			c-0.1,0.4-0.2,0.8-0.2,1.3l0.1,1.1c0,0.3,0.1,0.6,0.2,0.8c0.4,1,1.3,1.8,2.5,2c1.1,0.2,2.1,0.3,3.2,0.3c1.1,0,2.2-0.1,3.2-0.3
			c0.7-0.1,1.4-0.5,1.8-1c0.3-0.3,0.5-0.6,0.6-1c0.1-0.3,0.2-0.5,0.2-0.8l0.1-1.1C51.4,41.8,51.4,41.3,51.2,40.9z M50.1,42.1l-0.1,1
			c-0.1,0.9-0.7,1.6-1.6,1.7c-1,0.2-2,0.2-3,0.2s-2-0.1-3-0.2c-0.9-0.1-1.5-0.9-1.6-1.7L40.7,42c-0.1-1,0.7-1.9,1.7-2l1-0.1
			c0.6-0.1,1.3-0.1,1.9-0.1c0.6,0,1.3,0,1.9,0.1l1,0.1C49.4,40.1,50.2,41,50.1,42.1L50.1,42.1z"/>
		<path class="st5" d="M44,42.4c-0.1,0.4-0.4,0-0.8-0.1c-0.5-0.1-0.9,0.3-0.8-0.2c0.1-0.4,0.5-0.7,1-0.6
			C43.8,41.5,44.1,41.9,44,42.4z M47.7,42.3c-0.5,0.1-0.8,0.5-0.8,0.1c-0.1-0.4,0.3-0.8,0.7-0.9c0.5-0.1,0.9,0.2,1,0.6
			C48.6,42.5,48.2,42.2,47.7,42.3L47.7,42.3z"/>
		<path id="XMLID_00000039096458745243983830000001972934785461371282_" class="st5" d="M44,42.4c-0.1,0.4-0.4,0-0.8-0.1
			c-0.5-0.1-0.9,0.3-0.8-0.2c0.1-0.4,0.5-0.7,1-0.6C43.8,41.5,44.1,41.9,44,42.4z M47.7,42.3c-0.5,0.1-0.8,0.5-0.8,0.1
			c-0.1-0.4,0.3-0.8,0.7-0.9c0.5-0.1,0.9,0.2,1,0.6C48.6,42.5,48.2,42.2,47.7,42.3L47.7,42.3z"/>
		<path class="st5" d="M46.5,43.6c0,0.3-0.1,0.5-0.3,0.7s-0.4,0.3-0.7,0.3h-0.2c-0.5,0-1-0.4-1-1c0,0,0-0.1,0.1-0.1l0.1-0.1h1.7
			C46.4,43.5,46.5,43.5,46.5,43.6z"/>
	</g>
	<g>
		<path class="st2" d="M63.6,19.2L63.6,19.2c0,1-0.8,1.8-1.8,1.8H31.1c-1,0-1.8-0.8-1.8-1.8l0,0c0-1,0.8-1.8,1.8-1.8h30.8
			C62.8,17.4,63.6,18.2,63.6,19.2z"/>
		<path class="st19" d="M61.8,17.4H57v3.5h4.9c1,0,1.8-0.8,1.8-1.8l0,0C63.6,18.2,62.8,17.4,61.8,17.4z"/>
		<g>
			<g>
				<path class="st2" d="M60.6,19.5c-0.3-0.3-0.4-0.8,0-1.2c0.3-0.3,0.8-0.4,1.2,0c0.3,0.3,0.4,0.8,0,1.2
					C61.5,19.8,60.9,19.9,60.6,19.5z M61.6,18.5c-0.2-0.2-0.6-0.2-0.8,0s-0.2,0.6,0,0.8s0.6,0.2,0.8,0
					C61.8,19.1,61.8,18.7,61.6,18.5z"/>
			</g>
			<g>
				<path class="st2" d="M59.7,20.5c-0.1-0.1-0.1-0.1,0-0.2l0.9-1c0.1-0.1,0.1-0.1,0.2,0c0.1,0.1,0.1,0.1,0,0.2l-0.9,1
					C59.8,20.6,59.7,20.6,59.7,20.5z"/>
			</g>
		</g>
	</g>
	<g>
		<path class="st3" d="M6,59.5v-0.9H5.1c0-0.2-0.1-0.4-0.2-0.6l0.6-0.6l-0.7-0.7l-0.6,0.6C4,57.1,3.7,57,3.4,57v-0.9H2.5V57
			c-0.2,0-0.4,0.1-0.5,0.2l-0.6-0.6l-0.7,0.7l0.6,0.6C1.1,58.1,1,58.4,1,58.7H0.2v0.9L1,59.4c0.1,0.2,0.2,0.5,0.3,0.7l-0.6,0.6
			l0.7,0.7L2,60.7c0.2,0.1,0.5,0.2,0.7,0.3v0.9h0.9v-1c0.2-0.1,0.4-0.1,0.6-0.3l0.6,0.6l0.7-0.7l-0.6-0.6C5,59.8,5,59.7,5.1,59.5H6z
			 M3.7,59.5c-0.3,0.3-0.9,0.3-1.2,0s-0.3-0.9,0-1.2c0.3-0.3,0.9-0.3,1.2,0C4,58.7,4,59.2,3.7,59.5z"/>
		<path class="st3" d="M82.2,46.1l0.1-0.6l-0.5-0.1c0-0.1,0-0.3-0.1-0.4l0.4-0.3l-0.3-0.5l-0.4,0.3c-0.1-0.1-0.3-0.2-0.4-0.3
			l0.1-0.5l-0.6-0.1l-0.1,0.5c-0.1,0-0.2,0-0.3,0.1l-0.3-0.4l-0.5,0.3l0.3,0.4c-0.1,0.1-0.2,0.3-0.3,0.4l-0.5-0.1l-0.1,0.6l0.5,0.1
			c0,0.1,0,0.3,0.1,0.4l-0.4,0.3l0.3,0.5l0.4-0.3c0.1,0.1,0.3,0.2,0.4,0.2v0.6l0.6,0.1l0.1-0.6c0.1,0,0.2,0,0.4-0.1l0.3,0.4l0.5-0.3
			l-0.3-0.4c0.1-0.1,0.1-0.2,0.2-0.3L82.2,46.1z M80.8,45.9c-0.2,0.2-0.6,0.1-0.7-0.1c-0.2-0.2-0.1-0.6,0.1-0.7
			c0.2-0.2,0.6-0.1,0.7,0.1C81.1,45.4,81,45.7,80.8,45.9z"/>
	</g>
	<g>
		<path class="st2" d="M24.5,16c0.7,0,1.2,0.5,1.2,1.2s-0.5,1.2-1.2,1.2s-1.2-0.5-1.2-1.2S23.9,16,24.5,16z M24.5,18
			c0.5,0,0.8-0.4,0.8-0.8c0-0.5-0.4-0.8-0.8-0.8c-0.5,0-0.8,0.4-0.8,0.8C23.7,17.6,24.1,18,24.5,18z"/>
	</g>
	<g>
		<g>
			<g>
				<g>
					<path class="st2" d="M28,26.4c0.1,0,0.2,0.1,0.2,0.2v0.8c0,0.1-0.1,0.2-0.2,0.2s-0.2-0.1-0.2-0.2v-0.8
						C27.8,26.5,27.9,26.4,28,26.4z"/>
				</g>
			</g>
			<g>
				<g>
					<path class="st2" d="M28,24.9c0.1,0,0.2,0.1,0.2,0.2v0.8c0,0.1-0.1,0.2-0.2,0.2s-0.2-0.1-0.2-0.2v-0.8
						C27.8,25,27.9,24.9,28,24.9z"/>
				</g>
			</g>
		</g>
		<g>
			<g>
				<g>
					<path class="st2" d="M26.8,26.1h0.7c0.1,0,0.2,0.1,0.2,0.2c0,0.1-0.1,0.2-0.2,0.2h-0.7c-0.1,0-0.2-0.1-0.2-0.2
						C26.6,26.2,26.7,26.1,26.8,26.1z"/>
				</g>
			</g>
			<g>
				<g>
					<path class="st2" d="M28.4,26.1h0.7c0.1,0,0.2,0.1,0.2,0.2c0,0.1-0.1,0.2-0.2,0.2h-0.7c-0.1,0-0.2-0.1-0.2-0.2
						C28.2,26.2,28.3,26.1,28.4,26.1z"/>
				</g>
			</g>
		</g>
	</g>
	<g>
		<g>
			<g>
				<path class="st17" d="M15.1,37.7c0.1,0,0.2,0.1,0.2,0.2v0.8c0,0.1-0.1,0.2-0.2,0.2c-0.1,0-0.2-0.1-0.2-0.2v-0.8
					C14.9,37.8,15,37.7,15.1,37.7z"/>
			</g>
			<g>
				<path class="st17" d="M15.1,36.3c0.1,0,0.2,0.1,0.2,0.2v0.8c0,0.1-0.1,0.2-0.2,0.2c-0.1,0-0.2-0.1-0.2-0.2v-0.8
					C14.9,36.4,15,36.3,15.1,36.3z"/>
			</g>
		</g>
		<g>
			<g>
				<path class="st17" d="M13.9,37.4h0.7c0.1,0,0.2,0.1,0.2,0.2c0,0.1-0.1,0.2-0.2,0.2h-0.7c-0.1,0-0.2-0.1-0.2-0.2
					S13.8,37.4,13.9,37.4z"/>
			</g>
			<g>
				<path class="st17" d="M15.5,37.4h0.7c0.1,0,0.2,0.1,0.2,0.2c0,0.1-0.1,0.2-0.2,0.2h-0.7c-0.1,0-0.2-0.1-0.2-0.2
					C15.3,37.5,15.4,37.4,15.5,37.4z"/>
			</g>
		</g>
	</g>
	<g>
		<g>
			<g>
				<g>
					<path class="st5" d="M73.1,18.6L73.1,18.6c-1,0.4-2.2-0.1-2.6-1.1l0,0c-0.4-1,0.1-2.2,1.1-2.6l0,0c1-0.4,2.2,0.1,2.6,1.1l0,0
						C74.7,16.9,74.2,18.1,73.1,18.6z"/>
				</g>
			</g>
		</g>
		<path class="st2" d="M71.9,16.9l-0.3-0.5c0-0.1,0-0.1,0.1-0.1l0.6,0.1H73c0.1,0,0.1,0.1,0.1,0.2l-0.4,0.5l-0.4,0.5
			c0,0.1-0.1,0-0.2,0L71.9,16.9z"/>
	</g>
</g>
</svg>
