<?xml version="1.0" encoding="utf-8"?>
<!-- Generator: Adobe Illustrator 26.0.1, SVG Export Plug-In . SVG Version: 6.00 Build 0)  -->
<svg version="1.1" id="Layer_1" xmlns="http://www.w3.org/2000/svg" xmlns:xlink="http://www.w3.org/1999/xlink" x="0px" y="0px"
	 viewBox="0 0 103.2 71.4" style="enable-background:new 0 0 103.2 71.4;" xml:space="preserve">
<style type="text/css">
	.st0{display:none;opacity:0.54;fill:#FFFFFF;enable-background:new    ;}
	.st1{opacity:3.000000e-02;}
	.st2{fill:#FFFFFF;}
	.st3{fill:none;}
	.st4{fill:#1A9EFE;}
	.st5{fill:#71C6FF;}
	.st6{fill:#5A6270;}
	.st7{fill:#1E8CF9;}
	.st8{opacity:0.1;fill:#FFFFFF;enable-background:new    ;}
	.st9{fill:#FFE200;}
	.st10{fill:url(#SVGID_1_);}
	.st11{fill:url(#SVGID_00000088814670496107069200000007248734186646374055_);}
	.st12{fill:url(#SVGID_00000123443508762844436150000003359879745597454220_);}
	.st13{fill:url(#SVGID_00000000209905177035584040000007299478074603002528_);}
	.st14{fill:url(#SVGID_00000177470577456421894090000000985848919124684675_);}
	.st15{fill:url(#SVGID_00000102544417613286973580000000811652428265422504_);}
	.st16{fill:url(#SVGID_00000154412665640497048290000014032635835556272551_);}
	.st17{fill:url(#SVGID_00000161589763876156608950000011691653091581993121_);}
	.st18{fill:#1D73FC;}
	.st19{fill:#FFC900;}
	.st20{fill:#FFAF00;}
	.st21{fill:#49B8F6;}
	.st22{fill:url(#SVGID_00000028320007794799810030000013287266703334763669_);}
	.st23{fill:url(#SVGID_00000165918955793919923200000017135253648556914827_);}
	.st24{fill:url(#SVGID_00000103238850942757571820000004378831573883314319_);}
	.st25{fill:url(#SVGID_00000163783889872887588640000000910753146718641342_);}
	.st26{fill:url(#SVGID_00000010998816762347161070000013971808289365437622_);}
	.st27{fill:url(#SVGID_00000008844562144225583270000014866954283784852888_);}
</style>
<rect x="-11.1" y="-26.3" class="st0" width="125.1" height="127.9"/>
<g>
	<g class="st1">
		<path class="st2" d="M12.3,57.2c0-0.4-9.8-13,1.6-24.6c5.2-5.2,13.8,2.8,12.4-12.5C25.1,6.9,46.7-0.8,57.4,8.1
			c8.6,7.3,8.7-5,21.8,0.8c13.2,5.8,4.5,21.4,9.9,22.9c10.6,2.9,18.9,12.6,10.4,22.1L12.3,57.2z"/>
		<path id="Background_00000176764788783531994060000006698794509258734505_" class="st2" d="M70.3,45.3c0,0,4.6,1.2,7.2,3.6
			c2.6,2.5,8.4,6.6-8.7,12.1c-15.7,5.1-47.2,9.9-41.3,2.2S1,64.6,0.2,57.1C-0.9,46.3,70.3,45.3,70.3,45.3z"/>
		<path id="Background_00000133512354304438702300000000049636450861181886_" class="st2" d="M29.2,56.2c0,0-4.3,2.2-6.2,5.1
			c-1.9,3-6.7,8.3,11.2,9.9c16.5,1.4,48.2-0.9,40.7-7c-7.5-6.2,26.1-4.6,25.3-12C98.8,41.3,29.2,56.2,29.2,56.2z"/>
	</g>
	<g>
		<path class="st3" d="M39.1,27.6H63v23.9H39.1V27.6z"/>
		<g>
			<path class="st4" d="M70.9,40.1c-0.9,7.6-6.5,13.7-13.7,15.6c-0.3,0.1-0.6,0.3-0.8,0.5l-3.3,4.4c-0.1,0.2-0.4,0.2-0.6,0l-3.6-4.4
				c-0.2-0.3-0.5-0.4-0.8-0.5c-8-2-13.9-9.3-13.9-17.9c0-9.6,7.3-17.5,16.7-18.4C63.3,18.3,72.5,27.8,70.9,40.1z"/>
			<path class="st2" d="M60,43v3.5c0,0.5-0.4,1-0.9,1c-0.4,0-0.8,0-1.1,0c-8.8,0-15.9-7.1-15.9-15.9c0-0.3,0-0.6,0-1.1
				s0.5-0.9,1-0.9h3.5c0.3,0,0.5,0.2,0.5,0.4s0,0.4,0.1,0.5c0.2,1.4,0.6,2.7,1.2,4c0.1,0.2,0,0.4-0.1,0.6l-2.1,1.5
				c1.3,3.1,3.7,5.5,6.8,6.8l1.5-2.1c0.1-0.2,0.4-0.2,0.6-0.1c1.3,0.6,2.6,1,4,1.2c0.1,0,0.3,0,0.5,0.1S60,42.8,60,43L60,43z"/>
			<path class="st5" d="M51.7,34.1L51.7,34.1c0,0.2,0.1,0.4,0.4,0.5c1.5,0.5,2.8,1.7,3.4,3.1c0.1,0.2,0.3,0.3,0.5,0.3l0,0
				c0.4,0,0.7-0.4,0.5-0.7c-0.7-1.8-2.2-3.1-4-3.7C52,33.4,51.7,33.7,51.7,34.1z"/>
			<path class="st5" d="M51.7,30.6L51.7,30.6c0,0.3,0.2,0.5,0.5,0.6c3.3,0.7,5.9,3.3,6.7,6.5c0.1,0.3,0.3,0.4,0.5,0.4l0,0
				c0.4,0,0.7-0.4,0.6-0.7c-0.9-3.7-3.9-6.5-7.6-7.4C52.1,30,51.8,30.2,51.7,30.6z"/>
			<path class="st5" d="M51.8,27.2L51.8,27.2c0,0.3,0.2,0.6,0.5,0.7c5,0.9,9,4.8,9.9,9.8c0.1,0.3,0.3,0.5,0.6,0.5l0,0
				c0.4,0,0.7-0.4,0.7-0.8c-1-5.5-5.4-9.9-10.9-10.9C52.2,26.5,51.8,26.8,51.8,27.2z"/>
		</g>
		<path class="st2" d="M81.3,38.4c0,14.1-10.3,25.8-23.8,28.1c-1.5,0.2-3,0.4-4.6,0.4c-0.9,0-1.7,0-2.6-0.1
			c-0.1-0.2-0.1-0.5-0.1-0.7c0-0.1,0-0.2,0-0.2c0.5,0,1.1,0,1.7,0c1.9,0,3.8-0.2,5.6-0.5c13-2.6,22.9-14.1,22.9-28
			c0-7.5-2.9-14.3-7.6-19.4C77.9,23.2,81.3,30.4,81.3,38.4z"/>
		<g>
			<path class="st6" d="M76.4,21.2l-1.7,1.4c-5.2-6.3-13.1-10.4-22-10.4c-8.8,0-16.7,4-22,10.4l-1.5-1.7C34.6,14,43,9.5,52.6,9.5
				C62.4,9.4,71,14,76.4,21.2z"/>
			<path class="st7" d="M52.6,8.2c-8.3,0-15.8,3.3-21.3,8.6l3.2,3.3c4.6-4.6,11-7.5,18.1-7.5s13.5,2.9,18.2,7.5l3.3-3.3
				C68.5,11.5,61,8.2,52.6,8.2z"/>
		</g>
		<g id="speaker_00000055695185362675903070000017123157586558206884_">
			<path class="st7" d="M74.3,22.2c0.1-0.4,0.5-1.2,1.6-1.7c0,0,3.2,2,5.1,7.9c0.7,2.1,1,4.1,1.2,5.8c0.3,2.7,0,5.4-0.7,8
				c-0.1,0.3-0.2,0.5-0.2,0.7c-0.2,0.5-0.7,0.8-1.2,0.6H80l0,0c-0.3-0.2-0.7,0-0.7,0.4c0,0.3,0,0.8-0.7,0.9c0,0-0.4,0-0.5-0.3
				c0-0.2-0.2-0.2-0.5-0.2s-0.6,0.1-0.8,0.4c-0.4,0.4-1.2,0.8-2.3-0.1c0,0-0.9-0.7-0.8-2.9c0.1-1.8,0-6.5,0-8.3c0-0.8,0.2-1.5,0.8-2
				c0.5-0.5,1.3-0.9,2.3-0.2c0,0,0.9-0.5,1.3,0.3c0,0,0.4,0.2,0.3-0.4c-0.1-0.6-1-3.8-3.9-8.2C74.3,22.5,74.2,22.3,74.3,22.2z"/>
			<path class="st6" d="M76.6,31.1c0,0,0.8,7.3,0.2,12.8c0,0.3,0.2,0.7,0.5,0.7c0.3,0.1,0.6,0,0.8-0.5c0.6-1.1,0.4-12.3,0-12.8
				c0,0-0.1-0.8-0.9-0.7C76.6,30.6,76.6,31.1,76.6,31.1z"/>
		</g>
		<g id="speaker_00000147898987320666918000000004130846409729911435_">
			<path class="st7" d="M31,22.2c-0.1-0.4-0.5-1.2-1.6-1.7c0,0-3.2,2-5.1,7.9c-0.7,2.1-1,4.1-1.2,5.8c-0.3,2.7,0,5.4,0.7,8
				c0.1,0.3,0.2,0.5,0.2,0.7c0.2,0.5,0.7,0.8,1.2,0.6h0.1l0,0c0.3-0.2,0.7,0,0.7,0.4c0,0.3,0,0.8,0.7,0.9c0,0,0.4,0,0.5-0.3
				c0-0.2,0.2-0.2,0.5-0.2s0.6,0.1,0.8,0.4c0.4,0.4,1.2,0.8,2.3-0.1c0,0,0.9-0.7,0.8-2.9c-0.1-1.8,0-6.5,0-8.3c0-0.8-0.2-1.5-0.8-2
				c-0.5-0.5-1.3-0.9-2.3-0.2c0,0-0.9-0.5-1.3,0.3c0,0-0.4,0.2-0.3-0.4c0.1-0.6,1-3.8,3.9-8.2C31,22.5,31,22.3,31,22.2z"/>
			<path class="st6" d="M28.7,31.1c0,0-0.8,7.3-0.2,12.8c0,0.3-0.2,0.7-0.5,0.7c-0.3,0.1-0.6,0-0.8-0.5c-0.6-1.1-0.4-12.3,0-12.8
				c0,0,0.1-0.8,0.9-0.7C28.7,30.6,28.7,31.1,28.7,31.1z"/>
		</g>
		<path class="st6" d="M57.3,66.1c0,0.2,0,0.3,0,0.5c-0.1,0.5-0.3,0.9-0.6,1.2c-0.4,0.4-1,0.7-1.7,0.7h-2.6c-1.1,0-1.9-0.7-2.3-1.6
			C50,66.7,50,66.4,50,66.2c0-0.1,0-0.2,0-0.2c0.1-0.6,0.3-1.1,0.7-1.4c0.4-0.4,1-0.7,1.7-0.7h2.5c1.1,0,1.9,0.7,2.3,1.6
			C57.3,65.6,57.3,65.9,57.3,66.1z"/>
		<path class="st8" d="M70.4,37.3c0,0.3,0,0.7,0,1c-0.6-10-8.8-17.9-18.9-17.9c-0.6,0-1.3,0-1.9,0.1c1.2-0.3,2.4-0.4,3.7-0.4
			C62.8,20.1,70.4,27.8,70.4,37.3z"/>
	</g>
	<g>
		<circle class="st9" cx="75.5" cy="5.3" r="4.6"/>
		<g>
			<g>
				
					<radialGradient id="SVGID_1_" cx="74.1106" cy="124.8824" r="1.3737" gradientTransform="matrix(1 0 0 -0.8037 0 104.5914)" gradientUnits="userSpaceOnUse">
					<stop  offset="0" style="stop-color:#FFF200"/>
					<stop  offset="1" style="stop-color:#FF6A00"/>
				</radialGradient>
				<path class="st10" d="M74.9,4.3C74.9,4.3,74.8,4.3,74.9,4.3C74.7,4.1,74.4,4,74.2,4s-0.5,0.1-0.7,0.3c0,0,0,0-0.1,0l0,0
					c0,0,0,0-0.1,0c0,0,0,0,0-0.1c0.1-0.4,0.4-0.6,0.8-0.6C74.5,3.6,74.9,3.8,74.9,4.3C75,4.2,75,4.2,74.9,4.3L74.9,4.3z"/>
				
					<radialGradient id="SVGID_00000085971703669772340520000016472404474340074652_" cx="74.1116" cy="124.9024" r="0.7418" gradientTransform="matrix(1 0 0 -0.8037 0 104.5875)" gradientUnits="userSpaceOnUse">
					<stop  offset="0" style="stop-color:#4B1803"/>
					<stop  offset="1" style="stop-color:#210501"/>
				</radialGradient>
				<path style="fill:url(#SVGID_00000085971703669772340520000016472404474340074652_);" d="M74.1,4c0.3,0,0.5,0.1,0.7,0.3h0.1
					c-0.1-0.3-0.4-0.6-0.8-0.6s-0.7,0.2-0.8,0.6c0,0,0,0.1,0.1,0C73.6,4.1,73.9,4,74.1,4z"/>
			</g>
			<g>
				
					<radialGradient id="SVGID_00000166648331141706162880000015574569161973059470_" cx="76.868" cy="124.8824" r="1.3737" gradientTransform="matrix(1 0 0 -0.8037 0 104.5914)" gradientUnits="userSpaceOnUse">
					<stop  offset="0" style="stop-color:#FFF200"/>
					<stop  offset="1" style="stop-color:#FF6A00"/>
				</radialGradient>
				<path style="fill:url(#SVGID_00000166648331141706162880000015574569161973059470_);" d="M77.6,4.3L77.6,4.3
					C77.4,4.1,77.1,4,76.9,4s-0.5,0.1-0.7,0.3c0,0,0,0-0.1,0l0,0c0,0,0,0-0.1,0c0,0,0,0,0-0.1c0.1-0.4,0.4-0.6,0.8-0.6
					C77.3,3.6,77.6,3.8,77.6,4.3C77.7,4.2,77.7,4.2,77.6,4.3C77.7,4.3,77.7,4.3,77.6,4.3z"/>
				
					<radialGradient id="SVGID_00000168806095261708993450000001782099080579692989_" cx="76.869" cy="124.9024" r="0.7418" gradientTransform="matrix(1 0 0 -0.8037 0 104.5875)" gradientUnits="userSpaceOnUse">
					<stop  offset="0" style="stop-color:#4B1803"/>
					<stop  offset="1" style="stop-color:#210501"/>
				</radialGradient>
				<path style="fill:url(#SVGID_00000168806095261708993450000001782099080579692989_);" d="M76.9,4c0.3,0,0.5,0.1,0.7,0.3h0.1
					c-0.1-0.3-0.4-0.6-0.8-0.6s-0.7,0.2-0.8,0.6c0,0,0,0.1,0.1,0C76.4,4.1,76.6,4,76.9,4z"/>
			</g>
		</g>
		<g>
			
				<radialGradient id="SVGID_00000119824830695951199090000012544573103531648434_" cx="75.4269" cy="-125.4293" r="4.4336" gradientTransform="matrix(1 0 0 -0.5115 0 -56.9407)" gradientUnits="userSpaceOnUse">
				<stop  offset="0" style="stop-color:#FFF200"/>
				<stop  offset="1" style="stop-color:#FF6A00"/>
			</radialGradient>
			<path style="fill:url(#SVGID_00000119824830695951199090000012544573103531648434_);" d="M75.5,8c-0.7,0-1.4-0.2-2-0.6
				c-0.6-0.5-1-1.1-1.2-1.8c0,0,0,0,0-0.1l0,0l0,0c0.1,0,0.1,0.1,0.2,0.1c0.9,0.3,1.8,0.5,2.9,0.5c1,0,2-0.2,2.9-0.5
				c0.1,0,0.1,0,0.2-0.1l0,0l0,0c0,0,0,0,0,0.1C78.4,6.3,78,7,77.3,7.4C76.9,7.8,76.2,8,75.5,8z"/>
			<g>
				
					<radialGradient id="SVGID_00000132794427044141991660000002934701369912583348_" cx="75.4855" cy="22.7941" r="3.2215" gradientTransform="matrix(1 0 0 -0.653 0 21.2817)" gradientUnits="userSpaceOnUse">
					<stop  offset="0" style="stop-color:#4B1803"/>
					<stop  offset="1" style="stop-color:#210501"/>
				</radialGradient>
				<path style="fill:url(#SVGID_00000132794427044141991660000002934701369912583348_);" d="M78.6,5.4c-0.1,0-0.1,0.1-0.2,0.1
					c-0.7,0.6-1.8,1-2.9,1s-2.2-0.4-2.9-1c-0.1,0-0.1-0.1-0.2-0.1c0.1,0.7,0.5,1.4,1.1,1.8c0.6-0.2,1.3-0.4,2-0.4s1.4,0.1,2,0.4
					C78.1,6.8,78.5,6.1,78.6,5.4z"/>
				
					<radialGradient id="SVGID_00000182497325687161962180000010250762894857412259_" cx="75.4855" cy="8.2607" r="3.4741" gradientTransform="matrix(1 0 0 -0.6353 0 11.335)" gradientUnits="userSpaceOnUse">
					<stop  offset="0" style="stop-color:#FDFFFC"/>
					<stop  offset="1" style="stop-color:#D6D5DD"/>
				</radialGradient>
				<path style="fill:url(#SVGID_00000182497325687161962180000010250762894857412259_);" d="M72.6,5.5c0.7,0.6,1.8,1,2.9,1
					s2.2-0.4,2.9-1C77.6,5.8,76.6,6,75.5,6S73.4,5.8,72.6,5.5z"/>
				
					<radialGradient id="SVGID_00000044157445262297393570000006966833138759162798_" cx="75.5" cy="-125.3043" r="2.4954" gradientTransform="matrix(1 0 0 -0.5115 0 -57.0016)" gradientUnits="userSpaceOnUse">
					<stop  offset="0" style="stop-color:#FF2E27"/>
					<stop  offset="1" style="stop-color:#D30B05"/>
				</radialGradient>
				<path style="fill:url(#SVGID_00000044157445262297393570000006966833138759162798_);" d="M73.5,7.2c0.5,0.4,1.2,0.6,2,0.6
					c0.7,0,1.4-0.2,2-0.6c-0.6-0.2-1.3-0.4-2-0.4C74.8,6.8,74.1,7,73.5,7.2z"/>
			</g>
		</g>
	</g>
	<g>
		<path class="st18" d="M94.4,27.2h-8.7c-2.3,0-4.2-1.9-4.2-4.2l0,0c0-2.3,1.9-4.2,4.2-4.2h8.7c2.3,0,4.2,1.9,4.2,4.2l0,0
			C98.5,25.4,96.7,27.2,94.4,27.2z"/>
		<polygon class="st18" points="86,26.9 83.4,29.2 83.4,25.5 		"/>
		<path class="st5" d="M85.1,21.9h6.8c0.3,0,0.5-0.2,0.5-0.5l0,0c0-0.3-0.2-0.5-0.5-0.5h-6.8c-0.3,0-0.5,0.2-0.5,0.5l0,0
			C84.5,21.7,84.8,21.9,85.1,21.9z"/>
		<path class="st5" d="M84.7,23.5h6.9c0.1,0,0.2-0.1,0.2-0.2l0,0c0-0.1-0.1-0.2-0.2-0.2h-6.9c-0.1,0-0.2,0.1-0.2,0.2l0,0
			C84.5,23.4,84.6,23.5,84.7,23.5z"/>
		<path class="st5" d="M92.6,23.5h2.6c0.1,0,0.2-0.1,0.2-0.2l0,0c0-0.1-0.1-0.2-0.2-0.2h-2.6c-0.1,0-0.2,0.1-0.2,0.2l0,0
			C92.4,23.4,92.5,23.5,92.6,23.5z"/>
		<path class="st5" d="M84.7,25.2h10.7c0.1,0,0.2-0.1,0.2-0.2l0,0c0-0.1-0.1-0.2-0.2-0.2H84.7c-0.1,0-0.2,0.1-0.2,0.2l0,0
			C84.5,25.1,84.6,25.2,84.7,25.2z"/>
	</g>
	<g>
		<path class="st4" d="M15.6,58.3h19.7c1.6,0,2.9-1.3,2.9-2.9l0,0c0-1.6-1.3-2.9-2.9-2.9H15.6c-1.6,0-2.9,1.3-2.9,2.9l0,0
			C12.8,57,14,58.3,15.6,58.3z"/>
		<polygon class="st4" points="31,57.7 34.9,61.1 34.9,55.6 		"/>
	</g>
	<g>
		<path class="st19" d="M18.3,55l0.7,0.1c0.1,0,0.1,0.1,0,0.1l-0.5,0.5c0,0,0,0,0,0.1l0.1,0.7c0,0.1-0.1,0.1-0.1,0.1l-0.6-0.3
			c0,0,0,0-0.1,0l-0.6,0.3c-0.1,0-0.1,0-0.1-0.1l0.1-0.7c0,0,0,0,0-0.1l-0.5-0.5v-0.1l0.7-0.1c0,0,0,0,0.1,0l0.3-0.6
			c0-0.1,0.1-0.1,0.1,0L18.3,55L18.3,55z"/>
		<path class="st19" d="M22,55l0.7,0.1c0.1,0,0.1,0.1,0,0.1l-0.5,0.5c0,0,0,0,0,0.1l0.1,0.7c0,0.1-0.1,0.1-0.1,0.1l-0.6-0.3
			c0,0,0,0-0.1,0l-0.6,0.3c-0.1,0-0.1,0-0.1-0.1l0.1-0.7c0,0,0,0,0-0.1l-0.5-0.5v-0.1l0.7-0.1c0,0,0,0,0.1,0l0.3-0.6
			c0-0.1,0.1-0.1,0.1,0L22,55L22,55z"/>
		<path class="st19" d="M25.7,55l0.7,0.1c0.1,0,0.1,0.1,0,0.1l-0.5,0.5c0,0,0,0,0,0.1l0.1,0.7c0,0.1-0.1,0.1-0.1,0.1l-0.6-0.3
			c0,0,0,0-0.1,0l-0.6,0.3c-0.1,0-0.1,0-0.1-0.1l0.1-0.7c0,0,0,0,0-0.1l-0.5-0.5v-0.1l0.7-0.1c0,0,0,0,0.1,0l0.3-0.6
			c0-0.1,0.1-0.1,0.1,0L25.7,55L25.7,55z"/>
		<path class="st19" d="M29.4,55l0.7,0.1c0.1,0,0.1,0.1,0,0.1l-0.5,0.5c0,0,0,0,0,0.1l0.1,0.7c0,0.1-0.1,0.1-0.1,0.1L29,56.3
			c0,0,0,0-0.1,0l-0.6,0.3c-0.1,0-0.1,0-0.1-0.1l0.1-0.7c0,0,0,0,0-0.1l-0.5-0.5v-0.1l0.7-0.1c0,0,0,0,0.1,0l0.3-0.6
			c0-0.1,0.1-0.1,0.1,0L29.4,55L29.4,55z"/>
		<path class="st19" d="M33.1,55l0.7,0.1c0.1,0,0.1,0.1,0,0.1l-0.5,0.5c0,0,0,0,0,0.1l0.1,0.7c0,0.1-0.1,0.1-0.1,0.1l-0.6-0.3
			c0,0,0,0-0.1,0L32,56.6c-0.1,0-0.1,0-0.1-0.1l0.1-0.7c0,0,0,0,0-0.1l-0.5-0.5v-0.1l0.7-0.1c0,0,0,0,0.1,0l0.3-0.6
			c0-0.1,0.1-0.1,0.1,0L33.1,55C33,55,33.1,55,33.1,55z"/>
		<g>
			<path class="st20" d="M33.2,55.1L33.2,55.1l0.7,0.1c0,0,0,0-0.1-0.1H33.2L33.2,55.1z"/>
			<path class="st20" d="M32.8,56.3L32.8,56.3l0.5,0.3l0,0L32.8,56.3z"/>
			<path class="st20" d="M32,56.6l0.1-0.7c0,0,0,0,0-0.1l-0.5-0.5v-0.1l0.7-0.1c0,0,0,0,0.1,0l0.3-0.6l0,0l0,0c0-0.1-0.1-0.1-0.1,0
				L32.3,55c0,0,0,0-0.1,0l-0.7,0.1c-0.1,0-0.1,0.1,0,0.1l0.5,0.5c0,0,0,0,0,0.1l-0.1,0.7C31.9,56.6,31.9,56.6,32,56.6L32,56.6
				L32,56.6z"/>
		</g>
	</g>
	<g>
		<g>
			<g>
				<g>
					<path class="st2" d="M47.1,22.7c0.1,0,0.2,0.1,0.2,0.2v0.9c0,0.1-0.1,0.2-0.2,0.2c-0.1,0-0.2-0.1-0.2-0.2v-0.9
						C46.9,22.8,47,22.7,47.1,22.7z"/>
				</g>
			</g>
			<g>
				<g>
					<path class="st2" d="M47.1,21.1c0.1,0,0.2,0.1,0.2,0.2v0.9c0,0.1-0.1,0.2-0.2,0.2c-0.1,0-0.2-0.1-0.2-0.2v-0.9
						C46.9,21.2,47,21.1,47.1,21.1z"/>
				</g>
			</g>
		</g>
		<g>
			<g>
				<g>
					<path class="st2" d="M45.9,22.3h0.8c0.1,0,0.2,0.1,0.2,0.2c0,0.1-0.1,0.2-0.2,0.2h-0.8c-0.1,0-0.2-0.1-0.2-0.2
						C45.7,22.4,45.8,22.3,45.9,22.3z"/>
				</g>
			</g>
			<g>
				<g>
					<path class="st2" d="M47.6,22.3h0.8c0.1,0,0.2,0.1,0.2,0.2c0,0.1-0.1,0.2-0.2,0.2h-0.8c-0.1,0-0.2-0.1-0.2-0.2
						C47.4,22.4,47.5,22.3,47.6,22.3z"/>
				</g>
			</g>
		</g>
	</g>
	<path class="st21" d="M81.9,58.3h-0.8v-0.7c0-0.2-0.2-0.5-0.5-0.5l0,0c-0.2,0-0.5,0.2-0.5,0.5v0.7h-0.7c-0.2,0-0.5,0.2-0.5,0.5l0,0
		c0,0.2,0.2,0.5,0.5,0.5h0.7V60c0,0.2,0.2,0.5,0.5,0.5l0,0c0.2,0,0.5-0.2,0.5-0.5v-0.7h0.7c0.2,0,0.5-0.2,0.5-0.5l0,0
		C82.3,58.5,82.1,58.3,81.9,58.3z"/>
	<g>
		<g>
			<g>
				<path class="st21" d="M19,46.3c0.1,0,0.2,0.1,0.2,0.2v0.9c0,0.1-0.1,0.2-0.2,0.2s-0.2-0.1-0.2-0.2v-0.9
					C18.8,46.4,18.8,46.3,19,46.3z"/>
			</g>
			<g>
				<path class="st21" d="M19,44.7c0.1,0,0.2,0.1,0.2,0.2v0.9c0,0.1-0.1,0.2-0.2,0.2s-0.2-0.1-0.2-0.2v-0.9
					C18.8,44.8,18.8,44.7,19,44.7z"/>
			</g>
		</g>
		<g>
			<g>
				<path class="st21" d="M17.7,45.9h0.8c0.1,0,0.2,0.1,0.2,0.2c0,0.1-0.1,0.2-0.2,0.2h-0.8c-0.1,0-0.2-0.1-0.2-0.2
					S17.6,45.9,17.7,45.9z"/>
			</g>
			<g>
				<path class="st21" d="M19.4,45.9h0.8c0.1,0,0.2,0.1,0.2,0.2c0,0.1-0.1,0.2-0.2,0.2h-0.8c-0.1,0-0.2-0.1-0.2-0.2
					C19.2,46,19.3,45.9,19.4,45.9z"/>
			</g>
		</g>
	</g>
	<g>
		<path class="st2" d="M41.6,58.6c0.7,0,1.3,0.6,1.3,1.3s-0.6,1.3-1.3,1.3s-1.3-0.6-1.3-1.3S40.9,58.6,41.6,58.6z M41.6,60.8
			c0.5,0,0.9-0.4,0.9-0.9S42.1,59,41.6,59s-0.9,0.4-0.9,0.9C40.7,60.4,41.1,60.8,41.6,60.8z"/>
	</g>
	<g>
		<circle class="st9" cx="15.1" cy="34.1" r="4.6"/>
		<g>
			
				<radialGradient id="SVGID_00000158736293566095185030000013366779057609353880_" cx="15.085" cy="178.5758" r="2.1788" gradientTransform="matrix(1 0 0 -1 0 214.0892)" gradientUnits="userSpaceOnUse">
				<stop  offset="0" style="stop-color:#FFF200"/>
				<stop  offset="1" style="stop-color:#FF6A00"/>
			</radialGradient>
			<path style="fill:url(#SVGID_00000158736293566095185030000013366779057609353880_);" d="M15.1,36.4c-0.6,0-1.2-0.2-1.7-0.5
				c-0.3-0.2-0.5-0.3-0.7-0.5s-0.4-0.5-0.5-0.7c0,0,0,0,0-0.1c0,0,0,0,0-0.1l0,0c0,0,0,0,0.1,0l0,0l0.1,0.1c0,0,0,0,0.1,0l0.2,0.1
				c0,0,0.1,0,0.1,0.1c0,0,0.1,0,0.1,0.1c0,0,0,0,0.1,0c0,0,0.1,0,0.1,0.1c0.2,0.1,0.5,0.2,0.7,0.3h0.1l0,0c0,0,0,0,0.1,0h0.1l0,0
				h0.1l0,0l0,0h0.1l0,0l0,0l0,0c0.2,0,0.5,0.1,0.7,0.1s0.5,0,0.7-0.1c0.1,0,0.2,0,0.3-0.1l0,0h0.1c0,0,0,0,0.1,0l0,0h0.1
				c0.2-0.1,0.5-0.2,0.7-0.3c0,0,0.1,0,0.1-0.1c0,0,0,0,0.1,0c0,0,0,0,0.1,0l0,0c0,0,0,0,0.1,0l0,0l0.2-0.1c0,0,0,0,0.1,0l0.1-0.1
				l0,0c0,0,0,0,0.1,0H18v0.1c-0.1,0.3-0.3,0.5-0.5,0.7s-0.4,0.4-0.7,0.5C16.3,36.2,15.7,36.4,15.1,36.4L15.1,36.4L15.1,36.4z"/>
			
				<radialGradient id="SVGID_00000111892060558672755860000015331673936857454476_" cx="15.0895" cy="-216.6966" r="3.1288" gradientTransform="matrix(1 0 0 -0.4682 0 -65.9435)" gradientUnits="userSpaceOnUse">
				<stop  offset="0" style="stop-color:#4B1803"/>
				<stop  offset="1" style="stop-color:#210501"/>
			</radialGradient>
			<path style="fill:url(#SVGID_00000111892060558672755860000015331673936857454476_);" d="M12.3,34.6c0.1,0,0.1,0.1,0.2,0.1
				l0.2,0.1c0.1,0,0.1,0.1,0.2,0.1S13,35,13.1,35c0.2,0.1,0.5,0.2,0.7,0.3h0.1l0,0l0,0H14l0,0l0,0h0.1l0,0l0,0h0.1l0,0l0,0
				c0.2,0,0.5,0.1,0.7,0.1s0.5,0,0.7-0.1c0.1,0,0.2,0,0.4-0.1l0,0l0,0h0.1l0,0l0,0h0.1c0.2-0.1,0.5-0.2,0.7-0.3
				c0.1,0,0.1-0.1,0.2-0.1c0,0,0.1,0,0.1-0.1c0,0,0.1,0,0.1-0.1l0.2-0.1c0.1,0,0.1-0.1,0.2-0.1l0,0l0,0l0,0
				c-0.1,0.3-0.3,0.5-0.5,0.7s-0.4,0.4-0.7,0.5C16,35.9,15.4,36,14.8,36c-0.6,0-1.2-0.2-1.7-0.4c-0.3-0.1-0.5-0.3-0.7-0.5
				C12.5,35.1,12.4,34.9,12.3,34.6C12.2,34.6,12.2,34.6,12.3,34.6L12.3,34.6L12.3,34.6z"/>
		</g>
		<g>
			
				<radialGradient id="SVGID_00000060724192000497337990000007887872936322854528_" cx="13.7421" cy="-214.0748" r="1.1547" gradientTransform="matrix(1 0 0 -0.4682 0 -67.3323)" gradientUnits="userSpaceOnUse">
				<stop  offset="0" style="stop-color:#FFF200"/>
				<stop  offset="1" style="stop-color:#FF6A00"/>
			</radialGradient>
			<path style="fill:url(#SVGID_00000060724192000497337990000007887872936322854528_);" d="M14.6,33.4L14.6,33.4
				c-0.3-0.3-0.6-0.5-0.9-0.5c-0.3,0-0.6,0.2-0.8,0.5c0,0,0,0-0.1,0l0,0h-0.1c0,0,0,0,0-0.1c0.1-0.6,0.5-1,1-1S14.6,32.7,14.6,33.4
				C14.7,33.3,14.7,33.3,14.6,33.4C14.7,33.4,14.7,33.4,14.6,33.4z"/>
			
				<radialGradient id="SVGID_00000104694975712504628920000010215810252877049763_" cx="13.7421" cy="-214.0748" r="1.1059" gradientTransform="matrix(1 0 0 -0.4682 0 -67.3323)" gradientUnits="userSpaceOnUse">
				<stop  offset="0" style="stop-color:#4B1803"/>
				<stop  offset="1" style="stop-color:#210501"/>
			</radialGradient>
			<path style="fill:url(#SVGID_00000104694975712504628920000010215810252877049763_);" d="M13.8,32.8c0.3,0,0.6,0.2,0.8,0.5h0.1
				c-0.1-0.5-0.5-0.9-0.9-0.9s-0.8,0.4-0.9,0.9c0,0.1,0.1,0.1,0.1,0C13.1,33,13.4,32.8,13.8,32.8z"/>
		</g>
		<g>
			
				<radialGradient id="SVGID_00000069381261174278362080000003433731369393356211_" cx="16.4924" cy="-214.0748" r="1.1547" gradientTransform="matrix(1 0 0 -0.4682 0 -67.3323)" gradientUnits="userSpaceOnUse">
				<stop  offset="0" style="stop-color:#FFF200"/>
				<stop  offset="1" style="stop-color:#FF6A00"/>
			</radialGradient>
			<path style="fill:url(#SVGID_00000069381261174278362080000003433731369393356211_);" d="M17.4,33.4
				C17.4,33.4,17.3,33.4,17.4,33.4c-0.3-0.3-0.6-0.5-0.9-0.5s-0.6,0.2-0.8,0.5c0,0,0,0-0.1,0l0,0h-0.1c0,0,0,0,0-0.1
				c0.1-0.6,0.5-1,1-1c0.5,0,0.9,0.4,1,1C17.5,33.3,17.5,33.3,17.4,33.4L17.4,33.4z"/>
			
				<radialGradient id="SVGID_00000100374586685436480330000005701581052182839437_" cx="16.4924" cy="-214.0748" r="1.1059" gradientTransform="matrix(1 0 0 -0.4682 0 -67.3323)" gradientUnits="userSpaceOnUse">
				<stop  offset="0" style="stop-color:#4B1803"/>
				<stop  offset="1" style="stop-color:#210501"/>
			</radialGradient>
			<path style="fill:url(#SVGID_00000100374586685436480330000005701581052182839437_);" d="M16.5,32.8c0.3,0,0.6,0.2,0.8,0.5h0.1
				c-0.1-0.5-0.5-0.9-0.9-0.9s-0.8,0.4-0.9,0.9c0,0.1,0.1,0.1,0.1,0C15.9,33,16.2,32.8,16.5,32.8z"/>
		</g>
	</g>
</g>
</svg>
