<?xml version="1.0" encoding="utf-8"?>
<!-- Generator: Adobe Illustrator 25.4.1, SVG Export Plug-In . SVG Version: 6.00 Build 0)  -->
<svg version="1.1" id="Layer_1" xmlns="http://www.w3.org/2000/svg" xmlns:xlink="http://www.w3.org/1999/xlink" x="0px" y="0px"
	 viewBox="0 0 103.2 71.2" style="enable-background:new 0 0 103.2 71.2;" xml:space="preserve">
<style type="text/css">
	.st0{display:none;opacity:0.54;fill:#FFFFFF;enable-background:new    ;}
	.st1{opacity:0.3;}
	.st2{fill:#3B4751;}
	.st3{fill:none;}
	.st4{fill:#647E99;}
	.st5{fill:#FFFFFF;}
	.st6{opacity:0.71;}
	.st7{fill:#8EA2B1;}
	.st8{opacity:0.3;fill:#FFFFFF;}
	.st9{display:none;}
	.st10{display:inline;fill:#A5E0F9;}
	.st11{display:inline;}
	.st12{fill:#03426D;}
	.st13{fill:#54B8FC;}
	.st14{fill:url(#SVGID_1_);}
	.st15{fill:#FF4C64;}
	.st16{fill:#F991A2;}
	.st17{fill:#0081FF;}
	.st18{fill:#A5E0F9;}
</style>
<rect x="-11.1" y="-27.1" class="st0" width="125.1" height="127.9"/>
<g>
	<g class="st1">
		<path class="st2" d="M12.2,56.7c0-0.4-9.8-13,1.6-24.7c5.2-5.2,13.9,2.8,12.4-12.5C25,6.2,46.7-1.5,57.4,7.4
			c8.6,7.3,8.7-5,21.9,0.8s4.5,21.5,9.9,23c10.6,2.9,19,12.6,10.4,22.2L12.2,56.7z"/>
		<path id="Background_00000094586224586817018130000016510999554740228271_" class="st2" d="M70.4,44.8c0,0,4.6,1.2,7.2,3.6
			c2.6,2.5,8.4,6.6-8.7,12.1c-15.8,5.1-47.4,9.9-41.5,2.2S0.8,64.2,0,56.6C-1.1,45.8,70.4,44.8,70.4,44.8z"/>
		<path id="Background_00000156563434231552827990000007615738139144793779_" class="st2" d="M29.1,55.7c0,0-4.3,2.2-6.2,5.1
			c-1.9,3-6.7,8.3,11.2,9.9c16.6,1.4,48.4-0.9,40.8-7c-7.5-6.2,26.2-4.6,25.4-12C99,40.8,29.1,55.7,29.1,55.7z"/>
	</g>
	<g>
		<path class="st3" d="M39.1,27h24v24h-24V27z"/>
		<g>
			<path class="st4" d="M71,39.6c-0.9,7.6-6.5,13.8-13.8,15.7c-0.3,0.1-0.6,0.3-0.8,0.5l-3.3,4.4c-0.1,0.2-0.4,0.2-0.6,0l-3.6-4.4
				c-0.2-0.3-0.5-0.4-0.8-0.5c-8-2-14-9.3-14-18c0-9.6,7.3-17.6,16.8-18.5C63.3,17.7,72.6,27.2,71,39.6z"/>
			<path class="st5" d="M60,42.5V46c0,0.5-0.4,1-0.9,1c-0.4,0-0.8,0-1.1,0c-8.8,0-16-7.1-16-16c0-0.3,0-0.6,0-1.1s0.5-0.9,1-0.9h3.5
				c0.3,0,0.5,0.2,0.5,0.4c0,0.2,0,0.4,0.1,0.5c0.2,1.4,0.6,2.7,1.2,4c0.1,0.2,0,0.4-0.1,0.6L46.1,36c1.3,3.1,3.7,5.5,6.8,6.8
				l1.5-2.1c0.1-0.2,0.4-0.2,0.6-0.1c1.3,0.6,2.6,1,4,1.2c0.1,0,0.3,0,0.5,0.1C59.8,42.1,60,42.3,60,42.5L60,42.5z"/>
			<g class="st6">
				<path class="st5" d="M51.7,33.5L51.7,33.5c0,0.2,0.1,0.4,0.4,0.5c1.5,0.5,2.8,1.7,3.4,3.1c0.1,0.2,0.3,0.3,0.5,0.3l0,0
					c0.4,0,0.7-0.4,0.5-0.7c-0.7-1.8-2.2-3.1-4-3.7C52,32.8,51.7,33.1,51.7,33.5z"/>
				<path class="st5" d="M51.7,30L51.7,30c0,0.3,0.2,0.5,0.5,0.6c3.3,0.7,5.9,3.3,6.7,6.5c0.1,0.3,0.3,0.4,0.5,0.4l0,0
					c0.4,0,0.7-0.4,0.6-0.7c-0.9-3.7-3.9-6.5-7.6-7.4C52.1,29.4,51.8,29.6,51.7,30z"/>
				<path class="st5" d="M51.8,26.6L51.8,26.6c0,0.3,0.2,0.6,0.5,0.7c5,0.9,9,4.8,9.9,9.8c0.1,0.3,0.3,0.5,0.6,0.5l0,0
					c0.4,0,0.7-0.4,0.7-0.8c-1-5.5-5.4-9.9-10.9-10.9C52.2,25.9,51.8,26.2,51.8,26.6z"/>
			</g>
		</g>
		<path class="st5" d="M81.4,37.9c0,14.2-10.3,25.9-23.9,28.2c-1.5,0.2-3,0.4-4.6,0.4c-0.9,0-1.7,0-2.6-0.1
			c-0.1-0.2-0.1-0.5-0.1-0.7c0-0.1,0-0.2,0-0.2c0.5,0,1.1,0,1.7,0c1.9,0,3.8-0.2,5.6-0.5c13-2.6,23-14.2,23-28.1
			c0-7.5-2.9-14.4-7.6-19.5C78,22.6,81.4,29.8,81.4,37.9z"/>
		<g>
			<path class="st7" d="M76.5,20.6L74.8,22c-5.2-6.3-13.1-10.4-22.1-10.4c-8.8,0-16.8,4-22.1,10.4l-1.5-1.7
				C34.5,13.4,43,8.9,52.6,8.9C62.4,8.8,71.1,13.4,76.5,20.6z"/>
			<path class="st4" d="M52.6,7.5c-8.3,0-15.9,3.3-21.4,8.6l3.2,3.3c4.6-4.6,11-7.5,18.2-7.5s13.5,2.9,18.3,7.5l3.3-3.3
				C68.6,10.9,61,7.5,52.6,7.5z"/>
		</g>
		<g id="speaker_00000055695185362675903070000017123157586558206884_">
			<path class="st4" d="M74.4,21.6c0.1-0.4,0.5-1.2,1.6-1.7c0,0,3.2,2,5.1,7.9c0.7,2.1,1,4.1,1.2,5.8c0.3,2.7,0,5.4-0.7,8
				c-0.1,0.3-0.2,0.5-0.2,0.7c-0.2,0.5-0.7,0.8-1.2,0.6h-0.1l0,0c-0.3-0.2-0.7,0-0.7,0.4c0,0.3,0,0.8-0.7,0.9c0,0-0.4,0-0.5-0.3
				c0-0.2-0.2-0.2-0.5-0.2s-0.6,0.1-0.8,0.4c-0.4,0.4-1.2,0.8-2.3-0.1c0,0-0.9-0.7-0.8-2.9c0.1-1.8,0-6.5,0-8.3c0-0.8,0.2-1.5,0.8-2
				c0.5-0.5,1.3-0.9,2.3-0.2c0,0,0.9-0.5,1.3,0.3c0,0,0.4,0.2,0.3-0.4s-1-3.8-3.9-8.2C74.4,21.9,74.3,21.7,74.4,21.6z"/>
			<path class="st7" d="M76.7,30.5c0,0,0.8,7.3,0.2,12.8c0,0.3,0.2,0.7,0.5,0.7c0.3,0.1,0.6,0,0.8-0.5c0.6-1.1,0.4-12.3,0-12.8
				c0,0-0.1-0.8-0.9-0.7C76.7,30,76.7,30.5,76.7,30.5z"/>
		</g>
		<g id="speaker_00000110472525598145833330000009849397048782395819_">
			<path class="st4" d="M30.9,21.6c-0.1-0.4-0.5-1.2-1.6-1.7c0,0-3.2,2-5.1,7.9c-0.7,2.1-1,4.1-1.2,5.8c-0.3,2.7,0,5.4,0.7,8
				c0.1,0.3,0.2,0.5,0.2,0.7c0.2,0.5,0.7,0.8,1.2,0.6h0.1l0,0c0.3-0.2,0.7,0,0.7,0.4c0,0.3,0,0.8,0.7,0.9c0,0,0.4,0,0.5-0.3
				c0-0.2,0.2-0.2,0.5-0.2s0.6,0.1,0.8,0.4c0.4,0.4,1.2,0.8,2.3-0.1c0,0,0.9-0.7,0.8-2.9c-0.1-1.8,0-6.5,0-8.3c0-0.8-0.2-1.5-0.8-2
				c-0.5-0.5-1.3-0.9-2.3-0.2c0,0-0.9-0.5-1.3,0.3c0,0-0.4,0.2-0.3-0.4s1-3.8,3.9-8.2C30.9,21.9,30.9,21.7,30.9,21.6z"/>
			<path class="st7" d="M28.6,30.5c0,0-0.8,7.3-0.2,12.8c0,0.3-0.2,0.7-0.5,0.7c-0.3,0.1-0.6,0-0.8-0.5c-0.6-1.1-0.4-12.3,0-12.8
				c0,0,0.1-0.8,0.9-0.7C28.6,30,28.6,30.5,28.6,30.5z"/>
		</g>
		<path class="st4" d="M57.3,65.7c0,0.2,0,0.3,0,0.5c-0.1,0.5-0.3,0.9-0.6,1.2c-0.4,0.4-1,0.7-1.7,0.7h-2.6c-1.1,0-1.9-0.7-2.3-1.6
			C50,66.3,50,66,50,65.8c0-0.1,0-0.2,0-0.2c0.1-0.6,0.3-1.1,0.7-1.4c0.4-0.4,1-0.7,1.7-0.7h2.5c1.1,0,1.9,0.7,2.3,1.6
			C57.3,65.2,57.3,65.5,57.3,65.7z"/>
		<path class="st8" d="M70.5,36.8c0,0.3,0,0.7,0,1c-0.6-10-8.8-18-19-18c-0.6,0-1.3,0-1.9,0.1c1.2-0.3,2.4-0.4,3.7-0.4
			C62.8,19.5,70.5,27.2,70.5,36.8z"/>
	</g>
	<g class="st9">
		<circle class="st10" cx="75.6" cy="4.6" r="4.6"/>
		<g class="st11">
			<g>
				<path class="st12" d="M74.2,3.3c0.3,0,0.5,0.1,0.7,0.3H75C74.9,3.3,74.6,3,74.2,3s-0.7,0.2-0.8,0.6c0,0,0,0.1,0.1,0
					C73.7,3.4,74,3.3,74.2,3.3z"/>
			</g>
			<g>
				<path class="st12" d="M77,3.3c0.3,0,0.5,0.1,0.7,0.3h0.1C77.7,3.3,77.4,3,77,3s-0.7,0.2-0.8,0.6c0,0,0,0.1,0.1,0
					C76.5,3.4,76.7,3.3,77,3.3z"/>
			</g>
		</g>
		<g class="st11">
			<g>
				<path class="st13" d="M73.6,6.5c0.5,0.4,1.2,0.6,2,0.6c0.7,0,1.4-0.2,2-0.6c-0.3-0.2-0.2-0.3-0.5-0.3c-0.3-0.1-1.1-0.1-1.5-0.1
					C74.9,6.1,74.2,6.3,73.6,6.5z"/>
				<path class="st12" d="M78.7,4.7c-0.1,0-0.1,0.1-0.2,0.1c-0.7,0.6-1.8,1-2.9,1s-2.2-0.4-2.9-1c-0.1,0-0.1-0.1-0.2-0.1
					c0.1,0.7,0.5,1.4,1.1,1.8c0.6-0.2,1.3-0.4,2-0.4s1.4,0.1,2,0.4C78.2,6.1,78.6,5.4,78.7,4.7z"/>
				
					<radialGradient id="SVGID_1_" cx="75.5744" cy="-286.9675" r="3.4868" gradientTransform="matrix(1 0 0 0.6353 0 187.694)" gradientUnits="userSpaceOnUse">
					<stop  offset="0" style="stop-color:#FDFFFC"/>
					<stop  offset="1" style="stop-color:#D6D5DD"/>
				</radialGradient>
				<path class="st14" d="M72.7,4.8c0.7,0.6,1.8,1,2.9,1s2.2-0.4,2.9-1c-0.8,0.3-1.8,0.5-2.9,0.5S73.5,5.1,72.7,4.8z"/>
			</g>
		</g>
	</g>
	<g>
		<path class="st15" d="M94.6,26.6h-8.7c-2.3,0-4.2-1.9-4.2-4.2l0,0c0-2.3,1.9-4.2,4.2-4.2h8.7c2.3,0,4.2,1.9,4.2,4.2l0,0
			C98.7,24.8,96.9,26.6,94.6,26.6z"/>
		<polygon class="st15" points="86.1,26.3 83.5,28.6 83.5,24.9 		"/>
		<path class="st16" d="M85.2,21.3H92c0.3,0,0.5-0.2,0.5-0.5l0,0c0-0.3-0.2-0.5-0.5-0.5h-6.8c-0.3,0-0.5,0.2-0.5,0.5l0,0
			C84.6,21.1,84.9,21.3,85.2,21.3z"/>
		<path class="st16" d="M84.8,22.9h6.9c0.1,0,0.2-0.1,0.2-0.2l0,0c0-0.1-0.1-0.2-0.2-0.2h-6.9c-0.1,0-0.2,0.1-0.2,0.2l0,0
			C84.6,22.8,84.7,22.9,84.8,22.9z"/>
		<path class="st16" d="M92.8,22.9h2.6c0.1,0,0.2-0.1,0.2-0.2l0,0c0-0.1-0.1-0.2-0.2-0.2h-2.6c-0.1,0-0.2,0.1-0.2,0.2l0,0
			C92.6,22.8,92.7,22.9,92.8,22.9z"/>
		<path class="st16" d="M84.8,24.6h10.7c0.1,0,0.2-0.1,0.2-0.2l0,0c0-0.1-0.1-0.2-0.2-0.2H84.8c-0.1,0-0.2,0.1-0.2,0.2l0,0
			C84.6,24.5,84.7,24.6,84.8,24.6z"/>
	</g>
	<g>
		<g>
			<path class="st15" d="M15.5,57.8h19.8c1.6,0,2.9-1.3,2.9-2.9l0,0c0-1.6-1.3-2.9-2.9-2.9H15.5c-1.6,0-2.9,1.3-2.9,2.9l0,0
				C12.7,56.5,13.9,57.8,15.5,57.8z"/>
			<polygon class="st15" points="30.9,57.2 34.8,60.6 34.8,55.1 			"/>
		</g>
	</g>
	<g>
		<g>
			<path class="st16" d="M18.2,54.5l0.7,0.1c0.1,0,0.1,0.1,0,0.1l-0.5,0.5c0,0,0,0,0,0.1l0.1,0.7c0,0.1-0.1,0.1-0.1,0.1l-0.6-0.3
				c0,0,0,0-0.1,0l-0.6,0.3c-0.1,0-0.1,0-0.1-0.1l0.1-0.7c0,0,0,0,0-0.1l-0.5-0.5v-0.1l0.7-0.1c0,0,0,0,0.1,0l0.3-0.6
				c0-0.1,0.1-0.1,0.1,0L18.2,54.5L18.2,54.5z"/>
			<path class="st16" d="M21.9,54.5l0.7,0.1c0.1,0,0.1,0.1,0,0.1l-0.5,0.5c0,0,0,0,0,0.1l0.1,0.7c0,0.1-0.1,0.1-0.1,0.1l-0.6-0.3
				c0,0,0,0-0.1,0l-0.6,0.3c-0.1,0-0.1,0-0.1-0.1l0.1-0.7c0,0,0,0,0-0.1l-0.5-0.5v-0.1l0.7-0.1c0,0,0,0,0.1,0l0.3-0.6
				c0-0.1,0.1-0.1,0.1,0L21.9,54.5L21.9,54.5z"/>
			<path class="st16" d="M25.6,54.5l0.7,0.1c0.1,0,0.1,0.1,0,0.1l-0.5,0.5c0,0,0,0,0,0.1l0.1,0.7c0,0.1-0.1,0.1-0.1,0.1l-0.6-0.3
				c0,0,0,0-0.1,0l-0.6,0.3c-0.1,0-0.1,0-0.1-0.1l0.1-0.7c0,0,0,0,0-0.1L24,54.7v-0.1l0.7-0.1c0,0,0,0,0.1,0l0.3-0.6
				c0-0.1,0.1-0.1,0.1,0L25.6,54.5L25.6,54.5z"/>
			<path class="st16" d="M29.3,54.5l0.7,0.1c0.1,0,0.1,0.1,0,0.1l-0.5,0.5c0,0,0,0,0,0.1l0.1,0.7c0,0.1-0.1,0.1-0.1,0.1l-0.6-0.3
				c0,0,0,0-0.1,0l-0.6,0.3c-0.1,0-0.1,0-0.1-0.1l0.1-0.7c0,0,0,0,0-0.1l-0.5-0.5v-0.1l0.7-0.1c0,0,0,0,0.1,0l0.3-0.6
				c0-0.1,0.1-0.1,0.1,0L29.3,54.5L29.3,54.5z"/>
			<path class="st16" d="M33,54.5l0.7,0.1c0.1,0,0.1,0.1,0,0.1l-0.5,0.5c0,0,0,0,0,0.1l0.1,0.7c0,0.1-0.1,0.1-0.1,0.1l-0.6-0.3
				c0,0,0,0-0.1,0l-0.6,0.3c-0.1,0-0.1,0-0.1-0.1l0.1-0.7c0,0,0,0,0-0.1l-0.5-0.5v-0.1l0.7-0.1c0,0,0,0,0.1,0l0.3-0.6
				c0-0.1,0.1-0.1,0.1,0L33,54.5C32.9,54.5,33,54.5,33,54.5z"/>
			<g>
				<path class="st16" d="M33.1,54.6L33.1,54.6l0.7,0.1c0,0,0,0-0.1-0.1H33.1L33.1,54.6z"/>
				<path class="st16" d="M32.7,55.8L32.7,55.8l0.5,0.3l0,0L32.7,55.8z"/>
				<path class="st16" d="M31.9,56.1l0.1-0.7c0,0,0,0,0-0.1l-0.5-0.5v-0.1l0.7-0.1c0,0,0,0,0.1,0l0.3-0.6l0,0l0,0
					c0-0.1-0.1-0.1-0.1,0l-0.3,0.5c0,0,0,0-0.1,0l-0.7,0.1c-0.1,0-0.1,0.1,0,0.1l0.5,0.5c0,0,0,0,0,0.1L31.8,56
					C31.8,56.1,31.8,56.1,31.9,56.1L31.9,56.1L31.9,56.1z"/>
			</g>
		</g>
	</g>
	<g>
		<g>
			<g>
				<g>
					<path class="st5" d="M47.1,22.1c0.1,0,0.2,0.1,0.2,0.2v0.9c0,0.1-0.1,0.2-0.2,0.2c-0.1,0-0.2-0.1-0.2-0.2v-0.9
						C46.9,22.2,47,22.1,47.1,22.1z"/>
				</g>
			</g>
			<g>
				<g>
					<path class="st5" d="M47.1,20.5c0.1,0,0.2,0.1,0.2,0.2v0.9c0,0.1-0.1,0.2-0.2,0.2c-0.1,0-0.2-0.1-0.2-0.2v-0.9
						C46.9,20.6,47,20.5,47.1,20.5z"/>
				</g>
			</g>
		</g>
		<g>
			<g>
				<g>
					<path class="st5" d="M45.9,21.7h0.8c0.1,0,0.2,0.1,0.2,0.2s-0.1,0.2-0.2,0.2h-0.8c-0.1,0-0.2-0.1-0.2-0.2
						C45.7,21.8,45.8,21.7,45.9,21.7z"/>
				</g>
			</g>
			<g>
				<g>
					<path class="st5" d="M47.6,21.7h0.8c0.1,0,0.2,0.1,0.2,0.2s-0.1,0.2-0.2,0.2h-0.8c-0.1,0-0.2-0.1-0.2-0.2
						C47.4,21.8,47.5,21.7,47.6,21.7z"/>
				</g>
			</g>
		</g>
	</g>
	<g>
		<g>
			<g>
				<g>
					<path class="st17" d="M18.9,45.8c0.1,0,0.2,0.1,0.2,0.2v0.9c0,0.1-0.1,0.2-0.2,0.2s-0.2-0.1-0.2-0.2V46
						C18.7,45.9,18.7,45.8,18.9,45.8z"/>
				</g>
				<g>
					<path class="st17" d="M18.9,44.2c0.1,0,0.2,0.1,0.2,0.2v0.9c0,0.1-0.1,0.2-0.2,0.2s-0.2-0.1-0.2-0.2v-0.9
						C18.7,44.3,18.7,44.2,18.9,44.2z"/>
				</g>
			</g>
			<g>
				<g>
					<path class="st17" d="M17.6,45.4h0.8c0.1,0,0.2,0.1,0.2,0.2s-0.1,0.2-0.2,0.2h-0.8c-0.1,0-0.2-0.1-0.2-0.2S17.5,45.4,17.6,45.4
						z"/>
				</g>
				<g>
					<path class="st17" d="M19.3,45.4h0.8c0.1,0,0.2,0.1,0.2,0.2s-0.1,0.2-0.2,0.2h-0.8c-0.1,0-0.2-0.1-0.2-0.2
						C19.1,45.5,19.2,45.4,19.3,45.4z"/>
				</g>
			</g>
		</g>
	</g>
	<g>
		<path class="st5" d="M41.6,58.1c0.7,0,1.3,0.6,1.3,1.3s-0.6,1.3-1.3,1.3s-1.3-0.6-1.3-1.3C40.3,58.7,40.9,58.1,41.6,58.1z
			 M41.6,60.3c0.5,0,0.9-0.4,0.9-0.9s-0.4-0.9-0.9-0.9s-0.9,0.4-0.9,0.9C40.7,59.9,41.1,60.3,41.6,60.3z"/>
	</g>
	<g>
		<circle class="st18" cx="15" cy="33.5" r="4.6"/>
		<g>
			<path class="st12" d="M13.7,32.2c0.3,0,0.6,0.2,0.8,0.5h0.1c-0.1-0.5-0.5-0.9-0.9-0.9s-0.8,0.4-0.9,0.9c0,0.1,0.1,0.1,0.1,0
				C13,32.4,13.3,32.2,13.7,32.2z"/>
		</g>
		<g>
			<path class="st12" d="M16.4,32.2c0.3,0,0.6,0.2,0.8,0.5h0.1c-0.1-0.5-0.5-0.9-0.9-0.9s-0.8,0.4-0.9,0.9c0,0.1,0.1,0.1,0.1,0
				C15.8,32.4,16.1,32.2,16.4,32.2z"/>
		</g>
	</g>
</g>
<g>
	<path class="st12" d="M12,33.9c1.5,1.4,3.9,1.6,5.6,0.4c0.9-0.8,0.4,0,0,0.4C16.1,36.4,12.6,35.9,12,33.9z"/>
</g>
</svg>
