<?xml version="1.0" encoding="utf-8"?>
<!-- Generator: Adobe Illustrator 25.4.1, SVG Export Plug-In . SVG Version: 6.00 Build 0)  -->
<svg version="1.1" id="Layer_1" xmlns="http://www.w3.org/2000/svg" xmlns:xlink="http://www.w3.org/1999/xlink" x="0px" y="0px"
	 viewBox="0 0 89.2 63.5" style="enable-background:new 0 0 89.2 63.5;" xml:space="preserve">
<style type="text/css">
	.st0{display:none;opacity:0.54;fill:#FFFFFF;enable-background:new    ;}
	.st1{fill:#647E99;}
	.st2{fill:#7491AA;}
	.st3{fill:#F8F9FA;}
	.st4{opacity:0.4;fill:#FFFFFF;enable-background:new    ;}
</style>
<rect x="-18" y="-30.4" class="st0" width="125.1" height="127.9"/>
<g>
	<g>
		<path class="st1" d="M67.2,0v51.5H43.4c0.7-1.2,1.2-2.4,1.6-3.8h18.4V3.6H37.7v7.6h-8v17c-1.3,0-2.6,0.2-3.8,0.6V9.2L35.3,0H67.2z
			"/>
		<path class="st1" d="M67.2,0v51.5H43.4c3.9-6.7,2.4-15.2-3.9-20.1c-3.9-3-8.9-3.8-13.5-2.5V9.2L35.3,0H67.2z"/>
		<polygon class="st2" points="37.7,0 37.7,11.2 25.9,11.2 25.9,9.2 35.3,0 		"/>
		<path class="st1" d="M74.3,6.9v51.5H34.8c2.4-0.8,4.5-2.1,6.2-3.8h29.5V10.4l0,0l0-3.6H74.3z"/>
		<rect x="33.8" y="17.5" class="st3" width="25.6" height="2.5"/>
		<rect x="33.8" y="25" class="st3" width="25.6" height="2.5"/>
		<rect x="45.6" y="32.6" class="st3" width="13.8" height="2.5"/>
	</g>
	<g>
		<path class="st1" d="M18.2,57.8l1.7,1.3c0.2,0.1,0.5,0.1,0.7-0.1l3.2-4.3l1.3-1.8L22.8,51L22,52.1l-3.8,5
			C18,57.3,18,57.5,18.2,57.8z"/>
		<path class="st1" d="M15.3,63.3L15.3,63.3c0.5,0.3,1.1,0.2,1.4-0.2l3.2-4.3l-1.6-1.1L15.1,62C14.8,62.4,14.9,63.1,15.3,63.3z"/>
		<g>
			<path class="st4" d="M20.2,41c0.1-0.5-0.1-1.8,0.2-2c0.6-1.2,1.5-1.9,2.2-2.8c0.8-1,1.7-1.9,2.8-2.5c1.7-0.9,5.1-1,7-0.7
				c0.6,0,1,0.4,1.5,0.5c5.4,1.6,7.6,7.4,6.2,12.8c-0.1,0.5-0.4,1-0.6,1.5c-0.9,1.8-2.1,3.3-3.7,4.4c-1.1,0.7-2.2,1.2-3.3,1.4
				c-1.1,0.2-2.4,0.3-3.6,0.1c-0.5,0-1-0.1-1.5-0.3C22.1,52,18.8,46.5,20.2,41z"/>
			<path class="st1" d="M20.5,36.3c-4,5.4-3,12.8,2.3,16.9c5.4,4,12.8,3,16.9-2.3c4-5.4,3-12.8-2.3-16.9C32.2,30,24.6,31,20.5,36.3z
				 M22.5,37.8c3.2-4.2,9.3-5,13.5-1.8c4.2,3.2,5,9.3,1.8,13.5c-3.2,4.2-9.3,5-13.5,1.8C20.1,48.1,19.3,42,22.5,37.8z"/>
		</g>
		<g>
			<path class="st1" d="M28.3,38.7l0.7,3.9l1.8-0.3l-0.7-3.9l-0.9-1.2c-0.1-0.2-0.4-0.1-0.4,0.1L28.3,38.7z"/>
			<path class="st1" d="M28.5,47.6l2.4-3.1l-1.4-1.1l-2.4,3.1L26.8,48c0,0.2,0.1,0.4,0.3,0.3L28.5,47.6z"/>
			<circle class="st1" cx="30.1" cy="43.8" r="2.1"/>
		</g>
	</g>
	<circle class="st3" cx="30.1" cy="43.8" r="1"/>
</g>
</svg>
