<?xml version="1.0" encoding="utf-8"?>
<!-- Generator: Adobe Illustrator 25.4.1, SVG Export Plug-In . SVG Version: 6.00 Build 0)  -->
<svg version="1.1" id="Layer_1" xmlns="http://www.w3.org/2000/svg" xmlns:xlink="http://www.w3.org/1999/xlink" x="0px" y="0px"
	 viewBox="0 0 89.2 63.5" style="enable-background:new 0 0 89.2 63.5;" xml:space="preserve">
<style type="text/css">
	.st0{display:none;opacity:0.54;fill:#FFFFFF;enable-background:new    ;}
	.st1{fill:#647E99;}
	.st2{fill:#FF7401;}
	.st3{fill:#F8F9FA;}
	.st4{fill:none;}
	.st5{fill:#FFFFFF;}
	.st6{fill:#7491AA;}
	.st7{display:none;fill:none;}
	.st8{display:none;}
	.st9{display:inline;fill:#FFAA01;}
	.st10{display:inline;fill:none;}
</style>
<rect x="-18" y="-30.4" class="st0" width="125.1" height="127.9"/>
<g>
	<g>
		<rect x="44" y="54.4" class="st1" width="2.3" height="7.6"/>
		<path class="st1" d="M23,61.4L23,61.4c0-0.6,0.5-1.2,1.2-1.2h41.9c0.6,0,1.2,0.5,1.2,1.2v0c0,0.6-0.5,1.2-1.2,1.2H24.2
			C23.6,62.5,23,62,23,61.4z"/>
		<circle class="st1" cx="45.1" cy="61.3" r="2.2"/>
		<circle class="st1" cx="23.3" cy="61.3" r="2.2"/>
		<circle class="st1" cx="66.9" cy="61.3" r="2.2"/>
	</g>
	<g>
		<g>
			<g>
				<path class="st1" d="M79.8,25.6c-1.4-8.5-9.3-14.2-17.8-13.1c-0.6,0.1-1.3,0.2-1.9,0.3C57.3,4.2,49.4-0.4,41.8,0.1
					C38,0.3,34.5,1.5,31.6,3.9c-4.1,3.3-6.4,7.6-6.9,12.9c-0.4,0-0.7,0-1,0c-1.3,0.1-2.5,0-3.8,0.3C13.1,18.6,8.5,25,9.3,31.9
					c0.6,5.6,4.5,10.2,9.8,11.7c1.2,0.3,2.4,0.5,3.7,0.5h0.1c0-0.1,0-0.2,0-0.4v-5.2c0-0.9,0.2-1.8,0.7-2.6
					c-0.4-0.8-0.7-1.6-0.7-2.6v-5.2c0-2.9,2.3-5.2,5.2-5.2h34.7c2.9,0,5.2,2.3,5.2,5.2v5.2c0,0.9-0.2,1.8-0.7,2.6
					c0.4,0.7,0.7,1.5,0.7,2.4l0,1.3c1.3,0.4,3,0.7,5.1,0.9l1.1,0.1c0.7-0.6,1.4-1.2,2-1.9C79.1,35.3,80.6,30.5,79.8,25.6z"/>
			</g>
		</g>
	</g>
	<g>
		<path class="st2" d="M30.9,54.4h-2.6v-1.6C28.8,53.8,29.8,54.4,30.9,54.4z"/>
		<path class="st3" d="M53.5,46.7c0.1,0.6,0.2,1.2,0.3,1.8H30.9c-0.8,0-1.6,0.3-2.1,0.9c-0.2,0.2-0.4,0.4-0.5,0.7v-7.5
			c0.5,0.9,1.5,1.6,2.6,1.6h22.4c0,0.3,0,0.5,0,0.8c0,0.3,0,0.6,0.1,1C53.5,46.2,53.5,46.4,53.5,46.7z"/>
		<g>
			<g>
				<path class="st1" d="M62.7,35.6H28c-1.2,0-2.2-1-2.2-2.2v-5.2c0-1.2,1-2.2,2.2-2.2h34.7c1.2,0,2.2,1,2.2,2.2v5.2
					C64.8,34.6,63.9,35.6,62.7,35.6z"/>
				<path class="st4" d="M62.7,35.6H28c-1.2,0-2.2-1-2.2-2.2v-5.2c0-1.2,1-2.2,2.2-2.2h34.7c1.2,0,2.2,1,2.2,2.2v5.2
					C64.8,34.6,63.9,35.6,62.7,35.6z"/>
			</g>
			<path class="st5" d="M59.8,33.8H30.9c-1.6,0-2.9-1.3-2.9-2.9v0c0-1.6,1.3-2.9,2.9-2.9h28.8c1.6,0,2.9,1.3,2.9,2.9v0
				C62.7,32.5,61.4,33.8,59.8,33.8z"/>
			<circle class="st6" cx="32.3" cy="31" r="1.1"/>
			<circle class="st6" cx="37.7" cy="31" r="1.1"/>
			<circle class="st6" cx="43.1" cy="31" r="1.1"/>
		</g>
		<g>
			<g>
				<path class="st1" d="M64.8,38.5l-0.3-0.1l-1.2,0.5c-0.3,0.1-0.6,0.3-1,0.4c-0.1,0-0.2,0.1-0.3,0.1c-0.5-0.7-1.4-1.1-2.3-1.1
					H30.9c-0.8,0-1.6,0.3-2.1,0.9c-0.2,0.2-0.4,0.4-0.5,0.7c-0.2,0.4-0.3,0.9-0.3,1.4c0,0.5,0.1,1,0.3,1.4c0.5,0.9,1.5,1.6,2.6,1.6
					h22.4c0,0.3,0,0.5,0,0.8c0,0.3,0,0.6,0.1,1H28c-0.8,0-1.5-0.4-1.8-1c-0.2-0.3-0.3-0.7-0.3-1.1v-5.2c0-1.2,1-2.2,2.2-2.2h34.7
					C63.9,36.4,64.8,37.3,64.8,38.5z"/>
				<path class="st7" d="M64.8,38.5l-0.3-0.1l-1.2,0.5c-0.3,0.1-0.6,0.3-1,0.4c-0.1,0-0.2,0.1-0.3,0.1c-0.5-0.7-1.4-1.1-2.3-1.1
					H30.9c-0.8,0-1.6,0.3-2.1,0.9c-0.2,0.2-0.4,0.4-0.5,0.7c-0.2,0.4-0.3,0.9-0.3,1.4c0,0.5,0.1,1,0.3,1.4c0.5,0.9,1.5,1.6,2.6,1.6
					h22.4c0,0.3,0,0.5,0,0.8c0,0.3,0,0.6,0.1,1H28c-0.8,0-1.5-0.4-1.8-1c-0.2-0.3-0.3-0.7-0.3-1.1v-5.2c0-1.2,1-2.2,2.2-2.2h34.7
					C63.9,36.4,64.8,37.3,64.8,38.5z"/>
			</g>
			<path class="st5" d="M62.1,39.4c-1.4,0.5-3.5,1-6.1,1.1l-2.6,0.1l0,2.6c0,0.3,0,0.6,0,0.9H30.9c-1.1,0-2.1-0.6-2.6-1.6
				c-0.2-0.4-0.3-0.9-0.3-1.4c0-0.5,0.1-1,0.3-1.4c0.1-0.3,0.3-0.5,0.5-0.7c0.5-0.5,1.3-0.9,2.1-0.9h28.8
				C60.7,38.2,61.6,38.7,62.1,39.4z"/>
			<circle class="st6" cx="32.3" cy="41.3" r="1.1"/>
			<circle class="st6" cx="37.7" cy="41.3" r="1.1"/>
			<circle class="st6" cx="43.1" cy="41.3" r="1.1"/>
		</g>
		<g>
			<g class="st8">
				<path class="st9" d="M55.9,54.4c0.3,0.6,0.7,1.2,1.2,1.8H28c-1.2,0-2.2-1-2.2-2.2v-5.2c0-1.2,1-2.2,2.2-2.2h25.5
					c0.1,0.6,0.2,1.2,0.3,1.8C54.2,50.4,54.9,52.5,55.9,54.4z"/>
				<path class="st10" d="M55.9,54.4c0.3,0.6,0.7,1.2,1.2,1.8H28c-1.2,0-2.2-1-2.2-2.2v-5.2c0-1.2,1-2.2,2.2-2.2h25.5
					c0.1,0.6,0.2,1.2,0.3,1.8C54.2,50.4,54.9,52.5,55.9,54.4z"/>
			</g>
			<path class="st5" d="M53.8,48.5c0.4,1.9,1,3.9,2.1,5.9h-25c-1.1,0-2.1-0.6-2.6-1.6C28.1,52.5,28,52,28,51.5c0-0.5,0.1-1,0.3-1.4
				c0.1-0.3,0.3-0.5,0.5-0.7c0.5-0.5,1.3-0.9,2.1-0.9H53.8z"/>
			<path class="st1" d="M57.1,56.2H28c-1.2,0-2.2-1-2.2-2.2v-5.2c0-1.2,1-2.2,2.2-2.2h25.5c0.1,0.6,0.2,1.2,0.3,1.8H30.9
				c-0.8,0-1.5,0.3-2.1,0.9c-0.2,0.2-0.4,0.4-0.5,0.7C28.1,50.5,28,51,28,51.5c0,0.5,0.1,1,0.3,1.4c0.5,0.9,1.5,1.5,2.6,1.5h25
				C56.3,55,56.7,55.7,57.1,56.2z"/>
			<circle class="st6" cx="32.3" cy="51.6" r="1.1"/>
			<circle class="st6" cx="37.7" cy="51.6" r="1.1"/>
			<circle class="st6" cx="43.1" cy="51.6" r="1.1"/>
		</g>
	</g>
	<g>
		<path class="st1" d="M72.8,43.4c0.3,5.3-2.9,13.5-8.5,14.9c-6.1-2.3-8.3-9.2-8.2-15.1c3.6-0.2,5.8-0.8,8.4-1.8
			C66.1,42.2,69.9,43.3,72.8,43.4z"/>
		<path class="st5" d="M67.4,48.9h-0.3v-1.1c0-1.5-1.2-2.6-2.6-2.6c-0.1,0-0.1,0-0.2,0c-0.6,0-1.2,0.3-1.7,0.7
			c-0.1,0.1-0.2,0.2-0.3,0.3c-0.1,0.1-0.2,0.3-0.3,0.5c-0.2,0.3-0.2,0.7-0.2,1.1v1.1h-0.3c-0.1,0-0.1,0-0.2,0.1c0,0,0,0.1,0,0.1v4
			c0,0,0.1,0.3,0.4,0.6c0.2,0.1,0.4,0.3,0.6,0.4c0.5,0.3,1.2,0.5,2.2,0.5c0.1,0,0.2,0,0.3,0c2.2-0.1,2.8-1.3,2.8-1.4v-4
			C67.6,49,67.6,48.9,67.4,48.9z M63.8,52.7l0.3-1.4c-0.2-0.1-0.3-0.3-0.3-0.5c0-0.4,0.3-0.7,0.7-0.7c0.1,0,0.3,0,0.4,0.1
			c0.2,0.1,0.3,0.3,0.3,0.5c0,0.2-0.1,0.4-0.3,0.5l0.3,1.4H63.8z M66.1,48.9h-3.2v-1.1c0-0.4,0.1-0.7,0.4-1c0.3-0.4,0.7-0.6,1.2-0.6
			c0.9,0,1.6,0.7,1.6,1.6V48.9z"/>
	</g>
</g>
</svg>
