<?xml version="1.0" encoding="utf-8"?>
<!-- Generator: Adobe Illustrator 25.4.1, SVG Export Plug-In . SVG Version: 6.00 Build 0)  -->
<svg version="1.1" id="Layer_1" xmlns="http://www.w3.org/2000/svg" xmlns:xlink="http://www.w3.org/1999/xlink" x="0px" y="0px"
	 viewBox="0 0 89.2 63.5" style="enable-background:new 0 0 89.2 63.5;" xml:space="preserve">
<style type="text/css">
	.st0{display:none;opacity:0.54;fill:#FFFFFF;enable-background:new    ;}
	.st1{fill:#8EA3B2;}
	.st2{fill:#647E99;}
	.st3{opacity:0.2;fill:url(#SVGID_1_);enable-background:new    ;}
	.st4{fill:#F8F9FA;}
</style>
<rect x="-18" y="-30.4" class="st0" width="125.1" height="127.9"/>
<g>
	<g>
		<path class="st1" d="M15.3,4.7c-1.3,0.5-1.9,1.6-1.9,2.7v25.8c0,5.4,2.4,10.2,6.7,13.2L35.1,56c1.1,0.5,2.4,0.5,3.5,0l15.1-9.7
			c4.3-3,6.7-7.8,6.7-13.2V7.7c0-1.1-0.8-2.2-2.2-2.7C39.7-1.5,32.2-1.7,15.3,4.7L15.3,4.7z"/>
		<path class="st2" d="M18.8,8.9c-1,0.3-1.6,1.3-1.6,2.1v21.3c0,4.4,2.1,8.3,5.5,10.9l12.5,8c0.8,0.5,2.1,0.5,2.9,0l12.5-8
			c3.4-2.6,5.5-6.5,5.5-10.9v-21c0-1-0.8-1.8-1.8-2.3C39.1,3.7,33.1,3.4,18.8,8.9L18.8,8.9z"/>
		<linearGradient id="SVGID_1_" gradientUnits="userSpaceOnUse" x1="36.4959" y1="28.2272" x2="55.7516" y2="28.2272">
			<stop  offset="0" style="stop-color:#FFFFFF"/>
			<stop  offset="1" style="stop-color:#FFFFFF;stop-opacity:0"/>
		</linearGradient>
		<path class="st3" d="M54.1,8.9C46.9,6.3,41.7,5,36.5,5v46.5c0.5,0,1-0.3,1.3-0.5l12.5-8c3.4-2.6,5.5-6.5,5.5-10.9V11
			C56,10.2,55.2,9.2,54.1,8.9L54.1,8.9z"/>
	</g>
	<g id="XMLID_00000029740086028865415680000013878870785860827806_">
		<g>
			<path class="st4" d="M47.6,16.9c-2.6-3-7.1-3.4-10.1-0.8c-2.5,2.1-3.2,5.5-2,8.3l-10.4,8.7c-0.8,0.8-1,2-0.2,2.9
				c0.4,0.4,0.8,0.6,1.3,0.7c0.5,0.1,1.1,0,1.6-0.4l0.1-0.1l0.7,0.8c0.3,0.3,0.9,0.4,1.3,0.1c0.3-0.4,0.4-0.9,0.1-1.3l-0.7-0.8
				l0.3-0.2l1.4,1.6c0.4,0.3,0.9,0.4,1.3,0.1c0.3-0.3,0.4-0.9,0.1-1.3l-1.4-1.6l0.5-0.4l0.6,0.8c0.3,0.5,0.9,0.4,1.3,0.1
				c0.3-0.3,0.4-0.9,0.1-1.3l-0.6-0.8l5.1-4.3c2.6,1.7,6.1,1.6,8.6-0.5C49.8,24.5,50.2,19.9,47.6,16.9z M42.3,25.2c-2.2,0-4-1.8-4-4
				c0-2.2,1.8-4,4-4c2.2,0,4,1.8,4,4C46.2,23.5,44.5,25.2,42.3,25.2z"/>
		</g>
	</g>
	<g>
		<circle class="st4" cx="58.1" cy="45.8" r="17.7"/>
		<circle class="st2" cx="58.1" cy="45.8" r="14.1"/>
	</g>
	<g>
		<g>
			<path class="st4" d="M56,38.9l1,5.3l1.9-0.4l-1-5.3l-1.1-1.8c-0.2-0.3-0.4-0.2-0.5,0.1L56,38.9z"/>
			<path class="st4" d="M55.8,51l3.3-4.3l-1.6-1.2l-3.3,4.3l-0.6,2c-0.1,0.3,0.1,0.4,0.4,0.3L55.8,51z"/>
			<circle class="st4" cx="58.2" cy="45.9" r="2.8"/>
		</g>
	</g>
	<circle class="st2" cx="58.2" cy="45.9" r="1.4"/>
</g>
</svg>
