<?xml version="1.0" encoding="utf-8"?>
<!-- Generator: Adobe Illustrator 25.4.1, SVG Export Plug-In . SVG Version: 6.00 Build 0)  -->
<svg version="1.1" id="Layer_1" xmlns="http://www.w3.org/2000/svg" xmlns:xlink="http://www.w3.org/1999/xlink" x="0px" y="0px"
	 viewBox="0 0 89.2 63.5" style="enable-background:new 0 0 89.2 63.5;" xml:space="preserve">
<style type="text/css">
	.st0{display:none;opacity:0.54;fill:#FFFFFF;enable-background:new    ;}
	.st1{fill:#647E99;}
	.st2{fill:#FFFEFF;}
</style>
<rect x="-18" y="-30.4" class="st0" width="125.1" height="127.9"/>
<g>
	<g id="location_00000062157239276576529770000014493954715796027300_">
		<g>
			<path class="st1" d="M38,54.4c3.8-0.6,7.7-1.5,11.7-2.8l-6.1,10.2c-0.3,0.5-0.9,0.5-1.2,0L38,54.4z"/>
			<path class="st1" d="M43,63.6c-0.8,0-1.5-0.4-1.9-1.1l-5.5-9.3l2.2-0.3c3.8-0.6,7.6-1.5,11.4-2.8l3.8-1.3l-8.1,13.7
				C44.5,63.2,43.7,63.6,43,63.6z M42.3,61C42.2,61,42.2,61,42.3,61L42.3,61z M43.6,61L43.6,61C43.6,61,43.6,61,43.6,61z M40.4,55.5
				l2.6,4.3l3.4-5.7C44.4,54.7,42.4,55.2,40.4,55.5z"/>
		</g>
		<path class="st1" d="M64,21.1c0,2.6-0.5,5.2-1.4,7.5l0,0c-3.8,3.5-9.6,6.7-15.9,9c-5.5,2-11.2,3-16,3c-0.2,0-0.4,0-0.7,0h0l-4.8-8
			l-0.8-1.3l0,0c0,0,0-0.1,0-0.1c-1.6-3-2.5-6.4-2.5-10C21.9,9.4,31.3,0,43,0c10.8,0,19.7,8.1,20.9,18.6v0c0.1,0.4,0.1,0.9,0.1,1.3
			C64,20.3,64,20.7,64,21.1z"/>
		<circle class="st2" cx="43" cy="19.4" r="8"/>
	</g>
	<path class="st1" d="M49.4,46.2c-16.8,5.9-32.7,4.6-35.3-3c-1.4-3.9,1.1-8.8,6.1-13.4c-2.9,3.3-4.1,6.7-3.2,9.5
		c2.3,6.7,16.3,7.8,31.2,2.6C63.2,36.6,73.4,27,71,20.3c-0.8-2.3-3-3.9-6.1-4.9c5.2,0.8,9,3,10.1,6.3C77.8,29.3,66.3,40.3,49.4,46.2
		z"/>
</g>
</svg>
