<?xml version="1.0" encoding="utf-8"?>
<!-- Generator: Adobe Illustrator 25.4.1, SVG Export Plug-In . SVG Version: 6.00 Build 0)  -->
<svg version="1.1" id="Layer_1" xmlns="http://www.w3.org/2000/svg" xmlns:xlink="http://www.w3.org/1999/xlink" x="0px" y="0px"
	 viewBox="0 0 89.2 63.5" style="enable-background:new 0 0 89.2 63.5;" xml:space="preserve">
<style type="text/css">
	.st0{display:none;opacity:0.54;fill:#FFFFFF;enable-background:new    ;}
	.st1{fill:#647E99;}
	.st2{fill:#8EA3B2;}
</style>
<rect x="-18" y="-30.4" class="st0" width="125.1" height="127.9"/>
<g>
	<path class="st1" d="M20.7,14.5C11.6,21.7,6.4,32.8,6.4,44.4c0,2.9,0.2,6.4,0.7,10.1l5.8-1.3c0,0-3.1-19.8,11.6-30.5V11.9
		C23.3,12.6,22,13.4,20.7,14.5z M29.1,9.5V20c1.2-0.6,2.4-1.1,3.8-1.5c0,0,5.5-1.8,12.3-1l4.9-10.6C44.1,6,36.9,6.3,29.1,9.5z
		 M29.1,9.5V20c1.2-0.6,2.4-1.1,3.8-1.5c0,0,5.5-1.8,12.3-1l4.9-10.6C44.1,6,36.9,6.3,29.1,9.5z M69.5,15.3
		c-0.4-0.3-0.7-0.6-1.1-0.8c-1.4-1.1-6.3-4.6-13.6-6.6l-4.8,10.6c2.3,0.7,4.6,1.7,6.8,3.2c0.5,0.3,1,0.7,1.4,1.1
		c1.2,1,2.4,2.1,3.6,3.4c3.8,4.5,5.9,10.2,6.3,16c0.2,2.6,0.2,5.6-0.3,8.9l14.3,3.1C82.1,54.1,87.5,28.9,69.5,15.3z M79.2,50.2
		l-8.7-1.5c0,0,2.2-7.9-1.8-18.5l5.6-3.6C74.3,26.6,81.1,35.1,79.2,50.2z M29.1,9.5V20c1.2-0.6,2.4-1.1,3.8-1.5c0,0,5.5-1.8,12.3-1
		l4.9-10.6C44.1,6,36.9,6.3,29.1,9.5z"/>
	<polygon class="st2" points="29.1,0 53.2,0 41.2,26.3 51.5,26.3 35.4,63.5 35.6,37.5 29.1,37.6 	"/>
	<g>
		<polygon class="st1" points="37.7,45.5 39.4,48.7 61.4,35 		"/>
		<g>
			<circle class="st1" cx="38.5" cy="47.2" r="3.8"/>
			<circle class="st1" cx="38.5" cy="47.2" r="2"/>
		</g>
	</g>
</g>
</svg>
