<?xml version="1.0" encoding="utf-8"?>
<!-- Generator: Adobe Illustrator 25.4.1, SVG Export Plug-In . SVG Version: 6.00 Build 0)  -->
<svg version="1.1" id="Layer_1" xmlns="http://www.w3.org/2000/svg" xmlns:xlink="http://www.w3.org/1999/xlink" x="0px" y="0px"
	 viewBox="0 0 89.2 63.5" style="enable-background:new 0 0 89.2 63.5;" xml:space="preserve">
<style type="text/css">
	.st0{display:none;opacity:0.54;fill:#FFFFFF;enable-background:new    ;}
	.st1{fill:#647E99;}
</style>
<rect x="-18" y="-30.4" class="st0" width="125.1" height="127.9"/>
<g>
	<g>
		<path class="st1" d="M77.1,0H5.5C2.4,0,0,2.4,0,5.4v45.4c0,3,2.4,5.5,5.5,5.5h71.6c3,0,5.5-2.4,5.5-5.5V5.4
			C82.6,2.4,80.1,0,77.1,0z M5.2,8.7c-0.6,0-1-0.4-1-1V5.9c0-0.6,0.4-1,1-1h49.7c0.6,0,1,0.4,1,1v1.8c0,0.6-0.4,1-1,1H5.2z
			 M57.4,29.9C54.7,39.5,49.2,46,41,49c-16.3-6.3-17.5-25.3-17.4-31.9c8.8-0.4,15.1-2.7,17.7-3.9c2.7,1.2,8.9,3.6,17.6,4.1
			C59,20,58.8,24.8,57.4,29.9z M64,7.7c0,0.6-0.4,1-1,1h-3.3c-0.6,0-1-0.4-1-1V5.9c0-0.6,0.4-1,1-1H63c0.6,0,1,0.4,1,1V7.7z
			 M71.4,7.7c0,0.6-0.4,1-1,1H67c-0.6,0-1-0.4-1-1V5.9c0-0.6,0.4-1,1-1h3.3c0.6,0,1,0.4,1,1V7.7z M78.6,7.7c0,0.6-0.4,1-1,1h-3.3
			c-0.6,0-1-0.4-1-1V5.9c0-0.6,0.4-1,1-1h3.3c0.6,0,1,0.4,1,1V7.7z"/>
		<path class="st1" d="M47.6,29.1h-0.7v-2.3c0-3.1-2.5-5.6-5.6-5.6s-5.6,2.5-5.6,5.6v2.3h-0.7c-0.2,0-0.4,0.2-0.4,0.4V38
			c0,0.2,1.8,3,6.9,3s6.6-2.8,6.6-3v-8.4C48,29.3,47.9,29.1,47.6,29.1z M37.9,26.8c0-1.9,1.5-3.4,3.4-3.4s3.4,1.5,3.4,3.4v2.3h-6.8
			L37.9,26.8z M42.7,37.2h-2.9l0.6-3c-0.4-0.3-0.6-0.6-0.6-1.1c0-0.8,0.6-1.4,1.4-1.4s1.4,0.6,1.4,1.4c0,0.5-0.2,0.8-0.6,1.1
			L42.7,37.2z"/>
	</g>
	<path class="st1" d="M86.9,8.1V11h0v41.5c0,4.5-3.6,8.1-8.1,8.1H10.3v0H7.5c0.9,1.8,2.7,3,4.9,3h67.5c5.3,0,9.6-4.3,9.6-9.6V12.7
		C89.5,10.7,88.4,9,86.9,8.1z"/>
</g>
</svg>
