<svg xmlns="http://www.w3.org/2000/svg" viewBox="0 0 32 32"><path d="M16 32C7.164 32 0 24.836 0 16S7.164 0 16 0s16 7.164 16 16-7.164 16-16 16zM7.353 20.653c0 2.772 2.136 4.788 4.8 4.788 2.652 0 4.848-2.052 4.848-4.824 0-2.748-2.148-4.812-4.812-4.812h-.027a4.809 4.809 0 00-4.809 4.809v.041-.002zm1.548-.036c0-1.908 1.428-3.444 3.276-3.444 1.836 0 3.276 1.536 3.276 3.444s-1.44 3.456-3.276 3.456c-1.848 0-3.276-1.548-3.276-3.456zm11.91 4.824c2.077 0 3.253-1.38 3.253-2.748 0-1.392-.888-2.388-2.568-2.724l-1.189-.228c-.755-.156-1.187-.72-1.187-1.248 0-.72.707-1.368 1.62-1.368.996 0 1.632.744 1.8 1.416l1.367-.432c-.191-1.02-1.067-2.304-3.191-2.304-1.693 0-3.109 1.272-3.109 2.82 0 1.224.84 2.244 2.388 2.556l1.152.24c.793.168 1.392.6 1.392 1.368 0 .792-.768 1.32-1.703 1.32-1.129 0-1.873-.708-2.077-1.8l-1.425.384c.131 1.332 1.283 2.748 3.48 2.748zM9.952 10.533v2.8h1.101v-2.781c0-.756.411-1.26 1.101-1.26.765 0 1.064.523 1.064 1.232v2.809h1.111v-3.08c0-1.129-.551-2.016-1.811-2.016-.765 0-1.251.28-1.736.821-.28-.504-.775-.821-1.54-.821-.392 0-1.008.149-1.484.784v-.672H6.675v4.984h1.111v-2.772c0-.756.411-1.269 1.092-1.269.765 0 1.073.541 1.073 1.241zm9.744 2.8V10.16c0-.336-.047-.625-.168-.896-.327-.719-1.027-1.017-1.867-1.017-.364 0-.719.065-1.008.196-.691.299-1.073.933-1.12 1.353l1.008.224c.084-.476.485-.821 1.092-.821.653 0 .98.364.98.756 0 .243-.131.42-.467.42h-.616c-.868 0-2.072.364-2.072 1.521v.056c0 .859.709 1.465 1.68 1.465.467 0 1.101-.159 1.465-.765v.681h1.092zm-1.092-2.016c0 .747-.485 1.213-1.241 1.213-.467 0-.793-.271-.793-.681 0-.467.541-.691.961-.691h1.073v.159zm4.788 2.1c1.353 0 2.128-.868 2.352-1.633l-1.017-.327c-.149.383-.457.952-1.316.952-.849 0-1.475-.663-1.475-1.596 0-.943.653-1.559 1.465-1.559.831 0 1.195.541 1.307.933l1.008-.336c-.215-.84-1.073-1.605-2.305-1.605a2.58 2.58 0 00-2.613 2.585c0 1.465 1.129 2.585 2.595 2.585z"/></svg>