<?xml version="1.0" encoding="utf-8"?>
<!-- Generator: Adobe Illustrator 25.4.1, SVG Export Plug-In . SVG Version: 6.00 Build 0)  -->
<svg version="1.1" id="Layer_1" xmlns="http://www.w3.org/2000/svg" xmlns:xlink="http://www.w3.org/1999/xlink" x="0px" y="0px"
	 viewBox="0 0 512 512" style="enable-background:new 0 0 512 512;" xml:space="preserve">
<style type="text/css">
	.st0{fill:url(#SVGID_1_);}
	.st1{fill:url(#SVGID_00000025425780515724519470000006676158285895563408_);}
	.st2{fill:#1A9EFE;}
	.st3{fill:#87D7F6;}
	.st4{fill:url(#SVGID_00000183963887750776707090000008736645678131586975_);}
	.st5{fill:url(#SVGID_00000016058904108766649030000017846504570324217989_);}
	.st6{fill:#FFFFFF;}
</style>
<g>
	<g>
		<linearGradient id="SVGID_1_" gradientUnits="userSpaceOnUse" x1="218.6277" y1="425.746" x2="218.6277" y2="-106.8305">
			<stop  offset="0" style="stop-color:#2BBAED"/>
			<stop  offset="0.3167" style="stop-color:#2C8FCE"/>
			<stop  offset="0.79" style="stop-color:#336BB4"/>
			<stop  offset="1" style="stop-color:#335EAC"/>
		</linearGradient>
		<path class="st0" d="M437.3,232.3c0,6.7-0.3,13.3-0.9,19.8c-4.3-2.6-8.5-5.1-12.8-7.6l-0.4-0.3c-2.5-1.4-6.3-3.7-11.4-4.3
			c-0.8-0.1-1.6-0.2-2.5-0.2h-0.4c-3.4,0-6.3,0.8-8.8,1.8c0.2-3.1,0.2-6.1,0.2-9.3c0-100.3-81.3-181.6-181.6-181.6
			c-100.3,0-181.6,81.3-181.6,181.6c0,100.3,81.3,181.6,181.6,181.6c29.6,0,57.5-7.1,82.2-19.7c0.9,3.9,2,7.8,3.2,11.5
			c1.5,4.8,3.2,9.5,5,14c1.5,3.5,2.9,6.7,4.3,9.7c-28.7,13.8-60.8,21.5-94.7,21.5C97.9,450.9,0,353.1,0,232.3
			C0,111.6,97.9,13.7,218.6,13.7S437.3,111.6,437.3,232.3z"/>
		
			<linearGradient id="SVGID_00000030479437265495233430000012237050234769286073_" gradientUnits="userSpaceOnUse" x1="218.6277" y1="161.7226" x2="218.6277" y2="548.1829">
			<stop  offset="0" style="stop-color:#2DABEA"/>
			<stop  offset="0.7045" style="stop-color:#2C8FCE"/>
			<stop  offset="0.8552" style="stop-color:#336BB4"/>
			<stop  offset="1" style="stop-color:#335EAC"/>
		</linearGradient>
		<path style="fill:url(#SVGID_00000030479437265495233430000012237050234769286073_);" d="M411.9,232.3c0,2.6,0,5.1-0.2,7.7
			c-0.8-0.1-1.6-0.2-2.5-0.2h-0.4c-3.4,0-6.3,0.8-8.8,1.8c0.2-3.1,0.2-6.1,0.2-9.3c0-100.3-81.3-181.6-181.6-181.6
			c-100.3,0-181.6,81.3-181.6,181.6c0,100.3,81.3,181.6,181.6,181.6c29.6,0,57.5-7.1,82.2-19.7c0.9,3.9,2,7.8,3.2,11.5
			c-25.8,12.7-54.7,19.9-85.4,19.9c-106.7,0-193.2-86.5-193.2-193.2c0-106.7,86.5-193.2,193.2-193.2
			C325.3,39.1,411.9,125.6,411.9,232.3z"/>
		<path class="st2" d="M220,210.7c-12-0.7-22,8.2-22.7,20.2c-0.7,12,8.2,22,20.2,22.7c12,0.7,122.9-14.1,122.9-14.1
			S231.7,211.4,220,210.7z M218.6,244c-6.5,0-11.7-5.2-11.7-11.7c0-6.4,5.2-11.7,11.7-11.7c6.5,0,11.7,5.3,11.7,11.7
			C230.3,238.8,225.1,244,218.6,244z"/>
		<path class="st3" d="M374.4,230.9c0,9.1-0.8,18.1-2.4,27c-4.7,2.7-9.5,5.6-14.1,8.4c-2.4,1.4-4.8,2.8-7.1,4.3
			c-2.4,1.5-4.8,2.9-7.2,4.4c4.9-14,7.5-28.8,7.5-44c0-44.3-21.6-83.4-55.3-107.4c-16.7-12-36-20.3-57.1-23.5
			c-4.9-0.8-9.9-1.2-15-1.4c-1.7-0.1-3.4-0.1-5.1-0.1c-2.3,0-4.6,0.1-6.8,0.2c-2.2,0.1-4.4,0.2-6.5,0.5c-1.1,0.1-2.1,0.2-3.1,0.3
			c-2.1,0.2-4.1,0.5-6.1,0.9c-62.5,10.5-110.3,65.1-110.3,130.6c0,31.6,11.3,62.5,31.9,86.5l-17.3,14.9l-0.2,0.2
			c-24.4-28.1-37.8-64.2-37.8-101.6c0-78.1,58-143.1,133.1-154.1c1.2-0.2,2.4-0.3,3.6-0.5c3.8-0.5,7.6-0.8,11.4-1
			c2.5-0.1,5.1-0.2,7.7-0.2h0.3c0.4,0,0.9,0,1.4,0c1.2,0,2.4,0,3.6,0.1c0.5,0,0.9,0,1.4,0.1c1.4,0.1,2.7,0.1,4.1,0.2
			c8.1,0.5,16.1,1.7,23.8,3.5c1.3,0.3,2.6,0.6,3.8,0.9c1.5,0.4,2.9,0.8,4.4,1.2c3.9,1.1,7.7,2.4,11.4,3.8
			c13.1,4.9,25.5,11.6,36.7,19.7c0.1,0.1,0.2,0.1,0.2,0.2C348.8,133.3,374.4,179.2,374.4,230.9z"/>
		<path class="st2" d="M272.5,84.9c-3.7-1.4-7.6-2.6-11.4-3.8c-1.4-0.4-2.9-0.8-4.4-1.2c-1.3-0.3-2.5-0.6-3.8-0.9
			c-7.7-1.8-15.7-2.9-23.8-3.5c-1.4-0.1-2.7-0.2-4.1-0.2c-0.4,0-0.9,0-1.4-0.1c-1.2-0.1-2.4-0.1-3.6-0.1c-0.4,0-0.9,0-1.4,0h-0.3
			c-2.6,0-5.1,0.1-7.7,0.2c-3.8,0.2-7.7,0.5-11.4,1c-1.2,0.1-2.4,0.3-3.6,0.5C120.6,88.1,62.8,153,62.8,230.9
			c0,37.3,13.3,73.3,37.6,101.4c0,0.1,0.1,0.1,0.1,0.2l17.5-15.1c-20.6-24-31.9-54.9-31.9-86.5c0-65.4,47.6-119.8,109.9-130.6
			c2-0.3,4-0.7,6.1-0.9c1-0.1,2.1-0.2,3.1-0.3c2.2-0.2,4.3-0.4,6.5-0.5c2.2-0.1,4.5-0.2,6.8-0.2c1.7,0,3.4,0,5.1,0.1
			c5.1,0.2,10.1,0.7,15,1.4c21.3,3.2,40.7,11.5,57.5,23.5l13.3-18.7l0.1-0.2C298.2,96.5,285.8,89.8,272.5,84.9z"/>
	</g>
	<g>
		<g>
			
				<linearGradient id="SVGID_00000073003167518464712870000014682634997555630219_" gradientUnits="userSpaceOnUse" x1="732.5739" y1="1601.0464" x2="732.5739" y2="1356.2855" gradientTransform="matrix(1 0 0 1 -323.15 -1103.6915)">
				<stop  offset="0" style="stop-color:#30B9EC"/>
				<stop  offset="1" style="stop-color:#345FAB"/>
			</linearGradient>
			<path style="fill:url(#SVGID_00000073003167518464712870000014682634997555630219_);" d="M511,341.7c0-5.3-0.1-10.8-0.6-16.1
				c-0.3-4.1-0.7-8.3-2.3-12c-3-6.5-11-9.4-16.8-13c-8.3-4.9-16.6-9.7-24.9-14.9c-16.6-9.7-33.2-19.7-49.8-29.4
				c-2.2-1.3-4.7-2.8-7.6-2.8c-3-0.1-5.6,1.5-8.2,3c-6.8,4.6-14.3,8.7-21.3,12.9c-7.2,4.2-14.5,8.7-21.6,12.9
				c-7.1,4.2-13.8,8.3-20.9,12.6c-5.6,3.3-10.9,6.1-16.5,9.5c-4.5,2.7-8.5,5.1-10.9,10.1c-1.4,3.4-1.8,7-1.7,10.7
				c-0.1,14.8,0.4,30,2.4,44.7c2.1,15.2,5.6,30.4,11.4,44.6c2.4,5.7,5.1,11.5,7.9,16.9c15,27.5,39.4,49.8,67.6,63.5
				c3.3,1.6,6.9,3,10.4,3.4c4.9,0.3,9.5-1.5,14.1-3.5c31.3-14.2,56.3-40.6,71.3-71.5C505.2,397.7,510.8,369.6,511,341.7z"/>
		</g>
		
			<linearGradient id="SVGID_00000171709832524930308610000011396600383706341509_" gradientUnits="userSpaceOnUse" x1="621.8987" y1="1344.1534" x2="621.8987" y2="1154.98" gradientTransform="matrix(0.99 -0.14 -0.14 -0.99 -26.7828 1697.8158)">
			<stop  offset="0" style="stop-color:#30B9EC"/>
			<stop  offset="1" style="stop-color:#345FAB"/>
		</linearGradient>
		<path style="fill:url(#SVGID_00000171709832524930308610000011396600383706341509_);" d="M489.8,346.3c0,7.8-0.5,15.7-1.6,23.3
			c-1.9,15-6,29.9-12.7,43.5c-11.7,24.2-31.3,44.7-55.6,55.9c-3.4,1.6-7.2,3.1-10.9,2.7c-2.8-0.3-5.5-1.3-8.2-2.6
			c-16-7.2-30.4-18.9-41.4-32.4c-7.8-9.5-13.4-20.3-17.7-31.6c-1.5-4.4-3.1-8.8-4.1-13.3c-0.9-2.7-1.5-5.3-2.1-8.3
			c-2.1-9-3.6-18.1-4.5-27.3c-0.9-10.5-3.4-23.5,4.6-32c5.1-5.3,13.2-8.3,19.3-12c7.1-4,14.4-8.3,21.3-12.6
			c8.9-5.8,18.1-11.1,27.2-16.7c1.6-1,3.4-2.1,5.3-2.3c3-0.3,5.8,1.2,8.3,2.8c8.2,4,15.8,9.5,23.6,14.2c11.6,7,23.4,13.8,35.1,20.6
			c3.7,2.1,7.5,4.4,10,7.8c2.8,3.7,3.7,8.5,3.9,13.2C489.7,341.6,489.8,343.9,489.8,346.3z"/>
		<path class="st6" d="M433.4,366.3H433v-16.5c0-10.9-8.1-20.2-19-21.4h-0.4h-4.8c-1.2,0.4-2.4,0.4-3.6,0.8
			c-9.3,2.8-15.7,11.3-15.7,20.9c0,5.2,0,10.5,0,15.3v0.8c-6,0-10.9,4.8-10.9,10.9l0,0c0,9.3,0,18.1,0,27.4
			c0,5.7,4.8,10.5,10.5,10.5H433c6,0,10.5-4.8,10.9-10.9v-27.4C443.9,371.1,439.5,366.3,433.4,366.3z M414.5,392.1
			c-0.4,0.4-0.4,0.8-0.4,1.2c0,2.8,0,5.2,0,8.1c0,1.6-1.2,2.8-2.4,2.8c-0.4,0-0.8,0-1.2,0c-1.2-0.4-2-1.6-1.6-2.8c0-2.8,0-5.2,0-8.1
			c0-0.4-0.4-0.8-0.8-1.2c-2-1.2-2.4-3.6-2-5.7c0.8-2.8,4-4.5,6.9-3.2c1.6,0.4,2.8,1.6,3.2,3.2C416.9,388.4,416.1,390.9,414.5,392.1
			L414.5,392.1z M422.1,366.3h-21.8v-0.4c0-5.7,0-10.9,0-16.5c0-6,4.8-10.9,10.5-10.9c6,0,10.9,4.8,10.9,10.5
			C422.1,354.6,422.1,360.2,422.1,366.3L422.1,366.3z"/>
	</g>
	<path class="st2" d="M156.2,309.7h12.3l10.9,36.3l10.9-36.3h12.3L186.5,359h-14.4L156.2,309.7z"/>
	<path class="st2" d="M242.8,326.6c0,9.4-7.5,16.9-17.3,16.9h-7.4V359h-11.3v-49.3h18.6C235.3,309.7,242.8,317.2,242.8,326.6z
		 M231.6,326.6c0-3.6-2.5-6.3-6-6.3h-7.4v12.7h7.4C229,332.9,231.6,330.1,231.6,326.6L231.6,326.6z"/>
	<path class="st2" d="M287.2,309.7V359h-8.4l-19-26.8V359h-11.3v-49.3h8.4l19,26.8v-26.8H287.2z"/>
</g>
</svg>
