<?xml version="1.0" encoding="utf-8"?>
<!-- Generator: Adobe Illustrator 25.4.1, SVG Export Plug-In . SVG Version: 6.00 Build 0)  -->
<svg version="1.1" id="Layer_1" xmlns="http://www.w3.org/2000/svg" xmlns:xlink="http://www.w3.org/1999/xlink" x="0px" y="0px"
	 viewBox="0 0 512 512" style="enable-background:new 0 0 512 512;" xml:space="preserve">
<style type="text/css">
	.st0{fill:#DDEDFA;}
	.st1{fill:#668099;}
	.st2{fill:#8098AA;stroke:#7B94A8;stroke-width:0.15;stroke-miterlimit:10;}
	.st3{fill:none;}
	.st4{fill:#C5C8CA;}
	.st5{fill:url(#SVGID_1_);}
	.st6{fill:#FFFFFF;}
	.st7{opacity:0.2;fill:#FFFFFF;enable-background:new    ;}
	.st8{fill:url(#SVGID_00000170266751526739083170000005751275762158181505_);}
	.st9{fill:url(#SVGID_00000011015612876852949870000012193836710878750903_);}
	.st10{fill:#AFE1F6;}
	.st11{fill:#1872BA;}
	.st12{fill:url(#SVGID_00000076572802333812545490000007016984389407088801_);}
	.st13{fill:url(#SVGID_00000041281123923027376390000013926275811614766479_);}
</style>
<g id="Layer_2_00000141454031449443855740000017660529637952139161_">
	<g id="Layer_1-2">
		<g id="step2">
			<g id="laptop">
				<rect x="201" y="380.4" class="st0" width="88.9" height="82"/>
				<path class="st0" d="M491,376.7V77.4c0.1-6.6-5.2-11.9-11.7-12c0,0,0,0,0,0H12C5.4,65.3,0,70.5-0.1,77.1c0,0,0,0,0,0v298.8
					c-0.1,5.7,4.4,10.4,10.1,10.5c0.2,0,0.3,0,0.5,0h470.7C486.4,387.2,491,381.9,491,376.7z"/>
				<rect x="164.6" y="458.5" class="st0" width="163.9" height="12.4"/>
				<path class="st0" d="M289.9,415.8c0,0-7.3,42.1,38.6,42.7l-17.8,3.8l-33.9-3.8c0,0-7.4-8.8-6.7-11.6
					C270.6,444,289.9,415.8,289.9,415.8z"/>
				<path class="st0" d="M203.1,415.8c0,0,7.3,42.1-38.6,42.7l17.9,3.8l33.9-3.8c0,0,7.4-8.8,6.7-11.6
					C222.4,444,203.1,415.8,203.1,415.8z"/>
				<path class="st1" d="M207.5,387.2v2.3c0.1,1.6,1.4,2.9,3,3h70c1.6-0.1,2.9-1.4,3-3v-2.3H207.5z"/>
				<circle class="st2" cx="245.1" cy="71.4" r="3"/>
				<path class="st3" d="M119.5,173.6c0.8,21.1,6.8,40.6,17.3,58.6l17.3-10.5c-9-15-13.5-32.3-14.3-49.6L119.5,173.6z"/>
				<path class="st4" d="M441.3,342.1h-3.8v-3.8c0-1.5-0.8-2.3-1.5-2.3l0,0c-1.1-0.2-2.1,0.6-2.3,1.7c0,0.2,0,0.4,0,0.6l0,0v3.8
					h-3.7c-1.1-0.2-2.1,0.6-2.3,1.7c0,0.2,0,0.4,0,0.6l0,0c-0.2,1.1,0.6,2.1,1.7,2.3c0.2,0,0.4,0,0.6,0h3.8v3.8
					c-0.2,1.1,0.6,2.1,1.7,2.3c0.2,0,0.4,0,0.6,0l0,0c1.1,0.2,2.1-0.6,2.3-1.7c0-0.2,0-0.4,0-0.6l0,0v-3.8h3.8
					c1.1,0.2,2.1-0.6,2.3-1.7c0-0.2,0-0.4,0-0.6l0,0C443.6,342.8,442.9,342.1,441.3,342.1L441.3,342.1z"/>
				
					<linearGradient id="SVGID_1_" gradientUnits="userSpaceOnUse" x1="246.5673" y1="476.1846" x2="246.5673" y2="8.4537" gradientTransform="matrix(1 0 0 -1 0 514)">
					<stop  offset="0" style="stop-color:#2BBAED"/>
					<stop  offset="0.38" style="stop-color:#2C8FCE"/>
					<stop  offset="0.79" style="stop-color:#336BB4"/>
					<stop  offset="1" style="stop-color:#335EAC"/>
				</linearGradient>
				<path class="st5" d="M20.2,78.1h452.7c4.2,0,7.5,3.4,7.5,7.5v278.2c0,4.2-3.4,7.5-7.5,7.5H20.2c-4.1,0-7.5-3.4-7.5-7.5V85.6
					C12.7,81.5,16.1,78.1,20.2,78.1z"/>
				<path class="st6" d="M425.5,96.9c0,3-3,6-6,6s-6-3-6-6c0.1-3.3,2.9-5.9,6.2-5.8C422.9,91.3,425.4,93.8,425.5,96.9L425.5,96.9z"
					/>
				<path class="st6" d="M445.8,96.9c0,3-3,6-6,6s-6-3-6-6c0.2-3.2,2.8-5.8,6-6l0,0C442.8,90.9,445.8,93.9,445.8,96.9z"/>
				<path class="st6" d="M466.1,96.9c0,3-3,6-6,6c-3.3,0-6-2.6-6-5.9v-0.2l0,0c0-3,3-6,6-6C463.4,91.1,465.9,93.7,466.1,96.9z"/>
				<path class="st7" d="M486.9,86.8v293.6H416L115.6,68.5h352.9C478.7,68.5,486.9,76.7,486.9,86.8z"/>
			</g>
			<g id="phone">
				
					<linearGradient id="SVGID_00000127041248232420898840000001980186743100403863_" gradientUnits="userSpaceOnUse" x1="90.0032" y1="-8240.7354" x2="90.0032" y2="-8106.5151" gradientTransform="matrix(1 0 0 1 0 8598.1699)">
					<stop  offset="0" style="stop-color:#DDEDFA"/>
					<stop  offset="1" style="stop-color:#ACD5F2"/>
				</linearGradient>
				<path style="fill:url(#SVGID_00000127041248232420898840000001980186743100403863_);" d="M156.2,252v210.9
					c0.1,4.7-3.7,8.5-8.4,8.5c0,0,0,0,0,0H32.2c-4.7,0-8.4-3.8-8.4-8.5c0,0,0,0,0,0l0,0V252c0-4.7,3.7-8.5,8.4-8.5h115.7
					C152.5,243.5,156.3,247.3,156.2,252L156.2,252L156.2,252z"/>
				
					<linearGradient id="SVGID_00000016787368461271899780000005785870252562460085_" gradientUnits="userSpaceOnUse" x1="89.9762" y1="270.1013" x2="89.9762" y2="8.3295" gradientTransform="matrix(1 0 0 -1 0 514)">
					<stop  offset="0" style="stop-color:#2BBAED"/>
					<stop  offset="0.38" style="stop-color:#2C8FCE"/>
					<stop  offset="0.79" style="stop-color:#336BB4"/>
					<stop  offset="1" style="stop-color:#335EAC"/>
				</linearGradient>
				<path style="fill:url(#SVGID_00000016787368461271899780000005785870252562460085_);" d="M148.6,257.6v199.6
					c0,2.3-1.9,4.2-4.2,4.3H35.5c-2.3,0-4.2-1.9-4.2-4.3V257.6c0-2.3,1.9-4.2,4.2-4.3h19.6c2.3,0,4.2,1.9,4.2,4.2v5.8
					c0,2.3,1.8,4.2,4.1,4.2h53.1c2.3,0,4.2-1.9,4.1-4.2c0,0,0,0,0,0l0,0v-5.8c0-2.3,1.8-4.1,4.1-4.1c0,0,0,0,0,0h19.6
					C146.8,253.4,148.6,255.3,148.6,257.6z"/>
				<path class="st10" d="M68.7,455.1h42.6c0.6,0,1.1,0.5,1.1,1.1l0,0c0,0.6-0.5,1.1-1.1,1.1c0,0,0,0,0,0H68.7
					c-0.6,0-1.1-0.5-1.1-1.1l0,0l0,0C67.5,455.6,68,455.1,68.7,455.1z"/>
				<path class="st7" d="M153.8,256.3v196.3H152L26.2,320.7v-64.4c0-1,0.2-2,0.6-3h126.5C153.6,254.2,153.8,255.2,153.8,256.3z"/>
				<path class="st11" d="M80.3,255.5h30.4c1.3,0,2.4,1.1,2.4,2.4v0c0,1.3-1.1,2.4-2.4,2.4H80.3c-1.3,0-2.4-1.1-2.4-2.4v0
					C78,256.5,79,255.5,80.3,255.5z"/>
				<circle class="st11" cx="69.6" cy="257.9" r="2.7"/>
				<path class="st6" d="M125.9,350.5c-0.3-1.2-0.8-2.4-1.2-3.6c1.6-1.2,1.1-4.3-1.5-4.4c-3.1,0-3.2,4.7-0.1,4.8
					c1.7,4.7,1.9,9.9,0.5,14.7c-0.7-2.7-3.1-3.4-5.7-3.5c-2.5-7.5-10.2-10.4-17.9-10.4c-6.7-0.7-13.5-0.7-20.3,0
					c-8.1-0.1-15.5,3.5-17.9,10.4c-2.6,0.1-5,0.9-5.6,3.7c-1.3-4.1-1.4-8.6-0.2-12.8c0.2-0.7,0.4-1.4,0.7-2.1l0,0
					c3.2,0,3.2-4.8,0-4.8c-2.5,0-3,3-1.6,4.3c-0.5,1.2-0.9,2.4-1.3,3.7c-2,6.7-0.3,14.2,2.6,20.4h0.1c0.6,1.7,1.8,2.9,4.3,3h1.6
					c1.8,4.9,5.4,8.5,11.8,9.6c10.4,1.7,20.9,1.7,31.3,0c5.4-0.8,9.9-4.5,11.9-9.6h1.6c2.5-0.1,3.8-1.3,4.3-3h0.1
					C126.3,364.8,127.9,357.2,125.9,350.5z M112.4,364c-0.1,6-1.1,12.4-8.1,13.5c-9.5,1.5-19.2,1.5-28.7,0c-7-1.2-8-7.6-8.1-13.5
					c-0.3-8,6.3-10.3,13.1-10.4c6.2-0.7,12.4-0.7,18.6,0C106,353.7,112.7,356,112.4,364z"/>
				<path class="st6" d="M83.2,365.5c-0.3,2-1.8,0-4.1-0.4s-4.3,1.2-4-0.9C76,359.3,83.8,360.5,83.2,365.5z M104.7,364.2
					c0.3,2.1-1.8,0.5-4,0.9c-2.2,0.4-3.7,2.4-4.1,0.4C95.9,360.6,104,359.3,104.7,364.2z"/>
				<path class="st6" d="M83.2,365.5c-0.3,2-1.8,0-4.1-0.4s-4.3,1.2-4-0.9C76,359.3,83.8,360.5,83.2,365.5z M100.8,365.1
					c-2.2,0.4-3.7,2.4-4.1,0.4c-0.7-4.9,7.3-6.1,8.1-1.2C105.1,366.3,103,364.7,100.8,365.1z"/>
				<path class="st6" d="M83.2,365.5c-0.3,2-1.8,0-4.1-0.4s-4.3,1.2-4-0.9C76,359.3,83.8,360.5,83.2,365.5z M100.8,365.1
					c-2.2,0.4-3.7,2.4-4.1,0.4c-0.7-4.9,7.3-6.1,8.1-1.2C105.1,366.3,103,364.7,100.8,365.1z"/>
				<path class="st6" d="M94.9,371.6c0,6.1-10,6.2-10,0c0-0.5,0.4-0.9,0.9-0.9H94C94.5,370.7,94.9,371.1,94.9,371.6
					C94.9,371.6,94.9,371.6,94.9,371.6z"/>
			</g>
			<path class="st6" d="M339.4,199.6c-0.7-2.6-1.6-5.1-2.6-7.6c3.3-2.5,2.3-9.1-3.1-9.1c-6.6,0-6.6,9.9-0.1,10.1
				c3.7,10.9,3.9,20.7,1,30.7c-1.4-5.7-6.4-7.1-11.8-7.3c-5.2-15.6-21.4-21.6-37.3-21.7c-14.1-1.5-28.3-1.5-42.4,0
				c-17-0.2-32.4,7.3-37.5,21.7c-5.5,0.3-10.5,1.8-11.7,7.8c-2.7-8.7-2.9-17.9-0.5-26.7c0.3-1.3,0.8-2.9,1.4-4.5h0.1
				c6.6,0,6.6-10.1,0-10.1c-5.2,0-6.3,6.3-3.3,8.9c-1,2.5-1.9,5.1-2.6,7.7c-4.2,14.1-0.6,29.7,5.5,42.6l0.2-0.1
				c1.2,3.5,3.8,6.1,9.1,6.3h3.2c3.7,10.2,11.3,17.8,24.6,20.2c21.7,3.5,43.7,3.5,65.4,0c11.3-1.8,20.8-9.5,24.8-20.2h3.3
				c5.3-0.2,7.9-2.7,9.1-6.3l0.2,0.1C340.3,229.3,343.6,213.6,339.4,199.6z M311.1,227.8c-0.2,12.5-2.3,25.8-17,28.3
				c-19.9,3.2-40.2,3.2-60.1-0.1c-14.6-2.5-16.8-15.8-17-28.3c-0.7-16.7,13.2-21.5,27.5-21.7c12.9-1.4,26-1.4,38.9,0
				C297.8,206.2,311.9,211.1,311.1,227.8z"/>
			<path class="st6" d="M250.1,230.8c-0.7,4.3-3.8-0.1-8.5-0.9s-9.1,2.5-8.4-1.8C235,217.8,251.3,220.4,250.1,230.8z M295.2,228.1
				c0.7,4.4-3.7,1-8.4,1.8c-4.6,0.8-7.8,5.1-8.5,0.9C276.7,220.6,293.5,217.9,295.2,228.1L295.2,228.1z"/>
			<path class="st6" d="M250.1,230.8c-0.7,4.3-3.8-0.1-8.5-0.9s-9.1,2.5-8.4-1.8C235,217.8,251.3,220.4,250.1,230.8z M286.9,230
				c-4.7,0.8-7.8,5.1-8.5,0.9c-1.6-10.3,15.2-12.9,16.9-2.6C295.9,232.5,291.5,229.3,286.9,230L286.9,230z"/>
			<path class="st6" d="M250.1,230.8c-0.7,4.3-3.8-0.1-8.5-0.9s-9.1,2.5-8.4-1.8C235,217.8,251.3,220.4,250.1,230.8z M286.9,230
				c-4.7,0.8-7.8,5.1-8.5,0.9c-1.6-10.3,15.2-12.9,16.9-2.6C295.9,232.5,291.5,229.3,286.9,230L286.9,230z"/>
			<path class="st6" d="M274.6,243.7c0.1,12.9-21,12.9-20.9,0c0-1,0.8-1.8,1.8-1.9h17.2C273.8,241.8,274.6,242.6,274.6,243.7
				C274.6,243.7,274.6,243.7,274.6,243.7z"/>
			
				<linearGradient id="SVGID_00000136375900259196149890000013247533294501358781_" gradientUnits="userSpaceOnUse" x1="423.7727" y1="371.1237" x2="512.2595" y2="494.4351" gradientTransform="matrix(1 0 0 -1 0 514)">
				<stop  offset="0" style="stop-color:#79BBE7"/>
				<stop  offset="1" style="stop-color:#1872BA"/>
			</linearGradient>
			<circle style="fill:url(#SVGID_00000136375900259196149890000013247533294501358781_);" cx="459.3" cy="93.3" r="52.8"/>
			
				<linearGradient id="SVGID_00000030481001089354646920000015895206755724602277_" gradientUnits="userSpaceOnUse" x1="487.4757" y1="461.271" x2="413.0665" y2="353.9471" gradientTransform="matrix(1 0 0 -1 0 514)">
				<stop  offset="0" style="stop-color:#79BBE7"/>
				<stop  offset="1" style="stop-color:#1872BA"/>
			</linearGradient>
			<circle style="fill:url(#SVGID_00000030481001089354646920000015895206755724602277_);" cx="459.3" cy="93.3" r="45.4"/>
			<path class="st6" d="M457.6,86.9l-3,3.7l-6.2-5.3c-2.1-1.7-4.3-3.1-7.1-3.2c-4.5-0.1-8.1,1.7-10.2,5.7c-1.8,3.1-1.5,7,0.8,9.8
				c2.8,3.7,6.7,4.9,11.1,4.2c3-0.5,5.7-2.1,7.8-4.3c2.7-2.9,5.2-6.1,7.9-9.1c2.4-2.9,5.1-5.6,7.9-8.1c4.7-3.9,10.1-4.6,15.8-2.4
				c6.5,2.4,10.6,8.6,10.2,15c-0.6,6.9-5.7,12.6-12.5,14c-3.9,0.9-8.1,0.3-11.6-1.6c-3.2-1.8-6.1-4.2-8.5-7.1l3.3-4.1
				c1.1,1.1,2.1,2.1,3.1,3.1c3.1,2.9,6.5,4.9,10.9,4.7c6.8-0.4,11.6-6.7,9.7-12.7c-1.9-6.2-9.9-9.3-15.5-5.7
				c-2.5,1.8-4.9,3.9-6.9,6.3c-2.7,3-5.1,6.3-7.8,9.3c-3.5,3.9-7.6,7-13,8c-8.8,1.5-17.2-4.3-18.7-13.1c0-0.1,0-0.2,0-0.2
				c-1.1-7.3,4.2-14.6,11.9-16.5c5-1.2,9.7-0.4,13.7,2.8C452.8,82.2,455.1,84.6,457.6,86.9z"/>
		</g>
	</g>
</g>
</svg>
