<?xml version="1.0" encoding="utf-8"?>
<!-- Generator: Adobe Illustrator 25.4.1, SVG Export Plug-In . SVG Version: 6.00 Build 0)  -->
<svg version="1.1" id="Layer_1" xmlns="http://www.w3.org/2000/svg" xmlns:xlink="http://www.w3.org/1999/xlink" x="0px" y="0px"
	 viewBox="0 0 512 512" style="enable-background:new 0 0 512 512;" xml:space="preserve">
<style type="text/css">
	.st0{enable-background:new    ;}
	.st1{fill:#2CA6DF;}
	.st2{display:none;}
	.st3{display:inline;fill:url(#SVGID_1_);}
	.st4{display:inline;fill:url(#SVGID_00000086685491481616981770000003591220982544500149_);}
	.st5{display:inline;fill:url(#SVGID_00000015337759806201225380000011047855119663417227_);}
	.st6{display:none;opacity:0.6;}
	.st7{display:inline;fill:url(#SVGID_00000116941723597581385050000012706014441561294006_);}
	.st8{display:inline;fill:url(#SVGID_00000075150583863856504860000001328206480157203357_);}
	.st9{display:inline;fill:url(#SVGID_00000152971349352424972680000014006536195832369315_);}
	.st10{fill:#1E4671;}
	.st11{fill:#3978BD;}
	.st12{fill:#2DC3F2;}
	.st13{fill:#20ABE3;}
	.st14{fill:#3068B0;}
	.st15{fill:url(#SVGID_00000008114611039885793820000017095092589117476771_);}
	.st16{fill:url(#SVGID_00000001638512605377176870000008451732459797485457_);}
	.st17{fill:url(#SVGID_00000077289158218543846910000008912837366640416955_);}
	.st18{fill:#132E44;}
</style>
<g id="Layer_2-2">
	<g class="st0">
		<path class="st1" d="M183.1,254.6l15.1-11.7c1.9-1.5,3.4-2.8,4-3.7c0.9-1.2,1.2-2.2,1.2-3.4s-0.3-2.2-1.2-3.1
			c-0.9-0.9-1.9-1.2-3.4-1.2c-1.5,0-2.8,0.3-4,1.2c-1.2,0.9-2.8,2.2-4.3,4l-7.7-6.5c1.2-1.5,2.2-2.8,3.4-3.7
			c1.2-0.9,2.5-1.9,3.7-2.8c1.2-0.6,2.8-1.2,4.3-1.5c1.5-0.3,3.4-0.6,5.2-0.6c2.2,0,4.3,0.3,6.2,0.9c1.9,0.6,3.4,1.5,4.6,2.8
			c1.2,1.2,2.5,2.5,3.1,4c0.6,1.5,1.2,3.4,1.2,5.2l0,0c0,1.5-0.3,3.1-0.6,4.3c-0.3,1.2-0.9,2.5-1.9,3.7c-0.9,1.2-1.9,2.2-3.1,3.1
			s-2.5,2.2-4,3.1l-7.1,4.9h16.7v9.3h-31.5V254.6z"/>
		<path class="st1" d="M239.9,255.2h-19.8l-1.9-8l21-25h11.4v24.7h5.2v8.3h-5.2v8h-10.8V255.2z M239.9,246.9v-11.7l-9.9,11.7H239.9z
			"/>
		<path class="st1" d="M281.3,216.9h9l-25.6,53.7h-9L281.3,216.9z"/>
		<path class="st1" d="M310.3,232h-18.8v-9.6h31.5v8.6L305,263.2h-12.3L310.3,232z"/>
	</g>
	<g id="base" class="st2">
		
			<linearGradient id="SVGID_1_" gradientUnits="userSpaceOnUse" x1="262.5771" y1="-674.252" x2="262.5771" y2="-181.6483" gradientTransform="matrix(1 0 0 -1 0 -163.89)">
			<stop  offset="0" style="stop-color:#2BBAED"/>
			<stop  offset="1" style="stop-color:#335EAC"/>
		</linearGradient>
		<path class="st3" d="M495.8,279v56.5c0,22.8-15.7,40.1-38.6,40.8c-5.9,0.3-11.1,3.1-13,8.6c-13.3,28.7-37.4,45.1-65.8,56.5
			c-22.5,9-45.4,17.6-67.9,25.9c-3.1,1.2-4.6,2.5-4.6,5.9c-0.6,14.2-10.5,26.2-24.1,29.3c-11.4,2.8-22.8,4.9-34.6,7.4
			c-17.3,3.4-44.8-12.7-48.2-29.6c-3.4-16.7,17.6-28.1,34.3-32.1c11.7-2.8,23.5-4.9,35.5-7.4c9-1.9,17.9,0.3,25.3,5.9
			c1.5,0.9,3.1,1.5,4.9,1.2c30.3-9.6,59.6-21.3,88.3-35.2c19.5-9.6,31.2-25.3,40.4-43.8c0.3-1.2,0-2.8-0.9-4
			c-7.1-7.4-11.1-17.3-11.1-27.5c0-39.5,0-79,0.3-118.6c0-11.7,5.9-22.5,15.4-29.3c2.5-1.5,3.7-4.6,2.8-7.4
			c-17-70.4-60.5-114.8-131.2-132.4c-10.8-2.2-21.6-3.4-32.4-4c-70.1-6.2-152.2,42.9-171,130c-0.6,1.5-1.5,5.9-1.5,7.7
			c0,0.9,2.8,3.7,3.4,4.3c10.2,8.3,16.7,20.7,16.4,34c0,38,0,76.3,0,114.2c0.3,21.9-17.3,40.1-39.5,40.1
			c-21,0.3-47.2-19.8-48.8-40.8c-0.3-1.9-0.3-3.7-0.3-5.6c0-36.7,8.6-69.8,8.6-106.2c0-20.4,10.5-35.8,29-40.8
			c4.3-0.6,7.4-4.3,7.7-8.6C94.5,92.2,145.1,40.6,227.2,22.4C314.3,3,401.4,45.9,441.8,124.3c8.6,16.7,12,31.8,13.6,46
			c0.3,2.2,1.9,4,4,4c18.5,4,36.4,27.2,36.1,46C495.8,240.1,495.8,259.5,495.8,279z"/>
		
			<linearGradient id="SVGID_00000158707842528389018390000010274015745954730654_" gradientUnits="userSpaceOnUse" x1="468.8975" y1="-441.1605" x2="523.1078" y2="-441.1605" gradientTransform="matrix(1 0 0 -1 0 -163.89)">
			<stop  offset="0" style="stop-color:#2BBAED"/>
			<stop  offset="1" style="stop-color:#335EAC"/>
		</linearGradient>
		<path style="display:inline;fill:url(#SVGID_00000158707842528389018390000010274015745954730654_);" d="M494.9,221.5L494.9,221.5
			c14.2-0.3,29.6,9.3,28.1,30.6l-0.3,59.3c0,10.8-12,21.6-26.9,21.6l0,0c-14.8,0-26.9-12-26.9-26.9v-51.9
			C469,239.5,480.1,221.5,494.9,221.5z"/>
		
			<linearGradient id="SVGID_00000011019573805016139490000012960155834358668986_" gradientUnits="userSpaceOnUse" x1="2.3136" y1="-444.097" x2="64.9864" y2="-444.097" gradientTransform="matrix(1 0 0 -1 0 -163.89)">
			<stop  offset="0" style="stop-color:#2BBAED"/>
			<stop  offset="1" style="stop-color:#335EAC"/>
		</linearGradient>
		<path style="display:inline;fill:url(#SVGID_00000011019573805016139490000012960155834358668986_);" d="M38,227.4L38,227.4
			c14.8,0,26.9,12,26.9,26.9v51.9c0,14.8-12,26.9-26.9,26.9l0,0c-14.8,0-35.8-14.8-35.8-29.6l8.6-49.4
			C11.1,239.5,23.2,227.4,38,227.4z"/>
	</g>
	<g id="base_5_" class="st6">
		
			<linearGradient id="SVGID_00000089555660565851846460000008164278876721616516_" gradientUnits="userSpaceOnUse" x1="262.5771" y1="-674.252" x2="262.5771" y2="-181.6483" gradientTransform="matrix(1 0 0 -1 0 -163.89)">
			<stop  offset="0" style="stop-color:#2BBAED"/>
			<stop  offset="1" style="stop-color:#335EAC"/>
		</linearGradient>
		<path style="display:inline;fill:url(#SVGID_00000089555660565851846460000008164278876721616516_);" d="M495.8,279v56.5
			c0,22.8-15.7,40.1-38.6,40.8c-5.9,0.3-11.1,3.1-13,8.6c-13.3,28.7-37.4,45.1-65.8,56.5c-22.5,9-45.4,17.6-67.9,25.9
			c-3.1,1.2-4.6,2.5-4.6,5.9c-0.6,14.2-10.5,26.2-24.1,29.3c-11.4,2.8-22.8,4.9-34.6,7.4c-17.3,3.4-44.8-12.7-48.2-29.6
			c-3.4-16.7,17.6-28.1,34.3-32.1c11.7-2.8,23.5-4.9,35.5-7.4c9-1.9,17.9,0.3,25.3,5.9c1.5,0.9,3.1,1.5,4.9,1.2
			c30.3-9.6,59.6-21.3,88.3-35.2c19.5-9.6,31.2-25.3,40.4-43.8c0.3-1.2,0-2.8-0.9-4c-7.1-7.4-11.1-17.3-11.1-27.5
			c0-39.5,0-79,0.3-118.6c0-11.7,5.9-22.5,15.4-29.3c2.5-1.5,3.7-4.6,2.8-7.4c-17-70.4-60.5-114.8-131.2-132.4
			c-10.8-2.2-21.6-3.4-32.4-4c-70.1-6.2-152.2,42.9-171,130c-0.6,1.5-1.5,5.9-1.5,7.7c0,0.9,2.8,3.7,3.4,4.3
			c10.2,8.3,16.7,20.7,16.4,34c0,38,0,76.3,0,114.2c0.3,21.9-17.3,40.1-39.5,40.1c-21,0.3-47.2-19.8-48.8-40.8
			c-0.3-1.9-0.3-3.7-0.3-5.6c0-36.7,8.6-69.8,8.6-106.2c0-20.4,10.5-35.8,29-40.8c4.3-0.6,7.4-4.3,7.7-8.6
			C94.5,92.2,145.1,40.6,227.2,22.4C314.3,3,401.4,45.9,441.8,124.3c8.6,16.7,12,31.8,13.6,46c0.3,2.2,1.9,4,4,4
			c18.5,4,36.4,27.2,36.1,46C495.8,240.1,495.8,259.5,495.8,279z"/>
		
			<linearGradient id="SVGID_00000149376578799719100330000003557875777335414711_" gradientUnits="userSpaceOnUse" x1="468.8975" y1="-441.1605" x2="523.1078" y2="-441.1605" gradientTransform="matrix(1 0 0 -1 0 -163.89)">
			<stop  offset="0" style="stop-color:#2BBAED"/>
			<stop  offset="1" style="stop-color:#335EAC"/>
		</linearGradient>
		<path style="display:inline;fill:url(#SVGID_00000149376578799719100330000003557875777335414711_);" d="M494.9,221.5L494.9,221.5
			c14.2-0.3,29.6,9.3,28.1,30.6l-0.3,59.3c0,10.8-12,21.6-26.9,21.6l0,0c-14.8,0-26.9-12-26.9-26.9v-51.9
			C469,239.5,480.1,221.5,494.9,221.5z"/>
		
			<linearGradient id="SVGID_00000114042616615962979840000018066210170344580753_" gradientUnits="userSpaceOnUse" x1="2.3136" y1="-444.097" x2="64.9864" y2="-444.097" gradientTransform="matrix(1 0 0 -1 0 -163.89)">
			<stop  offset="0" style="stop-color:#2BBAED"/>
			<stop  offset="1" style="stop-color:#335EAC"/>
		</linearGradient>
		<path style="display:inline;fill:url(#SVGID_00000114042616615962979840000018066210170344580753_);" d="M38,227.4L38,227.4
			c14.8,0,26.9,12,26.9,26.9v51.9c0,14.8-12,26.9-26.9,26.9l0,0c-14.8,0-35.8-14.8-35.8-29.6l8.6-49.4
			C11.1,239.5,23.2,227.4,38,227.4z"/>
	</g>
	<g class="st0">
		<path class="st10" d="M183.1,254.6l15.1-11.7c1.9-1.5,3.4-2.8,4-3.7c0.9-1.2,1.2-2.2,1.2-3.4s-0.3-2.2-1.2-3.1
			c-0.9-0.9-1.9-1.2-3.4-1.2c-1.5,0-2.8,0.3-4,1.2c-1.2,0.9-2.8,2.2-4.3,4l-7.7-6.5c1.2-1.5,2.2-2.8,3.4-3.7
			c1.2-0.9,2.5-1.9,3.7-2.8c1.2-0.6,2.8-1.2,4.3-1.5c1.5-0.3,3.4-0.6,5.2-0.6c2.2,0,4.3,0.3,6.2,0.9c1.9,0.6,3.4,1.5,4.6,2.8
			c1.2,1.2,2.5,2.5,3.1,4c0.6,1.5,1.2,3.4,1.2,5.2l0,0c0,1.5-0.3,3.1-0.6,4.3c-0.3,1.2-0.9,2.5-1.9,3.7c-0.9,1.2-1.9,2.2-3.1,3.1
			s-2.5,2.2-4,3.1l-7.1,4.9h16.7v9.3h-31.5V254.6z"/>
		<path class="st10" d="M239.9,255.2h-19.8l-1.9-8l21-25h11.4v24.7h5.2v8.3h-5.2v8h-10.8V255.2z M239.9,246.9v-11.7l-9.9,11.7H239.9
			z"/>
		<path class="st10" d="M281.3,216.9h9l-25.6,53.7h-9L281.3,216.9z"/>
		<path class="st10" d="M310.3,232h-18.8v-9.6h31.5v8.6L305,263.2h-12.3L310.3,232z"/>
	</g>
	<path class="st11" d="M171.3,205.8l-4,9c-0.6,1.9-2.8,2.8-4.6,2.2l-15.4-4.9c-1.9-0.6-3.1-2.5-2.5-4.6V207l4.9-11.7
		c0.9-1.9,3.1-2.8,4.9-1.9c0,0,0.3,0,0.3,0.3l14.5,7.7C171.3,202.1,172.3,204,171.3,205.8z"/>
	<path class="st12" d="M287.7,159.8l-9.9-3.1c-1.9-0.6-2.8-2.5-2.5-4.3l3.4-16.1c0.3-2.2,2.5-3.4,4.3-2.8h0.3l12.7,4
		c1.9,0.6,3.1,2.8,2.5,4.6v0.3l-6.5,15.1C291.8,159.5,289.6,160.4,287.7,159.8z"/>
	<path class="st13" d="M257.8,149.9c0,1.9-1.5,3.4-3.4,3.7c-4,0.3-7.7,0.3-11.4,0.9c-1.9,0.3-2.5-0.3-2.8-1.9
		c-0.9-5.9-1.9-11.7-2.8-17.6l0,0c-0.3-2.2,0.9-4,3.1-4.3h0.3l13.3-0.9c2.2,0,3.7,1.5,4,3.4v0.3L257.8,149.9z"/>
	<path class="st12" d="M308.1,166l9-13.6c1.2-1.9,3.4-2.2,5.2-0.9c0,0,0.3,0,0.3,0.3l10.5,8.3c1.5,1.2,1.9,3.7,0.6,5.2l-0.3,0.3
		L322,177.4c-1.2,1.5-3.4,1.5-4.9,0.3l-8-6.5C307.5,170,307.2,167.8,308.1,166z"/>
	<path class="st11" d="M179.7,185.7L167,175.5c-1.5-1.2-1.9-3.7-0.6-5.2l0.3-0.3l9.3-9.6c1.5-1.5,3.7-1.5,5.2,0l0.3,0.3l10.5,12.3
		c1.2,1.5,1.2,3.7,0,4.9l-7.1,7.4C183.7,187,181.2,187,179.7,185.7z"/>
	<path class="st14" d="M167,286.7l-14.8,6.8c-1.9,0.9-4,0-4.9-1.9v-0.3l-4.3-12.7c-0.6-1.9,0.3-4,2.2-4.6h0.3l15.7-4
		c1.9-0.3,3.7,0.6,4.3,2.5l3.4,9.9C169.8,283.6,168.9,285.8,167,286.7z"/>
	<path class="st14" d="M158.4,252.1l-16.1,0.9c-2.2,0-3.7-1.5-4-3.4v-0.3l0.3-13.3c0-2.2,1.9-3.7,3.7-3.7h0.3l16.4,2.2
		c1.9,0.3,3.4,1.9,3.4,3.7l-0.3,10.2C161.8,250.6,160.5,252.1,158.4,252.1z"/>
	<path class="st13" d="M220.7,160.1l-9.3,4.3c-1.9,0.9-3.7,0.3-4.9-1.5l-8-14.2c-0.9-1.9-0.3-4,1.5-5.2h0.3l12-5.6
		c1.9-0.9,4,0,4.9,1.9v0.3l5.2,15.4C223.5,157.3,222.6,159.2,220.7,160.1z"/>
	<path class="st14" d="M171.3,299l-9.9,6.2c-3.1,1.9-4,5.9-2.2,9c0,0.3,0.3,0.3,0.3,0.3c5.2,7.1,11.1,13.6,17.9,19.5
		c28.1,24.4,65.8,34.9,102.5,28.1c29.9-4.6,56.5-21.6,73.5-46.6c17.6-25.3,24.4-53.7,20.7-85.5l9-0.6c1.9,0,3.4-0.9,4-2.5
		c0.6-1.9,0-3.7-1.2-4.9c-8.3-9-16.7-18.2-25.3-27.2c-1.2-1.9-4-2.2-5.9-0.9c-0.6,0.3-0.9,0.9-1.2,1.5
		c-6.2,10.8-12.3,21.6-18.5,32.4c-0.6,1.2-0.6,2.8,0,4.3c0.9,1.5,2.5,2.5,4.3,2.2c3.4-0.3,6.8-0.9,10.5-1.2
		c5.2,30.3-7.1,74.1-47.2,95.7c-13.9,7.7-29.6,11.7-45.4,11.7c-16.1,0-31.8-4-46-12c-12.3-6.8-23.2-16.4-31.8-27.8
		C177.5,297.8,174.1,297.2,171.3,299z"/>
	<g id="base-3">
		
			<linearGradient id="SVGID_00000167370664846822532340000006362837242463740057_" gradientUnits="userSpaceOnUse" x1="457.7214" y1="-435.1438" x2="511.5644" y2="-435.1438" gradientTransform="matrix(1 0 0 -1 0 -163.89)">
			<stop  offset="0" style="stop-color:#335EAC"/>
			<stop  offset="0.34" style="stop-color:#3360AD"/>
			<stop  offset="0.52" style="stop-color:#3267B1"/>
			<stop  offset="0.67" style="stop-color:#3372B9"/>
			<stop  offset="0.79" style="stop-color:#2F84C6"/>
			<stop  offset="0.9" style="stop-color:#299ED8"/>
			<stop  offset="1" style="stop-color:#2BBAED"/>
		</linearGradient>
		<path style="fill:url(#SVGID_00000167370664846822532340000006362837242463740057_);" d="M484.7,218.5L484.7,218.5
			c14.8,0,26.9,12,26.9,26.9v51.9c0,14.8-12,26.9-26.9,26.9l0,0c-14.8,0-26.9-12-26.9-26.9v-51.9
			C457.9,230.5,469.9,218.5,484.7,218.5z"/>
		
			<linearGradient id="SVGID_00000034089604594393965350000005737426242301973415_" gradientUnits="userSpaceOnUse" x1="53.8065" y1="-435.1438" x2="-3.632093e-02" y2="-435.1438" gradientTransform="matrix(1 0 0 -1 0 -163.89)">
			<stop  offset="0" style="stop-color:#335EAC"/>
			<stop  offset="0.34" style="stop-color:#3360AD"/>
			<stop  offset="0.52" style="stop-color:#3267B1"/>
			<stop  offset="0.67" style="stop-color:#3372B9"/>
			<stop  offset="0.79" style="stop-color:#2F84C6"/>
			<stop  offset="0.9" style="stop-color:#299ED8"/>
			<stop  offset="1" style="stop-color:#2BBAED"/>
		</linearGradient>
		<path style="fill:url(#SVGID_00000034089604594393965350000005737426242301973415_);" d="M26.9,218.5L26.9,218.5
			c14.8,0,26.9,12,26.9,26.9v51.9c0,14.8-12,26.9-26.9,26.9l0,0C12,324,0,312,0,297.2v-51.9C0,230.5,12,218.5,26.9,218.5z"/>
		
			<linearGradient id="SVGID_00000035501027962291446690000002840627546717550012_" gradientUnits="userSpaceOnUse" x1="255.785" y1="-665.5271" x2="255.785" y2="-173.292" gradientTransform="matrix(1 0 0 -1 0 -163.89)">
			<stop  offset="0" style="stop-color:#2BBAED"/>
			<stop  offset="1" style="stop-color:#335EAC"/>
		</linearGradient>
		<path style="fill:url(#SVGID_00000035501027962291446690000002840627546717550012_);" d="M484.7,270v56.5
			c0,22.8-15.7,38.6-38.6,40.8c-5.9,0.3-11.1,6.2-13.9,10.2c-16.4,28.1-36.4,43.5-64.8,54.6c-22.5,9-45.4,17.6-67.9,25.9
			c-3.1,1.2-4.3,2.5-4.6,5.9c-0.6,14.2-10.5,26.2-24.1,29.3c-11.4,2.5-23.2,4.9-34.6,7.1c-17.3,3.7-34-7.1-38-24.4
			c-3.7-17,7.1-34,24.1-37.7c11.7-2.8,23.5-4.9,35.5-7.4c9-1.9,17.9,0.3,25.3,5.9c1.5,0.9,3.1,1.5,4.9,1.2
			c30.3-9.6,59.6-21.3,88.3-34.9c19.5-9.6,31.2-25.3,40.4-43.8c0.3-1.2,0-2.8-0.6-4c-7.1-7.4-11.1-17.3-11.1-27.5
			c0-39.5,0-79,0.3-118.6c0-11.7,5.9-22.5,15.4-29.3c2.5-1.5,3.7-4.6,2.8-7.4c-16.7-70.4-60.5-114.8-131.2-132.8
			c-10.8-2.2-21.6-3.4-32.4-3.7c-70.7-5.6-152.8,46.6-171.3,133.7c-0.3,1.5-0.3,2.8-0.3,4.3c0,1.5,0.6,3.4,1.9,4.6
			c9.6,8,17,20.4,16.7,33.7c0,38,0,76.3,0,114.2c0,21.9-17.9,39.8-39.8,39.8c-20.7,0-38-16.1-39.8-36.7c-0.3-1.9-0.3-3.7-0.3-5.6
			c0-36.7,0-73.2,0-109.9c0-20.4,10.5-35.5,29-40.8c5.2-1.5,6.2-4.3,7.7-8.6C83,83.5,134,31.7,216.1,13.5
			C303.2-6,390.2,37.2,430.7,115.3c8.6,16.7,14.8,34.6,18.2,53.1c0.3,2.2,1.9,4,4,4c18.5,4,31.8,20.4,31.5,39.2
			C484.7,231.1,484.7,250.6,484.7,270z"/>
	</g>
</g>
<path class="st18" d="M549.2,218.8"/>
</svg>
