<?xml version="1.0" encoding="utf-8"?>
<!-- Generator: Adobe Illustrator 25.4.1, SVG Export Plug-In . SVG Version: 6.00 Build 0)  -->
<svg version="1.1" id="Layer_1" xmlns="http://www.w3.org/2000/svg" xmlns:xlink="http://www.w3.org/1999/xlink" x="0px" y="0px"
	 viewBox="0 0 512 512" style="enable-background:new 0 0 512 512;" xml:space="preserve">
<style type="text/css">
	.st0{fill:url(#SVGID_1_);}
	.st1{fill:url(#SVGID_00000047761979889867818170000015975786110230798210_);}
	.st2{fill:url(#SVGID_00000008829214625688795210000006551114241145051544_);}
	.st3{fill:#FFFFFF;}
</style>
<g>
	<g id="Layer_1-2">
		<g id="network">
			
				<linearGradient id="SVGID_1_" gradientUnits="userSpaceOnUse" x1="466.7341" y1="917.1676" x2="-117.0916" y2="917.1676" gradientTransform="matrix(1 0 0 -1 0 1123.4485)">
				<stop  offset="0.11" style="stop-color:#30B9EC"/>
				<stop  offset="0.5" style="stop-color:#3093D1"/>
				<stop  offset="0.99" style="stop-color:#345FAB"/>
			</linearGradient>
			<path class="st0" d="M422.8,186.7c-0.7-7.6-1.8-15.1-3.4-22.6c0-0.2-0.1-0.5-0.1-0.7c-4.1-19.4-11-38.1-20.4-55.5l-0.2-0.4
				C364.8,45.4,301.3,4.9,230.7,0.4c-4.3-0.3-8.8-0.4-13.2-0.4c-5.6,0-11.2,0.2-16.7,0.7c-18.3,1.4-36.2,5.4-53.4,11.6l-1.4,0.5
				l-1.7,0.6c-0.4,0.1-0.8,0.3-1.2,0.5l-1.2,0.5c-6.1,2.4-12.1,5.1-17.9,8.1l-0.1,0.1c-0.5,0.3-1,0.5-1.5,0.8
				C97.2,36.4,75,54.5,57.2,76.5l-0.7,0.9c-9.2,11.5-17.1,23.9-23.7,37.1c-0.2,0.5-0.5,0.9-0.7,1.4c-0.2,0.4-0.4,0.8-0.6,1.2
				c-11.3,23.4-18,48.8-19.8,74.7c0,0.4-0.1,0.9-0.1,1.3c-0.2,3.4-0.4,6.8-0.4,10.2c0,0.5,0,1,0,1.5c0,0.4,0,0.8,0,1.2v0.3
				c-0.1,39.4,11.2,77.9,32.4,111l0.1,0.2c25.3,39.4,63.2,69.1,107.6,84.2l0.4,0.1c13.5,4.5,27.4,7.7,41.5,9.3
				c8.1,0.9,16.1,1.4,24.3,1.4c6.5,0,12.9-0.3,19.2-0.9c7-0.7,13.9-1.7,20.6-3c-2.2-6.5-4-13.1-5.5-19.8c-1.5-6-2.6-12-3.6-18.1
				c-3.5,3.8-7.2,7.5-10.9,11.1c-3.1,3-6.3,5.9-9.5,8.7V289c2.5-0.6,8.9-0.3,16.9,0.7c0.3-1.2,0.7-2.4,1.2-3.6
				c0.8-1.8,1.9-3.4,3.2-4.9c3.1-3.7,7.2-6.2,11.6-8.8c0.3-0.2,0.5-0.3,0.8-0.4c-7.9-1.3-15.9-2.3-24-2.8c-3.2-0.3-6.4-0.4-9.5-0.5
				v-52.1h83.8c-0.2,4-0.4,8-0.8,11.9c-0.5,5.2-1.1,10.4-1.9,15.5c0.8-0.5,1.7-1,2.5-1.5c3-1.8,6.1-3.7,9.2-5.5c3.3-2,6.6-4,9.9-6
				c0.4-4.1,0.6-8.1,0.8-12.1c0.1-1.7,0.4-2.5,2.3-2.5c7.3,0,14.6,0,21.9,0c4.5-2.6,9-5.4,13.3-8.2c0.4-0.3,0.8-0.5,1.2-0.8
				c3.5-2.1,7-4.1,11.1-4.1c3.8,0.1,7.2,2.2,10.3,3.9c0.5,0.3,1.1,0.6,1.6,0.9c8.6,5.1,20.3,12,29.8,17.6c0.6-6.4,0.9-12.9,0.9-19.5
				C423.7,199.6,423.4,193.1,422.8,186.7z M207.3,24v99.8c-9.3,0.8-34.5-3.1-51.8-7.3c-5.4-1.3-10-2.7-13.2-4
				C157.2,78.1,178.7,48.8,207.3,24z M177.3,24.8c-5.9,6.2-11.5,12.5-16.8,19.2c-15.1,18.9-27.5,39.8-36.9,62
				c-11.1-4.4-21.8-9.7-32.2-15.7c-4.3-2.5-8.6-5.1-12.7-7.9C95.1,59,150.5,26.5,177.3,24.8z M65.7,98.3c8.4,4.9,16.5,9.9,24.9,14.3
				c8.3,4.4,17,8.2,25.8,12.5c-0.7,2.2-1.4,4.3-2,6.5c-6.3,21-10,42.7-10.9,64.6h-72C33.7,160.1,45.1,127.5,65.7,98.3z M31.5,216.5
				h71.7c0.3,4.1,0.6,8,1,11.9c0.1,1.1,0.2,2.2,0.3,3.3c1.5,18.1,5.1,36,10.6,53.4c0.8,2.3,0.3,3.2-1.9,4.1
				c-15.6,6.5-30.6,14.4-44.8,23.7c-0.4,0.3-0.8,0.5-1.2,0.8c-0.4,0.3-0.8,0.5-1.3,0.8C45.1,285.2,33.7,252.6,31.5,216.5z
				 M89.3,341.3c-3.7-3.5-7.3-7.2-10.9-11.1c13.9-9.3,28.8-17.1,44.4-23.4c1.9,4.5,3.9,9,6,13.4c10.1,21,22.8,40.5,37.8,58.2
				c2.5,2.9,5,5.9,7.6,8.7c-0.3-0.1-0.7-0.1-1-0.3C140.9,379.1,113.1,363.8,89.3,341.3z M123.4,216.6h84V268
				c-12.3,1.5-24.6,2.4-36.7,4.5c-10.2,1.8-20.3,4.4-30.6,6.8l-5.5,1.3C129.7,269.9,122.6,230.1,123.4,216.6L123.4,216.6z
				 M207.6,301c0,29.2,0,58.4,0,87.7c0,0.4-0.1,0.8-0.2,1.9c-9.5-8.1-18.3-16.9-26.3-26.3c-4.1-4.8-8.1-9.8-11.8-15
				c-11.2-15.3-20.5-31.9-27.7-49.4c7.6-2,14.9-4.1,22.2-5.7c13.6-3,27.4-4.9,41.3-5.5c1.9-0.1,2.6,0.3,2.6,2.3L207.6,301z
				 M205.1,196.4c-23.8-0.1-47.6,0-71.4,0h-8.2c-0.6,0-1.2-0.1-2.2-0.2c1-22,5.1-43.8,12-64.7c23.4,7.4,47.6,11.6,72.1,12.5
				c0.1,1,0.1,1.9,0.1,2.7v8.7c0,12.8,0,25.5,0,38.2C207.6,195.4,207.5,196.4,205.1,196.4L205.1,196.4z M227.8,24.1
				C241.2,35.7,253.4,48.7,264,63c11.5,15.4,21.1,32.1,28.6,49.7c-18,5.6-36.6,9.2-55.3,10.7c-3.2,0.3-6.3,0.5-9.5,0.6V24.1z
				 M227.8,196.2V144c24.4-1,48.6-5.2,71.9-12.5c1.5,4.5,2.8,9.1,4.1,13.6c4.5,16.7,7,33.7,7.9,51.2L227.8,196.2z M311.5,106
				c-8.6-20.4-19.8-39.7-33.1-57.4c-2.9-3.9-6-7.8-9.2-11.5c-3.5-4.2-7.1-8.2-10.9-12.2c38.8,8.6,71.3,27.8,98.3,57.4
				c-0.5,0.3-0.9,0.6-1.3,0.8c-12.7,8.4-26.2,15.6-40.3,21.4C313.8,105,312.7,105.5,311.5,106z M331.6,196.2
				c-1.2-24.3-5.4-48.1-13-71.2c8.8-4.3,17.6-8.1,25.9-12.6c8.4-4.5,16.4-9.4,24.8-14.3c2.9,4.2,5.7,8.4,8.2,12.7
				c15.6,25.9,24.2,54.4,26.1,85.4H331.6z"/>
		</g>
		<g id="shield">
			
				<linearGradient id="SVGID_00000013172870217800337520000006266452928256175038_" gradientUnits="userSpaceOnUse" x1="705.8194" y1="-1102.7015" x2="705.8194" y2="-818.2391" gradientTransform="matrix(1 0 0 -1 -323.15 -591.6915)">
				<stop  offset="0" style="stop-color:#30B9EC"/>
				<stop  offset="1" style="stop-color:#345FAB"/>
			</linearGradient>
			<path style="fill:url(#SVGID_00000013172870217800337520000006266452928256175038_);" d="M500.8,330c0-6.2-0.1-12.6-0.7-18.7
				c-0.4-4.8-0.8-9.6-2.7-13.9c-3.5-7.6-12.8-10.9-19.5-15.1c-9.6-5.7-19.3-11.3-29-17.3c-19.3-11.3-38.6-22.9-57.9-34.2
				c-2.6-1.5-5.5-3.3-8.8-3.3c-3.5-0.1-6.5,1.7-9.5,3.5c-7.9,5.4-16.6,10.1-24.8,15c-8.4,4.9-16.9,10.1-25.1,15
				c-8.2,4.9-16.1,9.7-24.3,14.6c-6.5,3.8-12.7,7.1-19.2,11c-5.2,3.1-9.9,5.9-12.7,11.7c-1.6,4-2.1,8.1-2,12.4
				c-0.1,17.2,0.5,34.9,2.8,52c2.4,17.7,6.5,35.4,13.3,51.9c2.8,6.6,5.9,13.4,9.2,19.7c17.5,32,45.8,57.9,78.6,73.8
				c3.8,1.9,8,3.5,12.1,4c5.7,0.3,11-1.8,16.4-4.1c36.4-16.5,65.5-47.2,82.9-83.1C494.1,395.1,500.6,362.5,500.8,330z"/>
			
				<linearGradient id="SVGID_00000142173310868955554820000015002583319468127620_" gradientUnits="userSpaceOnUse" x1="597.0134" y1="-857.6304" x2="597.0134" y2="-637.6403" gradientTransform="matrix(0.99 -0.14 0.14 0.99 -98.4628 1190.9358)">
				<stop  offset="0" style="stop-color:#30B9EC"/>
				<stop  offset="1" style="stop-color:#345FAB"/>
			</linearGradient>
			<path style="fill:url(#SVGID_00000142173310868955554820000015002583319468127620_);" d="M476.2,335.3c0,9.1-0.6,18.2-1.9,27.1
				c-2.2,17.5-7,34.8-14.8,50.6c-13.6,28.2-36.4,52-64.7,65c-4,1.9-8.4,3.6-12.7,3.1c-3.3-0.4-6.4-1.5-9.5-3
				c-18.6-8.4-35.3-22-48.2-37.7c-9.1-11.1-15.6-23.6-20.6-36.7c-1.8-5.1-3.6-10.2-4.8-15.5c-1-3.1-1.7-6.2-2.4-9.6
				c-2.5-10.5-4.2-21.1-5.2-31.8c-1-12.2-4-27.3,5.4-37.2c5.9-6.2,15.3-9.6,22.5-13.9c8.2-4.6,16.7-9.6,24.8-14.7
				c10.4-6.7,21.1-12.9,31.6-19.4c1.9-1.2,4-2.4,6.2-2.7c3.5-0.4,6.7,1.4,9.7,3.2c9.5,4.7,18.4,11,27.5,16.5
				c13.5,8.1,27.2,16.1,40.8,24c4.3,2.5,8.7,5.1,11.6,9.1c3.2,4.3,4.3,9.9,4.5,15.3C476.1,329.9,476.2,332.6,476.2,335.3z"/>
			<path class="st3" d="M306.8,338.7h13.6l12.1,40.1l12.1-40.1h13.6l-17.8,54.5h-15.9L306.8,338.7z"/>
			<path class="st3" d="M402.6,357.4c0,10.4-8.3,18.7-19.1,18.7h-8.2v17.1h-12.5v-54.5h20.6C394.3,338.7,402.6,347,402.6,357.4z
				 M390.2,357.4c0-4-2.8-7-6.6-7h-8.2v14h8.2C387.4,364.4,390.2,361.3,390.2,357.4L390.2,357.4z"/>
			<path class="st3" d="M451.7,338.7v54.5h-9.3l-21-29.6v29.6h-12.5v-54.5h9.3l21,29.6v-29.6H451.7z"/>
		</g>
	</g>
</g>
</svg>
