<?xml version="1.0" encoding="utf-8"?>
<!-- Generator: Adobe Illustrator 25.4.1, SVG Export Plug-In . SVG Version: 6.00 Build 0)  -->
<svg version="1.1" id="Layer_1" xmlns="http://www.w3.org/2000/svg" xmlns:xlink="http://www.w3.org/1999/xlink" x="0px" y="0px"
	 viewBox="0 0 512 512" style="enable-background:new 0 0 512 512;" xml:space="preserve">
<style type="text/css">
	.st0{fill:url(#SVGID_1_);}
	.st1{fill:url(#SVGID_00000017484648140083159430000001398224058214393276_);}
	.st2{opacity:0.2;}
	.st3{opacity:0.86;fill:#335EAC;enable-background:new    ;}
	.st4{opacity:0.83;fill:#335EAC;enable-background:new    ;}
	.st5{opacity:0.84;fill:#335EAC;enable-background:new    ;}
	.st6{opacity:0.58;fill:#335EAC;enable-background:new    ;}
	.st7{opacity:0.51;fill:#335EAC;enable-background:new    ;}
	.st8{opacity:0.45;fill:#335EAC;enable-background:new    ;}
	.st9{opacity:0.3;fill:#335EAC;enable-background:new    ;}
	.st10{opacity:0.78;fill:#335EAC;enable-background:new    ;}
	.st11{opacity:0.71;fill:#335EAC;enable-background:new    ;}
	.st12{opacity:0.42;fill:#335EAC;enable-background:new    ;}
	.st13{opacity:0.33;fill:#335EAC;enable-background:new    ;}
	.st14{opacity:0.77;fill:#335EAC;enable-background:new    ;}
	.st15{opacity:0.98;fill:#335EAC;enable-background:new    ;}
	.st16{opacity:0.67;fill:#335EAC;enable-background:new    ;}
	.st17{opacity:0.37;fill:#335EAC;enable-background:new    ;}
	.st18{opacity:0.9;fill:#335EAC;enable-background:new    ;}
	.st19{opacity:0.29;fill:#335EAC;enable-background:new    ;}
	.st20{opacity:0.6;fill:#335EAC;enable-background:new    ;}
	.st21{opacity:0.28;fill:#335EAC;enable-background:new    ;}
	.st22{opacity:0.31;fill:#335EAC;enable-background:new    ;}
	.st23{opacity:0.63;fill:#335EAC;enable-background:new    ;}
	.st24{fill:#335EAC;}
	.st25{opacity:0.72;fill:#335EAC;enable-background:new    ;}
	.st26{opacity:0.97;fill:#335EAC;enable-background:new    ;}
	.st27{opacity:0.66;fill:#335EAC;enable-background:new    ;}
	.st28{opacity:0.52;fill:#335EAC;enable-background:new    ;}
	.st29{opacity:0.65;fill:#335EAC;enable-background:new    ;}
	.st30{opacity:0.27;fill:#335EAC;enable-background:new    ;}
	.st31{opacity:0.53;fill:#335EAC;enable-background:new    ;}
	.st32{opacity:0.23;fill:#335EAC;enable-background:new    ;}
	.st33{opacity:0.8;fill:#335EAC;enable-background:new    ;}
	.st34{opacity:0.48;fill:#335EAC;enable-background:new    ;}
	.st35{opacity:0.68;fill:#335EAC;enable-background:new    ;}
	.st36{opacity:0.25;fill:#335EAC;enable-background:new    ;}
	.st37{opacity:0.93;fill:#335EAC;enable-background:new    ;}
	.st38{opacity:0.44;fill:#335EAC;enable-background:new    ;}
	.st39{opacity:0.54;fill:#335EAC;enable-background:new    ;}
	.st40{opacity:0.85;fill:#335EAC;enable-background:new    ;}
	.st41{opacity:0.36;fill:#335EAC;enable-background:new    ;}
	.st42{opacity:0.88;fill:#335EAC;enable-background:new    ;}
	.st43{opacity:0.81;fill:#335EAC;enable-background:new    ;}
	.st44{opacity:0.59;fill:#335EAC;enable-background:new    ;}
	.st45{opacity:0.4;fill:#335EAC;enable-background:new    ;}
	.st46{opacity:0.73;fill:#335EAC;enable-background:new    ;}
	.st47{opacity:0.76;fill:#335EAC;enable-background:new    ;}
	.st48{opacity:0.69;fill:#335EAC;enable-background:new    ;}
	.st49{opacity:0.55;fill:#335EAC;enable-background:new    ;}
	.st50{opacity:0.62;fill:#335EAC;enable-background:new    ;}
	.st51{opacity:0.22;fill:#335EAC;enable-background:new    ;}
	.st52{opacity:0.32;fill:#335EAC;enable-background:new    ;}
	.st53{opacity:0.92;fill:#335EAC;enable-background:new    ;}
	.st54{opacity:0.5;fill:#335EAC;enable-background:new    ;}
	.st55{opacity:0.43;fill:#335EAC;enable-background:new    ;}
	.st56{opacity:0.24;fill:#335EAC;enable-background:new    ;}
	.st57{opacity:0.46;fill:#335EAC;enable-background:new    ;}
	.st58{opacity:0.94;fill:#335EAC;enable-background:new    ;}
	.st59{opacity:0.2;fill:#335EAC;enable-background:new    ;}
	.st60{opacity:0.99;fill:#335EAC;enable-background:new    ;}
	.st61{opacity:0.96;fill:#335EAC;enable-background:new    ;}
	.st62{opacity:0.26;fill:#335EAC;enable-background:new    ;}
	.st63{opacity:0.82;fill:#335EAC;enable-background:new    ;}
	.st64{opacity:0.91;fill:#335EAC;enable-background:new    ;}
	.st65{opacity:0.39;fill:#335EAC;enable-background:new    ;}
	.st66{opacity:0.57;fill:#335EAC;enable-background:new    ;}
	.st67{opacity:0.79;fill:#335EAC;enable-background:new    ;}
	.st68{fill:#FFFFFF;}
	.st69{opacity:0.6;fill:#132E44;enable-background:new    ;}
	.st70{fill:url(#SVGID_00000014631688511935738350000009161007061009473445_);}
	.st71{fill:url(#SVGID_00000172421232385370262490000001439444590551958428_);}
	.st72{fill:url(#SVGID_00000021080706981597476340000001329106408337162658_);}
	.st73{opacity:0.6;fill:#FFFFFF;enable-background:new    ;}
</style>
<g>
	<g id="Layer_2_00000168079311041682683230000016850503354144146599_">
		<g id="Layer_2-2">
			
				<linearGradient id="SVGID_1_" gradientUnits="userSpaceOnUse" x1="174.3554" y1="23.1825" x2="174.3554" y2="513.8217" gradientTransform="matrix(1 0 0 -1 0 514)">
				<stop  offset="0" style="stop-color:#2BBAED"/>
				<stop  offset="1" style="stop-color:#335EAC"/>
			</linearGradient>
			<path class="st0" d="M297.5,34.7l-0.9,200.2l-0.9,219c0,20.6-16.9,36.9-37.2,36.9h-12.7l-157.6-0.9c-20.6,0-36.9-16.6-36.9-37.2
				V33.8c0.3-20.6,18.5-33.6,39-33.6h170.3C281.1,0.2,297.5,14.4,297.5,34.7z"/>
			
				<linearGradient id="SVGID_00000145059335712628111080000014743014714723862437_" gradientUnits="userSpaceOnUse" x1="174.6578" y1="-1455.3943" x2="174.6578" y2="-987.4418" gradientTransform="matrix(1 0 0 -1 0 -975.89)">
				<stop  offset="0" style="stop-color:#335EAC"/>
				<stop  offset="1" style="stop-color:#BBE6FB"/>
			</linearGradient>
			<path style="fill:url(#SVGID_00000145059335712628111080000014743014714723862437_);" d="M286.3,38.3v17.2v35.7v4.5v15.4v4.5
				v16.6v4.5v35.4v4.5v15.7v4.2v16.6V237v19.1v19.1l-0.3,59.3v4.2v15.7v4.2V378v17.5v19.7v4.2v15.7v4.2v13.9c0,9.4-5.1,17.8-13,22.4
				c-3.6,2.1-7.9,3.3-11.8,3.3h-6.7h-11.8h-5.1h-16h-9.1h-17.2h-9.7h-16.9h-10H142h-10.3h-16h-10.6H89.4h-0.6
				c-4.8,0-9.4-1.2-13.3-3.9c-6.7-3.9-11.2-10.9-12.1-18.5c-0.3-1.2-0.3-2.4-0.3-3.6v-14.2v-20.9v-18.1v-23.6l0.3-157.6v-5.4
				l0.3-19.4V175v-19.4v-4.8v-13.9v-5.1v-16.6v-4.8V96.1v-4.8l0.3-54.1c0.3-5.4,2.1-10.6,5.1-14.8c1.8-2.7,4.5-5.1,7.3-7
				c1.5-0.9,3-1.8,4.5-2.4c3-1.2,6.4-1.8,9.4-1.8h4.5h10.9H119h11.5c0.6,0,1.5,0,2.1,0.3c3.6,1.2,6,4.5,5.7,8.2v6
				c0,4.5,3.3,8.2,7.9,8.5l64.4,0.3c4.5,0,8.2-3.6,8.2-8.2l0,0v-6c0-3.6,2.1-6.7,5.4-7.9c1.5,0,2.1,0,3,0h10.3h10h12.7
				c1.5,0,2.7,0,4.2,0.3c10.3,1.8,18.5,9.4,20.9,19.4C286,34.1,286.3,36.2,286.3,38.3z"/>
			<g class="st2">
				<path class="st3" d="M82.4,15.9c-0.3-0.9-0.9-1.8-1.2-2.4v-0.3c-1.5,0.6-3,1.2-4.5,2.4l0.3,0.3c0.3,0.3,0.3,0.6,0.6,0.9
					c0.6,1.5,0.9,3.6,0.9,5.4c0,2.1-0.3,3.9-1.2,5.7c-0.6,1.5-1.8,2.1-3.3,2.1c-1.5,0-3-0.6-3.6-2.1c-0.6-1.8-1.2-3.6-0.9-5.7
					c-1.8,2.4-3,4.8-3.6,7.6c0.3,0.6,0.6,0.9,0.9,1.5c1.8,2.1,4.5,3.6,7.3,3.3c2.7,0.3,5.7-1.2,7.3-3.3c1.8-2.7,2.4-5.7,2.4-8.8
					C83.6,20.1,83.3,17.7,82.4,15.9z"/>
				<path class="st4" d="M109,15.9L109,15.9c-0.3-0.9-0.9-1.8-1.5-2.7c-0.6-0.6-1.2-1.5-2.1-1.8H94.5c-0.6,0.6-1.5,1.2-1.8,1.8
					c-0.6,0.6-0.9,1.5-1.2,2.4c-0.6,2.4-0.9,4.5-0.9,6.7c-0.3,3,0.6,6.4,2.4,8.8c1.8,2.1,4.5,3.6,7.3,3.3c2.7,0.3,5.7-1.2,7.3-3.3
					c1.8-2.7,2.4-5.7,2.4-8.8C110.2,20.1,109.9,18,109,15.9z M103.9,28c-0.9,1.8-3.3,2.7-5.1,1.8c-0.9-0.3-1.5-0.9-1.8-1.8
					c-0.9-1.8-1.2-3.6-1.2-5.7s0.3-3.9,1.2-5.7c0-0.3,0.3-0.6,0.6-0.9c1.2-1.8,3.6-1.8,5.4-0.6c0.3,0.3,0.3,0.3,0.6,0.6
					c0.3,0.3,0.3,0.6,0.6,0.9c0.9,1.8,1.2,3.6,1.2,5.7C105.1,24.4,104.8,26.2,103.9,28L103.9,28z"/>
				<path class="st5" d="M134.4,13.5c-0.3-0.6-0.9-0.9-1.2-1.5c-0.6-0.3-1.5-0.3-2.1-0.3h-9.4c-0.9,0.6-1.5,1.2-2.1,1.8
					c-1.8,2.7-2.7,5.7-2.4,8.8c-0.3,3,0.6,6.4,2.4,8.8c1.8,2.4,4.5,3.6,7.3,3.3c2.7,0.3,5.4-0.9,7.3-3.3c1.8-2.7,2.7-5.7,2.4-8.8
					C137.1,19.2,136.2,16.2,134.4,13.5z M130.5,28c-0.9,1.8-3.3,2.7-5.1,1.8c-0.9-0.3-1.5-0.9-1.8-1.8c-0.9-1.8-1.2-3.6-1.2-5.7
					s0.3-3.9,1.2-5.7c0.9-1.8,3.3-2.7,5.1-1.8c0.9,0.3,1.5,0.9,1.8,1.8c0.9,1.8,1.2,3.6,1.2,5.7S131.4,26.2,130.5,28z"/>
				<path class="st6" d="M240.9,18.3c-0.3-1.8-0.9-3.3-2.1-4.8c-0.3-0.3-0.9-0.9-1.2-1.2h-10.3c-0.9,0-1.5,0-2.4,0.3
					c-0.3,0.3-0.6,0.6-0.9,0.9c-0.6,0.9-1.2,1.8-1.5,3c-0.6,1.8-0.9,3.9-0.9,6c0,3,0.6,6.4,2.4,8.8c3.6,3.9,9.7,4.5,13.6,0.9
					c0.3-0.3,0.6-0.6,0.9-0.9c1.8-2.7,2.4-5.7,2.4-8.8C241.2,21.1,240.9,19.8,240.9,18.3z M234.9,28c-0.9,1.8-3.3,2.7-5.1,1.8
					c-0.9-0.3-1.5-0.9-1.8-1.8c-0.9-1.8-1.2-3.6-1.2-5.7s5.1-7.3,6-9.1c0,0-4.8,3.3-4.8,3c1.2-1.8,3.3-2.4,5.1-1.5
					c0.6,0.3,1.2,0.9,1.5,1.5l0,0c0.9,2.1,1.2,4.2,1.2,6C235.8,24.4,235.5,26.2,234.9,28z"/>
				<path class="st7" d="M247.6,12.3v3h4.5v19.1h4.8V12.3H247.6z"/>
				<path class="st8" d="M264.5,12.6v2.7h4.5v19.1h5.1V16.2C271.2,14.4,267.8,13.2,264.5,12.6z"/>
				<path class="st9" d="M282.3,24.7c0.3,2.4,0.9,4.5,2.4,6.4c0.3,0.3,0.3,0.6,0.6,0.9C284.8,29.5,283.9,27.1,282.3,24.7z"/>
				<path class="st10" d="M83.3,54c-1.8-2.1-4.5-3.6-7.3-3.3c-2.7-0.3-5.7,1.2-7.3,3.3c-1.8,2.7-2.7,5.7-2.4,8.8
					c-0.3,3,0.6,6.4,2.4,8.8c1.8,2.1,4.5,3.6,7.3,3.3c2.7,0.3,5.4-1.2,7.3-3.3c1.8-2.7,2.7-5.7,2.4-8.8C86,59.8,85.1,56.4,83.3,54z
					 M79.7,68.5c-0.6,1.2-2.1,2.1-3.3,2.1c-1.5,0-2.7-0.9-3.6-2.1c-0.9-1.8-1.2-3.6-1.2-5.7s0.3-3.9,1.2-5.7
					c0.6-1.2,2.1-2.1,3.6-2.1s2.7,0.9,3.3,2.1c0.9,1.8,1.2,3.6,1.2,5.7C80.9,64.9,80.3,66.7,79.7,68.5z"/>
				<path class="st11" d="M92.1,51.3v4.5h4.5v19.1h5.1V51.3C101.8,51.3,92.1,51.3,92.1,51.3z"/>
				<path class="st12" d="M109,51.3v4.5h4.5v19.1h5.1V51.3C118.7,51.3,109,51.3,109,51.3z"/>
				<path class="st13" d="M144.1,54c-1.8-2.1-4.5-3.6-7.3-3.3c-2.7-0.3-5.7,1.2-7.3,3.3c-1.8,2.7-2.7,5.7-2.4,8.8
					c-0.3,3,0.6,6.4,2.4,8.8c1.8,2.1,4.5,3.6,7.3,3.3c2.7,0.3,5.4-1.2,7.3-3.3c1.8-2.7,2.7-5.7,2.4-8.8
					C146.8,59.8,145.9,56.7,144.1,54z M140.2,68.5c-0.6,1.2-2.1,2.1-3.3,2.1c-1.5,0-2.7-0.9-3.6-2.1c-0.9-1.8-1.2-3.6-1.2-5.7
					c0-1.8,0.3-3.9,1.2-5.7c0.6-1.2,2.1-2.1,3.6-2.1s2.7,0.9,3.3,2.1c0.9,1.8,1.2,3.6,1.2,5.7C141.4,64.9,141.1,66.7,140.2,68.5z"/>
				<path class="st14" d="M152.9,51.3v4.5h4.5v19.1h5.1V51.3C162.6,51.3,152.9,51.3,152.9,51.3z"/>
				<path class="st15" d="M187.7,54c-1.8-2.4-4.5-3.6-7.3-3.3c-2.7-0.3-5.7,1.2-7.3,3.3c-1.8,2.7-2.7,5.7-2.4,8.8
					c-0.3,3,0.6,6.4,2.4,8.8c1.8,2.1,4.5,3.6,7.3,3.3c2.7,0.3,5.4-0.9,7.3-3.3c1.8-2.7,2.7-5.7,2.4-8.8
					C190.4,59.8,189.5,56.4,187.7,54z M184,68.5c-0.9,1.8-3.3,2.7-5.1,1.8c-0.6-0.3-1.2-0.9-1.8-1.8c-0.9-1.8-1.2-3.6-1.2-5.7
					s0.3-3.9,1.2-5.7c0.9-1.8,3.3-2.7,5.1-1.8c0.6,0.3,1.2,0.9,1.8,1.8c0.9,1.8,1.2,3.6,1.2,5.7C185.2,64.9,184.6,66.7,184,68.5z"/>
				<path class="st16" d="M214.6,54c-3.6-3.9-9.7-4.5-13.6-0.9c-0.3,0.3-0.6,0.6-0.9,0.9c-1.8,2.7-2.7,5.7-2.4,8.8
					c-0.3,3,0.6,6.4,2.4,8.8c3.6,3.9,9.7,4.5,13.6,0.9c0.3-0.3,0.6-0.6,0.9-0.9c1.8-2.7,2.7-5.7,2.4-8.8
					C217.3,59.8,216.4,56.4,214.6,54z M210.7,68.5c-0.9,1.8-3.3,2.7-5.1,1.8c-0.6-0.3-1.2-0.9-1.8-1.8c-0.9-1.8-1.2-3.6-1.2-5.7
					s0.3-3.9,1.2-5.7c0.9-1.8,3.3-2.7,5.1-1.8c0.6,0.3,1.2,0.9,1.8,1.8c0.9,1.8,1.2,3.6,1.2,5.7C211.9,64.9,211.3,66.7,210.7,68.5
					L210.7,68.5z"/>
				<path class="st17" d="M223.1,51.3v4.5h4.5v19.1h5.1V51.3C232.7,51.3,223.1,51.3,223.1,51.3z"/>
				<path class="st18" d="M258.1,54c-0.6-0.6-1.2-1.2-1.8-1.8c-1.5-0.9-3.6-1.5-5.4-1.5c-2.7-0.3-5.4,1.2-7.3,3.3
					c-1.8,2.7-2.7,5.7-2.4,8.8c-0.3,3,0.6,6.4,2.4,8.8c1.8,2.1,4.5,3.6,7.3,3.3c1.8,0,3.9-0.3,5.4-1.5c0.6-0.6,1.2-1.2,1.8-1.8
					c1.8-2.7,2.7-5.7,2.4-8.8C260.9,59.8,260,56.4,258.1,54z M254.2,68.5c-0.9,1.8-3.3,2.7-5.1,1.8c-0.6-0.3-1.2-0.9-1.8-1.8
					c-0.9-1.8-1.2-3.6-1.2-5.7s0.3-3.9,1.2-5.7c0.9-1.8,3.3-2.7,5.1-1.8c0.6,0.3,1.2,0.9,1.8,1.8c0.9,1.8,1.2,3.6,1.2,5.7
					C255.4,64.9,255.1,66.7,254.2,68.5z"/>
				<path class="st19" d="M266.9,51.3v4.5h4.5v19.1h5.1V51.3C276.6,51.3,266.9,51.3,266.9,51.3z"/>
				<path class="st20" d="M283.9,51.3v4.5h2.1v-4.5H283.9z"/>
				<path class="st21" d="M73.6,94.6c-1.5-2.4-4.5-3.6-7.3-3.3c-0.9,0-1.5,0-2.4,0.3v4.8c0.6-0.6,1.5-0.9,2.4-0.6
					c1.5,0,2.7,0.9,3.6,2.1c0.9,1.8,1.2,3.6,1.2,5.7c0,1.8-0.3,3.9-0.9,5.7c-0.9,1.2-2.4,1.8-3.9,1.8c-0.9,0-1.8-0.3-2.4-0.9v4.8
					c0.9,0.3,1.5,0.3,2.4,0.3c2.7,0.3,5.4-0.9,7.3-3.3c1.8-2.7,2.7-5.7,2.4-8.8C76.3,100.3,75.4,97,73.6,94.6z"/>
				<path class="st22" d="M82.4,91.8v4.5h4.5v19.1h5.1V91.8H82.4z"/>
				<path class="st23" d="M117.5,94.6c-1.8-2.4-4.5-3.6-7.3-3.3c-3-0.3-5.7,0.9-7.6,3.3c-1.8,2.7-2.7,5.7-2.4,8.8
					c-0.3,3,0.6,6.4,2.4,8.8c1.8,2.1,4.5,3.6,7.3,3.3c2.7,0.3,5.4-1.2,7.3-3.3c1.8-2.7,2.7-5.7,2.4-8.8
					C119.9,100.3,119,97.3,117.5,94.6z M113.6,109.1c-0.9,1.8-3.3,2.7-5.1,1.8c-0.9-0.3-1.5-0.9-1.8-1.8c-0.9-1.8-1.2-3.6-1.2-5.7
					c0-1.8,0.3-3.9,1.2-5.7c0.9-1.8,3.3-2.7,5.1-1.8c0.9,0.3,1.5,0.9,1.8,1.8c0.9,1.8,1.2,3.6,1.2,5.7
					C114.8,105.4,114.5,107.3,113.6,109.1z"/>
				<path class="st24" d="M144.1,94.6c-1.8-2.4-4.5-3.6-7.3-3.3c-2.7-0.3-5.7,0.9-7.3,3.3c-1.8,2.7-2.7,5.7-2.4,8.8
					c-0.3,3,0.6,6.4,2.4,8.8c1.8,2.1,4.5,3.6,7.3,3.3c2.7,0.3,5.4-1.2,7.3-3.3c1.8-2.7,2.7-5.7,2.4-8.8
					C146.8,100.3,145.9,97,144.1,94.6z M140.2,109.1c-0.6,1.5-1.8,2.1-3.3,2.1s-3-0.9-3.6-2.1c-0.9-1.8-1.2-3.6-1.2-5.7
					c0-1.8,0.3-3.9,1.2-5.7c0.6-1.2,2.1-2.1,3.6-2.1s2.7,0.9,3.3,2.1c0.9,1.8,1.2,3.6,1.2,5.7C141.4,105.4,141.1,107.3,140.2,109.1z
					"/>
				<path class="st25" d="M152.9,91.8v4.5h4.5v19.1h5.1V91.8H152.9z"/>
				<path class="st26" d="M187.7,94.6c-1.8-2.4-4.5-3.6-7.3-3.3c-2.7-0.3-5.7,0.9-7.3,3.3c-1.8,2.7-2.7,5.7-2.4,8.8
					c-0.3,3,0.6,6.4,2.4,8.8c1.8,2.1,4.5,3.6,7.3,3.3c2.7,0.3,5.4-0.9,7.3-3.3c1.8-2.7,2.7-5.7,2.4-8.8
					C190.4,100.3,189.5,97,187.7,94.6z M184,109.1c-0.9,1.8-3.3,2.7-5.1,1.8c-0.9-0.3-1.5-0.9-1.8-1.8c-0.9-1.8-1.2-3.6-1.2-5.7
					c0-2.1,0.3-3.9,1.2-5.7c0.9-1.8,3.3-2.7,5.1-1.8c0.6,0.3,1.2,0.9,1.8,1.8c0.9,1.8,1.2,3.6,1.2,5.7
					C185.2,105.4,184.6,107.3,184,109.1z"/>
				<path class="st27" d="M196.4,91.8v4.5h4.5v19.1h5.1V91.8H196.4z"/>
				<path class="st28" d="M213.4,91.8v4.5h4.5v19.1h5.1V91.8H213.4z"/>
				<path class="st29" d="M230.3,91.8v4.5h4.5v19.1h5.1V91.8H230.3z"/>
				<path class="st7" d="M265.4,94.6c-1.8-2.4-4.5-3.6-7.3-3.3c-0.6,0-1.2,0-1.8,0c-2.1,0.3-3.9,1.5-5.1,3.3
					c-1.8,2.7-2.7,5.7-2.4,8.8c-0.3,3,0.6,6.4,2.4,8.8c1.2,1.8,3.3,2.7,5.4,3c0.6,0,1.2,0.3,2.1,0.3c2.7,0.3,5.7-1.2,7.3-3.3
					c1.8-2.7,2.7-5.7,2.4-8.8C268.1,100,267.2,97,265.4,94.6z M261.5,109.1c-0.6,1.5-2.1,2.1-3.6,2.1c-0.6,0-1.5-0.3-2.1-0.6
					c-0.6-0.3-1.2-0.9-1.5-1.5c-0.9-1.8-1.2-3.6-1.2-5.7c0-2.1,0.3-3.9,1.2-5.7c0.3-0.6,0.9-1.2,1.5-1.8c0.6-0.3,1.2-0.6,1.8-0.3
					c1.5,0,2.7,0.9,3.6,2.1c0.9,1.8,1.2,3.6,1.2,5.7C262.7,105.4,262.4,107.3,261.5,109.1z"/>
				<path class="st30" d="M284.8,95.5c0.3,0,0.9,0,1.2,0v-4.5h-1.2c-2.7-0.3-5.7,0.9-7.3,3.3c-1.8,2.7-2.7,5.7-2.4,8.8
					c-0.3,3,0.6,6.4,2.4,8.8c1.8,2.4,4.5,3.6,7.3,3.3h1.2v-4.5c-0.3,0-0.6,0-1.2,0c-1.5,0-3-0.6-3.6-2.1c-0.9-1.8-1.2-3.6-1.2-5.7
					c0-2.1,0.3-3.9,1.2-5.7C281.7,96.4,283.3,95.5,284.8,95.5z"/>
				<path class="st9" d="M70,138.1c-0.6-1.2-2.1-2.1-3.6-2.1c-0.9,0-1.8,0.3-2.4,0.9v13.9c0.6,0.6,1.5,0.9,2.4,0.9
					c1.5,0,2.7-0.9,3.6-2.1c0.9-1.8,1.2-3.6,1.2-5.7C71.2,142,70.6,139.9,70,138.1z M73.6,135.1c-1.8-2.4-4.5-3.6-7.3-3.3
					c-0.9,0-1.8,0-2.4,0.3v5.1v13.9v5.1c0.9,0.3,1.8,0.3,2.7,0.3c2.7,0.3,5.4-0.9,7.3-3.3c1.8-2.7,2.7-5.7,2.4-8.8
					C76.3,140.8,75.4,137.5,73.6,135.1z"/>
				<path class="st31" d="M82.4,132.4v4.5h4.5V156h5.1v-23.6H82.4z"/>
				<path class="st32" d="M99.6,132.4v4.5h4.5V156h5.1v-23.6H99.6z"/>
				<path class="st33" d="M134.4,135.1c-1.8-2.4-4.5-3.6-7.3-3.3c-2.7-0.3-5.4,0.9-7.3,3.3c-1.8,2.7-2.7,5.7-2.4,8.8
					c-0.3,3,0.6,6.4,2.4,8.8c1.8,2.1,4.5,3.6,7.3,3.3c2.7,0.3,5.4-0.9,7.3-3.3c1.8-2.7,2.7-5.7,2.4-8.8
					C137.1,140.8,136.2,137.5,134.4,135.1z M130.5,149.6c-0.9,1.8-3.3,2.7-5.1,1.8c-0.9-0.3-1.5-0.9-1.8-1.8
					c-0.9-1.8-1.2-3.6-1.2-5.7c0-1.8,0.3-3.9,1.2-5.7s3.3-2.7,5.1-1.8c0.9,0.3,1.5,0.9,1.8,1.8c0.9,1.8,1.2,3.6,1.2,5.7
					S131.4,147.8,130.5,149.6z"/>
				<path class="st17" d="M161,135.1c-1.8-2.4-4.5-3.6-7.3-3.3c-2.7-0.3-5.4,0.9-7.3,3.3c-1.8,2.7-2.7,5.7-2.4,8.8
					c-0.3,3,0.6,6.4,2.4,8.8c1.8,2.1,4.5,3.6,7.3,3.3c2.7,0.3,5.4-0.9,7.3-3.3c1.8-2.7,2.7-5.7,2.4-8.8
					C163.8,140.8,162.9,137.5,161,135.1z M157.1,149.6c-0.9,1.8-3.3,2.7-5.1,1.8c-0.9-0.3-1.5-0.9-1.8-1.8c-0.9-1.8-1.2-3.6-1.2-5.7
					c0-1.8,0.3-3.9,1.2-5.7c0.9-1.8,3.3-2.7,5.1-1.8c0.9,0.3,1.5,0.9,1.8,1.8c0.9,1.8,1.2,3.6,1.2,5.7S158,147.8,157.1,149.6z"/>
				<path class="st6" d="M187.7,135.1c-1.8-2.4-4.5-3.6-7.3-3.3c-2.7-0.3-5.7,1.2-7.3,3.3c-1.8,2.7-2.7,5.7-2.4,8.8
					c0,3,0.6,6.4,2.4,8.8c1.8,2.1,4.5,3.6,7.3,3.3c2.7,0.3,5.4-0.9,7.3-3.3c1.8-2.7,2.7-5.7,2.4-8.8
					C190.4,140.8,189.5,137.5,187.7,135.1z M184,149.6c-0.9,1.8-3.3,2.7-5.1,1.8c-0.9-0.3-1.5-0.9-1.8-1.8c-0.9-1.8-1.2-3.6-1.2-5.7
					c0-1.8,0.3-3.9,1.2-5.7s3.3-2.7,5.1-1.8c0.9,0.3,1.5,0.9,1.8,1.8c0.9,1.8,1.2,3.6,1.2,5.7C185.2,146,184.6,147.8,184,149.6z"/>
				<path class="st34" d="M214.6,135.1c-3.6-3.9-9.7-4.5-13.6-0.9c-0.3,0.3-0.6,0.6-0.9,0.9c-1.8,2.7-2.7,5.7-2.4,8.8
					c0,3,0.6,6.4,2.4,8.8c3.6,3.9,9.7,4.5,13.9,0.9c0.3-0.3,0.6-0.6,0.9-0.9c1.8-2.7,2.7-5.7,2.4-8.8
					C217.3,140.8,216.4,137.5,214.6,135.1z M210.7,149.6c-0.9,1.8-3.3,2.7-5.1,1.8c-0.9-0.3-1.5-0.9-1.8-1.8
					c-0.9-1.8-1.2-3.6-1.2-5.7c0-1.8,0.3-3.9,1.2-5.7s3.3-2.7,5.1-1.8c0.9,0.3,1.5,0.9,1.8,1.8c0.9,1.8,1.2,3.6,1.2,5.7
					C211.9,146,211.3,147.8,210.7,149.6z"/>
				<path class="st5" d="M223.1,132.4v4.5h4.5V156h5.1v-23.6H223.1z"/>
				<path class="st16" d="M258.1,135.1c-0.6-0.9-1.2-1.5-2.1-2.1c-1.5-0.9-3.3-1.5-5.1-1.2c-2.7-0.3-5.4,1.2-7.3,3.3
					c-1.8,2.7-2.7,5.7-2.4,8.8c-0.3,3,0.6,6.4,2.4,8.8c1.8,2.1,4.5,3.6,7.3,3.3c1.8,0,3.6-0.3,5.1-1.2c0.9-0.6,1.5-1.2,2.1-2.1
					c1.8-2.7,2.7-5.7,2.4-8.8C260.9,140.8,260,137.5,258.1,135.1z M254.2,149.6c-0.9,1.8-3.3,2.7-5.1,1.8c-0.9-0.3-1.5-0.9-1.8-1.8
					c-0.9-1.8-1.2-3.6-1.2-5.7c0-1.8,0.3-3.9,1.2-5.7c0.9-1.8,3.3-2.7,5.1-1.8c0.9,0.3,1.5,0.9,1.8,1.8c0.9,1.8,1.2,3.6,1.2,5.7
					S255.1,147.8,254.2,149.6z"/>
				<path class="st35" d="M266.9,132.4v4.5h4.5V156h5.1v-23.6H266.9z"/>
				<path class="st36" d="M283.9,132.4v4.5h1.8v-4.5H283.9z"/>
				<path class="st37" d="M63.9,175.6l-0.3-0.6v18.8l0.3-0.6c1.8-2.7,2.4-5.7,2.1-9.1C66.7,181.4,65.8,178.3,63.9,175.6z"/>
				<path class="st38" d="M90.9,175.6c-1.8-2.4-4.5-3.6-7.3-3.3c-2.7-0.3-5.7,0.9-7.3,3.3c-3.3,5.4-3.3,12.4,0,17.8
					c1.8,2.1,4.5,3.6,7.3,3.3c2.7,0.3,5.4-1.2,7.3-3.3C93.9,188,93.9,181.1,90.9,175.6z M86.9,190.1c-0.9,1.8-3.3,2.7-5.1,1.8
					c-0.6-0.3-1.2-0.9-1.8-1.8c-1.5-3.6-1.5-7.9,0-11.5c0.9-1.8,3.3-2.7,5.1-1.8c0.6,0.3,1.2,0.9,1.8,1.8
					C88.4,182.3,88.4,186.5,86.9,190.1z"/>
				<path class="st39" d="M117.5,175.6c-1.8-2.4-4.5-3.6-7.3-3.3c-3-0.3-5.7,0.9-7.6,3.3c-3.3,5.4-3.3,12.4,0,17.8
					c1.8,2.1,4.5,3.6,7.3,3.3c2.7,0.3,5.4-1.2,7.3-3.3C120.5,188,120.5,181.1,117.5,175.6L117.5,175.6z M113.6,190.1
					c-0.9,1.8-3.3,2.7-5.1,1.8c-0.9-0.3-1.5-0.9-1.8-1.8c-1.5-3.6-1.5-7.9,0-11.5c0.9-1.8,3.3-2.7,5.1-1.8c0.9,0.3,1.5,0.9,1.8,1.8
					C115.1,182.3,115.1,186.5,113.6,190.1z"/>
				<path class="st40" d="M144.1,175.6c-1.8-2.4-4.5-3.6-7.3-3.3c-2.7-0.3-5.7,0.9-7.3,3.3c-3.3,5.4-3.3,12.4,0,17.8
					c1.8,2.1,4.5,3.6,7.3,3.3c2.7,0.3,5.4-1.2,7.3-3.3C147.4,188,147.4,181.1,144.1,175.6z M140.2,190.1c-0.6,1.2-2.1,2.1-3.3,2.1
					c-1.5,0-2.7-0.9-3.6-2.1c-1.5-3.6-1.5-7.9,0-11.5c0.6-1.2,2.1-2.1,3.6-2.1s2.7,0.9,3.3,2.1C141.7,182.3,141.7,186.5,140.2,190.1
					z"/>
				<path class="st13" d="M152.9,172.6v4.5h4.5v19.1h5.1v-23.6H152.9z"/>
				<path class="st30" d="M169.8,172.6v4.5h4.5v19.1h5.1v-23.6H169.8z"/>
				<path class="st9" d="M186.8,172.6v4.5h4.5v19.1h5.1v-23.6H186.8z"/>
				<path class="st41" d="M221.8,175.6c-3.6-3.9-9.7-4.5-13.6-0.9c-0.3,0.3-0.6,0.6-0.9,0.9c-3.3,5.4-3.3,12.4,0,17.8
					c3.6,3.9,9.7,4.5,13.6,0.9c0.3-0.3,0.6-0.6,0.9-0.9C224.9,188,224.9,181.1,221.8,175.6z M217.9,190.1c-0.9,1.8-3.3,2.7-5.1,1.8
					c-0.6-0.3-1.2-0.9-1.8-1.8c-1.5-3.6-1.5-7.9,0-11.5c0.9-1.8,3.3-2.7,5.1-1.8c0.6,0.3,1.2,0.9,1.8,1.8
					C219.4,182.3,219.4,186.5,217.9,190.1z"/>
				<path class="st42" d="M230.3,172.6v4.5h4.5v19.1h5.1v-23.6H230.3z"/>
				<path class="st35" d="M265.4,175.6c-1.8-2.4-4.5-3.6-7.3-3.3c-0.6,0-1.5,0-2.1,0.3c-2.1,0.3-3.6,1.5-4.8,3
					c-3.3,5.4-3.3,12.4,0,17.8c1.2,1.5,3,2.7,4.8,3c0.9,0,1.5,0.3,2.4,0.3c2.7,0.3,5.7-1.2,7.3-3.3
					C268.7,187.7,268.7,181.1,265.4,175.6L265.4,175.6z M261.5,190.1c-0.6,1.2-2.1,2.1-3.6,2.1c-0.9,0-1.8-0.3-2.4-0.6
					c-0.6-0.3-0.9-0.9-1.2-1.5c-1.5-3.6-1.5-7.9,0-11.5c0.3-0.6,0.6-1.2,1.2-1.5c0.6-0.6,1.5-0.6,2.4-0.6c1.5,0,2.7,0.9,3.6,2.1
					C263,182.3,263,186.5,261.5,190.1z"/>
				<path class="st43" d="M284.8,176.5h0.9v-4.2h-0.9c-2.7-0.3-5.4,1.2-7.3,3.3c-3.3,5.4-3.3,12.4,0,17.8c1.8,2.4,4.5,3.6,7.3,3.3
					h0.6v-4.5h-0.6c-1.5,0-3-0.6-3.6-2.1c-1.5-3.6-1.5-7.9,0-11.5C281.7,177.1,283.3,176.5,284.8,176.5z"/>
				<path class="st44" d="M63,213.1v4.5h4.5v19.1h5.1v-23.6H63z"/>
				<path class="st45" d="M98.1,216.2c-1.8-2.1-4.5-3.6-7.3-3.3c-2.7-0.3-5.4,0.9-7.3,3.3c-3.3,5.4-3.3,12.4,0,17.8
					c1.8,2.4,4.5,3.6,7.3,3.3c2.7,0.3,5.4-1.2,7.3-3.3C101.2,228.3,101.2,221.6,98.1,216.2z M94.2,230.7c-0.9,1.8-3.3,2.7-5.1,1.8
					c-0.9-0.3-1.5-0.9-1.8-1.8c-0.9-1.8-1.2-3.6-1.2-5.7c0-2.1,0.3-3.9,1.2-5.7s3.3-2.7,5.1-1.8c0.9,0.3,1.5,0.9,1.8,1.8
					c0.9,1.8,1.2,3.6,1.2,5.7C95.4,227,95.1,228.9,94.2,230.7z"/>
				<path class="st41" d="M106.9,213.1v4.5h4.5v19.1h5.1v-23.6H106.9z"/>
				<path class="st46" d="M123.8,213.1v4.5h4.5v19.1h5.1v-23.6H123.8z"/>
				<path class="st21" d="M140.8,213.1v4.5h4.5v19.1h5.1v-23.6H140.8z"/>
				<path class="st23" d="M157.7,213.1v4.5h4.5v19.1h5.1v-23.6H157.7z"/>
				<path class="st47" d="M192.8,216.2c-3.6-3.9-9.7-4.5-13.6-0.9c-0.3,0.3-0.6,0.6-0.9,0.9c-3.3,5.4-3.3,12.4,0,17.8
					c3.6,3.9,9.7,4.5,13.6,0.9c0.3-0.3,0.6-0.6,0.9-0.9C195.8,228.3,195.8,221.6,192.8,216.2z M188.9,230.7
					c-0.6,1.5-2.1,2.1-3.6,2.1s-2.7-0.9-3.3-2.1c-0.9-1.8-1.2-3.6-1.2-5.7c0-2.1,0.3-3.9,1.2-5.7c0.6-1.5,1.8-2.1,3.3-2.1
					s3,0.9,3.6,2.1c0.9,1.8,1.2,3.6,1.2,5.7C190.1,227,189.5,228.9,188.9,230.7z"/>
				<path class="st5" d="M201.3,213.1v4.5h4.5v19.1h5.1v-23.6H201.3z"/>
				<path class="st48" d="M218.2,213.1v4.5h4.5v19.1h5.1v-23.6H218.2z"/>
				<path class="st49" d="M255.7,222.5c-0.3-2.4-0.9-4.5-2.4-6.4c-3.6-3.9-9.7-4.5-13.6-0.9c-0.3,0.3-0.6,0.6-0.9,0.9
					c-3.3,5.4-3.3,12.4,0,17.8c3.6,3.9,9.7,4.5,13.6,0.9c0.3-0.3,0.6-0.6,0.9-0.9c1.2-1.8,2.1-3.9,2.4-6.4l0,0c0-0.9,0-1.8,0-2.7
					C255.7,224,255.7,223.4,255.7,222.5z M249.7,230.7c-0.9,1.8-3.3,2.7-5.1,1.8c-0.9-0.3-1.5-0.9-1.8-1.8c-0.9-1.8-1.2-3.6-1.2-5.7
					c0-2.1,0.3-3.9,1.2-5.7c0.9-1.8,3.3-2.7,5.1-1.8c0.9,0.3,1.5,0.9,1.8,1.8c0.9,1.8,1.2,3.6,1.2,5.7
					C250.6,227,250.3,228.9,249.7,230.7L249.7,230.7z"/>
				<path class="st37" d="M262.1,213.1v4.5h4.5v19.1h5.1v-23.6H262.1z"/>
				<path class="st50" d="M279,213.1v4.5h4.5v19.1h1.8v-23.6H279z"/>
				<path class="st49" d="M65.5,253.7v4.5H70v19.1h5.1v-23.6H65.5z"/>
				<path class="st47" d="M82.4,253.7v4.5h4.5v19.1h5.1v-23.6H82.4z"/>
				<path class="st51" d="M117.5,256.7c-1.8-2.1-4.5-3.6-7.3-3.3c-3-0.3-5.7,0.9-7.6,3.3c-3.3,5.4-3.3,12.4,0,17.8
					c1.8,2.4,4.5,3.6,7.3,3.3c2.7,0.3,5.4-0.9,7.3-3.3C120.5,268.8,120.5,262.1,117.5,256.7L117.5,256.7z M113.6,271.2
					c-0.9,1.8-3.3,2.7-5.1,1.8c-0.9-0.3-1.5-0.9-1.8-1.8c-0.9-1.8-1.2-3.6-1.2-5.7c0-1.8,0.3-3.9,1.2-5.7c0.9-1.8,3.3-2.7,5.1-1.8
					c0.9,0.3,1.5,0.9,1.8,1.8c0.9,1.8,1.2,3.6,1.2,5.7C114.8,267.6,114.5,269.4,113.6,271.2z"/>
				<path class="st52" d="M144.1,256.7c-1.8-2.1-4.5-3.6-7.3-3.3c-2.7-0.3-5.7,1.2-7.3,3.3c-3.3,5.4-3.3,12.4,0,17.8
					c1.8,2.4,4.5,3.6,7.3,3.3c2.7,0.3,5.7-0.9,7.3-3.3C147.4,268.8,147.4,262.1,144.1,256.7z M140.2,271.2c-0.6,1.2-1.8,2.1-3.3,2.1
					s-3-0.9-3.6-2.1c-0.9-1.8-1.2-3.6-1.2-5.7c0-1.8,0.3-3.9,1.2-5.7c0.6-1.5,2.1-2.1,3.6-2.1s2.7,0.9,3.3,2.1
					c0.9,1.8,1.2,3.6,1.2,5.7C141.4,267.6,141.1,269.4,140.2,271.2z"/>
				<path class="st53" d="M152.9,253.7v4.5h4.5v19.1h5.1v-23.6H152.9z"/>
				<path class="st54" d="M169.8,253.7v4.5h4.5v19.1h5.1v-23.6H169.8z"/>
				<path class="st55" d="M204.9,256.7c-3.6-3.9-9.7-4.5-13.6-0.9c-0.3,0.3-0.6,0.6-0.9,0.9c-3.3,5.4-3.3,12.4,0,17.8
					c3.6,3.9,9.7,4.5,13.6,0.9c0.3-0.3,0.6-0.6,0.9-0.9C207.9,268.8,207.9,262.1,204.9,256.7z M201,271.2c-0.6,1.2-2.1,2.1-3.3,2.1
					c-1.5,0-3-0.9-3.6-2.1c-0.9-1.8-1.2-3.6-1.2-5.7c0-1.8,0.3-3.9,1.2-5.7c0.6-1.5,2.1-2.1,3.6-2.1s2.7,0.9,3.3,2.1
					c0.9,1.8,1.2,3.6,1.2,5.7C202.2,267.6,201.6,269.4,201,271.2z"/>
				<path class="st56" d="M213.4,253.7v4.5h4.5v19.1h5.1v-23.6H213.4z"/>
				<path class="st7" d="M230.3,253.7v4.5h4.5v19.1h5.1v-23.6H230.3z"/>
				<path class="st33" d="M247.6,253.7v4.5h4.5v19.1h4.8v-23.6H247.6z"/>
				<path class="st23" d="M264.5,253.7v4.5h4.5v19.1h5.1v-23.6H264.5z"/>
				<path class="st15" d="M284.8,256.7c-3.3,5.4-3.3,12.4,0,17.8c0,0.3,0.3,0.3,0.3,0.6v-19.1L284.8,256.7z"/>
				<path class="st57" d="M97.2,294.2v4.5h4.5v19.1h5.1v-23.6H97.2z"/>
				<path class="st58" d="M114.2,294.2v4.5h4.5v19.1h5.1v-23.6H114.2z"/>
				<path class="st43" d="M131.1,294.2v4.5h4.5v19.1h5.1v-23.6H131.1z"/>
				<path class="st59" d="M165.9,297.2c-1.8-2.4-4.5-3.6-7.3-3.3c-2.7-0.3-5.7,0.9-7.3,3.3c-3.3,5.4-3.3,12.4,0,17.8
					c1.8,2.1,4.5,3.6,7.3,3.3c2.7,0.3,5.4-1.2,7.3-3.3C169.2,309.3,169.2,302.7,165.9,297.2z M162.3,311.7c-0.9,1.8-3.3,2.7-5.1,1.8
					c-0.6-0.3-1.2-0.9-1.8-1.8c-1.5-3.6-1.5-7.9,0-11.5c0.9-1.8,3.3-2.7,5.1-1.8c0.6,0.3,1.2,0.9,1.8,1.8
					C163.8,303.9,163.8,308.1,162.3,311.7z"/>
				<path class="st28" d="M192.8,297.2c-3.6-3.9-9.7-4.5-13.6-0.9c-0.3,0.3-0.6,0.6-0.9,0.9c-3.3,5.4-3.3,12.4,0,17.8
					c3.6,3.9,9.7,4.5,13.6,0.9c0.3-0.3,0.6-0.6,0.9-0.9C195.8,309.3,195.8,302.7,192.8,297.2z M188.9,311.7
					c-0.6,1.2-2.1,2.1-3.6,2.1s-2.7-0.9-3.3-2.1c-1.5-3.6-1.5-7.9,0-11.5c0.6-1.2,2.1-2.1,3.3-2.1c1.5,0,3,0.9,3.6,2.1
					C190.4,303.9,190.4,308.1,188.9,311.7z"/>
				<path class="st30" d="M201.3,294.2v4.5h4.5v19.1h5.1v-23.6H201.3z"/>
				<path class="st60" d="M218.2,294.2v4.5h4.5v19.1h5.1v-23.6H218.2z"/>
				<path class="st48" d="M255.1,301.5c-0.3-1.5-0.9-3-2.1-4.5c-3.6-3.9-9.7-4.5-13.6-0.9c-0.3,0.3-0.6,0.6-0.9,0.9
					c-3,5.4-3,12.1,0.3,17.5c3.6,3.9,9.7,4.5,13.6,0.9c0.3-0.3,0.6-0.6,0.9-0.9c0.9-1.2,1.5-2.7,1.8-4.2c0.3-1.5,0.6-3,0.6-4.5
					C255.7,304.5,255.7,303,255.1,301.5z M249.4,311.7c-0.9,1.8-3.3,2.7-5.1,1.8c-0.6-0.3-1.2-0.9-1.8-1.8c-1.5-3.6-1.5-7.9,0-11.5
					c0.9-1.8,3.3-2.7,5.1-1.8c0.6,0.3,1.2,0.9,1.8,1.8C250.9,303.9,250.9,308.1,249.4,311.7z"/>
				<path class="st61" d="M279.9,297.2c-3.6-3.9-9.7-4.5-13.6-0.9c-0.3,0.3-0.6,0.6-0.9,0.9c-3.3,5.4-3.3,12.4,0,17.8
					c3.6,3.9,9.7,4.5,13.6,0.9c0.3-0.3,0.6-0.6,0.9-0.9C283.3,309.3,283.3,302.7,279.9,297.2z M276,311.7c-0.6,1.2-2.1,2.1-3.6,2.1
					s-3-0.9-3.6-2.1c-1.5-3.6-1.5-7.9,0-11.5c0.6-1.2,2.1-2.1,3.6-2.1s3,0.9,3.6,2.1C277.5,303.9,277.5,308.1,276,311.7L276,311.7z"
					/>
				<path class="st40" d="M83.3,337.8c-1.8-2.1-4.5-3.6-7.3-3.3c-2.7-0.3-5.7,1.2-7.3,3.3c-3.3,5.4-3.3,12.4,0,17.8
					c1.8,2.4,4.5,3.6,7.3,3.3c2.7,0.3,5.4-0.9,7.3-3.3C86.6,349.9,86.6,343.2,83.3,337.8z M79.7,352.3c-0.6,1.2-1.8,2.1-3.3,2.1
					s-3-0.9-3.6-2.1c-0.9-1.8-1.2-3.6-1.2-5.7c0-1.8,0.3-3.9,1.2-5.7c0.6-1.5,2.1-2.1,3.6-2.1s2.7,0.9,3.3,2.1
					c0.9,1.8,1.2,3.6,1.2,5.7C80.9,348.3,80.3,350.5,79.7,352.3z"/>
				<path class="st40" d="M88.1,296.6c-1.8-2.1-4.5-3.6-7.3-3.3c-2.7-0.3-5.7,1.2-7.3,3.3c-3.3,5.4-3.3,12.4,0,17.8
					c1.8,2.4,4.5,3.6,7.3,3.3c2.7,0.3,5.4-0.9,7.3-3.3C91.2,309,91.2,302.1,88.1,296.6z M84.2,311.4c-0.6,1.2-1.8,2.1-3.3,2.1
					s-3-0.9-3.3-2.1c-0.9-1.8-1.2-3.6-1.2-5.7c0-1.8,0.3-3.9,1.2-5.7c0.6-1.5,2.1-2.1,3.3-2.1c1.5,0,2.7,0.9,3.3,2.1
					c0.9,1.8,1.2,3.6,1.2,5.7C85.4,307.5,85.1,309.6,84.2,311.4z"/>
				<path class="st38" d="M110.2,337.8c-1.8-2.1-4.5-3.6-7.3-3.3c-2.7-0.3-5.4,1.2-7.3,3.3c-3.3,5.4-3.3,12.4,0,17.8
					c1.8,2.4,4.5,3.6,7.3,3.3c2.7,0.3,5.7-0.9,7.3-3.3C113.3,349.9,113.3,343.2,110.2,337.8z M106.3,352.3c-0.9,1.8-3.3,2.7-5.1,1.8
					c-0.6-0.3-1.2-0.9-1.8-1.8c-0.9-1.8-1.2-3.6-1.2-5.7c0-1.8,0.3-3.9,1.2-5.7c0.9-1.8,3.3-2.7,5.1-1.8c0.9,0.3,1.5,0.9,1.8,1.8
					c0.9,1.8,1.2,3.6,1.2,5.7C107.5,348.3,107.2,350.5,106.3,352.3z"/>
				<path class="st11" d="M119,334.7v4.5h4.5v19.1h5.1v-23.6H119z"/>
				<path class="st57" d="M153.8,337.8c-1.8-2.1-4.5-3.6-7.3-3.3c-2.7-0.3-5.4,0.9-7.3,3.3c-3.3,5.4-3.3,12.4,0,17.8
					c1.8,2.4,4.5,3.6,7.3,3.3c2.7,0.3,5.7-0.9,7.3-3.3C157.1,349.9,157.1,343.2,153.8,337.8z M149.9,352.3c-0.9,1.8-3.3,2.7-5.1,1.8
					c-0.6-0.3-1.2-0.9-1.8-1.8c-0.9-1.8-1.2-3.6-1.2-5.7c0-1.8,0.3-3.9,1.2-5.7c0.9-1.8,3.3-2.7,5.1-1.8c0.9,0.3,1.5,0.9,1.8,1.8
					c0.9,1.8,1.2,3.6,1.2,5.7C151.1,348.3,150.8,350.5,149.9,352.3z"/>
				<path class="st62" d="M162.6,334.7v4.5h4.5v19.1h5.1v-23.6H162.6z"/>
				<path class="st49" d="M179.5,334.7v4.5h4.5v19.1h5.1v-23.6H179.5z"/>
				<path class="st29" d="M214.6,337.8c-3.6-3.9-9.7-4.5-13.6-0.9c-0.3,0.3-0.6,0.6-0.9,0.9c-3.3,5.4-3.3,12.4,0,17.8
					c3.6,3.9,9.7,4.5,13.6,0.9c0.3-0.3,0.6-0.6,0.9-0.9C217.9,349.9,217.9,343.2,214.6,337.8z M210.7,352.3
					c-0.9,1.8-3.3,2.7-5.1,1.8c-0.6-0.3-1.2-0.9-1.8-1.8c-0.9-1.8-1.2-3.6-1.2-5.7c0-1.8,0.3-3.9,1.2-5.7c0.9-1.8,3.3-2.7,5.1-1.8
					c0.9,0.3,1.5,0.9,1.8,1.8c0.9,1.8,1.2,3.6,1.2,5.7C211.9,348.3,211.6,350.5,210.7,352.3L210.7,352.3z"/>
				<path class="st48" d="M223.1,334.7v4.5h4.5v19.1h5.1v-23.6H223.1z"/>
				<path class="st44" d="M240.3,334.7v4.5h4.5v19.1h5.1v-23.6H240.3z"/>
				<path class="st8" d="M257.2,334.7v4.5h4.5v19.1h5.1v-23.6H257.2z"/>
				<path class="st21" d="M284.8,338.7L284.8,338.7v-4.2l0,0c-2.7-0.3-5.4,0.9-7.3,3.3c-3.3,5.4-3.3,12.4,0,17.8
					c1.8,2.4,4.5,3.6,7.3,3.3l0,0v-4.2l0,0c-1.5,0-2.7-0.9-3.6-2.1c-0.9-1.8-1.2-3.6-1.2-5.7c0-1.8,0.3-3.9,1.2-5.7
					C281.7,339.6,283.3,338.7,284.8,338.7z"/>
				<path class="st54" d="M62.7,375.3v23.6h2.7v-23.6H62.7z"/>
				<path class="st62" d="M72.7,375.3v4.5h4.5v19.1h5.1v-23.6H72.7z"/>
				<path class="st58" d="M90,375.3v4.5h4.5v19.1h5.1v-23.6H90z"/>
				<path class="st57" d="M124.7,378.3c-1.8-2.1-4.5-3.6-7.3-3.3c-2.7-0.3-5.7,1.2-7.3,3.3c-3.3,5.4-3.3,12.4,0,17.8
					c1.8,2.1,4.5,3.6,7.3,3.3c2.7,0.3,5.4-1.2,7.3-3.3C128.1,390.7,128.1,383.7,124.7,378.3z M120.8,392.8c-0.9,1.8-3.3,2.7-5.1,1.8
					c-0.6-0.3-1.2-0.9-1.8-1.8c-1.5-3.6-1.5-7.9,0-11.5c0.9-1.8,3.3-2.7,5.1-1.8c0.6,0.3,1.2,0.9,1.8,1.8
					C122.3,384.9,122.3,389.2,120.8,392.8z"/>
				<path class="st35" d="M133.5,375.3v4.5h4.5v19.1h5.1v-23.6H133.5z"/>
				<path class="st49" d="M168.3,378.3c-1.8-2.4-4.5-3.6-7.3-3.3c-2.7-0.3-5.4,0.9-7.3,3.3c-3.3,5.4-3.3,12.4,0,17.8
					c1.8,2.4,4.5,3.6,7.3,3.3c2.7,0.3,5.4-0.9,7.3-3.3C171.6,390.7,171.6,383.7,168.3,378.3z M164.7,392.8c-0.9,1.8-3.3,2.7-5.1,1.8
					c-0.6-0.3-1.2-0.9-1.8-1.8c-1.5-3.6-1.5-7.9,0-11.5c0.9-1.8,3.3-2.7,5.1-1.8c0.6,0.3,1.2,0.9,1.8,1.8
					C165.9,385.2,165.9,389.2,164.7,392.8z"/>
				<path class="st63" d="M177.1,375.3v4.5h4.5v19.1h5.1v-23.6H177.1z"/>
				<path class="st43" d="M212.2,378.3c-3.6-3.9-9.7-4.5-13.6-0.9c-0.3,0.3-0.6,0.6-0.9,0.9c-3.3,5.4-3.3,12.4,0,17.8
					c3.6,3.9,9.7,4.5,13.6,0.9c0.3-0.3,0.6-0.6,0.9-0.9C215.2,390.7,215.2,383.7,212.2,378.3z M208.2,392.8
					c-0.9,1.8-3.3,2.7-5.1,1.8c-0.6-0.3-1.2-0.9-1.8-1.8c-1.5-3.6-1.5-7.9,0-11.5c0.9-1.8,3.3-2.7,5.1-1.8c0.6,0.3,1.2,0.9,1.8,1.8
					C209.7,385.2,209.7,389.2,208.2,392.8z"/>
				<path class="st61" d="M220.6,375.3v4.5h4.5v19.1h5.1v-23.6H220.6z"/>
				<path class="st64" d="M237.9,375.3v4.5h4.5v19.1h5.1v-23.6H237.9z"/>
				<path class="st14" d="M272.7,378.3c-3.6-3.9-9.7-4.5-13.6-0.9c-0.3,0.3-0.6,0.6-0.9,0.9c-3.3,5.4-3.3,12.4,0,17.8
					c3.6,3.9,9.7,4.5,13.6,0.9c0.3-0.3,0.6-0.6,0.9-0.9C276,390.7,276,383.7,272.7,378.3z M268.7,392.8c-0.9,1.8-3.3,2.7-5.1,1.8
					c-0.6-0.3-1.2-0.9-1.8-1.8c-1.5-3.6-1.5-7.9,0-11.5c0.9-1.8,3.3-2.7,5.1-1.8c0.6,0.3,1.2,0.9,1.8,1.8
					C270.2,385.2,270.2,389.2,268.7,392.8z"/>
				<path class="st65" d="M282.3,387.1c0,3,0.6,6,2.4,8.8v-17.5C282.9,380.7,282,384,282.3,387.1z"/>
				<path class="st66" d="M63.9,418.8c-0.3-0.6-0.9-0.9-1.5-1.5v20.9c0.6-0.3,1.2-0.9,1.5-1.5c1.8-2.7,2.7-5.7,2.4-8.8
					C66.7,424.3,65.8,421.2,63.9,418.8z"/>
				<path class="st10" d="M90.9,418.8c-1.8-2.4-4.5-3.6-7.3-3.3c-2.7-0.3-5.7,0.9-7.3,3.3c-1.8,2.7-2.7,5.7-2.4,8.8
					c0,3,0.6,6.4,2.4,8.8c1.8,2.1,4.5,3.6,7.3,3.3c2.7,0.3,5.4-1.2,7.3-3.3c1.8-2.7,2.7-5.7,2.4-8.8
					C93.3,424.3,92.4,421.2,90.9,418.8z M86.9,433.3c-0.9,1.8-3.3,2.7-5.1,1.8c-0.9-0.3-1.5-0.9-1.8-1.8c-0.9-1.8-1.2-3.6-1.2-5.7
					c0-2.1,0.3-3.9,1.2-5.7c0.9-1.8,3.3-2.7,5.1-1.8c0.6,0.3,1.2,0.9,1.8,1.8c0.9,1.8,1.2,3.6,1.2,5.7
					C88.1,429.4,87.8,431.5,86.9,433.3L86.9,433.3z"/>
				<path class="st43" d="M117.5,418.8c-1.8-2.4-4.5-3.6-7.3-3.3c-2.7-0.3-5.7,0.9-7.3,3.3c-1.8,2.7-2.7,5.7-2.4,8.8
					c0,3,0.6,6.4,2.4,8.8c1.8,2.1,4.5,3.6,7.3,3.3c2.7,0.3,5.4-1.2,7.3-3.3c1.8-2.7,2.4-5.7,2.4-8.8
					C119.9,424.3,119.3,421.2,117.5,418.8z M113.6,433.3c-0.9,1.8-3.3,2.7-5.1,1.8c-0.9-0.3-1.5-0.9-1.8-1.8
					c-0.9-1.8-1.2-3.6-1.2-5.7c0-1.8,0.3-3.9,1.2-5.7c0.9-1.8,3.3-2.7,5.1-1.8c0.9,0.3,1.5,0.9,1.8,1.8c0.9,1.8,1.2,3.6,1.2,5.7
					C114.8,429.4,114.5,431.5,113.6,433.3L113.6,433.3z"/>
				<path class="st67" d="M144.1,418.8c-1.8-2.4-4.5-3.6-7.3-3.3c-2.7-0.3-5.7,0.9-7.3,3.3c-1.8,2.7-2.7,5.7-2.4,8.8
					c0,3,0.6,6.4,2.4,8.8c1.8,2.1,4.5,3.6,7.3,3.3c2.7,0.3,5.4-1.2,7.3-3.3c1.8-2.7,2.4-5.7,2.4-8.8
					C146.8,424.3,145.9,421.2,144.1,418.8z M140.2,433.3c-0.6,1.5-1.8,2.1-3.3,2.1s-3-0.9-3.6-2.1c-0.9-1.8-1.2-3.6-1.2-5.7
					c0-1.8,0.3-3.9,1.2-5.7c0.6-1.5,2.1-2.1,3.6-2.1s2.7,0.9,3.3,2.1c0.9,1.8,1.2,3.6,1.2,5.7C141.4,429.4,141.1,431.5,140.2,433.3
					L140.2,433.3z"/>
				<path class="st5" d="M152.9,415.8v4.5h4.5v19.1h5.1v-23.6H152.9z"/>
				<path class="st56" d="M187.7,418.8c-1.8-2.4-4.5-3.6-7.3-3.3c-2.7-0.3-5.7,0.9-7.3,3.3c-1.8,2.7-2.7,5.7-2.4,8.8
					c0,3,0.6,6.4,2.4,8.8c1.8,2.1,4.5,3.6,7.3,3.3c2.7,0.3,5.4-0.9,7.3-3.3c1.8-2.7,2.7-5.7,2.4-8.8
					C190.4,424.3,189.5,421.2,187.7,418.8z M184,433.3c-0.9,1.8-3.3,2.7-5.1,1.8c-0.9-0.3-1.5-0.9-1.8-1.8c-0.9-1.8-1.2-3.6-1.2-5.7
					c0-2.1,0.3-3.9,1.2-5.7c0.9-1.8,3.3-2.7,5.1-1.8c0.6,0.3,1.2,0.9,1.8,1.8c0.9,1.8,1.2,3.6,1.2,5.7
					C185.2,429.4,184.6,431.5,184,433.3L184,433.3z"/>
				<path class="st20" d="M196.4,415.8v4.5h4.5v19.1h5.1v-23.6H196.4z"/>
				<path class="st37" d="M213.4,415.8v4.5h4.5v19.1h5.1v-23.6H213.4z"/>
				<path class="st40" d="M230.3,415.8v4.5h4.5v19.1h5.1v-23.6H230.3z"/>
				<path class="st45" d="M265.4,418.8c-1.8-2.4-4.5-3.6-7.3-3.3c-1.2,0-2.1,0-3.3,0.3c-1.5,0.6-3,1.5-3.9,2.7
					c-1.8,2.7-2.7,5.7-2.4,8.8c-0.3,3,0.6,6.4,2.4,8.8c0.9,1.2,2.4,2.4,3.9,2.7c1.2,0.3,2.1,0.6,3.3,0.6c2.7,0.3,5.7-1.2,7.3-3.3
					c1.8-2.7,2.4-5.7,2.4-8.8C268.1,424.3,267.2,421.2,265.4,418.8z M261.5,433.3c-0.6,1.5-2.1,2.1-3.6,2.1s-2.7-0.6-3.3-1.8v-0.3
					c-0.9-1.8-1.2-3.6-1.2-5.7s0.3-3.9,1.2-5.7l0.3-0.3c1.2-1.8,3.6-2.4,5.4-1.2c0.6,0.3,1.2,0.9,1.5,1.5c0.9,1.8,1.2,3.6,1.2,5.7
					C262.7,429.4,262.4,431.5,261.5,433.3L261.5,433.3z"/>
				<path class="st46" d="M284.5,419.7v-4.2c-2.7,0-5.4,1.2-7,3.3c-1.8,2.7-2.7,5.7-2.4,8.8c-0.3,3,0.6,6.4,2.4,8.8
					c1.5,2.1,4.2,3.3,7,3.3v-4.2c-1.5,0-2.7-0.9-3.3-2.1c-0.9-1.8-1.2-3.6-1.2-5.7c0-1.8,0.3-3.9,0.9-5.7
					C281.7,420.6,282.9,419.7,284.5,419.7z"/>
				<path class="st48" d="M62.7,456.3c0.3,2.7,1.2,5.7,2.7,8.2v-8.2H62.7z"/>
				<path class="st40" d="M92.7,463.6c-0.3-1.5-0.9-3-1.8-4.2c-1.8-2.1-4.5-3.6-7.3-3.3c-2.7-0.3-5.7,1.2-7.3,3.3
					c-0.9,1.2-1.5,2.7-1.8,4.2s-0.6,3-0.6,4.5c0,2.4,0.3,4.5,1.2,7c3.9,2.4,8.8,3.9,13.3,3.9h0.6c0.6-0.6,1.2-1.2,1.8-1.8
					c1.8-2.7,2.7-5.7,2.4-8.8C93.3,466.6,93,465.1,92.7,463.6z M86.9,473.9c-0.9,1.8-3.3,2.7-5.1,1.8c-0.6-0.3-1.2-0.9-1.8-1.8
					c-0.9-1.8-1.2-3.6-1.2-5.7c0-1.5,0.3-3,0.6-4.5c0-0.3,0.3-0.6,0.6-1.2c0.9-1.8,3.3-2.7,5.1-1.8c0.9,0.3,1.5,0.9,1.8,1.8
					c0.3,0.3,0.3,0.6,0.6,1.2c0.3,1.5,0.6,3,0.6,4.5C88.1,469.9,87.8,472.1,86.9,473.9L86.9,473.9z"/>
				<path class="st14" d="M119.3,463.6c-0.3-1.5-0.9-3-1.8-4.5c-1.8-2.1-4.5-3.6-7.3-3.3c-2.7-0.3-5.7,1.2-7.3,3.3
					c-0.9,1.2-1.5,2.7-1.8,4.2s-0.6,3-0.6,4.5c-0.3,3,0.6,6.4,2.4,8.8c0.6,0.6,1.2,1.5,1.8,1.8h10.6c0.9-0.6,1.5-1.2,2.1-1.8
					c1.8-2.7,2.7-5.7,2.4-8.8C119.9,466.6,119.6,465.1,119.3,463.6z M113.6,473.9c-0.9,1.8-3.3,2.7-5.1,1.8
					c-0.9-0.3-1.5-0.9-1.8-1.8c-0.9-1.8-1.2-3.6-1.2-5.7c0-1.5,0.3-3,0.6-4.5c0-0.3,0.3-0.9,0.6-1.2c0.9-1.8,3.3-2.7,5.1-1.8
					c0.9,0.3,1.5,0.9,1.8,1.8c0.3,0.3,0.3,0.9,0.6,1.2c0.3,1.5,0.6,3,0.6,4.5C114.8,469.9,114.5,472.1,113.6,473.9L113.6,473.9z"/>
				<path class="st41" d="M146.2,463.9c-0.3-1.5-0.9-3.3-2.1-4.5c-1.8-2.1-4.5-3.6-7.3-3.3c-2.7-0.3-5.7,1.2-7.3,3.3
					c-0.9,1.5-1.5,3-1.8,4.5s-0.6,3-0.3,4.2c-0.3,3,0.6,6.4,2.4,8.8c0.6,0.9,1.2,1.5,2.1,2.1h10c0.9-0.6,1.5-1.2,2.1-2.1
					c1.8-2.7,2.7-5.7,2.4-8.8C146.5,466.6,146.5,465.1,146.2,463.9z M140.2,473.9c-0.6,1.2-1.8,2.1-3.3,2.1s-3-0.9-3.6-2.1
					c-0.9-1.8-1.2-3.6-1.2-5.7c0-1.5,0.3-3,0.6-4.2c0-0.6,0.3-0.9,0.6-1.2c0.6-1.5,2.1-2.1,3.6-2.1s2.7,0.9,3.3,2.1
					c0.3,0.3,0.3,0.9,0.6,1.5c0.3,1.5,0.6,2.7,0.6,4.2C141.4,469.9,141.1,472.1,140.2,473.9L140.2,473.9z"/>
				<path class="st62" d="M172.8,463.9c-0.3-1.8-0.9-3.3-2.1-4.8c-3.6-3.9-9.7-4.5-13.6-0.9c-0.3,0.3-0.6,0.6-0.9,0.9
					c-0.9,1.5-1.5,3-2.1,4.5c-0.3,1.5-0.3,2.7-0.3,4.2c-0.3,3,0.6,6.4,2.4,8.8c0.6,0.9,1.5,1.5,2.4,2.1h10c0.9-0.6,1.8-1.2,2.4-2.1
					c1.8-2.7,2.7-5.7,2.4-8.8C173.1,466.6,173.1,465.4,172.8,463.9z M166.8,473.9c-0.9,1.8-3.3,2.7-5.1,1.8
					c-0.6-0.3-1.2-0.9-1.8-1.8c-0.9-1.8-1.2-3.6-1.2-5.7c0-1.5,0.3-2.7,0.6-4.2c0-0.6,0.3-0.9,0.6-1.5c0.9-1.8,3.3-2.7,5.1-1.8
					c0.9,0.3,1.5,0.9,1.8,1.8c0.3,0.6,0.6,0.9,0.6,1.5c0.3,1.2,0.6,2.7,0.6,4.2C168,469.9,167.7,472.1,166.8,473.9L166.8,473.9z"/>
				<path class="st9" d="M199.5,464.2c-0.3-1.8-0.9-3.3-2.1-4.8c-3.6-3.9-9.7-4.5-13.6-0.9c-0.3,0.3-0.6,0.6-0.9,0.9
					c-0.9,1.5-1.8,3-2.1,4.8c-0.3,1.2-0.3,2.7-0.3,4.2c-0.3,3,0.6,6.4,2.4,8.8c0.6,0.9,1.5,1.8,2.4,2.1h9.7c0.9-0.6,1.8-1.2,2.4-2.4
					c1.8-2.7,2.7-5.7,2.4-8.8C199.8,466.6,199.8,465.4,199.5,464.2z M193.4,473.9c-0.9,1.8-3.3,2.7-5.1,1.8
					c-0.6-0.3-1.2-0.9-1.8-1.8c-0.9-1.8-1.2-3.6-1.2-5.7c0-1.5,0.3-2.7,0.6-4.2c0-0.6,0.3-1.2,0.6-1.5c0.9-1.8,3.3-2.7,5.1-1.8
					c0.9,0.3,1.5,0.9,1.8,1.8c0.3,0.6,0.6,1.2,0.6,1.5c0.3,1.2,0.6,2.7,0.6,3.9C194.9,469.9,194.3,472.1,193.4,473.9L193.4,473.9z"
					/>
				<path class="st19" d="M226.1,464.2c-0.3-1.8-0.9-3.6-2.1-4.8c-1.8-2.1-4.5-3.6-7.3-3.3c-2.7-0.3-5.4,0.9-7.3,3.3
					c-0.9,1.5-1.8,3-2.1,4.8c-0.3,1.2-0.3,2.7-0.3,3.9c-0.3,3,0.6,6.4,2.4,8.8c0.6,0.9,1.5,1.8,2.7,2.4h9.1c1.2-0.6,2.1-1.5,3-2.4
					c1.8-2.7,2.7-5.7,2.4-8.8C226.7,466.6,226.4,465.4,226.1,464.2z M220,473.9c-0.9,1.8-3.3,2.7-5.1,1.8c-0.6-0.3-1.2-0.9-1.8-1.8
					c-0.9-1.8-1.2-3.6-1.2-5.7c0-1.2,0.3-2.7,0.6-3.9c0-0.6,0.3-1.2,0.6-1.8c0.9-1.8,3.3-2.7,5.1-1.8c0.9,0.3,1.5,0.9,1.8,1.8
					c0.3,0.6,0.6,1.2,0.6,1.8c0.3,1.2,0.6,2.7,0.6,3.9C221.5,469.9,220.9,472.1,220,473.9L220,473.9z"/>
				<path class="st36" d="M232.7,456.3v4.5h4.5v18.5h5.1v-23H232.7z"/>
				<path class="st63" d="M250,456.3v4.5h4.5v18.5h5.1v-23H250z"/>
				<path class="st45" d="M266.9,456.3v4.5h4.5V476c1.8-0.9,3.6-2.4,5.1-3.9v-15.7H266.9z"/>
			</g>
			<path class="st68" d="M108.7,457.2H240c1.8,0,3.3,1.5,3.3,3.3l0,0c0,1.8-1.5,3.3-3.3,3.3H108.7c-1.8,0-3.3-1.5-3.3-3.3l0,0
				C105.4,458.5,106.9,457.2,108.7,457.2z"/>
			<path class="st69" d="M296.6,234.9l-0.9,219c0,20.6-16.9,36.9-37.2,36.9h-12.7c-29.6-30.9-46.3-65.9-51.7-113.1
				c-2.1-18.1-0.3-36.6,0.6-55.1c0.6-12.7,3.6-25.4,4.8-38.4c0.3-5.7,3.9-10.9,9.7-12.7C238.8,259.4,267.5,247.3,296.6,234.9z"/>
			
				<linearGradient id="SVGID_00000039129709124297685580000004869632961455745688_" gradientUnits="userSpaceOnUse" x1="555.3736" y1="-1230.5342" x2="555.3736" y2="-907.1804" gradientTransform="matrix(0.99 0.14 0.14 -0.99 -81.2154 -783.5311)">
				<stop  offset="0" style="stop-color:#2BBAED"/>
				<stop  offset="1" style="stop-color:#335EAC"/>
			</linearGradient>
			<path style="fill:url(#SVGID_00000039129709124297685580000004869632961455745688_);" d="M458.4,325.1c0.9-7,1.8-14.2,2.1-21.2
				c0.3-5.4,0.6-10.9-0.9-16c-2.7-9.1-12.7-14.2-19.7-20c-10-7.9-20-15.7-29.9-23.9c-20-15.7-39.9-31.8-59.9-47.5
				c-2.7-2.1-5.7-4.5-9.4-5.1c-3.9-0.6-7.6,0.9-11.2,2.4c-9.7,4.8-20.3,8.8-30.2,13c-10.3,4.2-20.6,8.8-30.6,13
				c-10,4.2-19.7,8.5-29.6,12.7c-7.9,3.3-15.4,6-23.3,9.4c-6.4,2.7-12.1,5.1-16,11.2c-2.4,4.2-3.6,8.8-4.2,13.6
				c-2.7,19.4-4.8,39.3-4.8,59c0,20.3,1.8,40.8,7,60.5c2.1,7.9,4.5,16,7.3,23.6c14.8,38.7,42.7,72.3,77.1,95.3
				c3.9,2.7,8.5,5.1,13,6.4c6.4,1.2,12.7-0.3,19.1-2.1c43.6-13,81.1-43,106.2-80.8C440.8,397.3,453.3,361.7,458.4,325.1z"/>
			
				<linearGradient id="SVGID_00000180346172032097568470000009124674487119915180_" gradientUnits="userSpaceOnUse" x1="325.2756" y1="564.2594" x2="325.2756" y2="814.3427" gradientTransform="matrix(1 0 0 1 0 -338.11)">
				<stop  offset="0" style="stop-color:#2BBAED"/>
				<stop  offset="1" style="stop-color:#335EAC"/>
			</linearGradient>
			<path style="fill:url(#SVGID_00000180346172032097568470000009124674487119915180_);" d="M429.7,327.2c-0.3,1.5-0.6,3-0.6,4.5
				c-1.2,8.5-3,17.2-5.4,25.7c-5.1,19.4-13.3,38.1-24.5,54.8c-19.7,29.6-49,52.9-82.9,63.2c-4.8,1.5-10,2.7-14.8,1.5
				c-3.6-0.9-7-2.7-10.3-4.8c-19.7-12.4-36.3-30.2-48.4-49.9c-8.5-13.9-13.9-29-17.5-44.5c-2.1-9.4-3.6-19.4-4.5-29
				c-1.2-12.1-1.5-24.5-0.9-36.6c0.6-11.2,0.3-24.8,6-34.5c1.8-3,4.2-5.7,7-7.6c2.1-1.5,4.5-2.4,6.7-3.3c2.4-0.9,4.5-1.8,7-2.7
				c4.2-1.5,8.5-3.3,12.7-5.1c10-3.9,20.3-8.2,30.2-12.7c4.5-2.1,9.1-3.6,13.6-6c3.3-1.5,6.7-2.7,9.7-4.2c3.9-1.5,7.9-3.3,11.5-5.1
				c2.1-0.9,4.5-2.1,6.7-3c1.2-0.3,2.7-0.6,4.2-0.6s3,0.6,4.5,1.2c3,1.5,5.7,3.9,8.5,6c3,2.4,5.7,4.5,8.8,7
				c5.7,4.5,11.5,9.1,16.9,13.6c5.4,4.5,11.2,9.1,16.6,13.3c3.9,3,7.6,6,11.5,9.1c4.5,3.6,9.1,7,13.6,10.6c6,4.5,11.8,9.1,13.9,16.6
				C432.4,312.3,430.9,319.9,429.7,327.2z"/>
			
				<linearGradient id="SVGID_00000013895738199823886640000003607289870335280295_" gradientUnits="userSpaceOnUse" x1="325.4884" y1="564.2643" x2="325.4884" y2="814.3427" gradientTransform="matrix(1 0 0 1 0 -338.11)">
				<stop  offset="0" style="stop-color:#2BBAED"/>
				<stop  offset="1" style="stop-color:#335EAC"/>
			</linearGradient>
			<path style="fill:url(#SVGID_00000013895738199823886640000003607289870335280295_);" d="M429.7,327.2c-0.3,1.5-0.6,3-0.6,4.5
				c-1.2,8.5-3,17.2-5.4,25.7c-5.1,19.4-13.3,38.1-24.5,54.8c-19.7,29.6-49,52.9-82.9,63.2c-4.8,1.5-10,2.7-14.8,1.5
				c-3.6-0.9-7-2.7-10.3-4.8c-19.7-12.4-36.3-30.2-48.4-49.9c-8.5-13.9-13.9-29-17.5-44.5c-1.2-6-2.4-12.1-3-18.1
				c-0.6-3.6-0.9-7.3-1.2-11.2c-1.2-12.1-1.5-24.5-0.9-36.6c0.6-11.2,0.3-24.8,6-34.5c1.8-3,4.2-5.7,7-7.6c2.1-1.5,4.5-2.4,6.7-3.3
				c2.4-0.9,4.5-1.8,7-2.7c4.2-1.5,8.5-3.3,12.7-5.1c10-3.9,20.3-8.2,30.2-12.7c4.5-2.1,9.1-3.6,13.6-6c3-1.5,6.7-2.7,9.7-4.2
				c2.7-1.2,5.4-2.1,7.9-3.3c0.3-0.3,0.9-0.3,1.2-0.6c0.6-0.3,1.2-0.6,2.1-0.9c1.5-0.6,2.7-1.2,3.6-1.5l0.3-0.3
				c0.3-0.3,0.6-0.3,0.6-0.3c0.9-0.3,1.8-0.6,2.7-1.2c1.2-0.3,2.7-0.6,4.2-0.6s3,0.6,4.5,1.2c3,1.5,5.7,3.9,8.5,6
				c3,2.4,5.7,4.5,8.8,7c5.7,4.5,11.5,9.1,16.9,13.6c5.4,4.5,11.2,9.1,16.6,13.3c3.9,3,7.6,6,11.5,9.1c4.5,3.6,9.1,7,13.6,10.6
				c6,4.5,11.8,9.1,13.9,16.6C432.4,312.3,430.9,319.9,429.7,327.2z"/>
			<path class="st68" d="M376.1,364.4c-4.8,29.9-32.7,50.5-62.9,46c-27.2-4.2-46.9-27.8-46.6-55.1c0-18.8,10-36.3,26.3-46
				c3.6-2.7,8.8-1.8,11.5,1.8c0,0,0.3,0.3,0.3,0.6c2.4,3.6,1.2,8.8-2.4,11.2c-0.3,0-0.3,0.3-0.6,0.3c-18.5,10.9-24.5,34.5-13.6,52.9
				c6.7,11.5,19.1,18.8,32.4,19.1c17.8,0.6,33.9-11.2,38.4-28.4c3.3-11.8,0.9-24.2-6.7-33.9c-0.9-1.2-1.8-2.1-2.4-3.3
				c-2.7-3.3-2.1-8.5,1.2-11.2c3.3-2.7,8.2-2.4,11.2,0.9l0,0c9.4,10.3,14.5,23.6,14.5,37.2C376.7,359.2,376.4,362,376.1,364.4z"/>
			<path class="st68" d="M319.6,317.5c0.9-6,1.8-11.8,2.7-17.5c0.3-4.5,3.9-7.9,8.5-7.6s7.9,3.9,7.6,8.5c0,0.6,0,0.9-0.3,1.5
				c-1.8,11.8-3.6,23.6-5.4,35.4c-0.3,4.5-3.9,7.9-8.5,7.6c-4.5-0.3-7.9-3.9-7.6-8.5c0-0.6,0-0.9,0.3-1.5
				C317.7,329.3,318.6,323.5,319.6,317.5z"/>
		</g>
	</g>
	<path class="st73" d="M313.5,235.8c2.7-1.2,5.4-2.1,7.9-3.3c-20.6,9.7-74.7,33.9-86.2,47.8c-14.2,17.5-13,79.3-13,79.3
		c-0.6-3.6-0.9-7.3-1.2-11.2c-1.2-12.1-1.5-24.5-0.9-36.6c0.6-11.2,0.3-24.8,6-34.5c1.8-3,4.2-5.7,7-7.6c2.1-1.5,4.5-2.4,6.7-3.3
		c2.4-0.9,4.5-1.8,7-2.7c4.2-1.5,8.5-3.3,12.7-5.1c10-3.9,20.3-8.2,30.2-12.7c4.5-2.1,9.1-3.6,13.6-6
		C306.8,238.2,310.2,237,313.5,235.8z"/>
</g>
</svg>
