<?xml version="1.0" encoding="utf-8"?>
<!-- Generator: Adobe Illustrator 25.4.1, SVG Export Plug-In . SVG Version: 6.00 Build 0)  -->
<svg version="1.1" id="Layer_1" xmlns="http://www.w3.org/2000/svg" xmlns:xlink="http://www.w3.org/1999/xlink" x="0px" y="0px"
	 viewBox="0 0 512 512" style="enable-background:new 0 0 512 512;" xml:space="preserve">
<style type="text/css">
	.st0{fill:url(#SVGID_1_);}
	.st1{fill:url(#SVGID_00000015323312363899233900000016452682025080615084_);}
	.st2{fill:url(#SVGID_00000132808875190271577140000012836259232898763913_);}
	.st3{opacity:0.4;fill:#132E44;enable-background:new    ;}
	.st4{fill:url(#SVGID_00000092430524049237384720000015775058664460102564_);}
	.st5{display:none;opacity:0.6;fill:#132E44;enable-background:new    ;}
</style>
<g id="Layer_2_00000030476468135151434740000003332929278713472176_">
	<g id="Layer_2-2">
		<g>
			
				<linearGradient id="SVGID_1_" gradientUnits="userSpaceOnUse" x1="256" y1="-664.1571" x2="256" y2="-593.9628" gradientTransform="matrix(1 0 0 -1 0 -151.89)">
				<stop  offset="0" style="stop-color:#2BBAED"/>
				<stop  offset="3.000000e-02" style="stop-color:#2AB2E7"/>
				<stop  offset="0.25" style="stop-color:#2E8DCC"/>
				<stop  offset="0.45" style="stop-color:#3272B9"/>
				<stop  offset="0.62" style="stop-color:#3163AF"/>
				<stop  offset="0.75" style="stop-color:#335EAC"/>
			</linearGradient>
			<path class="st0" d="M446.6,442v41.5c0,6.2-12.9,11.8-34.7,16.5c-4.7,0.9-9.4,1.8-15,2.6c-27.1,4.1-54.4,6.8-81.8,7.9
				c-5.6,0.3-11.5,0.6-17.1,0.6c-13.5,0.3-27.7,0.6-42.1,0.6c-15.3,0-30.3-0.3-44.7-0.9c-5.9-0.3-11.5-0.6-17.1-0.6
				c-27.4-1.2-54.4-3.8-81.5-8.2c-5.3-0.9-10.3-1.8-14.7-2.9c-20.3-4.7-32.4-10-32.4-15.9v-41.5l6.2,2.1l1.2,0.3l15,4.7L124,460
				l5.9,1.8l7.1-0.9c20.6-2.4,44.4-4.4,70.3-5.3c4.4-0.3,8.8-0.3,13.5-0.3c11.2-0.3,23-0.6,35-0.6c10.9,0,21.8,0,32.1,0.3
				c4.7,0,9.1,0.3,13.5,0.3c25.9,0.9,49.7,2.6,70,5c3.5,0.3,6.8,0.9,10,1.2l3.8-1.2l38.6-12.1L446.6,442z"/>
			
				<linearGradient id="SVGID_00000068657355489423491130000002134228161990080172_" gradientUnits="userSpaceOnUse" x1="65.4302" y1="-594.1982" x2="446.5698" y2="-594.1982" gradientTransform="matrix(1 0 0 -1 0 -151.89)">
				<stop  offset="0" style="stop-color:#2BBAED"/>
				<stop  offset="1" style="stop-color:#335EAC"/>
			</linearGradient>
			<path style="fill:url(#SVGID_00000068657355489423491130000002134228161990080172_);" d="M446.6,442c0,0.6,0,0.9-0.3,1.5
				c-1.2,2.4-2.9,4.4-5.3,5.6c-8.8,5.3-28,10.3-53.9,13.8c-4.1,0.6-8.5,1.2-12.9,1.8c-20,2.4-43.6,4.1-68.9,5.3l-6.8,0.3l-7.7,0.3
				c-9.7,0.3-20,0.3-30.3,0.6h-4.4c-12.9,0-25.3-0.3-37.4-0.6c-5-0.3-9.7-0.3-14.4-0.6c-25.6-1.2-48.9-2.9-68.9-5.3
				c-4.4-0.6-8.8-1.2-12.9-1.8c-24.7-3.5-43-8.2-51.5-13.5c-2.6-1.2-4.7-3.2-5.6-6.2c0-0.3,0-0.6,0-0.9c0-2.4,1.8-4.7,5.6-6.8
				c5.3-2.9,10.6-5,16.5-6.5c5.6-1.5,12.1-2.9,19.1-4.4c6.5-1.2,13.8-2.4,21.8-3.5c7.9-1.2,15.3-2.1,23.8-2.6l11.5-1.2
				c9.4-0.9,19.1-1.5,29.4-2.1c7.9-0.3,16.2-0.9,24.7-1.2h4.1l6.5-0.3c9.1-0.3,18.2-0.3,27.7-0.3c8.5,0,16.8,0,24.7,0.3
				c3.5,0,7.1,0.3,10.6,0.3c19.1,0.6,37.4,1.5,54.2,2.9l11.2,0.9c9.4,0.9,18.5,1.8,26.8,2.9c7.9,1.2,15,2.4,21.8,3.5
				c5.6,1.2,10.9,2.4,15.3,3.5c6.5,1.5,12.7,3.8,18.8,6.8c1.5,0.6,2.6,1.5,3.8,2.4c1.2,0.9,2.4,2.1,2.9,3.5
				C446.6,441.1,446.6,441.4,446.6,442z"/>
			
				<linearGradient id="SVGID_00000125582320987970879690000016446105553477677724_" gradientUnits="userSpaceOnUse" x1="215.8327" y1="365.5659" x2="287.4251" y2="365.5659" gradientTransform="matrix(0.9992 -4.017887e-02 -4.017887e-02 -0.9992 18.8067 516.2687)">
				<stop  offset="0" style="stop-color:#2BBAED"/>
				<stop  offset="1" style="stop-color:#335EAC"/>
			</linearGradient>
			<path style="fill:url(#SVGID_00000125582320987970879690000016446105553477677724_);" d="M256.1,96.2c-12.1,0-22.1,9.7-22.1,22.1
				v13.2h-4.4c-4.7,0-8.5,3.8-8.8,8.8v35.3c0,4.7,3.8,8.5,8.8,8.8h52.7c4.7,0,8.5-3.8,8.8-8.8v-35.3c0-4.7-3.8-8.5-8.8-8.8h-4.4
				v-13.2C278.2,106.2,268.2,96.2,256.1,96.2L256.1,96.2z M242.9,118c-0.3-7.4,5.6-13.5,12.7-13.5c7.4-0.3,13.5,5.6,13.5,12.7
				c0,0.3,0,0.6,0,0.6v13.2h-26.5L242.9,118z M260.9,165.4v10H252v-10c-4.1-2.4-5.6-7.7-3.2-12.1c2.4-4.1,7.7-5.6,12.1-3.2
				c2.1,1.2,3.5,3.5,4.1,5.6c0,0.6,0,1.2,0,2.1C265,160.9,263.2,163.6,260.9,165.4z"/>
			<path class="st3" d="M65.4,442.9l154.5-5.3l40.3,33l0,0c10.3,0,20.6-0.3,30.3-0.6l7.7-0.3l-30-20.6l178.1-5.9
				c0-0.3,0.3-0.9,0.3-1.5s0-1.2-0.3-1.8c-0.6-1.5-1.8-2.6-2.9-3.5l-8.8-4.1l-180.4,5.9l-31.8-25h-4.1c-8.5,0.3-16.8,0.6-24.7,1.2
				l18.2,15.6l-140.4,5L65.4,442.9z"/>
			
				<linearGradient id="SVGID_00000101824743993352276420000005671727049548082101_" gradientUnits="userSpaceOnUse" x1="118.3521" y1="-336.8004" x2="393.4426" y2="-336.8004" gradientTransform="matrix(1 0 0 -1 0 -151.89)">
				<stop  offset="0" style="stop-color:#335EAC"/>
				<stop  offset="1" style="stop-color:#2BBAED"/>
			</linearGradient>
			<path style="fill:url(#SVGID_00000101824743993352276420000005671727049548082101_);" d="M135.2,203.3
				c17.4,33.8,84.5,128.3,108.6,161.6c3.5,5,10.6,6.2,15.3,2.6c0.9-0.6,1.5-1.5,2.4-2.1C283.8,337.2,340.9,264,362.1,233
				c7.7-11.2,14.1-23.3,19.4-35.9c13.5-31.8,15.6-67.4,5.9-100.7C358.6,0.2,252.3,0.2,252.3,0.2C208.5-0.3,167.3,20.6,142,56.5
				C109.9,100.3,113.4,160.4,135.2,203.3z M164.9,139.2c0-48.9,39.4-88.3,88.3-88.3s88.3,39.4,88.3,88.3s-39.4,88.3-88.3,88.3l0,0
				C204.3,227.5,164.9,188,164.9,139.2L164.9,139.2z"/>
		</g>
		<path class="st5" d="M242.1,51.1c37.7,0,70.9,23.8,83.6,59.2c-17.4-38.3-62.7-55.3-101-38s-55.3,63-37.7,101.2s62.7,55.3,101,38
			c11.2-5,20.9-12.9,28.5-22.7c-27.1,40.9-82.1,52.1-123,25s-52.1-82.1-25-123C184.8,66.1,212.4,51.1,242.1,51.1z"/>
	</g>
</g>
</svg>
