<?xml version="1.0" encoding="utf-8"?>
<!-- Generator: Adobe Illustrator 25.4.1, SVG Export Plug-In . SVG Version: 6.00 Build 0)  -->
<svg version="1.1" id="Layer_1" xmlns="http://www.w3.org/2000/svg" xmlns:xlink="http://www.w3.org/1999/xlink" x="0px" y="0px"
	 viewBox="0 0 512 512" style="enable-background:new 0 0 512 512;" xml:space="preserve">
<style type="text/css">
	.st0{fill:url(#SVGID_1_);}
	.st1{fill:url(#SVGID_00000081637454777008181310000005179968299672552096_);}
	.st2{fill:#FFFFFF;}
	.st3{fill:#20295C;}
	.st4{display:none;fill:#20295C;}
	.st5{fill:url(#SVGID_00000124858118861390275680000006538929094354197891_);}
	.st6{display:none;fill:url(#SVGID_00000102516387754634959250000015794806561558052780_);}
	.st7{display:none;fill:url(#SVGID_00000079458955110054264470000011334495100505661595_);}
	.st8{fill:url(#SVGID_00000165211301439622810150000005414212321274371482_);}
	.st9{fill:url(#SVGID_00000130625669309904983720000016294983224263428483_);}
	.st10{fill:url(#SVGID_00000166670575881571249460000004097753925397482406_);}
	.st11{fill:url(#SVGID_00000002359709998512654600000006548149709060292007_);}
</style>
<g>
	<g id="Layer_1-2">
		
			<linearGradient id="SVGID_1_" gradientUnits="userSpaceOnUse" x1="-83.1399" y1="-650.1502" x2="283.1182" y2="-436.0659" gradientTransform="matrix(1 0 0 -1 0 -314)">
			<stop  offset="0" style="stop-color:#3865B0"/>
			<stop  offset="0.2" style="stop-color:#376DB5"/>
			<stop  offset="0.52" style="stop-color:#3085C7"/>
			<stop  offset="0.94" style="stop-color:#29AFE5"/>
			<stop  offset="0.99" style="stop-color:#2BB5E9"/>
		</linearGradient>
		<path class="st0" d="M417.3,118.2c-6.3-10.2-17.4-16.3-29.4-16.3h-88.3V85.6c0.1-19.7-15.9-35.7-35.6-35.7H264H159.8
			C140.1,50,124.1,66,124.1,85.7V102H34.7C15.6,102,0.1,117.6,0,136.7v54.6c0,12,6.2,23.1,16.4,29.4c5.5,3.5,11.9,5.4,18.4,5.4h96.4
			c-0.3-5.7-0.3-11.4-0.3-17c-0.1-2.9,0.3-5.8,1.4-8.4c1.8-4,5.1-5.9,8.7-8c4.4-2.7,8.7-4.8,13.1-7.5c5.6-3.3,11-6.7,16.6-10
			c5.6-3.3,11.4-6.9,17.2-10.2c5.6-3.3,13.1-7.3,18.5-11c2-1.2,4.1-2.4,6.5-2.4c2.2,0.1,4.2,1.2,6,2.3c13.2,7.8,24.9,16.4,38,24.1
			c6.6,4.1,13.2,7.9,19.8,11.8c4.6,2.9,11,5.1,13.4,10.3c1.4,2.9,1.6,6.2,1.8,9.5c0.4,4.2,0.4,8.6,0.5,12.8c0,1.2,0,2.5-0.1,3.7H388
			c19.1-0.1,34.7-15.6,34.7-34.7v-54.6C422.7,130.2,420.9,123.8,417.3,118.2z M158.8,85.1h105.6v16.8H158.8V85.1z"/>
		
			<linearGradient id="SVGID_00000129192459219665470580000014640322803786550913_" gradientUnits="userSpaceOnUse" x1="-15.1966" y1="-766.3887" x2="351.0616" y2="-552.3044" gradientTransform="matrix(1 0 0 -1 0 -314)">
			<stop  offset="0" style="stop-color:#3865B0"/>
			<stop  offset="0.2" style="stop-color:#376DB5"/>
			<stop  offset="0.52" style="stop-color:#3085C7"/>
			<stop  offset="0.94" style="stop-color:#29AFE5"/>
			<stop  offset="0.99" style="stop-color:#2BB5E9"/>
		</linearGradient>
		<path style="fill:url(#SVGID_00000129192459219665470580000014640322803786550913_);" d="M354.4,377.9
			c4.2,8.2,12.6,21.5,22.5,36.3H39.4c-6.5,0-12.9-1.9-18.4-5.4c-10.1-6.3-16.2-17.4-16.3-29.3V254.3c0-4.4,3.5-7.8,7.8-7.8h0.1
			c1.8,0,3.5,0.3,5.2,1c1.7,0.6,3.2,1.6,4.6,2.7c3.2,2.7,7.3,4.2,11.4,4.3H138c0.6,3.7,1.3,7.4,2.1,11c1.6,6.8,3.7,13.5,6.3,20
			c1.9,4.5,4,9.2,6.3,13.5c12,21.9,31.3,39.6,53.7,50.5c2.6,1.4,5.4,2.3,8.3,2.7c3.9,0.2,7.6-1.2,11.2-2.8
			c24.9-11.3,44.8-32.2,56.7-56.7c4.2-8.7,7.4-17.7,9.7-27c0.9-3.6,1.7-7.3,2.3-11h89.2c-5,3.2-9.7,6.9-14,11
			c-4.1,4-7.8,8.2-11.1,12.9C337.2,308,339.6,348.8,354.4,377.9z"/>
		<circle class="st2" cx="431.8" cy="330.8" r="52.7"/>
		<path class="st3" d="M471.2,316.3c-0.3-1.2-0.8-2.7-1.4-4c1.7-1.4,1.2-4.8-1.6-4.8c-3.4-0.1-3.4,5.3-0.1,5.3
			c1.8,5.2,2,10.8,0.5,16.1c-0.6-2.7-3.3-3.5-6.2-3.7c-6.3-15.7-28.3-11.6-42-11.4c-9.2-0.6-16.6,4.2-19.5,11.4c-3,0.2-5.9,1-6.4,4
			c-1.4-4.5-1.6-9.4-0.3-14c0.2-0.8,0.5-1.6,0.7-2.4h0.1c3.4,0.1,3.4-5.4,0-5.3c-2.7-0.1-3.3,3.3-1.7,4.6c-0.5,1.4-1.1,2.9-1.4,4.1
			c-2.2,7.4-0.1,15.6,3.1,22.3l0,0c1,2.3,3,3.5,6.6,3.5c8,17.8,43.3,14.5,56.8,5.4c1.4-1.6,2.5-3.4,3.2-5.4c3.5-0.1,5.6-1.2,6.6-3.5
			l0,0C471.4,331.9,473.4,323.8,471.2,316.3z M431.6,347.4c-11.5,0.4-26.8-0.9-24.7-16.2c-0.5-13.1,15.7-11.5,24.7-12
			c9.1,0.5,25.4-1.1,24.8,12C458.3,346.6,443.1,347.8,431.6,347.4z"/>
		<path class="st4" d="M424.1,332.8c-0.3,2.2-2-0.1-4.5-0.4C407.2,333.7,423.9,321.6,424.1,332.8z M443.6,332.3
			c-6.5,4.1-5.4-3.5-0.7-4.4C447.6,327.4,450.9,334.3,443.6,332.3z"/>
		<path class="st4" d="M437.1,339.6c-2.5,13.4-23.1-4-1-1C436.6,338.6,437.1,339,437.1,339.6L437.1,339.6z"/>
		
			<linearGradient id="SVGID_00000158721954249577434350000017834517759970105503_" gradientUnits="userSpaceOnUse" x1="391.1395" y1="-662.1229" x2="450.7713" y2="-627.2629" gradientTransform="matrix(1 0 0 -1 0 -314)">
			<stop  offset="0" style="stop-color:#3865B0"/>
			<stop  offset="0.2" style="stop-color:#376DB5"/>
			<stop  offset="0.52" style="stop-color:#3085C7"/>
			<stop  offset="0.94" style="stop-color:#29AFE5"/>
			<stop  offset="0.99" style="stop-color:#2BB5E9"/>
		</linearGradient>
		<path style="fill:url(#SVGID_00000158721954249577434350000017834517759970105503_);" d="M471.2,316.3c-0.3-1.2-0.8-2.7-1.4-4
			c1.7-1.4,1.2-4.8-1.6-4.8c-3.4-0.1-3.4,5.3-0.1,5.3c1.8,5.2,2,10.8,0.5,16.1c-0.6-2.7-3.3-3.5-6.2-3.7
			c-6.3-15.7-28.3-11.6-42-11.4c-9.2-0.6-16.6,4.2-19.5,11.4c-3,0.2-5.9,1-6.4,4c-1.4-4.5-1.6-9.4-0.3-14c0.2-0.8,0.5-1.6,0.7-2.4
			h0.1c3.4,0.1,3.4-5.4,0-5.3c-2.7-0.1-3.3,3.3-1.7,4.6c-0.5,1.4-1.1,2.9-1.4,4.1c-2.2,7.4-0.1,15.6,3.1,22.3l0,0
			c1,2.3,3,3.5,6.6,3.5c8,17.8,43.3,14.5,56.8,5.4c1.4-1.6,2.5-3.4,3.2-5.4c3.5-0.1,5.6-1.2,6.6-3.5l0,0
			C471.4,331.9,473.4,323.8,471.2,316.3z M431.6,347.4c-11.5,0.4-26.8-0.9-24.7-16.2c-0.5-13.1,15.7-11.5,24.7-12
			c9.1,0.5,25.4-1.1,24.8,12C458.3,346.6,443.1,347.8,431.6,347.4z"/>
		
			<linearGradient id="SVGID_00000156564859476280947840000010139590767356719264_" gradientUnits="userSpaceOnUse" x1="393.8152" y1="-667.0695" x2="453.5729" y2="-632.1358" gradientTransform="matrix(1 0 0 -1 0 -314)">
			<stop  offset="0" style="stop-color:#3865B0"/>
			<stop  offset="0.2" style="stop-color:#376DB5"/>
			<stop  offset="0.52" style="stop-color:#3085C7"/>
			<stop  offset="0.94" style="stop-color:#29AFE5"/>
			<stop  offset="0.99" style="stop-color:#2BB5E9"/>
		</linearGradient>
		<path style="display:none;fill:url(#SVGID_00000156564859476280947840000010139590767356719264_);" d="M424.1,332.8
			c-0.3,2.2-2-0.1-4.5-0.4C407.2,333.7,423.9,321.6,424.1,332.8z M443.6,332.3c-6.5,4.1-5.4-3.5-0.7-4.4
			C447.6,327.4,450.9,334.3,443.6,332.3z"/>
		
			<linearGradient id="SVGID_00000167396318873441239020000008362003786812456607_" gradientUnits="userSpaceOnUse" x1="398.1968" y1="-674.5648" x2="457.9546" y2="-639.6312" gradientTransform="matrix(1 0 0 -1 0 -314)">
			<stop  offset="0" style="stop-color:#3865B0"/>
			<stop  offset="0.2" style="stop-color:#376DB5"/>
			<stop  offset="0.52" style="stop-color:#3085C7"/>
			<stop  offset="0.94" style="stop-color:#29AFE5"/>
			<stop  offset="0.99" style="stop-color:#2BB5E9"/>
		</linearGradient>
		<path style="display:none;fill:url(#SVGID_00000167396318873441239020000008362003786812456607_);" d="M437.1,339.6
			c-2.5,13.4-23.1-4-1-1C436.6,338.6,437.1,339,437.1,339.6L437.1,339.6z"/>
		
			<linearGradient id="SVGID_00000002361715908438839260000016616448603232977296_" gradientUnits="userSpaceOnUse" x1="415.0444" y1="177.6295" x2="448.4236" y2="177.6295" gradientTransform="matrix(1 0 0 -1 0 514)">
			<stop  offset="0" style="stop-color:#3865B0"/>
			<stop  offset="0.2" style="stop-color:#376DB5"/>
			<stop  offset="0.52" style="stop-color:#3085C7"/>
			<stop  offset="0.94" style="stop-color:#29AFE5"/>
			<stop  offset="0.99" style="stop-color:#2BB5E9"/>
		</linearGradient>
		<path style="fill:url(#SVGID_00000002361715908438839260000016616448603232977296_);" d="M424.1,332.8c-0.3,2.3-2-0.1-4.6-0.5
			s-4.8,1.4-4.5-1C416.1,325.9,424.8,327.2,424.1,332.8z M443.9,332.3c-2.5,0.4-4.2,2.7-4.6,0.5c-0.8-5.5,8.2-6.9,9.1-1.4
			C448.7,333.7,446.4,332,443.9,332.3z M437.3,339.7c0,6.9-11.2,6.9-11.2,0c0-0.5,0.5-1,1-1h9.3
			C436.9,338.7,437.3,339.2,437.3,339.7L437.3,339.7z"/>
		
			<linearGradient id="SVGID_00000034051337476011835360000004795456913828558216_" gradientUnits="userSpaceOnUse" x1="354.6166" y1="-1262.4769" x2="511.9975" y2="-1262.4769" gradientTransform="matrix(1 0 0 -1 0 -906.0001)">
			<stop  offset="0" style="stop-color:#335EAC"/>
			<stop  offset="1" style="stop-color:#2BBAED"/>
		</linearGradient>
		<path style="fill:url(#SVGID_00000034051337476011835360000004795456913828558216_);" d="M508.5,305.9
			c-2.2-7.8-5.8-15.1-10.4-21.7c-1.2-1.7-2.5-3.3-3.7-4.9c-24-28.4-63.1-28.4-63.1-28.4c-25.1-0.4-48.7,11.6-63.2,32.2
			c-18.4,25.1-16.3,59.4-3.9,84c7.7,15,32.5,50.8,49.7,75.1l0.3,0.3l4,5.5c3.2,4.5,6.1,8.4,8.2,11.5c2,2.8,5.9,3.5,8.7,1.5
			c0.5-0.3,0.9-0.9,1.4-1.2c12.8-16.1,45.4-58.1,57.6-75.7c4.4-6.5,8.1-13.4,11.1-20.6C512.9,345.2,514.1,324.9,508.5,305.9z
			 M396,366.1c-1-1-1.8-1.9-2.7-2.9c-0.7-0.8-1.4-1.6-2-2.5c-16.8-22.3-12.2-54,10.2-70.7c22.3-16.8,54-12.2,70.7,10.2
			c0.7,1,1.5,2,2.2,3.1c0.5,0.9,1.1,1.7,1.6,2.7c13.5,24.5,4.6,55.2-19.8,68.7C436.4,385.3,411.9,381.9,396,366.1z"/>
		<g id="shield">
			
				<linearGradient id="SVGID_00000145020148830649791950000011951194143936541830_" gradientUnits="userSpaceOnUse" x1="537.3901" y1="-1676.3676" x2="537.3901" y2="-1517.3535" gradientTransform="matrix(1 0 0 -1 -323.15 -1345.8)">
				<stop  offset="0" style="stop-color:#30B9EC"/>
				<stop  offset="1" style="stop-color:#345FAB"/>
			</linearGradient>
			<path style="fill:url(#SVGID_00000145020148830649791950000011951194143936541830_);" d="M280.3,229.4c0-3.5-0.1-7-0.4-10.5
				c-0.2-2.7-0.4-5.4-1.5-7.8c-1.9-4.2-7.2-6.1-10.9-8.4c-5.4-3.2-10.8-6.3-16.2-9.6c-10.8-6.3-21.6-12.8-32.4-19.1
				c-1.4-0.8-3.1-1.8-4.9-1.8c-2-0.1-3.6,1-5.3,1.9c-4.4,3-9.3,5.7-13.8,8.4c-4.7,2.7-9.5,5.7-14,8.4s-9,5.4-13.6,8.2
				c-3.6,2.2-7.1,4-10.7,6.1c-2.9,1.8-5.5,3.3-7.1,6.5c-0.8,2.2-1.2,4.6-1.2,6.9c-0.1,9.7,0.4,19.4,1.6,29.1
				c1.4,9.9,3.6,19.8,7.4,29c1.6,3.7,3.3,7.5,5.1,11c9.8,17.8,25.6,32.4,43.9,41.2c2.1,1.1,4.4,1.9,6.7,2.2c3.1,0.1,6.1-1,9.1-2.3
				c20.4-9.3,36.6-26.4,46.3-46.5C276.6,265.9,280.2,247.6,280.3,229.4z"/>
			
				<linearGradient id="SVGID_00000130640288577531269700000011046988711132632714_" gradientUnits="userSpaceOnUse" x1="898.8201" y1="-8167.2212" x2="898.8201" y2="-8035.2324" gradientTransform="matrix(0.99 -0.14 0.14 0.99 461.84 8396.1494)">
				<stop  offset="0" style="stop-color:#30B9EC"/>
				<stop  offset="1" style="stop-color:#345FAB"/>
			</linearGradient>
			<path style="fill:url(#SVGID_00000130640288577531269700000011046988711132632714_);" d="M270.4,231c0,5.4-0.4,10.9-1.2,16.3
				c-1.2,10.6-4.2,20.8-8.9,30.4c-8.2,16.9-21.8,31.2-38.8,39c-2.4,1.2-5,2.1-7.6,1.8c-2-0.3-4-0.9-5.7-1.8
				c-11.2-5-21.1-13.2-28.9-22.6c-5.4-6.7-9.3-14.2-12.4-22c-1.1-3.1-2.1-6.1-2.9-9.3c-0.6-1.8-1-3.7-1.4-5.8
				c-1.5-6.3-2.5-12.7-3.1-19.1c-0.6-7.3-2.4-16.3,3.2-22.3c3.5-3.7,9.2-5.8,13.6-8.4c5-2.8,10-5.7,14.9-8.8c6.2-4,12.7-7.8,19-11.6
				c1.1-0.8,2.4-1.4,3.7-1.6c2-0.3,4,0.9,5.8,1.9c5.7,2.9,11,6.6,16.5,9.9c8.1,4.8,16.3,9.7,24.5,14.4c2.6,1.5,5.2,3.1,6.9,5.4
				c1.9,2.6,2.6,5.9,2.7,9.2C270.4,227.7,270.5,229.3,270.4,231z"/>
			<path class="st2" d="M168.8,233h8.2l7.2,24l7.2-24h8.2L189,265.7h-9.5L168.8,233z"/>
			<path class="st2" d="M226.3,244.2c0,6.2-5,11.2-11.3,11.2c-0.1,0-0.1,0-0.2,0h-4.9v10.3h-7.5V233h12.4c6.2-0.1,11.4,4.8,11.4,11
				C226.3,244.1,226.3,244.1,226.3,244.2z M218.8,244.2c0.1-2.2-1.6-4.1-3.7-4.2c-0.1,0-0.1,0-0.2,0H210v8.4h4.9c2.2,0,4-1.8,4-4
				C218.8,244.3,218.8,244.3,218.8,244.2z"/>
			<path class="st2" d="M255.7,233v32.7h-5.6l-12.6-17.7v17.7h-7.5V233h5.6l12.6,17.7V233H255.7z"/>
		</g>
	</g>
</g>
</svg>
