<?xml version="1.0" encoding="utf-8"?>
<!-- Generator: Adobe Illustrator 23.0.1, SVG Export Plug-In . SVG Version: 6.00 Build 0)  -->
<svg version="1.1" id="Layer_1" xmlns="http://www.w3.org/2000/svg" xmlns:xlink="http://www.w3.org/1999/xlink" x="0px" y="0px"
	 viewBox="0 0 479.1 256" style="enable-background:new 0 0 479.1 256;" xml:space="preserve">
<style type="text/css">
	.st0{opacity:0.25;fill:#D8E0F2;enable-background:new    ;}
	.st1{opacity:0.1;fill:#2197A3;enable-background:new    ;}
	.st2{fill:url(#SVGID_1_);}
	.st3{fill:#D7DFF2;}
	.st4{fill:#B7BFD6;}
	.st5{fill:url(#SVGID_2_);}
	.st6{fill:url(#SVGID_3_);}
	.st7{opacity:0.1;}
	.st8{fill:#D2EDF1;}
	.st9{fill:#E4E8EE;}
	.st10{fill:url(#SVGID_4_);}
	.st11{fill:url(#SVGID_5_);}
	.st12{fill:#B7C0D9;}
	.st13{fill:#FFFFFF;}
	.st14{fill:url(#SVGID_6_);}
	.st15{fill:url(#SVGID_7_);}
	.st16{fill:url(#SVGID_8_);}
	.st17{fill:url(#SVGID_9_);}
	.st18{fill:#1C6272;}
	.st19{fill:url(#SVGID_10_);}
	.st20{fill:url(#SVGID_11_);}
	.st21{fill:url(#SVGID_12_);}
	.st22{fill:url(#SVGID_13_);}
	.st23{enable-background:new    ;}
</style>
<path class="st0" d="M363.1,194.4c4.4,7,2.3,16.3-4.8,20.7c-4.2,2.6-9.5,3-14.1,1c-0.5-0.2-1-0.5-1.5-0.7
	c-4.5,3.8-9.2,7.2-14.2,10.4l-24.9-0.5c11.6-4.9,22.4-11.5,32-19.6c-1.8-8,3.2-16.1,11.2-17.9c2-0.5,4.1-0.5,6.2-0.1
	c40.3-51,34.4-124.5-13.5-168.4l7.9-9C400,58.1,406.8,138.4,363.1,194.4L363.1,194.4z"/>
<path class="st1" d="M475.9,239.4c0,3.4-18.1,6.6-48.4,9.1c-5.2,0.4-10.8,0.8-16.8,1.2c-13.8,0.9-29.4,1.7-46.5,2.3
	c-7.2,0.3-14.6,0.5-22.3,0.7l0,0c-26.3,0.7-55.2,1.1-85.6,1.1c-30.8,0-60.1-0.4-86.6-1.2c-13.2-0.4-25.7-0.8-37.4-1.4
	c-11.3-0.5-21.7-1.1-31.3-1.7l0,0c-5.9-0.4-11.5-0.8-16.8-1.2c-29.7-2.5-47.4-5.6-47.4-9c0-2.9,12.9-5.6,35.1-7.9
	c4.2-0.4,8.8-0.8,13.7-1.2c10.7-0.9,22.8-1.7,36.3-2.4c8.4-0.4,17.4-0.8,26.7-1.2l0,0c31.9-1.2,68.6-1.9,107.8-1.9
	c43.4,0,83.9,0.8,117.9,2.3c5.4,0.2,10.6,0.5,15.7,0.7c13.4,0.7,25.6,1.5,36.3,2.3c4.9,0.4,9.5,0.8,13.7,1.2
	C462.6,233.7,475.9,236.5,475.9,239.4z"/>
<path class="st1" d="M255.8,234.8c-16.5,0-32.7-3.2-47.9-9.6c15.6-0.2,31.8-0.4,48.4-0.4c16.3,0,32.1,0.1,47.4,0.3
	C288.5,231.6,272.2,234.9,255.8,234.8z"/>
<linearGradient id="SVGID_1_" gradientUnits="userSpaceOnUse" x1="255.785" y1="-13376.0811" x2="255.785" y2="-13396.6016" gradientTransform="matrix(1 0 0 1 0 13605.2813)">
	<stop  offset="0.36" style="stop-color:#B7C0D9"/>
	<stop  offset="0.38" style="stop-color:#B9C2DB"/>
	<stop  offset="0.54" style="stop-color:#CAD2E8"/>
	<stop  offset="0.71" style="stop-color:#D4DCF0"/>
	<stop  offset="0.94" style="stop-color:#D7DFF2"/>
</linearGradient>
<path class="st2" d="M427.7,10.3v211.2H83.8V10.3C83.9,4.6,88.5,0,94.2,0h323.3C423.1,0,427.7,4.6,427.7,10.3z"/>
<rect x="58.3" y="221.3" class="st3" width="396" height="11.9"/>
<path class="st4" d="M443.3,237H66.9c-2.1,0-8.6-1.7-8.6-3.8h396C454.3,235.3,445.3,237,443.3,237z"/>
<linearGradient id="SVGID_2_" gradientUnits="userSpaceOnUse" x1="94.86" y1="-13494.5166" x2="416.71" y2="-13494.5166" gradientTransform="matrix(1 0 0 1 0 13605.2813)">
	<stop  offset="0" style="stop-color:#2D95A5"/>
	<stop  offset="1" style="stop-color:#135184"/>
</linearGradient>
<path class="st5" d="M97.9,10.2h315.9c1.7,0,3,1.3,3,3v195.2c0,1.7-1.3,3-3,3H97.9c-1.7,0-3-1.3-3-3V13.2
	C94.9,11.5,96.2,10.2,97.9,10.2z"/>
<linearGradient id="SVGID_3_" gradientUnits="userSpaceOnUse" x1="259.015" y1="-13380.1709" x2="259.015" y2="-13383.9912" gradientTransform="matrix(1 0 0 1 0 13605.2813)">
	<stop  offset="0" style="stop-color:#9EAFC8"/>
	<stop  offset="1" style="stop-color:#B7BFD6"/>
</linearGradient>
<path class="st6" d="M154.6,221.3h208.9c0,2.1-1.7,3.8-3.8,3.8H158.4C156.3,225.1,154.6,223.4,154.6,221.3z"/>
<g class="st7">
	<polygon class="st8" points="340.5,211.3 275,211.3 336.5,10.2 402,10.2 	"/>
</g>
<g class="st7">
	<path class="st8" d="M416.7,17.2v191.1c0,1.7-1.3,3-3,3h-56.4L416.7,17.2z"/>
</g>
<path class="st9" d="M7.4,54.9h157.2c4.1,0,7.4,3.3,7.4,7.4v32.2c0,4.1-3.3,7.4-7.4,7.4H7.4C3.3,102,0,98.7,0,94.6V62.4
	C0,58.3,3.3,54.9,7.4,54.9z"/>
<linearGradient id="SVGID_4_" gradientUnits="userSpaceOnUse" x1="32.615" y1="213.8486" x2="32.615" y2="164.5686" gradientTransform="matrix(1 0 0 -1 0 257.3385)">
	<stop  offset="0.11" style="stop-color:#45B4BD"/>
	<stop  offset="0.41" style="stop-color:#44B1BB"/>
	<stop  offset="0.61" style="stop-color:#3FA8B5"/>
	<stop  offset="0.78" style="stop-color:#3899AA"/>
	<stop  offset="0.93" style="stop-color:#2E849B"/>
	<stop  offset="0.95" style="stop-color:#2C8098"/>
</linearGradient>
<path class="st10" d="M54.3,53.8v31.8c0,4-3.2,7.2-7.2,7.2h-29c-4,0-7.3-3.3-7.3-7.3v-35c0-3.9,3.1-7,7-7h26.6c1,0,2,0.4,2.7,1.1
	l5.7,5.6C53.8,51.2,54.3,52.5,54.3,53.8z"/>
<linearGradient id="SVGID_5_" gradientUnits="userSpaceOnUse" x1="32.6302" y1="166.3386" x2="32.6302" y2="212.069" gradientTransform="matrix(1 0 0 -1 0 257.3385)">
	<stop  offset="0.11" style="stop-color:#45B4BD"/>
	<stop  offset="0.41" style="stop-color:#44B1BB"/>
	<stop  offset="0.61" style="stop-color:#3FA8B5"/>
	<stop  offset="0.78" style="stop-color:#3899AA"/>
	<stop  offset="0.93" style="stop-color:#2E849B"/>
	<stop  offset="0.95" style="stop-color:#2C8098"/>
</linearGradient>
<path class="st11" d="M52.8,54.9V85c0,3.3-2.6,6-5.9,6c0,0,0,0-0.1,0H18.7c-3.4,0-6.2-2.8-6.2-6.2l0,0V50.6c0-2.9,2.4-5.3,5.3-5.3
	h25.8c0.9,0,1.9,0.3,2.5,1l5.3,5.2C52.3,52.4,52.8,53.6,52.8,54.9z"/>
<path class="st12" d="M68.1,65.9h50.5c1.3,0,2.4,1.1,2.4,2.4v1.2c0,1.3-1.1,2.4-2.4,2.4H68.1c-1.3,0-2.4-1.1-2.4-2.4v-1.2
	C65.7,66.9,66.8,65.9,68.1,65.9z"/>
<path class="st12" d="M68.1,74.5h35c1.3,0,2.4,1.1,2.4,2.4v1.2c0,1.3-1.1,2.4-2.4,2.4h-35c-1.3,0-2.4-1.1-2.4-2.4v-1.2
	C65.7,75.5,66.8,74.5,68.1,74.5z"/>
<path class="st13" d="M18.1,58.6h29c1.3,0,2.4,1.1,2.4,2.4v1.2c0,1.3-1.1,2.4-2.4,2.4h-29c-1.3,0-2.4-1.1-2.4-2.4V61
	C15.7,59.7,16.8,58.6,18.1,58.6z"/>
<path class="st13" d="M18.1,67.2h19.5c1.3,0,2.4,1.1,2.4,2.4v1.2c0,1.3-1.1,2.4-2.4,2.4H18.1c-1.3,0-2.4-1.1-2.4-2.4v-1.2
	C15.7,68.3,16.8,67.2,18.1,67.2z"/>
<linearGradient id="SVGID_6_" gradientUnits="userSpaceOnUse" x1="165.16" y1="219.6186" x2="165.16" y2="188.2386" gradientTransform="matrix(1 0 0 -1 0 257.3385)">
	<stop  offset="0.11" style="stop-color:#45B4BD"/>
	<stop  offset="0.41" style="stop-color:#44B1BB"/>
	<stop  offset="0.61" style="stop-color:#3FA8B5"/>
	<stop  offset="0.78" style="stop-color:#3899AA"/>
	<stop  offset="0.93" style="stop-color:#2E849B"/>
	<stop  offset="0.95" style="stop-color:#2C8098"/>
</linearGradient>
<circle class="st14" cx="165.2" cy="53.4" r="15.7"/>
<linearGradient id="SVGID_7_" gradientUnits="userSpaceOnUse" x1="165.16" y1="190.2286" x2="165.16" y2="217.6286" gradientTransform="matrix(1 0 0 -1 0 257.3385)">
	<stop  offset="0.11" style="stop-color:#45B4BD"/>
	<stop  offset="0.41" style="stop-color:#44B1BB"/>
	<stop  offset="0.61" style="stop-color:#3FA8B5"/>
	<stop  offset="0.78" style="stop-color:#3899AA"/>
	<stop  offset="0.93" style="stop-color:#2E849B"/>
	<stop  offset="0.95" style="stop-color:#2C8098"/>
</linearGradient>
<circle class="st15" cx="165.2" cy="53.4" r="13.7"/>
<path class="st13" d="M158.6,51.7l0.6-0.6c0.5-0.4,1.1-0.4,1.5,0.1l4.8,5.4c0.4,0.5,0.4,1.1-0.1,1.5l-0.6,0.6
	c-0.5,0.4-1.1,0.4-1.5-0.1l-4.8-5.4C158.1,52.8,158.2,52.1,158.6,51.7z"/>
<path class="st13" d="M173.7,48.2l0.6,0.6c0.4,0.5,0.4,1.1-0.1,1.5l-9.3,8.3c-0.5,0.4-1.1,0.4-1.5-0.1l-0.6-0.6
	c-0.4-0.5-0.4-1.1,0.1-1.5l9.3-8.3C172.6,47.7,173.3,47.8,173.7,48.2z"/>
<linearGradient id="SVGID_8_" gradientUnits="userSpaceOnUse" x1="421.58" y1="142.3686" x2="421.58" y2="1.3386" gradientTransform="matrix(1 0 0 -1 0 257.3385)">
	<stop  offset="0.11" style="stop-color:#45B4BD"/>
	<stop  offset="0.41" style="stop-color:#44B1BB"/>
	<stop  offset="0.61" style="stop-color:#3FA8B5"/>
	<stop  offset="0.78" style="stop-color:#3899AA"/>
	<stop  offset="0.93" style="stop-color:#2E849B"/>
	<stop  offset="0.95" style="stop-color:#2C8098"/>
</linearGradient>
<path class="st16" d="M369.2,115h104.7c2.8,0,5.1,2.3,5.1,5.1v130.8c0,2.8-2.3,5.1-5.1,5.1H369.2c-2.8,0-5.1-2.3-5.1-5.1V120.1
	C364.1,117.3,366.4,115,369.2,115z"/>
<linearGradient id="SVGID_9_" gradientUnits="userSpaceOnUse" x1="421.555" y1="3.5186" x2="421.555" y2="140.1991" gradientTransform="matrix(1 0 0 -1 0 257.3385)">
	<stop  offset="0.11" style="stop-color:#45B4BD"/>
	<stop  offset="0.41" style="stop-color:#44B1BB"/>
	<stop  offset="0.61" style="stop-color:#3FA8B5"/>
	<stop  offset="0.78" style="stop-color:#3899AA"/>
	<stop  offset="0.93" style="stop-color:#2E849B"/>
	<stop  offset="0.95" style="stop-color:#2C8098"/>
</linearGradient>
<path class="st17" d="M369.5,117.1h104.3c2,0,3.6,1.6,3.6,3.6v129.5c0,2-1.6,3.6-3.6,3.6H369.8c-2.2,0-4-1.8-4-4V120.7
	C365.8,118.8,367.4,117.1,369.5,117.1C369.4,117.1,369.4,117.1,369.5,117.1z"/>
<circle class="st18" cx="384.8" cy="119.5" r="7"/>
<circle class="st18" cx="410" cy="119.5" r="7"/>
<circle class="st18" cx="435.8" cy="119.5" r="7"/>
<circle class="st18" cx="461.3" cy="119.5" r="7"/>
<linearGradient id="SVGID_10_" gradientUnits="userSpaceOnUse" x1="384.74" y1="135.3386" x2="384.74" y2="156.2686" gradientTransform="matrix(1 0 0 -1 0 257.3385)">
	<stop  offset="0.36" style="stop-color:#B7C0D9"/>
	<stop  offset="0.38" style="stop-color:#B9C2DB"/>
	<stop  offset="0.54" style="stop-color:#CAD2E8"/>
	<stop  offset="0.71" style="stop-color:#D4DCF0"/>
	<stop  offset="0.94" style="stop-color:#D7DFF2"/>
</linearGradient>
<path class="st19" d="M382.8,101.1h3.9c2.2,0,3.9,1.8,3.9,3.9v13c0,2.2-1.8,3.9-3.9,3.9h-3.9c-2.2,0-3.9-1.8-3.9-3.9v-13
	C378.9,102.8,380.6,101.1,382.8,101.1z"/>
<linearGradient id="SVGID_11_" gradientUnits="userSpaceOnUse" x1="410.33" y1="135.3386" x2="410.33" y2="156.2686" gradientTransform="matrix(1 0 0 -1 0 257.3385)">
	<stop  offset="0.36" style="stop-color:#B7C0D9"/>
	<stop  offset="0.38" style="stop-color:#B9C2DB"/>
	<stop  offset="0.54" style="stop-color:#CAD2E8"/>
	<stop  offset="0.71" style="stop-color:#D4DCF0"/>
	<stop  offset="0.94" style="stop-color:#D7DFF2"/>
</linearGradient>
<path class="st20" d="M408.4,101.1h3.9c2.2,0,3.9,1.8,3.9,3.9v13c0,2.2-1.8,3.9-3.9,3.9h-3.9c-2.2,0-3.9-1.8-3.9-3.9v-13
	C404.4,102.8,406.2,101.1,408.4,101.1z"/>
<linearGradient id="SVGID_12_" gradientUnits="userSpaceOnUse" x1="435.83" y1="135.3386" x2="435.83" y2="156.2686" gradientTransform="matrix(1 0 0 -1 0 257.3385)">
	<stop  offset="0.36" style="stop-color:#B7C0D9"/>
	<stop  offset="0.38" style="stop-color:#B9C2DB"/>
	<stop  offset="0.54" style="stop-color:#CAD2E8"/>
	<stop  offset="0.71" style="stop-color:#D4DCF0"/>
	<stop  offset="0.94" style="stop-color:#D7DFF2"/>
</linearGradient>
<path class="st21" d="M433.9,101.1h3.9c2.2,0,3.9,1.8,3.9,3.9v13c0,2.2-1.8,3.9-3.9,3.9h-3.9c-2.2,0-3.9-1.8-3.9-3.9v-13
	C429.9,102.8,431.7,101.1,433.9,101.1z"/>
<linearGradient id="SVGID_13_" gradientUnits="userSpaceOnUse" x1="461.33" y1="135.3386" x2="461.33" y2="156.2686" gradientTransform="matrix(1 0 0 -1 0 257.3385)">
	<stop  offset="0.36" style="stop-color:#B7C0D9"/>
	<stop  offset="0.38" style="stop-color:#B9C2DB"/>
	<stop  offset="0.54" style="stop-color:#CAD2E8"/>
	<stop  offset="0.71" style="stop-color:#D4DCF0"/>
	<stop  offset="0.94" style="stop-color:#D7DFF2"/>
</linearGradient>
<path class="st22" d="M459.4,101.1h3.9c2.2,0,3.9,1.8,3.9,3.9v13c0,2.2-1.8,3.9-3.9,3.9h-3.9c-2.2,0-3.9-1.8-3.9-3.9v-13
	C455.4,102.8,457.2,101.1,459.4,101.1z"/>
<g class="st23">
	<polygon class="st13" points="440.7,142.2 440.7,150.7 423.9,189.8 409.2,189.8 425.3,152.9 412.7,152.9 412.7,160.3 401.3,160.3 
		401.3,142.2 	"/>
</g>
<g class="st23">
	<path class="st13" d="M379.5,219.7v-20.6h9.8c2.3,0,4.3,0.4,6,1.3s3.1,2,4.1,3.6c1,1.5,1.5,3.4,1.5,5.5c0,2.1-0.5,3.9-1.5,5.5
		s-2.3,2.7-4.1,3.6s-3.7,1.3-6,1.3H379.5z M385.3,215.1h3.7c1.2,0,2.2-0.2,3.1-0.7c0.9-0.4,1.6-1.1,2-1.9c0.5-0.9,0.7-1.9,0.7-3.1
		c0-1.2-0.2-2.2-0.7-3.1s-1.2-1.5-2-1.9c-0.9-0.4-1.9-0.7-3.1-0.7h-3.7V215.1z"/>
</g>
<g class="st23">
	<path class="st13" d="M415.9,199.1h-5.8l-9.1,20.6h6l1.6-4h8.8l1.6,4h6.1L415.9,199.1z M410.4,211.4l2.7-6.6l2.6,6.6H410.4z"/>
</g>
<g class="st23">
	<polygon class="st13" points="444.9,199.1 437,212.3 437,219.7 431.2,219.7 431.2,212.2 423.3,199.1 429.5,199.1 434.4,207.3 
		439.3,199.1 	"/>
</g>
<g class="st23">
	<path class="st13" d="M453.7,220.1c-1.7,0-3.3-0.2-4.9-0.6c-1.6-0.4-2.8-1-3.8-1.6l1.9-4.3c0.9,0.6,2,1.1,3.2,1.5
		c1.2,0.4,2.4,0.6,3.6,0.6c0.8,0,1.5-0.1,1.9-0.2c0.5-0.1,0.8-0.3,1.1-0.6c0.2-0.2,0.3-0.5,0.3-0.9c0-0.5-0.2-0.8-0.6-1.1
		c-0.4-0.3-1-0.5-1.7-0.7c-0.7-0.2-1.5-0.4-2.3-0.5s-1.7-0.4-2.5-0.7s-1.6-0.6-2.3-1.1c-0.7-0.4-1.2-1-1.7-1.7
		c-0.4-0.7-0.6-1.6-0.6-2.7c0-1.2,0.3-2.4,1-3.4c0.7-1,1.7-1.8,3.1-2.4c1.4-0.6,3-0.9,5.1-0.9c1.4,0,2.7,0.2,4,0.5
		c1.3,0.3,2.5,0.8,3.5,1.3l-1.8,4.3c-1-0.5-2-0.9-2.9-1.2c-1-0.3-1.9-0.4-2.8-0.4c-0.8,0-1.5,0.1-1.9,0.3c-0.5,0.2-0.8,0.4-1.1,0.7
		c-0.2,0.3-0.3,0.6-0.3,0.9c0,0.5,0.2,0.8,0.6,1.1c0.4,0.3,1,0.5,1.7,0.6c0.7,0.2,1.5,0.3,2.3,0.5c0.8,0.2,1.7,0.4,2.5,0.7
		c0.8,0.3,1.6,0.6,2.3,1.1c0.7,0.4,1.2,1,1.7,1.7c0.4,0.7,0.6,1.6,0.6,2.7c0,1.2-0.3,2.3-1,3.3c-0.7,1-1.7,1.8-3,2.4
		C457.5,219.8,455.8,220.1,453.7,220.1z"/>
</g>
<g class="st23">
	<polygon class="st13" points="381.5,228 381.5,230.2 385.8,230.2 385.8,232.3 381.5,232.3 381.5,235.6 378.8,235.6 378.8,225.9 
		386.4,225.9 386.4,228 	"/>
	<path class="st13" d="M394.6,232.6c0.6-0.3,1-0.7,1.4-1.2c0.3-0.5,0.5-1.2,0.5-1.9c0-0.8-0.2-1.4-0.5-1.9c-0.4-0.5-0.9-1-1.5-1.3
		c-0.7-0.3-1.4-0.4-2.3-0.4h-4.5v9.8h2.8V233h1.5l1.8,2.6h3L394.6,232.6z M390.5,230.9V228h1.5c0.6,0,1,0.1,1.3,0.4
		c0.3,0.3,0.4,0.6,0.4,1.1c0,0.4-0.1,0.8-0.4,1c-0.3,0.3-0.7,0.4-1.3,0.4H390.5z"/>
	<polygon class="st13" points="405.9,233.5 405.9,235.6 398,235.6 398,225.9 405.7,225.9 405.7,228 400.8,228 400.8,229.6 
		405.1,229.6 405.1,231.7 400.8,231.7 400.8,233.5 	"/>
	<polygon class="st13" points="415.3,233.5 415.3,235.6 407.4,235.6 407.4,225.9 415.1,225.9 415.1,228 410.2,228 410.2,229.6 
		414.5,229.6 414.5,231.7 410.2,231.7 410.2,233.5 	"/>
	<path class="st13" d="M423,235.6v-7.6h-3v-2.2h8.8v2.2h-3v7.6H423z"/>
	<path class="st13" d="M436.6,232.6c0.6-0.3,1-0.7,1.4-1.2c0.3-0.5,0.5-1.2,0.5-1.9c0-0.8-0.2-1.4-0.5-1.9c-0.4-0.5-0.9-1-1.5-1.3
		c-0.7-0.3-1.4-0.4-2.3-0.4h-4.5v9.8h2.8V233h1.5l1.8,2.6h3L436.6,232.6z M432.5,228h1.5c0.6,0,1,0.1,1.3,0.4
		c0.3,0.3,0.4,0.6,0.4,1.1c0,0.4-0.2,0.8-0.4,1c-0.3,0.3-0.7,0.4-1.3,0.4h-1.5V228z"/>
	<path class="st13" d="M440.1,235.6v-9.8h2.8v9.8H440.1z"/>
	<path class="st13" d="M450.7,225.9h-2.7l-4.3,9.8h2.8l0.8-1.9h4.1l0.8,1.9h2.9L450.7,225.9z M448,231.7l1.3-3.1l1.3,3.1H448z"/>
	<path class="st13" d="M455.8,235.6v-9.8h2.8v7.6h4.7v2.2H455.8z"/>
</g>
<path class="st13" d="M323.4,85.8c-0.1-3.4-0.6-6.9-1.5-10.2c-0.6-2.1-1.3-4.2-2.1-6.2c3-2.2,1.3-7.5-2.5-7.3
	c-5.2-0.1-5.3,8.1-0.1,8.2c2.9,8,3.2,16.7,0.8,24.9c-1-4.2-5.4-6.4-9.6-6c-4.2-12.6-17.4-17.5-30.2-17.6c-11.4-1.2-22.9-1.2-34.3,0
	c-12.9,0.1-26.1,5-30.3,17.6c-4.4-0.5-8.7,2-9.5,6.4c-2.1-7.1-2.3-14.6-0.4-21.7c0.4-1.3,0.7-2.4,1.1-3.6c5.4,0.2,5.4-8.2,0.1-8.2
	c-3.7-0.1-5.5,4.9-2.7,7.2c-0.8,2.1-1.6,4.2-2.2,6.3c-2,7.5-2,15.3,0.2,22.8c1,3.9,2.4,7.7,4.1,11.4c1.3,4.1,5.8,5.8,10,5.3
	c6.5,18.8,30,17.9,46.6,18.4c16.7-0.5,39.8,0.5,46.5-18.4c7,0.7,9.8-2.7,11.8-8.8C322,99.7,323.4,92.8,323.4,85.8z M299,98.4
	c-0.2,10.1-1.9,20.9-13.7,22.9c-16.1,2.6-32.5,2.6-48.6-0.1c-11.8-2-13.6-12.8-13.7-22.9c-0.5-13.5,10.7-17.4,22.2-17.5
	c10.5-1.1,21-1.1,31.5,0C288.2,80.9,299.6,84.9,299,98.4z"/>
<path class="st13" d="M249.6,100.8c-0.6,3.5-3.1-0.1-6.9-0.7s-7.3,2.1-6.8-1.5C237.3,90.3,250.7,92.5,249.6,100.8z M286.1,98.7
	c0.6,3.5-3,0.8-6.8,1.5s-6.3,4.2-6.9,0.7C271.1,92.5,284.8,90.4,286.1,98.7L286.1,98.7z"/>
<path class="st13" d="M249.6,100.8c-0.6,3.5-3.1-0.1-6.9-0.7s-7.3,2.1-6.8-1.5C237.3,90.3,250.7,92.5,249.6,100.8z M279.4,100.1
	c-3.7,0.6-6.3,4.2-6.9,0.7c-1.3-8.3,12.3-10.4,13.6-2.1C286.7,102.2,283.1,99.6,279.4,100.1L279.4,100.1z"/>
<path class="st13" d="M249.6,100.8c-0.6,3.5-3.1-0.1-6.9-0.7s-7.3,2.1-6.8-1.5C237.3,90.3,250.7,92.5,249.6,100.8z M279.4,100.1
	c-3.7,0.6-6.3,4.2-6.9,0.7c-1.3-8.3,12.3-10.4,13.6-2.1C286.7,102.2,283.1,99.6,279.4,100.1L279.4,100.1z M269.4,111.2
	c0.2,10.3-17.1,10.4-16.9,0c0-0.8,0.7-1.5,1.5-1.5h14C268.8,109.8,269.4,110.4,269.4,111.2z"/>
<path class="st13" d="M212.1,142.7v15.4h-3.4v-6.3H202v6.3h-3.4v-15.4h3.4v6.1h6.7v-6.1H212.1z M214.1,152.3
	c-0.1-3.5,2.7-6.3,6.1-6.4s6.3,2.7,6.4,6.1s-2.7,6.3-6.1,6.4c0,0-0.1,0-0.1,0c-3.3,0.1-6.1-2.4-6.3-5.7
	C214.1,152.5,214.1,152.4,214.1,152.3L214.1,152.3z M223.2,152.3c0-2-1.2-3.3-2.9-3.3c-1.7,0-3,1.4-2.9,3.1c0,0.1,0,0.1,0,0.2
	c0,2.1,1.3,3.3,2.9,3.3S223.2,154.3,223.2,152.3L223.2,152.3z M236.6,157.6c-0.8,0.5-1.7,0.8-2.7,0.8c-2.7,0-4.3-1.4-4.3-4.3v-4.9
	h-1.8v-2.6h1.8v-2.9h3.3v2.9h2.8v2.6H233v4.8c0,1,0.5,1.6,1.4,1.6c0.5,0,0.9-0.1,1.3-0.4L236.6,157.6z M252.3,154
	c0,2.7-2,4.2-5.9,4.2h-7.6v-15.5h7.3c3.7,0,5.6,1.6,5.6,4c0,1.4-0.7,2.7-2,3.4C251.3,150.6,252.4,152.2,252.3,154L252.3,154z
	 M242.1,145.5v3.6h3.4c1.7,0,2.6-0.6,2.6-1.8s-0.9-1.8-2.6-1.8H242.1z M248.8,153.6c0-1.3-1-1.9-2.7-1.9h-4v3.8h4
	C247.9,155.5,248.8,154.9,248.8,153.6L248.8,153.6z M253.8,152.3c-0.1-3.5,2.7-6.3,6.1-6.4s6.3,2.7,6.4,6.1c0.1,3.5-2.7,6.3-6.1,6.4
	c0,0-0.1,0-0.1,0c-3.3,0.2-6.1-2.4-6.3-5.7C253.8,152.6,253.8,152.4,253.8,152.3L253.8,152.3z M263,152.3c0-2-1.3-3.3-2.9-3.3
	s-2.9,1.2-2.9,3.3s1.3,3.3,2.9,3.3S263,154.3,263,152.3L263,152.3z M275.9,157.6c-0.8,0.5-1.7,0.8-2.7,0.8c-2.7,0-4.3-1.4-4.3-4.3
	v-4.9h-1.8v-2.6h1.8v-2.9h3.3v2.9h2.8v2.6h-2.8v4.8c0,1,0.5,1.6,1.4,1.6c0.5,0,0.9-0.1,1.3-0.4L275.9,157.6L275.9,157.6z"/>
<path class="st13" d="M292.7,142.7l-6.3,15.4h-4.1l-6.3-15.4h4.5l4,10.1l4.1-10.1H292.7z M304.7,143.4c0.9,0.4,1.7,1.1,2.3,2
	c1.1,1.9,1.1,4.2,0,6.1c-0.6,0.9-1.3,1.6-2.3,2c-1.1,0.5-2.3,0.7-3.5,0.7h-2.6v4h-4.2v-15.4h6.8C302.4,142.7,303.6,143,304.7,143.4z
	 M302.9,150.1c0.5-0.4,0.7-1,0.6-1.7c0-0.6-0.2-1.2-0.6-1.7c-0.6-0.4-1.2-0.7-2-0.6h-2.3v4.5h2.3
	C301.6,150.8,302.3,150.6,302.9,150.1L302.9,150.1z M323.4,142.7v15.5H320l-6.6-8.2v8.2h-4.1v-15.5h3.4l6.5,8.3v-8.2L323.4,142.7z"
	/>
</svg>
