<?xml version="1.0"?>
<svg xmlns="http://www.w3.org/2000/svg" xmlns:xlink="http://www.w3.org/1999/xlink" xmlns:svgjs="http://svgjs.com/svgjs" version="1.1" width="512" height="512" x="0" y="0" viewBox="0 0 512 512" style="enable-background:new 0 0 512 512" xml:space="preserve" class=""><g><g><path d="m452.011 231.868c-1.325-.474-14.016-4.949-35.087-10.354v-60.591c0-88.733-72.191-160.923-160.924-160.923-88.734 0-160.924 72.19-160.924 160.924v60.591c-21.07 5.405-33.762 9.88-35.087 10.354l-9.949 3.558v242.117l9.949 3.558c3.529 1.26 87.656 30.898 196.011 30.898s192.482-29.638 196.011-30.9l9.949-3.558v-242.116zm-326.935-70.944c0-72.192 58.733-130.924 130.924-130.924s130.924 58.732 130.924 130.924v53.674c-12.04-2.478-25.46-4.89-40-6.981v-46.693c0-50.136-40.788-90.924-90.924-90.924s-90.924 40.788-90.924 90.924v46.693c-14.54 2.091-27.96 4.503-40 6.981zm191.848 43.068c-19.075-1.865-39.524-3.024-60.924-3.024s-41.848 1.159-60.924 3.024v-43.068c0-33.593 27.331-60.924 60.924-60.924 33.594 0 60.924 27.331 60.924 60.924zm115.036 252.058c-24.913 7.573-93.841 25.95-175.96 25.95-82.126 0-151.056-18.379-175.96-25.95v-199.141c24.864-7.577 93.63-25.941 175.96-25.941 82.126 0 151.056 18.38 175.96 25.951z" fill="#71798d" data-original="#000000" class=""/><path d="m211 328.98c0 19.555 12.541 36.228 30 42.42v42.589h30v-42.589c17.459-6.192 30-22.865 30-42.42 0-24.813-20.187-45-45-45s-45 20.187-45 45zm60 0c0 8.271-6.729 15-15 15s-15-6.729-15-15 6.729-15 15-15 15 6.729 15 15z" fill="#71798d" data-original="#000000" class=""/></g></g></svg>
