<svg version="1.1" id="Layer_1" xmlns="http://www.w3.org/2000/svg" x="0" y="0" viewBox="0 0 512 512" xml:space="preserve"><style>.st1{fill:#fac212}</style><path class="st1" d="M412.4 295.6v94.7c0 12.2-10 22.1-22.1 22.1h-94.7c4.5 55.7 51.1 99.6 108 99.6 59.9 0 108.4-48.5 108.4-108.4 0-56.9-43.8-103.5-99.6-108z" opacity=".1"/><path class="st1" d="M414.4 328.4v63c0 12.2-10 22.1-22.1 22.1h-63c4.3 38.3 36.8 68.1 76.4 68.1 42.4 0 76.8-34.4 76.8-76.8 0-39.6-29.8-72.2-68.1-76.4z" opacity=".4"/><linearGradient id="SVGID_1_" gradientUnits="userSpaceOnUse" x1="255.999" y1="493.819" x2="255.999" y2="31.014" gradientTransform="matrix(1 0 0 -1 0 512)"><stop offset="0" stop-color="#5f798a"/><stop offset="1" stop-color="#5f798a" stop-opacity="0"/></linearGradient><path d="M499.9 433.4H12.1c-6.8 0-12.1-4.8-12.1-10.9v-333c-.1-6.1 5.4-10.9 12.1-10.9h487.8c6.7 0 12.1 4.9 12.1 10.9v332.8c0 6.1-5.4 11.1-12.1 11.1zM12.1 80.8c-5.3 0-9.6 3.9-9.6 8.7v332.8c0 4.9 4.2 8.7 9.6 8.7h487.8c5.3 0 9.6-3.9 9.6-8.7V89.5c0-4.8-4.3-8.7-9.6-8.7H12.1z" fill="url(#SVGID_1_)"/><linearGradient id="SVGID_00000138563996179676849900000000541078212006960282_" gradientUnits="userSpaceOnUse" x1="255.95" y1="79.898" x2="255.95" y2="432.3" gradientTransform="matrix(1 0 0 -1 0 512)"><stop offset="0" stop-color="#445f70"/><stop offset="1" stop-color="#242e38"/></linearGradient><path d="M1.1 422.4V89.5c0-5.4 4.8-9.8 10.9-9.8h487.9c5.9 0 10.9 4.4 10.9 9.8v332.8c0 5.4-4.8 9.8-10.9 9.8H12.1c-6 .1-11-4.3-11-9.7z" fill="url(#SVGID_00000138563996179676849900000000541078212006960282_)"/><linearGradient id="SVGID_00000104702409264755451260000006075375074850828194_" gradientUnits="userSpaceOnUse" x1="256.05" y1="420.71" x2="256.05" y2="91.1" gradientTransform="matrix(1 0 0 -1 0 512)"><stop offset="0" stop-color="#445f70"/><stop offset="1" stop-color="#242e38"/></linearGradient><path d="M498.1 97.1v318c0 3.3-2.8 5.8-6.4 5.8H20.4c-3.6 0-6.4-2.6-6.4-5.8v-318c0-3.3 2.8-5.8 6.4-5.8h471.4c3.3-.2 6.3 2.5 6.3 5.8z" fill="url(#SVGID_00000104702409264755451260000006075375074850828194_)"/><circle cx="256" cy="255.9" r="114" fill="#445f70"/><path d="M303.5 200.1l-16.2 16.2c-9.4-4.7-19.7-7.8-30.6-7.8-33.4 0-63.5 30-74.3 42.3-2.6 3-2.6 7.4 0 10.3 5.9 6.7 17.4 18.5 32 28.1l-14 14 8.5 8.5 16.3-16.3 10.2-10.2 76.7-76.7-8.6-8.4zm-40.2 40.3c-2.2-1-4.7-1.7-7.3-1.7-9.5 0-17.4 7.7-17.4 17.4 0 2.6.5 5.1 1.7 7.3l-13.5 13.5c-4.2-5.9-6.7-13.1-6.7-20.8 0-19.7 16.1-35.7 35.7-35.7 7.7 0 14.9 2.5 20.8 6.7l-13.3 13.3zm66.2 20.7c-10.3 12.3-39.1 42.5-72.8 42.5-1.7 0-3.4-.1-5.1-.3-4.8-.4-9.5-1.4-14.1-2.9l9.7-9.7c2.7.7 5.6 1 8.6 1 19.7 0 35.7-16.1 35.7-35.7 0-3-.4-5.9-1-8.6l17.5-17.5c3.3 2.6 6.3 5.4 9 8 5.4 5.1 9.5 9.8 12.4 13.2 2.6 2.9 2.6 7.2.1 10z" fill="#fff"/><circle class="st1" cx="404" cy="404" r="57.3"/><path d="M421.7 407.5c7.8 0 14.1 6.3 14.1 14.1s-6.3 14.1-14.1 14.1c-7.6 0-14.1-6.3-14.1-14.1h-7.1c0 7.8-6.3 14.1-14.1 14.1s-14.1-6.3-14.1-14.1 6.3-14.1 14.1-14.1c5 0 9.7 2.7 12.2 7.1h10.8c2.5-4.4 7.2-7.1 12.3-7.1zm-52.9-3.5v-7.1h7.1v-10.6c0-7.8 6.3-14.1 14.1-14.1h28.2c7.8 0 14.1 6.3 14.1 14.1v10.6h7.1v7.1h-70.6z" fill="#435e6f"/></svg>