<svg version="1.1" id="Layer_1" xmlns="http://www.w3.org/2000/svg" x="0" y="0" viewBox="0 0 512 512" xml:space="preserve"><style>.st1{fill:#fac212}.st10{fill:#fff}</style><circle class="st1" cx="404" cy="404" r="108.4" opacity=".1"/><circle class="st1" cx="404" cy="404" r="78.4" opacity=".4"/><linearGradient id="SVGID_1_" gradientUnits="userSpaceOnUse" x1="256" y1="516.616" x2="256" y2="3.745" gradientTransform="matrix(1 0 0 -1 0 512)"><stop offset="0" stop-color="#5f798a"/><stop offset="1" stop-color="#5f798a" stop-opacity="0"/></linearGradient><path d="M384.2 478.1H127.8L-.4 255.9 127.8 34h256.4l.6 1 127.6 221-.6 1-127.6 221.1zm-254-4.1h251.6l125.9-218.1L381.9 38.1H130.2L4.4 255.9 130.2 474z" fill="url(#SVGID_1_)"/><linearGradient id="SVGID_00000054235460996378342390000014216813622018001584_" gradientUnits="userSpaceOnUse" x1="256" y1="476.028" x2="256" y2="36.072"><stop offset="0" stop-color="#445f70"/><stop offset="1" stop-color="#242e38"/></linearGradient><path fill="url(#SVGID_00000054235460996378342390000014216813622018001584_)" d="M382.9 36.1H129L2 255.9 129 476h253.9L510 255.9z"/><linearGradient id="SVGID_00000063634499345700524050000013013303697212485008_" gradientUnits="userSpaceOnUse" x1="256" y1="61.866" x2="256" y2="450.337"><stop offset=".014" stop-color="#5a7788"/><stop offset="1" stop-color="#242e38"/></linearGradient><path fill="url(#SVGID_00000063634499345700524050000013013303697212485008_)" d="M368.1 61.9H143.9l-112.2 194 112.2 194.4h224.2l112.2-194.4z"/><linearGradient id="SVGID_00000034054460330307076600000009150002408667540109_" gradientUnits="userSpaceOnUse" x1="40.735" y1="255.946" x2="471.265" y2="255.946"><stop offset="0" stop-color="#445f70"/><stop offset="1" stop-color="#242e38"/></linearGradient><path d="M471.3 255.9l-14.8 25.8-10.3 17.7-34 58.7-5.2 8.9-13.4 23.3-4.5 7.8-21.7 37.4-3.9 6.8H148.4l-3.1-5.4-24.4-42.4-10.3-17.7-7.8-13.6-1.1-2.1-44.3-76.8-6.7-11.3-9.9-17.2 9.8-17 1.7-2.8 19.6-33.9c0-.1 0-.1.1-.1l3-5.3 33-57.2 17.3-30 22.3-38.4.8-1.6h215.4l4.4 7.5 19.2 33.4.6 1 19.5 33.8v.1l5.2 8.9 21.5 37.3 5.2 9 2.1 3.6 10.3 17.6 19.5 34.2z" fill="url(#SVGID_00000034054460330307076600000009150002408667540109_)"/><path d="M354 435.4v6.8h9.6l3.9-6.8H354zm-17.1 6.4c-7.3-7.9-19.5-9-27.3-1.9l-1.9 1.9c-.1.2-.3.4-.3.6h29.8c.1-.1-.2-.5-.3-.6zm-70.3-6.4v6.8h19.3v-6.8h-19.3zm-33.8 0v6.8h19.3v-6.8h-19.3zm-17.6 6.4c-3.6-4.2-9.1-7.3-14.6-6.6-5.5-.6-10.9 1.9-14.6 6.6-.1.2-.3.4-.3.6h30c-.3-.1-.5-.5-.5-.6zm-69.9-6.4v1.5l3.1 5.4h16.1v-6.8h-19.2zm241.4-77.3l-1.9 1.9c-6 10.9-6 24.2.6 35 1.1 1.2 2.3 2.2 3.6 3.1l4.5-7.8c-.2-.3-.4-.6-.7-.9-3-7.3-3-15.8 0-23.1 1.9-3.6 6.6-5.4 10.3-3.6 1.2.6 2.4 1.8 3.6 3.6.1.2.2.5.3.7l5.2-8.9c-7.4-6.2-18.3-6.7-25.5 0zm-42.5-3.8v9h9v38.2h10.3v-47.3l-19.3.1zm-33.8 0v9h9v38.2h10.3v-47.3l-19.3.1zm-17.1 6.1c-7.3-7.9-19.4-9-27.2-1.9l-1.9 1.9c-6.6 10.9-6.6 24.9 0 35.6 7.3 7.9 19.5 9 27.3 1.9l1.8-1.9c6.1-11.3 6.1-24.6 0-35.6zm-7.8 29c-1.2 2.4-4.2 4.2-7.3 4.2-3 0-5.5-1.9-6.6-4.2-3-7.3-3-15.8 0-23.1 1.2-2.4 4.2-4.2 6.6-4.2 3 0 6 1.9 7.3 4.2 3.1 7.6 3.1 16 0 23.1zm-46.2-29c-3.6-4.9-9-7.3-14.6-6.6-5.5-.6-11.5 1.9-14.6 6.6-6.6 10.9-6.6 24.9 0 35.6 3.6 4.2 9 7.3 14.6 6.6 5.4.6 10.9-2.4 14.6-6.6 6.5-11.3 6.5-24.6 0-35.6zm-7.2 29c-1.9 3.6-6.6 5.4-10.3 3.6-1.2-.6-2.4-1.9-3.6-3.6-3-7.3-3-15.8 0-23.1 1.8-3.6 6.6-5.4 10.3-3.6 1.2.6 2.4 1.8 3.6 3.6 3.1 7.6 3.1 16 0 23.1zm-62.5-35.1v9h9v38.2h10.3v-47.3l-19.3.1zm-33.9 0v9h9.1v38.2h10.3v-47.3l-19.4.1zm-34.1 0v7l1.1 2.1h7.9V377l10.3 17.7v-40.3l-19.3-.1zm335.6-81.2v9h9.1v17.3l10.3-17.7v-8.6h-19.4zm-34 0v9h9v38.2h9.6V273l-18.6.1zm-34.8 0v9h9.1v38.2h10.3V273l-19.4.1zm-33.7 0v9h9v38.2H354V273l-19.3.1zm-17.2 6.1c-7.3-7.9-19.5-9-27.3-1.9l-1.8 1.9c-6.6 10.9-6.6 24.9 0 35.6 7.3 7.9 19.4 9 27.2 1.8l1.9-1.8c6-11.4 6-24.8 0-35.6zm-7.6 29c-1.2 2.4-4.2 4.2-6.6 4.2-3 0-6-1.9-7.3-4.2-1.9-3.6-2.4-7.3-2.4-11.5 0-3.6.6-7.9 2.4-11.5 1.2-3 4.2-4.2 7.3-4.2 3 0 5.5 1.9 6.6 4.2 1.9 3.6 2.4 7.3 2.4 11.5-.3 4.3-1.4 7.9-2.4 11.5zm-62.8-35.1v9h9.1v38.2h10.3V273l-19.4.1zm-33.8 0v9h9v38.2h10.3V273l-19.3.1zm-17.6 6.1c-3.6-4.2-9.1-7.3-14.6-6.6-5.5-.6-11.5 2.4-14.6 6.6-6.6 10.9-6.6 24.9 0 35.6 3.6 4.9 9 7.3 14.6 6.6 5.5.6 11.5-1.8 14.6-6.6 6.5-11.4 6.5-24.8 0-35.6zm-8 29c-1.2 2.4-3.6 4.2-6.6 4.2s-6-1.9-7.3-4.2c-1.9-3.6-2.4-7.3-2.4-11.5 0-3.6.6-7.9 2.4-11.5 1.2-3 4.2-4.2 7.3-4.2s5.4 1.9 6.6 4.2c1.9 3.6 2.4 7.3 2.4 11.5.2 4.3-.5 7.9-2.4 11.5zm-45.4-29c-3.6-4.2-9-7.3-14.6-6.6-6-.6-11.5 1.9-15.2 6.6-6.6 10.9-6.6 24.9 0 35.6 3.6 4.9 9 7.3 14.6 6.6 5.4.6 10.9-1.8 14.6-6.6 6.7-11.4 6.7-24.8.6-35.6zm-7.9 29c-1.9 3.6-6.6 5.4-10.3 3.6-1.9-.6-3-1.8-3.6-3.6-1.9-3.6-2.4-7.3-2.4-11.5 0-3.6.6-7.9 2.4-11.5 1.9-3.6 6.6-5.5 10.3-3.6 1.9.6 3 1.9 3.6 3.6 1.9 3.6 2.4 7.3 2.4 11.5 0 4.3-.6 7.9-2.4 11.5zm-62.5-35.1v9H81v38.2h10.3V273l-19.4.1zm-21.2 0l6.6 11.5v-11.5h-6.6zm390.7-68.8v34.6h10.3v-17l-10.3-17.6zm-7.3-12.6h-1.8v9h6.9l-5.1-9zm-19.5 6.1c-7.3-7.9-19.4-9-27.3-1.9l-1.8 1.9c-6.6 10.9-6.6 24.9 0 35.6 7.3 7.9 19.4 9 27.2 1.9l1.9-1.9c2.4-3.6 4.2-7.9 4.9-12.7v-10c-.7-5-1.9-9.2-4.9-12.9zm-7.3 29.1c-1.9 3.6-6.6 5.4-10.3 3.6-1.9-.6-3-1.8-3.6-3.6-1.9-3.6-2.4-7.3-2.4-11.5s.6-7.9 2.4-11.5c1.8-3.6 6.6-5.5 10.3-3.6 1.9.6 3 1.9 3.6 3.6 1.9 3.6 2.4 7.3 2.4 11.5-.5 4.1-1.2 7.9-2.4 11.5zm-63.1-35.2v9h9v38.2h10.3v-47.3l-19.3.1zm-33.8 0v9h9v38.2h10.3v-47.3l-19.3.1zm-17.1 6.2c-7.3-7.9-19.4-9-27.2-1.9l-1.9 1.9c-6.6 10.9-6.6 24.9 0 35.6 7.3 7.9 19.5 9 27.3 1.8l1.8-1.8c6.1-11.4 6.1-24.8 0-35.6zm-7.8 29c-1.2 3-4.2 4.2-7.3 4.2-3 0-5.5-1.9-6.6-4.2-1.9-3.6-2.4-7.3-2.4-11.5s.6-7.9 2.4-11.5c1.2-3 3.6-4.2 6.6-4.2 3 0 6 1.9 7.3 4.2 1.9 3.6 2.4 7.3 2.4 11.5.1 4.1-1.2 7.9-2.4 11.5zM223 191.7v9h9v38.2h10.3v-47.3l-19.3.1zm-33.9 0v9h9v38.2h10.3v-47.3l-19.3.1zm-34.2 0v9h9.1v38.2h10.3v-47.3l-19.4.1zm-33.8 0v9h9v38.2h10.3v-47.3l-19.3.1zm-17.6 6.2c-3.6-4.2-9.1-7.3-14.6-6.6-5.1-.6-10.2 1.5-13.8 5.7-.3.3-.5.6-.8.9-.8 1.3-1.6 2.8-2.3 4.4 0 .1 0 .1-.1.1-4.2 10-3.5 21.9 2.3 31.3 3.6 4.9 9 7.3 14.6 6.6 5.4.6 10.9-2.4 14.6-6.6 6.2-11.6 6.2-25 .1-35.8zm-7.9 29c-1.9 3.6-6.6 5.4-10.3 3.6-1.9-.6-3-1.8-3.6-3.6-1.9-3.6-2.4-7.3-2.4-11.5s.6-7.9 2.4-11.5c1.8-3.6 6.6-5.5 10.3-3.6 1.9.6 3 1.9 3.6 3.6 1.8 3.6 2.4 7.3 2.4 11.5 0 4.1-.6 7.9-2.4 11.5zM50.7 239h1.7v-2.8l-1.7 2.8zm356.5-93.7c.7 2.4 1.9 4.7 3.1 6.8.6.7 1.2 1.5 2.1 2.2l-5.2-9zm-38.8-34.8v9h9.1v38.3h10.3v-47.3h-19.4zm-17 5.9c-7.3-7.9-19.5-9-27.3-1.9l-1.9 1.9c-6.6 10.9-6.6 24.9 0 35.6 7.3 7.9 19.5 9 27.3 1.9l1.9-1.9c6.2-10.9 6.2-24.7 0-35.6zm-7.9 29.1c-1.9 3.6-6.6 5.4-10.3 3.6-1.2-.6-2.4-1.9-3.6-3.6-3-7.3-3-15.8 0-23.1 1.8-3.6 6.6-5.4 10.3-3.6 1.2.6 2.4 1.8 3.6 3.6 3.1 7.5 3.1 15.8 0 23.1zm-62.1-35v9h9v38.3h10.3v-47.3h-19.3zm-34.3 0v9h9.1v38.3h10.3v-47.3h-19.4zm-33.8 0v9h9v38.3h10.3v-47.3h-19.3zm-17.6 5.9c-3.6-4.9-9.1-7.3-14.6-6.6-5.5-.6-11.5 1.9-14.6 6.6-6.6 10.9-6.6 24.9 0 35.6 3.6 4.2 9 7.3 14.6 6.6 5.5.6 10.9-2.4 14.6-6.6 6.5-10.9 6.5-24.7 0-35.6zm-8 29.1c-1.2 2.4-4.2 4.2-6.6 4.2-3 0-5.5-1.9-7.3-4.2-3-7.3-3-15.8 0-23.1 1.2-2.4 4.2-4.2 7.3-4.2s5.4 1.9 6.6 4.2c3.1 7.5 3.1 15.8 0 23.1zm-45.4-29.1c-3.6-4.9-9-7.3-14.6-6.6-.8-.1-1.6-.1-2.4-.1l-17.3 30c.7 4.4 2.2 8.6 4.6 12.3 3.6 4.2 9 7.3 14.6 6.6 5.4.6 10.9-2.4 14.6-6.6 6.6-10.9 6.6-24.7.5-35.6zm-7.9 29.1c-1.9 3.6-6.6 5.4-10.3 3.6-1.9-.6-3-1.9-3.6-3.6-3-7.3-3-15.8 0-23.1 1.9-3.6 6.6-5.4 10.3-3.6 1.9.6 3 1.8 3.6 3.6 3.1 7.5 3.1 15.8 0 23.1zm229.2-75.8h-.5v7.5h4.9l-4.4-7.5zm-56.2 0c.1.3.3.6.5.8 7.3 7.9 19.5 9 27.9 1.9l1.9-1.9c.2-.3.3-.5.5-.8h-30.8zm-54.1 0c.1.3.3.6.5.8 3.6 4.2 9.1 7.3 14.6 6.6 5.5.6 10.9-1.9 14.6-6.6.2-.3.4-.5.5-.8h-30.2zm-53.7 0c.2.3.4.6.6.8 3.6 4.2 9 7.3 14.6 6.6 5.4.6 10.9-1.9 14.6-6.6.2-.3.4-.5.5-.8h-30.3zm-51.2 0l-.8 1.6c3.6 3.8 8.8 6.5 14 5.9 5.5.6 10.9-1.9 14.6-6.6.2-.3.4-.5.5-.8-.1-.2-28.3-.2-28.3-.1z" opacity=".2" fill="#242e38"/><path fill="none" d="M363.6 69.7H148.4L40.8 255.9l107.6 186.5h215.2l107.7-186.5z"/><circle cx="255.9" cy="255.8" r="83.6" fill="#445f70"/><path class="st10" d="M226.1 213.3l6 8.6c-18.9 13.2-23.5 39.3-10.4 58.2 13.2 19 39.3 23.5 58.2 10.4 18.9-13.2 23.5-39.3 10.4-58.2-2.8-4-6.3-7.5-10.4-10.4l6-8.6c14.1 9.8 22.4 25.8 22.4 42.8 0 28.9-23.4 52.3-52.3 52.3s-52.3-23.4-52.3-52.3c-.1-17.3 8.4-33.1 22.4-42.8zm24.6 42.6v-52.2h10.5V256h-10.5v-.1z"/><path class="st10" d="M255.9 310.3c-29.9 0-54.3-24.3-54.3-54.3 0-17.7 8.7-34.4 23.1-44.4.9-.6 2.2-.4 2.8.5l6 8.6c.6.9.4 2.2-.5 2.8-8.8 6.1-14.5 15.2-16.4 25.7-1.9 10.6.5 21 6.6 29.8s15.2 14.5 25.7 16.4c10.6 1.9 21-.5 29.8-6.6 17.9-12.5 22.4-37.4 9.8-55.5-2.7-3.8-6-7.1-9.8-9.8-.9-.6-1.1-1.9-.5-2.8l6-8.6c.6-.9 1.9-1.1 2.8-.5 14.5 10.2 23.2 26.7 23.1 44.4.3 30-24.1 54.3-54.2 54.3zM225.5 216c-12.4 9.5-19.8 24.3-19.8 40 0 27.8 22.6 50.3 50.3 50.3s50.3-22.6 50.3-50.3c0-15.7-7.4-30.6-19.8-40l-3.7 5.4c3.5 2.7 6.6 5.9 9.2 9.6 13.8 19.8 9.1 47.1-10.8 61-9.6 6.7-21.2 9.3-32.7 7.3-11.5-2.1-21.5-8.5-28.3-18-6.7-9.6-9.3-21.2-7.3-32.7 2-10.9 7.8-20.4 16.4-27.1l-3.8-5.5zm35.8 42.1h-10.5c-1.1 0-2-.9-2-2v-52.2c0-1.1.9-2 2-2h10.5c1.1 0 2 .9 2 2v52.3c0 .8-1 1.9-2 1.9zm-8.5-4.1h6.5v-48.3h-6.5V254z"/><circle class="st1" cx="404" cy="404" r="57.3"/><path d="M421.9 395.5h-.3v-13.4c0-8.9-6.6-16.4-15.5-17.4h-4.2c-1 .3-1.9.3-2.9.6-7.6 2.3-12.7 9.2-12.7 17v13c-4.9 0-8.9 3.9-8.9 8.9v22.3c0 4.7 3.9 8.6 8.6 8.6h35.7c4.9 0 8.6-3.9 8.9-8.9V404c-.2-4.6-3.8-8.5-8.7-8.5zm-15.3 21c-.3.3-.3.6-.3 1v6.6c0 1.3-1 2.3-1.9 2.3h-1c-1-.3-1.6-1.3-1.3-2.3v-6.6c0-.3-.3-.6-.6-1-1.6-1-1.9-2.9-1.6-4.7.6-2.3 3.2-3.6 5.7-2.6 1.3.3 2.3 1.3 2.6 2.6.2 1.7-.4 3.7-1.6 4.7zm6.1-21H395v-13.8c0-4.9 3.9-8.9 8.6-8.9 4.9 0 8.9 3.9 8.9 8.6.2 4.7.2 9.1.2 14.1z" fill="#435e6f"/></svg>