<svg version="1.1" id="Layer_1" xmlns="http://www.w3.org/2000/svg" x="0" y="0" viewBox="0 0 512 512" xml:space="preserve"><style>.st1{fill:#fac212}</style><circle class="st1" cx="404" cy="404" r="108.4" opacity=".1"/><circle class="st1" cx="404" cy="404" r="78.4" opacity=".4"/><linearGradient id="SVGID_1_" gradientUnits="userSpaceOnUse" x1="254.6" y1="453.366" x2="254.6" y2="111.975" gradientTransform="matrix(1 0 0 -1 0 512)"><stop offset="0" stop-color="#5f798a"/><stop offset="1" stop-color="#5f798a" stop-opacity="0"/></linearGradient><path d="M254.6 413.8c-94.1 0-170.7-75.5-170.7-168.3S160.5 77.2 254.6 77.2s170.7 75.5 170.7 168.3-76.6 168.3-170.7 168.3zm0-333.6c-92.5 0-167.7 74.2-167.7 165.3s75.2 165.3 167.7 165.3 167.7-74.2 167.7-165.3S347.1 80.2 254.6 80.2z" fill="url(#SVGID_1_)"/><linearGradient id="SVGID_00000092415002343105350970000013202482872333415050_" gradientUnits="userSpaceOnUse" x1="254.6" y1="433.339" x2="254.6" y2="99.739" gradientTransform="matrix(1 0 0 -1 0 512)"><stop offset="0" stop-color="#445f70"/><stop offset="1" stop-color="#242e38"/></linearGradient><ellipse cx="254.6" cy="245.5" rx="169.2" ry="166.8" fill="url(#SVGID_00000092415002343105350970000013202482872333415050_)"/><linearGradient id="SVGID_00000044143844742853091240000005791375004968112822_" gradientUnits="userSpaceOnUse" x1="254.6" y1="111.538" x2="254.6" y2="421.538" gradientTransform="matrix(1 0 0 -1 0 512)"><stop offset="0" stop-color="#445f70"/><stop offset="1" stop-color="#242e38"/></linearGradient><ellipse cx="254.6" cy="245.5" rx="157.2" ry="155" fill="url(#SVGID_00000044143844742853091240000005791375004968112822_)"/><path d="M470.8 184.4C424.9 75.3 348.3 13 228.6 25.7 134.2 35.6 74 93.9 41.4 183.3c-17.8-1.8-26 3-32.2 20.7-10.8 30.5-11 61.1.5 91.5 6.3 16.7 17.2 23.3 33.2 20.5 12.2 41.1 35.5 75.3 67.2 103.7 24.9 22.2 53.2 38 84.8 48.2 12.6 4.1 24.7 9 36.7 15 17.3 8.8 34.8 5.4 51.7-3.9 12.6-6.9 13.4-15.8 3.7-26.3-11.1-11.9-38.6-12.6-54.6-2.8-11.2 6.9-20.8 7.1-31.8 3.9-86.7-25.2-138-89.2-149.4-168.7-12.9-90.8 22.3-175.8 96.7-219.6 120.9-71 273.9-6.4 308.3 131.4 6.7 26.7 3.4 90.7 3.4 94.2.1 13.1 8.1 21.5 18.9 25.7 11.3 4.3 17.3-5.2 21.1-13.7 15.5-35.5 15.1-71.1-2.2-105.9-5.2-10.6-13.4-18.4-26.6-12.8z" fill="#445f70"/><path d="M232.7 204.2c-.4 1.9-.4 3.9-1.1 5.7-1.9 4.7-4 9.4-6.1 13.9-.5 1.1-.5 1.9.3 2.9 12.6 16.7 28.1 30.3 46.3 40.7 1.2.7 2 .5 3-.1 4.4-2.7 8.9-5.4 13.3-8.1 2.6-1.6 5.3-1.7 7.9-.3 10.4 5.4 20.7 10.8 31 16.2 3.8 2 5.4 6.4 3.8 10.4-3.8 9.5-9.7 17.5-17.2 24.3-2.2 2-4.9 2.3-7.8 1.7-17.1-4-33.4-10.2-48.7-18.8-25.8-14.7-46.8-34.7-62.7-59.7-6.9-10.8-12.4-22.2-16.9-34.3-1.2-3.2-.8-6.2 1.3-9 5.5-7.6 12.2-13.8 20.3-18.7 4.6-2.8 9.1-1.9 12.1 2.5 6.5 9.2 12.9 18.3 19.4 27.6.6.9 1 2 1.5 3 0 0 .2.1.3.1z" fill="#fff"/><circle class="st1" cx="404" cy="404" r="57.3"/><path d="M439 382.8v31.7c0 4.1-3.4 7.5-7.5 7.5h-11L408 438.9c-1 1-2.5 1-3.5 0L392 422h-11.8c-4.1 0-7.5-3.4-7.5-7.5v-31.7c0-4.1 3.4-7.5 7.5-7.5h51.3c4.1.1 7.5 3.4 7.5 7.5z" fill="#435e6f"/></svg>