<?xml version="1.0"?>
<svg xmlns="http://www.w3.org/2000/svg" xmlns:xlink="http://www.w3.org/1999/xlink" xmlns:svgjs="http://svgjs.com/svgjs" version="1.1" width="512" height="512" x="0" y="0" viewBox="0 0 30 30" style="enable-background:new 0 0 512 512" xml:space="preserve" class=""><g><g fill="rgb(0,0,0)"><path d="m20 4.36206v-2.36206h1v-2h-8v2h1v2.36621c-3.01971.71521-5.7442 2.51526-7.5625 5.05127l1.625 1.16504c1.67969-2.3418 4.26807-3.95508 7.104-4.42676 1.22461-.20703 2.44092-.20752 3.66846.00049 5.31055.88818 9.16504 5.44873 9.16504 10.84375 0 6.06543-4.93457 11-11 11-3.53467 0-6.87549-1.71338-8.93799-4.5835l-1.62402 1.167c2.43701 3.3916 6.38525 5.4165 10.56201 5.4165 7.16846 0 13-5.83154 13-13 0-6.08868-4.15955-11.26843-10-12.63794zm-4-.31885v-2.04321h2v2.04327c-.66693-.05194-1.33411-.05188-2-.00006z" fill="#71798d" data-original="#000000" class=""/><path d="m0 16h9v2h-9z" fill="#71798d" data-original="#000000" class=""/><path d="m2 12h9v2h-9z" fill="#71798d" data-original="#000000" class=""/><path d="m2 20h9v2h-9z" fill="#71798d" data-original="#000000" class=""/><path d="m21.94287 10.64307-3.65753 3.65753c-.39111-.18714-.82361-.3006-1.28534-.3006-1.6543 0-3 1.3457-3 3s1.3457 3 3 3 3-1.3457 3-3c0-.46173-.11346-.89423-.3006-1.28534l3.65753-3.65753zm-4.94287 7.35693c-.55127 0-1-.44873-1-1s.44873-1 1-1 1 .44873 1 1-.44873 1-1 1z" fill="#71798d" data-original="#000000" class=""/></g></g></svg>
