<svg xmlns="http://www.w3.org/2000/svg" viewBox="0 0 32 32"><path d="M24.8 8.827c-1.92 0-3.733.747-5.027 2.04L16 14.214l-2.027 1.787h.013l-3.587 3.187a4.488 4.488 0 01-3.2 1.32c-2.493 0-4.52-2.013-4.52-4.507s2.027-4.507 4.52-4.507c1.213 0 2.347.467 3.253 1.373l1.507 1.333 2.013-1.787-1.68-1.48a7.16 7.16 0 00-5.093-2.107c-3.973 0-7.2 3.227-7.2 7.173s3.227 7.173 7.2 7.173c1.92 0 3.733-.747 5.027-2.04l3.773-3.333.013.013 2.013-1.813h-.013l3.587-3.187a4.488 4.488 0 013.2-1.32c2.493 0 4.52 2.013 4.52 4.507s-2.027 4.507-4.52 4.507c-1.2 0-2.347-.467-3.253-1.373l-1.52-1.347-2.013 1.787 1.693 1.493a7.18 7.18 0 005.093 2.093c3.973 0 7.2-3.213 7.2-7.173s-3.227-7.16-7.2-7.16z"/></svg>