<svg xmlns="http://www.w3.org/2000/svg" viewBox="0 0 31 32"><path d="M27.098 26.417C13.889 32.681 5.719 27.506.545 24.238c-.272-.136-.817 0-.408.545C1.907 26.962 7.626 32 15.116 32s11.847-4.085 12.528-4.766c.409-.681.136-1.089-.545-.817z"/><path d="M30.911 24.374c-.409-.409-2.179-.545-3.268-.409s-2.86.817-2.723 1.226c.136.136.272.136.953 0 .817-.136 2.996-.409 3.404.272.409.545-.681 3.404-.953 3.949-.136.409.136.545.409.272.409-.272 1.089-1.089 1.498-2.179.681-1.226.953-2.86.681-3.132zM23.83 16.34V5.855C23.83 4.085 22.06 0 15.796 0S6.128 3.949 6.128 7.489l5.311.409s1.226-3.54 3.813-3.54c2.723 0 2.587 2.179 2.587 2.723v2.315c-3.54.136-12.119 1.089-12.119 8.443 0 7.762 9.804 8.17 13.072 3.132.136.272.272.409.409.545l2.723 2.723 4.085-3.949c.136-.136-2.179-1.906-2.179-3.949zm-5.992-.817c0 5.719-5.992 4.902-5.992 1.226 0-3.404 3.54-4.085 5.992-4.085v2.86z"/></svg>