<svg xmlns="http://www.w3.org/2000/svg" viewBox="0 0 32 32"><path d="M29.333 26.667H2.666A2.675 2.675 0 01-.001 24V4c0-1.467 1.2-2.667 2.667-2.667h26.667C30.8 1.333 32 2.533 32 4v20c0 1.467-1.2 2.667-2.667 2.667zM4 24h2.667v-6.667c0-.8-.533-1.333-1.333-1.333s-1.333.533-1.333 1.333V24zm4 0h16v-8H8v8zm17.333 0H28v-6.667c0-.8-.533-1.333-1.333-1.333s-1.333.533-1.333 1.333V24zM20.4 8l1.467-2.267c.267-.267.133-.667-.133-.933s-.667-.133-.933.133l-1.6 2.4c-2-.933-4.4-.933-6.4 0l-1.6-2.4c-.133-.267-.667-.4-.933-.267s-.4.667-.267.933l1.467 2.267c-2.267 1.467-3.6 4-3.6 6.667h16C24.001 12 22.668 9.466 20.401 8zm-7.067 4c-.8 0-1.333-.533-1.333-1.333s.533-1.333 1.333-1.333 1.333.533 1.333 1.333S14.133 12 13.333 12zm5.334 0c-.8 0-1.333-.533-1.333-1.333s.533-1.333 1.333-1.333S20 9.867 20 10.667 19.467 12 18.667 12z"/></svg>