<svg xmlns="http://www.w3.org/2000/svg" viewBox="0 0 32 32"><path fill="#1a9ffe" d="M31.985 15.992c0 8.832-7.16 15.992-15.992 15.992S.001 24.824.001 15.992 7.161 0 15.993 0s15.992 7.16 15.992 15.992z"/><path fill="#fff" d="M23.529 9.345H20.68a3.418 3.418 0 00-3.316-2.653h-2.698a3.403 3.403 0 00-3.301 2.653H8.456c-.904 0-1.628.739-1.628 1.628v7.974a.74.74 0 00.739.739h.136v3.693c0 .904.739 1.628 1.628 1.628h13.294c.904 0 1.628-.739 1.628-1.628v-3.693h.136a.74.74 0 00.739-.739v-7.974c.045-.904-.693-1.628-1.598-1.628zm-10.627.151a1.932 1.932 0 011.764-1.176h2.668a1.924 1.924 0 011.809 1.176h-6.24zm4.432 7.084h-2.668a.74.74 0 00-.739.739v1.025H8.32v-7.235c0-.075.06-.136.136-.136h15.073c.075 0 .136.06.136.136v7.235h-5.607v-1.01a.722.722 0 00-.724-.754zm-1.914 3.542v-2.05h1.176v2.05H15.42zm-6.21-.271h4.718v1.025a.74.74 0 00.739.739h2.668a.74.74 0 00.739-.739v-1.025h4.718v3.693c0 .075-.06.136-.136.136H9.347a.136.136 0 01-.136-.136v-3.693z"/></svg>