<svg xmlns="http://www.w3.org/2000/svg" viewBox="0 0 32 32"><path d="M16 21.333a5.333 5.333 0 110-10.666 5.333 5.333 0 110 10.666zm-7.48-8L4 5.436C6.872 2.112 11.088 0 15.792 0c5.783 0 10.828 3.184 13.541 7.896H15.956c-3.467 0-6.408 2.284-7.436 5.437zm8.813 10.71L12.885 32C5.576 30.676 0 24.091 0 16.168 0 13.185.805 10.397 2.18 8l6.813 12.191.009-.004c1.348 2.403 3.859 4.027 6.736 4.027.547 0 1.08-.06 1.595-.171zm4.672-13.376h9.051c.6 1.672.944 3.463.944 5.336C32 24.771 24.837 31.907 16 32l6.997-11.996-.008-.004a7.79 7.79 0 001.093-3.997 7.888 7.888 0 00-2.084-5.342l.005.006z"/></svg>