<svg xmlns="http://www.w3.org/2000/svg" viewBox="0 0 36 32"><path d="M35.782 15.088C32.393 8.475 25.683 4 18 4S3.605 8.477.218 15.088c-.137.265-.217.579-.217.912s.08.647.223.924l-.005-.011c3.389 6.613 10.099 11.088 17.782 11.088s14.395-4.477 17.782-11.088c.137-.265.217-.579.217-.912s-.08-.647-.223-.924l.005.011zM18 25c-4.971 0-9-4.029-9-9s4.029-9 9-9a9 9 0 019 9v.004A8.996 8.996 0 0118.004 25h-.005zm0-15a5.933 5.933 0 00-1.624.248l.042-.011a2.99 2.99 0 01-4.19 4.175l.008.006A5.986 5.986 0 1018.013 10h-.015.001z"/></svg>