<svg xmlns="http://www.w3.org/2000/svg" viewBox="0 0 40 32"><path d="M20 25c-4.741 0-8.578-3.669-8.931-8.319l-6.556-5.067c-.862 1.081-1.655 2.224-2.295 3.474-.137.265-.217.579-.217.912s.08.647.223.924l-.005-.011c3.389 6.613 10.099 11.088 17.782 11.088 1.682 0 3.304-.25 4.868-.654l-3.243-2.509a8.738 8.738 0 01-1.621.163h-.004zm19.614 3.631l-6.909-5.34a20.83 20.83 0 005.024-6.265l.054-.114c.137-.265.217-.579.217-.912s-.08-.647-.223-.924l.005.011C34.393 8.474 27.683 3.999 20 3.999a19.175 19.175 0 00-9.306 2.406l.099-.05L2.842.209A.998.998 0 001.44.382l-.002.002L.211 1.963a.998.998 0 00.174 1.402l.002.002L37.16 31.788a.998.998 0 001.402-.173l.002-.002 1.227-1.579a.998.998 0 00-.174-1.401l-.002-.002zm-11.483-8.875l-2.456-1.899c.198-.552.316-1.19.325-1.853V16v-.078a5.922 5.922 0 00-7.624-5.674l.042-.011c.362.487.581 1.099.582 1.763-.01.227-.045.441-.101.645l.005-.02-4.601-3.556A8.842 8.842 0 0120 7h.005A8.995 8.995 0 0129 15.995V16c0 1.352-.331 2.612-.869 3.757z"/></svg>