<svg xmlns="http://www.w3.org/2000/svg" viewBox="0 0 32 32"><path d="M16.123 31.019c-3.369 0-6.373-.896-9.009-2.687-2.637-1.792-4.599-4.164-5.884-7.117C.539 19.655.141 17.864.034 15.84s.047-4.003.464-5.937a22.753 22.753 0 012.043-5.7l-.06.127C3.385 2.553 4.45 1.107 5.677.001L5.481 5.02c.131-.167.535-.26 1.213-.277.68-.017 1.096.075 1.251.277.5-.965 1.455-1.787 2.867-2.465 1.411-.679 2.807-1.029 4.187-1.053-.643.536-1.353 1.42-2.133 2.652s-1.128 2.205-1.045 2.92a7.19 7.19 0 001.116.24c.447.067.821.111 1.125.135s.708.048 1.213.072c.507.023.808.04.903.053.179.059.236.331.171.813a3.01 3.01 0 01-.545 1.347c-.093.122-.19.23-.294.33l-.001.001c-.137.137-.473.348-1.009.635a5.92 5.92 0 01-1.766.601l-.036.005.267 3.375-2.481-1.196c-.213.512-.259.997-.133 1.456.124.457.339.853.641 1.187.304.333.693.581 1.171.741.476.16.959.2 1.447.116a5.709 5.709 0 001.749-.616c.56-.304 1.057-.572 1.492-.804a2.463 2.463 0 011.312-.312c.727.048 1.259.244 1.599.589.339.345.455.733.347 1.16l-.044.099a1.324 1.324 0 01-.468.497l-.006.003a1.764 1.764 0 01-.551.185l-.011.001a2.618 2.618 0 01-.845.017l.014.002c-.715 1.131-1.575 1.937-2.581 2.42-1.005.483-2.253.657-3.741.527a7.164 7.164 0 002.853 1.463l.05.011c1.053.256 2.056.292 3.009.107a10.958 10.958 0 002.822-.957l-.064.029a9.104 9.104 0 002.29-1.567l-.005.004c.637-.607 1.116-1.227 1.437-1.857a7.163 7.163 0 00.696-3.453l.001.016a10.404 10.404 0 00-.694-3.438l.024.071c-.4-1.036-.867-1.78-1.403-2.232 1.036.453 1.852.925 2.447 1.42.596.493 1.053 1.164 1.375 2.009.179-2.024-.163-4.067-1.027-6.125-.863-2.06-2.109-3.751-3.741-5.072 3.155.916 5.608 2.58 7.357 4.991 1.752 2.412 2.649 5.492 2.699 9.241l.001.159c0 1.573-.265 3.084-.754 4.491l.029-.096a15.234 15.234 0 01-2.234 4.29l.029-.04a18.573 18.573 0 01-3.338 3.473l-.037.028a15.086 15.086 0 01-4.314 2.386l-.106.033c-1.526.56-3.287.884-5.124.884h-.029.002z"/></svg>