<svg xmlns="http://www.w3.org/2000/svg" viewBox="0 0 31 32"><path d="M21.031 10C20.125 4.419 17.987.5 15.5.5S10.875 4.419 9.969 10h11.063zM9.5 16c0 1.387.075 2.719.206 4h11.581c.131-1.281.206-2.613.206-4s-.075-2.719-.206-4H9.706a39.251 39.251 0 00-.206 4zm20.294-6a15.533 15.533 0 00-9.875-8.85c1.525 2.112 2.575 5.294 3.125 8.85h6.75zM11.075 1.15A15.52 15.52 0 001.206 10h6.75C8.5 6.444 9.55 3.263 11.075 1.15zM30.462 12h-7.169c.131 1.313.206 2.656.206 4s-.075 2.688-.206 4h7.162c.344-1.281.538-2.613.538-4s-.194-2.719-.531-4zM7.5 16c0-1.344.075-2.688.206-4H.537C.199 13.281 0 14.613 0 16s.2 2.719.537 4h7.162a42.325 42.325 0 01-.2-4zm2.469 6c.906 5.581 3.044 9.5 5.531 9.5s4.625-3.919 5.531-9.5H9.968zm9.956 8.85A15.545 15.545 0 0029.8 22h-6.75c-.55 3.556-1.6 6.738-3.125 8.85zM1.206 22a15.533 15.533 0 009.875 8.85C9.556 28.737 8.506 25.556 7.956 22h-6.75z"/></svg>