<svg xmlns="http://www.w3.org/2000/svg" viewBox="0 0 32 32"><path fill="#1a9ffe" d="M31.985 15.992c0 8.832-7.16 15.992-15.992 15.992S.001 24.824.001 15.992 7.161 0 15.993 0s15.992 7.16 15.992 15.992z"/><path fill="#fff" d="M24.494 20.168a.278.278 0 00-.03-.105c0-.03-.015-.045-.015-.075v-.015-.015c0-.03-.015-.06-.03-.09 0-.015 0-.03-.015-.045 0-.015-.015-.045-.015-.06-.015-.03-.015-.06-.03-.09 0-.015-.015-.03-.015-.045s0-.03-.015-.045c0-.015 0-.03-.015-.045a.278.278 0 01-.03-.105c0-.015-.015-.03-.015-.045s-.015-.045-.03-.06v-.015c-.015-.045-.03-.075-.045-.121-.015-.03-.03-.075-.045-.105v-.015-.015l-.045-.09c-.015-.03-.03-.075-.045-.105 0 0 0-.015-.015-.015 0-.015 0-.015-.015-.03-.015-.03-.03-.045-.045-.075s-.03-.06-.045-.075c0-.015-.015-.03-.03-.045 0 0 0-.015-.015-.015v-.015s0-.015-.015-.015a.114.114 0 01-.03-.06c-.015-.03-.045-.075-.06-.105-.015-.015-.015-.03-.03-.045s-.03-.045-.03-.06c-.03-.06-.075-.105-.105-.166-.03-.045-.075-.105-.105-.151-.06-.09-.136-.166-.211-.256a5.015 5.015 0 00-.271-.286 3.712 3.712 0 00-.693-.512c-.06-.03-.105-.06-.166-.09-.06-.03-.105-.06-.166-.075-.06-.03-.105-.045-.166-.075-.015 0-.03-.015-.045-.015l-.121-.06h-.015l-.663-.301-.422-.196a5.921 5.921 0 001.598-2.954l.045-.226v-.045c.015-.075.015-.136.03-.211 0-.075.015-.136.015-.211v-.045c0-.075.015-.136.015-.211v-.181-.12-.045-.105-.18-.136-.015-.03-.03-.045c0-.045-.015-.09-.015-.136s-.015-.09-.015-.136v-.015l-.045-.271c-.015-.06-.03-.121-.045-.166 0-.015 0-.03-.015-.045l-.045-.181c0-.015 0-.03-.015-.03-.03-.121-.075-.241-.121-.377-.075-.226-.181-.452-.286-.678a4.001 4.001 0 00-.317-.558l-.015-.015c-.136-.196-.271-.392-.422-.588-.015-.03-.045-.045-.075-.075-.06-.075-.136-.151-.211-.226l-.196-.196c-.105-.09-.196-.196-.317-.286-.075-.06-.151-.121-.226-.166s-.136-.106-.211-.151a5.946 5.946 0 00-3.346-1.04 5.95 5.95 0 00-5.939 5.939c0 1.643.663 3.135 1.748 4.205l-.467.226-.151.075h-.015l-.497.226h-.015l-.03.015c-.045.015-.09.045-.136.06-.06.015-.105.045-.166.075s-.105.06-.166.09c-.06.03-.105.06-.166.105a4.23 4.23 0 00-1.281 1.251c-.06.09-.121.196-.181.286v.015c-.045.075-.09.166-.136.256a1.17 1.17 0 00-.105.241l-.09.226v.015c-.03.075-.06.136-.075.211v.015c-.03.06-.045.136-.06.211-.015.06-.045.136-.06.196v.015c0 .015 0 .03-.015.03-.015.06-.03.105-.045.151-.241 1.085-.181 1.99-.181 2.035l.03.286.196.211c1.899 2.05 3.994 2.909 5.426 3.286 1.1.286 1.975.332 2.412.332h.407a9.85 9.85 0 002.412-.332c1.432-.377 3.527-1.236 5.426-3.286l.196-.211.03-.286c.03-.03.09-.935-.151-1.99zm-7.793 4.446v-.03l-.271.015h-.015l-.271-.015v.015c-.95-.015-3.798-.286-6.331-2.864 0-.603.105-1.975.919-2.879.151-.166.317-.317.512-.437.136-.09.271-.166.437-.226l2.05-.98a5.85 5.85 0 002.668.633c.889 0 1.718-.196 2.472-.543.06-.03.121-.045.181-.075.015 0 .015-.015.03-.015h.015c.045-.015.09-.045.136-.075 0 0 .015-.015.03-.015.03.015.06.045.09.06.09.075.181.136.271.196.121.09.241.166.362.241l.347.166.196.09.603.286.045.015c.075.03.136.06.211.09.09.045.181.105.256.151.121.075.226.166.317.256l.075.075c.075.075.136.151.196.226.015.015.03.045.045.06s.03.045.045.06c.045.06.09.121.121.196.015.015.015.03.03.06.045.075.075.151.121.226.362.784.422 1.658.437 2.11-1.236 1.266-2.713 2.14-4.371 2.578a6.076 6.076 0 01-1.959.347zm-.302-16.957a4.268 4.268 0 014.175 3.361l.045.226c.015.075.03.151.03.226s.03.317.03.482v.03c0 .075 0 .166-.015.241 0 .09-.015.166-.03.256a4.288 4.288 0 01-1.432 2.683l-.226.181c-.06.045-.136.09-.196.136h-.045l-.015.03c-.136.09-.256.166-.407.241-.06.03-.136.075-.211.105s-.136.06-.211.09a4.347 4.347 0 01-1.537.286 4.182 4.182 0 01-2.306-.678l-.015-.075-.06.015a4.36 4.36 0 01-1.854-3.557A4.278 4.278 0 0116.4 7.655z"/></svg>