<svg xmlns="http://www.w3.org/2000/svg" viewBox="0 0 32 32"><path d="M27.908 25.424a4.98 4.98 0 01-.764-.577l.004.003c-.12-.12 0-.667 0-.96a1.928 1.928 0 00-.267-1.56 1.234 1.234 0 00-.208-.157l-.006-.003v-.853a13.08 13.08 0 00-3.605-8.83l.005.006a5.886 5.886 0 01-1.724-3.123l-.006-.037v-.307c0-1.84 0-5.68-2-7.692A4.505 4.505 0 0016.13-.001l-.133.002h.006c-2.799 0-4.665 1.333-4.665 8a10.63 10.63 0 01-1.613 4.949l.026-.044c-.36.693-.72 1.413-1.04 2.173-.823 1.819-1.526 3.954-2.002 6.172l-.038.213a2.124 2.124 0 00-1.038 1.59l-.001.01-.107.44a3.547 3.547 0 01-.699.184l-.021.003c-.8.16-2.133.427-2.133 1.64.004.327.04.653.107.973a4.272 4.272 0 01-.116 2.229l.009-.03a.585.585 0 000 .177v-.003c0 1.587 2.493 1.8 4 1.987h.587c.364.108.716.251 1.053.427a7.647 7.647 0 002.997.905l.03.002a1.555 1.555 0 001.145-.519l.001-.001h.067a7.798 7.798 0 013.45-.813h4.082c.068.271.2.523.387.733.399.413.959.632 1.533.6a4.263 4.263 0 003.324-1.748l.008-.012.427-.44a4.71 4.71 0 011.587-.787c.96-.347 1.947-.707 1.947-1.68s-.76-1.48-1.387-1.907zM17.337 4.001c.773 0 1.333.827 1.333 1.973s-.44 1.787-1.08 1.933a1.09 1.09 0 00.389-.836l-.002-.074V7c0-.547-.293-1-.64-1s-.64.44-.64 1a1.091 1.091 0 00.385.905l.002.001c-.64-.16-1.08-.933-1.08-1.933S16.564 4 17.337 4zm.587 5.174a7.692 7.692 0 01-3.203 1.483l-.05.009a5.019 5.019 0 01-1.997-1.329l-.003-.004a4.083 4.083 0 012.65-1.332l.016-.001a5.21 5.21 0 012.594 1.18l-.007-.006zM13.337 4c.773 0 1.333.827 1.333 1.973s-.44 1.773-1.08 1.933a1.09 1.09 0 00.389-.836l-.002-.074v.003c0-.547-.293-1-.64-1s-.64.44-.64 1a1.091 1.091 0 00.385.905l.002.001c-.64-.16-1.08-.92-1.08-1.933s.56-1.973 1.333-1.973zm-1.64 26.276c-.08.253-.2.387-.36.387a6.827 6.827 0 01-2.528-.818l.035.018a5.765 5.765 0 00-1.292-.524l-.042-.01h-.747c-1.985-.16-2.599-.4-2.732-.587a5.544 5.544 0 00.06-2.704l.007.037a4.283 4.283 0 01-.093-.738v-.009c.32-.178.695-.301 1.093-.345l.014-.001a2.66 2.66 0 001.34-.525l-.007.005c.253-.299.428-.672.492-1.081l.002-.012c.173-.707.24-.707.333-.707.4.467.717 1 .933 1.573a7.503 7.503 0 002.046 2.98l.008.007a3.03 3.03 0 011.437 3.07l.002-.017zm8.494-4c-1.96 1.973-5.88 1.84-7.613 1.573a4.905 4.905 0 00-1.517-1.71l-.016-.01a6.67 6.67 0 01-1.598-2.421l-.015-.046A5.362 5.362 0 008.1 21.57l-.001-.001a31.646 31.646 0 011.987-6.176l-.08.204c.28-.707.64-1.333.987-2.067.487-.896.907-1.827 1.253-2.785a5.122 5.122 0 002.393 1.247l.034.006a13.399 13.399 0 003.773-1.6c1.823 3.373 2.895 7.383 2.895 11.644l-.002.304v-.015a7.97 7.97 0 00-1.146 3.922v.024zm6.744 1.493a5.614 5.614 0 00-2.075 1.113l.008-.007-.453.467a3.027 3.027 0 01-2.407 1.333h-.005a.727.727 0 01-.548-.161l.001.001c-.2-.227-.147-.747-.133-.96l.013-.227c0-.4.373-4.173.493-4.773.053.08.111.156.173.227a1.78 1.78 0 001.333.56h.467a2.655 2.655 0 001.964-.603l-.004.003c.013.397.169.776.44 1.067.297.281.624.532.973.747.507.333.827.56.853.707a3.784 3.784 0 01-1.066.487l-.027.007v.013z"/></svg>