<svg xmlns="http://www.w3.org/2000/svg" viewBox="0 0 32 32"><path fill="#1a9ffe" d="M31.985 15.992c0 8.832-7.16 15.992-15.992 15.992S.001 24.824.001 15.992 7.161 0 15.993 0s15.992 7.16 15.992 15.992z"/><path fill="#fff" d="M23.83 10.099h-.497c-.377 0-.724.151-.995.407l-1.01.995a1.979 1.979 0 00-1.975-1.96H8.727a1.982 1.982 0 00-1.975 1.975v8.953c0 1.085.889 1.975 1.975 1.975h10.626a1.976 1.976 0 001.975-1.944l1.01.995c.271.256.618.407.995.407h.497c.784 0 1.417-.633 1.417-1.417v-8.968c0-.784-.633-1.417-1.417-1.417zm-3.12 7.386a.627.627 0 00-.663-.211.602.602 0 00-.422.588v2.623a.264.264 0 01-.256.256H8.727a.264.264 0 01-.256-.256v-8.968c0-.136.121-.256.256-.256h10.626c.136 0 .256.121.256.256v2.819c0 .226.136.407.347.497.211.075.437.03.588-.136l.136-.151 2.713-2.713h.136v8.366h-.136l-2.065-2.065v-.015l-.618-.633z"/></svg>