<svg xmlns="http://www.w3.org/2000/svg" viewBox="0 0 32 32"><path fill="#1a9efe" d="M32 16a16.04 16.04 0 01-3.248 9.684C25.805 29.534 21.233 32 16 32s-9.805-2.466-12.752-6.316A16.04 16.04 0 010 16C0 7.158 7.158 0 16 0s16 7.158 16 16z"/><path fill="#fff" d="M16 25.504a9.516 9.516 0 01-7.579-3.729 9.481 9.481 0 01-1.925-5.714c0-5.233 4.271-9.504 9.504-9.504s9.504 4.271 9.504 9.504c0 2.105-.662 4.09-1.925 5.714A9.516 9.516 0 0116 25.504zm0-16.361A6.854 6.854 0 009.143 16c0 1.504.481 2.947 1.383 4.15 1.323 1.744 3.308 2.707 5.414 2.707 2.165 0 4.15-.962 5.414-2.707A6.888 6.888 0 0022.737 16 6.715 6.715 0 0016 9.143z"/><path fill="#fff" d="M15.218 10.707c.301.962.301 2.045-.12 2.887-.361.722-.962 1.203-1.504 1.805-.541.541-1.083 1.203-1.143 1.985-.12.962.601 1.985 1.564 2.226.481.12 1.023.06 1.564.12s1.083.241 1.263.722c.241.541-.06 1.203-.421 1.684s-.782 1.083-.662 1.684c-.481-.06-.902-.18-1.383-.241.361-.241.601-.782.541-1.203-.06-.481-.421-.842-.902-1.023-.481-.12-1.083 0-1.383-.421-.241-.301-.12-.722-.12-1.083.06-1.083-.842-2.045-1.865-2.286-.842-.241-1.744-.12-2.406-.662-.722-.602-.782-1.744-.421-2.647.421-1.143 1.203-2.105 1.985-3.008.902-1.083 1.865-2.226 3.128-2.827.601-.301.962-.301 1.383.301.361.481.722 1.203.902 1.985zM20.15 12.692c.842-.18 1.624.361 2.346.902.662.541 1.504 1.083 2.346.782.12-.481-.06-.962-.361-1.323s-.662-.662-1.023-.902-1.444-1.083-2.105-1.744c-.541-.481-1.083-1.323-1.865-1.263-1.383.12-1.865 2.346-1.504 3.429.301 1.263 1.444.301 2.165.12zM22.376 14.857c-.541.06-1.083.421-1.263.962-.12.541.12 1.203-.301 1.564s-1.143 0-1.684.12c-.361.06-.662.421-.782.722-.12.361-.18.722-.18 1.083-.06.902-.12 1.744-.18 2.647 0 .361-.06.722.18.962.18.18.541.241.782.18.301-.06.481-.241.722-.421a12 12 0 003.368-4.211c.361-.782.782-1.684.902-2.586.301-.962-.782-1.083-1.564-1.023z"/></svg>