<svg xmlns="http://www.w3.org/2000/svg" viewBox="0 0 32 32"><path fill="#1a9ffe" d="M31.985 15.992c0 8.832-7.16 15.992-15.992 15.992S.001 24.824.001 15.992 7.161 0 15.993 0s15.992 7.16 15.992 15.992z"/><path fill="#fff" d="M24.117 9.903a.667.667 0 00-.678-.633h-2.517a5.26 5.26 0 00-.482-2.201c-.452-.935-1.658-2.487-4.658-2.487-3.045 0-4.13 1.598-4.492 2.562a4.706 4.706 0 00-.286 2.125h-2.14a.676.676 0 00-.678.633l-.919 14.621c-.015.181.06.377.181.512s.301.211.497.211H24.36a.705.705 0 00.497-.211.692.692 0 00.181-.512l-.919-14.621zM9.134 23.439l.769-12.375h12.48l.769 12.375H9.134zm3.768-15.631c.136-.347.558-1.432 2.879-1.432 1.598 0 2.608.482 3.105 1.492.271.573.301 1.146.301 1.387h-6.436a2.865 2.865 0 01.151-1.447z"/><path fill="#fff" d="M20.56 12.797a.65.65 0 00-.528-.09l-.377.09a.686.686 0 00-.497.784c0 .015.136.769-.151 1.492-.136.347-.558 1.432-2.879 1.432-1.598 0-2.608-.482-3.105-1.492-.362-.739-.301-1.492-.301-1.507a.685.685 0 00-.588-.739l-.392-.045a.697.697 0 00-.512.136.726.726 0 00-.256.467c0 .045-.121 1.266.482 2.487.452.935 1.658 2.487 4.658 2.487 3.045 0 4.13-1.598 4.492-2.562.482-1.236.256-2.457.241-2.517a.59.59 0 00-.286-.422z"/></svg>