<svg xmlns="http://www.w3.org/2000/svg" viewBox="0 0 32 32"><path fill="#1a9ffe" d="M31.985 15.992c0 8.832-7.16 15.992-15.992 15.992S.001 24.824.001 15.992 7.161 0 15.993 0s15.992 7.16 15.992 15.992z"/><path fill="#fff" d="M22.308 13.822v-3.075a5.513 5.513 0 00-5.502-5.502H15.48a5.513 5.513 0 00-5.502 5.502v3.09a2.209 2.209 0 00-1.975 2.201v7.25c0 1.221.995 2.201 2.201 2.201h11.878a2.204 2.204 0 002.201-2.201v-7.25a2.212 2.212 0 00-1.975-2.216zm-1.764 0h-8.788v-3.075a3.747 3.747 0 013.738-3.738h1.326a3.747 3.747 0 013.738 3.738v3.075zm.875 1.763h.663c.241 0 .437.196.437.437v7.25a.437.437 0 01-.437.437H10.22a.437.437 0 01-.437-.437v-7.25c0-.241.196-.437.437-.437h11.199z"/><path fill="#fff" d="M15.269 19.927v2.261h1.764v-2.261c.392-.286.663-.739.663-1.266 0-.859-.693-1.553-1.553-1.553s-1.553.693-1.553 1.553c.015.528.271.98.678 1.266z"/></svg>