<svg xmlns="http://www.w3.org/2000/svg" viewBox="0 0 32 32"><path fill="#1a9ffe" d="M31.985 15.992c0 8.832-7.16 15.992-15.992 15.992S.001 24.824.001 15.992 7.161 0 15.993 0s15.992 7.16 15.992 15.992z"/><path fill="#fff" d="M15.992 10.144c-3 0-5.788 1.1-7.943 3.12-.784.723-1.884-.392-1.1-1.1 2.532-2.351 5.667-3.587 9.044-3.587s6.512 1.236 9.044 3.587c.784.723-.332 1.824-1.1 1.1-2.14-2.02-4.944-3.12-7.943-3.12zm0 3.904c-2.08 0-3.964.723-5.471 2.216-.648.648-1.884-.332-1.1-1.1 1.764-1.764 4.1-2.668 6.572-2.668s4.823.904 6.572 2.668c.784.784-.452 1.764-1.1 1.1-1.492-1.507-3.376-2.216-5.471-2.216zm0 9.375c-.844 0-1.568-.724-1.568-1.568s.723-1.568 1.568-1.568 1.568.724 1.568 1.568c0 .844-.708 1.568-1.568 1.568zm0-5.471c-1.1 0-2.216.452-2.924 1.296-.648.784-1.824-.256-1.176-1.04 1.04-1.176 2.532-1.824 4.1-1.824s3.06.648 4.1 1.824c.648.784-.528 1.824-1.176 1.04-.708-.844-1.809-1.296-2.924-1.296z"/></svg>