<svg xmlns="http://www.w3.org/2000/svg" viewBox="0 0 32 32"><path fill="#1a9efe" d="M32 16a16.04 16.04 0 01-3.248 9.684C25.805 29.534 21.233 32 16 32s-9.805-2.466-12.752-6.316A16.04 16.04 0 010 16C0 7.158 7.158 0 16 0s16 7.158 16 16z"/><path fill="#fff" d="M16 9.083C9.744 9.083 4.632 16 4.632 16S9.745 22.917 16 22.917 27.368 16 27.368 16 22.255 9.083 16 9.083zm2.526 8.782c-.602.782-1.504 1.263-2.526 1.263s-1.925-.481-2.526-1.263a3.108 3.108 0 01-.662-1.925c0-1.744 1.383-3.128 3.128-3.128s3.128 1.383 3.128 3.128c.06.782-.18 1.444-.541 1.925z"/></svg>