<svg xmlns="http://www.w3.org/2000/svg" viewBox="0 0 32 32"><path d="M16 6.667V1.334L9.333 8.001 16 14.668V9.335c4.413 0 8 3.587 8 8s-3.587 8-8 8-8-3.587-8-8H5.333c0 5.893 4.773 10.667 10.667 10.667s10.667-4.773 10.667-10.667S21.894 6.668 16 6.668z"/><path d="M12.747 17.987h.6c.28 0 .493-.067.64-.213s.213-.333.213-.573a.714.714 0 00-.2-.52c-.067-.067-.147-.12-.24-.147s-.213-.053-.333-.053c-.107 0-.2.013-.293.04s-.173.067-.24.133-.12.12-.16.2-.067.173-.067.267h-1.133c0-.24.053-.453.147-.64s.227-.36.4-.493.36-.24.587-.307.467-.107.72-.107c.28 0 .547.04.787.107s.44.173.613.307.307.307.4.507.147.44.147.707a1.123 1.123 0 01-.226.693c-.08.106-.16.2-.267.293s-.227.16-.373.227c.32.12.56.28.72.52s.24.507.24.813c0 .267-.053.507-.16.707s-.24.387-.427.52-.387.253-.64.32-.507.107-.8.107c-.24 0-.48-.027-.707-.093s-.44-.16-.613-.307-.333-.307-.44-.507-.16-.453-.16-.733h1.133c0 .107.027.2.067.293s.093.16.173.227.16.12.267.147.213.053.333.053c.133 0 .253-.013.36-.053a.745.745 0 00.44-.4c.04-.093.053-.2.053-.32 0-.147-.027-.28-.067-.387s-.107-.2-.187-.267-.173-.12-.293-.147-.24-.053-.387-.053h-.627v-.867zM20.4 18.987c0 .427-.04.8-.133 1.093s-.227.56-.387.76-.373.347-.6.44-.493.133-.787.133-.547-.04-.787-.133-.44-.24-.613-.44-.307-.453-.4-.76-.147-.667-.147-1.093V18c0-.427.04-.8.133-1.093s.227-.56.387-.76.373-.347.6-.44.493-.133.787-.133.547.04.787.133.44.24.613.44.307.453.4.76.147.667.147 1.093v.987zm-1.133-1.147c0-.253-.013-.467-.053-.64s-.093-.307-.16-.413-.147-.187-.253-.227-.213-.067-.333-.067-.24.027-.333.067-.187.12-.253.227-.12.24-.16.413-.053.387-.053.64v1.293c0 .253.013.467.053.64s.093.32.16.427.147.187.253.227.213.067.333.067.24-.027.333-.067.187-.12.253-.227.12-.253.147-.427c.04-.173.053-.387.053-.64V17.84z"/></svg>