<svg xmlns="http://www.w3.org/2000/svg" viewBox="0 0 32 32"><path fill="#1a9ffe" d="M31.985 15.992c0 8.832-7.16 15.992-15.992 15.992S.001 24.824.001 15.992 7.161 0 15.993 0s15.992 7.16 15.992 15.992z"/><path fill="#fff" d="M8.471 23.83c.256.256.588.392.935.392.362 0 .693-.136.935-.392l4.371-4.371.105.06c1.01.633 2.17.965 3.361.965 3.512 0 6.376-2.864 6.376-6.376s-2.864-6.376-6.376-6.376-6.376 2.864-6.376 6.376c0 1.191.332 2.351.965 3.361l.06.105-4.371 4.356c-.256.256-.392.588-.392.935s.166.708.407.965zM18.178 9.3c2.653 0 4.808 2.155 4.808 4.808s-2.155 4.808-4.808 4.808-4.808-2.155-4.808-4.808S15.525 9.3 18.178 9.3z"/><path fill="#fff" d="M18.645 11.923a2.4 2.4 0 011.748 1.733c.06.301.301.497.588.497a.588.588 0 00.588-.588c0-.482-.437-1.266-1.025-1.854-.618-.603-1.296-.98-1.809-.98a.601.601 0 00-.588.603.61.61 0 00.497.588z"/></svg>