<svg xmlns="http://www.w3.org/2000/svg" viewBox="0 0 32 32"><path fill="#1a9efe" d="M32 16c0 8.837-7.163 16-16 16S0 24.837 0 16 7.163 0 16 0s16 7.163 16 16z"/><path fill="#fff" d="M15.579 12.331c.842 0 1.564-.301 2.165-.902s.902-1.323.902-2.165c0-.842-.301-1.564-.902-2.165s-1.323-.902-2.165-.902c-.842 0-1.564.301-2.165.902s-.902 1.323-.902 2.165c0 .842.301 1.564.902 2.165s1.323.902 2.165.902zM18.827 24.722c-.241-.301-.361-.902-.361-1.925v-9.383h-6.677v.541c.662.06 1.083.18 1.323.481s.361.902.361 1.925v6.496c0 .962-.12 1.624-.301 1.805-.301.361-.782.541-1.383.541v.541h8.421v-.541c-.662 0-1.143-.18-1.383-.481z"/></svg>