<svg xmlns="http://www.w3.org/2000/svg" viewBox="0 0 32 32"><path fill="#1a9efe" d="M32 16a16.04 16.04 0 01-3.248 9.684C25.805 29.534 21.233 32 16 32s-9.805-2.466-12.752-6.316A16.04 16.04 0 010 16C0 7.158 7.158 0 16 0s16 7.158 16 16z"/><path fill="#fff" d="M21.654 15.338h-.602v-2.105c0-2.767-2.286-5.053-5.053-5.053s-5.053 2.286-5.053 5.053v2.045h-.601a.41.41 0 00-.421.421v7.639c0 .241.18.421.421.421h11.308a.41.41 0 00.421-.421v-7.579a.41.41 0 00-.421-.421zm-8.361-2.165c0-1.504 1.203-2.707 2.707-2.707s2.707 1.203 2.707 2.707v2.105h-5.474v-2.105h.06z"/></svg>