<svg xmlns="http://www.w3.org/2000/svg" viewBox="0 0 32 32"><path fill="#1a9efe" d="M32 16a16.04 16.04 0 01-3.248 9.684C25.805 29.534 21.233 32 16 32s-9.805-2.466-12.752-6.316A16.04 16.04 0 010 16C0 7.158 7.158 0 16 0s16 7.158 16 16z"/><path fill="#fff" d="M16 5.534C10.226 5.534 5.534 10.226 5.534 16S10.226 26.406 16 26.406 26.466 21.714 26.466 16C26.406 10.226 21.774 5.534 16 5.534zm0 3.007c4.09 0 7.459 3.308 7.459 7.459 0 .541-.06 1.143-.18 1.684h-4.932v-.12c0-.481-.12-.902-.361-1.263l2.406-3.368c.301-.421.18-1.023-.241-1.263-.421-.301-1.023-.18-1.263.241l-2.406 3.429c-.12 0-.241-.06-.421-.06a2.35 2.35 0 00-2.346 2.346v.12H8.783a7.627 7.627 0 01-.18-1.684c-.06-4.15 3.308-7.519 7.399-7.519z"/></svg>