<svg xmlns="http://www.w3.org/2000/svg" viewBox="0 0 32 32"><path fill="#1a9ffe" d="M31.985 15.992c0 8.832-7.16 15.992-15.992 15.992S.001 24.824.001 15.992 7.161 0 15.993 0s15.992 7.16 15.992 15.992z"/><path fill="#fff" d="M15.616 20.454v5.517c-.196-.105-.286-.226-.437-.422a4.624 4.624 0 01-.467-.904 4.007 4.007 0 01-.271-.874 2.937 2.937 0 01.512-2.08c.422-.558.528-.648.663-1.236zm.075-9.194l.452.196v.392c-.045.889-.06 1.221.105 1.869.181.708 1.115 1.748 1.492 2.924.739 2.261.543 5.23.015 7.537-.09.377-.347.844-.693 1.266.121-.226.226-.467.301-.724.528-1.869.754-2.728.497-4.793-.03-.196-.121-.889-.437-1.613-.467-1.115-1.13-2.186-1.221-2.397-.151-.347-.347-1.869-.377-2.894.015.859.09 2.487.317 3.12.06.211.678 1.161 1.115 2.321.301.799.362 1.537.422 1.748.196.95-.045 2.547-.377 4.055-.136.678-.543 1.477-1.04 1.959l-.015.015c.317-.317.618-.844.799-1.477.256-.889.347-2.005.332-2.728-.015-.422-.196-1.311-.528-2.14-.181-.452-.467-.904-.648-1.221-.196-.317-.196-.995-.301-1.794.015.859-.075 1.296.151 1.914.136.362.588.859.724 1.341.181.648.377 1.372.362 1.794 0 .497-.03 1.432-.241 2.427-.166.814-.528 1.507-1.146 1.914-.015 0-.015.015-.03.015v-.03h.03v-.015c.317-.362.512-.724.588-1.085.09-.437.105-.859.151-1.387.045-.437.015-1.01-.105-1.613-.166-.754-.452-1.507-.558-2.05.015.588.256 1.326.347 2.095.09.573.045 1.13.03 1.628-.015.573-.211 1.613-.467 2.11h-.015l-.03-14.681zm-1.417-.603l.95.392.407.181h-.015v9.179c-.181.543-.347.633-.784 1.161-.512.603-.603 1.477-.603 2.201 0 .301.121.633.241.95.136.332.241.663.437.919.241.347.528.573.723.648v.045c-.633-.136-1.372-.362-1.809-.739-.889-.769-1.658-2.05-1.764-3.165-.09-.919.769-2.261 1.944-2.954.995-.588 1.236-1.251 1.447-2.306-.301.935-.588 1.718-1.553 2.216-1.402.739-2.11 1.959-2.05 3.12.105 1.492.693 2.517 1.884 3.331.347.241.889.482 1.387.648-1.809-.422-1.99-.618-2.517-1.236 0-.03-.136-.121-.136-.151-.663-.769-1.522-2.065-1.809-3.256-.105-.422-.196-.859-.09-1.281.543-1.959 1.748-2.728 2.939-3.542.301-.196.588-.407.859-.603.663-.512.829-1.899.98-2.668-.286.95-.573 2.11-1.085 2.502-.271.211-.603.377-.889.573-1.251.844-2.487 1.643-3.045 3.678-.136.512-.03.904.09 1.402.317 1.251 1.161 2.578 1.869 3.376 0 0 .121.121.121.136.317.362.723.618 1.206.829-.422-.121-.829-.256-1.206-.452-1.944-.95-3.241-2.984-3.331-4.642-.181-3.376 1.447-4.356 2.954-5.592.844-.693 2.02-1.025 2.698-2.261.136-.271.196-.859.045-1.477-.075-.241-.392-.995-.497-1.161zm5.803-6.256c-1.553 1.115-2.894 2.382-3.738 4.055l.603-2.382c-.904 1.598-1.507 3.256-1.703 4.869l-1.206-.799-.211.166c1.085 1.944.512 2.984-.015 3.346-1.085.754-2.668 1.688-3.452 2.502-1.522 1.553-1.944 3.03-1.809 4.974.151 2.502 1.96 4.582 4.401 5.396 1.07.347 2.05.407 3.15.407 1.764 0 3.572-.467 4.899-1.568 1.402-1.161 2.231-2.909 2.231-4.733s-.769-3.557-2.11-4.793c-.708-.648-1.613-1.176-2.547-1.703-.422-.226-1.703-1.236-1.266-2.668l-.919-.121c1.281-2.02 2.954-4.009 5.049-5.878-1.613.543-3.045 1.387-4.115 2.879.603-1.311 1.628-2.638 2.758-3.949z"/></svg>