<svg xmlns="http://www.w3.org/2000/svg" viewBox="0 0 32 32"><path fill="#1a9ffe" d="M31.985 15.992c0 8.832-7.16 15.992-15.992 15.992S.001 24.824.001 15.992 7.161 0 15.993 0s15.992 7.16 15.992 15.992z"/><path fill="#fff" d="M22.097 8.034a8.38 8.38 0 00-5.969-2.487 8.34 8.34 0 00-5.969 2.472 8.415 8.415 0 00-2.487 5.984v10.415c0 .196.075.392.226.528a.768.768 0 00.528.226h3.618a.766.766 0 00.754-.754V14.274c0-.889.347-1.718.98-2.351s1.462-.98 2.351-.98a3.325 3.325 0 013.316 3.316v10.144c0 .196.075.392.226.528a.768.768 0 00.528.226h3.618a.747.747 0 00.754-.754v-10.4c.015-2.261-.874-4.371-2.472-5.969zm.98 11.802h-2.11v-5.562a4.828 4.828 0 00-4.823-4.823 4.787 4.787 0 00-3.422 1.417 4.824 4.824 0 00-1.417 3.422v5.562h-2.11v-5.848c0-1.854.723-3.602 2.035-4.914s3.06-2.035 4.914-2.035c3.829 0 6.949 3.12 6.949 6.949v5.833zm-2.11 1.507h2.11v2.321h-2.11v-2.321zm-9.662 2.322h-2.11v-2.321h2.11v2.321z"/></svg>