<svg xmlns="http://www.w3.org/2000/svg" viewBox="0 0 32 32"><path fill="#1a9ffe" d="M31.985 15.992c0 8.832-7.16 15.992-15.992 15.992S.001 24.824.001 15.992 7.161 0 15.993 0s15.992 7.16 15.992 15.992z"/><path fill="#fff" d="M21.283 14.425l2.894-2.758a2.474 2.474 0 00-1.748-4.22c-.663 0-1.281.256-1.764.739l-2.743 2.894-7.642-3.075a.749.749 0 00-.799.166L7.748 9.904c-.166.166-.241.392-.211.618s.166.437.377.543l6.542 3.633-3.512 3.693-3.03-.437a.763.763 0 00-.633.211l-.919.919a.778.778 0 00-.211.648.758.758 0 00.407.543l3.693 1.824 1.809 3.708c.03.075.09.136.136.196a.757.757 0 00.407.211c.045 0 .075.015.121.015a.78.78 0 00.528-.211l.919-.919a.747.747 0 00.211-.633l-.437-3.03 3.693-3.512 3.633 6.542c.105.196.317.347.543.377s.467-.045.618-.211l1.748-1.748a.75.75 0 00.166-.799l-3.06-7.657zm-8.863 6.828l.392 2.758-1.372-2.788a.708.708 0 00-.332-.332l-2.773-1.372 2.758.392a.714.714 0 00.633-.226l4.431-4.658c.151-.166.226-.392.196-.618s-.166-.422-.377-.528L9.48 10.263l.708-.708 7.642 3.075a.72.72 0 00.814-.181l3.075-3.241a1 1 0 011.417 0 .996.996 0 01.015 1.402l-3.256 3.09a.747.747 0 00-.181.814l3.075 7.642-.708.708-3.633-6.512a.795.795 0 00-.528-.377.722.722 0 00-.618.196l-4.658 4.431a.743.743 0 00-.226.648z"/></svg>