<svg xmlns="http://www.w3.org/2000/svg" viewBox="0 0 32 32"><path d="M28.711 9.482c.02.284.02.569.02.853 0 8.67-6.599 18.66-18.66 18.66A18.53 18.53 0 010 26.051c.528.061 1.036.081 1.584.081 3.066 0 5.888-1.035 8.142-2.802a6.57 6.57 0 01-6.132-4.548c.406.061.812.102 1.239.102.589 0 1.178-.081 1.726-.223A6.56 6.56 0 011.3 12.224v-.081a6.6 6.6 0 002.964.832A6.556 6.556 0 011.34 7.513c0-1.218.325-2.335.893-3.31a18.639 18.639 0 0013.523 6.863 7.437 7.437 0 01-.162-1.502 6.555 6.555 0 016.558-6.558c1.888 0 3.594.792 4.792 2.071a12.88 12.88 0 004.162-1.584 6.539 6.539 0 01-2.883 3.614A13.168 13.168 0 0032 6.092a14.103 14.103 0 01-3.289 3.391z"/></svg>