<svg xmlns="http://www.w3.org/2000/svg" viewBox="0 0 32 32"><path fill="#1a9efe" d="M32 16c0 3.655-1.198 6.951-3.236 9.648C25.828 29.483 21.213 32 16 32s-9.828-2.517-12.764-6.352A15.981 15.981 0 010 16C0 7.131 7.131 0 16 0c8.809 0 16 7.131 16 16z"/><path fill="#fff" d="M16 9.109C9.708 9.109 4.614 16 4.614 16S9.708 22.891 16 22.891c6.292 0 11.386-6.891 11.386-6.891S22.292 9.109 16 9.109zm2.517 8.749c-.599.779-1.498 1.258-2.517 1.258s-1.918-.479-2.517-1.258a3.098 3.098 0 01-.659-1.918c0-1.738 1.378-3.116 3.116-3.116s3.116 1.378 3.116 3.116c.06.779-.18 1.438-.539 1.918z"/></svg>