<svg xmlns="http://www.w3.org/2000/svg" viewBox="0 0 32 32"><path fill="#1a9efe" d="M32 16a16.04 16.04 0 01-3.248 9.684C25.805 29.534 21.233 32 16 32s-9.805-2.466-12.752-6.316A16.04 16.04 0 010 16C0 7.158 7.158 0 16 0s16 7.158 16 16z"/><path fill="#fff" d="M16 5.173C10.045 5.173 5.173 10.045 5.173 16c0 2.406.782 4.632 2.226 6.556 2.045 2.707 5.173 4.271 8.601 4.271s6.556-1.564 8.602-4.271A10.656 10.656 0 0026.828 16c0-5.955-4.872-10.827-10.827-10.827zM9.805 20.692c-.722-.962-1.263-2.105-1.444-3.308.481.12 1.023.12 1.564.241 1.143.301 2.165 1.383 2.105 2.647 0 .421-.12.902.12 1.203.361.481 1.023.301 1.564.481.541.12.902.602 1.023 1.143v.481c-1.985-.241-3.729-1.263-4.932-2.887zm6.075 3.067c.12-.301.361-.602.541-.842.421-.602.782-1.323.481-1.925-.241-.541-.902-.782-1.444-.842-.601-.06-1.203 0-1.744-.12-1.083-.241-1.865-1.383-1.744-2.526.12-.902.662-1.624 1.323-2.286.601-.662 1.323-1.263 1.684-2.045.481-1.023.481-2.226.18-3.308-.18-.541-.361-1.083-.601-1.564.481-.12.962-.12 1.504-.12 1.023 0 1.985.18 2.887.541-.782.842-1.023 2.466-.722 3.429.421 1.383 1.744.241 2.586.06.902-.241 1.744.361 2.526.902.18.481.301.962.421 1.504h-.361c-.602.06-1.263.481-1.444 1.083-.12.602.12 1.323-.301 1.744-.481.421-1.263 0-1.925.12-.421.12-.722.421-.902.842-.18.361-.18.842-.241 1.263-.06 1.023-.12 2.045-.241 3.008v.662a7.64 7.64 0 01-2.346.361c-.06.06-.06.06-.12.06z"/></svg>