<svg xmlns="http://www.w3.org/2000/svg" viewBox="0 0 256.2 667.3"><radialGradient id="a" cx="-1150.05" cy="-1003.29" r="175.076" gradientTransform="matrix(0 -1 -1 0 -875.21 -938.16)" gradientUnits="userSpaceOnUse"><stop offset="0" stop-color="#0595ef"/><stop offset=".51" stop-color="#0cacf2"/><stop offset=".99" stop-color="#0595ef"/></radialGradient><path d="M0 128.1V268c16.7-20.9 38.5-37.2 63.2-47.4v-86.2c-.4-35.8 28.2-65.2 64-65.6 35.8-.4 65.2 28.2 65.6 64v159.7c0 34-26.3 62.2-60.2 64.6-.7.1-1.4.1-2.1.1-.7 0-1.5.1-2.2.1-12.3.9-45 5.8-39.9 31.6 5.5 27.6 27 33.5 32.5 34.6.5 0 1 0 1.4.1 1.9.1 3.7.1 5.6.1 22.8 0 45.2-6 64.8-17.6 3.4-2 6.8-4.2 10-6.5l.3-.3c20.3-14.8 35.9-35.2 44.8-58.7 5.4-14.4 8.2-29.6 8.2-45V128.1C255.3 57.3 197.2.7 126.5 1.6 57 2.5.9 58.6 0 128.1z" fill="url(#a)"/><radialGradient id="b" cx="-790.57" cy="-498.3" r="175.08" gradientTransform="matrix(1 0 0 -1 0 670)" gradientUnits="userSpaceOnUse"><stop offset="0" stop-color="#0595ef"/><stop offset=".51" stop-color="#0cacf2"/><stop offset=".99" stop-color="#0595ef"/></radialGradient><path d="M119 243.8c-21.6 1.5-42.5 8.5-60.7 20.3-.2.1-.4.3-.6.4-24.8 16.3-43.2 40.7-52 69.1-1.2 3.7-2.2 7.5-3 11.4C.9 353.8 0 362.7 0 371.6v167.6c.6 70.7 58.5 127.6 129.2 127 69.9-.6 126.3-57.1 127-127v-153c-15.6 24.1-37.5 43.6-63.2 56.3v93.6c.4 35.8-28.2 65.2-64 65.6s-65.2-28.2-65.6-64V377.9c0-30.3 21-56.6 50.6-63.2 2.8-.6 5.7-1.1 8.6-1.3 4.2-.4 8.3-.9 12.3-2 13.2-3.6 28-11.2 29.8-26.7 1.8-16.5-7.8-27.7-16.1-34.2-5.8-4.5-12.9-6.9-20.2-6.9h-.1c-3.2-.1-6.3 0-9.3.2z" fill="url(#b)"/></svg>