<svg version="1.1" id="Layer_1" xmlns="http://www.w3.org/2000/svg" x="0" y="0" viewBox="0 0 896.3 629.3" xml:space="preserve"><style>.st3{fill:#08a0f0}</style><g id="Layer_2_1_"><g id="Layer_1-2"><radialGradient id="SVGID_1_" cx="550.532" cy="211.231" r="566.775" fx="-16.241" fy="211.231" gradientUnits="userSpaceOnUse"><stop offset="0" stop-color="#0595ef"/><stop offset=".51" stop-color="#0cacf2"/><stop offset=".99" stop-color="#0595ef"/></radialGradient><path d="M896.4 25.2v370.9c0 13.9-11.3 25.2-25.2 25.1h-34.9c.2-1 .3-2 .3-2.9V77.9c0-9.9-9.3-18-20.8-18H207V25.1C207 11.2 218.3 0 232.2 0h639c13.9 0 25.2 11.3 25.2 25.2z" fill="url(#SVGID_1_)"/><radialGradient id="SVGID_2_" cx="446.535" cy="315.503" r="566.825" fx="-120.287" fy="315.503" gradientUnits="userSpaceOnUse"><stop offset="0" stop-color="#0595ef"/><stop offset=".51" stop-color="#0cacf2"/><stop offset=".99" stop-color="#0595ef"/></radialGradient><path d="M792.4 129.2v370.9c0 13.9-11.3 25.2-25.2 25.1h-34.7V181.9c0-9.9-9.3-18-20.8-18H103v-34.8c0-13.9 11.3-25.2 25.2-25.1h639c13.9 0 25.2 11.3 25.2 25.2z" fill="url(#SVGID_2_)"/><radialGradient id="SVGID_3_" cx="344.166" cy="200.45" r="595.249" fx="-251.079" fy="200.45" gradientTransform="matrix(1 -.0068 -.00585 -.86 1.672 592.203)" gradientUnits="userSpaceOnUse"><stop offset="0" stop-color="#0595ef"/><stop offset=".51" stop-color="#0cacf2"/><stop offset=".99" stop-color="#0595ef"/></radialGradient><path d="M629.5 421.3v44.1h59.9v-44.1h-59.9zM664.2 208H266.9v59.9h341.8c10.5 0 19.1 6.7 20.6 15.3 0 .3.1.6.1.8.1.6.1 1.2.1 1.8v179.4h59.9v-232c-.1-13.9-11.3-25.2-25.2-25.2zm0 0h-639C11.3 208 0 219.2 0 233.1V604c0 13.9 11.2 25.2 25.1 25.2h639c13.9 0 25.2-11.2 25.2-25.1V233.2c0-13.9-11.2-25.2-25.1-25.2zm-34.7 343.3c0 10-9.3 18-20.8 18h-528c-11.5 0-20.8-8.1-20.8-18V285.9c0-10 9.3-18 20.8-18h528c10.5 0 19.1 6.6 20.6 15.3 0 .3.1.6.1.8.1.6.1 1.2.1 1.8v265.5zm0-190v104h58v-104h-58zM664.2 208H266.9v59.9h341.8c10.5 0 19.1 6.7 20.6 15.3 0 .3.1.6.1.8.1.6.1 1.2.1 1.8v75.4h59.9v-128c-.1-13.9-11.3-25.2-25.2-25.2zm-34.7 213.3v44.1h59.9v-44.1h-59.9z" fill="url(#SVGID_3_)"/><path class="st3" d="M333.5 547.4v-28.9c-20.4-.9-40.1-6.4-51.7-13.1l9.2-35.6c12.8 7 30.7 13.4 50.5 13.4 17.3 0 29.2-6.7 29.2-18.9 0-11.6-9.7-18.9-32.2-26.5-32.5-11-54.8-26.2-54.8-55.7 0-26.8 18.9-47.8 51.4-54.1v-28.9h29.8V326c20.4.9 34.1 5.2 44.1 10l-8.8 34.4c-8-3.4-22-10.4-43.9-10.4-19.8 0-26.2 8.5-26.2 17 0 10 10.6 16.4 36.5 26.2 36.2 12.8 50.8 29.6 50.8 56.9 0 27.1-19.2 50.2-54.1 56.3v31h-29.8z"/><path class="st3" d="M426.5 460.1c0-16.2-4.6-29.2-14.1-39.9-9.2-10.3-22.7-18.5-42.6-25.5-14.3-5.4-30.6-12.2-30.6-17.7 0-7 10.8-8 17.2-8 18.1 0 30.1 5.2 38 8.6l2.3 1 9.6 4.1 13.2-51.6-6.6-3.2c-11.3-5.5-24.1-8.9-39-10.3v-27.4h-47.8V321c-31.9 8.8-51.4 31.7-51.4 61.3 0 38.7 32.5 54.7 60.9 64.2 23 7.8 26.1 13.2 26.1 17.9 0 9.4-16.8 9.9-20.2 9.9-20.7 0-37.8-7.7-46.2-12.3l-10.2-5.6-13.7 53.4 5.9 3.4c11.7 6.8 29.2 11.8 47.2 13.6v29.5h47.8v-32.8c33.2-8.3 54.2-32.6 54.2-63.4zm-72.1 48.7v29.6h-11.8v-28.5l-8.6-.4c-14.9-.7-30.4-4-41.6-8.9l4.6-17.9c14 6.1 29.2 9.3 44.5 9.5 23.2 0 38.2-10.9 38.2-27.9 0-19.4-18.4-28.3-38.4-35-34.5-11.6-48.6-25.3-48.6-47.1 0-22.9 16.5-39.9 44.1-45.3l7.3-1.4v-27.3h11.8v26.3l8.6.4c13 .6 24.2 2.6 33.9 6.3L394 358c-12-4.7-24.8-7-37.6-6.9-25.9 0-35.2 13.4-35.2 26 0 17.3 18.3 25.6 42.3 34.6l.2.1c37.2 13.1 44.8 28.8 44.8 48.4 0 24.2-17.9 42.4-46.7 47.4l-7.4 1.2z"/></g></g></svg>