<svg xmlns="http://www.w3.org/2000/svg" viewBox="0 0 604.7 666.2"><path d="M603.8 281.2l-1.1-3.4c-7.9-24.6-37-59.2-77-59.2-2.4 0-4.9.1-7.3.4-16.2-24.9-41.7-38.9-72-38.9-6.1 0-12.1.5-18.1 1.6-20.5-21.8-44.7-33.6-70.7-34.4 0 0-.1 0-.1-.1V73l-.4-1.8-.5-2.2c-3.3-15.1-12-31.1-23.2-43-16-17-37-26-60.8-26-3.6 0-7.1.3-10.7.7-33.6 3.7-52.3 21.7-62 36.1s-15.6 33.3-15.6 50.3v238.2s0 .1-.1 0L134.1 291l-.8-.6-.9-.6-1-.5-1-.5-.1-.1h-.1c-12.6-6.4-26.5-9.7-40.7-9.6-22.1 0-43 8.1-60.6 23.3C5.7 322.6.3 345.5 0 361.1-.3 377 4.5 394 13 406.7l1.4 2.3 1.2 1.9 1.7 1.5 2 1.8L196.7 578c6.3 6.4 27.8 27.1 60.4 47 18.9 11.7 39 21.2 60 28.4 24.1 8.3 49.5 12.6 75 12.8 13.4 0 29 0 44.3-1.4l38.1-4c5.5-.6 11-1.5 16.4-2.6l2.3-.5 1.8-.5 2.1-.6c17.7-5.3 34.5-13.4 49.7-23.8 32.1-22 51.9-52.1 57.3-86.9l.3-1.7.2-1.4V283.9l-.8-2.7zM424.2 607.4c-7.8.5-18.8.9-32 0-15.2-1.1-60.8-4.9-108.1-35-28-17.8-45.5-35.9-45.7-36.1l-.4-.4-.4-.4L61.3 372.8c-1.3-2.7-2-5.5-2.3-8.5-.3-4.1.3-10.4 8.6-17.6 6.8-5.9 14.2-8.9 22-8.9 4.2 0 8.4.8 12.4 2.5l113.2 76.9 28 19.1h.1V87.1a38 38 0 013.8-14.4c4.1-8.1 10.9-12.4 21.2-13.5 1.4-.2 2.8-.2 4.3-.3 8.6 0 15.1 3.2 20.3 10.1 2.5 3.5 4.5 7.3 5.9 11.4v143.9h-.1V308c0 16.1 12.6 29.7 28.7 30.1 16.6.4 30.2-12.9 30.2-29.4V206.2s0-.1.1-.1c11.2 1 20.9 8.4 27.9 15.9v123.1c0 16.3 13.2 29.4 29.5 29.4 16.2 0 29.4-13.2 29.4-29.4v-106s0-.1.1-.1h1.9c7.9 0 18.9 2 26 18.5v124.4c0 16.3 13.2 29.4 29.4 29.5 16.3 0 29.4-13.2 29.5-29.4V277.2s0-.1.1-.1c2.9.1 9.5.8 16.6 9.2 2.1 2.4 3.9 5.1 5.4 7.9V538c-3.3 18.5-15.9 34.4-37.3 47.1-13.9 8.2-24.3 12.6-33.1 14.2-14.9 3.6-32.3 6.2-58.9 8.1z" fill="#08a0f0"/></svg>