<svg version="1.1" id="Layer_1" xmlns="http://www.w3.org/2000/svg" xmlns:xlink="http://www.w3.org/1999/xlink" x="0" y="0" viewBox="0 0 3000 1736.8" xml:space="preserve"><style>.st19{fill:#f9c19c}.st41{fill:#09225e}.st49{fill:#f99b22}.st56{fill:#ffda82}.st57{fill:#fff59a}.st61{fill:#ffefc8}</style><g id="Layer_4"><path fill="none" stroke="#075bbd" stroke-width="56" stroke-linecap="round" stroke-linejoin="round" stroke-miterlimit="10" d="M28 1254.5l315.5-261.9 40.1 73.2 348.3-260.6 51.2 81.5 404.6-225.4 41.6 91.5L1694 503.5l98.2 168.9L2795.7 75.6"/><defs><path id="SVGID_1_" d="M2620.4 1639.3H521.1c-51.2 0-92.7-41.5-92.7-92.7V106.2c0-51.2 41.5-92.7 92.7-92.7h2099.3c51.2 0 92.7 41.5 92.7 86.1V1540c0 57.8-41.5 99.3-92.7 99.3z"/></defs><clipPath id="SVGID_2_"><use xlink:href="#SVGID_1_" overflow="visible"/></clipPath><path d="M2620.4 1639.3H521.1c-51.2 0-92.7-41.5-92.7-92.7V106.2c0-51.2 41.5-92.7 92.7-92.7h2099.3c51.2 0 92.7 41.5 92.7 92.7v1440.4c0 51.2-41.5 92.7-92.7 92.7z" clip-path="url(#SVGID_2_)" fill="#82b1df"/><defs><path id="SVGID_3_" d="M2620.4 1639.3H521.1c-51.2 0-92.7-41.5-92.7-92.7V106.2c0-51.2 41.5-92.7 92.7-92.7h2099.3c51.2 0 92.7 41.5 92.7 86.1V1540c0 57.8-41.5 99.3-92.7 99.3z"/></defs><clipPath id="SVGID_4_"><use xlink:href="#SVGID_3_" overflow="visible"/></clipPath><linearGradient id="SVGID_5_" gradientUnits="userSpaceOnUse" x1="1604.534" y1="3121.543" x2="1610.948" y2="1876.228" gradientTransform="matrix(1 0 0 -1 0 3968)"><stop offset=".298" stop-color="#4e96d1" stop-opacity="0"/><stop offset=".71" stop-color="#4e96d1" stop-opacity=".859"/><stop offset=".778" stop-color="#4e96d1"/></linearGradient><path clip-path="url(#SVGID_4_)" fill="url(#SVGID_5_)" d="M98.6-130.5h3010.3v1649.7H98.6z"/><defs><path id="SVGID_6_" d="M2519.4 1364.1H622c-51.2 0-92.7-41.5-92.7-92.7V178.1c0-51.2 41.5-92.7 92.7-92.7h1897.4c51.2 0 92.7 41.5 92.7 92.7v1093.3c0 51.2-41.4 92.7-92.7 92.7z"/></defs><clipPath id="SVGID_7_"><use xlink:href="#SVGID_6_" overflow="visible"/></clipPath><g clip-path="url(#SVGID_7_)"><defs><path id="SVGID_8_" d="M2519.4 1364.1H622c-51.2 0-92.7-41.5-92.7-92.7V178.1c0-51.2 41.5-92.7 92.7-92.7h1897.4c51.2 0 92.7 41.5 92.7 92.7v1093.3c0 51.2-41.4 92.7-92.7 92.7z"/></defs><clipPath id="SVGID_9_"><use xlink:href="#SVGID_8_" overflow="visible"/></clipPath><path d="M2519.4 1364.1H622c-51.2 0-92.7-41.5-92.7-92.7V178.1c0-51.2 41.5-92.7 92.7-92.7h1897.4c51.2 0 92.7 41.5 92.7 92.7v1093.3c0 51.2-41.4 92.7-92.7 92.7z" clip-path="url(#SVGID_9_)" fill="#d6f0fc"/><defs><path id="SVGID_10_" d="M2519.4 1364.1H622c-51.2 0-92.7-41.5-92.7-92.7V178.1c0-51.2 41.5-92.7 92.7-92.7h1897.4c51.2 0 92.7 41.5 92.7 92.7v1093.3c0 51.2-41.4 92.7-92.7 92.7z"/></defs><clipPath id="SVGID_11_"><use xlink:href="#SVGID_10_" overflow="visible"/></clipPath><linearGradient id="SVGID_12_" gradientUnits="userSpaceOnUse" x1="-1785.186" y1="-23.154" x2="2286.293" y2="4175.445" gradientTransform="matrix(1 0 0 -1 0 3968)"><stop offset=".554" stop-color="#fff" stop-opacity="0"/><stop offset=".785" stop-color="#fff"/></linearGradient><path clip-path="url(#SVGID_11_)" fill="url(#SVGID_12_)" d="M2974-211.2L736.5 2183.1l-762-712L2212.1-923.3z"/></g><defs><path id="SVGID_13_" d="M2519.4 1364.1H622c-51.2 0-92.7-41.5-92.7-92.7V178.1c0-51.2 41.5-92.7 92.7-92.7h1897.4c51.2 0 92.7 41.5 92.7 92.7v1093.3c0 51.2-41.4 92.7-92.7 92.7z"/></defs><clipPath id="SVGID_14_"><use xlink:href="#SVGID_13_" overflow="visible"/></clipPath><path clip-path="url(#SVGID_14_)" fill="none" stroke="#075bbd" stroke-width="56" stroke-linecap="round" stroke-linejoin="round" stroke-miterlimit="10" d="M71.9 1303.2l271.6-310.6 40.1 73.2 348.3-260.6 51.2 81.5 404.6-225.4 41.6 91.5L1694 503.5l98.2 168.9L2795.7 75.6"/><defs><path id="SVGID_15_" d="M2519.4 1364.1H622c-51.2 0-92.7-41.5-92.7-92.7V178.1c0-51.2 41.5-92.7 92.7-92.7h1897.4c51.2 0 92.7 41.5 92.7 92.7v1093.3c0 51.2-41.4 92.7-92.7 92.7z"/></defs><clipPath id="SVGID_16_"><use xlink:href="#SVGID_15_" overflow="visible"/></clipPath><g clip-path="url(#SVGID_16_)"><defs><path id="SVGID_17_" d="M1070.2 694.9s102.8 171.8 195.4 245.2c52.4-56.2 147-134.2 168.1-174.8 13.7-26 13.6-34.6 22.9-38.6s58.8-7.5 81.4-26.9c15.4-2.9 7.7 26.3-18.3 52.8 14.3 9.8 34 13 46.2 13 11.4-.5 52.3-15.9 69.5-19.4 12.2 1.6-42.2 66.1-83.3 88.9-33.2 2.1-82.8-5.3-89.7-6.1-7.7 4-76.4 140.4-127.2 192-14.7 14.8-236 6.4-239.8-43.2-3.8-49.8-98-178.6-89.8-187.8s22.2-25.2 23.6-35.4 17.4-45.8 19.2-46.6c2.1-1.2 21.8-13.1 21.8-13.1z"/></defs><clipPath id="SVGID_18_"><use xlink:href="#SVGID_17_" overflow="visible"/></clipPath><path d="M1070.2 694.9s134.8 141.8 195.4 245.2c52.4-56.2 147-134.2 168.1-174.8 13.7-26 13.6-34.6 22.9-38.6s58.8-7.5 81.4-26.9c15.4-2.9 7.7 26.3-18.3 52.8 14.3 9.8 34 13 46.2 13 11.4-.5 52.3-15.9 69.5-19.4 12.2 1.6-42.2 66.1-83.3 88.9-33.2 2.1-82.8-5.3-89.7-6.1-7.7 4-106 187.1-118.6 203.9-12.5 16.8-244.6-5.4-248.4-55.2s-98-178.6-89.8-187.8c8.2-9.2 22.2-25.2 23.6-35.4s17.4-45.8 19.2-46.6c2.1-1.1 21.8-13 21.8-13z" clip-path="url(#SVGID_18_)" fill="#c88a5d"/><defs><path id="SVGID_19_" d="M1070.2 694.9s102.8 171.8 195.4 245.2c52.4-56.2 147-134.2 168.1-174.8 13.7-26 13.6-34.6 22.9-38.6s58.8-7.5 81.4-26.9c15.4-2.9 7.7 26.3-18.3 52.8 14.3 9.8 34 13 46.2 13 11.4-.5 52.3-15.9 69.5-19.4 12.2 1.6-42.2 66.1-83.3 88.9-33.2 2.1-82.8-5.3-89.7-6.1-7.7 4-76.4 140.4-127.2 192-14.7 14.8-236 6.4-239.8-43.2-3.8-49.8-98-178.6-89.8-187.8s22.2-25.2 23.6-35.4 17.4-45.8 19.2-46.6c2.1-1.2 21.8-13.1 21.8-13.1z"/></defs><clipPath id="SVGID_20_"><use xlink:href="#SVGID_19_" overflow="visible"/></clipPath><path d="M1223.3 845.9s-19.4 74.2-93.6 92.6c-81.2-74.2-123.4-133.6-117.4-164s4.4-109.4 65-89.8 84.4 44.4 102.2 67.6c17.8 23.2 50.4 79 50.4 79" clip-path="url(#SVGID_20_)" fill="#d53d52"/><path d="M1007.4 589.6s-98.9 90.2-114 127.7c12.4 22.2 133.2 51.8 133.2 48s49.1-113.1 130.1-128.5c-42.8-88.2-106-65.2-114.7-59.8" fill="#c88a5d"/><path d="M990.5 579.4s5.9 44.5 68.9 50.1c6.2 25.4 72 64.1 124 46.8 64.5-21.5 31.3-182.6 20.2-236.2-11-53.6-58.9-51.5-92.6-39.8s-63.7 4.5-84.1 46.2c-20.2 41.9-40.9 82-43.5 87.3-2.3 5.4-2.5 36.6 7.1 45.6z" fill="#e9b685"/><path d="M990.5 579.4s-54.4-12.5-36.9-58.1c-35.3-37.4-38.5-132.4 28.9-114.4 0 0 5.3-92.1 81.5-84.9 76.4 7.4 95.3 34 124.7-5.3 15.1 8.2 10.9 32.5 10.9 32.5s15.1-21.2 10.9-35.3c22.8 9 58.4 88.1-3.2 132.7-38.2 22-123.8-21.2-156.6 22.3-32.9 43.5 4.5 97.4 4.5 97.4s-30.4-41.3-51.6-30.7c-21.7 10.7-17.5 38.3-13.1 43.8z" fill="#652a3b"/><defs><path id="SVGID_21_" d="M1128.9 886.7c.8-2.4-98.5-193.6-146.8-212.7-48.3-19.2-178.8 17-253.5 179.4s-126.6 305.2-125 449c1.6 143.7 198.9 142.8 207 139.6 8.2-3.2 105.6-60.8 108.8-62.6 3.2-1.6 18.3-235.9 128.2-320.7 7.1 6.4 19.3 16.2 27.8 23 6.2 4.9 13.9 7.8 21.9 8.1 45.1 1.6 203.7 5.3 288.5-21.4 61.3-13.8 84.4 29.2 84.4 29.2s28.4-7.7 35.8-17.5c7.7 4.8 16.2 12.5 21.5 10.6 5.3-2.1 26.3-13.8 23.1-27.1-3.2-13.3-44.3-55.8-67.7-61.2-24.4-1.4-48.8-.1-49.1.2-.5.5 28.1-32.1 28.1-33.7s-1.6-6.9-1.6-6.9-38.2-1.6-48.8 1.3c-11.4 10.9-19.4 30.5-24.7 33.7-9 5.3-156.9-35.3-205.2-53.9-30.6-44.6-52.7-56.4-52.7-56.4z"/></defs><clipPath id="SVGID_22_"><use xlink:href="#SVGID_21_" overflow="visible"/></clipPath><path d="M1129.8 888c-3.9-5.9-137.2-183-151.7-211.7-48.3-19.2-175.4 15.2-250 177.6s-126.6 305.2-125 449c1.6 143.7 198.9 142.8 207 139.6 8.2-3.2 105.6-60.8 108.8-62.6 3.2-1.7 18.3-235.9 128.2-320.7 7.7 6.9 20.9 17.5 29.1 24 4.8 3.8 10.6 6 16.7 6.2 40.9 1.7 205.6 6.8 292.2-20.5 61.3-13.8 84.4 29.2 84.4 29.2s28.4-7.7 35.8-17.5c7.7 4.8 16.2 12.5 21.5 10.6 5.3-2.1 26.3-13.8 23.1-27.1-3.2-13.3-44.3-55.8-67.7-61.2-24.4-1.4-48.8-.1-49.1.2-.5.5 28.1-32.1 28.1-33.7s-1.6-6.9-1.6-6.9-38.2-1.6-48.8 1.3c-11.4 10.9-19.4 30.5-24.7 33.7-9 5.3-147.4-9.3-195.8-28.1-14.7-16-60.5-81.4-60.5-81.4z" clip-path="url(#SVGID_22_)" fill="#e6aa72"/><defs><path id="SVGID_23_" d="M1128.9 886.7c.8-2.4-98.5-193.6-146.8-212.7-48.3-19.2-178.8 17-253.5 179.4s-126.6 305.2-125 449c1.6 143.7 198.9 142.8 207 139.6 8.2-3.2 105.6-60.8 108.8-62.6 3.2-1.6 18.3-235.9 128.2-320.7 7.1 6.4 19.3 16.2 27.8 23 6.2 4.9 13.9 7.8 21.9 8.1 45.1 1.6 203.7 5.3 288.5-21.4 61.3-13.8 84.4 29.2 84.4 29.2s28.4-7.7 35.8-17.5c7.7 4.8 16.2 12.5 21.5 10.6 5.3-2.1 26.3-13.8 23.1-27.1-3.2-13.3-44.3-55.8-67.7-61.2-24.4-1.4-48.8-.1-49.1.2-.5.5 28.1-32.1 28.1-33.7s-1.6-6.9-1.6-6.9-38.2-1.6-48.8 1.3c-11.4 10.9-19.4 30.5-24.7 33.7-9 5.3-156.9-35.3-205.2-53.9-30.6-44.6-52.7-56.4-52.7-56.4z"/></defs><clipPath id="SVGID_24_"><use xlink:href="#SVGID_23_" overflow="visible"/></clipPath><path d="M1528.6 1091.8l-38.3-34.5 15.8 23.1s7.5 22.3 16.7 20.9c9.1-1.4 9.1-3.5 9.1-3.5" clip-path="url(#SVGID_24_)" fill="#c88a5d"/><defs><path id="SVGID_25_" d="M1128.9 886.7c-43.6-57.3-88-157.8-163.5-226.5-61-55.4-161.9 30.8-236.7 193.2s-126.6 305.2-125 449c1.6 143.7 198.9 142.8 207 139.6 8.2-3.2 164.6-34.5 163.2-31.2-8.2 19.8-8.2-240 73.8-352.1 23.1 19.1 42.2 28.9 42.2 28.9s196.4 12.2 295.9-19.1c61.3-13.8 84.4 29.2 84.4 29.2s28.4-7.7 35.8-17.5c7.7 4.8 16.2 12.5 21.5 10.6 5.3-2.1 26.3-13.8 23.1-27.1-3.2-13.3-44.3-55.8-67.7-61.2-24.4-1.4-48.8-.1-49.1.2-.5.5 28.1-32.1 28.1-33.7s-1.6-6.9-1.6-6.9-38.2-1.6-48.8 1.3c-11.4 10.9-19.4 30.5-24.7 33.7-9 5.3-153.7-38.2-202-56.8-30.5-44.6-55.9-53.6-55.9-53.6z"/></defs><clipPath id="SVGID_26_"><use xlink:href="#SVGID_25_" overflow="visible"/></clipPath><defs><path id="SVGID_27_" d="M1128.9 886.7c-43.6-57.3-88-157.8-163.5-226.5-61-55.4-161.9 30.8-236.7 193.2s-126.6 305.2-125 449c1.6 143.7 198.9 142.8 207 139.6 8.2-3.2 164.6-34.5 163.2-31.2-8.2 19.8-8.2-240 73.8-352.1 23.1 19.1 42.2 28.9 42.2 28.9s196.4 12.2 295.9-19.1c61.3-13.8 84.4 29.2 84.4 29.2s28.4-7.7 35.8-17.5c7.7 4.8 16.2 12.5 21.5 10.6 5.3-2.1 26.3-13.8 23.1-27.1-3.2-13.3-44.3-55.8-67.7-61.2-24.4-1.4-48.8-.1-49.1.2-.5.5 28.1-32.1 28.1-33.7s-1.6-6.9-1.6-6.9-38.2-1.6-48.8 1.3c-11.4 10.9-19.4 30.5-24.7 33.7-9 5.3-153.7-38.2-202-56.8-30.5-44.6-55.9-53.6-55.9-53.6z"/></defs><defs><path id="SVGID_28_" d="M1147.5 885.9c2.8-3.2-102.9-35-161.9 105.7 38.9 46.7 62.1 67.2 62.1 67.2s114 349.9 18.4 444.1-730.4 52-647.6-152.6 285-674.7 386.4-689.3 222.4-56.8 281.7 0c59.2 56.8 84.4 142 85.2 161.6.8 19.4-15.4 57.6-14.6 60.8"/></defs><clipPath id="SVGID_29_"><use xlink:href="#SVGID_27_" overflow="visible"/></clipPath><clipPath id="SVGID_30_" clip-path="url(#SVGID_29_)"><use xlink:href="#SVGID_28_" overflow="visible"/></clipPath><path d="M1147.5 885.9c2.8-3.2-104-27.6-162.9 113.2 40.6 43.8 63 59.8 63 59.8s114 349.9 18.4 444.1-730.4 52-647.6-152.6 285-674.7 386.4-689.3 222.4-56.8 281.7 0c59.2 56.8 84.4 142 85.2 161.6.8 19.4-15.4 57.6-14.6 60.8" clip-path="url(#SVGID_30_)" fill="#f66378"/><defs><path id="SVGID_31_" d="M1128.9 886.7c-43.6-57.3-88-157.8-163.5-226.5-61-55.4-161.9 30.8-236.7 193.2s-126.6 305.2-125 449c1.6 143.7 198.9 142.8 207 139.6 8.2-3.2 164.6-34.5 163.2-31.2-8.2 19.8-8.2-240 73.8-352.1 23.1 19.1 42.2 28.9 42.2 28.9s196.4 12.2 295.9-19.1c61.3-13.8 84.4 29.2 84.4 29.2s28.4-7.7 35.8-17.5c7.7 4.8 16.2 12.5 21.5 10.6 5.3-2.1 26.3-13.8 23.1-27.1-3.2-13.3-44.3-55.8-67.7-61.2-24.4-1.4-48.8-.1-49.1.2-.5.5 28.1-32.1 28.1-33.7s-1.6-6.9-1.6-6.9-38.2-1.6-48.8 1.3c-11.4 10.9-19.4 30.5-24.7 33.7-9 5.3-153.7-38.2-202-56.8-30.5-44.6-55.9-53.6-55.9-53.6z"/></defs><clipPath id="SVGID_32_"><use xlink:href="#SVGID_31_" overflow="visible"/></clipPath><defs><path id="SVGID_33_" d="M1128.9 886.7c-43.6-57.3-88-157.8-163.5-226.5-61-55.4-161.9 30.8-236.7 193.2s-126.6 305.2-125 449c1.6 143.7 198.9 142.8 207 139.6 8.2-3.2 164.6-34.5 163.2-31.2-8.2 19.8-8.2-240 73.8-352.1 23.1 19.1 42.2 28.9 42.2 28.9s196.4 12.2 295.9-19.1c61.3-13.8 84.4 29.2 84.4 29.2s28.4-7.7 35.8-17.5c7.7 4.8 16.2 12.5 21.5 10.6 5.3-2.1 26.3-13.8 23.1-27.1-3.2-13.3-44.3-55.8-67.7-61.2-24.4-1.4-48.8-.1-49.1.2-.5.5 28.1-32.1 28.1-33.7s-1.6-6.9-1.6-6.9-38.2-1.6-48.8 1.3c-11.4 10.9-19.4 30.5-24.7 33.7-9 5.3-153.7-38.2-202-56.8-30.5-44.6-55.9-53.6-55.9-53.6z"/></defs><defs><path id="SVGID_35_" d="M1147.5 885.9c2.8-3.2-102.9-35-161.9 105.7 38.9 46.7 62.1 67.2 62.1 67.2s114 349.9 18.4 444.1-730.4 52-647.6-152.6 285-674.7 386.4-689.3 222.4-56.8 281.7 0c59.2 56.8 84.4 142 85.2 161.6.8 19.4-15.4 57.6-14.6 60.8"/></defs><clipPath id="SVGID_36_"><use xlink:href="#SVGID_33_" overflow="visible"/></clipPath><clipPath id="SVGID_37_" clip-path="url(#SVGID_36_)"><use xlink:href="#SVGID_35_" overflow="visible"/></clipPath><path d="M851.3 795.5s109.5 172.6 141.5 203.9c19.2 18.7 30.9-48 28.2-41.5s54.6 172.6 54.6 172.6-145.6-56.2-224.3-335z" clip-path="url(#SVGID_37_)" fill="#d53d52"/><path class="st19" d="M1431.4 1032.1s42.4 29.4 41.2 58.2c-4 18.1-22.9 28.4-37.5 21.2-14.6-7.4-50.7-30.2-55.7-41.2-5-11.1 16.6-45.9 52-38.2z"/></g><defs><path id="SVGID_39_" d="M2519.4 1364.1H622c-51.2 0-92.7-41.5-92.7-92.7V178.1c0-51.2 41.5-92.7 92.7-92.7h1897.4c51.2 0 92.7 41.5 92.7 92.7v1093.3c0 51.2-41.4 92.7-92.7 92.7z"/></defs><clipPath id="SVGID_40_"><use xlink:href="#SVGID_39_" overflow="visible"/></clipPath><g id="character-1" clip-path="url(#SVGID_40_)"><path class="st19" d="M1962.2 395s-46.6 94.8-19.4 174.8c27 80 123.9 23.2 139.3-6.4 15.5-29.8 30.1-99 21.4-125-8.7-26-14-46.6-61.9-54.2-47.8-7.6-70.2 2.2-71.2 4.8"/><path d="M2177 645.6s-26.8-35-36.6-53.1c-35.8 8.5-59.2 6.1-73 20.2s-24.7 49.3-24.7 49.3-7.4 25.3 7.4 55.8c14.6 30.5 97.4 60.5 114.1 40.1s24.4-23.6 33.7-43.8 11-48.1 10.7-47.8c-.7.3-31.6-20.7-31.6-20.7z" fill="#dd9f76"/><path d="M1893.8 642.3c-2.1-2.3-3.1-5.4-2.8-8.6 2.1-23.6 13.6-124.8 61.9-110 54.6 16.8 62.8 72.6 100.6 50.4 37.8-22.2 58-144.5-2.8-151.6-60.6-7-91.4 23.8-125-47.6s58.4-104.2 110.4-48.8c30.8-40.6 139.6-43.2 123.4 91 56.2 33.6 30.8 121.8-15.2 129.4s-55.2 65-67.6 95.2c-12.1 29.8-126.4 63.7-182.9.6z" fill="#5b371d"/><path class="st19" d="M2083.8 613.7c-1.7-2.2-2.3-5.1-1.5-7.7 3.2-12 12.9-47.5 17.1-61 5.3-16.2 47-24.4 60.5 5.6 13.1 29.1-45.9 101.2-76.1 63.1z"/><defs><path id="SVGID_41_" d="M2044.7 666.1s-101.4 34.2-121.6 41.2c-14.6 16.2-89.6 140.4-232.4 216.8-92.6 56.8-145.6 69.2-161.8 66.6-13.1-9-40.1-28.8-49.8-39.4-2.5-2.8-6.7-3.1-9.7-.9-15.2 11.6-51.8 46.2-71.4 53.8-1.5.6-2.4 2.2-2.1 3.8 3 15.4 41.7 28.9 87.1-5.4 20.6 9 51.2 40.8 60 48.2 13 6.4 227.3 30.8 412.4-122.6 69.8 132.4 156.6 282.5 156.6 439.2 145.4 57.6 500.1 13.8 500.1 13.8s48.8-60 45.5-100.6c-3.2-40.6-155.8-332.8-216-420.5-60-87.6-115.2-170.4-115.2-170.4L2177 645.9l12.2 23.9s-28.9 65.3-77.2 66.9c-48.3 1.4-67.3-70.6-67.3-70.6z"/></defs><clipPath id="SVGID_42_"><use xlink:href="#SVGID_41_" overflow="visible"/></clipPath><g clip-path="url(#SVGID_42_)"><defs><path id="SVGID_43_" d="M2044.7 666.1s-33.1 11.2-65.3 22c-35.5 12-66.7 34.3-89.8 63.8-36.9 47.3-102.4 120.5-198.9 172.1-92.6 56.8-145.6 69.2-161.8 66.6-12.9-8.9-39.4-28.3-49.3-39-2.8-3-7.4-3.5-10.7-.9-15.6 12.2-52.1 46.6-71.5 53.7-1.2.3-1.8 1.5-1.6 2.6 1.6 15.8 41.1 30.4 87.2-4.6 20.6 9 51.2 40.8 60 48.2 13 6.4 227.3 30.8 412.4-122.6 69.8 132.4 156.6 282.5 156.6 439.2 145.4 57.6 500.1 13.8 500.1 13.8s48.8-60 45.5-100.6c-3.2-40.6-155.8-332.8-216-420.5-31.9-46.5-62.3-91.5-84-123.6-20.4-30.2-50.7-52.4-85.7-62.7l-95.1-27.9 12.2 23.9s-28.9 65.3-77.2 66.9c-48.1 1.6-67.1-70.4-67.1-70.4z"/></defs><clipPath id="SVGID_44_"><use xlink:href="#SVGID_43_" overflow="visible"/></clipPath><path d="M2044.7 666.1s-39 13.1-73.4 24.7c-30.7 10.4-57.6 29.8-77.4 55.4-36 46.8-102.8 124.1-203.2 177.7-92.6 56.8-145.6 69.2-161.8 66.6-12.9-8.9-39.4-28.3-49.3-39-2.8-3-7.4-3.5-10.7-.9-15.6 12.2-52.1 46.6-71.5 53.7-1.2.5-1.8 1.5-1.7 2.6 1.6 15.8 41.1 30.4 87.2-4.6 20.6 9 51.2 40.8 60 48.2 13 6.4 227.3 30.8 412.4-122.6 69.8 132.4 156.6 282.5 156.6 439.2 145.4 57.6 500.1 13.8 500.1 13.8s48.8-60 45.5-100.6c-3.2-40.6-155.8-332.8-216-420.5-31.9-46.5-62.3-91.5-84-123.6-20.4-30.2-50.7-52.4-85.7-62.7l-95.1-27.9 12.2 23.9s-28.9 65.3-77.2 66.9c-48 1.7-67-70.3-67-70.3z" clip-path="url(#SVGID_44_)" fill="#2bc8f2"/><defs><path id="SVGID_45_" d="M2044.7 666.1s-33.1 11.2-65.3 22c-35.5 12-66.7 34.3-89.8 63.8-36.9 47.3-102.4 120.5-198.9 172.1-92.6 56.8-145.6 69.2-161.8 66.6-12.9-8.9-39.4-28.3-49.3-39-2.8-3-7.4-3.5-10.7-.9-15.6 12.2-52.1 46.6-71.5 53.7-1.2.3-1.8 1.5-1.6 2.6 1.6 15.8 41.1 30.4 87.2-4.6 20.6 9 51.2 40.8 60 48.2 13 6.4 227.3 30.8 412.4-122.6 69.8 132.4 156.6 282.5 156.6 439.2 145.4 57.6 500.1 13.8 500.1 13.8s48.8-60 45.5-100.6c-3.2-40.6-155.8-332.8-216-420.5-31.9-46.5-62.3-91.5-84-123.6-20.4-30.2-50.7-52.4-85.7-62.7l-95.1-27.9 12.2 23.9s-28.9 65.3-77.2 66.9c-48.1 1.6-67.1-70.4-67.1-70.4z"/></defs><clipPath id="SVGID_46_"><use xlink:href="#SVGID_45_" overflow="visible"/></clipPath><path d="M1919.9 692.1l3.2 15.2s-3.6 176.2 61.4 286.8c11.3 19.2-181 132.5-199.3 138.6s-107.2 18.3-119.4-48.8c-12.2-66.9-115.7-190 0-249.7s164.4-98.7 174.1-103.5" clip-path="url(#SVGID_46_)" fill="#0ea1da"/></g><defs><path id="SVGID_47_" d="M2044.7 666.1s-101.4 34.2-121.6 41.2c-14.6 16.2-89.6 140.4-232.4 216.8-92.6 56.8-145.6 69.2-161.8 66.6-13.1-9-40.1-28.8-49.8-39.4-2.5-2.8-6.7-3.1-9.7-.9-15.2 11.6-51.8 46.2-71.4 53.8-1.5.6-2.4 2.2-2.1 3.8 3 15.4 41.7 28.9 87.1-5.4 20.6 9 51.2 40.8 60 48.2 13 6.4 227.3 30.8 412.4-122.6 69.8 132.4 156.6 282.5 156.6 439.2 145.4 57.6 500.1 13.8 500.1 13.8s48.8-60 45.5-100.6c-3.2-40.6-155.8-332.8-216-420.5-60-87.6-115.2-170.4-115.2-170.4L2177 645.9l12.2 23.9s-28.9 65.3-77.2 66.9c-48.3 1.4-67.3-70.6-67.3-70.6z"/></defs><clipPath id="SVGID_49_"><use xlink:href="#SVGID_47_" overflow="visible"/></clipPath><path d="M1691 902.7s0 110.4 79.6 167.8c-202.4 66.6-388.1 32-407-6.4-19-38.4 33-172.1 62.2-173.2 29.2-1.2 81.2 19.4 93.6 33.6" clip-path="url(#SVGID_49_)" fill="#f9c19c"/><defs><path id="SVGID_50_" d="M2044.7 666.1s-101.4 34.2-121.6 41.2c-14.6 16.2-89.6 140.4-232.4 216.8-92.6 56.8-145.6 69.2-161.8 66.6-13.1-9-40.1-28.8-49.8-39.4-2.5-2.8-6.7-3.1-9.7-.9-15.2 11.6-51.8 46.2-71.4 53.8-1.5.6-2.4 2.2-2.1 3.8 3 15.4 41.7 28.9 87.1-5.4 20.6 9 51.2 40.8 60 48.2 13 6.4 227.3 30.8 412.4-122.6 69.8 132.4 156.6 282.5 156.6 439.2 145.4 57.6 500.1 13.8 500.1 13.8s48.8-60 45.5-100.6c-3.2-40.6-155.8-332.8-216-420.5-60-87.6-115.2-170.4-115.2-170.4L2177 645.9l12.2 23.9s-28.9 65.3-77.2 66.9c-48.3 1.4-67.3-70.6-67.3-70.6z"/></defs><clipPath id="SVGID_51_"><use xlink:href="#SVGID_50_" overflow="visible"/></clipPath><path d="M2308.2 967.3s-33.8-65.2-48-76c15.6 28.6 69 135.6 72.7 220.2 30.8 26 48.1-57.4 36.1-76.4-11.8-18.8-60.8-67.8-60.8-67.8z" clip-path="url(#SVGID_51_)" fill="#0ea1da"/><defs><path id="SVGID_53_" d="M2044.7 666.1s-101.4 34.2-121.6 41.2c-14.6 16.2-89.6 140.4-232.4 216.8-92.6 56.8-145.6 69.2-161.8 66.6-13.1-9-40.1-28.8-49.8-39.4-2.5-2.8-6.7-3.1-9.7-.9-15.2 11.6-51.8 46.2-71.4 53.8-1.5.6-2.4 2.2-2.1 3.8 3 15.4 41.7 28.9 87.1-5.4 20.6 9 51.2 40.8 60 48.2 13 6.4 227.3 30.8 412.4-122.6 69.8 132.4 156.6 282.5 156.6 439.2 145.4 57.6 500.1 13.8 500.1 13.8s48.8-60 45.5-100.6c-3.2-40.6-155.8-332.8-216-420.5-60-87.6-115.2-170.4-115.2-170.4L2177 645.9l12.2 23.9s-28.9 65.3-77.2 66.9c-48.3 1.4-67.3-70.6-67.3-70.6z"/></defs><clipPath id="SVGID_54_"><use xlink:href="#SVGID_53_" overflow="visible"/></clipPath><path d="M2505 942.7c10.9-4.8 213.1 112 249.7 149.7 36.6 37.7 66.6 256.1-226.9 321.9s-290.6-11.4-490.4-50.4-56-125.5-60.8-169.3-28.2-4.7 43.5 0c166.1 10.9 318.2-37.7 318.2-37.7s36.1-35.8 29.7-72.6" clip-path="url(#SVGID_54_)" fill="#25b9dd"/><defs><path id="SVGID_55_" d="M2044.7 666.1s-101.4 34.2-121.6 41.2c-14.6 16.2-89.6 140.4-232.4 216.8-92.6 56.8-145.6 69.2-161.8 66.6-13.1-9-40.1-28.8-49.8-39.4-2.5-2.8-6.7-3.1-9.7-.9-15.2 11.6-51.8 46.2-71.4 53.8-1.5.6-2.4 2.2-2.1 3.8 3 15.4 41.7 28.9 87.1-5.4 20.6 9 51.2 40.8 60 48.2 13 6.4 227.3 30.8 412.4-122.6 69.8 132.4 156.6 282.5 156.6 439.2 145.4 57.6 500.1 13.8 500.1 13.8s48.8-60 45.5-100.6c-3.2-40.6-155.8-332.8-216-420.5-60-87.6-115.2-170.4-115.2-170.4L2177 645.9l12.2 23.9s-28.9 65.3-77.2 66.9c-48.3 1.4-67.3-70.6-67.3-70.6z"/></defs><clipPath id="SVGID_56_"><use xlink:href="#SVGID_55_" overflow="visible"/></clipPath><defs><path id="SVGID_57_" d="M2044.7 666.1s-101.4 34.2-121.6 41.2c-14.6 16.2-89.6 140.4-232.4 216.8-92.6 56.8-145.6 69.2-161.8 66.6-13.1-9-40.1-28.8-49.8-39.4-2.5-2.8-6.7-3.1-9.7-.9-15.2 11.6-51.8 46.2-71.4 53.8-1.5.6-2.4 2.2-2.1 3.8 3 15.4 41.7 28.9 87.1-5.4 20.6 9 51.2 40.8 60 48.2 13 6.4 227.3 30.8 412.4-122.6 69.8 132.4 156.6 282.5 156.6 439.2 145.4 57.6 500.1 13.8 500.1 13.8s48.8-60 45.5-100.6c-3.2-40.6-155.8-332.8-216-420.5-60-87.6-115.2-170.4-115.2-170.4L2177 645.9l12.2 23.9s-28.9 65.3-77.2 66.9c-48.3 1.4-67.3-70.6-67.3-70.6z"/></defs><clipPath id="SVGID_58_"><use xlink:href="#SVGID_57_" overflow="visible"/></clipPath><path d="M2099 1278.3s48.2-38 70.8-58.2c22.4 0 196.4 26.8 308.5-10.6 137.6-45.9 88.8-32.4 24.4-38.9-64.4-6.4-184.6-2.8-247.4 5.4-62.8 8.2-86-32.4-147.2 26.6s-94.8 114.7-99 131" clip-path="url(#SVGID_58_)" fill="#0ea1da"/><defs><path id="SVGID_59_" d="M2308.2 967.3s37.1 72.3 39.2 113.4c-23.7 15.9-145 43.2-189.4 58.4-32.4-1-58-22.8-73-22.8-15.2 0-70.8 13.2-89.8 10.2-11.6 3-4.8 28.2 51.2 29.4-34 27.6-73.5 86.8-82 115.7-.8 9.8 22.1-7.5 25.8-9.8-3 9 8.7 8.3 26 4s92.7-16.7 146.3-68.5c55.8.6 251.6 15.2 335-9.2s81.2-75.1 77.4-93.5c-17-49.3-110.5-202.8-110.5-202.8l-3.1-5.8c-.1.5-71.3-1.5-153.1 81.3z"/></defs><clipPath id="SVGID_60_"><use xlink:href="#SVGID_59_" overflow="visible"/></clipPath><path d="M2308.2 967.3s37.1 72.3 39.2 113.4c-23.8 16.8-145 43.2-189.4 58.4-32.4-1-58-22.8-73-22.8-15.2 0-70.8 13.2-89.8 10.2-11.6 3-4.8 28.2 51.2 29.4-34 27.6-73.5 86.8-82 115.7-.8 9.8 22.1-7.5 25.8-9.8-3 9 8.7 8.3 26 4s92.7-16.7 146.3-68.5c55.8.6 251.6 15.2 335-9.2s81.2-75.1 77.4-93.5c-17-49.3-110.5-202.8-110.5-202.8l-3.1-5.8c-.1.5-71.3-1.5-153.1 81.3z" clip-path="url(#SVGID_60_)" fill="#f9c19c"/><defs><path id="SVGID_61_" d="M2308.2 967.3s37.1 72.3 39.2 113.4c-23.7 15.9-145 43.2-189.4 58.4-32.4-1-58-22.8-73-22.8-15.2 0-70.8 13.2-89.8 10.2-11.6 3-4.8 28.2 51.2 29.4-34 27.6-73.5 86.8-82 115.7-.8 9.8 22.1-7.5 25.8-9.8-3 9 8.7 8.3 26 4s92.7-16.7 146.3-68.5c55.8.6 251.6 15.2 335-9.2s81.2-75.1 77.4-93.5c-17-49.3-110.5-202.8-110.5-202.8l-3.1-5.8c-.1.5-71.3-1.5-153.1 81.3z"/></defs><clipPath id="SVGID_62_"><use xlink:href="#SVGID_61_" overflow="visible"/></clipPath><path d="M1958.6 1269.9s5.3 4.6 15.1-3 42.8-34.4 47.5-38.4c-6.3 8.3-31.1 33.7-31.1 33.7s-12.2 10.8-17.7 14.8-7.7 6.9-12 5.1" clip-path="url(#SVGID_62_)" fill="#da9d79"/><defs><path id="SVGID_63_" d="M2308.2 967.3s37.1 72.3 39.2 113.4c-23.7 15.9-145 43.2-189.4 58.4-32.4-1-58-22.8-73-22.8-15.2 0-70.8 13.2-89.8 10.2-11.6 3-4.8 28.2 51.2 29.4-34 27.6-73.5 86.8-82 115.7-.8 9.8 22.1-7.5 25.8-9.8-3 9 8.7 8.3 26 4s92.7-16.7 146.3-68.5c55.8.6 251.6 15.2 335-9.2s81.2-75.1 77.4-93.5c-17-49.3-110.5-202.8-110.5-202.8l-3.1-5.8c-.1.5-71.3-1.5-153.1 81.3z"/></defs><clipPath id="SVGID_64_"><use xlink:href="#SVGID_63_" overflow="visible"/></clipPath><path d="M1991.1 1137.2s27.6 18.6 75.7 9.8c-9 3.9-18.6 9.3-20.5 9.3-1.8 0-60.3 5.1-61.9 0s-8.2-17-7.4-17" clip-path="url(#SVGID_64_)" fill="#da9d79"/><defs><path id="SVGID_65_" d="M2308.2 967.3s37.1 72.3 39.2 113.4c-23.7 15.9-145 43.2-189.4 58.4-32.4-1-58-22.8-73-22.8-15.2 0-70.8 13.2-89.8 10.2-11.6 3-4.8 28.2 51.2 29.4-34 27.6-73.5 86.8-82 115.7-.8 9.8 22.1-7.5 25.8-9.8-3 9 8.7 8.3 26 4s92.7-16.7 146.3-68.5c55.8.6 251.6 15.2 335-9.2s81.2-75.1 77.4-93.5c-17-49.3-110.5-202.8-110.5-202.8l-3.1-5.8c-.1.5-71.3-1.5-153.1 81.3z"/></defs><clipPath id="SVGID_66_"><use xlink:href="#SVGID_65_" overflow="visible"/></clipPath><path d="M2347.4 1080.7s69.5-22.2 94.5-13c-5.6-12-58.4-21.2-102.8 5.6.2 9.3 8.3 7.4 8.3 7.4z" clip-path="url(#SVGID_66_)" fill="#da9d79"/><defs><path id="SVGID_67_" d="M2308.2 967.3s37.1 72.3 39.2 113.4c-23.7 15.9-145 43.2-189.4 58.4-32.4-1-58-22.8-73-22.8-15.2 0-70.8 13.2-89.8 10.2-11.6 3-4.8 28.2 51.2 29.4-34 27.6-73.5 86.8-82 115.7-.8 9.8 22.1-7.5 25.8-9.8-3 9 8.7 8.3 26 4s92.7-16.7 146.3-68.5c55.8.6 251.6 15.2 335-9.2s81.2-75.1 77.4-93.5c-17-49.3-110.5-202.8-110.5-202.8l-3.1-5.8c-.1.5-71.3-1.5-153.1 81.3z"/></defs><clipPath id="SVGID_68_"><use xlink:href="#SVGID_67_" overflow="visible"/></clipPath><path d="M2075.1 1113.6c1.3-.5 42.3 23.7 80.6 34.6 53.1-15.9 255.4-74.1 286.3-80.5-22.3-11-94.5 13-94.5 13s-88.1 12.2-124.7 22c-36.6 9.8-155-13.3-155-12.2" clip-path="url(#SVGID_68_)" fill="#fcdac8"/><defs><path id="SVGID_69_" d="M2308.2 967.3s37.1 72.3 39.2 113.4c-23.7 15.9-145 43.2-189.4 58.4-32.4-1-58-22.8-73-22.8-15.2 0-70.8 13.2-89.8 10.2-11.6 3-4.8 28.2 51.2 29.4-34 27.6-73.5 86.8-82 115.7-.8 9.8 22.1-7.5 25.8-9.8-3 9 8.7 8.3 26 4s92.7-16.7 146.3-68.5c55.8.6 251.6 15.2 335-9.2s81.2-75.1 77.4-93.5c-17-49.3-110.5-202.8-110.5-202.8l-3.1-5.8c-.1.5-71.3-1.5-153.1 81.3z"/></defs><clipPath id="SVGID_70_"><use xlink:href="#SVGID_69_" overflow="visible"/></clipPath><path d="M1482.9 1002.5s3.9-6.2 5.4-7.1c3 2.8 22.9 22.2 24.5 22.7 3.2-3.2 3.5-6.4 3.5-6.4s2.2 7.1 0 9.9c5.5 6.4 34.7 27.8 29.4 44.6-42.8-19.3-70-52.6-70-52.6l6.4-5.6" clip-path="url(#SVGID_70_)" fill="#da9d79"/><defs><path id="SVGID_71_" d="M2308.2 967.3s37.1 72.3 39.2 113.4c-23.7 15.9-145 43.2-189.4 58.4-32.4-1-58-22.8-73-22.8-15.2 0-70.8 13.2-89.8 10.2-11.6 3-4.8 28.2 51.2 29.4-34 27.6-73.5 86.8-82 115.7-.8 9.8 22.1-7.5 25.8-9.8-3 9 8.7 8.3 26 4s92.7-16.7 146.3-68.5c55.8.6 251.6 15.2 335-9.2s81.2-75.1 77.4-93.5c-17-49.3-110.5-202.8-110.5-202.8l-3.1-5.8c-.1.5-71.3-1.5-153.1 81.3z"/></defs><clipPath id="SVGID_72_"><use xlink:href="#SVGID_71_" overflow="visible"/></clipPath><g clip-path="url(#SVGID_72_)"><defs><path id="SVGID_73_" d="M2331.5 1088.4s29.9 41.2 34.5 115.9c37.7 7 79.9 19.3 139.2-5.1 59.2-24.4 136.4-84.9 119.4-137.6-17-52.7-102.7-114.1-111.2-134.8s-56.8-40.5-56.8-40.5-91.9 9.1-150.1 83c24.5 75.1 25 119.1 25 119.1z"/></defs><clipPath id="SVGID_74_"><use xlink:href="#SVGID_73_" overflow="visible"/></clipPath><path d="M2331.5 1088.4s29.9 41.2 34.5 115.9c37.7 7 79.9 19.3 139.2-5.1 59.2-24.4 136.4-84.9 119.4-137.6-17-52.7-102.7-114.1-111.2-134.8s-56.8-40.5-56.8-40.5-91.9 9.1-150.1 83c24.5 75.1 25 119.1 25 119.1z" clip-path="url(#SVGID_74_)" fill="#008ec6"/><defs><path id="SVGID_75_" d="M2331.5 1088.4s29.9 41.2 34.5 115.9c37.7 7 79.9 19.3 139.2-5.1 59.2-24.4 136.4-84.9 119.4-137.6-17-52.7-102.7-114.1-111.2-134.8s-56.8-40.5-56.8-40.5-91.9 9.1-150.1 83c24.5 75.1 25 119.1 25 119.1z"/></defs><clipPath id="SVGID_76_"><use xlink:href="#SVGID_75_" overflow="visible"/></clipPath><path d="M2347.4 1080.7s74.6-23.1 115.5-25.4c-22.8-10.1-89.9-4.7-128.5 16.7-1.4 6.1 6.1 8.7 6.1 8.7" clip-path="url(#SVGID_76_)" fill="#006d98"/></g></g><defs><path id="SVGID_77_" d="M2519.4 1364.1H622c-51.2 0-92.7-41.5-92.7-92.7V178.1c0-51.2 41.5-92.7 92.7-92.7h1897.4c51.2 0 92.7 41.5 92.7 92.7v1093.3c0 51.2-41.4 92.7-92.7 92.7z"/></defs><clipPath id="SVGID_78_"><use xlink:href="#SVGID_77_" overflow="visible"/></clipPath><g clip-path="url(#SVGID_78_)"><path class="st41" d="M2097.8 952.4c-.6-.5-1.5-.7-2.3-.5-6.8 1.4-15.1.6-18.7 0-1.6-.2-3.1 1-3.1 2.8 0 5.3 4.1 16 13.3 16.3 11.6.6 17.1-13.5 10.8-18.6zm-45.4-38.4c-13-.2-10.1 12.7-9.3 15.8.1.3.5.5.7.3 2.6-1 13.5-3.9 19.3 4.9.2.2.6.3.8.1 4.5-5.9 2.8-20.9-11.5-21.1zm55.7 2.7c-12 5.2-4 15.8-2 18.2.2.2.6.2.8 0 2-2.1 10.7-9.2 19.6-3.5.2.1.7 0 .7-.2 1.8-7.1-5.9-20.1-19.1-14.5z"/><path class="st41" d="M2195.3 898.2c0-.7-.1-1.5-.1-2.3v-1.2c0-.5-.1-.7-.1-1.2-.1-1.5-.2-3.1-.3-4.5-.1-1.5-.3-3.1-.6-4.4-.1-1.5-.3-2.8-.7-4.1l-.3-2.1c-.1-.3-.1-.7-.2-1-.1-.3-.1-.7-.2-.8-.2-1.4-.6-2.5-.9-3.8-.1-.3-.1-.6-.2-.8-.1-.2-.1-.6-.2-.8-.1-.6-.3-1-.5-1.7-.3-1-.6-2.1-.9-3.1-.3-.8-.6-1.8-.9-2.6v-.1c1.7-1.6 2.8-4 2.8-6.9 0-4.8-3.2-8.7-7.1-8.7-3.9 0-7.1 3.9-7.1 8.7 0 4.7 3.1 8.5 6.9 8.6 0 .1.1.3.1.5.2.8.5 1.7.7 2.6.2.8.5 2 .7 3.1.1.5.2 1 .3 1.6.1.2.1.5.2.8.1.2.1.6.1.8.2 1 .3 2.3.6 3.3.1.3.1.6.1.8.1.3.1.6.1.8.1.6.1 1.4.2 1.8.1 1.4.3 2.5.5 3.8.1 1.4.2 2.6.3 4s.1 2.6.1 4.1v2.1c0 .7-.1 1.5-.1 2.1 0 .7 0 1.5-.1 2.1l-.1 2.1-.1 2.1c0 .3-.1.7-.1 1l-.1 1c-.2 1.4-.3 2.8-.6 4.1-.2 1.4-.5 2.6-.7 4-.1.3-.1.7-.2 1-.1.3-.1.7-.2 1-.1.7-.2 1.2-.5 1.7-.5-1.8-1.2-3.3-2-4.7-.1-.1-.1-.2-.2-.3 0-.1-.1-.1-.1-.2-2-3.3-4.9-5.8-8.4-6.7-2.2-.8-7.7-.7-9.7-.8-1.4-4.5-5.5-45.2-84.5-45.5-84-.2-79 40.6-79 40.6s.1.7.6 3.1c-4.3.9-9.7 3.2-12.2 8.7-.3-.6-.6-1.2-.7-1.8-.1-.3-.2-.7-.3-1-.1-.3-.2-.7-.3-1-.3-1.3-.8-2.5-1.2-3.9-.3-1.3-.7-2.8-1.2-4l-.2-1c0-.3-.2-.7-.2-1l-.3-2.1-.3-2.2c-.2-.6-.2-1.3-.3-2.1-.1-.6-.2-1.3-.3-2.1l-.2-2.1c-.2-1.5-.3-2.8-.3-4.1s0-2.6-.1-4c0-1.4.1-2.5 0-3.9.1-.6.1-1.4.1-2.1 0-.2-.1-.6 0-.9 0-.2 0-.5-.1-.8.1-1 .1-2.3.2-3.5v-.9c.1-.2 0-.6.1-.8 0-.6.1-1.2.2-1.6.1-1.2.2-2.2.3-3.1.1-.9.2-1.8.3-2.8 0-.1 0-.2.1-.5h.1c3.9-.5 6.7-4.7 6.1-9.5-.6-4.7-4.3-8.3-8.2-7.7-3.9.5-6.7 4.7-6.1 9.5.3 2.6 1.6 4.8 3.2 6.2 0 .1 0 .2-.1.5-.1.9-.2 1.8-.6 2.8-.1 1-.2 2.1-.5 3.2 0 .7-.2 1.2-.2 1.7-.1.2-.1.6-.1.9-.1.2 0 .6-.1.9-.1 1.3-.3 2.5-.5 3.9-.1.1 0 .6-.1.9s0 .7-.1 1c0 .6-.1 1.4 0 2.1-.1 1.4-.2 2.8-.2 4.1 0 1.4-.1 3-.1 4.4s.1 3 .1 4.5v1.2l.1 1c.1.8.1 1.6.2 2.3 0 .9.1 1.6.2 2.3l.5 2.3.3 2.3c.1.5.2.7.2 1.2l.2 1.2c.3 1.4.7 2.9.9 4.6.3 1.4.7 2.9 1.2 4.4 0 .3.1.7.2 1 0 .3.1.7.2 1 .2.6.5 1.3.6 2 .3.6.7 1.3.8 2 .2.7.5 1.3.6 2 .5 1.2.9 2.4 1.4 3.7.1.5.5 1.2.6 1.7s.6 1.2.7 1.7c.6 1.2 1 2.2 1.4 3.2.3 1 .9 2 1.4 3 .2.6.5 1.2.8 1.7 3.1 13.8 10.1 26 22.7 25 10.7 27.6 40.7 43.8 89.1 43.6 46.4-.2 59.7-14.6 63.9-38.9 6.7 1.5 11.7-1 15.2-8.4 1.6-1.8 2.8-4 3.6-6.4.2-.6.7-1.7 1.3-3.3.3-1.2 1-2.5 1.5-4.4.2-.8.6-1.8.9-2.8.2-1 .7-2.1 1-3.1.2-1 .6-2.2 1-3.3.1-.6.3-1.2.5-1.8.1-.6.2-1.4.3-1.8.2-1.4.6-2.6.9-3.8l.3-2.1c.1-.7.2-1.5.3-2.1.1-.7.2-1.5.3-2.1.1-.3.1-.7.1-1 .1-.3.1-.7.1-1 .2-1.5.3-3.1.6-4.5.1-1.5.2-3.1.3-4.6l.1-1.2c0-.5 0-.7.1-1.2l.1-2.4.1-2.3c.2-.1.2-.8.2-1.7zm-74.3 84.2c-25.5 4.8-86-2.8-93.7-28.8-6.9-23.2-15.1-51 1.5-63.8 3.2-2.5 7-4 10.9-4.7 16.7-3 82.1-12.5 102.5 18.6 21.6 33.1 4.3 73.9-21.2 78.7z"/></g><path d="M2518.9 87.5L2882.8.3c10.8-2.6 18.7 10.2 11.5 18.7l-261.7 305.9c-7.2 8.4-20.9 2.9-20.2-8.3 3.5-57-3.3-164.5-95.8-207.6-9.9-4.4-8.2-19 2.3-21.5z" fill="#075bbd"/><defs><path id="SVGID_79_" d="M2741.9 1433.1c-2.5-2.1-5.6-3.2-8.9-3.2H407.3c-3.2 0-6.3 1.2-8.9 3.2L145 1646c-4.5 3.8-6.1 9.9-4 15.4l25.1 66.5c2.1 5.4 7.1 8.9 12.9 8.9h2782.2c5.8 0 10.8-3.6 12.9-8.9l25.1-66.5c2.1-5.5.5-11.6-4-15.4l-253.3-212.9z"/></defs><clipPath id="SVGID_80_"><use xlink:href="#SVGID_79_" overflow="visible"/></clipPath><path d="M2741.9 1433.1c-2.5-2.1-5.6-3.2-8.9-3.2H407.3c-3.2 0-6.3 1.2-8.9 3.2L145 1646c-4.5 3.8-6.1 9.9-4 15.4l25.1 66.5c2.1 5.4 7.1 8.9 12.9 8.9h2782.2c5.8 0 10.8-3.6 12.9-8.9l25.1-66.5c2.1-5.5.5-11.6-4-15.4l-253.3-212.9z" clip-path="url(#SVGID_80_)" fill="#d6f0fc"/><defs><path id="SVGID_81_" d="M2741.9 1433.1c-2.5-2.1-5.6-3.2-8.9-3.2H407.3c-3.2 0-6.3 1.2-8.9 3.2L145 1646c-4.5 3.8-6.1 9.9-4 15.4l25.1 66.5c2.1 5.4 7.1 8.9 12.9 8.9h2782.2c5.8 0 10.8-3.6 12.9-8.9l25.1-66.5c2.1-5.5.5-11.6-4-15.4l-253.3-212.9z"/></defs><clipPath id="SVGID_82_"><use xlink:href="#SVGID_81_" overflow="visible"/></clipPath><linearGradient id="SVGID_83_" gradientUnits="userSpaceOnUse" x1="1608.11" y1="2045.872" x2="1594.28" y2="3421.992" gradientTransform="matrix(1 0 0 -1 0 3968)"><stop offset=".243" stop-color="#d6f0fc" stop-opacity="0"/><stop offset=".513" stop-color="#92c3e7" stop-opacity=".511"/><stop offset=".772" stop-color="#4e96d1"/></linearGradient><path clip-path="url(#SVGID_82_)" fill="url(#SVGID_83_)" d="M98.6 1303.2h3010.3v370.2H98.6z"/><defs><path id="SVGID_84_" d="M2741.9 1433.1c-2.5-2.1-5.6-3.2-8.9-3.2H407.3c-3.2 0-6.3 1.2-8.9 3.2L145 1646c-4.5 3.8-6.1 9.9-4 15.4l25.1 66.5c2.1 5.4 7.1 8.9 12.9 8.9h2782.2c5.8 0 10.8-3.6 12.9-8.9l25.1-66.5c2.1-5.5.5-11.6-4-15.4l-253.3-212.9z"/></defs><clipPath id="SVGID_85_"><use xlink:href="#SVGID_84_" overflow="visible"/></clipPath><path clip-path="url(#SVGID_85_)" fill="#82b1df" d="M74.3 1652.3h3205.2v334.5H74.3z"/><defs><path id="SVGID_86_" d="M2741.9 1433.1c-2.5-2.1-5.6-3.2-8.9-3.2H407.3c-3.2 0-6.3 1.2-8.9 3.2L145 1646c-4.5 3.8-6.1 9.9-4 15.4l25.1 66.5c2.1 5.4 7.1 8.9 12.9 8.9h2782.2c5.8 0 10.8-3.6 12.9-8.9l25.1-66.5c2.1-5.5.5-11.6-4-15.4l-253.3-212.9z"/></defs><clipPath id="SVGID_87_"><use xlink:href="#SVGID_86_" overflow="visible"/></clipPath><path clip-path="url(#SVGID_87_)" fill="#b0cceb" d="M2678 1479.7H476.9l-117.7 126.7h2436.5z"/><defs><path id="SVGID_88_" d="M2741.9 1433.1c-2.5-2.1-5.6-3.2-8.9-3.2H407.3c-3.2 0-6.3 1.2-8.9 3.2L145 1646c-4.5 3.8-6.1 9.9-4 15.4l25.1 66.5c2.1 5.4 7.1 8.9 12.9 8.9h2782.2c5.8 0 10.8-3.6 12.9-8.9l25.1-66.5c2.1-5.5.5-11.6-4-15.4l-253.3-212.9z"/></defs><clipPath id="SVGID_89_"><use xlink:href="#SVGID_88_" overflow="visible"/></clipPath><path d="M2774.6 1508.2c11.6-7 18.1-14.8 18.1-23 0-30.6-89.8-55.4-200.6-55.4-95.6 0-175.5 18.5-195.6 43.2-63.9 2.6-112.7 16.2-112.7 32.5 0 16.8 51.3 30.6 117.8 32.8-.6 2.2-.3 4.4-.8 6.6-12 59.1 89.8 73.3 200.6 73.3s200.6-32.8 200.6-73.3c-.3-13.3-10.1-25.9-27.4-36.7z" clip-path="url(#SVGID_89_)" fill="#4e96d1"/><defs><path id="SVGID_90_" d="M2741.9 1433.1c-2.5-2.1-5.6-3.2-8.9-3.2H407.3c-3.2 0-6.3 1.2-8.9 3.2L145 1646c-4.5 3.8-6.1 9.9-4 15.4l25.1 66.5c2.1 5.4 7.1 8.9 12.9 8.9h2782.2c5.8 0 10.8-3.6 12.9-8.9l25.1-66.5c2.1-5.5.5-11.6-4-15.4l-253.3-212.9z"/></defs><clipPath id="SVGID_91_"><use xlink:href="#SVGID_90_" overflow="visible"/></clipPath><path d="M345 1508.2c-11.6-7-18.1-14.8-18.1-23 0-30.6 89.8-55.4 200.6-55.4 95.6 0 175.5 18.5 195.6 43.2 63.9 2.6 112.7 16.2 112.7 32.5 0 16.8-51.3 30.6-117.8 32.8.6 2.2.3 4.4.8 6.6 12 59.1-89.8 72.5-200.6 73.3-143.8 1-200.6-32.8-200.6-73.3.3-13.3 10.2-25.9 27.4-36.7z" clip-path="url(#SVGID_91_)" fill="#4e96d1"/></g><g id="Layer_14_copy"><g id="coin_copy_7_00000092416407582613912440000003091137224349222572_"><path class="st49" d="M683.1 1477.3c0 21.5-77.7 39-173.8 39s-173.8-17.5-173.8-39V1435s73.7.5 76.5 2.3c2.9 1.8 271-2.2 271-2.2l.1 42.2z"/><defs><ellipse id="SVGID_92_" cx="509.3" cy="1435.1" rx="173.8" ry="39"/></defs><clipPath id="SVGID_93_"><use xlink:href="#SVGID_92_" overflow="visible"/></clipPath><ellipse cx="509.3" cy="1435.1" rx="173.8" ry="39" clip-path="url(#SVGID_93_)" fill="#ffda82"/><defs><ellipse id="SVGID_94_" cx="509.3" cy="1435.1" rx="173.8" ry="39"/></defs><clipPath id="SVGID_95_"><use xlink:href="#SVGID_94_" overflow="visible"/></clipPath><ellipse cx="509.3" cy="1434.4" rx="146.4" ry="26.6" clip-path="url(#SVGID_95_)" fill="#fff"/><defs><ellipse id="SVGID_96_" cx="509.3" cy="1435.1" rx="173.8" ry="39"/></defs><clipPath id="SVGID_97_"><use xlink:href="#SVGID_96_" overflow="visible"/></clipPath><path d="M690.4 1420.8c0 20.9-76 38-171.6 38.9h-8.6c-99.5 0-180.2-17.5-180.2-39v-42.3s76.4.5 79.4 2.3 281-2.2 281-2.2v42.3z" opacity=".62" clip-path="url(#SVGID_97_)" fill="#f99b22"/></g><g id="coin_copy_7_00000158707096659052579730000007270950106058974130_"><path class="st49" d="M819.3 1488.7c0 21.5-77.7 39-173.8 39s-173.8-17.5-173.8-39v-42.3s73.7.5 76.5 2.3c2.9 1.8 271-2.2 271-2.2l.1 42.2z"/><defs><ellipse id="SVGID_98_" cx="645.5" cy="1446.5" rx="173.8" ry="39"/></defs><clipPath id="SVGID_99_"><use xlink:href="#SVGID_98_" overflow="visible"/></clipPath><ellipse cx="645.5" cy="1446.5" rx="173.8" ry="39" clip-path="url(#SVGID_99_)" fill="#ffda82"/><defs><ellipse id="SVGID_100_" cx="645.5" cy="1446.5" rx="173.8" ry="39"/></defs><clipPath id="SVGID_101_"><use xlink:href="#SVGID_100_" overflow="visible"/></clipPath><ellipse cx="645.5" cy="1445.7" rx="146.4" ry="26.6" clip-path="url(#SVGID_101_)" fill="#fff59a"/><defs><ellipse id="SVGID_102_" cx="645.5" cy="1446.5" rx="173.8" ry="39"/></defs><clipPath id="SVGID_103_"><use xlink:href="#SVGID_102_" overflow="visible"/></clipPath><path d="M690.4 1420.8c0 20.9-73.4 38-165.5 38.9h-8.3c-95.9 0-173.8-17.5-173.8-39v-42.3s73.7.5 76.5 2.3c2.9 1.8 271-2.2 271-2.2l.1 42.3z" opacity=".62" clip-path="url(#SVGID_103_)" fill="#f99b22"/></g><g id="coin_copy_7_00000111161345146809088950000015219280805449631390_"><path class="st49" d="M692.5 1560.9c0 21.5-77.7 39-173.8 39s-173.8-17.5-173.8-39v-42.3s73.7.5 76.5 2.3c2.9 1.8 271-2.2 271-2.2l.1 42.2z"/><ellipse class="st56" cx="518.9" cy="1518.7" rx="173.8" ry="39"/><ellipse class="st57" cx="518.9" cy="1518" rx="146.4" ry="26.6"/></g><g id="coin_copy_7_00000125569763189187089900000008671934995545680001_"><path class="st49" d="M683.1 1412.5c0 21.5-77.7 39-173.8 39s-173.8-17.5-173.8-39v-42.3s73.7.5 76.5 2.3 271-2.2 271-2.2l.1 42.2z"/><defs><ellipse id="SVGID_104_" cx="509.3" cy="1370.3" rx="173.8" ry="39"/></defs><clipPath id="SVGID_105_"><use xlink:href="#SVGID_104_" overflow="visible"/></clipPath><ellipse cx="509.3" cy="1370.3" rx="173.8" ry="39" clip-path="url(#SVGID_105_)" fill="#ffda82"/><defs><ellipse id="SVGID_106_" cx="509.3" cy="1370.3" rx="173.8" ry="39"/></defs><clipPath id="SVGID_107_"><use xlink:href="#SVGID_106_" overflow="visible"/></clipPath><ellipse cx="509.3" cy="1369.6" rx="146.4" ry="26.6" clip-path="url(#SVGID_107_)" fill="#fff59a"/><defs><ellipse id="SVGID_108_" cx="509.3" cy="1370.3" rx="173.8" ry="39"/></defs><clipPath id="SVGID_109_"><use xlink:href="#SVGID_108_" overflow="visible"/></clipPath><path d="M665.3 1326c0 22.5-73.4 40.9-165.5 42h-8.3c-95.9 0-173.8-18.9-173.8-42.1v-45.7s73.7.6 76.5 2.5c2.9 2 271-2.4 271-2.4l.1 45.7z" opacity=".62" clip-path="url(#SVGID_109_)" fill="#f99b22"/></g><g id="Layer_11_copy_2_00000075152429479493446650000007928018205497446307_"><path id="SVGID_34_" class="st61" d="M535 1350.4s-72.6 35.1-112.8 94.9c-47.4-18.4-136.7-46.1-182.3-47 22.7-29.7 109.7-95.8 135.1-102.2 29.2 16.9 159.9 51.6 159.9 51.6"/><defs><path id="SVGID_110_" d="M535 1350.4s-72.6 35.1-112.8 94.9c-47.4-18.4-136.7-46.1-182.3-47 22.7-29.7 109.7-95.8 135.1-102.2 29.2 16.9 159.9 51.6 159.9 51.6"/></defs><clipPath id="SVGID_111_"><use xlink:href="#SVGID_110_" overflow="visible"/></clipPath><path d="M535 1350.4s-72.6 35.1-112.8 94.9c-47.4-18.4-136.7-46.1-182.3-47 22.7-29.7 109.7-95.8 135.1-102.2 29.2 16.9 159.9 51.6 159.9 51.6" clip-path="url(#SVGID_111_)" fill="#d5f8c7"/><defs><path id="SVGID_112_" d="M535 1350.4s-72.6 35.1-112.8 94.9c-47.4-18.4-136.7-46.1-182.3-47 22.7-29.7 109.7-95.8 135.1-102.2 29.2 16.9 159.9 51.6 159.9 51.6"/></defs><clipPath id="SVGID_113_"><use xlink:href="#SVGID_112_" overflow="visible"/></clipPath><path d="M368.1 1312.9s-38.2 12.2-88.1 61.2c4.3 4.1 3.9 14.1-4.5 18.5 9.7.2 64.2 12.8 120.6 30.9 0 0 11.2-11.6 28.3-6.6 10.9-11.5 53.9-62.6 109.3-77.4-17-11.3-140.1-13.2-141.9-13.1s-17.9-7.5-17.9-7.5" clip-path="url(#SVGID_113_)" fill="#48b83f"/><defs><path id="SVGID_114_" d="M535 1350.4s-72.6 35.1-112.8 94.9c-47.4-18.4-136.7-46.1-182.3-47 22.7-29.7 109.7-95.8 135.1-102.2 29.2 16.9 159.9 51.6 159.9 51.6"/></defs><clipPath id="SVGID_115_"><use xlink:href="#SVGID_114_" overflow="visible"/></clipPath><path d="M313.6 1315.3c4.1 34 116.7 50.3 218.1 46.1s182.8-25 181.8-46.5l-1.7-42.3s-77.7 3.7-80.7 5.6c-3 2-286.3 9.5-286.3 9.5l-31.2 27.6z" opacity=".62" clip-path="url(#SVGID_115_)" fill="#f99b22"/></g><g id="coin_copy_7_00000087371995646466651430000010262598767735266234_"><path class="st49" d="M665.3 1314.2c0 21.5-77.7 39-173.8 39s-173.8-17.5-173.8-39v-42.3s73.7.5 76.5 2.3c2.9 1.8 271-2.2 271-2.2l.1 42.2z"/><defs><ellipse id="SVGID_116_" cx="491.5" cy="1272" rx="173.8" ry="39"/></defs><clipPath id="SVGID_117_"><use xlink:href="#SVGID_116_" overflow="visible"/></clipPath><ellipse cx="491.5" cy="1272" rx="173.8" ry="39" clip-path="url(#SVGID_117_)" fill="#ffda82"/><defs><ellipse id="SVGID_118_" cx="491.5" cy="1272" rx="173.8" ry="39"/></defs><clipPath id="SVGID_119_"><use xlink:href="#SVGID_118_" overflow="visible"/></clipPath><ellipse cx="491.6" cy="1270.7" rx="146.4" ry="26.6" clip-path="url(#SVGID_119_)" fill="#fff59a"/><defs><ellipse id="SVGID_120_" cx="491.5" cy="1272" rx="173.8" ry="39"/></defs><clipPath id="SVGID_121_"><use xlink:href="#SVGID_120_" overflow="visible"/></clipPath><path d="M677 1252.9c0 20.9-73.4 38-165.5 38.9h-8.3c-95.9 0-173.8-17.5-173.8-39v-42.3s73.7.5 76.5 2.3c2.9 1.8 271-2.2 271-2.2l.1 42.3z" opacity=".62" clip-path="url(#SVGID_121_)" fill="#f99b22"/></g><g id="Layer_11_copy_2"><path id="SVGID_38_" class="st61" d="M509.3 1281s74 32.1 116.6 90.2c46.6-20.4 134.8-51.8 180.2-54.4-23.8-28.6-113.5-91.2-139.3-96.6-28.5 18.2-157.7 58.2-157.7 58.2"/><defs><path id="SVGID_122_" d="M509.3 1281s74 32.1 116.6 90.2c46.6-20.4 134.8-51.8 180.2-54.4-23.8-28.6-113.5-91.2-139.3-96.6-28.5 18.2-157.7 58.2-157.7 58.2"/></defs><clipPath id="SVGID_123_"><use xlink:href="#SVGID_122_" overflow="visible"/></clipPath><path d="M509.3 1281s74 32.1 116.6 90.2c46.6-20.4 134.8-51.8 180.2-54.4-23.8-28.6-113.5-91.2-139.3-96.6-28.5 18.2-157.7 58.2-157.7 58.2" clip-path="url(#SVGID_123_)" fill="#d5f8c7"/><defs><path id="SVGID_124_" d="M509.3 1281s74 32.1 116.6 90.2c46.6-20.4 134.8-51.8 180.2-54.4-23.8-28.6-113.5-91.2-139.3-96.6-28.5 18.2-157.7 58.2-157.7 58.2"/></defs><clipPath id="SVGID_125_"><use xlink:href="#SVGID_124_" overflow="visible"/></clipPath><path d="M674.5 1236.7s38.6 10.6 90.5 57.5c-4 4.3-3.3 14.3 5.3 18.3-9.7.7-63.6 15.3-119.3 35.9 0 0-11.6-11.2-28.5-5.4-11.4-11-56.5-60.3-112.3-72.8 16.6-12 139.4-19 141.2-19 1.8 0 17.6-8.2 17.6-8.2" clip-path="url(#SVGID_125_)" fill="#48b83f"/><defs><path id="SVGID_126_" d="M509.3 1281s74 32.1 116.6 90.2c46.6-20.4 134.8-51.8 180.2-54.4-23.8-28.6-113.5-91.2-139.3-96.6-28.5 18.2-157.7 58.2-157.7 58.2"/></defs><clipPath id="SVGID_127_"><use xlink:href="#SVGID_126_" overflow="visible"/></clipPath><path d="M696.7 1252.9c0 21.5-82.2 39-183.6 39s-183.6-17.5-183.6-39v-42.3s77.9.5 80.9 2.3 286.4-2.2 286.4-2.2l-.1 42.2z" opacity=".62" clip-path="url(#SVGID_127_)" fill="#f99b22"/></g><g id="coin_copy_7_00000047059002391057528730000010118279674326045843_"><path class="st49" d="M687.1 1244.7c0 21.5-77.7 39-173.8 39s-173.8-17.5-173.8-39v-42.3s73.7.5 76.5 2.3 271-2.2 271-2.2l.1 42.2z"/><defs><ellipse id="SVGID_128_" cx="513.5" cy="1202.5" rx="173.8" ry="39"/></defs><clipPath id="SVGID_129_"><use xlink:href="#SVGID_128_" overflow="visible"/></clipPath><ellipse cx="513.5" cy="1202.5" rx="173.8" ry="39" clip-path="url(#SVGID_129_)" fill="#ffda82"/><defs><ellipse id="SVGID_130_" cx="513.5" cy="1202.5" rx="173.8" ry="39"/></defs><clipPath id="SVGID_131_"><use xlink:href="#SVGID_130_" overflow="visible"/></clipPath><ellipse cx="513.5" cy="1201.8" rx="146.4" ry="26.6" clip-path="url(#SVGID_131_)" fill="#fff59a"/><defs><ellipse id="SVGID_132_" cx="513.5" cy="1202.5" rx="173.8" ry="39"/></defs><clipPath id="SVGID_133_"><use xlink:href="#SVGID_132_" overflow="visible"/></clipPath><path d="M657.8 1181.1c0 21.5-77.7 39-173.8 39s-173.8-17.5-173.8-39v-42.3s73.7.5 76.5 2.3c2.9 1.8 271-2.2 271-2.2l.1 42.2z" opacity=".62" clip-path="url(#SVGID_133_)" fill="#f99b22"/></g><g id="coin_copy_7"><path class="st49" d="M650.1 1168.5c0 21.5-77.7 39-173.8 39-95.9 0-173.8-17.5-173.8-39v-42.3s73.7.5 76.5 2.3 271-2.2 271-2.2l.1 42.2z"/><ellipse class="st56" cx="476.4" cy="1126.3" rx="173.8" ry="39"/><ellipse class="st57" cx="476.4" cy="1125.5" rx="146.4" ry="26.6"/></g></g><g id="Layer_14"><g id="coin_copy_6"><path class="st49" d="M2432.2 1477.3c0 21.5 77.7 39 173.8 39 96 0 173.8-17.5 173.8-39V1435s-73.7.5-76.5 2.3c-2.9 1.8-271-2.2-271-2.2v42.2h-.1z"/><defs><ellipse id="SVGID_134_" cx="2606" cy="1435.1" rx="173.8" ry="39"/></defs><clipPath id="SVGID_135_"><use xlink:href="#SVGID_134_" overflow="visible"/></clipPath><ellipse cx="2606" cy="1435.1" rx="173.8" ry="39" clip-path="url(#SVGID_135_)" fill="#ffda82"/><defs><ellipse id="SVGID_136_" cx="2606" cy="1435.1" rx="173.8" ry="39"/></defs><clipPath id="SVGID_137_"><use xlink:href="#SVGID_136_" overflow="visible"/></clipPath><ellipse cx="2606" cy="1434.4" rx="146.4" ry="26.6" clip-path="url(#SVGID_137_)" fill="#fff"/><defs><ellipse id="SVGID_138_" cx="2606" cy="1435.1" rx="173.8" ry="39"/></defs><clipPath id="SVGID_139_"><use xlink:href="#SVGID_138_" overflow="visible"/></clipPath><path d="M2425 1420.8c0 20.9 76 38 171.6 38.9h8.6c99.5 0 180.2-17.5 180.2-39v-42.3s-76.4.5-79.4 2.3-281-2.2-281-2.2v42.3z" opacity=".62" clip-path="url(#SVGID_139_)" fill="#f99b22"/></g><g id="coin_copy_4"><path class="st49" d="M2296 1488.7c0 21.5 77.7 39 173.8 39 96 0 173.8-17.5 173.8-39v-42.3s-73.7.5-76.5 2.3c-2.9 1.8-271-2.2-271-2.2v42.2h-.1z"/><defs><ellipse id="SVGID_140_" cx="2469.8" cy="1446.5" rx="173.8" ry="39"/></defs><clipPath id="SVGID_141_"><use xlink:href="#SVGID_140_" overflow="visible"/></clipPath><ellipse cx="2469.8" cy="1446.5" rx="173.8" ry="39" clip-path="url(#SVGID_141_)" fill="#ffda82"/><defs><ellipse id="SVGID_142_" cx="2469.8" cy="1446.5" rx="173.8" ry="39"/></defs><clipPath id="SVGID_143_"><use xlink:href="#SVGID_142_" overflow="visible"/></clipPath><ellipse cx="2469.8" cy="1445.7" rx="146.4" ry="26.6" clip-path="url(#SVGID_143_)" fill="#fff59a"/><defs><ellipse id="SVGID_144_" cx="2469.8" cy="1446.5" rx="173.8" ry="39"/></defs><clipPath id="SVGID_145_"><use xlink:href="#SVGID_144_" overflow="visible"/></clipPath><path d="M2425 1420.8c0 20.9 73.4 38 165.5 38.9h8.3c95.9 0 173.8-17.5 173.8-39v-42.3s-73.7.5-76.5 2.3c-2.9 1.8-271-2.2-271-2.2v42.3h-.1z" opacity=".62" clip-path="url(#SVGID_145_)" fill="#f99b22"/></g><g id="coin_copy_5"><path class="st49" d="M2422.8 1560.9c0 21.5 77.7 39 173.8 39s173.8-17.5 173.8-39v-42.3s-73.7.5-76.5 2.3c-2.9 1.8-271-2.2-271-2.2v42.2h-.1z"/><ellipse class="st56" cx="2596.6" cy="1518.7" rx="173.8" ry="39"/><ellipse class="st57" cx="2596.6" cy="1518" rx="146.4" ry="26.6"/></g><g id="coin_copy_3"><path class="st49" d="M2432.2 1412.5c0 21.5 77.7 39 173.8 39 96 0 173.8-17.5 173.8-39v-42.3s-73.7.5-76.5 2.3c-2.9 1.8-271-2.2-271-2.2v42.2h-.1z"/><defs><ellipse id="SVGID_146_" cx="2606" cy="1370.3" rx="173.8" ry="39"/></defs><clipPath id="SVGID_147_"><use xlink:href="#SVGID_146_" overflow="visible"/></clipPath><ellipse cx="2606" cy="1370.3" rx="173.8" ry="39" clip-path="url(#SVGID_147_)" fill="#ffda82"/><defs><ellipse id="SVGID_148_" cx="2606" cy="1370.3" rx="173.8" ry="39"/></defs><clipPath id="SVGID_149_"><use xlink:href="#SVGID_148_" overflow="visible"/></clipPath><ellipse cx="2606" cy="1369.6" rx="146.4" ry="26.6" clip-path="url(#SVGID_149_)" fill="#fff59a"/><defs><ellipse id="SVGID_150_" cx="2606" cy="1370.3" rx="173.8" ry="39"/></defs><clipPath id="SVGID_151_"><use xlink:href="#SVGID_150_" overflow="visible"/></clipPath><path d="M2450.2 1325.8c0 22.4 73.4 40.8 165.5 41.9h8.3c95.9 0 173.8-18.7 173.8-41.9v-45.4s-73.7.6-76.5 2.5c-2.9 2-271-2.4-271-2.4v45.3h-.1z" opacity=".62" clip-path="url(#SVGID_151_)" fill="#f99b22"/></g><g id="Layer_11_copy"><path id="SVGID_48_" class="st61" d="M2580.5 1350.4s72.6 35.1 112.8 94.9c47.4-18.4 136.7-46.1 182.3-47-22.7-29.7-109.7-95.8-135.1-102.2-29.2 16.9-159.9 51.6-159.9 51.6"/><defs><path id="SVGID_152_" d="M2580.5 1350.4s72.6 35.1 112.8 94.9c47.4-18.4 136.7-46.1 182.3-47-22.7-29.7-109.7-95.8-135.1-102.2-29.2 16.9-159.9 51.6-159.9 51.6"/></defs><clipPath id="SVGID_153_"><use xlink:href="#SVGID_152_" overflow="visible"/></clipPath><path d="M2580.5 1350.4s72.6 35.1 112.8 94.9c47.4-18.4 136.7-46.1 182.3-47-22.7-29.7-109.7-95.8-135.1-102.2-29.2 16.9-159.9 51.6-159.9 51.6" clip-path="url(#SVGID_153_)" fill="#d5f8c7"/><defs><path id="SVGID_154_" d="M2580.5 1350.4s72.6 35.1 112.8 94.9c47.4-18.4 136.7-46.1 182.3-47-22.7-29.7-109.7-95.8-135.1-102.2-29.2 16.9-159.9 51.6-159.9 51.6"/></defs><clipPath id="SVGID_155_"><use xlink:href="#SVGID_154_" overflow="visible"/></clipPath><path d="M2747.2 1312.9s38.2 12.2 88.1 61.2c-4.3 4.1-3.9 14.1 4.5 18.5-9.7.2-64.2 12.8-120.6 30.9 0 0-11.2-11.6-28.3-6.6-10.9-11.5-53.9-62.6-109.3-77.4 17-11.3 140.1-13.2 141.9-13.1s17.9-7.5 17.9-7.5" clip-path="url(#SVGID_155_)" fill="#48b83f"/><defs><path id="SVGID_156_" d="M2580.5 1350.4s72.6 35.1 112.8 94.9c47.4-18.4 136.7-46.1 182.3-47-22.7-29.7-109.7-95.8-135.1-102.2-29.2 16.9-159.9 51.6-159.9 51.6"/></defs><clipPath id="SVGID_157_"><use xlink:href="#SVGID_156_" overflow="visible"/></clipPath><path d="M2801.7 1315.3c-4.1 34-116.7 50.3-218.1 46.1-101.3-4.1-182.8-25-181.8-46.5l1.7-42.3s77.7 3.7 80.7 5.6c3 2 286.3 9.5 286.3 9.5l31.2 27.6z" opacity=".62" clip-path="url(#SVGID_157_)" fill="#f99b22"/></g><g id="coin_copy_2"><path class="st49" d="M2450.2 1314.2c0 21.5 77.7 39 173.8 39 96 0 173.8-17.5 173.8-39v-42.3s-73.7.5-76.5 2.3c-2.9 1.8-271-2.2-271-2.2v42.2h-.1z"/><defs><ellipse id="SVGID_158_" cx="2623.8" cy="1272" rx="173.8" ry="39"/></defs><clipPath id="SVGID_159_"><use xlink:href="#SVGID_158_" overflow="visible"/></clipPath><ellipse cx="2623.8" cy="1272" rx="173.8" ry="39" clip-path="url(#SVGID_159_)" fill="#ffda82"/><defs><ellipse id="SVGID_160_" cx="2623.8" cy="1272" rx="173.8" ry="39"/></defs><clipPath id="SVGID_161_"><use xlink:href="#SVGID_160_" overflow="visible"/></clipPath><ellipse cx="2623.8" cy="1270.7" rx="146.4" ry="26.6" clip-path="url(#SVGID_161_)" fill="#fff59a"/><defs><ellipse id="SVGID_162_" cx="2623.8" cy="1272" rx="173.8" ry="39"/></defs><clipPath id="SVGID_163_"><use xlink:href="#SVGID_162_" overflow="visible"/></clipPath><path d="M2438.4 1252.9c0 20.9 73.4 38 165.5 38.9h8.3c95.9 0 173.8-17.5 173.8-39v-42.3s-73.7.5-76.5 2.3c-2.9 1.8-271-2.2-271-2.2v42.3h-.1z" opacity=".62" clip-path="url(#SVGID_163_)" fill="#f99b22"/></g><g id="Layer_11"><path id="SVGID_52_" class="st61" d="M2606 1281s-74 32.1-116.6 90.2c-46.6-20.4-134.8-51.8-180.2-54.4 23.8-28.6 113.5-91.2 139.3-96.6 28.5 18.2 157.7 58.2 157.7 58.2"/><defs><path id="SVGID_164_" d="M2606 1281s-74 32.1-116.6 90.2c-46.6-20.4-134.8-51.8-180.2-54.4 23.8-28.6 113.5-91.2 139.3-96.6 28.5 18.2 157.7 58.2 157.7 58.2"/></defs><clipPath id="SVGID_165_"><use xlink:href="#SVGID_164_" overflow="visible"/></clipPath><path d="M2606 1281s-74 32.1-116.6 90.2c-46.6-20.4-134.8-51.8-180.2-54.4 23.8-28.6 113.5-91.2 139.3-96.6 28.5 18.2 157.7 58.2 157.7 58.2" clip-path="url(#SVGID_165_)" fill="#d5f8c7"/><defs><path id="SVGID_166_" d="M2606 1281s-74 32.1-116.6 90.2c-46.6-20.4-134.8-51.8-180.2-54.4 23.8-28.6 113.5-91.2 139.3-96.6 28.5 18.2 157.7 58.2 157.7 58.2"/></defs><clipPath id="SVGID_167_"><use xlink:href="#SVGID_166_" overflow="visible"/></clipPath><path d="M2440.8 1236.7s-38.6 10.6-90.5 57.5c4 4.3 3.3 14.3-5.3 18.3 9.7.7 63.6 15.3 119.3 35.9 0 0 11.6-11.2 28.5-5.4 11.4-11 56.5-60.3 112.3-72.8-16.6-12-139.4-19-141.2-19s-17.6-8.2-17.6-8.2" clip-path="url(#SVGID_167_)" fill="#48b83f"/><defs><path id="SVGID_168_" d="M2606 1281s-74 32.1-116.6 90.2c-46.6-20.4-134.8-51.8-180.2-54.4 23.8-28.6 113.5-91.2 139.3-96.6 28.5 18.2 157.7 58.2 157.7 58.2"/></defs><clipPath id="SVGID_169_"><use xlink:href="#SVGID_168_" overflow="visible"/></clipPath><path d="M2418.6 1252.9c0 21.5 82.2 39 183.6 39 101.4 0 183.6-17.5 183.6-39v-42.3s-77.9.5-80.9 2.3-286.4-2.2-286.4-2.2l.1 42.2z" opacity=".62" clip-path="url(#SVGID_169_)" fill="#f99b22"/></g><g id="coin_copy"><path class="st49" d="M2428.2 1244.7c0 21.5 77.7 39 173.8 39s173.8-17.5 173.8-39v-42.3s-73.7.5-76.5 2.3c-2.9 1.8-271-2.2-271-2.2v42.2h-.1z"/><defs><ellipse id="SVGID_170_" cx="2602" cy="1202.5" rx="173.8" ry="39"/></defs><clipPath id="SVGID_171_"><use xlink:href="#SVGID_170_" overflow="visible"/></clipPath><ellipse cx="2602" cy="1202.5" rx="173.8" ry="39" clip-path="url(#SVGID_171_)" fill="#ffda82"/><defs><ellipse id="SVGID_172_" cx="2602" cy="1202.5" rx="173.8" ry="39"/></defs><clipPath id="SVGID_173_"><use xlink:href="#SVGID_172_" overflow="visible"/></clipPath><ellipse cx="2602" cy="1201.8" rx="146.4" ry="26.6" clip-path="url(#SVGID_173_)" fill="#fff59a"/><defs><ellipse id="SVGID_174_" cx="2602" cy="1202.5" rx="173.8" ry="39"/></defs><clipPath id="SVGID_175_"><use xlink:href="#SVGID_174_" overflow="visible"/></clipPath><path d="M2457.5 1181.1c0 21.5 77.7 39 173.8 39s173.8-17.5 173.8-39v-42.3s-73.7.5-76.5 2.3c-2.9 1.8-271-2.2-271-2.2v42.2h-.1z" opacity=".62" clip-path="url(#SVGID_175_)" fill="#f99b22"/></g><g id="coin"><path class="st49" d="M2465.2 1168.5c0 21.5 77.7 39 173.8 39s173.8-17.5 173.8-39v-42.3s-73.7.5-76.5 2.3c-2.9 1.8-271-2.2-271-2.2v42.2h-.1z"/><ellipse class="st56" cx="2639" cy="1126.3" rx="173.8" ry="39"/><ellipse class="st57" cx="2639" cy="1125.5" rx="146.4" ry="26.6"/></g></g><g id="Layer_25"><ellipse cx="2609.2" cy="1115.3" rx="128.8" ry="23.3" opacity=".42" fill="#f99b22"/><defs><circle id="SVGID_176_" cx="2589.1" cy="957.3" r="169"/></defs><clipPath id="SVGID_177_"><use xlink:href="#SVGID_176_" overflow="visible"/></clipPath><circle cx="2589.1" cy="957.3" r="169" clip-path="url(#SVGID_177_)" fill="#f99b22"/><defs><circle id="SVGID_178_" cx="2589.1" cy="957.3" r="169"/></defs><clipPath id="SVGID_179_"><use xlink:href="#SVGID_178_" overflow="visible"/></clipPath><g clip-path="url(#SVGID_179_)"><defs><circle id="SVGID_180_" cx="2589.1" cy="978.8" r="169"/></defs><clipPath id="SVGID_181_"><use xlink:href="#SVGID_180_" overflow="visible"/></clipPath><circle cx="2589.1" cy="978.8" r="169" clip-path="url(#SVGID_181_)" fill="#ffda82"/><defs><circle id="SVGID_182_" cx="2589.1" cy="978.8" r="169"/></defs><clipPath id="SVGID_183_"><use xlink:href="#SVGID_182_" overflow="visible"/></clipPath><path d="M2404 998.4s154.9 238.7 401.4 0c166.1 41.4 49.2 165.6-8.5 202.2-57.6 36.6-134.7 104.2-256.5 49.2s-212-176.2-194.8-198.4" opacity=".46" clip-path="url(#SVGID_183_)" fill="#f99b22"/></g><defs><circle id="SVGID_184_" cx="2589.1" cy="957.3" r="169"/></defs><clipPath id="SVGID_185_"><use xlink:href="#SVGID_184_" overflow="visible"/></clipPath><circle cx="2591.3" cy="970.7" r="124" clip-path="url(#SVGID_185_)" fill="#fff59a"/><defs><circle id="SVGID_186_" cx="2589.1" cy="957.3" r="169"/></defs><clipPath id="SVGID_187_"><use xlink:href="#SVGID_186_" overflow="visible"/></clipPath><g clip-path="url(#SVGID_187_)"><path fill="none" d="M2471.5 883.6h239.3v204.1h-239.3z"/><path class="st49" d="M2637.3 931.1h-40.6v-6.7c0-7.2-.5-11.9-1.4-14.1-.9-2.2-2.9-3.3-6-3.3-2.5 0-4.3 1-5.6 2.9-1.2 1.9-1.9 4.8-1.9 8.6 0 6.4 1.3 10.8 3.8 13.4 2.5 2.5 9.8 7.5 21.9 14.9 10.3 6.2 17.4 11 21.1 14.3 3.8 3.3 6.9 8 9.5 14.1 2.6 6.1 3.9 13.6 3.9 22.7 0 14.5-3.5 25.8-10.5 34.1-7 8.2-17.4 13.3-31.4 15.3v15.3h-18.7v-15.8c-10.9-1.1-20.3-5.2-28.4-12.5-8.1-7.3-12.2-20-12.2-38v-7.9h40.6v10c0 10.9.4 17.7 1.3 20.4.8 2.6 2.9 4 6.1 4 2.7 0 4.8-.9 6.1-2.8 1.3-1.8 2-4.6 2-8.2 0-9.1-.6-15.6-1.9-19.6-1.3-3.9-5.6-8.2-13.1-12.8-12.4-7.8-20.8-13.5-25.3-17.1-4.5-3.7-8.3-8.8-11.6-15.4-3.3-6.6-4.9-14.1-4.9-22.5 0-12.1 3.4-21.6 10.3-28.5 6.9-6.9 17.2-11.2 30.9-12.8v-13h18.7v13c12.5 1.6 21.9 5.8 28.1 12.6 6.2 6.8 9.3 16.2 9.3 28.2.3 1.3.2 3.8-.1 7.2z"/></g></g></svg>