<svg xmlns="http://www.w3.org/2000/svg" xmlns:xlink="http://www.w3.org/1999/xlink" viewBox="0 512 1000 488"><path fill="#E2E2E4" d="M846.5 956.9v16.9c-13.8 7.2-29.5 11-45.5 11H118.5c-15.9 0-31.6-3.8-45.5-11v-16.9h773.5z"/><linearGradient id="a" gradientUnits="userSpaceOnUse" x1="219.949" y1="988.923" x2="219.949" y2="704.29" gradientTransform="rotate(180 391.41 990.041) scale(1.4684)"><stop offset="0" stop-color="#f1f2f2"/><stop offset="1" stop-color="#d1d3d4"/></linearGradient><path fill="url(#a)" d="M133.6 529.3c3.1-2.5 7.2-4 11.5-4h629.4c4.4 0 8.4 1.5 11.5 4 4.3 3.4 6.9 8.5 6.9 14.4v404.7c0 1.3-.1 2.8-.4 4-1.8 8.2-9.1 14.4-17.9 14.4H145.1c-8.8 0-16.2-6.2-17.9-14.4-.3-1.3-.4-2.6-.4-4v-405c-.1-5.6 2.6-10.7 6.8-14.1z"/><defs><path id="b" d="M73 956.9h773.4v16.9H73z"/></defs><clipPath id="c"><use xlink:href="#b" overflow="visible"/></clipPath><g clip-path="url(#c)"><path fill="#F1F2F2" d="M73 956.9h773.4v16.9H73z"/></g><path fill="#E2E2E4" d="M118.5 984.6H801c15.9 0 31.6-3.8 45.5-11H73c13.9 7.4 29.5 11 45.5 11zM394.4 967h130.7c4.4 0 8.1-3.7 8.1-8.1v-2.1H386.3v2.1c0 4.4 3.7 8.1 8.1 8.1z"/><defs><circle id="d" cx="459.8" cy="536.6" r="5.4"/></defs><clipPath id="e"><use xlink:href="#d" overflow="visible"/></clipPath><g clip-path="url(#e)"><path fill="#BCBDC0" d="M454.3 531h10.9v.1h-10.9z"/></g><defs><circle id="f" cx="459.8" cy="536.6" r="5.4"/></defs><clipPath id="g"><use xlink:href="#f" overflow="visible"/></clipPath><g clip-path="url(#g)"><path fill="#BDBEC1" d="M454.3 531.2h10.9v.4h-10.9z"/></g><defs><circle id="h" cx="459.8" cy="536.6" r="5.4"/></defs><clipPath id="i"><use xlink:href="#h" overflow="visible"/></clipPath><g clip-path="url(#i)"><path fill="#BEBFC2" d="M454.3 531.8h10.9v.4h-10.9z"/></g><defs><circle id="j" cx="459.8" cy="536.6" r="5.4"/></defs><clipPath id="k"><use xlink:href="#j" overflow="visible"/></clipPath><g clip-path="url(#k)"><path fill="#BFC0C3" d="M454.3 532.2h10.9v.4h-10.9z"/></g><defs><circle id="l" cx="459.8" cy="536.6" r="5.4"/></defs><clipPath id="m"><use xlink:href="#l" overflow="visible"/></clipPath><g clip-path="url(#m)"><path fill="#C0C1C4" d="M454.3 532.8h10.9v.4h-10.9z"/></g><defs><circle id="n" cx="459.8" cy="536.6" r="5.4"/></defs><clipPath id="o"><use xlink:href="#n" overflow="visible"/></clipPath><g clip-path="url(#o)"><path fill="#C1C2C5" d="M454.3 533.2h10.9v.4h-10.9z"/></g><defs><circle id="p" cx="459.8" cy="536.6" r="5.4"/></defs><clipPath id="q"><use xlink:href="#p" overflow="visible"/></clipPath><g clip-path="url(#q)"><path fill="#C2C3C6" d="M454.3 533.8h10.9v.4h-10.9z"/></g><defs><circle id="r" cx="459.8" cy="536.6" r="5.4"/></defs><clipPath id="s"><use xlink:href="#r" overflow="visible"/></clipPath><g clip-path="url(#s)"><path fill="#C3C4C7" d="M454.3 534.3h10.9v.4h-10.9z"/></g><defs><circle id="t" cx="459.8" cy="536.6" r="5.4"/></defs><clipPath id="u"><use xlink:href="#t" overflow="visible"/></clipPath><g clip-path="url(#u)"><path fill="#C4C5C8" d="M454.3 534.7h10.9v.4h-10.9z"/></g><defs><circle id="v" cx="459.8" cy="536.6" r="5.4"/></defs><clipPath id="w"><use xlink:href="#v" overflow="visible"/></clipPath><g clip-path="url(#w)"><path fill="#C5C6C9" d="M454.3 535.3h10.9v.4h-10.9z"/></g><defs><circle id="x" cx="459.8" cy="536.6" r="5.4"/></defs><clipPath id="y"><use xlink:href="#x" overflow="visible"/></clipPath><g clip-path="url(#y)"><path fill="#C6C7CA" d="M454.3 535.7h10.9v.4h-10.9z"/></g><defs><circle id="z" cx="459.8" cy="536.6" r="5.4"/></defs><clipPath id="A"><use xlink:href="#z" overflow="visible"/></clipPath><g clip-path="url(#A)"><path fill="#C7C8CB" d="M454.3 536.3h10.9v.4h-10.9z"/></g><defs><circle id="B" cx="459.8" cy="536.6" r="5.4"/></defs><clipPath id="C"><use xlink:href="#B" overflow="visible"/></clipPath><g clip-path="url(#C)"><path fill="#C8C9CC" d="M454.3 536.8h10.9v.4h-10.9z"/></g><defs><circle id="D" cx="459.8" cy="536.6" r="5.4"/></defs><clipPath id="E"><use xlink:href="#D" overflow="visible"/></clipPath><g clip-path="url(#E)"><path fill="#C9CACD" d="M454.3 537.4h10.9v.4h-10.9z"/></g><defs><circle id="F" cx="459.8" cy="536.6" r="5.4"/></defs><clipPath id="G"><use xlink:href="#F" overflow="visible"/></clipPath><g clip-path="url(#G)"><path fill="#CACBCE" d="M454.3 537.8h10.9v.4h-10.9z"/></g><defs><circle id="H" cx="459.8" cy="536.6" r="5.4"/></defs><clipPath id="I"><use xlink:href="#H" overflow="visible"/></clipPath><g clip-path="url(#I)"><path fill="#CCCCCF" d="M454.3 538.2h10.9v.4h-10.9z"/></g><defs><circle id="J" cx="459.8" cy="536.6" r="5.4"/></defs><clipPath id="K"><use xlink:href="#J" overflow="visible"/></clipPath><g clip-path="url(#K)"><path fill="#CDCDCF" d="M454.3 538.8h10.9v.4h-10.9z"/></g><defs><circle id="L" cx="459.8" cy="536.6" r="5.4"/></defs><clipPath id="M"><use xlink:href="#L" overflow="visible"/></clipPath><g clip-path="url(#M)"><path fill="#CECED0" d="M454.3 539.3h10.9v.4h-10.9z"/></g><defs><circle id="N" cx="459.8" cy="536.6" r="5.4"/></defs><clipPath id="O"><use xlink:href="#N" overflow="visible"/></clipPath><g clip-path="url(#O)"><path fill="#CFCFD1" d="M454.3 539.8h10.9v.4h-10.9z"/></g><defs><circle id="P" cx="459.8" cy="536.6" r="5.4"/></defs><clipPath id="Q"><use xlink:href="#P" overflow="visible"/></clipPath><g clip-path="url(#Q)"><path fill="#D0D0D2" d="M454.3 540.3h10.9v.4h-10.9z"/></g><defs><circle id="R" cx="459.8" cy="536.6" r="5.4"/></defs><clipPath id="S"><use xlink:href="#R" overflow="visible"/></clipPath><g clip-path="url(#S)"><path fill="#D1D1D3" d="M454.3 540.9h10.9v.4h-10.9z"/></g><defs><circle id="T" cx="459.8" cy="536.6" r="5.4"/></defs><clipPath id="U"><use xlink:href="#T" overflow="visible"/></clipPath><g clip-path="url(#U)"><path fill="#D2D2D4" d="M454.3 541.3h10.9v.4h-10.9z"/></g><defs><circle id="V" cx="459.8" cy="536.6" r="5.4"/></defs><clipPath id="W"><use xlink:href="#V" overflow="visible"/></clipPath><g clip-path="url(#W)"><path fill="#D3D3D5" d="M454.3 541.8h10.9v.1h-10.9z"/></g><circle fill="#FFF" cx="459.8" cy="536.6" r="1.9"/><path fill="#1A9EFE" d="M152.7 940h614.1c4.1 0 7.5-3.4 7.5-7.5V555c0-4.1-3.4-7.5-7.5-7.5H152.7c-4.1 0-7.5 3.4-7.5 7.5v377.5c0 4.1 3.3 7.5 7.5 7.5z"/><linearGradient id="X" gradientUnits="userSpaceOnUse" x1="102.501" y1="776.544" x2="-72.795" y2="699.815" gradientTransform="rotate(180 391.41 990.041) scale(1.4684)"><stop offset="0" stop-color="#fff" stop-opacity="0"/><stop offset="1" stop-color="#231f20"/></linearGradient><path fill="url(#X)" d="M73 956.9h55.7c-.7-1.3-1.2-2.8-1.5-4.3-.3-1.3-.4-2.6-.4-4V543.4c0-5.9 2.6-11 6.9-14.4 3.1-2.5 7.2-4 11.5-4h629.4c4.4 0 8.4 1.5 11.5 4 4.3 3.4 6.9 8.5 6.9 14.4v405c0 1.3-.1 2.8-.4 4-.3 1.5-.9 2.9-1.5 4.3h55.7v16.9c-13.8 7.2-29.5 11-45.5 11H118.5c-15.9 0-31.6-3.8-45.4-11l-.1-16.7z"/><linearGradient id="Y" gradientUnits="userSpaceOnUse" x1="379.31" y1="790.429" x2="529.347" y2="752.044" gradientTransform="rotate(180 391.41 990.041) scale(1.4684)"><stop offset="0" stop-color="#fff" stop-opacity="0"/><stop offset="1" stop-color="#231f20"/></linearGradient><path fill="url(#Y)" d="M73 956.9h55.7c-.7-1.3-1.2-2.8-1.5-4.3-.3-1.3-.4-2.6-.4-4V543.4c0-5.9 2.6-11 6.9-14.4 3.1-2.5 7.2-4 11.5-4h629.4c4.4 0 8.4 1.5 11.5 4 4.3 3.4 6.9 8.5 6.9 14.4v405c0 1.3-.1 2.8-.4 4-.3 1.5-.9 2.9-1.5 4.3h55.7v16.9c-13.8 7.2-29.5 11-45.5 11H118.5c-15.9 0-31.6-3.8-45.4-11l-.1-16.7z"/><circle opacity=".15" fill="#FFF" cx="951.1" cy="657.3" r="5.6"/><path fill="#F1F2F2" d="M752.7 986.8h213.2c13.7 0 24.7-11 24.7-24.7V650.9c0-13.7-11-24.7-24.7-24.7H752.7c-13.7 0-24.7 11-24.7 24.7v311.3c0 13.6 11.1 24.6 24.7 24.6z"/><path fill="#BCBEC0" d="M853.2 638.2v-.6c0-.1 0-.3.1-.3 0-.1.1-.3.1-.3 0-.1.1-.3.1-.3.1-.1.1-.3.3-.3.1-.1.1-.3.3-.3.1-.1.3-.3.4-.3.1-.1.3-.3.6-.3.3-.1.6-.3.9-.3.3 0 .6-.1.9-.1s.6 0 .9.1c.3.1.6.1.9.3.1.1.4.3.6.3.1.1.3.3.4.3.1.1.1.3.3.3.1.1.1.3.3.3 0 .1.1.3.1.3 0 .1.1.3.1.3 0 .1.1.3.1.3v1.4c0 .1 0 .3-.1.3 0 .1-.1.3-.1.3 0 .1-.1.3-.1.3 0 .1-.1.3-.3.3-.1.1-.1.3-.3.3-.1.1-.3.3-.4.3-.1.1-.3.3-.6.3-.3.1-.6.3-.9.3-.3.1-.6.1-.9.1-.3 0-.6 0-.9-.1-.3-.1-.6-.1-.9-.3-.1-.1-.4-.3-.6-.3-.1-.1-.3-.3-.4-.3-.1-.1-.1-.3-.3-.3-.1-.1-.1-.3-.3-.3 0-.1-.1-.3-.1-.3 0-.1-.1-.3-.1-.3 0-.1-.1-.3-.1-.3v-.8z"/><circle fill="#FFF" cx="857.1" cy="638.4" r="1.3"/><path fill="#1A9EFE" d="M748 964.8h222.5c4.1 0 7.3-3.2 7.3-7.3V655.6c0-4.1-3.2-7.3-7.3-7.3H748c-4.1 0-7.3 3.2-7.3 7.3v301.9c0 4.1 3.4 7.3 7.3 7.3zM20.6 711.5v8.4h129.8v-8.4c0-6.3-5.1-11.6-11.3-11.6h-17.2c-1.6 0-2.9 1.3-2.9 3.1v4.3c0 1.6-1.3 3.1-2.9 3.1H55.2c-1.6 0-2.9-1.3-2.9-3.1V703c0-1.6-1.3-3.1-2.9-3.1H32c-6.3.2-11.4 5.3-11.4 11.6z"/><path fill="#F1F2F2" d="M10.6 763l.6-.1v-57c0-10.3 8.4-18.6 18.6-18.6h111.5c10.3 0 18.6 8.4 18.6 18.6v21.3c.6.1 1 .6 1 1.2v9.4c0 .6-.4 1.2-1 1.2v10.6c.6.1 1 .6 1 1.2v23.8c0 .6-.4 1.2-1 1.2v5.6c.6.1 1 .6 1 1.2v23.8c0 .6-.4 1.2-1 1.2v160.2c0 10.3-8.4 18.6-18.6 18.6H29.8c-10.3 0-18.6-8.4-18.6-18.6V799.3l-.6-.1c-.6-.1-1-.6-1-1.2v-33.6c-.1-.6.4-1.2 1-1.4z"/><path fill="#1A9EFE" d="M20.6 711.5v251.1c0 6.3 5.1 11.6 11.3 11.6h107c6.3 0 11.3-5.1 11.3-11.6V711.5c0-6.3-5.1-11.6-11.3-11.6h-17c-1.6 0-2.9 1.3-2.9 3.1v4.3c0 1.6-1.3 3.1-2.9 3.1H55.2c-1.6 0-2.9-1.3-2.9-3.1V703c0-1.6-1.3-3.1-2.9-3.1H32c-6.3.2-11.4 5.3-11.4 11.6z"/><path fill="#ECECED" d="M149.1 706.5c0-.1-.1-.2-.2-.3-.9-1.7-2.2-3.1-3.7-4.2-1.8-1.2-3.9-1.9-6.2-1.9h-17.2c-1 0-2 .6-2.5 1.4-.3.5-.4 1-.4 1.6v4.3c0 .5-.1.9-.3 1.3v.2c-.5.9-1.4 1.6-2.5 1.6H55.2c-1.6 0-2.9-1.3-2.9-3.1v-4.3c0-1.6-1.3-3.1-2.9-3.1H32c-6.3 0-11.3 5.1-11.3 11.6v251.1c0 1.8.4 3.5 1.1 5 0 .1.1.2.1.3.1.2.2.3.3.5 2 3.5 5.6 5.8 9.8 5.8h107c1.5 0 2.9-.3 4.2-.8 3-1.2 5.4-3.7 6.5-6.8.4-1.2.7-2.6.7-4v-251c-.1-1.9-.5-3.6-1.3-5.2zM21.6 962.6V711.5c0-5.7 4.7-10.6 10.4-10.6h17.2c1.2 0 2.1.9 2.1 2.1v4.3c0 2.2 1.8 4 4 4h60.6c2.2 0 4-1.8 4-4V703c0-1.2.9-2.1 2.1-2.1h17.2c2.2 0 4.3.7 6 1.9 2.6 1.9 4.4 5.1 4.4 8.7v251.1c0 1.5-.3 2.9-.8 4.2-1.6 3.8-5.3 6.4-9.5 6.4H32c-5.7 0-10.4-4.7-10.4-10.6z"/><path opacity=".38" fill="#58595B" d="M74.4 705.6h22c.4 0 .7-.3.7-.7v-.3c0-.4-.3-.7-.7-.7h-22c-.4 0-.7.3-.7.7v.3c.2.4.5.7.7.7z"/><ellipse opacity=".38" fill="#58595B" cx="68.6" cy="704.8" rx="1.6" ry="1.8"/><circle fill="#ECECED" cx="68.6" cy="704.8" r=".9"/><path fill="#FFF" d="M456.2 903.6c.7.1 1.5.3 2.1.3h1.3c1.2 0 2.3-.1 3.5-.3C623.2 871 612 704.5 606.6 662.3c-.7-5.9-5.3-10.7-11.5-12.5L464.3 614c-1.5-.4-3.1-.6-4.7-.6h-1.3c-1.2 0-2.2.3-3.2.6l-130.8 35.8c-6.2 1.8-10.7 6.6-11.5 12.5-5.5 42.2-16.6 208.7 143.4 241.3z"/><path opacity=".3" fill="#2BB5FF" d="M588 667.9l-128.2-35.1v79c2.9-.6 5.7-.9 8.7-1.2 6.2-.4 12.3.3 18.5 1 5 .7 10 1.8 14.8 2.9 4.6 1 9.4 1.9 13.8 3.7 5.1 2.1 10 5 13.5 9.4 3.7 4.6 6 9 8.1 14.4 1.3 3.5 2.2 7.3 2.9 11 .7 4.1 1.5 8.5 1 12.8-.6 7.3-2.6 14.5-6.9 20.6-4.4 6.2-9.7 11.2-16.2 15.1-12 7.5-26.3 11-40.2 12-5.9.4-11.9.3-17.9-.6v71.5c33-6.8 60.2-20.3 80.8-40.4 17-16.6 30-38 38.2-63.7 14.5-44.7 11.6-91.5 9.1-112.4z"/><path fill="#040E29" d="M380.8 791.4h-17.2c-8.8 0-15.9-7-15.9-15.9v-18.9c0-8.8 7-15.9 15.9-15.9h17.2v50.7z"/><path fill="#040E29" d="M348.9 781.6s-.6-1.3-1.5-3.4c-.4-1.2-1.2-2.3-1.8-4-.3-.7-.7-1.8-1-2.6-.3-.9-.7-1.9-1.2-2.9-.3-1-.7-2.1-1.2-3.1-.1-.4-.4-1.2-.6-1.8s-.3-1.2-.4-1.8c-.3-1.2-.7-2.3-1-3.5-.1-.6-.3-1.3-.4-1.9s-.3-1.3-.4-1.9c-.1-.7-.3-1.3-.4-2.1-.1-.3-.1-.7-.1-1-.1-.3-.1-.7-.1-1-.1-1.3-.4-2.6-.7-4.1-.1-1.3-.3-2.8-.4-4.1l-.1-1.3v-1.2l-.1-2.1-.1-2.1c0-.7 0-1.3.1-2.1 0-.7 0-1.3.1-2.1v-1.2c0-.4.1-.7.1-1.2.1-1.3.3-2.8.4-4.1s.4-2.6.6-4c.1-1.3.4-2.6.7-3.8.1-.6.3-1.2.4-1.9.1-.3.1-.6.1-.9.1-.3.1-.6.3-.9.3-1.2.7-2.3 1-3.4.1-.3.1-.4.1-.7.1-.3.1-.4.3-.7.1-.4.4-1 .4-1.5.4-1 .7-2.1 1-2.9.4-.9.7-1.8 1-2.5s.6-1.5.9-2.2.6-1.3.9-1.8c1-2.2 1.6-3.5 1.6-3.5l4.6 2.1s-.4 1.2-1.3 3.4c-.1.4-.4 1.2-.7 1.8-.1.7-.4 1.3-.7 2.2-.3.7-.4 1.6-.7 2.3-.3.9-.4 1.8-.7 2.6-.1.4-.3 1-.4 1.5-.1.1-.1.4-.1.7-.1.3-.1.4-.1.7-.1 1-.4 2.1-.7 3.2-.1.3-.1.6-.1.7-.1.3-.1.6-.1.9-.1.6-.1 1.2-.3 1.8-.1 1.2-.4 2.3-.4 3.5-.1 1.2-.3 2.5-.4 3.7 0 1.3-.1 2.5-.1 3.8v2c0 .6 0 1.3.1 1.9 0 .6 0 1.3.1 2.1l.1 1.9.1 1.9c0 .3.1.6.1 1l.1 1c.1 1.3.4 2.6.6 3.8.3 1.3.6 2.5.7 3.7.1.3.1.6.1.9.1.3.1.6.1.9.1.6.3 1.2.4 1.8s.3 1.2.4 1.8.3 1.2.4 1.8c.4 1.2.7 2.2 1.2 3.2.1.4.4 1.2.6 1.6.1.4.4 1 .6 1.5.4 1 .7 1.9 1.2 2.9.4.9.7 1.8 1.2 2.6.4.7.7 1.6 1.2 2.3.6 1.3 1.3 2.6 1.9 3.8 1.2 2.1 1.8 3.2 1.8 3.2l-9.3 4.8z"/><circle fill="#040E29" cx="349.5" cy="695.7" r="7.9"/><path fill="#040E29" d="M538.8 791.4H556c8.8 0 15.9-7 15.9-15.9v-18.9c0-8.8-7-15.9-15.9-15.9h-17.2v50.7z"/><path fill="#040E29" d="M570.6 781.6s.6-1.3 1.5-3.4c.4-1.2 1.2-2.3 1.8-4 .3-.7.7-1.8 1-2.6.3-.9.7-1.9 1.2-2.9.3-1 .7-2.1 1.2-3.1.1-.4.4-1.2.6-1.8s.3-1.2.4-1.8c.3-1.2.7-2.3 1-3.5.1-.6.3-1.3.4-1.9.1-.6.3-1.3.4-1.9.1-.7.3-1.3.4-2.1.1-.3.1-.7.1-1 .1-.3.1-.7.1-1 .1-1.3.4-2.6.7-4.1.1-1.3.3-2.8.4-4.1l.1-1.2V740l.1-2.1.1-2.1c0-.7 0-1.3-.1-2.1 0-.7 0-1.3-.1-2.1v-1.2c0-.4-.1-.7-.1-1.2-.1-1.3-.3-2.8-.4-4.1-.1-1.3-.4-2.6-.6-4-.1-1.3-.4-2.6-.7-3.8-.1-.6-.3-1.2-.4-1.9-.1-.3-.1-.6-.1-.9-.1-.3-.1-.6-.3-.9-.3-1.2-.7-2.3-1-3.4-.1-.3-.1-.4-.1-.7-.1-.3-.1-.4-.3-.7-.1-.4-.4-1-.4-1.5-.4-1-.7-2.1-1-2.9-.4-.9-.7-1.8-1-2.5s-.6-1.5-.9-2.2-.6-1.3-.9-1.8c-1-2.2-1.6-3.5-1.6-3.5l-4.6 2.1s.4 1.2 1.3 3.4c.1.4.4 1.2.7 1.8.1.7.4 1.3.7 2.2.3.7.4 1.6.7 2.3.3.9.4 1.8.7 2.6.1.4.3 1 .4 1.5.1.1.1.4.1.7s.1.4.1.7c.1 1 .4 2.1.7 3.2.1.3.1.6.1.7.1.3.1.6.1.9.1.6.1 1.2.3 1.8.1 1.2.4 2.3.4 3.5.1 1.2.3 2.5.4 3.7 0 1.3.1 2.5.1 3.8v2c0 .6 0 1.3-.1 1.9 0 .6 0 1.3-.1 2.1l-.1 1.9-.1 1.9c0 .3-.1.6-.1 1l-.1 1c-.1 1.3-.4 2.6-.6 3.8-.3 1.3-.6 2.5-.7 3.7-.1.3-.1.6-.1.9-.1.3-.1.6-.1.9-.1.6-.3 1.2-.4 1.8s-.3 1.2-.4 1.8c-.1.6-.3 1.2-.4 1.8-.4 1.2-.7 2.2-1.2 3.2-.1.4-.4 1.2-.6 1.6-.1.4-.4 1-.6 1.5-.4 1-.7 1.9-1.2 2.9-.4.9-.7 1.8-1.2 2.6-.4.7-.7 1.6-1.2 2.3-.6 1.3-1.3 2.6-1.9 3.8-1.2 2.1-1.8 3.2-1.8 3.2l9.3 4.7z"/><circle fill="#040E29" cx="570" cy="695.7" r="7.9"/><radialGradient id="Z" cx="311.461" cy="812.751" r="103.829" gradientTransform="translate(0 -535.171) scale(1.4684)" gradientUnits="userSpaceOnUse"><stop offset="0" stop-color="#f26522"/><stop offset="1" stop-color="#c82431"/></radialGradient><path fill="url(#Z)" d="M510 707.9l-16.7-1.8c-22.3-2.3-44.9-2.3-67.1 0l-16.7 1.8c-27.2 2.9-47.3 26.4-45.2 53.3l1.3 17.2c1.8 22.9 19.2 41.6 42.4 45.2 34.4 5.6 69.5 5.6 103.7 0 23.1-3.7 40.5-22.5 42.4-45.2l1.3-17.2c2-26.9-18.1-50.6-45.4-53.3z"/><path opacity=".5" fill="#13131F" d="M459.8 807.7c-17.5 0-35.2-1.3-52.6-3.8-15.4-2.3-27-13.8-28.2-27.9l-1.5-17.2c-1.3-16.6 11.9-31.1 30.1-32.7l18.1-1.8c11.3-1.2 22.6-1.6 34.1-1.6 11.3 0 22.8.4 34.1 1.6l18.1 1.8c18.4 1.8 31.6 16.2 30.1 32.7l-1.3 17.2c-1.2 14.1-12.8 25.6-28.2 27.9-17.6 2.5-35.4 3.8-52.8 3.8z"/><path fill="#13131F" d="M459.8 807.7c-15.9 0-32-1.3-47.7-3.8-14-2.3-24.5-13.8-25.6-27.9l-1.3-17.2c-1.3-16.6 10.7-31.1 27.3-32.7l16.3-1.8c10.3-1.2 20.6-1.6 30.8-1.6 10.3 0 20.7.4 30.8 1.6l16.3 1.8c16.6 1.8 28.6 16.2 27.3 32.7l-1.3 17.2c-1.2 14.1-11.6 25.6-25.6 27.9-15.3 2.5-31.5 3.8-47.3 3.8z"/><linearGradient id="aa" gradientUnits="userSpaceOnUse" x1="313.266" y1="861.328" x2="313.266" y2="904.045" gradientTransform="translate(0 -535.171) scale(1.4684)"><stop offset="0" stop-color="#25253c"/><stop offset="1" stop-color="#13131f" stop-opacity="0"/></linearGradient><path fill="url(#aa)" d="M459.8 798.5c-14.1 0-28.5-1-42.4-3.1-12.5-1.8-21.7-10.9-22.8-21.9l-1-13.4c-1.2-13.1 9.5-24.4 24.4-25.7l14.5-1.3c9.1-.9 18.4-1.3 27.5-1.3s18.4.4 27.5 1.3l14.5 1.3c14.7 1.3 25.6 12.6 24.4 25.7l-1.2 13.4c-1 11-10.4 20.1-22.8 21.9-14.1 2-28.5 3.1-42.6 3.1z"/><path d="M412 803.7c10 1.8 20.3 2.8 30.4 3.4l45.2-83.1c-9.3-.9-18.6-1.3-27.9-1.3-3.5 0-7.2.1-10.9.1l-43 79.1c2.1 1 4 1.4 6.2 1.8zm117.4-64c-3.2-5.1-8.1-9.1-14.1-11.6l-43 79.3c7-.3 14.1-.9 21.1-1.8l36-65.9z" opacity=".06" fill="#FFF"/><path d="M437.3 770.7c-1.2 6.9-6-.1-13.4-1.3-7.3-1.2-14.2 4-13.2-2.9 1.2-6.9 7.9-11.5 15.3-10.4 7.3 1.2 12.3 7.9 11.3 14.6zm44.9 0c1.2 6.9 6-.1 13.4-1.3s14.2 4 13.2-2.9c-1.2-6.9-7.9-11.5-15.3-10.4-7.3 1.2-12.3 7.9-11.3 14.6zm374.3 133.8c.4.1.7.1 1.2.1h.7c.6 0 1.3 0 1.9-.1 90-18.4 83.8-112 80.8-135.7-.4-3.2-2.9-6-6.5-7L861 741.7c-.9-.3-1.8-.3-2.6-.3h-.7c-.6 0-1.2.1-1.8.3l-73.6 20.1c-3.5.9-6 3.7-6.5 7-3 23.8-9.3 117.5 80.7 135.7z" fill="#FFF"/><path opacity=".3" fill="#2BB5FF" d="M930.7 772l-72.1-19.7v44.5c1.6-.3 3.2-.6 4.8-.6 3.5-.3 6.9.1 10.4.6 2.8.4 5.6.9 8.4 1.6 2.5.6 5.3 1 7.8 2.1 2.9 1.2 5.6 2.8 7.6 5.3s3.4 5 4.6 8.1c.7 2.1 1.3 4.1 1.6 6.2.4 2.3.9 4.7.6 7.2-.3 4.1-1.5 8.2-4 11.6-2.5 3.5-5.4 6.3-9.1 8.5-6.8 4.3-14.8 6.2-22.6 6.8-3.2.3-6.8.1-10.1-.3v39.9c18.6-3.8 33.9-11.5 45.4-22.6 9.5-9.4 16.9-21.4 21.4-35.8 8.2-25.3 6.6-51.6 5.3-63.4z"/><path fill="#040E29" d="M814.1 841.3h-9.7c-5 0-9-4-9-9v-10.6c0-5 4-9 9-9h9.7v28.6z"/><path fill="#040E29" d="M796.2 835.9s-.3-.7-.9-1.9c-.3-.6-.6-1.3-.9-2.2-.1-.4-.4-.9-.6-1.5-.1-.6-.4-1-.6-1.6-.1-.6-.4-1.2-.6-1.8-.1-.3-.3-.6-.3-.9-.1-.3-.1-.7-.3-.9-.1-.7-.4-1.3-.6-2.1-.1-.3-.1-.7-.3-1 0-.3-.1-.7-.3-1 0-.4-.1-.7-.3-1.2 0-.1 0-.4-.1-.6 0-.1 0-.4-.1-.6-.1-.7-.3-1.5-.4-2.3 0-.7-.1-1.6-.3-2.3v-7.3c0-.7.1-1.6.3-2.3.1-.7.3-1.5.3-2.2.1-.7.3-1.5.4-2.2 0-.3.1-.7.3-1 0-.1 0-.3.1-.4 0-.1.1-.3.1-.4.1-.7.4-1.3.6-1.9 0-.1.1-.3.1-.4s.1-.3.1-.4c.1-.3.3-.6.3-.9.3-.6.4-1.2.6-1.6.3-.4.4-.9.6-1.5.1-.6.3-.9.4-1.2s.3-.7.4-1c.6-1.2.9-1.9.9-1.9l2.5 1.2s-.3.7-.7 1.9c-.1.3-.3.6-.4 1-.1.4-.3.7-.4 1.2s-.3.9-.4 1.3c-.1.4-.3 1-.4 1.5 0 .3-.1.6-.3.9 0 .1 0 .3-.1.4 0 .1 0 .3-.1.4-.1.6-.3 1.2-.4 1.8 0 .1 0 .3-.1.4v.4c0 .3-.1.7-.1.9-.1.7-.3 1.3-.3 2.1 0 .7-.1 1.5-.3 2.1v5.6l.1 1 .1 1v.6l.1.6c.1.7.3 1.5.3 2.2.1.7.3 1.5.4 2.1 0 .1 0 .3.1.4 0 .1 0 .3.1.4.1.3.1.7.3 1 .1.3.1.7.3 1 .1.3.1.7.3.9.3.6.4 1.2.6 1.9.1.3.3.6.3.9.1.3.3.6.3.9.3.6.4 1 .7 1.6.3.4.4 1 .6 1.5.3.4.4.9.6 1.3.3.7.7 1.5 1 2.2.6 1.2.9 1.9.9 1.9l-4.5 2z"/><circle fill="#040E29" cx="796.5" cy="787.6" r="4.6"/><path fill="#040E29" d="M902.9 841.3h9.7c5 0 9-4 9-9v-10.6c0-5-4-9-9-9h-9.7v28.6z"/><path fill="#040E29" d="M920.9 835.9s.3-.7.9-1.9c.3-.6.6-1.3.9-2.2.1-.4.4-.9.6-1.5.1-.4.4-1 .6-1.6.1-.6.4-1.2.6-1.8.1-.3.3-.6.3-.9.1-.3.1-.7.3-.9.1-.7.4-1.3.6-2.1.1-.3.1-.7.3-1 0-.3.1-.7.3-1 0-.4.1-.7.3-1.2 0-.1 0-.4.1-.6 0-.1 0-.4.1-.6.1-.7.3-1.5.4-2.3 0-.7.1-1.6.3-2.3v-7.2c0-.7-.1-1.6-.3-2.3-.1-.7-.3-1.5-.3-2.2-.1-.7-.3-1.5-.4-2.2 0-.3-.1-.7-.3-1 0-.1 0-.3-.1-.4 0-.1-.1-.3-.1-.4-.1-.7-.4-1.3-.6-1.9 0-.1-.1-.3-.1-.4s-.1-.3-.1-.4c-.1-.3-.3-.6-.3-.9-.3-.6-.4-1.2-.6-1.6-.3-.4-.4-.9-.6-1.5-.1-.4-.3-.9-.4-1.2s-.3-.7-.4-1c-.6-1.2-.9-1.9-.9-1.9l-2.5 1.2s.3.7.7 1.9c.1.3.3.6.4 1 .1.4.3.7.4 1.2s.3.9.4 1.3c.1.4.3 1 .4 1.5 0 .3.1.6.3.9 0 .1 0 .3.1.4 0 .1 0 .3.1.4.1.6.3 1.2.4 1.8 0 .1 0 .3.1.4v.4c0 .3.1.7.1.9.1.7.3 1.3.3 2.1 0 .7.1 1.5.3 2.1v5.6l-.1 1-.1 1v.6l-.1.6c-.1.7-.3 1.5-.3 2.2-.1.7-.3 1.5-.4 2.1 0 .1 0 .3-.1.4 0 .1 0 .3-.1.4-.1.3-.1.7-.3 1-.1.3-.1.7-.3 1-.1.3-.1.7-.3.9-.3.6-.4 1.2-.6 1.9-.1.3-.3.6-.3.9-.1.3-.3.6-.3.9-.3.6-.4 1-.7 1.6-.3.4-.4 1-.6 1.5-.3.4-.4.9-.6 1.3-.3.7-.7 1.5-1 2.2-.6 1.2-.9 1.9-.9 1.9l4.5 1.9z"/><circle fill="#040E29" cx="920.6" cy="787.6" r="4.6"/><radialGradient id="ab" cx="583.751" cy="886.468" r="58.4" gradientTransform="translate(0 -535.171) scale(1.4684)" gradientUnits="userSpaceOnUse"><stop offset="0" stop-color="#f26522"/><stop offset="1" stop-color="#c82431"/></radialGradient><path fill="url(#ab)" d="M886.8 794.3l-9.4-.9c-12.5-1.3-25.3-1.3-37.7 0l-9.4.9c-15.3 1.6-26.6 14.8-25.4 30l.7 9.7c1 12.9 10.9 23.3 23.8 25.4 19.4 3.1 39.1 3.1 58.3 0 12.9-2.1 22.9-12.6 23.8-25.4l.7-9.7c1.3-15-10-28.3-25.4-30z"/><path opacity=".5" fill="#13131F" d="M858.6 850.6c-9.8 0-19.8-.7-29.5-2.2-8.7-1.3-15.1-7.8-15.9-15.7l-.9-9.7c-.7-9.4 6.6-17.5 17-18.4l10.1-.9c6.3-.6 12.8-.9 19.1-.9s12.8.3 19.1.9l10.1.9c10.3 1 17.8 9.1 17 18.4l-.7 9.7c-.7 7.9-7.2 14.4-15.9 15.7-9.7 1.5-19.7 2.2-29.5 2.2z"/><path fill="#13131F" d="M858.6 850.6c-9 0-17.9-.7-26.9-2.2-7.8-1.3-13.8-7.8-14.4-15.7l-.7-9.7c-.7-9.4 6-17.5 15.4-18.4l9.3-.9c5.7-.6 11.6-.9 17.3-.9s11.6.3 17.3.9l9.3.9c9.4 1 16 9.1 15.4 18.4l-.7 9.7c-.6 7.9-6.5 14.4-14.4 15.7-9 1.5-18 2.2-26.9 2.2z"/><linearGradient id="ac" gradientUnits="userSpaceOnUse" x1="584.79" y1="913.792" x2="584.79" y2="937.818" gradientTransform="translate(0 -535.171) scale(1.4684)"><stop offset="0" stop-color="#25253c"/><stop offset="1" stop-color="#13131f" stop-opacity="0"/></linearGradient><path fill="url(#ac)" d="M858.6 845.4c-7.9 0-16-.6-23.8-1.8-7-1-12.2-6.2-12.8-12.3l-.6-7.5c-.6-7.3 5.4-13.7 13.7-14.4l8.2-.7c5.1-.4 10.3-.7 15.4-.7s10.3.3 15.4.7l8.2.7c8.2.7 14.4 7 13.7 14.4l-.7 7.5c-.6 6.2-5.9 11.3-12.8 12.3-7.9 1.1-16 1.8-23.9 1.8z"/><path d="M831.7 848.4c5.6.9 11.3 1.6 17 1.9l25.4-46.7c-5.1-.4-10.4-.7-15.7-.7-2.1 0-4.1 0-6.2.1l-24.1 44.3c1.3.6 2.4.8 3.6 1.1zm66.1-36c-1.9-2.8-4.6-5.1-7.9-6.5l-24.2 44.5c4-.1 7.9-.4 11.9-.9l20.2-37.1z" opacity=".06" fill="#FFF"/><path d="M845.8 829.7c-.6 3.8-3.4-.1-7.5-.7-4.1-.7-7.9 2.2-7.5-1.6.6-3.8 4.6-6.5 8.5-5.9 4.3.7 7.2 4.4 6.5 8.2zm25.4 0c.6 3.8 3.4-.1 7.5-.7 4.1-.7 7.9 2.2 7.5-1.6-.6-3.8-4.6-6.5-8.5-5.9-4.3.7-7.1 4.4-6.5 8.2zM84.3 898.9c.3 0 .4.1.7.1h.4c.4 0 .7 0 1.2-.1 54.3-11 50.5-67.5 48.8-81.8-.3-2.1-1.8-3.7-3.8-4.3l-44.3-12.2c-.6-.1-1-.1-1.6-.1h-.4c-.4 0-.7.1-1 .1L40 812.8c-2.1.6-3.7 2.2-3.8 4.3-2.4 14.3-6.2 70.8 48.1 81.8z" fill="#FFF"/><path opacity=".3" fill="#2BB5FF" d="M129.1 819l-43.6-11.9V834c1-.1 1.9-.3 2.9-.4 2.1-.1 4.3.1 6.3.3 1.8.3 3.4.6 5 1 1.6.3 3.2.6 4.7 1.3 1.8.7 3.4 1.8 4.6 3.2 1.2 1.5 2.1 3.1 2.8 4.8.4 1.2.7 2.5 1 3.7.3 1.5.4 2.9.3 4.3-.1 2.5-.9 5-2.3 6.9-1.5 2.1-3.2 3.8-5.4 5.1-4.1 2.5-9 3.8-13.7 4.1-2.1.1-4.1.1-6-.1v24.2c11.2-2.3 20.4-6.9 27.5-13.7 5.7-5.6 10.1-12.9 12.9-21.6 4.7-15.2 3.7-31 3-38.1z"/><path fill="#040E29" d="M58.7 860.9h-5.9c-2.9 0-5.4-2.3-5.4-5.4V849c0-2.9 2.3-5.4 5.4-5.4h5.9v17.3z"/><path fill="#040E29" d="M47.9 857.5s-.1-.4-.4-1.2c-.1-.4-.4-.9-.6-1.3-.1-.3-.3-.6-.3-.9-.1-.3-.3-.6-.4-1-.1-.4-.3-.7-.4-1 0-.1-.1-.4-.1-.6s-.1-.4-.1-.6c-.1-.4-.3-.9-.3-1.2 0-.1-.1-.4-.1-.6 0-.1-.1-.4-.1-.6 0-.3-.1-.4-.1-.7v-.6c0-.4-.1-.9-.3-1.3 0-.4-.1-.9-.1-1.5V840c0-.4.1-.9.1-1.5 0-.4.1-.9.1-1.3s.1-.9.3-1.3c0-.1.1-.4.1-.6v-.3c0-.1 0-.1.1-.3.1-.4.3-.7.3-1.2v-.3c0-.2 0-.1.1-.3 0-.1.1-.3.1-.4.1-.3.3-.7.3-1 .1-.3.3-.6.3-.9s.1-.4.3-.7.1-.4.3-.6c.3-.7.6-1.2.6-1.2l1.5.7s-.1.4-.4 1.2c0 .1-.1.4-.3.6-.1.1-.1.4-.3.7-.1.3-.1.6-.3.9-.1.3-.1.6-.3.9 0 .1-.1.3-.1.4v.6c0 .3-.1.7-.3 1v.6c0 .2 0 .4-.1.6 0 .4-.1.9-.1 1.2 0 .4-.1.9-.1 1.3v5c0 .4.1.9.1 1.3.1.4.1.9.3 1.3v.6c0 .2.1.4.1.6s.1.4.1.6c0 .1.1.4.1.6.1.4.3.7.4 1.2 0 .1.1.4.1.6s.1.3.1.4c.1.3.3.6.4 1 .1.3.3.6.4.9.1.3.3.6.4.7.1.4.4.9.6 1.3.4.7.6 1.2.6 1.2l-2.6 1.4z"/><circle fill="#040E29" cx="48" cy="828.4" r="2.6"/><path fill="#040E29" d="M112.3 860.9h5.9c2.9 0 5.4-2.3 5.4-5.4V849c0-2.9-2.3-5.4-5.4-5.4h-5.9v17.3z"/><path fill="#040E29" d="M123.1 857.5s.1-.4.4-1.2c.1-.4.4-.9.6-1.3.1-.3.3-.6.3-.9.1-.3.3-.6.4-1s.3-.7.4-1c0-.1.1-.4.1-.6s.1-.4.1-.6c.1-.4.3-.9.3-1.2 0-.1.1-.4.1-.6 0-.1.1-.4.1-.6 0-.3.1-.4.1-.7v-.6c0-.4.1-.9.3-1.3 0-.4.1-.9.1-1.5V840c0-.4-.1-.9-.1-1.5 0-.4-.1-.9-.1-1.3s-.1-.9-.3-1.3c0-.1-.1-.4-.1-.6v-.3c0-.1 0-.1-.1-.3-.1-.4-.3-.7-.3-1.2v-.3c0-.2 0-.1-.1-.3 0-.1-.1-.3-.1-.4-.1-.3-.3-.7-.3-1-.1-.3-.3-.6-.3-.9-.1-.3-.1-.4-.3-.7-.1-.3-.1-.4-.3-.6-.3-.7-.6-1.2-.6-1.2l-1.5.7s.1.4.4 1.2c0 .1.1.4.3.6 0 .3.1.4.3.7.1.3.1.6.3.9.1.3.1.6.3.9 0 .1.1.3.1.4v.6c0 .3.1.7.3 1v.6c0 .2 0 .4.1.6 0 .4.1.9.1 1.2 0 .4.1.9.1 1.3v5c0 .4-.1.9-.1 1.3-.1.4-.1.9-.3 1.3v.6c0 .2-.1.4-.1.6s-.1.4-.1.6c0 .1-.1.4-.1.6-.1.4-.3.7-.4 1.2 0 .1-.1.4-.1.6s-.1.3-.1.4c-.1.3-.3.6-.4 1-.1.3-.3.6-.4.9-.1.3-.3.6-.4.7-.1.4-.4.9-.6 1.3-.4.7-.6 1.2-.6 1.2l2.6 1.4z"/><circle fill="#040E29" cx="122.9" cy="828.4" r="2.6"/><radialGradient id="ad" cx="57.671" cy="919.927" r="35.23" gradientTransform="translate(0 -535.171) scale(1.4684)" gradientUnits="userSpaceOnUse"><stop offset="0" stop-color="#f26522"/><stop offset="1" stop-color="#c82431"/></radialGradient><path fill="url(#ad)" d="M102.5 832.5l-5.7-.6c-7.6-.7-15.3-.7-22.8 0l-5.7.6c-9.3 1-16 9-15.3 18.1l.4 5.9c.6 7.8 6.6 14.1 14.4 15.4 11.6 1.9 23.5 1.9 35.2 0 7.8-1.3 13.8-7.6 14.4-15.4l.4-5.9c.8-9.1-6.1-17.2-15.3-18.1z"/><path opacity=".5" fill="#13131F" d="M85.5 866.3c-5.9 0-11.9-.4-17.8-1.3-5.3-.7-9.1-4.7-9.5-9.4l-.4-5.9c-.4-5.6 4-10.6 10.3-11.2l6.2-.6c3.8-.4 7.6-.6 11.6-.6 3.8 0 7.8.1 11.6.6l6.2.6c6.2.6 10.7 5.4 10.3 11.2l-.4 5.9c-.4 4.8-4.3 8.7-9.5 9.4-6.6.9-12.6 1.3-18.6 1.3z"/><path fill="#13131F" d="M85.5 866.3c-5.4 0-10.9-.4-16.2-1.3-4.7-.7-8.4-4.7-8.7-9.4l-.4-5.9c-.4-5.6 3.7-10.6 9.3-11.2l5.5-.5c3.5-.4 7-.6 10.4-.6s7 .1 10.4.6l5.6.6c5.6.6 9.7 5.4 9.3 11.2l-.4 5.9c-.4 4.8-4 8.7-8.7 9.4-5.3.8-10.7 1.2-16.1 1.2z"/><linearGradient id="ae" gradientUnits="userSpaceOnUse" x1="58.164" y1="936.41" x2="58.164" y2="950.904" gradientTransform="translate(0 -535.171) scale(1.4684)"><stop offset="0" stop-color="#25253c"/><stop offset="1" stop-color="#13131f" stop-opacity="0"/></linearGradient><path fill="url(#ae)" d="M85.5 863.2c-4.8 0-9.7-.3-14.4-1-4.3-.6-7.3-3.7-7.8-7.5l-.4-4.6c-.4-4.4 3.2-8.2 8.2-8.7l5-.4c3.1-.3 6.2-.4 9.3-.4 3.1 0 6.3.1 9.3.4l5 .4c5 .4 8.7 4.3 8.2 8.7l-.4 4.6c-.3 3.8-3.5 6.8-7.8 7.5-4.5.7-9.4 1-14.2 1z"/><path d="M69.3 865c3.4.6 6.9.9 10.3 1.2L95 838c-3.1-.3-6.3-.4-9.4-.4h-3.7l-14.5 26.9c.4.2 1.2.3 1.9.5zm39.8-21.6c-1.2-1.8-2.8-3.1-4.7-4l-14.5 26.9c2.3-.1 4.8-.3 7.2-.6l12-22.3z" opacity=".06" fill="#FFF"/><path d="M77.8 853.8c-.4 2.3-2.1 0-4.6-.4s-4.8 1.3-4.6-1c.4-2.3 2.6-3.8 5.1-3.5 2.8.4 4.6 2.6 4.1 4.9zm15.3 0c.4 2.3 2.1 0 4.6-.4s4.8 1.3 4.6-1c-.4-2.3-2.6-3.8-5.1-3.5-2.8.4-4.4 2.6-4.1 4.9z" fill="#FFF"/><path fill="#24262B" d="M766.9 547.5H152.6c-4.1 0-7.4 3.3-7.4 7.4v35.4h629.1v-35.4c0-4.1-3.3-7.4-7.4-7.4zm203.5 100.8H747.7c-3.9 0-7 3.1-7 7v21.9h237.1v-21.5c0-4.1-3.3-7.4-7.4-7.4zm-820.8 63v16.3h-128v-16.3c0-5.7 4.1-10.5 9.5-11.5h20c1.1.5 1.9 1.7 1.9 2.9v4.3c0 1.8 1.3 3.1 2.9 3.1H116c1.6 0 2.9-1.5 2.9-3.1v-4.3c0-1.4.8-2.5 1.8-2.9h19.9c5 1.1 9 5.9 9 11.5z"/><path d="M175.2 568.1c-5 0-9.8 1.1-14.3 3.5h28.5c-4.4-2.4-9.2-3.5-14.2-3.5zm6.7 4.8c-2.1 0-3.9 1.4-4.5 3.2-1.2-.4-2.4-.4-3.5-.1-.7-1.7-2.4-3-4.5-3-2.6 0-4.7 2.1-4.7 4.7s2.1 4.7 4.7 4.7 4.7-2.1 4.7-4.7v-.5c1-.2 2-.1 3 .2v.4c0 2.6 2.1 4.7 4.7 4.7s4.7-2.1 4.7-4.7c.1-2.6-2-4.9-4.6-4.9zm-9 4.9c0 2-1.6 3.5-3.5 3.5-2 0-3.5-1.6-3.5-3.5s1.6-3.5 3.5-3.5c1.5 0 2.7.9 3.2 2.1.2.4.3.8.3 1.4 0-.1 0-.1 0 0zm9 3.5c-2 0-3.5-1.6-3.5-3.5s1.6-3.5 3.5-3.5 3.5 1.6 3.5 3.5-1.6 3.5-3.5 3.5zm-.2-24.3l-8.5 1.4-4.1-1.4-2.7 8.4h18.1l-2.8-8.4zM37.1 713.5c-3.2 0-6.4.7-9.3 2.3h18.5c-2.9-1.6-6-2.3-9.2-2.3zm4.3 3.1c-1.4 0-2.5.9-2.9 2.1-.8-.2-1.5-.2-2.3-.1-.5-1.1-1.5-1.9-2.9-1.9-1.7 0-3.1 1.4-3.1 3.1s1.4 3.1 3.1 3.1 3.1-1.4 3.1-3.1v-.3c.6-.2 1.3-.1 1.9.2v.2c0 1.7 1.4 3.1 3.1 3.1 1.7 0 3.1-1.4 3.1-3.1 0-1.8-1.4-3.3-3.1-3.3zm-5.8 3.2c0 1.3-1 2.3-2.3 2.3s-2.3-1-2.3-2.3c0-1.2 1-2.3 2.3-2.3 1 0 1.8.6 2.1 1.4.1.2.2.5.2.9 0-.1 0-.1 0 0zm5.8 2.2c-1.3 0-2.3-1-2.3-2.3 0-1.2 1-2.3 2.3-2.3 1.2 0 2.3 1 2.3 2.3s-1.1 2.3-2.3 2.3zm-.1-15.7l-5.5.9-2.7-.9-1.8 5.4H43l-1.7-5.4zm718.2-44.8c-3.6 0-7 .8-10.2 2.5h20.3c-3.2-1.7-6.6-2.5-10.1-2.5zm4.7 3.4c-1.5 0-2.8 1-3.2 2.3-.9-.3-1.7-.3-2.5-.1-.5-1.2-1.7-2.1-3.2-2.1-1.9 0-3.4 1.5-3.4 3.4s1.5 3.4 3.4 3.4 3.4-1.5 3.4-3.4v-.4c.7-.2 1.4-.1 2.1.2v.3c0 1.9 1.5 3.4 3.4 3.4s3.4-1.5 3.4-3.4c0-2-1.5-3.6-3.4-3.6zm-6.4 3.5c0 1.4-1.2 2.5-2.5 2.5-1.4 0-2.5-1.2-2.5-2.5s1.2-2.5 2.5-2.5c1.1 0 2 .6 2.3 1.5.2.3.2.5.2 1 0-.1 0-.1 0 0zm6.4 2.5c-1.4 0-2.5-1.2-2.5-2.5s1.2-2.5 2.5-2.5 2.5 1.2 2.5 2.5-1.1 2.5-2.5 2.5zm-.1-17.3l-6 1-2.9-1-2 5.9h12.9l-2-5.9z" fill="#FFF"/></svg>