<svg version="1.1" id="Layer_1" xmlns="http://www.w3.org/2000/svg" x="0" y="0" viewBox="0 0 394.7 97.8" preserveAspectRatio="none" xml:space="preserve"><style>.st0{fill:#fff}</style><g id="Layer_2_1_"><g id="Layer_1-2"><path d="M19.4 97.8h-2.3c-1.6 0-3.2-.2-4.8-.5-1.5-.2-2.9-.7-4.2-1.4-1.3-.7-2.5-1.5-3.6-2.6-1.1-1-1.9-2.2-2.6-3.5-.7-1.3-1.1-2.7-1.4-4.2-.3-1.6-.4-3.3-.5-4.9V17c0-1.6.2-3.2.5-4.8.2-1.4.7-2.9 1.4-4.2.6-1.3 1.5-2.5 2.6-3.6s2.3-2 3.6-2.6C9.4 1.1 10.8.7 12.3.4c1.5-.2 3.2-.4 4.8-.4h360.6c1.6 0 3.2.2 4.8.4 1.4.3 2.8.7 4.2 1.4 2.6 1.4 4.8 3.5 6.1 6.1.7 1.3 1.2 2.8 1.5 4.3.3 1.6.4 3.2.5 4.8v63.8c0 1.6-.2 3.2-.5 4.8-.4 3-1.8 5.7-4 7.8-1 1.1-2.3 1.9-3.6 2.6-1.3.7-2.8 1.2-4.2 1.4-1.6.3-3.2.4-4.8.4H19.4z"/><g id="_Group_"><g id="_Group_2"><g id="_Group_3"><g id="_Group_4"><path id="_Path_" class="st0" d="M61.1 49.7c.1-4.4 2.4-8.4 6.1-10.6-2.4-3.4-6.2-5.4-10.3-5.4-4.3-.5-8.4 2.6-10.6 2.6s-5.6-2.5-9.2-2.4c-4.8.2-9.1 2.8-11.4 7-5 8.6-1.3 21.1 3.5 28.1 2.4 3.4 5.1 7.2 8.8 7 3.6-.1 4.9-2.5 9.1-2.5s5.5 2.3 9.2 2.2c3.7-.1 6.1-3.4 8.5-6.8 1.7-2.4 3-5.1 3.9-7.9-4.6-2.1-7.5-6.5-7.6-11.3z"/><path id="_Path_2" class="st0" d="M54.1 29c2.1-2.5 3.1-5.7 2.8-8.9-3.1.4-6 2-8.1 4.4-2.1 2.3-3.2 5.3-3.1 8.4 3.4 0 6.4-1.4 8.4-3.9z"/></g></g><path class="st0" d="M115.8 75.7V52.3h-.2L106 75.5h-3.6l-9.6-23.1h-.2v23.4h-4.5V44h5.7l10.3 25 10.3-25h5.7v31.7h-4.3zm8.2-6.6c0-4.1 3.1-6.5 8.6-6.8l6.4-.3v-1.8c0-2.6-1.7-4-4.6-4-2.2-.3-4.3 1.1-4.9 3.2h-4.4c0-4.2 4-7.2 9.4-7.2s9.2 3.1 9.2 7.6v15.9h-4.6v-3.8a8.44 8.44 0 01-7.3 4.2c-3.9.4-7.3-2.4-7.7-6.3 0-.2-.1-.4-.1-.7zm15-2.1v-1.8l-5.7.4c-2.8.2-4.5 1.4-4.5 3.4s1.7 3.4 4.2 3.4c3.1.2 5.7-2.1 5.9-5.1V67zm24.7-6.5c-.4-2.6-2.8-4.5-5.5-4.2-3.6 0-6.1 3.1-6.1 7.9s2.4 7.9 6.1 7.9c2.6.2 5-1.6 5.4-4.2h4.6c-.6 5-5 8.6-10 8.1-6.6 0-10.9-4.5-10.9-11.9s4.3-11.9 10.9-11.9c5-.5 9.5 3.2 10 8.3h-4.5zm35.4 6.7h-12.2l-3.1 8.6H179l11.5-31.7h5.3l11.5 31.7H202l-2.9-8.6zm-10.8-3.9h9.6l-4.7-14h-.2l-4.7 14zm43.7.9c0 7.2-3.9 11.8-9.7 11.8-3 .2-5.8-1.4-7.3-4.1v11.5h-4.9V52.6h4.6v3.9c1.5-2.6 4.3-4.2 7.4-4.1 6-.1 9.9 4.6 9.9 11.8zm-4.9 0c0-4.7-2.4-7.8-6.1-7.8s-6.1 3.1-6.1 7.8c0 4.7 2.4 7.8 6.1 7.8s6.1-3.1 6.1-7.8zm30.4 0c0 7.2-3.9 11.8-9.7 11.8-3 .2-5.8-1.4-7.3-4.1v11.5h-4.9V52.6h4.6v3.9c1.5-2.6 4.3-4.2 7.4-4.1 6-.1 9.9 4.6 9.9 11.8zm-4.9 0c0-4.7-2.4-7.8-6.1-7.8-3.7 0-6.1 3.1-6.1 7.8 0 4.7 2.4 7.8 6.1 7.8 3.6 0 6.1-3.1 6.1-7.8zm21.7 2.7c.3 3.1 3.4 5.2 7.6 5.2 4.2 0 6.9-2 6.9-4.9s-1.7-3.9-5.8-5l-4.1-1.1c-5.8-1.4-8.5-4.1-8.5-8.6 0-5.5 4.8-9.2 11.6-9.2s11.3 3.8 11.5 9.2h-4.8c-.3-3.1-3.1-5.1-6.7-5.1-3.7 0-6.4 1.9-6.4 4.7 0 2.3 1.7 3.6 5.8 4.6l3.5.9c6.5 1.6 9.2 4.2 9.2 8.8 0 6-4.7 9.7-12.2 9.7-7.1 0-11.8-3.6-12.2-9.4l4.6.2zM304 47.1v5.5h4.4v3.8H304v12.7c0 2 .9 2.9 2.8 2.9h1.6v3.7c-.9.2-1.7.2-2.6.2-4.7 0-6.5-1.7-6.5-6.1V56.3h-3.4v-3.8h3.4V47l4.7.1zm7 17.1c0-7.3 4.3-11.9 11-11.9s11.1 4.6 11.1 11.9c0 7.3-4.2 11.9-11 11.9-6.7-.1-11.1-4.7-11.1-11.9zm17.1 0c0-5-2.3-7.9-6.1-7.9s-6.1 3.1-6.1 7.9c0 4.9 2.3 7.9 6.1 7.9s6.1-3 6.1-7.9zm8.7-11.6h4.6v3.9c.6-2.5 3-4.3 5.6-4.2.6 0 1.1.1 1.7.2V57c-.7-.2-1.4-.3-2.1-.3-2.6-.1-4.9 2-5 4.6v14.4h-4.8V52.6zm33.8 16.3c-1 4.6-5.3 7.6-10 7.1-6.7 0-10.9-4.5-10.9-11.7s4.2-12 10.7-12 10.4 4.4 10.4 11.4v1.6h-16.3v.3c-.2 3.3 2.2 6.2 5.5 6.5h.8c2.3.2 4.5-1.1 5.3-3.2h4.5zM354.5 62H366c.2-3.1-2.2-5.7-5.2-5.9h-.2c-3.2-.1-6 2.4-6.1 5.6v.3z"/></g></g><path class="st0" d="M94.5 20.1c3.7-.3 6.9 2.4 7.2 6.1v1.3c.5 3.7-2.1 7.1-5.8 7.6-.5.1-1 .1-1.4 0H89V19.9l5.5.2zm-3.1 13.1h2.9c2.6.2 4.9-1.9 5.1-4.5v-1c.4-2.6-1.5-5-4.1-5.4h-3.8l-.1 10.9zm12.9-3.6c-.3-3 1.9-5.7 4.9-5.9 3-.3 5.7 1.9 5.9 4.9v1c.3 3-1.9 5.7-4.9 5.9-3 .3-5.7-1.9-5.9-4.9v-1zm8.6 0c0-2.5-1.1-4-3.1-4-1.9 0-3.1 1.5-3.1 4s1.1 4 3.1 4 3.1-1.5 3.1-4zm16.7 5.7h-2.4l-2.4-8.5-2.6 8.5h-2.3l-3.1-11.5h2.3l2.1 8.8h.2l2.4-8.8h2.2l2.4 8.8 2.1-8.8h2.3l-3.2 11.5zm5.8-11.5h2.1v1.8h.2c.6-1.3 2-2.2 3.5-2 2.1-.1 3.8 1.4 4 3.5v8.3h-2.3v-6.9c0-1.8-.8-2.8-2.5-2.8-1.4-.1-2.7 1-2.7 2.4v7.2h-2.3V23.8zm13.5-4.5h2.3v16h-2.3v-16zm5.4 10.3c-.6-2.9 1.2-5.8 4.2-6.5 2.9-.6 5.8 1.2 6.5 4.2.1.4.1.8.1 1.2.1.3.1.7 0 1 .3 3-1.9 5.7-4.9 5.9-3 .3-5.7-1.9-5.9-4.9-.1-.2-.1-.6 0-.9zm8.5 0c0-2.5-1.1-4-3.1-4s-3.1 1.5-3.1 4 1.1 4 3.1 4 3.1-1.5 3.1-4zm4.7 2.5c0-2.1 1.5-3.3 4.3-3.5l3.1-.2v-.9c0-1.2-.8-1.9-2.4-1.9-1.6 0-2.1.5-2.4 1.3h-2c.2-2 2.1-3.3 4.7-3.3s4.5 1.4 4.5 3.9v7.9H175v-1.7h-.2c-.7 1.2-2.1 1.9-3.5 1.8-1.9.2-3.6-1.2-3.8-3.1v-.3zm7.4-1v-1l-2.8.2c-1.6 0-2.3.6-2.3 1.7 0 1 .9 1.7 2.1 1.7 1.5.1 2.9-1 3-2.6.1.1.1.1 0 0zm5.4-1.5c0-3.6 1.9-6 4.8-6 1.5-.1 2.8.7 3.5 2h.2v-6.3h2.3v16h-2.2v-1.7h-.3c-.7 1.3-2.1 2.1-3.6 2-3-.1-4.7-2.4-4.7-6zm2.3 0c0 2.4 1.2 3.9 3.1 3.9 1.9 0 3.1-1.5 3.1-3.9s-1.2-3.9-3.1-3.9c-1.9 0-3.1 1.5-3.1 3.9zm17.7 0c-.3-3 1.9-5.7 4.9-5.9 3-.3 5.7 1.9 5.9 4.9v1c.3 3-1.9 5.7-4.9 5.9-3 .3-5.7-1.9-5.9-4.9v-1zm8.5 0c0-2.5-1.1-4-3.1-4s-3.1 1.5-3.1 4 1.1 4 3.1 4 3.1-1.5 3.1-4zm5.4-5.8h2.2v1.8h.2c.6-1.4 2-2.2 3.5-2 2.1-.1 3.8 1.4 4 3.5v8.3h-2.3v-6.9c0-1.8-.8-2.8-2.5-2.8-1.4-.1-2.7 1-2.7 2.4v7.2h-2.3V23.8zm22.6-2.8v2.9h2.5v1.9h-2.5v5.9c0 1.2.5 1.7 1.6 1.7h.9v1.9H238c-2.5 0-3.5-.9-3.5-3.1v-6.5h-1.8v-1.9h1.8V21h2.3zm5.6-1.7h2.3v6.3h.2c.6-1.4 2-2.2 3.5-2 2.1-.1 3.8 1.5 4 3.5v8.1h-2.3v-6.9c0-1.8-.9-2.8-2.5-2.8-1.5-.1-2.7 1-2.9 2.4v7.2h-2.3V19.3zm23.2 12.9c-.6 2.2-2.7 3.6-5 3.3-2.9.1-5.2-2.2-5.4-5v-.9c-.4-2.9 1.5-5.6 4.4-6h.8c3.1 0 5.1 2.2 5.1 5.8v.8h-8c-.2 1.7 1 3.2 2.7 3.4h.4c1.1.1 2.2-.4 2.7-1.4h2.3zm-8-3.7h5.8c.2-1.5-1-2.9-2.5-3h-.4c-1.6 0-3 1.3-2.9 3z" id="_Group_5"/></g></g></svg>