<svg xmlns="http://www.w3.org/2000/svg" width="100" height="63.481" viewBox="0 18.259 100 63.481"><path fill="#009FFF" d="M100 22.542v54.915a4.289 4.289 0 01-4.283 4.283H4.283A4.289 4.289 0 010 77.457V22.542a4.289 4.289 0 014.283-4.283h91.434A4.289 4.289 0 01100 22.542z"/><path d="M8.622 26.497c.165.219.274.494.274.824 0 .439-.165.824-.439 1.098-.275.274-.769.384-1.318.384H4.613v-5.381h2.471c.549 0 .988.11 1.263.384.274.274.439.604.439 1.043 0 .33-.109.604-.274.824-.165.22-.384.384-.659.439.329 0 .604.165.769.385zm-2.691-.879h.879c.439 0 .659-.22.659-.604s-.22-.604-.714-.604h-.824v1.208zm1.647 1.537c0-.22-.055-.33-.165-.439-.11-.109-.33-.165-.549-.165h-.933v1.208h.934c.493 0 .713-.219.713-.604zm5.382.659h-2.032l-.33.988H9.226l1.977-5.381h1.483l1.977 5.381H13.29l-.33-.988zm-.33-.988l-.714-1.977-.659 1.977h1.373zm7.359 1.977h-1.318l-2.196-3.295v3.295h-1.318v-5.381h1.318l2.196 3.35v-3.35h1.318v5.381zm3.405-2.746l2.197 2.746h-1.592l-1.812-2.416v2.416h-1.318v-5.381h1.318v2.361l1.867-2.361h1.538l-2.198 2.635zm-12.96 46.238c.22.165.33.385.439.715h-.659c-.055-.11-.11-.221-.22-.275s-.22-.109-.384-.109a.497.497 0 00-.439.22c-.11.11-.165.329-.165.549s.055.385.165.55c.11.109.274.219.439.219.165 0 .274-.055.384-.109s.165-.164.22-.274h.659c-.055.274-.22.549-.439.714a1.35 1.35 0 01-.823.274c-.275 0-.495-.055-.659-.165a1.637 1.637 0 01-.439-.439c-.11-.164-.165-.439-.165-.658 0-.275.055-.494.165-.659s.274-.329.439-.439c.165-.11.384-.165.659-.165.328-.223.603-.168.823.051zm2.087 2.307l-.549-.988h-.165v.988h-.604v-2.58h1.043c.22 0 .384.055.494.109a.565.565 0 01.33.274c.055.11.11.274.11.439s-.055.329-.165.494-.274.22-.439.274l.604 1.043h-.659v-.053zm-.714-1.373h.384c.11 0 .22-.055.275-.109.055-.055.11-.109.11-.22s-.055-.165-.11-.22a.42.42 0 00-.275-.109h-.384v.658zm2.306-.713v.549h.878v.494h-.878v.549h.988v.494h-1.592v-2.58h1.592v.494h-.988zm3.514 1.482c-.109.219-.274.329-.494.439a1.53 1.53 0 01-.714.164h-.988v-2.58h1.043c.274 0 .494.055.714.164s.384.274.439.439a1.52 1.52 0 010 1.374zm-.658-.109c.11-.11.22-.33.22-.55s-.055-.439-.22-.55a.844.844 0 00-.549-.219h-.274v1.482h.274c.219.001.439-.054.549-.163zm1.812-1.868v2.58h-.604v-2.58h.604zm2.306 0v.494h-.714v2.086h-.603v-2.086h-.714v-.494h2.031zm2.966.274c.22.165.33.385.439.715h-.659c-.055-.11-.11-.221-.22-.275s-.22-.109-.384-.109-.33.055-.439.22-.165.329-.165.549.055.385.165.55c.11.164.275.219.439.219s.274-.055.384-.109.165-.164.22-.274h.659c-.055.274-.22.549-.439.714-.22.164-.494.274-.824.274-.274 0-.494-.055-.659-.165a1.652 1.652 0 01-.439-.439 1.456 1.456 0 01-.165-.658c0-.275.055-.494.165-.659.11-.22.274-.329.439-.439.165-.11.385-.165.659-.165.33-.223.604-.168.824.051zm2.416 1.867h-.989l-.165.494h-.659l.934-2.58h.714l.934 2.58h-.659l-.11-.494zm-.165-.494l-.33-.934-.33.934h.66zm2.526.934l-.549-.988h-.165v.988h-.604v-2.58h1.043c.22 0 .384.055.494.109a.562.562 0 01.33.274c.055.11.11.274.11.439s-.055.329-.165.494-.275.22-.439.274l.604 1.043h-.659v-.053zm-.714-1.373h.385c.11 0 .22-.055.274-.109s.11-.109.11-.22-.055-.165-.11-.22-.165-.109-.274-.109h-.385v.658zm3.9.769c-.11.219-.275.329-.495.439a1.53 1.53 0 01-.714.164h-.988v-2.58h.988c.275 0 .494.055.714.164s.385.274.439.439c.11.22.165.439.165.658.055.277 0 .496-.109.716zm-.66-.109c.11-.11.22-.33.22-.55s-.055-.439-.22-.55a.844.844 0 00-.549-.219h-.274v1.482h.22c.274.001.438-.054.603-.163zM8.182 56.315v-.55h1.263v4.504h-.604v-3.954h-.659zm3.735 2.033c.439-.494.659-.934.659-1.318 0-.275-.055-.439-.22-.604-.11-.165-.33-.22-.604-.22a.907.907 0 00-.659.275c-.165.164-.22.439-.274.768h-.549c.055-.494.165-.878.439-1.152.274-.275.659-.385 1.098-.385s.769.109.988.33c.22.219.385.549.385.934 0 .329-.11.658-.33 1.043-.22.33-.494.659-.824.988-.33.275-.659.549-.988.77h2.251v.494h-3.075v-.441a9.434 9.434 0 001.703-1.482zm4.283-2.582c.22.11.385.221.495.439.109.165.165.385.165.604 0 .274-.055.494-.22.714s-.384.33-.714.33v.055c.33.109.604.219.769.384.165.165.274.439.274.714 0 .385-.11.659-.384.879-.22.22-.604.33-1.043.33s-.824-.11-1.099-.385c-.274-.22-.439-.604-.494-1.044h.549c.055.274.165.495.33.659.165.165.439.274.714.274.274 0 .494-.055.659-.22a.703.703 0 00.22-.549.783.783 0 00-.33-.659c-.219-.165-.549-.22-.933-.22h-.165v-.494h.165c.769 0 1.153-.274 1.153-.769a.706.706 0 00-.22-.55c-.165-.109-.329-.219-.604-.219-.274 0-.494.055-.659.219a1.255 1.255 0 00-.33.66h-.549c.055-.439.165-.77.439-.989s.604-.384 1.098-.384c.22.111.494.166.714.221zm1.263 3.46v-.494l2.307-3.021h.604v2.966h.659v.494h-.659v1.044h-.604v-1.044l-2.307.055zm2.416-2.801l-1.757 2.252h1.757v-2.252zm64.195-.11v-.55h1.264v4.504h-.604v-3.954h-.66zm3.735 2.033c.439-.494.659-.934.659-1.318 0-.275-.055-.439-.22-.604-.109-.165-.329-.22-.604-.22a.908.908 0 00-.659.275c-.165.164-.22.439-.274.768h-.549c.055-.494.164-.878.438-1.152.274-.275.659-.385 1.099-.385s.769.109.988.33c.22.219.385.549.385.934 0 .329-.11.658-.33 1.043-.219.33-.494.659-.823.988a12.12 12.12 0 01-.989.77h2.252v.494h-3.075v-.441c.659-.494 1.262-.988 1.702-1.482zm4.228-2.582c.22.11.385.221.494.439.11.165.165.385.165.604 0 .274-.055.494-.22.714-.164.22-.385.33-.714.33v.055c.329.109.604.219.769.384.165.165.275.439.275.714 0 .385-.11.659-.385.879-.22.22-.604.33-1.043.33s-.824-.11-1.099-.385c-.274-.22-.439-.604-.495-1.044h.55c.055.274.165.495.329.659.165.165.439.274.715.274.273 0 .494-.055.658-.22a.703.703 0 00.22-.549.785.785 0 00-.329-.659c-.22-.165-.549-.22-.934-.22h-.165v-.494h.165c.769 0 1.152-.274 1.152-.769a.709.709 0 00-.219-.55c-.165-.109-.33-.219-.604-.219s-.494.055-.659.219a1.26 1.26 0 00-.329.66h-.55c.056-.439.166-.77.439-.989.275-.22.604-.384 1.099-.384.276.111.496.166.715.221zm-63.207.439h-2.306v1.482a.862.862 0 01.439-.329c.219-.11.439-.11.659-.11.33 0 .604.056.769.221.22.109.384.329.439.549.11.22.165.439.165.714 0 .439-.11.823-.384 1.153-.275.274-.659.439-1.153.439-.439 0-.824-.109-1.098-.385-.275-.22-.439-.549-.495-.988h.549c.055.274.165.494.33.604.165.165.384.221.659.221.33 0 .549-.11.714-.275.165-.219.275-.439.275-.769s-.11-.55-.275-.714c-.165-.164-.384-.274-.714-.274-.22 0-.439.055-.604.165a1.267 1.267 0 00-.384.384h-.549v-2.526h2.856v.439h.108zm3.186.11c-.165-.165-.33-.22-.604-.22-.384 0-.659.164-.824.439-.165.274-.274.713-.274 1.318v.219c.055-.274.22-.439.439-.604.22-.165.494-.221.824-.221.439 0 .769.11 1.043.385.274.275.384.659.384 1.099 0 .274-.055.55-.165.769-.109.22-.274.385-.494.549-.22.11-.494.221-.824.221-.659 0-1.098-.221-1.318-.604s-.384-.934-.384-1.647c0-.77.11-1.373.384-1.812.274-.385.659-.604 1.263-.604.439 0 .769.109.988.385.22.219.384.549.384.934h-.548a2.04 2.04 0 00-.274-.606zm-1.373 3.13c.165.22.439.33.824.33.274 0 .549-.11.714-.275a1.04 1.04 0 00.274-.714c0-.329-.11-.604-.274-.769s-.439-.274-.714-.274c-.165 0-.33.055-.494.11-.165.055-.275.164-.385.328a.931.931 0 00-.165.55.81.81 0 00.22.714zm5.711-3.24l-1.702 4.064h-.604l1.702-4.01h-2.361v-.494H36.3l.054.44zm.823 0c.11-.164.275-.329.549-.439.22-.109.494-.164.824-.164s.604.055.824.164c.22.11.384.275.549.439.109.165.165.385.165.604a.96.96 0 01-.22.659.982.982 0 01-.604.385c.274.055.549.219.714.438s.274.439.274.714c0 .439-.165.77-.439.988-.275.221-.714.385-1.208.385s-.878-.109-1.208-.385c-.274-.219-.439-.549-.439-.988 0-.274.055-.549.22-.714.165-.22.385-.329.714-.438a.982.982 0 01-.604-.385 1.179 1.179 0 01-.22-.659.762.762 0 01.109-.604zm.55 3.46c.22.165.439.22.769.22s.604-.055.769-.22c.22-.165.274-.384.274-.659a.78.78 0 00-.33-.658c-.219-.166-.439-.221-.769-.221s-.604.055-.769.221c-.165.164-.329.384-.329.658 0 .275.22.494.385.659zm.109-2.196c.165.164.384.219.714.219.274 0 .549-.055.714-.219.165-.165.274-.33.274-.604s-.11-.439-.274-.604c-.165-.164-.384-.219-.714-.219-.274 0-.549.055-.714.219-.165.165-.274.33-.274.604s.109.493.274.604zm7.524.494c0-.715.11-1.264.329-1.647.22-.385.659-.604 1.208-.604.604 0 .988.22 1.263.604.22.384.385.933.385 1.647s-.11 1.263-.385 1.702c-.219.384-.659.604-1.263.604s-.989-.221-1.208-.604c-.219-.439-.329-.988-.329-1.702zm2.636 0c0-.385 0-.659-.055-.934a2.027 2.027 0 00-.275-.604c-.165-.165-.384-.22-.659-.22s-.495.055-.659.22-.274.329-.274.604c-.055.219-.055.549-.055.934s0 .658.055.934c.055.274.165.439.274.604.11.165.384.22.659.22.274 0 .494-.055.659-.22.165-.164.275-.329.275-.604 0-.276.055-.549.055-.934zm.988-1.648v-.55h1.263v4.504h-.604v-3.954h-.659zm3.735 2.033c.439-.494.658-.934.658-1.318 0-.275-.055-.439-.219-.604-.11-.165-.33-.22-.604-.22s-.495.11-.659.275c-.164.164-.274.439-.274.768h-.55c.056-.494.165-.878.439-1.152.275-.275.659-.385 1.099-.385s.769.109.988.33c.22.219.385.549.385.934 0 .329-.11.658-.329 1.043-.221.33-.494.659-.824.988-.33.275-.659.549-.988.77h2.252v.494h-3.076v-.441a9.46 9.46 0 001.702-1.482zm4.228-2.582c.219.11.384.221.494.439.109.165.164.385.164.604 0 .274-.055.494-.219.714-.166.164-.385.33-.715.33v.055c.33.109.604.219.77.384.164.165.273.439.273.714 0 .385-.109.659-.384.879-.22.22-.604.33-1.044.33-.438 0-.823-.11-1.098-.385-.274-.22-.439-.604-.494-1.044h.549c.055.274.165.495.33.659.164.165.439.274.713.274.275 0 .495-.055.66-.22a.705.705 0 00.219-.549c0-.274-.109-.494-.329-.659s-.55-.22-.934-.22h-.165v-.494h.165c.769 0 1.153-.274 1.153-.769a.706.706 0 00-.22-.55c-.165-.109-.329-.219-.604-.219-.273 0-.494.055-.658.219a1.255 1.255 0 00-.33.66h-.549c.055-.439.164-.77.439-.989a1.65 1.65 0 011.098-.384c.277.111.551.166.716.221zM18.451 66.749c0-.329.055-.604.165-.769.11-.165.33-.275.604-.275s.494.11.604.275c.11.164.165.439.165.769s-.055.604-.165.769c-.11.165-.33.275-.604.275s-.494-.11-.604-.275c-.11-.164-.165-.385-.165-.769zm1.209 0c0-.165 0-.329-.055-.439a.3.3 0 00-.165-.274c-.055-.055-.165-.109-.33-.109a.42.42 0 00-.274.109c-.055.055-.11.164-.165.274-.055.11-.055.274-.055.439s0 .329.055.439c.055.11.055.22.165.274.055.055.165.109.274.109s.22-.055.33-.109c.055-.055.11-.164.165-.274.055-.11.055-.219.055-.439zm.494-.769v-.275h.604v2.143h-.274V65.98h-.33zm1.922-.988l-.824 3.35h-.274l.824-3.35h.274zm.933 1.977c.22-.22.33-.439.33-.604a.418.418 0 00-.11-.275.419.419 0 00-.274-.109c-.165 0-.22.055-.33.109a.792.792 0 00-.11.385h-.274c0-.22.11-.439.219-.549.11-.11.275-.165.495-.165s.329.055.494.165c.11.109.165.273.165.439a.887.887 0 01-.165.494c-.11.164-.22.329-.384.439-.165.109-.33.273-.495.384h1.099v.22h-1.428v-.22c.329-.274.604-.494.768-.713zm2.362-1.043h-1.098v.713c.055-.055.11-.109.22-.164s.22-.055.329-.055c.165 0 .275.055.385.109s.165.165.22.274c.055.11.055.22.055.329 0 .221-.055.385-.165.55s-.275.22-.549.22c-.22 0-.384-.055-.494-.165s-.22-.274-.22-.438h.274c0 .109.055.219.165.273s.165.11.329.11c.165 0 .275-.056.33-.165a.788.788 0 00.11-.385c0-.164-.055-.273-.11-.329-.055-.055-.22-.109-.33-.109-.109 0-.219 0-.274.055l-.165.165h-.275v-1.209h1.318l-.055.221zm-16.749-.221l.659 1.812.659-1.812h.275l-.769 2.143h-.33l-.769-2.143h.275zm3.075 1.649h-.934l-.165.494h-.274l.769-2.087h.33l.769 2.087h-.274l-.221-.494zm-.055-.221l-.385-1.043-.384 1.043h.769zm1.098.494h.769v.221h-1.043v-2.143h.274v1.922zm1.318-1.922v2.143h-.274v-2.143h.274zm2.087 1.649c-.11.164-.22.273-.384.384-.165.11-.385.11-.604.11h-.659v-2.143h.659c.219 0 .439.056.604.11.165.11.274.22.384.384.11.166.11.33.11.55 0 .274-.055.439-.11.605zm-.384.054c.165-.165.22-.33.22-.604s-.055-.438-.22-.604c-.165-.164-.33-.219-.659-.219h-.384v1.646h.384c.329-.055.494-.109.659-.219zm46.897-8.182v-.494l2.307-3.021h.604v2.966h.659v.494h-.659v1.044h-.604v-1.044l-2.307.055zm2.362-2.801l-1.758 2.252h1.758v-2.252zm4.777-.22H67.49v1.482a.862.862 0 01.439-.329 2.35 2.35 0 01.659-.11c.329 0 .604.056.769.221.22.109.385.329.439.549.109.22.164.439.164.714 0 .439-.109.823-.384 1.153-.274.274-.659.439-1.153.439-.439 0-.824-.109-1.098-.385-.275-.22-.439-.549-.494-.988h.549c.055.274.164.494.329.604.165.165.384.221.659.221.33 0 .549-.11.714-.275.165-.219.274-.439.274-.769s-.109-.55-.274-.714-.384-.274-.714-.274c-.22 0-.439.055-.604.165a1.26 1.26 0 00-.385.384h-.549v-2.526h2.855v.439h.112zm3.13.11c-.165-.165-.329-.22-.604-.22-.384 0-.658.164-.823.439-.165.274-.274.713-.274 1.318v.219c.055-.274.22-.439.439-.604.22-.165.494-.221.824-.221.438 0 .768.11 1.043.385.274.275.385.659.385 1.099 0 .274-.056.55-.166.769-.109.22-.273.385-.494.549-.219.11-.494.221-.823.221-.659 0-1.099-.221-1.317-.604-.221-.384-.385-.934-.385-1.647 0-.77.109-1.373.385-1.812.273-.385.658-.604 1.263-.604.439 0 .769.109.988.385.22.219.384.549.384.934h-.549c-.057-.222-.111-.441-.276-.606zm-1.372 3.13c.164.22.438.33.823.33.274 0 .549-.11.714-.275.164-.164.274-.439.274-.714 0-.329-.11-.604-.274-.769a1.047 1.047 0 00-.714-.274c-.165 0-.329.055-.494.11-.165.055-.274.164-.385.328a.931.931 0 00-.165.55.808.808 0 00.221.714zm5.711-3.24l-1.703 4.064h-.604l1.702-4.01H74.3v-.494h2.911v.439h.055z" fill="#FFF"/><circle fill="#FFF" cx="87.314" cy="71.966" r="4.833"/><circle fill="#C9E5FD" cx="79.901" cy="71.966" r="4.833"/><path fill="#C9E5FD" d="M0 34.624h100v14.278H0z"/><path fill="#ED1C24" d="M97.475 64.223H79.078V51.758h18.396v12.465zm-16.696-1.647h15.102v-9.172H80.779v9.172z"/></svg>