<svg xmlns="http://www.w3.org/2000/svg" viewBox="0 0 82.24 42.72"><defs><style>.cls-1{fill:#00a8ea;}.cls-2{fill:#33d3f4;}.cls-3{fill:#40eeff;}.cls-4{fill:#fff;}</style></defs><title>diamonds</title><g id="Layer_2" data-name="Layer 2"><g id="Layer_1-2" data-name="Layer 1"><polygon class="cls-1" points="23.87 26.68 28.97 31.6 20.73 42.72 0 28.46 11.38 26.56 21.93 24.81 23.87 26.68"/><polygon class="cls-2" points="21.93 24.81 11.38 26.56 0 28.46 4.18 18.24 5.88 17.96 13.52 16.68 15.2 18.3 21.92 24.8 21.93 24.81"/><polygon class="cls-3" points="23.87 26.68 20.73 42.72 11.38 26.56 21.92 24.8 21.93 24.81 23.87 26.68"/><polygon class="cls-3" points="15.2 18.3 12.15 24.05 5.88 17.96 13.52 16.68 15.2 18.3"/><polygon class="cls-1" points="82.24 28.47 61.51 42.72 53.47 31.86 58.44 27.06 60.7 24.87 70.86 26.57 82.24 28.47"/><polygon class="cls-2" points="82.24 28.47 70.86 26.57 60.7 24.87 67.2 18.6 69.11 16.76 76.35 17.97 78.06 18.25 82.24 28.47"/><polygon class="cls-3" points="70.86 26.57 61.51 42.72 58.44 27.06 60.7 24.87 70.86 26.57"/><polygon class="cls-3" points="76.36 17.96 76.35 17.97 70.09 24.06 67.2 18.6 69.11 16.76 69.11 16.75 76.36 17.96"/><polygon class="cls-1" points="41.35 39.7 17.77 16.93 64.94 16.93 41.35 39.7"/><polygon class="cls-2" points="57.38 4.68 25.33 4.68 17.77 16.93 64.94 16.93 57.38 4.68"/><polygon class="cls-3" points="41.35 39.7 32.8 16.93 49.9 16.93 41.35 39.7"/><polygon class="cls-3" points="34.33 13.86 27.58 4.68 41.35 4.68 34.33 13.86"/><polygon class="cls-3" points="48.01 13.86 41.35 4.68 55.13 4.68 48.01 13.86"/><polygon class="cls-4" points="24.7 5.85 21.19 4.68 24.7 3.51 25.87 0 27.04 3.51 30.55 4.68 27.04 5.85 25.87 9.36 24.7 5.85"/><polygon class="cls-4" points="58.01 17.29 55.76 16.57 58.01 15.75 58.82 13.5 59.54 15.75 61.79 16.57 59.54 17.29 58.82 19.54 58.01 17.29"/></g></g></svg>