<svg version="1.2" baseProfile="tiny" xmlns="http://www.w3.org/2000/svg" viewBox="0 0 200 200"><switch><g><linearGradient id="a" gradientUnits="userSpaceOnUse" x1="100" y1="38.47" x2="100" y2="401.97"><stop offset="0" stop-color="#f7af04"/><stop offset="1" stop-color="#f42014"/></linearGradient><path fill="url(#a)" d="M147.1 159.8H52.9c-5.9 0-10.8-4.8-10.8-10.8V50.9c0-5.9 4.8-10.8 10.8-10.8H147c5.9 0 10.8 4.8 10.8 10.8V149c0 6-4.8 10.8-10.7 10.8z"/><radialGradient id="b" cx="100.949" cy="-22.03" r="211.269" gradientUnits="userSpaceOnUse"><stop offset="0" stop-color="#f6d201"/><stop offset=".326" stop-color="#f6cc01" stop-opacity=".674"/><stop offset=".749" stop-color="#f7bc03" stop-opacity=".251"/><stop offset="1" stop-color="#f7af04" stop-opacity="0"/></radialGradient><path fill="url(#b)" d="M144.7 154.8H55.3c-4.6 0-8.3-3.7-8.3-8.3v-93c0-4.6 3.7-8.3 8.3-8.3h89.3c4.6 0 8.3 3.7 8.3 8.3v93c0 4.6-3.7 8.3-8.2 8.3z"/><path d="M69.8 126.1H79c6.6 0 11.1 4 11.1 10.1s-4.5 10.1-11.1 10.1h-9.2v-20.2zm8.9 16.3c4 0 6.6-2.4 6.6-6.3s-2.6-6.3-6.6-6.3h-4.3v12.5h4.3zm33.4-16.3v20.2h-3.8L98.2 134v12.3h-4.6v-20.2h3.9l10 12.3v-12.3h4.6zm3.2 18.1l1.6-3.5c1.7 1.2 4.2 2.1 6.7 2.1 2.8 0 3.9-.9 3.9-2.2 0-3.8-11.7-1.2-11.7-8.7 0-3.4 2.8-6.3 8.5-6.3 2.5 0 5.1.6 7 1.8l-1.4 3.5c-1.9-1.1-3.8-1.6-5.6-1.6-2.8 0-3.8 1-3.8 2.3 0 3.7 11.7 1.2 11.7 8.6 0 3.4-2.8 6.3-8.6 6.3-3.3.1-6.5-.9-8.3-2.3z" fill="#FFF"/><circle fill="#FFF" cx="100" cy="85.5" r="32.1"/><path fill="#1A9EFE" d="M112.8 82.3h-1.4v-4.7c0-6.3-5.1-11.4-11.4-11.4-6.3 0-11.4 5.1-11.4 11.4v4.7h-1.4c-.5 0-.9.4-.9.9v17.2c0 .5.4.9.9.9h25.6c.5 0 .9-.4.9-.9V83.2c0-.5-.4-.9-.9-.9zm-19.7-4.7c0-3.8 3.1-6.9 6.9-6.9 3.8 0 6.9 3.1 6.9 6.9v4.7H93.1v-4.7zm8.9 17.9h-4.1l.8-4.3c-.5-.4-.8-.9-.8-1.6 0-1.1.9-2 2-2s2 .9 2 2c0 .7-.3 1.2-.8 1.6l.9 4.3z"/></g></switch></svg>