<svg baseProfile="basic" xmlns="http://www.w3.org/2000/svg" viewBox="0 0 500 500"><switch><g><path fill="#F1F2F2" d="M474.9 182.8v226.5c0 9.5-4.3 18-11.1 23.7-5.3 4.4-12.2 7.1-19.7 7.1H30.8c-7.5 0-14.3-2.7-19.7-7.1C4.3 427.3 0 418.8 0 409.3V182.8h474.9z"/><path fill="#E6E7E8" d="M474.9 182.8l-65.7 39.1-171.7 102.4L65.7 221.9 0 182.8zM0 182.8L207.9 49.4c18-11.6 41.2-11.6 59.2 0l207.8 133.4H0z"/><path fill="#E6E7E8" d="M0 182.8L207.9 49.4c18-11.6 41.2-11.6 59.2 0l207.8 133.4H0zm463.8 250.1c-5.3 4.4-12.2 7.1-19.7 7.1H30.8c-7.5 0-14.3-2.7-19.7-7.1l196.8-126.3c18-11.6 41.2-11.6 59.2 0l196.7 126.3z"/><path fill="#FFF" d="M409.2 80.5v141.4l-72.1 43-29.8 17.7-41.9 25c-17.3 10.3-38.9 10.3-56.1 0l-41.9-25-29.8-17.7-72.1-43V80.5h343.7z"/><g fill="#1A9EFE"><circle cx="146.6" cy="168.5" r="36.3"/><path d="M227.6 138.9h137v17.7h-137zm0 42h137v17.7h-137z"/></g><path fill="#1A9EFE" d="M110.3 222.9h254.3v17.7H110.3zm226.9 42l-29.8 17.7H167.5l-29.7-17.7z"/><path fill="#FFC12E" d="M500 389.2c0 15.9-5.3 30.6-14.2 42.4-12.8 16.9-33.1 27.8-55.9 27.8-22.8 0-43.1-10.9-55.9-27.8-8.9-11.8-14.3-26.5-14.3-42.4 0-38.7 31.4-70.1 70.1-70.1 38.8-.1 70.2 31.3 70.2 70.1z"/><path fill="#FFF" d="M386.237 388.085l13.717-13.717 35.921 35.92-13.718 13.718z"/><path fill="#FFF" d="M408.486 410.394l51.265-51.264 13.717 13.717-51.265 51.265z"/></g></switch></svg>