<svg version="1.1" id="Layer_1" xmlns="http://www.w3.org/2000/svg" x="0" y="0" viewBox="0 0 484.5 1025.9" xml:space="preserve"><style>.st1{fill:#1a9efe}</style><g id="OBJECT"><path fill="#fff" d="M0 0h484.5v1025.9H0z"/><path class="st1" d="M242.2 445c-60.8 0-110.3-49.5-110.3-110.3s49.5-110.3 110.3-110.3 110.3 49.5 110.3 110.3c.1 60.8-49.4 110.3-110.3 110.3zm0-215.5c-58 0-105.2 47.2-105.2 105.2s47.2 105.2 105.2 105.2 105.2-47.2 105.2-105.2-47.1-105.2-105.2-105.2z"/><path class="st1" d="M242.2 445.3c-61 0-110.6-49.6-110.6-110.6s49.6-110.6 110.6-110.6 110.6 49.6 110.6 110.6-49.6 110.6-110.6 110.6zm0-220.6c-60.7 0-110 49.4-110 110 0 60.7 49.4 110 110 110 60.7 0 110-49.4 110-110 .1-60.7-49.3-110-110-110zm0 215.5c-58.2 0-105.5-47.3-105.5-105.5S184 229.2 242.2 229.2s105.5 47.3 105.5 105.5-47.3 105.5-105.5 105.5zm0-210.4c-57.9 0-104.9 47.1-104.9 104.9 0 57.9 47.1 104.9 104.9 104.9 57.9 0 104.9-47.1 104.9-104.9.1-57.9-47-104.9-104.9-104.9z"/><path class="st1" d="M242.2 322.4c-1.3 0-2.3-.8-2.3-1.8v-27.8c0-1 1-1.8 2.3-1.8s2.3.8 2.3 1.8v27.8c.1 1-1 1.8-2.3 1.8z"/><path class="st1" d="M242.2 323.2c-1.8 0-3.2-1.1-3.2-2.6v-27.8c0-1.4 1.4-2.6 3.2-2.6s3.2 1.1 3.2 2.6v27.8c0 1.5-1.4 2.6-3.2 2.6zm0-31.3c-.9 0-1.5.5-1.5 1v27.8c0 .5.6 1 1.5 1s1.5-.5 1.5-1v-27.8c.1-.5-.6-1-1.5-1z"/><path class="st1" d="M242.2 368.2c-18.6 0-33.7-15-33.7-33.6 0-14.4 9.1-27.2 22.8-31.9 1.1-.3 2.2.3 2.5 1.4.3 1-.2 2.1-1.2 2.5-15.5 5.3-23.7 22.1-18.4 37.6s22.1 23.7 37.6 18.4 23.7-22.1 18.4-37.6c-3-8.6-9.7-15.4-18.4-18.4-1.1-.4-1.6-1.5-1.3-2.6s1.5-1.6 2.6-1.3c17.6 6 27 25.1 21 42.7-4.6 13.6-17.5 22.8-31.9 22.8z"/><path class="st1" d="M242.3 369h-.1c-9.2 0-17.8-3.6-24.4-10.1-6.5-6.5-10.1-15.2-10.1-24.4 0-14.8 9.4-27.9 23.3-32.6 1.5-.5 3.1.4 3.6 1.9.4 1.4-.3 3-1.7 3.5-15 5.2-23 21.5-17.9 36.6 5.1 15 21.5 23 36.5 17.9 15-5.1 23-21.5 17.9-36.5-2.9-8.5-9.4-15-17.9-17.9-.7-.2-1.3-.8-1.6-1.4s-.4-1.5-.1-2.2c.5-1.5 2.1-2.3 3.6-1.8 8.7 3 15.8 9.1 19.8 17.4 4.1 8.3 4.7 17.6 1.7 26.3-4.7 13.9-17.8 23.3-32.6 23.3zm-.1-1.7h.1c14.1 0 26.6-8.9 31.1-22.3 2.8-8.3 2.2-17.2-1.6-25.1-3.9-7.9-10.6-13.8-18.9-16.6-.3-.1-.6-.1-.9.1-.3.1-.5.4-.6.7-.1.3-.1.6.1.9.1.3.4.5.7.6 8.9 3.1 15.8 9.9 18.9 18.9 5.4 15.8-3 33.2-18.9 38.6-15.8 5.4-33.2-3-38.6-18.9-5.4-15.8 3-33.2 18.9-38.6.6-.2.9-.9.7-1.5s-.9-1-1.5-.8c-13.3 4.5-22.2 17-22.2 31.1 0 8.8 3.4 17 9.6 23.2 6.1 6.3 14.3 9.7 23.1 9.7z"/><g id="XMLID_10_"><g id="XMLID_16_"><path id="XMLID_17_" class="st1" d="M99.4 47.5h-3.6c-1.8 0-3.3-1.5-3.3-3.3v-3.9c0-1.8 1.5-3.3 3.3-3.3h3.6v10.5z"/></g><g id="XMLID_11_"><g id="XMLID_14_"><path id="XMLID_15_" class="st1" d="M92.7 45.5s-.1-.3-.3-.7c-.1-.2-.2-.5-.3-.8-.1-.2-.1-.3-.2-.5s-.2-.4-.2-.6c-.1-.2-.1-.4-.2-.6 0-.1-.1-.2-.1-.3s-.1-.3-.1-.3c-.1-.3-.1-.5-.2-.7 0-.1-.1-.3-.1-.4 0-.1-.1-.3-.1-.4 0-.1-.1-.3-.1-.4v-.4c-.1-.3-.1-.6-.1-.9 0-.3-.1-.6-.1-.9V35c0-.3.1-.6.1-.9 0-.3.1-.6.1-.8 0-.3.1-.5.2-.8 0-.1 0-.3.1-.4 0-.1 0-.1.1-.2 0-.1 0-.1.1-.2.1-.3.1-.5.2-.7 0-.1 0-.1.1-.2 0-.1 0-.1.1-.2 0-.1.1-.2.1-.3.1-.2.1-.4.2-.6s.1-.3.2-.5.1-.3.2-.5c.1-.1.1-.3.2-.4.2-.5.3-.7.3-.7l.9.4s-.1.3-.3.7c-.1.1-.1.3-.1.4-.1.1-.1.3-.2.5s-.1.3-.2.5-.1.4-.2.6c0 .1-.1.2-.1.3 0 0 0 .1-.1.1v.2c-.1.2-.1.4-.1.6v.4c0 .1-.1.3-.1.4 0 .3-.1.5-.1.7 0 .3-.1.5-.1.8v3.2c.1.3.1.5.1.8.1.3.1.5.2.8 0 .1 0 .1.1.2 0 .1 0 .1.1.2 0 .1.1.3.1.4 0 .1.1.3.1.3 0 .1.1.3.1.3.1.2.2.5.3.7 0 .1.1.2.1.3.1.1.1.2.1.3l.3.6c.1.2.2.3.3.5.1.2.1.3.2.5.1.3.3.6.4.8.2.4.3.7.3.7l-2.3.7z"/></g><g id="XMLID_12_"><circle id="XMLID_13_" class="st1" cx="92.9" cy="27.6" r="1.7"/></g></g></g><g id="XMLID_2_"><g id="XMLID_8_"><path id="XMLID_9_" class="st1" d="M132.2 47.5h3.6c1.8 0 3.3-1.5 3.3-3.3v-3.9c0-1.8-1.5-3.3-3.3-3.3h-3.6v10.5z"/></g><g id="XMLID_3_"><g id="XMLID_6_"><path id="XMLID_7_" class="st1" d="M138.8 45.5s.1-.3.3-.7c.1-.2.2-.5.3-.8.1-.2.1-.3.2-.5s.2-.4.2-.6c.1-.2.1-.4.2-.6 0-.1.1-.2.1-.3s.1-.3.1-.3c.1-.3.1-.5.2-.7 0-.1.1-.3.1-.4 0-.1.1-.3.1-.4 0-.1.1-.3.1-.4v-.4c.1-.3.1-.6.1-.9 0-.3.1-.6.1-.9v-2.5c0-.3-.1-.6-.1-.9 0-.3-.1-.6-.1-.8 0-.3-.1-.5-.2-.8 0-.1-.1-.3-.1-.4 0-.1 0-.1-.1-.2 0-.1 0-.1-.1-.2-.1-.3-.1-.5-.2-.7 0-.1 0-.1-.1-.2 0-.1 0-.1-.1-.2 0-.1-.1-.2-.1-.3-.1-.2-.1-.4-.2-.6-.1-.2-.1-.3-.2-.5s-.1-.3-.2-.5c-.1-.1-.1-.3-.2-.4-.2-.5-.3-.7-.3-.7l-.9.4s.1.3.3.7c.1.1.1.3.1.4.1.1.1.3.2.5s.1.3.2.5.1.4.2.6c0 .1.1.2.1.3 0 .1 0 .1.1.2v.2c.1.2.1.4.1.6v.4c0 .1 0 .3.1.3 0 .3.1.5.1.7 0 .3.1.5.1.8v3.2c-.1.3-.1.5-.1.8-.1.3-.1.5-.2.8 0 .1 0 .1-.1.2 0 .1 0 .1-.1.2 0 .1-.1.3-.1.4 0 .1-.1.3-.1.3 0 .1-.1.3-.1.3-.1.2-.2.5-.3.7 0 .1-.1.2-.1.3-.1.1-.1.2-.1.3l-.3.6c-.1.2-.2.3-.3.5s-.1.3-.2.5c-.1.3-.3.6-.4.8-.2.4-.3.7-.3.7l2.3.6z"/></g><g id="XMLID_4_"><circle id="XMLID_5_" class="st1" cx="138.7" cy="27.6" r="1.7"/></g></g></g><path class="st1" d="M111.1 41.7c-.2 1.4-1.2 0-2.8-.3s-3 .8-2.8-.6c.2-1.4 1.6-2.4 3.2-2.2 1.5.4 2.6 1.7 2.4 3.1zm14.9-.8c.2 1.4-1.2.3-2.8.6-1.5.3-2.6 1.7-2.8.3s.9-2.8 2.4-3c1.5-.3 2.9.6 3.2 2.1z"/><path class="st1" d="M135.1 37c-1.3-3.6-4.7-6.4-8.8-6.8l-3.5-.3c-4.6-.5-9.3-.5-14 0l-3.5.3c-4.2.4-7.5 3.2-8.9 6.8-.5 1.3-.7 2.8-.6 4.2l.3 3.5c.1 1 .3 1.9.6 2.8 1.3 3.5 4.4 6 8.2 6.6 3.6.6 7.2.9 10.8.9s7.2-.3 10.8-.9c2.4-.4 4.5-1.6 6.1-3.2.9-1 1.7-2.2 2.1-3.5.3-.9.5-1.8.6-2.8l.3-3.5c.1-1.4-.1-2.8-.5-4.1zm-3.9 3.8l-.3 3.5c-.2 2.9-2.4 5.3-5.3 5.8-3.2.5-6.6.8-9.9.8s-6.6-.3-9.9-.8c-2.9-.5-5.1-2.9-5.3-5.8l-.3-3.5c-.3-3.4 2.2-6.4 5.7-6.8l3.4-.3a68.53 68.53 0 0112.8 0l3.4.3c3.5.3 6 3.3 5.7 6.8z"/><path class="st1" d="M111.1 41.7c-.2 1.4-1.2 0-2.8-.3s-3 .8-2.8-.6c.2-1.4 1.6-2.4 3.2-2.2 1.5.4 2.6 1.7 2.4 3.1zm12.1-.2c-1.5.3-2.6 1.7-2.8.3s.9-2.8 2.4-3c1.5-.3 2.9.7 3.2 2.2.2 1.3-1.2.2-2.8.5z"/><path class="st1" d="M111.1 41.7c-.2 1.4-1.2 0-2.8-.3s-3 .8-2.8-.6c.2-1.4 1.6-2.4 3.2-2.2 1.5.4 2.6 1.7 2.4 3.1zm12.1-.2c-1.5.3-2.6 1.7-2.8.3s.9-2.8 2.4-3c1.5-.3 2.9.7 3.2 2.2.2 1.3-1.2.2-2.8.5z" id="XMLID_1_"/><path class="st1" d="M119.2 46c0 .9-.3 1.7-.9 2.2-.6.6-1.4.9-2.2.9h-.5c-1.8 0-3.2-1.4-3.2-3.2 0-.2.1-.3.2-.4.1-.1.3-.2.4-.2h5.7c.2.1.5.3.5.7z"/><path d="M35.2 29.6h30.5v3.5H35.2zm0 9.7h30.5v3.5H35.2zm0 9.7h30.5v3.5H35.2z" fill="#b9b9bb"/></g></svg>