<svg xmlns="http://www.w3.org/2000/svg" viewBox="0 0 177.1 177.1"><path fill="#ff5046" d="M0 0h177.1v177.1H0z"/><path d="M127.3 83h-3.7c-2-5.6-7.3-9.6-13.5-9.6s-11.5 4-13.5 9.6H49.8c-2.4 0-4.3 1.9-4.3 4.3s1.9 4.3 4.3 4.3h46.4c1.7 6.1 7.2 10.5 13.8 10.5s12.1-4.5 13.8-10.5h3.4c2.4 0 4.3-1.9 4.3-4.3.1-2.3-1.9-4.3-4.2-4.3zm0 37.3H80.5c-2-5.6-7.3-9.6-13.5-9.6s-11.5 4-13.5 9.6h-3.7c-2.4 0-4.3 1.9-4.3 4.3s1.9 4.3 4.3 4.3h3.4c1.7 6.1 7.2 10.5 13.8 10.5s12.1-4.5 13.8-10.5h46.4c2.4 0 4.3-1.9 4.3-4.3.1-2.3-1.9-4.3-4.2-4.3zM49.8 55.8h3.4c1.7 6.1 7.2 10.5 13.8 10.5s12.1-4.5 13.8-10.5h46.4c2.4 0 4.3-1.9 4.3-4.3s-1.9-4.3-4.3-4.3H80.5c-2-5.6-7.3-9.6-13.5-9.6s-11.5 4-13.5 9.6h-3.7c-2.4 0-4.3 1.9-4.3 4.3s1.9 4.3 4.3 4.3z" fill="#fff"/></svg>