<svg version="1.1" id="Layer_1" xmlns="http://www.w3.org/2000/svg" x="0" y="0" viewBox="0 0 700 700" xml:space="preserve"><style>.st0{fill:#169ffe}</style><path class="st0" d="M528.6 137H171.4c-39.3 0-71.4 32.1-71.4 71.4v285.7c0 39.4 32.1 71.4 71.4 71.4h357.1c39.4 0 71.4-32.1 71.4-71.4V208.4c.1-39.3-32-71.4-71.3-71.4zm-357.2 35.7h357.1c19.7 0 35.7 16 35.7 35.7v35.7H135.7v-35.7c0-19.7 16-35.7 35.7-35.7zm357.2 357.1H171.4c-19.7 0-35.7-16-35.7-35.7V279.8h428.6v214.3c0 19.7-16 35.7-35.7 35.7z"/><circle class="st0" cx="296.5" cy="208.4" r="17.9"/><circle class="st0" cx="242.9" cy="208.4" r="17.9"/><circle class="st0" cx="189.4" cy="208.4" r="17.9"/><path class="st0" d="M354.4 302.1c-1.4-.2-3-.3-4.4-.3s-3 .2-4.4.3C289.3 304.3 243.9 351 243.9 408S289 511.6 345.6 513.8c1.4.2 3 .3 4.4.3s3-.2 4.4-.3c56.5-2.2 101.7-48.9 101.7-105.9.1-57.1-45.1-103.6-101.7-105.8zm70.7 90.9h-22.9c-.6-13.3-2.5-31-7.5-47.1 15.6 11.1 26.6 27.8 30.4 47.1zm-52.4 0h-45.2c2.1-35.1 11.4-61.7 22.7-61.7 11.1 0 20.4 26.6 22.5 61.7zm-67.6-46.8c-4.8 16.2-6.7 33.7-7.5 47h-22.9c4-19.4 15-36.1 30.4-47zm-30.2 76.5h22.9c.8 13.3 2.7 30.8 7.5 47-15.6-11.1-26.6-27.8-30.4-47zm52.4 0h45.2c-2.1 35.1-11.4 61.7-22.7 61.7-11.1.1-20.4-26.6-22.5-61.7zm67.6 47c4.9-16.2 6.8-33.8 7.5-47.1h22.9c-4 19.5-15 36.1-30.4 47.1z"/></svg>