<svg version="1.1" id="Layer_1" xmlns="http://www.w3.org/2000/svg" x="0" y="0" viewBox="0 0 700 700" xml:space="preserve"><style>.st0{fill:#169ffe}</style><path class="st0" d="M462 133.9c9.4 0 17.1 7.7 17.1 17.1v397.8c0 9.4-7.7 17.1-17.1 17.1H237.9c-9.4 0-17.1-7.7-17.1-17.1V151.1c0-9.4 7.7-17.1 17.1-17.1H462m0-34H237.9c-28.1 0-51.1 22.9-51.1 51.1v397.8c0 28.1 22.9 51.1 51.1 51.1h224.3c28.1 0 51.1-22.9 51.1-51.1V151.1c0-28.2-23-51.1-51.3-51.1z"/><path class="st0" d="M410.6 190.8c5.5 0 9.7 4.4 9.7 9.7V436c0 5.5-4.4 9.7-9.7 9.7H289.3c-5.5 0-9.7-4.4-9.7-9.7V200.7c0-5.5 4.4-9.7 9.7-9.7h121.3m0-34.1H289.3c-24.2 0-43.8 19.6-43.8 43.8v235.4c0 24.2 19.6 43.8 43.8 43.8h121.3c24.2 0 43.8-19.6 43.8-43.8V200.7c.1-24.2-19.6-43.8-43.8-43.8z"/><circle class="st0" cx="350" cy="524.5" r="27.2"/></svg>