<svg version="1.1" id="Layer_1" xmlns="http://www.w3.org/2000/svg" x="0" y="0" viewBox="0 0 700 700" xml:space="preserve"><style>.st0{fill:#169ffe}</style><path class="st0" d="M564.2 171.4c-151.6 0-199.2-63.3-199.5-63.8-3.3-4.7-8.8-7.6-14.6-7.6-5.5.2-11.3 2.8-14.7 7.4-.5.7-48.2 63.9-199.7 63.9-9.9 0-17.8 8-17.8 17.8v156.4c0 165.3 127 214.6 202.8 244.1 8 3.1 15.6 6.1 22.5 9 2.3.9 4.5 1.4 6.9 1.4s4.7-.5 6.9-1.4c6.9-2.9 14.4-5.9 22.5-9 75.9-29.4 202.8-78.8 202.8-244.1V189.2c-.3-9.9-8.2-17.8-18.1-17.8zm-17.8 174.2c0 140.8-103.9 181.2-180 210.6-5.7 2.3-11.3 4.3-16.5 6.4-5.2-2.1-10.7-4.2-16.5-6.4-76-29.4-180-70-180-210.6V206.9c113.6-3.6 171.8-41.2 196.4-63.1 24.6 22 82.8 59.6 196.4 63.1v138.7h.2z"/><path class="st0" d="M398.1 301.8v-24.1c0-26.5-21.7-48.2-48.2-48.2-26.5 0-48.2 21.7-48.2 48.2v24.1c-19.9 0-36 16.3-36 36v96.3c0 19.9 16.3 36 36 36H398c19.9 0 36-16.3 36-36v-96.3c.1-19.7-16-36-35.9-36zm-72.3-24.1c0-13.3 10.7-24.1 24.1-24.1 13.3 0 24.1 10.7 24.1 24.1v24.1h-48.2v-24.1zM410 434.2c0 6.6-5.4 12-12 12h-96.3c-6.6 0-12-5.4-12-12v-96.3c0-6.6 5.4-12 12-12H398c6.6 0 12 5.4 12 12v96.3z"/><path class="st0" d="M349.9 350c-13.3 0-24.1 10.7-24.1 24.1 0 8.8 4.9 16.6 12 20.8v15.4c0 6.6 5.4 12 12 12s12-5.4 12-12v-15.4c7.1-4.2 12-11.8 12-20.8.2-13.4-10.5-24.1-23.9-24.1z"/></svg>