<svg version="1.1" id="Layer_1" xmlns="http://www.w3.org/2000/svg" x="0" y="0" viewBox="0 0 700 700" xml:space="preserve"><style>.st0{fill:#169ffe}</style><path class="st0" d="M464.8 464.8H360.4v-73c0-5.8-4.6-10.4-10.4-10.4s-10.4 4.6-10.4 10.4v73H235.3c-17.3 0-31.3 14-31.3 31.3V517c0 17.3 14 31.3 31.3 31.3h229.5c17.3 0 31.3-14 31.3-31.3v-21c.1-17.1-14.1-31.2-31.3-31.2zm10.5 52.2c0 5.8-4.6 10.4-10.4 10.4H235.3c-5.8 0-10.4-4.6-10.4-10.4v-20.9c0-5.8 4.6-10.4 10.4-10.4h229.5c5.8 0 10.4 4.6 10.4 10.4V517h.1z"/><path class="st0" d="M443.9 496.2h-10.4c-5.8 0-10.4 4.6-10.4 10.4 0 5.8 4.6 10.4 10.4 10.4h10.4c5.8 0 10.4-4.6 10.4-10.4s-4.6-10.4-10.4-10.4zm-41.8 0h-10.4c-5.8 0-10.4 4.6-10.4 10.4 0 5.8 4.6 10.4 10.4 10.4h10.4c5.8 0 10.4-4.6 10.4-10.4s-4.6-10.4-10.4-10.4zM350 370.9c11.5 0 20.9 9.4 20.9 20.9 0 5.8 4.6 10.4 10.4 10.4s10.4-4.6 10.4-10.4c0-23-18.8-41.8-41.8-41.8-5.8 0-10.4 4.6-10.4 10.4.1 5.9 4.8 10.5 10.5 10.5z"/><path class="st0" d="M350 339.6c28.8 0 52.1 23.4 52.1 52.1 0 5.8 4.6 10.4 10.4 10.4s10.4-4.6 10.4-10.4c0-40.3-32.8-73-73-73-5.8 0-10.4 4.6-10.4 10.4.1 5.8 4.8 10.5 10.5 10.5z"/><path class="st0" d="M350 308.3c46 0 83.5 37.5 83.5 83.5 0 5.8 4.6 10.4 10.4 10.4s10.4-4.6 10.4-10.4c0-57.5-46.9-104.4-104.4-104.4-5.8 0-10.4 4.6-10.4 10.4.1 5.8 4.8 10.5 10.5 10.5zm-62.6 187.9h-31.3c-5.8 0-10.4 4.6-10.4 10.4 0 5.8 4.6 10.4 10.4 10.4h31.3c5.8 0 10.4-4.6 10.4-10.4s-4.7-10.4-10.4-10.4z"/><path class="st0" d="M582 294.8c-11.4-16.8-27.3-29.4-45.8-36.9-3.4-59-52.4-106.1-112.4-106.1-35.4-.1-67.8 16.2-88.8 43.4-11.9-5.4-24.9-8.3-38-8.3-31.9 0-60.8 16.3-77.3 42.6-2.5-.3-4.9-.3-7.4-.3-65.5 0-118.3 56.5-112 123.4 5.6 58.4 56.8 101.9 115.3 101.9h92.5c5.8 0 10.4-4.6 10.4-10.4 0-5.8-4.6-10.4-10.4-10.4h-92.8c-48.9 0-91.4-37-94.5-85.8-3.4-53.4 38.9-97.6 91.4-97.6 6.6 0 13 .8 19.3 2 10.4-25.9 35.8-44.3 65.4-44.3 16.9 0 32.5 6 44.6 16 14.9-30.4 46.3-51.3 82.3-51.3 50.8 0 91.8 41 91.8 91.6 0 3-.3 6-.4 9 20.5 4.4 38.1 16.6 49.6 33.4 8.8 12.6 14 27.6 14.3 44.1 1 45.5-38.6 82.8-84.3 82.8H391.6c-5.8 0-10.4 4.6-10.4 10.4 0 5.8 4.6 10.4 10.4 10.4h103.1c51.8 0 97.6-37.1 104.3-88.4 3.5-25.6-2.7-50.6-17-71.2z"/></svg>