<svg version="1.1" id="Layer_1" xmlns="http://www.w3.org/2000/svg" x="0" y="0" viewBox="0 0 947.8 412.6" xml:space="preserve"><style>.st0{fill:#169ffe}</style><path class="st0" d="M639.9 7h-332c-36.6 0-66.4 29.7-66.4 66.4v265.7c0 36.6 29.7 66.4 66.4 66.4H640c36.6 0 66.4-29.7 66.4-66.4V73.4C706.5 36.8 676.5 7 639.9 7zm-332 33.3H640c18.2 0 33.1 14.9 33.1 33.1v33.1H274.6V73.4c0-18.2 14.8-33.1 33.3-33.1zm332 332.1h-332c-18.2 0-33.1-14.9-33.1-33.1V139.9h398.6v199.3c-.4 18.3-15.1 33.2-33.5 33.2z"/><path class="st0" d="M606.8 173.2H341c-9.3 0-16.7 7.4-16.7 16.7s7.4 16.7 16.7 16.7h265.7c9.3 0 16.7-7.4 16.7-16.7-.2-9.2-7.5-16.7-16.6-16.7zm0 66.2H341c-9.3 0-16.7 7.4-16.7 16.7 0 9.3 7.4 16.7 16.7 16.7h265.7c9.3 0 16.7-7.4 16.7-16.7-.2-9.1-7.5-16.7-16.6-16.7zM457.2 306H341c-9.3 0-16.7 7.4-16.7 16.7s7.4 16.7 16.7 16.7h116.2c9.3 0 16.7-7.4 16.7-16.7s-7.4-16.7-16.7-16.7z"/><circle class="st0" cx="424.1" cy="73.4" r="16.7"/><circle class="st0" cx="374.2" cy="73.4" r="16.7"/><circle class="st0" cx="324.2" cy="73.4" r="16.7"/><path class="st0" d="M817.7 168.2c-3.2 3.2-7.4 4.6-11.7 4.6h-66.2v-33.1h59.5l8-8.2c-.6-2.6-1.3-5.6-1.3-8.4 0-18.1 15-33 33-33 18.2 0 33.1 15.1 33.1 33.1S857 156.3 839 156.3c-3.2 0-5.8-.4-8.4-1.3l-12.9 13.2zM839 322.5c-18.2 0-33.1-15.1-33.1-33.1 0-3.2.4-5.8 1.3-8.4l-8-8.2h-59.5v-33.1H806c4.5 0 8.6 1.9 11.7 4.6l13 13c2.6-.6 5.6-1.3 8.4-1.3 18.2 0 33.1 15.1 33.1 33.1.3 18.6-14.7 33.4-33.2 33.4zm99.7-116.2c0-18.2-15.1-33.1-33.1-33.1-12.3 0-22.9 6.9-28.6 16.7H739.6V223H877c5.8 9.9 16.2 16.7 28.6 16.7 18.2-.3 33.1-15 33.1-33.4zm-808.6-38.1c3.2 3.2 7.4 4.6 11.7 4.6H208v-33.1h-59.5l-8-8.2c.6-2.6 1.3-5.6 1.3-8.4 0-18.2-15.1-33.1-33.1-33.1s-33.1 15.1-33.1 33.1 15.1 33.1 33.1 33.1c3.2 0 5.8-.4 8.4-1.3l13 13.3zm-21.4 154.3c18.2 0 33.1-15.1 33.1-33.1 0-3.2-.4-5.8-1.3-8.4l8-8.2H208v-33.1h-66.2c-4.5 0-8.6 1.9-11.7 4.6l-13 13c-2.6-.6-5.6-1.3-8.4-1.3-18.2 0-33.1 15.1-33.1 33.1-.3 18.6 14.7 33.4 33.1 33.4zm-66.5-83.1c12.3 0 22.9-6.9 28.6-16.7h137.4v-33.1H70.8c-5.8-9.9-16.2-16.7-28.6-16.7-18.3.1-33.1 15.2-33.1 33.2 0 18.6 14.8 33.3 33.1 33.3z"/></svg>