<svg xmlns="http://www.w3.org/2000/svg" width="25" height="25" viewBox="0 0 25 25">
  <metadata><?xpacket begin="﻿" id="W5M0MpCehiHzreSzNTczkc9d"?>
<x:xmpmeta xmlns:x="adobe:ns:meta/" x:xmptk="Adobe XMP Core 7.1-c000 79.4d2f597, 2021/09/01-20:51:22        ">
   <rdf:RDF xmlns:rdf="http://www.w3.org/1999/02/22-rdf-syntax-ns#">
      <rdf:Description rdf:about=""
            xmlns:dc="http://purl.org/dc/elements/1.1/"
            xmlns:xmp="http://ns.adobe.com/xap/1.0/"
            xmlns:xmpMM="http://ns.adobe.com/xap/1.0/mm/"
            xmlns:stEvt="http://ns.adobe.com/xap/1.0/sType/ResourceEvent#">
         <dc:rights>
            <rdf:Alt>
               <rdf:li xml:lang="x-default">For use by Streaming-Now</rdf:li>
            </rdf:Alt>
         </dc:rights>
         <dc:creator>
            <rdf:Seq>
               <rdf:li>Streaming-Now</rdf:li>
            </rdf:Seq>
         </dc:creator>
         <xmp:MetadataDate>2022-09-06T14:35:06+02:00</xmp:MetadataDate>
         <xmpMM:InstanceID>xmp.iid:72a08f39-6d30-024f-b561-ba1070848a28</xmpMM:InstanceID>
         <xmpMM:DocumentID>xmp.did:7e4224d6-1105-a348-9ce4-1354d296896a</xmpMM:DocumentID>
         <xmpMM:OriginalDocumentID>xmp.did:7e4224d6-1105-a348-9ce4-1354d296896a</xmpMM:OriginalDocumentID>
         <xmpMM:History>
            <rdf:Seq>
               <rdf:li>
                  <rdf:Description>
                     <stEvt:action>saved</stEvt:action>
                     <stEvt:instanceID>xmp.iid:7e4224d6-1105-a348-9ce4-1354d296896a</stEvt:instanceID>
                     <stEvt:when>2022-09-06T14:33:45+02:00</stEvt:when>
                     <stEvt:softwareAgent>Adobe Bridge 2022 (Windows)</stEvt:softwareAgent>
                     <stEvt:changed>/metadata</stEvt:changed>
                  </rdf:Description>
               </rdf:li>
               <rdf:li>
                  <rdf:Description>
                     <stEvt:action>saved</stEvt:action>
                     <stEvt:instanceID>xmp.iid:72a08f39-6d30-024f-b561-ba1070848a28</stEvt:instanceID>
                     <stEvt:when>2022-09-06T14:35:06+02:00</stEvt:when>
                     <stEvt:softwareAgent>Adobe Bridge 2022 (Windows)</stEvt:softwareAgent>
                     <stEvt:changed>/metadata</stEvt:changed>
                  </rdf:Description>
               </rdf:li>
            </rdf:Seq>
         </xmpMM:History>
      </rdf:Description>
   </rdf:RDF>
</x:xmpmeta>
                                                                                                    
                                                                                                    
                                                                                                    
                                                                                                    
                                                                                                    
                                                                                                    
                                                                                                    
                                                                                                    
                                                                                                    
                                                                                                    
                                                                                                    
                                                                                                    
                                                                                                    
                                                                                           
<?xpacket end="w"?></metadata>
<g id="input-password" transform="translate(-514 -747)">
    <rect id="Rectangle_47" data-name="Rectangle 47" width="25" height="25" transform="translate(514 747)" fill="rgba(255,255,255,0)"/>
    <g id="lock" transform="translate(518 748)">
      <g id="Group_61" data-name="Group 61" transform="translate(0 1)">
        <g id="Group_60" data-name="Group 60">
          <path id="Path_45" data-name="Path 45" d="M214.158,280.968l-.318,2.858a.5.5,0,0,0,.5.559h2.015a.5.5,0,0,0,.5-.559l-.318-2.858a1.993,1.993,0,0,0,.824-1.62,2.015,2.015,0,0,0-4.03,0A1.993,1.993,0,0,0,214.158,280.968Zm1.19-2.628a1,1,0,0,1,.435,1.911.5.5,0,0,0-.281.509l.291,2.618H214.9l.291-2.618a.5.5,0,0,0-.281-.509,1,1,0,0,1,.435-1.911Z" transform="translate(-206.848 -266.667)" fill="#435c71"/>
          <path id="Path_46" data-name="Path 46" d="M80.528,7.875H79.111V6.125a6.63,6.63,0,0,0-13.222,0v1.75H64.472A.456.456,0,0,0,64,8.313V19.25A1.825,1.825,0,0,0,65.889,21H79.111A1.825,1.825,0,0,0,81,19.25V8.313A.456.456,0,0,0,80.528,7.875ZM66.833,6.125a5.683,5.683,0,0,1,11.333,0v1.75h-.944V6.125a4.736,4.736,0,0,0-9.444,0v1.75h-.944Zm9.444,0v1.75H68.722V6.125a3.789,3.789,0,0,1,7.556,0ZM80.056,19.25a.913.913,0,0,1-.944.875H65.889a.913.913,0,0,1-.944-.875V8.75H80.056Z" transform="translate(-64)" fill="#435c71"/>
        </g>
      </g>
    </g>
  </g>
</svg>
