<svg xmlns="http://www.w3.org/2000/svg" width="25" height="25" viewBox="0 0 25 25">
  <metadata><?xpacket begin="﻿" id="W5M0MpCehiHzreSzNTczkc9d"?>
<x:xmpmeta xmlns:x="adobe:ns:meta/" x:xmptk="Adobe XMP Core 7.1-c000 79.4d2f597, 2021/09/01-20:51:22        ">
   <rdf:RDF xmlns:rdf="http://www.w3.org/1999/02/22-rdf-syntax-ns#">
      <rdf:Description rdf:about=""
            xmlns:dc="http://purl.org/dc/elements/1.1/"
            xmlns:xmp="http://ns.adobe.com/xap/1.0/"
            xmlns:xmpMM="http://ns.adobe.com/xap/1.0/mm/"
            xmlns:stEvt="http://ns.adobe.com/xap/1.0/sType/ResourceEvent#"
            xmlns:plus="http://ns.useplus.org/ldf/xmp/1.0/">
         <dc:rights>
            <rdf:Alt>
               <rdf:li xml:lang="x-default">For use by Streaming-Now</rdf:li>
            </rdf:Alt>
         </dc:rights>
         <dc:creator>
            <rdf:Seq>
               <rdf:li>Streaming-Now</rdf:li>
            </rdf:Seq>
         </dc:creator>
         <xmp:MetadataDate>2022-12-14T01:31:27+01:00</xmp:MetadataDate>
         <xmpMM:InstanceID>xmp.iid:8e3301f7-3929-1842-9e96-798bdd89181e</xmpMM:InstanceID>
         <xmpMM:DocumentID>xmp.did:b75bc1bb-6364-f947-ae94-490462b41381</xmpMM:DocumentID>
         <xmpMM:OriginalDocumentID>xmp.did:b75bc1bb-6364-f947-ae94-490462b41381</xmpMM:OriginalDocumentID>
         <xmpMM:History>
            <rdf:Seq>
               <rdf:li>
                  <rdf:Description>
                     <stEvt:action>saved</stEvt:action>
                     <stEvt:instanceID>xmp.iid:b75bc1bb-6364-f947-ae94-490462b41381</stEvt:instanceID>
                     <stEvt:when>2022-09-06T14:33:45+02:00</stEvt:when>
                     <stEvt:softwareAgent>Adobe Bridge 2022 (Windows)</stEvt:softwareAgent>
                     <stEvt:changed>/metadata</stEvt:changed>
                  </rdf:Description>
               </rdf:li>
               <rdf:li>
                  <rdf:Description>
                     <stEvt:action>saved</stEvt:action>
                     <stEvt:instanceID>xmp.iid:8e3301f7-3929-1842-9e96-798bdd89181e</stEvt:instanceID>
                     <stEvt:when>2022-12-14T01:31:27+01:00</stEvt:when>
                     <stEvt:softwareAgent>Adobe Bridge 2023</stEvt:softwareAgent>
                     <stEvt:changed>/metadata</stEvt:changed>
                  </rdf:Description>
               </rdf:li>
            </rdf:Seq>
         </xmpMM:History>
         <plus:Licensor>
            <rdf:Seq>
               <rdf:li>
                  <rdf:Description>
                     <plus:LicensorName>HOTBOTVPN.COM</plus:LicensorName>
                  </rdf:Description>
               </rdf:li>
               <rdf:li>
                  <rdf:Description/>
               </rdf:li>
            </rdf:Seq>
         </plus:Licensor>
      </rdf:Description>
   </rdf:RDF>
</x:xmpmeta>
                                                                                                    
                                                                                                    
                                                                                                    
                                                                                                    
                                                                                                    
                                                                                                    
                                                                                                    
                                                                                                    
                                                                                                    
                                                                   
<?xpacket end="w"?></metadata>
<g id="input-email" transform="translate(-513 -691)">
    <rect id="Rectangle_46" data-name="Rectangle 46" width="25" height="25" transform="translate(513 691)" fill="rgba(255,255,255,0)"/>
    <g id="envelope" transform="translate(516 696)">
      <g id="Group_66" data-name="Group 66" transform="translate(0 0)">
        <path id="Path_49" data-name="Path 49" d="M16.681,57.75H2.323A2.37,2.37,0,0,0,0,60.16V70.34a2.37,2.37,0,0,0,2.323,2.41H16.677A2.37,2.37,0,0,0,19,70.34V60.164A2.368,2.368,0,0,0,16.681,57.75Zm1.262,12.59a1.288,1.288,0,0,1-1.262,1.309H2.323A1.288,1.288,0,0,1,1.061,70.34V60.164a1.288,1.288,0,0,1,1.262-1.309H16.677a1.288,1.288,0,0,1,1.262,1.309V70.34Z" transform="translate(0 -57.75)" fill="#435c71"/>
        <path id="Path_50" data-name="Path 50" d="M65.088,113.959l4.431-4.134a.544.544,0,0,0,.037-.745.5.5,0,0,0-.716-.039l-6.11,5.706-1.192-1.108s-.007-.008-.007-.012a.758.758,0,0,0-.082-.074L56.6,109.037a.492.492,0,0,0-.716.043.541.541,0,0,0,.041.745l4.483,4.169-4.464,4.349a.544.544,0,0,0-.022.745.508.508,0,0,0,.371.168.5.5,0,0,0,.345-.14l4.532-4.411,1.23,1.143a.49.49,0,0,0,.675,0l1.263-1.178,4.506,4.454a.494.494,0,0,0,.716-.02.544.544,0,0,0-.019-.745Z" transform="translate(-53.22 -106.579)" fill="#435c71"/>
      </g>
    </g>
  </g>
</svg>
