<svg version="1.1" id="Layer_1" xmlns="http://www.w3.org/2000/svg" xmlns:xlink="http://www.w3.org/1999/xlink" x="0" y="0" viewBox="0 0 278.7 219.6" xml:space="preserve"><style>.st0{fill:#e2e2e4}.st4{clip-path:url(#XMLID_8_)}.st28{fill:#fff}.st29{fill:#1a9efe}.st30{opacity:.2}</style><g id="XMLID_5088_"><g id="XMLID_5089_"><g id="XMLID_6422_"><g id="XMLID_6431_"><path id="XMLID_6435_" class="st0" d="M6.4 210.5v5.5c4.6 2.4 9.7 3.6 14.9 3.6h241.1c5.2 0 10.4-1.2 14.9-3.6v-5.5H6.4z"/></g></g><linearGradient id="XMLID_6_" gradientUnits="userSpaceOnUse" x1="141.814" y1="73.944" x2="141.814" y2="207.064"><stop offset="0" stop-color="#f1f2f2"/><stop offset="1" stop-color="#d1d3d4"/></linearGradient><path id="XMLID_6413_" d="M257.4 74.4c-1-.8-2.3-1.3-3.8-1.3H30c-1.4 0-2.7.5-3.8 1.3-1.4 1.1-2.3 2.8-2.3 4.7v128.2c0 .5.1.9.1 1.3.6 2.7 3 4.7 5.9 4.7h223.6c2.9 0 5.3-2 5.9-4.7.1-.4.1-.9.1-1.3V79.2c.1-2-.8-3.7-2.1-4.8z" fill="url(#XMLID_6_)"/><g id="XMLID_6016_"><g id="XMLID_6020_"><defs><path id="XMLID_6410_" d="M6.4 210.5h270.9v5.5H6.4z"/></defs><clipPath id="XMLID_7_"><use xlink:href="#XMLID_6410_" overflow="visible"/></clipPath><g id="XMLID_6411_" clip-path="url(#XMLID_7_)"><path id="XMLID_6412_" fill="#f1f2f2" d="M6.4 210.5h270.9v5.5H6.4z"/></g></g></g><g id="XMLID_5828_"><g id="XMLID_5829_"><path id="XMLID_5830_" class="st0" d="M262.3 219.6h-241c-5.2 0-10.4-1.2-14.9-3.6h270.9c-4.6 2.4-9.7 3.6-15 3.6z"/></g></g><g id="XMLID_5641_"><g id="XMLID_5647_"><path id="XMLID_5827_" class="st0" d="M162.6 213.8H121c-1.8 0-3.3-1.5-3.3-3.3h48.2c0 1.8-1.5 3.3-3.3 3.3z"/></g></g><g id="XMLID_5094_"><g id="XMLID_5098_"><g id="XMLID_5099_"><defs><circle id="XMLID_5101_" cx="141.8" cy="76.8" r="1.8"/></defs><clipPath id="XMLID_8_"><use xlink:href="#XMLID_5101_" overflow="visible"/></clipPath><g id="XMLID_5446_" class="st4"><path id="XMLID_5638_" fill="#bdbec1" d="M140 75.1h3.6v.2H140z"/></g><g id="XMLID_5439_" class="st4"><path id="XMLID_5443_" fill="#bebfc2" d="M140 75.2h3.6v.2H140z"/></g><g id="XMLID_5413_" class="st4"><path id="XMLID_5414_" fill="#bfc0c3" d="M140 75.4h3.6v.2H140z"/></g><g id="XMLID_5411_" class="st4"><path id="XMLID_5412_" fill="#c0c1c4" d="M140 75.6h3.6v.2H140z"/></g><g id="XMLID_5235_" class="st4"><path id="XMLID_5237_" fill="#c1c2c5" d="M140 75.7h3.6v.2H140z"/></g><g id="XMLID_5226_" class="st4"><path id="XMLID_5228_" fill="#c2c3c6" d="M140 75.9h3.6v.2H140z"/></g><g id="XMLID_5169_" class="st4"><path id="XMLID_5193_" fill="#c3c4c7" d="M140 76.1h3.6v.2H140z"/></g><g id="XMLID_5167_" class="st4"><path id="XMLID_5168_" fill="#c4c5c8" d="M140 76.2h3.6v.2H140z"/></g><g id="XMLID_5165_" class="st4"><path id="XMLID_5166_" fill="#c5c6c9" d="M140 76.4h3.6v.2H140z"/></g><g id="XMLID_5163_" class="st4"><path id="XMLID_5164_" fill="#c6c7ca" d="M140 76.5h3.6v.2H140z"/></g><g id="XMLID_5161_" class="st4"><path id="XMLID_5162_" fill="#c7c8cb" d="M140 76.7h3.6v.2H140z"/></g><g id="XMLID_5159_" class="st4"><path id="XMLID_5160_" fill="#c8c9cc" d="M140 76.9h3.6v.2H140z"/></g><g id="XMLID_5157_" class="st4"><path id="XMLID_5158_" fill="#c9cacd" d="M140 77h3.6v.2H140z"/></g><g id="XMLID_5155_" class="st4"><path id="XMLID_5156_" fill="#cacbce" d="M140 77.2h3.6v.2H140z"/></g><g id="XMLID_5153_" class="st4"><path id="XMLID_5154_" fill="#cccccf" d="M140 77.4h3.6v.2H140z"/></g><g id="XMLID_5115_" class="st4"><path id="XMLID_5152_" fill="#cdcdcf" d="M140 77.5h3.6v.2H140z"/></g><g id="XMLID_5113_" class="st4"><path id="XMLID_5114_" fill="#ceced0" d="M140 77.7h3.6v.2H140z"/></g><g id="XMLID_5110_" class="st4"><path id="XMLID_5112_" fill="#cfcfd1" d="M140 77.9h3.6v.2H140z"/></g><g id="XMLID_5108_" class="st4"><path id="XMLID_5109_" fill="#d0d0d2" d="M140 78h3.6v.2H140z"/></g><g id="XMLID_5106_" class="st4"><path id="XMLID_5107_" fill="#d1d1d3" d="M140 78.2h3.6v.2H140z"/></g><g id="XMLID_5104_" class="st4"><path id="XMLID_5105_" fill="#d2d2d4" d="M140 78.4h3.6v.2H140z"/></g><g id="XMLID_5102_" class="st4"><path id="XMLID_5103_" fill="#d3d3d5" d="M140 78.5h3.6v.1H140z"/></g></g></g><g id="XMLID_5095_"><g id="XMLID_5096_"><circle id="XMLID_5097_" class="st28" cx="141.8" cy="76.8" r=".6"/></g></g></g></g></g><g id="XMLID_5090_"><g id="XMLID_5091_"><g id="XMLID_5092_"><path id="XMLID_5093_" class="st29" d="M251.4 204.9H32.2c-1.2 0-2.2-1-2.2-2.2V82.6c0-1.2 1-2.2 2.2-2.2h219.2c1.2 0 2.2 1 2.2 2.2v120.2c0 1.2-1 2.1-2.2 2.1z"/></g></g></g><g class="st30"><defs><path id="XMLID_4_" class="st30" d="M251.4 204.9H32.2c-1.2 0-2.2-1-2.2-2.2V82.6c0-1.2 1-2.2 2.2-2.2h219.2c1.2 0 2.2 1 2.2 2.2v120.2c0 1.2-1 2.1-2.2 2.1z"/></defs><clipPath id="XMLID_9_"><use xlink:href="#XMLID_4_" overflow="visible"/></clipPath><g clip-path="url(#XMLID_9_)"><linearGradient id="SVGID_1_" gradientUnits="userSpaceOnUse" x1="113.698" y1="94.474" x2="113.698" y2="229.221"><stop offset="0" stop-color="#fff"/><stop offset="1" stop-color="#1a9efe"/></linearGradient><path fill="url(#SVGID_1_)" d="M77.9 272.1l-64.3-34.9L149.5-13.9 213.8 21z"/><linearGradient id="SVGID_2_" gradientUnits="userSpaceOnUse" x1="185" y1="94.474" x2="185" y2="229.221"><stop offset="0" stop-color="#fff"/><stop offset="1" stop-color="#1a9efe"/></linearGradient><path fill="url(#SVGID_2_)" d="M135.4 303.2l-36.7-19.9L234.6 32.2l36.7 19.9z"/></g></g><path d="M141.8 187.3C49.1 152.8 59.9 24.7 59.9 24.7c47.8.3 78.5-16.3 81.9-18.4.1-.1 0-.1 0-.1 1.2.7 32.7 19.5 82 19.8 0 0 9.9 127.5-82 161.3z" opacity=".2" fill="#474747"/><path class="st28" d="M141.7 168.6c.1 0 .1 0 0 0 .1 0 .1 0 0 0 .1 0 0 0 0 0zm.1 0c.1-.1.1 0 0 0z"/><path class="st28" d="M141.8 181.3C49.1 146.8 59.9 18.7 59.9 18.7c47.8.3 78.5-16.3 81.9-18.4.1-.1 0-.1 0-.1 1.2.7 32.7 19.5 82 19.8 0 0 9.9 127.5-82 161.3z"/><linearGradient id="SVGID_3_" gradientUnits="userSpaceOnUse" x1="100.641" y1="-89.987" x2="100.641" y2="206.366"><stop offset="0" stop-color="#fff" stop-opacity="0"/><stop offset="1" stop-color="#bfc5ca"/></linearGradient><path d="M141.8.2v181.2h-.1.1C49.1 146.8 59.9 18.7 59.9 18.7c47.8.3 78.5-16.4 81.9-18.5 0 0-.1 0 0 0z" fill="url(#SVGID_3_)"/><g id="XMLID_6449_" opacity=".6"><linearGradient id="XMLID_10_" gradientUnits="userSpaceOnUse" x1="141.787" y1="206.295" x2="141.787" y2="120.257"><stop offset="0" stop-color="#fff" stop-opacity="0"/><stop offset="1" stop-color="#bfc5ca"/></linearGradient><path id="XMLID_6544_" d="M175 93.8c0 7.5-2.5 14.5-6.8 20.1-6.1 8-15.7 13.2-26.5 13.2s-20.4-5.2-26.5-13.2c-4.2-5.6-6.8-12.5-6.8-20.1 0-18.4 14.9-33.2 33.2-33.2 18.5-.1 33.4 14.8 33.4 33.2z" fill="url(#XMLID_10_)"/></g><g id="XMLID_6436_"><path id="XMLID_6634_" class="st29" d="M175 88.2c0 7.5-2.5 14.5-6.8 20.1-6.1 8-15.7 13.2-26.5 13.2s-20.4-5.2-26.5-13.2c-4.2-5.6-6.8-12.5-6.8-20.1 0-18.4 14.9-33.2 33.2-33.2 18.5 0 33.4 14.9 33.4 33.2z"/></g><g id="XMLID_6644_" opacity=".1"><path id="XMLID_13_" d="M168.1 88.2c0 6-2 11.5-5.3 15.9-4.8 6.3-12.4 10.4-20.9 10.4-8.5 0-16.1-4.1-20.9-10.4-3.4-4.4-5.3-9.9-5.3-15.9 0-14.5 11.8-26.3 26.3-26.3 14.3 0 26.1 11.8 26.1 26.3z" fill="#18162e"/></g><g id="XMLID_6546_"><g id="XMLID_6607_"><path id="XMLID_6611_" transform="rotate(-45.001 134.862 91.934)" class="st28" d="M131.3 82.6h7.1v18.7h-7.1z"/></g><g id="XMLID_6555_"><path id="XMLID_6606_" transform="rotate(-45.001 145.887 89.109)" class="st28" d="M132.5 85.5h26.7v7.1h-26.7z"/></g></g><path d="M248.1 47.1l-6.5-1.9 6.6-1.6c1.4-.4 2.5-1.4 2.9-2.8l1.9-6.5 1.6 6.6c.4 1.4 1.4 2.5 2.8 2.9l6.5 1.9-6.6 1.6c-1.4.4-2.5 1.4-2.9 2.8l-1.9 6.5-1.6-6.6c-.4-1.3-1.4-2.4-2.8-2.9zm19.6-14.3l-3.5-1 3.5-.9c.8-.2 1.4-.8 1.6-1.5l1-3.5.9 3.5c.2.8.8 1.4 1.5 1.6l3.5 1-3.5.9c-.8.2-1.4.8-1.6 1.5l-1 3.5-.9-3.5c-.2-.7-.8-1.3-1.5-1.6zm2.2 143.8l-3.5-1 3.5-.9c.7-.2 1.3-.8 1.6-1.5l1-3.5.9 3.5c.2.7.8 1.3 1.5 1.6l3.5 1-3.5.9c-.7.2-1.3.8-1.6 1.5l-1 3.5-.9-3.5c-.2-.8-.8-1.4-1.5-1.6zM12.2 35.9l-5.9-1.7 6-1.5c1.3-.3 2.3-1.3 2.7-2.6l1.7-5.9 1.5 6c.3 1.3 1.3 2.3 2.6 2.7l5.9 1.7-6 1.5c-1.3.3-2.3 1.3-2.7 2.6l-1.7 5.9-1.5-6c-.3-1.4-1.3-2.4-2.6-2.7zm23.4 19.6l-3.5-1 3.5-.9c.7-.2 1.3-.8 1.6-1.5l1-3.5.9 3.5c.2.7.8 1.3 1.5 1.6l3.5 1-3.5.9c-.7.2-1.3.8-1.6 1.5l-1 3.5-.9-3.6c-.2-.7-.8-1.3-1.5-1.5zM4.1 125.6l-3.5-1 3.5-.9c.7-.2 1.3-.8 1.6-1.5l1-3.5.9 3.5c.2.7.8 1.3 1.5 1.6l3.5 1-3.5.9c-.7.2-1.3.8-1.6 1.5l-1 3.5-.9-3.5c-.2-.8-.7-1.4-1.5-1.6z" fill="#88bdff"/></svg>