<svg xmlns="http://www.w3.org/2000/svg" width="53.375" height="37.125" viewBox="24.375 23.25 53.375 37.125"><path fill="#fff" d="M34.347 50.364h-3.653c-1.859 0-3.343-1.803-3.343-3.988v-4.778c0-2.219 1.51-3.992 3.343-3.992h3.653v12.758z"/><path fill="#fff" d="M27.609 47.885s-.116-.307-.336-.878c-.089-.277-.232-.584-.349-1.018-.064-.202-.142-.416-.206-.647-.065-.249-.167-.479-.232-.723a14.187 14.187 0 00-.232-.786c-.026-.139-.091-.277-.116-.416a9.759 9.759 0 00-.09-.417c-.065-.31-.142-.617-.208-.895-.025-.169-.064-.308-.09-.479-.026-.169-.09-.338-.142-.476-.025-.17-.064-.339-.089-.479-.027-.076-.027-.169-.027-.248-.025-.076-.025-.169-.025-.245-.052-.339-.091-.709-.142-1.033-.027-.4-.052-.755-.091-1.093l-.025-.277c0-.108 0-.17-.027-.277l-.025-.555-.039-.555c0-.17 0-.339.025-.541 0-.169.027-.338.027-.539v-.247c0-.107.025-.169.025-.277.025-.338.052-.708.091-1.031.025-.339.089-.709.142-1.018.025-.339.091-.646.168-.956-.013-.169.039-.338.064-.477.025-.078.025-.17.052-.247.025-.077.025-.169.051-.201.065-.308.143-.585.207-.878.025-.076.025-.139.052-.2.025-.062.025-.138.064-.2.025-.139.09-.248.116-.401.09-.247.142-.478.207-.725.09-.199.142-.417.206-.616.065-.201.143-.402.207-.555.064-.17.142-.309.168-.478.206-.555.349-.894.349-.894l.941.54s-.089.308-.283.878c-.052.139-.091.308-.143.446-.051.169-.089.339-.167.555-.052.201-.116.4-.168.617-.052.2-.116.446-.168.708-.025.108-.064.248-.089.37-.027.031-.027.108-.052.17 0 .061-.025.138-.025.199-.052.248-.091.541-.143.787.014.078.014.124.014.185-.025.078-.025.139-.025.201-.027.169-.052.339-.091.479-.025.307-.09.584-.116.893-.025.31-.052.617-.09.925-.026.309-.026.617-.026.956v.493c0 .169.026.339.026.478 0 .169 0 .338.026.477l.025.508.025.479c0 .076.027.169.027.247l.025.246c.052.309.091.646.142.956.065.308.116.616.168.925.025.076.025.169.052.246.025.078.025.171.051.247.027.169.065.307.116.446.027.17.065.31.091.417.025.138.064.309.116.416.091.277.168.555.258.817.027.139.091.277.116.4.052.139.091.247.143.37.089.248.167.48.257.723.09.249.168.416.258.647.091.203.143.405.232.555.143.341.284.711.4.959.232.538.349.844.349.844l-2.002 1.173z"/><ellipse fill="#fff" cx="27.751" cy="26.219" rx="1.691" ry="2.019"/><path fill="#fff" d="M67.696 50.364h3.653c1.858 0 3.343-1.803 3.343-3.988v-4.778c0-2.219-1.511-3.992-3.343-3.992h-3.653v12.758z"/><path fill="#fff" d="M74.434 47.885s.115-.307.336-.878c.09-.277.232-.584.349-1.018.064-.202.142-.416.206-.647.065-.249.168-.479.232-.723.064-.249.143-.508.231-.786.027-.139.091-.277.116-.416a9.65 9.65 0 01.091-.417c.064-.31.142-.617.207-.895.025-.169.064-.308.09-.479.026-.169.064-.338.091-.476.025-.17.063-.339.09-.479.026-.076.026-.169.026-.248.025-.076.025-.169.025-.245.052-.339.091-.709.143-1.033.025-.339.064-.709.09-1.062l.026-.277c0-.108 0-.169.025-.277l.025-.555.026-.539c0-.17 0-.339-.026-.541 0-.169-.025-.338-.025-.539v-.275c0-.108-.025-.169-.025-.277-.026-.339-.052-.709-.091-1.033-.025-.338-.091-.708-.142-1.017a5.664 5.664 0 00-.168-.955c-.026-.169-.064-.307-.091-.478-.025-.076-.025-.169-.051-.246-.026-.078-.026-.17-.052-.201-.064-.308-.142-.585-.207-.878-.025-.076-.025-.138-.051-.201-.027-.06-.027-.138-.065-.199-.025-.139-.09-.248-.116-.401-.09-.246-.142-.477-.206-.724-.091-.201-.143-.416-.206-.617a7.589 7.589 0 00-.207-.555c-.064-.169-.143-.308-.168-.477a28.61 28.61 0 00-.348-.894l-.943.539s.091.309.285.878c.051.138.089.309.141.447.053.169.092.338.169.555.05.2.116.4.167.616.052.201.115.448.168.709.025.108.064.248.091.37.025.062.025.108.051.201a.526.526 0 01.026.199c.051.248.09.541.142.787a.595.595 0 01.025.2c.026.077.026.139.026.201.025.139.025.308.064.417.025.307.091.584.116.893.025.31.052.617.091.925.025.309.025.617.025.956v.493c0 .169-.025.339-.025.478 0 .169 0 .338-.027.477l-.024.478-.025.479c0 .076-.026.169-.026.245l-.025.248c-.053.308-.092.647-.143.955-.064.309-.115.617-.168.925-.025.078-.025.171-.052.247-.025.076-.025.169-.051.247a2.215 2.215 0 01-.116.446c-.027.17-.065.308-.091.417a1.788 1.788 0 01-.116.417c-.091.277-.168.554-.258.816-.027.139-.091.277-.116.401-.052.139-.091.246-.142.37-.091.245-.168.475-.259.724s-.168.416-.258.647c-.091.202-.143.398-.232.555-.143.34-.284.71-.399.953-.232.543-.35.85-.35.85l2.079 1.197z"/><ellipse fill="#fff" cx="74.291" cy="26.219" rx="1.691" ry="2.019"/><path fill="#fff" d="M46.285 43.337c-.232 1.711-1.265-.029-2.852-.336-1.574-.31-3.034 1.018-2.801-.726.232-1.741 1.665-2.896 3.227-2.619 1.523.308 2.632 1.942 2.426 3.681zm15.1-1.062c.232 1.744-1.251.416-2.8.726-1.549.307-2.608 2.047-2.853.336-.232-1.739.864-3.373 2.426-3.65 1.562-.308 2.994.864 3.227 2.588z"/><path fill="#fff" d="M70.613 37.606c-1.342-4.406-4.736-7.75-8.969-8.289l-3.537-.417a57.545 57.545 0 00-14.197 0l-3.537.417c-4.233.539-7.653 3.883-8.996 8.289a14.345 14.345 0 00-.593 5.117l.284 4.301a14.27 14.27 0 00.607 3.34c1.29 4.194 4.453 7.338 8.337 8.06 3.627.712 7.279 1.035 10.945 1.035 3.665 0 7.318-.341 10.944-1.035 2.452-.479 4.595-1.878 6.169-3.911a12.927 12.927 0 002.17-4.195 13.42 13.42 0 00.605-3.34l.284-4.3c.168-1.758-.037-3.5-.516-5.072zm-3.884 4.547l-.283 4.299c-.232 3.577-2.453 6.443-5.396 7.027-3.29.618-6.684.953-10.053.953-3.369 0-6.75-.335-10.08-.982-2.943-.588-5.176-3.484-5.396-7.026l-.283-4.3c-.259-4.161 2.285-7.782 5.769-8.26l3.433-.417a51.195 51.195 0 0113.036 0l3.434.417c3.561.476 6.103 4.113 5.819 8.289z"/><path fill="#fff" d="M46.285 43.337c-.232 1.711-1.265-.029-2.852-.336-1.574-.31-3.034 1.018-2.801-.726.232-1.741 1.665-2.896 3.227-2.619 1.523.308 2.632 1.942 2.426 3.681zm12.326-.336c-1.55.307-2.608 2.047-2.854.336-.232-1.739.864-3.373 2.427-3.65 1.549-.308 2.995.894 3.228 2.621.219 1.711-1.239.415-2.801.693z"/><path d="M46.285 43.337c-.232 1.711-1.265-.029-2.852-.336-1.574-.31-3.034 1.018-2.801-.726.232-1.741 1.665-2.896 3.227-2.619 1.523.308 2.632 1.942 2.426 3.681zm12.326-.336c-1.55.307-2.608 2.047-2.854.336-.232-1.739.864-3.373 2.427-3.65 1.549-.308 2.995.894 3.228 2.621.219 1.711-1.239.415-2.801.693zm-4.119 5.485c0 1.063-.348 2.016-.941 2.727s-1.393 1.127-2.283 1.127h-.543c-1.794 0-3.227-1.711-3.227-3.854 0-.202.064-.398.193-.509.116-.138.258-.231.426-.231h5.769c.348 0 .606.341.606.74z" fill="#fff"/></svg>