<svg xmlns="http://www.w3.org/2000/svg" width="38.165" height="21.875" viewBox="0 0 38.165 21.875"><path fill="#141420" d="M6.799 16.193H4.107a2.484 2.484 0 01-2.488-2.485V10.75a2.485 2.485 0 012.488-2.488h2.691l.001 7.931z"/><path fill="#141420" d="M1.805 14.67s-.093-.203-.233-.529c-.077-.172-.171-.373-.265-.623-.046-.123-.109-.264-.155-.401-.047-.142-.125-.298-.171-.451a5.315 5.315 0 00-.171-.481 3.994 3.994 0 01-.093-.265c-.031-.094-.047-.188-.078-.267-.046-.188-.109-.375-.155-.561-.03-.094-.047-.203-.078-.295-.015-.094-.046-.203-.062-.295-.016-.108-.047-.202-.062-.312-.017-.047-.017-.108-.031-.155-.015-.047-.016-.109-.031-.156a8.857 8.857 0 00-.109-.638c-.016-.219-.047-.435-.062-.653L.033 8.37v-.171l-.016-.327L0 7.545c0-.108 0-.218.016-.327 0-.109 0-.218.017-.326V6.72c0-.062.016-.109.016-.171.014-.218.045-.437.061-.653.031-.217.063-.42.094-.623.03-.201.077-.403.125-.606.016-.093.047-.187.063-.295.015-.047.015-.093.031-.14l.047-.141c.046-.188.109-.357.156-.529.015-.045.03-.078.03-.125l.048-.125c.03-.078.062-.154.077-.232.063-.156.109-.311.156-.452.063-.141.109-.264.155-.389.047-.125.094-.233.14-.342.047-.109.094-.203.141-.28.155-.343.249-.544.249-.544l.699.326-.218.529c-.031.078-.078.172-.108.28-.032.109-.079.219-.11.343-.046.125-.078.249-.125.374-.046.141-.078.28-.124.42-.016.078-.047.156-.063.233-.016.03-.016.078-.03.125-.016.047-.016.078-.032.125-.031.155-.078.327-.109.498-.016.047-.016.094-.031.125-.017.047-.017.094-.017.14-.016.094-.03.188-.047.266-.03.186-.061.372-.077.559s-.046.39-.062.576c0 .202-.017.389-.017.591v.31c0 .094 0 .203.017.295 0 .094 0 .203.016.312l.031.296.031.295c0 .047.016.094.016.156l.031.154c.031.203.062.406.093.592.046.201.093.389.125.576.016.047.016.093.031.14.016.046.016.093.03.14.031.094.048.188.078.28.031.093.047.187.078.28.031.093.046.187.078.263.063.172.125.342.171.514.031.078.062.172.093.25l.094.232c.062.156.125.297.187.451.063.141.125.279.171.404.063.123.109.248.171.356.094.218.219.42.296.593.172.325.265.512.265.512l-1.449.686z"/><path fill="#141420" d="M1.898 2.489c.686 0 1.245-.561 1.245-1.245S2.583-.001 1.898-.001.653.56.653 1.244s.56 1.245 1.245 1.245zm29.576 13.704h2.691a2.484 2.484 0 002.488-2.485V10.75a2.485 2.485 0 00-2.488-2.488h-2.691v7.931z"/><path fill="#141420" d="M36.468 14.67s.093-.203.233-.529c.077-.172.171-.373.265-.623.047-.123.109-.264.156-.401.046-.142.125-.298.171-.451a5.64 5.64 0 01.171-.481c.031-.078.062-.17.093-.265.031-.094.046-.188.078-.267.047-.188.109-.375.156-.561.03-.094.046-.203.078-.295.016-.094.047-.203.063-.295.016-.109.046-.203.063-.312.016-.047.016-.108.03-.155.016-.047.017-.109.031-.156.031-.218.063-.42.109-.638.015-.219.046-.436.062-.653l.017-.171v-.171l.016-.327.016-.327c0-.108 0-.218-.016-.327 0-.108 0-.218-.016-.326v-.172c0-.063-.017-.108-.017-.17-.016-.219-.047-.437-.062-.654-.031-.217-.063-.42-.095-.621a7.183 7.183 0 00-.125-.607c-.015-.093-.046-.188-.062-.295-.016-.047-.016-.094-.031-.141l-.046-.139c-.047-.188-.109-.358-.156-.529-.016-.047-.03-.078-.03-.125-.017-.047-.031-.078-.046-.125-.031-.078-.063-.156-.078-.233-.063-.155-.109-.312-.155-.451-.063-.14-.109-.265-.156-.389-.046-.125-.093-.233-.14-.343a2.077 2.077 0 00-.141-.28c-.155-.342-.249-.544-.249-.544l-.699.327.218.528c.031.078.078.172.109.28.03.109.077.218.108.343.047.125.078.248.125.373.047.139.078.279.125.42.017.078.047.154.063.232.016.031.016.078.03.125.017.046.017.078.031.124.031.155.078.327.109.498.016.047.016.093.03.125.017.047.017.093.017.14.015.094.031.188.046.264.031.188.063.375.078.561.016.188.047.389.063.576 0 .202.017.389.017.591v.311c0 .094 0 .203-.017.295 0 .094 0 .203-.016.312l-.03.294-.034.298c0 .045-.016.092-.016.154l-.031.156c-.03.201-.062.404-.093.591-.047.202-.093.39-.125.576-.016.046-.016.093-.031.14s-.016.094-.03.141c-.031.092-.047.187-.078.279-.032.094-.046.188-.078.281-.032.092-.047.186-.078.264a6.066 6.066 0 00-.171.514c-.031.078-.063.17-.093.25l-.094.231c-.063.156-.125.298-.187.451-.063.142-.125.278-.171.403-.063.123-.109.248-.171.357-.094.217-.219.42-.295.59-.171.328-.266.517-.266.517l1.448.637z"/><path fill="#141420" d="M36.374 2.489c.685 0 1.245-.561 1.245-1.245s-.561-1.245-1.245-1.245c-.686 0-1.245.561-1.245 1.245s.56 1.245 1.245 1.245z"/><radialGradient id="a" cx="258.343" cy="-192.334" r=".998" gradientTransform="translate(-6133.788 4576.017) scale(23.8156)" gradientUnits="userSpaceOnUse"><stop offset="0" stop-color="#f26522"/><stop offset="1" stop-color="#c82431"/></radialGradient><path fill="url(#a)" d="M26.993 3.144l-2.614-.266a51.614 51.614 0 00-10.501 0l-2.614.266c-4.247.45-7.39 4.138-7.063 8.324l.201 2.677c.28 3.578 3.019 6.502 6.627 7.078 5.368.87 10.845.87 16.212 0 3.608-.576 6.348-3.5 6.628-7.078l.201-2.677c.328-4.187-2.814-7.874-7.077-8.324z"/><radialGradient id="b" cx="306.708" cy="-262.736" r="1" gradientTransform="matrix(.7779 16.0245 -27.7399 1.3466 -7508.223 -4555.912)" gradientUnits="userSpaceOnUse"><stop offset="0" stop-color="#f26522"/><stop offset="1" stop-color="#c82431"/></radialGradient><path fill="url(#b)" d="M12.68 2.646h13.535a9.249 9.249 0 019.257 9.254 9.25 9.25 0 01-9.257 9.259H12.68A9.25 9.25 0 013.423 11.9a9.247 9.247 0 019.257-9.254z"/><path opacity=".5" fill="#13131F" d="M19.136 18.749c-2.738 0-5.508-.203-8.215-.606-2.411-.357-4.216-2.146-4.403-4.355l-.232-2.678C6.067 8.51 8.137 6.254 11 5.99l2.815-.265a54.86 54.86 0 015.321-.25c1.773 0 3.563.078 5.321.25l2.815.265c2.863.28 4.933 2.52 4.714 5.118l-.218 2.678c-.187 2.209-1.991 3.998-4.402 4.354a56.384 56.384 0 01-8.23.609z"/><path fill="#13131F" d="M19.136 18.749c-2.489 0-4.994-.203-7.452-.606a4.78 4.78 0 01-3.999-4.355l-.202-2.678a4.753 4.753 0 014.278-5.117l2.551-.266a45.865 45.865 0 014.823-.248c1.601 0 3.236.078 4.823.248l2.552.266a4.772 4.772 0 014.278 5.117l-.202 2.678a4.764 4.764 0 01-3.999 4.355c-2.457.4-4.962.606-7.451.606z"/><linearGradient id="c" gradientUnits="userSpaceOnUse" x1="4467.492" y1="7367.843" x2="4467.492" y2="7430.853" gradientTransform="translate(-676.005 -1139.829) scale(.1556)"><stop offset="0" stop-color="#25253c"/><stop offset="1" stop-color="#13131f" stop-opacity="0"/></linearGradient><path fill="url(#c)" d="M19.136 17.314c-2.209 0-4.45-.153-6.628-.479-1.944-.28-3.407-1.694-3.563-3.424l-.171-2.1c-.171-2.039 1.494-3.796 3.796-4.014l2.271-.218a43.529 43.529 0 014.294-.202c1.431 0 2.878.062 4.294.202l2.271.218c2.302.218 3.982 1.976 3.796 4.014l-.188 2.1c-.156 1.729-1.618 3.144-3.563 3.424-2.16.308-4.4.479-6.609.479z"/><path opacity=".06" fill="#FFF" d="M15.76 18.624s-2.598-.203-4.294-.528c-.327-.063-.949-.279-1.198-.421l7.67-12.182s2.863-.109 6.005.233L15.76 18.624zm8.681-.188s-1.385.17-3.313.267l6.721-12.37s1.229.39 2.178 1.819l-5.586 10.284z"/><path fill="#FFF" d="M15.62 12.975c-.171 1.072-.949-.031-2.102-.203-1.15-.188-2.225.623-2.068-.448.171-1.074 1.244-1.789 2.38-1.619 1.168.184 1.961 1.195 1.79 2.27zm7.032 0c.171 1.072.949-.031 2.101-.203 1.15-.188 2.225.623 2.068-.448-.171-1.074-1.244-1.789-2.38-1.619-1.167.184-1.96 1.195-1.789 2.27z"/><path fill="none" d="M-.516-.562h39v23h-39z"/></svg>