<svg version="1.1" id="Layer_1" xmlns="http://www.w3.org/2000/svg" x="0" y="0" viewBox="0 0 727.9 987.9" xml:space="preserve"><style>.st0{fill:#a81e22}.st1{fill:#f3f2f1}.st2{fill:#ee2725}.st3{fill:#224289}.st4{fill:#11153e}.st6{fill:#780b0d}.st7{fill:#b6b7b8}.st8{fill:#18162e}.st9{fill:#fffeff}.st11{fill:#898989}.st12{opacity:.2;enable-background:new}.st12,.st14{fill:#fff}.st15{fill:#dddce0}.st16,.st17{opacity:.15;fill:#18162e;enable-background:new}.st17{fill:#fff}</style><g id="Layer_1-2"><path class="st0" d="M121.4 111.8S257.1-17.1 510.7 1.9c0 0 8.1 218.4 67.8 301.2 0 0-42 57-374.4 63.8.1-.1-21.6-184.6-82.7-255.1z"/><path class="st1" d="M225.4 337l26.2-10s-11.4-123.7-69.7-257.4c-13.4 7.6-24.6 14.8-33.6 21.1 13.4 19.6 49.6 84.9 77.1 246.3zm70.6-21.7l43.4-16.3S290.3 94.1 288.2 24.5c-19.7 5.9-39 12.9-57.8 21C240.9 90 284 273.8 296 315.3zm45-303.8c6.5 45.7 31.8 215.6 55.4 273.1l47-10S398.8 93.9 400.8 2.8c-20.1 1.8-40 4.7-59.8 8.7zM495.4 1c-13.7-.8-27-1.1-40-1-2 36.9 7.5 154.6 37.8 267.3l35.3-6.3c-.1 0-37.1-148.9-33.1-260z"/><path class="st2" d="M594.4 341.5s99.5-38.8 60.6-80.5c0 0-41.6-30.8-105.8 35.3s-238.9 56.1-238.9 56.1 190.1 20.6 284.1-10.9z"/><path class="st3" d="M200.2 338.9c2.8 17.2 4 28 4 28 332.4-6.8 374.4-63.8 374.4-63.8-10.5-14.5-19.3-33.2-26.8-54.1-189.3 19.2-323.6 77-351.6 89.9z"/><path class="st1" d="M400.4 286.8l14.7 15.7 21.2-3.1-10.4 18.7 9.6 19.3-21.1-4.1-15.4 15-2.6-21.3-19-10 19.5-9zm-85.8 21.1l14.1 16.2 21.3-2.4-11 18.4 8.9 19.5-20.9-4.8-15.9 14.5-1.8-21.4-18.7-10.5 19.7-8.4zm-83.4 24l14.1 16.2 21.3-2.4-11 18.4 8.9 19.5-21-4.8-15.8 14.5-1.9-21.4-18.7-10.5 19.8-8.4z"/><path class="st0" d="M594.5 341.5s-2.6 2.4-7.6 6.5C550.3 378.3 386 502.5 203.1 462.6c-1.6-.3-3.2-.7-4.8-1.1-8.4-2-16.8-4.3-25.3-6.9 0 0-4.1-1.3-10-4.4-13.3-7-35.4-23.3-37.9-55.3 0 0-11.8-63.3 115.8-51.5 7.7.7 15.3 1.4 22.7 2.1 27.3 2.6 53.1 5.2 77.9 7.3 88.3 7.7 164 9.8 253-11.3z"/><path class="st0" d="M594.5 341.5s-2.6 2.4-7.6 6.5C550.3 378.3 386 502.5 203.1 462.6c-1.6-.3-3.2-.7-4.8-1.1-8.4-2-16.8-4.3-25.3-6.9 0 0-4.1-1.3-10-4.4-13.3-7-35.4-23.3-37.9-55.3 0 0-11.8-63.3 115.8-51.5 7.7.7 15.3 1.4 22.7 2.1 27.3 2.6 53.1 5.2 77.9 7.3.6.1 1.1.1 1.7.1 26.9 2.3 52.7 4.1 78 4.9 2 .1 4 .1 6 .2h1.4c1.2 0 2.4.1 3.6.1 2.3 0 4.5.1 6.8.1 41 .4 81.4-2.2 124.4-10.1 8.9-1.6 18-3.5 27.2-5.6 1.2-.4 2.6-.7 3.9-1z"/><path class="st0" d="M586.9 348C550.3 378.3 386 502.5 203.1 462.6c-1.6-.3-3.2-.7-4.8-1.1 1.4-2.4 2.9-4.8 4.4-7.2 12.8-21.1 25.9-40.5 35.4-49.8 21.9-21.8 68.5-45.2 112.2-42 56.2 4.2 128.9-.3 187.7-6.5 19.3-2 35.4-4.7 48.9-8z"/><path class="st4" d="M445.9 408.1c84.8-24.1 103.6-49 108.9-55.9.8-1 1.6-2 2.3-3.1-8.7 1.4-15.5 2.3-24 3.3-4.1 3.2-19.8 15-93.4 19-33.6 1.8-65.1-.5-98.7-2.1-24.1-1.1-85.3-7-98.4 22.4-13.9 31.2 37 33.9 55.5 34.4 49.7 1.4 99.9-4.4 147.8-18z"/><path d="M533.1 352.4c-4.1 3.2-19.8 15-93.4 19-33.6 1.8-65.1-.5-98.7-2.1-6.8-.3-16.5-1-27.2-1.2 6.9 16.4 42 18.2 56.6 18.6 49.7 1.3 101.6.5 147.8-18 17.8-7.1 23.5-17.3 14.9-16.3z" fill="#00002a"/><path class="st1" d="M486.4 267.4L500 284l21.4-1.8-11.6 18.1 8.2 19.8-20.7-5.5-16.3 14-1.2-21.4-18.3-11.2 20-7.8zm71.9-1.8l-19.9 7.7 18.3 11.2 1.2 21.4 14.5-12.4c-5.4-8.9-10.1-18.2-14.1-27.9z"/><path class="st6" d="M134.9 402.1c0 .6.1 1.1.1 1.7.2 1.6.6 3.1 1.1 4.6.7 2.3 1.7 4.6 2.9 6.8 1.5 2.8 3.4 5.4 5.5 7.8 2.5 2.9 5.2 5.5 8.2 7.8.8.7 1.6 1.3 2.4 1.8.8.6 1.7 1.2 2.6 1.8 1.8 1.1 3.6 2.3 5.5 3.4 3.9 2.2 8 4.2 12.2 5.9 2.1.9 4.3 1.7 6.5 2.5l6.7 2.2 6.8 1.9 6.8 1.6c4.5.9 9 1.9 13.4 2.5 4.3.8 8.6 1.5 12.5 2.2 2 .4 3.9.6 5.8.9l5.5.8 9.6 1.3c1.4.2 2.8.4 4 .5l3.4.5c4.1.5 6.5 1 6.5 1v.5s-2.4.1-6.6.2c-2.1.1-4.6.2-7.5.1s-6.2-.1-9.8-.3-7.5-.5-11.5-1-8.4-1-12.8-1.8-8.9-1.9-13.5-3.1l-6.9-2-6.8-2.3-6.8-2.5c-2.2-.9-4.4-1.8-6.6-2.8-4.2-1.9-8.3-4.1-12.3-6.5-3.7-2.2-7.2-4.8-10.5-7.7-3-2.5-5.7-5.4-8.1-8.5-2-2.6-3.8-5.4-5.3-8.3-1.1-2.3-2-4.7-2.6-7.1-.6-2.1-.9-4.3-.9-6.5l.5.1zm145 59.5s2.8 0 7.6-.3c2.4-.2 5.3-.3 8.7-.6s7.1-.7 11.2-1l6.4-.8c2.2-.2 4.5-.5 6.8-.9s4.7-.7 7.2-1l7.5-1.2c5.1-.6 10.3-1.7 15.7-2.5s10.7-2.1 16.1-3.2c5.3-1.3 10.7-2.6 16-4l15.3-4.4 14.2-4.7c2.3-.7 4.4-1.5 6.5-2.3l6.1-2.3c3.9-1.5 7.5-2.7 10.5-4.1l8-3.4 7-2.9.2.4-6.8 3.3-7.9 3.7c-3 1.5-6.6 2.9-10.4 4.5l-6 2.5c-2.1.9-4.2 1.8-6.4 2.6l-14.1 5.2-15.3 4.9c-5.2 1.6-10.6 3-16 4.5-5.4 1.3-10.8 2.7-16.1 3.9s-10.6 2.3-15.8 3c-2.6.4-5.1.8-7.6 1.1s-5 .5-7.3.7c-4.8.5-9.3.6-13.5.8s-8 .1-11.4 0-6.4-.3-8.8-.5-4.3-.4-5.6-.6l-2-.3v-.1zm-145-345.2s.5.6 1.4 1.9 2.3 3.1 3.9 5.5l2.6 4 3 4.8c1.1 1.7 2.1 3.6 3.2 5.6s2.3 4 3.5 6.2l3.6 6.9 3.6 7.4 1.9 3.9 1.8 4.1c1.2 2.7 2.4 5.5 3.7 8.4 1.2 2.9 2.4 5.8 3.6 8.8s2.5 6 3.5 9 2.2 6.2 3.4 9.3l1.7 4.7 1.5 4.7c2 6.3 4.2 12.6 6 18.9l2.7 9.3c.4 1.5.9 3.1 1.3 4.6s.8 3.1 1.1 4.6c1.4 6.1 2.8 11.9 4 17.5s2 10.9 2.8 15.8c.4 2.5.8 4.8 1.2 7s.6 4.4.8 6.4c.5 4 .9 7.5 1.2 10.4.6 5.8.9 9.1.9 9.1l-.5.1s-.8-3.2-2.1-8.9c-.7-2.8-1.4-6.3-2.3-10.2-.4-2-.9-4.1-1.3-6.3-.5-2.2-1.1-4.5-1.6-6.9-1.1-4.8-2.3-10-3.6-15.6-1.4-5.5-2.9-11.3-4.3-17.3-.3-1.5-.7-3-1-4.6s-.8-3-1.2-4.6l-2.4-9.3c-1.5-6.3-3.5-12.6-5.3-18.9l-1.4-4.7-1.6-4.7c-1-3.1-2.1-6.2-3.1-9.3s-2.2-6.1-3.3-9.1-2.2-5.9-3.3-8.8c-2.4-5.7-4.5-11.3-6.9-16.4-1.2-2.6-2.3-5.1-3.4-7.6l-3.5-6.9c-1-2.2-2.2-4.3-3.2-6.3s-2-3.9-3-5.6l-2.8-4.9c-.9-1.5-1.7-2.9-2.5-4.1-1.5-2.5-2.8-4.4-3.6-5.6s-1.4-1.9-1.4-1.9l.7-.4zm57.6-37.3s.4.7 1.3 2.2 2 3.5 3.3 6.2 3 6 4.9 9.8c.9 1.9 1.8 4 2.8 6.1s2 4.4 3 6.8 2.1 4.9 3.2 7.4 2.1 5.3 3.2 8l1.7 4.2c.5 1.4 1.1 2.9 1.6 4.3 1.1 2.9 2.2 5.9 3.3 9 2.1 6.1 4.4 12.4 6.4 19s4.3 13.1 6.1 19.7 4 13.3 5.7 19.9 3.6 13 5 19.4 2.8 12.5 4 18.3 2.1 11.4 2.9 16.5c.4 2.6.8 5 1.2 7.3s.7 4.6.9 6.6c.6 4.2 1 7.8 1.4 10.8.8 6 1.1 9.5 1.1 9.5l-.5.1s-.9-3.4-2.3-9.2c-.7-2.9-1.6-6.5-2.5-10.6-.5-2.1-.9-4.2-1.4-6.5s-1.1-4.7-1.7-7.2c-1.2-5-2.4-10.5-3.7-16.3s-2.9-11.8-4.3-18.1c-.7-3.2-1.4-6.4-2.2-9.6s-1.5-6.5-2.3-9.8c-1.5-6.6-3.3-13.3-5-19.9s-3.7-13.3-5.6-19.8-4-12.9-5.9-19c-2.1-6.1-4-12.1-6.1-17.6l-2.9-8.1c-1-2.6-2-5.1-2.9-7.5s-1.9-4.7-2.8-6.9-1.7-4.3-2.6-6.2c-1.7-3.8-3.2-7.2-4.5-9.9s-2.4-4.9-3.1-6.3l-1.2-2.2.5-.4zm316.2-16.2s.8 11.2 2.6 27.9c.5 4.2 1 8.7 1.6 13.5s1.2 9.8 1.9 15c.3 2.6.7 5.3 1 7.9.3 2.7.8 5.4 1.2 8.1.8 5.5 1.7 11 2.6 16.5s2 11 3 16.4 2.2 10.7 3.2 15.8 2.1 10.1 3 14.8c1 4.7 2 9.1 2.9 13.2s1.9 7.8 2.7 11.1 1.6 6.2 2.2 8.5c1.3 4.7 2 7.5 2 7.5l-.5.2s-1.2-2.5-3.1-7.1c-1-2.3-2.2-5-3.3-8.3s-2.5-6.9-3.7-10.9-2.5-8.5-3.7-13.1-2.3-9.7-3.4-14.9c-.9-5.2-1.9-10.6-2.7-16s-1.7-11-2.4-16.6-1.5-11.1-2.1-16.6c-.3-2.7-.6-5.5-.9-8.2-.3-2.7-.5-5.4-.8-8-1.1-10.5-1.8-20.3-2.3-28.7-1.1-16.8-1.4-28-1.4-28h.4z"/><path class="st6" d="M192.4 436.5s2.1.7 5.7 1.8c1.8.5 4.1 1.1 6.7 1.7s5.5 1.3 8.7 2 6.7 1.3 10.4 1.9l5.7.9 6 .8c4 .6 8.3.9 12.5 1.3s8.6.6 13 .9c4.4.1 8.7.3 13 .3s8.5-.1 12.5-.1 8-.1 11.8-.1c1.9 0 3.7 0 5.4-.1l5.1-.1c3.3-.1 6.3 0 8.9-.1s5-.1 6.9-.1c3.8-.1 6 0 6 0l.1.5s-2.1.5-5.9 1.2c-1.9.4-4.2.8-6.8 1.3s-5.6.8-8.9 1.2-6.8.8-10.6 1-7.8.4-11.9.5c-4.1-.1-8.4-.2-12.7-.4l-13.1-1c-4.4-.5-8.8-.9-13.1-1.4s-8.5-1.1-12.6-1.9l-6-1-5.7-1.2c-3.7-.7-7.1-1.7-10.4-2.4s-6.1-1.6-8.6-2.4-4.8-1.5-6.6-2.1c-3.6-1.3-5.6-2.1-5.6-2.1l.1-.8z"/><path class="st4" d="M410.5 277.1l5.8-1.4c3.7-.9 9-2.1 15.4-3.5s13.8-3.1 21.8-4.8l25.1-4.9 12.7-2.6c4.2-.9 8.4-1.6 12.4-2.2s8-1.1 11.7-1.5c3.7-.4 7.2-.8 10.5-1.1 13-1.3 21.7-1.4 21.7-1.4l.2.2-.2.2s-8.5 2.3-21.3 4.8c-3.2.6-6.7 1.3-10.3 1.9s-7.6 1.3-11.6 1.9-8.2 1-12.4 1.7l-12.8 1.9-25.2 3.9-21.9 3.7c-6.4 1.1-11.8 2-15.5 2.7l-5.9 1.1-.3-.2.1-.4z"/><path class="st3" d="M247.5 402l.1.3c.1.2.2.4.3.7s.4.7.7 1.1.7.9 1.1 1.3 1 1 1.6 1.5l2.1 1.5 2.6 1.4c1 .5 2 .9 3 1.3l1.6.6 1.7.5c1.2.4 2.4.7 3.6 1.1l3.9.9 2 .5 2.1.3c2.8.4 5.7.9 8.7 1.1s6 .6 9.1.7l4.6.2c1.5.1 3 .1 4.5 0 3-.1 6-.1 8.9-.1s5.6 0 8.3.1 5.1.2 7.4.3c9.2.1 15.5.9 15.5.9l.2.3-.2.2s-6.1 1.4-15.3 2.5c-2.3.2-4.8.4-7.5.5s-5.5.3-8.4.3-5.9-.3-9-.5-6.1-.6-9.3-.9-6.2-.8-9.2-1.2-6-1.1-8.9-1.7l-2.1-.5-2.1-.6-4-1.2c-1.3-.5-2.5-1-3.7-1.4l-1.7-.7-1.6-.8c-1-.6-2.1-1-3-1.6l-2.6-1.7-2.1-1.7c-.6-.6-1.1-1.2-1.6-1.7s-.8-1.1-1.1-1.5-.5-.9-.6-1.2-.2-.6-.3-.8l-.1-.3.2-.3.6.3z"/><path class="st7" d="M155.9 93.3l.9 1.4c.6.9 1.4 2.3 2.6 4l1.8 2.8 2 3.4c1.4 2.5 3.1 5.2 4.6 8.3s3.3 6.5 5.1 10 3.4 7.5 5.3 11.4 3.6 8.1 5.4 12.3l5 13c.8 2.2 1.7 4.3 2.5 6.5.4 1.1.8 2.2 1.2 3.2s.7 2.2 1.1 3.3c1.5 4.3 2.8 8.6 4.2 12.8s2.4 8.2 3.4 12c.9 3.9 1.7 7.6 2.4 11 2.8 13.7 4 22.9 4 22.9l-.5.1s-3.3-8.8-7.3-22c-1-3.3-2-6.9-3.1-10.8-1.3-3.8-2.6-7.7-3.8-11.9s-2.5-8.4-3.7-12.8l-.9-3.3c-.3-1.1-.7-2.2-1.1-3.3l-2.2-6.6c-1.5-4.4-3-8.8-4.4-13.1s-3.3-8.4-4.9-12.4-3-8-4.7-11.6l-4.5-10.3c-1.4-3.2-3-6-4.2-8.5-.6-1.3-1.2-2.4-1.8-3.5s-1.1-2-1.6-2.9c-1-1.8-1.7-3.2-2.3-4.1l-.9-1.4.4.1zm84.6-38.5l8.3 34.8c2.5 10.4 5.5 22.6 8.7 35.6 1.6 6.5 3.2 13.3 4.9 20.1s3.4 13.8 5.1 20.7 3.5 13.9 5.3 20.7 3.5 13.5 5.1 20 3.1 12.8 4.6 18.8 2.8 11.6 3.9 16.9 2.3 10 3.3 14.3 1.9 8 2.5 11c1.4 6.1 2.1 9.6 2.1 9.6l-.5.1s-1.2-3.4-3.2-9.3c-1-3-2.2-6.6-3.6-10.7s-2.9-8.8-4.3-14-3.1-10.8-4.7-16.7-3.4-12.2-4.9-18.7-3.1-13.3-4.7-20.2-3.1-13.9-4.7-20.9-3.1-14-4.6-20.9-3-13.7-4.4-20.2l-4.1-18.9-3.5-17c-4.3-21-7.2-35.1-7.2-35.1h.6zm109.8-33.9s2.1 14.7 5.5 36.6c1.8 11 3.9 23.8 6.1 37.5 1.2 6.8 2.3 13.9 3.6 21.1s2.5 14.5 3.9 21.8 2.7 14.6 4.1 21.7 2.8 14.2 4.2 21 2.6 13.4 3.8 19.6c.6 3.1 1.1 6.2 1.8 9.1s1.1 5.8 1.7 8.5c1 5.4 2.1 10.4 3 14.8s1.7 8.3 2.4 11.4c1.5 6.3 2.2 10 2.2 10h-.6s-1.3-3.5-3.4-9.6c-.5-1.5-1.1-3.2-1.7-5.1s-1.2-3.9-1.8-6.1c-1.2-4.4-2.7-9.2-4-14.6s-2.9-11.2-4.2-17.5-2.9-12.8-4.1-19.6-2.6-13.9-3.7-21.1c-.6-3.6-1.2-7.2-1.8-10.9-.6-3.6-1.1-7.3-1.7-11-1.2-7.3-2.3-14.7-3.3-21.9s-2.1-14.3-3.1-21.2c-2-13.8-3.6-26.6-5-37.6-2.8-22-4.4-36.8-4.4-36.8l.5-.1zM488.5 10s.2 12.2 1.3 30.4c.5 9.1 1.2 19.7 2.1 31.1.4 5.7 1 11.5 1.5 17.5s1.2 12 1.9 18 1.4 12.1 2.2 18c.9 5.9 1.5 11.8 2.4 17.4s1.4 11.1 2.2 16.2c.4 2.6.7 5.1 1 7.5s.6 4.8 1 7c.7 4.5 1.3 8.6 1.8 12.3.2 1.8.6 3.5.8 5.1s.5 3 .7 4.4c.8 5.3 1.2 8.3 1.2 8.3l-.5.1s-.9-2.9-2.4-8c-.7-2.6-1.7-5.7-2.6-9.3s-1.8-7.7-2.8-12.2-1.9-9.4-2.9-14.5-1.7-10.6-2.6-16.3-1.4-11.6-1.9-17.5c-.6-6-1-12-1.6-18.1s-.9-12.2-1.3-18.1-.7-11.9-1-17.6-.5-11.2-.7-16.5-.3-10.2-.4-14.7c-.1-18.3.1-30.5.1-30.5h.5z"/><ellipse transform="rotate(-7.331 642.3 432.6)" class="st8" cx="642.3" cy="432.6" rx="46.6" ry="53.6"/><path class="st8" d="M664 449.9c6-15.6 10.8-31.6 14.2-47.9 3.4-16.2 4.9-32.7 4.4-49.2-.7-16.5-3.6-32.9-8.8-48.6-5.3-15.9-12.3-31.3-21-45.6l9.3-5.8c10 14.6 18.3 30.4 24.8 46.9 6.5 16.8 10.7 34.3 12.3 52.2 1.6 17.9 1 36-1.7 53.8-2.8 17.6-7.5 34.8-13.1 51.7l-20.4-7.5z"/><circle class="st8" cx="657.4" cy="255.5" r="18.9"/><path class="st9" d="M674.1 418.9v1.1c-.1 3.1-.3 6.2-.4 9.3-.2 5-.5 9.9-.7 14.8-1.3 12.2-3.8 24.2-7.5 35.8-5 15.9-11.9 30.1-20 40.5-5.1 6.5-44.8 50.2-123.6 60.4-1 .1-2 .2-3 .4-2 .2-4 .5-6 .7l-3 .3c-2 .2-3.9.3-5.8.6l-2.9.2c-8 .7-20.7 1.8-31.9 2.6-.6.1-1.1.1-1.5.2-5.6.4-10.7.6-14.3.8h-15c-1.6-.1-3.2 0-4.8-.1s-3.1-.1-4.7-.2c-26.6-1-92.2 1.2-114.2-2.7-6.6-1.2-13.1-2.3-19.6-3.6-.3-.1-.6-.2-.9-.2-10.3-2.2-22-8.3-33.5-17.3-23-18.2-45.3-48.1-54-81.3-1.6-6-2.9-12.1-3.7-18.3-5.5-42.9 37.3-83 63-91.6 5.5-1.9 11.3-3.6 17.5-5.5 5.7-1.7 11.8-3.3 18.2-5 3.8-1 7.8-2 11.9-3 19.1-3.3 27.1-5 48.9-8.4 3.6-.6 7.1-1 10.7-1.6.5 0 .8-.1 1.3-.2 5.5-.9 11.1-1.6 16.7-2.5 2.5-.3 4.9-.8 7.5-1.1 17.9-2.7 35.9-5.1 53.9-7.6l.8-.1c19.9-2.7 39.7-5.3 58.7-7.6 7.9-.7 15.4-1.1 22.7-1.7 2.9-.2 5.8-.3 8.6-.6 7.1-.4 13.9-.7 20.3-.9 5.2-.1 10.2-.3 15.1-.4 7.7-.1 14.9-.1 21.8-.1 1.6.1 3.2 0 4.7.1 2.7.1 5.3.2 7.9.3 6.7.3 13.3 2.3 19.1 5.8.8.5 1.5 1 2.5 1.5s1.6 1.1 2.4 1.6c2 1.4 3.9 3 5.7 4.7l1.1 1.1 2.2 2.2c1.8 1.9 3.6 3.9 5.2 6l2 2.6c4.9 6.9 8.9 14.3 12 22.2.3.8.7 1.6 1 2.5 1.3 3.4 2.3 6.8 3.3 10.4.3.9.5 1.9.7 2.8 2.5 9.9 3.5 19.9 3.6 30.1z"/><path class="st9" d="M674.1 418.9v1.1c-.1 3.1-.3 6.2-.4 9.3-.2 5-.5 9.9-.7 14.8-1.3 12.2-3.8 24.2-7.5 35.8-5 15.9-11.9 30.1-20 40.5-5.1 6.5-44.8 50.2-123.6 60.4-1 .1-2 .2-3 .4-2 .2-4 .5-6 .7l-3 .3c-2 .2-3.9.3-5.8.6l-2.9.2c-8 .7-20.7 1.8-31.9 2.6-.6.1-1.1.1-1.5.2-5.6.4-10.7.6-14.3.8h-15c-1.6-.1-3.2 0-4.8-.1-1.6-.1-3.1-.1-4.7-.2-26.6-1-92.2 1.2-114.2-2.7-6.6-1.2-13.1-2.3-19.6-3.6-.3-.1-.6-.2-.9-.2-10.3-2.2-22-8.3-33.5-17.3-23-18.2-45.3-48.1-54-81.3-1.6-6-2.9-12.1-3.7-18.3-.4-2.9-.5-5.7-.5-8.5v-.1c0-.6 0-1.2.1-1.7.9-19.1 10.5-37.2 22.9-51.5 12.8-14.8 28.5-25.6 40.5-29.6 5.5-1.9 11.3-3.6 17.5-5.5 5.7-1.7 11.8-3.3 18.2-5 3.8-1 7.8-2 11.9-3 11.5-2 19-3.4 27.8-4.9.1 0 .2 0 .3-.1 2.8-.5 5.8-1 9.2-1.5 3.5-.6 7.3-1.2 11.6-1.9 3.6-.6 7.1-1 10.7-1.6.5 0 .8-.1 1.3-.2 5.5-.9 11.1-1.6 16.7-2.5 2.5-.3 4.9-.8 7.5-1.1 17.9-2.7 35.9-5.1 53.9-7.6l.8-.1c19.9-2.7 39.7-5.3 58.7-7.6 7.9-.7 15.4-1.1 22.7-1.7 2.9-.2 5.8-.3 8.6-.6 7.1-.4 13.9-.7 20.3-.9 5.2-.1 10.2-.3 15.1-.4 7.7-.1 14.9-.1 21.8-.1 1.6.1 3.2 0 4.7.1 2.7.1 5.3.2 7.9.3 3.5.1 6.9.8 10.2 1.8h.1c2.4.8 4.8 1.7 7 3 .1 0 .1.1.2.1.5.3 1.1.6 1.6.9.8.5 1.5 1 2.5 1.5s1.6 1.1 2.4 1.6c2 1.4 3.9 3 5.7 4.7l3.3 3.3c1.8 1.9 3.6 3.9 5.2 6l2 2.6c4.9 6.9 8.9 14.3 12 22.2.3.8.7 1.6 1 2.5 1.3 3.4 2.3 6.8 3.3 10.4.3.9.5 1.9.7 2.8 2.5 9.7 3.5 19.7 3.6 29.9z"/><path d="M495.5 368.2c-2.4.3-4.9.5-7.3.9-1.2.1-2.5.3-3.6.5-.6.1-1.2.1-1.9.3 18.3-2.5 35.2-4.3 50.7-5.7 4.3-.3 8.6-.8 12.6-1-15.2 1.2-32 2.9-50.5 5z" fill="#eaeaea"/><ellipse transform="rotate(-20.352 251.199 479.1)" class="st8" cx="251.2" cy="479.1" rx="36.8" ry="53.6"/><path class="st8" d="M221.5 502.3c-9.6-15-18.6-30.5-25.8-46.8-7.1-16.5-12.3-33.8-15.3-51.5-2.9-17.7-3.3-35.8-1.3-53.6 2.1-17.6 6.1-34.9 12-51.6l10.6 3.3c-4.7 16.1-7.7 32.7-8.8 49.5-1 16.5.4 33.1 3.9 49.3 3.6 16.1 9.2 31.7 16.7 46.5 7.5 14.9 16.1 29.2 25.9 42.7l-17.9 12.2z"/><path class="st8" d="M195.5 281.8c10.4 0 18.9 8.5 18.9 18.9s-8.2 19-18.9 18.9c-10.4-.1-18.9-8.5-18.9-18.9s8.4-18.9 18.9-18.9z"/><path class="st8" d="M195.5 281.9c10.4 0 18.9 8.5 18.9 18.9s-8.2 19-18.9 18.9c-10.4-.1-18.9-8.5-18.9-18.9s8.5-18.9 18.9-18.9z"/><path d="M642.4 420.6c-.5 35.6-14.6 64.7-36 74.1-3.1 1.4-6.2 2.7-9.4 4.1-2.5 1.1-4.8 2.1-7.4 3.2-15.9 6.8-32.3 12.6-49 17.3-1.8.5-3.5.9-5.4 1.4-14.6 3.8-29.5 6.8-44.4 9-15.1 1.7-30.3 2.5-45.6 2.6-24.9 0-45.6-2.5-65.2-5.5-3.4-.5-6.7-1.1-10.1-1.6-2.3-.4-4.5-.9-6.7-1.7-20.4-7-38.4-30-46.8-60.9-1.1-4-1.9-8.1-2.5-12.2-3.8-29.4 8.4-54.8 27.7-60.8 20.3-6.4 47.4-13.2 82.8-19.1 10.5-1.8 21.8-3.5 33.7-5.1 2.2-.4 4.3-.6 6.6-.9l3.4-.4c2.2-.3 4.5-.5 6.8-.8.6-.1 1.3-.2 1.9-.3 1.9-.3 3.7-.5 5.5-.6 1.4-.2 2.8-.3 4.2-.5l3.1-.3c8.7-.9 17-1.7 24.9-2.5 26.9-2.3 49.6-3.1 68.1-3 6 .1 11.6.3 16.8.5 9 .4 17.6 5 24.7 12.4 0 .1.2.2.2.3 8.8 9.3 15.2 23.1 17.3 39.2.6 4 .8 8.1.8 12.1z"/><path class="st8" d="M654.4 416.7c.2 35.2-13.5 64.5-34.6 74.3-9 4.1-19.3 8.7-30.7 13.1-15.9 6.3-32.2 11.8-48.7 16.3-10.8 3-21.8 5.4-32.9 7.2-.4 0-.8.1-1.2.1l-5.8.9c-.9.1-1.9.2-2.8.4l-.9.2-3.5.4c-.8.2-1.5.2-2.4.3-15.1 1.7-30.3 2.5-45.5 2.6-24.9 0-45.6-2.5-65.2-5.5-3.3-.5-6.7-1.1-10.1-1.6-2.3-.4-4.5-.9-6.7-1.7-12.1-11.2-22.1-28.4-27.8-49.1-1.1-4-1.9-8.1-2.5-12.2-3.8-29.4 8.4-54.8 27.7-60.8 19.5-6 39.2-11 59.3-14.8 7.5-1.5 15.3-2.9 23.5-4.3 13-2.1 27.1-4.3 42.4-6.3 2.7-.4 5.3-.7 8.1-1l3.8-.5c1.3-.2 2.5-.3 3.6-.5 11.3-1.3 22-2.4 32.1-3.3 17-1.5 32.4-2.4 46-2.7 14.9-.5 27.8-.3 39 .3 1.9.1 3.8.4 5.7.8.1 0 .1.1.3 0 9.6 2.4 18.6 9.5 25.2 19.6 3 9 4.6 18.3 4.6 27.8z"/><path class="st11" d="M654.4 416.7c.2 35.2-13.5 64.5-34.6 74.3-9 4.1-19.3 8.7-30.7 13.1-15.9 6.3-32.2 11.8-48.7 16.3-10.8 3-21.8 5.4-32.9 7.2-.4 0-.8.1-1.2.1l-5.8.9c-.9.1-1.9.2-2.8.4l-.9.2-3.5.4c-.8.2-1.5.2-2.4.3 15-2.2 29.8-5.2 44.4-9l5.4-1.4c16.7-4.7 33.1-10.4 49-17.3l7.4-3.2c3.2-1.3 6.3-2.7 9.4-4.1 21.3-9.5 35.6-38.6 36-74.1 0-4.1-.2-8.3-.7-12.4-2.1-16.2-8.5-29.9-17.3-39.2 0-.1-.2-.2-.2-.3-7.1-7.4-15.6-11.9-24.7-12.4-5.2-.2-10.8-.4-16.8-.5-18.6-.2-41.2.6-68.1 3-7.9.7-16.2 1.5-24.9 2.5-1.1.1-2 .2-3.1.3 1-.1 2-.2 3-.4 18.4-2.1 35.2-3.8 50.5-5.1.1-.1.2-.1.4 0 16-1.3 30.2-2.1 42.8-2.5 9.8-.4 18.7-.4 26.8-.1 6 .2 11.7 2 16.8 5.2 3.5 2.1 6.7 4.7 9.5 7.7 5.9 6.5 10.5 14.1 13.4 22.4 3 8.7 4.6 18.2 4.5 27.7z"/><path class="st12" d="M489.6 361.2l-3.8 14.6-15.4 59.7-6.5 25.2-18.4 71.6c-24.9 0-45.6-2.5-65.2-5.5L420 386.5l4.5-16.1c10.5-1.8 21.7-3.5 33.7-5.1 2.2-.4 4.3-.6 6.6-.9l3.4-.4c2.2-.3 4.5-.5 6.8-.8.6-.1 1.3-.2 1.9-.3 1.9-.3 3.8-.5 5.5-.6l3.6-.5c1.2-.3 2.4-.5 3.6-.6zm137.2-2.7l-2.7 10.2-.1.1-8.6 33-9.6 37.2-16.2 63-.5 2c-15.9 6.3-32.2 11.8-48.7 16.3l.3-1L579.6 368l3.1-12 .6-2.3c9.8-.4 18.7-.4 26.8-.1 5.8-.2 11.5 1.7 16.7 4.9z"/><path class="st11" d="M654.4 416.7c.2 35.2-13.5 64.5-34.6 74.3-9 4.1-19.3 8.7-30.7 13.1-15.9 6.3-32.2 11.8-48.7 16.3-10.8 3-21.8 5.4-32.9 7.2-.4 0-.8.1-1.2.1l-5.8.9c-.9.1-1.9.2-2.8.4l-.9.2-3.5.4c-.8.2-1.5.2-2.4.3 15-2.2 29.8-5.2 44.4-9l5.4-1.4c16.7-4.7 33.1-10.4 49-17.3l7.4-3.2c3.2-1.3 6.3-2.7 9.4-4.1 21.3-9.5 35.6-38.6 36-74.1 0-4.1-.2-8.3-.7-12.4-2.1-16.2-8.5-29.9-17.3-39.2 0-.1-.2-.2-.2-.3-7.1-7.4-15.6-11.9-24.7-12.4-5.2-.2-10.8-.4-16.8-.5-18.6-.2-41.2.6-68.1 3-7.9.7-16.2 1.5-24.9 2.5-1.1.1-2 .2-3.1.3 1-.1 2-.2 3-.4 18.4-2.1 35.2-3.8 50.5-5.1.1-.1.2-.1.4 0 16-1.3 30.2-2.1 42.8-2.5 9.8-.4 18.7-.4 26.8-.1 6 .2 11.7 2 16.8 5.2 3.5 2.1 6.7 4.7 9.5 7.7 5.9 6.5 10.5 14.1 13.4 22.4 3 8.7 4.6 18.2 4.5 27.7z"/><path class="st12" d="M489.6 361.2l-3.8 14.6-15.4 59.7-6.5 25.2-18.4 71.6c-24.9 0-45.6-2.5-65.2-5.5L420 386.5l4.5-16.1c10.5-1.8 21.7-3.5 33.7-5.1 2.2-.4 4.3-.6 6.6-.9l3.4-.4c2.2-.3 4.5-.5 6.8-.8.6-.1 1.3-.2 1.9-.3 1.9-.3 3.8-.5 5.5-.6l3.6-.5c1.2-.3 2.4-.5 3.6-.6zm137.2-2.7l-2.7 10.2-.1.1-8.6 33-9.6 37.2-16.2 63-.5 2c-15.9 6.3-32.2 11.8-48.7 16.3l.3-1L579.6 368l3.1-12 .6-2.3c9.8-.4 18.7-.4 26.8-.1 5.8-.2 11.5 1.7 16.7 4.9z"/><path d="M665.1 480.5c-5 15.9-11.9 30.1-20 40.5-5.1 6.5-44.8 50.2-123.6 60.4-1 .1-2 .2-3 .4-2 .2-4 .5-6 .7l-3 .3c-2 .2-3.9.3-5.8.6l-2.9.2c-8 .7-20.7 1.8-31.9 2.6-.6.1-1.1.1-1.5.2-5.5.4-10.5.6-14.3.8h-15c-1.6-.1-3.2 0-4.8-.1s-3.1-.1-4.7-.2c-26.6-1-92.2 1.2-114.2-2.7-6.6-1.2-13.1-2.3-19.6-3.6-.3-.1-.6-.2-.9-.2-10.3-2.2-22-8.3-33.5-17.3 60.8 3.9 132.3 1.2 202.5-.5 108-2.7 170.6-33.9 202.2-82.1z" opacity=".3" fill="#18162e"/><path class="st14" d="M448.6 462.8c1.7 17.2-14.8 3.5-33.2 5.4s-31.9 18.6-33.6 1.4 11.7-32.7 30.2-34.6 34.9 10.5 36.6 27.8zm178.1-22.6c1.6 15.6-13.4 3.1-30.2 5s-29 17-30.6 1.3 10.7-29.7 27.5-31.5 31.7 9.5 33.3 25.2z"/><path class="st8" d="M725 693.7c-3.4 5.2-6.1 9-8.9 13.3-14.2-2.1-27.8-4-40.8-5.9-3.8-6.6-5.3-9.4-8.8-15.6.1 0-1.6-2.6-1.6-2.5.1 0 .1 0 .1.1h.4l2-30.2 2.4-2.8c4.9-6.3 9.2-11.7 14.1-18 13.6 1.8 27.2 3.7 42 5.7.7 5.7 1.3 10.5 1.9 16-9.8.8-17.8 1.4-27.9 2.3-1.5 10.1-2.7 18.9-4.2 28.6l29.3 9z"/><path class="st15" d="M668.9 651.1l-.1.5-2.4 33.9c-.2-.1-.4 0-.5-.1-33.3-2.5-58.2-12-76.5-23.7-2.2-1.4-4.4-2.8-6.3-4.3-4.8-3.4-9.3-7.1-13.5-11.2-5-4.8-9.7-9.9-13.9-15.5-9.4-12.4-13.1-22.3-13.5-23.4l28.4-10.1c1.1.6 3.6.5 4.3 1.5.4.8 2 1.6 2.6 2.6 7.5 13.8 31.6 45.4 91.4 49.8z"/><path class="st14" d="M577.5 601.7l.3.8c1.3 4.8 2.6 9.5 4 14.6.3.9.5 1.8.8 2.7s.5 1.7.7 2.6c.3 1.1.5 2.4.7 3.6.4 2.4.9 5 1.3 7.6.6 3.2 1.1 6.5 1.5 9.8l.6 3.9c.8 5.5 1.5 10.7 2.1 14.7.6 4.8 1 8.2 1.2 9.3v.4c1.5 9.8 2.3 19.6 2.5 29.5.2 4.5.2 9 .1 13.6v2.1c0 1.4-.2 2.8-.3 4.2s-.3 2.7-.6 4.1c-1.9 11-7.2 21.1-15 29-.5.4-.9.9-1.4 1.3-1.6 1.5-3.4 2.9-5.3 4.1l-2.4 1.5c-.5.3-1.1.6-1.7.9-.8.4-1.7.9-2.5 1.3-.9.4-1.8.8-2.7 1.1-1 .3-2.1.8-3 1.2-7.3 2.7-15.1 5.3-23.3 7.7-2.5.7-5 1.4-7.6 2.1-.7.2-1.3.3-1.9.5-7.5 1.9-15.1 3.5-22.9 4.9h-.1c-4.9.9-9.6 1.6-14.5 2.3-.4 0-.8.1-1.2.1-3.9.6-7.6 1-11.5 1.3l-3 .3c-2 .2-3.9.3-6 .4-4 .2-8 .3-11.8.4h-1c-.1-.1-.4 0-.5-.1s-.5 0-.7 0c0 0-3.7-.4-4.3-.4-.4 0-.7-.2-1-.2s-1-.1-1.7-.3-1.2-.2-1.8-.4-1.2-.2-1.7-.4c-.1 0-.1 0-.1-.1l-1.2-.3c-.7-.1-1.3-.4-1.9-.6-.4-.1-.7-.3-1.1-.4-.1-.1-.3-.2-.4-.1-.3-.2-.5-.2-.8-.3-.4-.2-.8-.4-1.3-.5h-.3c-.5-.2-1-.5-1.6-.7l-1.3-.7c-.2-.1-.4-.2-.6-.4-.9-.5-1.8-1-2.6-1.6-.3-.2-.5-.3-.8-.5-.2-.1-.5-.3-.7-.5-.3-.2-.5-.3-.8-.5-.6-.4-1.1-.8-1.6-1.2-.3-.3-.8-.6-1.1-.8 0-.1-.1-.1-.1-.1-.4-.3-.7-.6-1-.9-.2-.2-.5-.3-.7-.5-.8-.6-1.6-1.3-2.3-2.1l-.5-.5c-.3-.4-.7-.7-1.1-1-.2-.3-.5-.4-.7-.7l-1.2-1.4c0-.1-.1-.1-.1-.1-3.7-4.2-6.7-8.9-9-14-1.7-3.7-3.4-7.5-5-11.2-3.8-8.9-7.1-18.1-9.9-27.4l-.1-.3c-.7-2.1-4.5-14.5-8.3-28-1.7-6.3-3.6-12.9-4.9-18.7-.1-.3-.2-.5-.1-.8-1.2-7.2-2.1-13.6-3.3-20.3-.8-4 1.1-8.1 4.7-10.1l.2-.1c5.2-2.5 10.4-4.8 15.6-7.1 1.8-.7 3.6-1.6 5.4-2.3 7.6-3.2 15.4-6.1 23.2-8.7 15.6-5.4 31.5-9.8 47.6-13.2 18.7-4.1 37.7-6.8 56.8-8.3 13.2-1 26.4-1.3 39.8-1.1 1.6 0 3.1.5 4.4 1.3 1.1.6 2 1.5 2.7 2.5.8.3 1.4 1.2 1.7 2.2z"/><path class="st14" d="M433.6 781c-.1-.1-.3-.1-.4-.2l-.7-.4c.4.2.8.4 1.1.6zm1.2.5c-.1 0-.3-.1-.4-.2.1.1.3.1.4.2zm17.8 4h-.5.5z"/><path class="st16" d="M432.5 780.4c.4.2.7.4 1.1.5-.1-.1-.3-.1-.4-.2l-.7-.3zm1.9.9c.1.1.3.1.4.2-.1-.1-.3-.1-.4-.2zm18.2 4.2h-.5.5z"/><path class="st16" d="M433.6 781c-.1-.1-.3-.1-.4-.2l-.7-.4c.4.2.8.4 1.1.6zm1.2.5c-.1 0-.3-.1-.4-.2.1.1.3.1.4.2zm17.8 4h-.5.5z"/><path class="st17" d="M492.4 764.2c-24.7 8.3-51.2 9.4-76.4 3.1-3.7-4.2-6.7-8.9-9-14-1.7-3.7-3.4-7.5-5-11.2-3.8-8.9-7.1-18.1-9.9-27.4l-.1-.3c-.7-2.1-4.5-14.5-8.3-28-1.7-6.3-3.6-12.9-4.9-18.7-.1-.3-.2-.5-.1-.8-1.2-7.2-2.1-13.6-3.3-20.3-.8-4 1.1-8.1 4.7-10.1l.2-.1c5.2-2.5 10.4-4.8 15.6-7.1 1.8-.7 3.6-1.6 5.4-2.3 7.6-3.2 15.4-6.1 23.2-8.7 15.6-5.4 31.5-9.8 47.6-13.2 18.7-4.1 37.7-6.8 56.8-8.3 13.2-1 26.4-1.3 39.8-1.1 1.4 0 2.7.4 4 1 1.2.6 2.2 1.7 3.2 2.6 1 .9 1.5 1.9 2 3.1 1.3 4.8-20.9 140-85.5 161.8zm95.1-115.9c-.1-.6-.2-1.1-.3-1.7l.1.7c.2.3.2.7.2 1z"/><path class="st17" d="M593.3 714.8v2.1c0 1.4-.2 2.8-.3 4.2s-.3 2.7-.6 4.1c-1.9 11-7.2 21.1-15 29-.5.4-.9.9-1.4 1.3-1.6 1.5-3.4 2.9-5.3 4.1l-2.4 1.5c-.5.3-1.1.6-1.7.9-.8.4-1.7.9-2.5 1.3-.9.4-1.8.8-2.7 1.1-1 .3-2.1.8-3 1.2-7.3 2.7-15.1 5.3-23.3 7.7-2.5.7-5 1.4-7.6 2.1-.7.2-1.3.3-1.9.5-7.5 1.9-15.1 3.5-22.9 4.9h-.1c-4.9.9-9.6 1.6-14.5 2.3-.4 0-.8.1-1.2.1-3.9.6-7.6 1-11.5 1.3l-3 .3c-2 .2-3.9.3-6 .4-4 .2-8 .3-11.8.4h-1c-.1-.1-.4 0-.5-.1h1.1c35.9-.4 76.3-9.2 106.9-21.1 19.2-7.6 31.7-27.2 31.9-49.8 0-3.5.1-7 0-10.5 0-6-.2-11.9-.6-17.8.4 5 .7 9.9.8 14.9.2 4.5.2 9 .1 13.6z"/><path class="st16" d="M593 714.6c-.2 22.6-12.7 42.2-31.9 49.8-30.6 11.9-71 20.7-106.9 21.1h-2.9c-.4 0-.8-.1-1.3-.1-.3 0-.5 0-.7-.1h-1.4c-.4 0-.7-.2-1-.2s-1-.1-1.7-.3-1.2-.2-1.8-.4c-.6-.2-1.2-.2-1.7-.4-.1 0-.1 0-.1-.1l-1.2-.3c-.7-.1-1.3-.4-1.9-.6-.4-.1-.7-.3-1.1-.4-.1-.1-.3-.2-.4-.1-.3-.2-.5-.2-.8-.3-.4-.2-.8-.4-1.3-.5h-.3c-.1 0-.3-.1-.4-.2-.3-.1-.5-.2-.8-.4-.4-.2-.7-.4-1.1-.5l-.6-.3c-.2-.1-.4-.2-.6-.4-.9-.5-1.8-1-2.6-1.6-.3-.2-.5-.3-.8-.5-.2-.1-.5-.3-.7-.5-.3-.2-.5-.3-.8-.5-.6-.4-1.1-.8-1.6-1.2-.3-.3-.8-.6-1.1-.8 0-.1-.1-.1-.1-.1-.4-.3-.7-.6-1-.9-.2-.2-.5-.3-.7-.5-.8-.6-1.6-1.3-2.3-2.1l-.5-.5c-.3-.4-.7-.7-1.1-1-.2-.3-.5-.4-.7-.7l-1.2-1.4v-.1c25.2 6.3 51.7 5.2 76.4-3.1 64.6-21.8 102.3-85.9 89.5-147.5.2.7.3 1.1.4 1.5.2.7.4 1.2 1.2 4.1 0 0 .2.8.2.9.3 1.6.5 3.1.8 4.7.3 1.7.6 3.3.9 5.1.2 1 1.2 6.7 1.6 10.3 0 0 .3 1.6.6 3.8.9 6.8 2.2 14.8 2.6 19v.4c0 .2 0 .4.1.6v.3l.3 2.4c0 .5.1 1 .2 1.4v.4c.7 4.6 1.3 9.3 1.7 13.9v.7c.4 5.9.6 11.9.6 17.8.1 3.4 0 6.9 0 10.4z"/><path class="st16" d="M432.5 780.4c-6.3-3.1-12.1-7.6-16.9-13.2.1 0 .3.1.4.1v.1l1.2 1.4c.2.3.5.4.7.7.4.3.8.6 1.1 1l.5.5c.7.8 1.5 1.5 2.3 2.1.2.2.5.3.7.5.3.3.6.6 1 .9 0 0 .1 0 .1.1.3.2.8.5 1.1.8.5.4 1 .8 1.6 1.2.3.2.5.3.8.5.2.2.5.4.7.5.3.2.5.3.8.5.8.6 1.7 1.1 2.6 1.6.2.2.4.3.6.4l.7.3zm19.4 5c-5.9-.2-11.7-1.6-17.1-4h.3c.5.1.9.3 1.3.5.3.1.5.1.8.3.1-.1.3 0 .4.1.4.1.7.3 1.1.4.6.2 1.2.5 1.9.6l1.2.3c0 .1 0 .1.1.1.5.2 1.1.2 1.7.4s1.1.2 1.8.4 1.4.3 1.7.3c.3 0 .6.2 1 .2.5.1 2.8.3 3.8.4zm1.2.1h-.4c.1 0 .3-.1.4 0z"/><path class="st15" d="M419.4 677.8c-1.4 22.3-7.3 44-17.4 63.9-3.8-8.9-7.1-18.1-9.8-27.4l-.1-.3c-.7-2.1-4.5-14.5-8.3-28 .4-2.8.7-5.6 1-8.5 1.6-22.6-3.5-38.7-4.6-41.5l-.1-.4v.1l22-8.3c1.3 2.4 19.1 19.2 17.3 50.4z"/><path class="st14" d="M412.5 660l-.2.1c-4.4 1.5-109.4 34.4-181.5-30.2-7.3-6.1-8.3-16.9-2.2-24.2s16.9-8.3 24.2-2.2c.3.3.7.6 1 .9 57.2 51.2 147 23.3 147.9 23.1 9-3 18.8 1.9 21.8 10.9 2.9 8.9-2 18.6-11 21.6z"/><path class="st8" d="M183.8 593.9c-1.3 6.1-2.3 10.6-3.3 15.7 11.4 8.8 22.3 17.2 32.7 25.2 7.3-1.8 13.4-3.4 20.3-5.1 0-.1-.1-.1-.1-.1 0-.1-.1-.1-.1-.1l-.3-.3 20.3-22.5.4-3.7c1.1-7.8 2-14.6 3.1-22.6-10.8-8.5-21.5-17-33.3-26.2-4.5 3.3-8.4 6.4-12.8 9.7 6.2 7.6 11.3 13.7 17.7 21.7-6.2 8.1-11.7 15.2-17.7 22.8l-26.9-14.5z"/><circle class="st14" cx="534.7" cy="663.8" r="33"/><path d="M569.5 646.4c-3.2-6.3-7.9-11.6-13.9-15.5-18.2-11.7-42.3-6.4-54 11.7-11.7 18.2-6.4 42.3 11.7 54 18.2 11.7 42.3 6.4 54-11.7 6.4-10 8-22.3 4.2-33.5-.4-1.7-1.1-3.4-2-5zm-26.7 41.8c-13.4 4.5-28-2.7-32.5-16.2-4.5-13.4 2.7-28 16.2-32.5 13.4-4.5 28 2.7 32.5 16.2 4.5 13.4-2.7 28-16.2 32.5z" fill="#252247"/><path d="M304.9 558.9c-25.2 15-98.3 54.1-176.6 54.1-5-.1-9.5 3-11.3 7.7C89.7 694.1 27.4 749 4.5 767.3c-4.8 3.9-5.9 10.8-2.5 16C168.8 1032.5 343.6 988 369.9 979.4c2.2-.8 4.2-2.2 5.7-4 17.1-21.7 120.1-169.7-54.7-413.3-3.8-5-10.7-6.4-16-3.2z" fill="#03a9f5"/><path d="M302.4 595.8S225 648 142.5 644.9h-.3l-.1.2C116.1 723.5 40 777.6 40 777.6c150.8 231.7 311 168.3 311 168.3S466.6 818 302.4 595.8z" fill="#4fc2f8"/><path class="st14" d="M158.8 827.9L89 781.5l20.2-14.3 46 33.8-16.9-54.5 19.4-13.8 20.8 81.3-19.7 13.9zm32.7-119.5c16.4-11.7 31.7-10.4 42.1 4.2 10.8 15.1 7.6 30.7-8.8 42.4l-10 7.1 12.3 17.2-18.9 13.5-45.6-63.8 28.9-20.6zm12.8 39.1l9.1-6.5c5.7-4 6.6-9.5 2.6-15.2-3.9-5.5-9.4-6.3-15.1-2.3l-9.1 6.5 12.5 17.5zm110.2-30.7l-52.2-16.2 25.3 35.4-17.3 12.4-45.4-63.7 16.2-11.6 52.4 16.4-25.5-35.6 17.3-12.3 45.4 63.7-16.2 11.5zm21.4 135.9c-15.3-3.9-31.5-1.1-44.6 7.7-13.2 8.8-22 22.7-24.3 38.4-.7 7.1 4.6 11.5 9.9 12.1 1.6.2 3.3 0 4.9-.5.9-.3 1.8-.8 2.6-1.4 2.4-1.7 4-4.5 4.3-7.4 1-9 6.5-17.6 14.7-23s18.2-7.2 27-4.7c2.9 1 6 .6 8.6-1 2.2-1.5 3.8-3.7 4.5-6.2 1.4-5.3-.6-12-7.6-14zm-23.6 38.2c-6.8 4.5-8.6 13.7-4 20.5 4.5 6.8 13.7 8.6 20.5 4 6.8-4.5 8.6-13.7 4-20.5-4.7-6.7-13.7-8.4-20.5-4z"/><path class="st14" d="M339.1 815.6c-23.7-4.6-48.3.4-68.3 14-20.6 13.8-34.5 34.2-39.1 57.7-.9 4.1.2 7.6 3 10.1 3.2 2.6 7.5 3.5 11.4 2.1 3.6-1.2 6.3-4.2 7-7.9 3.7-18.3 13.7-33 29.9-43.8s33.6-14.4 52-10.8c3.7.7 7.5-.6 10-3.5 2.7-3.1 3.7-7.3 2.5-11.2-1.5-3.5-4.7-6.1-8.4-6.7z"/><path class="st14" d="M342.6 779c-33.1-5.2-65.1 1.7-92.4 19.9s-45.9 45.1-53.8 77.7c-.8 2.9-.3 6.1 1.3 8.6 1.5 2.2 3.8 3.7 6.4 4.4 2.1.5 4.3.4 6.4-.3 3.7-1.3 6.4-4.4 7.2-8.2 12.9-54.4 65.6-89.7 120.9-80.7 6 1.1 11.8-2.9 12.9-9 0-.1 0-.2.1-.4.8-5.1-2-10.9-9-12z"/><path class="st8" d="M595.8 808.5c-.4 7.2-2.3 14.2-5.6 20.5-7.5 14-22.6 22.7-35.8 30.4-15.3 8.9-32.8 13.1-50.3 14.2-16.1 1-33-2.2-46.5-11.3-14.4-9.7-25.7-24.8-32.4-40.7.6 1.4 9.2.2 10.5.1 6.1-.4 12.3-.5 18.4-.8 24.6-1.2 49.4-3.9 73.2-10.1 9.9-2.4 19.5-5.8 28.8-10 10.4-4.9 18.8-13.1 29.5-17.7 5.1-2.2 6.3.9 7.7 5.3 2 6.5 2.9 13.3 2.5 20.1z"/><path class="st0" d="M197.3 319.6c10.5-1 18.1-10.3 17-20.7-.9-8.5-7.3-15.4-15.7-16.8-3-.5-6.2-.4-9.1.6-12.7-58.2-34.4-131.8-68.1-170.7 0 0 9.1-8.6 26.9-21.1l3-2.1 1.3-.9 1.6-1.1 1.6-1.1c1.1-.7 2.2-1.5 3.4-2.2 2-1.3 4.1-2.6 6.2-4 2.9-1.8 5.9-3.6 9-5.5 1.6-1 3.2-1.9 4.8-2.9l2.5-1.4c17.8-10.1 36.2-19 55.1-26.8l2.5-1 2.5-1c1.7-.7 3.4-1.3 5.2-2 2.3-.9 4.7-1.8 7-2.7l3.6-1.3c3.6-1.3 7.3-2.6 11-3.9 2.5-.9 5-1.7 7.6-2.5s5.2-1.6 7.8-2.5l4-1.2c16.4-4.9 34-9.4 52.8-13.1l3.5-.7c4.7-.9 9.5-1.8 14.4-2.6S368.8 6.7 374 6c2.4-.3 4.8-.7 7.3-1l1.9-.2 4-.5 4.1-.5c3.1-.3 6.2-.7 9.4-1C418.2 1.1 436.4.2 455.4 0c7.3-.1 14.7 0 22.2.2 10.8.3 21.9.8 33.2 1.7 16.9 1.3 5.5 148.6 41 247.1.5 1.3.9 2.6 1.4 3.9.5 1.5 1.1 2.9 1.7 4.3.9 2.4 1.9 4.7 2.8 7 .2.5.4.9.6 1.4.3.7.6 1.3.9 2l.2.4c.5 1.1.9 2.1 1.4 3.2.1.1.1.3.2.4l1.5 3.3c.5 1.1 1.1 2.3 1.7 3.5l.8 1.7.5 1c1.7 3.2 3.3 6.4 5.1 9.4.4.7.9 1.5 1.3 2.2.2.3.3.5.5.8.7 1.2 1.4 2.3 2.2 3.5.4.7.9 1.4 1.3 2.1.9 1.3 1.8 2.7 2.7 4 0 0-8.3 11.3-46.8 24.4-28.9 9.8-74.6 20.7-146.6 28.6-13.2-.8-26.6-1.8-40.3-3l-1.8-.1-.8-.1h-.1c-10.7-.9-21.7-1.9-32.8-3-13.9-1.3-28.1-2.7-42.9-4.1h-.3c-8.2-.8-16.6-1.6-25.1-2.4h-.3c-4.1-.4-8-.7-11.8-.9-9.4-.6-18.9-.7-28.4-.3-.2-1-.3-2.1-.5-3.2-.9-5.4-1.9-11.5-3.1-17.9l.3-1.5z"/><path class="st1" d="M225.4 337l26.2-10s-11.4-123.7-69.7-257.4c-13.4 7.6-24.6 14.8-33.6 21.1 13.4 19.6 49.6 84.9 77.1 246.3zm70.6-21.7l43.4-16.3S290.3 94.1 288.2 24.5c-19.7 5.9-39 12.9-57.8 21C240.9 90 284 273.8 296 315.3zm45-303.8c6.5 45.7 31.8 215.6 55.4 273.1l47-10S398.8 93.9 400.8 2.8c-20.1 1.8-40 4.7-59.8 8.7zM495.4 1c-13.7-.8-27-1.1-40-1-2 36.9 7.5 154.6 37.8 267.3l35.3-6.3c-.1 0-37.1-148.9-33.1-260z"/><path class="st2" d="M622.8 327.6c-9.9 5.7-20.1 11.2-31.1 14.5-11.3 3.3-23.4 5.1-35 7.1-7.2 1.2-14.3 2.3-21.4 3.3l-2.7.4c-49.8 6.5-97.1 6.4-147.4 3.3-13.2-.8-26.6-1.8-40.3-3l-1.8-.1-.8-.1h2.4c36.1-.5 94.3-4.3 142.8-20.8 10-3.4 19.7-7.4 29.1-12.3l1-.5c12.1-6.4 22.8-13.9 31.6-22.9 2.6-2.7 5.2-5.2 7.7-7.6 2.9-2.7 5.7-5.2 8.5-7.6 32.4-27 57.7-29.1 73-26.4 5.4.9 10.6 2.7 15.3 5.5.8.5 1.2.8 1.2.8 3.5 3.6 6.2 7.9 7.8 12.7.6 1.9 1 3.9 1.1 5.9 1.4 19-21.2 36.4-41 47.8z"/><path class="st3" d="M578.6 303.1s-8.3 11.3-46.8 24.4c-28.9 9.8-74.6 20.7-146.6 28.6-13.2-.8-26.6-1.8-40.3-3l-1.8-.1-.8-.1h-.1c-10.7-.9-21.7-1.9-32.8-3-13.9-1.3-43.2-4.1-43.2-4.1-8.2-.8-16.6-1.6-25.1-2.4h-.3c-4.1-.4-8-.7-11.8-.9-9.4-.6-18.9-.7-28.4-.3-.2-1-.3-2.1-.5-3.2 4.9-2.2 12.9-5.8 23.8-10.3 7.5-3.1 16.5-6.6 26.7-10.4 12.2-4.6 26.3-9.5 42.1-14.7 13.6-4.4 28.5-9 44.5-13.6 17.3-4.9 35.9-9.8 55.7-14.4 15.3-3.6 31.4-7 48.2-10.3 15.8-3 32.2-5.9 49.2-8.5 11.7-1.8 23.6-3.4 35.9-4.9 8.4-1 16.9-2 25.5-2.9.5 1.3 1 2.6 1.4 3.9.5 1.5 1.1 2.9 1.7 4.3.9 2.4 1.9 4.7 2.8 7 .2.5.4.9.6 1.4.3.7.6 1.3.9 2l.2.4c.5 1.1.9 2.1 1.4 3.2.1.1.1.3.2.4l1.5 3.3c.5 1.1 1.1 2.3 1.7 3.5l.8 1.7.5 1c1.7 3.2 3.3 6.4 5.1 9.4.4.7.9 1.5 1.3 2.2.2.3.3.5.5.8.7 1.2 1.4 2.3 2.2 3.5.4.7.9 1.4 1.3 2.1 1 1.4 1.9 2.7 2.8 4z"/><path class="st1" d="M400.4 286.8l14.7 15.7 21.2-3.1-10.4 18.7 9.6 19.3-21.1-4.1-15.4 15-2.6-21.3-19-10 19.5-9zm-55.6 66l.1.3-1.8-.1-.8-.1h-.1c-10.7-.9-21.7-1.9-32.8-3l-.2-1.9-18.7-10.6 19.8-8.4 4.2-20.6.1-.4.3.3 13.9 15.9 21.3-2.5-11 18.4 5.7 12.7zm-111.7-18.7l8.1 9.3h-.3c-4.1-.4-8-.7-11.8-.9l1.5-7.4.6-3.1 1.9 2.1zm253.3-66.7L500 284l21.4-1.8-11.6 18.1 8.2 19.8-20.7-5.5-16.3 14-1.2-21.4-18.3-11.2 20-7.8zm71.9-1.8l-19.9 7.7 18.3 11.2 1.2 21.4 14.5-12.4c-5.4-8.9-10.1-18.2-14.1-27.9z"/><path class="st6" d="M198.6 282.1c-1.3-.2-2.6-.3-4-.3-1-4.4-2.1-9.2-3.2-14.2-1.4-5.5-2.9-11.3-4.3-17.3-.3-1.5-.7-3-1-4.6s-.8-3-1.2-4.6l-2.4-9.3c-1.5-6.3-3.5-12.6-5.3-18.9l-1.4-4.7-1.5-4.7c-1-3.1-2.1-6.2-3.1-9.3s-2.2-6.1-3.3-9.1-2.2-5.9-3.3-8.8c-2.4-5.7-4.5-11.3-6.9-16.4l-3.4-7.6-3.4-6.9c-1-2.2-2.2-4.3-3.2-6.3s-2-3.9-3-5.6-1.9-3.4-2.8-4.9c-.9-1.5-1.7-2.9-2.5-4.1-1.5-2.4-2.8-4.3-3.6-5.6s-1.4-1.9-1.4-1.9l.4-.3s.5.6 1.4 1.9 2.3 3.1 3.9 5.5l2.6 4c.9 1.5 1.9 3.1 3 4.8s2.1 3.6 3.2 5.6 2.3 4 3.5 6.2l3.6 6.9 3.6 7.5c.6 1.3 1.3 2.6 1.9 3.9l1.8 4.1c1.2 2.7 2.4 5.5 3.7 8.4s2.4 5.8 3.6 8.8 2.5 5.9 3.5 9 2.2 6.2 3.4 9.3l1.7 4.7 1.5 4.7c2 6.3 4.2 12.6 6 18.9.9 3.1 1.8 6.3 2.7 9.3.4 1.5.9 3.1 1.3 4.6s.8 3.1 1.1 4.6c1.4 6.1 2.8 11.9 4 17.5 1.1 5.1 2 10.4 2.8 15.2zm-6.1-203s.4.7 1.3 2.2 2 3.5 3.3 6.2 3 6 4.9 9.8c.9 1.9 1.8 4 2.8 6.1s2 4.4 3 6.8 2.1 4.9 3.2 7.4 2.1 5.3 3.2 8l1.7 4.2c.5 1.4 1.1 2.9 1.6 4.3 1.1 2.9 2.2 5.9 3.3 9 2.1 6.1 4.4 12.4 6.4 19s4.3 13.1 6.1 19.7 4 13.3 5.7 19.9 3.6 13 5 19.4 2.8 12.5 4 18.3 2.1 11.4 2.9 16.5c.4 2.6.8 5 1.2 7.3s.7 4.6.9 6.6c.6 4.2 1 7.8 1.4 10.8.8 6 1.1 9.5 1.1 9.5l-.5.1s-.9-3.4-2.3-9.2c-.7-2.9-1.6-6.5-2.5-10.6-.5-2.1-.9-4.2-1.4-6.5s-1.1-4.7-1.7-7.2c-1.2-5-2.4-10.5-3.7-16.3s-2.9-11.8-4.3-18.1c-.7-3.2-1.4-6.4-2.2-9.6s-1.5-6.5-2.3-9.8c-1.5-6.6-3.3-13.3-5-19.9s-3.7-13.3-5.6-19.8-4-12.9-5.9-19c-2.1-6.1-4-12.1-6.1-17.6l-2.9-8.1c-1-2.6-2-5.1-2.9-7.5s-1.9-4.7-2.8-6.9-1.7-4.3-2.6-6.2c-1.7-3.8-3.2-7.2-4.5-9.9s-2.4-4.9-3.1-6.3l-1.2-2.2.5-.4zm316.2-16.2s.8 11.2 2.6 27.9c.5 4.2 1 8.7 1.6 13.5s1.2 9.8 1.9 15c.3 2.6.7 5.3 1 7.9.3 2.7.8 5.4 1.2 8.1.8 5.5 1.7 11 2.6 16.5s2 11 3 16.4 2.2 10.7 3.2 15.8 2.1 10.1 3 14.8c1 4.7 2 9.1 2.9 13.2s1.9 7.8 2.7 11.1 1.6 6.2 2.2 8.5c1.3 4.7 2 7.5 2 7.5l-.5.2s-1.2-2.5-3.1-7.1c-1-2.3-2.2-5-3.3-8.3s-2.5-6.9-3.7-10.9-2.5-8.5-3.7-13.1-2.3-9.7-3.4-14.9c-.9-5.2-1.9-10.6-2.7-16s-1.7-11-2.4-16.6-1.5-11.1-2.1-16.6c-.3-2.7-.6-5.5-.9-8.2-.3-2.7-.5-5.4-.8-8-1.1-10.5-1.8-20.3-2.3-28.7-1.1-16.8-1.4-28-1.4-28h.4z"/><path class="st4" d="M410.5 277.1l5.8-1.4c3.7-.9 9-2.1 15.4-3.5s13.8-3.1 21.8-4.8l25.1-4.9 12.7-2.6c4.2-.9 8.4-1.6 12.4-2.2s8-1.1 11.7-1.5c3.7-.4 7.2-.8 10.5-1.1 13-1.3 21.7-1.4 21.7-1.4l.2.2-.2.2s-8.5 2.3-21.3 4.8c-3.2.6-6.7 1.3-10.3 1.9s-7.6 1.3-11.6 1.9-8.2 1-12.4 1.7l-12.8 1.9-25.2 3.9-21.9 3.7c-6.4 1.1-11.8 2-15.5 2.7l-5.9 1.1-.3-.2.1-.4z"/><path class="st7" d="M155.9 93.3l.9 1.4c.6.9 1.4 2.3 2.6 4l1.8 2.8 2 3.4c1.4 2.5 3.1 5.2 4.6 8.3s3.3 6.5 5.1 10 3.4 7.5 5.3 11.4 3.6 8.1 5.4 12.3l5 13c.8 2.2 1.7 4.3 2.5 6.5.4 1.1.8 2.2 1.2 3.2s.7 2.2 1.1 3.3c1.5 4.3 2.8 8.6 4.2 12.8s2.4 8.2 3.4 12c.9 3.9 1.7 7.6 2.4 11 2.8 13.7 4 22.9 4 22.9l-.5.1s-3.3-8.8-7.3-22c-1-3.3-2-6.9-3.1-10.8-1.3-3.8-2.6-7.7-3.8-11.9s-2.5-8.4-3.7-12.8l-.9-3.3c-.3-1.1-.7-2.2-1.1-3.3l-2.2-6.6c-1.5-4.4-3-8.8-4.4-13.1s-3.3-8.4-4.9-12.4-3-8-4.7-11.6l-4.5-10.3c-1.4-3.2-3-6-4.2-8.5-.6-1.3-1.2-2.4-1.8-3.5s-1.1-2-1.6-2.9c-1-1.8-1.7-3.2-2.3-4.1l-.9-1.4.4.1zm84.6-38.5l8.3 34.8c2.5 10.4 5.5 22.6 8.7 35.6 1.6 6.5 3.2 13.3 4.9 20.1s3.4 13.8 5.1 20.7 3.5 13.9 5.3 20.7 3.5 13.5 5.1 20 3.1 12.8 4.6 18.8 2.8 11.6 3.9 16.9 2.3 10 3.3 14.3 1.9 8 2.5 11c1.4 6.1 2.1 9.6 2.1 9.6l-.5.1s-1.2-3.4-3.2-9.3c-1-3-2.2-6.6-3.6-10.7s-2.9-8.8-4.3-14-3.1-10.8-4.7-16.7-3.4-12.2-4.9-18.7-3.1-13.3-4.7-20.2-3.1-13.9-4.7-20.9-3.1-14-4.6-20.9-3-13.7-4.4-20.2l-4.1-18.9-3.5-17c-4.3-21-7.2-35.1-7.2-35.1h.6zm109.8-33.9s2.1 14.7 5.5 36.6c1.8 11 3.9 23.8 6.1 37.5 1.2 6.8 2.3 13.9 3.6 21.1s2.5 14.5 3.9 21.8 2.7 14.6 4.1 21.7 2.8 14.2 4.2 21 2.6 13.4 3.8 19.6c.6 3.1 1.1 6.2 1.8 9.1s1.1 5.8 1.7 8.5c1 5.4 2.1 10.4 3 14.8s1.7 8.3 2.4 11.4c1.5 6.3 2.2 10 2.2 10h-.6s-1.3-3.5-3.4-9.6c-.5-1.5-1.1-3.2-1.7-5.1s-1.2-3.9-1.8-6.1c-1.2-4.4-2.7-9.2-4-14.6s-2.9-11.2-4.2-17.5-2.9-12.8-4.1-19.6-2.6-13.9-3.7-21.1c-.6-3.6-1.2-7.2-1.8-10.9-.6-3.6-1.1-7.3-1.7-11-1.2-7.3-2.3-14.7-3.3-21.9s-2.1-14.3-3.1-21.2c-2-13.8-3.6-26.6-5-37.6-2.8-22-4.4-36.8-4.4-36.8l.5-.1zM488.5 10s.2 12.2 1.3 30.4c.5 9.1 1.2 19.7 2.1 31.1.4 5.7 1 11.5 1.5 17.5s1.2 12 1.9 18 1.4 12.1 2.2 18c.9 5.9 1.5 11.8 2.4 17.4s1.4 11.1 2.2 16.2c.4 2.6.7 5.1 1 7.5s.6 4.8 1 7c.7 4.5 1.3 8.6 1.8 12.3.2 1.8.6 3.5.8 5.1s.5 3 .7 4.4c.8 5.3 1.2 8.3 1.2 8.3l-.5.1s-.9-2.9-2.4-8c-.7-2.6-1.7-5.7-2.6-9.3s-1.8-7.7-2.8-12.2-1.9-9.4-2.9-14.5-1.7-10.6-2.6-16.3-1.4-11.6-1.9-17.5c-.6-6-1-12-1.6-18.1s-.9-12.2-1.3-18.1-.7-11.9-1-17.6-.5-11.2-.7-16.5-.3-10.2-.4-14.7c-.1-18.3.1-30.5.1-30.5h.5z"/></g></svg>