<svg version="1.2" baseProfile="tiny" xmlns="http://www.w3.org/2000/svg" viewBox="0 0 200 200"><switch><g><linearGradient id="a" gradientUnits="userSpaceOnUse" x1="51.869" y1="60.19" x2="51.869" y2="255.464"><stop offset="0" stop-color="#f7af04"/><stop offset="1" stop-color="#f42014"/></linearGradient><circle fill="url(#a)" cx="51.9" cy="81.2" r="45.4"/><radialGradient id="b" cx="53.002" cy="41.19" r="76.539" gradientUnits="userSpaceOnUse"><stop offset="0" stop-color="#f6d201"/><stop offset=".326" stop-color="#f6cd01" stop-opacity=".674"/><stop offset=".709" stop-color="#f7bf03" stop-opacity=".291"/><stop offset="1" stop-color="#f7af04" stop-opacity="0"/></radialGradient><path fill="url(#b)" d="M51.9 121.6c-22.3 0-40.4-18.1-40.4-40.4 0-22.3 18.1-40.4 40.4-40.4S92.2 59 92.2 81.2c0 22.3-18.1 40.4-40.3 40.4z"/><path fill="#FFF" d="M77.7 101.4c-5.9 7.8-15.3 12.8-25.8 12.8s-19.9-5-25.8-12.8c3.1-11.3 13.5-19.6 25.8-19.6s22.6 8.3 25.8 19.6z"/><circle fill="#FFF" cx="51.9" cy="71.4" r="13.4"/><linearGradient id="c" gradientUnits="userSpaceOnUse" x1="148.131" y1="80.523" x2="148.131" y2="319.733"><stop offset="0" stop-color="#f7af04"/><stop offset="1" stop-color="#f42014"/></linearGradient><circle fill="url(#c)" cx="148.1" cy="118.8" r="45.4"/><radialGradient id="d" cx="152.335" cy="88.857" r="71.034" gradientUnits="userSpaceOnUse"><stop offset="0" stop-color="#f6d201"/><stop offset=".326" stop-color="#f6cd01" stop-opacity=".674"/><stop offset=".709" stop-color="#f7bf03" stop-opacity=".291"/><stop offset="1" stop-color="#f7af04" stop-opacity="0"/></radialGradient><path fill="url(#d)" d="M148.1 159.1c-22.3 0-40.4-18.1-40.4-40.4 0-22.3 18.1-40.4 40.4-40.4s40.4 18.1 40.4 40.4c0 22.3-18.1 40.4-40.4 40.4z"/><path fill="#FFF" d="M173.9 138.9c-5.9 7.8-15.3 12.8-25.8 12.8s-19.9-5-25.8-12.8c3.1-11.3 13.5-19.6 25.8-19.6s22.7 8.3 25.8 19.6z"/><circle fill="#FFF" cx="148.1" cy="108.9" r="13.4"/><path d="M111.1 155c-.6-.7-1.6-1-2.5-.8-2.8.4-5.7.7-8.6.7-16.5 0-31.3-7.3-41.3-18.9l8.2 1.3.9-5.5-17.8-2.9-3 17.8 5.5.9 1.4-8.7C65 152 81.5 160.3 100 160.3c3.3 0 6.5-.3 9.6-.8 2.2-.2 3.1-2.9 1.5-4.5zm36.3-102.6l-1.4 8.5c-11.1-13-27.6-21.3-46-21.3-3.3 0-6.5.3-9.6.8-2.2.3-3.1 3-1.5 4.6.6.7 1.6 1 2.5.8 2.8-.4 5.7-.7 8.6-.7 16.5 0 31.3 7.4 41.4 18.9l-8.4-1.4-.9 5.5 17.8 2.9 2.9-17.8-5.4-.8z" fill="#1A9EFE"/></g></switch></svg>