<svg xmlns="http://www.w3.org/2000/svg" viewBox="0 0 1235.1 601.5"><circle opacity=".15" fill="#FFF" cx="244.3" cy="318.6" r="4"/><path fill="#F1F2F2" d="M102.6 552.7h152.9c9.3 0 16.8-7.5 16.8-16.8V313.3c0-9.3-7.5-16.8-16.8-16.8H102.6c-9.3 0-16.8 7.5-16.8 16.8V536c.1 9.2 7.6 16.7 16.8 16.7z"/><path fill="#BCBEC0" d="M174.8 305v-.6c0-.1.1-.2.1-.3 0-.1.1-.2.1-.3 0-.1.1-.2.1-.3.1-.1.1-.2.2-.3.1-.1.1-.2.2-.3l.3-.3c.1-.1.3-.2.4-.3.2-.1.4-.2.7-.3.2 0 .4-.1.6-.1s.4 0 .6.1c.2.1.5.1.7.3.1.1.3.2.4.3l.3.3c.1.1.1.2.2.3.1.1.1.2.2.3 0 .1.1.2.1.3 0 .1.1.2.1.3 0 .1.1.2.1.3v1.4c0 .1-.1.2-.1.3 0 .1-.1.2-.1.3 0 .1-.1.2-.1.3-.1.1-.1.2-.2.3-.1.1-.1.2-.2.3l-.3.3c-.1.1-.3.2-.4.3l-.6.3c-.2.1-.4.1-.7.1-.2 0-.5 0-.7-.1-.2-.1-.4-.1-.6-.3-.1-.1-.3-.2-.4-.3l-.3-.3c-.1-.1-.1-.2-.2-.3-.1-.1-.1-.2-.2-.3 0-.1-.1-.2-.1-.3 0-.1-.1-.2-.1-.3 0-.1-.1-.2-.1-.3v-.7c-.1 0 0 0 0-.1z"/><circle fill="#FFF" cx="177.5" cy="305.2" r="1"/><path fill="#1A9EFE" d="M99.8 537.1h158.5c2.8 0 5-2.2 5-5v-215c0-2.8-2.2-5-5-5H99.8c-2.8 0-5 2.2-5 5v215c0 2.8 2.3 5 5 5z"/><path fill="#1A9EFE" d="M224.3 371.7v5.9h92.2v-5.9c0-4.5-3.6-8.2-8.1-8.2h-12.2c-1.2 0-2.1 1-2.1 2.2v3c0 1.2-1 2.2-2.1 2.2h-43.1c-1.2 0-2.1-1-2.1-2.2v-3c0-1.2-1-2.2-2.1-2.2h-12.2c-4.6.1-8.2 3.7-8.2 8.2z"/><path fill="#F1F2F2" d="M217.2 408.4l.4-.1v-40.5c0-7.3 5.9-13.3 13.3-13.3H310c7.3 0 13.3 5.9 13.3 13.3V383c.4.1.7.4.7.9v6.7c0 .4-.3.8-.7.9v7.6c.4.1.7.4.7.9v16.9c0 .4-.3.8-.7.9v4c.4.1.7.4.7.9v16.9c0 .4-.3.8-.7.9V554c0 7.3-5.9 13.3-13.3 13.3h-79.2c-7.3 0-13.3-5.9-13.3-13.3V434.1l-.4-.1c-.4-.1-.7-.4-.7-.9v-23.9c.1-.4.4-.7.8-.8z"/><path fill="#1A9EFE" d="M224.3 371.7v178.4c0 4.5 3.6 8.2 8.1 8.2h76.1c4.5 0 8.1-3.7 8.1-8.2V371.7c0-4.5-3.6-8.2-8.1-8.2h-12.2c-1.2 0-2.1 1-2.1 2.2v3c0 1.2-1 2.2-2.1 2.2H249c-1.2 0-2.1-1-2.1-2.2v-3c0-1.2-1-2.2-2.1-2.2h-12.2c-4.7.1-8.3 3.7-8.3 8.2z"/><path fill="#ECECED" d="M232.4 364.2h12.2c.8 0 1.5.7 1.5 1.5v3c0 1.6 1.3 2.9 2.8 2.9H292c1.6 0 2.8-1.3 2.8-2.9v-3c0-.8.7-1.5 1.5-1.5h12.2c4.1 0 7.4 3.4 7.4 7.5v178.4c0 4.1-3.3 7.5-7.4 7.5h-76.1c-4.1 0-7.4-3.4-7.4-7.5V371.7c0-4.1 3.3-7.5 7.4-7.5m0-.7c-4.5 0-8.1 3.7-8.1 8.2v178.4c0 4.5 3.6 8.2 8.1 8.2h76.1c4.5 0 8.1-3.7 8.1-8.2V371.7c0-4.5-3.6-8.2-8.1-8.2h-12.2c-1.2 0-2.1 1-2.1 2.2v3c0 1.2-1 2.2-2.1 2.2H249c-1.2 0-2.1-1-2.1-2.2v-3c0-1.2-1-2.2-2.1-2.2h-12.4z"/><path opacity=".38" fill="#58595B" d="M262.6 367.5h15.7c.3 0 .5-.2.5-.5v-.3c0-.3-.2-.5-.5-.5h-15.7c-.3 0-.5.2-.5.5v.3c0 .3.2.5.5.5z"/><circle opacity=".38" fill="#58595B" cx="258.4" cy="367" r="1.2"/><circle fill="#ECECED" cx="258.4" cy="367" r=".6"/><path fill="#F1F2F2" d="M335.8 441.2h14.5V434h-14.5v7.2zm28.9 0h14.5V434h-14.5v7.2zm28.9 0h14.5V434h-14.5v7.2zm31 0H439V434h-14.5v7.2zm28.9 0H468V434h-14.5v7.2zm51.7 0h14.5V434h-14.5v7.2zm29 0h14.5V434h-14.5v7.2zm28.9 0h14.5V434h-14.5v7.2zm28.9 0h14.5V434H592v7.2zm28.9 0h14.5V434h-14.5v7.2zm28.9 0h14.5V434h-14.5v7.2zm29 0h14.5V434h-14.5v7.2zm28.9 0h14.5V434h-14.5v7.2zm28.9 0h14.5V434h-14.5v7.2zm28.9 0H780V434h-14.5v7.2zm53.8 0h14.5V434h-14.5v7.2zm28.9 0h14.5V434h-14.5v7.2zm28.9 0h14.5V434h-14.5v7.2zm29 0h14.5V434h-14.5v7.2zm28.9 0h14.5V434H935v7.2z"/><path fill="#1A9EFE" d="M635.8 575.7c1.3.3 2.7.5 4.1.6.9.1 1.8.1 2.7.1 2.3 0 4.5-.2 6.8-.7 309.2-63 287.7-384.6 277.1-466-1.5-11.3-10.1-20.7-22.1-24L651.6 16.6c-2.9-.8-6-1.2-9-1.2-.9 0-1.8.1-2.7.1-2.1.1-4.2.5-6.3 1.1L380.8 85.7c-11.9 3.3-20.7 12.7-22.1 24-10.6 81.5-32 403.1 277.1 466z"/><path opacity=".1" fill="#18162E" d="M890.3 120.5L642.6 52.8v152.6c5.5-1.1 11.1-1.8 16.7-2.2 12-.9 23.9.5 35.7 2.1 9.7 1.3 19.3 3.3 28.7 5.5 8.8 2.1 18.1 3.7 26.5 7.1 10.1 4.1 19.3 9.7 26.2 18.1 7.1 8.7 11.6 17.2 15.6 27.7 2.6 6.9 4.3 14.1 5.5 21.3 1.3 8.1 2.8 16.3 2.1 24.5-1.2 14.1-5.1 28-13.5 39.6-8.5 11.9-18.8 21.5-31.2 29.3-23.1 14.5-50.8 21.3-77.8 23.3-11.3.8-23.1.6-34.6-1.1v138.2c63.9-13.1 116.4-39.3 156-77.9 32.9-32.1 57.7-73.4 73.8-123 28.4-86.8 22.7-177 18-217.4z"/><path fill="#FFC12E" d="M794.5 295.8c0 34.7-11.6 66.8-31.1 92.5-28 36.8-72.2 60.6-122 60.6s-94-23.8-122-60.6c-19.5-25.7-31.1-57.8-31.1-92.6 0-84.6 68.6-153.1 153.1-153.1 84.5.1 153.1 68.6 153.1 153.2"/><path fill="#FFF" d="M641.3 479.9c-58 0-111.5-26.5-146.6-72.8-24.5-32.2-37.4-70.7-37.4-111.2 0-101.5 82.6-184 184-184 101.5 0 184 82.5 184 184 0 40.6-12.9 79-37.4 111.2-35.1 46.2-88.5 72.8-146.6 72.8m0-330.6c-80.8 0-146.6 65.7-146.6 146.6 0 32.3 10.3 62.9 29.8 88.6 28 36.9 70.6 58 116.8 58s88.8-21.1 116.8-58c19.5-25.6 29.8-56.3 29.8-88.6 0-80.9-65.8-146.6-146.6-146.6"/><path fill="#FFF" d="M641.9 329.7c15.3 0 27.7 12.4 27.7 27.7 0 15.3-12.4 27.7-27.7 27.7s-27.7-12.4-27.7-27.7c0-15.3 12.4-27.7 27.7-27.7"/><path fill="#FFF" d="M708.1 290.6c-.4-.4-.8-.8-1.3-1.2l-1.2-1.2c-.2-.2-.4-.4-.7-.6-35.9-32.6-90.7-31.3-124.9 2.9l-4 4-5.6 5.6c-6.8 6.8-6.7 17.8 0 24.6 6.8 6.8 17.8 6.8 24.6 0l9.6-9.6c21.8-21.7 57.2-21.7 78.9 0l6.9 6.7c6.7 6.7 17.6 6.7 24.4-.1 3.3-3.2 5-7.6 5.1-12.2 0-4.6-1.8-8.9-5-12.1l-6.8-6.8z"/><path fill="#FFF" d="M755.4 256.3l-5.8-5.8-.1-.1-4.5-4.6c-.8-.8-1.7-1.5-2.6-2.1-58.4-51.3-147.3-49.7-203.9 4.7-.3.3-.6.4-.9.7l-10.4 10.4c-6.2 6.1-6.1 16.2.1 22.4 6.2 6.2 16.2 6.2 22.4 0l10.4-10.4c.1-.1.1-.2.2-.2 45.7-44.2 118.3-44.5 164.4-.9l8.2 8.2c6.2 6.2 16.2 6.1 22.4-.1 6.2-6 6.2-16 .1-22.2"/><path fill="#1A9EFE" d="M1094.6 303.3c-74.1 0-134.3 60.2-134.3 134.3 0 29.6 9.4 57.7 27.3 81.2 25.6 33.8 64.6 53.1 107 53.1 42.4 0 81.4-19.4 107-53.1 17.9-23.5 27.3-51.6 27.3-81.2 0-74.1-60.3-134.3-134.3-134.3"/><path fill="#FFF" d="M1000 509.3c-11.4-15-18.8-32.1-22.1-50.3 7.7 1.4 15.9 2 23.4 4.1 17.8 5 33.1 21.6 32.4 40.1-.2 6.4-2.1 13.5 1.7 18.7 5.1 7 15.8 5 24.2 7.4 7.9 2.2 14.2 9.2 15.5 17.3.4 2.6.2 5.2-.4 7.8-29.6-4.9-56.2-20.6-74.7-45.1m93 46.9c2.3-4.5 5.3-8.8 8.1-12.8 6.2-8.7 12.1-19.9 7.6-29.7-3.8-8.1-13.4-11.7-22.3-12.5-8.9-.8-18 .5-26.7-1.7-16.6-4-28.8-21.4-26.9-38.4 1.5-13.5 10.4-24.9 19.8-34.6 9.4-9.7 19.9-18.9 26.1-31 7.8-15.4 7.4-34 2.5-50.5-2.3-8.1-5.6-16.2-9.5-24 7.4-1.5 15.1-2.3 22.9-2.3 15.5 0 30.3 3.1 43.9 8.5-12.3 12.7-15.7 38.1-11.1 52.2 6.7 20.7 26.8 3.9 39.4.8 13.7-3.3 26.9 5.3 38.2 13.9 2.9 7.4 5 15.1 6.4 23-1.9 0-3.8.1-5.5.3-9.6 1-19.3 7-21.6 16.3-2.3 9 2.1 20.5-4.8 26.7-7.4 6.7-19.4-.3-29.2 2-6.3 1.5-11 6.9-13.4 12.8-2.4 6-2.9 12.5-3.4 18.9-1.1 15.4-2.2 30.8-3.2 46.3-.2 3.3-.3 6.7.3 9.9-11.5 3.6-23.5 5.7-36 5.7-.5.3-1 .2-1.6.2"/><path fill="#1A90E9" stroke="#F1F2F2" stroke-width="9" stroke-miterlimit="10" d="M127.7 527.9c0 33.5-27.2 60.7-60.7 60.7S6.3 561.4 6.3 527.9s27.2-60.7 60.7-60.7 60.7 27.2 60.7 60.7"/><g fill="#FFF"><circle cx="94.9" cy="514.1" r="9.6"/><circle cx="39.1" cy="514.1" r="9.6"/><path d="M101 524.8c-1.7 1.4-3.8 2.3-6.1 2.3s-4.4-.9-6.1-2.3c-.9.2-1.8.3-2.6.8 3.1 2.1 4.9 5.8 4.9 9.8V547c0 .6 0 1.2-.2 1.7h9.2c4.4 0 8.1-3.7 8.1-8.1V533c0-4.4-3.2-7.7-7.2-8.2zm-58.1 10.4c0-4 2-7.5 4.9-9.8-.8-.3-1.7-.6-2.6-.8-1.7 1.4-3.8 2.3-6.1 2.3s-4.4-.9-6.1-2.3c-4 .5-7.2 3.8-7.2 7.9v7.6c0 4.4 3.7 8.1 8.1 8.1h9.2c-.2-.6-.2-1.1-.2-1.7v-11.3zm38.7-8.3c-1.7-1.2-3.7-2-5.8-2.3-2.4 2.1-5.7 3.4-9.2 3.4s-6.7-1.4-9.2-3.4c-2.1.3-4.1 1.1-5.8 2.3-3.1 2.1-4.9 5.8-4.9 9.8v11.6c0 .6 0 1.2.2 1.7.9 5.8 5.8 10.4 11.9 10.4h15.9c6.1 0 11-4.6 11.9-10.4.2-.6.2-1.1.2-1.7v-11.6c-.1-4.2-2.1-7.7-5.2-9.8z"/><circle cx="66.7" cy="509.9" r="14.4"/></g></svg>