<svg version="1.1" id="OBJECTS" xmlns="http://www.w3.org/2000/svg" x="0" y="0" viewBox="0 0 488 308.4" xml:space="preserve"><style>.st0{fill:#d0ebfe}</style><path class="st0" d="M58.9 75.8l-4.4-7.2-4 7.4zM58 295l11.3-5.9-10.6-6.9zM120.7 9.8h-14.1l7.1 12.2zM452 82.7l-6 12.7 14-1.2zm-1.8 111.1h-8.4l4.2 7.3zm-115.8 52.7l-.9-8.4-6.8 5zm-158.9.1l-7.3-4.3v8.4zM45.1 172.9l-2.9-12.6-9.5 8.9zM387.4 36.1l.1-18.1-15.7 8.9zm-170 22.3l1.7-8.2-8 2.6z"/><path class="st0" d="M58.9 75.8l-4.4-7.2-4 7.4zM58 295l11.3-5.9-10.6-6.9zM120.7 9.8h-14.1l7.1 12.2zM452 82.7l-6 12.7 14-1.2zm-1.8 111.1h-8.4l4.2 7.3zm-115.8 52.7l-.9-8.4-6.8 5zm-158.9.1l-7.3-4.3v8.4zM45.1 172.9l-2.9-12.6-9.5 8.9zM387.4 36.1l.1-18.1-15.7 8.9zm56.1 97c-2.9 1.7-7.6 1.7-9.6-1.1.1-1.6.2-3.2.4-4.8 2 2.8 6.7 2.8 9.6 1.1-.2 1.6-.3 3.2-.4 4.8zM47.1 0c2.7 3 3.8 8.6.9 11.6-1.9.3-3.9.5-5.8.7C45.1 9.2 44 3.7 41.3.6c2-.1 3.9-.3 5.8-.6zm37 224.4c3.4-7.1-1.8-14.5-6-19.7 2.8-1.8 5.6-3.5 8.6-5.1 4.2 5.2 9.3 12.6 6 19.7-2.9 1.5-5.8 3.3-8.6 5.1zM315.4 30.5c-.4-3.3-3.9-4.8-6.6-5.6.6-1.3 1.2-2.5 1.9-3.8 2.7.9 6.2 2.4 6.6 5.6-.7 1.2-1.3 2.5-1.9 3.8zm-93.3-3.7c-.7-3.1-3.8-5.8-7-6.1 1-1.2 2-2.4 3-3.5 3.2.3 6.3 3 7 6.1-1.1 1.1-2.1 2.3-3 3.5zm126.7 42.3c-3-.9-6.9.4-8.8 3-.6-1.4-1.1-2.9-1.5-4.4 1.8-2.6 5.7-3.9 8.8-3 .5 1.5 1 3 1.5 4.4zm118.5 180c4.3-4.1 5.7-11.7 3.1-17.1 2.9.4 5.7.9 8.5 1.6 2.6 5.4 1.2 13-3.1 17.1-2.7-.6-5.6-1.2-8.5-1.6zm-15.6-19.5c-1.5.4-4.6-1.2-6.3-1 .2-.3 1.3-2 1.5-2.3 1.7-.2 4.8 1.4 6.3 1-.3.3-1.4 2-1.5 2.3zM8.2 124.2c2-5.3 10.8-5.3 13-10.9 1.9 2.1 3.7 4.3 5.4 6.5-2.2 5.6-11 5.6-13 10.9-1.6-2.3-3.4-4.4-5.4-6.5zm314.7 174.4c1.9.1 3.9 0 5.6.8 0 .9 0 1.9-.1 2.8-1.8-.8-3.8-.7-5.6-.8.1-.9.1-1.9.1-2.8zM453.8 38.4c-1.5 2.9-2.9 6.1-5.4 8.3-1.5-.7-2.9-1.5-4.4-2.3 2.5-2.2 3.8-5.4 5.4-8.3 1.5.8 3 1.6 4.4 2.3zm22.1 86.1c1.4 1.6 2.8 3.4 4.9 4.1l-2.4 2.1c-2.1-.7-3.5-2.5-4.9-4.1l2.4-2.1zm-5.8-51.7c4.3-4.6 9.5-9.2 11.1-15.6 2.4 2.1 4.6 4.3 6.8 6.6-1.5 6.4-6.8 11-11.1 15.6-2.2-2.3-4.5-4.5-6.8-6.6zM63.1 115c-3.9-1.6-9.1-.3-11.8 2.9-.6-1.9-1.1-3.9-1.5-5.9 2.7-3.2 7.9-4.5 11.8-2.9.5 2 1 4 1.5 5.9zM150 45.6c-2.9-.2-6.1 1.9-7.1 4.5-.8-1.2-1.6-2.3-2.3-3.6 1-2.7 4.2-4.7 7.1-4.5.8 1.3 1.5 2.5 2.3 3.6zM7.2 212.5c3.6-3.2 10.3.3 14.2-3 .6 2.3 1.1 4.7 1.5 7.1-3.9 3.4-10.5-.2-14.2 3-.4-2.4-.9-4.8-1.5-7.1zM14 76.3c.2-3.6 5.6-5.2 5.9-9 1.5.9 3 1.9 4.5 2.9-.3 3.8-5.6 5.4-5.9 9-1.5-1-3-2-4.5-2.9zm83.4 72c-3.2.5-6.6 1.3-9.8.7-.3-1.6-.6-3.2-.8-4.9 3.3.7 6.6-.1 9.8-.7.2 1.7.4 3.3.8 4.9zm-87-122.5c1.3 3.9 2.3 8.2 5.4 11.1-1.9.7-3.9 1.3-5.8 1.8-3.1-2.8-4.1-7.2-5.4-11.1 2-.5 3.9-1.1 5.8-1.8zM483 167.6c-.9 1.7-2.1 3.5-2 5.5-.9-.4-1.7-.9-2.6-1.4-.1-2 1.1-3.8 2-5.5.8.5 1.7 1 2.6 1.4zM171.5 4.4c3.1 0 6.5.4 9.4-1.2 0 1.6 0 3.1-.1 4.7-2.8 1.6-6.3 1.2-9.4 1.2.1-1.6.1-3.1.1-4.7zM6.8 261.2c-2.5-.8-5-3.6-4.4-6.3 1-.8 2-1.6 3-2.3-.6 2.7 1.9 5.4 4.4 6.3-1 .7-2 1.5-3 2.3zM440.2 283c-4.2-1.3-8.3-5.8-7.4-10.2 1.6-1.4 3.3-2.7 5-3.9-.9 4.4 3.2 8.9 7.4 10.2-1.7 1.3-3.4 2.6-5 3.9zM411 .9c2.7 7.1 11.3 8.5 17.7 9-.6 3.2-1.3 6.3-2.2 9.4-6.4-.5-15-1.9-17.7-9 .9-3.1 1.6-6.3 2.2-9.4zm69.5 287.8c-2.8-1.6-6.9-1.1-9.2 1.1-.3-1.5-.4-3.1-.6-4.6 2.3-2.2 6.5-2.7 9.3-1.1.1 1.6.3 3.1.5 4.6zM397.7 249c2.3 2.4 6.6 3.1 9.6 1.6-.2 1.6-.5 3.2-.8 4.8-3 1.5-7.2.8-9.6-1.6.3-1.6.6-3.2.8-4.8zm-121.9-2.7c-1.9 1.1-3.6 2.2-4.6 3.4.1 1.2 1.2 7.1 1.5 8.2 3.3-3.8 13.3-6.6 15.9-10.6-.1-.2-.1-.5-.2-.9h-12.6zm140.8-80.4c2.4-6.5 13.1-6.6 15.7-13.5 2.4 2.5 4.6 5.1 6.7 7.8-2.6 6.9-13.3 6.9-15.7 13.5-2.1-2.7-4.3-5.3-6.7-7.8zM136.5 285.3c1.9-3.8 4.5-7.7 4.3-12.1 1.9.9 3.8 1.9 5.6 3 .2 4.4-2.4 8.3-4.3 12.1-1.9-1.1-3.7-2.1-5.6-3zm-89.6-38.5c-2.1 1.5-4.7 2.8-5.8 5.3-.8-1.1-1.5-2.1-2.1-3.2 1.2-2.4 3.7-3.8 5.9-5.3.5 1.1 1.2 2.1 2 3.2zm349-38.2c4.2 2.4 8.5 5.5 13.5 5.6-1.2 2.1-2.4 4.2-3.7 6.2-5 0-9.3-3.2-13.5-5.6 1.3-2 2.5-4.1 3.7-6.2zm-170.6 70.9c-5.7 2.1-14 .5-16.7-5.1.6-2.8 1.4-5.6 2.2-8.4 2.7 5.6 11 7.2 16.6 5.1l-2.1 8.4zm167.9-144.3c.6 2.3-.4 5.4-2.6 6.1-1.1-.4-2.1-.8-3.1-1.2 2.3-.8 3.2-3.9 2.6-6.1 1 .5 2 .9 3.1 1.2zM97.7 87.1c1.6-1.5 1-4.1.4-5.9.9-.2 1.9-.4 2.8-.5.6 1.8 1.2 4.3-.4 5.9-.9.1-1.9.3-2.8.5zm319.5-18.6c-2.1-5.9-8.8-10.4-15.1-10.2 1.6-2.6 3.3-5.1 5.1-7.5 6.2-.2 12.9 4.3 15.1 10.2-1.9 2.5-3.6 5-5.1 7.5zm62.2-42.6c.9-4.3-1.6-9.5-5.4-11.6 1.9-1 3.8-1.9 5.8-2.7 3.8 2.1 6.3 7.3 5.4 11.6-1.9.8-3.9 1.7-5.8 2.7zM376 280.6c-.8 2.3-5.5 4.9-6.7 7.2-.3-.5-1.5-3.3-1.7-3.9 1.2-2.3 5.9-4.9 6.7-7.2.2.6 1.4 3.4 1.7 3.9zm34.9-189c4.4 1.9 8.7 11.6 13.1 14.3-1.1.5-6.8 2.5-8 2.8-4.4-2.7-8.7-12.4-13.1-14.3 1.2-.3 6.9-2.3 8-2.8zM3.3 176.1c-2.3-1.8-.9-6-3.3-7.9 1.3-.6 2.6-1.1 4-1.6 2.4 1.9 1 6.1 3.3 7.9-1.4.5-2.7 1-4 1.6zm269.3 130.2c-5.3 3.6-12.7-.5-18.2.9-.2-1.5-.3-3.1-.6-4.6 5-3.5 12.6.8 18.4-1 .2 1.6.3 3.2.4 4.7zM80.5 41.1c-1.4 2.2-2.7 4.5-4.8 6.1-1.1-.7-2.2-1.4-3.2-2.1 2.1-1.6 3.4-3.9 4.8-6.1 1 .7 2.1 1.4 3.2 2.1zm21.1 222.8c-1.2.1-2.4.3-3.6.5-.6 2.6 0 5.4.4 8 1.1-.2 2.1-.3 3.2-.4v-8.1zM5.9 297.8c2.3-1.5 4.9-3 6.2-5.5.8 1.1 1.5 2.3 2.2 3.4-1.3 2.5-3.9 4-6.2 5.5-.6-1.1-1.4-2.3-2.2-3.4z"/><path class="st0" d="M443.5 133.1c-2.9 1.7-7.6 1.7-9.6-1.1.1-1.6.2-3.2.4-4.8 2 2.8 6.7 2.8 9.6 1.1-.2 1.6-.3 3.2-.4 4.8zM47.1 0c2.7 3 3.8 8.6.9 11.6-1.9.3-3.9.5-5.8.7C45.1 9.2 44 3.7 41.3.6c2-.1 3.9-.3 5.8-.6zm37 224.4c3.4-7.1-1.8-14.5-6-19.7 2.8-1.8 5.6-3.5 8.6-5.1 4.2 5.2 9.3 12.6 6 19.7-2.9 1.5-5.8 3.3-8.6 5.1zM315.4 30.5c-.4-3.3-3.9-4.8-6.6-5.6.6-1.3 1.2-2.5 1.9-3.8 2.7.9 6.2 2.4 6.6 5.6-.7 1.2-1.3 2.5-1.9 3.8zm-33.5 20c-5.5-2-10.7 2.4-14.2 5.8-1.6-1.9-3-3.9-4.4-6 3.5-3.5 8.7-7.8 14.2-5.8 1.4 2.1 2.9 4.1 4.4 6zm-104.1-9.6c5.1-.5 10.1-5.1 11.2-10.1 1.8 1.8 3.5 3.7 5.1 5.6-1.1 5.1-6 9.6-11.2 10.1-1.7-1.9-3.4-3.8-5.1-5.6zm289.5 208.2c4.3-4.1 5.7-11.7 3.1-17.1 2.9.4 5.7.9 8.5 1.6 2.6 5.4 1.2 13-3.1 17.1-2.7-.6-5.6-1.2-8.5-1.6zm-15.6-19.5c-1.5.4-4.6-1.2-6.3-1 .2-.3 1.3-2 1.5-2.3 1.7-.2 4.8 1.4 6.3 1-.3.3-1.4 2-1.5 2.3zM8.2 124.2c2-5.3 10.8-5.3 13-10.9 1.9 2.1 3.7 4.3 5.4 6.5-2.2 5.6-11 5.6-13 10.9-1.6-2.3-3.4-4.4-5.4-6.5zm314.7 174.4c1.9.1 3.9 0 5.6.8 0 .9 0 1.9-.1 2.8-1.8-.8-3.8-.7-5.6-.8.1-.9.1-1.9.1-2.8zM453.8 38.4c-1.5 2.9-2.9 6.1-5.4 8.3-1.5-.7-2.9-1.5-4.4-2.3 2.5-2.2 3.8-5.4 5.4-8.3 1.5.8 3 1.6 4.4 2.3zm22.1 86.1c1.4 1.6 2.8 3.4 4.9 4.1l-2.4 2.1c-2.1-.7-3.5-2.5-4.9-4.1l2.4-2.1zm-5.8-51.7c4.3-4.6 9.5-9.2 11.1-15.6 2.4 2.1 4.6 4.3 6.8 6.6-1.5 6.4-6.8 11-11.1 15.6-2.2-2.3-4.5-4.5-6.8-6.6zM63.1 115c-3.9-1.6-9.1-.3-11.8 2.9-.6-1.9-1.1-3.9-1.5-5.9 2.7-3.2 7.9-4.5 11.8-2.9.5 2 1 4 1.5 5.9zM150 45.6c-2.9-.2-6.1 1.9-7.1 4.5-.8-1.2-1.6-2.3-2.3-3.6 1-2.7 4.2-4.7 7.1-4.5.8 1.3 1.5 2.5 2.3 3.6zM7.2 212.5c3.6-3.2 10.3.3 14.2-3 .6 2.3 1.1 4.7 1.5 7.1-3.9 3.4-10.5-.2-14.2 3-.4-2.4-.9-4.8-1.5-7.1zM14 76.3c.2-3.6 5.6-5.2 5.9-9 1.5.9 3 1.9 4.5 2.9-.3 3.8-5.6 5.4-5.9 9-1.5-1-3-2-4.5-2.9zm83.4 72c-3.2.5-6.6 1.3-9.8.7-.3-1.6-.6-3.2-.8-4.9 3.3.7 6.6-.1 9.8-.7.2 1.7.4 3.3.8 4.9zm-87-122.5c1.3 3.9 2.3 8.2 5.4 11.1-1.9.7-3.9 1.3-5.8 1.8-3.1-2.8-4.1-7.2-5.4-11.1 2-.5 3.9-1.1 5.8-1.8zM483 167.6c-.9 1.7-2.1 3.5-2 5.5-.9-.4-1.7-.9-2.6-1.4-.1-2 1.1-3.8 2-5.5.8.5 1.7 1 2.6 1.4zM171.5 4.4c3.1 0 6.5.4 9.4-1.2 0 1.6 0 3.1-.1 4.7-2.8 1.6-6.3 1.2-9.4 1.2.1-1.6.1-3.1.1-4.7zM6.8 261.2c-2.5-.8-5-3.6-4.4-6.3 1-.8 2-1.6 3-2.3-.6 2.7 1.9 5.4 4.4 6.3-1 .7-2 1.5-3 2.3zM440.2 283c-4.2-1.3-8.3-5.8-7.4-10.2 1.6-1.4 3.3-2.7 5-3.9-.9 4.4 3.2 8.9 7.4 10.2-1.7 1.3-3.4 2.6-5 3.9zM411 .9c2.7 7.1 11.3 8.5 17.7 9-.6 3.2-1.3 6.3-2.2 9.4-6.4-.5-15-1.9-17.7-9 .9-3.1 1.6-6.3 2.2-9.4zm69.5 287.8c-2.8-1.6-6.9-1.1-9.2 1.1-.3-1.5-.4-3.1-.6-4.6 2.3-2.2 6.5-2.7 9.3-1.1.1 1.6.3 3.1.5 4.6zM397.7 249c2.3 2.4 6.6 3.1 9.6 1.6-.2 1.6-.5 3.2-.8 4.8-3 1.5-7.2.8-9.6-1.6.3-1.6.6-3.2.8-4.8zm-121.9-2.7c-1.9 1.1-3.6 2.2-4.6 3.4.1 1.2 1.2 7.1 1.5 8.2 3.3-3.8 13.3-6.6 15.9-10.6-.1-.2-.1-.5-.2-.9h-12.6zm140.8-80.4c2.4-6.5 13.1-6.6 15.7-13.5 2.4 2.5 4.6 5.1 6.7 7.8-2.6 6.9-13.3 6.9-15.7 13.5-2.1-2.7-4.3-5.3-6.7-7.8zM136.5 285.3c1.9-3.8 4.5-7.7 4.3-12.1 1.9.9 3.8 1.9 5.6 3 .2 4.4-2.4 8.3-4.3 12.1-1.9-1.1-3.7-2.1-5.6-3zm-89.6-38.5c-2.1 1.5-4.7 2.8-5.8 5.3-.8-1.1-1.5-2.1-2.1-3.2 1.2-2.4 3.7-3.8 5.9-5.3.5 1.1 1.2 2.1 2 3.2zm349-38.2c4.2 2.4 8.5 5.5 13.5 5.6-1.2 2.1-2.4 4.2-3.7 6.2-5 0-9.3-3.2-13.5-5.6 1.3-2 2.5-4.1 3.7-6.2zm-170.6 70.9c-5.7 2.1-14 .5-16.7-5.1.6-2.8 1.4-5.6 2.2-8.4 2.7 5.6 11 7.2 16.6 5.1l-2.1 8.4zm167.9-144.3c.6 2.3-.4 5.4-2.6 6.1-1.1-.4-2.1-.8-3.1-1.2 2.3-.8 3.2-3.9 2.6-6.1 1 .5 2 .9 3.1 1.2zM97.7 87.1c1.6-1.5 1-4.1.4-5.9.9-.2 1.9-.4 2.8-.5.6 1.8 1.2 4.3-.4 5.9-.9.1-1.9.3-2.8.5zm319.5-18.6c-2.1-5.9-8.8-10.4-15.1-10.2 1.6-2.6 3.3-5.1 5.1-7.5 6.2-.2 12.9 4.3 15.1 10.2-1.9 2.5-3.6 5-5.1 7.5zm62.2-42.6c.9-4.3-1.6-9.5-5.4-11.6 1.9-1 3.8-1.9 5.8-2.7 3.8 2.1 6.3 7.3 5.4 11.6-1.9.8-3.9 1.7-5.8 2.7zM376 280.6c-.8 2.3-5.5 4.9-6.7 7.2-.3-.5-1.5-3.3-1.7-3.9 1.2-2.3 5.9-4.9 6.7-7.2.2.6 1.4 3.4 1.7 3.9zm34.9-189c4.4 1.9 8.7 11.6 13.1 14.3-1.1.5-6.8 2.5-8 2.8-4.4-2.7-8.7-12.4-13.1-14.3 1.2-.3 6.9-2.3 8-2.8zM3.3 176.1c-2.3-1.8-.9-6-3.3-7.9 1.3-.6 2.6-1.1 4-1.6 2.4 1.9 1 6.1 3.3 7.9-1.4.5-2.7 1-4 1.6zm269.3 130.2c-5.3 3.6-12.7-.5-18.2.9-.9.2-1.7.6-2.5 1.1-.2-3.5-.5-6.9-1-10.4 5.7-4 14.6 2.2 20.7-2 .3 1.9.5 3.8.7 5.7.1 1.6.2 3.2.3 4.7zM80.5 41.1c-1.4 2.2-2.7 4.5-4.8 6.1-1.1-.7-2.2-1.4-3.2-2.1 2.1-1.6 3.4-3.9 4.8-6.1 1 .7 2.1 1.4 3.2 2.1zm21.1 222.8c-1.2.1-2.4.3-3.6.5-.6 2.6 0 5.4.4 8 1.1-.2 2.1-.3 3.2-.4v-8.1zM5.9 297.8c2.3-1.5 4.9-3 6.2-5.5.8 1.1 1.5 2.3 2.2 3.4-1.3 2.5-3.9 4-6.2 5.5-.6-1.1-1.4-2.3-2.2-3.4zM280.8 12.3c-3.2.7-6.7 1.1-9.3 3.3-.4-1.6-.7-3.2-.9-4.8 2.5-2.2 6.1-2.6 9.3-3.3.2 1.6.5 3.2.9 4.8zM147.7 79.7c-2.8-1.7-5.7-3.8-9-3.9.8-1.4 1.7-2.8 2.6-4.1 3.4.1 6.2 2.3 9 3.9-.9 1.3-1.8 2.7-2.6 4.1z"/></svg>