<svg version="1.2" baseProfile="tiny" xmlns="http://www.w3.org/2000/svg" viewBox="0 0 200 200"><switch><g><linearGradient id="a" gradientUnits="userSpaceOnUse" x1="96.035" y1="18.814" x2="96.035" y2="384.844"><stop offset="0" stop-color="#f1f2f2"/><stop offset="1" stop-color="#d1d3d4"/></linearGradient><circle fill="url(#a)" cx="96" cy="110.5" r="68.8"/><g fill="#D3D3D5"><path d="M140.9 58.4c-1.8 2.8-3.1 5.9-4 9.1-1 3.8-1.9 7.7.6 11 1.4 1.8 3.1 3.3 4.7 4.9s2.8 3.7 2.9 6c.1 3.7-3.4 5.3-4.8 8.4-1.5 3.2-1.6 7.1-.4 10.4 2 5.3 7.9 8.5 12.8 10.9 2.2 1.1 4.4 1.8 6.5 0 2.1-1.8 4-3.7 5.7-5.8 0-.9.1-1.9.1-2.8-.1-20.8-9.5-39.5-24.1-52.1zm-38-4.1c1.3.7 2.8.6 4.3.3 2.5-.4 5-1.2 7.2-2.5s4-3.4 4.7-5.8c.1-.2.1-.4.2-.6-7.3-2.6-15.1-4-23.2-4-2.3 0-4.5.1-6.7.3.3.6.5 1.1.8 1.7.8 1.6 1.7 3.3 3.4 3.8 1.3.4 2.8-.1 4.2.3 2.6 1 2.7 5.1 5.1 6.5zM96.1 107c-2.6-1.4-6-4.1-9-4-3.3.1-6 .5-9.3-.7-2.3-.8-4.6-2-6.9-1.4-1.7.5-3.1 2.1-3 3.8 0 2.7 3.2 4.4 5.8 4.2 2.3-.1 4.7-1.2 6.9-.7 2.5.5 4.2 2.7 6.5 3.9 2.2 1.1 4.8 1.1 7.2 1.1 1 0 1.9 0 2.8-.3.9-.3 1.7-1.1 1.9-2 .5-1.8-1.3-3.1-2.9-3.9z"/><path d="M82.3 172.7c-.8 1.6-2 3.1-3.1 4.5 4.3 1.1 8.8 1.8 13.3 2-1.2-1.6-1.8-4-.2-5 .8-.6 1.9-.5 2.9-.4 4.9.2 9.9-1.2 13.9-3.9 2.7-1.8 2.3-7 5-8.8h.8c3.2-.3 14.3-1.9 11.6-12 1.6-2.4 3-4.9 4.1-7.5.6-1.5 1.2-3.2.6-4.8-.8-2.4-3.8-3.4-6.4-3.4s-5.2.5-7.6-.4c-3.9-1.5-6.4-6.6-10.6-6.3-2.4.2-5.1 2.2-7.1.8-.9-.7-1.2-1.8-1.8-2.7-2.6-4-8.9-2.4-13.4-4-2.5-.9-5.2-3-7.6-1.8-1.8.9-3.5 3.5-5.2 2.4.1-7.1-10.5-9.3-12.9-16-.4-1-.6-2.3-1.5-2.9-1.6-1.2-3.8.4-5.7.4-2.7 0-4.5-3.5-3.4-6s4-3.8 6.8-3.6c2.7.2 5.2 1.6 7.5 3.1.8.5 1.6 1.1 2.5 1.3 2 .4 4-1 5.1-2.8 1.1-1.8 1.5-3.8 2.2-5.8 2.1-5.5 7-9.8 12.7-11.2 2.1-.5 4.2-.6 6.2-1.5 3.3-1.4 5.4-4.8 6.3-8.2.9-3.5.7-7.1.5-10.7 0-.7-.1-1.5-.6-2-.4-.4-1.1-.5-1.7-.6-6.6-.6-13.4 1.1-19 4.6-1.8 1.1-3.6 2.5-5.7 3s-4.6-.1-5.5-2.1c-.5-1.2-.4-2.6.1-3.8 1-2.8 3.3-5.1 6.1-6.1 2.1-.8 4.4-.8 6.6-1.4 2.2-.6 4.4-2.1 4.7-4.3.1-.5 0-1.1-.3-1.6-27.1 5.5-48.4 26.8-53.8 54 .6.3 1.2.6 1.8.8 2 .6 4.1.6 6 1.4 6.4 2.5 7.5 11.8 13.6 14.9 3.2 1.6 7.4 1.5 9.5 4.3.9 1.2 1.1 2.7 1.9 4 2 3.5 6.8 4.1 10.8 4.3 1.5 3.3-2.1 6.4-3.4 9.7-.6 1.6-.7 3.4-.5 5.1.7 7.5 6.2 14.4 13.3 16.8.9.3 2 .6 2.5 1.5.4.6.3 1.4.3 2-.4 3.6-.6 7.4-2.2 10.7zm40.8-93.3c-.5.1-1 .2-1.5.5-.6.4-1 1-1.2 1.7-.6 2 .3 4.3 1.8 5.7 1.5 1.5 3.5 2.3 5.5 3.1 2.2.9 4.7 1.4 6.3-.8 1-1.4 1.3-3.5.3-5-2.2-3.4-7.4-5.7-11.2-5.2z"/></g><linearGradient id="b" gradientUnits="userSpaceOnUse" x1="123.49" y1="25.194" x2="123.49" y2="137.329"><stop offset="0" stop-color="#f7af04"/><stop offset="1" stop-color="#f42014"/></linearGradient><path fill="url(#b)" d="M122.4 20.7c-8.7.5-15.9 7.4-17 16.1-1.2 10.2 7 16.7 13.4 22.8.1.1 1.2 1.2 2.3 2.2 1.3 1.3 3.4 1.3 4.8 0 1.1-1 2.1-2.1 2.3-2.2 5.9-5.7 13.5-11.8 13.5-20.8 0-10.4-8.8-18.7-19.3-18.1z"/><linearGradient id="c" gradientUnits="userSpaceOnUse" x1="123.492" y1="58.86" x2="123.492" y2="26.711"><stop offset="0" stop-color="#f7af04" stop-opacity="0"/><stop offset="1" stop-color="#f6d201"/></linearGradient><path fill="url(#c)" d="M123.5 59.8c-.1 0-.2 0-.3-.1-.8-.7-2.3-2.2-2.3-2.2-.7-.7-1.4-1.3-2.1-2-5.6-5.3-11.3-10.7-10.4-18.3.9-7.3 7-13.1 14.2-13.5h.9c8.4 0 15.2 6.8 15.2 15.2 0 6.7-5.4 11.8-10.5 16.7-.7.7-1.4 1.3-2.1 2 0 0-1.5 1.5-2.3 2.2h-.3z"/><circle fill="#FFF" cx="123.5" cy="38.8" r="8.9"/><linearGradient id="d" gradientUnits="userSpaceOnUse" x1="162.11" y1="66.694" x2="162.11" y2="165.211"><stop offset="0" stop-color="#f7af04"/><stop offset="1" stop-color="#f42014"/></linearGradient><path fill="url(#d)" d="M161 70.1c-8.7.5-15.9 7.4-17 16.1-1.2 10.2 7 16.7 13.4 22.8.1.1 1.2 1.2 2.3 2.2 1.3 1.3 3.4 1.3 4.8 0 1.1-1 2.1-2.1 2.3-2.2 5.9-5.7 13.5-11.8 13.5-20.8 0-10.4-8.7-18.7-19.3-18.1z"/><linearGradient id="e" gradientUnits="userSpaceOnUse" x1="162.112" y1="108.027" x2="162.112" y2="66.119"><stop offset="0" stop-color="#f7af04" stop-opacity="0"/><stop offset="1" stop-color="#f6d201"/></linearGradient><path fill="url(#e)" d="M162.1 109.2c-.1 0-.2 0-.3-.1-.8-.7-2.3-2.2-2.3-2.2-.7-.7-1.4-1.3-2.1-2-5.6-5.3-11.3-10.7-10.4-18.3.9-7.3 7-13.1 14.2-13.5h.9c8.4 0 15.2 6.8 15.2 15.2 0 6.7-5.4 11.8-10.5 16.7-.7.7-1.4 1.3-2.1 2 0 0-1.5 1.5-2.3 2.2h-.3z"/><circle fill="#FFF" cx="162.1" cy="88.2" r="8.9"/><linearGradient id="f" gradientUnits="userSpaceOnUse" x1="80.69" y1="59.194" x2="80.69" y2="184.648"><stop offset="0" stop-color="#f7af04"/><stop offset="1" stop-color="#f42014"/></linearGradient><path fill="url(#f)" d="M79.6 62.8c-8.7.5-15.9 7.4-17 16.1-1.2 10.2 7 16.7 13.4 22.8.1.1 1.2 1.2 2.3 2.2 1.3 1.3 3.4 1.3 4.8 0 1.1-1 2.1-2.1 2.3-2.2C91.3 96.1 98.9 90 98.9 81c0-10.4-8.8-18.8-19.3-18.2z"/><linearGradient id="g" gradientUnits="userSpaceOnUse" x1="80.692" y1="99.36" x2="80.692" y2="66.34"><stop offset="0" stop-color="#f7af04" stop-opacity="0"/><stop offset="1" stop-color="#f6d201"/></linearGradient><path fill="url(#g)" d="M80.7 102c-.1 0-.2 0-.3-.1-.8-.7-2.3-2.2-2.3-2.2-.7-.7-1.4-1.3-2.1-2-5.6-5.3-11.3-10.7-10.4-18.3.9-7.3 7-13.1 14.2-13.5h.9c8.4 0 15.2 6.8 15.2 15.2 0 6.7-5.4 11.8-10.5 16.7-.7.7-1.4 1.3-2.1 2 0 0-1.5 1.5-2.3 2.2h-.3z"/><circle fill="#FFF" cx="80.7" cy="81" r="8.9"/><linearGradient id="h" gradientUnits="userSpaceOnUse" x1="99.025" y1="117.527" x2="99.025" y2="244.58"><stop offset="0" stop-color="#f7af04"/><stop offset="1" stop-color="#f42014"/></linearGradient><path fill="url(#h)" d="M97.9 124c-8.7.5-15.9 7.4-17 16.1-1.2 10.2 7 16.7 13.4 22.8.1.1 1.2 1.2 2.3 2.2 1.3 1.3 3.4 1.3 4.8 0 1.1-1 2.1-2.1 2.3-2.2 5.9-5.7 13.5-11.8 13.5-20.8 0-10.3-8.7-18.7-19.3-18.1z"/><linearGradient id="i" gradientUnits="userSpaceOnUse" x1="99.027" y1="159.36" x2="99.027" y2="128.434"><stop offset="0" stop-color="#f7af04" stop-opacity="0"/><stop offset="1" stop-color="#f6d201"/></linearGradient><path fill="url(#i)" d="M99 163.2c-.1 0-.2 0-.3-.1-.8-.7-2.3-2.2-2.3-2.2-.7-.7-1.4-1.3-2.1-2-5.6-5.3-11.3-10.7-10.4-18.3.9-7.3 7-13.1 14.2-13.5h.9c8.4 0 15.2 6.8 15.2 15.2 0 6.7-5.4 11.8-10.5 16.7-.7.7-1.4 1.3-2.1 2 0 0-1.5 1.5-2.3 2.2-.1-.1-.2 0-.3 0z"/><circle fill="#FFF" cx="99" cy="142.2" r="8.9"/><linearGradient id="j" gradientUnits="userSpaceOnUse" x1="37.89" y1="46.027" x2="37.89" y2="158.633"><stop offset="0" stop-color="#f7af04"/><stop offset="1" stop-color="#f42014"/></linearGradient><path fill="url(#j)" d="M36.8 43.9c-8.7.5-15.9 7.4-17 16.1-1.2 10.2 7 16.7 13.4 22.8.1.1 1.2 1.2 2.3 2.2 1.3 1.3 3.4 1.3 4.8 0 1.1-1 2.1-2.1 2.3-2.2C48.5 77.1 56.1 71 56.1 62c0-10.3-8.8-18.7-19.3-18.1z"/><linearGradient id="k" gradientUnits="userSpaceOnUse" x1="37.892" y1="79.027" x2="37.892" y2="48.178"><stop offset="0" stop-color="#f7af04" stop-opacity="0"/><stop offset="1" stop-color="#f6d201"/></linearGradient><path fill="url(#k)" d="M37.9 83c-.1 0-.2 0-.3-.1-.8-.7-2.3-2.2-2.3-2.2-.7-.7-1.4-1.3-2.1-2-5.5-5.2-11.3-10.7-10.4-18.3.9-7.3 7-13.1 14.2-13.5h.9c8.4 0 15.2 6.8 15.2 15.2 0 6.7-5.4 11.8-10.5 16.7-.7.7-1.4 1.3-2.1 2 0 0-1.5 1.5-2.3 2.2h-.3z"/><circle fill="#FFF" cx="37.9" cy="62.1" r="8.9"/></g></switch></svg>