<svg version="1.1" id="Layer_8" xmlns="http://www.w3.org/2000/svg" xmlns:xlink="http://www.w3.org/1999/xlink" x="0" y="0" viewBox="0 0 200 200" xml:space="preserve"><style>.st2{fill:#fff}.st4{fill:#f1f3f4}</style><g id="XMLID_11719_"><g id="XMLID_11720_"><linearGradient id="XMLID_5_" gradientUnits="userSpaceOnUse" x1="100" y1="48.196" x2="100" y2="399.078"><stop offset="0" stop-color="#f7af04"/><stop offset="1" stop-color="#f42014"/></linearGradient><path id="XMLID_11756_" d="M181.2 43.8c-.8-.6-1.8-1-2.9-1H21.6c-1.1 0-2.1.4-2.9 1-1 .8-1.7 2.1-1.7 3.6v100.5c0 .3 0 .7.1 1 .5 2 2.3 3.6 4.5 3.6h156.7c2.2 0 4-1.5 4.5-3.6.1-.3.1-.7.1-1V47.6c0-1.7-.6-3-1.7-3.8z" fill="url(#XMLID_5_)"/><g id="XMLID_11746_"><g id="XMLID_11747_"><defs><path id="XMLID_11749_" d="M3.7 150.3h192.6v4.2H3.7z"/></defs><clipPath id="XMLID_7_"><use xlink:href="#XMLID_11749_" overflow="visible"/></clipPath></g></g><g id="XMLID_11740_"><g id="XMLID_39_"><linearGradient id="XMLID_10_" gradientUnits="userSpaceOnUse" x1="100" y1="132.363" x2="100" y2="207.196"><stop offset="0" stop-color="#f7af04"/><stop offset="1" stop-color="#f42014"/></linearGradient><path id="XMLID_40_" d="M185 157.2H15c-4 0-7.9-.9-11.3-2.7h192.6c-3.4 1.8-7.3 2.7-11.3 2.7z" fill="url(#XMLID_10_)"/></g></g><g id="XMLID_11724_"><g id="XMLID_11732_"><circle id="XMLID_11733_" class="st2" cx="100" cy="45.6" r="1.7"/></g><g id="XMLID_11725_"><g id="XMLID_37_"><circle cx="100" cy="45.6" r=".6" fill="#f73f09" id="XMLID_38_"/></g></g></g></g></g><g id="XMLID_8303_"><g id="XMLID_8437_"><path class="st2" d="M178.5 51.4v93.4c0 1.3-1 2.3-2.3 2.3H23.8c-1.2 0-2.3-1-2.3-2.3V51.4c0-1.3 1-2.3 2.3-2.3h152.5c1.2.1 2.2 1.1 2.2 2.3z" id="XMLID_8438_"/></g></g><g id="XMLID_90_"><g id="XMLID_91_"><path class="st4" d="M172.2 55.4v6.7c0 .1-.9.2-2.1.2H29.9c-1.1 0-2.1-.1-2.1-.2v-6.7c0-.1.9-.2 2.1-.2h140.2c1.1.1 2.1.1 2.1.2z" id="XMLID_92_"/></g></g><g id="XMLID_87_"><g id="XMLID_88_"><path class="st4" d="M96.3 67.9v37.2c0 .5-.4.9-1 .9H28.8c-.5 0-1-.4-1-.9V67.9c0-.5.4-.9 1-.9h66.5c.6 0 1 .4 1 .9z" id="XMLID_89_"/></g></g><g id="XMLID_84_"><g id="XMLID_85_"><path class="st4" d="M96.3 110.9v4c0 .1-.4.1-1 .1H28.8c-.5 0-1 0-1-.1v-4c0-.1.4-.1 1-.1h66.5c.6 0 1 0 1 .1z" id="XMLID_86_"/></g></g><g id="XMLID_81_"><g id="XMLID_82_"><path class="st4" d="M96.3 119.4v4c0 .1-.4.1-1 .1H28.8c-.5 0-1 0-1-.1v-4c0-.1.4-.1 1-.1h66.5c.6 0 1 0 1 .1z" id="XMLID_83_"/></g></g><g id="XMLID_75_"><g id="XMLID_79_"><path class="st4" d="M96.3 127.9v4c0 .1-.4.1-1 .1H28.8c-.5 0-1 0-1-.1v-4c0-.1.4-.1 1-.1h66.5c.6 0 1 0 1 .1z" id="XMLID_80_"/></g></g><g id="XMLID_69_"><g id="XMLID_73_"><path class="st4" d="M96.3 136.4v4c0 .1-.4.1-1 .1H28.8c-.5 0-1 0-1-.1v-4c0-.1.4-.1 1-.1h66.5c.6 0 1 0 1 .1z" id="XMLID_74_"/></g></g><g id="XMLID_63_"><g id="XMLID_67_"><path class="st4" d="M172.2 67.9v37.2c0 .5-.4.9-1 .9h-66.5c-.5 0-1-.4-1-.9V67.9c0-.5.4-.9 1-.9h66.5c.5 0 1 .4 1 .9z" id="XMLID_68_"/></g></g><g id="XMLID_57_"><g id="XMLID_61_"><path class="st4" d="M172.2 110.9v4c0 .1-.4.1-1 .1h-66.5c-.5 0-1 0-1-.1v-4c0-.1.4-.1 1-.1h66.5c.5 0 1 0 1 .1z" id="XMLID_62_"/></g></g><g id="XMLID_54_"><g id="XMLID_55_"><path class="st4" d="M172.2 119.4v4c0 .1-.4.1-1 .1h-66.5c-.5 0-1 0-1-.1v-4c0-.1.4-.1 1-.1h66.5c.5 0 1 0 1 .1z" id="XMLID_56_"/></g></g><g id="XMLID_48_"><g id="XMLID_52_"><path class="st4" d="M172.2 127.9v4c0 .1-.4.1-1 .1h-66.5c-.5 0-1 0-1-.1v-4c0-.1.4-.1 1-.1h66.5c.5 0 1 0 1 .1z" id="XMLID_53_"/></g></g><g id="XMLID_42_"><g id="XMLID_46_"><path class="st4" d="M172.2 136.4v4c0 .1-.4.1-1 .1h-66.5c-.5 0-1 0-1-.1v-4c0-.1.4-.1 1-.1h66.5c.5 0 1 0 1 .1z" id="XMLID_47_"/></g></g><g id="XMLID_11750_"><path id="XMLID_15_" fill="#f6d201" d="M3.7 150.3h192.6v4.2H3.7z"/></g><g id="XMLID_11734_"><g id="XMLID_27_"><path id="XMLID_28_" d="M116.1 152.8H83.9c-1.2 0-2.2-1-2.2-2.2v-.4h36.6v.4c0 1.2-1 2.2-2.2 2.2z" fill="#f86903"/></g></g><g id="XMLID_6907_"><g id="XMLID_6909_"><g id="XMLID_7583_"><path id="XMLID_7584_" d="M132.6 98.7c0 7.4-2.5 14.2-6.6 19.7-6 7.8-15.4 12.9-26 12.9s-20-5.1-26-12.9c-4.2-5.5-6.6-12.3-6.6-19.7 0-18 14.6-32.6 32.6-32.6s32.6 14.6 32.6 32.6z" fill="#1a9efe"/></g></g></g><path d="M82.3 106c4 9.8 15.2 14.5 25 10.5s14.5-15.2 10.5-25S102.6 77 92.8 81c-9.9 4-14.5 15.2-10.5 25zm3.8-1.6l5.1-2.1c1 2.4 2.9 4.2 5.1 5.2l-2.1 5.1c-3.6-1.5-6.5-4.4-8.1-8.2zm19.6 8.2l-2.1-5.1c2.4-1 4.2-2.9 5.2-5.1l5.1 2.1c-1.5 3.6-4.4 6.6-8.2 8.1zm8.2-19.6l-5.1 2.1c-1-2.4-2.9-4.2-5.1-5.2l2.1-5.1c3.6 1.5 6.5 4.4 8.1 8.2zm-19.6-8.2l2.1 5.1c-2.4 1-4.2 2.9-5.2 5.1l-5.1-2.1c1.5-3.5 4.4-6.5 8.2-8.1zm.6 16c-1.2-2.8.2-6.1 3-7.2 2.8-1.2 6.1.2 7.2 3 1.2 2.8-.2 6.1-3 7.2-2.8 1.2-6.1-.2-7.2-3z" fill-rule="evenodd" clip-rule="evenodd" fill="#fff"/></svg>