<svg xmlns="http://www.w3.org/2000/svg" viewBox="0 0 168 56"><path d="M3 0h162c1.7 0 3 1.3 3 3v50c0 1.7-1.3 3-3 3H3c-1.7 0-3-1.3-3-3V3c0-1.7 1.3-3 3-3z" fill-rule="evenodd" clip-rule="evenodd" fill="#2c3038"/><path d="M15.9 27.1v-8.6l10.5-1.4v10H15.9zm12.3-10.2l14-2v12.3h-14V16.9zm14.1 12v12.3l-14-2V28.9h14zM26.5 39L16 37.6V29h10.5v10zM58 34.1V19.2h4.4c1.3 0 2.5.3 3.5.9s1.8 1.4 2.4 2.5.8 2.3.8 3.7v.7c0 1.4-.3 2.7-.8 3.7-.6 1.1-1.4 1.9-2.4 2.5-1 .6-2.2.9-3.6.9H58zm2.6-12.8v10.8h1.7c1.4 0 2.4-.4 3.1-1.3.7-.9 1.1-2.1 1.1-3.7v-.8c0-1.6-.4-2.9-1.1-3.7s-1.7-1.3-3.1-1.3h-1.7zm10.5 7.2c0-1.1.2-2.1.6-2.9.4-.9 1-1.5 1.8-2s1.7-.7 2.7-.7c1.5 0 2.7.5 3.6 1.4.9 1 1.4 2.2 1.5 3.8v.6c0 1.1-.2 2.1-.6 2.9-.4.9-1 1.5-1.8 2s-1.7.7-2.7.7c-1.6 0-2.8-.5-3.8-1.6S71 30.3 71 28.5zm2.5.2c0 1.1.2 2 .7 2.7.5.6 1.1 1 2 1 .8 0 1.5-.3 2-1s.7-1.6.7-2.9c0-1.1-.2-2-.7-2.7-.5-.7-1.1-1-2-1-.8 0-1.5.3-1.9 1-.6.7-.8 1.6-.8 2.9zm19.6 2L95 23h2.4l-3 11.1h-2.1L90 26.5l-2.3 7.6h-2.1l-3-11.1H85l1.8 7.6L89 23h1.9l2.3 7.7zm8.2-7.7l.1 1.3c.8-1 1.9-1.5 3.2-1.5 2.3 0 3.5 1.3 3.5 4v7.3h-2.5v-7.2c0-.7-.2-1.2-.5-1.6-.3-.3-.8-.5-1.5-.5-1 0-1.8.5-2.2 1.4v7.9H99V23h2.4zm12 11.1h-2.5V18.4h2.5v15.7zm2.3-5.6c0-1.1.2-2.1.6-2.9.4-.9 1-1.5 1.8-2s1.7-.7 2.7-.7c1.5 0 2.7.5 3.6 1.4.9 1 1.4 2.2 1.5 3.8v.6c0 1.1-.2 2.1-.6 2.9-.4.9-1 1.5-1.8 2s-1.7.7-2.7.7c-1.6 0-2.8-.5-3.8-1.6-.9-1-1.4-2.4-1.4-4.2zm2.5.2c0 1.1.2 2 .7 2.7.5.6 1.1 1 2 1 .8 0 1.5-.3 2-1s.7-1.6.7-2.9c0-1.1-.2-2-.7-2.7-.5-.7-1.1-1-2-1-.8 0-1.5.3-1.9 1-.6.7-.8 1.6-.8 2.9zm16.5 5.4c-.1-.2-.2-.6-.3-1-.8.8-1.8 1.2-2.9 1.2-1.1 0-2-.3-2.7-1-.7-.6-1.1-1.4-1.1-2.4 0-1.2.4-2.1 1.3-2.7.9-.6 2.1-.9 3.8-.9h1.5v-.7c0-.6-.2-1-.5-1.4s-.8-.5-1.5-.5c-.6 0-1 .1-1.4.4-.4.3-.5.6-.5 1.1H128c0-.6.2-1.2.6-1.7s1-.9 1.6-1.2c.7-.3 1.5-.5 2.3-.5 1.3 0 2.3.3 3.1 1s1.2 1.6 1.2 2.8v5c0 1 .1 1.8.4 2.4v.2h-2.5zm-2.7-1.8c.5 0 1-.1 1.4-.4.4-.2.8-.6 1-1v-2.1H133c-.9 0-1.6.2-2.1.5s-.7.8-.7 1.4c0 .5.2.9.5 1.1.3.4.7.5 1.3.5zm7-3.8c0-1.7.4-3.1 1.2-4.1.8-1 1.9-1.6 3.2-1.6 1.2 0 2.1.4 2.9 1.2v-5.7h2.5v15.8h-2.3l-.1-1.1c-.7.9-1.7 1.4-3 1.4s-2.3-.5-3.2-1.6c-.8-1.1-1.2-2.5-1.2-4.3zm2.5.2c0 1.1.2 2 .7 2.6.4.6 1.1.9 1.9.9 1 0 1.8-.5 2.2-1.4v-4.7c-.5-.9-1.2-1.3-2.2-1.3-.8 0-1.4.3-1.9 1s-.7 1.6-.7 2.9z" fill="#fff"/></svg>