<svg xmlns="http://www.w3.org/2000/svg" xmlns:xlink="http://www.w3.org/1999/xlink" viewBox="0 0 112.86 112.93"><defs><style>.cls-1{fill:none;}.cls-2{clip-path:url(#clip-path);}.cls-3{fill:url(#linear-gradient);}</style><clipPath id="clip-path"><path class="cls-1" d="M70.57,25.17A14.27,14.27,0,0,0,58.23,40.4c.23,3,1.37,5.75,1.93,8.66s.44,6.21-1.49,8.45-5.35,2.85-8.39,2.74-6.1-.73-9.1-.18a11.76,11.76,0,0,0-8.63,16.31L43.72,87.76a11.76,11.76,0,0,1,8.63-16.31c3-.55,6.06.07,9.1.18s6.39-.44,8.38-2.74,2-5.54,1.49-8.45-1.69-5.71-1.92-8.66A14.27,14.27,0,0,1,81.73,36.55Z"/></clipPath><linearGradient id="linear-gradient" x1="31.58" y1="87.73" x2="32.58" y2="87.73" gradientTransform="matrix(-96.53, 0, 0, 96.53, 3145.79, -8412.07)" gradientUnits="userSpaceOnUse"><stop offset="0" stop-color="#493602"/><stop offset="0.03" stop-color="#4f3b02"/><stop offset="0.06" stop-color="#624902"/><stop offset="0.1" stop-color="#806101"/><stop offset="0.15" stop-color="#a98201"/><stop offset="0.2" stop-color="#deab00"/><stop offset="0.22" stop-color="#ffc500"/><stop offset="0.26" stop-color="#e0a902"/><stop offset="0.3" stop-color="#bd8a05"/><stop offset="0.33" stop-color="#a87706"/><stop offset="0.36" stop-color="#a07007"/><stop offset="0.41" stop-color="#aa7906"/><stop offset="0.51" stop-color="#c59104"/><stop offset="0.63" stop-color="#f1b801"/><stop offset="0.67" stop-color="#ffc500"/><stop offset="0.76" stop-color="#be9201"/><stop offset="0.85" stop-color="#7f6101"/><stop offset="0.92" stop-color="#584202"/><stop offset="0.96" stop-color="#493602"/><stop offset="1" stop-color="#493602"/></linearGradient></defs><title>confetti-2</title><g id="Layer_2" data-name="Layer 2"><g id="Layer_1-2" data-name="Layer 1"><g class="cls-2"><rect class="cls-3" x="16.25" y="16.71" width="80.36" height="79.5" transform="translate(-23.29 60.51) rotate(-47.92)"/></g></g></g></svg>