<svg xmlns="http://www.w3.org/2000/svg" xmlns:xlink="http://www.w3.org/1999/xlink" viewBox="0 0 94.45 79.85"><defs><style>.cls-1{fill:none;}.cls-2{clip-path:url(#clip-path);}.cls-3{fill:url(#linear-gradient);}</style><clipPath id="clip-path"><path class="cls-1" d="M62.17,20.58C57,25.1,53.16,31,47.55,34.93,35.86,43.09,17.68,39.46,10,27.44l3.5,25.65c4.84,7.6,13.9,11.85,22.86,11.88h.17a25.31,25.31,0,0,0,14.5-4.39c5.6-3.91,9.48-9.82,14.62-14.34s12.73-7.59,18.76-4.37l-3.5-25.65a11.52,11.52,0,0,0-5.5-1.34c-4.7,0-9.6,2.49-13.26,5.7"/></clipPath><linearGradient id="linear-gradient" x1="10.02" y1="64.99" x2="11.02" y2="64.99" gradientTransform="matrix(85.46, 0, 0, -85.46, -853.21, 5593.88)" gradientUnits="userSpaceOnUse"><stop offset="0" stop-color="#493602"/><stop offset="0.01" stop-color="#553f02"/><stop offset="0.05" stop-color="#826301"/><stop offset="0.09" stop-color="#a88101"/><stop offset="0.13" stop-color="#c89a01"/><stop offset="0.18" stop-color="#e0ad00"/><stop offset="0.23" stop-color="#f1ba00"/><stop offset="0.28" stop-color="#fcc200"/><stop offset="0.34" stop-color="#ffc500"/><stop offset="0.43" stop-color="#dfa802"/><stop offset="0.6" stop-color="#a07007"/><stop offset="0.64" stop-color="#ac7b06"/><stop offset="0.71" stop-color="#cb9704"/><stop offset="0.81" stop-color="#fec400"/><stop offset="0.81" stop-color="#ffc500"/><stop offset="0.84" stop-color="#fac100"/><stop offset="0.88" stop-color="#eab400"/><stop offset="0.93" stop-color="#d19f00"/><stop offset="0.98" stop-color="#ad8100"/><stop offset="1" stop-color="#9b7200"/></linearGradient></defs><title>confetti-3</title><g id="Layer_2" data-name="Layer 2"><g id="Layer_1-2" data-name="Layer 1"><g class="cls-2"><rect class="cls-3" x="5.69" y="7.81" width="83.08" height="64.23" transform="translate(-7.16 10.49) rotate(-11.79)"/></g></g></g></svg>