<?xml version="1.0" encoding="utf-8"?>
<!-- Generator: Adobe Illustrator 26.0.1, SVG Export Plug-In . SVG Version: 6.00 Build 0)  -->
<svg version="1.1" id="Layer_2_00000154404192649627552360000003984824565577335685_"
	 xmlns="http://www.w3.org/2000/svg" xmlns:xlink="http://www.w3.org/1999/xlink" x="0px" y="0px" viewBox="0 0 103.2 55"
	 style="enable-background:new 0 0 103.2 55;" xml:space="preserve">
<style type="text/css">
	.st0{fill:url(#SVGID_1_);}
	.st1{fill:url(#SVGID_00000123432674584779697970000017417547764638840217_);}
	.st2{fill:url(#SVGID_00000121964317001447334140000018241159397989945759_);}
	.st3{fill:url(#SVGID_00000121980406771475439780000011024491939159905412_);}
	.st4{fill:url(#SVGID_00000044878093098964405900000009478183954087210173_);}
</style>
<g>
	<g>
		
			<linearGradient id="SVGID_1_" gradientUnits="userSpaceOnUse" x1="39.2942" y1="-883.8261" x2="39.2942" y2="-935.1526" gradientTransform="matrix(1 0 0 -1 0.3761 -879.088)">
			<stop  offset="0" style="stop-color:#D9DADF"/>
			<stop  offset="0.2183" style="stop-color:#CFD0D5"/>
			<stop  offset="0.5943" style="stop-color:#B3B5BA"/>
			<stop  offset="1" style="stop-color:#8E9196"/>
		</linearGradient>
		<path class="st0" d="M45.9,41.9c-1.5,0.8-2.6,1.5-3.4,2.6c-2.1,2.7-2,7.1-2,8.8h-14c0,0-0.2-4.3,1-6c0.5-0.7,1.2-1.2,1.8-1.5
			c0.8-0.4,1.6-0.7,2.5-0.8c0.2,0,0.3-0.1,0.5-0.1c1.5-0.3,4.2-1,6-2.4c0.1-0.1,0.1-0.1,0.1-0.1c1.5-1.2,1.7-3.4,0.5-4.9
			c-1.1-1.4-2.5-3.9-2.7-7.4c0-2.5,0.3-4.5,0.8-6c0.7-2.5,2.6-4.5,5.1-5.3c0.7-0.2,1.4-0.4,2.2-0.4c0.1,0,0.2,0,0.3,0s0.2,0,0.3,0
			c0.8,0,1.5,0.1,2.2,0.4c2.4,0.8,4.3,2.8,5.1,5.3c0.4,1.5,0.8,3.5,0.6,5.9c-0.2,3.5-1.6,6-2.7,7.4c-0.5,0.7-0.6,2.6-0.5,3.4
			C48.2,41.1,47.1,41.3,45.9,41.9z"/>
		
			<linearGradient id="SVGID_00000146463027616443672750000000482792804453598626_" gradientUnits="userSpaceOnUse" x1="89.7536" y1="-883.8261" x2="89.7536" y2="-935.1526" gradientTransform="matrix(1 0 0 -1 0.3761 -879.088)">
			<stop  offset="0" style="stop-color:#D9DADF"/>
			<stop  offset="0.2183" style="stop-color:#CFD0D5"/>
			<stop  offset="0.5943" style="stop-color:#B3B5BA"/>
			<stop  offset="1" style="stop-color:#8E9196"/>
		</linearGradient>
		<path style="fill:url(#SVGID_00000146463027616443672750000000482792804453598626_);" d="M103.2,53.2H89c0.1-1.7,0.2-6.2-2-8.9
			c-0.9-1-2.1-2-3.7-2.6c-0.9-0.3-1.6-0.6-2.9-0.9c0.1-0.9-0.1-2.7-0.6-3.5c-1-1.5-2.5-3.9-2.7-7.4c-0.2-2.4,0.2-4.5,0.6-5.9
			c0.7-2.5,2.6-4.5,5.1-5.3c0.7-0.2,1.4-0.4,2.2-0.4c0.1,0,0.2,0,0.3,0c0.1,0,0.2,0,0.3,0c0.8,0,1.5,0.1,2.2,0.4
			c2.4,0.8,4.3,2.8,5.1,5.3c0.4,1.5,0.8,3.5,0.6,5.9c-0.2,3.5-1.6,6-2.7,7.4c-1.2,1.5-1,3.7,0.5,4.9c0.1,0.1,0.1,0.1,0.1,0.1
			c1.8,1.5,4.8,2.2,6.2,2.4c0.1,0,0.2,0.1,0.3,0.1c0.9,0.1,1.7,0.4,2.5,0.8c0.7,0.4,1.3,0.9,1.8,1.5
			C103.4,48.9,103.2,53.2,103.2,53.2z"/>
		
			<linearGradient id="SVGID_00000163783158691799104060000013953102827350289578_" gradientUnits="userSpaceOnUse" x1="64.4317" y1="-883.8261" x2="64.4317" y2="-935.1526" gradientTransform="matrix(1 0 0 -1 0.3761 -879.088)">
			<stop  offset="0" style="stop-color:#D9DADF"/>
			<stop  offset="0.2183" style="stop-color:#CFD0D5"/>
			<stop  offset="0.5943" style="stop-color:#B3B5BA"/>
			<stop  offset="1" style="stop-color:#8E9196"/>
		</linearGradient>
		<path style="fill:url(#SVGID_00000163783158691799104060000013953102827350289578_);" d="M87,53.2H42.6c0,0-0.2-5.3,1.3-7.4
			c0.6-0.9,1.5-1.5,2.3-1.9c1-0.5,2-0.8,3.1-1c0.1,0,0.3-0.1,0.4-0.1c0.1,0,0.1,0,0.2-0.1c0.7-0.1,1.5-0.3,2.4-0.5s1.8-0.5,2.7-1
			c0.9-0.4,1.6-0.9,2.3-1.4c0.1-0.1,0.1-0.1,0.2-0.1c1.8-1.5,2.1-4.3,0.7-6.2c-1.3-1.8-3.1-4.8-3.4-9.2c-0.2-3,0.2-5.5,0.7-7.3
			c0.9-3,3.2-5.6,6.3-6.6c0.9-0.2,1.7-0.4,2.7-0.4c0.1,0,0.2,0,0.4,0s0.2,0,0.4,0c1,0,1.9,0.2,2.7,0.4c3,1,5.4,3.5,6.3,6.6
			c0.5,1.8,1,4.3,0.7,7.3c-0.3,4.3-2.1,7.4-3.4,9.2c-1.5,1.9-1.2,4.6,0.6,6.2c0.1,0.1,0.1,0.1,0.2,0.1c2.3,1.8,5.9,2.7,7.7,3h0.1
			c0.1,0,0.2,0.1,0.2,0.1c1.1,0.2,2.1,0.5,3.1,1c0.8,0.4,1.7,1,2.3,1.9C87.3,47.9,87,53.2,87,53.2z"/>
		
			<linearGradient id="SVGID_00000145036364247539374000000018346006539144409511_" gradientUnits="userSpaceOnUse" x1="40.5739" y1="-883.8261" x2="40.5739" y2="-935.1526" gradientTransform="matrix(1 0 0 -1 0.3761 -879.088)">
			<stop  offset="0" style="stop-color:#D9DADF"/>
			<stop  offset="0.2183" style="stop-color:#CFD0D5"/>
			<stop  offset="0.5943" style="stop-color:#B3B5BA"/>
			<stop  offset="1" style="stop-color:#8E9196"/>
		</linearGradient>
		<path style="fill:url(#SVGID_00000145036364247539374000000018346006539144409511_);" d="M71.7,4.6v3.5H15.5l-0.1,32.3h21
			c-0.5,0.8-1.6,2-4.6,2.1c-2,0.1-3.9,1.5-4.6,2.3h-17l0.1-39.9c0-1.6,1.3-2.9,2.9-2.9H69C70.6,1.9,71.7,3.1,71.7,4.6z"/>
		
			<linearGradient id="SVGID_00000082337670408502833660000012269311245563879299_" gradientUnits="userSpaceOnUse" x1="12.7739" y1="-883.8261" x2="12.7739" y2="-935.1526" gradientTransform="matrix(1 0 0 -1 0.3761 -879.088)">
			<stop  offset="0" style="stop-color:#D9DADF"/>
			<stop  offset="0.2183" style="stop-color:#CFD0D5"/>
			<stop  offset="0.5943" style="stop-color:#B3B5BA"/>
			<stop  offset="1" style="stop-color:#8E9196"/>
		</linearGradient>
		<path style="fill:url(#SVGID_00000082337670408502833660000012269311245563879299_);" d="M24.5,53.2H6c-2.9,0-5.2-2.4-5.2-5.2
			c0-0.4,0.1-0.7,0.4-0.9c0.2-0.2,0.5-0.4,0.9-0.4h23.4C24.5,48.9,24.5,51.8,24.5,53.2z"/>
	</g>
</g>
</svg>
