<?xml version="1.0" encoding="utf-8"?>
<!-- Generator: Adobe Illustrator 26.0.1, SVG Export Plug-In . SVG Version: 6.00 Build 0)  -->
<svg version="1.1" id="Layer_3" xmlns="http://www.w3.org/2000/svg" xmlns:xlink="http://www.w3.org/1999/xlink" x="0px" y="0px"
	 viewBox="0 0 103.2 102.4" style="enable-background:new 0 0 103.2 102.4;" xml:space="preserve">
<style type="text/css">
	.st0{fill:url(#SVGID_1_);}
	.st1{fill:url(#SVGID_00000178188374428768933670000016935291909562208647_);}
	.st2{fill:url(#SVGID_00000010312418519146868110000012784355264208865467_);}
	.st3{fill:url(#SVGID_00000159430242319697123590000011087468134088999297_);}
	.st4{fill:url(#SVGID_00000158739501988387229540000001666511254137058710_);}
	.st5{fill:url(#SVGID_00000163055162514288740060000012140176000844252545_);}
</style>
<g>
	<g>
		
			<linearGradient id="SVGID_1_" gradientUnits="userSpaceOnUse" x1="51.2109" y1="843.5377" x2="51.2109" y2="945.229" gradientTransform="matrix(1 0 0 1 0 -838)">
			<stop  offset="0" style="stop-color:#D9DADF"/>
			<stop  offset="0.2183" style="stop-color:#CFD0D5"/>
			<stop  offset="0.5943" style="stop-color:#B3B5BA"/>
			<stop  offset="1" style="stop-color:#8E9196"/>
		</linearGradient>
		<path class="st0" d="M33.3,0L18.4,14.6v37c1.9-0.7,3.9-1.1,6-1.1V17.8h12.7V5.7H78v70.2H46.3c0,0.3,0,0.7,0,1.1v4.9H84V0H33.3z"/>
		
			<linearGradient id="SVGID_00000085931931423879590440000003450009764242696111_" gradientUnits="userSpaceOnUse" x1="70.7851" y1="843.5377" x2="70.7851" y2="945.229" gradientTransform="matrix(1 0 0 1 0 -838)">
			<stop  offset="0" style="stop-color:#D9DADF"/>
			<stop  offset="0.2183" style="stop-color:#CFD0D5"/>
			<stop  offset="0.5943" style="stop-color:#B3B5BA"/>
			<stop  offset="1" style="stop-color:#8E9196"/>
		</linearGradient>
		<path style="fill:url(#SVGID_00000085931931423879590440000003450009764242696111_);" d="M87.2,10.9v5.7h2.1v70.2h-43v6h48.9V10.9
			H87.2z"/>
		
			<linearGradient id="SVGID_00000116196481951260383840000005419072288192509852_" gradientUnits="userSpaceOnUse" x1="51.2389" y1="843.5377" x2="51.2389" y2="945.229" gradientTransform="matrix(1 0 0 1 0 -838)">
			<stop  offset="0" style="stop-color:#D9DADF"/>
			<stop  offset="0.2183" style="stop-color:#CFD0D5"/>
			<stop  offset="0.5943" style="stop-color:#B3B5BA"/>
			<stop  offset="1" style="stop-color:#8E9196"/>
		</linearGradient>
		
			<rect x="30.9" y="27.8" style="fill:url(#SVGID_00000116196481951260383840000005419072288192509852_);" width="40.7" height="4"/>
		
			<linearGradient id="SVGID_00000119823158803797645480000004944569633252027821_" gradientUnits="userSpaceOnUse" x1="51.2389" y1="843.5377" x2="51.2389" y2="945.229" gradientTransform="matrix(1 0 0 1 0 -838)">
			<stop  offset="0" style="stop-color:#D9DADF"/>
			<stop  offset="0.2183" style="stop-color:#CFD0D5"/>
			<stop  offset="0.5943" style="stop-color:#B3B5BA"/>
			<stop  offset="1" style="stop-color:#8E9196"/>
		</linearGradient>
		
			<rect x="30.9" y="39.8" style="fill:url(#SVGID_00000119823158803797645480000004944569633252027821_);" width="40.7" height="4"/>
		
			<linearGradient id="SVGID_00000038397245037286278140000015742227442930363014_" gradientUnits="userSpaceOnUse" x1="60.564" y1="843.5377" x2="60.564" y2="945.229" gradientTransform="matrix(1 0 0 1 0 -838)">
			<stop  offset="0" style="stop-color:#D9DADF"/>
			<stop  offset="0.2183" style="stop-color:#CFD0D5"/>
			<stop  offset="0.5943" style="stop-color:#B3B5BA"/>
			<stop  offset="1" style="stop-color:#8E9196"/>
		</linearGradient>
		
			<rect x="49.6" y="51.8" style="fill:url(#SVGID_00000038397245037286278140000015742227442930363014_);" width="21.9" height="4"/>
		<g>
			<g id="XMLID_00000055689746305277149160000017871254912043106736_">
				<g>
					
						<linearGradient id="SVGID_00000172406665148784437780000015744631667875887502_" gradientUnits="userSpaceOnUse" x1="24.4959" y1="843.5377" x2="24.4959" y2="945.229" gradientTransform="matrix(1 0 0 1 0 -838)">
						<stop  offset="0" style="stop-color:#D9DADF"/>
						<stop  offset="0.2183" style="stop-color:#CFD0D5"/>
						<stop  offset="0.5943" style="stop-color:#B3B5BA"/>
						<stop  offset="1" style="stop-color:#8E9196"/>
					</linearGradient>
					<path style="fill:url(#SVGID_00000172406665148784437780000015744631667875887502_);" d="M42.4,75.8c-0.2-0.1-0.4-0.2-0.6-0.2
						H40v-6.4c0-4.1-1.6-7.8-4.2-10.6c-1.7-1.7-3.7-3.1-6-3.9c-1.6-0.6-3.4-1-5.3-1l0,0c-2.1,0-4.2,0.4-6,1.2
						C12.8,57.4,9,62.9,9,69.3v6.4H7c-0.7,0-1.2,0.6-1.2,1.2v23.3c0,0.4,0.1,0.7,0.4,1c0.2,0.3,0.6,0.5,1.1,0.5h34.4
						c0.4,0,0.8-0.2,1.1-0.5c0.2-0.2,0.4-0.6,0.4-1V77C43.1,76.4,42.8,76.1,42.4,75.8z M27.3,94.5h-5.6l1-7.2
						c-0.8-0.6-1.3-1.5-1.3-2.5c0-1.7,1.4-3.1,3.1-3.1c1.7,0,3.1,1.4,3.1,3.1c0,1.1-0.5,2-1.2,2.5L27.3,94.5z M33.8,75.7H15.1v-6.4
						c0-2.9,1.3-5.4,3.4-7.2c1.6-1.4,3.8-2.2,6-2.2l0,0c2,0,3.8,0.6,5.3,1.6c2.5,1.7,4.1,4.5,4.1,7.7L33.8,75.7L33.8,75.7z"/>
				</g>
			</g>
		</g>
	</g>
</g>
</svg>
