<?xml version="1.0" encoding="UTF-8"?>
<svg viewBox="0 0 121 30" xmlns="http://www.w3.org/2000/svg">
<path d="m5 5h8.2062c1.563 0 2.7353 0.37893 3.6037 1.0105 0.9552 0.75785 1.4763 1.8525 1.4763 3.1998 0 1.5578-0.6513 2.5262-1.9539 3.1156v0.0842c1.7368 0.5474 2.7354 2.0631 2.7354 3.8735 0 1.7263-0.6947 3.0736-1.8236 3.9156-0.9552 0.6737-2.1709 0.9684-3.8208 0.9684h-8.4233v-16.168zm7.3812 6.3155c0.8684 0 1.5197-0.4632 1.5197-1.4315 0-0.92627-0.6513-1.3894-1.5631-1.3894h-2.8222v2.7788h2.8656v0.0421zm0.3908 6.2733c0.9986 0 1.7367-0.5894 1.7367-1.642 0-1.1368-0.7815-1.642-1.7367-1.642h-3.213v3.3261h3.213v-0.0421z" fill="#fff"/>
<path d="M19.8066 5H24.1051V21.2097H19.8066V5Z" fill="#fff"/>
<path d="m24.973 15.442c0-3.663 2.4314-6.105 6.2089-6.105 3.7774 0 6.1654 2.4841 6.1654 6.105 0 3.6629-2.388 6.1049-6.1654 6.1049-3.7775 0-6.2089-2.442-6.2089-6.1049zm8.0759 0c0-2.021-0.6513-3.2841-1.9539-3.2841s-1.9104 1.2631-1.9104 3.2841c0 2.0209 0.6078 3.3261 1.9104 3.3261 1.3026-0.0421 1.9539-1.3052 1.9539-3.3261z" fill="#fff"/>
<path d="m37.824 15.442c0-3.663 2.4315-6.105 6.2089-6.105s6.1221 2.442 6.1221 6.105c0 3.6629-2.3881 6.1049-6.1655 6.1049-3.734 0-6.1655-2.442-6.1655-6.1049zm8.0759 0c0-2.021-0.6513-3.2841-1.9538-3.2841-1.3026 0-1.9105 1.2631-1.9105 3.2841 0 2.0209 0.6079 3.3261 1.9105 3.3261 1.3025-0.0421 1.9538-1.3052 1.9538-3.3261z" fill="#fff"/>
<path d="m51.023 9.6318h3.9946v1.7262h0.0868c0.7815-1.3473 1.867-2.0631 3.6038-2.0631 1.5196 0 2.6485 0.71578 3.213 1.9789h0.0868c0.9552-1.5157 2.2144-1.9789 3.6906-1.9789 2.7788 0 3.9511 1.9789 3.9511 4.6314v7.2417h-4.1682v-6.526c0-1.1789-0.3908-1.9367-1.4328-1.9367-1.0421 0-1.5631 0.9262-1.5631 2.1893v6.2734h-4.1682v-6.526c0-1.1789-0.3908-1.9367-1.4328-1.9367-1.0421 0-1.5631 0.9262-1.5631 2.1893v6.2734h-4.2985v-11.536z" fill="#fff"/>
<path d="m74.904 19.652h-0.0435v1.5157h-3.9945v-16.168h4.1682v5.8102h0.0869c0.7815-1.0104 1.867-1.5578 3.3866-1.5578 2.9959 0 4.7327 2.6104 4.7327 6.105 0 3.9156-1.867 6.1891-4.9932 6.1891-1.3026 0-2.6485-0.5894-3.3432-1.8946zm4.0379-4.3366c0-1.8526-0.6947-3.0736-1.9538-3.0736-1.3026 0-2.0841 1.221-2.0841 3.0736 0 1.8525 0.8249 3.0735 2.0841 3.0735 1.2591 0 1.9538-1.1789 1.9538-3.0735z" fill="#fff"/>
<path d="m83.719 15.4c0-3.6209 2.4748-6.105 6.0352-6.105 1.7801 0 3.1261 0.54734 4.1682 1.5157 1.3894 1.3052 1.9972 3.3262 1.9538 5.684h-7.989c0.1736 1.4315 0.8683 2.1893 2.1275 2.1893 0.7381 0 1.3894-0.3368 1.6499-1.0947h4.0379c-0.6947 2.6525-2.8222 3.9577-5.8181 3.9577-3.6906-0.0421-6.1654-2.4841-6.1654-6.147zm4.1682-1.221h3.8208c-0.0868-1.3894-0.8684-2.1052-1.867-2.1052-1.1723-0.0421-1.8236 0.7579-1.9538 2.1052z" fill="#fff"/>
<path d="m100.61 11.61h0.087c0.868-1.5999 1.997-2.2315 3.43-2.2315 0.347 0 0.564 0.0421 0.694 0.12631v3.5367h-0.086c-2.475-0.4211-3.908 0.7157-3.908 3.3261v4.8419h-4.2117v-11.578h3.9947v1.9789z" fill="#fff"/>
<path d="m105.25 21.209h4.038c0.174 0.5053 0.695 0.9684 1.693 0.9684 1.346 0 1.824-0.7999 1.824-2.0209v-0.8421h-0.087c-0.651 0.7579-1.563 1.3052-2.865 1.3052-2.562 0-4.82-1.8525-4.82-5.4734 0-3.3262 1.824-5.8944 4.603-5.8944 1.606 0 2.561 0.63155 3.213 1.6h0.086v-1.2631h3.995v10.021c0 1.8526-0.651 3.2841-1.65 4.1261-1.042 0.8842-2.518 1.2631-4.212 1.2631-3.213 0.0421-5.427-1.221-5.818-3.7893zm7.729-6.2312c0-1.4315-0.695-2.6104-1.911-2.6104-1.172 0-1.91 1.0105-1.91 2.6104 0 1.5578 0.738 2.6525 1.91 2.6525 1.173 0 1.911-1.1368 1.911-2.6525z" fill="#fff"/>
</svg>
