<?xml version="1.0" encoding="UTF-8"?>
<svg fill="none" viewBox="0 0 142 44" xmlns="http://www.w3.org/2000/svg">
<path d="m10.978 44h3.2945v-17.6h-3.2945v17.6zm12.077-0.264h2.9508v-11.104l12.42 11.368v-17.336h-2.9426v10.915l-12.429-11.179v17.336zm22.107-4.2625c1.606 1.2513 3.5337 1.9745 5.6003 1.9745 2.013 0 3.4252-0.693 3.4252-2.2234 0-1.3337-0.9007-1.8562-2.4778-2.4406l-2.5534-0.8869c-2.354-0.836-4.1442-2.057-4.1442-4.8634 0-3.0016 2.7101-4.6337 5.951-4.6337 1.9855 0 3.795 0.4991 5.2085 1.3832v2.9769c-1.4699-1.0862-3.0786-1.8342-5.1452-1.8342-1.7793 0-3.1089 0.6641-3.1089 2.0487 0 1.2513 0.8346 1.7518 2.3045 2.255l2.8449 0.9983c2.7568 0.9694 4.0218 2.4722 4.0218 4.9445 0 3.1102-2.7362 4.8276-6.3264 4.8276-2.3595 0-4.3656-0.66-5.6003-1.4933v-3.0332zm19.613 4.5265h3.2931v-17.6h-3.2931v17.6zm18.743-2.6634c3.7125 0 5.6966-2.3815 5.6966-6.1407 0-3.7868-1.9855-6.16-5.6966-6.16h-3.6712v12.301h3.6712zm-6.6688-14.937h6.7788c5.2181 0 8.5924 3.4375 8.5924 8.7959 0 5.3625-3.3743 8.8041-8.5924 8.8041h-6.7788v-17.6zm31.841 0v2.6359h-7.971v4.235h7.148v2.6056h-7.15v5.4601h7.973v2.6634h-10.98v-17.6h10.98zm11.69 7.9695h3.268c1.935 0 3.025-1.0615 3.025-2.6936s-1.09-2.695-3.025-2.695h-3.268v5.39-0.0014zm0 2.4887v7.1418h-2.908v-17.6h6.231c3.553 0 5.852 1.8301 5.852 5.2759 0 2.9466-1.276 4.6392-3.994 5.0737l6.183 7.2504h-3.308l-5.987-7.1404h-2.068l-1e-3 -0.0014zm-110.55-27.797c1.2884-0.47162 2.2922-1.8865 2.2922-3.8321 0-3.2423-2.2922-4.9225-5.9593-4.9225h-6.16v18.099h6.732c3.6671 0 5.9592-1.7985 5.9592-5.1879 0-1.9168-1.2031-3.597-2.8641-4.1566zm-6.9341-1.1495v-4.9514h3.2395c2.035 0 3.1226 0.73699 3.1226 2.4461 0 1.7091-1.089 2.5052-3.1226 2.5052h-3.2395zm0 2.5356h3.7812c2.0075 0 3.0951 1.001 3.0951 2.6523 0 1.6212-1.089 2.6538-3.0938 2.6538h-3.7812v-5.3075l-0.00138 0.0014zm23.239 8.2527c4.2116 0 7.0482-2.5355 7.0482-7.4869v-10.906h-2.9796v10.552c0 3.4787-1.4328 5.1012-4.0686 5.1012-2.6359 0-4.0673-1.6225-4.0673-5.1012v-10.552h-2.9796v10.876c0 4.9816 2.8641 7.5171 7.0469 7.5171zm14.064-1.5923c1.232 0.8855 3.2381 1.5923 5.5866 1.5923 3.5819 0 6.303-1.8287 6.303-5.1288 0-2.6234-1.2595-4.2157-4.0109-5.247l-2.8352-1.0615c-1.4616-0.52937-2.2921-1.0601-2.2921-2.387 0-1.474 1.3172-2.1808 3.0937-2.1808 2.0625 0 3.6671 0.79475 5.1288 1.9456v-3.1556c-1.4039-0.94188-3.2093-1.4726-5.1866-1.4726-3.2367 0-5.9303 1.7394-5.9303 4.9225 0 2.9769 1.7765 4.2735 4.125 5.1576l2.5506 0.9433c1.5758 0.6187 2.464 1.1797 2.464 2.5946 0 1.6211-1.4039 2.3581-3.41 2.3581-2.0625 0-3.982-0.7673-5.5866-2.0927v3.2119zm22.536-16.801h-2.9782v18.098h2.9782v-18.098zm8.5003 18.076h2.871v-11.774l12.084 12.055v-18.384h-2.8628v11.573l-12.092-11.852v18.382zm33.573-18.072v2.7101h-7.7355v4.356h6.9365v2.6799h-6.9365v5.6141h7.7355v2.739h-10.656v-18.099h10.656zm6.937 16.785c1.232 0.8855 3.237 1.5922 5.587 1.5922 3.58 0 6.303-1.8273 6.303-5.1287 0-2.6235-1.261-4.2144-4.011-5.247l-2.837-1.0601c-1.461-0.53075-2.292-1.0615-2.292-2.3884 0-1.474 1.317-2.1807 3.094-2.1807 2.062 0 3.667 0.79612 5.129 1.9456v-3.1542c-1.404-0.94325-3.21-1.474-5.187-1.474-3.237 0-5.93 1.7394-5.93 4.9225 0 2.9769 1.776 4.2735 4.125 5.1576l2.55 0.9433c1.576 0.6187 2.464 1.1797 2.464 2.5946 0 1.6211-1.402 2.3581-3.41 2.3581-2.062 0-3.982-0.7659-5.585-2.0927v3.212zm17.993 0c1.232 0.8855 3.238 1.5922 5.587 1.5922 3.582 0 6.303-1.8273 6.303-5.1287 0-2.6235-1.261-4.2144-4.011-5.247l-2.837-1.0601c-1.46-0.53075-2.292-1.0615-2.292-2.3884 0-1.474 1.319-2.1807 3.094-2.1807 2.063 0 3.669 0.79612 5.129 1.9456v-3.1542c-1.403-0.94325-3.208-1.474-5.185-1.474-3.238 0-5.931 1.7394-5.931 4.9225 0 2.9769 1.777 4.2735 4.125 5.1576l2.551 0.9433c1.576 0.6187 2.464 1.1797 2.464 2.5946 0 1.6211-1.404 2.3581-3.41 2.3581-2.062 0-3.982-0.7659-5.587-2.0927v3.212z" clip-rule="evenodd" fill="#161616" fill-rule="evenodd"/>
</svg>
