<?xml version="1.0" encoding="utf-8"?>
<!-- Generator: Adobe Illustrator 23.0.1, SVG Export Plug-In . SVG Version: 6.00 Build 0)  -->
<svg version="1.1" id="Layer_1" xmlns="http://www.w3.org/2000/svg" xmlns:xlink="http://www.w3.org/1999/xlink" x="0px" y="0px"
	 viewBox="0 0 3226.9 2633.4" style="enable-background:new 0 0 3226.9 2633.4;" xml:space="preserve">
<style type="text/css">
	.st0{opacity:0.6;}
	.st1{opacity:0.68;fill:#C5E3E8;enable-background:new    ;}
	.st2{opacity:0.77;fill:#D2EDF3;enable-background:new    ;}
	.st3{fill:url(#SVGID_1_);}
	.st4{fill:url(#SVGID_2_);}
	.st5{fill:url(#SVGID_3_);}
	.st6{opacity:0.1;fill:#EFF2F9;enable-background:new    ;}
	.st7{opacity:0.2;fill:#F6F9FB;enable-background:new    ;}
	.st8{fill:url(#SVGID_4_);}
	.st9{fill:#17152E;}
	.st10{opacity:0.5;fill:url(#SVGID_5_);enable-background:new    ;}
	.st11{opacity:0.5;fill:url(#SVGID_6_);enable-background:new    ;}
	.st12{fill:url(#SVGID_7_);}
	.st13{fill:#20295B;}
	.st14{fill:#2D2A46;}
	.st15{fill:url(#SVGID_8_);}
	.st16{fill:url(#SVGID_9_);}
	.st17{fill:#FFFFFF;}
	.st18{fill:url(#SVGID_10_);}
	.st19{opacity:0.5;fill:#135183;enable-background:new    ;}
	.st20{fill:url(#SVGID_11_);}
	.st21{fill:#257F9A;}
</style>
<title>hotbot-support-on-hand</title>
<g>
	<g id="Layer_1-2">
		<g id="bg" class="st0">
			<path class="st1" d="M2046.7,2401.6c-244.7-79.6-512.8-87.4-768.9-25.9c-669.5,160.6-343.1-164.2-456.3-365.4
				c-131.7-233.8,521.8-449,621.3-702.6S781.8,872,997.1,685.1c168.4-145.9-166-418,54.4-480c215.3-60.6,443.2-52.8,665.5-40.4
				c285.9,15.9,575.7,39.6,839.6,135c215.1,77.7,427.6,235.9,424.4,449.4c-2.9,182-163.3,344.3-162.8,526.2
				c0.8,254.7,304,413.2,384.1,654.8c93.4,281.8-93.1,561.4-311.6,602.3C2662.7,2575,2317.8,2489.8,2046.7,2401.6z"/>
			<path class="st2" d="M1816.3,156.1c-104.7-3-141.2,0-229.7-21c-26.8,6.6-53.7,13-81,19.1c-69,15.2-138.8,27.4-206,32.1
				c-92.1,6.5-179.5-1.1-255.1-33.6C943.7,109.2,739.1,23.2,630.6,6c-20.5-3.2-41.1-5.1-61.8-5.8c-44.3-1.5-88.5,4-131,16.4
				c-21.4,6.2-42.2,14.1-62.3,23.7c-104.9,49.3-192.4,140.4-273,251.5c-33.9,47.2-60,99.6-77.1,155.1C10.5,495,2.1,544.9,0.3,595.2
				C-4,722.8,36,849.5,126.2,939.4c4.2,4.3,8.6,8.4,13.1,12.4c91.7,84.6,220.4,140.6,280.5,242.7c9.9,16.8,17.8,34.9,23.3,53.6
				c35.3,120.3-32.1,224.8-112.6,329.5c-3.2,4.1-6.2,8.2-9.4,12.3c-9.7,12.2-19.3,24.7-29,36.9c-6.5,8.4-13,16.8-19.5,25.3
				c-7,8.9-13.7,17.8-20.4,26.8c-19.3,25.6-37.4,52.2-54.1,79.6c-9.6,15.7-18.3,32-26.2,48.6c-2.3,5-4.7,10.2-6.9,15.3
				c-24.3,58.5-35.6,121.6-33,184.9c5.3,164.5,94.4,330.6,226,435.4c186.1,148.6,435.9,193.6,673.9,190.5
				c169.7-2.2,346.9-33.4,504.9-98.7c6.1-2.3,12.4-4.9,18.6-7.7c24.8-10.6,49-22.2,72.7-34.7c11.9-6.3,23.7-12.8,35.4-19.6
				c3.6-2.2,7.4-4.4,11.1-6.6c13.8-8.1,27.3-16.8,40.6-25.7c18.6-12.4,36.3-25.5,53.7-39.2c1.3-1.1,2.7-2.1,4.1-3.3
				c8.4-6.8,16.7-13.7,24.9-20.7l1.6-1.5c2.7-2.3,5.3-4.7,8-7c3.8-3.4,7.4-6.9,11-10.3c3.4-3,6.8-6.2,9.9-9.3
				c4.8-4.6,9.6-9.3,14.3-14.1l5.3-5.7c3.8-3.9,7.7-8,11.4-12.1c1.7-1.8,3.3-3.6,4.9-5.3c2.7-2.6,5.2-5.6,7.7-8.6
				c8-9.1,15.7-18.6,23.1-28.2c3.8-4.8,7.4-9.6,11.2-14.4c5.8-8.2,11.6-16.3,17.4-24.7c2.2-3.5,4.7-7.1,7-10.6
				c0.5-0.9,1.1-1.6,1.7-2.7c3.2-5.2,6.6-10.5,9.8-15.9c2.9-4.6,5.7-9.1,8.2-13.9c0.5-0.7,0.9-1.4,1.2-2.1c4.9-8.5,9.5-17,14-25.9
				c3.8-7.4,7.3-14.7,10.9-22.4c7-15.2,13.6-30.7,19.5-46.5l0.2-0.6c1.9-4.3,3.5-8.9,5.1-13.5c0.4-0.9,0.7-1.7,0.9-2.6
				c6.4-17.5,12.2-35.5,17.4-53.8c3.2-10.9,6.2-22,9.1-33c1.5-6,3-12,4.6-18.2c5.7-23.5,10.9-47.5,15.7-71.6
				c1.8-9.6,3.7-18.9,5.3-28.4c5.3-28.6,10.3-57.2,14.9-85.8c10.1-60.3,19.5-120.4,32-178.8c5.9-28.8,12.7-57.2,20.4-84.9
				c2.4-8.7,4.8-17.1,7.7-25.7c7.8-25.6,16.9-50.8,27.4-75.5c9.8-23,21.2-45.4,34.1-66.9c15.7-27.2,34.2-52.8,55.2-76.3
				c88.7-99.5-368.1-149.3-274.4-243.4c89.1-89.4,157.5-187.3,148.3-313.1s79.6-111.3,0-209.3c-81.7-100.8,54.4-227.9-61.5-286.7
				C1984.4,190.3,1887.1,158.1,1816.3,156.1z"/>
		</g>
		
			<linearGradient id="SVGID_1_" gradientUnits="userSpaceOnUse" x1="1592.2151" y1="-479.6314" x2="1592.2151" y2="2009.2787" gradientTransform="matrix(1 0 0 -1 0 2631.3386)">
			<stop  offset="0" style="stop-color:#BAC8E1"/>
			<stop  offset="0.38" style="stop-color:#BECCE4"/>
			<stop  offset="0.79" style="stop-color:#CBD6EB"/>
			<stop  offset="1" style="stop-color:#D5DEF1"/>
		</linearGradient>
		<path class="st3" d="M2836.5,1302.1c0,673.7-535.2,1222.3-1203.5,1243.7c-13.5,0.6-27.1,0.7-40.8,0.7c-40.2,0-80-1.9-119.3-5.7
			c-54.3-5.1-108.2-13.9-161.4-26.2l-6.6-1.6c-46.6-10.7-92.4-24.4-137.2-40.9c-0.7-0.2-1.3-0.6-2-0.7
			c-52.5-19.1-103.7-41.8-153.1-67.9c-80.3-42.2-155.8-93.1-225-151.8l-7.9-6.8c-264.6-228.3-431.9-566-431.9-942.8
			C347.8,614.8,905,57.6,1592.3,57.6c43.1,0,86.1,2.2,128.9,6.6c4.2,0.4,8.7,0.9,12.9,1.5c90.4,10,179.3,30.1,265.2,60.1
			c52.6,18.2,103.9,39.8,153.6,64.7c0.1,0,0.2,0.1,0.2,0.2c43,21.9,84.8,46.3,125,73c1.3,0.9,2.8,1.8,4,2.8
			c90.7,60.6,173.2,132.8,245.3,214.7C2719.8,700.1,2836.5,987.6,2836.5,1302.1z"/>
		
			<linearGradient id="SVGID_2_" gradientUnits="userSpaceOnUse" x1="1592.21" y1="2504.3787" x2="1592.2101" y2="154.0986" gradientTransform="matrix(1 0 0 -1 0 2631.3386)">
			<stop  offset="0" style="stop-color:#2D94A4"/>
			<stop  offset="1" style="stop-color:#135183"/>
		</linearGradient>
		<circle class="st4" cx="1592.2" cy="1302.1" r="1175.1"/>
		
			<linearGradient id="SVGID_3_" gradientUnits="userSpaceOnUse" x1="1592.21" y1="204.2487" x2="1592.21" y2="2454.2285" gradientTransform="matrix(1 0 0 -1 0 2631.3386)">
			<stop  offset="0" style="stop-color:#2D94A4"/>
			<stop  offset="1" style="stop-color:#135183"/>
		</linearGradient>
		<circle class="st5" cx="1592.2" cy="1302.1" r="1125"/>
		<circle class="st6" cx="1592.2" cy="1302.1" r="1175.1"/>
		<path class="st7" d="M2153.1,190.8l-29.7,62.9L1176,2447.5l-10.3,23.8c-52.5-19.1-103.7-41.8-153.1-67.9
			c-80.3-42.2-155.8-93.1-225-151.8l11.6-27.1l903.7-2092.2l31.2-66.6c90.4,10,179.3,30.1,265.2,60.1
			c52.6,18.2,103.9,39.8,153.6,64.7C2153,190.6,2153.1,190.7,2153.1,190.8z"/>
		<path class="st7" d="M2836.5,1302.1c0,673.7-535.2,1222.3-1203.5,1243.7c-13.5,0.6-27.1,0.7-40.8,0.7c-40.2,0-80-1.9-119.3-5.7
			c-54.3-5.1-108.2-13.9-161.4-26.2l-6.6-1.6l9.2-21.4l935-2164v-0.2l29-63.6c1.3,0.9,2.8,1.8,4,2.8
			c90.7,60.6,173.2,132.8,245.3,214.7C2719.8,700.1,2836.5,987.6,2836.5,1302.1z"/>
		
			<linearGradient id="SVGID_4_" gradientUnits="userSpaceOnUse" x1="1873.0699" y1="781.7527" x2="2372.918" y2="781.7527" gradientTransform="matrix(1 0 0 -1 0 2631.3386)">
			<stop  offset="0" style="stop-color:#D1D1D5"/>
			<stop  offset="0.99" style="stop-color:#FFFFFF"/>
		</linearGradient>
		<path class="st8" d="M2372.9,1635.4c2.8,225.5-327.8,489.3-499.8,415.7l3.9-27.1c156.3,61.4,461.6-184.7,467.7-383.6
			C2354.2,1639.5,2363.7,1637.9,2372.9,1635.4z"/>
		<path class="st9" d="M969.3,1633.3c-53.3,5.9-114.2,14.4-166.6-1.2c-44.7-13.3-66.7-51.8-76.8-93.9
			c-161.3-273.7-40.2-441.3,0.7-497.7c-19.7-26.3-14.3-63.6,12-83.2c8.8-6.6,19.3-10.6,30.2-11.6c2-0.1,4-0.3,6-0.3
			c1.5,0,3,0,4.4,0.1c1.2,0.2,2.5,0.4,3.8,0.5c15,2,28.8,9.7,38.3,21.5c0,0.1-0.1,0.3-0.3,0.4c20.4,25.8,16.1,63.2-9.6,83.7
			c-10.6,8.4-23.7,12.9-37.2,12.9c-5.3,0-10.6-0.7-15.7-2.2v0.1c-62.3,110.1-55.1,211.8-29,290.1c4.7-19.2,11.3-38.3,22.3-54.2
			c30.9-45.3,96.7-72,216.5-46.9C969.8,1316.4,975.3,1576.3,969.3,1633.3z"/>
		<path class="st9" d="M2466.8,1538.3c-10.2,42.1-32.3,80.6-76.9,93.9c-52.4,15.6-113.4,7.1-166.5,1.2c-6.2-57-0.7-317,0.8-381.8
			c120-25,185.6,1.6,216.5,46.9c11,15.9,17.8,35,22.3,54.2c26.1-78.3,33.2-180-28.9-290c0-0.1-0.1-0.1-0.1-0.3
			c-5.1,1.5-10.4,2.2-15.7,2.2c-11.9,0-23.5-3.5-33.4-10.2c-1.8-1.1-3.5-2.3-5-3.8c-2.8-2.4-5.3-4.9-7.7-7.7
			c-1.1-1.3-2.1-2.8-3.1-4.2c-3-4.4-5.4-9.3-7.1-14.4c-0.5-1.5-1-2.9-1.3-4.4c-0.4-1.5-0.8-3.1-1.1-4.7c-2.1-12.6-0.2-25.5,5.5-37
			c0.8-1.6,1.8-3.2,2.7-4.7c1-1.5,2-3,3.1-4.4c9.3-12.4,23.2-20.7,38.6-23l2.8-0.4c2-0.1,4-0.3,6-0.3c1.5,0,3,0,4.4,0.1
			c0.3,0,0.4,0.1,0.7,0.1c1.1,0.1,2.1,0.3,3.1,0.4c1.9,0.2,3.8,0.6,5.6,1.1c1.5,0.2,3,0.6,4.4,1.2c1.5,0.4,3,1.1,4.4,1.6
			c0.1,0,0.3,0.1,0.4,0.1c1.8,0.8,3.5,1.6,5.1,2.6s3.4,1.9,5,3s3.1,2.2,4.6,3.4c13.7,11.4,21.6,28.2,21.6,46
			c0,12.8-4.2,25.3-11.8,35.5c0,0.1,0.1,0.1,0.3,0.3C2507.3,1097.5,2627.6,1265,2466.8,1538.3z"/>
		
			<linearGradient id="SVGID_5_" gradientUnits="userSpaceOnUse" x1="2220.5081" y1="1338.1333" x2="2548.1355" y2="1338.1333" gradientTransform="matrix(1 0 0 -1 0 2631.3386)">
			<stop  offset="0.11" style="stop-color:#7870A9;stop-opacity:0"/>
			<stop  offset="0.43" style="stop-color:#8077B6;stop-opacity:0.27"/>
			<stop  offset="0.74" style="stop-color:#9384BE;stop-opacity:0.78"/>
			<stop  offset="0.94" style="stop-color:#978AC2"/>
		</linearGradient>
		<path class="st10" d="M2466.8,1538.3c-10.2,42.1-32.3,80.6-76.9,93.9c-52.4,15.6-113.4,7.1-166.5,1.2c-6.2-57-0.7-317,0.8-381.8
			c120-25,185.6,1.6,216.5,46.9c11,15.9,17.8,35,22.3,54.2c26.1-78.3,33.2-180-28.9-290c0-0.1-0.1-0.1-0.1-0.3
			c-5.1,1.5-10.4,2.2-15.7,2.2c-11.9,0-23.5-3.5-33.4-10.2c-1.8-1.1-3.5-2.3-5-3.8c-2.8-2.4-5.3-4.9-7.7-7.7
			c-1.1-1.3-2.1-2.8-3.1-4.2c-3-4.4-5.4-9.3-7.1-14.4c-0.5-1.5-1-2.9-1.3-4.4c-0.4-1.5-0.8-3.1-1.1-4.7c-2.1-12.6-0.2-25.5,5.5-37
			c0.8-1.6,1.8-3.2,2.7-4.7c1-1.5,2-3,3.1-4.4c9.3-12.4,23.2-20.7,38.6-23l2.8-0.4c2-0.1,4-0.3,6-0.3c1.5,0,3,0,4.4,0.1
			c0.3,0,0.4,0.1,0.7,0.1c1.1,0.1,2.1,0.3,3.1,0.4c1.9,0.2,3.8,0.6,5.6,1.1c1.5,0.2,3,0.6,4.4,1.2c1.5,0.4,3,1.1,4.4,1.6
			c0.1,0,0.3,0.1,0.4,0.1c1.8,0.8,3.5,1.6,5.1,2.6s3.4,1.9,5,3s3.1,2.2,4.6,3.4c13.7,11.4,21.6,28.2,21.6,46
			c0,12.8-4.2,25.3-11.8,35.5c0,0.1,0.1,0.1,0.3,0.3C2507.3,1097.5,2627.6,1265,2466.8,1538.3z"/>
		
			<linearGradient id="SVGID_6_" gradientUnits="userSpaceOnUse" x1="644.42" y1="1338.1083" x2="972.0521" y2="1338.1083" gradientTransform="matrix(1 0 0 -1 0 2631.3386)">
			<stop  offset="6.000000e-02" style="stop-color:#978AC2"/>
			<stop  offset="0.21" style="stop-color:#9384BE;stop-opacity:0.78"/>
			<stop  offset="0.57" style="stop-color:#8077B6;stop-opacity:0.27"/>
			<stop  offset="0.76" style="stop-color:#7870A9;stop-opacity:0"/>
		</linearGradient>
		<path class="st11" d="M969.3,1633.3c-53.3,5.9-114.2,14.4-166.6-1.2c-44.7-13.3-66.7-51.8-76.8-93.9
			c-161.3-273.7-40.2-441.3,0.7-497.7c-19.7-26.3-14.3-63.6,12-83.2c8.8-6.6,19.3-10.6,30.2-11.6c2-0.1,4-0.3,6-0.3
			c1.5,0,3,0,4.4,0.1c1.2,0.2,2.5,0.4,3.8,0.5c15,2,28.8,9.7,38.3,21.5c0,0.1-0.1,0.3-0.3,0.4c20.4,25.8,16.1,63.2-9.6,83.7
			c-10.6,8.4-23.7,12.9-37.2,12.9c-5.3,0-10.6-0.7-15.7-2.2v0.1c-62.3,110.1-55.1,211.8-29,290.1c4.7-19.2,11.3-38.3,22.3-54.2
			c30.9-45.3,96.7-72,216.5-46.9C969.8,1316.4,975.3,1576.3,969.3,1633.3z"/>
		
			<linearGradient id="SVGID_7_" gradientUnits="userSpaceOnUse" x1="1596.2922" y1="745.6385" x2="1596.2922" y2="1665.4475" gradientTransform="matrix(1 0 0 -1 0 2631.3386)">
			<stop  offset="0" style="stop-color:#D1D1D5"/>
			<stop  offset="0.99" style="stop-color:#FFFFFF"/>
		</linearGradient>
		<path class="st12" d="M2206.9,1748.8c-95.1,83-155.3,136.7-609.5,136.9h-2.2c-454.3-0.2-514.5-53.9-609.6-136.9
			s-133.3-257.3-122.9-403.2s104.7-251.3,228.5-308.7c150.5-73.2,487.1-71.2,504.7-71h0.7c17.7-0.1,354.1-2.1,504.7,71.1
			c123.8,57.3,218.1,162.7,228.5,308.6S2302.2,1665.7,2206.9,1748.8z"/>
		<path id="eyes" class="st13" d="M1426.2,1428.1c-8.4,52.1-46-0.9-103.7-10.3s-110.2,31-101.8-22
			C1243.3,1270,1441.7,1302.4,1426.2,1428.1z M1975.1,1395.7c8.4,53-45.5,12.7-101.8,22s-94.8,62.4-103.7,10.3
			C1750.4,1303.8,1955.4,1271.4,1975.1,1395.7L1975.1,1395.7z"/>
		<path class="st9" d="M2169.3,1392c-2.3,152.4-28.1,314.3-206.4,344.8c-242.4,38.9-489.5,38.5-731.8-0.9
			c-166.1-28.6-199.8-171.2-205.5-313.8c-18.3-170.3,73.2-244.4,197-277.2l0,0c0,0,312.9-90.5,697.5-11.7c23,3.2,45.7,8.1,68,14.5
			h0.5c8.8,2.3,17.4,5.1,25.8,8.4C2106.9,1191.7,2176.3,1262.5,2169.3,1392z M1976.6,1817.2c267.2-45.7,272.6-317.9,274.2-422.5
			c7.5-148.7-66-260.4-206.8-314.8c-11.3-4.4-22.9-8.2-34.6-11.3l-3.2-0.8c-23.6-6.6-47.7-11.7-72-15.3
			c-398.7-81-720.7,9.8-732.5,13.3c-236.5,62.7-270.9,230.8-257.5,362c3.5,88.2,16.2,344.1,273.8,388.5
			c126.3,20.6,254,30.9,382,30.9C1726.1,1847.3,1852.1,1837.2,1976.6,1817.2z M1903.8,1213l4.8,0.8c19.2,2.7,38.1,6.7,56.7,12.1
			l11.1,3.1c2.8,0.9,5.7,1.9,8.6,3.1c75.3,29,107,77,102.7,155.4l-0.1,3.2c-3.1,202-55.3,251.4-137.7,265.5
			c-233.5,37.5-471.6,37.2-705-0.8c-77.6-13.4-130.8-58.7-137.8-236.6l-0.4-5.5c-11.5-107.3,26.8-160.5,138.6-190.1
			c2-0.6,144.2-40.7,351.4-40.7C1688.5,1182.4,1793.1,1190.3,1903.8,1213z"/>
		<path class="st9" d="M2169.3,1391.3c-2.3,160.7-28.1,331.3-206.4,363.4c-242.2,41-489.7,40.6-731.8-1
			c-166.1-30.2-199.8-180.4-205.5-330.7c-18.3-179.5,73.2-257.6,197-292.2l0,0c0,0,312.9-95.4,697.5-12.4c23,3.4,45.7,8.5,68,15.3
			h0.5c8.8,2.4,17.4,5.4,25.8,8.9C2106.9,1180.2,2176.3,1254.9,2169.3,1391.3z"/>
		<path class="st14" d="M2214.3,1387.9c-2.5,173.3-30.4,357.3-222.6,392c-261.3,44.2-528.2,43.8-789.3-1.1
			c-179.1-32.5-215.5-194.7-221.6-356.8c-19.7-193.6,78.9-277.8,212.5-315.2l0,0c0,0,337.5-102.9,752.4-13.3
			c24.8,3.7,49.4,9.2,73.4,16.5h0.5c9.5,2.6,18.8,5.8,27.8,9.6C2147,1160.2,2221.9,1240.7,2214.3,1387.9z"/>
		
			<linearGradient id="SVGID_8_" gradientUnits="userSpaceOnUse" x1="1826.0092" y1="593.4408" x2="1016.1291" y2="-356.4792" gradientTransform="matrix(1 0 0 1 0 1112.0813)">
			<stop  offset="0.47" style="stop-color:#9F9EAB;stop-opacity:0"/>
			<stop  offset="0.78" style="stop-color:#A09FAC"/>
		</linearGradient>
		<path class="st15" d="M2205.6,1385.6c-2.5,172.1-30.1,354.8-221,389.2c-259.4,43.9-524.4,43.5-783.8-1
			c-177.8-32.3-214-193.3-220-354.3c-19.6-192.2,78.4-275.9,211-313l0,0c0,0,335.1-102.2,747.1-13.2c24.7,3.7,49,9.1,72.8,16.4h0.5
			c9.4,2.6,18.6,5.8,27.6,9.5C2138.8,1159.5,2213.1,1239.4,2205.6,1385.6z"/>
		
			<linearGradient id="SVGID_9_" gradientUnits="userSpaceOnUse" x1="1456.182" y1="191.9264" x2="2337.032" y2="1072.7765" gradientTransform="matrix(1 0 0 1 0 1112.0813)">
			<stop  offset="0.34" style="stop-color:#7870A9;stop-opacity:0"/>
			<stop  offset="0.44" style="stop-color:#7D75B2;stop-opacity:0.21"/>
			<stop  offset="0.61" style="stop-color:#8B7DB9;stop-opacity:0.56"/>
			<stop  offset="0.82" style="stop-color:#978AC2"/>
		</linearGradient>
		<path class="st16" d="M1991.7,1780.2c-261.4,43.1-528.2,42.8-789.5-1c-179.2-31.8-215.6-190-221.7-348.2v-78.6
			c15.7-190,185.7-246.7,359.9-248.8c169.9-18.7,341.3-18.7,511.2,0c187.8,2.6,373.5,68.2,362.9,294.1
			C2212.4,1566.8,2184,1746.4,1991.7,1780.2z"/>
		<path class="st17" d="M1426.2,1428.1c-8.4,52.1-46-0.9-103.7-10.3s-110.2,31-101.8-22C1243.3,1270,1441.7,1302.4,1426.2,1428.1z
			 M1874.2,1417.8c-56.3,9.4-94.8,62.4-103.7,10.3c-18.8-124.8,185.3-156.2,205.5-31.4C1984,1448.7,1931,1409.3,1874.2,1417.8
			L1874.2,1417.8z"/>
		<path class="st17" d="M1426.2,1428.1c-8.4,52.1-46-0.9-103.7-10.3s-110.2,31-101.8-22C1243.3,1270,1441.7,1302.4,1426.2,1428.1z
			 M1874.2,1417.8c-56.3,9.4-94.8,62.4-103.7,10.3c-18.8-124.8,185.3-156.2,205.5-31.4C1984,1448.7,1931,1409.3,1874.2,1417.8
			L1874.2,1417.8z"/>
		<path class="st17" d="M1724.6,1584.8c0.9,156.7-255.2,156.7-254.3,0c0.5-12.2,10.3-22,22.5-22.5h209.7c12.2,0.1,22.1,10,22,22.3
			C1724.5,1584.6,1724.5,1584.7,1724.6,1584.8L1724.6,1584.8z"/>
		
			<linearGradient id="SVGID_10_" gradientUnits="userSpaceOnUse" x1="1687.1387" y1="532.4276" x2="1964.2587" y2="372.4276" gradientTransform="matrix(1 -7.000000e-02 -7.000000e-02 -1 26.0437 2628.2385)">
			<stop  offset="0" style="stop-color:#2D94A4"/>
			<stop  offset="1" style="stop-color:#135183"/>
		</linearGradient>
		<path class="st18" d="M1981.6,2038.5c2.2,55.1-39.9,102-94.9,105.9c-1,0.1-2.1,0.1-3.2,0.1l-131.2,5.1
			c-56.4,2.3-103.9-41.5-106.3-97.8c-2.3-55.3,39.9-102.4,95.1-106.1c1-0.1,2.1-0.1,3.2-0.2l131.2-5.1
			C1931.9,1938.2,1979.4,1982.1,1981.6,2038.5C1981.6,2038.5,1981.6,2038.5,1981.6,2038.5L1981.6,2038.5z"/>
		<path class="st19" d="M1981.6,2038.5c2.2,55.1-39.9,102-94.9,105.9c-1,0.1-2.1,0.1-3.2,0.1l-131.2,5.1
			c-42.4,1.7-81.4-23.1-98-62.2c21,24.5,56.3,41.3,77.9,44.7c13.9,1.9,28.5,1.3,42.5,1.1c25-0.3,50-1.5,74.8-3.6
			c12.6-1.1,25.5-2,37.9-4.2c14.7-2.6,28.7-8.2,41.1-16.5c20.5-13.6,36.8-32.5,44-56.3c2.9-9.9,4.5-20.1,4.7-30.4
			c0-3.4,0-6.8-0.2-10.3C1979.7,2020.4,1981.2,2029.4,1981.6,2038.5z"/>
		
			<linearGradient id="SVGID_11_" gradientUnits="userSpaceOnUse" x1="1597.715" y1="1736.1155" x2="1597.715" y2="2230.6355" gradientTransform="matrix(1 0 0 -1 0 2631.3386)">
			<stop  offset="0.15" style="stop-color:#D1D1D5"/>
			<stop  offset="0.56" style="stop-color:#EDEDEE"/>
			<stop  offset="0.89" style="stop-color:#FFFFFF"/>
		</linearGradient>
		<path class="st20" d="M2035.9,521.7v267.3c0,17.8-14.4,32.2-32.2,32.2h-335c-9.2,0-17.9,4.6-23,12.3l-37.3,56
			c-3.9,5.9-11.9,7.5-17.9,3.6c-1.4-1-2.7-2.2-3.6-3.6l-37.3-56c-5.1-7.7-13.8-12.3-23-12.3h-334.8c-17.8,0-32.2-14.4-32.2-32.2
			V521.7c0-17.9,14.5-32.4,32.4-32.4h811.6C2021.4,489.3,2035.9,503.8,2035.9,521.7z"/>
		<path class="st21" d="M1486.1,655.2c0,21.7-17.6,39.3-39.3,39.3c-21.7,0-39.3-17.6-39.3-39.3c0-21.7,17.6-39.3,39.3-39.3
			c0,0,0,0,0,0C1468.5,615.9,1486.1,633.5,1486.1,655.2z M1597.7,615.9c-21.7,0-39.3,17.6-39.4,39.3c0,21.7,17.6,39.3,39.3,39.4
			c21.7,0,39.3-17.6,39.4-39.3c0,0,0,0,0,0C1637,633.5,1619.4,615.9,1597.7,615.9z M1748.7,615.9c-21.7,0-39.3,17.6-39.4,39.3
			c0,21.7,17.6,39.3,39.3,39.4c21.7,0,39.3-17.6,39.4-39.3c0,0,0,0,0,0C1788,633.5,1770.4,615.9,1748.7,615.9
			C1748.7,615.9,1748.7,615.9,1748.7,615.9L1748.7,615.9z"/>
	</g>
</g>
</svg>
