<?xml version="1.0" encoding="UTF-8"?>
<svg fill="none" viewBox="0 0 488 599" xmlns="http://www.w3.org/2000/svg">
<path d="m28.25 11.705c-2.5582-2.2734-6.4126-2.2734-8.9708 0l-9.0516 8.044h-0.2277v561h1.8615l7.4178 6.592c2.5582 2.273 6.4126 2.273 8.9708 0l7.4178-6.592h3.723l7.4178 6.592c2.5582 2.273 6.4126 2.273 8.9708 0l7.4178-6.592h3.723l7.4178 6.592c2.5582 2.273 6.4126 2.273 8.9708 0l7.4178-6.592h3.7231l7.4182 6.592c2.558 2.273 6.412 2.273 8.97 0l7.418-6.592h3.723l7.418 6.592c2.558 2.273 6.413 2.273 8.971 0l7.418-6.592h3.723l7.417 6.592c2.559 2.273 6.413 2.273 8.971 0l7.418-6.592h3.723l7.418 6.592c2.558 2.273 6.412 2.273 8.971 0l7.417-6.592h3.723l7.418 6.592c2.558 2.273 6.413 2.273 8.971 0l7.418-6.592h3.723l7.418 6.592c2.558 2.273 6.412 2.273 8.97 0l7.418-6.592h3.723l7.418 6.592c2.558 2.273 6.413 2.273 8.971 0l7.418-6.592h3.723l7.417 6.592c2.559 2.273 6.413 2.273 8.971 0l7.418-6.592h3.723l7.418 6.592c2.558 2.273 6.412 2.273 8.971 0l7.417-6.592h3.723l7.418 6.592c2.558 2.273 6.413 2.273 8.971 0l7.418-6.592h3.723l7.418 6.592c2.558 2.273 6.412 2.273 8.97 0l7.418-6.592h3.723l7.418 6.592c2.558 2.273 6.413 2.273 8.971 0l7.418-6.592h3.723l7.417 6.592c2.559 2.273 6.413 2.273 8.971 0l7.418-6.592h3.723l7.418 6.592c2.558 2.273 6.413 2.273 8.971 0l7.417-6.592h1.862v-561h-0.228l-9.051-8.044c-2.558-2.2734-6.413-2.2734-8.971 0l-9.052 8.044h-0.455l-9.052-8.044c-2.558-2.2734-6.412-2.2734-8.971 0l-9.051 8.044h-0.456l-9.051-8.044c-2.558-2.2734-6.413-2.2734-8.971 0l-9.052 8.044h-0.455l-9.052-8.044c-2.558-2.2734-6.412-2.2734-8.97 0l-9.052 8.044h-0.455l-9.052-8.044c-2.558-2.2734-6.413-2.2734-8.971 0l-9.051 8.044h-0.456l-9.051-8.044c-2.559-2.2734-6.413-2.2734-8.971 0l-9.052 8.044h-0.455l-9.052-8.044c-2.558-2.2734-6.412-2.2734-8.971 0l-9.051 8.044h-0.456l-9.051-8.044c-2.558-2.2734-6.413-2.2734-8.971 0l-9.052 8.044h-0.455l-9.052-8.044c-2.558-2.2734-6.412-2.2734-8.97 0l-9.052 8.044h-0.455l-9.052-8.044c-2.558-2.2734-6.413-2.2734-8.971 0l-9.051 8.044h-0.456l-9.051-8.044c-2.559-2.2734-6.413-2.2734-8.971 0l-9.052 8.044h-0.455l-9.052-8.044c-2.558-2.2734-6.412-2.2734-8.971 0l-9.051 8.044h-0.456l-9.051-8.044c-2.558-2.2734-6.413-2.2734-8.971 0l-9.052 8.044h-0.455l-9.052-8.044c-2.558-2.2734-6.412-2.2734-8.97 0l-9.0521 8.044h-0.4554l-9.0516-8.044c-2.5582-2.2734-6.4126-2.2734-8.9708 0l-9.0516 8.044h-0.4554l-9.0516-8.044c-2.5582-2.2734-6.4126-2.2734-8.9708 0l-9.0516 8.044h-0.4554l-9.0516-8.044z" clip-rule="evenodd" fill="#fff" fill-rule="evenodd"/>
<mask id="a" fill="white">
<path d="m10 445.27c0-0.276 0.2235-0.5 0.4992-0.5h466.21c0.276 0 0.499 0.224 0.499 0.5 0 0.275-0.224 0.499-0.499 0.499h-466.21c-0.2757 0-0.4992-0.224-0.4992-0.499z"/>
</mask>
<path d="m10.5 445.27c0-0.276-0.2239-0.5-0.5-0.5-0.27614 0-0.5 0.224-0.5 0.5h1zm467.21 0c0-0.276-0.224-0.5-0.5-0.5s-0.5 0.224-0.5 0.5h1zm-1 0c0 0.276 0.224 0.5 0.5 0.5s0.5-0.224 0.5-0.5h-1zm-467.21 0c0 0.276 0.22386 0.5 0.5 0.5 0.2761 0 0.5-0.224 0.5-0.5h-1zm0.9993-1e-3c-0.2626-0.085-0.54468 0.058-0.62997 0.321s0.05849 0.545 0.32117 0.63l0.3088-0.951zm-0.95055 0.309c0.08528 0.263 0.36733 0.407 0.62995 0.322 0.2627-0.086 0.4064-0.368 0.3212-0.63l-0.95115 0.308zm0.95115-0.308c0.0853-0.263-0.0585-0.545-0.3212-0.63-0.26261-0.086-0.54466 0.058-0.62995 0.321l0.95115 0.309zm-0.3094-0.951c-0.26267 0.085-0.40645 0.368-0.32116 0.63 0.08528 0.263 0.36736 0.407 0.62996 0.321l-0.3088-0.951zm4.3627 0.951c0.2762 0 0.5-0.223 0.5-0.5 0-0.276-0.2238-0.5-0.5-0.5v1zm12.162-1c-0.2762 0-0.5 0.224-0.5 0.5 0 0.277 0.2238 0.5 0.5 0.5v-1zm8.108 1c0.2761 0 0.5-0.223 0.5-0.5 0-0.276-0.2239-0.5-0.5-0.5v1zm12.162-1c-0.2761 0-0.5 0.224-0.5 0.5 0 0.277 0.2239 0.5 0.5 0.5v-1zm8.1081 1c0.2761 0 0.5-0.223 0.5-0.5 0-0.276-0.2239-0.5-0.5-0.5v1zm12.162-1c-0.2761 0-0.5 0.224-0.5 0.5 0 0.277 0.2239 0.5 0.5 0.5v-1zm8.108 1c0.2762 0 0.5-0.223 0.5-0.5 0-0.276-0.2238-0.5-0.5-0.5v1zm12.162-1c-0.2762 0-0.5 0.224-0.5 0.5 0 0.277 0.2238 0.5 0.5 0.5v-1zm8.108 1c0.2761 0 0.5-0.223 0.5-0.5 0-0.276-0.2239-0.5-0.5-0.5v1zm12.162-1c-0.277 0-0.5 0.224-0.5 0.5 0 0.277 0.223 0.5 0.5 0.5v-1zm8.108 1c0.276 0 0.5-0.223 0.5-0.5 0-0.276-0.224-0.5-0.5-0.5v1zm12.162-1c-0.277 0-0.5 0.224-0.5 0.5 0 0.277 0.223 0.5 0.5 0.5v-1zm8.108 1c0.276 0 0.5-0.223 0.5-0.5 0-0.276-0.224-0.5-0.5-0.5v1zm12.162-1c-0.276 0-0.5 0.224-0.5 0.5 0 0.277 0.224 0.5 0.5 0.5v-1zm8.108 1c0.276 0 0.5-0.223 0.5-0.5 0-0.276-0.224-0.5-0.5-0.5v1zm12.162-1c-0.276 0-0.5 0.224-0.5 0.5 0 0.277 0.224 0.5 0.5 0.5v-1zm8.108 1c0.276 0 0.5-0.223 0.5-0.5 0-0.276-0.224-0.5-0.5-0.5v1zm12.162-1c-0.276 0-0.5 0.224-0.5 0.5 0 0.277 0.224 0.5 0.5 0.5v-1zm8.108 1c0.276 0 0.5-0.223 0.5-0.5 0-0.276-0.224-0.5-0.5-0.5v1zm12.162-1c-0.276 0-0.5 0.224-0.5 0.5 0 0.277 0.224 0.5 0.5 0.5v-1zm8.108 1c0.276 0 0.5-0.223 0.5-0.5 0-0.276-0.224-0.5-0.5-0.5v1zm12.162-1c-0.276 0-0.5 0.224-0.5 0.5 0 0.277 0.224 0.5 0.5 0.5v-1zm8.108 1c0.276 0 0.5-0.223 0.5-0.5 0-0.276-0.224-0.5-0.5-0.5v1zm12.162-1c-0.276 0-0.5 0.224-0.5 0.5 0 0.277 0.224 0.5 0.5 0.5v-1zm8.108 1c0.276 0 0.5-0.223 0.5-0.5 0-0.276-0.224-0.5-0.5-0.5v1zm12.162-1c-0.276 0-0.5 0.224-0.5 0.5 0 0.277 0.224 0.5 0.5 0.5v-1zm8.108 1c0.276 0 0.5-0.223 0.5-0.5 0-0.276-0.224-0.5-0.5-0.5v1zm12.162-1c-0.276 0-0.5 0.224-0.5 0.5 0 0.277 0.224 0.5 0.5 0.5v-1zm8.108 1c0.276 0 0.5-0.223 0.5-0.5 0-0.276-0.224-0.5-0.5-0.5v1zm12.162-1c-0.276 0-0.5 0.224-0.5 0.5 0 0.277 0.224 0.5 0.5 0.5v-1zm8.108 1c0.277 0 0.5-0.223 0.5-0.5 0-0.276-0.223-0.5-0.5-0.5v1zm12.162-1c-0.276 0-0.5 0.224-0.5 0.5 0 0.277 0.224 0.5 0.5 0.5v-1zm8.108 1c0.277 0 0.5-0.223 0.5-0.5 0-0.276-0.223-0.5-0.5-0.5v1zm12.162-1c-0.276 0-0.5 0.224-0.5 0.5 0 0.277 0.224 0.5 0.5 0.5v-1zm8.109 1c0.276 0 0.5-0.223 0.5-0.5 0-0.276-0.224-0.5-0.5-0.5v1zm12.162-1c-0.277 0-0.5 0.224-0.5 0.5 0 0.277 0.223 0.5 0.5 0.5v-1zm8.108 1c0.276 0 0.5-0.223 0.5-0.5 0-0.276-0.224-0.5-0.5-0.5v1zm12.162-1c-0.277 0-0.5 0.224-0.5 0.5 0 0.277 0.223 0.5 0.5 0.5v-1zm8.108 1c0.276 0 0.5-0.223 0.5-0.5 0-0.276-0.224-0.5-0.5-0.5v1zm12.162-1c-0.276 0-0.5 0.224-0.5 0.5 0 0.277 0.224 0.5 0.5 0.5v-1zm8.108 1c0.276 0 0.5-0.223 0.5-0.5 0-0.276-0.224-0.5-0.5-0.5v1zm12.162-1c-0.276 0-0.5 0.224-0.5 0.5 0 0.277 0.224 0.5 0.5 0.5v-1zm8.108 1c0.276 0 0.5-0.223 0.5-0.5 0-0.276-0.224-0.5-0.5-0.5v1zm12.162-1c-0.276 0-0.5 0.224-0.5 0.5 0 0.277 0.224 0.5 0.5 0.5v-1zm8.108 1c0.276 0 0.5-0.223 0.5-0.5 0-0.276-0.224-0.5-0.5-0.5v1zm12.162-1c-0.276 0-0.5 0.224-0.5 0.5 0 0.277 0.224 0.5 0.5 0.5v-1zm4.054 1c0.262 0.086 0.544-0.058 0.63-0.321 0.085-0.262-0.059-0.545-0.321-0.63l-0.309 0.951zm0.95-0.309c-0.085-0.263-0.367-0.407-0.63-0.321-0.262 0.085-0.406 0.367-0.321 0.63l0.951-0.309zm-0.951 0.309c-0.085 0.262 0.059 0.544 0.321 0.63 0.263 0.085 0.545-0.059 0.63-0.322l-0.951-0.308zm0.31 0.95c0.262-0.085 0.406-0.367 0.321-0.63-0.086-0.263-0.368-0.406-0.63-0.321l0.309 0.951zm-4.363-0.951c-0.276 0-0.5 0.224-0.5 0.5s0.224 0.5 0.5 0.5v-1zm-12.162 1c0.276 0 0.5-0.224 0.5-0.5s-0.224-0.5-0.5-0.5v1zm-8.108-1c-0.276 0-0.5 0.224-0.5 0.5s0.224 0.5 0.5 0.5v-1zm-12.162 1c0.276 0 0.5-0.224 0.5-0.5s-0.224-0.5-0.5-0.5v1zm-8.108-1c-0.277 0-0.5 0.224-0.5 0.5s0.223 0.5 0.5 0.5v-1zm-12.162 1c0.276 0 0.5-0.224 0.5-0.5s-0.224-0.5-0.5-0.5v1zm-8.108-1c-0.277 0-0.5 0.224-0.5 0.5s0.223 0.5 0.5 0.5v-1zm-12.162 1c0.276 0 0.5-0.224 0.5-0.5s-0.224-0.5-0.5-0.5v1zm-8.109-1c-0.276 0-0.5 0.224-0.5 0.5s0.224 0.5 0.5 0.5v-1zm-12.162 1c0.277 0 0.5-0.224 0.5-0.5s-0.223-0.5-0.5-0.5v1zm-8.108-1c-0.276 0-0.5 0.224-0.5 0.5s0.224 0.5 0.5 0.5v-1zm-12.162 1c0.277 0 0.5-0.224 0.5-0.5s-0.223-0.5-0.5-0.5v1zm-8.108-1c-0.276 0-0.5 0.224-0.5 0.5s0.224 0.5 0.5 0.5v-1zm-12.162 1c0.276 0 0.5-0.224 0.5-0.5s-0.224-0.5-0.5-0.5v1zm-8.108-1c-0.276 0-0.5 0.224-0.5 0.5s0.224 0.5 0.5 0.5v-1zm-12.162 1c0.276 0 0.5-0.224 0.5-0.5s-0.224-0.5-0.5-0.5v1zm-8.108-1c-0.276 0-0.5 0.224-0.5 0.5s0.224 0.5 0.5 0.5v-1zm-12.162 1c0.276 0 0.5-0.224 0.5-0.5s-0.224-0.5-0.5-0.5v1zm-8.108-1c-0.276 0-0.5 0.224-0.5 0.5s0.224 0.5 0.5 0.5v-1zm-12.162 1c0.276 0 0.5-0.224 0.5-0.5s-0.224-0.5-0.5-0.5v1zm-8.108-1c-0.276 0-0.5 0.224-0.5 0.5s0.224 0.5 0.5 0.5v-1zm-12.162 1c0.276 0 0.5-0.224 0.5-0.5s-0.224-0.5-0.5-0.5v1zm-8.108-1c-0.276 0-0.5 0.224-0.5 0.5s0.224 0.5 0.5 0.5v-1zm-12.162 1c0.276 0 0.5-0.224 0.5-0.5s-0.224-0.5-0.5-0.5v1zm-8.108-1c-0.276 0-0.5 0.224-0.5 0.5s0.224 0.5 0.5 0.5v-1zm-12.162 1c0.276 0 0.5-0.224 0.5-0.5s-0.224-0.5-0.5-0.5v1zm-8.108-1c-0.276 0-0.5 0.224-0.5 0.5s0.224 0.5 0.5 0.5v-1zm-12.162 1c0.276 0 0.5-0.224 0.5-0.5s-0.224-0.5-0.5-0.5v1zm-8.108-1c-0.276 0-0.5 0.224-0.5 0.5s0.224 0.5 0.5 0.5v-1zm-12.162 1c0.276 0 0.5-0.224 0.5-0.5s-0.224-0.5-0.5-0.5v1zm-8.108-1c-0.277 0-0.5 0.224-0.5 0.5s0.223 0.5 0.5 0.5v-1zm-12.162 1c0.276 0 0.5-0.224 0.5-0.5s-0.224-0.5-0.5-0.5v1zm-8.108-1c-0.277 0-0.5 0.224-0.5 0.5s0.223 0.5 0.5 0.5v-1zm-12.162 1c0.276 0 0.5-0.224 0.5-0.5s-0.224-0.5-0.5-0.5v1zm-8.109-1c-0.276 0-0.5 0.224-0.5 0.5s0.224 0.5 0.5 0.5v-1zm-12.162 1c0.277 0 0.5-0.224 0.5-0.5s-0.223-0.5-0.5-0.5v1zm-8.108-1c-0.276 0-0.5 0.224-0.5 0.5s0.224 0.5 0.5 0.5v-1zm-12.162 1c0.2761 0 0.5-0.224 0.5-0.5s-0.2239-0.5-0.5-0.5v1zm-8.1081-1c-0.2761 0-0.5 0.224-0.5 0.5s0.2239 0.5 0.5 0.5v-1zm-12.162 1c0.2761 0 0.5-0.224 0.5-0.5s-0.2239-0.5-0.5-0.5v1zm-8.1081-1c-0.2761 0-0.5 0.224-0.5 0.5s0.2239 0.5 0.5 0.5v-1zm-12.162 1c0.2762 0 0.5-0.224 0.5-0.5s-0.2238-0.5-0.5-0.5v1zm-8.108-1c-0.2762 0-0.5 0.224-0.5 0.5s0.2238 0.5 0.5 0.5v-1zm-12.162 1c0.2762 0 0.5-0.224 0.5-0.5s-0.2238-0.5-0.5-0.5v1zm-8.108-1c-0.2762 0-0.5 0.224-0.5 0.5s0.2238 0.5 0.5 0.5v-1zm-12.162 1c0.2762 0 0.5-0.224 0.5-0.5s-0.2238-0.5-0.5-0.5v1zm-4.0538-1h1e-4l-0.3088 0.951c0.0978 0.032 0.2018 0.049 0.3087 0.049v-1zm7e-4 1e-3h1e-4 -1c0 0.107 0.01697 0.211 0.04875 0.308l0.95115-0.308zm1e-4 0h-1e-4l-0.95115-0.309c-0.03177 0.098-0.04875 0.202-0.04875 0.309h1zm-7e-4 0h-1e-4v-1c-0.1069 0-0.2109 0.017-0.3087 0.049l0.3088 0.951zm-1e-4 0h4.054v-1h-4.054v1zm16.216 0h8.108v-1h-8.108v1zm20.27 0h8.1081v-1h-8.1081v1zm20.27 0h8.108v-1h-8.108v1zm20.27 0h8.108v-1h-8.108v1zm20.27 0h8.108v-1h-8.108v1zm20.27 0h8.108v-1h-8.108v1zm20.27 0h8.108v-1h-8.108v1zm20.27 0h8.108v-1h-8.108v1zm20.27 0h8.108v-1h-8.108v1zm20.27 0h8.108v-1h-8.108v1zm20.27 0h8.108v-1h-8.108v1zm20.27 0h8.108v-1h-8.108v1zm20.27 0h8.108v-1h-8.108v1zm20.27 0h8.108v-1h-8.108v1zm20.27 0h8.108v-1h-8.108v1zm20.27 0h8.108v-1h-8.108v1zm20.27 0h8.109v-1h-8.109v1zm20.271 0h8.108v-1h-8.108v1zm20.27 0h8.108v-1h-8.108v1zm20.27 0h8.108v-1h-8.108v1zm20.27 0h8.108v-1h-8.108v1zm20.27 0h8.108v-1h-8.108v1zm20.27 0h4.054v-1h-4.054v1zm4.054 0l0.309-0.951c-0.098-0.032-0.202-0.049-0.309-0.049v1zm-1e-3 0h1c0-0.107-0.017-0.211-0.049-0.309l-0.951 0.309zl0.951 0.308c0.032-0.097 0.049-0.201 0.049-0.308h-1zm1e-3 -1e-3v1c0.107 0 0.211-0.017 0.309-0.049l-0.309-0.951zh-4.054v1h4.054v-1zm-16.216 0h-8.108v1h8.108v-1zm-20.27 0h-8.108v1h8.108v-1zm-20.27 0h-8.108v1h8.108v-1zm-20.27 0h-8.109v1h8.109v-1zm-20.271 0h-8.108v1h8.108v-1zm-20.27 0h-8.108v1h8.108v-1zm-20.27 0h-8.108v1h8.108v-1zm-20.27 0h-8.108v1h8.108v-1zm-20.27 0h-8.108v1h8.108v-1zm-20.27 0h-8.108v1h8.108v-1zm-20.27 0h-8.108v1h8.108v-1zm-20.27 0h-8.108v1h8.108v-1zm-20.27 0h-8.108v1h8.108v-1zm-20.27 0h-8.108v1h8.108v-1zm-20.27 0h-8.108v1h8.108v-1zm-20.27 0h-8.108v1h8.108v-1zm-20.27 0h-8.109v1h8.109v-1zm-20.271 0h-8.108v1h8.108v-1zm-20.27 0h-8.1081v1h8.1081v-1zm-20.27 0h-8.1081v1h8.1081v-1zm-20.27 0h-8.108v1h8.108v-1zm-20.27 0h-8.108v1h8.108v-1zm-20.27 0h-4.0538v1h4.0538v-1zm-3.553 1e-3c0-0.553-0.4477-1-1-1-0.55228 0-1 0.447-1 1h2zm467.21 0c0-0.553-0.448-1-1-1s-1 0.447-1 1h2zm-2 0c0 0.552 0.448 1 1 1s1-0.448 1-1h-2zm-467.21 0c0 0.552 0.44772 1 1 1 0.5523 0 1-0.448 1-1h-2zm1.6537-0.477c-0.5252-0.17-1.0894 0.117-1.2599 0.643-0.17057 0.525 0.11698 1.089 0.64223 1.26l0.6177-1.903zm-1.5805 0.94c0.17056 0.525 0.73466 0.813 1.2599 0.642 0.5253-0.17 0.8129-0.735 0.6423-1.26l-1.9022 0.618zm1.9022-0.309c0.1706-0.525-0.117-1.089-0.6422-1.26-0.52533-0.17-1.0894 0.117-1.26 0.642l1.9022 0.618zm-0.9394-1.58c-0.52524 0.17-0.81279 0.734-0.64222 1.26 0.17057 0.525 0.73472 0.812 1.2599 0.642l-0.6177-1.902zm4.5172 1.926c0.5523 0 1-0.447 1-1 0-0.552-0.4477-1-1-1v2zm12.162-2c-0.5523 0-1 0.448-1 1 0 0.553 0.4477 1 1 1v-2zm8.108 2c0.5523 0 1-0.447 1-1 0-0.552-0.4477-1-1-1v2zm12.162-2c-0.5522 0-1 0.448-1 1 0 0.553 0.4478 1 1 1v-2zm8.1081 2c0.5522 0 1-0.447 1-1 0-0.552-0.4478-1-1-1v2zm12.162-2c-0.5523 0-1 0.448-1 1 0 0.553 0.4477 1 1 1v-2zm8.108 2c0.5523 0 1-0.447 1-1 0-0.552-0.4477-1-1-1v2zm12.162-2c-0.5523 0-1 0.448-1 1 0 0.553 0.4477 1 1 1v-2zm8.108 2c0.5523 0 1-0.447 1-1 0-0.552-0.4477-1-1-1v2zm12.162-2c-0.553 0-1 0.448-1 1 0 0.553 0.447 1 1 1v-2zm8.108 2c0.552 0 1-0.447 1-1 0-0.552-0.448-1-1-1v2zm12.162-2c-0.553 0-1 0.448-1 1 0 0.553 0.447 1 1 1v-2zm8.108 2c0.552 0 1-0.447 1-1 0-0.552-0.448-1-1-1v2zm12.162-2c-0.553 0-1 0.448-1 1 0 0.553 0.447 1 1 1v-2zm8.108 2c0.552 0 1-0.447 1-1 0-0.552-0.448-1-1-1v2zm12.162-2c-0.553 0-1 0.448-1 1 0 0.553 0.447 1 1 1v-2zm8.108 2c0.552 0 1-0.447 1-1 0-0.552-0.448-1-1-1v2zm12.162-2c-0.552 0-1 0.448-1 1 0 0.553 0.448 1 1 1v-2zm8.108 2c0.552 0 1-0.447 1-1 0-0.552-0.448-1-1-1v2zm12.162-2c-0.552 0-1 0.448-1 1 0 0.553 0.448 1 1 1v-2zm8.108 2c0.552 0 1-0.447 1-1 0-0.552-0.448-1-1-1v2zm12.162-2c-0.552 0-1 0.448-1 1 0 0.553 0.448 1 1 1v-2zm8.108 2c0.552 0 1-0.447 1-1 0-0.552-0.448-1-1-1v2zm12.162-2c-0.552 0-1 0.448-1 1 0 0.553 0.448 1 1 1v-2zm8.108 2c0.552 0 1-0.447 1-1 0-0.552-0.448-1-1-1v2zm12.162-2c-0.552 0-1 0.448-1 1 0 0.553 0.448 1 1 1v-2zm8.108 2c0.552 0 1-0.447 1-1 0-0.552-0.448-1-1-1v2zm12.162-2c-0.552 0-1 0.448-1 1 0 0.553 0.448 1 1 1v-2zm8.108 2c0.553 0 1-0.447 1-1 0-0.552-0.447-1-1-1v2zm12.162-2c-0.552 0-1 0.448-1 1 0 0.553 0.448 1 1 1v-2zm8.108 2c0.553 0 1-0.447 1-1 0-0.552-0.447-1-1-1v2zm12.162-2c-0.552 0-1 0.448-1 1 0 0.553 0.448 1 1 1v-2zm8.108 2c0.553 0 1-0.447 1-1 0-0.552-0.447-1-1-1v2zm12.162-2c-0.552 0-1 0.448-1 1 0 0.553 0.448 1 1 1v-2zm8.109 2c0.552 0 1-0.447 1-1 0-0.552-0.448-1-1-1v2zm12.162-2c-0.553 0-1 0.448-1 1 0 0.553 0.447 1 1 1v-2zm8.108 2c0.552 0 1-0.447 1-1 0-0.552-0.448-1-1-1v2zm12.162-2c-0.553 0-1 0.448-1 1 0 0.553 0.447 1 1 1v-2zm8.108 2c0.552 0 1-0.447 1-1 0-0.552-0.448-1-1-1v2zm12.162-2c-0.553 0-1 0.448-1 1 0 0.553 0.447 1 1 1v-2zm8.108 2c0.552 0 1-0.447 1-1 0-0.552-0.448-1-1-1v2zm12.162-2c-0.552 0-1 0.448-1 1 0 0.553 0.448 1 1 1v-2zm8.108 2c0.552 0 1-0.447 1-1 0-0.552-0.448-1-1-1v2zm12.162-2c-0.552 0-1 0.448-1 1 0 0.553 0.448 1 1 1v-2zm8.108 2c0.552 0 1-0.447 1-1 0-0.552-0.448-1-1-1v2zm12.162-2c-0.552 0-1 0.448-1 1 0 0.553 0.448 1 1 1v-2zm3.899 1.976c0.526 0.17 1.09-0.117 1.26-0.642 0.171-0.526-0.117-1.09-0.642-1.26l-0.618 1.902zm1.581-0.939c-0.171-0.526-0.735-0.813-1.26-0.643-0.525 0.171-0.813 0.735-0.642 1.26l1.902-0.617zm-1.902 0.308c-0.171 0.525 0.117 1.09 0.642 1.26 0.525 0.171 1.089-0.117 1.26-0.642l-1.902-0.618zm0.939 1.581c0.525-0.171 0.813-0.735 0.642-1.26-0.17-0.526-0.734-0.813-1.26-0.643l0.618 1.903zm-4.517-1.927c-0.553 0-1 0.448-1 1s0.447 1 1 1v-2zm-12.162 2c0.552 0 1-0.448 1-1s-0.448-1-1-1v2zm-8.108-2c-0.553 0-1 0.448-1 1s0.447 1 1 1v-2zm-12.162 2c0.552 0 1-0.448 1-1s-0.448-1-1-1v2zm-8.108-2c-0.553 0-1 0.448-1 1s0.447 1 1 1v-2zm-12.162 2c0.552 0 1-0.448 1-1s-0.448-1-1-1v2zm-8.108-2c-0.553 0-1 0.448-1 1s0.447 1 1 1v-2zm-12.162 2c0.552 0 1-0.448 1-1s-0.448-1-1-1v2zm-8.109-2c-0.552 0-1 0.448-1 1s0.448 1 1 1v-2zm-12.162 2c0.553 0 1-0.448 1-1s-0.447-1-1-1v2zm-8.108-2c-0.552 0-1 0.448-1 1s0.448 1 1 1v-2zm-12.162 2c0.553 0 1-0.448 1-1s-0.447-1-1-1v2zm-8.108-2c-0.552 0-1 0.448-1 1s0.448 1 1 1v-2zm-12.162 2c0.553 0 1-0.448 1-1s-0.447-1-1-1v2zm-8.108-2c-0.552 0-1 0.448-1 1s0.448 1 1 1v-2zm-12.162 2c0.553 0 1-0.448 1-1s-0.447-1-1-1v2zm-8.108-2c-0.552 0-1 0.448-1 1s0.448 1 1 1v-2zm-12.162 2c0.552 0 1-0.448 1-1s-0.448-1-1-1v2zm-8.108-2c-0.552 0-1 0.448-1 1s0.448 1 1 1v-2zm-12.162 2c0.552 0 1-0.448 1-1s-0.448-1-1-1v2zm-8.108-2c-0.552 0-1 0.448-1 1s0.448 1 1 1v-2zm-12.162 2c0.552 0 1-0.448 1-1s-0.448-1-1-1v2zm-8.108-2c-0.552 0-1 0.448-1 1s0.448 1 1 1v-2zm-12.162 2c0.552 0 1-0.448 1-1s-0.448-1-1-1v2zm-8.108-2c-0.552 0-1 0.448-1 1s0.448 1 1 1v-2zm-12.162 2c0.552 0 1-0.448 1-1s-0.448-1-1-1v2zm-8.108-2c-0.552 0-1 0.448-1 1s0.448 1 1 1v-2zm-12.162 2c0.552 0 1-0.448 1-1s-0.448-1-1-1v2zm-8.108-2c-0.553 0-1 0.448-1 1s0.447 1 1 1v-2zm-12.162 2c0.552 0 1-0.448 1-1s-0.448-1-1-1v2zm-8.108-2c-0.553 0-1 0.448-1 1s0.447 1 1 1v-2zm-12.162 2c0.552 0 1-0.448 1-1s-0.448-1-1-1v2zm-8.108-2c-0.553 0-1 0.448-1 1s0.447 1 1 1v-2zm-12.162 2c0.552 0 1-0.448 1-1s-0.448-1-1-1v2zm-8.109-2c-0.552 0-1 0.448-1 1s0.448 1 1 1v-2zm-12.162 2c0.553 0 1-0.448 1-1s-0.447-1-1-1v2zm-8.108-2c-0.552 0-1 0.448-1 1s0.448 1 1 1v-2zm-12.162 2c0.5522 0 1-0.448 1-1s-0.4478-1-1-1v2zm-8.1081-2c-0.5523 0-1 0.448-1 1s0.4477 1 1 1v-2zm-12.162 2c0.5523 0 1-0.448 1-1s-0.4477-1-1-1v2zm-8.1081-2c-0.5522 0-1 0.448-1 1s0.4478 1 1 1v-2zm-12.162 2c0.5523 0 1-0.448 1-1s-0.4477-1-1-1v2zm-8.108-2c-0.5523 0-1 0.448-1 1s0.4477 1 1 1v-2zm-12.162 2c0.5523 0 1-0.448 1-1s-0.4477-1-1-1v2zm-8.108-2c-0.5523 0-1 0.448-1 1s0.4477 1 1 1v-2zm-12.162 2c0.5523 0 1-0.448 1-1s-0.4477-1-1-1v2zm-4.0538-2c0.0523 0 0.1046 8e-3 0.1545 0.024l-0.6177 1.903c0.1472 0.047 0.3032 0.073 0.4632 0.073v-2zm0.4762 0.346c0.0162 0.05 0.0246 0.102 0.0246 0.155h-2c0 0.16 0.02542 0.316 0.07319 0.463l1.9022-0.618zm0.0246 0.155c0 0.052-0.0084 0.104-0.0246 0.154l-1.9022-0.618c-0.04778 0.148-0.0732 0.304-0.0732 0.464h2zm-0.3463 0.476c-0.0499 0.016-0.1022 0.024-0.1545 0.024v-2c-0.16 0-0.316 0.026-0.4632 0.074l0.6177 1.902zm-0.1545 0.024h4.054v-2h-4.054v2zm16.216 0h8.108v-2h-8.108v2zm20.27 0h8.1081v-2h-8.1081v2zm20.27 0h8.108v-2h-8.108v2zm20.27 0h8.108v-2h-8.108v2zm20.27 0h8.108v-2h-8.108v2zm20.27 0h8.108v-2h-8.108v2zm20.27 0h8.108v-2h-8.108v2zm20.27 0h8.108v-2h-8.108v2zm20.27 0h8.108v-2h-8.108v2zm20.27 0h8.108v-2h-8.108v2zm20.27 0h8.108v-2h-8.108v2zm20.27 0h8.108v-2h-8.108v2zm20.27 0h8.108v-2h-8.108v2zm20.27 0h8.108v-2h-8.108v2zm20.27 0h8.108v-2h-8.108v2zm20.27 0h8.108v-2h-8.108v2zm20.27 0h8.109v-2h-8.109v2zm20.271 0h8.108v-2h-8.108v2zm20.27 0h8.108v-2h-8.108v2zm20.27 0h8.108v-2h-8.108v2zm20.27 0h8.108v-2h-8.108v2zm20.27 0h8.108v-2h-8.108v2zm20.27 0h4.054v-2h-4.054v2zm4.054 0c-0.052 0-0.105-8e-3 -0.155-0.024l0.618-1.902c-0.147-0.048-0.303-0.074-0.463-0.074v2zm-0.476-0.346c-0.017-0.05-0.025-0.102-0.025-0.154h2c0-0.16-0.025-0.316-0.073-0.463l-1.902 0.617zm-0.025-0.154c0-0.053 8e-3 -0.105 0.025-0.155l1.902 0.618c0.048-0.147 0.073-0.303 0.073-0.463h-2zm0.346-0.477c0.05-0.016 0.102-0.024 0.155-0.024v2c0.16 0 0.316-0.026 0.463-0.073l-0.618-1.903zm0.155-0.024h-4.054v2h4.054v-2zm-16.216 0h-8.108v2h8.108v-2zm-20.27 0h-8.108v2h8.108v-2zm-20.27 0h-8.108v2h8.108v-2zm-20.27 0h-8.109v2h8.109v-2zm-20.271 0h-8.108v2h8.108v-2zm-20.27 0h-8.108v2h8.108v-2zm-20.27 0h-8.108v2h8.108v-2zm-20.27 0h-8.108v2h8.108v-2zm-20.27 0h-8.108v2h8.108v-2zm-20.27 0h-8.108v2h8.108v-2zm-20.27 0h-8.108v2h8.108v-2zm-20.27 0h-8.108v2h8.108v-2zm-20.27 0h-8.108v2h8.108v-2zm-20.27 0h-8.108v2h8.108v-2zm-20.27 0h-8.108v2h8.108v-2zm-20.27 0h-8.108v2h8.108v-2zm-20.27 0h-8.109v2h8.109v-2zm-20.271 0h-8.108v2h8.108v-2zm-20.27 0h-8.1081v2h8.1081v-2zm-20.27 0h-8.1081v2h8.1081v-2zm-20.27 0h-8.108v2h8.108v-2zm-20.27 0h-8.108v2h8.108v-2zm-20.27 0h-4.0538v2h4.0538v-2z" fill="#D2D6E2" mask="url(#a)"/>
<path d="m86.228 130.35v-12.384h-1.836v12.384h1.836zm5.9375 0.216c1.566 0 2.484-0.846 2.916-1.566v1.35h1.746v-12.384h-1.746v4.806c-0.45-0.702-1.386-1.53-2.916-1.53-2.394 0-3.996 1.908-3.996 4.662s1.602 4.662 3.996 4.662zm0.36-1.44c-1.692 0-2.538-1.386-2.538-3.222s0.846-3.222 2.538-3.222c1.656 0 2.61 1.386 2.61 3.222s-0.954 3.222-2.61 3.222zm14.489-3.402c0-2.646-1.728-4.482-4.05-4.482-2.376 0-4.2482 1.8-4.2482 4.68 0 2.952 1.7642 4.644 4.1942 4.644 2.448 0 3.636-1.476 4.05-2.934l-1.782-0.234c-0.27 1.08-1.026 1.746-2.25 1.746-1.368 0-2.412-0.972-2.484-2.844h6.57v-0.576zm-6.534-0.756c0.144-1.35 1.116-2.322 2.484-2.322 1.296 0 2.142 1.08 2.214 2.322h-4.698zm10.191 5.382v-5.004c0-1.422 0.918-2.61 2.304-2.61 1.494 0 1.836 0.936 1.836 2.574v5.04h1.746v-5.85c0-2.07-1.224-3.258-3.096-3.258-1.314 0-2.286 0.702-2.79 1.44h-0.018v-1.224h-1.746v8.892h1.764zm11.119 0.09c0.504 0 0.864-0.036 1.332-0.126v-1.404c-0.288 0.036-0.486 0.054-0.81 0.054-0.702 0-1.098-0.252-1.098-1.008v-5.058h1.818v-1.44h-1.818v-2.808h-1.746v2.808h-1.602v1.44h1.602v5.238c0 0.378 0.018 0.72 0.108 1.008 0.288 0.9 1.08 1.296 2.214 1.296zm4.842-10.332v-2.142h-1.764v2.142h1.764zm0 10.242v-8.892h-1.764v8.892h1.764zm5.389 0.09c0.504 0 0.864-0.036 1.332-0.126v-1.404c-0.288 0.036-0.486 0.054-0.81 0.054-0.702 0-1.098-0.252-1.098-1.008v-5.058h1.818v-1.44h-1.818v-2.808h-1.746v2.808h-1.602v1.44h1.602v5.238c0 0.378 0.018 0.72 0.108 1.008 0.288 0.9 1.08 1.296 2.214 1.296zm6.407-2.16l-2.358-6.822h-1.926l3.384 8.82-0.306 0.774c-0.36 0.846-0.792 1.242-1.692 1.242-0.288 0-0.522-0.036-0.792-0.072v1.494c0.252 0.036 0.486 0.072 0.864 0.072 1.566 0 2.592-0.648 3.276-2.376l3.816-9.954h-1.926l-2.34 6.822zm14.387 0.036v-3.42h3.528v-1.458h-3.528v-3.42h-1.656v3.42h-3.528v1.458h3.528v3.42h1.656zm15.426 2.25c3.042 0 4.932-1.818 5.58-4.122l-1.89-0.45c-0.414 1.728-1.548 3.042-3.672 3.042-2.592 0-4.158-1.998-4.158-4.878 0-2.862 1.566-4.878 4.14-4.878 2.088 0 3.258 1.44 3.6 2.952l1.89-0.45c-0.522-2.034-2.322-4.032-5.472-4.032-3.672 0-6.048 2.718-6.048 6.408 0 3.762 2.394 6.408 6.03 6.408zm11.607-9.324c-1.368 0-2.25 0.882-2.592 1.818v-1.602h-1.728v8.892h1.764v-4.806c0-1.71 0.99-2.61 2.538-2.61 0.216 0 0.342 0 0.504 0.018v-1.674c-0.144-0.018-0.288-0.036-0.486-0.036zm9.414 4.482c0-2.646-1.728-4.482-4.05-4.482-2.376 0-4.248 1.8-4.248 4.68 0 2.952 1.764 4.644 4.194 4.644 2.448 0 3.636-1.476 4.05-2.934l-1.782-0.234c-0.27 1.08-1.026 1.746-2.25 1.746-1.368 0-2.412-0.972-2.484-2.844h6.57v-0.576zm-6.534-0.756c0.144-1.35 1.116-2.322 2.484-2.322 1.296 0 2.142 1.08 2.214 2.322h-4.698zm11.865 5.598c1.566 0 2.484-0.846 2.916-1.566v1.35h1.746v-12.384h-1.746v4.806c-0.45-0.702-1.386-1.53-2.916-1.53-2.394 0-3.996 1.908-3.996 4.662s1.602 4.662 3.996 4.662zm0.36-1.44c-1.692 0-2.538-1.386-2.538-3.222s0.846-3.222 2.538-3.222c1.656 0 2.61 1.386 2.61 3.222s-0.954 3.222-2.61 3.222zm8.513-9.018v-2.142h-1.764v2.142h1.764zm0 10.242v-8.892h-1.764v8.892h1.764zm5.389 0.09c0.504 0 0.864-0.036 1.332-0.126v-1.404c-0.288 0.036-0.486 0.054-0.81 0.054-0.702 0-1.098-0.252-1.098-1.008v-5.058h1.818v-1.44h-1.818v-2.808h-1.746v2.808h-1.602v1.44h1.602v5.238c0 0.378 0.018 0.72 0.108 1.008 0.288 0.9 1.08 1.296 2.214 1.296zm13.551-1.998l-3.348-10.476h-3.024v12.384h1.8v-7.992c0-1.134-0.054-2.304-0.072-2.844l0.036-0.018 3.564 10.854h2.088l3.582-10.854 0.036 0.018c-0.018 0.54-0.072 1.71-0.072 2.844v7.992h1.782v-12.384h-3.024l-3.348 10.476zm12.677 2.124c2.682 0 4.338-2.034 4.338-4.662 0-2.61-1.656-4.662-4.338-4.662-2.7 0-4.356 2.052-4.356 4.662 0 2.628 1.656 4.662 4.356 4.662zm0-1.44c-1.746 0-2.538-1.458-2.538-3.222s0.792-3.222 2.538-3.222c1.728 0 2.52 1.476 2.52 3.222 0 1.764-0.792 3.222-2.52 3.222zm7.968 1.224v-5.004c0-1.422 0.918-2.61 2.304-2.61 1.494 0 1.836 0.936 1.836 2.574v5.04h1.746v-5.85c0-2.07-1.224-3.258-3.096-3.258-1.314 0-2.286 0.702-2.79 1.44h-0.018v-1.224h-1.746v8.892h1.764zm10.02-10.242v-2.142h-1.764v2.142h1.764zm0 10.242v-8.892h-1.764v8.892h1.764zm5.389 0.09c0.504 0 0.864-0.036 1.332-0.126v-1.404c-0.288 0.036-0.486 0.054-0.81 0.054-0.702 0-1.098-0.252-1.098-1.008v-5.058h1.818v-1.44h-1.818v-2.808h-1.746v2.808h-1.602v1.44h1.602v5.238c0 0.378 0.018 0.72 0.108 1.008 0.288 0.9 1.08 1.296 2.214 1.296zm6.699 0.126c2.682 0 4.338-2.034 4.338-4.662 0-2.61-1.656-4.662-4.338-4.662-2.7 0-4.356 2.052-4.356 4.662 0 2.628 1.656 4.662 4.356 4.662zm0-1.44c-1.746 0-2.538-1.458-2.538-3.222s0.792-3.222 2.538-3.222c1.728 0 2.52 1.476 2.52 3.222 0 1.764-0.792 3.222-2.52 3.222zm10.525-7.884c-1.368 0-2.25 0.882-2.592 1.818v-1.602h-1.728v8.892h1.764v-4.806c0-1.71 0.99-2.61 2.538-2.61 0.216 0 0.342 0 0.504 0.018v-1.674c-0.144-0.018-0.288-0.036-0.486-0.036zm3.684-1.134v-2.142h-1.764v2.142h1.764zm0 10.242v-8.892h-1.764v8.892h1.764zm4.201 0v-5.004c0-1.422 0.918-2.61 2.304-2.61 1.494 0 1.836 0.936 1.836 2.574v5.04h1.746v-5.85c0-2.07-1.224-3.258-3.096-3.258-1.314 0-2.286 0.702-2.79 1.44h-0.018v-1.224h-1.746v8.892h1.764zm12 3.546c2.25 0 4.032-1.152 4.032-3.708v-8.73h-1.764v1.224c-0.486-0.72-1.35-1.44-2.736-1.44-2.178 0-3.798 1.692-3.798 4.338s1.62 4.338 3.798 4.338c1.386 0 2.25-0.72 2.736-1.44v1.746c0 1.602-0.9 2.304-2.196 2.304-1.278 0-2.052-0.612-2.214-1.89l-1.818 0.216c0.198 1.908 1.746 3.042 3.96 3.042zm-0.072-5.4c-1.512 0-2.376-1.242-2.376-2.916s0.864-2.916 2.376-2.916 2.376 1.314 2.376 2.916-0.9 2.916-2.376 2.916zm-206.19 23.82v-3.42h3.528v-1.458h-3.528v-3.42h-1.656v3.42h-3.528v1.458h3.528v3.42h1.656zm15.427 2.25c3.042 0 4.932-1.818 5.58-4.122l-1.89-0.45c-0.414 1.728-1.548 3.042-3.672 3.042-2.592 0-4.158-1.998-4.158-4.878 0-2.862 1.566-4.878 4.14-4.878 2.088 0 3.258 1.44 3.6 2.952l1.89-0.45c-0.522-2.034-2.322-4.032-5.472-4.032-3.672 0-6.0484 2.718-6.0484 6.408 0 3.762 2.3944 6.408 6.0304 6.408zm11.606-9.324c-1.368 0-2.25 0.882-2.592 1.818v-1.602h-1.728v8.892h1.764v-4.806c0-1.71 0.99-2.61 2.538-2.61 0.216 0 0.342 0 0.504 0.018v-1.674c-0.144-0.018-0.288-0.036-0.486-0.036zm9.414 4.482c0-2.646-1.728-4.482-4.05-4.482-2.376 0-4.248 1.8-4.248 4.68 0 2.952 1.764 4.644 4.194 4.644 2.448 0 3.636-1.476 4.05-2.934l-1.782-0.234c-0.27 1.08-1.026 1.746-2.25 1.746-1.368 0-2.412-0.972-2.484-2.844h6.57v-0.576zm-6.534-0.756c0.144-1.35 1.116-2.322 2.484-2.322 1.296 0 2.142 1.08 2.214 2.322h-4.698zm11.865 5.598c1.566 0 2.484-0.846 2.916-1.566v1.35h1.746v-12.384h-1.746v4.806c-0.45-0.702-1.386-1.53-2.916-1.53-2.394 0-3.996 1.908-3.996 4.662s1.602 4.662 3.996 4.662zm0.36-1.44c-1.692 0-2.538-1.386-2.538-3.222s0.846-3.222 2.538-3.222c1.656 0 2.61 1.386 2.61 3.222s-0.954 3.222-2.61 3.222zm8.513-9.018v-2.142h-1.764v2.142h1.764zm0 10.242v-8.892h-1.764v8.892h1.764zm5.389 0.09c0.504 0 0.864-0.036 1.332-0.126v-1.404c-0.288 0.036-0.486 0.054-0.81 0.054-0.702 0-1.098-0.252-1.098-1.008v-5.058h1.818v-1.44h-1.818v-2.808h-1.746v2.808h-1.602v1.44h1.602v5.238c0 0.378 0.018 0.72 0.108 1.008 0.288 0.9 1.08 1.296 2.214 1.296zm15.279-0.09v-1.584h-6.264v-10.8h-1.836v12.384h8.1zm4.955 0.216c2.682 0 4.338-2.034 4.338-4.662 0-2.61-1.656-4.662-4.338-4.662-2.7 0-4.356 2.052-4.356 4.662 0 2.628 1.656 4.662 4.356 4.662zm0-1.44c-1.746 0-2.538-1.458-2.538-3.222s0.792-3.222 2.538-3.222c1.728 0 2.52 1.476 2.52 3.222 0 1.764-0.792 3.222-2.52 3.222zm10.003 1.44c2.286 0 3.546-1.368 4.068-3.042l-1.8-0.45c-0.27 1.296-1.044 2.052-2.268 2.052-1.494 0-2.538-1.134-2.538-3.24 0-2.034 1.044-3.204 2.502-3.204 1.296 0 2.016 0.9 2.232 2.052l1.818-0.45c-0.468-1.71-1.782-3.042-4.032-3.042-2.574 0-4.338 1.89-4.338 4.662s1.746 4.662 4.356 4.662zm9.598-5.004l3.978-4.104h-2.232l-3.816 4.14v-7.632h-1.764v12.384h1.764v-4.608l4.248 4.608h2.304l-4.482-4.788z" fill="#161616"/>
<g clip-path="url(#h)">
<path d="m61.898 128.35h-14c-0.5522 0-1 0.447-1 1v2h16v-2c0-0.553-0.4477-1-1-1zm1 5v1.865c0.7514 0.397 1.4271 0.918 2 1.535v-7.4c0-1.657-1.3431-3-3-3h-14c-1.6568 0-3 1.343-3 3v10c0 1.656 1.3432 3 3 3h4.0164c-0.0108-0.166-0.0164-0.332-0.0164-0.5 0-0.514 0.0517-1.016 0.1501-1.5h-4.1501c-0.5522 0-1-0.448-1-1v-6h16zm-7 8.5c0-1.933 1.567-3.5 3.5-3.5s3.5 1.567 3.5 3.5-1.567 3.5-3.5 3.5-3.5-1.567-3.5-3.5zm3.5-5.5c-3.0375 0-5.5 2.462-5.5 5.5 0 3.037 2.4625 5.5 5.5 5.5 1.1575 0 2.2315-0.358 3.1176-0.969l1.6753 1.676c0.3906 0.39 1.0237 0.39 1.4142 0 0.3906-0.391 0.3906-1.024 0-1.415l-1.6753-1.675c0.6107-0.886 0.9682-1.96 0.9682-3.117 0-3.038-2.4624-5.5-5.5-5.5z" clip-rule="evenodd" fill="#909090" fill-rule="evenodd"/>
</g>
<path d="m400.43 138.74c0-2.178-1.494-2.808-3.402-3.276l-0.306-0.072v-4.302c1.026 0.324 1.674 1.188 1.818 2.484l1.53-0.252c-0.234-1.908-1.458-3.204-3.348-3.492v-1.656h-1.404v1.602c-2.106 0.198-3.582 1.584-3.582 3.438 0 2.088 1.584 2.79 3.33 3.222l0.252 0.054v4.806c-1.332-0.252-2.304-1.26-2.484-3.186l-1.53 0.252c0.252 2.592 1.908 3.942 4.014 4.176v1.62h1.404v-1.638c2.016-0.252 3.708-1.566 3.708-3.78zm-7.182-5.58c0-1.08 0.774-1.98 2.07-2.16v4.032c-1.314-0.324-2.07-0.756-2.07-1.872zm3.474 3.69c1.548 0.396 2.214 0.828 2.214 2.106 0 1.26-0.936 2.142-2.214 2.358v-4.464zm9.547 5.508v-12.384h-1.26v0.108c0 2.034-1.08 2.556-3.078 2.556h-0.144v1.062h3.024v8.658h1.458zm6.521 0.216c2.952 0 4.662-2.376 4.662-6.714 0-3.456-1.314-6.084-4.428-6.084-2.52 0-4.122 1.836-4.122 4.086s1.44 4.014 3.942 4.014c1.638 0 2.718-0.972 3.132-1.926l0.018 0.018c0 2.88-0.774 5.364-3.096 5.364-1.386 0-2.16-0.918-2.358-2.16l-1.476 0.324c0.324 1.638 1.44 3.078 3.726 3.078zm0.162-5.976c-1.35 0-2.556-0.846-2.556-2.754 0-1.818 1.188-2.826 2.574-2.826 1.494 0 2.682 1.17 2.682 2.844 0 1.584-1.134 2.736-2.7 2.736zm7.841 5.76v-2.07h-1.71v2.07h1.71zm6.007 0.216c2.952 0 4.662-2.376 4.662-6.714 0-3.456-1.314-6.084-4.428-6.084-2.52 0-4.122 1.836-4.122 4.086s1.44 4.014 3.942 4.014c1.638 0 2.718-0.972 3.132-1.926l0.018 0.018c0 2.88-0.774 5.364-3.096 5.364-1.386 0-2.16-0.918-2.358-2.16l-1.476 0.324c0.324 1.638 1.44 3.078 3.726 3.078zm0.162-5.976c-1.35 0-2.556-0.846-2.556-2.754 0-1.818 1.188-2.826 2.574-2.826 1.494 0 2.682 1.17 2.682 2.844 0 1.584-1.134 2.736-2.7 2.736zm10.35 5.976c2.952 0 4.662-2.376 4.662-6.714 0-3.456-1.314-6.084-4.428-6.084-2.52 0-4.122 1.836-4.122 4.086s1.44 4.014 3.942 4.014c1.638 0 2.718-0.972 3.132-1.926l0.018 0.018c0 2.88-0.774 5.364-3.096 5.364-1.386 0-2.16-0.918-2.358-2.16l-1.476 0.324c0.324 1.638 1.44 3.078 3.726 3.078zm0.162-5.976c-1.35 0-2.556-0.846-2.556-2.754 0-1.818 1.188-2.826 2.574-2.826 1.494 0 2.682 1.17 2.682 2.844 0 1.584-1.134 2.736-2.7 2.736z" fill="#636870"/>
<path d="m390.43 137.02h52.524v1.224h-52.524v-1.224z" fill="#636870"/>
<path d="m84.392 198.57v12.384h1.836v-4.896h2.682c2.556 0 4.284-1.116 4.284-3.834 0-2.484-1.692-3.654-4.194-3.654h-4.608zm1.836 5.904v-4.32h2.466c1.656 0 2.682 0.54 2.682 2.124 0 1.512-0.882 2.196-2.574 2.196h-2.574zm10.962 6.696c1.314 0 2.25-0.558 2.664-1.206h0.018v0.99h1.6924v-6.102c0-1.962-1.278-3.006-3.4744-3.006-2.178 0-3.672 1.188-3.798 3.06l1.8 0.162c0.072-1.152 0.846-1.89 2.034-1.89 1.062 0 1.656 0.504 1.656 1.206 0 0.738-0.45 0.936-1.35 1.134l-1.26 0.252c-1.908 0.396-3.042 1.134-3.042 2.772 0 1.674 1.476 2.628 3.06 2.628zm0.45-1.296c-0.99 0-1.692-0.54-1.692-1.368 0-0.558 0.324-0.918 0.846-1.188 0.54-0.306 1.44-0.54 3.06-0.81v1.17c0 1.386-0.954 2.196-2.214 2.196zm9.5504 1.296c2.124 0 3.816-1.134 3.816-2.898 0-1.476-0.99-2.07-2.754-2.466l-1.332-0.306c-1.008-0.234-1.566-0.432-1.566-1.116s0.666-1.188 1.728-1.188c1.08 0 1.782 0.63 1.89 1.62l1.746-0.306c-0.216-1.674-1.62-2.664-3.582-2.664-2.052 0-3.582 1.098-3.582 2.61 0 1.404 1.026 2.052 2.484 2.376l1.332 0.306c1.278 0.288 1.854 0.54 1.854 1.296 0 0.864-0.774 1.386-1.962 1.386-1.26 0-2.196-0.666-2.322-2.07l-1.746 0.27c0.198 2.088 1.818 3.15 3.996 3.15zm8.877 0c2.124 0 3.816-1.134 3.816-2.898 0-1.476-0.99-2.07-2.754-2.466l-1.332-0.306c-1.008-0.234-1.566-0.432-1.566-1.116s0.666-1.188 1.728-1.188c1.08 0 1.782 0.63 1.89 1.62l1.746-0.306c-0.216-1.674-1.62-2.664-3.582-2.664-2.052 0-3.582 1.098-3.582 2.61 0 1.404 1.026 2.052 2.484 2.376l1.332 0.306c1.278 0.288 1.854 0.54 1.854 1.296 0 0.864-0.774 1.386-1.962 1.386-1.26 0-2.196-0.666-2.322-2.07l-1.746 0.27c0.198 2.088 1.818 3.15 3.996 3.15zm9.168-0.216l2.106-7.02h0.018l2.088 7.02h1.854l2.772-8.892h-1.818l-1.89 6.84h-0.018l-2.07-6.84h-1.872l-2.052 6.84h-0.018l-1.872-6.84h-1.854l2.772 8.892h1.854zm14.047 0.216c2.682 0 4.338-2.034 4.338-4.662 0-2.61-1.656-4.662-4.338-4.662-2.7 0-4.356 2.052-4.356 4.662 0 2.628 1.656 4.662 4.356 4.662zm0-1.44c-1.746 0-2.538-1.458-2.538-3.222s0.792-3.222 2.538-3.222c1.728 0 2.52 1.476 2.52 3.222 0 1.764-0.792 3.222-2.52 3.222zm10.525-7.884c-1.368 0-2.25 0.882-2.592 1.818v-1.602h-1.728v8.892h1.764v-4.806c0-1.71 0.99-2.61 2.538-2.61 0.216 0 0.342 0 0.504 0.018v-1.674c-0.144-0.018-0.288-0.036-0.486-0.036zm5.129 9.324c1.566 0 2.484-0.846 2.916-1.566v1.35h1.746v-12.384h-1.746v4.806c-0.45-0.702-1.386-1.53-2.916-1.53-2.394 0-3.996 1.908-3.996 4.662s1.602 4.662 3.996 4.662zm0.36-1.44c-1.692 0-2.538-1.386-2.538-3.222s0.846-3.222 2.538-3.222c1.656 0 2.61 1.386 2.61 3.222s-0.954 3.222-2.61 3.222zm17.223-0.684l-3.348-10.476h-3.024v12.384h1.8v-7.992c0-1.134-0.054-2.304-0.072-2.844l0.036-0.018 3.564 10.854h2.088l3.582-10.854 0.036 0.018c-0.018 0.54-0.072 1.71-0.072 2.844v7.992h1.782v-12.384h-3.024l-3.348 10.476zm11.489 2.124c1.314 0 2.25-0.558 2.664-1.206h0.018v0.99h1.692v-6.102c0-1.962-1.278-3.006-3.474-3.006-2.178 0-3.672 1.188-3.798 3.06l1.8 0.162c0.072-1.152 0.846-1.89 2.034-1.89 1.062 0 1.656 0.504 1.656 1.206 0 0.738-0.45 0.936-1.35 1.134l-1.26 0.252c-1.908 0.396-3.042 1.134-3.042 2.772 0 1.674 1.476 2.628 3.06 2.628zm0.45-1.296c-0.99 0-1.692-0.54-1.692-1.368 0-0.558 0.324-0.918 0.846-1.188 0.54-0.306 1.44-0.54 3.06-0.81v1.17c0 1.386-0.954 2.196-2.214 2.196zm8.056 1.08v-5.004c0-1.422 0.918-2.61 2.304-2.61 1.494 0 1.836 0.936 1.836 2.574v5.04h1.746v-5.85c0-2.07-1.224-3.258-3.096-3.258-1.314 0-2.286 0.702-2.79 1.44h-0.018v-1.224h-1.746v8.892h1.764zm10.83 0.216c1.314 0 2.25-0.558 2.664-1.206h0.018v0.99h1.692v-6.102c0-1.962-1.278-3.006-3.474-3.006-2.178 0-3.672 1.188-3.798 3.06l1.8 0.162c0.072-1.152 0.846-1.89 2.034-1.89 1.062 0 1.656 0.504 1.656 1.206 0 0.738-0.45 0.936-1.35 1.134l-1.26 0.252c-1.908 0.396-3.042 1.134-3.042 2.772 0 1.674 1.476 2.628 3.06 2.628zm0.45-1.296c-0.99 0-1.692-0.54-1.692-1.368 0-0.558 0.324-0.918 0.846-1.188 0.54-0.306 1.44-0.54 3.06-0.81v1.17c0 1.386-0.954 2.196-2.214 2.196zm10.036 4.626c2.25 0 4.032-1.152 4.032-3.708v-8.73h-1.764v1.224c-0.486-0.72-1.35-1.44-2.736-1.44-2.178 0-3.798 1.692-3.798 4.338s1.62 4.338 3.798 4.338c1.386 0 2.25-0.72 2.736-1.44v1.746c0 1.602-0.9 2.304-2.196 2.304-1.278 0-2.052-0.612-2.214-1.89l-1.818 0.216c0.198 1.908 1.746 3.042 3.96 3.042zm-0.072-5.4c-1.512 0-2.376-1.242-2.376-2.916s0.864-2.916 2.376-2.916 2.376 1.314 2.376 2.916-0.9 2.916-2.376 2.916zm14.264-2.772c0-2.646-1.728-4.482-4.05-4.482-2.376 0-4.248 1.8-4.248 4.68 0 2.952 1.764 4.644 4.194 4.644 2.448 0 3.636-1.476 4.05-2.934l-1.782-0.234c-0.27 1.08-1.026 1.746-2.25 1.746-1.368 0-2.412-0.972-2.484-2.844h6.57v-0.576zm-6.534-0.756c0.144-1.35 1.116-2.322 2.484-2.322 1.296 0 2.142 1.08 2.214 2.322h-4.698zm12.746-3.726c-1.368 0-2.25 0.882-2.592 1.818v-1.602h-1.728v8.892h1.764v-4.806c0-1.71 0.99-2.61 2.538-2.61 0.216 0 0.342 0 0.504 0.018v-1.674c-0.144-0.018-0.288-0.036-0.486-0.036z" fill="#161616"/>
<path d="m49.898 198.96c0-2.761 2.2386-5 5-5 2.7615 0 5 2.239 5 5v2h1c1.6569 0 3 1.343 3 3v8c0 1.657-1.3431 3-3 3h-12c-1.6568 0-3-1.343-3-3v-8c0-1.657 1.3432-3 3-3h1v-2zm5-3c1.6569 0 3 1.343 3 3v2h-6v-2c0-1.657 1.3432-3 3-3zm-7 8c0-0.552 0.4478-1 1-1h12c0.5523 0 1 0.448 1 1v8c0 0.552-0.4477 1-1 1h-12c-0.5522 0-1-0.448-1-1v-8zm4 4c0-1.657 1.3432-3 3-3 1.6569 0 3 1.343 3 3s-1.3431 3-3 3c-1.6568 0-3-1.343-3-3zm3-1c-0.5522 0-1 0.448-1 1s0.4478 1 1 1c0.5523 0 1-0.448 1-1s-0.4477-1-1-1z" clip-rule="evenodd" fill="#909090" fill-rule="evenodd"/>
<path d="m408.1 208.34c0-2.178-1.494-2.808-3.402-3.276l-0.306-0.072v-4.302c1.026 0.324 1.674 1.188 1.818 2.484l1.53-0.252c-0.234-1.908-1.458-3.204-3.348-3.492v-1.656h-1.404v1.602c-2.106 0.198-3.582 1.584-3.582 3.438 0 2.088 1.584 2.79 3.33 3.222l0.252 0.054v4.806c-1.332-0.252-2.304-1.26-2.484-3.186l-1.53 0.252c0.252 2.592 1.908 3.942 4.014 4.176v1.62h1.404v-1.638c2.016-0.252 3.708-1.566 3.708-3.78zm-7.182-5.58c0-1.08 0.774-1.98 2.07-2.16v4.032c-1.314-0.324-2.07-0.756-2.07-1.872zm3.474 3.69c1.548 0.396 2.214 0.828 2.214 2.106 0 1.26-0.936 2.142-2.214 2.358v-4.464zm13.525 5.508v-1.278h-5.94v-0.018l0.936-0.594c2.61-1.656 5.022-3.852 5.022-7.038 0-2.286-1.458-3.654-3.888-3.654-2.34 0-4.032 1.422-4.032 3.744 0 0.396 0.036 0.648 0.054 0.774l1.512 0.198c-0.036-0.234-0.072-0.54-0.072-0.882 0-1.674 1.026-2.574 2.52-2.574 1.512 0 2.376 0.936 2.376 2.448 0 2.898-2.286 4.878-5.418 6.912l-1.008 0.648v1.314h7.938zm3.866 0v-2.07h-1.71v2.07h1.71zm6.007 0.216c2.952 0 4.662-2.376 4.662-6.714 0-3.456-1.314-6.084-4.428-6.084-2.52 0-4.122 1.836-4.122 4.086s1.44 4.014 3.942 4.014c1.638 0 2.718-0.972 3.132-1.926l0.018 0.018c0 2.88-0.774 5.364-3.096 5.364-1.386 0-2.16-0.918-2.358-2.16l-1.476 0.324c0.324 1.638 1.44 3.078 3.726 3.078zm0.162-5.976c-1.35 0-2.556-0.846-2.556-2.754 0-1.818 1.188-2.826 2.574-2.826 1.494 0 2.682 1.17 2.682 2.844 0 1.584-1.134 2.736-2.7 2.736zm5.994-3.762h1.458v-1.602h5.616c-1.89 3.366-3.708 7.326-4.662 11.124h1.62c0.828-3.816 2.61-7.83 4.554-11.214v-1.17h-8.586v2.862z" fill="#636870"/>
<path d="m398.09 206.63h44.8v1.224h-44.8v-1.224z" fill="#636870"/>
<g clip-path="url(#g)">
<path d="m95.066 267.96l-4.824-12.384h-2.286l-4.824 12.384h1.872l1.224-3.258h5.742l1.224 3.258h1.872zm-3.69-4.806h-4.572l2.286-6.03 2.286 6.03zm6.9202 4.806v-5.004c0-1.422 0.918-2.61 2.3044-2.61 1.494 0 1.836 0.936 1.836 2.574v5.04h1.746v-5.85c0-2.07-1.224-3.258-3.096-3.258-1.3144 0-2.2864 0.702-2.7904 1.44h-0.018v-1.224h-1.746v8.892h1.764zm11.119 0.09c0.504 0 0.864-0.036 1.332-0.126v-1.404c-0.288 0.036-0.486 0.054-0.81 0.054-0.702 0-1.098-0.252-1.098-1.008v-5.058h1.818v-1.44h-1.818v-2.808h-1.746v2.808h-1.602v1.44h1.602v5.238c0 0.378 0.018 0.72 0.108 1.008 0.288 0.9 1.08 1.296 2.214 1.296zm4.842-10.332v-2.142h-1.764v2.142h1.764zm0 10.242v-8.892h-1.764v8.892h1.764zm6.631 0l3.402-8.892h-1.89l-2.376 6.786h-0.018l-2.358-6.786h-1.908l3.42 8.892h1.728zm6.658-10.242v-2.142h-1.764v2.142h1.764zm0 10.242v-8.892h-1.764v8.892h1.764zm6.757-9.108c-1.368 0-2.25 0.882-2.592 1.818v-1.602h-1.728v8.892h1.764v-4.806c0-1.71 0.99-2.61 2.538-2.61 0.216 0 0.342 0 0.504 0.018v-1.674c-0.144-0.018-0.288-0.036-0.486-0.036zm4.872 9.324c1.26 0 2.196-0.684 2.736-1.44h0.018v1.224h1.728v-8.892h-1.746v5.022c0 1.404-0.918 2.592-2.25 2.592-1.458 0-1.782-0.936-1.782-2.502v-5.112h-1.764v5.778c0 2.124 1.188 3.33 3.06 3.33zm10.185 0c2.124 0 3.816-1.134 3.816-2.898 0-1.476-0.99-2.07-2.754-2.466l-1.332-0.306c-1.008-0.234-1.566-0.432-1.566-1.116s0.666-1.188 1.728-1.188c1.08 0 1.782 0.63 1.89 1.62l1.746-0.306c-0.216-1.674-1.62-2.664-3.582-2.664-2.052 0-3.582 1.098-3.582 2.61 0 1.404 1.026 2.052 2.484 2.376l1.332 0.306c1.278 0.288 1.854 0.54 1.854 1.296 0 0.864-0.774 1.386-1.962 1.386-1.26 0-2.196-0.666-2.322-2.07l-1.746 0.27c0.198 2.088 1.818 3.15 3.996 3.15zm9.721-12.6v12.384h1.836v-4.896h2.682c2.556 0 4.284-1.116 4.284-3.834 0-2.484-1.692-3.654-4.194-3.654h-4.608zm1.836 5.904v-4.32h2.466c1.656 0 2.682 0.54 2.682 2.124 0 1.512-0.882 2.196-2.574 2.196h-2.574zm12.849-2.628c-1.368 0-2.25 0.882-2.592 1.818v-1.602h-1.728v8.892h1.764v-4.806c0-1.71 0.99-2.61 2.538-2.61 0.216 0 0.342 0 0.504 0.018v-1.674c-0.144-0.018-0.288-0.036-0.486-0.036zm5.454 9.324c2.682 0 4.338-2.034 4.338-4.662 0-2.61-1.656-4.662-4.338-4.662-2.7 0-4.356 2.052-4.356 4.662 0 2.628 1.656 4.662 4.356 4.662zm0-1.44c-1.746 0-2.538-1.458-2.538-3.222s0.792-3.222 2.538-3.222c1.728 0 2.52 1.476 2.52 3.222 0 1.764-0.792 3.222-2.52 3.222zm9.016 1.314c0.504 0 0.864-0.036 1.332-0.126v-1.404c-0.288 0.036-0.486 0.054-0.81 0.054-0.702 0-1.098-0.252-1.098-1.008v-5.058h1.818v-1.44h-1.818v-2.808h-1.746v2.808h-1.602v1.44h1.602v5.238c0 0.378 0.018 0.72 0.108 1.008 0.288 0.9 1.08 1.296 2.214 1.296zm10.659-4.716c0-2.646-1.728-4.482-4.05-4.482-2.376 0-4.248 1.8-4.248 4.68 0 2.952 1.764 4.644 4.194 4.644 2.448 0 3.636-1.476 4.05-2.934l-1.782-0.234c-0.27 1.08-1.026 1.746-2.25 1.746-1.368 0-2.412-0.972-2.484-2.844h6.57v-0.576zm-6.534-0.756c0.144-1.35 1.116-2.322 2.484-2.322 1.296 0 2.142 1.08 2.214 2.322h-4.698zm12.224 5.598c2.286 0 3.546-1.368 4.068-3.042l-1.8-0.45c-0.27 1.296-1.044 2.052-2.268 2.052-1.494 0-2.538-1.134-2.538-3.24 0-2.034 1.044-3.204 2.502-3.204 1.296 0 2.016 0.9 2.232 2.052l1.818-0.45c-0.468-1.71-1.782-3.042-4.032-3.042-2.574 0-4.338 1.89-4.338 4.662s1.746 4.662 4.356 4.662zm8.629-0.126c0.504 0 0.864-0.036 1.332-0.126v-1.404c-0.288 0.036-0.486 0.054-0.81 0.054-0.702 0-1.098-0.252-1.098-1.008v-5.058h1.818v-1.44h-1.818v-2.808h-1.746v2.808h-1.602v1.44h1.602v5.238c0 0.378 0.018 0.72 0.108 1.008 0.288 0.9 1.08 1.296 2.214 1.296zm4.841-10.332v-2.142h-1.764v2.142h1.764zm0 10.242v-8.892h-1.764v8.892h1.764zm6.218 0.216c2.682 0 4.338-2.034 4.338-4.662 0-2.61-1.656-4.662-4.338-4.662-2.7 0-4.356 2.052-4.356 4.662 0 2.628 1.656 4.662 4.356 4.662zm0-1.44c-1.746 0-2.538-1.458-2.538-3.222s0.792-3.222 2.538-3.222c1.728 0 2.52 1.476 2.52 3.222 0 1.764-0.792 3.222-2.52 3.222zm7.968 1.224v-5.004c0-1.422 0.918-2.61 2.304-2.61 1.494 0 1.836 0.936 1.836 2.574v5.04h1.746v-5.85c0-2.07-1.224-3.258-3.096-3.258-1.314 0-2.286 0.702-2.79 1.44h-0.018v-1.224h-1.746v8.892h1.764z" fill="#161616"/>
<path d="m44.898 256.96c0-2.209 1.7909-4 4-4h12c2.2092 0 4 1.791 4 4h-2c0-1.104-0.8954-2-2-2h-12c-1.1045 0-2 0.896-2 2v8h6c0.5523 0 1 0.448 1 1s-0.4477 1-1 1h-8v-10zm-2 13c0-0.552 0.4478-1 1-1h11c0.5523 0 1 0.448 1 1s-0.4477 1-1 1h-11c-0.5522 0-1-0.448-1-1zm14.15-11c-0.1729 0-0.3428 0.045-0.4932 0.13 3e-4 0 0 0 0.4932 0.87l-0.4932-0.87-0.0018 1e-3 -0.0019 1e-3 -0.0041 3e-3 -9e-3 5e-3 -0.0215 0.013c-0.0157 0.01-0.0348 0.022-0.0562 0.036-0.0411 0.028-0.0999 0.072-0.1631 0.13-0.071 0.065-0.3993 0.368-0.3993 0.871v2.805c0 4.034 2.0916 6.832 5.1589 7.945 0.2204 0.08 0.4619 0.08 0.6823 0 3.0672-1.113 5.1588-3.911 5.1588-7.945v-2.805c0-0.503-0.3283-0.806-0.3992-0.871-0.0633-0.058-0.122-0.102-0.1631-0.13-0.0215-0.014-0.0406-0.026-0.0563-0.036l-0.0214-0.013-0.0091-5e-3 -4e-3 -3e-3 -0.0019-1e-3 -0.0019-1e-3c-0.1503-0.085-0.3203-0.13-0.4931-0.13h-8.6999zm8.6999 1c0.4931-0.87 0.4929-0.87 0.4931-0.87l-0.4931 0.87zm-7.85 2.995v-1.995h7v1.995c0 3.081-1.4537 5.046-3.5 5.93-2.0463-0.884-3.5-2.849-3.5-5.93z" clip-rule="evenodd" fill="#909090" fill-rule="evenodd"/>
<path d="m406.99 265.34c0-2.178-1.494-2.808-3.402-3.276l-0.306-0.072v-4.302c1.026 0.324 1.674 1.188 1.818 2.484l1.53-0.252c-0.234-1.908-1.458-3.204-3.348-3.492v-1.656h-1.404v1.602c-2.106 0.198-3.582 1.584-3.582 3.438 0 2.088 1.584 2.79 3.33 3.222l0.252 0.054v4.806c-1.332-0.252-2.304-1.26-2.484-3.186l-1.53 0.252c0.252 2.592 1.908 3.942 4.014 4.176v1.62h1.404v-1.638c2.016-0.252 3.708-1.566 3.708-3.78zm-7.182-5.58c0-1.08 0.774-1.98 2.07-2.16v4.032c-1.314-0.324-2.07-0.756-2.07-1.872zm3.474 3.69c1.548 0.396 2.214 0.828 2.214 2.106 0 1.26-0.936 2.142-2.214 2.358v-4.464zm9.8 5.724c2.538 0 4.266-1.458 4.266-3.708 0-1.62-0.99-2.7-2.448-3.006v-0.018c1.08-0.342 2.196-1.17 2.196-2.808 0-2.07-1.62-3.258-3.906-3.258-2.43 0-4.104 1.458-4.23 3.69l1.494 0.27c0.108-1.674 1.098-2.718 2.718-2.718 1.53 0 2.394 0.918 2.394 2.088 0 1.368-1.008 2.196-2.556 2.196-0.504 0-0.81 0-1.098-0.018v1.314c0.324-0.018 0.648-0.036 1.08-0.036 1.908 0 2.826 0.972 2.826 2.34 0 1.44-0.99 2.43-2.718 2.43-1.566 0-2.718-0.99-2.844-2.826l-1.494 0.234c0.126 2.304 1.8 3.834 4.32 3.834zm8.102-0.216v-2.07h-1.71v2.07h1.71zm6.348 0.216c2.52 0 4.23-1.386 4.23-3.672 0-1.8-1.224-2.79-2.286-3.15v-0.018c0.81-0.288 1.944-1.224 1.944-2.736 0-1.944-1.674-3.24-3.888-3.24s-3.906 1.296-3.906 3.24c0 1.512 1.116 2.448 1.944 2.736v0.018c-1.062 0.378-2.304 1.35-2.304 3.15 0 2.286 1.728 3.672 4.266 3.672zm0-7.326c-1.35 0-2.376-0.918-2.376-2.106 0-1.242 0.936-2.124 2.376-2.124s2.358 0.882 2.358 2.124c0 1.188-1.008 2.106-2.358 2.106zm0 6.084c-1.674 0-2.718-1.026-2.718-2.466s1.17-2.412 2.718-2.412 2.7 0.972 2.7 2.412-1.026 2.466-2.7 2.466zm10.64-7.344c-1.206 0-2.142 0.522-2.718 1.152h-0.018l0.252-3.78h5.526v-1.386h-6.804l-0.486 6.768 1.53 0.252c0.288-0.792 1.206-1.746 2.556-1.746 1.674 0 2.592 1.278 2.592 3.006 0 1.836-1.116 3.078-2.808 3.078-1.566 0-2.448-1.062-2.7-2.412l-1.53 0.306c0.396 1.98 1.836 3.348 4.194 3.348 2.628 0 4.374-2.016 4.374-4.356 0-2.322-1.404-4.23-3.96-4.23z" fill="#636870"/>
<path d="m396.98 263.63h45.906v1.224h-45.906v-1.224z" fill="#636870"/>
</g>
<g clip-path="url(#f)">
<path d="m95.03 322.29l-2.7-9.72h-1.854l-2.7 9.756-2.61-9.756h-1.89l3.51 12.384h1.854l2.772-10.008 2.772 10.008h1.854l3.492-12.384h-1.908l-2.592 9.72zm7.8716-7.578v-2.142h-1.764v2.142h1.764zm0 10.242v-8.892h-1.764v8.892h1.764zm10.469-12.384h-7.938v12.384h1.836v-5.652h5.85v-1.566h-5.85v-3.582h6.102v-1.584zm3.471 2.142v-2.142h-1.764v2.142h1.764zm0 10.242v-8.892h-1.764v8.892h1.764zm10.967 0.216c2.574 0 4.968-1.368 4.968-3.87 0-2.088-1.53-2.862-3.834-3.366l-1.782-0.378c-1.548-0.342-2.358-0.684-2.358-1.8 0-1.08 1.044-1.962 2.736-1.962 1.71 0 2.754 0.918 2.934 2.502l1.89-0.288c-0.27-2.286-2.052-3.654-4.77-3.654-2.754 0-4.644 1.494-4.644 3.492 0 2.016 1.584 2.844 3.762 3.312l1.782 0.396c1.674 0.36 2.412 0.792 2.412 1.944 0 1.368-1.296 2.232-3.06 2.232-1.962 0-3.24-1.008-3.474-3.15l-1.89 0.288c0.324 3.042 2.574 4.302 5.328 4.302zm14.591-4.842c0-2.646-1.728-4.482-4.05-4.482-2.376 0-4.248 1.8-4.248 4.68 0 2.952 1.764 4.644 4.194 4.644 2.448 0 3.636-1.476 4.05-2.934l-1.782-0.234c-0.27 1.08-1.026 1.746-2.25 1.746-1.368 0-2.412-0.972-2.484-2.844h6.57v-0.576zm-6.534-0.756c0.144-1.35 1.116-2.322 2.484-2.322 1.296 0 2.142 1.08 2.214 2.322h-4.698zm12.224 5.598c2.286 0 3.546-1.368 4.068-3.042l-1.8-0.45c-0.27 1.296-1.044 2.052-2.268 2.052-1.494 0-2.538-1.134-2.538-3.24 0-2.034 1.044-3.204 2.502-3.204 1.296 0 2.016 0.9 2.232 2.052l1.818-0.45c-0.468-1.71-1.782-3.042-4.032-3.042-2.574 0-4.338 1.89-4.338 4.662s1.746 4.662 4.356 4.662zm8.717 0c1.26 0 2.196-0.684 2.736-1.44h0.018v1.224h1.728v-8.892h-1.746v5.022c0 1.404-0.918 2.592-2.25 2.592-1.458 0-1.782-0.936-1.782-2.502v-5.112h-1.764v5.778c0 2.124 1.188 3.33 3.06 3.33zm11.247-9.324c-1.368 0-2.25 0.882-2.592 1.818v-1.602h-1.728v8.892h1.764v-4.806c0-1.71 0.99-2.61 2.538-2.61 0.216 0 0.342 0 0.504 0.018v-1.674c-0.144-0.018-0.288-0.036-0.486-0.036zm3.684-1.134v-2.142h-1.764v2.142h1.764zm0 10.242v-8.892h-1.764v8.892h1.764zm5.389 0.09c0.504 0 0.864-0.036 1.332-0.126v-1.404c-0.288 0.036-0.486 0.054-0.81 0.054-0.702 0-1.098-0.252-1.098-1.008v-5.058h1.818v-1.44h-1.818v-2.808h-1.746v2.808h-1.602v1.44h1.602v5.238c0 0.378 0.018 0.72 0.108 1.008 0.288 0.9 1.08 1.296 2.214 1.296zm6.407-2.16l-2.358-6.822h-1.926l3.384 8.82-0.306 0.774c-0.36 0.846-0.792 1.242-1.692 1.242-0.288 0-0.522-0.036-0.792-0.072v1.494c0.252 0.036 0.486 0.072 0.864 0.072 1.566 0 2.592-0.648 3.276-2.376l3.816-9.954h-1.926l-2.34 6.822zm13.355-0.18l-3.582-10.134h-1.962l4.554 12.384h1.98l4.554-12.384h-1.962l-3.582 10.134zm7.334-10.134v12.384h1.836v-4.896h2.682c2.556 0 4.284-1.116 4.284-3.834 0-2.484-1.692-3.654-4.194-3.654h-4.608zm1.836 5.904v-4.32h2.466c1.656 0 2.682 0.54 2.682 2.124 0 1.512-0.882 2.196-2.574 2.196h-2.574zm17.758 4.824l-6.012-10.728h-2.79v12.384h1.8v-10.764l6.03 10.764h2.772v-12.384h-1.8v10.728z" fill="#161616"/>
<path d="m47.648 316.96v-5.25h14.5v5.25c0 7.016-5.8081 9.455-7.25 9.951-1.4419-0.496-7.25-2.935-7.25-9.951zm-0.25-7.25c-0.4641 0-0.9092 0.184-1.2374 0.513-0.3282 0.328-0.5126 0.773-0.5126 1.237v5.5c0 8.581 7.3015 11.412 8.7006 11.876 0.3563 0.121 0.7426 0.121 1.0988 0 1.3992-0.464 8.7006-3.295 8.7006-11.876v-5.5c0-0.464-0.1843-0.909-0.5125-1.237-0.3282-0.329-0.7733-0.513-1.2375-0.513h-15zm12.316 6.973c0.3995-0.381 0.4142-1.014 0.0329-1.413-0.3813-0.4-1.0143-0.415-1.4138-0.033l-4.8096 4.591-2.0595-1.966c-0.3995-0.382-1.0325-0.367-1.4138 0.033-0.3814 0.399-0.3666 1.032 0.0329 1.413l2.7499 2.625c0.3865 0.369 0.9946 0.369 1.381 0l5.5-5.25z" clip-rule="evenodd" fill="#909090" fill-rule="evenodd"/>
<path d="m406.55 322.34c0-2.178-1.494-2.808-3.402-3.276l-0.306-0.072v-4.302c1.026 0.324 1.674 1.188 1.818 2.484l1.53-0.252c-0.234-1.908-1.458-3.204-3.348-3.492v-1.656h-1.404v1.602c-2.106 0.198-3.582 1.584-3.582 3.438 0 2.088 1.584 2.79 3.33 3.222l0.252 0.054v4.806c-1.332-0.252-2.304-1.26-2.484-3.186l-1.53 0.252c0.252 2.592 1.908 3.942 4.014 4.176v1.62h1.404v-1.638c2.016-0.252 3.708-1.566 3.708-3.78zm-7.182-5.58c0-1.08 0.774-1.98 2.07-2.16v4.032c-1.314-0.324-2.07-0.756-2.07-1.872zm3.474 3.69c1.548 0.396 2.214 0.828 2.214 2.106 0 1.26-0.936 2.142-2.214 2.358v-4.464zm9.547 5.508v-12.384h-1.26v0.108c0 2.034-1.08 2.556-3.078 2.556h-0.144v1.062h3.024v8.658h1.458zm10.517 0v-1.278h-5.94v-0.018l0.936-0.594c2.61-1.656 5.022-3.852 5.022-7.038 0-2.286-1.458-3.654-3.888-3.654-2.34 0-4.032 1.422-4.032 3.744 0 0.396 0.036 0.648 0.054 0.774l1.512 0.198c-0.036-0.234-0.072-0.54-0.072-0.882 0-1.674 1.026-2.574 2.52-2.574 1.512 0 2.376 0.936 2.376 2.448 0 2.898-2.286 4.878-5.418 6.912l-1.008 0.648v1.314h7.938zm3.867 0v-2.07h-1.71v2.07h1.71zm0.631-9.522h1.458v-1.602h5.616c-1.89 3.366-3.708 7.326-4.662 11.124h1.62c0.828-3.816 2.61-7.83 4.554-11.214v-1.17h-8.586v2.862zm13.848 9.522v-12.384h-1.26v0.108c0 2.034-1.08 2.556-3.078 2.556h-0.144v1.062h3.024v8.658h1.458z" fill="#636870"/>
<path d="m396.54 320.63h46.348v1.224h-46.348v-1.224z" fill="#636870"/>
</g>
<g clip-path="url(#e)">
<path d="m92.546 374.63h-6.318v-5.058h-1.836v12.384h1.836v-5.742h6.318v5.742h1.854v-12.384h-1.854v5.058zm8.1356 7.542c2.682 0 4.338-2.034 4.338-4.662 0-2.61-1.656-4.662-4.338-4.662-2.7003 0-4.3563 2.052-4.3563 4.662 0 2.628 1.656 4.662 4.3563 4.662zm0-1.44c-1.7463 0-2.5383-1.458-2.5383-3.222s0.792-3.222 2.5383-3.222c1.728 0 2.52 1.476 2.52 3.222 0 1.764-0.792 3.222-2.52 3.222zm7.968 1.224v-4.986c0-1.602 0.918-2.628 2.106-2.628 1.422 0 1.71 0.954 1.71 2.556v5.058h1.746v-4.986c0-1.602 0.9-2.628 2.088-2.628 1.404 0 1.71 0.972 1.71 2.52v5.094h1.764v-5.76c0-2.034-1.062-3.348-3.024-3.348-1.62 0-2.502 1.062-2.916 1.674-0.396-0.99-1.26-1.674-2.592-1.674-1.296 0-2.196 0.774-2.592 1.458h-0.018v-1.242h-1.746v8.892h1.764zm21.216-4.626c0-2.646-1.728-4.482-4.05-4.482-2.376 0-4.248 1.8-4.248 4.68 0 2.952 1.764 4.644 4.194 4.644 2.448 0 3.636-1.476 4.05-2.934l-1.782-0.234c-0.27 1.08-1.026 1.746-2.25 1.746-1.368 0-2.412-0.972-2.484-2.844h6.57v-0.576zm-6.534-0.756c0.144-1.35 1.116-2.322 2.484-2.322 1.296 0 2.142 1.08 2.214 2.322h-4.698zm16.395 5.382v-10.8h3.798v-1.584h-9.45v1.584h3.816v10.8h1.836zm6.892-10.242v-2.142h-1.764v2.142h1.764zm0 10.242v-8.892h-1.764v8.892h1.764zm5.389 0.09c0.504 0 0.864-0.036 1.332-0.126v-1.404c-0.288 0.036-0.486 0.054-0.81 0.054-0.702 0-1.098-0.252-1.098-1.008v-5.058h1.818v-1.44h-1.818v-2.808h-1.746v2.808h-1.602v1.44h1.602v5.238c0 0.378 0.018 0.72 0.108 1.008 0.288 0.9 1.08 1.296 2.214 1.296zm4.841-0.09v-12.384h-1.764v12.384h1.764zm10.178-4.626c0-2.646-1.728-4.482-4.05-4.482-2.376 0-4.248 1.8-4.248 4.68 0 2.952 1.764 4.644 4.194 4.644 2.448 0 3.636-1.476 4.05-2.934l-1.782-0.234c-0.27 1.08-1.026 1.746-2.25 1.746-1.368 0-2.412-0.972-2.484-2.844h6.57v-0.576zm-6.534-0.756c0.144-1.35 1.116-2.322 2.484-2.322 1.296 0 2.142 1.08 2.214 2.322h-4.698zm18.9 3.474l-3.348-10.476h-3.024v12.384h1.8v-7.992c0-1.134-0.054-2.304-0.072-2.844l0.036-0.018 3.564 10.854h2.088l3.582-10.854 0.036 0.018c-0.018 0.54-0.072 1.71-0.072 2.844v7.992h1.782v-12.384h-3.024l-3.348 10.476zm12.677 2.124c2.682 0 4.338-2.034 4.338-4.662 0-2.61-1.656-4.662-4.338-4.662-2.7 0-4.356 2.052-4.356 4.662 0 2.628 1.656 4.662 4.356 4.662zm0-1.44c-1.746 0-2.538-1.458-2.538-3.222s0.792-3.222 2.538-3.222c1.728 0 2.52 1.476 2.52 3.222 0 1.764-0.792 3.222-2.52 3.222zm7.969 1.224v-5.004c0-1.422 0.918-2.61 2.304-2.61 1.494 0 1.836 0.936 1.836 2.574v5.04h1.746v-5.85c0-2.07-1.224-3.258-3.096-3.258-1.314 0-2.286 0.702-2.79 1.44h-0.018v-1.224h-1.746v8.892h1.764zm10.019-10.242v-2.142h-1.764v2.142h1.764zm0 10.242v-8.892h-1.764v8.892h1.764zm5.389 0.09c0.504 0 0.864-0.036 1.332-0.126v-1.404c-0.288 0.036-0.486 0.054-0.81 0.054-0.702 0-1.098-0.252-1.098-1.008v-5.058h1.818v-1.44h-1.818v-2.808h-1.746v2.808h-1.602v1.44h1.602v5.238c0 0.378 0.018 0.72 0.108 1.008 0.288 0.9 1.08 1.296 2.214 1.296zm6.7 0.126c2.682 0 4.338-2.034 4.338-4.662 0-2.61-1.656-4.662-4.338-4.662-2.7 0-4.356 2.052-4.356 4.662 0 2.628 1.656 4.662 4.356 4.662zm0-1.44c-1.746 0-2.538-1.458-2.538-3.222s0.792-3.222 2.538-3.222c1.728 0 2.52 1.476 2.52 3.222 0 1.764-0.792 3.222-2.52 3.222zm10.524-7.884c-1.368 0-2.25 0.882-2.592 1.818v-1.602h-1.728v8.892h1.764v-4.806c0-1.71 0.99-2.61 2.538-2.61 0.216 0 0.342 0 0.504 0.018v-1.674c-0.144-0.018-0.288-0.036-0.486-0.036zm3.684-1.134v-2.142h-1.764v2.142h1.764zm0 10.242v-8.892h-1.764v8.892h1.764zm4.201 0v-5.004c0-1.422 0.918-2.61 2.304-2.61 1.494 0 1.836 0.936 1.836 2.574v5.04h1.746v-5.85c0-2.07-1.224-3.258-3.096-3.258-1.314 0-2.286 0.702-2.79 1.44h-0.018v-1.224h-1.746v8.892h1.764zm12 3.546c2.25 0 4.032-1.152 4.032-3.708v-8.73h-1.764v1.224c-0.486-0.72-1.35-1.44-2.736-1.44-2.178 0-3.798 1.692-3.798 4.338s1.62 4.338 3.798 4.338c1.386 0 2.25-0.72 2.736-1.44v1.746c0 1.602-0.9 2.304-2.196 2.304-1.278 0-2.052-0.612-2.214-1.89l-1.818 0.216c0.198 1.908 1.746 3.042 3.96 3.042zm-0.072-5.4c-1.512 0-2.376-1.242-2.376-2.916s0.864-2.916 2.376-2.916 2.376 1.314 2.376 2.916-0.9 2.916-2.376 2.916z" fill="#161616"/>
<path d="m45.93 369.96c0-2.209 1.7908-4 4-4h9c2.2091 0 4 1.791 4 4v3.489c-0.6246-0.229-1.2979-0.356-2-0.364v-3.125c0-1.104-0.8954-2-2-2h-9c-1.1046 0-2 0.896-2 2v12c0 1.105 0.8954 2 2 2h6.6562v1.375c0 0.214 0.0247 0.423 0.0718 0.625h-6.728c-2.2092 0-4-1.791-4-4v-12zm12.938 9.125c0-1.104 0.8954-2 2-2s2 0.896 2 2c0 1.105-0.8954 2-2 2s-2-0.895-2-2zm2-4c-2.2092 0-4 1.791-4 4 0 1.361 0.6799 2.564 1.7187 3.286v2.964c0 0.317 0.199 0.599 0.4972 0.706s0.6313 0.015 0.8324-0.23l0.9517-1.158 0.9517 1.158c0.2011 0.245 0.5342 0.337 0.8324 0.23s0.4971-0.389 0.4971-0.706v-2.964c1.0388-0.722 1.7188-1.925 1.7188-3.286 0-2.209-1.7909-4-4-4zm-10.438-3.875c0-0.552 0.4477-1 1-1h6c0.5523 0 1 0.448 1 1s-0.4477 1-1 1h-6c-0.5523 0-1-0.448-1-1zm1 3.125h5.7713c-0.6917 0.535-1.2635 1.217-1.6679 2h-4.1034c-0.5523 0-1-0.448-1-1s0.4477-1 1-1z" clip-rule="evenodd" fill="#909090" fill-rule="evenodd"/>
<path d="m403.67 379.34c0-2.178-1.494-2.808-3.402-3.276l-0.306-0.072v-4.302c1.026 0.324 1.674 1.188 1.818 2.484l1.53-0.252c-0.234-1.908-1.458-3.204-3.348-3.492v-1.656h-1.404v1.602c-2.106 0.198-3.582 1.584-3.582 3.438 0 2.088 1.584 2.79 3.33 3.222l0.252 0.054v4.806c-1.332-0.252-2.304-1.26-2.484-3.186l-1.53 0.252c0.252 2.592 1.908 3.942 4.014 4.176v1.62h1.404v-1.638c2.016-0.252 3.708-1.566 3.708-3.78zm-7.182-5.58c0-1.08 0.774-1.98 2.07-2.16v4.032c-1.314-0.324-2.07-0.756-2.07-1.872zm3.474 3.69c1.548 0.396 2.214 0.828 2.214 2.106 0 1.26-0.936 2.142-2.214 2.358v-4.464zm9.547 5.508v-12.384h-1.26v0.108c0 2.034-1.08 2.556-3.078 2.556h-0.144v1.062h3.024v8.658h1.458zm10.517 0v-1.278h-5.94v-0.018l0.936-0.594c2.61-1.656 5.022-3.852 5.022-7.038 0-2.286-1.458-3.654-3.888-3.654-2.34 0-4.032 1.422-4.032 3.744 0 0.396 0.036 0.648 0.054 0.774l1.512 0.198c-0.036-0.234-0.072-0.54-0.072-0.882 0-1.674 1.026-2.574 2.52-2.574 1.512 0 2.376 0.936 2.376 2.448 0 2.898-2.286 4.878-5.418 6.912l-1.008 0.648v1.314h7.938zm3.867 0v-2.07h-1.71v2.07h1.71zm0.631-9.522h1.458v-1.602h5.616c-1.89 3.366-3.708 7.326-4.662 11.124h1.62c0.828-3.816 2.61-7.83 4.554-11.214v-1.17h-8.586v2.862zm9.475 0h1.458v-1.602h5.616c-1.89 3.366-3.708 7.326-4.662 11.124h1.62c0.828-3.816 2.61-7.83 4.554-11.214v-1.17h-8.586v2.862z" fill="#636870"/>
<path d="m393.66 377.63h49.283v1.224h-49.283v-1.224z" fill="#636870"/>
</g>
<path d="m378.22 529.21c0-3.712-2.4-5.056-6.208-5.984l-0.608-0.16v-6.944c1.632 0.576 2.624 2.048 2.816 4.192l3.36-0.512c-0.384-3.552-2.656-5.856-6.176-6.368v-2.784h-2.816v2.72c-3.84 0.448-6.368 2.912-6.368 6.144 0 3.744 2.784 5.088 6.144 5.888l0.224 0.064v7.872c-2.08-0.544-3.456-2.272-3.776-5.408l-3.328 0.512c0.448 4.736 3.328 7.072 7.104 7.552v2.912h2.816v-2.88c3.712-0.448 6.816-2.816 6.816-6.816zm-12.704-9.856c0-1.632 1.152-3.008 3.072-3.392v6.432c-1.984-0.544-3.072-1.216-3.072-3.04zm5.888 6.816c2.4 0.608 3.488 1.408 3.488 3.392 0 2.048-1.408 3.456-3.488 3.872v-7.264zm17.668 9.536v-22.016h-2.656l-0.032 0.224c-0.16 3.392-1.984 4.448-5.568 4.448h-0.288v2.336h5.344v15.008h3.2zm12.032 0.384c4.704 0 7.872-2.624 7.872-6.656 0-2.848-1.824-4.736-4.128-5.312v-0.064c1.728-0.64 3.584-2.016 3.584-4.864 0-3.712-2.944-5.856-7.136-5.856-4.448 0-7.584 2.528-7.776 6.624l3.232 0.576c0.16-2.848 1.824-4.544 4.512-4.544 2.432 0 3.84 1.408 3.84 3.36 0 2.208-1.664 3.616-4.128 3.616-0.96 0-1.632-0.032-2.144-0.064v2.816c0.512-0.032 1.216-0.128 2.208-0.128 3.104 0 4.608 1.568 4.608 3.808 0 2.368-1.6 4.032-4.48 4.032-2.72 0-4.544-1.664-4.736-4.768l-3.264 0.512c0.256 4.32 3.296 6.912 7.936 6.912zm10.681-2.024c0 0.94 0.78 1.74 1.74 1.74 0.98 0 1.74-0.8 1.74-1.74 0-0.98-0.76-1.76-1.74-1.76-0.96 0-1.74 0.78-1.74 1.76zm10.74 1.88c3.48 0 5.1-3.1 5.1-7.1 0-4.02-1.62-7.12-5.1-7.12s-5.08 3.1-5.08 7.12c0 3.88 1.6 7.1 5.08 7.1zm0-1.66c-2.14 0-3-2.28-3-5.44 0-3.18 0.86-5.46 3-5.46 2.16 0 3.02 2.28 3.02 5.46 0 3.16-0.86 5.44-3.02 5.44zm12.246 1.66c3.48 0 5.1-3.1 5.1-7.1 0-4.02-1.62-7.12-5.1-7.12s-5.08 3.1-5.08 7.12c0 3.88 1.6 7.1 5.08 7.1zm0-1.66c-2.14 0-3-2.28-3-5.44 0-3.18 0.86-5.46 3-5.46 2.16 0 3.02 2.28 3.02 5.46 0 3.16-0.86 5.44-3.02 5.44z" fill="#15181D"/>
<path d="m397.9 493.24c0-2.016-1.368-2.718-3.276-3.204l-0.486-0.126v-4.806c1.26 0.27 2.07 1.26 2.268 2.79l1.098-0.198c-0.252-1.944-1.476-3.24-3.366-3.492v-1.638h-1.008v1.584c-2.088 0.126-3.636 1.53-3.636 3.348 0 1.944 1.44 2.664 3.24 3.114l0.396 0.108v5.328c-1.548-0.198-2.718-1.206-2.97-3.474l-1.08 0.198c0.288 2.718 1.962 3.996 4.05 4.176v1.602h1.008v-1.602c2.016-0.18 3.762-1.494 3.762-3.708zm-4.896-3.618c-1.476-0.36-2.412-0.828-2.412-2.178 0-1.242 1.008-2.286 2.538-2.394v4.608l-0.126-0.036zm1.134 1.35l0.216 0.054c1.728 0.45 2.466 0.972 2.466 2.376 0 1.494-1.152 2.502-2.682 2.664v-5.094zm9.968-2.43c-1.404 0-2.376 0.702-2.88 1.296h-0.018l0.306-4.482h5.562v-0.99h-6.48l-0.45 6.66 1.044 0.18c0.45-0.882 1.422-1.746 2.79-1.746 1.89 0 2.862 1.44 2.862 3.24 0 1.998-1.206 3.366-3.042 3.366-1.764 0-2.754-1.17-3.024-2.718l-1.098 0.252c0.342 1.926 1.764 3.366 4.104 3.366 2.466 0 4.158-1.926 4.158-4.284 0-2.268-1.386-4.14-3.834-4.14zm13.262 8.208v-0.918h-6.282v-0.018l1.152-0.81c2.79-1.908 5.094-4.086 5.094-7.272 0-2.34-1.494-3.564-3.69-3.564-2.25 0-3.888 1.35-3.888 3.654 0 0.36 0.036 0.63 0.072 0.828l1.098 0.144c-0.054-0.27-0.09-0.558-0.09-0.918 0-1.8 1.152-2.808 2.79-2.808 1.584 0 2.61 0.936 2.61 2.7 0 2.97-2.196 4.968-5.382 7.182l-1.188 0.846v0.954h7.704zm3.441 0v-2.142h-1.224v2.142h1.224zm9.813 0v-0.918h-6.282v-0.018l1.152-0.81c2.79-1.908 5.094-4.086 5.094-7.272 0-2.34-1.494-3.564-3.69-3.564-2.25 0-3.888 1.35-3.888 3.654 0 0.36 0.036 0.63 0.072 0.828l1.098 0.144c-0.054-0.27-0.09-0.558-0.09-0.918 0-1.8 1.152-2.808 2.79-2.808 1.584 0 2.61 0.936 2.61 2.7 0 2.97-2.196 4.968-5.382 7.182l-1.188 0.846v0.954h7.704zm5.852 0.216c2.844 0 4.482-2.34 4.482-6.93 0-3.366-1.296-5.868-4.32-5.868-2.412 0-3.96 1.8-3.96 3.978 0 2.232 1.44 3.996 3.87 3.996 1.8 0 2.952-1.134 3.348-2.16l0.018 0.018c0 3.24-0.774 6.066-3.366 6.066-1.53 0-2.358-1.008-2.628-2.358l-1.026 0.288c0.324 1.566 1.404 2.97 3.582 2.97zm0.144-5.76c-1.602 0-2.862-1.08-2.862-3.06 0-1.872 1.242-3.078 2.844-3.078 1.692 0 3.042 1.314 3.042 3.258 0 1.566-1.296 2.88-3.024 2.88z" fill="#636870"/>
<path d="m388.18 491.42h53.82v0.882h-53.82v-0.882z" fill="#636870"/>
<path d="m146.16 500.75l-6.432-16.512h-3.048l-6.432 16.512h2.496l1.632-4.344h7.656l1.632 4.344h2.496zm-4.92-6.408h-6.096l3.048-8.04 3.048 8.04zm10.482 6.696c1.68 0 2.928-0.912 3.648-1.92h0.024v1.632h2.304v-11.856h-2.328v6.696c0 1.872-1.224 3.456-3 3.456-1.944 0-2.376-1.248-2.376-3.336v-6.816h-2.352v7.704c0 2.832 1.584 4.44 4.08 4.44zm14.996-12.432c-1.824 0-3 1.176-3.456 2.424v-2.136h-2.304v11.856h2.352v-6.408c0-2.28 1.32-3.48 3.384-3.48 0.288 0 0.456 0 0.672 0.024v-2.232c-0.192-0.024-0.384-0.048-0.648-0.048zm5.735 12.432c1.752 0 3-0.744 3.552-1.608h0.024v1.32h2.256v-8.136c0-2.616-1.704-4.008-4.632-4.008-2.904 0-4.896 1.584-5.064 4.08l2.4 0.216c0.096-1.536 1.128-2.52 2.712-2.52 1.416 0 2.208 0.672 2.208 1.608 0 0.984-0.6 1.248-1.8 1.512l-1.68 0.336c-2.544 0.528-4.056 1.512-4.056 3.696 0 2.232 1.968 3.504 4.08 3.504zm0.6-1.728c-1.32 0-2.256-0.72-2.256-1.824 0-0.744 0.432-1.224 1.128-1.584 0.72-0.408 1.92-0.72 4.08-1.08v1.56c0 1.848-1.272 2.928-2.952 2.928zm20.075 1.728c4.056 0 6.384-2.328 6.384-6.552v-10.248h-2.448v10.056c0 2.832-1.056 4.632-3.936 4.632-2.76 0-3.912-1.8-3.912-4.632v-10.056h-2.472v10.248c0 4.224 2.352 6.552 6.384 6.552zm11.924-0.288v-16.512h-2.352v16.512h2.352zm7.186 0.12c0.672 0 1.152-0.048 1.776-0.168v-1.872c-0.384 0.048-0.648 0.072-1.08 0.072-0.936 0-1.464-0.336-1.464-1.344v-6.744h2.424v-1.92h-2.424v-3.744h-2.328v3.744h-2.136v1.92h2.136v6.984c0 0.504 0.024 0.96 0.144 1.344 0.384 1.2 1.44 1.728 2.952 1.728zm6.455-13.776v-2.856h-2.352v2.856h2.352zm0 13.656v-11.856h-2.352v11.856h2.352zm5.602 0v-6.648c0-2.136 1.224-3.504 2.808-3.504 1.896 0 2.28 1.272 2.28 3.408v6.744h2.328v-6.648c0-2.136 1.2-3.504 2.784-3.504 1.872 0 2.28 1.296 2.28 3.36v6.792h2.352v-7.68c0-2.712-1.416-4.464-4.032-4.464-2.16 0-3.336 1.416-3.888 2.232-0.528-1.32-1.68-2.232-3.456-2.232-1.728 0-2.928 1.032-3.456 1.944h-0.024v-1.656h-2.328v11.856h2.352zm21.4 0.288c1.752 0 3-0.744 3.552-1.608h0.024v1.32h2.256v-8.136c0-2.616-1.704-4.008-4.632-4.008-2.904 0-4.896 1.584-5.064 4.08l2.4 0.216c0.096-1.536 1.128-2.52 2.712-2.52 1.416 0 2.208 0.672 2.208 1.608 0 0.984-0.6 1.248-1.8 1.512l-1.68 0.336c-2.544 0.528-4.056 1.512-4.056 3.696 0 2.232 1.968 3.504 4.08 3.504zm0.6-1.728c-1.32 0-2.256-0.72-2.256-1.824 0-0.744 0.432-1.224 1.128-1.584 0.72-0.408 1.92-0.72 4.08-1.08v1.56c0 1.848-1.272 2.928-2.952 2.928zm12.232 1.56c0.672 0 1.152-0.048 1.776-0.168v-1.872c-0.384 0.048-0.648 0.072-1.08 0.072-0.936 0-1.464-0.336-1.464-1.344v-6.744h2.424v-1.92h-2.424v-3.744h-2.328v3.744h-2.136v1.92h2.136v6.984c0 0.504 0.024 0.96 0.144 1.344 0.384 1.2 1.44 1.728 2.952 1.728zm14.212-6.288c0-3.528-2.304-5.976-5.4-5.976-3.168 0-5.664 2.4-5.664 6.24 0 3.936 2.352 6.192 5.592 6.192 3.264 0 4.848-1.968 5.4-3.912l-2.376-0.312c-0.36 1.44-1.368 2.328-3 2.328-1.824 0-3.216-1.296-3.312-3.792h8.76v-0.768zm-8.712-1.008c0.192-1.8 1.488-3.096 3.312-3.096 1.728 0 2.856 1.44 2.952 3.096h-6.264z" fill="#15181D"/>
<g clip-path="url(#d)">
<rect x="49.938" y="478.75" width="64" height="63.899" fill="url(#c)"/>
<rect transform="translate(49.938 478.75)" width="64" height="63.899" fill="url(#b)"/>
<path d="m75.382 494.99h13.118v3.142h-13.118v-3.142zm-3.4254 31.417l8.4197-21.992h3.1147l8.4198 21.992h-3.3702l-6.607-17.257-6.6068 17.257h-3.3702z" clip-rule="evenodd" fill="#000" fill-rule="evenodd"/>
</g>
<path d="m131.18 517.05v9.632h1.148v-3.906h2.072c1.988 0 3.36-0.784 3.36-2.912 0-1.946-1.274-2.814-3.29-2.814h-3.29zm1.148 4.704v-3.682h2.03c1.512 0 2.212 0.574 2.212 1.82 0 1.204-0.63 1.862-2.114 1.862h-2.128zm9.927-2.156c-1.078 0-1.82 0.7-2.1 1.386v-1.218h-1.064v6.916h1.092v-3.808c0-1.414 0.812-2.198 2.002-2.198 0.224 0 0.364 0.014 0.462 0.028v-1.078c-0.084-0.014-0.21-0.028-0.392-0.028zm2.699-1.008v-1.54h-1.092v1.54h1.092zm0 8.092v-6.916h-1.092v6.916h1.092zm4.936 0.168c1.778 0 2.702-1.036 3.108-2.296l-1.134-0.308c-0.252 1.036-0.91 1.666-1.96 1.666-1.274 0-2.198-0.952-2.198-2.702 0-1.736 0.952-2.674 2.156-2.674 1.148 0 1.722 0.756 1.932 1.666l1.148-0.308c-0.378-1.302-1.358-2.296-3.052-2.296-2.016 0-3.332 1.498-3.332 3.612 0 2.142 1.302 3.64 3.332 3.64zm10.42-3.78c0-2.1-1.316-3.472-3.066-3.472-1.778 0-3.262 1.33-3.262 3.64 0 2.352 1.428 3.612 3.206 3.612 1.876 0 2.73-1.134 3.066-2.254l-1.176-0.182c-0.238 0.98-0.868 1.498-1.876 1.498-1.064 0-2.002-0.742-2.058-2.436h5.166v-0.406zm-5.152-0.546c0.14-1.19 0.98-1.988 2.086-1.988 1.064 0 1.792 0.91 1.834 1.988h-3.92zm11.628 4.158v-5.964h1.386v-0.952h-1.386v-1.204c0-0.532 0.294-0.742 0.812-0.742 0.182 0 0.294 0.014 0.504 0.042v-0.924c-0.238-0.028-0.406-0.056-0.756-0.056-0.91 0-1.652 0.406-1.652 1.568v1.316h-1.302v0.952h1.302v5.964h1.092zm5.376 0.168c2.17 0 3.346-1.68 3.346-3.626 0-1.932-1.176-3.626-3.346-3.626s-3.346 1.694-3.346 3.626c0 1.946 1.176 3.626 3.346 3.626zm0-0.938c-1.498 0-2.198-1.232-2.198-2.688 0-1.442 0.7-2.688 2.198-2.688s2.198 1.26 2.198 2.688c0 1.442-0.7 2.688-2.198 2.688zm8.1-6.314c-1.078 0-1.82 0.7-2.1 1.386v-1.218h-1.064v6.916h1.092v-3.808c0-1.414 0.812-2.198 2.002-2.198 0.224 0 0.364 0.014 0.462 0.028v-1.078c-0.084-0.014-0.21-0.028-0.392-0.028zm5.892 7.084v-9.632h-1.148v9.632h1.148zm3.247 0v-3.906c0-1.176 0.756-2.212 2.03-2.212s1.596 0.812 1.596 2.198v3.92h1.092v-4.536c0-1.596-0.868-2.548-2.45-2.548-1.064 0-1.848 0.56-2.254 1.204h-0.014v-1.036h-1.092v6.916h1.092zm9.389 0.168c1.302 0 2.044-0.714 2.394-1.33v1.162h1.092v-9.632h-1.092v3.878c-0.35-0.616-1.092-1.33-2.394-1.33-1.848 0-3.136 1.456-3.136 3.626s1.288 3.626 3.136 3.626zm0.21-0.938c-1.484 0-2.198-1.218-2.198-2.688s0.714-2.688 2.198-2.688c1.47 0 2.226 1.26 2.226 2.688s-0.756 2.688-2.226 2.688zm6.438-7.322v-1.54h-1.092v1.54h1.092zm0 8.092v-6.916h-1.092v6.916h1.092zm5.077 0l2.646-6.916h-1.218l-1.988 5.628h-0.014l-1.988-5.628h-1.218l2.646 6.916h1.134zm5.041-8.092v-1.54h-1.092v1.54h1.092zm0 8.092v-6.916h-1.092v6.916h1.092zm4.74 0.168c1.302 0 2.044-0.714 2.394-1.33v1.162h1.092v-9.632h-1.092v3.878c-0.35-0.616-1.092-1.33-2.394-1.33-1.848 0-3.136 1.456-3.136 3.626s1.288 3.626 3.136 3.626zm0.21-0.938c-1.484 0-2.198-1.218-2.198-2.688s0.714-2.688 2.198-2.688c1.47 0 2.226 1.26 2.226 2.688s-0.756 2.688-2.226 2.688zm7.67 0.938c0.966 0 1.708-0.476 2.17-1.204h0.014v1.036h1.092v-6.916h-1.092v3.934c0 1.148-0.756 2.184-1.946 2.184-1.246 0-1.554-0.798-1.554-2.1v-4.018h-1.092v4.55c0 1.526 0.784 2.534 2.408 2.534zm7.292 0c1.078 0 1.806-0.462 2.128-1.022h0.014v0.854h1.092v-4.816c0-1.414-0.924-2.268-2.576-2.268-1.596 0-2.758 0.868-2.856 2.352l1.19 0.126c0.056-0.98 0.7-1.582 1.666-1.582 0.896 0 1.428 0.434 1.428 1.064 0 0.616-0.35 0.77-1.134 0.938l-1.008 0.21c-1.442 0.294-2.268 0.868-2.268 2.114 0 1.288 1.148 2.03 2.324 2.03zm0.266-0.882c-0.854 0-1.428-0.476-1.428-1.162 0-0.406 0.196-0.7 0.504-0.91 0.42-0.28 1.148-0.49 2.8-0.77v0.91c0 1.232-0.826 1.932-1.876 1.932zm6.058 0.714v-9.632h-1.092v9.632h1.092zm6.439 2.59v-3.752c0.35 0.616 1.092 1.33 2.394 1.33 1.848 0 3.136-1.456 3.136-3.626s-1.288-3.626-3.136-3.626c-1.302 0-2.044 0.714-2.394 1.33v-1.162h-1.092v9.506h1.092zm2.184-3.36c-1.47 0-2.226-1.26-2.226-2.688s0.756-2.688 2.226-2.688c1.484 0 2.198 1.218 2.198 2.688s-0.714 2.688-2.198 2.688zm6.047 0.77v-9.632h-1.092v9.632h1.092zm4.012 0.168c1.078 0 1.806-0.462 2.128-1.022h0.014v0.854h1.092v-4.816c0-1.414-0.924-2.268-2.576-2.268-1.596 0-2.758 0.868-2.856 2.352l1.19 0.126c0.056-0.98 0.7-1.582 1.666-1.582 0.896 0 1.428 0.434 1.428 1.064 0 0.616-0.35 0.77-1.134 0.938l-1.008 0.21c-1.442 0.294-2.268 0.868-2.268 2.114 0 1.288 1.148 2.03 2.324 2.03zm0.266-0.882c-0.854 0-1.428-0.476-1.428-1.162 0-0.406 0.196-0.7 0.504-0.91 0.42-0.28 1.148-0.49 2.8-0.77v0.91c0 1.232-0.826 1.932-1.876 1.932zm6.058 0.714v-3.906c0-1.176 0.756-2.212 2.03-2.212s1.596 0.812 1.596 2.198v3.92h1.092v-4.536c0-1.596-0.868-2.548-2.45-2.548-1.064 0-1.848 0.56-2.254 1.204h-0.014v-1.036h-1.092v6.916h1.092zm12.395 0l1.75-5.6h0.014l1.722 5.6h1.162l2.226-6.916h-1.162l-1.624 5.544h-0.014l-1.75-5.544h-1.162l-1.722 5.558h-0.014l-1.624-5.558h-1.204l2.24 6.916h1.162zm9.288 0v-3.906c0-1.176 0.756-2.212 2.03-2.212s1.596 0.812 1.596 2.198v3.92h1.092v-4.536c0-1.596-0.868-2.548-2.45-2.548-1.078 0-1.82 0.49-2.254 1.204h-0.014v-3.752h-1.092v9.632h1.092zm7.807-8.092v-1.54h-1.092v1.54h1.092zm0 8.092v-6.916h-1.092v6.916h1.092zm4.936 0.168c1.778 0 2.702-1.036 3.108-2.296l-1.134-0.308c-0.252 1.036-0.91 1.666-1.96 1.666-1.274 0-2.198-0.952-2.198-2.702 0-1.736 0.952-2.674 2.156-2.674 1.148 0 1.722 0.756 1.932 1.666l1.148-0.308c-0.378-1.302-1.358-2.296-3.052-2.296-2.016 0-3.332 1.498-3.332 3.612 0 2.142 1.302 3.64 3.332 3.64zm5.646-0.168v-3.906c0-1.176 0.756-2.212 2.03-2.212s1.596 0.812 1.596 2.198v3.92h1.092v-4.536c0-1.596-0.868-2.548-2.45-2.548-1.078 0-1.82 0.49-2.254 1.204h-0.014v-3.752h-1.092v9.632h1.092zm-174.81 9.908v-1.54h-1.092v1.54h1.092zm0 8.092v-6.916h-1.092v6.916h1.092zm3.158 0v-3.906c0-1.176 0.756-2.212 2.03-2.212s1.596 0.812 1.596 2.198v3.92h1.092v-4.536c0-1.596-0.868-2.548-2.45-2.548-1.064 0-1.848 0.56-2.254 1.204h-0.014v-1.036h-1.092v6.916h1.092zm9.584 0.168c1.778 0 2.702-1.036 3.108-2.296l-1.134-0.308c-0.252 1.036-0.91 1.666-1.96 1.666-1.274 0-2.198-0.952-2.198-2.702 0-1.736 0.952-2.674 2.156-2.674 1.148 0 1.722 0.756 1.932 1.666l1.148-0.308c-0.378-1.302-1.358-2.296-3.052-2.296-2.016 0-3.332 1.498-3.332 3.612 0 2.142 1.302 3.64 3.332 3.64zm5.646-0.168v-9.632h-1.092v9.632h1.092zm4.39 0.168c0.966 0 1.708-0.476 2.17-1.204h0.014v1.036h1.092v-6.916h-1.092v3.934c0 1.148-0.756 2.184-1.946 2.184-1.246 0-1.554-0.798-1.554-2.1v-4.018h-1.092v4.55c0 1.526 0.784 2.534 2.408 2.534zm8.02 0c1.302 0 2.044-0.714 2.394-1.33v1.162h1.092v-9.632h-1.092v3.878c-0.35-0.616-1.092-1.33-2.394-1.33-1.848 0-3.136 1.456-3.136 3.626s1.288 3.626 3.136 3.626zm0.21-0.938c-1.484 0-2.198-1.218-2.198-2.688s0.714-2.688 2.198-2.688c1.47 0 2.226 1.26 2.226 2.688s-0.756 2.688-2.226 2.688zm11.213-2.842c0-2.1-1.316-3.472-3.066-3.472-1.778 0-3.262 1.33-3.262 3.64 0 2.352 1.428 3.612 3.206 3.612 1.876 0 2.73-1.134 3.066-2.254l-1.176-0.182c-0.238 0.98-0.868 1.498-1.876 1.498-1.064 0-2.002-0.742-2.058-2.436h5.166v-0.406zm-5.152-0.546c0.14-1.19 0.98-1.988 2.086-1.988 1.064 0 1.792 0.91 1.834 1.988h-3.92zm9.186 4.326c1.596 0 2.87-0.854 2.87-2.226 0-1.134-0.812-1.568-2.17-1.89l-1.022-0.238c-0.84-0.196-1.246-0.364-1.246-0.966 0-0.574 0.574-1.022 1.484-1.022 0.868 0 1.512 0.462 1.624 1.358l1.148-0.21c-0.182-1.288-1.218-2.058-2.716-2.058-1.568 0-2.688 0.84-2.688 1.988 0 1.05 0.756 1.568 1.792 1.806l1.022 0.238c1.022 0.238 1.624 0.406 1.624 1.106 0 0.756-0.7 1.204-1.708 1.204s-1.82-0.546-1.89-1.722l-1.162 0.182c0.14 1.652 1.372 2.45 3.038 2.45zm9.277-0.168v-5.964h1.386v-0.952h-1.386v-1.204c0-0.532 0.294-0.742 0.812-0.742 0.182 0 0.294 0.014 0.504 0.042v-0.924c-0.238-0.028-0.406-0.056-0.756-0.056-0.91 0-1.652 0.406-1.652 1.568v1.316h-1.302v0.952h1.302v5.964h1.092zm8.372-3.612c0-2.1-1.316-3.472-3.066-3.472-1.778 0-3.262 1.33-3.262 3.64 0 2.352 1.428 3.612 3.206 3.612 1.876 0 2.73-1.134 3.066-2.254l-1.176-0.182c-0.238 0.98-0.868 1.498-1.876 1.498-1.064 0-2.002-0.742-2.058-2.436h5.166v-0.406zm-5.152-0.546c0.14-1.19 0.98-1.988 2.086-1.988 1.064 0 1.792 0.91 1.834 1.988h-3.92zm8.711 4.326c1.078 0 1.806-0.462 2.128-1.022h0.014v0.854h1.092v-4.816c0-1.414-0.924-2.268-2.576-2.268-1.596 0-2.758 0.868-2.856 2.352l1.19 0.126c0.056-0.98 0.7-1.582 1.666-1.582 0.896 0 1.428 0.434 1.428 1.064 0 0.616-0.35 0.77-1.134 0.938l-1.008 0.21c-1.442 0.294-2.268 0.868-2.268 2.114 0 1.288 1.148 2.03 2.324 2.03zm0.266-0.882c-0.854 0-1.428-0.476-1.428-1.162 0-0.406 0.196-0.7 0.504-0.91 0.42-0.28 1.148-0.49 2.8-0.77v0.91c0 1.232-0.826 1.932-1.876 1.932zm6.955 0.77c0.392 0 0.63-0.028 0.966-0.084v-0.924c-0.224 0.042-0.392 0.056-0.658 0.056-0.56 0-0.826-0.21-0.826-0.812v-4.256h1.414v-0.952h-1.414v-2.184h-1.092v2.184h-1.246v0.952h1.246v4.396c0 0.196 0.014 0.392 0.056 0.56 0.182 0.728 0.742 1.064 1.554 1.064zm4.778 0.112c0.966 0 1.708-0.476 2.17-1.204h0.014v1.036h1.092v-6.916h-1.092v3.934c0 1.148-0.756 2.184-1.946 2.184-1.246 0-1.554-0.798-1.554-2.1v-4.018h-1.092v4.55c0 1.526 0.784 2.534 2.408 2.534zm8.51-7.252c-1.078 0-1.82 0.7-2.1 1.386v-1.218h-1.064v6.916h1.092v-3.808c0-1.414 0.812-2.198 2.002-2.198 0.224 0 0.364 0.014 0.462 0.028v-1.078c-0.084-0.014-0.21-0.028-0.392-0.028zm7.255 3.472c0-2.1-1.316-3.472-3.066-3.472-1.778 0-3.262 1.33-3.262 3.64 0 2.352 1.428 3.612 3.206 3.612 1.876 0 2.73-1.134 3.066-2.254l-1.176-0.182c-0.238 0.98-0.868 1.498-1.876 1.498-1.064 0-2.002-0.742-2.058-2.436h5.166v-0.406zm-5.152-0.546c0.14-1.19 0.98-1.988 2.086-1.988 1.064 0 1.792 0.91 1.834 1.988h-3.92zm9.186 4.326c1.596 0 2.87-0.854 2.87-2.226 0-1.134-0.812-1.568-2.17-1.89l-1.022-0.238c-0.84-0.196-1.246-0.364-1.246-0.966 0-0.574 0.574-1.022 1.484-1.022 0.868 0 1.512 0.462 1.624 1.358l1.148-0.21c-0.182-1.288-1.218-2.058-2.716-2.058-1.568 0-2.688 0.84-2.688 1.988 0 1.05 0.756 1.568 1.792 1.806l1.022 0.238c1.022 0.238 1.624 0.406 1.624 1.106 0 0.756-0.7 1.204-1.708 1.204s-1.82-0.546-1.89-1.722l-1.162 0.182c0.14 1.652 1.372 2.45 3.038 2.45zm9.641 0c1.078 0 1.806-0.462 2.128-1.022h0.014v0.854h1.092v-4.816c0-1.414-0.924-2.268-2.576-2.268-1.596 0-2.758 0.868-2.856 2.352l1.19 0.126c0.056-0.98 0.7-1.582 1.666-1.582 0.896 0 1.428 0.434 1.428 1.064 0 0.616-0.35 0.77-1.134 0.938l-1.008 0.21c-1.442 0.294-2.268 0.868-2.268 2.114 0 1.288 1.148 2.03 2.324 2.03zm0.266-0.882c-0.854 0-1.428-0.476-1.428-1.162 0-0.406 0.196-0.7 0.504-0.91 0.42-0.28 1.148-0.49 2.8-0.77v0.91c0 1.232-0.826 1.932-1.876 1.932zm8.452 0.882c1.848 0 3.136-1.456 3.136-3.626s-1.288-3.626-3.136-3.626c-1.302 0-2.044 0.714-2.394 1.33v-3.878h-1.092v9.632h1.092v-1.162c0.35 0.616 1.092 1.33 2.394 1.33zm-0.21-0.938c-1.47 0-2.226-1.26-2.226-2.688s0.756-2.688 2.226-2.688c1.484 0 2.198 1.218 2.198 2.688s-0.714 2.688-2.198 2.688zm7.825 0.938c2.17 0 3.346-1.68 3.346-3.626 0-1.932-1.176-3.626-3.346-3.626s-3.346 1.694-3.346 3.626c0 1.946 1.176 3.626 3.346 3.626zm0-0.938c-1.498 0-2.198-1.232-2.198-2.688 0-1.442 0.7-2.688 2.198-2.688s2.198 1.26 2.198 2.688c0 1.442-0.7 2.688-2.198 2.688zm7.796 0.77l2.646-6.916h-1.218l-1.988 5.628h-0.014l-1.988-5.628h-1.218l2.646 6.916h1.134zm9.664-3.612c0-2.1-1.316-3.472-3.066-3.472-1.778 0-3.262 1.33-3.262 3.64 0 2.352 1.428 3.612 3.206 3.612 1.876 0 2.73-1.134 3.066-2.254l-1.176-0.182c-0.238 0.98-0.868 1.498-1.876 1.498-1.064 0-2.002-0.742-2.058-2.436h5.166v-0.406zm-5.152-0.546c0.14-1.19 0.98-1.988 2.086-1.988 1.064 0 1.792 0.91 1.834 1.988h-3.92zm7.941 4.158v-1.61h-1.33v1.61h1.33z" fill="#636870"/>
<path d="m366.01 94.221l-2.786-8.316h-1.96v9.632h1.148v-6.65c0-0.868-0.028-1.834-0.028-1.974l0.014-0.014 2.968 8.638h1.302l2.982-8.638 0.014 0.014c0 0.14-0.028 1.106-0.028 1.974v6.65h1.148v-9.632h-1.974l-2.8 8.316zm9.767 1.484c2.17 0 3.346-1.68 3.346-3.626 0-1.932-1.176-3.626-3.346-3.626s-3.346 1.694-3.346 3.626c0 1.946 1.176 3.626 3.346 3.626zm0-0.938c-1.498 0-2.198-1.232-2.198-2.688 0-1.442 0.7-2.688 2.198-2.688s2.198 1.26 2.198 2.688c0 1.442-0.7 2.688-2.198 2.688zm6.029 0.77v-3.906c0-1.176 0.756-2.212 2.03-2.212s1.596 0.812 1.596 2.198v3.92h1.092v-4.536c0-1.596-0.868-2.548-2.45-2.548-1.064 0-1.848 0.56-2.254 1.204h-0.014v-1.036h-1.092v6.916h1.092zm8.69 0.056c0.392 0 0.63-0.028 0.966-0.084v-0.924c-0.224 0.042-0.392 0.056-0.658 0.056-0.56 0-0.826-0.21-0.826-0.812v-4.256h1.414v-0.952h-1.414v-2.184h-1.092v2.184h-1.246v0.952h1.246v4.396c0 0.196 0.014 0.392 0.056 0.56 0.182 0.728 0.742 1.064 1.554 1.064zm3.546-0.056v-3.906c0-1.176 0.756-2.212 2.03-2.212s1.596 0.812 1.596 2.198v3.92h1.092v-4.536c0-1.596-0.868-2.548-2.45-2.548-1.078 0-1.82 0.49-2.254 1.204h-0.014v-3.752h-1.092v9.632h1.092zm7.807 0v-9.632h-1.092v9.632h1.092zm4.516-1.274l-1.96-5.642h-1.26l2.646 6.902-0.266 0.686c-0.294 0.742-0.686 1.008-1.372 1.008-0.196 0-0.406-0.028-0.588-0.07v1.008c0.196 0.028 0.364 0.056 0.658 0.056 1.064 0 1.876-0.518 2.338-1.722l3.01-7.868h-1.26l-1.946 5.642zm11.773 1.442c2.338 0 3.766-1.372 4.256-3.108l-1.176-0.322c-0.378 1.456-1.344 2.422-3.066 2.422-2.128 0-3.444-1.582-3.444-3.976 0-2.366 1.316-3.976 3.444-3.976 1.666 0 2.66 1.078 2.996 2.366l1.19-0.322c-0.434-1.54-1.834-3.052-4.186-3.052-2.856 0-4.648 2.128-4.648 4.984 0 2.912 1.792 4.984 4.634 4.984zm8.594 0c2.17 0 3.346-1.68 3.346-3.626 0-1.932-1.176-3.626-3.346-3.626s-3.346 1.694-3.346 3.626c0 1.946 1.176 3.626 3.346 3.626zm0-0.938c-1.498 0-2.198-1.232-2.198-2.688 0-1.442 0.7-2.688 2.198-2.688s2.198 1.26 2.198 2.688c0 1.442-0.7 2.688-2.198 2.688zm7.359 0.938c1.596 0 2.87-0.854 2.87-2.226 0-1.134-0.812-1.568-2.17-1.89l-1.022-0.238c-0.84-0.196-1.246-0.364-1.246-0.966 0-0.574 0.574-1.022 1.484-1.022 0.868 0 1.512 0.462 1.624 1.358l1.148-0.21c-0.182-1.288-1.218-2.058-2.716-2.058-1.568 0-2.688 0.84-2.688 1.988 0 1.05 0.756 1.568 1.792 1.806l1.022 0.238c1.022 0.238 1.624 0.406 1.624 1.106 0 0.756-0.7 1.204-1.708 1.204s-1.82-0.546-1.89-1.722l-1.162 0.182c0.14 1.652 1.372 2.45 3.038 2.45zm6.362-0.112c0.392 0 0.63-0.028 0.966-0.084v-0.924c-0.224 0.042-0.392 0.056-0.658 0.056-0.56 0-0.826-0.21-0.826-0.812v-4.256h1.414v-0.952h-1.414v-2.184h-1.092v2.184h-1.246v0.952h1.246v4.396c0 0.196 0.014 0.392 0.056 0.56 0.182 0.728 0.742 1.064 1.554 1.064z" fill="#636870"/>
<defs>
<linearGradient id="c" x1="73.66" x2="110.03" y1="478.75" y2="514.69" gradientUnits="userSpaceOnUse">
<stop stop-color="#ADCEFF" offset="0"/>
<stop stop-color="#E1EDFF" offset=".52604"/>
<stop stop-color="#FAFCFF" offset="1"/>
</linearGradient>
<linearGradient id="b" x1="23.723" x2="60.095" y1="-2.8002e-6" y2="35.944" gradientUnits="userSpaceOnUse">
<stop stop-color="#ADCEFF" offset="0"/>
<stop stop-color="#E1EDFF" offset=".52604"/>
<stop stop-color="#FAFCFF" offset="1"/>
</linearGradient>
<clipPath id="h">
<rect transform="translate(42.898 124.35)" width="24" height="24" fill="#fff"/>
</clipPath>
<clipPath id="g">
<rect transform="translate(41.949 249.35)" width="401" height="25" fill="#fff"/>
</clipPath>
<clipPath id="f">
<rect transform="translate(41.949 306.35)" width="400.95" height="25" fill="#fff"/>
</clipPath>
<clipPath id="e">
<rect transform="translate(41.949 363.35)" width="401" height="25" fill="#fff"/>
</clipPath>
<clipPath id="d">
<path d="m49.938 507.19c0-9.956 0-14.934 1.9377-18.737 1.7044-3.345 4.424-6.065 7.7691-7.769 3.8029-1.938 8.7812-1.938 18.738-1.938h7.1112c9.9564 0 14.935 0 18.738 1.938 3.345 1.704 6.064 4.424 7.769 7.769 1.938 3.803 1.938 8.781 1.938 18.737v7.011c0 9.956 0 14.935-1.938 18.738-1.705 3.345-4.424 6.064-7.769 7.769-3.803 1.937-8.7815 1.937-18.738 1.937h-7.1112c-9.9564 0-14.935 0-18.738-1.937-3.3451-1.705-6.0647-4.424-7.7691-7.769-1.9377-3.803-1.9377-8.782-1.9377-18.738v-7.011z" fill="#fff"/>
</clipPath>
</defs>
</svg>
