<?xml version="1.0" encoding="utf-8"?>
<!-- Generator: Adobe Illustrator 23.0.1, SVG Export Plug-In . SVG Version: 6.00 Build 0)  -->
<svg version="1.1" id="Layer_1" xmlns="http://www.w3.org/2000/svg" xmlns:xlink="http://www.w3.org/1999/xlink" x="0px" y="0px"
	 viewBox="0 0 1216.3 1430" style="enable-background:new 0 0 1216.3 1430;" xml:space="preserve">
<style type="text/css">
	.st0{opacity:0.6;}
	.st1{opacity:0.68;fill:#C5E3E8;enable-background:new    ;}
	.st2{opacity:0.77;fill:#D2EDF3;enable-background:new    ;}
	.st3{opacity:0.15;enable-background:new    ;}
	.st4{fill:url(#SVGID_1_);}
	.st5{fill:url(#SVGID_2_);}
	.st6{fill:#2193A6;}
	.st7{opacity:0.1;fill:#D2EDF3;enable-background:new    ;}
	.st8{fill:#D5DEF1;}
	.st9{fill:#161819;}
	.st10{fill:#ED1C24;}
	.st11{fill:url(#SVGID_3_);}
	.st12{fill:url(#SVGID_4_);}
	.st13{fill:#00A2FD;}
	.st14{fill:#0074C3;}
	.st15{fill:#55E3C9;}
	.st16{fill:#066ECC;}
	.st17{fill:url(#SVGID_5_);}
	.st18{fill:#F7F7F9;}
	.st19{fill:#FFFFFF;}
	.st20{fill:#00C3FF;}
	.st21{fill:#999999;}
	.st22{fill:#F0F0F0;}
	.st23{fill:#D80027;}
	.st24{fill:#0052B4;}
	.st25{fill:#383838;}
	.st26{fill:#111111;}
	.st27{fill:#FF9100;}
</style>
<title>hotbot-privacy</title>
<g>
	<g id="Layer_1-2">
		<g id="bg" class="st0">
			<path class="st1" d="M771.4,1119.9c-92.2-30-193.3-32.9-289.8-9.8c-252.4,60.5-129.3-61.9-172-137.7
				C260,884.3,506.3,803.2,543.8,707.6S294.7,543.4,375.8,473c63.5-55-62.6-157.5,20.5-180.9c81.1-22.8,167.1-19.9,250.8-15.2
				c107.7,6,217,14.9,316.4,50.9c81.1,29.3,161.2,88.9,159.9,169.4c-1.1,68.6-61.5,129.8-61.3,198.3c0.3,96,114.6,155.7,144.8,246.8
				c35.2,106.2-35.1,211.6-117.5,227C1003.6,1185.2,873.6,1153.2,771.4,1119.9z"/>
			<path class="st2" d="M758.3,232.3c-39.5-1.1-98,17.7-160.3,33.3c-10.1,2.5-20.3,4.9-30.5,7.2c-26,5.7-52.3,10.3-77.6,12.1
				c-34.7,2.5-67.7-0.4-96.1-12.6c-38-16.4-115.1-48.8-156-55.3c-7.7-1.2-15.5-1.9-23.3-2.2c-16.7-0.6-33.4,1.5-49.4,6.2
				c-8.1,2.3-15.9,5.3-23.5,8.9c-39.6,18.6-72.6,52.9-103,94.8c-12.7,17.8-22.6,37.5-29,58.4C4,401.2,0.8,420,0.1,439
				c-1.6,48.1,13.5,95.8,47.4,129.7c1.6,1.6,3.2,3.2,4.9,4.7c34.6,31.9,83.1,53,105.7,91.5c3.7,6.4,6.7,13.1,8.8,20.2
				c13.3,45.3-12.1,84.7-42.4,124.2c-1.2,1.6-2.3,3.1-3.5,4.7c-3.6,4.6-7.3,9.3-10.9,13.9c-2.4,3.2-4.9,6.3-7.3,9.5
				c-2.6,3.4-5.2,6.7-7.7,10.1c-7.3,9.7-14.1,19.7-20.4,30c-3.6,5.9-6.9,12-9.9,18.3c-0.9,1.9-1.8,3.8-2.6,5.8
				c-9.2,22.1-13.4,45.8-12.5,69.7c2,62,35.6,124.6,85.2,164.1c70.2,56,164.3,72.9,254,71.8c64-0.8,130.7-12.6,190.3-37.2
				c2.3-0.9,4.7-1.8,7-2.9c9.3-4,18.5-8.4,27.4-13.1c4.5-2.4,8.9-4.8,13.3-7.4c1.4-0.8,2.8-1.7,4.2-2.5c5.2-3.1,10.3-6.3,15.3-9.7
				c7-4.7,13.7-9.6,20.3-14.8c0.5-0.4,1-0.8,1.5-1.2c3.2-2.6,6.3-5.2,9.4-7.8l0.6-0.6c1-0.9,2-1.8,3-2.6c1.4-1.3,2.8-2.6,4.2-3.9
				c1.3-1.1,2.6-2.3,3.7-3.5c1.8-1.7,3.6-3.5,5.4-5.3l2-2.2c1.4-1.5,2.9-3,4.3-4.6c0.7-0.7,1.3-1.3,1.8-2c1-1,2-2.1,2.9-3.3
				c3-3.4,5.9-7,8.7-10.6c1.4-1.8,2.8-3.6,4.2-5.4c2.2-3.1,4.4-6.2,6.5-9.3c0.8-1.3,1.8-2.7,2.6-4c0.2-0.3,0.4-0.6,0.7-1
				c1.2-1.9,2.5-3.9,3.7-6c1.1-1.7,2.1-3.4,3.1-5.2c0.2-0.3,0.3-0.5,0.5-0.8c1.8-3.2,3.6-6.4,5.3-9.8c1.4-2.8,2.8-5.5,4.1-8.4
				c2.6-5.7,5.1-11.6,7.3-17.5l0.1-0.2c0.7-1.6,1.3-3.4,1.9-5.1c0.1-0.3,0.2-0.7,0.3-1c2.4-6.6,4.6-13.4,6.6-20.3
				c1.2-4.1,2.3-8.3,3.4-12.4c0.6-2.3,1.1-4.5,1.7-6.9c2.2-8.9,4.1-17.9,5.9-27c0.7-3.6,1.4-7.1,2-10.7c2-10.8,3.9-21.5,5.6-32.3
				c3.8-22.7,7.4-45.4,12.1-67.4c2.2-10.9,4.8-21.6,7.7-32c0.9-3.3,1.8-6.4,2.9-9.7c2.9-9.7,6.4-19.2,10.3-28.5
				c3.7-8.7,8-17.1,12.8-25.2c5.9-10.3,12.9-19.9,20.8-28.7c33.4-37.5-138.7-56.3-103.4-91.7c33.6-33.7,59.4-70.6,55.9-118
				s30-41.9,0-78.9c-30.8-38,85.9-130.5,42.2-152.7C813.3,241.9,785,233.1,758.3,232.3z"/>
		</g>
		<g id="phone">
			<path class="st3" d="M252.3,16.1c-0.8,0.3-1.7,1.1-2.4,1.1c0.7-0.6,1.4-1.1,2.2-1.7C252.1,15.8,252.2,16,252.3,16.1z"/>
			<path class="st3" d="M755.1,0.1c-0.1,0-0.1,0-0.2-0.1h1.6C756.1,0.1,755.6,0.2,755.1,0.1z"/>
			
				<linearGradient id="SVGID_1_" gradientUnits="userSpaceOnUse" x1="594.85" y1="1450.0001" x2="594.85" y2="50.8001" gradientTransform="matrix(1 0 0 1 0 -20.0001)">
				<stop  offset="0" style="stop-color:#BAC8E1"/>
				<stop  offset="0.38" style="stop-color:#BECCE4"/>
				<stop  offset="0.79" style="stop-color:#CBD6EB"/>
				<stop  offset="1" style="stop-color:#D5DEF1"/>
			</linearGradient>
			<path class="st4" d="M940.7,103.8V1357c0,40.3-32.7,73-73,73c0,0,0,0-0.1,0H322c-4.7,0-9.4-0.4-14-1.3c-34.3-6.7-59-36.8-59-71.7
				V103.8c0-40.3,32.7-73,73-73c0,0,0,0,0.1,0h545.5c7,0,13.9,1,20.5,3c1.9,0.6,3.8,1.2,5.6,1.9c3.7,1.4,7.2,3,10.5,5
				C923.9,52.1,937.1,72,940,94.5C940.4,97.6,940.7,100.7,940.7,103.8z"/>
			
				<linearGradient id="SVGID_2_" gradientUnits="userSpaceOnUse" x1="594.9" y1="1430.4003" x2="594.9" y2="70.5001" gradientTransform="matrix(1 0 0 1 0 -20.0001)">
				<stop  offset="0" style="stop-color:#1C5887"/>
				<stop  offset="1" style="stop-color:#2193A6"/>
			</linearGradient>
			<path class="st5" d="M920.7,115.3v1230.3c0,35.8-30.4,64.8-67.8,64.8h-516c-37.5,0-67.8-29-67.8-64.7V115.2
				c0-35.8,30.4-64.7,67.8-64.7h88.7v1.7c0,23,19.5,41.7,43.6,41.7h251.4c24.1,0,43.7-18.6,43.7-41.7v-1.7H853
				C890.3,50.5,920.7,79.5,920.7,115.3z"/>
			<path class="st6" d="M497.1,50.5h-1c-6.2,0-11.3,5.1-11.3,11.3c0,3,1.2,5.8,3.3,7.9c2.1,2.1,5,3.3,8,3.3h1
				c6.2,0.2,11.4-4.7,11.6-10.9c0.2-6.2-4.7-11.4-10.9-11.6C497.5,50.5,497.3,50.5,497.1,50.5z M693.7,50.5H541.1
				c-6,0-11,4.7-11.2,10.8v0.1c-0.1,0.1-0.1,0.3-0.1,0.4c0,6.2,5,11.3,11.3,11.3h152.6c3,0,5.8-1.2,8-3.3c2.1-2.1,3.2-5,3.3-8
				C704.9,55.6,699.9,50.5,693.7,50.5L693.7,50.5z"/>
			<path class="st7" d="M940.7,103.8v502.9l-6.1,0.1c-3.6,12.3-6,24.9-7.2,37.7l-0.1,0.1v0.1l-6.7,16l-0.1,0.1l-44.6,107.3h0.1
				l-11.3,27.3l-50.9,122.4l-8.2,19.7l-36.4,87.4v0.1l-0.1,0.4l-3.3,8l-136.5,328.1l-20.4,49.1l-8.2,19.6H322c-4.7,0-9.4-0.4-14-1.3
				l8.8-21.2v-0.1l53.3-128.1v-0.1l78.9-189.6l23.5-56.5l3.3-8l8.8-21l0.6-1.5l7.4-17.7l6-14l4.6-11l2.4-5.8l1.4-3.3l1-2.5l5.8-14.2
				l0.6-1.3l8.5-20.6l12-28.8l3.3-7.8l6-14.4l2.7-6.4l5.8-14.2l1.4-3.3l2.3-5.6l0.1-0.3l20.8-50.2l4.3-10.2l17.6-42.4l4-9.7l5.4-13
				l48.9-117.6l5.4-13.1l4-9.8l21.8-52.5l17.3-41.5l3.7-8.9l3.7-8.8l34.1-82.1l11.6-27.9l8-19.4l13.6-32.7l6.7-16l3-7.3l10.9-26.2
				l6.6-15.7l12.7-30.6l2.9-7l6.7-16.2l9.1-21.9v-0.1L879.2,55l9-21.8c1.9,0.6,3.8,1.2,5.6,1.9c3.7,1.4,7.2,3,10.5,5
				C923.9,52,937.1,72,940,94.5C940.4,97.6,940.7,100.7,940.7,103.8z"/>
			<path class="st7" d="M940.7,784.2V1357c0,40.3-32.7,73-73,73c0,0,0,0-0.1,0H672.1l8.2-19.7v-0.1L695,1375l177.3-426.5l48.3-116.3
				l0.1-0.2l9.2-22l2.2-5.3L940.7,784.2z"/>
		</g>
		<g id="no_ads">
			<path class="st3" d="M384.2,443.5l-79.1,14.8l-20.1,3.8l-84.9,15.8l-9,1.7c-8.8,1.7-17.3-4.1-19-12.9v-0.1l-36-192.9
				c-1.6-8.8,4.2-17.3,13-18.9l0,0l135.8-25.4l20.1-3.8l37.1-6.9c8.8-1.6,17.3,4.2,19,13l1.2,6.2l34.9,186.8
				C398.9,433.4,393,441.9,384.2,443.5z"/>
			<path class="st8" d="M348.1,421.8l-0.5,0.1l-42.5,8l-34.8,6.6l-1.3,0.2l-20,3.8l-16.9,3.2l-11.2,2.1l-28.1,5.2l-17.9,3.3l-10.7,2
				l-0.4,0.1l-0.5,0.1l-8.1,1.5c-5.2,1-10.6-0.7-14.4-4.4c-2.4-2.3-4-5.3-4.6-8.5l-4-21.6l-9-47.8v-0.1l-1.8-9.8l-1.8-9.5
				l-19.5-104.2c-1.6-8.8,4.2-17.3,13-18.9L184,220l12.9-2.4l23.9-4.4l28.2-5.3l3.1-0.6L269,204l8.2-1.5l28.9-5.4
				c8.8-1.6,17.2,4.2,18.9,12.9l1.1,6.1l0.8,4.1l12.9,69.1l0.2,1l4.9,26.2l0.9,4.7l7.1,38l7.5,40.4l0.6,3.3
				C362.7,411.7,356.9,420.1,348.1,421.8z"/>
			<path class="st9" d="M248.9,339.5c-0.7-0.4-1.3-0.9-1.9-1.5c0,0-0.1,0-0.1-0.1c-0.6-0.6-1.1-1.2-1.5-1.8c-2.1,2.5-5,4.1-8.2,4.6
				l-2.7,0.5l12,8.2c0.8-0.4,1.6-0.9,2.4-1.5V339.5C249,339.6,248.9,339.6,248.9,339.5z M259.2,322c-0.8-4.3-2.6-8.4-5.4-11.9
				c-1.4-1.8-3.1-3.4-4.9-4.8c-2.4-1.7-5-2.9-7.8-3.7c-3.7-1.1-7.5-1.2-11.3-0.4l-2.9,0.5l-6.1,1.2l-10,1.9l-1.2,0.2l1.4,7.4
				l0.4,2.2l2.3,12.3l5.4,28.8l20.3-3.8c2.5-0.5,5-1.3,7.2-2.5c0.8-0.4,1.6-0.9,2.4-1.5c3.9-2.8,6.9-6.5,8.8-10.9
				C259.7,332.3,260.2,327.1,259.2,322z M228.6,342.4l-1.2-6l-4.2-22.4l0.8-0.1l7.9-1.5c5.8-1.1,10.8,1,13.7,5.6
				c1.2,1.9,2.1,3.9,2.5,6.1c0.4,2.1,0.4,4.3,0.1,6.4c-0.4,2.1-1.3,4.1-2.7,5.7c-2.1,2.5-5,4.1-8.2,4.6l-2.7,0.5L228.6,342.4z
				 M248.9,339.4c-0.7-0.4-1.3-0.9-1.9-1.5c0,0-0.1,0-0.1-0.1c-0.6-0.6-1.1-1.2-1.5-1.8c-2.1,2.5-5,4.1-8.2,4.6l-2.7,0.5l12,8.2
				c0.8-0.4,1.6-0.9,2.4-1.5V339.4C249,339.6,248.9,339.6,248.9,339.4L248.9,339.4z"/>
			<path class="st10" d="M293.8,315.6c-0.1-0.4-0.2-0.8-0.3-1.2c-0.6-3.4-1.6-6.6-2.8-9.8c-1.1-2.9-2.4-5.6-3.9-8.3
				c-0.7-1.4-1.6-2.7-2.5-4c-0.1-0.2-0.2-0.4-0.4-0.6c-3.7-5.4-8.2-10.3-13.4-14.3c-0.3-0.3-0.6-0.5-0.9-0.7
				c-0.2-0.2-0.4-0.3-0.6-0.4c-6-4.5-12.8-7.8-20-9.8c-1.1-0.3-2.2-0.6-3.3-0.9c-5.2-1.3-10.6-1.8-16-1.6c-3,0-5.9,0.2-8.8,0.8
				c-0.4,0-0.8,0.1-1.1,0.1c-14.3,2.7-27.2,10.2-36.6,21.2c-3.6,4.2-6.7,8.9-9.1,13.9c-5,10.5-7,22.1-5.8,33.7
				c0.2,1.8,0.4,3.7,0.8,5.5c0,0.4,0.1,0.7,0.2,1.1c0.5,2.7,1.2,5.3,2.1,7.8v0.1c1.5,4.4,3.5,8.6,6,12.6v0.1c0.4,0.5,0.6,1.1,1,1.6
				c1.2,1.5,2.2,3.1,3.4,4.6c1.2,1.5,2.5,3,3.8,4.4c2.7,2.8,5.6,5.3,8.7,7.6c6.2,4.5,13.3,7.9,20.8,9.9c6.6,1.8,13.5,2.4,20.3,2h0.1
				c2.6-0.1,5.2-0.4,7.7-0.9c0.9-0.1,1.7-0.3,2.5-0.5h0.1c1.1-0.2,2.3-0.5,3.4-0.9c7.2-2.1,14-5.5,20-10c5.3-3.8,9.9-8.4,13.6-13.7
				c1.2-1.6,2.3-3.2,3.3-4.9c0.4-0.6,0.8-1.3,1.1-2v-0.1c0.1-0.1,0.1-0.1,0.2-0.2s0.1-0.1,0.1-0.1c2.6-4.8,4.5-9.8,5.9-15.1
				c0.5-2,0.9-4,1.2-6C295.2,329.4,295,322.4,293.8,315.6z M249,367.2c-0.1,0.1-0.2,0.1-0.4,0.1c-3,1.3-6.1,2.2-9.3,2.8
				c-6.1,1.2-12.4,1-18.5-0.6c-2.2-0.5-4.3-1.2-6.4-2.1c-5.6-2.4-10.6-5.9-14.7-10.3c-1.6-1.6-3-3.4-4.3-5.3
				c-2.2-3.2-4-6.6-5.2-10.3c-0.7-2.1-1.3-4.3-1.7-6.4c-0.1-0.7-0.2-1.3-0.3-2c-0.1-0.5-0.1-1-0.1-1.5c-0.4-3-0.4-6-0.1-9
				c0.4-3.3,1.1-6.6,2.2-9.8c0.2-0.6,0.4-1.1,0.6-1.7l8.8,6.1l14.1,9.7l7.1,4.9l6.6,4.5l7.2,4.8l12,8.2l2.4,1.7l11.9,8.2
				C257.4,362.5,253.3,365.2,249,367.2z M274.1,336.2L274.1,336.2c-0.5,2.3-1.2,4.5-2,6.6c-0.4,1.1-0.9,2-1.3,3.1l-1.8-1.2l-2.8-2
				l-8.4-5.7l-8.8-6.1l-0.8-0.6l-4.9-3.3L224,313.9l-2.5-1.7l-0.6-0.4l-3-2.1l-7-4.8l-11.1-7.6c4.4-4.6,9.8-8.3,15.8-10.6h0.1
				c1.7-0.7,3.5-1.2,5.3-1.7c0.8-0.2,1.7-0.4,2.5-0.6c8.6-1.6,17.6-0.6,25.6,3c4.9,2.1,9.3,5.2,13.1,8.9c0.7,0.7,1.4,1.4,2.2,2.2
				c1.8,2.1,3.4,4.3,4.8,6.7c1.8,3,3.2,6.3,4.1,9.8c0.5,1.4,0.9,2.9,1.1,4.3c0.1,0.9,0.4,2,0.4,3c0.3,2.6,0.4,5.2,0.2,7.9
				C274.8,332.2,274.5,334.2,274.1,336.2L274.1,336.2z"/>
			<path class="st9" d="M194,319.9l-3.9-6.9l-2.1-3.8l-14.8,2.7l-3,20.5l-1,7.6l-3.8,25.8l12.7-2.4l0.1-1.3l0.1-1l0.7-6.1l16.3-3
				l2.6-0.5l2.3,4.4l1.7,3.1l12.7-2.4L194,319.9z M180.6,343.5l1.3-10.4l1-7.7l0.2-1.7l0.6,1.2l3.7,6.9l0.7,1.4l4.3,8.1l-2.2,0.4
				L180.6,343.5z"/>
			<path class="st9" d="M302.6,325.1c-0.5-3.1-2-5.9-4.3-8c-1.4-1.2-3.1-2.1-4.8-2.7c-3.3-1-6.7-1.7-10.2-2
				c-2.2-0.2-4.3-0.5-6.4-1.1c-2.8-0.9-3.5-2-3.8-3.5c-0.2-1.7,0.8-3.4,2.4-4c2.6-1.3,5.6-1.4,8.2-0.1c0.8,0.4,1.5,0.9,2.1,1.5
				c0.7,0.6,1.3,1.3,1.8,2.1l3.1-2.7l4.5-4l1.1-0.9c-0.5-0.6-1-1.2-1.6-1.8c-1.6-1.8-3.6-3.3-5.8-4.4c-1.4-0.7-2.8-1.3-4.4-1.7
				c-3.5-0.8-7.2-0.7-10.7,0.3c-3.2,0.8-6.1,2.5-8.4,4.9c-0.5,0.5-0.9,1-1.3,1.5c-2.5,3.2-3.5,7.4-2.8,11.4c0,0.1,0.1,0.3,0.1,0.4
				c0.7,4.4,3.5,8.3,7.5,10.2c3,1.3,6.1,2.1,9.4,2.3c2.6,0.2,5.1,0.5,7.6,0.9c1.2,0.2,2.4,0.6,3.4,1.3c0.8,0.6,1.4,1.4,1.6,2.4
				c0.3,2-0.6,4.3-6.1,5.4c-1.3,0.2-2.7,0.3-4,0.1c-1.8-0.2-3.5-0.8-4.9-1.9c-0.4-0.3-0.7-0.6-1.1-0.9c-0.8-0.7-1.4-1.5-2-2.4
				l-3.9,3.4l-5,4.3c1.1,2,2.7,3.7,4.4,5.1c1.1,0.9,2.4,1.6,3.6,2.3c1.9,0.9,4,1.5,6.1,1.7c2.4,0.3,4.9,0.2,7.3-0.1
				c0.4-0.1,0.9-0.1,1.3-0.2c2.2-0.4,4.3-1.1,6.4-2c3.7-1.6,6.6-4.4,8.4-8l0.4-1.1C302.9,330.6,303.2,327.8,302.6,325.1z"/>
		</g>
		<g id="switch">
			<g id="wave">
				
					<radialGradient id="SVGID_3_" cx="594.8" cy="571.11" r="204" gradientTransform="matrix(1 0 0 -1 0 1202.8099)" gradientUnits="userSpaceOnUse">
					<stop  offset="0" style="stop-color:#BFE4E8"/>
					<stop  offset="1" style="stop-color:#80D2D8;stop-opacity:0.1"/>
				</radialGradient>
				<circle class="st11" cx="594.8" cy="631.7" r="204"/>
				
					<linearGradient id="SVGID_4_" gradientUnits="userSpaceOnUse" x1="594.2249" y1="420.1111" x2="595.3751" y2="722.1089" gradientTransform="matrix(1 0 0 -1 0 1202.8099)">
					<stop  offset="0" style="stop-color:#A3E2E5"/>
					<stop  offset="1" style="stop-color:#5FC4C4"/>
				</linearGradient>
				<circle class="st12" cx="594.8" cy="631.7" r="151"/>
			</g>
			<g id="shotdown">
				<circle class="st13" cx="594.8" cy="631.7" r="97.5"/>
				<circle class="st14" cx="594.8" cy="631.7" r="88"/>
				<circle class="st15" cx="594.8" cy="631.7" r="75.9"/>
				<path class="st16" d="M594.8,592c-2.2,0-4,1.8-4,4v31.7c0,2.2,1.8,4,4,4s4-1.8,4-4V596C598.8,593.8,597.1,592,594.8,592z
					 M631.8,618.1c-2.2-6.2-6-11.7-10.9-16c-0.1-0.2-0.3-0.2-0.4-0.3c-0.6-0.5-1.4-0.8-2.2-0.8c-1.3,0-2.5,0.6-3.2,1.7
					c-1.2,1.7-0.9,4,0.7,5.3c1,0.9,2,1.9,2.9,2.9c4.9,5.6,7.7,12.8,7.9,20.2v0.1c0.2,8.9-3.4,17.4-9.8,23.6
					c-0.3,0.3-0.6,0.6-0.9,0.9c-13.2,11.6-33.2,10.3-44.8-2.9s-10.3-33.2,2.9-44.8l0,0c1.6-1.3,1.8-3.6,0.7-5.3
					c-0.1-0.1-0.1-0.3-0.4-0.3c-1.5-1.6-4-1.8-5.6-0.3c-1.3,1.1-2.5,2.3-3.6,3.5c-14.6,16.3-13.3,41.4,3,56s41.4,13.3,56-3
					c0.2-0.2,0.4-0.4,0.6-0.6C634.1,647.1,636.9,631.8,631.8,618.1L631.8,618.1z"/>
			</g>
			<g id="pop-up">
				
					<linearGradient id="SVGID_5_" gradientUnits="userSpaceOnUse" x1="594.3981" y1="168.8441" x2="595.4285" y2="437.1333" gradientTransform="matrix(1 0 0 -1 0 1202.8099)">
					<stop  offset="0" style="stop-color:#001B43"/>
					<stop  offset="1" style="stop-color:#09316C"/>
				</linearGradient>
				<path class="st17" d="M813.9,818.7c0-10.6-8.6-19.2-19.1-19.2l0,0H641.3l-34.4-29.4c-6.9-5.9-17-5.9-23.9,0l-34.4,29.4H395
					c-10.6,0-19.2,8.5-19.2,19.1c0,0,0,0,0,0.1V1014c0,10.6,8.6,19.2,19.2,19.2l0,0h399.7c10.6,0,19.2-8.6,19.2-19.2l0,0V818.7z"/>
				<path class="st18" d="M793,912.4H396.7c-7.2,0.1-12.9,6-12.8,13.2v0.1l0,0v86.2c-0.1,7.2,5.6,13.1,12.8,13.3h396.2
					c7.2-0.2,12.9-6.1,12.8-13.3v-86.1c0.3-7.1-5.2-13.1-12.3-13.4C793.2,912.4,793.1,912.4,793,912.4z"/>
				<g>
					<path class="st13" d="M507.7,841.1c-1.3,0-2.7-0.3-3.8-1c-1-0.6-1.8-1.6-2.2-2.7l2.6-1.5c0.5,1.4,1.9,2.4,3.5,2.3
						c0.6,0.1,1.3-0.1,1.8-0.5c0.4-0.3,0.6-0.7,0.6-1.2s-0.3-1-0.8-1.3c-0.8-0.5-1.7-0.8-2.5-1c-0.6-0.2-1.1-0.4-1.7-0.6
						c-0.5-0.3-0.9-0.5-1.4-0.8s-0.8-0.8-1-1.3c-0.3-0.6-0.4-1.2-0.4-1.8c0-1.3,0.5-2.5,1.4-3.3c1-0.8,2.2-1.2,3.5-1.3
						c1.1-0.1,2.3,0.3,3.2,0.9c0.9,0.6,1.7,1.5,2.2,2.4l-2.6,1.4c-0.5-1.2-1.6-2-2.9-1.9c-0.5,0-1,0.1-1.4,0.4
						c-0.4,0.3-0.6,0.7-0.5,1.2c0,0.5,0.2,0.9,0.6,1.2c0.7,0.4,1.5,0.8,2.3,1c0.3,0.1,0.7,0.2,1,0.4s0.7,0.3,1,0.4
						c0.3,0.1,0.6,0.3,0.9,0.5s0.5,0.4,0.8,0.6c0.2,0.2,0.5,0.5,0.6,0.8s0.3,0.6,0.4,0.9c0.1,0.4,0.2,0.8,0.1,1.2
						c0.1,1.3-0.5,2.5-1.5,3.3C510.8,840.7,509.4,841.1,507.7,841.1z"/>
				</g>
				<g>
					<path class="st13" d="M520.8,832.8h-2.4v4.5c0,0.3,0.1,0.6,0.3,0.8s0.5,0.2,0.8,0.3h1.3v2.6c-1.4,0.3-2.8,0.1-4.1-0.5
						c-0.9-0.8-1.3-1.9-1.2-3.1v-4.5h-1.7v-2.7h1.9V828l2.8-0.9v3.1h2.4L520.8,832.8L520.8,832.8z"/>
				</g>
				<g>
					<path class="st13" d="M530.3,830.1v1.1c-0.8-1.1-2.1-1.7-3.4-1.6c-1.4,0-2.8,0.6-3.8,1.7c-1,1.2-1.5,2.6-1.4,4.1
						c-0.1,1.5,0.4,3,1.4,4.1c1,1,2.3,1.6,3.8,1.6c1.3,0.1,2.5-0.5,3.4-1.4v1.2h2.9v-10.8L530.3,830.1L530.3,830.1z M529.6,837.7
						c-0.6,0.6-1.3,0.9-2.2,0.9c-0.8,0-1.6-0.3-2.2-0.9c-0.6-0.6-0.9-1.4-0.9-2.2c-0.1-0.8,0.3-1.6,0.9-2.2c0.5-0.6,1.3-0.9,2.2-0.9
						c0.8,0,1.6,0.3,2.2,0.9c0.6,0.5,1,1.3,0.9,2.2C530.5,836.3,530.2,837.1,529.6,837.7z"/>
					<path class="st13" d="M541.9,832.8h-2.4v4.5c0,0.3,0.1,0.6,0.3,0.8s0.5,0.2,0.8,0.3h1.3v2.6c-1.4,0.3-2.8,0.1-4.1-0.5
						c-0.9-0.8-1.3-1.9-1.2-3.1v-4.5h-1.9v-2.7h1.9V828l2.8-0.9v3.1h2.4v2.7L541.9,832.8z"/>
				</g>
				<g>
					<path class="st13" d="M551.1,830.1h2.8v10.7h-2.8v-1.2c-0.7,1-1.9,1.6-3.2,1.5c-1.1,0-2.2-0.4-2.9-1.2
						c-0.8-0.9-1.2-2.1-1.2-3.3v-6.7h2.8v6.3c0,0.6,0.2,1.2,0.6,1.7c0.4,0.4,1,0.6,1.5,0.5c0.6,0,1.2-0.2,1.7-0.6
						c0.5-0.6,0.7-1.3,0.6-2L551.1,830.1z"/>
				</g>
				<g>
					<path class="st13" d="M558.8,833.2c0,0.3,0.2,0.6,0.5,0.6c0.4,0.1,0.9,0.4,1.4,0.5c0.6,0.1,1.1,0.3,1.7,0.5
						c0.5,0.2,1,0.6,1.4,1c0.4,0.5,0.5,1.2,0.5,1.8c0.1,1-0.4,2-1.3,2.6c-0.9,0.6-2,1-3.1,0.9c-1.9,0.2-3.7-0.9-4.5-2.6l2.4-1.4
						c0.3,0.9,1.2,1.5,2.2,1.4c1,0,1.5-0.3,1.5-0.9c0-0.3-0.2-0.6-0.5-0.6c-0.4-0.1-0.9-0.4-1.4-0.5s-1.2-0.4-1.7-0.5
						c-0.6-0.2-1.1-0.5-1.4-1c-0.4-0.5-0.6-1.2-0.5-1.8c0-1,0.4-1.9,1.2-2.6c0.8-0.6,1.9-1,2.9-0.9c0.8,0,1.7,0.2,2.4,0.6
						c0.7,0.4,1.3,1,1.7,1.7l-2.4,1.3c-0.3-0.9-1.3-1.4-2.2-1c-0.1,0-0.2,0.1-0.3,0.2C559,832.6,558.8,832.9,558.8,833.2z"/>
				</g>
				<g>
					<path class="st13" d="M568.8,838.1c-0.3-0.4-0.8-0.6-1.3-0.6s-1,0.2-1.3,0.6c-0.4,0.3-0.5,0.8-0.5,1.2c0,0.5,0.2,0.9,0.5,1.3
						c0.4,0.3,0.8,0.5,1.3,0.4c0.5,0,0.9-0.1,1.3-0.4c0.3-0.3,0.5-0.8,0.5-1.3C569.3,838.9,569.1,838.4,568.8,838.1z M568.8,830.4
						c-0.3-0.3-0.8-0.5-1.3-0.5s-0.9,0.2-1.3,0.5c-0.3,0.3-0.5,0.8-0.5,1.3s0.2,0.9,0.5,1.3c0.4,0.3,0.8,0.5,1.3,0.4
						c0.5,0,0.9-0.1,1.3-0.4c0.3-0.3,0.5-0.8,0.5-1.3S569.1,830.7,568.8,830.4z"/>
				</g>
				<g>
					<path class="st19" d="M586.3,841.1c-2.1,0.1-4.2-0.8-5.6-2.3c-1.5-1.5-2.3-3.5-2.2-5.6c0-2.1,0.8-4.1,2.2-5.6
						c1.5-1.5,3.5-2.4,5.6-2.3c1.4-0.1,2.7,0.3,3.8,1c1.1,0.6,2,1.5,2.7,2.6l-2.5,1.5c-0.4-0.6-0.9-1.2-1.5-1.5
						c-0.7-0.4-1.5-0.6-2.3-0.5c-2.8,0-5,2.3-5,5.1c0,1.3,0.5,2.5,1.4,3.4s2.2,1.5,3.6,1.4c0.8,0,1.6-0.1,2.3-0.5
						c0.7-0.3,1.2-0.9,1.5-1.5l2.5,1.5c-0.6,1.1-1.6,2-2.7,2.6C588.9,840.9,587.6,841.1,586.3,841.1z"/>
				</g>
				<g>
					<path class="st19" d="M604,831.4c-1-1.1-2.5-1.7-4-1.6c-1.5-0.1-3,0.5-4.1,1.6s-1.7,2.6-1.7,4.1v0.2c0,1.5,0.6,2.9,1.7,3.9
						c1.1,1.1,2.6,1.7,4.1,1.7c1.5,0.1,3-0.6,4-1.7c1-1.1,1.6-2.6,1.7-4.1v-0.1C605.7,833.9,605.1,832.4,604,831.4z M603,835.6
						c0,0.8-0.4,1.6-0.9,2.1c-0.5,0.6-1.2,0.9-2,0.9s-1.5-0.3-2.1-0.9c-0.5-0.5-0.8-1.3-0.7-2v-0.2c-0.1-0.8,0.2-1.6,0.7-2.2
						c0.5-0.6,1.3-0.9,2.1-0.9c1.6,0,3,1.4,3,3L603,835.6z"/>
					<path class="st19" d="M613.7,829.7c1.1,0,2.2,0.4,2.9,1.2c0.8,0.9,1.2,2.1,1.2,3.3v6.7H615v-6.3c0-0.6-0.2-1.2-0.6-1.7
						c-0.4-0.4-1-0.6-1.5-0.5c-0.6,0-1.2,0.2-1.7,0.6c-0.4,0.6-0.7,1.3-0.6,2v5.9h-2.8v-10.7h2.8v1.2
						C611.1,830.3,612.3,829.6,613.7,829.7z"/>
					<path class="st19" d="M626.1,829.7c1.1,0,2.2,0.4,2.9,1.2c0.8,0.9,1.2,2.1,1.2,3.3v6.7h-2.8v-6.3c0-0.6-0.2-1.2-0.6-1.7
						c-0.4-0.4-1-0.6-1.5-0.5c-0.6,0-1.2,0.2-1.7,0.6c-0.4,0.6-0.7,1.3-0.6,2v5.9h-3v-10.7h2.8v1.2
						C623.5,830.3,624.7,829.6,626.1,829.7z"/>
				</g>
				<g>
					<path class="st19" d="M642.7,835.5c0-1.5-0.5-3-1.6-4.1c-0.2-0.3-0.5-0.5-0.8-0.7c0,0-0.1,0-0.1-0.1l0,0
						c-0.9-0.5-1.9-0.8-3-0.8c-1.5,0-3,0.5-4.1,1.6c-0.2,0.3-0.4,0.5-0.7,0.8v0.1c-0.6,1-0.9,2.1-0.9,3.3c0,1.5,0.6,3,1.7,4.1
						c1.1,1.1,2.7,1.7,4.3,1.7c1.9,0.1,3.6-0.8,4.7-2.3l-2.2-1.3c-0.6,0.7-1.5,1.1-2.5,1c-1.7,0-2.7-0.6-3-2h8
						C642.7,836.3,642.7,835.9,642.7,835.5z M634.5,834.5c0.1-0.7,0.4-1.3,0.9-1.7c0.6-0.3,1.2-0.5,1.9-0.4c0.6,0,1.2,0.1,1.7,0.4
						c0.5,0.4,0.9,1.1,1,1.7H634.5z"/>
					<path class="st19" d="M649.7,841.1c-1.5,0.1-3-0.6-4.1-1.7c-1.1-1.1-1.7-2.6-1.7-4.1c-0.1-1.5,0.5-3,1.7-4.1
						c1.8-1.8,4.7-2.2,6.9-0.9c0.9,0.4,1.5,1.2,1.9,2l-2.5,1.4c-0.2-0.4-0.6-0.8-1-1c-0.5-0.3-1-0.4-1.5-0.4c-0.8,0-1.5,0.2-2,0.8
						s-0.8,1.4-0.8,2.2c0,0.7,0.2,1.5,0.8,2s1.3,0.8,2,0.8c0.5,0,1.1-0.1,1.5-0.4c0.4-0.3,0.7-0.6,1-1l2.4,1.4c-0.5,0.8-1.2,1.5-2,2
						C651.6,840.8,650.7,841.2,649.7,841.1z"/>
				</g>
				<g>
					<path class="st19" d="M662.6,832.8h-2.4v4.5c0,0.3,0.1,0.6,0.3,0.8s0.5,0.2,0.8,0.3h1.3v2.6c-1.4,0.3-2.8,0.1-4.1-0.5
						c-0.9-0.8-1.3-1.9-1.2-3.1v-4.5h-1.9v-2.7h1.9V828l2.8-0.9v3.1h2.4v2.7L662.6,832.8z"/>
				</g>
				<g>
					<path class="st19" d="M674.6,835.5c0.1-1.5-0.5-3-1.6-4.1c-1-1.1-2.4-1.7-3.9-1.6c-1.5-0.1-3,0.5-4.1,1.6
						c-1,1.1-1.6,2.6-1.6,4.1c0,3.2,2.6,5.8,5.8,5.8c0.1,0,0.2,0,0.3,0c1.9,0.1,3.6-0.8,4.7-2.3l-2.3-1.3c-0.6,0.7-1.5,1.1-2.4,1
						c-1.7,0-2.8-0.6-3-2h8C674.6,836.3,674.6,835.9,674.6,835.5z M666.4,834.5c0.1-0.6,0.4-1.2,0.9-1.7c0.6-0.3,1.2-0.5,1.9-0.4
						c0.6,0,1.2,0.1,1.7,0.4c0.6,0.4,1,1,1,1.7H666.4z"/>
				</g>
				<g>
					<path class="st19" d="M684.8,825.8v5.4c-0.8-1.1-2.2-1.7-3.5-1.6c-1.4,0-2.8,0.6-3.7,1.7c-1,1.1-1.5,2.6-1.5,4.1s0.5,3,1.5,4.1
						c0.9,1.1,2.3,1.6,3.7,1.6c1.3,0.1,2.6-0.5,3.5-1.4v1.2h2.8v-15.1H684.8z M684,837.7c-0.5,0.6-1.3,0.9-2.1,0.9s-1.6-0.3-2.2-0.9
						c-0.6-0.5-1-1.3-0.9-2.2c0-0.8,0.3-1.6,0.9-2.2c0.6-0.6,1.4-0.9,2.2-0.9s1.5,0.3,2.1,0.9c0.6,0.5,1,1.3,0.9,2.2
						C685,836.3,684.6,837.1,684,837.7z"/>
				</g>
				<g>
					<path class="st19" d="M527.3,869.4L527.3,869.4c-0.3-9.1-4.9-15-12.5-15c-7.9,0-12.5,6.5-12.5,16.1s4.6,16.1,12.5,16.1
						c2.1,0,4.2-0.5,6-1.6c4.3-2.5,6.6-7.7,6.6-14.5C527.4,870.2,527.4,869.8,527.3,869.4z M514.8,879.8c-3.7,0-5.4-3.3-5.4-9.3
						s1.7-9.3,5.4-9.3c3.7,0,5.6,3.3,5.6,9.3S518.6,879.8,514.8,879.8L514.8,879.8z"/>
					<path class="st19" d="M546.7,855c-1.3-0.4-2.6-0.6-4-0.6c-7.9,0-12.5,6.5-12.5,16.1c0,5.6,1.7,10.3,4.6,13.1c2.1,2,5,3.1,7.9,3
						c8,0,12.6-6.6,12.6-16.1C555.2,862.7,552.1,856.9,546.7,855z M542.8,879.8c-2.5,0-4-1.4-4.8-4c-0.5-1.7-0.8-3.5-0.7-5.3
						c0-6,1.8-9.3,5.6-9.3c0.4,0,0.8,0.1,1.2,0.1c2.8,0.6,4.3,3.8,4.3,9.1C548.2,876.6,546.4,879.8,542.8,879.8L542.8,879.8z"/>
					<path class="st19" d="M562.8,878.2c-2.3,0-4.2,1.9-4.2,4.3c0,2.3,1.9,4.2,4.3,4.2c2.3,0,4.2-1.9,4.2-4.2
						C567.1,880.1,565.2,878.2,562.8,878.2z M562.8,863.2c-2.3,0-4.2,1.9-4.2,4.3c0,2.3,1.9,4.2,4.3,4.2c2.3,0,4.2-1.9,4.2-4.2
						C567,865.2,565.2,863.3,562.8,863.2L562.8,863.2z"/>
					<path class="st19" d="M582.8,854.4c-7.9,0-12.5,6.5-12.5,16.1s4.6,16.1,12.5,16.1s12.6-6.6,12.6-16.1S590.9,854.4,582.8,854.4z
						 M582.9,879.8c-3.7,0-5.5-3.3-5.5-9.3s1.8-9.3,5.5-9.3s5.5,3.3,5.5,9.3S586.6,879.8,582.9,879.8L582.9,879.8z"/>
					<path class="st19" d="M610.7,854.4c-8,0-12.5,6.5-12.5,16.1s4.5,16.1,12.5,16.1s12.5-6.6,12.5-16.1S618.7,854.4,610.7,854.4z
						 M610.8,879.8c-3.7,0-5.5-3.3-5.5-9.3s1.8-9.3,5.5-9.3s5.6,3.3,5.6,9.3S614.4,879.8,610.8,879.8z"/>
					<path class="st19" d="M630.9,878.2c-2.3,0-4.2,1.9-4.3,4.2s1.9,4.2,4.2,4.3c2.3,0,4.2-1.9,4.3-4.2l0,0
						C635.1,880.2,633.3,878.3,630.9,878.2L630.9,878.2z M630.9,863.2c-2.3,0-4.2,1.9-4.3,4.2s1.9,4.2,4.2,4.3
						c2.3,0,4.2-1.9,4.3-4.2l0,0C635.1,865.2,633.2,863.3,630.9,863.2L630.9,863.2z"/>
					<path class="st19" d="M650.9,854.4c-8,0-12.5,6.5-12.5,16.1s4.5,16.1,12.5,16.1s12.5-6.6,12.5-16.1S659,854.4,650.9,854.4z
						 M651,879.8c-3.7,0-5.5-3.3-5.5-9.3s1.8-9.3,5.5-9.3s5.5,3.3,5.5,9.3S654.8,879.8,651,879.8L651,879.8z"/>
					<path class="st19" d="M684.6,869.9c1.9-1.5,3.1-3.8,3-6.2c0-6.1-4.6-9.3-10.2-9.3s-10.3,3.2-10.3,9.3c-0.1,2.4,1.1,4.7,3,6.2
						c-2.5,1.6-4.1,4.4-4,7.4c0,5.6,4.2,9.3,11.4,9.3s11.4-3.7,11.4-9.3C689,874.3,687.3,871.4,684.6,869.9z M677.5,861.2
						c1.6-0.2,3.1,1,3.2,2.6c0.2,1.6-1,3.1-2.6,3.2c-0.2,0-0.4,0-0.6,0c-1.7,0.1-3.1-1.2-3.2-2.8c0-0.1,0-0.1,0-0.2
						c0-1.6,1.3-2.9,2.9-2.9C677.3,861.2,677.4,861.2,677.5,861.2L677.5,861.2z M677.6,880c-2.4,0-4.2-1.5-4.2-3.8s1.8-3.6,4.2-3.6
						s4.3,1.4,4.3,3.6C681.9,878.7,680.1,880,677.6,880z"/>
				</g>
				<path class="st20" d="M781.2,964.2L781.2,964.2c-2.1-17.7-16.9-31-34.7-31.2H443.1c-19.7,0.5-35.3,16.8-34.8,36.5
					c0.5,19,15.8,34.3,34.8,34.8h303.5c7.7-0.1,15.1-2.8,21.2-7.5c8.9-6.9,14-17.6,13.8-28.8C781.5,966.7,781.4,965.5,781.2,964.2z
					 M770.8,992.8c-0.8,0.7-1.5,1.4-2.4,2.1c-6.1,5.2-13.9,8-21.9,8H443.1c-18.9,0-34.3-15.3-34.3-34.2v-0.1
					c0.1-18.9,15.4-34.2,34.3-34.2h303.5c17.8-0.1,32.6,13.5,34.1,31.2c0.1,1,0.2,2,0.2,3C780.9,977.7,777.3,986.4,770.8,992.8
					L770.8,992.8z"/>
				<circle class="st21" cx="443.9" cy="968.5" r="28.9"/>
				<path class="st20" d="M443.9,938.9c-16.4,0-29.7,13.3-29.7,29.7s13.3,29.7,29.7,29.7c16.4,0,29.7-13.3,29.7-29.7c0,0,0,0,0-0.1
					C473.6,952.1,460.3,938.9,443.9,938.9z M463.8,988.4c-0.6,0.6-1.3,1.2-2,1.8c-0.1,0.1-0.2,0.2-0.3,0.3h-0.1
					c-0.3,0.3-0.6,0.5-0.9,0.7c-0.2,0.2-0.4,0.3-0.6,0.4c-0.1,0.1-0.3,0.2-0.4,0.3c-0.4,0.3-0.9,0.6-1.4,0.9c-0.6,0.4-1.2,0.8-1.9,1
					c-0.4,0.3-0.9,0.5-1.4,0.7c-0.2,0.1-0.5,0.2-0.7,0.3c-0.5,0.2-1,0.4-1.6,0.6c-0.1,0.1-0.1,0.1-0.2,0.1c-0.6,0.2-1.2,0.4-1.8,0.5
					c-0.2,0.1-0.5,0.1-0.7,0.1c-0.5,0.1-1.1,0.2-1.6,0.3c-0.3,0.1-0.6,0.1-0.9,0.1c-0.2,0.1-0.3,0.1-0.5,0.1
					c-0.9,0.1-1.9,0.1-2.8,0.1s-1.9-0.1-2.8-0.1c-0.6-0.1-1.3-0.2-1.9-0.3c-0.5-0.1-0.9-0.2-1.4-0.3c-0.1,0-0.3,0-0.4-0.1
					c-0.5-0.1-1-0.2-1.5-0.4s-0.9-0.3-1.4-0.4c-0.4-0.1-0.8-0.3-1.2-0.4c-0.6-0.2-1.2-0.5-1.7-0.8c-0.4-0.2-0.9-0.4-1.3-0.6
					c-0.1,0-0.1-0.1-0.1-0.1c-0.6-0.4-1.3-0.8-2-1.2c-0.1-0.1-0.1-0.1-0.2-0.2c-0.5-0.3-1-0.7-1.5-1.1c-0.1-0.1-0.2-0.2-0.3-0.2
					c-0.8-0.6-1.6-1.3-2.4-2.1h-0.1c-0.7-0.6-1.2-1.3-1.7-2c-0.7-0.6-1.2-1.3-1.6-2.1c-0.3-0.4-0.5-0.7-0.7-1.2h-0.1
					c-0.1-0.2-0.2-0.3-0.3-0.5c-0.2-0.2-0.3-0.5-0.4-0.7s-0.1-0.4-0.2-0.5c-0.4-0.6-0.7-1.2-0.9-1.9l-0.1-0.1
					c-0.2-0.4-0.4-0.9-0.5-1.4c-0.1-0.2-0.2-0.5-0.3-0.7c-0.1-0.1-0.1-0.2-0.1-0.4c-0.1-0.1-0.1-0.2-0.1-0.4
					c-0.1-0.2-0.1-0.5-0.2-0.7c-0.4-1.4-0.6-2.7-0.8-4.1v-0.3c-0.1-0.2-0.1-0.4-0.1-0.7c-0.1-0.8-0.1-1.5-0.1-2.3s0.1-1.5,0.1-2.2
					c0-0.2,0-0.4,0.1-0.7v-0.3c0-0.2,0.1-0.4,0.1-0.6s0.1-0.6,0.1-0.9c0-0.3,0.1-0.6,0.2-0.9c0-0.3,0.1-0.5,0.1-0.8s0.1-0.6,0.2-0.9
					c0.1-0.4,0.2-0.8,0.4-1.2c0-0.2,0.1-0.4,0.1-0.6c0-0.2,0.1-0.4,0.1-0.5h0.1c0-0.4,0.2-0.7,0.4-1c0-0.2,0.1-0.3,0.2-0.4
					c0-0.2,0.1-0.4,0.1-0.5s0.1-0.3,0.1-0.4c0.2-0.4,0.4-0.8,0.6-1.2c0.1-0.2,0.2-0.3,0.3-0.4c0.2-0.4,0.4-0.8,0.6-1.2l0.1-0.1v-0.1
					c0.1-0.3,0.3-0.5,0.4-0.8c0.1-0.1,0.2-0.2,0.2-0.3c0.3-0.5,0.7-1,1.1-1.5c0-0.1,0.1-0.1,0.1-0.1s0-0.1,0.1-0.1
					c0,0,0.1-0.1,0.1-0.2c0-0.1,0-0.1,0.1-0.1l0.1-0.1l0.2-0.3c0-0.1,0.1-0.2,0.3-0.3l0.1-0.1c0.1,0,0.1-0.1,0.1-0.1s0.1,0,0.1-0.1
					l0,0h0.1c0.1-0.1,0.1-0.2,0.1-0.2c0.2-0.3,0.5-0.7,0.8-1l0.2-0.2c0.3-0.2,0.5-0.4,0.8-0.7l0.4-0.4c0.1,0,0.2-0.1,0.3-0.2
					l0.1-0.1v0.4c0.7-0.7,1.5-1.2,2.4-1.7c0.3-0.2,0.5-0.4,0.7-0.5c0.4-0.3,0.8-0.5,1.2-0.7c0.1-0.1,0.1-0.2,0.2-0.2
					c0.7-0.4,1.4-0.8,2.2-1.1c0.2-0.1,0.3-0.2,0.5-0.2s0.4-0.2,0.6-0.3c0.6-0.3,1.2-0.5,1.9-0.7c0.8-0.3,1.5-0.5,2.3-0.7
					c0.1,0,0.2-0.1,0.4-0.1h0.1c0.7-0.1,1.5-0.3,2.2-0.4c0.3-0.1,0.6-0.1,0.9-0.1c0.7-0.1,1.4-0.1,2.2-0.2h0.4
					c1.9,0,3.8,0.2,5.7,0.6c0.9,0.2,1.8,0.4,2.7,0.7c0.9,0.2,1.7,0.5,2.5,0.9c0.8,0.3,1.7,0.7,2.5,1.2c0.8,0.4,1.6,0.9,2.4,1.5
					c0.1,0,0.1,0.1,0.2,0.1c0.5,0.3,1,0.6,1.4,1c0,0,0.1,0.1,0.1,0.2c0.1,0.1,0.1,0.1,0.2,0.1c0.2,0.1,0.4,0.2,0.5,0.4
					c0.4,0.4,0.8,0.7,1.2,1.1c0.1,0,0.1,0,0.1,0.1c0.4,0.4,0.8,0.8,1.2,1.2c0.2,0.2,0.4,0.5,0.6,0.7c0.4,0.4,0.8,0.9,1.1,1.4
					c0.6,0.7,1.1,1.5,1.6,2.3c0.2,0.2,0.4,0.5,0.6,0.9l0.4,0.9c0.5,0.8,0.9,1.7,1.2,2.6c0.1,0.2,0.1,0.3,0.1,0.5
					c0.2,0.4,0.4,0.8,0.4,1.2c0.2,0.4,0.3,0.8,0.4,1.2c0.1,0.1,0.1,0.1,0.1,0.2c0.1,0.4,0.2,0.8,0.3,1.2c0.1,0.6,0.2,1.2,0.3,1.9
					c0.1,0.2,0.1,0.3,0.1,0.5c0.1,0.3,0.1,0.5,0.1,0.8c0.1,0.1,0.1,0.1,0.1,0.1c0.1,0.9,0.1,1.8,0.1,2.7v0.2c0,0.7,0,1.4-0.1,2.1
					c0,0.2,0,0.4-0.1,0.7v0.3c-0.2,1.4-0.4,2.8-0.8,4.1c0,0.1-0.1,0.1-0.1,0.2c0,0.2-0.1,0.3-0.1,0.4c0,0.1-0.1,0.3-0.1,0.4
					c-0.1,0.4-0.3,0.9-0.5,1.3c-0.1,0.4-0.3,0.9-0.4,1.3c-0.4,0.8-0.8,1.6-1.2,2.4c-0.5,0.8-1,1.6-1.5,2.4c-0.4,0.8-1,1.5-1.6,2.1
					C465,987.2,464.5,987.8,463.8,988.4L463.8,988.4z"/>
				<circle class="st22" cx="443.9" cy="968.5" r="28.1"/>
				<path class="st23" d="M442.6,968.5H472c0-2.5-0.3-4.9-1-7.3h-28.4V968.5z"/>
				<path class="st23" d="M442.6,953.8h25.2c-1.7-2.8-3.9-5.3-6.5-7.3h-18.7V953.8z"/>
				<path class="st23" d="M443.9,996.7c6.4,0,12.5-2.2,17.5-6.1h-35.1C431.3,994.5,437.5,996.7,443.9,996.7z"/>
				<path class="st23" d="M419.8,983.1h48c1.4-2.3,2.5-4.7,3.2-7.3h-54.4C417.4,978.4,418.4,980.9,419.8,983.1z"/>
				<path class="st24" d="M441.4,940.5c-0.3,0-0.6,0-0.9,0.1c-0.7,0.1-1.4,0.2-2.2,0.4h-0.1c-0.1,0-0.2,0.1-0.4,0.1
					c-0.8,0.2-1.6,0.4-2.3,0.7c-0.6,0.1-1.3,0.4-1.9,0.7c-0.2,0.1-0.4,0.2-0.6,0.3s-0.3,0.1-0.5,0.2c-0.7,0.3-1.5,0.7-2.2,1.1
					c-0.1,0-0.1,0.1-0.2,0.2c-0.4,0.2-0.8,0.4-1.2,0.7h2.5l-2.5,1.8l0.9,2.8l-2.5-1.7l-2.3,1.7l0.7-2.2v-0.1l0.1-0.1l0,0
					c-0.1,0.1-0.2,0.2-0.4,0.3l-0.4,0.4c-0.3,0.2-0.5,0.4-0.8,0.7l-0.2,0.2c-0.3,0.3-0.5,0.7-0.8,1c0,0.1-0.1,0.2-0.1,0.2H423
					c0,0,0,0.1-0.1,0.1l0,0c0,0.1,0,0.1-0.1,0.1l-0.1,0.1c-0.1,0.1-0.1,0.2-0.3,0.3l-0.2,0.3l-0.1,0.1l-0.1,0.1c0,0.1,0,0.1-0.1,0.2
					c-0.1,0-0.1,0-0.1,0.1s-0.1,0.1-0.1,0.1c-0.5,0.6-1,1.2-1.5,1.8h0.8l-1,0.8l-0.1,0.1l-0.1,0.1l-0.4,0.3
					c-0.3,0.4-0.5,0.8-0.6,1.2l0.1,0.1v0.1l0.7,2l-1.2-0.9h-0.1l-0.1-0.2c-0.4,0.7-0.7,1.4-0.9,2.2l0.1,0.3h0.1v0.1l0.6,2.1h2.9
					l-2.4,1.8l0.9,2.7L417,964l-0.9,0.8H416l-0.4,0.3c-0.1,1.1-0.2,2.3-0.2,3.4h28.1v-28.1C442.8,940.4,442.1,940.4,441.4,940.5z
					 M429.8,965.7l-2.5-1.8l-2.3,1.8l0.9-2.8l-2.5-1.8h3l0.9-2.8l0.9,2.8h2.9l-2.5,1.8L429.8,965.7z M428.9,954.7l0.9,2.8l-2.5-1.8
					l-2.3,1.8l0.9-2.8l-2.5-1.8h3l0.9-2.8l0.9,2.8h2.9L428.9,954.7z M439.9,965.7l-2.5-1.8l-2.4,1.8l0.9-2.8l-2.5-1.8h3l0.9-2.8
					l0.9,2.8h3l-2.5,1.8L439.9,965.7z M439.1,954.7l0.9,2.8l-2.5-1.8l-2.4,1.8l0.9-2.8l-2.5-1.8h3l0.9-2.8l0.9,2.8h3L439.1,954.7z
					 M439.1,946.5l0.9,2.8l-2.5-1.7l-2.4,1.7l0.9-2.8l-2.5-1.8h3l0.9-2.8l0.9,2.8h3L439.1,946.5z"/>
				<g>
					<path class="st25" d="M494.8,960.6l-4.1-12.2h2.6l2.9,9.3l2.9-9.3h2.6l-4.1,12.2H494.8z"/>
					<path class="st25" d="M510.5,949.6c-0.7-0.8-1.7-1.2-2.7-1.2H503v12.1h2.4v-4h2.2c1.1,0.1,2.1-0.4,2.9-1.2s1.2-1.9,1.2-3
						C511.7,951.4,511.3,950.4,510.5,949.6z M508.9,954c-0.4,0.3-0.8,0.5-1.3,0.5v0.1h-2.2V951h2.2c0.5,0,1,0.1,1.3,0.5
						c0.4,0.3,0.5,0.8,0.5,1.3C509.4,953.2,509.2,953.7,508.9,954z"/>
					<path class="st25" d="M520.4,948.5h2.4v12.2H521l-5.3-7.4v7.4h-2.4v-12.2h1.8l5.3,7.4L520.4,948.5z"/>
				</g>
				<g>
					<path class="st25" d="M531.4,958.3h4.6v2.3h-7v-12.2h2.4V958.3z"/>
				</g>
				<g>
					<path class="st25" d="M546.9,950.1c-1.2-1.2-2.8-1.8-4.5-1.8c-1.7-0.1-3.3,0.6-4.5,1.8s-1.9,2.8-1.8,4.5
						c-0.1,1.7,0.6,3.3,1.8,4.5c1.2,1.1,2.8,1.7,4.5,1.7c1.7,0.1,3.3-0.5,4.5-1.7c1.1-1.2,1.8-2.8,1.8-4.5
						C548.7,952.9,548.1,951.3,546.9,950.1z M545.2,957.4c-1.6,1.5-4.1,1.5-5.6,0c-0.8-0.7-1.2-1.8-1.2-2.8
						c-0.1-1.1,0.4-2.1,1.2-2.8c1.6-1.5,4.1-1.5,5.6,0c0.8,0.7,1.2,1.8,1.2,2.8C546.4,955.7,546,956.7,545.2,957.4z"/>
				</g>
				<g>
					<path class="st25" d="M556.2,960.9c-3.5,0-6.3-2.8-6.3-6.3s2.8-6.3,6.3-6.3l0,0c1.1,0,2.1,0.2,3.1,0.8c0.9,0.5,1.6,1.2,2.2,2
						l-2,1.2c-0.3-0.5-0.7-1-1.3-1.3s-1.2-0.5-1.9-0.5c-1.1-0.1-2.1,0.4-2.8,1.2s-1,1.9-1,2.9s0.3,2,1,2.8s1.8,1.2,2.8,1.2
						c0.7,0,1.3-0.2,1.9-0.5c0.5-0.3,1-0.7,1.3-1.3l2,1.2c-0.5,0.8-1.3,1.5-2.2,2C558.4,960.5,557.3,960.9,556.2,960.9z"/>
				</g>
				<g>
					<path class="st25" d="M569.3,948.5h-3l-4.2,12.1h2.5l0.8-2.2h5l0.7,2.2h2.5L569.3,948.5z M566.2,956.3l1.7-5.1l1.8,5.1H566.2z"
						/>
				</g>
				<g>
					<path class="st25" d="M581.4,948.5v2.3h-3.3v9.8h-2.4v-9.8h-3.1v-2.3H581.4z"/>
					<path class="st25" d="M582.8,948.5h2.4v12.2h-2.4V948.5z"/>
					<path class="st25" d="M597.6,950.1c-1.2-1.2-2.8-1.8-4.5-1.8c-1.7-0.1-3.3,0.6-4.4,1.8c-1.2,1.2-1.9,2.8-1.8,4.5
						c-0.1,1.7,0.6,3.3,1.8,4.5c1.2,1.1,2.8,1.7,4.4,1.7c1.7,0.1,3.3-0.5,4.5-1.7c1.3-1.1,1.9-2.8,1.8-4.5
						C599.5,952.9,598.8,951.3,597.6,950.1z M596,957.4c-0.8,0.8-1.8,1.2-2.9,1.2c-1,0-2-0.4-2.8-1.2c-0.7-0.8-1.1-1.8-1.2-2.8
						c0-2.2,1.7-4,3.9-4l0,0c1.1,0,2.1,0.4,2.9,1.2c0.8,0.7,1.2,1.8,1.2,2.8C597.1,955.7,596.7,956.7,596,957.4L596,957.4z"/>
					<path class="st25" d="M608.3,948.5h2.4v12.2h-1.8l-5.2-7.4v7.4h-2.4v-12.2h1.8l5.2,7.4V948.5z"/>
				</g>
				<g>
					<path class="st26" d="M510.9,986.7h-4.2V976l-4.7,7.8h-0.5l-4.8-7.8v10.8h-4.2v-18.6h4.2l5,8.2l5-8.2h4.2V986.7z"/>
					<path class="st26" d="M514,973.5v13.2h4v-13.2H514z M516,967.5c-1.3,0-2.4,1.1-2.4,2.4c0,1.3,1.1,2.4,2.4,2.4s2.4-1.1,2.4-2.4
						S517.3,967.5,516,967.5z"/>
					<path class="st26" d="M530.5,973.4v1.3c-1-1.2-2.5-1.8-4-1.7c-3.4,0-6.3,3.1-6.3,7.1s2.9,7,6.3,7c1.5,0.1,3-0.5,4-1.6v1.2h4
						v-13.3H530.5z M527.3,983.2c-1.7,0.1-3.1-1.2-3.2-2.8c0-0.1,0-0.2,0-0.4c-0.1-1.7,1.3-3.1,3-3.2c0.1,0,0.1,0,0.2,0
						c1.7-0.1,3.1,1.2,3.2,2.8c0,0.1,0,0.2,0,0.4C530.5,982.2,529.2,983.4,527.3,983.2z"/>
					<path class="st26" d="M557.2,978.7v8.1h-4V979c0-1.3-0.6-2.2-1.9-2.2s-2,0.9-2,2.4v7.4h-4v-7.8c0-1.3-0.6-2.2-1.9-2.2
						s-2,0.9-2,2.4v7.4h-4v-13.2h4v1.3c0.9-1.1,2.2-1.7,3.6-1.6c1.4-0.1,2.7,0.6,3.5,1.8c0.9-1.2,2.3-1.9,3.8-1.8
						C555.2,973.2,557.2,975.3,557.2,978.7z"/>
					<path class="st26" d="M559.9,973.5v13.2h4v-13.2H559.9z M562,967.5c-1.3,0-2.4,1.1-2.4,2.4c0,1.3,1.1,2.4,2.4,2.4
						c1.3,0,2.4-1,2.4-2.2V970c0.1-1.3-0.9-2.4-2.2-2.4C562.1,967.6,562.1,967.6,562,967.5L562,967.5z"/>
					<path class="st26" d="M569.8,990.4h-3.2l1-7.8h4.2L569.8,990.4z"/>
					<path class="st26" d="M581,980.7v-12.5h4.2v12.2c0,1.4,0.6,2.6,2.9,2.6s2.9-1.2,2.9-2.6v-12.2h4.2v12.5c0,4-3.1,6.4-7.2,6.4
						S581,984.7,581,980.7z"/>
					<path class="st26" d="M611,978.7v8.1h-4v-7.5c0.1-1.2-0.7-2.3-1.9-2.4c-0.1,0-0.3,0-0.4,0c-1.4,0-2.4,0.9-2.4,2.7v7.2h-4v-13.2
						h4v1.3c0.9-1.1,2.4-1.8,3.8-1.7C608.7,973.2,611,975.1,611,978.7z"/>
					<path class="st26" d="M613.6,973.5v13.2h4v-13.2H613.6z M615.7,967.5c-1.3,0-2.4,1.1-2.5,2.4c0,0,0,0,0,0.1
						c0.1,1.3,1.1,2.4,2.5,2.4c1.3,0,2.4-1,2.4-2.2v-0.1C618.2,968.7,617.1,967.6,615.7,967.5C615.8,967.6,615.8,967.6,615.7,967.5
						L615.7,967.5z"/>
				</g>
				<g>
					<path class="st26" d="M624.1,977.2v4.8c0,1.2,1,1.3,2.7,1.2v3.6c-5.2,0.5-6.7-1-6.7-4.7v-4.7H618v-3.8h2.2V971l4-1.2v3.7h2.7
						v3.8L624.1,977.2z"/>
				</g>
				<g>
					<path class="st26" d="M642,979.9c0.1-3.8-2.8-7.1-6.7-7.2c-3.8-0.1-7.1,2.8-7.2,6.7c0,0.2,0,0.4,0,0.5c-0.1,3.8,2.9,7,6.7,7.1
						c0.2,0,0.4,0,0.6,0c2.2,0.1,4.4-0.9,5.7-2.7l-3.2-1.8c-0.7,0.7-1.6,1-2.5,1c-1.5,0-2.7-0.4-3-2h9.3
						C641.9,981,642,980.5,642,979.9z M632.1,978.8c0.4-1.3,1.6-2.2,3-2c1.3-0.1,2.5,0.7,2.7,2H632.1z"/>
				</g>
				<g>
					<path class="st26" d="M653.5,968.2v6.5c-1-1.2-2.4-1.8-3.9-1.7c-3.5,0-6.3,3.1-6.3,7.1s2.7,7,6.3,7c1.5,0.1,2.9-0.5,3.9-1.6
						v1.2h4v-18.5H653.5z M650.4,983.2c-1.8,0-3.2-1.4-3.2-3.2s1.4-3.2,3.2-3.2l0,0c1.6-0.1,3,1,3.2,2.7c0,0.2,0,0.3,0,0.5
						c0.2,1.6-0.9,3-2.5,3.2C650.8,983.3,650.6,983.3,650.4,983.2L650.4,983.2z"/>
				</g>
				<g>
					<path class="st26" d="M666.3,982.5l3.7-2.2c0.6,1.6,2.1,2.7,3.8,2.6c2,0,2.6-0.8,2.6-1.5c0-1.2-1-1.5-3.8-2.3s-5.5-2-5.5-5.6
						s3.1-5.6,6.3-5.6c2.9-0.1,5.6,1.6,6.8,4.2l-3.6,2c-0.5-1.3-1.8-2.2-3.2-2.2c-1.3,0-1.9,0.6-1.9,1.4s0.5,1.4,3.3,2.3
						s6,1.8,6,5.8c0,3.6-2.8,5.6-6.9,5.6S667.4,985.3,666.3,982.5z"/>
				</g>
				<g>
					<path class="st26" d="M687.2,977.2v4.8c0,1.2,1,1.3,2.7,1.2v3.6c-5.2,0.5-6.7-1-6.7-4.7v-4.7H681v-3.8h2.2V971l4-1.2v3.7h2.7
						v3.8L687.2,977.2z"/>
				</g>
				<g>
					<path class="st26" d="M701.2,973.4v1.3c-0.9-1.2-2.4-1.8-3.9-1.7c-3.5,0-6.3,3.1-6.3,7.1s2.8,7,6.3,7c1.5,0.1,2.9-0.5,3.9-1.6
						v1.2h4v-13.3H701.2z M698.1,983.2c-1.7,0.1-3.1-1.2-3.2-2.8c0-0.1,0-0.2,0-0.4c-0.1-1.7,1.3-3.1,3-3.2c0.1,0,0.1,0,0.2,0
						c1.6-0.1,3,1,3.2,2.7c0,0.2,0,0.3,0,0.5C701.2,982.2,700,983.4,698.1,983.2z"/>
				</g>
				<g>
					<path class="st26" d="M713.3,977.2v4.8c0,1.2,1,1.3,2.7,1.2v3.6c-5.3,0.5-6.7-1-6.7-4.7v-4.7h-2.2v-3.8h2.2V971l4-1.2v3.7h2.7
						v3.8L713.3,977.2z"/>
				</g>
				<g>
					<path class="st26" d="M731.1,979.9c0-3.8-3.1-6.9-6.9-6.9c-3.8,0-6.9,3.1-6.9,6.9l0,0c0.2,4.1,3.6,7.3,7.7,7.1
						c2.1-0.1,4.1-1.1,5.4-2.7l-3.3-1.8c-0.7,0.7-1.6,1-2.5,1c-1.4,0-2.7-0.4-3-2h9.3C731,981,731.1,980.5,731.1,979.9z
						 M721.3,978.8c0.4-1.3,1.6-2.1,2.9-2c1.3-0.1,2.5,0.7,2.9,2H721.3z"/>
				</g>
				<g>
					<path class="st26" d="M743,982.7c0,3.1-2.7,4.3-5.5,4.3s-4.6-1-5.6-3.2l3.5-1.9c0.3,1,1.3,1.6,2.3,1.5c0.9,0,1.4-0.3,1.4-0.8
						c0-1.4-6.5-0.6-6.5-5.2c0-2.9,2.4-4.3,5.3-4.3c2.1-0.1,4.1,1,5.1,2.8l-3.3,1.8c-0.3-0.7-1-1.2-1.8-1.2c-0.6,0-1.2,0.3-1.2,0.8
						C736.5,978.9,743,977.9,743,982.7z"/>
				</g>
			</g>
		</g>
		<g id="shield">
			<path class="st3" d="M1081.4,626.2l-42.9,191.5c-2,8.8-10.7,14.2-19.5,12.3l-8.1-1.8l-106.4-23.8l-20-4.5l-44.7-10l-12.4-2.8
				c-8.7-2-14.3-10.6-12.3-19.4l41.3-184.6l1.6-6.9c2-8.8,10.7-14.3,19.4-12.3l7,1.6l20,4.5l164.5,36.9
				C1077.8,608.7,1083.3,617.4,1081.4,626.2z"/>
			<path class="st8" d="M1117.5,604.5L1074.6,796c-2,8.7-10.7,14.2-19.4,12.3l-8.1-1.8l-106.4-23.8l-20-4.5l-44.7-10l-12.4-2.8
				c-8.8-1.9-14.3-10.6-12.3-19.4l0,0l41.3-184.6l1.6-6.9c2-8.8,10.7-14.3,19.4-12.3l7,1.6l20,4.5l164.5,36.9
				C1113.9,587,1119.5,595.7,1117.5,604.5z"/>
			<path class="st6" d="M968.8,745c-66.8-37.6-34.2-138.1-34.2-138.1l65.4-1.3l58.6,29.1C1058.6,634.6,1045.2,739.5,968.8,745z"/>
			<path class="st19" d="M971.5,733c-55.3-31.2-28.3-114.5-28.3-114.5l54.2-1.1l48.5,24.1C1045.9,641.6,1034.8,728.5,971.5,733z"/>
			<path class="st6" d="M976.6,720.4c49.1-3.8,57.9-72.1,57.9-72.1L997,629.4L976.6,720.4z"/>
		</g>
		<g id="rocket">
			<path class="st3" d="M396,1172.3l-4.5,10l-46.8,105.9l-28.2,63.6c-3.6,8.2-13.2,11.9-21.4,8.3l0,0l-11.6-5.2l-14.5-6.3l-5.6-2.4
				l-14.4-6.4l-28.1-12.4l-97.5-43.2l-7.8-3.4c-8.2-3.6-11.9-13.2-8.3-21.4l4.5-10.1l23-51.9L179,1097l7.7-17.3
				c3.6-8.2,13.2-11.9,21.5-8.3l12.7,5.6l14.5,6.4l13.7,6.1l14.4,6.4l5.6,2.4l14.5,6.4l93.6,41.5l10.6,4.7
				C395.8,1154.5,399.6,1164,396,1172.3L396,1172.3z"/>
			<path class="st8" d="M381.5,1128.9l-4.4,10.1l-75,169.5c-3.6,8.2-13.2,11.9-21.4,8.3l0,0l-11.7-5.2l-20-8.8l-140-62l-7.8-3.4
				c-8.2-3.6-11.9-13.2-8.3-21.4l79.4-179.5c3.6-8.2,13.2-11.9,21.4-8.3l0,0l55.2,24.4l20.1,8.9l104.2,46.1
				C381.4,1111.2,385.1,1120.7,381.5,1128.9z"/>
			<path class="st27" d="M302.5,1167.8c-1.9-12.8-6.6-25.1-13.8-35.8c-1.3-2.1-3.6-3.2-6-3c-4.6,0.1-9.2,0.4-13.7,1
				c-6.8,1-13.5,2.4-20,4.4c-7.1,2.1-14.1,4.7-20.9,7.7c-1.2,0.5-2.5,1-3.8,1.6l-3.5,1.5c-5.3,2.3-10.5,4.7-15.5,6.9
				c0.1,0.4,0.3,0.7,0.5,1.1c5.1,13.2,10.1,26,15,39c2,5.2,4,10.3,6,15.6h0.1c0.1,0.3,0.2,0.6,0.3,0.9c6.7-2.2,13.6-4.4,20.5-6.7
				c0.4-0.2,0.9-0.3,1.3-0.5c0.4-0.1,0.8-0.2,1.2-0.4c6.4-2.2,12.7-4.7,18.8-7.5c11.3-5.1,21.9-11.8,31.2-20
				C302,1172.3,302.9,1170,302.5,1167.8z M283.9,1161.7c-2.2,4.9-8,7.2-12.9,5c-0.7-0.3-1.3-0.8-2-1.2c-3.5-2.9-4.7-7.7-2.8-11.8
				c0.6-1.4,1.6-2.6,2.8-3.5c2.8-2.2,6.6-2.7,9.8-1.3c4.9,2.1,7.2,7.7,5.1,12.6C283.9,1161.5,283.9,1161.6,283.9,1161.7
				L283.9,1161.7z"/>
			<path class="st27" d="M203.4,1203.3c-4-10.6-8-20.9-11.8-31.3c-0.3-1,0-2,0.8-2.7c2.9-2.2,6.1-4.1,9.1-6.1
				c5.2,13.4,10.2,26.5,15.4,39.9l-10.9,1.6C204.9,1205,203.8,1204.3,203.4,1203.3z"/>
			<path class="st27" d="M179.8,1139.5c8.2-2.8,16.4-5.6,24.6-8.2c0.9-0.2,1.8-0.1,2.6,0.4c6.1,4.2,12.2,8.4,18.9,13.2l-20.2,8.4
				c-2.6-6.6-7.6-7.3-12.6-8.8c-4.4-1.3-8.8-2.6-13.2-4L179.8,1139.5z"/>
			<path class="st27" d="M216.4,1234.3c2.7-4.4,5.3-8.8,8.1-13.1c2.7-4,4.4-8.4,2.4-13.3l21.1-7.3c-2,8.1-3.8,15.4-5.6,22.8
				c-0.3,0.8-0.8,1.4-1.6,1.7c-7.9,3.5-15.9,6.9-23.8,10.3L216.4,1234.3z"/>
			<path class="st27" d="M322.7,1139.3c-2.2,9.9-7.5,17.7-13.1,24.7c-4.4-11.3-8.8-22.7-13.2-34.1
				C305.2,1131.1,314.4,1133.4,322.7,1139.3z"/>
			<path class="st27" d="M167.9,1180.7c8.2-3.1,16.3-0.8,20,5.2c-2.9,0.7-6.2,0.9-8.7,2.4s-4.4,4.5-6.6,6.9c9.3,3.6,10.4,3.5,17.8-1
				c0.8,7-4.4,13.7-13.2,16.3l2.1-8.1c-8.2,2.7-17,2.3-24.9-1.2c4.6-7.3,11.6-12.7,19.9-15.2L167.9,1180.7z"/>
		</g>
	</g>
</g>
</svg>
