<?xml version="1.0" encoding="utf-8"?>
<!-- Generator: Adobe Illustrator 23.0.1, SVG Export Plug-In . SVG Version: 6.00 Build 0)  -->
<svg version="1.1" id="Layer_1" xmlns="http://www.w3.org/2000/svg" xmlns:xlink="http://www.w3.org/1999/xlink" x="0px" y="0px"
	 viewBox="0 0 2619.1 1913.3" style="enable-background:new 0 0 2619.1 1913.3;" xml:space="preserve">
<style type="text/css">
	.st0{opacity:0.6;}
	.st1{opacity:0.68;fill:#C5E3E8;enable-background:new    ;}
	.st2{opacity:0.77;fill:#D2EDF3;enable-background:new    ;}
	.st3{fill:#E2EDF0;}
	.st4{fill:#D4DDF0;}
	.st5{fill:#BAC7DD;}
	.st6{opacity:0.5;fill:url(#SVGID_1_);enable-background:new    ;}
	.st7{fill:url(#SVGID_2_);}
	.st8{fill:#A1B4CF;}
	.st9{fill:url(#SVGID_3_);}
	.st10{fill:url(#SVGID_4_);}
	.st11{fill:url(#SVGID_5_);}
	.st12{fill:url(#SVGID_6_);}
	.st13{fill:url(#SVGID_7_);}
	.st14{fill:url(#SVGID_8_);}
	.st15{fill:url(#SVGID_9_);}
	.st16{fill:url(#SVGID_10_);}
	.st17{fill:url(#SVGID_11_);}
	.st18{fill:url(#SVGID_12_);}
	.st19{fill:#EFF2F9;}
	.st20{opacity:0.2;fill:#F6F9FB;enable-background:new    ;}
</style>
<title>hotbot-one-click</title>
<g>
	<g id="Layer_1-2">
		<g id="bg" class="st0">
			<path class="st1" d="M1624.7,1566.7c-199.9-63.1-422.2-83.2-637.5-60c-563,60.6-278-120.8-363.5-251.3
				c-99.4-151.6,452.5-246.8,545.9-397.5S639,551.6,825.7,448.7c146.1-80.3-79.4-192.2,106.3-217.8c181.4-25,326.8-5.8,510.9,14.6
				c236.8,26.2,479.5-18.9,694.6,55c175.3,60.2,345.2,169.9,333.4,301.3c-10.1,112-150.3,202.8-157.5,315
				c-10.2,157,235,272.1,291.2,425.6c65.6,179-101.2,340.6-284.4,353.3C2129,1708.8,1846.1,1636.6,1624.7,1566.7z"/>
			<path class="st2" d="M1422.2,391.6c-86.9-7.8-36.1-3.3-175.3,12.8c-36.7,4.2,121.7-63.1,87.3-75.1
				c-44-15.3-107.1-92.3-151.8-105.5c-48.2-14.2-98.3-19.6-147.5-29.1S867.1,114.8,820.8,97C733.1,63.3,642.9,26.6,550.2,9.2
				c-16.9-3.2-34-5.5-51.1-7.1c-36.5-3.5-73.2-2.6-109.5,2.6c-17.8,2.5-35.4,6.2-52.7,11C247.6,40.1,171,91.2,99.4,155
				c-30.2,27.1-54,57.9-70.6,91.2c-14.2,28.2-23.4,58.6-27.1,90c-9,78.4,18.9,158.8,89.9,219.3c3.3,2.9,6.8,5.7,10.3,8.4
				c72.6,57.4,177.1,99.3,222.7,165.6c7.3,10.6,13.1,22.2,17.1,34.4c24.2,76.2-36.3,136.7-107.5,196.6c-2.8,2.4-5.5,4.7-8.3,7.1
				c-8.5,7-17.1,14.1-25.6,21.1c-5.7,4.8-11.5,9.6-17.3,14.5c-6.2,5.1-12.2,10.2-18.1,15.4c-16.9,14.5-33,29.8-48.3,46
				c-8.5,9-16.5,18.5-23.8,28.4c-2.1,3-4.3,6-6.3,9c-22.7,34.7-34.7,72.9-35.3,112.1c-2.6,101.7,64.4,209.2,169.2,281.3
				c148.3,102.2,353.8,144.3,551.7,156c141,8.4,289.5-0.7,423.6-31.9c5.2-1.1,10.5-2.3,15.8-3.7c21-5.1,41.6-10.9,61.8-17.2
				c10.1-3.2,20.2-6.5,30.2-10c3.1-1.2,6.4-2.3,9.5-3.4c11.8-4.2,23.4-8.8,34.8-13.5c16-6.6,31.3-13.6,46.3-21.1
				c1.1-0.6,2.3-1.1,3.5-1.8c7.3-3.7,14.4-7.5,21.6-11.3l1.4-0.8c2.3-1.3,4.6-2.6,6.9-3.8c3.3-1.9,6.4-3.8,9.6-5.7
				c3-1.7,5.9-3.4,8.6-5.2c4.2-2.5,8.3-5.2,12.4-7.9l4.7-3.2c3.3-2.2,6.7-4.5,10-6.8c1.5-1,2.9-2,4.3-3c2.3-1.5,4.5-3.2,6.8-4.9
				c7-5.2,13.8-10.6,20.4-16.1c3.3-2.7,6.6-5.5,9.9-8.2c5.2-4.7,10.4-9.4,15.5-14.2c2-2,4.2-4.1,6.2-6.1c0.5-0.5,1-0.9,1.6-1.5
				c2.9-3,5.9-6.1,8.8-9.3c2.6-2.7,5.1-5.3,7.4-8.1c0.4-0.4,0.8-0.8,1.1-1.3c4.4-5,8.6-9.9,12.7-15.1c3.4-4.3,6.7-8.6,10-13.2
				c6.5-9,12.6-18.2,18.2-27.6l0.2-0.4c1.7-2.6,3.3-5.3,4.8-8c0.3-0.5,0.6-1,0.8-1.6c6-10.4,11.6-21.2,16.8-32.2
				c3.2-6.5,6.1-13.2,9-19.8c1.5-3.6,3-7.3,4.6-11c5.8-14.2,11.1-28.6,16.1-43.3c1.9-5.8,3.9-11.4,5.6-17.2c5.6-17.3,11-34.6,16-52
				c10.9-36.6,21.3-73.1,34.2-108.3c6.1-17.4,13-34.5,20.6-51.2c2.3-5.2,4.7-10.3,7.5-15.4c7.6-15.5,16.3-30.6,25.9-45
				c9.3-13.9,19.7-27,31.1-39.3c14.7-16.4,31.1-31.1,49-43.9c77.9-56.2-299.4-113.1-217.6-165.7c77.8-50,138.8-106.4,136.5-184.5
				s70.8-64,8.9-129c-63.6-66.8-23,39.4-116.7-3.5C1589.1,377,1481,396.9,1422.2,391.6z"/>
		</g>
		<g id="Online_Privacy">
			<g id="Layer_7">
				<ellipse class="st3" cx="1326.4" cy="1798.8" rx="547.7" ry="19.1"/>
			</g>
		</g>
		<g id="PC">
			<rect x="1118.4" y="1540.4" class="st4" width="416.1" height="233.7"/>
			<rect x="967.5" y="1714.1" class="st5" width="713.5" height="77.2"/>
			
				<linearGradient id="SVGID_1_" gradientUnits="userSpaceOnUse" x1="1326.48" y1="186.9185" x2="1326.48" y2="-46.8215" gradientTransform="matrix(1 0 0 -1 0 1727.3385)">
				<stop  offset="0" style="stop-color:#808184"/>
				<stop  offset="1.000000e-02" style="stop-color:#7D8084;stop-opacity:0.97"/>
				<stop  offset="5.000000e-02" style="stop-color:#637383;stop-opacity:0.71"/>
				<stop  offset="0.1" style="stop-color:#4D6882;stop-opacity:0.49"/>
				<stop  offset="0.16" style="stop-color:#3B5F81;stop-opacity:0.31"/>
				<stop  offset="0.22" style="stop-color:#2D5881;stop-opacity:0.17"/>
				<stop  offset="0.3" style="stop-color:#235380;stop-opacity:7.000000e-02"/>
				<stop  offset="0.39" style="stop-color:#1D5080;stop-opacity:2.000000e-02"/>
				<stop  offset="0.6" style="stop-color:#1B5081;stop-opacity:0"/>
			</linearGradient>
			<rect x="1118.4" y="1540.4" class="st6" width="416.1" height="233.7"/>
			<path class="st4" d="M443.9,290.1h1748.5c55.9,0,101.2,45.3,101.2,101.2v1071.6c0,55.9-45.3,101.2-101.2,101.2H442.8
				c-55.9,0-101.2-45.3-101.2-101.2l0,0V392.5c-0.1-56.4,45.6-102.3,102-102.3C443.7,290.1,443.8,290.1,443.9,290.1z"/>
			
				<linearGradient id="SVGID_2_" gradientUnits="userSpaceOnUse" x1="396.71" y1="873.9736" x2="2237.29" y2="873.9736" gradientTransform="matrix(1 0 0 -1 0 1727.3385)">
				<stop  offset="0" style="stop-color:#1996A6;stop-opacity:0.92"/>
				<stop  offset="1" style="stop-color:#1B5081"/>
			</linearGradient>
			<path class="st7" d="M2237.3,398.5v909.7c0,29-23.4,52.5-52.4,52.5H449.2c-29,0-52.5-23.5-52.5-52.5V398.5
				c0-29,23.5-52.5,52.5-52.5h1735.7C2213.9,346,2237.3,369.5,2237.3,398.5L2237.3,398.5z"/>
			<rect x="967.5" y="1705.6" class="st4" width="713.5" height="77.2"/>
			<circle class="st8" cx="1326.5" cy="1468" r="45.8"/>
			<circle class="st5" cx="1326.6" cy="1460.3" r="45.8"/>
		</g>
		<g id="Layer_3">
			<g id="Layer_6">
				
					<linearGradient id="SVGID_3_" gradientUnits="userSpaceOnUse" x1="2132.1833" y1="1320.5753" x2="2091.7434" y2="1276.9153" gradientTransform="matrix(1 0 0 -1 0 1727.3385)">
					<stop  offset="0" style="stop-color:#FFFFFF;stop-opacity:9.000000e-02"/>
					<stop  offset="1" style="stop-color:#FFFFFF"/>
				</linearGradient>
				<circle class="st9" cx="2119.1" cy="420.9" r="29.3"/>
				
					<linearGradient id="SVGID_4_" gradientUnits="userSpaceOnUse" x1="2020.1006" y1="1320.558" x2="1979.6506" y2="1276.8981" gradientTransform="matrix(1 0 0 -1 0 1727.3385)">
					<stop  offset="0" style="stop-color:#FFFFFF;stop-opacity:9.000000e-02"/>
					<stop  offset="1" style="stop-color:#FFFFFF"/>
				</linearGradient>
				<circle class="st10" cx="2007" cy="420.9" r="29.3"/>
				
					<linearGradient id="SVGID_5_" gradientUnits="userSpaceOnUse" x1="1908.908" y1="1320.5405" x2="1868.4779" y2="1276.8805" gradientTransform="matrix(1 0 0 -1 0 1727.3385)">
					<stop  offset="0" style="stop-color:#FFFFFF;stop-opacity:9.000000e-02"/>
					<stop  offset="1" style="stop-color:#FFFFFF"/>
				</linearGradient>
				<circle class="st11" cx="1895.8" cy="420.9" r="29.3"/>
				
					<linearGradient id="SVGID_6_" gradientUnits="userSpaceOnUse" x1="1493.4312" y1="1501.7476" x2="249.6812" y2="159.2375" gradientTransform="matrix(1 0 0 -1 0 1727.3385)">
					<stop  offset="0" style="stop-color:#FFFFFF;stop-opacity:9.000000e-02"/>
					<stop  offset="1" style="stop-color:#FFFFFF"/>
				</linearGradient>
				<path class="st12" d="M1025.1,723.9c91.8,88.1,151.4,185.2,187.3,296.8c16.2,50.9,26.8,103.4,31.5,156.6
					c2.8,32.3,3.7,64.8,2.8,97.2c-1,38.2-37.3,66.3-72.1,55.6c-19-5.9-30.4-19.1-32.5-38.7c-2.2-20.4-2.6-40.8-4.2-61.2
					c-4.2-57.3-14.7-113.9-31.4-168.9c-14.7-48.2-34.3-94.1-60.3-137.4C998.4,844.2,931.1,778,850.7,731.6
					c-45.1-25.8-93.3-45.7-143.4-59.2c-42.9-11.6-86.7-19.5-130.9-23.5c-32.7-3.1-65.6-4.4-98.5-3.8c-11.3,0.1-22.1-1.5-31.9-7.7
					c-21-13.2-27.9-42.5-15.5-65.8c10.9-20.4,27.9-31,50.8-32.7c62.6-4.8,125.6-1.7,187.5,9c57.9,10.1,114.3,27.3,167.9,51.2
					c47.8,21.4,93,48.1,134.7,79.7C992.8,694.9,1013.3,711.9,1025.1,723.9z"/>
				
					<linearGradient id="SVGID_7_" gradientUnits="userSpaceOnUse" x1="1491.3617" y1="1503.6648" x2="247.6117" y2="161.1548" gradientTransform="matrix(1 0 0 -1 0 1727.3385)">
					<stop  offset="0" style="stop-color:#FFFFFF;stop-opacity:9.000000e-02"/>
					<stop  offset="1" style="stop-color:#FFFFFF"/>
				</linearGradient>
				<path class="st13" d="M883.9,874.3c64.4,61.1,106.2,128.1,132.3,205c19.7,58.2,28.6,118.1,27.8,179.4
					c-0.1,12.6-0.3,25.1-4.6,37.3c-9.3,26.3-38.3,43-64.7,36.9c-20.6-4.7-34.5-21-36-42.1c-0.6-9.9,0.1-19.6,0-29.5
					c-0.5-93-25.9-178.3-81.7-253.2c-50.2-67.5-115.9-114.3-195.7-140.9c-49.7-16.7-100.9-23-153.2-21.5c-9.6,0.3-19.2,1.2-28.8,1.4
					c-35.4,1.2-57-32.7-45.5-65.1c9.2-26,28.9-38.2,55.5-40.3c41.1-3.5,82.4-2.3,123.2,3.7c83.4,12.4,159.6,42.6,227.7,92.5
					C857.7,850.6,873.9,864.3,883.9,874.3z"/>
				
					<linearGradient id="SVGID_8_" gradientUnits="userSpaceOnUse" x1="1489.9214" y1="1504.9982" x2="246.1814" y2="162.4781" gradientTransform="matrix(1 0 0 -1 0 1727.3385)">
					<stop  offset="0" style="stop-color:#FFFFFF;stop-opacity:9.000000e-02"/>
					<stop  offset="1" style="stop-color:#FFFFFF"/>
				</linearGradient>
				<path class="st14" d="M742.3,1029.8c40.3,39.7,67.8,84.9,82.5,137.8c9.7,33.9,13.5,69.3,11.4,104.5c-2.4,37.1-41,62.6-75.3,50
					c-10.8-3.8-19.5-12.1-23.7-22.8c-5.5-13.2-5.1-27.2-6.3-41c-3.6-41.9-13.2-81.8-37.3-116.9c-33.2-48.4-80.2-74.7-137.4-83.9
					c-18.8-3-37.8-3.8-56.7-4.4c-12.3-0.4-24.5-2-34.3-10.4c-16.4-14-21.6-36.8-12.7-57.1c10-22.7,27.3-35.2,52.4-37.2
					c69.4-5.1,134,9.7,193.1,46.9C713.7,1005.6,728.5,1017.1,742.3,1029.8z"/>
				
					<linearGradient id="SVGID_9_" gradientUnits="userSpaceOnUse" x1="1487.7683" y1="1507.0002" x2="244.0183" y2="164.4802" gradientTransform="matrix(1 0 0 -1 0 1727.3385)">
					<stop  offset="0" style="stop-color:#FFFFFF;stop-opacity:9.000000e-02"/>
					<stop  offset="1" style="stop-color:#FFFFFF"/>
				</linearGradient>
				<path class="st15" d="M601.1,1313.6c-31.6,35.2-91.2,41.2-131,3.1s-35-96.4-4-129.9c34.5-37.3,94.3-39.8,131.7-4.7
					C636.2,1218.3,636.1,1279,601.1,1313.6z"/>
				
					<linearGradient id="SVGID_10_" gradientUnits="userSpaceOnUse" x1="1927.4924" y1="1099.6263" x2="683.7424" y2="-242.8937" gradientTransform="matrix(1 0 0 -1 0 1727.3385)">
					<stop  offset="0" style="stop-color:#FFFFFF;stop-opacity:9.000000e-02"/>
					<stop  offset="1" style="stop-color:#FFFFFF"/>
				</linearGradient>
				<circle class="st16" cx="2119.1" cy="420.9" r="29.3"/>
				
					<linearGradient id="SVGID_11_" gradientUnits="userSpaceOnUse" x1="1867.1827" y1="1155.496" x2="623.4429" y2="-187.024" gradientTransform="matrix(1 0 0 -1 0 1727.3385)">
					<stop  offset="0" style="stop-color:#FFFFFF;stop-opacity:9.000000e-02"/>
					<stop  offset="1" style="stop-color:#FFFFFF"/>
				</linearGradient>
				<circle class="st17" cx="2007" cy="420.9" r="29.3"/>
				
					<linearGradient id="SVGID_12_" gradientUnits="userSpaceOnUse" x1="1807.3583" y1="1210.9203" x2="563.6083" y2="-131.5998" gradientTransform="matrix(1 0 0 -1 0 1727.3385)">
					<stop  offset="0" style="stop-color:#FFFFFF;stop-opacity:9.000000e-02"/>
					<stop  offset="1" style="stop-color:#FFFFFF"/>
				</linearGradient>
				<circle class="st18" cx="1895.8" cy="420.9" r="29.3"/>
			</g>
			<path class="st5" d="M140.1,1383.3c0,0,47.3,13.8,65.6,95.9c1.9,7.7,4.1,11.7,5.1,13.2c0.1,0.1,0.1,0.1,0.1,0.3s0.1,0.3,0.3,0.4
				l0.1,0.1l0,0c0.1,0.2,0.3,0.5,0.5,0.6l0,0c5,6.5,13.1,9.6,21.1,8.1h0.1c1.7-0.3,3.3-0.7,4.9-1.4l0,0c8.3-2.8,17.8-8.7,28-19.5
				c1.3-1.4,2.7-2.8,4-4.5L479,1268.4c22.8-22.8,59.8-22.7,82.5,0.1c22.8,22.8,22.7,59.8-0.1,82.5l0,0l-120.6,120.3
				c2.8-0.4,5.5-0.6,8.3-0.6c32.2,0.1,58.2,26.3,58.2,58.5c0,15.5-6.2,30.3-17.2,41.2l-0.5,0.5c30.9,9,48.6,41.3,39.7,72.2
				c-2.7,9.5-7.8,18.1-14.9,25l-8.1,8.1l0.5,0.5c22.7,22.8,22.6,59.7-0.1,82.5l-92.2,92l0,0l-3,2.8c-2.4,2.7-4.9,5.4-7.4,7.9
				c-70.7,70.6-187.3,68.4-260.1-4.7C89.2,1802,74.7,1722,101.2,1656l0,0c2.1-4.1,3.8-8.1,5.4-12c6.8-17.1,10-35.4,9.2-53.8v-0.3
				c-0.1-1.9-0.3-2.9-0.3-3.2l0,0c-6.7-51.4-13.3-81.1-18.6-98v-0.4c0-0.1-0.1-0.3-0.1-0.4l0,0c-2.2-6.5-10.1-21.1-13.6-27.4
				l-0.1-0.4l-1.3-2.3l-0.1-0.1l-0.1-0.1v-0.3l0,0c-5.1-9.7-10.9-26.4-4.1-43.9C77.7,1413.5,96.3,1372,140.1,1383.3z M151.4,1453.3
				L151.4,1453.3L151.4,1453.3z"/>
			<path class="st19" d="M124.6,1381.5c0,0,47.3,13.8,65.6,96.1c1.9,7.7,4.1,11.7,5.1,13.2c0.1,0.1,0.1,0.1,0.1,0.3l0.3,0.4l0.1,0.1
				c0.1,0.2,0.3,0.5,0.5,0.6c5,6.4,13.1,9.6,21.1,8.1h0.1c1.7-0.3,3.3-0.7,4.9-1.4c22.9-9.2,38.7-30.5,55.7-47.5
				c12.3-12.3,24.6-24.6,37-36.9c14.9-14.9,29.8-29.7,44.7-44.6s29.7-29.6,44.6-44.4c12.2-12.2,24.3-24.2,36.5-36.4l20.5-20.5
				l1.9-1.9c22.8-22.7,59.7-22.7,82.5,0.1s22.7,59.7-0.1,82.5L425,1469.6c2.8-0.4,5.5-0.6,8.3-0.6c32.2,0,58.3,26.1,58.3,58.4
				c0,15.5-6.2,30.3-17.2,41.3l-0.5,0.5c30.9,9,48.7,41.4,39.7,72.3c-2.8,9.5-7.9,18.1-14.8,25l-8.1,8.1l0.5,0.5
				c22.7,22.8,22.6,59.7-0.1,82.5l-92.2,92l-3,3c-2.4,2.7-4.9,5.3-7.4,7.8c-70.7,70.6-187.3,68.4-260.1-4.7
				c-54.7-55.3-69.2-135.1-42.7-201.3c2.1-4.1,3.8-8.1,5.4-12c6.8-17.1,10-35.4,9.2-53.8v-0.3c-0.1-1.9-0.3-3-0.3-3.2
				c-6.5-51.3-13.2-81.1-18.4-98.1v-0.3c-0.1-0.1-0.1-0.2-0.1-0.4c-2.2-6.5-10.1-21.1-13.6-27.4l-0.1-0.3l-1.3-2.3l-0.1-0.1
				c0-0.1-0.1-0.1-0.1-0.1l0,0v-0.1c-5.1-9.7-10.9-26.4-4.1-43.9C62,1411.8,80.8,1370.2,124.6,1381.5z M135.9,1451.5L135.9,1451.5
				v-0.1C135.9,1451.4,135.8,1451.5,135.9,1451.5L135.9,1451.5z"/>
		</g>
		<g id="Layer_5">
			<polygon class="st20" points="1422.2,1360.7 1648.1,346 2074,346 1847.9,1360.7 			"/>
			<path class="st20" d="M2237.3,398.5v909.7c0,29-23.4,52.5-52.4,52.5h-216.8l225.5-1014C2218.8,351,2237.3,372.9,2237.3,398.5z"/>
		</g>
	</g>
</g>
</svg>
