<?xml version="1.0" encoding="UTF-8"?>
<svg fill="none" viewBox="0 0 122 33" xmlns="http://www.w3.org/2000/svg">
<g clip-path="url(#a)" fill="#161616">
<path d="m120.03 22.138c-0.724-1.4482-2.052-2.4257-4.827-3.5963-2.269-0.9533-3.415-1.605-4.115-2.3652-0.567-0.6155-0.736-1.1224-0.676-2.0395 0.048-0.8568 0.265-1.3636 0.796-1.9308 0.688-0.7362 1.63-0.9896 2.764-0.7482 1.858 0.3861 3.041 1.6774 4.067 4.3927 0.362 0.9653 0.41 1.0015 1.062 0.7602l0.41-0.1569-0.012-1.1102c-0.012-0.6155-0.036-1.9067-0.072-2.8601l-0.049-1.7739-0.313-0.1328c-1.702-0.72403-4.936-1.1706-7.036-0.97746-2.389 0.21722-4.151 0.97746-5.503 2.3774-1.339 1.3878-1.955 3.029-1.846 4.972 0.084 1.6049 0.567 2.7634 1.556 3.765 0.918 0.9413 1.69 1.3879 3.898 2.2446 3.56 1.3878 4.514 2.2205 4.502 3.9342 0 1.448-0.773 2.5099-2.172 3.0048-0.495 0.181-1.762 0.181-2.438 0-1.774-0.4707-3.126-2.0033-4.284-4.8512l-0.302-0.7241-0.35 0.012c-0.193 0.0121-0.459 0.0724-0.579 0.1328l-0.242 0.1087 0.025 1.2429c0.012 0.6879 0.048 2.1239 0.072 3.21l0.048 1.955 0.399 0.1689c0.808 0.35 3.246 0.8809 4.766 1.05 0.193 0.024 1.231 0.024 2.317 0.012 1.883-0.0242 2.016-0.0362 2.969-0.2776 2.8-0.7361 4.61-2.2928 5.406-4.6582 0.242-0.724 0.278-0.9533 0.314-2.0273 0.048-1.4239-0.084-2.1721-0.555-3.1134z"/>
<path d="m98.408 10.395c-2.3533-1.1826-5.9978-1.0981-8.6647 0.2052-2.5222 1.2309-4.2599 3.2824-5.2254 6.1787-0.5068 1.5084-0.6637 2.7273-0.6153 4.6823 0.0362 1.2309 0.0844 1.8704 0.2171 2.4497 0.9895 4.4409 4.0427 7.4579 8.2905 8.2303 0.9413 0.1689 3.0652 0.1689 4.0186 0.012 1.3516-0.2413 2.9083-0.8326 3.8979-1.5085 1.195-0.8085 2.438-2.0273 2.438-2.4135 0-0.2293-0.411-0.7603-0.592-0.7603-0.072 0-0.41 0.169-0.736 0.3862-1.17 0.7603-2.2926 1.074-3.8614 1.074-2.1481 0-3.5238-0.5431-4.8875-1.9188-0.6033-0.6155-0.8568-0.9413-1.1706-1.5568-0.6878-1.3395-1.062-2.8721-1.1222-4.6098l-0.0242-0.7482 6.3477-0.0242 6.3472-0.024 0.025-0.4345c0.012-0.2413-0.013-0.8568-0.073-1.3757-0.398-3.8618-1.955-6.5166-4.6097-7.8441zm-6.396 7.8199l-1.605 0.0242v-0.35c0-0.1931 0.0604-0.6999 0.1207-1.1223 0.531-3.4514 1.8223-5.527 3.4393-5.527 1.4844 0 2.4015 2.0394 2.5946 5.7805l0.0482 1.0619-1.4964 0.0483c-0.8206 0.0362-2.2205 0.0724-3.1014 0.0844z"/>
<path d="m75.402 9.9846c-0.5068-0.10862-0.9653-0.12069-1.9428-0.09655-1.4844 0.04827-2.4981 0.2776-3.6083 0.7844-0.362 0.169-0.6879 0.3138-0.712 0.3138-0.0242 0-0.0242-2.2446 0.012-4.972 0.0362-3.8617 0.0242-4.984-0.0602-4.984-0.2776 0-9.0388 1.6654-9.1354 1.7378-0.0724 0.06034-0.0965 0.24136-0.0844 0.51891 0.0241 0.48271-0.0242 0.44651 1.0377 0.68786 0.326 0.07241 0.7 0.21723 0.8328 0.31376 0.362 0.25343 0.6516 0.80855 0.8567 1.593 0.1569 0.61545 0.1811 1.062 0.2535 5.2736 0.0724 4.2961 0.0603 8.7008-0.0604 16.786l-0.0482 3.3548 0.6275 0.1448c0.9051 0.2051 3.5117 0.6396 4.3565 0.724 1.243 0.1328 4.1633 0.1087 5.0805-0.024 4.0306-0.6035 7.0596-2.9446 8.4716-6.5166 0.374-0.9534 0.736-2.4137 0.8568-3.4877 0.1447-1.267 0.0603-3.8134-0.1569-4.8391-0.8328-3.922-3.2704-6.6252-6.577-7.313zm-6.1182 20.25c-0.1087-0.2896-0.2415-10.342-0.1931-14.361l0.0362-3.1376 0.5671-0.169c0.374-0.1086 0.8206-0.1689 1.3395-0.1689 0.724 0 0.8206 0.0241 1.4361 0.3258 1.4722 0.7241 2.486 2.5463 2.9566 5.2977 0.1689 1.0137 0.1931 3.8014 0.0362 5.0202-0.3862 2.9928-1.3637 5.4185-2.667 6.5891-0.5189 0.4706-1.0017 0.7119-1.6292 0.8326-0.4464 0.0845-0.5913 0.0845-1.3998 0.0242-0.3379-0.0242-0.4103-0.0604-0.4826-0.2535z"/>
<path d="m59.029 9.5264c-1.0015 0-1.5326 0.1086-2.3412 0.48273-1.4722 0.6758-2.5704 1.7739-3.5599 3.56l-0.3138 0.555 0.0363-0.9895c0.024-0.543 0.0602-1.5567 0.0844-2.2566l0.0362-1.2672h-0.2051c-0.2655 0-8.7733 1.7016-9.0267 1.8102-0.1689 0.0724-0.1931 0.1448-0.1931 0.5551 0 0.4224 0.0242 0.4707 0.1931 0.5069 0.1086 0.0241 0.4947 0.0965 0.8689 0.1689 0.7482 0.1448 0.9775 0.2655 1.2912 0.6758 0.5672 0.7602 0.6878 2.0877 0.6878 7.7475 0 4.622-0.0965 6.9269-0.3258 7.6509-0.2655 0.8809-0.7482 1.3396-1.5808 1.4844-0.2655 0.0483-0.6275 0.1207-0.7844 0.1569l-0.3018 0.0603-0.024 0.5913c-0.0122 0.4104 0.012 0.6155 0.0844 0.6637 0.0603 0.0362 2.9686 0.0604 6.4562 0.0483l6.3477-0.0241 0.0241-0.6637c0.012-0.362 0-0.6638-0.0482-0.6638-0.4949 0-2.0033-0.2051-2.2446-0.3017-0.712-0.3016-1.062-0.9413-1.2068-2.2446-0.181-1.5326-0.2776-5.346-0.2293-8.4595 0.0482-3.1496 0.0482-3.1618 0.2413-3.3789 0.4586-0.4949 1.6292-0.8809 2.667-0.8809 0.8326 0 1.7016 0.2171 2.6187 0.6516 0.4465 0.2172 0.8447 0.362 0.9051 0.3499 0.1207-0.0482 2.1963-5.5511 2.1963-5.8045 0.0121-0.39827-1.1706-0.78443-2.3532-0.78443z"/>
<path d="m43.559 19.096c-0.4466-3.8134-2.0637-6.601-4.7306-8.1698-2.9566-1.7378-7.4579-1.8464-10.656-0.2414-2.305 1.1585-4.1996 3.391-5.0323 5.9494-0.8688 2.6429-0.8688 6.1184 0 8.8216 0.5551 1.7257 1.3033 2.9928 2.4619 4.1392 1.3877 1.3757 3.2099 2.2567 5.2856 2.5583 0.7482 0.1087 3.0894 0.1087 3.8616 0 0.3622-0.0482 0.9897-0.1931 1.3999-0.3016 3.7772-1.0982 6.3477-3.9945 7.2286-8.1458 0.2293-0.9895 0.3138-3.4513 0.1811-4.6099zm-9.5456 11.416c-2.3412 0.6998-4.0187-1.5326-4.6702-6.215-0.2052-1.5084-0.2052-5.6356 0-7.3613 0.4586-3.7651 1.617-5.6718 3.4514-5.6839 0.8206 0 1.2791 0.2052 1.9308 0.8448 1.5326 1.5446 2.2687 4.5013 2.2566 9.1473-0.012 3.7048-0.374 6.0339-1.2067 7.6148-0.4104 0.7602-1.1586 1.4722-1.7619 1.6533z"/>
<path d="m12.58 3.9514h2.7031c3.1014 0 3.6083 0.06035 4.7064 0.60339 1.593 0.78441 2.7515 2.3291 3.7772 5.0202 0.4104 1.0982 0.4104 1.0861 1.3275 0.80851l0.6155-0.181-0.0604-3.9582c-0.0362-2.1722-0.0845-4.1151-0.1085-4.3082l-0.0604-0.33789-11.838-0.02414c-6.5166-0.01207-11.971 0-12.116 0.02414l-0.28963 0.04827 0.02414 0.69993 0.02413 0.69992 0.90508 0.10862c1.1706 0.14481 1.8705 0.47064 2.2808 1.074 0.92922 1.3637 1.0982 3.2221 1.0982 12.032 0 9.3887-0.19309 11.67-1.0982 12.852-0.47065 0.6155-0.84474 0.8086-1.8946 1.0017-1.3757 0.2534-1.3274 0.2171-1.3274 0.9293 0 0.3982 0.0362 0.6033 0.10861 0.6395 0.15688 0.0603 15.302 0.0724 15.459 0 0.2052-0.0844 0.1931-1.1948-0.0121-1.3033-0.0844-0.0484-0.5913-0.1448-1.1343-0.2293-0.5431-0.0844-1.1465-0.2173-1.3274-0.3017-0.9896-0.4345-1.5447-1.6291-1.7499-3.7892-0.1448-1.5448-0.2655-4.4048-0.2655-6.5166v-1.9309l0.9172 0.0241c1.9671 0.0604 2.9807 0.169 3.391 0.35 0.8931 0.3982 1.6051 1.4843 1.9791 3.0169l0.1931 0.8207 0.7 0.0241 0.6999 0.0241v-10.294l-0.6999 0.0242-0.7 0.0241-0.2051 0.8085c-0.3982 1.5809-1.0378 2.5464-1.9912 2.9928-0.3862 0.1811-0.6638 0.2293-1.5929 0.2897-0.6155 0.0361-1.4723 0.0723-1.9188 0.0723h-0.7965v-2.5583c0-2.5583 0.1327-7.9888 0.2293-8.8336l0.0483-0.44651z"/>
</g>
<defs>
<clipPath id="a">
<rect width="122" height="32.973" fill="#fff"/>
</clipPath>
</defs>
</svg>
