<?xml version="1.0" encoding="UTF-8"?>
<svg viewBox="0 0 84 30" xmlns="http://www.w3.org/2000/svg">
<path d="m77.807 18.428c-0.4392-0.8784-1.2444-1.4713-2.9279-2.1813-1.3761-0.5782-2.0715-0.9735-2.496-1.4347-0.3441-0.3733-0.4465-0.6807-0.4099-1.237 0.0292-0.5197 0.161-0.8271 0.4831-1.1712 0.4172-0.4465 0.9881-0.6002 1.6762-0.4538 1.1272 0.2342 1.8446 1.0174 2.4668 2.6644 0.2196 0.5856 0.2488 0.6075 0.6441 0.4611l0.2489-0.0951-0.0073-0.6734c-0.0073-0.3733-0.022-1.1566-0.044-1.7348l-0.0292-1.076-0.1903-0.0805c-1.0322-0.4392-2.9939-0.7101-4.2675-0.593-1.4493 0.1318-2.518 0.593-3.3378 1.442-0.8125 0.8418-1.1858 1.8373-1.1199 3.0158 0.0512 0.9735 0.344 1.6762 0.9442 2.2837 0.5563 0.571 1.0248 0.8419 2.3643 1.3615 2.1593 0.8418 2.7376 1.3469 2.7303 2.3863 0 0.8783-0.4685 1.5225-1.3176 1.8226-0.3001 0.1098-1.0687 0.1098-1.4786 0-1.076-0.2855-1.8958-1.2151-2.5985-2.9425l-0.183-0.4392-0.2123 0.0073c-0.1171 0.0073-0.2782 0.0439-0.3513 0.0805l-0.1464 0.0659 0.0146 0.7539c0.0073 0.4173 0.0293 1.2883 0.044 1.9471l0.0292 1.1858 0.2416 0.1025c0.4904 0.2123 1.969 0.5343 2.8913 0.6368 0.1171 0.0146 0.7466 0.0146 1.4054 0.0073 1.1419-0.0147 1.2224-0.022 1.8007-0.1683 1.6981-0.4466 2.7961-1.3908 3.2793-2.8255 0.1463-0.4392 0.1683-0.5783 0.1903-1.2297 0.0292-0.8637-0.0513-1.3175-0.3368-1.8885z" fill="#fff"/>
<path d="m64.69 11.305c-1.4273-0.7174-3.6379-0.6661-5.2556 0.1244-1.5298 0.7466-2.5839 1.991-3.1695 3.7478-0.3074 0.9149-0.4026 1.6542-0.3732 2.84 0.0219 0.7466 0.0512 1.1345 0.1317 1.4859 0.6002 2.6937 2.4521 4.5237 5.0287 4.9921 0.5709 0.1025 1.8592 0.1025 2.4374 0.0073 0.8199-0.1463 1.7641-0.505 2.3644-0.915 0.7246-0.4904 1.4786-1.2297 1.4786-1.4639 0-0.1391-0.2489-0.4611-0.3587-0.4611-0.0439 0-0.2489 0.1024-0.4465 0.2342-0.7101 0.4611-1.3907 0.6515-2.3423 0.6515-1.303 0-2.1374-0.3294-2.9646-1.1639-0.3659-0.3733-0.5197-0.5709-0.71-0.9443-0.4172-0.8125-0.6442-1.7421-0.6807-2.7961l-0.0147-0.4538 3.8503-0.0147 3.8501-0.0146 0.0147-0.2635c0.0073-0.1464-0.0073-0.5197-0.0439-0.8345-0.2416-2.3423-1.1859-3.9527-2.7962-4.7578zm-3.8795 4.7432-0.9735 0.0146v-0.2122c0-0.1172 0.0366-0.4246 0.0732-0.6808 0.3221-2.0935 1.1053-3.3525 2.0862-3.3525 0.9003 0 1.4566 1.2371 1.5737 3.5062l0.0293 0.6442-0.9077 0.0292c-0.4977 0.022-1.3469 0.044-1.8812 0.0513z" fill="#fff"/>
<path d="m50.736 11.056c-0.3074-0.0659-0.5855-0.0732-1.1784-0.0586-0.9004 0.0293-1.5153 0.1684-2.1887 0.4758-0.2196 0.1025-0.4172 0.1903-0.4318 0.1903-0.0147 0-0.0147-1.3615 0.0073-3.0157 0.0219-2.3423 0.0146-3.0231-0.0366-3.0231-0.1683 0-5.4825 1.0101-5.5411 1.054-0.0439 0.0366-0.0585 0.1464-0.0512 0.31475 0.0146 0.29279-0.0147 0.27083 0.6294 0.41722 0.1977 0.04393 0.4246 0.13177 0.5052 0.19032 0.2195 0.15372 0.3952 0.49043 0.5196 0.96622 0.0952 0.3733 0.1098 0.64413 0.1538 3.1987 0.0439 2.6058 0.0365 5.2776-0.0367 10.182l-0.0292 2.0349 0.3806 0.0879c0.549 0.1244 2.13 0.3879 2.6424 0.4391 0.754 0.0806 2.5254 0.0659 3.0817-0.0146 2.4448-0.366 4.2821-1.786 5.1385-3.9527 0.2268-0.5782 0.4464-1.464 0.5197-2.1154 0.0878-0.7686 0.0365-2.3131-0.0952-2.9352-0.5051-2.379-1.9837-4.0186-3.9893-4.4358zm-3.7111 12.283c-0.0659-0.1757-0.1464-6.2731-0.1171-8.7105l0.022-1.9032 0.344-0.1025c0.2268-0.0659 0.4977-0.1025 0.8125-0.1025 0.4391 0 0.4977 0.0147 0.871 0.1977 0.893 0.4392 1.5079 1.5444 1.7934 3.2133 0.1024 0.6149 0.1171 2.3058 0.0219 3.0451-0.2342 1.8153-0.8271 3.2866-1.6176 3.9966-0.3148 0.2855-0.6076 0.4319-0.9883 0.505-0.2708 0.0513-0.3586 0.0513-0.849 0.0147-0.205-0.0147-0.2489-0.0366-0.2928-0.1537z" fill="#fff"/>
<path d="m40.804 10.779c-0.6075 0-0.9296 0.0659-1.4201 0.2928-0.893 0.4099-1.5591 1.076-2.1593 2.1593l-0.1903 0.3367 0.022-0.6002c0.0145-0.3294 0.0365-0.9442 0.0512-1.3688l0.0219-0.7686h-0.1244c-0.161 0-5.3215 1.0321-5.4752 1.098-0.1024 0.0439-0.1171 0.0879-0.1171 0.3367 0 0.2562 0.0147 0.2855 0.1171 0.3075 0.0659 0.0146 0.3001 0.0585 0.527 0.1024 0.4538 0.0879 0.5929 0.1611 0.7833 0.4099 0.3439 0.4611 0.4171 1.2663 0.4171 4.6993 0 2.8035-0.0585 4.2016-0.1976 4.6408-0.161 0.5343-0.4538 0.8125-0.9588 0.9003-0.1611 0.0293-0.3807 0.0732-0.4758 0.0952l-0.1831 0.0365-0.0145 0.3587c-0.0074 0.2489 0.0073 0.3733 0.0512 0.4026 0.0365 0.022 1.8006 0.0366 3.916 0.0293l3.8503-0.0146 0.0146-0.4026c0.0073-0.2196 0-0.4026-0.0293-0.4026-0.3001 0-1.2151-0.1244-1.3615-0.183-0.4318-0.183-0.6441-0.571-0.732-1.3615-0.1097-0.9296-0.1683-3.2427-0.139-5.1312 0.0292-1.9104 0.0292-1.9178 0.1463-2.0495 0.2782-0.3001 0.9883-0.5343 1.6177-0.5343 0.5051 0 1.0322 0.1317 1.5884 0.3952 0.2708 0.1318 0.5124 0.2196 0.549 0.2123 0.0732-0.0293 1.3322-3.3671 1.3322-3.5208 0.0073-0.2416-0.71-0.4758-1.4273-0.4758z" fill="#fff"/>
<path d="m31.421 16.583c-0.2709-2.313-1.2517-4.0039-2.8694-4.9555-1.7933-1.054-4.5237-1.1199-6.4634-0.1464-1.3981 0.7027-2.5473 2.0569-3.0523 3.6086-0.527 1.6031-0.527 3.7112 0 5.3508 0.3367 1.0468 0.7905 1.8153 1.4933 2.5107 0.8417 0.8345 1.947 1.3689 3.206 1.5518 0.4538 0.0659 1.8739 0.0659 2.3423 0 0.2196-0.0293 0.6003-0.1171 0.8491-0.1829 2.2911-0.6662 3.8502-2.4229 4.3846-4.941 0.139-0.6002 0.1903-2.0933 0.1098-2.7961zm-5.79 6.9246c-1.42 0.4244-2.4375-0.9296-2.8327-3.7698-0.1245-0.9149-0.1245-3.4183 0-4.465 0.2781-2.2838 0.9808-3.4403 2.0934-3.4476 0.4978 0 0.7759 0.1244 1.1712 0.5123 0.9296 0.937 1.3761 2.7304 1.3688 5.5485-0.0073 2.2471-0.2269 3.6598-0.732 4.6188-0.2489 0.4611-0.7027 0.8929-1.0687 1.0028z" fill="#fff"/>
<path d="m12.631 7.3965h1.6396c1.8812 0 2.1886 0.0366 2.8547 0.36599 0.9663 0.47579 1.6689 1.4127 2.2911 3.0451 0.2489 0.666 0.2489 0.6587 0.8052 0.4904l0.3733-0.1098-0.0366-2.4009c-0.022-1.3176-0.0512-2.496-0.0658-2.6132l-0.0367-0.20496-7.1807-0.01464c-3.9526-0.00732-7.2612 0-7.349 0.01464l-0.17567 0.02928 0.01464 0.42455 0.01464 0.42454 0.54898 0.06589c0.71003 0.08783 1.1346 0.28547 1.3834 0.65145 0.56363 0.82714 0.66611 1.9544 0.66611 7.2978 0 5.6948-0.11713 7.0782-0.66611 7.7955-0.28547 0.3734-0.51238 0.4905-1.1492 0.6076-0.83446 0.1537-0.80518 0.1317-0.80518 0.5637 0 0.2415 0.02196 0.3659 0.06588 0.3879 0.09515 0.0366 9.2814 0.0439 9.3766 0 0.1245-0.0512 0.1171-0.7247-0.0073-0.7905-0.0512-0.0294-0.3587-0.0879-0.6881-0.1391s-0.6953-0.1318-0.8051-0.183c-0.6002-0.2635-0.9369-0.9882-1.0614-2.2984-0.0878-0.937-0.161-2.6717-0.161-3.9527v-1.1712l0.5563 0.0146c1.1931 0.0367 1.8079 0.1026 2.0569 0.2123 0.5416 0.2416 0.9735 0.9004 1.2004 1.83l0.1171 0.4977 0.4246 0.0147 0.4245 0.0146v-6.2438l-0.4245 0.0147-0.4246 0.0146-0.1244 0.4904c-0.2416 0.9589-0.6295 1.5445-1.2078 1.8153-0.2343 0.1099-0.4026 0.1391-0.9662 0.1757-0.3733 0.0219-0.893 0.0439-1.1639 0.0439h-0.4831v-1.5518c0-1.5518 0.0806-4.8456 0.1391-5.358l0.0293-0.27083z" fill="#fff"/>
</svg>
