<?xml version="1.0" encoding="utf-8"?>
<!-- Generator: Adobe Illustrator 23.0.1, SVG Export Plug-In . SVG Version: 6.00 Build 0)  -->
<svg version="1.1" id="Layer_1" xmlns="http://www.w3.org/2000/svg" xmlns:xlink="http://www.w3.org/1999/xlink" x="0px" y="0px"
	 viewBox="0 0 408.6 302.7" style="enable-background:new 0 0 408.6 302.7;" xml:space="preserve">
<style type="text/css">
	.st0{opacity:0.65;fill:#D8E0F2;enable-background:new    ;}
	.st1{opacity:0.45;fill:#D8E0F2;enable-background:new    ;}
	.st2{opacity:0.25;fill:#D8E0F2;enable-background:new    ;}
	.st3{opacity:0.1;fill:#2197A3;enable-background:new    ;}
	.st4{fill:url(#SVGID_1_);}
	.st5{fill:#D7DFF2;}
	.st6{fill:#B7BFD6;}
	.st7{fill:url(#SVGID_2_);}
	.st8{opacity:0.25;fill:#106975;enable-background:new    ;}
	.st9{fill:url(#SVGID_3_);}
	.st10{fill:url(#SVGID_4_);}
	.st11{fill:url(#SVGID_5_);}
	.st12{fill:#FFFFFF;}
	.st13{fill:#228C8C;}
	.st14{font-family:'Gilroy-Regular';}
	.st15{font-size:12px;}
	.st16{fill:url(#SVGID_6_);}
	.st17{opacity:0.25;fill:url(#SVGID_7_);enable-background:new    ;}
	.st18{fill:#72CBCE;}
	.st19{opacity:0.35;fill:url(#SVGID_8_);enable-background:new    ;}
	.st20{opacity:0.35;fill:url(#SVGID_9_);enable-background:new    ;}
	.st21{opacity:0.25;fill:url(#SVGID_10_);enable-background:new    ;}
	.st22{opacity:0.1;}
	.st23{fill:#D2EDF1;}
</style>
<title>Asset 1</title>
<g>
	<g id="Layer_1-2">
		<path class="st0" d="M396.6,225.6c-4.9,20.8-13.4,40.6-25.1,58.4c-3.5-0.4-7.3-0.7-11.4-1c12.7-18,21.8-38.3,26.8-59.7
			c0.6-2.5,3.1-4.2,5.6-3.8l0,0c2.7,0.4,4.6,3,4.2,5.7C396.6,225.4,396.6,225.5,396.6,225.6z"/>
		<path class="st1" d="M219.1,40.8c0,6.9-5.6,12.5-12.5,12.5c-4.6,0-8.8-2.5-11-6.5c-75.4,12.4-126.5,83.6-114.1,159
			c4.6,28,17.7,53.9,37.5,74.2c3.1-1.3,6.5-1.3,9.6,0c-7.8,0.3-15.2,0.6-22.3,1c-53.9-61.7-47.7-155.5,14-209.4
			c21-18.4,46.8-30.5,74.4-34.8c2.2-6.5,9.3-10,15.8-7.8C215.7,30.7,219.1,35.5,219.1,40.8L219.1,40.8z"/>
		<path class="st1" d="M361.3,222.1l-0.2,0.9l0.2,0.2v19c-2.3,2-5.3,3-8.3,3c-5,10.9-11.3,21.1-18.8,30.5c-1.4,1.8-2.9,3.6-4.4,5.3
			c-4.2-0.2-8.6-0.4-13.1-0.6c1.5-1.5,3-3.1,4.4-4.7c9.3-10.4,16.9-22.1,22.7-34.7c-4.6-5.1-4.2-13,1-17.6c1.8-1.6,4.1-2.7,6.6-3.1
			c20.3-73.7-23-150-96.7-170.4c-0.9-0.2-1.8-0.5-2.7-0.7c-2.5-0.6-4.1-3.1-3.7-5.6l0,0c0.4-2.7,3-4.6,5.7-4.2
			c0.1,0,0.3,0.1,0.4,0.1c51.9,13.2,92.7,53.4,106.8,105.1L361.3,222.1z"/>
		<path class="st2" d="M254.3,93.8c-6.3,0-11.7-4.7-12.4-11c-55.6-13.1-111.3,21.3-124.5,76.9c-4.4,18.9-3.5,38.6,2.7,56.9
			c6.9,0.1,12.4,5.8,12.3,12.7c0,2.8-1,5.4-2.8,7.6c11.4,18.7,28.3,33.3,48.5,41.8c-7.1,0.1-14,0.2-20.8,0.4
			c-15-9.5-27.5-22.4-36.6-37.6c-6.9,0.5-12.8-4.7-13.3-11.6c-0.2-3.5,1-7,3.4-9.5c-20.5-59.2,11-123.9,70.2-144.3
			c20.5-7.1,42.6-8.1,63.7-3c4.5-5.2,12.4-5.8,17.6-1.3c5.2,4.5,5.8,12.4,1.3,17.6C261.4,92.2,257.9,93.8,254.3,93.8z"/>
		<path class="st2" d="M307.5,253.1c3.7,5.9,1.9,13.6-4,17.2c-3.5,2.2-7.9,2.5-11.7,0.8c-0.4-0.2-0.8-0.4-1.2-0.6
			c-3.8,3.1-7.7,6-11.8,8.6c-6.7-0.1-13.7-0.3-20.7-0.4c9.7-4.1,18.7-9.6,26.7-16.3c-1.5-6.7,2.7-13.4,9.4-14.9
			c1.7-0.4,3.4-0.4,5.1-0.1c33.6-42.5,28.7-103.7-11.3-140.3l6.6-7.5C338.3,139.5,343.9,206.4,307.5,253.1L307.5,253.1z"/>
		<path class="st0" d="M151.6,23.9c0,6.9-5.6,12.5-12.5,12.5c-3,0-5.8-1.1-8.1-3C48.2,81.5,20,187.7,68.1,270.5
			c2.5,4.3,5.1,8.4,8,12.5c-4.1,0.3-7.9,0.7-11.4,1C9.1,199.3,32.8,85.6,117.5,30c3-2,6-3.8,9.1-5.6c0-0.2,0-0.3,0-0.5
			c0-6.9,5.6-12.5,12.5-12.5S151.6,17,151.6,23.9L151.6,23.9L151.6,23.9z"/>
		<path class="st0" d="M401.2,166.4c-0.2-0.1-0.4-0.1-0.6-0.2C391,65.3,301.5-8.8,200.5,0.8c-6,0.6-12.1,1.4-18,2.6
			c-2.7,0.5-4.5,3.2-3.9,5.9c0,0.1,0.1,0.3,0.1,0.4l0,0c0.7,2.5,3.2,4,5.8,3.6c94.1-18.5,185.3,42.8,203.8,136.9
			c1.1,5.5,1.9,11,2.4,16.5c-2.9,1.4-5.1,3.8-6.2,6.8c-2.4,6.5,0.8,13.7,7.3,16.1c6.5,2.4,13.7-0.8,16.1-7.3
			C410.2,176.1,407.3,169.2,401.2,166.4L401.2,166.4z"/>
		<path class="st3" d="M401.4,290.6c0,2.9-15.1,5.5-40.4,7.6c-4.4,0.4-9,0.7-14,1c-11.5,0.8-24.5,1.4-38.7,1.9
			c-6,0.2-12.2,0.4-18.5,0.6l0,0c-21.9,0.6-46,1-71.4,1c-25.6,0-50.1-0.4-72.2-1c-11-0.3-21.4-0.7-31.2-1.1
			c-9.4-0.4-18.1-0.9-26.1-1.4l0,0c-5-0.3-9.6-0.7-14-1c-24.7-2.1-39.5-4.7-39.5-7.5c0-2.4,10.7-4.7,29.3-6.6
			c3.5-0.4,7.3-0.7,11.4-1c8.9-0.7,19-1.4,30.2-2c7-0.4,14.5-0.7,22.2-1l0,0c26.5-1,57.2-1.6,89.9-1.6c36.2,0,69.9,0.7,98.3,1.9
			c4.5,0.2,8.8,0.4,13.1,0.6c11.2,0.6,21.3,1.2,30.2,1.9c4.1,0.3,7.9,0.7,11.4,1C390.4,285.9,401.4,288.2,401.4,290.6z"/>
		<path class="st3" d="M218,286.8c-13.7,0-27.3-2.7-39.9-8c13-0.2,26.5-0.3,40.4-0.3c13.6,0,26.8,0.1,39.5,0.3
			C245.3,284.1,231.7,286.8,218,286.8z"/>
		
			<linearGradient id="SVGID_1_" gradientUnits="userSpaceOnUse" x1="218.025" y1="21.2286" x2="218.025" y2="38.3286" gradientTransform="matrix(1 0 0 -1 0 303.3385)">
			<stop  offset="0.36" style="stop-color:#B7C0D9"/>
			<stop  offset="0.38" style="stop-color:#B9C2DB"/>
			<stop  offset="0.54" style="stop-color:#CAD2E8"/>
			<stop  offset="0.71" style="stop-color:#D4DCF0"/>
			<stop  offset="0.94" style="stop-color:#D7DFF2"/>
		</linearGradient>
		<path class="st4" d="M361.3,99.7v176H74.7v-176c0-4.7,3.8-8.6,8.6-8.6h269.4C357.5,91.1,361.3,94.9,361.3,99.7z"/>
		<rect x="53.4" y="275.5" class="st5" width="330" height="9.9"/>
		<path class="st6" d="M374.3,288.6H60.6c-1.8,0-7.2-1.4-7.2-3.2h330C383.4,287.2,376,288.6,374.3,288.6z"/>
		
			<linearGradient id="SVGID_2_" gradientUnits="userSpaceOnUse" x1="83.91" y1="119.9336" x2="352.14" y2="119.9336" gradientTransform="matrix(1 0 0 -1 0 303.3385)">
			<stop  offset="0" style="stop-color:#2D95A5"/>
			<stop  offset="1" style="stop-color:#135184"/>
		</linearGradient>
		<path class="st7" d="M86.4,99.6h263.2c1.4,0,2.5,1.1,2.5,2.5v162.6c0,1.4-1.1,2.5-2.5,2.5H86.4c-1.4,0-2.5-1.1-2.5-2.5V102.1
			C83.9,100.7,85,99.6,86.4,99.6z"/>
		<path class="st8" d="M80.2,240.9c-1.7,0.7-3.6,1-5.4,1V99.7c0-4.7,3.8-8.6,8.6-8.6H126c7.2,4.2,14.2,8.3,19.9,11.7
			c2.2,1.3,3.6,3.7,3.6,6.3C150.7,205.2,97.6,234,80.2,240.9z"/>
		
			<linearGradient id="SVGID_3_" gradientUnits="userSpaceOnUse" x1="74.4314" y1="253.1785" x2="75.4914" y2="78.4685" gradientTransform="matrix(1 0 0 -1 0 303.3385)">
			<stop  offset="0" style="stop-color:#228C8C"/>
			<stop  offset="1" style="stop-color:#72CBCE"/>
		</linearGradient>
		<path class="st9" d="M80.2,227.2c-3.5,1.4-7.4,1.4-10.9,0c-10.7-4.2-34.9-16.7-51.7-48.1C7.1,159.5-0.4,132.5,0,95.5
			c0-2.6,1.4-5,3.6-6.4c18.1-10.8,48.5-28.2,62.9-36.5c5-2.9,11.2-2.9,16.3,0c10.7,6.1,30,17.2,46.7,27c5.9,3.4,11.5,6.7,16.2,9.6
			c2.2,1.3,3.6,3.8,3.6,6.4C150.7,191.6,97.6,220.3,80.2,227.2z"/>
		
			<linearGradient id="SVGID_4_" gradientUnits="userSpaceOnUse" x1="12.9928" y1="163.9724" x2="136.5071" y2="163.9724" gradientTransform="matrix(1 0 0 -1 0 303.3385)">
			<stop  offset="0" style="stop-color:#228C8C"/>
			<stop  offset="1" style="stop-color:#72CBCE"/>
		</linearGradient>
		<path class="st10" d="M133.5,97.8c-15-8.9-40-23.3-52-30.2c-4.2-2.4-9.3-2.4-13.5,0c-12,6.8-37,21.3-52,30.2c-1.8,1.1-3,3.1-3,5.3
			C12,182.5,55.9,206.3,70.2,212c2.9,1.1,6.1,1.1,9,0c14.4-5.7,58.3-29.5,57.2-108.8C136.5,101,135.3,99,133.5,97.8z"/>
		
			<linearGradient id="SVGID_5_" gradientUnits="userSpaceOnUse" x1="74.5856" y1="234.6488" x2="75.2956" y2="88.5288" gradientTransform="matrix(1 0 0 -1 0 303.3385)">
			<stop  offset="0" style="stop-color:#72CBCE"/>
			<stop  offset="1" style="stop-color:#228C8C"/>
		</linearGradient>
		<path class="st11" d="M130.5,99.9c-14.2-8.5-38-22.2-49.4-28.7c-4-2.3-8.8-2.3-12.8,0C57,77.8,33.2,91.5,19,99.9
			c-1.8,1.1-2.8,2.9-2.9,5c-1,75.4,40.7,98,54.4,103.4c2.7,1.1,5.8,1.1,8.5,0c13.7-5.4,55.3-28,54.4-103.4
			C133.4,102.9,132.3,101,130.5,99.9z"/>
		<path class="st12" d="M136.7,210h144.7l0,0v20.5l0,0H136.7c-5.7,0-10.2-4.6-10.2-10.2l0,0l0,0C126.5,214.6,131.1,210,136.7,210z"
			/>
		<path class="st13" d="M281.4,210h18.8c5.7,0,10.2,4.6,10.2,10.2l0,0c0,5.7-4.6,10.2-10.2,10.2h-18.8l0,0V210L281.4,210z"/>
		<path class="st12" d="M301.1,215c-2.1-2.1-5.5-2.1-7.6,0c-1.9,1.9-2.1,4.9-0.5,7.1l-3.6,3.6c-0.3,0.3-0.3,0.8,0,1.1
			c0.3,0.3,0.8,0.3,1.1,0l3.6-3.6c0.9,0.7,2.1,1.1,3.3,1.1c3,0,5.4-2.4,5.4-5.4C302.7,217.4,302.1,216,301.1,215z M300,221.6
			c-1.5,1.5-4,1.5-5.5,0s-1.5-4,0-5.5c1.5-1.5,4-1.5,5.5,0c0.7,0.7,1.2,1.7,1.2,2.8C301.1,219.9,300.7,220.8,300,221.6z"/>
		<text transform="matrix(1 0 0 1 139.09 224.2299)" class="st13 st14 st15">S</text>
		<text transform="matrix(1 0 0 1 146.17 224.2299)" class="st13 st14 st15">e</text>
		<text transform="matrix(1 0 0 1 152.89 224.2299)" class="st13 st14 st15">a</text>
		<text transform="matrix(1 0 0 1 160.04 224.2299)" class="st13 st14 st15">r</text>
		<text transform="matrix(1 0 0 1 163.45 224.2299)" class="st13 st14 st15">ch</text>
		
			<linearGradient id="SVGID_6_" gradientUnits="userSpaceOnUse" x1="220.715" y1="24.6386" x2="220.715" y2="27.8186" gradientTransform="matrix(1 0 0 -1 0 303.3385)">
			<stop  offset="0" style="stop-color:#9EAFC8"/>
			<stop  offset="1" style="stop-color:#B7BFD6"/>
		</linearGradient>
		<path class="st16" d="M133.7,275.5h174.1l0,0l0,0c0,1.8-1.4,3.2-3.2,3.2H136.9C135.1,278.7,133.7,277.3,133.7,275.5L133.7,275.5
			L133.7,275.5z"/>
		
			<linearGradient id="SVGID_7_" gradientUnits="userSpaceOnUse" x1="83.3115" y1="229.8787" x2="83.6215" y2="151.6387" gradientTransform="matrix(1 0 0 -1 0 303.3385)">
			<stop  offset="0" style="stop-color:#006E78"/>
			<stop  offset="1" style="stop-color:#004141;stop-opacity:0"/>
		</linearGradient>
		<path class="st17" d="M80.2,227.2c-3.5,1.4-7.4,1.4-10.9,0c-10.7-4.2-34.9-16.7-51.7-48.1c13.5-42.7,55.2-78.7,112-99.6
			c5.9,3.4,11.5,6.7,16.2,9.6c2.2,1.3,3.6,3.8,3.6,6.4C150.7,191.6,97.6,220.3,80.2,227.2z"/>
		<path class="st12" d="M97,132.6h-4v-11.2c-0.2-10.1-8.6-18-18.7-17.8c-9.7,0.2-17.6,8.1-17.8,17.8v11.2h-4c-4.2,0-7.6,3.4-7.6,7.6
			c0,0,0,0,0,0v27.6c0,4.2,3.4,7.6,7.6,7.6c0,0,0,0,0,0H97c4.2,0,7.6-3.4,7.7-7.6c0,0,0,0,0,0v-27.6
			C104.7,136.1,101.2,132.6,97,132.6C97,132.6,97,132.6,97,132.6z M79.6,159c-0.4,0.4-0.8,0.7-1.2,1l0.7,8.6h-8.6l0.7-8.6
			c-2.1-1.3-3.3-3.5-3.3-5.9c0-3.8,3.1-7,6.9-7c3.8,0,7,3.1,7,6.9C81.7,155.9,80.9,157.7,79.6,159z M86.1,132.6H63.4v-11.3
			c-0.2-6.3,4.7-11.5,11-11.7s11.5,4.7,11.7,11c0,0.2,0,0.4,0,0.7V132.6z"/>
		<path class="st18" d="M220.7,192.8c-3.2,0-6.3,0-9.4-0.1c-23.6-0.7-44.3-4-41.8-11.2c0.9-2.4,5.3-5.6,17.1-7.2h0.1l0,0
			c1.1-7.7,9.4-33.3,19.5-39.4c2.2-1.3,4.2-0.4,7.6,3.2c0.8,1.2,1.8,2.3,3,3.2c1.2,0.8,2.5,1.1,3.9,1c3.5,0.2,5.4-2.1,6.9-4.2
			c3.4-3.6,5.5-4.5,7.6-3.2c10.1,6.1,18.5,31.8,19.5,39.4c3.7,0.4,7.4,1.3,10.9,2.5c3.9,1.5,5.7,3.3,6.3,4.7
			C274.8,189.6,247.9,192.8,220.7,192.8z"/>
		
			<linearGradient id="SVGID_8_" gradientUnits="userSpaceOnUse" x1="229.9286" y1="131.4227" x2="227.9901" y2="109.2401" gradientTransform="matrix(1 0 0 -1 0 303.3385)">
			<stop  offset="0" style="stop-color:#006E78"/>
			<stop  offset="1" style="stop-color:#67C2C5;stop-opacity:0"/>
		</linearGradient>
		<path class="st19" d="M220.7,192.8c-3.2,0-6.3,0-9.4-0.1c-27.5-8.4-24.8-18-24.7-18.4l0,0h0.1c1.1-0.3,18.9-5.6,68.1,0
			c11.8,1.6,16.2,4.8,17.2,7.2C274.8,189.6,247.9,192.8,220.7,192.8z"/>
		
			<linearGradient id="SVGID_9_" gradientUnits="userSpaceOnUse" x1="216.79" y1="150.4181" x2="254.28" y2="150.4181" gradientTransform="matrix(1 0 0 -1 0 303.3385)">
			<stop  offset="0" style="stop-color:#67C2C5;stop-opacity:0"/>
			<stop  offset="1" style="stop-color:#006E78"/>
		</linearGradient>
		<path class="st20" d="M254.3,171.7h-37.5v-30.5c1.2,0.8,2.5,1.1,3.9,1c3.5,0.2,5.4-2.1,6.9-4.2c3.4-3.6,5.5-4.5,7.6-3.2
			C244.4,140.4,252.1,162,254.3,171.7z"/>
		<path class="st13" d="M254.8,174.8c0-0.2,0-0.4,0-0.6c-0.4-3.4-1.3-6.7-2.5-9.9h-0.1c-9.5,1.6-19,2.5-28.6,2.7c-1,0-2,0-2.8-0.1
			h-0.1c-0.9,0-1.8,0.1-2.8,0.1c-9.6-0.3-19.2-1.2-28.6-2.7h-0.1c-1.2,3.2-2.1,6.5-2.5,9.9c0,0.2,0,0.4,0,0.6
			c-0.1,2.8,3.8,4.6,9,5.7c9.1,2,22.4,1.9,25,1.9h0.1c2.7,0,15.9,0.1,25-1.9C251,179.4,254.9,177.6,254.8,174.8z"/>
		
			<linearGradient id="SVGID_10_" gradientUnits="userSpaceOnUse" x1="186.635" y1="129.9829" x2="254.8013" y2="129.9829" gradientTransform="matrix(1 0 0 -1 0 303.3385)">
			<stop  offset="0" style="stop-color:#004141;stop-opacity:0"/>
			<stop  offset="1" style="stop-color:#002E25"/>
		</linearGradient>
		<path class="st21" d="M254.8,174.8c0-0.2,0-0.4,0-0.6c-0.4-3.4-1.3-6.7-2.5-9.9h-0.1c-9.5,1.6-19,2.5-28.6,2.7c-1,0-2,0-2.8-0.1
			h-0.1c-0.9,0-1.8,0.1-2.8,0.1c-9.6-0.3-19.2-1.2-28.6-2.7h-0.1c-1.2,3.2-2.1,6.5-2.5,9.9c0,0.2,0,0.4,0,0.6
			c-0.1,2.8,3.8,4.6,9,5.7c9.1,2,22.4,1.9,25,1.9h0.1c2.7,0,15.9,0.1,25-1.9C251,179.4,254.9,177.6,254.8,174.8z"/>
		<g class="st22">
			<polygon class="st23" points="288.6,267.2 234,267.2 285.3,99.6 339.8,99.6 			"/>
		</g>
		<g class="st22">
			<path class="st23" d="M352.1,105.4v159.3c0,1.4-1.1,2.5-2.5,2.5h-47L352.1,105.4z"/>
		</g>
	</g>
</g>
</svg>
