<?xml version="1.0" encoding="UTF-8"?>
<svg fill="none" viewBox="0 0 81 30" xmlns="http://www.w3.org/2000/svg">
<g clip-path="url(#a)" fill="#fff">
<path d="m52.147 19.234v-7.5c0-1.9466-1.54-3.38-3.6933-3.38-1.5667 0-2.9467 0.74666-4.1733 2.2467h-0.16l-0.16-1.7534c-0.0267-0.28667-0.2934-0.48-0.5734-0.42l-4.76 1.0667c-0.1666 0.04-0.24 0.24-0.1333 0.37333l0.98 1.26v8.1067l-0.7867 1.1067c-0.1133 0.16 0 0.3733 0.1934 0.3733h5.9933c0.1933 0 0.3067-0.22 0.1933-0.3733l-0.7866-1.08v-7.7534c0.5-0.32 1.0666-0.5 1.5866-0.5 0.9334 0 1.4734 0.5667 1.4734 1.54v6.5934l-0.8067 1.2c-0.1067 0.16 0.0067 0.3666 0.2 0.3666h6.0133c0.1934 0 0.3067-0.22 0.1934-0.3733l-0.7934-1.1z"/>
<path d="m31.386 8.3604c-3.5066 0-7.0733 2.12-7.0733 6.3466 0 4.2334 3.5667 6.3467 7.0733 6.3467 3.5067 0 7.0734-2.12 7.0734-6.3467 0-4.2333-3.5667-6.3466-7.0734-6.3466zm0 11.647c-1.3066 0-2.1666-2.3733-2.1666-5.3 0-2.9266 0.8533-5.3 2.1666-5.3 1.3067 0 2.1667 2.3734 2.1667 5.3 0 2.9267-0.86 5.3-2.1667 5.3z"/>
<path d="m65.512 16.38c0.0533-0.2-0.2-0.3267-0.3267-0.1667-0.88 1.04-2.3 1.56-3.5666 1.6067-1.38 0.0467-2.4134-0.4133-3.1534-1.1267l6.3934-2.9466c0.2466-0.1134 0.3733-0.3867 0.3066-0.6467-0.14-0.52-0.3333-1.04-0.5866-1.54-0.9067-1.7867-2.56-3.28-5.06-3.1933-4.1067 0.14-6.52 2.74-6.3934 6.64 0.1267 3.76 2.8134 6.1933 6.68 6.0666 3.4267-0.1333 5.04-2.04 5.7067-4.6933zm-7.2267-6.58c1.4334-0.56667 2.9934 0.47999 3.3867 3.52l-3.94 2.4c-1.2533-2.1867-0.8067-5.38 0.5533-5.92z"/>
<path d="m23.32 18.927v-12.26l0.9533-1.2867c0.1134-0.15333 0.0067-0.38-0.1866-0.38h-4.7534c-0.1733 0-0.3266 0.09333-0.4133 0.24l-4.1267 7.3933-3.8866-7.38c-0.0867-0.15333-0.2467-0.25333-0.42-0.25333h-5.2534c-0.17333 0-0.28666 0.18667-0.20666 0.34l1.0333 2.04v11.187l-1.02 1.7933c-0.08667 0.16 0.02667 0.3533 0.20667 0.3533h3.7467c0.2 0 0.31334-0.24 0.18-0.3933l-1.54-1.7533v-8.92l4.8334 9.6666c0.0866 0.1734 0.3266 0.1734 0.42 0.0067l5.2266-9.6533v9.26l-0.98 1.42c-0.1066 0.16 0 0.3733 0.1934 0.3733h6.7733c0.1933 0 0.3-0.2133 0.1933-0.3733l-0.9733-1.42z"/>
<path d="m76.693 8.6932h-2.9334c-0.2066 0-0.3133 0.25333-0.1666 0.4l1.1666 1.2-2.2733 6.1-2.28-6.34 0.8933-0.96668c0.14-0.15333 0.0334-0.4-0.1733-0.4h-6.34c-0.1867 0-0.3 0.2-0.2 0.36l0.62 0.99998 4.7067 11.293c0.24 0.5733-0.04 1.2266-0.6134 1.4733-1.1333 0.5-1.8666-1.2333-2.6733-1.6267-0.9133-0.4533-2.0067-0.24-2.5333 0.6334-0.5267 0.8733-0.24 2.0066 0.6333 2.5333 2.1067 1.2667 5.52 1 7.62-3.9133l0.5333-1.22 3.4467-8.8267 0.7733-1.3467c0.0867-0.16-0.0266-0.35333-0.2066-0.35333z"/>
</g>
<defs>
<clipPath id="a">
<rect transform="translate(5 5)" width="71.933" height="20" fill="#fff"/>
</clipPath>
</defs>
</svg>
