<?xml version="1.0" encoding="UTF-8"?>
<svg fill="none" viewBox="0 0 122 30" xmlns="http://www.w3.org/2000/svg">
<g clip-path="url(#a)" fill="#fff">
<path d="m29.318 16.864c0.0816 0.9095 0.7638 1.7152 2.044 1.7152 0.9887 0 1.5102-0.5363 1.5102-1.1567 0-0.5363-0.3732-0.9515-1.179-1.1146l-1.4829-0.3337c-1.7771-0.3905-2.7188-1.5497-2.7188-2.9338 0-1.7573 1.6115-3.2427 3.7074-3.2427 2.8127 0 3.7197 1.8191 3.8853 2.8102l-2.0242 0.5784c-0.0816-0.5784-0.5166-1.5077-1.8611-1.5077-0.8453 0-1.4459 0.5363-1.4459 1.1567 0 0.5363 0.393 0.9293 1.0134 1.0529l1.5299 0.3089c1.9006 0.4153 2.8917 1.572 2.8917 3.0574 0 1.5324-1.2358 3.213-3.8013 3.213-2.9139 0-4.0286-1.9006-4.1547-3.0375l2.086-0.566zm16.74 0.43c-0.5363 1.7573-2.128 3.1834-4.5452 3.1834-2.7187 0-5.1434-1.9772-5.1434-5.393 0-3.1809 2.3555-5.2891 4.8962-5.2891 3.0994 0 4.916 2.044 4.916 5.2273 0.0079 0.2561-0.0128 0.5123-0.0618 0.7638h-7.3554c0.0188 0.7117 0.3183 1.3871 0.8332 1.8788 0.5149 0.4918 1.2033 0.7599 1.9152 0.746 1.4459 0 2.1898-0.7637 2.521-1.7573l2.0242 0.6401zm-2.2936-3.2625c-0.0395-1.1789-0.8255-2.2244-2.4716-2.2244-0.6161-0.0132-1.214 0.2099-1.6708 0.6235-0.4569 0.4137-0.7381 0.9865-0.7859 1.6009h4.9283zm6.0751 1.1024c0 2.0267 1.3026 3.1636 2.8102 3.1636 0.5692 0.0163 1.1273-0.159 1.5849-0.4978s0.7882-0.8216 0.9386-1.3707l2.1082 0.7637c-0.477 1.5694-1.9772 3.2847-4.6292 3.2847-2.9659 0-5.2076-2.2936-5.2076-5.3534s2.2516-5.3287 5.1458-5.3287c2.7187 0 4.2017 1.693 4.607 3.3069l-2.1527 0.7959c-0.1154-0.5523-0.4245-1.0452-0.8713-1.3896-0.4469-0.3445-1.0022-0.5178-1.5657-0.4888-1.4656-0.0124-2.7682 1.0825-2.7682 3.1142zm12.786 5.3237c-2.3999 0-3.8038-1.777-3.8038-4.0089v-6.3445h2.395v5.9095c0 1.2358 0.5808 2.2961 2.0267 2.2961 1.3865 0 2.1058-0.9293 2.1058-2.254v-5.9516h2.3974v8.2254c-3e-4 0.6144 0.0343 1.2284 0.1038 1.8389h-2.2961c-0.0553-0.3698-0.0826-0.7433-0.0815-1.1172-0.4919 0.9096-1.6708 1.4063-2.8473 1.4063zm13.557-7.9757c-0.26-0.0414-0.5227-0.0628-0.786-0.0643-1.8611 0-2.7063 1.0751-2.7063 2.9659v4.7949h-2.3999v-10.074h2.3381v1.6115c0.4745-1.0949 1.5892-1.7301 2.9115-1.7301 0.2156 9.1e-4 0.4307 0.02163 0.6426 0.06183v2.4345zm2.5853-7.4815c0.2061 0 0.4102 0.0406 0.6006 0.11947s0.3634 0.19447 0.5091 0.34021c0.1458 0.14574 0.2614 0.31875 0.3402 0.50917 0.0789 0.19041 0.1195 0.3945 0.1195 0.6006-0.0019 0.3076-0.0948 0.60776-0.2669 0.86271-0.1722 0.25495-0.4158 0.4533-0.7004 0.57011-0.2846 0.11682-0.5973 0.14687-0.8989 0.08638-0.3016-0.0605-0.5786-0.20883-0.7961-0.42634s-0.3658-0.49449-0.4263-0.79609-0.0305-0.61436 0.0863-0.89892c0.1169-0.28457 0.3152-0.52823 0.5702-0.70035 0.2549-0.17212 0.5551-0.26499 0.8627-0.26695zm-1.179 15.168v-10.064h2.3777v10.064h-2.3777zm7.9857-10.064h2.0885v2.128h-2.0885v4.6688c0 0.8898 0.393 1.263 1.2827 1.263 0.2768-0.0066 0.5528-0.0339 0.8255-0.0815v1.9772c-0.4694 0.1725-0.9685 0.2498-1.4681 0.2274-1.8586 0-3.0153-1.1172-3.0153-2.998v-5.0569h-1.8611v-2.128h0.519c1.0727 0 1.5497-0.68215 1.5497-1.5694v-1.5077h2.1676v3.0771zm4.9431 14.132 2.4197-5.2669-4.303-8.8656h2.7187l2.872 6.3643 2.7187-6.3643h2.5433l-6.4088 14.132h-2.5606zm8.223-5.6871c0.1106-3e-4 0.2203 0.0212 0.3225 0.0635 0.1023 0.0423 0.1952 0.1044 0.2733 0.1828 0.0781 0.0783 0.14 0.1714 0.1819 0.2738 0.042 0.1024 0.0633 0.212 0.0626 0.3227 7e-4 0.1101-0.0207 0.2192-0.0628 0.3209s-0.1041 0.194-0.1824 0.2713c-0.0783 0.0774-0.1713 0.1383-0.2735 0.1793-0.1022 0.0409-0.2116 0.0609-0.3216 0.0589-0.1097 2e-3 -0.2187-0.0181-0.3205-0.059-0.1018-0.041-0.1944-0.1021-0.2721-0.1796s-0.139-0.1698-0.1803-0.2715c-0.0413-0.1016-0.0617-0.2106-0.06-0.3203-2e-3 -0.1104 0.0181-0.2201 0.0591-0.3226 0.0411-0.1025 0.1022-0.1957 0.1798-0.2743 0.0776-0.0785 0.1701-0.1407 0.2721-0.1829 0.102-0.0423 0.2115-0.0637 0.3219-0.063zm7.6989-1.2902c0 1.7697-1.236 3.0821-2.966 3.0821s-2.966-1.3124-2.966-3.0821c0-1.7696 1.236-3.0721 2.966-3.0721s2.966 1.3148 2.966 3.0721zm-1.157 0c0-1.3346-0.842-2.0588-1.804-2.0588-0.961 0-1.809 0.7242-1.809 2.0588 0 1.3347 0.845 2.0761 1.809 2.0761s1.804-0.7266 1.804-2.0761zm5.616-1.7474c-0.164-0.0223-0.329-0.0339-0.495-0.0346-0.951 0-1.589 0.4943-1.589 1.782v2.9041h-1.134v-5.7958h1.109v1.0133c0.143-0.3384 0.384-0.6258 0.693-0.824 0.309-0.1981 0.671-0.2978 1.038-0.2857 0.125 9e-4 0.25 0.0133 0.373 0.0371l5e-3 1.2036zm1.718 4.7108c0.03 0.394 0.21 0.7612 0.504 1.0258 0.293 0.2645 0.677 0.4061 1.072 0.3954 1.219 0 1.772-0.6253 1.772-1.8809v-0.828c-0.276 0.5314-0.902 0.9491-1.772 0.9491-1.542 0-2.662-1.1665-2.662-2.8052 0-1.567 1.076-2.8176 2.662-2.8176 0.893 0 1.483 0.3361 1.785 0.9145v-0.8082h1.119v5.3608c0 1.483-0.721 2.9066-2.904 2.9066-1.443 0-2.526-0.917-2.671-2.1577l1.095-0.2546zm3.398-3.1438c0-1.1196-0.675-1.8537-1.651-1.8537s-1.676 0.7415-1.676 1.8537 0.653 1.8561 1.676 1.8561c0.976 0 1.651-0.7365 1.651-1.8561z"/>
<path d="m20.459 21.179c-0.59 0-1.1557-0.2343-1.5729-0.6515s-0.6515-0.983-0.6515-1.5729v-7.6396c0-0.59 0.2343-1.1558 0.6515-1.573 0.4172-0.41716 0.9829-0.65152 1.5729-0.65152 0.5899 0 1.1557 0.23436 1.5729 0.65152 0.4172 0.41715 0.6515 0.98295 0.6515 1.573v7.6396c0 0.5899-0.2343 1.1557-0.6515 1.5729s-0.983 0.6515-1.5729 0.6515z"/>
<path d="m7.2244 21.179c-0.58995 0-1.1557-0.2343-1.5729-0.6515s-0.65152-0.983-0.65152-1.5729v-7.6396c0-0.59 0.23436-1.1558 0.65152-1.573 0.41716-0.41716 0.98295-0.65152 1.5729-0.65152s1.1557 0.23436 1.5729 0.65152c0.41716 0.41715 0.65152 0.98295 0.65152 1.573v7.6396c0 0.5899-0.23436 1.1557-0.65152 1.5729s-0.98295 0.6515-1.5729 0.6515z"/>
<path d="m16.068 15.133v-7.6372c0-0.58995-0.2344-1.1557-0.6515-1.5729-0.4172-0.41716-0.983-0.65152-1.5729-0.65152-0.59 0-1.1558 0.23436-1.5729 0.65152-0.4172 0.41716-0.6516 0.98295-0.6516 1.5729v7.6372 7e-4h-0.0019v7.6372c0 0.2921 0.0575 0.5813 0.1693 0.8512s0.2756 0.5151 0.4822 0.7217c0.2066 0.2065 0.4518 0.3704 0.7217 0.4822 0.2698 0.1117 0.5591 0.1693 0.8512 0.1693s0.5814-0.0576 0.8513-0.1693c0.2698-0.1118 0.5151-0.2757 0.7216-0.4822 0.2066-0.2066 0.3704-0.4518 0.4822-0.7217s0.1693-0.5591 0.1693-0.8512v-7.5442c0.0013-0.031 2e-3 -0.0621 2e-3 -0.0932v-5e-4zm-2e-3 0.0937v-0.0905l-4.4469-0.0025c1e-4 0.1449 0.0142 0.2902 0.0428 0.4338 0.0858 0.4315 0.2977 0.8278 0.6088 1.1389 0.311 0.3111 0.7074 0.5229 1.1389 0.6088 0.4315 0.0858 0.8787 0.0418 1.2852-0.1266s0.7539-0.4535 0.9983-0.8193c0.2271-0.3399 0.3558-0.7353 0.3729-1.1426zm2e-3 -0.0937h-4.4489c1e-4 -0.2906 0.0571-0.5797 0.1694-0.8507 0.1683-0.4065 0.4534-0.7539 0.8192-0.9983 0.3658-0.2445 0.7959-0.3749 1.2359-0.3749 0.5899 0 1.1557 0.2343 1.5729 0.6515 0.417 0.417 0.6513 0.9826 0.6515 1.5724z" clip-rule="evenodd" fill-rule="evenodd"/>
</g>
<defs>
<clipPath id="a">
<rect transform="translate(5 5)" width="112.1" height="20" fill="#fff"/>
</clipPath>
</defs>
</svg>
