<?xml version="1.0" encoding="UTF-8"?>
<svg viewBox="0 0 136 24" xmlns="http://www.w3.org/2000/svg">
<path d="m11.528 1.3587c0.1557-0.44778 0.7889-0.44778 0.9446 0l2.2348 6.4294c0.0687 0.19754 0.253 0.33148 0.4621 0.33574l6.8053 0.13868c0.474 0.00966 0.6697 0.61193 0.2919 0.89833l-5.4241 4.1123c-0.1666 0.1263-0.237 0.343-0.1765 0.5432l1.9711 6.5151c0.1373 0.4537-0.3751 0.826-0.7642 0.5552l-5.5871-3.8879c-0.1717-0.1194-0.3995-0.1194-0.5712 0l-5.5871 3.8879c-0.38912 0.2708-0.90144-0.1015-0.76417-0.5552l1.9711-6.5151c0.06055-0.2002-0.00986-0.4169-0.17651-0.5432l-5.4241-4.1123c-0.37776-0.2864-0.18207-0.88867 0.29189-0.89833l6.8053-0.13868c0.20909-0.00426 0.39343-0.1382 0.4621-0.33573l2.2348-6.4294z" fill="#FF8C5A"/>
<path d="m39.528 1.3587c0.1557-0.44778 0.7889-0.44778 0.9446 0l2.2348 6.4294c0.0687 0.19754 0.253 0.33148 0.4621 0.33574l6.8053 0.13868c0.474 0.00966 0.6697 0.61193 0.2919 0.89833l-5.4241 4.1123c-0.1666 0.1263-0.237 0.343-0.1765 0.5432l1.9711 6.5151c0.1373 0.4537-0.3751 0.826-0.7642 0.5552l-5.5871-3.8879c-0.1717-0.1194-0.3995-0.1194-0.5712 0l-5.5871 3.8879c-0.3891 0.2708-0.9015-0.1015-0.7642-0.5552l1.9711-6.5151c0.0605-0.2002-0.0099-0.4169-0.1765-0.5432l-5.4241-4.1123c-0.3778-0.2864-0.1821-0.88867 0.2919-0.89833l6.8053-0.13868c0.2091-0.00426 0.3934-0.1382 0.4621-0.33573l2.2348-6.4294z" fill="#FF8C5A"/>
<path d="m67.528 1.3587c0.1557-0.44778 0.7889-0.44778 0.9446 0l2.2348 6.4294c0.0687 0.19754 0.253 0.33148 0.4621 0.33574l6.8053 0.13868c0.474 0.00966 0.6697 0.61193 0.2919 0.89833l-5.4241 4.1123c-0.1666 0.1263-0.237 0.343-0.1765 0.5432l1.9711 6.5151c0.1373 0.4537-0.3751 0.826-0.7642 0.5552l-5.5871-3.8879c-0.1717-0.1194-0.3995-0.1194-0.5712 0l-5.5871 3.8879c-0.3891 0.2708-0.9015-0.1015-0.7642-0.5552l1.9711-6.5151c0.0605-0.2002-0.0099-0.4169-0.1765-0.5432l-5.4241-4.1123c-0.3778-0.2864-0.1821-0.88867 0.2919-0.89833l6.8053-0.13868c0.2091-0.00426 0.3934-0.1382 0.4621-0.33573l2.2348-6.4294z" fill="#FF8C5A"/>
<path d="m95.528 1.3587c0.1557-0.44778 0.7889-0.44778 0.9446 0l2.2348 6.4294c0.0687 0.19754 0.253 0.33148 0.4621 0.33574l6.8058 0.13868c0.474 0.00966 0.669 0.61193 0.291 0.89833l-5.424 4.1123c-0.166 0.1263-0.237 0.343-0.176 0.5432l1.971 6.5151c0.137 0.4537-0.375 0.826-0.764 0.5552l-5.5874-3.8879c-0.1717-0.1194-0.3995-0.1194-0.5712 0l-5.5871 3.8879c-0.3891 0.2708-0.9015-0.1015-0.7642-0.5552l1.9711-6.5151c0.0605-0.2002-0.0099-0.4169-0.1765-0.5432l-5.4241-4.1123c-0.3778-0.2864-0.1821-0.88867 0.2919-0.89833l6.8053-0.13868c0.2091-0.00426 0.3934-0.1382 0.4621-0.33573l2.2348-6.4294z" fill="#FF8C5A"/>
<path d="m123.53 1.3587c0.155-0.44778 0.789-0.44778 0.944 0l2.235 6.4294c0.069 0.19754 0.253 0.33148 0.462 0.33574l6.806 0.13868c0.474 0.00966 0.669 0.61193 0.291 0.89833l-5.424 4.1123c-0.166 0.1263-0.237 0.343-0.176 0.5432l1.971 6.5151c0.137 0.4537-0.375 0.826-0.764 0.5552l-5.587-3.8879c-0.172-0.1194-0.4-0.1194-0.572 0l-5.587 3.8879c-0.389 0.2708-0.901-0.1015-0.764-0.5552l1.971-6.5151c0.061-0.2002-0.01-0.4169-0.176-0.5432l-5.424-4.1123c-0.378-0.2864-0.183-0.88867 0.291-0.89833l6.806-0.13868c0.209-0.00426 0.393-0.1382 0.462-0.33573l2.235-6.4294z" fill="#FF8C5A"/>
</svg>
