<?xml version="1.0" encoding="UTF-8"?>
<svg fill="none" viewBox="0 0 45 30" xmlns="http://www.w3.org/2000/svg">
<path d="m13.599 8.5655c-0.5302-2.5905-0.6976-2.6741-1.9254-2.7577v-0.44568h5.4693v0.44568c-1.479 0.13928-1.5348 0.13928-0.9767 3.1476l1.7859 9.5265 2.1486-10.251c0.4465-2.0891 0.279-2.312-1.1162-2.3956l-0.4464-0.02785v-0.44568h3.8787v0.44568c-1.172 0.11142-1.172 0.38997-1.6464 2.6462l-3.5159 16.546h-0.3349l-2.9857-14.819-3.1532 14.819h-0.3349l-3.5717-17.354c-0.30695-1.532-0.36276-1.7549-1.6464-1.8384v-0.44568h5.3018v0.44568c-1.3394 0.13928-1.3952 0.27855-0.83708 3.1476l1.8138 9.4429 2.0649-9.8328h0.0279zm14.175 16.323c-1.9254 0-3.0695-1.7827-3.516-1.7827-0.4743 0-1.0045 1.0306-1.1719 1.4484h-0.3907v-6.351h0.3907c1.1998 3.4819 3.0694 6.2396 4.6321 6.2396 0.9208 0 1.5068-0.8357 1.5068-2.0891 0-4.5961-6.4459-7.5766-6.4459-13.259 0-2.312 1.6185-4.0947 3.3764-4.0947 1.5906 0 2.4556 1.2813 2.9858 1.2813 0.279 0 0.4743-0.19499 0.8092-1.0306h0.3069v5.6824h-0.3906c-0.7534-2.7576-2.2882-5.5153-3.7671-5.5153-0.9208 0-1.5905 0.86351-1.5905 2.0891 0 4.4289 6.4459 7.2423 6.4459 13.12 0 2.4513-1.479 4.2619-3.1811 4.2619zm6.697 0c-1.9533 0-2.7346-1.2256-2.7346-2.4234s0.7255-2.3956 1.7858-2.3956c1.1441 0 1.6185 1.1421 1.0883 1.9778-0.4465 0.6963-1.6184 0.7799-1.6184 1.337 0 0.8357 0.6976 1.0585 1.2836 1.0585 1.7021 0 1.5905-1.0585 1.5905-4.6518v-12.73c0-1.0028-0.2232-1.2535-1.3115-1.2535h-0.4186v-0.44568h5.6367v0.44568h-0.4744c-0.586 0-0.8092 0.2507-0.8092 1.2813v12.451c0 3.5097-2.5114 5.3482-4.0182 5.3482z" clip-rule="evenodd" fill="#fff" fill-rule="evenodd"/>
</svg>
