<svg width="32" height="32" viewBox="0 0 32 32" fill="none" xmlns="http://www.w3.org/2000/svg">
<mask id="mask0" style="mask-type:alpha" maskUnits="userSpaceOnUse" x="0" y="0" width="32" height="32">
<circle cx="16" cy="16" r="16" fill="white"/>
</mask>
<g mask="url(#mask0)">
<circle cx="16" cy="16" r="16" fill="white" fill-opacity="0.25098"/>
<path d="M16 4C18.3588 4 20.0977 4.6336 21.1694 5.8832C22.2623 7.15752 22.2986 8.67098 22.2722 9.20634L22.2609 9.3632V12.2C22.553 12.5402 22.7334 12.9637 22.7739 13.4083L22.7826 13.6V15.7333C22.7826 16.5733 22.3047 17.3173 21.5685 17.6624C21.1918 18.7829 20.6737 19.8219 20.0273 20.7552C19.9407 20.8804 19.8559 20.9977 19.7737 21.1063L19.6522 21.2624V23.0656C19.6522 23.5543 19.8936 23.9981 20.2907 24.2555L20.4144 24.3269L25.3986 26.8741C26.9361 27.6602 27.9159 29.2075 27.9948 30.9489L28 31.1771V32.8C28 35.3312 20.1504 36 16 36L15.3029 35.9941C11.1117 35.9243 4.26434 35.2228 4.00744 32.9338L4 32.8V31.0731C4 29.3875 4.85972 27.8338 6.25908 26.963L6.45322 26.8485L11.1077 24.2533C11.5103 24.0284 11.7746 23.6165 11.8193 23.1556L11.8261 23.016V21.2512L11.7029 21.0817C11.2817 20.4872 10.4286 19.1324 9.99844 17.3915C9.55069 17.0244 9.27154 16.4908 9.22448 15.9091L9.21739 15.7333V13.6C9.21739 13.1506 9.3612 12.7134 9.62084 12.3507L9.73913 12.2V9.3632L9.7278 9.20632C9.7014 8.67087 9.73769 7.15698 10.8306 5.88267C11.9023 4.6336 13.6412 4 16 4Z" fill="#222E3A" fill-opacity="0.74902"/>
</g>
</svg>
