<svg width="675" height="129" viewBox="0 0 675 129" fill="none" xmlns="http://www.w3.org/2000/svg">
<path fill-rule="evenodd" clip-rule="evenodd" d="M250.999 78.3262L246.985 91.9073H205.891V89.993L211.21 86.3345V42.6397L205.891 38.9812V37.0669H248.904L249.864 38.024L247.161 50.2997H245.242C243.497 42.7248 240.965 41.6825 228.401 41.6825H222.38V61.7884L242.185 60.5707L242.622 60.9164L240.789 67.3586L240.266 67.5341L222.38 65.7952V87.2917H228.052C238.259 87.2917 243.584 85.7282 249.08 77.6322L250.999 78.3262ZM674.263 38.9812L668.94 42.6397V91.2082L668.245 91.9073H659.78L628.541 48.8213V86.3345L634.826 89.993V91.9073H617.547V89.993L622.872 86.3345V42.4668L616.764 38.9812V37.0669H633.253L663.269 78.6745V42.6397L656.987 38.9812V37.0669H674.263V38.9812ZM584.392 86.3345L590.674 89.993V91.9073H567.991V89.993L573.313 86.3345V42.6397L567.991 38.9812V37.0669H591.026C607.078 37.0669 615.367 42.5519 615.367 53.0835C615.367 65.096 603.678 73.2797 586.314 73.2797C585.528 73.2797 584.829 73.2797 584.392 73.1894V86.3345ZM563.628 38.9812L558.217 42.5519L540.243 91.9073H529.859L510.75 42.8125L505.169 38.9812V37.0669H527.679V38.9812L522.184 42.7248L537.714 82.5032H538.324L551.413 42.6397L545.827 38.9812V37.0669H563.628V38.9812ZM584.392 68.6667C596.607 69.015 604.024 63.1816 604.024 53.3492C604.024 45.2506 599.84 41.1613 591.46 41.1613C589.104 41.1613 586.402 41.7676 584.392 42.7248V68.6667ZM352.65 69.1879C352.65 82.8541 343.487 92.6039 330.659 92.6039C326.909 92.6039 323.767 91.6442 320.716 90.3413V103.744L326.997 107.4V109.315H304.746V107.4L310.159 103.744V56.0453L304.746 52.8229V50.906L319.143 48.0344L320.716 49.0819V55.1733C324.119 50.8208 329.527 48.1247 335.113 48.1247C345.494 48.1247 352.65 57.1754 352.65 69.1879ZM387.812 57.6991H385.893C384.497 56.8271 383.012 56.3911 381.528 56.3911C378.303 56.3911 375.248 57.6114 372.543 59.9592V86.3345L379.001 89.993V91.9073H356.488V89.993L361.898 86.3345V56.0453L356.488 52.8229V50.906L370.971 48.0344L372.543 49.0819V55.955C375.334 51.4297 380.222 48.2099 385.107 48.2099C387.378 48.2099 389.297 48.8213 390.866 49.9488L387.812 57.6991ZM420.618 69.709C414.773 69.709 408.23 69.5362 401.077 69.2756C402.036 79.0254 407.356 84.6808 416.082 84.6808C421.316 84.6808 424.72 83.3753 427.598 80.9398L429.432 82.333C426.553 89.2061 420.096 92.9497 411.719 92.9497C398.894 92.9497 390.256 84.1596 390.256 70.7539C390.256 57.9597 398.806 48.0344 411.807 48.0344C417.828 48.0344 422.364 49.9488 425.594 53.695C428.822 57.4385 430.391 62.3096 430.306 68.3158L428.995 69.6239C427.252 69.709 424.459 69.709 420.618 69.709ZM437.894 79.5466H439.728C443.131 85.1168 448.104 88.3366 452.379 88.3366C456.22 88.3366 458.576 86.3345 458.576 83.2024C458.576 79.6317 456.481 77.7173 451.244 75.7178L447.318 74.2369C439.903 71.4505 435.453 67.0129 435.453 61.1795C435.453 53.9555 442.259 48.3853 452.379 48.3853C458.224 48.3853 463.808 49.7785 467.912 52.214L463.722 59.3529H461.977C459.098 54.9127 455.522 52.6501 451.332 52.6501C447.582 52.6501 445.138 54.7373 445.138 57.6114C445.138 60.7435 447.406 62.6579 454.125 65.2714L458.576 67.0129C465.38 69.6239 468.347 73.7158 468.347 79.0254C468.347 87.3794 461.628 92.6039 451.42 92.6039C445.138 92.6039 438.768 90.9502 434.144 88.0786L437.894 79.5466ZM476.198 79.5466H478.032C481.435 85.1168 486.409 88.3366 490.681 88.3366C494.522 88.3366 496.878 86.3345 496.878 83.2024C496.878 79.6317 494.785 77.7173 489.548 75.7178L485.622 74.2369C478.205 71.4505 473.757 67.0129 473.757 61.1795C473.757 53.9555 480.561 48.3853 490.681 48.3853C496.531 48.3853 502.112 49.7785 506.214 52.214L502.027 59.3529H500.278C497.4 54.9127 493.826 52.6501 489.636 52.6501C485.884 52.6501 483.44 54.7373 483.44 57.6114C483.44 60.7435 485.71 62.6579 492.429 65.2714L496.878 67.0129C503.684 69.6239 506.651 73.7158 506.651 79.0254C506.651 87.3794 499.932 92.6039 489.722 92.6039C483.44 92.6039 477.072 90.9502 472.446 88.0786L476.198 79.5466ZM282.848 69.8845L295.673 86.3345L300.471 89.993V91.9073H278.747V89.993L283.285 86.5951L274.557 74.7607L266.18 86.5951L271.241 89.993V91.9073H253.966V89.993L259.291 86.4223L271.766 71.1048L259.027 54.9127L254.141 51.084V49.1696H275.778V51.084L271.329 54.4767L279.967 66.2286L288.344 54.4767L283.285 51.084V49.1696H300.559V51.084L295.236 54.6521L282.848 69.8845ZM419.222 64.0511C418.262 56.3911 414.688 52.7352 409.888 52.7352C404.653 52.7352 401.162 57.872 400.901 65.1863L419.222 64.0511ZM342.178 73.6255C342.178 63.9659 337.469 55.955 329.876 55.955C326.736 55.955 323.682 57.0025 320.716 59.1775V82.0698C323.159 85.8134 326.909 87.6426 331.358 87.6426C337.991 87.6426 342.178 82.4181 342.178 73.6255ZM41.7879 129C23.7284 129 12.2095 118.879 12.2095 104.812C12.2095 100.179 13.5853 94.5209 18.9155 83.027H0L17.3664 45.9704H138.253C141.005 45.9704 142.896 43.9142 142.896 41.5148C142.896 39.1102 141.005 37.0514 138.253 37.0514H40.4095L49.0086 18.6973C54.3388 7.37622 65.8603 0 78.4112 0H119.511C143.24 0 160.779 16.2953 160.779 37.5648C160.779 62.7843 137.566 83.027 110.741 83.027H31.2983C28.8879 88.0012 31.6397 91.9486 37.4871 91.9486H100.766C111.256 91.9486 119.338 99.3223 119.338 108.757C119.338 119.565 108.851 129 96.9828 129H41.7879Z" fill="white" fill-opacity="0.501961"/>
</svg>
