<?xml version="1.0" encoding="utf-8"?>
<!-- Generator: Adobe Illustrator 25.4.1, SVG Export Plug-In . SVG Version: 6.00 Build 0)  -->
<svg version="1.1" id="Layer_1" xmlns="http://www.w3.org/2000/svg" xmlns:xlink="http://www.w3.org/1999/xlink" x="0px" y="0px"
	 viewBox="0 0 90.3 63.5" style="enable-background:new 0 0 90.3 63.5;" xml:space="preserve">
<style type="text/css">
	.st0{display:none;opacity:0.54;fill:#FFFFFF;enable-background:new    ;}
	.st1{opacity:0.1;}
	.st2{fill:#3B4751;}
	.st3{fill:#637D99;}
	.st4{fill:#8EA1B0;}
	.st5{opacity:0.1;enable-background:new    ;}
	.st6{fill:#FFFFFF;}
	.st7{opacity:0.1;fill:#FFFFFF;enable-background:new    ;}
	.st8{fill:#FFAA01;}
	.st9{font-family:'Gilroy-ExtraBold';}
	.st10{font-size:5.9315px;}
	.st11{fill:#F88800;}
	.st12{fill:#46497C;}
	.st13{fill:#2E3062;}
	.st14{opacity:0.4;fill:#FFFFFF;enable-background:new    ;}
	.st15{fill:#647E99;}
	.st16{fill:#FF8192;}
</style>
<rect x="-17.5" y="-29.9" class="st0" width="125.1" height="127.9"/>
<g>
	<g id="Background_00000077321371601238209310000004283159251137981626_" class="st1">
		<path class="st2" d="M55.3,2.8c-9,5.2-6.7,10.5-14.4,20.7c-3,3.9-5,3.5-8,8.5c-8.2,13.6,12.2,31.1,24,21.6
			c11.9-9.4,22-0.1,31.6-16.5c5.9-9.9-8-14.7-11.2-23.3C72.2,0.6,63.7-2.2,55.3,2.8z M77.7,33.3c-0.1-0.2,0-0.6,0.2-0.7
			c0.2-0.1,0.6,0,0.7,0.2c0.1,0.2,0,0.6-0.2,0.7C78.1,33.7,77.8,33.5,77.7,33.3z"/>
		<path class="st2" d="M22.7,14.6c-5.6,4.5-2.7,7.8-6,15.7c-1.3,3-3,3-4.1,6.7c-2.9,10.1,17.2,19.3,24,11.5
			c6.9-7.7,17-2.8,20.3-14.9c2-7.4-9.8-9-14.5-14.4C35.1,11,28,10.2,22.7,14.6z M47.6,32.4c-0.1-0.1-0.1-0.3,0-0.4
			c0.2-0.1,0.3-0.1,0.6,0.1c0.1,0.1,0.1,0.3,0,0.4C48,32.5,47.7,32.5,47.6,32.4z"/>
		<path id="Background_00000120540320885827229260000006368397916274691731_" class="st2" d="M65,43.9c0,0,4.2,1.4,6.3,4.1
			c2,2.5,7,7-9.2,10.2c-14.8,3.1-44,4.4-37.8-2C30.5,49.7,0,54.6,0,47.9C0,37.8,65,43.9,65,43.9z"/>
		<path id="Background_00000153670191204523817410000016418130365284968582_" class="st2" d="M43.1,53c0,0-4.1-1.7-6.1-4.1
			c-2-2.5-6.9-7.1,9.4-9.9c14.9-2.8,44-3.3,37.7,3c-6.3,6.3,6.4,2.5,6.2,9.3C90,61.2,43.1,53,43.1,53z"/>
	</g>
	<g>
		<path class="st3" d="M42.2,47.2c-20.8,4.6-38.4,5.6-39.1,2.2c-0.4-2,4.8-5,13.2-8.1c0.2-0.1,0.4-0.2,0.7-0.2l1-20.7
			c1.8-6.3,7.6-4.3,9.7-3.8s6.9,0.7,9.4-0.1c2.5-0.8,3.6-1.8,8.8-5.2c5.1-3.3,8.3,1.3,8.3,1.3l9.5,18c8.6-0.8,14.4-0.2,14.8,1.8
			C79.2,36,63,42.6,42.2,47.2z"/>
		<path class="st4" d="M63.7,30.7c0.6,2.7-9.4,7.3-22.3,10.2c-12.9,2.9-23.9,3.1-24.4,0.3c-0.1-0.4-0.4-1.2,0-1.8
			c3.2,1.4,13.2,1.1,23.9-1.3s19.8-6.3,22.1-9C63.6,29.4,63.6,30.2,63.7,30.7z"/>
	</g>
	<g>
		<g>
			<path class="st5" d="M37.2,47.9l5.1-39.7c0.3-2.1,2.4-3.9,4.5-3.5L49.3,5c3.5,0.4,6.1,3.6,5.6,7.3l-4.8,37.2
				c-0.4,3.5-3.6,6.1-7.3,5.6l0,0C39.2,54.8,36.8,51.2,37.2,47.9z"/>
			<path class="st4" d="M41.7,58.6L76.3,63c1.2,0.1,2.5-0.7,2.7-2.1l6.3-49.2c0.1-1.2-0.7-2.5-2.1-2.7L48.6,4.7
				c-1.2-0.1-2.5,0.7-2.7,2.1L39.7,56C39.5,57.2,40.2,58.5,41.7,58.6z"/>
			<path class="st6" d="M47.7,9.4l-5.4,42c-0.1,1,0.6,1.5,1.4,1.7l31.5,4.1c1,0.1,1.8-0.6,1.9-1.2l5.4-42c0.1-1-0.6-1.5-1.4-1.7
				L49.6,8.2C48.7,7.8,47.9,8.4,47.7,9.4z"/>
			<path class="st3" d="M49.6,8l31.5,4.1c1,0.1,1.5,0.9,1.4,1.7l-5.4,42.3c-0.1,1-0.9,1.3-1.9,1.2l-31.5-4.1c-1-0.1-1.5-0.9-1.4-1.7
				l5.4-42C47.9,8.4,48.7,7.8,49.6,8z"/>
			<path class="st3" d="M64,8.3l3.1,0.4c0,0,0.2,0,0.2-0.2c0,0,0-0.2-0.2-0.2L64,7.9C64,8.1,64,8.1,64,8.3L64,8.3z"/>
			<ellipse class="st6" cx="58.7" cy="58.3" rx="1.7" ry="1.7"/>
		</g>
		<path class="st7" d="M81.9,12.6L53.4,54.3l-9.5-1.2c-1-0.1-1.3-0.9-1.2-1.9l1.5-11.7l22-29.4l15,2C81.5,12.1,81.7,12.3,81.9,12.6z
			"/>
		<g>
			<path class="st6" d="M76.4,39.8L76.4,39.8c-0.1,0.8-0.9,1.4-1.7,1.3L49.4,38c-0.8-0.1-1.4-0.9-1.3-1.7l0,0
				c0.1-0.8,0.9-1.4,1.7-1.3l25.4,3.2C75.8,38.3,76.4,39.1,76.4,39.8z"/>
			<path class="st8" d="M75,38.2l-4-0.6l-0.3,3l4.1,0.6c0.8,0.1,1.5-0.6,1.7-1.3l0,0C76.4,39.1,75.8,38.3,75,38.2z"/>
			<g>
				<g>
					<path class="st6" d="M73.8,39.7c-0.2-0.3-0.2-0.7,0.1-1c0.3-0.2,0.7-0.2,1,0.1c0.2,0.3,0.2,0.7-0.1,1
						C74.5,40.1,74.1,40.2,73.8,39.7z M74.7,39.1c-0.1-0.2-0.4-0.2-0.7-0.1c-0.2,0.1-0.2,0.4-0.1,0.7s0.4,0.2,0.7,0.1
						C74.8,39.5,74.9,39.3,74.7,39.1z"/>
				</g>
				<g>
					<path class="st6" d="M72.9,40.5c0-0.1,0-0.1,0-0.2l0.9-0.8c0.1-0.1,0.1-0.1,0.1,0c0,0.1,0.1,0.1,0,0.1L72.9,40.5
						C73.1,40.6,72.9,40.6,72.9,40.5z"/>
				</g>
			</g>
		</g>
		<text transform="matrix(0.9918 0.1279 -0.1279 0.9918 51.2275 31.7479)" class="st6 st9 st10">HISTORY</text>
		<g>
			<path class="st8" d="M31.4,52.5l1.9,1.7c0.2,0.1,0.6,0.1,0.8-0.1l4-4.8l1.7-2L36.9,45l-1,1.2l-4.6,5.5
				C31.2,52,31.2,52.3,31.4,52.5z"/>
			<path class="st11" d="M36,46c0.4,1,1,2.2,2,3.1l1.7-1.9l-2.8-2.3L36,46z"/>
			<path class="st12" d="M25.3,61.7L25.3,61.7c0.6,0.4,1.2,0.2,1.7-0.1l6.4-7.7l-1.8-1.3l-6.4,7.7C24.8,60.7,24.9,61.5,25.3,61.7z"
				/>
			<g>
				<path class="st13" d="M36.3,32.7c-3.5,4.3-3,10.6,1.3,14.3c4.4,3.4,10.6,2.9,14.4-1.4c3.5-4.3,3-10.6-1.3-14.3
					C46.3,27.7,40,28.2,36.3,32.7z M37.6,33.5c3-3.6,8.4-4.1,12-1.1c3.6,3,4.1,8.4,1.1,12c-3,3.6-8.4,4.1-12,1.1
					C35,42.6,34.6,37.2,37.6,33.5z"/>
				<path class="st14" d="M35.9,36.5c-1.3,4.4,1.2,9.2,5.7,10.7c0.4,0.1,0.8,0.2,1.2,0.2c1,0.1,2,0.1,3,0c1-0.1,1.9-0.6,2.9-1.1
					c1.3-0.8,2.4-2,3.2-3.5c0.1-0.4,0.4-0.8,0.6-1.2c1.3-4.4-1.2-9.2-5.7-10.7c-0.4-0.1-0.8-0.2-1.3-0.2c-1.7-0.2-3.2,0-4.8,0.7
					c-1,0.4-1.8,1-2.4,1.8c-0.7,0.7-1.2,1.4-1.8,2.4C36.1,35.7,36,36.2,35.9,36.5z"/>
			</g>
		</g>
		<g id="XMLID_00000049911444475249827830000016333428198842342534_">
			<path id="XMLID_00000066509626127479801400000018445496547884732320_" class="st6" d="M64.9,25.9l-3-0.4
				c-0.6-0.1-0.9-0.6-0.9-1.1l0.3-2.2c0.1-0.6,0.6-0.9,1.1-0.9l3.1,0.4c0.6,0.1,0.9,0.6,0.9,1.1L66.1,25
				C65.9,25.6,65.4,25.9,64.9,25.9z"/>
			<path id="XMLID_00000109002934523930463770000015589528524556741541_" class="st6" d="M65.9,22.6L62,22l0.2-1.7
				c0.1-1.1,1.1-1.9,2.2-1.7c1.1,0.1,1.9,1.1,1.7,2.2L65.9,22.6z M62.7,21.6l2.8,0.3l0.1-1.1c0.1-0.7-0.3-1.4-1.2-1.5
				c-0.7-0.1-1.4,0.3-1.5,1.2L62.7,21.6z"/>
			<path id="XMLID_00000039842592825457762380000001975593157422182309_" class="st15" d="M64.3,23.4c0-0.3-0.2-0.6-0.4-0.7
				c-0.3,0-0.6,0.2-0.7,0.4c0,0.3,0.1,0.4,0.3,0.7l-0.1,0.6c0,0.1,0.1,0.3,0.2,0.3s0.3-0.1,0.3-0.2l0.1-0.6
				C64.1,23.8,64.3,23.6,64.3,23.4z"/>
		</g>
	</g>
	<g>
		<g>
			<g>
				<g>
					<g>
						<path class="st6" d="M75.2,55c-0.1,0-0.2,0.1-0.2,0.2v0.7c0,0.1,0.1,0.2,0.2,0.2s0.2-0.1,0.2-0.2v-0.8
							C75.3,55,75.3,55,75.2,55z"/>
					</g>
				</g>
				<g>
					<g>
						<path class="st6" d="M75.2,53.5c-0.1,0-0.2,0.1-0.2,0.2v0.8c0,0.1,0.1,0.2,0.2,0.2s0.2-0.1,0.2-0.2v-0.8
							C75.3,53.7,75.3,53.5,75.2,53.5z"/>
					</g>
				</g>
			</g>
			<g>
				<g>
					<g>
						<path class="st6" d="M76.2,54.6h-0.7c-0.1,0-0.2,0.1-0.2,0.2s0.1,0.2,0.2,0.2h0.7c0.1,0,0.2-0.1,0.2-0.2
							C76.4,54.6,76.3,54.6,76.2,54.6z"/>
					</g>
				</g>
				<g>
					<g>
						<path class="st6" d="M74.7,54.6h-0.7c-0.1,0-0.2,0.1-0.2,0.2s0.1,0.2,0.2,0.2h0.7c0.1,0,0.2-0.1,0.2-0.2
							C74.8,54.6,74.8,54.6,74.7,54.6z"/>
					</g>
				</g>
			</g>
		</g>
		<g>
			<g>
				<g>
					<g>
						<g>
							<path class="st16" d="M86,57c-0.1,0-0.3-0.1-0.3-0.3v-1.3c0-0.1,0.1-0.3,0.3-0.3c0.2,0,0.3,0.1,0.3,0.3v1.3
								C86.2,56.9,86.2,57,86,57z"/>
						</g>
						<g>
							<path class="st16" d="M86,59.3c-0.1,0-0.3-0.1-0.3-0.3v-1.3c0-0.1,0.1-0.3,0.3-0.3c0.2,0,0.3,0.1,0.3,0.3V59
								C86.2,59.2,86.2,59.3,86,59.3z"/>
						</g>
					</g>
					<g>
						<g>
							<path class="st16" d="M87.9,57.5h-1.1c-0.1,0-0.3-0.1-0.3-0.3s0.1-0.3,0.3-0.3h1.1c0.1,0,0.3,0.1,0.3,0.3S88,57.5,87.9,57.5z
								"/>
						</g>
						<g>
							<path class="st16" d="M85.3,57.5h-1.1c-0.1,0-0.3-0.1-0.3-0.3s0.1-0.3,0.3-0.3h1.1c0.1,0,0.3,0.1,0.3,0.3
								S85.5,57.5,85.3,57.5z"/>
						</g>
					</g>
				</g>
			</g>
		</g>
		<g>
			<g>
				<g>
					<g>
						<g>
							<path class="st16" d="M33.3,8.4c-0.1,0-0.3-0.1-0.3-0.3V6.7c0-0.1,0.1-0.3,0.3-0.3s0.3,0.1,0.3,0.3v1.4
								C33.6,8.3,33.6,8.4,33.3,8.4z"/>
						</g>
						<g>
							<path class="st16" d="M33.3,11.1c-0.1,0-0.3-0.1-0.3-0.3V9.3C32.9,9.2,33,9,33.3,9s0.3,0.1,0.3,0.3v1.4
								C33.6,11,33.6,11.1,33.3,11.1z"/>
						</g>
					</g>
					<g>
						<g>
							<path class="st16" d="M35.4,9.1H34c-0.1,0-0.3-0.1-0.3-0.3c0-0.1,0.1-0.3,0.3-0.3h1.3c0.1,0,0.3,0.1,0.3,0.3
								C35.7,9,35.6,9.1,35.4,9.1z"/>
						</g>
						<g>
							<path class="st16" d="M32.6,9.1h-1.3c-0.1,0-0.3-0.1-0.3-0.3c0-0.1,0.1-0.3,0.3-0.3h1.3c0.1,0,0.3,0.1,0.3,0.3
								C32.9,9,32.8,9.1,32.6,9.1z"/>
						</g>
					</g>
				</g>
			</g>
		</g>
	</g>
</g>
</svg>
