<?xml version="1.0" encoding="utf-8"?>
<!-- Generator: Adobe Illustrator 25.4.1, SVG Export Plug-In . SVG Version: 6.00 Build 0)  -->
<svg version="1.1" id="Layer_1" xmlns="http://www.w3.org/2000/svg" xmlns:xlink="http://www.w3.org/1999/xlink" x="0px" y="0px"
	 viewBox="0 0 90.3 63.5" style="enable-background:new 0 0 90.3 63.5;" xml:space="preserve">
<style type="text/css">
	.st0{display:none;opacity:0.54;fill:#FFFFFF;enable-background:new    ;}
	.st1{opacity:0.1;}
	.st2{fill:#3B4751;}
	.st3{fill:#8EA2B1;}
	.st4{fill:#647E99;}
	.st5{opacity:7.000000e-02;fill:#FFFFFF;enable-background:new    ;}
	.st6{fill:#FFFFFF;}
	.st7{fill:#FF8192;}
	.st8{fill:#FCBF1E;}
	.st9{opacity:0.2;fill:url(#SVGID_1_);enable-background:new    ;}
</style>
<rect x="-17.5" y="-30.4" class="st0" width="125.1" height="127.9"/>
<g>
	<g id="Background_00000163051256079821711590000010988136737280338061_" class="st1">
		<path class="st2" d="M70.6,10.9C60.9,6,57.4,11,44.1,10.2c-5.1-0.3-5.9-2.3-12-2.1C15.5,8.7,11.8,36,27,40.9
			c15,5,12.7,18.9,32.5,17.9c12-0.6,8.4-15.1,14-22.8C82.2,24.3,79.6,15.4,70.6,10.9z M56.6,47.4c0.1-0.2,0.5-0.3,0.7-0.1
			c0.2,0.1,0.3,0.3,0.1,0.7c-0.1,0.2-0.5,0.3-0.7,0.1C56.6,48,56.5,47.7,56.6,47.4z"/>
		<ellipse class="st2" cx="44" cy="60.1" rx="41.6" ry="2.8"/>
		<path class="st2" d="M49.1,6.9c-10.6,1.7-10.5,7.8-21.8,15c-4.4,2.7-6.2,1.6-11,5.4C3.5,37.7,16.6,61.9,31.8,56.9
			c15.1-4.9,21.4,7.8,36.9-4.7c9.3-7.6-2.2-17.1-2.1-26.7C66.5,10.9,59.3,5.2,49.1,6.9z M59.5,44.8c0-0.3,0.1-0.5,0.5-0.5
			c0.3,0,0.5,0.1,0.5,0.5s-0.1,0.5-0.5,0.5C59.8,45.1,59.6,44.9,59.5,44.8z"/>
	</g>
	<path class="st3" d="M16.7,0.2h54.4c0.9,0,1.6,0.7,1.6,1.6v56.4c0,0.9-0.7,1.6-1.6,1.6H16.7c-0.9,0-1.6-0.7-1.6-1.6V1.8
		C15.1,0.9,15.8,0.2,16.7,0.2z"/>
	<path class="st4" d="M70.2,4.5v51.1c0,0.9-0.7,1.6-1.6,1.6H19.3c-0.9,0-1.6-0.7-1.6-1.6V4.5c0-0.9,0.7-1.6,1.6-1.6c0,0,0,0,0.1,0
		h49.3C69.5,2.7,70.2,3.5,70.2,4.5z"/>
	<path class="st5" d="M23.7,2.7l-6.2,12.5v27.3L37,2.8L23.7,2.7L23.7,2.7z"/>
	<g>
		<path class="st6" d="M57.4,10.4c-13.7,2.2-15.1,12.8-15.1,12.8c-11.6,0.3-12.7,9.3-12.7,9.3s6.9-4.4,13.9-0.5S49.5,45,49.5,45
			c7.3-5.6,3.3-15.3,3.3-15.3C61.1,21.8,57.4,10.4,57.4,10.4z M51.5,23.1c-1.6,0.1-3.1-1.2-3.3-2.8c-0.1-1.6,1.2-3.1,2.8-3.3
			c1.6-0.1,3.1,1.2,3.3,2.8C54.4,21.5,53.1,23,51.5,23.1z"/>
		<path class="st6" d="M33.9,49.8l-0.5-0.2c-0.5-0.2-0.6-0.8-0.3-1.2l6.9-12.1c0.2-0.5,0.8-0.6,1.2-0.3l0.5,0.2
			c0.5,0.2,0.6,0.8,0.3,1.2L35,49.4C34.9,49.9,34.3,50.1,33.9,49.8z"/>
		<path class="st6" d="M39.5,48.6L39,48.4c-0.5-0.2-0.6-0.8-0.3-1.2l4.2-7.3c0.2-0.5,0.8-0.6,1.2-0.3l0.5,0.2
			c0.5,0.2,0.6,0.8,0.3,1.2l-4.2,7.3C40.4,48.6,39.9,48.8,39.5,48.6z"/>
		<path class="st6" d="M31.9,44.7l-0.6-0.2c-0.5-0.2-0.6-0.8-0.3-1.2l4.2-7.3c0.2-0.5,0.8-0.6,1.2-0.3l0.5,0.2
			c0.5,0.2,0.6,0.8,0.3,1.2l-4.2,7.3C32.8,44.8,32.2,44.9,31.9,44.7z"/>
	</g>
	<g>
		<g>
			<g>
				<g>
					<g>
						<g>
							<path class="st6" d="M67.2,5.6C67.1,5.6,67.1,5.7,67.2,5.6l-0.1,0.8c0,0.1,0.1,0.1,0.1,0.1c0.1,0,0.1-0.1,0.1-0.1V5.7
								C67.3,5.7,67.3,5.6,67.2,5.6z"/>
						</g>
					</g>
					<g>
						<g>
							<path class="st6" d="M67.2,4.3C67.1,4.3,67.1,4.5,67.2,4.3l-0.1,0.8c0,0.1,0.1,0.1,0.1,0.1c0.1,0,0.1-0.1,0.1-0.1V4.5
								C67.3,4.5,67.3,4.3,67.2,4.3z"/>
						</g>
					</g>
				</g>
				<g>
					<g>
						<g>
							<path class="st6" d="M68.1,5.3h-0.6c-0.1,0-0.1,0.1-0.1,0.1c0,0.1,0.1,0.1,0.1,0.1h0.6C68.2,5.5,68.2,5.4,68.1,5.3
								C68.2,5.4,68.2,5.3,68.1,5.3z"/>
						</g>
					</g>
					<g>
						<g>
							<path class="st6" d="M66.8,5.3h-0.6c-0.1,0-0.1,0.1-0.1,0.1c0,0.1,0.1,0.1,0.1,0.1h0.6C66.9,5.5,66.9,5.4,66.8,5.3
								C66.9,5.4,66.8,5.3,66.8,5.3z"/>
						</g>
					</g>
				</g>
			</g>
			<g>
				<g>
					<g>
						<g>
							<path class="st7" d="M81.4,22.4c-0.1,0-0.2-0.1-0.2-0.2V21c0-0.1,0.1-0.2,0.2-0.2c0.1,0,0.2,0.1,0.2,0.2v1.2
								C81.6,22.3,81.6,22.4,81.4,22.4z"/>
						</g>
						<g>
							<path class="st7" d="M81.4,24.5c-0.1,0-0.2-0.1-0.2-0.2v-1.2c0-0.1,0.1-0.2,0.2-0.2c0.1,0,0.2,0.1,0.2,0.2v1.2
								C81.6,24.4,81.6,24.5,81.4,24.5z"/>
						</g>
					</g>
					<g>
						<g>
							<path class="st7" d="M83.1,23h-1c-0.1,0-0.2-0.1-0.2-0.2c0-0.1,0.1-0.2,0.2-0.2h1c0.1,0,0.2,0.1,0.2,0.2
								C83.4,22.9,83.3,23,83.1,23z"/>
						</g>
						<g>
							<path class="st7" d="M80.9,23h-1c-0.1,0-0.2-0.1-0.2-0.2c0-0.1,0.1-0.2,0.2-0.2h1c0.1,0,0.2,0.1,0.2,0.2
								C81.2,22.9,81,23,80.9,23z"/>
						</g>
					</g>
				</g>
			</g>
			<g>
				<g>
					<g>
						<g>
							<path class="st7" d="M7.4,39.9c-0.1,0-0.3-0.1-0.3-0.3v-1.4c0-0.1,0.1-0.3,0.3-0.3c0.1,0,0.3,0.1,0.3,0.3v1.4
								C7.8,39.8,7.8,39.9,7.4,39.9z"/>
						</g>
						<g>
							<path class="st7" d="M7.4,42.3c-0.1,0-0.3-0.2-0.3-0.3v-1.4c0-0.1,0.1-0.3,0.3-0.3c0.1,0,0.3,0.1,0.3,0.3V42
								C7.8,42.1,7.8,42.3,7.4,42.3z"/>
						</g>
					</g>
					<g>
						<g>
							<path class="st7" d="M9.4,40.5H8.2c-0.1,0-0.3-0.1-0.3-0.3c0-0.1,0.1-0.3,0.3-0.3h1.2c0.1,0,0.3,0.1,0.3,0.3
								C9.8,40.3,9.5,40.5,9.4,40.5z"/>
						</g>
						<g>
							<path class="st7" d="M6.8,40.5H5.7c-0.1,0-0.3-0.1-0.3-0.3c0-0.1,0.1-0.3,0.3-0.3h1.2c0.1,0,0.3,0.1,0.3,0.3
								C7.1,40.3,7,40.5,6.8,40.5z"/>
						</g>
					</g>
				</g>
			</g>
		</g>
	</g>
	<g>
		<g>
			<path class="st6" d="M62.9,40.9c-0.6,0.2-0.8,0.7-0.8,1.2v11.2c0,2.3,1,4.4,2.9,5.7l6.5,4.2c0.5,0.2,1,0.2,1.5,0l6.5-4.2
				c1.9-1.3,2.9-3.4,2.9-5.7V42.2c0-0.5-0.3-0.9-0.9-1.2C73.5,38.2,70.2,38.1,62.9,40.9L62.9,40.9z"/>
			<path class="st8" d="M64.2,42.4c-0.5,0.1-0.7,0.6-0.7,0.9v9.6c0,2,0.9,3.7,2.4,4.9l5.6,3.6c0.3,0.2,0.9,0.2,1.3,0l5.6-3.6
				c1.5-1.2,2.4-2.9,2.4-4.9v-9.4c0-0.5-0.3-0.8-0.8-1C73.2,40.1,70.6,40,64.2,42.4L64.2,42.4z"/>
			
				<linearGradient id="SVGID_1_" gradientUnits="userSpaceOnUse" x1="72.1037" y1="34.8829" x2="80.7468" y2="34.8829" gradientTransform="matrix(1 0 0 -1 0 86)">
				<stop  offset="0" style="stop-color:#FFFFFF"/>
				<stop  offset="1" style="stop-color:#FFFFFF;stop-opacity:0"/>
			</linearGradient>
			<path class="st9" d="M80,42.4c-3.3-1.2-5.6-1.7-7.9-1.7v20.9c0.2,0,0.5-0.1,0.6-0.2l5.6-3.6c1.5-1.2,2.4-2.9,2.4-4.9v-9.4
				C80.8,43,80.5,42.6,80,42.4L80,42.4z"/>
		</g>
		<path id="check_00000034085004496673762780000012181676774947139744_" class="st6" d="M71.8,54.9c-0.2,0-0.5-0.1-0.7-0.2l-3-3
			c-0.5-0.3-0.5-1-0.1-1.4c0.3-0.5,1-0.5,1.4-0.1l2.2,2.2l4.3-6.2c0.3-0.5,0.9-0.6,1.4-0.2c0.5,0.3,0.6,0.9,0.2,1.4l-4.9,7.1
			C72.5,54.7,72.2,54.8,71.8,54.9L71.8,54.9z"/>
	</g>
</g>
</svg>
