<?xml version="1.0" encoding="utf-8"?>
<!-- Generator: Adobe Illustrator 25.4.1, SVG Export Plug-In . SVG Version: 6.00 Build 0)  -->
<svg version="1.1" id="Layer_1" xmlns="http://www.w3.org/2000/svg" xmlns:xlink="http://www.w3.org/1999/xlink" x="0px" y="0px"
	 viewBox="0 0 90.3 63.5" style="enable-background:new 0 0 90.3 63.5;" xml:space="preserve">
<style type="text/css">
	.st0{display:none;opacity:0.54;fill:#FFFFFF;enable-background:new    ;}
	.st1{opacity:0.1;}
	.st2{fill:#3B4751;}
	.st3{fill:#99AEBB;}
	.st4{fill:#647E99;}
	.st5{fill:#4D6C86;}
	.st6{clip-path:url(#SVGID_00000117668758272884395530000017405327640012833182_);}
	.st7{fill:#8EA2B1;}
	.st8{opacity:0.2;fill:url(#SVGID_00000109748624346606844440000009048655844627448205_);enable-background:new    ;}
	.st9{clip-path:url(#SVGID_00000031928371178485026790000006455650486496952734_);}
	.st10{opacity:0.2;clip-path:url(#SVGID_00000155847130099107262190000014585783455895255462_);}
	.st11{fill:#8A8A8A;}
	.st12{clip-path:url(#SVGID_00000061458532837139917700000011563089037445954747_);}
	.st13{fill:#FFFFFF;}
	.st14{fill:#657F99;}
	.st15{fill:#FF8192;}
	.st16{fill:#FCBF1E;}
</style>
<rect x="-17.5" y="-30.4" class="st0" width="125.1" height="127.9"/>
<g>
	<g>
		<g class="st1">
			<path class="st2" d="M36.4,58c-7.7-13.8-13.7-2.8-23-13.1c-12.1-13.5-1.3-20.5,11.2-22C34.7,21.7,43.7,7.1,55.3,7.3
				c15.5,0.3,8.1,14.9,19.4,20c9.7,4.4,9.1,23-1.3,29.4L36.4,58z"/>
			<ellipse class="st2" cx="45.3" cy="59.4" rx="45.2" ry="4.1"/>
		</g>
		<path class="st3" d="M18.1,54.9c0,1.1,0.9,2.1,2.1,2.1H73c1.1,0,2.1-0.9,2.1-2.1V22.2h-57C18.1,22.2,18.1,54.9,18.1,54.9z"/>
		<path class="st4" d="M18.1,22.2L43.9,2.8c1.5-1.2,3.8-1.2,5.3,0l25.9,19.5L18.1,22.2L18.1,22.2z"/>
		<polygon class="st5" points="75,22.2 18.1,22.2 38.4,37.6 54.8,37.6 		"/>
		<path class="st4" d="M20.3,57H73c1.1,0,2.1-0.9,2.1-2.1L54.8,37.6H38.4L18.1,54.9C18.1,56,19,57,20.3,57z"/>
		<g>
			<g>
				<g>
					<g>
						<g>
							<defs>
								<polygon id="SVGID_1_" points="18.1,1.9 18.1,24 38.4,37.6 54.8,37.6 75,24 75,1.9 								"/>
							</defs>
							<clipPath id="SVGID_00000059304921772494561050000004532104567882672575_">
								<use xlink:href="#SVGID_1_"  style="overflow:visible;"/>
							</clipPath>
							<g style="clip-path:url(#SVGID_00000059304921772494561050000004532104567882672575_);">
								<path class="st7" d="M28.3,9.9c-1.1,0.4-1.5,1.3-1.5,2.2v21.7c0,4.5,2,8.6,5.6,11.1L45.2,53c0.9,0.4,2,0.4,3,0l12.7-8.2
									c3.7-2.5,5.6-6.5,5.6-11.1V12.3c0-0.9-0.7-1.8-1.8-2.2C48.9,4.7,42.6,4.4,28.3,9.9L28.3,9.9z"/>
								<path class="st4" d="M30.9,12.7c-0.9,0.2-1.3,1.1-1.3,1.8v18.6c0,3.9,1.8,7.2,4.8,9.5l10.8,7c0.7,0.4,1.8,0.4,2.5,0l10.8-7
									c3-2.2,4.8-5.6,4.8-9.5V14.8c0-0.9-0.7-1.5-1.5-2C48.5,8.2,43.3,8,30.9,12.7L30.9,12.7z"/>
								
									<linearGradient id="SVGID_00000129885515543645507920000018371081365253839285_" gradientUnits="userSpaceOnUse" x1="46.4779" y1="-24.45" x2="63.2798" y2="-24.45" gradientTransform="matrix(1 0 0 1 0 54)">
									<stop  offset="0" style="stop-color:#FFFFFF"/>
									<stop  offset="1" style="stop-color:#FFFFFF;stop-opacity:0"/>
								</linearGradient>
								
									<path style="opacity:0.2;fill:url(#SVGID_00000129885515543645507920000018371081365253839285_);enable-background:new    ;" d="
									M61.9,12.7C55.6,10.5,51,9.3,46.5,9.3v40.5c0.4,0,0.9-0.2,1.1-0.4l10.8-7c3-2.2,4.8-5.6,4.8-9.5V14.6
									C63.4,13.9,62.7,13,61.9,12.7L61.9,12.7z"/>
							</g>
						</g>
					</g>
				</g>
			</g>
			<g>
				<g>
					<g>
						<g>
							<defs>
								<polygon id="SVGID_00000067923934382989288360000005971079895662717603_" points="18.1,1.9 18.1,24 38.4,37.6 54.8,37.6 
									75,24 75,1.9 								"/>
							</defs>
							<clipPath id="SVGID_00000076572217728806790650000006801484368724352426_">
								<use xlink:href="#SVGID_00000067923934382989288360000005971079895662717603_"  style="overflow:visible;"/>
							</clipPath>
							<g style="clip-path:url(#SVGID_00000076572217728806790650000006801484368724352426_);">
								<g>
									<g>
										<g>
											<g>
												<defs>
													<path id="SVGID_00000097485917043758711010000009482659843318525095_" d="M30.9,12.7c-0.9,0.2-1.3,1.1-1.3,1.8v18.6
														c0,3.9,1.8,7.2,4.8,9.5l10.8,7c0.7,0.4,1.8,0.4,2.5,0l10.8-7c3-2.2,4.8-5.6,4.8-9.5V14.8c0-0.9-0.7-1.5-1.5-2
														C48.5,8.2,43.3,8,30.9,12.7L30.9,12.7z"/>
												</defs>
												<clipPath id="SVGID_00000140721736924556500350000007867470600750914456_">
													<use xlink:href="#SVGID_00000097485917043758711010000009482659843318525095_"  style="overflow:visible;"/>
												</clipPath>
												<g style="opacity:0.2;clip-path:url(#SVGID_00000140721736924556500350000007867470600750914456_);">
													<path class="st11" d="M5.9,11.4c-0.3,0-0.7-0.1-0.9-0.4c-0.2-0.2-0.2-0.7-0.2-1.1c0-0.4,0.1-0.8,0.3-1.1
														c0.1-0.2,0.4-0.4,0.8-0.4s0.8,0.2,1,0.4s0.3,0.7,0.3,1.1c0,0.4-0.1,0.8-0.3,1.1C6.6,11.3,6.3,11.4,5.9,11.4z M5.5,9.2
														C5.4,9.3,5.3,9.6,5.3,9.9c0,0.3,0,0.6,0.1,0.7c0.1,0.2,0.3,0.3,0.4,0.3c0.2,0,0.3-0.1,0.4-0.2c0.1-0.2,0.1-0.4,0.1-0.7
														s0-0.6-0.1-0.7C6.2,9,6,8.9,5.8,8.9C5.8,8.9,5.5,9,5.5,9.2z"/>
													<path class="st11" d="M8,8.4h1.2v2.9H8.5V9H8V8.4z"/>
													<path class="st11" d="M11.3,11.4c-0.4,0-0.7-0.1-0.9-0.4c-0.2-0.2-0.2-0.7-0.2-1.1c0-0.4,0.1-0.8,0.3-1.1
														c0.1-0.2,0.4-0.4,0.8-0.4c0.4,0,0.7,0.1,0.9,0.4c0.2,0.2,0.3,0.7,0.3,1.1s-0.1,0.8-0.3,1.1
														C12.1,11.3,11.7,11.4,11.3,11.4z M11,9.2c-0.1,0.1-0.2,0.4-0.2,0.7s0,0.6,0.1,0.7c0.1,0.2,0.2,0.2,0.4,0.2
														s0.3-0.1,0.4-0.2c0.1-0.2,0.1-0.4,0.1-0.7s0-0.6-0.1-0.7C11.6,9,11.5,9,11.3,9C11.2,8.9,11,9,11,9.2z"/>
													<path class="st11" d="M13.3,8.4h1.2v2.9h-0.7V9h-0.6V8.4H13.3z"/>
													<path class="st11" d="M16.7,11.4c-0.4,0-0.7-0.1-0.9-0.4c-0.2-0.2-0.3-0.7-0.3-1.1c0-0.4,0.1-0.8,0.3-1.1
														c0.2-0.2,0.6-0.4,0.9-0.4c0.4,0,0.7,0.1,0.9,0.4c0.2,0.2,0.3,0.7,0.3,1.1c0,0.4-0.1,0.8-0.3,1.1
														C17.5,11.3,17.2,11.4,16.7,11.4z M16.4,9.2c-0.1,0.2-0.1,0.4-0.1,0.7s0,0.6,0.1,0.7c0,0.2,0.2,0.3,0.3,0.3
														c0.2,0,0.3-0.1,0.4-0.2c0.1-0.2,0.1-0.4,0.1-0.7s0-0.6-0.1-0.7c-0.1-0.2-0.2-0.2-0.4-0.2C16.6,8.9,16.4,9,16.4,9.2z"/>
													<path class="st11" d="M18.7,8.4h1.2v2.9h-0.7V9h-0.6V8.4H18.7z"/>
													<path class="st11" d="M22.1,11.4c-0.4,0-0.7-0.1-0.9-0.4c-0.2-0.2-0.3-0.7-0.3-1.1s0.1-0.8,0.3-1.1
														c0.2-0.2,0.6-0.4,0.9-0.4c0.4,0,0.7,0.1,0.9,0.4c0.2,0.2,0.3,0.7,0.3,1.1S23.2,10.6,23,11
														C22.9,11.3,22.6,11.4,22.1,11.4z M21.7,9.2c-0.1,0.2-0.1,0.4-0.1,0.7s0,0.6,0.1,0.7c0.1,0.2,0.3,0.3,0.4,0.3
														c0.2,0,0.3-0.1,0.4-0.2c0.1-0.2,0.1-0.4,0.1-0.7s0-0.6-0.1-0.7c-0.1-0.2-0.2-0.2-0.4-0.2C22,8.9,21.8,9,21.7,9.2z"/>
													<path class="st11" d="M25.5,11.4c-0.4,0-0.7-0.1-0.9-0.4c-0.2-0.2-0.3-0.7-0.3-1.1s0.1-0.8,0.3-1.1
														c0.2-0.2,0.6-0.4,0.9-0.4c0.4,0,0.7,0.1,0.9,0.4c0.2,0.2,0.3,0.7,0.3,1.1s-0.1,0.8-0.3,1.1S25.9,11.4,25.5,11.4z
														 M25,9.2c-0.1,0.2-0.1,0.4-0.1,0.7s0,0.6,0.1,0.7c0.1,0.2,0.3,0.3,0.4,0.3c0.2,0,0.3-0.1,0.4-0.2
														C26,10.4,26,10.2,26,10c0-0.3,0-0.6-0.1-0.7c-0.1-0.2-0.2-0.2-0.4-0.2C25.3,8.9,25.1,9,25,9.2z"/>
													<path class="st11" d="M28.8,11.4c-0.4,0-0.7-0.1-0.9-0.4c-0.2-0.2-0.3-0.7-0.3-1.1s0.1-0.8,0.3-1.1
														c0.2-0.2,0.6-0.4,0.9-0.4c0.4,0,0.7,0.1,0.9,0.4C29.9,9,30,9.4,30,9.9s-0.1,0.8-0.3,1.1C29.5,11.3,29.2,11.4,28.8,11.4
														z M28.3,9.2c-0.1,0.2-0.1,0.4-0.1,0.7s0,0.6,0.1,0.7c0.1,0.2,0.2,0.3,0.4,0.3s0.3-0.1,0.4-0.2c0.1-0.2,0.1-0.4,0.1-0.7
														s0-0.6-0.1-0.7c-0.1-0.2-0.2-0.2-0.4-0.2C28.6,8.9,28.4,9,28.3,9.2z"/>
													<path class="st11" d="M30.8,8.4H32v2.9h-0.7V9h-0.6V8.4H30.8z"/>
													<path class="st11" d="M32.9,8.4h1.2v2.9h-0.7V9h-0.6L32.9,8.4L32.9,8.4z"/>
													<path class="st11" d="M36.3,11.4c-0.4,0-0.7-0.1-0.9-0.4c-0.2-0.2-0.3-0.7-0.3-1.1s0.1-0.8,0.3-1.1
														c0.2-0.2,0.6-0.4,0.9-0.4c0.4,0,0.7,0.1,0.9,0.4c0.2,0.2,0.3,0.7,0.3,1.1s-0.1,0.8-0.3,1.1
														C37.1,11.3,36.7,11.4,36.3,11.4z M35.9,9.2c-0.1,0.2-0.1,0.4-0.1,0.7s0,0.6,0.1,0.7c0.1,0.2,0.2,0.2,0.4,0.2
														s0.3-0.1,0.4-0.2c0.1-0.2,0.1-0.4,0.1-0.7s0-0.6-0.1-0.7C36.6,9,36.5,9,36.3,9C36.1,8.9,36,9,35.9,9.2z"/>
													<path class="st11" d="M38.3,8.4h1.2v2.9h-0.7V9h-0.6L38.3,8.4L38.3,8.4z"/>
													<path class="st11" d="M41.7,11.4c-0.4,0-0.7-0.1-0.9-0.4c-0.2-0.2-0.3-0.7-0.3-1.1s0.1-0.8,0.3-1.1
														c0.2-0.2,0.6-0.4,0.9-0.4c0.4,0,0.7,0.1,0.9,0.4c0.2,0.2,0.3,0.7,0.3,1.1s-0.1,0.8-0.3,1.1
														C42.5,11.3,42.2,11.4,41.7,11.4z M41.3,9.2c-0.1,0.2-0.1,0.4-0.1,0.7s0,0.6,0.1,0.7c0.1,0.2,0.2,0.2,0.4,0.2
														s0.3-0.1,0.4-0.2c0.1-0.2,0.1-0.4,0.1-0.7s0-0.6-0.1-0.7C42.1,9,41.9,9,41.7,9C41.5,8.9,41.4,9,41.3,9.2z"/>
													<path class="st11" d="M45,11.4c-0.4,0-0.7-0.1-0.9-0.4c-0.2-0.2-0.3-0.7-0.3-1.1s0.1-0.8,0.3-1.1
														c0.2-0.2,0.6-0.4,0.9-0.4c0.4,0,0.7,0.1,0.9,0.4c0.2,0.2,0.3,0.7,0.3,1.1s-0.1,0.8-0.3,1.1
														C45.8,11.3,45.5,11.4,45,11.4z M44.6,9.2c-0.1,0.2-0.1,0.4-0.1,0.7s0,0.6,0.1,0.7c0.1,0.2,0.2,0.2,0.4,0.2
														s0.3-0.1,0.4-0.2c0.1-0.2,0.1-0.4,0.1-0.7s0-0.6-0.1-0.7C45.4,9,45.3,9,45,9C44.8,8.9,44.7,9,44.6,9.2z"/>
													<path class="st11" d="M5.9,16.4c-0.4,0-0.7-0.1-0.9-0.4c-0.2-0.2-0.3-0.7-0.3-1.1c0-0.4,0.1-0.8,0.3-1.1
														c0.2-0.2,0.6-0.4,0.9-0.4c0.4,0,0.7,0.1,0.9,0.4C7,14,7.1,14.5,7.1,14.9c0,0.4-0.1,0.8-0.3,1.1
														C6.6,16.3,6.3,16.4,5.9,16.4z M5.5,14.2c-0.1,0.2-0.1,0.4-0.1,0.7s0,0.6,0.1,0.7c0.1,0.2,0.2,0.2,0.4,0.2
														c0.2,0,0.3-0.1,0.4-0.2c0.1-0.2,0.1-0.4,0.1-0.7s0-0.6-0.1-0.7C6.2,14,6.1,14,5.9,14C5.8,13.9,5.5,14.1,5.5,14.2z"/>
													<path class="st11" d="M8,13.5h1.2v2.9H8.5v-2.3H8V13.5z"/>
													<path class="st11" d="M11.3,16.4c-0.4,0-0.7-0.1-0.9-0.4c-0.2-0.2-0.3-0.7-0.3-1.1c0-0.4,0.1-0.8,0.3-1.1
														c0.2-0.2,0.6-0.4,0.9-0.4c0.4,0,0.7,0.1,0.9,0.4c0.2,0.2,0.3,0.7,0.3,1.1c0,0.4-0.1,0.8-0.3,1.1
														C12.1,16.3,11.7,16.4,11.3,16.4z M11,14.2c-0.1,0.2-0.1,0.4-0.1,0.7s0,0.6,0.1,0.7c0.1,0.2,0.2,0.2,0.4,0.2
														s0.3-0.1,0.4-0.2c0.1-0.2,0.1-0.4,0.1-0.7s0-0.6-0.1-0.7C11.7,14,11.6,14,11.4,14C11.2,13.9,11,14.1,11,14.2z"/>
													<path class="st11" d="M13.3,13.5h1.2v2.9h-0.7v-2.3h-0.6v-0.6H13.3z"/>
													<path class="st11" d="M15.5,13.5h1.1v2.9h-0.7v-2.3h-0.4C15.5,14.1,15.5,13.5,15.5,13.5z"/>
													<path class="st11" d="M18.8,16.4c-0.4,0-0.7-0.1-0.9-0.4c-0.2-0.2-0.3-0.7-0.3-1.1c0-0.4,0.1-0.8,0.3-1.1
														c0.2-0.2,0.6-0.4,0.9-0.4c0.4,0,0.7,0.1,0.9,0.4c0.2,0.2,0.3,0.7,0.3,1.1c0,0.4-0.1,0.8-0.3,1.1
														C19.6,16.3,19.3,16.4,18.8,16.4z M18.5,14.2c-0.1,0.2-0.1,0.4-0.1,0.7s0,0.6,0.1,0.7c0.1,0.2,0.2,0.2,0.4,0.2
														c0.2,0,0.3-0.1,0.4-0.2c0.1-0.2,0.1-0.4,0.1-0.7s0-0.6-0.1-0.7C19.2,14,19.1,14,18.9,14C18.7,13.9,18.5,14.1,18.5,14.2
														z"/>
													<path class="st11" d="M22.1,16.4c-0.4,0-0.7-0.1-0.9-0.4c-0.2-0.2-0.3-0.7-0.3-1.1c0-0.4,0.1-0.8,0.3-1.1
														c0.2-0.2,0.6-0.4,0.9-0.4c0.4,0,0.7,0.1,0.9,0.4c0.2,0.2,0.3,0.7,0.3,1.1c0,0.4-0.1,0.8-0.3,1.1
														C22.9,16.3,22.6,16.4,22.1,16.4z M21.7,14.2c-0.1,0.2-0.1,0.4-0.1,0.7s0,0.6,0.1,0.7c0.1,0.2,0.2,0.2,0.4,0.2
														s0.3-0.1,0.4-0.2c0.1-0.2,0.1-0.4,0.1-0.7s0-0.6-0.1-0.7C22.4,14,22.3,14,22.1,14C22,13.9,21.8,14.1,21.7,14.2z"/>
													<path class="st11" d="M24.1,13.5h1.2v2.9h-0.7v-2.3H24v-0.6H24.1z"/>
													<path class="st11" d="M27.6,16.4c-0.4,0-0.7-0.1-0.9-0.4c-0.2-0.2-0.3-0.7-0.3-1.1c0-0.4,0.1-0.8,0.3-1.1
														c0.2-0.2,0.6-0.4,0.9-0.4c0.4,0,0.7,0.1,0.9,0.4c0.2,0.2,0.3,0.7,0.3,1.1c0,0.4-0.1,0.8-0.3,1.1
														C28.3,16.3,28,16.4,27.6,16.4z M27.1,14.2C27,14.4,27,14.6,27,14.8c0,0.3,0,0.6,0.1,0.7c0.1,0.2,0.2,0.2,0.4,0.2
														s0.3-0.1,0.4-0.2c0.1-0.2,0.1-0.4,0.1-0.7s0-0.6-0.1-0.7c-0.1-0.2-0.2-0.2-0.4-0.2C27.4,13.9,27.2,14.1,27.1,14.2z"/>
													<path class="st11" d="M29.5,13.5h1.2v2.9H30v-2.3h-0.6v-0.6H29.5z"/>
													<path class="st11" d="M33,16.4c-0.4,0-0.7-0.1-0.9-0.4c-0.2-0.2-0.3-0.7-0.3-1.1c0-0.4,0.1-0.8,0.3-1.1
														c0.2-0.2,0.6-0.4,0.9-0.4c0.4,0,0.7,0.1,0.9,0.4c0.2,0.2,0.3,0.7,0.3,1.1c0,0.4-0.1,0.8-0.3,1.1
														C33.8,16.3,33.4,16.4,33,16.4z M32.5,14.2c-0.1,0.2-0.1,0.4-0.1,0.7s0,0.6,0.1,0.7c0.1,0.2,0.2,0.2,0.4,0.2
														s0.3-0.1,0.4-0.2c0.1-0.2,0.1-0.4,0.1-0.7s0-0.6-0.1-0.7C33.2,14,33.1,14,32.9,14C32.9,13.9,32.6,14.1,32.5,14.2z"/>
													<path class="st11" d="M36.3,16.4c-0.4,0-0.7-0.1-0.9-0.4c-0.2-0.2-0.3-0.7-0.3-1.1c0-0.4,0.1-0.8,0.3-1.1
														c0.2-0.2,0.6-0.4,0.9-0.4c0.4,0,0.7,0.1,0.9,0.4c0.2,0.2,0.3,0.7,0.3,1.1c0,0.4-0.1,0.8-0.3,1.1
														C37.1,16.3,36.7,16.4,36.3,16.4z M35.9,14.2c-0.1,0.2-0.1,0.4-0.1,0.7s0,0.6,0.1,0.7c0.1,0.2,0.2,0.2,0.4,0.2
														s0.3-0.1,0.4-0.2c0.1-0.2,0.1-0.4,0.1-0.7s0-0.6-0.1-0.7C36.6,14,36.5,14,36.3,14C36.1,13.9,36,14.1,35.9,14.2z"/>
													<path class="st11" d="M38.3,13.5h1.2v2.9h-0.7v-2.3h-0.6L38.3,13.5L38.3,13.5z"/>
													<path class="st11" d="M41.7,16.4c-0.4,0-0.7-0.1-0.9-0.4c-0.2-0.2-0.3-0.7-0.3-1.1c0-0.4,0.1-0.8,0.3-1.1
														c0.2-0.2,0.6-0.4,0.9-0.4c0.4,0,0.7,0.1,0.9,0.4c0.2,0.2,0.3,0.7,0.3,1.1c0,0.4-0.1,0.8-0.3,1.1
														C42.5,16.3,42.2,16.4,41.7,16.4z M41.3,14.2c-0.1,0.2-0.1,0.4-0.1,0.7s0,0.6,0.1,0.7c0.1,0.2,0.2,0.2,0.4,0.2
														s0.3-0.1,0.4-0.2c0.1-0.1,0.1-0.4,0.1-0.7s0-0.6-0.1-0.7S41.9,14,41.7,14C41.5,13.9,41.4,14.1,41.3,14.2z"/>
													<path class="st11" d="M45,16.4c-0.4,0-0.7-0.1-0.9-0.4c-0.2-0.2-0.3-0.7-0.3-1.1c0-0.4,0.1-0.8,0.3-1.1
														c0.2-0.2,0.6-0.4,0.9-0.4c0.4,0,0.7,0.1,0.9,0.4c0.2,0.2,0.3,0.7,0.3,1.1c0,0.4-0.1,0.8-0.3,1.1
														C45.8,16.3,45.5,16.4,45,16.4z M44.6,14.2c-0.1,0.2-0.1,0.4-0.1,0.7s0,0.6,0.1,0.7c0.1,0.2,0.2,0.2,0.4,0.2
														s0.3-0.1,0.4-0.2c0.1-0.2,0.1-0.4,0.1-0.7s0-0.6-0.1-0.7C45.3,14,45.2,14,45,14C44.8,13.9,44.7,14.1,44.6,14.2z"/>
													<path class="st11" d="M5.9,21.5c-0.4,0-0.7-0.1-0.9-0.4c-0.2-0.2-0.3-0.7-0.3-1.1s0.1-0.8,0.3-1.1
														c0.2-0.2,0.6-0.4,0.9-0.4c0.4,0,0.7,0.1,0.9,0.4c0.2,0.1,0.3,0.6,0.3,1S7,20.7,6.8,21C6.6,21.3,6.3,21.5,5.9,21.5z
														 M5.5,19.3c-0.1,0.2-0.1,0.4-0.1,0.7c0,0.3,0,0.6,0.1,0.7c0.1,0.2,0.2,0.2,0.4,0.2c0.2,0,0.3-0.1,0.4-0.2
														c0.1-0.2,0.1-0.4,0.1-0.7c0-0.3,0-0.6-0.1-0.7C6.3,19,6.2,19,6,19C5.8,18.9,5.5,19,5.5,19.3z"/>
													<path class="st11" d="M9.2,21.5c-0.4,0-0.7-0.1-0.9-0.4C8.1,20.8,8,20.4,8,19.9c0-0.4,0.1-0.8,0.3-1.1
														c0.2-0.2,0.6-0.4,0.9-0.4c0.4,0,0.7,0.1,0.9,0.4c0.2,0.2,0.3,0.7,0.3,1.1s-0.1,0.8-0.3,1.1C10,21.3,9.6,21.5,9.2,21.5z
														 M8.7,19.3c-0.1,0.2-0.1,0.4-0.1,0.7c0,0.3,0,0.6,0.1,0.7c0.1,0.2,0.2,0.2,0.4,0.2s0.3-0.1,0.4-0.2
														c0.1-0.2,0.1-0.4,0.1-0.7c0-0.3,0-0.6-0.1-0.7C9.5,19,9.4,19,9.2,19C9.1,18.9,8.9,19,8.7,19.3z"/>
													<path class="st11" d="M11.2,18.5h1.2v2.9h-0.7V19h-0.6v-0.5H11.2z"/>
													<path class="st11" d="M14.6,21.5c-0.4,0-0.7-0.1-0.9-0.4c-0.2-0.2-0.3-0.7-0.3-1.1s0.1-0.8,0.3-1.1
														c0.2-0.2,0.6-0.4,0.9-0.4c0.4,0,0.7,0.1,0.9,0.4c0.2,0.2,0.3,0.7,0.3,1.1s-0.1,0.8-0.3,1.1
														C15.4,21.3,15.1,21.5,14.6,21.5z M14.2,19.3c-0.1,0.2-0.1,0.4-0.1,0.7c0,0.3,0,0.6,0.1,0.7c0.1,0.2,0.2,0.2,0.4,0.2
														s0.3-0.1,0.4-0.2c0.1-0.1,0.1-0.4,0.1-0.7c0-0.3,0-0.6-0.1-0.7s-0.2-0.2-0.4-0.2C14.5,18.9,14.3,19,14.2,19.3z"/>
													<path class="st11" d="M16.6,18.5h1.2v2.9h-0.7V19h-0.6v-0.5H16.6z"/>
													<path class="st11" d="M20,21.5c-0.4,0-0.7-0.1-0.9-0.4c-0.2-0.2-0.3-0.7-0.3-1.1s0.1-0.8,0.3-1.1
														c0.2-0.2,0.6-0.4,0.9-0.4c0.4,0,0.7,0.1,0.9,0.4c0.2,0.2,0.3,0.7,0.3,1.1s-0.1,0.8-0.3,1.1
														C20.8,21.3,20.5,21.5,20,21.5z M19.6,19.3c-0.1,0.2-0.1,0.4-0.1,0.7c0,0.3,0,0.6,0.1,0.7c0.1,0.2,0.2,0.2,0.4,0.2
														s0.3-0.1,0.4-0.2c0.1-0.2,0.1-0.4,0.1-0.7c0-0.3,0-0.6-0.1-0.7c0-0.3-0.1-0.3-0.4-0.3C19.9,18.9,19.7,19,19.6,19.3z"/>
													<path class="st11" d="M22,18.5h1.2v2.9h-0.7V19H22V18.5z"/>
													<path class="st11" d="M24.1,18.5h1.2v2.9h-0.7V19H24v-0.5H24.1z"/>
													<path class="st11" d="M26.2,18.5h1.2v2.9h-0.7V19h-0.6v-0.5H26.2z"/>
													<path class="st11" d="M28.4,18.5h1.2v2.9H29V19h-0.6V18.5z"/>
													<path class="st11" d="M31.8,21.5c-0.4,0-0.7-0.1-0.9-0.4c-0.2-0.2-0.3-0.7-0.3-1.1s0.1-0.8,0.3-1.1
														c0.2-0.2,0.6-0.4,0.9-0.4c0.4,0,0.7,0.1,0.9,0.4c0.2,0.2,0.3,0.7,0.3,1.1s-0.1,0.8-0.3,1.1
														C32.5,21.3,32.2,21.5,31.8,21.5z M31.4,19.3c-0.1,0.2-0.1,0.4-0.1,0.7c0,0.3,0,0.6,0.1,0.7c0.1,0.2,0.2,0.2,0.4,0.2
														c0.2,0,0.3-0.1,0.4-0.2c0.1-0.1,0.1-0.4,0.1-0.7c0-0.3,0-0.6-0.1-0.7s-0.2-0.2-0.4-0.2C31.6,18.9,31.4,19,31.4,19.3z"
														/>
													<path class="st11" d="M35.1,21.5c-0.4,0-0.7-0.1-0.9-0.4c-0.2-0.2-0.3-0.7-0.3-1.1s0.1-0.8,0.3-1.1
														c0.2-0.2,0.6-0.4,0.9-0.4c0.4,0,0.7,0.1,0.9,0.4c0.2,0.2,0.3,0.7,0.3,1.1s-0.1,0.8-0.3,1.1
														C35.9,21.3,35.5,21.5,35.1,21.5z M34.6,19.3c-0.1,0.2-0.1,0.4-0.1,0.7c0,0.3,0,0.6,0.1,0.7c0.1,0.2,0.2,0.2,0.4,0.2
														s0.3-0.1,0.4-0.2c0.1-0.2,0.1-0.4,0.1-0.7c0-0.3,0-0.6-0.1-0.7c0-0.3-0.1-0.3-0.3-0.3C35,18.9,34.7,19,34.6,19.3z"/>
													<path class="st11" d="M38.4,21.5c-0.4,0-0.7-0.1-0.9-0.4c-0.2-0.2-0.3-0.7-0.3-1.1s0.1-0.8,0.3-1.1
														c0.2-0.2,0.6-0.4,0.9-0.4c0.4,0,0.7,0.1,0.9,0.4c0.2,0.2,0.3,0.7,0.3,1.1s-0.1,0.8-0.3,1.1
														C39.2,21.3,38.8,21.5,38.4,21.5z M38,19.3c-0.1,0.2-0.1,0.4-0.1,0.7c0,0.3,0,0.6,0.1,0.7c0.1,0.2,0.2,0.2,0.4,0.2
														s0.3-0.1,0.4-0.2c0.1-0.2,0.1-0.4,0.1-0.7c0-0.3,0-0.6-0.1-0.7C38.7,19,38.6,19,38.4,19C38.3,18.9,38.1,19,38,19.3z"/>
													<path class="st11" d="M41.7,21.5c-0.4,0-0.7-0.1-0.9-0.4c-0.2-0.2-0.3-0.7-0.3-1.1s0.1-0.8,0.3-1.1
														c0.2-0.2,0.6-0.4,0.9-0.4c0.4,0,0.7,0.1,0.9,0.4c0.2,0.2,0.3,0.7,0.3,1.1s-0.1,0.8-0.3,1.1
														C42.5,21.3,42.2,21.5,41.7,21.5z M41.3,19.3c-0.1,0.2-0.1,0.4-0.1,0.7c0,0.3,0,0.6,0.1,0.7c0.1,0.2,0.2,0.2,0.4,0.2
														s0.3-0.1,0.4-0.2c0.1-0.1,0.1-0.4,0.1-0.7c0-0.3,0-0.6-0.1-0.7s-0.2-0.2-0.4-0.2C41.5,18.9,41.4,19,41.3,19.3z"/>
													<path class="st11" d="M43.7,18.5h1.2v2.9h-0.7V19h-0.6L43.7,18.5L43.7,18.5z"/>
													<path class="st11" d="M4.6,23.5h1.2v2.9H5.2V24H4.6V23.5z"/>
													<path class="st11" d="M8.1,26.5c-0.4,0-0.7-0.1-0.9-0.4C7,25.9,6.9,25.4,6.9,25s0.1-0.8,0.3-1.1
														c0.2-0.2,0.6-0.4,0.9-0.4c0.4,0,0.7,0.1,0.9,0.4c0.2,0.2,0.3,0.7,0.3,1.1S9.2,25.8,9,26.1C8.7,26.3,8.4,26.5,8.1,26.5z
														 M7.6,24.2c-0.1,0.2-0.1,0.4-0.1,0.7c0,0.3,0,0.6,0.1,0.7c0.1,0.2,0.2,0.2,0.4,0.2c0.2,0,0.3-0.1,0.4-0.2
														c0.1-0.2,0.1-0.4,0.1-0.7c0-0.3,0-0.6-0.1-0.7C8.4,24,8.2,24,8.1,24C7.9,24,7.6,24,7.6,24.2z"/>
													<path class="st11" d="M10.1,23.5h1.2v2.9h-0.7V24H10v-0.5H10.1z"/>
													<path class="st11" d="M12.2,23.5h1.1v2.9h-0.7V24h-0.4C12.2,24,12.2,23.5,12.2,23.5z"/>
													<path class="st11" d="M14.3,23.5h1.2v2.9h-0.7V24h-0.6v-0.5H14.3z"/>
													<path class="st11" d="M17.7,26.5c-0.4,0-0.7-0.1-0.9-0.4c-0.2-0.2-0.3-0.7-0.3-1.1s0.1-0.8,0.3-1.1
														c0.2-0.2,0.6-0.4,0.9-0.4c0.4,0,0.7,0.1,0.9,0.4c0.2,0.2,0.3,0.7,0.3,1.1s-0.1,0.8-0.3,1.1
														C18.4,26.3,18,26.5,17.7,26.5z M17.3,24.2c-0.1,0.2-0.1,0.4-0.1,0.7c0,0.3,0,0.6,0.1,0.7c0.1,0.2,0.2,0.2,0.4,0.2
														c0.2,0,0.3-0.1,0.4-0.2c0.1-0.2,0.1-0.4,0.1-0.7c0-0.3,0-0.6-0.1-0.7C18,24,17.8,24,17.7,24C17.5,24,17.4,24,17.3,24.2
														z"/>
													<path class="st11" d="M21,26.5c-0.4,0-0.7-0.1-0.9-0.4c-0.2-0.2-0.3-0.7-0.3-1.1s0.1-0.8,0.3-1.1
														c0.2-0.2,0.6-0.4,0.9-0.4c0.4,0,0.7,0.1,0.9,0.4c0.2,0.2,0.3,0.7,0.3,1.1s-0.1,0.8-0.3,1.1
														C21.7,26.3,21.4,26.5,21,26.5z M20.6,24.2c-0.1,0.2-0.1,0.4-0.1,0.7c0,0.3,0,0.6,0.1,0.7c0.1,0.2,0.2,0.2,0.4,0.2
														c0.2,0,0.3-0.1,0.4-0.2c0.1-0.2,0.1-0.4,0.1-0.7c0-0.3,0-0.6-0.1-0.7c0-0.2-0.3-0.2-0.4-0.2C20.8,24,20.6,24,20.6,24.2
														z"/>
													<path class="st11" d="M24.2,26.5c-0.4,0-0.7-0.1-0.9-0.4C23.1,25.9,23,25.4,23,25s0.1-0.8,0.3-1.1
														c0.2-0.2,0.6-0.4,0.9-0.4c0.4,0,0.7,0.1,0.9,0.4c0.2,0.2,0.3,0.7,0.3,1.1s-0.1,0.8-0.3,1.1
														C25,26.3,24.7,26.5,24.2,26.5z M23.9,24.2c-0.1,0.2-0.1,0.4-0.1,0.7c0,0.3,0,0.6,0.1,0.7c0.1,0.2,0.2,0.2,0.4,0.2
														c0.2,0,0.3-0.1,0.4-0.2c0.1-0.2,0.1-0.4,0.1-0.7c0-0.3,0-0.6-0.1-0.7c0-0.2-0.2-0.2-0.5-0.2C24.1,24,23.9,24,23.9,24.2
														z"/>
													<path class="st11" d="M26.2,23.5h1.2v2.9h-0.7V24h-0.6v-0.5H26.2z"/>
													<path class="st11" d="M29.7,26.5c-0.4,0-0.7-0.1-0.9-0.4c-0.2-0.2-0.3-0.7-0.3-1.1s0.1-0.8,0.3-1.1
														c0.2-0.2,0.6-0.4,0.9-0.4c0.4,0,0.7,0.1,0.9,0.4c0.2,0.2,0.3,0.7,0.3,1.1s-0.1,0.8-0.3,1.1
														C30.4,26.3,30.1,26.5,29.7,26.5z M29.3,24.2c-0.1,0.2-0.1,0.4-0.1,0.7c0,0.3,0,0.6,0.1,0.7c0.1,0.2,0.2,0.2,0.4,0.2
														c0.2,0,0.3-0.1,0.4-0.2c0.1-0.2,0.1-0.4,0.1-0.7c0-0.3,0-0.6-0.1-0.7C30,24,29.9,24,29.7,24C29.5,24,29.3,24,29.3,24.2
														z"/>
													<path class="st11" d="M33,26.5c-0.4,0-0.7-0.1-0.9-0.4c-0.2-0.2-0.3-0.7-0.3-1.1s0.1-0.8,0.3-1.1
														c0.2-0.2,0.6-0.4,0.9-0.4c0.4,0,0.7,0.1,0.9,0.4c0.2,0.2,0.3,0.7,0.3,1.1s-0.1,0.8-0.3,1.1
														C33.8,26.3,33.4,26.5,33,26.5z M32.5,24.2c-0.1,0.2-0.1,0.4-0.1,0.7c0,0.3,0,0.6,0.1,0.7c0.1,0.2,0.2,0.2,0.4,0.2
														s0.3-0.1,0.4-0.2c0.1-0.2,0.1-0.4,0.1-0.7c0-0.3,0-0.6-0.1-0.7c0-0.2-0.1-0.2-0.3-0.2C32.9,24,32.6,24,32.5,24.2z"/>
													<path class="st11" d="M36.3,26.5c-0.4,0-0.7-0.1-0.9-0.4c-0.2-0.2-0.3-0.7-0.3-1.1s0.1-0.8,0.3-1.1
														c0.2-0.2,0.6-0.4,0.9-0.4c0.4,0,0.7,0.1,0.9,0.4c0.2,0.2,0.3,0.7,0.3,1.1s-0.1,0.8-0.3,1.1
														C37.1,26.3,36.7,26.5,36.3,26.5z M35.9,24.2c-0.1,0.2-0.1,0.4-0.1,0.7c0,0.3,0,0.6,0.1,0.7c0.1,0.2,0.2,0.2,0.4,0.2
														s0.3-0.1,0.4-0.2c0.1-0.2,0.1-0.4,0.1-0.7c0-0.3,0-0.6-0.1-0.7C36.6,24,36.5,24,36.3,24S36,24,35.9,24.2z"/>
													<path class="st11" d="M39.6,26.5c-0.4,0-0.7-0.1-0.9-0.4c-0.2-0.2-0.3-0.7-0.3-1.1s0.1-0.8,0.3-1.1
														c0.2-0.2,0.6-0.4,0.9-0.4c0.4,0,0.7,0.1,0.9,0.4c0.2,0.2,0.3,0.7,0.3,1.1s-0.1,0.8-0.3,1.1
														C40.4,26.3,40.1,26.5,39.6,26.5z M39.2,24.2c-0.1,0.2-0.1,0.4-0.1,0.7c0,0.3,0,0.6,0.1,0.7c0.1,0.2,0.2,0.2,0.4,0.2
														s0.3-0.1,0.4-0.2c0.1-0.2,0.1-0.4,0.1-0.7c0-0.3,0-0.6-0.1-0.7C39.9,24,39.8,24,39.6,24S39.3,24,39.2,24.2z"/>
													<path class="st11" d="M42.9,26.5c-0.4,0-0.7-0.1-0.9-0.4c-0.2-0.2-0.3-0.7-0.3-1.1s0.1-0.8,0.3-1.1
														c0.2-0.2,0.6-0.4,0.9-0.4c0.4,0,0.7,0.1,0.9,0.4c0.2,0.2,0.3,0.7,0.3,1.1s-0.1,0.8-0.3,1.1
														C43.6,26.3,43.4,26.5,42.9,26.5z M42.5,24.2c-0.1,0.2-0.1,0.4-0.1,0.7c0,0.3,0,0.6,0.1,0.7c0.1,0.2,0.2,0.2,0.4,0.2
														s0.3-0.1,0.4-0.2c0.1-0.2,0.1-0.4,0.1-0.7c0-0.3,0-0.6-0.1-0.7c0-0.2-0.1-0.2-0.4-0.2C42.7,24,42.6,24,42.5,24.2z"/>
													<path class="st11" d="M5.9,31.5c-0.4,0-0.7-0.1-0.9-0.4c-0.2-0.2-0.3-0.7-0.3-1.1s0.1-0.8,0.3-1.1
														c0.2-0.3,0.6-0.4,0.9-0.4c0.4,0,0.7,0.1,0.9,0.4C7,29.1,7.1,29.6,7.1,30S7,30.8,6.8,31.1C6.6,31.3,6.3,31.5,5.9,31.5z
														 M5.5,29.3c-0.1,0.2-0.1,0.4-0.1,0.7c0,0.3,0,0.6,0.1,0.7c0.1,0.2,0.2,0.2,0.4,0.2c0.2,0,0.3-0.1,0.4-0.2
														c0.1-0.2,0.1-0.4,0.1-0.7c0-0.3,0-0.6-0.1-0.7c-0.1-0.2-0.2-0.2-0.4-0.2C5.8,29,5.5,29.1,5.5,29.3z"/>
													<path class="st11" d="M9.2,31.5c-0.4,0-0.7-0.1-0.9-0.4C8.1,30.9,8,30.4,8,30s0.1-0.8,0.3-1.1c0.2-0.3,0.6-0.4,0.9-0.4
														c0.4,0,0.7,0.1,0.9,0.4c0.2,0.2,0.3,0.7,0.3,1.1s-0.1,0.8-0.3,1.1C10,31.3,9.6,31.5,9.2,31.5z M8.7,29.3
														c-0.1,0.2-0.1,0.4-0.1,0.7c0,0.3,0,0.6,0.1,0.7c0.1,0.2,0.2,0.2,0.4,0.2s0.3-0.1,0.4-0.2c0.1-0.2,0.1-0.4,0.1-0.7
														c0-0.3,0-0.6-0.1-0.7c-0.1-0.2-0.2-0.2-0.4-0.2C9.1,29,8.9,29.1,8.7,29.3z"/>
													<path class="st11" d="M12.5,31.5c-0.4,0-0.7-0.1-0.9-0.4c-0.2-0.2-0.3-0.7-0.3-1.1s0.1-0.8,0.3-1.1
														c0.2-0.2,0.6-0.4,0.9-0.4c0.4,0,0.7,0.1,0.9,0.4c0.2,0.2,0.3,0.7,0.3,1.1s-0.1,0.8-0.3,1.1
														C13.3,31.3,12.9,31.5,12.5,31.5z M12.1,29.3C12,29.6,12,29.8,12,30c0,0.3,0,0.6,0.1,0.7c0.1,0.2,0.2,0.2,0.4,0.2
														s0.3-0.1,0.4-0.2C13,30.5,13,30.3,13,30c0-0.3,0-0.6-0.1-0.7c-0.1-0.2-0.2-0.2-0.4-0.2C12.4,29,12.2,29.1,12.1,29.3z"
														/>
													<path class="st11" d="M14.5,28.6h1.2v2.9H15v-2.3h-0.6v-0.6H14.5z"/>
													<path class="st11" d="M16.6,28.6h1.2v2.9h-0.7v-2.3h-0.6v-0.6H16.6z"/>
													<path class="st11" d="M20,31.5c-0.4,0-0.7-0.1-0.9-0.4c-0.2-0.2-0.3-0.7-0.3-1.1s0.1-0.8,0.3-1.1
														c0.2-0.2,0.6-0.4,0.9-0.4c0.4,0,0.7,0.1,0.9,0.4c0.2,0.2,0.3,0.7,0.3,1.1s-0.1,0.8-0.3,1.1
														C20.8,31.3,20.5,31.5,20,31.5z M19.6,29.3c-0.1,0.2-0.1,0.4-0.1,0.7c0,0.3,0,0.6,0.1,0.7c0.1,0.2,0.2,0.2,0.4,0.2
														s0.3-0.1,0.4-0.2c0.1-0.2,0.1-0.4,0.1-0.7c0-0.3,0-0.6-0.1-0.7c-0.1-0.2-0.2-0.2-0.4-0.2C19.9,29,19.7,29.1,19.6,29.3z
														"/>
													<path class="st11" d="M23.3,31.5c-0.4,0-0.7-0.1-0.9-0.4c-0.2-0.2-0.3-0.7-0.3-1.1s0.1-0.8,0.3-1.1
														c0.2-0.2,0.6-0.4,0.9-0.4c0.4,0,0.7,0.1,0.9,0.4c0.2,0.2,0.3,0.7,0.3,1.1s-0.1,0.8-0.3,1.1
														C24.1,31.3,23.8,31.5,23.3,31.5z M22.9,29.3c-0.1,0.2-0.1,0.4-0.1,0.7c0,0.3,0,0.6,0.1,0.7c0.1,0.2,0.2,0.2,0.4,0.2
														c0.2,0,0.3-0.1,0.4-0.2c0.1-0.2,0.1-0.4,0.1-0.7c0-0.3,0-0.6-0.1-0.7c-0.1-0.2-0.2-0.2-0.4-0.2
														C23.1,29,23,29.1,22.9,29.3z"/>
													<path class="st11" d="M25.3,28.6h1.2v2.9h-0.7v-2.3h-0.6v-0.6H25.3z"/>
													<path class="st11" d="M27.4,28.6h1.2v2.9H28v-2.3h-0.6V28.6z"/>
													<path class="st11" d="M29.5,28.6h1.2v2.9H30v-2.3h-0.6v-0.6H29.5z"/>
													<path class="st11" d="M33,31.5c-0.4,0-0.7-0.1-0.9-0.4c-0.2-0.2-0.3-0.7-0.3-1.1s0.1-0.8,0.3-1.1
														c0.2-0.2,0.6-0.4,0.9-0.4c0.4,0,0.7,0.1,0.9,0.4c0.2,0.2,0.3,0.7,0.3,1.1s-0.1,0.8-0.3,1.1
														C33.8,31.3,33.4,31.5,33,31.5z M32.5,29.3c-0.1,0.2-0.1,0.4-0.1,0.7c0,0.3,0,0.6,0.1,0.7c0.1,0.2,0.2,0.2,0.4,0.2
														s0.3-0.1,0.4-0.2c0.1-0.2,0.1-0.4,0.1-0.7c0-0.3,0-0.6-0.1-0.7c-0.1-0.2-0.2-0.2-0.4-0.2C32.9,29,32.6,29.1,32.5,29.3z
														"/>
													<path class="st11" d="M35,28.6h1.2v2.9h-0.7v-2.3H35C35,29.1,35,28.6,35,28.6z"/>
													<path class="st11" d="M37.1,28.6h1.2v2.9h-0.7v-2.3H37L37.1,28.6L37.1,28.6z"/>
													<path class="st11" d="M40.5,31.5c-0.4,0-0.7-0.1-0.9-0.4c-0.2-0.2-0.3-0.7-0.3-1.1s0.1-0.8,0.3-1.1
														c0.2-0.2,0.6-0.4,0.9-0.4c0.4,0,0.7,0.1,0.9,0.4c0.2,0.2,0.3,0.7,0.3,1.1s-0.1,0.8-0.3,1.1
														C41.3,31.3,40.9,31.5,40.5,31.5z M40.1,29.3C40,29.5,40,29.7,40,30c0,0.3,0,0.6,0.1,0.7c0.1,0.2,0.2,0.2,0.4,0.2
														s0.3-0.1,0.4-0.2C41,30.5,41,30.3,41,30c0-0.3,0-0.6-0.1-0.7s-0.2-0.2-0.4-0.2C40.4,29,40.2,29.1,40.1,29.3z"/>
													<path class="st11" d="M43.8,31.5c-0.4,0-0.7-0.1-0.9-0.4c-0.2-0.2-0.3-0.7-0.3-1.1s0.1-0.8,0.3-1.1
														c0.2-0.2,0.6-0.4,0.9-0.4c0.4,0,0.7,0.1,0.9,0.4c0.2,0.2,0.3,0.7,0.3,1.1s-0.1,0.8-0.3,1.1
														C44.6,31.3,44.3,31.5,43.8,31.5z M43.4,29.3c-0.1,0.2-0.1,0.4-0.1,0.7c0,0.3,0,0.6,0.1,0.7c0.1,0.2,0.2,0.2,0.4,0.2
														s0.3-0.1,0.4-0.2c0.1-0.2,0.1-0.4,0.1-0.7c0-0.3,0-0.6-0.1-0.7c-0.1-0.2-0.2-0.2-0.4-0.2C43.7,29,43.5,29.1,43.4,29.3z
														"/>
													<path class="st11" d="M5.9,36.5c-0.4,0-0.7-0.1-0.9-0.4c-0.2-0.2-0.3-0.7-0.3-1.1s0.1-0.8,0.3-1.1
														c0.2-0.2,0.6-0.4,0.9-0.4c0.4,0,0.7,0.1,0.9,0.4C7,34.1,7.1,34.5,7.1,35S7,35.7,6.8,36.1C6.6,36.4,6.3,36.5,5.9,36.5z
														 M5.5,34.3c-0.1,0.2-0.1,0.4-0.1,0.7s0,0.6,0.1,0.7c0.1,0.2,0.2,0.2,0.4,0.2c0.2,0,0.3-0.1,0.4-0.2
														c0.1-0.2,0.1-0.4,0.1-0.7s0-0.6-0.1-0.7c-0.1-0.2-0.2-0.2-0.4-0.2C5.8,34.1,5.5,34.1,5.5,34.3z"/>
													<path class="st11" d="M8,33.5h1.2v2.9H8.5v-2.3H8V33.5z"/>
													<path class="st11" d="M11.3,36.5c-0.4,0-0.7-0.1-0.9-0.4c-0.2-0.2-0.3-0.7-0.3-1.1s0.1-0.8,0.3-1.1
														c0.2-0.2,0.6-0.4,0.9-0.4c0.4,0,0.7,0.1,0.9,0.4c0.2,0.2,0.3,0.7,0.3,1.1s-0.1,0.8-0.3,1.1
														C12.1,36.4,11.7,36.5,11.3,36.5z M11,34.3c-0.1,0.2-0.1,0.4-0.1,0.7s0,0.6,0.1,0.7c0.1,0.2,0.2,0.2,0.4,0.2
														s0.3-0.1,0.4-0.2C12,35.4,12,35.2,12,35c0-0.3,0-0.6-0.1-0.7c-0.1-0.2-0.2-0.2-0.4-0.2C11.2,34.1,11,34.1,11,34.3z"/>
													<path class="st11" d="M13.3,33.5h1.2v2.9h-0.7v-2.3h-0.6v-0.6H13.3z"/>
													<path class="st11" d="M16.7,36.5c-0.4,0-0.7-0.1-0.9-0.4c-0.2-0.2-0.3-0.7-0.3-1.1s0.1-0.8,0.3-1.1
														c0.2-0.2,0.6-0.4,0.9-0.4c0.4,0,0.7,0.1,0.9,0.4c0.2,0.2,0.3,0.7,0.3,1.1s-0.1,0.8-0.3,1.1
														C17.5,36.4,17.2,36.5,16.7,36.5z M16.4,34.3c-0.1,0.2-0.1,0.4-0.1,0.7s0,0.6,0.1,0.7c0.1,0.2,0.2,0.2,0.4,0.2
														s0.3-0.1,0.4-0.2c0.1-0.2,0.1-0.4,0.1-0.7s0-0.6-0.1-0.7c-0.1-0.2-0.2-0.2-0.4-0.2S16.4,34.1,16.4,34.3z"/>
													<path class="st11" d="M20,36.5c-0.4,0-0.7-0.1-0.9-0.4c-0.2-0.2-0.3-0.7-0.3-1.1s0.1-0.8,0.3-1.1
														c0.2-0.2,0.6-0.4,0.9-0.4c0.4,0,0.7,0.1,0.9,0.4c0.2,0.2,0.3,0.7,0.3,1.1s-0.1,0.8-0.3,1.1
														C20.8,36.4,20.5,36.5,20,36.5z M19.6,34.3c-0.1,0.2-0.1,0.4-0.1,0.7s0,0.6,0.1,0.7c0.1,0.2,0.2,0.2,0.4,0.2
														s0.3-0.1,0.4-0.2c0.1-0.2,0.1-0.4,0.1-0.7s0-0.6-0.1-0.7c-0.1-0.2-0.2-0.2-0.4-0.2C19.9,34.1,19.7,34.1,19.6,34.3z"/>
													<path class="st11" d="M22,33.5h1.2v2.9h-0.7v-2.3H22V33.5z"/>
													<path class="st11" d="M25.5,36.5c-0.4,0-0.7-0.1-0.9-0.4c-0.2-0.2-0.3-0.7-0.3-1.1s0.1-0.8,0.3-1.1
														c0.2-0.2,0.6-0.4,0.9-0.4c0.4,0,0.7,0.1,0.9,0.4c0.2,0.2,0.3,0.7,0.3,1.1s-0.1,0.8-0.3,1.1
														C26.2,36.4,25.9,36.5,25.5,36.5z M25,34.3c-0.1,0.2-0.1,0.4-0.1,0.7s0,0.6,0.1,0.7c0.1,0.2,0.2,0.2,0.4,0.2
														c0.2,0,0.3-0.1,0.4-0.2C26,35.4,26,35.2,26,35c0-0.3,0-0.6-0.1-0.7c-0.1-0.2-0.2-0.2-0.4-0.2
														C25.3,34.1,25.1,34.1,25,34.3z"/>
													<path class="st11" d="M28.8,36.5c-0.4,0-0.7-0.1-0.9-0.4c-0.2-0.2-0.3-0.7-0.3-1.1s0.1-0.8,0.3-1.1
														c0.2-0.2,0.6-0.4,0.9-0.4c0.4,0,0.7,0.1,0.9,0.4c0.2,0.2,0.3,0.7,0.3,1.1s-0.1,0.8-0.3,1.1
														C29.5,36.4,29.2,36.5,28.8,36.5z M28.3,34.3c-0.1,0.2-0.1,0.4-0.1,0.7s0,0.6,0.1,0.7c0.1,0.2,0.2,0.2,0.4,0.2
														c0.2,0,0.3-0.1,0.4-0.2c0.1-0.1,0.1-0.4,0.1-0.7s0-0.6-0.1-0.7c-0.1-0.2-0.2-0.2-0.4-0.2
														C28.6,34.1,28.4,34.1,28.3,34.3z"/>
													<path class="st11" d="M32.1,36.5c-0.4,0-0.7-0.1-0.9-0.4c-0.2-0.2-0.3-0.7-0.3-1.1s0.1-0.8,0.3-1.1
														c0.2-0.2,0.6-0.4,0.9-0.4c0.4,0,0.7,0.1,0.9,0.4c0.2,0.2,0.3,0.7,0.3,1.1s-0.1,0.8-0.3,1.1
														C32.9,36.4,32.5,36.5,32.1,36.5z M31.6,34.3c-0.1,0.2-0.1,0.4-0.1,0.7s0,0.6,0.1,0.7c0.1,0.2,0.2,0.2,0.4,0.2
														c0.2,0,0.3-0.1,0.4-0.2c0.1-0.2,0.1-0.4,0.1-0.7s0-0.6-0.1-0.7c-0.1-0.2-0.2-0.2-0.4-0.2
														C31.9,34.1,31.8,34.1,31.6,34.3z"/>
													<path class="st11" d="M35.4,36.5c-0.4,0-0.7-0.1-0.9-0.4c-0.2-0.2-0.3-0.7-0.3-1.1s0.1-0.8,0.3-1.1
														c0.2-0.2,0.6-0.4,0.9-0.4c0.4,0,0.7,0.1,0.9,0.4c0.2,0.2,0.3,0.7,0.3,1.1s-0.1,0.8-0.3,1.1
														C36.1,36.4,35.9,36.5,35.4,36.5z M35,34.3c-0.1,0.2-0.1,0.4-0.1,0.7s0,0.6,0.1,0.7c0.1,0.2,0.2,0.2,0.4,0.2
														s0.3-0.1,0.4-0.2C36,35.4,36,35.2,36,35c0-0.3,0-0.6-0.1-0.7c-0.1-0.2-0.2-0.2-0.4-0.2C35.2,34.1,35.1,34.1,35,34.3z"
														/>
													<path class="st11" d="M38.7,36.5c-0.4,0-0.7-0.1-0.9-0.4c-0.2-0.2-0.3-0.7-0.3-1.1s0.1-0.8,0.3-1.1
														c0.2-0.2,0.6-0.4,0.9-0.4c0.4,0,0.7,0.1,0.9,0.4c0.2,0.2,0.3,0.7,0.3,1.1s-0.1,0.8-0.3,1.1S39.2,36.5,38.7,36.5z
														 M38.3,34.3c-0.1,0.2-0.1,0.4-0.1,0.7s0,0.6,0.1,0.7c0.1,0.2,0.2,0.2,0.4,0.2s0.3-0.1,0.4-0.2c0.1-0.2,0.1-0.4,0.1-0.7
														s0-0.6-0.1-0.7c-0.1-0.2-0.2-0.2-0.4-0.2S38.4,34.1,38.3,34.3z"/>
													<path class="st11" d="M42.1,36.5c-0.4,0-0.7-0.1-0.9-0.4c-0.2-0.2-0.3-0.7-0.3-1.1s0.1-0.8,0.3-1.1
														c0.2-0.2,0.6-0.4,0.9-0.4c0.4,0,0.7,0.1,0.9,0.4c0.2,0.2,0.3,0.7,0.3,1.1s-0.1,0.8-0.3,1.1
														C42.7,36.4,42.5,36.5,42.1,36.5z M41.6,34.3c-0.1,0.2-0.1,0.4-0.1,0.7s0,0.6,0.1,0.7c0.1,0.2,0.2,0.2,0.4,0.2
														s0.3-0.1,0.4-0.2c0.1-0.2,0.1-0.4,0.1-0.7s0-0.6-0.1-0.7c-0.1-0.2-0.2-0.2-0.4-0.2S41.7,34.1,41.6,34.3z"/>
													<path class="st11" d="M44,33.5h1.2v2.9h-0.7v-2.3H44V33.5z"/>
													<path class="st11" d="M5.9,41.6c-0.4,0-0.7-0.1-0.9-0.4c-0.2-0.2-0.3-0.7-0.3-1.1S4.8,39.3,5,39
														c0.2-0.2,0.6-0.4,0.9-0.4c0.4,0,0.7,0.1,0.9,0.4c0.2,0.2,0.3,0.7,0.3,1.1S7,40.8,6.8,41.2C6.6,41.4,6.3,41.6,5.9,41.6z
														 M5.5,39.3c-0.1,0.2-0.1,0.4-0.1,0.7s0,0.6,0.1,0.7c0.1,0.2,0.2,0.2,0.4,0.2c0.2,0,0.3-0.1,0.4-0.2
														c0.1-0.2,0.1-0.4,0.1-0.7s0-0.6-0.1-0.7c-0.1-0.2-0.2-0.2-0.4-0.2S5.5,39.2,5.5,39.3z"/>
												</g>
											</g>
										</g>
									</g>
								</g>
							</g>
						</g>
					</g>
				</g>
			</g>
			<g>
				<g>
					<g>
						<g>
							<defs>
								<polygon id="SVGID_00000017499847084236181380000004511895042302138802_" points="18.1,1.9 18.1,24 38.4,37.6 54.8,37.6 
									75,24 75,1.9 								"/>
							</defs>
							<clipPath id="SVGID_00000047019254311979593890000010899013988096830854_">
								<use xlink:href="#SVGID_00000017499847084236181380000004511895042302138802_"  style="overflow:visible;"/>
							</clipPath>
							
								<g id="XMLID_00000096752992263547912620000008462588637321833609_" style="clip-path:url(#SVGID_00000047019254311979593890000010899013988096830854_);">
								<path id="XMLID_00000026125988879836628600000002801966682809515916_" class="st13" d="M52.8,43.7H40.3
									c-1.3,0-2.3-1-2.3-2.3v-9.8c0-1.3,1-2.3,2.3-2.3h12.6c1.3,0,2.3,1,2.3,2.3v9.8C55.1,42.7,54,43.7,52.8,43.7z"/>
								<path id="XMLID_00000050623132329628455180000010137143811852056255_" class="st13" d="M53.4,31.9H39.6V26
									c0-3.8,3.1-6.9,6.9-6.9s6.9,3.1,6.9,6.9V31.9L53.4,31.9z M41.6,29.9h9.8V26c0-2.8-2.2-5-5-5s-5,2.2-5,5L41.6,29.9L41.6,29.9
									z"/>
								<path id="XMLID_00000082350911124682126210000001474822492460467602_" class="st14" d="M48.6,35c0-1.2-0.9-2.1-2.1-2.1
									s-2.1,0.9-2.1,2.1c0,0.9,0.6,1.5,1.3,2v2.1c0,0.4,0.4,0.8,0.8,0.8s0.8-0.4,0.8-0.8v-2.2C48,36.5,48.6,35.7,48.6,35z"/>
							</g>
						</g>
					</g>
				</g>
			</g>
		</g>
		<g>
			<g>
				<g>
					<path class="st13" d="M73.4,26.7c-0.1,0-0.2,0.1-0.2,0.2v0.8c0,0.1,0.1,0.2,0.2,0.2s0.2-0.1,0.2-0.2v-0.8
						C73.5,26.8,73.4,26.7,73.4,26.7z"/>
					<path class="st13" d="M73.4,25.3c-0.1,0-0.2,0.1-0.2,0.2v0.7c0,0.1,0.1,0.2,0.2,0.2s0.2-0.1,0.2-0.2v-0.8
						C73.5,25.5,73.4,25.3,73.4,25.3z"/>
					<path class="st13" d="M74.4,26.3h-0.7c-0.1,0-0.2,0.1-0.2,0.2s0.1,0.2,0.2,0.2h0.7c0.1,0,0.2-0.1,0.2-0.2
						C74.5,26.5,74.5,26.3,74.4,26.3z"/>
					<path class="st13" d="M72.9,26.3h-0.7c-0.1,0-0.2,0.1-0.2,0.2s0.1,0.2,0.2,0.2h0.7c0.1,0,0.2-0.1,0.2-0.2
						C73,26.5,73,26.3,72.9,26.3z"/>
				</g>
			</g>
			<g>
				<g>
					<g>
						<g>
							<g>
								<path class="st15" d="M70.7,5.4c-0.1,0-0.3,0.1-0.3,0.3V7c0,0.1,0.1,0.3,0.3,0.3C70.8,7.3,71,7.2,71,7V5.8
									C71,5.6,71,5.4,70.7,5.4z"/>
							</g>
							<g>
								<path class="st15" d="M70.7,3.1c-0.1,0-0.3,0.1-0.3,0.3v1.3c0,0.1,0.1,0.3,0.3,0.3C70.8,5.1,71,5,71,4.8V3.4
									C71,3.3,71,3.1,70.7,3.1z"/>
							</g>
						</g>
						<g>
							<g>
								<path class="st15" d="M72.6,4.9h-1.2C71.3,4.9,71,5,71,5.2s0.1,0.3,0.3,0.3h1.2c0.1,0,0.3-0.1,0.3-0.3
									C72.9,5,72.8,4.9,72.6,4.9z"/>
							</g>
							<g>
								<path class="st15" d="M70.2,4.9H69c-0.1,0-0.3,0.1-0.3,0.3c0,0.2,0.1,0.3,0.3,0.3h1.2c0.1,0,0.3-0.1,0.3-0.3
									S70.3,4.9,70.2,4.9z"/>
							</g>
						</g>
					</g>
				</g>
			</g>
			<g>
				<g>
					<g>
						<g>
							<g>
								<path class="st15" d="M11.5,50.2c-0.1,0-0.3,0.1-0.3,0.3V52c0,0.1,0.1,0.3,0.3,0.3c0.1,0,0.3-0.1,0.3-0.3v-1.4
									C11.8,50.5,11.8,50.2,11.5,50.2z"/>
							</g>
							<g>
								<path class="st15" d="M11.5,47.6c-0.1,0-0.3,0.1-0.3,0.3v1.5c0,0.1,0.1,0.3,0.3,0.3c0.1,0,0.3-0.1,0.3-0.3V48
									C11.8,47.8,11.8,47.6,11.5,47.6z"/>
							</g>
						</g>
						<g>
							<g>
								<path class="st15" d="M13.6,49.6h-1.3c-0.1,0-0.3,0.1-0.3,0.3c0,0.1,0.1,0.3,0.3,0.3h1.3c0.1,0,0.3-0.1,0.3-0.3
									C13.9,49.8,13.8,49.6,13.6,49.6z"/>
							</g>
							<g>
								<path class="st15" d="M10.8,49.6H9.5c-0.1,0-0.3,0.1-0.3,0.3c0,0.1,0.1,0.3,0.3,0.3h1.3c0.1,0,0.3-0.1,0.3-0.3
									C11.2,49.8,11,49.6,10.8,49.6z"/>
							</g>
						</g>
					</g>
				</g>
			</g>
		</g>
	</g>
	<g id="XMLID_00000031926658119794620060000008737527992070795183_">
		<path class="st16" d="M67,43.3L67,43.3c-0.6-0.3-0.9-0.8-1-1.1s-0.1-0.8,0.1-1.1c0.4-0.9,1.3-1.1,2.2-0.8l9.6,4.6
			c1.7-1.8,4.3-2.3,6.6-1.3c2.9,1.3,4,4.8,2.7,7.5c-1.3,2.9-4.8,4-7.5,2.7c-2.3-1.1-3.5-3.5-3.1-6l-4.8-2.2l-0.3,0.7
			c-0.2,0.3-0.7,0.4-1,0.3c-0.3-0.2-0.6-0.7-0.3-1l0.3-0.7L70,44.7l-0.7,1.4c-0.2,0.3-0.7,0.4-1,0.3c-0.3-0.2-0.4-0.7-0.3-1l0.7-1.5
			h-0.4L68,44.7c-0.2,0.3-0.7,0.4-1,0.3c-0.3-0.2-0.4-0.7-0.3-1L67,43.3z M82.7,50.1c0.1,0,0.1,0.1,0.2,0.1c0.6,0.3,1.1,0,1.4-0.4
			c0.3-0.6,0-1.1-0.4-1.4c-0.1,0-0.1-0.1-0.2-0.1s-0.1,0-0.2,0c-0.3,0-0.8,0.2-1,0.6C82.2,49.4,82.3,49.8,82.7,50.1z"/>
	</g>
</g>
</svg>
