<?xml version="1.0" encoding="utf-8"?>
<!-- Generator: Adobe Illustrator 25.4.1, SVG Export Plug-In . SVG Version: 6.00 Build 0)  -->
<svg version="1.1" id="Layer_1" xmlns="http://www.w3.org/2000/svg" xmlns:xlink="http://www.w3.org/1999/xlink" x="0px" y="0px"
	 viewBox="0 0 103.2 67.9" style="enable-background:new 0 0 103.2 67.9;" xml:space="preserve">
<style type="text/css">
	.st0{display:none;opacity:0.54;fill:#FFFFFF;enable-background:new    ;}
	.st1{opacity:0.3;}
	.st2{fill:#3B4751;}
	.st3{fill:#8EA2B1;}
	.st4{opacity:0.4;fill:url(#XMLID_00000011033019029081757460000004024972760607320227_);enable-background:new    ;}
	.st5{fill:#647E99;}
	.st6{opacity:0.1;fill:#FFFFFF;enable-background:new    ;}
	.st7{fill:#FF4C64;}
	.st8{opacity:0.2;fill:url(#XMLID_00000098215465558319881840000000459169035000162439_);enable-background:new    ;}
	.st9{fill:#FFFFFF;}
	.st10{fill:#ED4873;}
	.st11{fill:#E23056;}
	.st12{fill:#F9647D;}
	.st13{opacity:0.1;enable-background:new    ;}
	.st14{fill:#1EABF9;}
	.st15{fill:#E8E8F9;}
	.st16{enable-background:new    ;}
</style>
<rect x="-11.1" y="-28.6" class="st0" width="125.1" height="127.9"/>
<g>
	<g id="Background_00000172406666025275788090000006116972922171674033_" class="st1">
		<path class="st2" d="M84.2,3.5c-11.8-6-16,0.1-32.3-0.9C45.6,2.1,44.6-0.3,37.2,0C16.9,0.8,12.5,34.8,31,40.8
			C49.4,47,46.5,64.3,70.8,63.1C85.5,62.4,81,44.3,87.9,34.8C98.5,20.1,95.4,9.1,84.2,3.5z M67.2,49c0.2-0.3,0.5-0.4,0.8-0.2
			s0.4,0.5,0.2,0.8c-0.2,0.3-0.5,0.4-0.8,0.2C67.2,49.6,67.1,49.2,67.2,49z"/>
		<path id="Background_00000112593270285195215530000008095288701935541943_" class="st2" d="M70.6,49.7c0,0,4.5,1.6,6.8,4.4
			c2.2,2.7,7.6,7.5-9.9,11c-16.1,3.3-47.7,4.8-41-2.2C33.1,56,0,61.4,0,54C0,43.1,70.6,49.7,70.6,49.7z"/>
		<path id="Background_00000144319930566836998500000003624958855053273999_" class="st2" d="M47.7,65.9c0,0-4.7-1-7.3-3.3
			s-8.6-6.3,8.2-12.4c15.5-5.7,46.5-11.6,40.9-3.7c-5.6,7.9,12.7,0.3,13.7,7.6C104.8,64.8,47.7,65.9,47.7,65.9z"/>
	</g>
	<polygon id="XMLID_00000047743056272051820850000012192834778269980304_" class="st3" points="53.7,57.6 39.8,57.6 41,46.5 
		52.4,46.5 	"/>
	
		<linearGradient id="XMLID_00000128454160005433371460000009130728796407251355_" gradientUnits="userSpaceOnUse" x1="46.75" y1="259.6725" x2="46.75" y2="262.7227" gradientTransform="matrix(1 0 0 -1 0 313.4919)">
		<stop  offset="0" style="stop-color:#656666;stop-opacity:0"/>
		<stop  offset="1" style="stop-color:#656666"/>
	</linearGradient>
	
		<polygon id="XMLID_00000003106256561537513700000004556572017581253513_" style="opacity:0.4;fill:url(#XMLID_00000128454160005433371460000009130728796407251355_);enable-background:new    ;" points="
		40.2,53.8 53.3,53.8 52.9,50.8 40.5,50.8 	"/>
	<path id="XMLID_00000029740980974685992430000012387631374965500290_" class="st3" d="M59,58.1L59,58.1c0-1-0.8-1.8-1.7-1.8H36.6
		c-1,0-1.8,0.8-1.8,1.8c0,0,0,0,0,0.1L59,58.1L59,58.1z"/>
	<path class="st3" d="M75.3,13.7V49c0,0.1,0,0.2,0,0.4l-0.2,0.4c-0.3,0.5-0.8,0.9-1.4,0.9H18.5c-0.6,0-1.2-0.4-1.4-0.9
		c0-0.1-0.1-0.2-0.1-0.4c0-0.1,0-0.2,0-0.4V13.7c0-0.5,0.2-1,0.6-1.3c0.3-0.2,0.6-0.4,1-0.4h55.2c0.4,0,0.7,0.1,1,0.4
		C75,12.7,75.3,13.2,75.3,13.7z"/>
	<path class="st5" d="M72.9,14H19.3c-0.4,0-0.8,0.4-0.8,0.8v32.8c0,0.4,0.4,0.8,0.8,0.8h53.6c0.4,0,0.8-0.4,0.8-0.8V14.8
		C73.7,14.4,73.3,14,72.9,14z"/>
	<path class="st3" d="M62.7,50.8h-33c-1.4,0-2.6-0.4-2.6-0.9h38.2C65.3,50.4,64.1,50.8,62.7,50.8z"/>
	<path class="st5" d="M46.6,13.2h-1.9c0,0-0.1,0-0.1-0.1s0-0.1,0.1-0.1h1.9C46.7,13.1,46.7,13.1,46.6,13.2
		C46.7,13.2,46.7,13.2,46.6,13.2z"/>
	<path class="st6" d="M17,14v30l15.5-30H17z M36.1,14L18.3,48.4h11L47.2,14H36.1z"/>
	<g id="XMLID_00000045604411932320646420000001504340742124586419_">
		<path id="XMLID_00000113340629871197779260000001585783163250524546_" class="st7" d="M17.7,16.1c-1.2,0.4-3.9,1-7.7,0
			c-0.5-0.1-0.9,0.2-0.9,0.7v8.1c0,3.6,1.6,7.1,4.5,9.4c1.5,1.2,3.2,2.2,4.8,2.2s3.1-0.9,4.6-2c2.9-2.3,4.7-5.9,4.7-9.5v-8.1
			c0-0.5-0.5-0.8-0.9-0.7c-3.7,0.9-6.5,0.3-7.7,0C18.5,16,18.1,16,17.7,16.1z"/>
		<path id="XMLID_00000087408813519845658280000003301049797602958775_" class="st5" d="M18.3,34.7c-0.9,0-2.1-0.6-3.4-1.7
			c-2.3-1.9-3.6-4.8-3.6-7.8v-6.6c0.9,0.2,1.8,0.2,2.8,0.2c1.9,0,3.4-0.3,4.4-0.6c0.9,0.3,2.4,0.6,4.4,0.6c0.9,0,1.8-0.1,2.8-0.2
			v6.6c0,3.1-1.4,6.1-3.8,8C20.3,34,19.1,34.7,18.3,34.7z"/>
		
			<linearGradient id="XMLID_00000076593009677556679390000003635853267549280169_" gradientUnits="userSpaceOnUse" x1="18.333" y1="287.1371" x2="25.4996" y2="287.1371" gradientTransform="matrix(1 0 0 -1 0 313.4919)">
			<stop  offset="0" style="stop-color:#FFFFFF"/>
			<stop  offset="1" style="stop-color:#FFFFFF;stop-opacity:0"/>
		</linearGradient>
		
			<path id="XMLID_00000007402214887756458710000003201434698044717240_" style="opacity:0.2;fill:url(#XMLID_00000076593009677556679390000003635853267549280169_);enable-background:new    ;" d="
			M21.7,33c2.4-1.9,3.8-4.9,3.8-8v-6.5c-0.9,0.2-1.8,0.2-2.8,0.2c-1.9,0-3.4-0.3-4.4-0.6v16.5C19.1,34.7,20.3,34,21.7,33z"/>
		<path id="XMLID_00000091703154832569757440000013824396336183610513_" class="st9" d="M17.7,29.7c-0.2,0-0.4-0.1-0.6-0.2L14.6,27
			c-0.3-0.3-0.4-0.8-0.1-1.2c0.3-0.3,0.8-0.4,1.2-0.1l1.8,1.9l3.5-5.2c0.3-0.4,0.8-0.5,1.2-0.2c0.4,0.3,0.5,0.8,0.2,1.2l-4.2,5.9
			C18.2,29.5,18,29.7,17.7,29.7L17.7,29.7z"/>
	</g>
	<g id="XMLID_00000063612776927726685530000015168397763716487352_">
		<g id="XMLID_00000072990518478806272750000002326897736055720357_">
			<g id="XMLID_00000109005487830951560170000001208973909891007158_">
				<polygon id="XMLID_00000009550701444502575770000012752326593913082805_" class="st10" points="66.5,16.5 56.7,16.5 57.9,9.9 
					67.7,9.9 				"/>
				<polygon id="XMLID_00000029012162643611488330000016588403753551986072_" class="st10" points="60.4,9.1 58.1,9.1 57.9,9.9 
					60.7,9.9 				"/>
			</g>
			<g id="XMLID_00000075140296359936552180000011246327530232803996_">
				<g>
					<polygon id="XMLID_00000153703675272656592900000013924417290415964308_" class="st11" points="66.3,16.5 56.5,16.5 57.8,9.9 
						67.5,9.9 					"/>
					<polygon id="XMLID_00000101092355617965909730000003664372282093143695_" class="st11" points="60.2,9.1 57.9,9.1 57.8,9.9 
						60.5,9.9 					"/>
				</g>
			</g>
			<g id="XMLID_00000034795788833297906090000010962413167113479573_">
				<polygon id="XMLID_00000046333096115559231840000007989315917376641468_" class="st12" points="66.5,16.5 56.7,16.5 56.3,9.9 
					66.1,9.9 				"/>
				<polygon id="XMLID_00000029748558314062438150000009282606130308951442_" class="st12" points="58.6,9.1 56.3,9.1 56.3,9.9 
					59.1,9.9 				"/>
			</g>
			<g id="XMLID_00000160901562436535768980000009359631709061548937_">
				<g>
					<polygon id="XMLID_00000143599524775163115830000017330311476732394388_" class="st7" points="66.3,16.5 56.5,16.5 56.1,9.9 
						65.9,9.9 					"/>
					<polygon id="XMLID_00000016761582881128561990000006593360489951410340_" class="st7" points="58.4,9.1 56.1,9.1 56.1,9.9 
						58.9,9.9 					"/>
				</g>
			</g>
		</g>
		<g id="XMLID_00000091731512784325634930000010734926660097512852_">
			<path id="XMLID_00000172420440445034177550000015842316983651390906_" class="st9" d="M62.3,15.7h-2.1c-0.4,0-0.7-0.3-0.7-0.7
				v-1.6c0-0.4,0.3-0.7,0.7-0.7h2.2c0.4,0,0.7,0.3,0.7,0.7V15C63,15.4,62.7,15.7,62.3,15.7z"/>
			<path id="XMLID_00000152257343123256257000000009886498171826655403_" class="st9" d="M62.6,13.3h-2.8v-1.2
				c0-0.8,0.6-1.4,1.4-1.4c0.8,0,1.4,0.6,1.4,1.4C62.6,12.1,62.6,13.3,62.6,13.3z M60.2,12.9h2v-0.8c0-0.5-0.4-1-1-1
				c-0.5,0-1,0.4-1,1V12.9z"/>
			<path id="XMLID_00000090275189889712720230000016166958984545386912_" class="st7" d="M61.7,14c0-0.2-0.2-0.4-0.4-0.4
				s-0.4,0.2-0.4,0.4s0.1,0.3,0.3,0.4v0.4c0,0.1,0.1,0.2,0.2,0.2s0.2-0.1,0.2-0.2v-0.4C61.6,14.3,61.7,14.1,61.7,14z"/>
		</g>
	</g>
	<path class="st13" d="M30.5,54.3H11.6c-1.5,0-2.7-1.2-2.7-2.7l0,0c0-1.5,1.2-2.7,2.7-2.7h18.9c1.5,0,2.7,1.2,2.7,2.7l0,0
		C33.2,53.1,32,54.3,30.5,54.3z"/>
	<path class="st14" d="M10.4,41.7h0.7v10.7h-0.7c-0.5,0-1-0.4-1-0.9v-1.4c0-0.2,0.1-0.2,0.3-0.2H10c0.2,0,0.3-0.1,0.3-0.2v-5.1
		c0-0.2-0.1-0.2-0.3-0.2H9.7c-0.2,0-0.3-0.1-0.3-0.2v-1.4C9.4,42.1,9.9,41.7,10.4,41.7L10.4,41.7z"/>
	<path class="st3" d="M14.7,40.9L14.7,40.9H9.9c-0.8,0-1.5,0.7-1.5,1.5v9.2c0,0.8,0.7,1.5,1.5,1.5h1.8c0,0,0,0.1,0.1,0.1h0.8
		c0,0,0.1,0,0.1-0.1h0.9c0,0,0,0.1,0.1,0.1h1.9c0,0,0.1,0,0.1-0.1h0.5c0,0,0,0.1,0.1,0.1h1.9c0,0,0.1,0,0.1-0.1h13.3
		c0.8,0,1.5-0.7,1.5-1.5v-9.2c0-0.8-0.7-1.5-1.5-1.5H17.8l0,0c0,0,0-0.1-0.1-0.1H15C14.7,40.8,14.7,40.8,14.7,40.9L14.7,40.9z"/>
	<path class="st5" d="M10.4,42.1h20.8c0.5,0,1,0.4,1,0.8v8.2c0,0.5-0.4,0.8-1,0.8H10.4c-0.5,0-1-0.4-1-0.8v-1.3
		c0-0.1,0.1-0.2,0.2-0.2h0.3c0.2,0,0.3-0.1,0.3-0.2v-4.7c0-0.1-0.1-0.2-0.3-0.2H9.6c-0.2,0-0.2-0.1-0.2-0.2V43
		C9.4,42.5,9.9,42.1,10.4,42.1L10.4,42.1z"/>
	<path class="st5" d="M9.9,46.2v1.7c0,0,0,0.1-0.1,0.1c0,0-0.1,0-0.1-0.1v-1.8C9.7,46.1,9.8,46.1,9.9,46.2
		C9.9,46.1,9.9,46.1,9.9,46.2z"/>
	<g>
		<path class="st13" d="M65.4,48.9V32.3c0-0.9,0.8-1.7,1.7-1.7h1c1.5,0,2.7,1.2,2.7,2.7v15.6c0,1.5-1.2,2.7-2.7,2.7l0,0
			C66.6,51.6,65.4,50.3,65.4,48.9z"/>
		<path class="st3" d="M67.8,53.1h14.5c0.5,0,1-0.4,1-1V31.5c0-0.5-0.4-1-1-1H67.8c-0.5,0-1,0.4-1,1v20.6
			C66.8,52.6,67.2,53.1,67.8,53.1z"/>
		<path class="st9" d="M67.7,32.5v17.6c0,0.4,0.3,0.6,0.7,0.6h13.2c0.4,0,0.7-0.3,0.7-0.6V32.5c0-0.4-0.3-0.6-0.7-0.6H68.4
			C68,31.8,67.7,32.1,67.7,32.5z"/>
		<path class="st5" d="M68.4,31.8h13.2c0.4,0,0.7,0.3,0.7,0.6v17.7c0,0.4-0.3,0.6-0.7,0.6H68.4c-0.4,0-0.7-0.3-0.7-0.6V32.5
			C67.7,32.1,68,31.8,68.4,31.8z"/>
		<path class="st5" d="M74.3,31.2h1.3c0,0,0.1,0,0.1-0.1c0,0,0-0.1-0.1-0.1h-1.3C74.3,31.1,74.3,31.1,74.3,31.2L74.3,31.2z"/>
		<circle class="st9" cx="74.8" cy="52" r="0.7"/>
	</g>
	<path class="st6" d="M10.4,42.1h5.9l15.8,7.6v1.5c0,0.4-0.4,0.8-1,0.8H18.6l-8.3-3.9v-3.2c0-0.1-0.1-0.2-0.3-0.2H9.7
		c-0.2,0-0.2-0.1-0.2-0.2V43C9.4,42.5,9.8,42.1,10.4,42.1z"/>
	<path class="st6" d="M81.9,32l-9.5,18.7h-4c-0.4,0-0.6-0.3-0.6-0.7v-4.9l7.5-13.3h6.3C81.7,31.8,81.8,31.9,81.9,32z"/>
	<path class="st15" d="M11.1,36.8v-1.1H10c0-0.3-0.1-0.5-0.3-0.8l0.7-0.7l-0.8-0.8L8.9,34c-0.3-0.2-0.6-0.3-0.9-0.4v-1.1H6.9v1.1
		c-0.2,0-0.4,0.1-0.6,0.2l-0.7-0.7l-0.8,0.8l0.7,0.7c-0.2,0.3-0.3,0.6-0.4,0.9H4.2v1.1h1c0.1,0.3,0.2,0.6,0.4,0.8l-0.7,0.7L5.5,39
		l0.7-0.7c0.3,0.2,0.6,0.3,0.9,0.3v1.1h1.1v-1.2c0.2-0.1,0.5-0.2,0.7-0.3l0.7,0.7l0.8-0.8l-0.7-0.7c0.1-0.2,0.2-0.4,0.3-0.6H11.1z
		 M8.3,36.9c-0.4,0.4-1.1,0.4-1.5,0s-0.4-1.1,0-1.5s1.1-0.4,1.5,0C8.7,35.8,8.7,36.5,8.3,36.9z"/>
	<g>
		<g>
			<g>
				<g>
					<path class="st9" d="M71.4,16.6c0.1,0,0.2,0.1,0.2,0.2v0.9c0,0.1-0.1,0.2-0.2,0.2s-0.2-0.1-0.2-0.2v-0.9
						C71.2,16.7,71.3,16.6,71.4,16.6z"/>
				</g>
			</g>
			<g>
				<g>
					<path class="st9" d="M71.4,15c0.1,0,0.2,0.1,0.2,0.2v0.9c0,0.1-0.1,0.2-0.2,0.2s-0.2-0.1-0.2-0.2v-0.9
						C71.2,15.1,71.3,15,71.4,15z"/>
				</g>
			</g>
		</g>
		<g>
			<g>
				<g>
					<path class="st9" d="M70.2,16.3H71c0.1,0,0.2,0.1,0.2,0.2s-0.1,0.2-0.2,0.2h-0.8c-0.1,0-0.2-0.1-0.2-0.2S70.1,16.3,70.2,16.3z"
						/>
				</g>
			</g>
			<g>
				<g>
					<path class="st9" d="M71.9,16.3h0.8c0.1,0,0.2,0.1,0.2,0.2s-0.1,0.2-0.2,0.2h-0.8c-0.1,0-0.2-0.1-0.2-0.2
						C71.7,16.4,71.8,16.3,71.9,16.3z"/>
				</g>
			</g>
		</g>
	</g>
	<g id="XMLID_00000036218948156701229870000017786242780660809393_">
		<path class="st7" d="M68.6,46.3c-1.1-0.7-2.6-0.6-3.6,0.3l-5-3.1c-0.4-0.3-0.9-0.1-1.2,0.3c-0.1,0.2-0.1,0.3-0.1,0.5
			c0,0.3,0.2,0.6,0.5,0.7l0,0l-0.3,0.5c0,0.2,0,0.4,0.2,0.5s0.4,0.1,0.5-0.1l0.3-0.5l0.2,0.1l-0.6,0.9c0,0.2,0,0.4,0.2,0.5
			s0.4,0.1,0.5-0.1l0.5-0.9l0.3,0.2l-0.3,0.5c-0.1,0.1,0,0.4,0.2,0.5s0.4,0.1,0.5-0.1l0.3-0.5l2.4,1.5c-0.4,1.3,0.2,2.7,1.4,3.5
			c1.4,0.9,3.3,0.4,4.2-1C70.6,49.1,70.1,47.2,68.6,46.3z M67.7,50.3c-0.5,0-0.9-0.4-0.9-0.9s0.4-0.9,0.9-0.9s0.9,0.4,0.9,0.9
			C68.6,49.9,68.2,50.3,67.7,50.3z"/>
	</g>
	<g id="logo">
		<g id="XMLID_121_">
			<g id="XMLID_122_">
				<g id="XMLID_123_">
					<path class="st9" d="M62.2,28.2c0-1.4-0.4-2.7-0.9-4c0.7-0.5,0.3-1.8-0.6-1.8c-1.3,0-1.3,2,0,2c0.7,1.9,0.8,4.1,0.2,6.1
						c-0.3-1-1.3-1.6-2.3-1.4c-1-3-4.3-4.3-7.3-4.3c-2.8-0.3-5.6-0.3-8.3,0c-3,0-6.4,1.3-7.4,4.3c-1.1-0.1-2.1,0.5-2.3,1.5
						c-0.6-2-0.5-4.2,0.2-6.2c1.3,0,1.3-2,0-2c-0.9,0-1.3,1.2-0.6,1.7c-0.6,1.6-1,3.3-0.8,5.1c0.1,1.5,0.6,3,1.2,4.4
						c0.4,1.2,1.3,1.8,2.6,1.7c1.6,4.6,7.3,4.4,11.3,4.5c4.1-0.1,9.7,0.1,11.3-4.5c1.7,0.2,2.4-0.7,2.9-2.2
						C61.8,31.5,62.2,29.8,62.2,28.2z M56.2,31.2c0,2.4-0.5,5.2-3.3,5.6c-3.9,0.6-7.9,0.6-11.8,0c-2.8-0.4-3.3-3.2-3.3-5.6
						c-0.2-3.2,2.7-4.3,5.4-4.3c2.5-0.3,5.1-0.3,7.7,0C53.5,26.9,56.5,28,56.2,31.2z"/>
				</g>
			</g>
		</g>
		<path class="st9" d="M44.2,31.8c-0.1,0.8-0.7,0-1.7-0.2c-0.9-0.2-1.8,0.5-1.6-0.4C41.3,29.3,44.5,29.8,44.2,31.8z M53.1,31.3
			c0.1,0.9-0.7,0.2-1.6,0.4c-0.9,0.2-1.5,1-1.7,0.2C49.5,29.8,52.8,29.3,53.1,31.3z"/>
		<path class="st9" d="M44.2,31.8c-0.1,0.8-0.7,0-1.7-0.2c-0.9-0.2-1.8,0.5-1.6-0.4C41.3,29.3,44.5,29.8,44.2,31.8z M51.5,31.6
			c-0.9,0.2-1.5,1-1.7,0.2c-0.1-0.9,0.5-1.7,1.4-1.8c0.9-0.2,1.8,0.4,1.9,1.3C53.3,32.1,52.4,31.5,51.5,31.6L51.5,31.6z"/>
		<path id="XMLID_120_" class="st9" d="M44.2,31.8c-0.1,0.8-0.7,0-1.7-0.2c-0.9-0.2-1.8,0.5-1.6-0.4C41.3,29.3,44.5,29.8,44.2,31.8z
			 M51.5,31.6c-0.9,0.2-1.5,1-1.7,0.2c-0.1-0.9,0.5-1.7,1.4-1.8c0.9-0.2,1.8,0.4,1.9,1.3C53.3,32.1,52.4,31.5,51.5,31.6L51.5,31.6z"
			/>
		<path class="st9" d="M49.1,34.3c0,2.5-4.2,2.5-4.1,0c0-0.2,0.2-0.4,0.4-0.4h3.4C48.9,34,49.1,34.1,49.1,34.3z"/>
	</g>
	<g id="logo_00000120523946136921781510000010961678516425700001_">
		<g id="XMLID_00000167360326575284665470000011138856945251906725_" class="st16">
			<g id="XMLID_00000027584071793636330820000010227997739428617377_">
				<g id="XMLID_00000067209682520771281830000013011369802384902298_">
					<path class="st9" d="M80.7,40.2c0-0.5-0.1-1-0.3-1.5c0.3-0.2,0.1-0.7-0.2-0.7c-0.5,0-0.5,0.7,0,0.7c0.3,0.7,0.3,1.5,0.1,2.2
						c-0.1-0.4-0.5-0.6-0.9-0.5c-0.3-1.1-1.6-1.6-2.7-1.6c-1-0.1-2-0.1-3.1,0c-1.1,0-2.4,0.5-2.7,1.6c-0.4,0-0.8,0.2-0.9,0.6
						c-0.2-0.7-0.2-1.5,0.1-2.3c0.5,0,0.5-0.7,0-0.7c-0.3,0-0.5,0.4-0.2,0.6c-0.2,0.6-0.4,1.2-0.3,1.9c0,0.6,0.2,1.1,0.4,1.6
						c0.1,0.4,0.5,0.7,0.9,0.6c0.6,1.7,2.7,1.6,4.2,1.6s3.6,0,4.2-1.6c0.6,0.1,0.9-0.2,1.1-0.8C80.6,41.4,80.7,40.8,80.7,40.2z
						 M78.6,41.3c0,0.9-0.2,1.9-1.2,2c-1.4,0.2-2.9,0.2-4.3,0c-1-0.1-1.2-1.2-1.2-2c-0.1-1.2,1-1.6,2-1.6c0.9-0.1,1.9-0.1,2.8,0
						C77.6,39.7,78.6,40.1,78.6,41.3z"/>
				</g>
			</g>
		</g>
		<path class="st9" d="M74.1,41.5c-0.1,0.3-0.3,0-0.6-0.1c-0.3-0.1-0.7,0.2-0.6-0.1C73.1,40.6,74.2,40.8,74.1,41.5z M77.4,41.3
			c0.1,0.3-0.3,0.1-0.6,0.1s-0.6,0.4-0.6,0.1C76.1,40.8,77.3,40.6,77.4,41.3z"/>
		<path class="st9" d="M74.1,41.5c-0.1,0.3-0.3,0-0.6-0.1c-0.3-0.1-0.7,0.2-0.6-0.1C73.1,40.6,74.2,40.8,74.1,41.5z M76.8,41.4
			c-0.3,0.1-0.6,0.4-0.6,0.1c-0.1-0.3,0.2-0.6,0.5-0.7c0.3-0.1,0.6,0.2,0.7,0.5S77.1,41.4,76.8,41.4L76.8,41.4z"/>
		<path id="XMLID_00000158723346642539619540000014954100610809977478_" class="st9" d="M74.1,41.5c-0.1,0.3-0.3,0-0.6-0.1
			c-0.3-0.1-0.7,0.2-0.6-0.1C73.1,40.6,74.2,40.8,74.1,41.5z M76.8,41.4c-0.3,0.1-0.6,0.4-0.6,0.1c-0.1-0.3,0.2-0.6,0.5-0.7
			c0.3-0.1,0.6,0.2,0.7,0.5S77.1,41.4,76.8,41.4L76.8,41.4z"/>
		<path class="st9" d="M75.9,42.4c0,0.9-1.5,0.9-1.5,0c0-0.1,0.1-0.1,0.1-0.1h1.2C75.9,42.3,75.9,42.4,75.9,42.4z"/>
	</g>
	<g id="logo_00000083053651319963789460000008598499802888583850_">
		<g id="XMLID_00000038398551818136019450000005762793519304318103_" class="st16">
			<g id="XMLID_00000056413570964739329710000002745982830649985695_">
				<g id="XMLID_00000176749613756917770230000005478752304675343510_">
					<path class="st9" d="M26.5,46.2c0-0.5-0.1-1-0.3-1.5c0.3-0.2,0.1-0.7-0.2-0.7c-0.5,0-0.5,0.7,0,0.7c0.3,0.7,0.3,1.5,0.1,2.2
						c-0.1-0.4-0.5-0.6-0.9-0.5c-0.3-1.1-1.6-1.6-2.7-1.6c-1-0.1-2-0.1-3.1,0c-1.1,0-2.4,0.5-2.7,1.6c-0.4,0-0.8,0.2-0.9,0.6
						c-0.2-0.7-0.2-1.5,0.1-2.3c0.5,0,0.5-0.7,0-0.7c-0.3,0-0.5,0.4-0.2,0.6c-0.2,0.6-0.4,1.2-0.3,1.9c0,0.6,0.2,1.1,0.4,1.6
						c0.1,0.4,0.5,0.7,0.9,0.6c0.6,1.7,2.7,1.6,4.2,1.6c1.5,0,3.6,0,4.2-1.6c0.6,0.1,0.9-0.2,1.1-0.8C26.3,47.4,26.5,46.8,26.5,46.2
						z M24.3,47.3c0,0.9-0.2,1.9-1.2,2c-1.4,0.2-2.9,0.2-4.3,0c-1-0.1-1.2-1.2-1.2-2c-0.1-1.2,1-1.6,2-1.6c0.9-0.1,1.9-0.1,2.8,0
						C23.3,45.7,24.4,46.1,24.3,47.3z"/>
				</g>
			</g>
		</g>
		<path class="st9" d="M19.9,47.5c-0.1,0.3-0.3,0-0.6-0.1c-0.3-0.1-0.7,0.2-0.6-0.1C18.8,46.6,20,46.8,19.9,47.5z M23.1,47.3
			c0.1,0.3-0.3,0.1-0.6,0.1c-0.3,0.1-0.6,0.4-0.6,0.1C21.8,46.8,23,46.6,23.1,47.3z"/>
		<path class="st9" d="M19.9,47.5c-0.1,0.3-0.3,0-0.6-0.1c-0.3-0.1-0.7,0.2-0.6-0.1C18.8,46.6,20,46.8,19.9,47.5z M22.5,47.5
			c-0.3,0.1-0.6,0.4-0.6,0.1c-0.1-0.3,0.2-0.6,0.5-0.7c0.3-0.1,0.6,0.2,0.7,0.5C23.2,47.7,22.9,47.4,22.5,47.5L22.5,47.5z"/>
		<path id="XMLID_00000096043938227798590640000012556745383664207500_" class="st9" d="M19.9,47.5c-0.1,0.3-0.3,0-0.6-0.1
			c-0.3-0.1-0.7,0.2-0.6-0.1C18.8,46.6,20,46.8,19.9,47.5z M22.5,47.5c-0.3,0.1-0.6,0.4-0.6,0.1c-0.1-0.3,0.2-0.6,0.5-0.7
			c0.3-0.1,0.6,0.2,0.7,0.5C23.2,47.7,22.9,47.4,22.5,47.5L22.5,47.5z"/>
		<path class="st9" d="M21.7,48.5c0,0.9-1.5,0.9-1.5,0c0-0.1,0.1-0.1,0.1-0.1h1.2C21.6,48.3,21.7,48.4,21.7,48.5z"/>
	</g>
</g>
</svg>
