<svg width="41" height="40" viewBox="0 0 41 40" fill="none" xmlns="http://www.w3.org/2000/svg">
<path d="M40.5 0V40H0.5V0H40.5ZM28.3571 5.2C23.4131 5.2 21.0054 7.10613 21.0054 10.6435V29.3015C21.0054 32.9122 23.4131 34.8 28.3571 34.8C33.301 34.8 34.9 32.5273 34.9 29.3015V22.1536H29.0555V29.5581C29.0555 30.3096 28.743 30.6395 28.0997 30.6395C27.4748 30.6395 27.144 30.3279 27.144 29.5581V10.3869C27.144 9.74539 27.4565 9.37882 28.0997 9.37882C28.743 9.37882 29.0555 9.76372 29.0555 10.3869V17.095H34.9V10.6435C34.9 7.47269 33.3194 5.2 28.3571 5.2ZM13.9662 5.30997H6.10001V34.6717H12.257V23.3449H13.9662C18.028 23.3449 19.7372 21.4388 19.7372 17.9014V10.7534C19.7372 7.2161 18.028 5.30997 13.9662 5.30997ZM12.2386 9.56211C13.6354 9.56211 14.2052 9.947 14.2052 11.2116V17.4799C14.2052 18.7445 13.6354 19.1111 12.2386 19.1111V9.56211Z" fill="white"/>
</svg>
