<svg width="62" height="40" viewBox="0 0 62 40" fill="none" xmlns="http://www.w3.org/2000/svg">
<path d="M30.5353 4.88372C33.9091 4.88372 36.9169 6.69849 37.2306 10.3544H32.9151C32.8893 9.18008 31.8695 8.35331 30.7451 8.35331C28.2608 8.35331 27.8677 10.515 27.8677 12.4357C27.8677 14.2242 28.6267 16.0653 30.5095 16.0653C32.0522 16.0653 32.837 15.1582 33.0462 13.6904H37.3616C36.9692 17.3996 34.1447 19.5349 30.5353 19.5349C26.4561 19.5349 23.4224 16.6788 23.4224 12.4357C23.4224 8.03275 26.1682 4.88372 30.5353 4.88372ZM17.1298 25.3488C20.371 25.3488 23.5069 26.069 23.5069 29.9925V36.0502C23.5069 37.2247 23.5069 38.5058 24.0337 39.5995H19.5282C19.3695 39.1727 19.3175 38.7452 19.2642 38.2921C18.1053 39.5193 16.3923 40 14.7587 40C12.1502 40 10.0945 38.6656 10.0945 35.8101C10.0945 31.2999 14.9427 31.6465 18.0526 31.0066C18.8167 30.8462 19.2382 30.5791 19.2382 29.7255C19.2382 28.6845 17.9999 28.2846 17.0771 28.2846C15.8389 28.2846 15.0487 28.8443 14.8374 30.0188H10.6479C10.6527 29.91 10.6602 29.8035 10.6704 29.6993C10.138 29.5545 9.64437 29.4607 9.08183 29.4607C6.88783 29.4607 5.73829 31.0163 5.73829 32.759V39.6512H1.29681V25.7334H5.60742V28.1733H5.65964C6.31275 26.4035 7.82785 25.4651 9.73494 25.4651C10.0747 25.4651 10.4403 25.4916 10.78 25.5722L10.7801 29.022C11.0727 27.7603 11.8083 26.8883 12.7823 26.3097C13.9945 25.6158 15.5755 25.3488 17.1298 25.3488ZM37.8587 20.4651V39.5977H33.6004V37.9898H33.5478C32.6805 39.3029 31.3661 40 29.789 40C25.5042 40 23.6909 36.2487 23.6909 32.3358C23.6909 28.7183 25.5833 25.2888 29.4472 25.2888C31.13 25.2888 32.4177 25.9318 33.3376 27.1909H33.3902V20.4651H37.8587ZM44.8943 25.3488C48.1357 25.3488 51.2711 26.069 51.2711 29.9925L51.2711 36.2468C51.2727 37.3665 51.3003 38.5666 51.7979 39.5995H47.2922C47.1341 39.1727 47.0814 38.7452 47.0288 38.2921C45.8692 39.5193 44.1561 40 42.5224 40C39.9138 40 37.8587 38.6656 37.8587 35.8101C37.8587 31.2999 42.7071 31.6465 45.8165 31.0066C46.5807 30.8462 47.0021 30.5791 47.0021 29.7255C47.0021 28.6845 45.7638 28.2846 44.8416 28.2846C43.6033 28.2846 42.8125 28.8443 42.6017 30.0188H38.4115C38.4908 28.2044 39.3343 27.0298 40.5466 26.3097C41.7582 25.6158 43.3399 25.3488 44.8943 25.3488ZM16.0509 4.88372C20.9449 4.88372 23.3918 8.58982 23.1814 13.2499H13.1565C13.2358 15.1296 14.3144 16.3737 16.2088 16.3737C17.2874 16.3737 18.3401 15.8711 18.7609 14.8645H22.945C22.1287 18.0416 19.2084 19.4186 16.1561 19.4186C11.709 19.4186 8.68344 16.7178 8.68344 12.111C8.68344 7.90163 12.0253 4.88372 16.0509 4.88372ZM6.72519 1.04651V5.25537H9.48323V8.2039H6.72519V14.5307C6.72519 15.6297 7.35538 15.8711 8.32788 15.8711C8.69549 15.8711 9.08904 15.8175 9.48323 15.8175V19.1681C8.66892 19.1952 7.8546 19.3023 7.04029 19.3023C3.23131 19.3023 2.25945 18.1762 2.25945 14.3965V8.2039H0V5.25537H2.25945V1.04651H6.72519ZM60.3503 25.4651C60.69 25.4651 61.0556 25.4916 61.3953 25.5722V29.729C60.8203 29.5677 60.298 29.4607 59.6972 29.4607C57.5031 29.4607 56.3536 31.0163 56.3536 32.759V39.6512H51.9121V25.7334H56.2227V28.1733H56.275C56.9281 26.4035 58.4432 25.4651 60.3503 25.4651ZM41.9472 0V7.10455H41.9992C42.6833 5.68878 44.524 4.8073 46.1544 4.8073C50.7043 4.8073 51.0723 8.17313 51.0723 10.1759V19.0698H46.6016L46.6018 12.266C46.6082 10.4028 46.769 8.54668 44.3663 8.54668C42.6833 8.54668 41.9472 9.9888 41.9472 11.5113V19.0698H37.4759V0H41.9472ZM61.3953 35.1163V39.5349H57.0536V35.1163H61.3953ZM19.1855 33.1144C18.5527 33.5149 17.3938 33.5951 16.4183 33.8615C15.4175 34.1022 14.574 34.529 14.574 35.6233C14.574 36.744 15.4441 37.1978 16.445 37.1978C18.5794 37.1978 19.2908 35.9699 19.1855 33.1144ZM46.9494 33.1144C46.3173 33.5149 45.1577 33.5951 44.1828 33.8615C43.1812 34.1022 42.3383 34.529 42.3383 35.6233C42.3383 36.744 43.2079 37.1978 44.2088 37.1978C46.3433 37.1978 47.0548 35.9699 46.9494 33.1144ZM30.8932 28.7717C28.8425 28.7717 28.1594 30.7279 28.1594 32.4967C28.1594 34.3994 28.8425 36.5164 30.8932 36.5164C33.0749 36.5164 33.5478 34.3994 33.5478 32.6306C33.5478 30.621 32.8381 28.7717 30.8932 28.7717ZM16.0509 7.92859C14.4722 7.92859 13.4196 9.06681 13.1565 10.7347H18.7083C18.6297 9.19906 17.5504 7.92859 16.0509 7.92859Z" fill="white"/>
</svg>
