<svg width="40" height="40" viewBox="0 0 40 40" fill="none" xmlns="http://www.w3.org/2000/svg">
<path d="M17.4817 17.1121C17.4804 17.1322 17.4796 17.1526 17.4792 17.1733L17.4817 17.1121Z" fill="white"/>
<path d="M27.8857 17.3C27.8857 15.88 25.43 15.8678 25.397 17.2903L25.3967 19.4436L27.8799 19.4423L27.8857 17.3Z" fill="white"/>
<path fill-rule="evenodd" clip-rule="evenodd" d="M19.9996 40C31.0462 40 40 31.0475 40 20.0016C40 8.95407 31.0462 0 19.9996 0C8.95223 0 0 8.95403 0 20.0016C0 31.0475 8.95223 40 19.9996 40ZM13.6363 31.8182V9.09091H12.1372V31.8182H13.6363ZM8.94472 17.3001C8.94472 15.88 6.47856 15.9215 6.45436 17.37L6.45759 17.3001V23.9437C6.48262 25.3889 8.94476 25.367 8.94476 23.9437V22.4757H10.8606V23.8503C10.9759 27.6498 4.49575 27.5564 4.54578 23.8503V17.3C4.49575 13.5939 10.9743 13.5883 10.8525 17.3943V18.5316H8.96733L8.94472 17.3001ZM18.4165 14.9165C17.5538 15.3975 17.2245 15.889 17.2245 15.889L17.2171 14.8466H14.5177V16.2643L15.5708 16.2707V24.9543L14.6832 24.9511V26.3776H17.4818V17.1108C17.5703 15.7994 19.7663 15.779 19.7663 17.11L19.7682 26.3776H22.8872V24.9543H21.6743V17.2001C21.613 16.1611 21.2869 15.2293 20.4251 14.8466C20.58 14.9139 19.5099 14.3064 18.4165 14.9165ZM32.5784 26.1643C31.7334 25.7738 31.4126 24.8485 31.3534 23.8186V11.8627H33.2797V14.8465L33.2692 14.8693H35.1156V16.2641H33.2749L33.2801 16.278L33.2749 23.9721C33.3128 24.7066 33.7607 24.9543 34.2796 24.9478C34.6879 24.9446 35.4546 24.9543 35.4546 24.9543V26.3792C35.4546 26.3792 33.9341 26.3776 33.6194 26.3858C33.142 26.3903 32.6759 26.2058 32.5883 26.1687C32.5919 26.1703 32.5961 26.1723 32.601 26.1745C32.5956 26.1721 32.5902 26.1697 32.5848 26.1672C32.5777 26.1641 32.5738 26.1624 32.5737 26.1623C32.5736 26.1622 32.5751 26.1628 32.5784 26.1643ZM27.8857 23.9437V22.4757L29.7999 22.4759V23.8505C29.9185 27.6499 23.4376 27.5566 23.4884 23.8505V17.3002C23.4376 13.5941 29.9121 13.5884 29.7934 17.3944V20.5367C29.7934 20.7325 29.6353 20.8901 29.444 20.8901L25.397 20.8876V23.9437C25.4228 25.3889 27.8857 25.367 27.8857 23.9437Z" fill="white"/>
</svg>
