<svg width="102" height="25" viewBox="0 0 102 25" fill="none" xmlns="http://www.w3.org/2000/svg">
<path d="M99.5813 8.14413C99.5813 7.42626 100.118 6.83215 100.791 6.83215C101.464 6.83215 102 7.42626 102 8.14413C102 8.87438 101.464 9.45611 100.791 9.45611C100.118 9.45611 99.5813 8.862 99.5813 8.14413ZM99.8095 8.14413C99.8095 8.73823 100.243 9.22094 100.791 9.22094C101.327 9.22094 101.772 8.73823 101.772 8.14413C101.772 7.55003 101.327 7.06732 100.791 7.06732C100.243 7.06732 99.8095 7.55003 99.8095 8.14413ZM100.608 8.88676H100.323V7.38912H100.871C101.144 7.38912 101.361 7.53765 101.361 7.85946C101.361 8.08224 101.247 8.21839 101.099 8.29265L101.384 8.88676H101.076L100.825 8.34216H100.608V8.88676ZM100.848 7.68618H100.608V8.05749H100.848C100.95 8.05749 101.065 8.00798 101.065 7.87183C101.065 7.72331 100.95 7.68618 100.848 7.68618Z" fill="white" fill-opacity="0.501961"/>
<path fill-rule="evenodd" clip-rule="evenodd" d="M42.9675 18.479L38.0387 10.4463V18.479H35.8367V6.83215H38.381L43.036 14.4317V6.83215H45.238V18.479H42.9675ZM50.2696 10.3596C48.0448 10.3596 46.2535 12.1543 46.2535 14.5307C46.2535 16.9319 48.022 18.6647 50.2468 18.6647C52.4602 18.6647 54.2515 16.8824 54.2515 14.4812C54.2401 12.1048 52.4716 10.3596 50.2696 10.3596ZM50.2468 16.5234C49.2428 16.5234 48.4327 15.6942 48.4327 14.4812C48.4327 13.293 49.2314 12.4637 50.224 12.4637C51.228 12.4637 52.0381 13.293 52.0381 14.4812C52.0495 15.6942 51.2508 16.5234 50.2468 16.5234ZM59.7848 12.8104V10.533C59.6365 10.4835 59.3741 10.4463 59.2029 10.4463C58.4499 10.4463 57.7083 10.7929 57.309 11.6964H57.2861V10.533H55.2553V18.4791H57.3546V15.0011C57.3546 13.5282 58.0734 12.7485 59.1002 12.7485C59.1915 12.7485 59.4996 12.7485 59.7848 12.8104ZM65.9125 6.83215V11.4488H65.8897C65.1367 10.4834 64.1212 10.3968 63.6991 10.3968C61.5998 10.3968 60.185 12.4885 60.185 14.506C60.185 16.6472 61.5427 18.6399 63.6649 18.6399C64.1555 18.6399 65.2508 18.5657 65.9467 17.4765H65.9695V18.4914H68.0461V6.83215H65.9125ZM64.1555 16.5235C63.1514 16.5235 62.3414 15.6942 62.3414 14.4812C62.3414 13.293 63.1514 12.4761 64.1555 12.4761C65.1595 12.4761 65.9695 13.293 65.9695 14.4812C65.9581 15.6942 65.1595 16.5235 64.1555 16.5235ZM68.6961 6.83215L72.5867 18.479H75.1424L79.0444 6.83215H76.6826L73.8874 15.6818L71.1035 6.83215H68.6961ZM83.9509 6.83215H79.9576V18.479H82.1824V14.3698H83.8596C86.1073 14.3698 87.7844 13.1321 87.7844 10.5577C87.7844 8.09462 86.0959 6.83215 83.9509 6.83215ZM83.7683 12.1296H82.1824V9.10955H83.7569C84.6811 9.10955 85.5482 9.49324 85.5482 10.6319C85.5482 11.7087 84.6469 12.1296 83.7683 12.1296ZM91.0927 10.4463L96.0329 18.479H98.3034V6.83215H96.1014V14.4317L91.4464 6.83215H88.9021V18.479H91.0927V10.4463Z" fill="white" fill-opacity="0.501961"/>
<path fill-rule="evenodd" clip-rule="evenodd" d="M2.64698 24.0117C0.981207 21.5239 0 18.4543 0 15.1249C0 6.7703 6.22952 0 13.9195 0C21.6094 0 27.8389 6.7703 27.8389 15.1372C27.8389 18.4543 26.8577 21.5239 25.1919 24.024L18.506 12.2162L17.8557 13.4044L18.506 16.6968L13.908 8.15654L11.0785 13.3673L11.7403 16.6968L9.33288 12.2286L2.64698 24.0117Z" fill="white" fill-opacity="0.501961"/>
</svg>
