<svg width="120" height="30" viewBox="0 0 120 30" fill="none" xmlns="http://www.w3.org/2000/svg">
<path d="M31.5399 10.4399H43.6799V12.6999H38.8999V25.4399H36.2799V12.6999H31.5199L31.5399 10.4399ZM43.1599 14.5799H45.3999V16.6799H45.4399C45.5199 16.3799 45.6599 16.0999 45.8599 15.8199C46.0599 15.5399 46.2999 15.2799 46.5999 15.0599C46.8799 14.8199 47.1999 14.6399 47.5599 14.4999C47.8999 14.3599 48.2599 14.2799 48.6199 14.2799C48.8999 14.2799 49.0999 14.2999 49.1999 14.2999C49.2999 14.3199 49.4199 14.3399 49.5199 14.3399V16.6399C49.3599 16.5999 49.1799 16.5799 48.9999 16.5599C48.8199 16.5399 48.6599 16.5199 48.4799 16.5199C48.0799 16.5199 47.6999 16.5999 47.3399 16.7599C46.9799 16.9199 46.6799 17.1599 46.3999 17.4599C46.1399 17.7799 45.9199 18.1599 45.7599 18.6199C45.5999 19.0799 45.5199 19.6199 45.5199 20.2199V25.3799H43.1199L43.1599 14.5799ZM60.5199 25.4399H58.1599V23.9199H58.1199C57.8199 24.4799 57.3799 24.8999 56.7999 25.2399C56.2199 25.5799 55.6199 25.7399 55.0199 25.7399C53.5999 25.7399 52.5599 25.3999 51.9199 24.6799C51.2799 23.9799 50.9599 22.8999 50.9599 21.4799V14.5799H53.3599V21.2399C53.3599 22.1999 53.5399 22.8799 53.9199 23.2599C54.2799 23.6599 54.7999 23.8599 55.4599 23.8599C55.9599 23.8599 56.3799 23.7799 56.7199 23.6199C57.0599 23.4599 57.3399 23.2599 57.5399 22.9999C57.7599 22.7399 57.8999 22.4199 57.9999 22.0599C58.0999 21.6999 58.1399 21.2999 58.1399 20.8799V14.5799H60.5399V25.4399H60.5199ZM64.5999 21.9599C64.6799 22.6599 64.9399 23.1399 65.3999 23.4399C65.8599 23.7199 66.4199 23.8599 67.0599 23.8599C67.2799 23.8599 67.5399 23.8399 67.8199 23.7999C68.0999 23.7599 68.3799 23.6999 68.6199 23.5999C68.8799 23.4999 69.0799 23.3599 69.2399 23.1599C69.3999 22.9599 69.4799 22.7199 69.4599 22.4199C69.4399 22.1199 69.3399 21.8599 69.1199 21.6599C68.8999 21.4599 68.6399 21.3199 68.3199 21.1799C67.9999 21.0599 67.6199 20.9599 67.1999 20.8799C66.7799 20.7999 66.3599 20.6999 65.9199 20.5999C65.4799 20.4999 65.0399 20.3799 64.6199 20.2399C64.1999 20.0999 63.8399 19.9199 63.4999 19.6599C63.1799 19.4199 62.8999 19.1199 62.7199 18.7399C62.5199 18.3599 62.4199 17.9199 62.4199 17.3599C62.4199 16.7599 62.5599 16.2799 62.8599 15.8799C63.1399 15.4799 63.5199 15.1599 63.9599 14.9199C64.3999 14.6799 64.8999 14.4999 65.4399 14.3999C65.9799 14.2999 66.4999 14.2599 66.9799 14.2599C67.5399 14.2599 68.0799 14.3199 68.5799 14.4399C69.0799 14.5599 69.5599 14.7399 69.9599 15.0199C70.3799 15.2799 70.7199 15.6399 70.9799 16.0599C71.2599 16.4799 71.4199 16.9999 71.4999 17.5999H68.9999C68.8799 17.0199 68.6199 16.6399 68.2199 16.4399C67.7999 16.2399 67.3399 16.1399 66.7999 16.1399C66.6399 16.1399 66.4199 16.1599 66.1999 16.1799C65.9599 16.2199 65.7599 16.2599 65.5399 16.3399C65.3399 16.4199 65.1599 16.5399 65.0199 16.6799C64.8799 16.8199 64.7999 17.0199 64.7999 17.2599C64.7999 17.5599 64.8999 17.7799 65.0999 17.9599C65.2999 18.1399 65.5599 18.2799 65.8999 18.4199C66.2199 18.5399 66.5999 18.6399 67.0199 18.7199C67.4399 18.7999 67.8799 18.8999 68.3199 18.9999C68.7599 19.0999 69.1799 19.2199 69.5999 19.3599C70.0199 19.4999 70.3999 19.6799 70.7199 19.9399C71.0399 20.1799 71.3199 20.4799 71.5199 20.8399C71.7199 21.1999 71.8199 21.6599 71.8199 22.1799C71.8199 22.8199 71.6799 23.3599 71.3799 23.8199C71.0799 24.2599 70.6999 24.6399 70.2399 24.9199C69.7799 25.1999 69.2399 25.3999 68.6799 25.5399C68.0999 25.6599 67.5399 25.7399 66.9799 25.7399C66.2999 25.7399 65.6599 25.6599 65.0799 25.4999C64.4999 25.3399 63.9799 25.0999 63.5599 24.7999C63.1399 24.4799 62.7999 24.0999 62.5599 23.6199C62.3199 23.1599 62.1799 22.5999 62.1599 21.9399H64.5799V21.9599H64.5999ZM72.4999 14.5799H74.3199V11.2999H76.7199V14.5599H78.8799V16.3399H76.7199V22.1399C76.7199 22.3999 76.7399 22.5999 76.7599 22.7999C76.7799 22.9799 76.8399 23.1399 76.8999 23.2599C76.9799 23.3799 77.0999 23.4799 77.2399 23.5399C77.3999 23.5999 77.5999 23.6399 77.8799 23.6399C78.0399 23.6399 78.2199 23.6399 78.3799 23.6199C78.5399 23.5999 78.7199 23.5799 78.8799 23.5399V25.3999C78.6199 25.4399 78.3599 25.4599 78.0999 25.4799C77.8399 25.5199 77.5999 25.5199 77.3199 25.5199C76.6799 25.5199 76.1799 25.4599 75.7999 25.3399C75.4199 25.2199 75.1199 25.0399 74.8999 24.8199C74.6799 24.5799 74.5399 24.2999 74.4599 23.9599C74.3799 23.6199 74.3399 23.1999 74.3199 22.7599V16.3599H72.4999V14.5399V14.5799ZM80.5599 14.5799H82.8199V16.0599H82.8599C83.1999 15.4199 83.6599 14.9799 84.2599 14.6999C84.8599 14.4199 85.4999 14.2799 86.2199 14.2799C87.0799 14.2799 87.8199 14.4199 88.4599 14.7399C89.0999 15.0399 89.6199 15.4399 90.0399 15.9799C90.4599 16.4999 90.7799 17.1199 90.9799 17.8199C91.1799 18.5199 91.2999 19.2799 91.2999 20.0599C91.2999 20.7999 91.1999 21.4999 91.0199 22.1799C90.8199 22.8599 90.5399 23.4799 90.1599 23.9999C89.7799 24.5199 89.2999 24.9399 88.6999 25.2599C88.0999 25.5799 87.4199 25.7399 86.6199 25.7399C86.2799 25.7399 85.9199 25.6999 85.5799 25.6399C85.2399 25.5799 84.8999 25.4799 84.5799 25.3399C84.2599 25.1999 83.9599 25.0199 83.6999 24.7999C83.4199 24.5799 83.1999 24.3199 83.0199 24.0399H82.9799V29.4599H80.5799V14.5799H80.5599ZM88.9399 20.0199C88.9399 19.5399 88.8799 19.0599 88.7399 18.5999C88.6199 18.1399 88.4199 17.7399 88.1599 17.3799C87.8999 17.0199 87.5799 16.7399 87.2199 16.5199C86.8399 16.2999 86.3999 16.1999 85.9199 16.1999C84.9199 16.1999 84.1599 16.5399 83.6399 17.2399C83.1399 17.9399 82.8799 18.8799 82.8799 20.0399C82.8799 20.5999 82.9399 21.0999 83.0799 21.5599C83.2199 22.0199 83.3999 22.4199 83.6799 22.7599C83.9399 23.0999 84.2599 23.3599 84.6399 23.5599C85.0199 23.7599 85.4399 23.8599 85.9399 23.8599C86.4999 23.8599 86.9399 23.7399 87.3199 23.5199C87.6999 23.2999 87.9999 22.9999 88.2599 22.6599C88.4999 22.2999 88.6799 21.8999 88.7799 21.4399C88.8799 20.9599 88.9399 20.4999 88.9399 20.0199ZM93.1599 10.4399H95.5599V12.6999H93.1599V10.4399ZM93.1599 14.5799H95.5599V25.4399H93.1599V14.5799ZM97.6999 10.4399H100.1V25.4399H97.6999V10.4399ZM107.42 25.7399C106.56 25.7399 105.78 25.5999 105.1 25.2999C104.42 24.9999 103.86 24.6199 103.38 24.1199C102.92 23.6199 102.56 22.9999 102.32 22.2999C102.08 21.5999 101.94 20.8199 101.94 19.9999C101.94 19.1799 102.06 18.4199 102.32 17.7199C102.56 17.0199 102.92 16.4199 103.38 15.8999C103.84 15.3999 104.42 14.9999 105.1 14.7199C105.78 14.4399 106.56 14.2799 107.42 14.2799C108.28 14.2799 109.06 14.4199 109.74 14.7199C110.42 14.9999 110.98 15.3999 111.46 15.8999C111.92 16.3999 112.28 17.0199 112.52 17.7199C112.76 18.4199 112.9 19.1799 112.9 19.9999C112.9 20.8399 112.78 21.5999 112.52 22.2999C112.26 22.9999 111.92 23.5999 111.46 24.1199C111 24.6199 110.42 25.0199 109.74 25.2999C109.06 25.5799 108.3 25.7399 107.42 25.7399ZM107.42 23.8399C107.94 23.8399 108.42 23.7199 108.8 23.4999C109.2 23.2799 109.5 22.9799 109.76 22.6199C110.02 22.2599 110.2 21.8399 110.32 21.3999C110.44 20.9399 110.5 20.4799 110.5 19.9999C110.5 19.5399 110.44 19.0799 110.32 18.6199C110.2 18.1599 110.02 17.7599 109.76 17.3999C109.5 17.0399 109.18 16.7599 108.8 16.5399C108.4 16.3199 107.94 16.1999 107.42 16.1999C106.9 16.1999 106.42 16.3199 106.04 16.5399C105.64 16.7599 105.34 17.0599 105.08 17.3999C104.82 17.7599 104.64 18.1599 104.52 18.6199C104.4 19.0799 104.34 19.5399 104.34 19.9999C104.34 20.4799 104.4 20.9399 104.52 21.3999C104.64 21.8599 104.82 22.2599 105.08 22.6199C105.34 22.9799 105.66 23.2799 106.04 23.4999C106.44 23.7399 106.9 23.8399 107.42 23.8399ZM113.62 14.5799H115.44V11.2999H117.84V14.5599H120V16.3399H117.84V22.1399C117.84 22.3999 117.86 22.5999 117.88 22.7999C117.9 22.9799 117.96 23.1399 118.02 23.2599C118.1 23.3799 118.22 23.4799 118.36 23.5399C118.52 23.5999 118.72 23.6399 119 23.6399C119.16 23.6399 119.34 23.6399 119.5 23.6199C119.66 23.5999 119.84 23.5799 120 23.5399V25.3999C119.74 25.4399 119.48 25.4599 119.22 25.4799C118.96 25.5199 118.72 25.5199 118.44 25.5199C117.8 25.5199 117.3 25.4599 116.92 25.3399C116.54 25.2199 116.24 25.0399 116.02 24.8199C115.8 24.5799 115.66 24.2999 115.58 23.9599C115.5 23.6199 115.46 23.1999 115.44 22.7599V16.3599H113.62V14.5399V14.5799Z" fill="white"/>
<path d="M28.74 10.44H17.76L14.38 0L10.98 10.44L0 10.42L8.88 16.88L5.48 27.32L14.36 20.86L23.24 27.32L19.86 16.88L28.74 10.44Z" fill="#00B67A"/>
<path d="M20.6201 19.24L19.8601 16.88L14.3801 20.86L20.6201 19.24Z" fill="#005128"/>
</svg>
