<svg version="1.1" id="Layer_2_00000154404192649627552360000003984824565577335685_" xmlns="http://www.w3.org/2000/svg" x="0" y="0" viewBox="0 0 103.2 55" xml:space="preserve"><style></style><linearGradient id="SVGID_1_" gradientUnits="userSpaceOnUse" x1="39.294" y1="-883.826" x2="39.294" y2="-935.153" gradientTransform="matrix(1 0 0 -1 .376 -879.088)"><stop offset="0" stop-color="#d9dadf"/><stop offset=".218" stop-color="#cfd0d5"/><stop offset=".594" stop-color="#b3b5ba"/><stop offset="1" stop-color="#8e9196"/></linearGradient><path d="M45.9 41.9c-1.5.8-2.6 1.5-3.4 2.6-2.1 2.7-2 7.1-2 8.8h-14s-.2-4.3 1-6c.5-.7 1.2-1.2 1.8-1.5.8-.4 1.6-.7 2.5-.8.2 0 .3-.1.5-.1 1.5-.3 4.2-1 6-2.4l.1-.1c1.5-1.2 1.7-3.4.5-4.9-1.1-1.4-2.5-3.9-2.7-7.4 0-2.5.3-4.5.8-6 .7-2.5 2.6-4.5 5.1-5.3.7-.2 1.4-.4 2.2-.4h.6c.8 0 1.5.1 2.2.4 2.4.8 4.3 2.8 5.1 5.3.4 1.5.8 3.5.6 5.9-.2 3.5-1.6 6-2.7 7.4-.5.7-.6 2.6-.5 3.4-1.4.3-2.5.5-3.7 1.1z" fill="url(#SVGID_1_)"/><linearGradient id="SVGID_00000146463027616443672750000000482792804453598626_" gradientUnits="userSpaceOnUse" x1="89.754" y1="-883.826" x2="89.754" y2="-935.153" gradientTransform="matrix(1 0 0 -1 .376 -879.088)"><stop offset="0" stop-color="#d9dadf"/><stop offset=".218" stop-color="#cfd0d5"/><stop offset=".594" stop-color="#b3b5ba"/><stop offset="1" stop-color="#8e9196"/></linearGradient><path d="M103.2 53.2H89c.1-1.7.2-6.2-2-8.9-.9-1-2.1-2-3.7-2.6-.9-.3-1.6-.6-2.9-.9.1-.9-.1-2.7-.6-3.5-1-1.5-2.5-3.9-2.7-7.4-.2-2.4.2-4.5.6-5.9.7-2.5 2.6-4.5 5.1-5.3.7-.2 1.4-.4 2.2-.4h.6c.8 0 1.5.1 2.2.4 2.4.8 4.3 2.8 5.1 5.3.4 1.5.8 3.5.6 5.9-.2 3.5-1.6 6-2.7 7.4-1.2 1.5-1 3.7.5 4.9l.1.1c1.8 1.5 4.8 2.2 6.2 2.4.1 0 .2.1.3.1.9.1 1.7.4 2.5.8.7.4 1.3.9 1.8 1.5 1.2 1.8 1 6.1 1 6.1z" fill="url(#SVGID_00000146463027616443672750000000482792804453598626_)"/><linearGradient id="SVGID_00000163783158691799104060000013953102827350289578_" gradientUnits="userSpaceOnUse" x1="64.432" y1="-883.826" x2="64.432" y2="-935.153" gradientTransform="matrix(1 0 0 -1 .376 -879.088)"><stop offset="0" stop-color="#d9dadf"/><stop offset=".218" stop-color="#cfd0d5"/><stop offset=".594" stop-color="#b3b5ba"/><stop offset="1" stop-color="#8e9196"/></linearGradient><path d="M87 53.2H42.6s-.2-5.3 1.3-7.4c.6-.9 1.5-1.5 2.3-1.9 1-.5 2-.8 3.1-1 .1 0 .3-.1.4-.1.1 0 .1 0 .2-.1.7-.1 1.5-.3 2.4-.5s1.8-.5 2.7-1c.9-.4 1.6-.9 2.3-1.4.1-.1.1-.1.2-.1 1.8-1.5 2.1-4.3.7-6.2-1.3-1.8-3.1-4.8-3.4-9.2-.2-3 .2-5.5.7-7.3.9-3 3.2-5.6 6.3-6.6.9-.2 1.7-.4 2.7-.4h.8c1 0 1.9.2 2.7.4 3 1 5.4 3.5 6.3 6.6.5 1.8 1 4.3.7 7.3-.3 4.3-2.1 7.4-3.4 9.2-1.5 1.9-1.2 4.6.6 6.2.1.1.1.1.2.1 2.3 1.8 5.9 2.7 7.7 3h.1c.1 0 .2.1.2.1 1.1.2 2.1.5 3.1 1 .8.4 1.7 1 2.3 1.9 1.5 2.1 1.2 7.4 1.2 7.4z" fill="url(#SVGID_00000163783158691799104060000013953102827350289578_)"/><linearGradient id="SVGID_00000145036364247539374000000018346006539144409511_" gradientUnits="userSpaceOnUse" x1="40.574" y1="-883.826" x2="40.574" y2="-935.153" gradientTransform="matrix(1 0 0 -1 .376 -879.088)"><stop offset="0" stop-color="#d9dadf"/><stop offset=".218" stop-color="#cfd0d5"/><stop offset=".594" stop-color="#b3b5ba"/><stop offset="1" stop-color="#8e9196"/></linearGradient><path d="M71.7 4.6v3.5H15.5l-.1 32.3h21c-.5.8-1.6 2-4.6 2.1-2 .1-3.9 1.5-4.6 2.3h-17l.1-39.9c0-1.6 1.3-2.9 2.9-2.9H69c1.6-.1 2.7 1.1 2.7 2.6z" fill="url(#SVGID_00000145036364247539374000000018346006539144409511_)"/><linearGradient id="SVGID_00000082337670408502833660000012269311245563879299_" gradientUnits="userSpaceOnUse" x1="12.774" y1="-883.826" x2="12.774" y2="-935.153" gradientTransform="matrix(1 0 0 -1 .376 -879.088)"><stop offset="0" stop-color="#d9dadf"/><stop offset=".218" stop-color="#cfd0d5"/><stop offset=".594" stop-color="#b3b5ba"/><stop offset="1" stop-color="#8e9196"/></linearGradient><path d="M24.5 53.2H6C3.1 53.2.8 50.8.8 48c0-.4.1-.7.4-.9.2-.2.5-.4.9-.4h23.4c-1 2.2-1 5.1-1 6.5z" fill="url(#SVGID_00000082337670408502833660000012269311245563879299_)"/></svg>