<svg xmlns="http://www.w3.org/2000/svg" viewBox="0 0 32 32"><path d="M21.2 24.4c0-1 .8-1.9 1.9-1.9h.1c.4 0 .7.1 1 .4v-1.4h1v4.8h-1V26c-.3.3-.7.4-1 .4-1.2-.1-2-.9-2-2zm1 0c0 .6.4 1 1 1 .4 0 .7-.2 1-.5v-1.2c-.2-.3-.6-.5-1-.5-.6.1-1 .6-1 1.2zm-6.8 0c-.1-1.1.8-2 1.9-2.1s2 .8 2.1 1.9-.8 2-1.9 2.1h-.1c-1.1 0-2-.8-2-1.9zm1 0c0 .6.4 1 1 1.1.6 0 1-.4 1.1-1 0-.6-.4-1-1-1.1h-.1c-.6 0-1 .4-1 1zm-7.4 0c0-1 .8-1.9 1.9-1.9h.1c.4 0 .7.1 1 .4v-1.4h1v4.8h-1V26c-.3.3-.7.4-1 .4-1.1-.1-1.9-.9-2-2zm1 0c0 .6.4 1 1 1 .4 0 .7-.2 1-.5v-1.2c-.2-.3-.6-.5-1-.5-.5.1-1 .6-1 1.2zm-9.4 0c0-1 .8-1.9 1.9-1.9h.1c.4 0 .7.1 1 .4v-.3h1v3.7h-1V26c-.3.3-.7.4-1 .4-1.1-.1-2-.9-2-2zm1 0c0 .6.4 1 1 1 .4 0 .7-.2 1-.5v-1.1c-.2-.3-.6-.5-1-.5-.5 0-1 .5-1 1.1zm25.9 1.9c-.8.1-1.6-.4-1.6-1.3v-3.4h.7v1h1v.6h-1v1.6c0 .4.4.9.8.9h.2l-.1.6c.1.1 0 0 0 0zm1.8-.1l-1.6-3.7h.8l1.1 2.8 1.1-2.9h.8L30 26.1l-.7.1zm-9.5 0v-3.7h1v3.7h-1zm-6.3 0v-1.9c-.1-.9.5-1.7 1.5-1.8h.4v.9c-.4-.1-.8.2-.9.7v2.1h-1zm-5.8 0v-2c0-.4-.4-.8-.9-.8s-.8.4-.8.8v2h-.9v-2c0-1 .8-1.8 1.8-1.8s1.8.7 1.8 1.7v2l-1 .1zm12-4.4c0-.3.2-.5.5-.6s.5.2.6.5c0 .3-.2.5-.5.6-.3 0-.6-.2-.6-.5zM.6 19.2c.5-5 3.5-9.4 7.9-11.7L6 3.2c-.2-.2-.1-.5.1-.7.3-.1.6-.1.7.1L9.5 7c2.1-.9 4.4-1.3 6.6-1.3 2.3 0 4.5.4 6.6 1.3l2.6-4.3c.1-.2.4-.3.7-.1.2.1.3.4.2.7l-2.6 4.3c4.5 2.3 7.4 6.7 7.9 11.7H.6zm21.3-5.5c0 .7.5 1.3 1.3 1.3.7 0 1.3-.5 1.3-1.3 0-.7-.5-1.3-1.3-1.3h-.1c-.6.1-1.2.6-1.2 1.3zm-14.2 0c0 .7.5 1.3 1.3 1.3.7 0 1.3-.5 1.3-1.3 0-.7-.5-1.3-1.3-1.3-.7 0-1.3.6-1.3 1.3zm-61.2 12.4c0-.1-.1-.1-.1-.4-1.2 0-2.2-.4-2.9-.2-1.1.1-1.8.4-2.5.4-.3.5-.7.9-1.3 1-1 .1-2 0-2.9-.5-1-.5-2.2-.4-3-.7-.4-.1-.8-.3-1-.7-.1-.2-.1-.4-.1-.6 0-.4.1-.7.1-1 .1-.1.1-.4.1-.5s0-.4-.1-.5c-.1-.2-.1-.4-.1-.6s.1-.4.1-.7c.3-.4.6-.6 1-.7.3-.1.6-.2.8-.4s.4-.6.7-1c0-.1 0-.1.1-.1v-.7c0-.7.1-1.4.4-2.1.7-1.8 1.7-3.5 3-5 .7-1 1.2-2.1 1.2-3.3 0-.5-.1-1.5-.1-2.5 0-1.9.5-4.2 3.6-4.5h.5c4.2 0 4 4.4 4.1 6.8 0 1.6.8 2.5 1.7 3.6 1 1.2 1.8 2.5 2.4 3.9.3.7.4 1.6.4 2.3 0 .6-.1 1.2-.3 1.8.1 0 .2 0 .2.1s.1.1.1.1c.3.4.4.7.5 1.2 0 .4.1.7.4 1v.1c.4.4.7 1 .7 1.6-.1.4-.4.8-.7 1-.7.4-1.9.7-2.7 1.6-.6.8-1.5 1.3-2.5 1.5h-.2c-.5-.1-1.2-.5-1.6-1.3zm-6.1-2.9c.1.1.3.4.4.6 1.9 1.3 4.2.8 5.9-.4.2-.4.4-1 .4-1.5l.2-2.1c.1-.5.4-1 .8-1.3.1 0 .1-.1.2-.1v-.1c.1-.8 1-1 1.9-.5.9.4 1.3.7 1.3 1.1 0 .1 0 .1-.1.2h.1v.1c0-.1.1-.2.1-.3 0-.5-.4-.9-1.4-1.4-.1 0-.1-.1-.2-.1.1-.3.1-.7.1-1s-.1-.6-.1-.9c-.3-1.2-.9-2.2-1.8-3h-.1c0 .1.1.1.2.3.8.9 1.3 2 1.4 3.2 0 .4-.1.7-.2 1.1-.2-.1-.4-.1-.6-.1-.1-1.2-.6-2.3-1.2-3.3-.8-1.6-1.5-3.3-1.9-5-.3.4-.7.7-1.1 1-.3.1-.6.3-.8.4-.4.1-.7.3-1.1.2h-.1c-.4.1-.7-.1-1-.4-.2-.1-.4-.4-.7-.5-.1-.1-.2-.2-.4-.2-.1 1.9-1.5 4.5-2.1 5.8-.4 1-.6 2.1-.7 3.1-.4-.5-.5-1.1-.5-1.7.1-.9.3-1.7.7-2.5.1-.4.4-.7.4-1.1-.7 1-1.1 2-1.4 3-.1.6-.1 1.2 0 1.8.2.7.7 1.2 1.3 1.6.7.4 1.4 1 1.9 1.7.2.3.4.7.4 1v.2c-.1.1-.2.3-.4.4s-.4.1-.5.1c.5.3.7.4.7.6zm.2-14.7c.1.3.4.6.7.7.2.1.4.4.7.5.1.1.2.1.4.2.1.1.4.1.5.1.4.1.7-.1 1.1-.2.3-.2.6-.4.8-.5.5-.1.9-.5 1.2-1 .1-.1.1-.4 0-.5v.1c-.1-.2-.3-.4-.5-.4-.5-.1-.8-.2-1.2-.5s-.9-.4-1.3-.4h-.5c-.4.1-.7.4-1 .7l-.1.1c-.1.1-.4.2-.5.4-.1.1-.3.3-.3.5v.2zm4.7-1.4c.1.1.2.1.4.1l.1.1c.1-.1.2-.2.2-.4.1-.2.1-.5.1-.7 0-.3-.1-.5-.1-.7-.1-.2-.3-.4-.5-.6-.2-.1-.4-.2-.7-.2-.2 0-.5.1-.7 0-.2.1-.4.4-.5.6-.1.3-.2.5-.1.8v.2l.7.2v-.2c0-.1 0-.3.1-.4s.1-.2.2-.4c0-.1.1-.1.2-.1.1.1.2.1.4.1.1.1.1.1.1.4.1.1.1.3.1.4s0 .3-.1.4c0 .1-.1.1-.1.2 0 .2.1.2.2.2zm-4.5-.1c.1.1.1.2.2.4.1 0 .1-.1.1-.1 0-.1.1-.1.1-.1-.1-.1-.1-.1-.1-.2-.1-.1-.1-.2-.1-.4v-.4c0-.1 0-.1.1-.1 0-.1.1-.1.1-.1.1 0 .1 0 .1.1.1 0 .1.1.1.2s.1.2.1.4v.2c.1-.1.3-.2.4-.2h.1v-.5c0-.3-.1-.5-.1-.7-.1-.2-.2-.4-.4-.5-.1-.1-.3-.1-.5-.1-.1 0-.2 0-.4.1-.1.1-.3.4-.4.6s-.1.5-.1.7c.6.2.6.5.7.7zm.6 2.1l-.4-.5c-.1-.1-.1-.1-.1-.3v-.1c.1 0 .1.1.2.2l.4.4c.4.3.8.5 1.3.5.5-.1 1-.2 1.6-.5.2-.1.4-.3.7-.5.2-.1.1-.2.4-.2.1 0 .1 0 .1.1s-.1.1-.2.3l-1 .5c-.5.3-1 .5-1.6.6-.4-.1-1-.2-1.4-.5zm2-1.9c-.1 0-.1 0-.1-.1.1-.1.2-.1.4-.1.1 0 .1.1.1.1l-.1.1c-.2.2-.2 0-.3 0zm-1.3 0c0-.1.1-.1.1-.1.1 0 .3 0 .4.1 0 .1-.1.1-.1.1-.1 0-.1.1-.1.1-.1-.1-.3 0-.3-.2z"/></svg>