<svg version="1.1" id="Layer_3" xmlns="http://www.w3.org/2000/svg" x="0" y="0" viewBox="0 0 103.2 102.4" xml:space="preserve"><style></style><linearGradient id="SVGID_1_" gradientUnits="userSpaceOnUse" x1="51.211" y1="843.538" x2="51.211" y2="945.229" gradientTransform="translate(0 -838)"><stop offset="0" stop-color="#d9dadf"/><stop offset=".218" stop-color="#cfd0d5"/><stop offset=".594" stop-color="#b3b5ba"/><stop offset="1" stop-color="#8e9196"/></linearGradient><path d="M33.3 0L18.4 14.6v37c1.9-.7 3.9-1.1 6-1.1V17.8h12.7V5.7H78v70.2H46.3v6H84V0H33.3z" fill="url(#SVGID_1_)"/><linearGradient id="SVGID_00000085931931423879590440000003450009764242696111_" gradientUnits="userSpaceOnUse" x1="70.785" y1="843.538" x2="70.785" y2="945.229" gradientTransform="translate(0 -838)"><stop offset="0" stop-color="#d9dadf"/><stop offset=".218" stop-color="#cfd0d5"/><stop offset=".594" stop-color="#b3b5ba"/><stop offset="1" stop-color="#8e9196"/></linearGradient><path d="M87.2 10.9v5.7h2.1v70.2h-43v6h48.9V10.9h-8z" fill="url(#SVGID_00000085931931423879590440000003450009764242696111_)"/><linearGradient id="SVGID_00000116196481951260383840000005419072288192509852_" gradientUnits="userSpaceOnUse" x1="51.239" y1="843.538" x2="51.239" y2="945.229" gradientTransform="translate(0 -838)"><stop offset="0" stop-color="#d9dadf"/><stop offset=".218" stop-color="#cfd0d5"/><stop offset=".594" stop-color="#b3b5ba"/><stop offset="1" stop-color="#8e9196"/></linearGradient><path fill="url(#SVGID_00000116196481951260383840000005419072288192509852_)" d="M30.9 27.8h40.7v4H30.9z"/><linearGradient id="SVGID_00000119823158803797645480000004944569633252027821_" gradientUnits="userSpaceOnUse" x1="51.239" y1="843.538" x2="51.239" y2="945.229" gradientTransform="translate(0 -838)"><stop offset="0" stop-color="#d9dadf"/><stop offset=".218" stop-color="#cfd0d5"/><stop offset=".594" stop-color="#b3b5ba"/><stop offset="1" stop-color="#8e9196"/></linearGradient><path fill="url(#SVGID_00000119823158803797645480000004944569633252027821_)" d="M30.9 39.8h40.7v4H30.9z"/><linearGradient id="SVGID_00000038397245037286278140000015742227442930363014_" gradientUnits="userSpaceOnUse" x1="60.564" y1="843.538" x2="60.564" y2="945.229" gradientTransform="translate(0 -838)"><stop offset="0" stop-color="#d9dadf"/><stop offset=".218" stop-color="#cfd0d5"/><stop offset=".594" stop-color="#b3b5ba"/><stop offset="1" stop-color="#8e9196"/></linearGradient><path fill="url(#SVGID_00000038397245037286278140000015742227442930363014_)" d="M49.6 51.8h21.9v4H49.6z"/><g id="XMLID_00000055689746305277149160000017871254912043106736_"><linearGradient id="SVGID_00000172406665148784437780000015744631667875887502_" gradientUnits="userSpaceOnUse" x1="24.496" y1="843.538" x2="24.496" y2="945.229" gradientTransform="translate(0 -838)"><stop offset="0" stop-color="#d9dadf"/><stop offset=".218" stop-color="#cfd0d5"/><stop offset=".594" stop-color="#b3b5ba"/><stop offset="1" stop-color="#8e9196"/></linearGradient><path d="M42.4 75.8c-.2-.1-.4-.2-.6-.2H40v-6.4c0-4.1-1.6-7.8-4.2-10.6-1.7-1.7-3.7-3.1-6-3.9-1.6-.6-3.4-1-5.3-1-2.1 0-4.2.4-6 1.2-5.7 2.5-9.5 8-9.5 14.4v6.4H7c-.7 0-1.2.6-1.2 1.2v23.3c0 .4.1.7.4 1 .2.3.6.5 1.1.5h34.4c.4 0 .8-.2 1.1-.5.2-.2.4-.6.4-1V77c-.1-.6-.4-.9-.8-1.2zM27.3 94.5h-5.6l1-7.2c-.8-.6-1.3-1.5-1.3-2.5 0-1.7 1.4-3.1 3.1-3.1 1.7 0 3.1 1.4 3.1 3.1 0 1.1-.5 2-1.2 2.5l.9 7.2zm6.5-18.8H15.1v-6.4c0-2.9 1.3-5.4 3.4-7.2 1.6-1.4 3.8-2.2 6-2.2 2 0 3.8.6 5.3 1.6 2.5 1.7 4.1 4.5 4.1 7.7l-.1 6.5z" fill="url(#SVGID_00000172406665148784437780000015744631667875887502_)"/></g></svg>