<svg version="1.1" id="Layer_1" xmlns="http://www.w3.org/2000/svg" x="0" y="0" viewBox="0 0 103.2 102.4" xml:space="preserve"><style></style><linearGradient id="SVGID_1_" gradientUnits="userSpaceOnUse" x1="25.15" y1="97.567" x2="25.15" y2="-2.91" gradientTransform="matrix(1 0 0 -1 0 104)"><stop offset="0" stop-color="#d9dadf"/><stop offset=".218" stop-color="#cfd0d5"/><stop offset=".594" stop-color="#b3b5ba"/><stop offset="1" stop-color="#8e9196"/></linearGradient><path d="M48.8 66.3l-9.9 10L9.3 46.7C-1.1 36.3-1.1 19.4 9.3 8.9c5.2-5.2 12.1-7.8 18.9-7.8s13.7 2.6 18.9 7.8l1.6 1.6-9.9 10-1.6-1.6c-2.5-2.5-5.7-3.7-9-3.7s-6.5 1.3-9 3.7c-5 5-5 13 0 17.9l29.6 29.5z" fill="url(#SVGID_1_)"/><linearGradient id="SVGID_00000031194806001526634430000000001767975952391322_" gradientUnits="userSpaceOnUse" x1="78.05" y1="97.567" x2="78.05" y2="-2.91" gradientTransform="matrix(1 0 0 -1 0 104)"><stop offset="0" stop-color="#d9dadf"/><stop offset=".218" stop-color="#cfd0d5"/><stop offset=".594" stop-color="#b3b5ba"/><stop offset="1" stop-color="#8e9196"/></linearGradient><path d="M93.9 93.5c-5.2 5.2-12.1 7.8-18.9 7.8s-13.7-2.6-18.9-7.8l-1.6-1.6 9.9-10 .6.6c2.5 2.5 5.7 3.7 9 3.7s6.5-1.3 9-3.7c5-5 5-13 0-17.9L54.4 36.1l9.9-10 29.6 29.6c10.4 10.4 10.4 27.3 0 37.8z" fill="url(#SVGID_00000031194806001526634430000000001767975952391322_)"/><linearGradient id="SVGID_00000121982142295912551250000017068133435466468482_" gradientUnits="userSpaceOnUse" x1="39.118" y1="97.567" x2="39.118" y2="-2.91" gradientTransform="matrix(1 0 0 -1 0 104)"><stop offset="0" stop-color="#d9dadf"/><stop offset=".218" stop-color="#cfd0d5"/><stop offset=".594" stop-color="#b3b5ba"/><stop offset="1" stop-color="#8e9196"/></linearGradient><path d="M76.6 63.9L64.4 76.3 63 77.7l-1.4 1.4-9.9 10-1.4 1.4-1.4 1.4-1.6 1.6c-5.2 5.3-12.1 7.9-19 7.9-6.8 0-13.6-2.6-18.8-7.7C-.9 83.3-1 66.4 9.3 55.9l1.8-1.8L21 64l-.7.7c-4.9 5-4.9 13 .1 17.9 2.5 2.4 5.7 3.7 8.9 3.7 3.3 0 6.5-1.3 9-3.8l.7-.5 2.8-2.8 9.9-10 1.4-1.4 1.4-1.4L66.7 54l9.9 9.9z" fill="url(#SVGID_00000121982142295912551250000017068133435466468482_)"/><linearGradient id="SVGID_00000142860605115871767060000012792129239517376437_" gradientUnits="userSpaceOnUse" x1="64.1" y1="97.567" x2="64.1" y2="-2.91" gradientTransform="matrix(1 0 0 -1 0 104)"><stop offset="0" stop-color="#d9dadf"/><stop offset=".218" stop-color="#cfd0d5"/><stop offset=".594" stop-color="#b3b5ba"/><stop offset="1" stop-color="#8e9196"/></linearGradient><path d="M101.6 27.5c0 6.8-2.5 13.7-7.7 18.9l-1.8 1.8-9.9-9.9 1.7-1.7c2.4-2.5 3.7-5.7 3.7-9 0-3.2-1.3-6.5-3.8-8.9S78.1 15 74.9 15c-3.3 0-6.5 1.3-9 3.8l-1.6 1.6-1.4 1.4-1.4 1.4-9.9 10-1.4 1.4-1.4 1.4-12.3 12.4-9.9-9.9 12.2-12.4 1.4-1.4 1.4-1.4 9.9-10 1.4-1.4 1.4-1.4 1.6-1.6C61.1 3.6 68 1 74.8 1s13.6 2.6 18.8 7.7c5.3 5.2 7.9 12 8 18.8z" fill="url(#SVGID_00000142860605115871767060000012792129239517376437_)"/></svg>