<svg version="1.1" id="Layer_2" xmlns="http://www.w3.org/2000/svg" x="0" y="0" viewBox="0 0 103.2 102.4" xml:space="preserve"><style></style><g id="internet_key_00000085969734764055846280000001698581430088720257_"><linearGradient id="SVGID_1_" gradientUnits="userSpaceOnUse" x1="52.074" y1="906.415" x2="52.074" y2="975.473" gradientTransform="translate(0 -886)"><stop offset="0" stop-color="#d9dadf"/><stop offset=".218" stop-color="#cfd0d5"/><stop offset=".594" stop-color="#b3b5ba"/><stop offset="1" stop-color="#8e9196"/></linearGradient><path d="M47.9 57.6v12.7H44c-2.4 0-4.4 2-4.4 4.4s2 4.4 4.4 4.4h3.9v2.3c0 2.4 2 4.4 4.4 4.4 2.4 0 4.4-2 4.4-4.4V57.5c6.5-2 11.2-8 11.2-15.1 0-8.8-7.1-15.8-15.8-15.8-8.7 0-15.8 7.1-15.8 15.8 0 7.3 4.9 13.4 11.6 15.2zM52 33.7c4.8 0 8.7 3.9 8.7 8.7s-3.9 8.7-8.7 8.7-8.7-3.9-8.7-8.7 4-8.7 8.7-8.7z" fill="url(#SVGID_1_)"/><linearGradient id="SVGID_00000114774314839333975350000017947955574884972431_" gradientUnits="userSpaceOnUse" x1="52.1" y1="906.415" x2="52.1" y2="975.473" gradientTransform="translate(0 -886)"><stop offset="0" stop-color="#d9dadf"/><stop offset=".218" stop-color="#cfd0d5"/><stop offset=".594" stop-color="#b3b5ba"/><stop offset="1" stop-color="#8e9196"/></linearGradient><path d="M25.4 42.3c0-4 1.1-7.7 3.1-10.8 1.2-1.9.7-4.5-1.3-5.7-1.9-1.1-4.3-.7-5.5 1.2-2.8 4.4-4.5 9.6-4.5 15.3 0 6 1.9 11.5 5 16 1.2 1.8 3.6 2.2 5.4 1.1 2-1.2 2.5-3.9 1.2-5.8-2.1-3.3-3.4-7.2-3.4-11.3zm51.5-16.5c-2 1.2-2.5 3.8-1.3 5.7 2 3.1 3.1 6.8 3.1 10.8 0 4.2-1.3 8.1-3.5 11.3-1.3 2-.8 4.6 1.2 5.8 1.8 1.1 4.2.7 5.4-1.1 3.1-4.5 5-10.1 5-16.1 0-5.7-1.6-10.9-4.5-15.3-1.1-1.8-3.5-2.2-5.4-1.1z" fill="url(#SVGID_00000114774314839333975350000017947955574884972431_)"/><linearGradient id="SVGID_00000168806546997481617200000016001111831911134369_" gradientUnits="userSpaceOnUse" x1="52.1" y1="906.415" x2="52.1" y2="975.473" gradientTransform="translate(0 -886)"><stop offset="0" stop-color="#d9dadf"/><stop offset=".218" stop-color="#cfd0d5"/><stop offset=".594" stop-color="#b3b5ba"/><stop offset="1" stop-color="#8e9196"/></linearGradient><path d="M8.9 42.3c0-7.2 2.1-13.9 5.6-19.5 1.2-1.9.7-4.4-1.2-5.6-1.9-1.1-4.3-.6-5.5 1.3C3.5 25.4 1 33.6 1 42.3c0 9 2.7 17.5 7.3 24.5a4 4 0 005.4 1.2c2-1.2 2.5-3.7 1.2-5.6-3.8-5.9-6-12.8-6-20.1zm82-25.1c-1.9 1.2-2.5 3.7-1.2 5.6 3.6 5.6 5.6 12.3 5.6 19.5 0 7.4-2.2 14.3-6 20-1.2 1.9-.7 4.4 1.2 5.6a4 4 0 005.4-1.2c4.6-7.1 7.4-15.5 7.4-24.5 0-8.7-2.5-16.8-6.9-23.7-1.1-1.8-3.6-2.4-5.5-1.3z" fill="url(#SVGID_00000168806546997481617200000016001111831911134369_)"/></g></svg>