<!-- Generated by IcoMoon.io -->
<svg version="1.1" xmlns="http://www.w3.org/2000/svg" width="32" height="32" viewBox="0 0 32 32">
<title>macos</title>
<path d="M16 32c-8.836 0-16-7.164-16-16s7.164-16 16-16 16 7.164 16 16-7.164 16-16 16zM7.353 20.653c0 2.772 2.136 4.788 4.8 4.788 2.652 0 4.848-2.052 4.848-4.824 0-2.748-2.148-4.812-4.812-4.812-0.008-0-0.017-0-0.027-0-2.656 0-4.809 2.153-4.809 4.809 0 0.014 0 0.027 0 0.041v-0.002zM8.901 20.617c0-1.908 1.428-3.444 3.276-3.444 1.836 0 3.276 1.536 3.276 3.444s-1.44 3.456-3.276 3.456c-1.848 0-3.276-1.548-3.276-3.456zM20.811 25.441c2.077 0 3.253-1.38 3.253-2.748 0-1.392-0.888-2.388-2.568-2.724l-1.189-0.228c-0.755-0.156-1.187-0.72-1.187-1.248 0-0.72 0.707-1.368 1.62-1.368 0.996 0 1.632 0.744 1.8 1.416l1.367-0.432c-0.191-1.020-1.067-2.304-3.191-2.304-1.693 0-3.109 1.272-3.109 2.82 0 1.224 0.84 2.244 2.388 2.556l1.152 0.24c0.793 0.168 1.392 0.6 1.392 1.368 0 0.792-0.768 1.32-1.703 1.32-1.129 0-1.873-0.708-2.077-1.8l-1.425 0.384c0.131 1.332 1.283 2.748 3.48 2.748zM9.952 10.533v2.8h1.101v-2.781c0-0.756 0.411-1.26 1.101-1.26 0.765 0 1.064 0.523 1.064 1.232v2.809h1.111v-3.080c0-1.129-0.551-2.016-1.811-2.016-0.765 0-1.251 0.28-1.736 0.821-0.28-0.504-0.775-0.821-1.54-0.821-0.392 0-1.008 0.149-1.484 0.784v-0.672h-1.083v4.984h1.111v-2.772c0-0.756 0.411-1.269 1.092-1.269 0.765 0 1.073 0.541 1.073 1.241zM19.696 13.333v-3.173c0-0.336-0.047-0.625-0.168-0.896-0.327-0.719-1.027-1.017-1.867-1.017-0.364 0-0.719 0.065-1.008 0.196-0.691 0.299-1.073 0.933-1.12 1.353l1.008 0.224c0.084-0.476 0.485-0.821 1.092-0.821 0.653 0 0.98 0.364 0.98 0.756 0 0.243-0.131 0.42-0.467 0.42h-0.616c-0.868 0-2.072 0.364-2.072 1.521v0.056c0 0.859 0.709 1.465 1.68 1.465 0.467 0 1.101-0.159 1.465-0.765v0.681h1.092zM18.604 11.317c0 0.747-0.485 1.213-1.241 1.213-0.467 0-0.793-0.271-0.793-0.681 0-0.467 0.541-0.691 0.961-0.691h1.073v0.159zM23.392 13.417c1.353 0 2.128-0.868 2.352-1.633l-1.017-0.327c-0.149 0.383-0.457 0.952-1.316 0.952-0.849 0-1.475-0.663-1.475-1.596 0-0.943 0.653-1.559 1.465-1.559 0.831 0 1.195 0.541 1.307 0.933l1.008-0.336c-0.215-0.84-1.073-1.605-2.305-1.605-1.484 0-2.613 1.167-2.613 2.585 0 1.465 1.129 2.585 2.595 2.585z"></path>
</svg>
