<?xml version="1.0" encoding="utf-8"?>
<!-- Generator: Adobe Illustrator 25.0.1, SVG Export Plug-In . SVG Version: 6.00 Build 0)  -->
<svg version="1.1" id="Layer_1" xmlns="http://www.w3.org/2000/svg" xmlns:xlink="http://www.w3.org/1999/xlink" x="0px" y="0px"
	 viewBox="0 0 622.6 658.2" style="enable-background:new 0 0 622.6 658.2;" xml:space="preserve">
<style type="text/css">
	.st0{fill:#08A0F0;}
	.st1{enable-background:new    ;}
</style>
<g id="Layer_2_1_">
	<g id="Layer_1-2">
		<path class="st0" d="M540.4,95.7c12.2,0,22.2,9.9,22.2,22.2c0,0,0,0,0,0v458.2c0,12.2-9.9,22.2-22.2,22.2c0,0,0,0,0,0H82.2
			c-12.2,0-22.2-9.9-22.2-22.2c0,0,0,0,0,0V117.9c0-12.2,9.9-22.2,22.2-22.2c0,0,0,0,0,0H540.4 M540.4,35.7H82.2
			C36.8,35.7,0,72.5,0,117.9v458.2c0,45.4,36.8,82.1,82.2,82.2h458.2c45.4,0,82.1-36.8,82.2-82.2V117.9
			C622.5,72.5,585.7,35.7,540.4,35.7z"/>
		<path class="st0" d="M53.5,213.2h506c10.8,0,19.5,8.7,19.5,19.5v19.6c0,10.8-8.7,19.5-19.5,19.5h-506c-10.8,0-19.5-8.7-19.5-19.5
			v-19.6C34,222,42.8,213.2,53.5,213.2z"/>
		<path class="st0" d="M206.6,0H222c12.2,0,22.1,9.9,22.1,22v129.8c0,12.2-9.9,22.1-22.1,22.1h-15.5c-12.2,0-22.1-9.9-22.1-22.1V22
			C184.5,9.9,194.4,0,206.6,0z"/>
		<path class="st0" d="M401.5,0H416c12.2,0,22,9.9,22,22v129.8c0,12.2-9.9,22.1-22,22.1h-14.6c-12.2,0-22-9.9-22-22.1V22
			C379.4,9.9,389.3,0,401.5,0z"/>
		<g class="st1">
			<path class="st0" d="M306.5,559.5v-28.9c-20.4-0.9-40.2-6.4-51.7-13.1l9.1-35.6c12.8,7,30.7,13.4,50.5,13.4
				c17.3,0,29.2-6.7,29.2-18.9c0-11.6-9.7-18.9-32.2-26.5c-32.5-11-54.8-26.2-54.8-55.7c0-26.8,18.9-47.8,51.4-54.1v-28.9h29.8V338
				c20.4,0.9,34.1,5.2,44.1,10l-8.8,34.4c-7.9-3.3-21.9-10.3-43.8-10.3c-19.8,0-26.2,8.5-26.2,17c0,10,10.6,16.4,36.5,26.2
				c36.2,12.8,50.8,29.5,50.8,56.9c0,27.1-19.2,50.2-54.1,56.3v31H306.5z"/>
		</g>
	</g>
</g>
</svg>
