<?xml version="1.0" encoding="utf-8"?>
<!-- Generator: Adobe Illustrator 25.0.1, SVG Export Plug-In . SVG Version: 6.00 Build 0)  -->
<svg version="1.1" id="Layer_1" xmlns="http://www.w3.org/2000/svg" xmlns:xlink="http://www.w3.org/1999/xlink" x="0px" y="0px"
	 viewBox="0 0 256.2 667.3" style="enable-background:new 0 0 256.2 667.3;" xml:space="preserve">
<style type="text/css">
	.st0{fill:url(#SVGID_1_);}
	.st1{fill:url(#SVGID_2_);}
</style>
<g id="Layer_2_1_">
	<g id="Layer_1-2">
		
			<radialGradient id="SVGID_1_" cx="-1150.05" cy="-1003.29" r="175.0763" gradientTransform="matrix(6.123234e-17 -1 -1 -6.123234e-17 -875.21 -938.16)" gradientUnits="userSpaceOnUse">
			<stop  offset="0" style="stop-color:#0595EF"/>
			<stop  offset="0.51" style="stop-color:#0CACF2"/>
			<stop  offset="0.99" style="stop-color:#0595EF"/>
		</radialGradient>
		<path class="st0" d="M0,128.1V268c16.7-20.9,38.5-37.2,63.2-47.4v-86.2c-0.4-35.8,28.2-65.2,64-65.6c35.8-0.4,65.2,28.2,65.6,64
			c0,0.5,0,1.1,0,1.6v158.1c0,34-26.3,62.2-60.2,64.6c-0.7,0.1-1.4,0.1-2.1,0.1c-0.7,0-1.5,0.1-2.2,0.1c-12.3,0.9-45,5.8-39.9,31.6
			c5.5,27.6,27,33.5,32.5,34.6l0,0c0.5,0,1,0,1.4,0.1c1.9,0.1,3.7,0.1,5.6,0.1c22.8,0,45.2-6,64.8-17.6c3.4-2,6.8-4.2,10-6.5
			l0.3-0.3c20.3-14.8,35.9-35.2,44.8-58.7c5.4-14.4,8.2-29.6,8.2-45V128.1C255.3,57.3,197.2,0.7,126.5,1.6C57,2.5,0.9,58.6,0,128.1z
			"/>
		
			<radialGradient id="SVGID_2_" cx="-790.57" cy="-498.3" r="175.08" gradientTransform="matrix(1 0 0 -1 0 670)" gradientUnits="userSpaceOnUse">
			<stop  offset="0" style="stop-color:#0595EF"/>
			<stop  offset="0.51" style="stop-color:#0CACF2"/>
			<stop  offset="0.99" style="stop-color:#0595EF"/>
		</radialGradient>
		<path class="st1" d="M119,243.8L119,243.8c-21.6,1.5-42.5,8.5-60.7,20.3c-0.2,0.1-0.4,0.3-0.6,0.4c-24.8,16.3-43.2,40.7-52,69.1
			c-1.2,3.7-2.2,7.5-3,11.4C0.9,353.8,0,362.7,0,371.6v167.6c0.6,70.7,58.5,127.6,129.2,127c69.9-0.6,126.3-57.1,127-127v-153
			c-15.6,24.1-37.5,43.6-63.2,56.3v93.6c0.4,35.8-28.2,65.2-64,65.6s-65.2-28.2-65.6-64c0-0.5,0-1.1,0-1.6V377.9
			c0-30.3,21-56.6,50.6-63.2c2.8-0.6,5.7-1.1,8.6-1.3c4.2-0.4,8.3-0.9,12.3-2c13.2-3.6,28-11.2,29.8-26.7
			c1.8-16.5-7.8-27.7-16.1-34.2c-5.8-4.5-12.9-6.9-20.2-6.9c0,0-0.1,0-0.1,0C125.1,243.5,122,243.6,119,243.8z"/>
	</g>
</g>
</svg>
