<?xml version="1.0" encoding="utf-8"?>
<!-- Generator: Adobe Illustrator 25.0.1, SVG Export Plug-In . SVG Version: 6.00 Build 0)  -->
<svg version="1.1" id="Layer_1" xmlns="http://www.w3.org/2000/svg" xmlns:xlink="http://www.w3.org/1999/xlink" x="0px" y="0px"
	 viewBox="0 0 3000 1736.8" style="enable-background:new 0 0 3000 1736.8;" xml:space="preserve">
<style type="text/css">
	.st0{fill:none;stroke:#075BBD;stroke-width:56;stroke-linecap:round;stroke-linejoin:round;stroke-miterlimit:10;}
	.st1{clip-path:url(#SVGID_2_);fill:#82B1DF;}
	.st2{clip-path:url(#SVGID_4_);fill:url(#SVGID_5_);}
	.st3{clip-path:url(#SVGID_7_);}
	.st4{clip-path:url(#SVGID_9_);fill:#D6F0FC;}
	.st5{clip-path:url(#SVGID_11_);fill:url(#SVGID_12_);}
	
		.st6{clip-path:url(#SVGID_14_);fill:none;stroke:#075BBD;stroke-width:56;stroke-linecap:round;stroke-linejoin:round;stroke-miterlimit:10;}
	.st7{clip-path:url(#SVGID_16_);}
	.st8{clip-path:url(#SVGID_18_);fill:#C88A5D;}
	.st9{clip-path:url(#SVGID_20_);fill:#D53D52;}
	.st10{fill:#C88A5D;}
	.st11{fill:#E9B685;}
	.st12{fill:#652A3B;}
	.st13{clip-path:url(#SVGID_22_);fill:#E6AA72;}
	.st14{clip-path:url(#SVGID_24_);fill:#C88A5D;}
	.st15{clip-path:url(#SVGID_29_);}
	.st16{clip-path:url(#SVGID_30_);fill:#F66378;}
	.st17{clip-path:url(#SVGID_36_);}
	.st18{clip-path:url(#SVGID_37_);fill:#D53D52;}
	.st19{fill:#F9C19C;}
	.st20{clip-path:url(#SVGID_40_);}
	.st21{fill:#DD9F76;}
	.st22{fill:#5B371D;}
	.st23{clip-path:url(#SVGID_42_);}
	.st24{clip-path:url(#SVGID_44_);fill:#2BC8F2;}
	.st25{clip-path:url(#SVGID_46_);fill:#0EA1DA;}
	.st26{clip-path:url(#SVGID_49_);fill:#F9C19C;}
	.st27{clip-path:url(#SVGID_51_);fill:#0EA1DA;}
	.st28{clip-path:url(#SVGID_54_);fill:#25B9DD;}
	.st29{display:none;clip-path:url(#SVGID_56_);fill:#6AD88E;}
	.st30{clip-path:url(#SVGID_58_);fill:#0EA1DA;}
	.st31{clip-path:url(#SVGID_60_);fill:#F9C19C;}
	.st32{clip-path:url(#SVGID_62_);fill:#DA9D79;}
	.st33{clip-path:url(#SVGID_64_);fill:#DA9D79;}
	.st34{clip-path:url(#SVGID_66_);fill:#DA9D79;}
	.st35{clip-path:url(#SVGID_68_);fill:#FCDAC8;}
	.st36{clip-path:url(#SVGID_70_);fill:#DA9D79;}
	.st37{clip-path:url(#SVGID_72_);}
	.st38{clip-path:url(#SVGID_74_);fill:#008EC6;}
	.st39{clip-path:url(#SVGID_76_);fill:#006D98;}
	.st40{clip-path:url(#SVGID_78_);}
	.st41{fill:#09225E;}
	.st42{fill:#075BBD;}
	.st43{clip-path:url(#SVGID_80_);fill:#D6F0FC;}
	.st44{clip-path:url(#SVGID_82_);fill:url(#SVGID_83_);}
	.st45{clip-path:url(#SVGID_85_);fill:#82B1DF;}
	.st46{clip-path:url(#SVGID_87_);fill:#B0CCEB;}
	.st47{clip-path:url(#SVGID_89_);fill:#4E96D1;}
	.st48{clip-path:url(#SVGID_91_);fill:#4E96D1;}
	.st49{fill:#F99B22;}
	.st50{clip-path:url(#SVGID_93_);fill:#FFDA82;}
	.st51{clip-path:url(#SVGID_95_);fill:#FFFFFF;}
	.st52{opacity:0.62;clip-path:url(#SVGID_97_);fill:#F99B22;enable-background:new    ;}
	.st53{clip-path:url(#SVGID_99_);fill:#FFDA82;}
	.st54{clip-path:url(#SVGID_101_);fill:#FFF59A;}
	.st55{opacity:0.62;clip-path:url(#SVGID_103_);fill:#F99B22;enable-background:new    ;}
	.st56{fill:#FFDA82;}
	.st57{fill:#FFF59A;}
	.st58{clip-path:url(#SVGID_105_);fill:#FFDA82;}
	.st59{clip-path:url(#SVGID_107_);fill:#FFF59A;}
	.st60{opacity:0.62;clip-path:url(#SVGID_109_);fill:#F99B22;enable-background:new    ;}
	.st61{fill:#FFEFC8;}
	.st62{clip-path:url(#SVGID_111_);fill:#D5F8C7;}
	.st63{clip-path:url(#SVGID_113_);fill:#48B83F;}
	.st64{opacity:0.62;clip-path:url(#SVGID_115_);fill:#F99B22;enable-background:new    ;}
	.st65{clip-path:url(#SVGID_117_);fill:#FFDA82;}
	.st66{clip-path:url(#SVGID_119_);fill:#FFF59A;}
	.st67{opacity:0.62;clip-path:url(#SVGID_121_);fill:#F99B22;enable-background:new    ;}
	.st68{clip-path:url(#SVGID_123_);fill:#D5F8C7;}
	.st69{clip-path:url(#SVGID_125_);fill:#48B83F;}
	.st70{opacity:0.62;clip-path:url(#SVGID_127_);fill:#F99B22;enable-background:new    ;}
	.st71{clip-path:url(#SVGID_129_);fill:#FFDA82;}
	.st72{clip-path:url(#SVGID_131_);fill:#FFF59A;}
	.st73{opacity:0.62;clip-path:url(#SVGID_133_);fill:#F99B22;enable-background:new    ;}
	.st74{clip-path:url(#SVGID_135_);fill:#FFDA82;}
	.st75{clip-path:url(#SVGID_137_);fill:#FFFFFF;}
	.st76{opacity:0.62;clip-path:url(#SVGID_139_);fill:#F99B22;enable-background:new    ;}
	.st77{clip-path:url(#SVGID_141_);fill:#FFDA82;}
	.st78{clip-path:url(#SVGID_143_);fill:#FFF59A;}
	.st79{opacity:0.62;clip-path:url(#SVGID_145_);fill:#F99B22;enable-background:new    ;}
	.st80{clip-path:url(#SVGID_147_);fill:#FFDA82;}
	.st81{clip-path:url(#SVGID_149_);fill:#FFF59A;}
	.st82{opacity:0.62;clip-path:url(#SVGID_151_);fill:#F99B22;enable-background:new    ;}
	.st83{clip-path:url(#SVGID_153_);fill:#D5F8C7;}
	.st84{clip-path:url(#SVGID_155_);fill:#48B83F;}
	.st85{opacity:0.62;clip-path:url(#SVGID_157_);fill:#F99B22;enable-background:new    ;}
	.st86{clip-path:url(#SVGID_159_);fill:#FFDA82;}
	.st87{clip-path:url(#SVGID_161_);fill:#FFF59A;}
	.st88{opacity:0.62;clip-path:url(#SVGID_163_);fill:#F99B22;enable-background:new    ;}
	.st89{clip-path:url(#SVGID_165_);fill:#D5F8C7;}
	.st90{clip-path:url(#SVGID_167_);fill:#48B83F;}
	.st91{opacity:0.62;clip-path:url(#SVGID_169_);fill:#F99B22;enable-background:new    ;}
	.st92{clip-path:url(#SVGID_171_);fill:#FFDA82;}
	.st93{clip-path:url(#SVGID_173_);fill:#FFF59A;}
	.st94{opacity:0.62;clip-path:url(#SVGID_175_);fill:#F99B22;enable-background:new    ;}
	.st95{opacity:0.42;fill:#F99B22;enable-background:new    ;}
	.st96{clip-path:url(#SVGID_177_);fill:#F99B22;}
	.st97{clip-path:url(#SVGID_179_);}
	.st98{clip-path:url(#SVGID_181_);fill:#FFDA82;}
	.st99{opacity:0.46;clip-path:url(#SVGID_183_);fill:#F99B22;enable-background:new    ;}
	.st100{clip-path:url(#SVGID_185_);fill:#FFF59A;}
	.st101{clip-path:url(#SVGID_187_);}
	.st102{fill:none;}
	.st103{enable-background:new    ;}
</style>
<g id="Layer_4">
	<polyline class="st0" points="28,1254.5 343.5,992.6 383.6,1065.8 731.9,805.2 783.1,886.7 1187.7,661.3 1229.3,752.8 1694,503.5 
		1792.2,672.4 2795.7,75.6 	"/>
	<g>
		<g>
			<g>
				<g>
					<g>
						<defs>
							<path id="SVGID_1_" d="M2620.4,1639.3H521.1c-51.2,0-92.7-41.5-92.7-92.7V106.2c0-51.2,41.5-92.7,92.7-92.7h2099.3
								c51.2,0,92.7,41.5,92.7,86.1V1540C2713.1,1597.8,2671.6,1639.3,2620.4,1639.3z"/>
						</defs>
						<clipPath id="SVGID_2_">
							<use xlink:href="#SVGID_1_"  style="overflow:visible;"/>
						</clipPath>
						<path class="st1" d="M2620.4,1639.3H521.1c-51.2,0-92.7-41.5-92.7-92.7V106.2c0-51.2,41.5-92.7,92.7-92.7h2099.3
							c51.2,0,92.7,41.5,92.7,92.7v1440.4C2713.1,1597.8,2671.6,1639.3,2620.4,1639.3z"/>
					</g>
				</g>
			</g>
			<g>
				<g>
					<g>
						<defs>
							<path id="SVGID_3_" d="M2620.4,1639.3H521.1c-51.2,0-92.7-41.5-92.7-92.7V106.2c0-51.2,41.5-92.7,92.7-92.7h2099.3
								c51.2,0,92.7,41.5,92.7,86.1V1540C2713.1,1597.8,2671.6,1639.3,2620.4,1639.3z"/>
						</defs>
						<clipPath id="SVGID_4_">
							<use xlink:href="#SVGID_3_"  style="overflow:visible;"/>
						</clipPath>
						
							<linearGradient id="SVGID_5_" gradientUnits="userSpaceOnUse" x1="1604.5336" y1="3121.5432" x2="1610.9482" y2="1876.2281" gradientTransform="matrix(1 0 0 -1 0 3968)">
							<stop  offset="0.2984" style="stop-color:#4E96D1;stop-opacity:0"/>
							<stop  offset="0.71" style="stop-color:#4E96D1;stop-opacity:0.859"/>
							<stop  offset="0.7776" style="stop-color:#4E96D1"/>
						</linearGradient>
						<rect x="98.6" y="-130.5" class="st2" width="3010.3" height="1649.7"/>
					</g>
				</g>
			</g>
		</g>
		<g>
			<g>
				<g>
					<g>
						<defs>
							<path id="SVGID_6_" d="M2519.4,1364.1H622c-51.2,0-92.7-41.5-92.7-92.7V178.1c0-51.2,41.5-92.7,92.7-92.7h1897.4
								c51.2,0,92.7,41.5,92.7,92.7v1093.3C2612.1,1322.6,2570.7,1364.1,2519.4,1364.1z"/>
						</defs>
						<clipPath id="SVGID_7_">
							<use xlink:href="#SVGID_6_"  style="overflow:visible;"/>
						</clipPath>
						<g class="st3">
							<g>
								<g>
									<g>
										<defs>
											<path id="SVGID_8_" d="M2519.4,1364.1H622c-51.2,0-92.7-41.5-92.7-92.7V178.1c0-51.2,41.5-92.7,92.7-92.7h1897.4
												c51.2,0,92.7,41.5,92.7,92.7v1093.3C2612.1,1322.6,2570.7,1364.1,2519.4,1364.1z"/>
										</defs>
										<clipPath id="SVGID_9_">
											<use xlink:href="#SVGID_8_"  style="overflow:visible;"/>
										</clipPath>
										<path class="st4" d="M2519.4,1364.1H622c-51.2,0-92.7-41.5-92.7-92.7V178.1c0-51.2,41.5-92.7,92.7-92.7h1897.4
											c51.2,0,92.7,41.5,92.7,92.7v1093.3C2612.1,1322.6,2570.7,1364.1,2519.4,1364.1z"/>
									</g>
								</g>
							</g>
							<g>
								<g>
									<g>
										<defs>
											<path id="SVGID_10_" d="M2519.4,1364.1H622c-51.2,0-92.7-41.5-92.7-92.7V178.1c0-51.2,41.5-92.7,92.7-92.7h1897.4
												c51.2,0,92.7,41.5,92.7,92.7v1093.3C2612.1,1322.6,2570.7,1364.1,2519.4,1364.1z"/>
										</defs>
										<clipPath id="SVGID_11_">
											<use xlink:href="#SVGID_10_"  style="overflow:visible;"/>
										</clipPath>
										
											<linearGradient id="SVGID_12_" gradientUnits="userSpaceOnUse" x1="-1785.1862" y1="-23.1544" x2="2286.293" y2="4175.4453" gradientTransform="matrix(1 0 0 -1 0 3968)">
											<stop  offset="0.5543" style="stop-color:#FFFFFF;stop-opacity:0"/>
											<stop  offset="0.7854" style="stop-color:#FFFFFF"/>
										</linearGradient>
										<polygon class="st5" points="2974,-211.2 736.5,2183.1 -25.5,1471.1 2212.1,-923.3 										"/>
									</g>
								</g>
							</g>
						</g>
					</g>
				</g>
			</g>
			<g>
				<g>
					<g>
						<defs>
							<path id="SVGID_13_" d="M2519.4,1364.1H622c-51.2,0-92.7-41.5-92.7-92.7V178.1c0-51.2,41.5-92.7,92.7-92.7h1897.4
								c51.2,0,92.7,41.5,92.7,92.7v1093.3C2612.1,1322.6,2570.7,1364.1,2519.4,1364.1z"/>
						</defs>
						<clipPath id="SVGID_14_">
							<use xlink:href="#SVGID_13_"  style="overflow:visible;"/>
						</clipPath>
						<polyline class="st6" points="71.9,1303.2 343.5,992.6 383.6,1065.8 731.9,805.2 783.1,886.7 1187.7,661.3 1229.3,752.8 
							1694,503.5 1792.2,672.4 2795.7,75.6 						"/>
					</g>
				</g>
			</g>
			<g>
				<g>
					<g>
						<defs>
							<path id="SVGID_15_" d="M2519.4,1364.1H622c-51.2,0-92.7-41.5-92.7-92.7V178.1c0-51.2,41.5-92.7,92.7-92.7h1897.4
								c51.2,0,92.7,41.5,92.7,92.7v1093.3C2612.1,1322.6,2570.7,1364.1,2519.4,1364.1z"/>
						</defs>
						<clipPath id="SVGID_16_">
							<use xlink:href="#SVGID_15_"  style="overflow:visible;"/>
						</clipPath>
						<g class="st7">
							<g>
								<g>
									<g>
										<g>
											<defs>
												<path id="SVGID_17_" d="M1070.2,694.9c0,0,102.8,171.8,195.4,245.2c52.4-56.2,147-134.2,168.1-174.8
													c13.7-26,13.6-34.6,22.9-38.6s58.8-7.5,81.4-26.9c15.4-2.9,7.7,26.3-18.3,52.8c14.3,9.8,34,13,46.2,13
													c11.4-0.5,52.3-15.9,69.5-19.4c12.2,1.6-42.2,66.1-83.3,88.9c-33.2,2.1-82.8-5.3-89.7-6.1c-7.7,4-76.4,140.4-127.2,192
													c-14.7,14.8-236,6.4-239.8-43.2c-3.8-49.8-98-178.6-89.8-187.8s22.2-25.2,23.6-35.4s17.4-45.8,19.2-46.6
													C1050.5,706.8,1070.2,694.9,1070.2,694.9z"/>
											</defs>
											<clipPath id="SVGID_18_">
												<use xlink:href="#SVGID_17_"  style="overflow:visible;"/>
											</clipPath>
											<path class="st8" d="M1070.2,694.9c0,0,134.8,141.8,195.4,245.2c52.4-56.2,147-134.2,168.1-174.8
												c13.7-26,13.6-34.6,22.9-38.6s58.8-7.5,81.4-26.9c15.4-2.9,7.7,26.3-18.3,52.8c14.3,9.8,34,13,46.2,13
												c11.4-0.5,52.3-15.9,69.5-19.4c12.2,1.6-42.2,66.1-83.3,88.9c-33.2,2.1-82.8-5.3-89.7-6.1c-7.7,4-106,187.1-118.6,203.9
												c-12.5,16.8-244.6-5.4-248.4-55.2s-98-178.6-89.8-187.8c8.2-9.2,22.2-25.2,23.6-35.4s17.4-45.8,19.2-46.6
												C1050.5,706.8,1070.2,694.9,1070.2,694.9z"/>
										</g>
									</g>
								</g>
								<g>
									<g>
										<g>
											<defs>
												<path id="SVGID_19_" d="M1070.2,694.9c0,0,102.8,171.8,195.4,245.2c52.4-56.2,147-134.2,168.1-174.8
													c13.7-26,13.6-34.6,22.9-38.6s58.8-7.5,81.4-26.9c15.4-2.9,7.7,26.3-18.3,52.8c14.3,9.8,34,13,46.2,13
													c11.4-0.5,52.3-15.9,69.5-19.4c12.2,1.6-42.2,66.1-83.3,88.9c-33.2,2.1-82.8-5.3-89.7-6.1c-7.7,4-76.4,140.4-127.2,192
													c-14.7,14.8-236,6.4-239.8-43.2c-3.8-49.8-98-178.6-89.8-187.8s22.2-25.2,23.6-35.4s17.4-45.8,19.2-46.6
													C1050.5,706.8,1070.2,694.9,1070.2,694.9z"/>
											</defs>
											<clipPath id="SVGID_20_">
												<use xlink:href="#SVGID_19_"  style="overflow:visible;"/>
											</clipPath>
											<path class="st9" d="M1223.3,845.9c0,0-19.4,74.2-93.6,92.6c-81.2-74.2-123.4-133.6-117.4-164s4.4-109.4,65-89.8
												s84.4,44.4,102.2,67.6c17.8,23.2,50.4,79,50.4,79"/>
										</g>
									</g>
								</g>
							</g>
							<path class="st10" d="M1007.4,589.6c0,0-98.9,90.2-114,127.7c12.4,22.2,133.2,51.8,133.2,48s49.1-113.1,130.1-128.5
								c-42.8-88.2-106-65.2-114.7-59.8"/>
							<path class="st11" d="M990.5,579.4c0,0,5.9,44.5,68.9,50.1c6.2,25.4,72,64.1,124,46.8c64.5-21.5,31.3-182.6,20.2-236.2
								c-11-53.6-58.9-51.5-92.6-39.8s-63.7,4.5-84.1,46.2c-20.2,41.9-40.9,82-43.5,87.3C981.1,539.2,980.9,570.4,990.5,579.4z"/>
							<path class="st12" d="M990.5,579.4c0,0-54.4-12.5-36.9-58.1c-35.3-37.4-38.5-132.4,28.9-114.4c0,0,5.3-92.1,81.5-84.9
								c76.4,7.4,95.3,34,124.7-5.3c15.1,8.2,10.9,32.5,10.9,32.5s15.1-21.2,10.9-35.3c22.8,9,58.4,88.1-3.2,132.7
								c-38.2,22-123.8-21.2-156.6,22.3c-32.9,43.5,4.5,97.4,4.5,97.4s-30.4-41.3-51.6-30.7C981.9,546.3,986.1,573.9,990.5,579.4z"
								/>
							<g>
								<g>
									<g>
										<g>
											<g>
												<defs>
													<path id="SVGID_21_" d="M1128.9,886.7c0.8-2.4-98.5-193.6-146.8-212.7c-48.3-19.2-178.8,17-253.5,179.4
														s-126.6,305.2-125,449c1.6,143.7,198.9,142.8,207,139.6c8.2-3.2,105.6-60.8,108.8-62.6c3.2-1.6,18.3-235.9,128.2-320.7
														c7.1,6.4,19.3,16.2,27.8,23c6.2,4.9,13.9,7.8,21.9,8.1c45.1,1.6,203.7,5.3,288.5-21.4c61.3-13.8,84.4,29.2,84.4,29.2
														s28.4-7.7,35.8-17.5c7.7,4.8,16.2,12.5,21.5,10.6c5.3-2.1,26.3-13.8,23.1-27.1c-3.2-13.3-44.3-55.8-67.7-61.2
														c-24.4-1.4-48.8-0.1-49.1,0.2c-0.5,0.5,28.1-32.1,28.1-33.7s-1.6-6.9-1.6-6.9s-38.2-1.6-48.8,1.3
														c-11.4,10.9-19.4,30.5-24.7,33.7c-9,5.3-156.9-35.3-205.2-53.9C1151,898.5,1128.9,886.7,1128.9,886.7z"/>
												</defs>
												<clipPath id="SVGID_22_">
													<use xlink:href="#SVGID_21_"  style="overflow:visible;"/>
												</clipPath>
												<path class="st13" d="M1129.8,888c-3.9-5.9-137.2-183-151.7-211.7c-48.3-19.2-175.4,15.2-250,177.6
													s-126.6,305.2-125,449c1.6,143.7,198.9,142.8,207,139.6c8.2-3.2,105.6-60.8,108.8-62.6c3.2-1.7,18.3-235.9,128.2-320.7
													c7.7,6.9,20.9,17.5,29.1,24c4.8,3.8,10.6,6,16.7,6.2c40.9,1.7,205.6,6.8,292.2-20.5c61.3-13.8,84.4,29.2,84.4,29.2
													s28.4-7.7,35.8-17.5c7.7,4.8,16.2,12.5,21.5,10.6c5.3-2.1,26.3-13.8,23.1-27.1c-3.2-13.3-44.3-55.8-67.7-61.2
													c-24.4-1.4-48.8-0.1-49.1,0.2c-0.5,0.5,28.1-32.1,28.1-33.7s-1.6-6.9-1.6-6.9s-38.2-1.6-48.8,1.3
													c-11.4,10.9-19.4,30.5-24.7,33.7c-9,5.3-147.4-9.3-195.8-28.1C1175.6,953.4,1129.8,888,1129.8,888z"/>
											</g>
										</g>
									</g>
									<g>
										<g>
											<g>
												<defs>
													<path id="SVGID_23_" d="M1128.9,886.7c0.8-2.4-98.5-193.6-146.8-212.7c-48.3-19.2-178.8,17-253.5,179.4
														s-126.6,305.2-125,449c1.6,143.7,198.9,142.8,207,139.6c8.2-3.2,105.6-60.8,108.8-62.6c3.2-1.6,18.3-235.9,128.2-320.7
														c7.1,6.4,19.3,16.2,27.8,23c6.2,4.9,13.9,7.8,21.9,8.1c45.1,1.6,203.7,5.3,288.5-21.4c61.3-13.8,84.4,29.2,84.4,29.2
														s28.4-7.7,35.8-17.5c7.7,4.8,16.2,12.5,21.5,10.6c5.3-2.1,26.3-13.8,23.1-27.1c-3.2-13.3-44.3-55.8-67.7-61.2
														c-24.4-1.4-48.8-0.1-49.1,0.2c-0.5,0.5,28.1-32.1,28.1-33.7s-1.6-6.9-1.6-6.9s-38.2-1.6-48.8,1.3
														c-11.4,10.9-19.4,30.5-24.7,33.7c-9,5.3-156.9-35.3-205.2-53.9C1151,898.5,1128.9,886.7,1128.9,886.7z"/>
												</defs>
												<clipPath id="SVGID_24_">
													<use xlink:href="#SVGID_23_"  style="overflow:visible;"/>
												</clipPath>
												<path class="st14" d="M1528.6,1091.8l-38.3-34.5l15.8,23.1c0,0,7.5,22.3,16.7,20.9c9.1-1.4,9.1-3.5,9.1-3.5"/>
											</g>
										</g>
									</g>
								</g>
								<g>
									<g>
										<g>
											<g>
												<defs>
													<path id="SVGID_25_" d="M1128.9,886.7c-43.6-57.3-88-157.8-163.5-226.5c-61-55.4-161.9,30.8-236.7,193.2
														s-126.6,305.2-125,449c1.6,143.7,198.9,142.8,207,139.6c8.2-3.2,164.6-34.5,163.2-31.2c-8.2,19.8-8.2-240,73.8-352.1
														c23.1,19.1,42.2,28.9,42.2,28.9s196.4,12.2,295.9-19.1c61.3-13.8,84.4,29.2,84.4,29.2s28.4-7.7,35.8-17.5
														c7.7,4.8,16.2,12.5,21.5,10.6c5.3-2.1,26.3-13.8,23.1-27.1c-3.2-13.3-44.3-55.8-67.7-61.2c-24.4-1.4-48.8-0.1-49.1,0.2
														c-0.5,0.5,28.1-32.1,28.1-33.7s-1.6-6.9-1.6-6.9s-38.2-1.6-48.8,1.3c-11.4,10.9-19.4,30.5-24.7,33.7
														c-9,5.3-153.7-38.2-202-56.8C1154.3,895.7,1128.9,886.7,1128.9,886.7z"/>
												</defs>
												<clipPath id="SVGID_26_">
													<use xlink:href="#SVGID_25_"  style="overflow:visible;"/>
												</clipPath>
											</g>
											<g>
												<defs>
													<path id="SVGID_27_" d="M1128.9,886.7c-43.6-57.3-88-157.8-163.5-226.5c-61-55.4-161.9,30.8-236.7,193.2
														s-126.6,305.2-125,449c1.6,143.7,198.9,142.8,207,139.6c8.2-3.2,164.6-34.5,163.2-31.2c-8.2,19.8-8.2-240,73.8-352.1
														c23.1,19.1,42.2,28.9,42.2,28.9s196.4,12.2,295.9-19.1c61.3-13.8,84.4,29.2,84.4,29.2s28.4-7.7,35.8-17.5
														c7.7,4.8,16.2,12.5,21.5,10.6c5.3-2.1,26.3-13.8,23.1-27.1c-3.2-13.3-44.3-55.8-67.7-61.2c-24.4-1.4-48.8-0.1-49.1,0.2
														c-0.5,0.5,28.1-32.1,28.1-33.7s-1.6-6.9-1.6-6.9s-38.2-1.6-48.8,1.3c-11.4,10.9-19.4,30.5-24.7,33.7
														c-9,5.3-153.7-38.2-202-56.8C1154.3,895.7,1128.9,886.7,1128.9,886.7z"/>
												</defs>
												<defs>
													<path id="SVGID_28_" d="M1147.5,885.9c2.8-3.2-102.9-35-161.9,105.7c38.9,46.7,62.1,67.2,62.1,67.2
														s114,349.9,18.4,444.1s-730.4,52-647.6-152.6s285-674.7,386.4-689.3s222.4-56.8,281.7,0c59.2,56.8,84.4,142,85.2,161.6
														c0.8,19.4-15.4,57.6-14.6,60.8"/>
												</defs>
												<clipPath id="SVGID_29_">
													<use xlink:href="#SVGID_27_"  style="overflow:visible;"/>
												</clipPath>
												<clipPath id="SVGID_30_" class="st15">
													<use xlink:href="#SVGID_28_"  style="overflow:visible;"/>
												</clipPath>
												<path class="st16" d="M1147.5,885.9c2.8-3.2-104-27.6-162.9,113.2c40.6,43.8,63,59.8,63,59.8s114,349.9,18.4,444.1
													s-730.4,52-647.6-152.6s285-674.7,386.4-689.3s222.4-56.8,281.7,0c59.2,56.8,84.4,142,85.2,161.6
													c0.8,19.4-15.4,57.6-14.6,60.8"/>
											</g>
										</g>
									</g>
									<g>
										<g>
											<g>
												<defs>
													<path id="SVGID_31_" d="M1128.9,886.7c-43.6-57.3-88-157.8-163.5-226.5c-61-55.4-161.9,30.8-236.7,193.2
														s-126.6,305.2-125,449c1.6,143.7,198.9,142.8,207,139.6c8.2-3.2,164.6-34.5,163.2-31.2c-8.2,19.8-8.2-240,73.8-352.1
														c23.1,19.1,42.2,28.9,42.2,28.9s196.4,12.2,295.9-19.1c61.3-13.8,84.4,29.2,84.4,29.2s28.4-7.7,35.8-17.5
														c7.7,4.8,16.2,12.5,21.5,10.6c5.3-2.1,26.3-13.8,23.1-27.1c-3.2-13.3-44.3-55.8-67.7-61.2c-24.4-1.4-48.8-0.1-49.1,0.2
														c-0.5,0.5,28.1-32.1,28.1-33.7s-1.6-6.9-1.6-6.9s-38.2-1.6-48.8,1.3c-11.4,10.9-19.4,30.5-24.7,33.7
														c-9,5.3-153.7-38.2-202-56.8C1154.3,895.7,1128.9,886.7,1128.9,886.7z"/>
												</defs>
												<clipPath id="SVGID_32_">
													<use xlink:href="#SVGID_31_"  style="overflow:visible;"/>
												</clipPath>
											</g>
											<g>
												<defs>
													<path id="SVGID_33_" d="M1128.9,886.7c-43.6-57.3-88-157.8-163.5-226.5c-61-55.4-161.9,30.8-236.7,193.2
														s-126.6,305.2-125,449c1.6,143.7,198.9,142.8,207,139.6c8.2-3.2,164.6-34.5,163.2-31.2c-8.2,19.8-8.2-240,73.8-352.1
														c23.1,19.1,42.2,28.9,42.2,28.9s196.4,12.2,295.9-19.1c61.3-13.8,84.4,29.2,84.4,29.2s28.4-7.7,35.8-17.5
														c7.7,4.8,16.2,12.5,21.5,10.6c5.3-2.1,26.3-13.8,23.1-27.1c-3.2-13.3-44.3-55.8-67.7-61.2c-24.4-1.4-48.8-0.1-49.1,0.2
														c-0.5,0.5,28.1-32.1,28.1-33.7s-1.6-6.9-1.6-6.9s-38.2-1.6-48.8,1.3c-11.4,10.9-19.4,30.5-24.7,33.7
														c-9,5.3-153.7-38.2-202-56.8C1154.3,895.7,1128.9,886.7,1128.9,886.7z"/>
												</defs>
												<defs>
													<path id="SVGID_35_" d="M1147.5,885.9c2.8-3.2-102.9-35-161.9,105.7c38.9,46.7,62.1,67.2,62.1,67.2
														s114,349.9,18.4,444.1s-730.4,52-647.6-152.6s285-674.7,386.4-689.3s222.4-56.8,281.7,0c59.2,56.8,84.4,142,85.2,161.6
														c0.8,19.4-15.4,57.6-14.6,60.8"/>
												</defs>
												<clipPath id="SVGID_36_">
													<use xlink:href="#SVGID_33_"  style="overflow:visible;"/>
												</clipPath>
												<clipPath id="SVGID_37_" class="st17">
													<use xlink:href="#SVGID_35_"  style="overflow:visible;"/>
												</clipPath>
												<path class="st18" d="M851.3,795.5c0,0,109.5,172.6,141.5,203.9c19.2,18.7,30.9-48,28.2-41.5s54.6,172.6,54.6,172.6
													S930,1074.3,851.3,795.5z"/>
											</g>
										</g>
									</g>
								</g>
							</g>
							<path class="st19" d="M1431.4,1032.1c0,0,42.4,29.4,41.2,58.2c-4,18.1-22.9,28.4-37.5,21.2c-14.6-7.4-50.7-30.2-55.7-41.2
								C1374.4,1059.2,1396,1024.4,1431.4,1032.1z"/>
						</g>
					</g>
				</g>
			</g>
			<g>
				<g>
					<g>
						<defs>
							<path id="SVGID_39_" d="M2519.4,1364.1H622c-51.2,0-92.7-41.5-92.7-92.7V178.1c0-51.2,41.5-92.7,92.7-92.7h1897.4
								c51.2,0,92.7,41.5,92.7,92.7v1093.3C2612.1,1322.6,2570.7,1364.1,2519.4,1364.1z"/>
						</defs>
						<clipPath id="SVGID_40_">
							<use xlink:href="#SVGID_39_"  style="overflow:visible;"/>
						</clipPath>
						<g id="character-1" class="st20">
							<path class="st19" d="M1962.2,395c0,0-46.6,94.8-19.4,174.8c27,80,123.9,23.2,139.3-6.4c15.5-29.8,30.1-99,21.4-125
								c-8.7-26-14-46.6-61.9-54.2c-47.8-7.6-70.2,2.2-71.2,4.8"/>
							<path class="st21" d="M2177,645.6c0,0-26.8-35-36.6-53.1c-35.8,8.5-59.2,6.1-73,20.2s-24.7,49.3-24.7,49.3
								s-7.4,25.3,7.4,55.8c14.6,30.5,97.4,60.5,114.1,40.1s24.4-23.6,33.7-43.8s11-48.1,10.7-47.8
								C2207.9,666.6,2177,645.6,2177,645.6z"/>
							<path class="st22" d="M1893.8,642.3c-2.1-2.3-3.1-5.4-2.8-8.6c2.1-23.6,13.6-124.8,61.9-110c54.6,16.8,62.8,72.6,100.6,50.4
								c37.8-22.2,58-144.5-2.8-151.6c-60.6-7-91.4,23.8-125-47.6s58.4-104.2,110.4-48.8c30.8-40.6,139.6-43.2,123.4,91
								c56.2,33.6,30.8,121.8-15.2,129.4s-55.2,65-67.6,95.2C2064.6,671.5,1950.3,705.4,1893.8,642.3z"/>
							<path class="st19" d="M2083.8,613.7c-1.7-2.2-2.3-5.1-1.5-7.7c3.2-12,12.9-47.5,17.1-61c5.3-16.2,47-24.4,60.5,5.6
								C2173,579.7,2114,651.8,2083.8,613.7z"/>
							<g>
								<g>
									<g>
										<g>
											<defs>
												<path id="SVGID_41_" d="M2044.7,666.1c0,0-101.4,34.2-121.6,41.2c-14.6,16.2-89.6,140.4-232.4,216.8
													c-92.6,56.8-145.6,69.2-161.8,66.6c-13.1-9-40.1-28.8-49.8-39.4c-2.5-2.8-6.7-3.1-9.7-0.9
													c-15.2,11.6-51.8,46.2-71.4,53.8c-1.5,0.6-2.4,2.2-2.1,3.8c3,15.4,41.7,28.9,87.1-5.4c20.6,9,51.2,40.8,60,48.2
													c13,6.4,227.3,30.8,412.4-122.6c69.8,132.4,156.6,282.5,156.6,439.2c145.4,57.6,500.1,13.8,500.1,13.8
													s48.8-60,45.5-100.6c-3.2-40.6-155.8-332.8-216-420.5c-60-87.6-115.2-170.4-115.2-170.4L2177,645.9l12.2,23.9
													c0,0-28.9,65.3-77.2,66.9C2063.7,738.1,2044.7,666.1,2044.7,666.1z"/>
											</defs>
											<clipPath id="SVGID_42_">
												<use xlink:href="#SVGID_41_"  style="overflow:visible;"/>
											</clipPath>
											<g class="st23">
												<g>
													<g>
														<g>
															<defs>
																<path id="SVGID_43_" d="M2044.7,666.1c0,0-33.1,11.2-65.3,22c-35.5,12-66.7,34.3-89.8,63.8
																	c-36.9,47.3-102.4,120.5-198.9,172.1c-92.6,56.8-145.6,69.2-161.8,66.6c-12.9-8.9-39.4-28.3-49.3-39
																	c-2.8-3-7.4-3.5-10.7-0.9c-15.6,12.2-52.1,46.6-71.5,53.7c-1.2,0.3-1.8,1.5-1.6,2.6c1.6,15.8,41.1,30.4,87.2-4.6
																	c20.6,9,51.2,40.8,60,48.2c13,6.4,227.3,30.8,412.4-122.6c69.8,132.4,156.6,282.5,156.6,439.2
																	c145.4,57.6,500.1,13.8,500.1,13.8s48.8-60,45.5-100.6c-3.2-40.6-155.8-332.8-216-420.5
																	c-31.9-46.5-62.3-91.5-84-123.6c-20.4-30.2-50.7-52.4-85.7-62.7l-95.1-27.9l12.2,23.9c0,0-28.9,65.3-77.2,66.9
																	C2063.7,738.1,2044.7,666.1,2044.7,666.1z"/>
															</defs>
															<clipPath id="SVGID_44_">
																<use xlink:href="#SVGID_43_"  style="overflow:visible;"/>
															</clipPath>
															<path class="st24" d="M2044.7,666.1c0,0-39,13.1-73.4,24.7c-30.7,10.4-57.6,29.8-77.4,55.4
																c-36,46.8-102.8,124.1-203.2,177.7c-92.6,56.8-145.6,69.2-161.8,66.6c-12.9-8.9-39.4-28.3-49.3-39
																c-2.8-3-7.4-3.5-10.7-0.9c-15.6,12.2-52.1,46.6-71.5,53.7c-1.2,0.5-1.8,1.5-1.7,2.6c1.6,15.8,41.1,30.4,87.2-4.6
																c20.6,9,51.2,40.8,60,48.2c13,6.4,227.3,30.8,412.4-122.6c69.8,132.4,156.6,282.5,156.6,439.2
																c145.4,57.6,500.1,13.8,500.1,13.8s48.8-60,45.5-100.6c-3.2-40.6-155.8-332.8-216-420.5
																c-31.9-46.5-62.3-91.5-84-123.6c-20.4-30.2-50.7-52.4-85.7-62.7l-95.1-27.9l12.2,23.9c0,0-28.9,65.3-77.2,66.9
																C2063.7,738.1,2044.7,666.1,2044.7,666.1z"/>
														</g>
													</g>
												</g>
												<g>
													<g>
														<g>
															<defs>
																<path id="SVGID_45_" d="M2044.7,666.1c0,0-33.1,11.2-65.3,22c-35.5,12-66.7,34.3-89.8,63.8
																	c-36.9,47.3-102.4,120.5-198.9,172.1c-92.6,56.8-145.6,69.2-161.8,66.6c-12.9-8.9-39.4-28.3-49.3-39
																	c-2.8-3-7.4-3.5-10.7-0.9c-15.6,12.2-52.1,46.6-71.5,53.7c-1.2,0.3-1.8,1.5-1.6,2.6c1.6,15.8,41.1,30.4,87.2-4.6
																	c20.6,9,51.2,40.8,60,48.2c13,6.4,227.3,30.8,412.4-122.6c69.8,132.4,156.6,282.5,156.6,439.2
																	c145.4,57.6,500.1,13.8,500.1,13.8s48.8-60,45.5-100.6c-3.2-40.6-155.8-332.8-216-420.5
																	c-31.9-46.5-62.3-91.5-84-123.6c-20.4-30.2-50.7-52.4-85.7-62.7l-95.1-27.9l12.2,23.9c0,0-28.9,65.3-77.2,66.9
																	C2063.7,738.1,2044.7,666.1,2044.7,666.1z"/>
															</defs>
															<clipPath id="SVGID_46_">
																<use xlink:href="#SVGID_45_"  style="overflow:visible;"/>
															</clipPath>
															<path class="st25" d="M1919.9,692.1l3.2,15.2c0,0-3.6,176.2,61.4,286.8c11.3,19.2-181,132.5-199.3,138.6
																s-107.2,18.3-119.4-48.8c-12.2-66.9-115.7-190,0-249.7s164.4-98.7,174.1-103.5"/>
														</g>
													</g>
												</g>
											</g>
										</g>
									</g>
								</g>
								<g>
									<g>
										<g>
											<defs>
												<path id="SVGID_47_" d="M2044.7,666.1c0,0-101.4,34.2-121.6,41.2c-14.6,16.2-89.6,140.4-232.4,216.8
													c-92.6,56.8-145.6,69.2-161.8,66.6c-13.1-9-40.1-28.8-49.8-39.4c-2.5-2.8-6.7-3.1-9.7-0.9
													c-15.2,11.6-51.8,46.2-71.4,53.8c-1.5,0.6-2.4,2.2-2.1,3.8c3,15.4,41.7,28.9,87.1-5.4c20.6,9,51.2,40.8,60,48.2
													c13,6.4,227.3,30.8,412.4-122.6c69.8,132.4,156.6,282.5,156.6,439.2c145.4,57.6,500.1,13.8,500.1,13.8
													s48.8-60,45.5-100.6c-3.2-40.6-155.8-332.8-216-420.5c-60-87.6-115.2-170.4-115.2-170.4L2177,645.9l12.2,23.9
													c0,0-28.9,65.3-77.2,66.9C2063.7,738.1,2044.7,666.1,2044.7,666.1z"/>
											</defs>
											<clipPath id="SVGID_49_">
												<use xlink:href="#SVGID_47_"  style="overflow:visible;"/>
											</clipPath>
											<path class="st26" d="M1691,902.7c0,0,0,110.4,79.6,167.8c-202.4,66.6-388.1,32-407-6.4c-19-38.4,33-172.1,62.2-173.2
												c29.2-1.2,81.2,19.4,93.6,33.6"/>
										</g>
									</g>
								</g>
								<g>
									<g>
										<g>
											<defs>
												<path id="SVGID_50_" d="M2044.7,666.1c0,0-101.4,34.2-121.6,41.2c-14.6,16.2-89.6,140.4-232.4,216.8
													c-92.6,56.8-145.6,69.2-161.8,66.6c-13.1-9-40.1-28.8-49.8-39.4c-2.5-2.8-6.7-3.1-9.7-0.9
													c-15.2,11.6-51.8,46.2-71.4,53.8c-1.5,0.6-2.4,2.2-2.1,3.8c3,15.4,41.7,28.9,87.1-5.4c20.6,9,51.2,40.8,60,48.2
													c13,6.4,227.3,30.8,412.4-122.6c69.8,132.4,156.6,282.5,156.6,439.2c145.4,57.6,500.1,13.8,500.1,13.8
													s48.8-60,45.5-100.6c-3.2-40.6-155.8-332.8-216-420.5c-60-87.6-115.2-170.4-115.2-170.4L2177,645.9l12.2,23.9
													c0,0-28.9,65.3-77.2,66.9C2063.7,738.1,2044.7,666.1,2044.7,666.1z"/>
											</defs>
											<clipPath id="SVGID_51_">
												<use xlink:href="#SVGID_50_"  style="overflow:visible;"/>
											</clipPath>
											<path class="st27" d="M2308.2,967.3c0,0-33.8-65.2-48-76c15.6,28.6,69,135.6,72.7,220.2c30.8,26,48.1-57.4,36.1-76.4
												C2357.2,1016.3,2308.2,967.3,2308.2,967.3z"/>
										</g>
									</g>
								</g>
								<g>
									<g>
										<g>
											<defs>
												<path id="SVGID_53_" d="M2044.7,666.1c0,0-101.4,34.2-121.6,41.2c-14.6,16.2-89.6,140.4-232.4,216.8
													c-92.6,56.8-145.6,69.2-161.8,66.6c-13.1-9-40.1-28.8-49.8-39.4c-2.5-2.8-6.7-3.1-9.7-0.9
													c-15.2,11.6-51.8,46.2-71.4,53.8c-1.5,0.6-2.4,2.2-2.1,3.8c3,15.4,41.7,28.9,87.1-5.4c20.6,9,51.2,40.8,60,48.2
													c13,6.4,227.3,30.8,412.4-122.6c69.8,132.4,156.6,282.5,156.6,439.2c145.4,57.6,500.1,13.8,500.1,13.8
													s48.8-60,45.5-100.6c-3.2-40.6-155.8-332.8-216-420.5c-60-87.6-115.2-170.4-115.2-170.4L2177,645.9l12.2,23.9
													c0,0-28.9,65.3-77.2,66.9C2063.7,738.1,2044.7,666.1,2044.7,666.1z"/>
											</defs>
											<clipPath id="SVGID_54_">
												<use xlink:href="#SVGID_53_"  style="overflow:visible;"/>
											</clipPath>
											<path class="st28" d="M2505,942.7c10.9-4.8,213.1,112,249.7,149.7c36.6,37.7,66.6,256.1-226.9,321.9
												s-290.6-11.4-490.4-50.4s-56-125.5-60.8-169.3s-28.2-4.7,43.5,0c166.1,10.9,318.2-37.7,318.2-37.7s36.1-35.8,29.7-72.6"
												/>
										</g>
									</g>
								</g>
								<g>
									<g>
										<g>
											<defs>
												<path id="SVGID_55_" d="M2044.7,666.1c0,0-101.4,34.2-121.6,41.2c-14.6,16.2-89.6,140.4-232.4,216.8
													c-92.6,56.8-145.6,69.2-161.8,66.6c-13.1-9-40.1-28.8-49.8-39.4c-2.5-2.8-6.7-3.1-9.7-0.9
													c-15.2,11.6-51.8,46.2-71.4,53.8c-1.5,0.6-2.4,2.2-2.1,3.8c3,15.4,41.7,28.9,87.1-5.4c20.6,9,51.2,40.8,60,48.2
													c13,6.4,227.3,30.8,412.4-122.6c69.8,132.4,156.6,282.5,156.6,439.2c145.4,57.6,500.1,13.8,500.1,13.8
													s48.8-60,45.5-100.6c-3.2-40.6-155.8-332.8-216-420.5c-60-87.6-115.2-170.4-115.2-170.4L2177,645.9l12.2,23.9
													c0,0-28.9,65.3-77.2,66.9C2063.7,738.1,2044.7,666.1,2044.7,666.1z"/>
											</defs>
											<clipPath id="SVGID_56_">
												<use xlink:href="#SVGID_55_"  style="overflow:visible;"/>
											</clipPath>
											<path class="st29" d="M1952.4,949.3l1.6-19.6c0,0-19.9-55.3-26.5-118.3c13.3,92.1,62.2,151.4,109.8,233
												c47.6,81.8,91.4,175.9,91.4,337.2c-34,72-63.8-16.8-69.8-47c-6-30.4-99.6-347.5-98.5-352.9"/>
										</g>
									</g>
								</g>
								<g>
									<g>
										<g>
											<defs>
												<path id="SVGID_57_" d="M2044.7,666.1c0,0-101.4,34.2-121.6,41.2c-14.6,16.2-89.6,140.4-232.4,216.8
													c-92.6,56.8-145.6,69.2-161.8,66.6c-13.1-9-40.1-28.8-49.8-39.4c-2.5-2.8-6.7-3.1-9.7-0.9
													c-15.2,11.6-51.8,46.2-71.4,53.8c-1.5,0.6-2.4,2.2-2.1,3.8c3,15.4,41.7,28.9,87.1-5.4c20.6,9,51.2,40.8,60,48.2
													c13,6.4,227.3,30.8,412.4-122.6c69.8,132.4,156.6,282.5,156.6,439.2c145.4,57.6,500.1,13.8,500.1,13.8
													s48.8-60,45.5-100.6c-3.2-40.6-155.8-332.8-216-420.5c-60-87.6-115.2-170.4-115.2-170.4L2177,645.9l12.2,23.9
													c0,0-28.9,65.3-77.2,66.9C2063.7,738.1,2044.7,666.1,2044.7,666.1z"/>
											</defs>
											<clipPath id="SVGID_58_">
												<use xlink:href="#SVGID_57_"  style="overflow:visible;"/>
											</clipPath>
											<path class="st30" d="M2099,1278.3c0,0,48.2-38,70.8-58.2c22.4,0,196.4,26.8,308.5-10.6c137.6-45.9,88.8-32.4,24.4-38.9
												c-64.4-6.4-184.6-2.8-247.4,5.4c-62.8,8.2-86-32.4-147.2,26.6s-94.8,114.7-99,131"/>
										</g>
									</g>
								</g>
							</g>
							<g>
								<g>
									<g>
										<g>
											<defs>
												<path id="SVGID_59_" d="M2308.2,967.3c0,0,37.1,72.3,39.2,113.4c-23.7,15.9-145,43.2-189.4,58.4
													c-32.4-1-58-22.8-73-22.8c-15.2,0-70.8,13.2-89.8,10.2c-11.6,3-4.8,28.2,51.2,29.4c-34,27.6-73.5,86.8-82,115.7
													c-0.8,9.8,22.1-7.5,25.8-9.8c-3,9,8.7,8.3,26,4s92.7-16.7,146.3-68.5c55.8,0.6,251.6,15.2,335-9.2
													c83.4-24.4,81.2-75.1,77.4-93.5c-17-49.3-110.5-202.8-110.5-202.8l-3.1-5.8C2461.2,886.5,2390,884.5,2308.2,967.3z"/>
											</defs>
											<clipPath id="SVGID_60_">
												<use xlink:href="#SVGID_59_"  style="overflow:visible;"/>
											</clipPath>
											<path class="st31" d="M2308.2,967.3c0,0,37.1,72.3,39.2,113.4c-23.8,16.8-145,43.2-189.4,58.4c-32.4-1-58-22.8-73-22.8
												c-15.2,0-70.8,13.2-89.8,10.2c-11.6,3-4.8,28.2,51.2,29.4c-34,27.6-73.5,86.8-82,115.7c-0.8,9.8,22.1-7.5,25.8-9.8
												c-3,9,8.7,8.3,26,4s92.7-16.7,146.3-68.5c55.8,0.6,251.6,15.2,335-9.2c83.4-24.4,81.2-75.1,77.4-93.5
												c-17-49.3-110.5-202.8-110.5-202.8l-3.1-5.8C2461.2,886.5,2390,884.5,2308.2,967.3z"/>
										</g>
									</g>
								</g>
								<g>
									<g>
										<g>
											<defs>
												<path id="SVGID_61_" d="M2308.2,967.3c0,0,37.1,72.3,39.2,113.4c-23.7,15.9-145,43.2-189.4,58.4
													c-32.4-1-58-22.8-73-22.8c-15.2,0-70.8,13.2-89.8,10.2c-11.6,3-4.8,28.2,51.2,29.4c-34,27.6-73.5,86.8-82,115.7
													c-0.8,9.8,22.1-7.5,25.8-9.8c-3,9,8.7,8.3,26,4s92.7-16.7,146.3-68.5c55.8,0.6,251.6,15.2,335-9.2
													c83.4-24.4,81.2-75.1,77.4-93.5c-17-49.3-110.5-202.8-110.5-202.8l-3.1-5.8C2461.2,886.5,2390,884.5,2308.2,967.3z"/>
											</defs>
											<clipPath id="SVGID_62_">
												<use xlink:href="#SVGID_61_"  style="overflow:visible;"/>
											</clipPath>
											<path class="st32" d="M1958.6,1269.9c0,0,5.3,4.6,15.1-3s42.8-34.4,47.5-38.4c-6.3,8.3-31.1,33.7-31.1,33.7
												s-12.2,10.8-17.7,14.8s-7.7,6.9-12,5.1"/>
										</g>
									</g>
								</g>
								<g>
									<g>
										<g>
											<defs>
												<path id="SVGID_63_" d="M2308.2,967.3c0,0,37.1,72.3,39.2,113.4c-23.7,15.9-145,43.2-189.4,58.4
													c-32.4-1-58-22.8-73-22.8c-15.2,0-70.8,13.2-89.8,10.2c-11.6,3-4.8,28.2,51.2,29.4c-34,27.6-73.5,86.8-82,115.7
													c-0.8,9.8,22.1-7.5,25.8-9.8c-3,9,8.7,8.3,26,4s92.7-16.7,146.3-68.5c55.8,0.6,251.6,15.2,335-9.2
													c83.4-24.4,81.2-75.1,77.4-93.5c-17-49.3-110.5-202.8-110.5-202.8l-3.1-5.8C2461.2,886.5,2390,884.5,2308.2,967.3z"/>
											</defs>
											<clipPath id="SVGID_64_">
												<use xlink:href="#SVGID_63_"  style="overflow:visible;"/>
											</clipPath>
											<path class="st33" d="M1991.1,1137.2c0,0,27.6,18.6,75.7,9.8c-9,3.9-18.6,9.3-20.5,9.3c-1.8,0-60.3,5.1-61.9,0
												s-8.2-17-7.4-17"/>
										</g>
									</g>
								</g>
								<g>
									<g>
										<g>
											<defs>
												<path id="SVGID_65_" d="M2308.2,967.3c0,0,37.1,72.3,39.2,113.4c-23.7,15.9-145,43.2-189.4,58.4
													c-32.4-1-58-22.8-73-22.8c-15.2,0-70.8,13.2-89.8,10.2c-11.6,3-4.8,28.2,51.2,29.4c-34,27.6-73.5,86.8-82,115.7
													c-0.8,9.8,22.1-7.5,25.8-9.8c-3,9,8.7,8.3,26,4s92.7-16.7,146.3-68.5c55.8,0.6,251.6,15.2,335-9.2
													c83.4-24.4,81.2-75.1,77.4-93.5c-17-49.3-110.5-202.8-110.5-202.8l-3.1-5.8C2461.2,886.5,2390,884.5,2308.2,967.3z"/>
											</defs>
											<clipPath id="SVGID_66_">
												<use xlink:href="#SVGID_65_"  style="overflow:visible;"/>
											</clipPath>
											<path class="st34" d="M2347.4,1080.7c0,0,69.5-22.2,94.5-13c-5.6-12-58.4-21.2-102.8,5.6
												C2339.3,1082.6,2347.4,1080.7,2347.4,1080.7z"/>
										</g>
									</g>
								</g>
								<g>
									<g>
										<g>
											<defs>
												<path id="SVGID_67_" d="M2308.2,967.3c0,0,37.1,72.3,39.2,113.4c-23.7,15.9-145,43.2-189.4,58.4
													c-32.4-1-58-22.8-73-22.8c-15.2,0-70.8,13.2-89.8,10.2c-11.6,3-4.8,28.2,51.2,29.4c-34,27.6-73.5,86.8-82,115.7
													c-0.8,9.8,22.1-7.5,25.8-9.8c-3,9,8.7,8.3,26,4s92.7-16.7,146.3-68.5c55.8,0.6,251.6,15.2,335-9.2
													c83.4-24.4,81.2-75.1,77.4-93.5c-17-49.3-110.5-202.8-110.5-202.8l-3.1-5.8C2461.2,886.5,2390,884.5,2308.2,967.3z"/>
											</defs>
											<clipPath id="SVGID_68_">
												<use xlink:href="#SVGID_67_"  style="overflow:visible;"/>
											</clipPath>
											<path class="st35" d="M2075.1,1113.6c1.3-0.5,42.3,23.7,80.6,34.6c53.1-15.9,255.4-74.1,286.3-80.5
												c-22.3-11-94.5,13-94.5,13s-88.1,12.2-124.7,22c-36.6,9.8-155-13.3-155-12.2"/>
										</g>
									</g>
								</g>
								<g>
									<g>
										<g>
											<defs>
												<path id="SVGID_69_" d="M2308.2,967.3c0,0,37.1,72.3,39.2,113.4c-23.7,15.9-145,43.2-189.4,58.4
													c-32.4-1-58-22.8-73-22.8c-15.2,0-70.8,13.2-89.8,10.2c-11.6,3-4.8,28.2,51.2,29.4c-34,27.6-73.5,86.8-82,115.7
													c-0.8,9.8,22.1-7.5,25.8-9.8c-3,9,8.7,8.3,26,4s92.7-16.7,146.3-68.5c55.8,0.6,251.6,15.2,335-9.2
													c83.4-24.4,81.2-75.1,77.4-93.5c-17-49.3-110.5-202.8-110.5-202.8l-3.1-5.8C2461.2,886.5,2390,884.5,2308.2,967.3z"/>
											</defs>
											<clipPath id="SVGID_70_">
												<use xlink:href="#SVGID_69_"  style="overflow:visible;"/>
											</clipPath>
											<path class="st36" d="M1482.9,1002.5c0,0,3.9-6.2,5.4-7.1c3,2.8,22.9,22.2,24.5,22.7c3.2-3.2,3.5-6.4,3.5-6.4
												s2.2,7.1,0,9.9c5.5,6.4,34.7,27.8,29.4,44.6c-42.8-19.3-70-52.6-70-52.6l6.4-5.6"/>
										</g>
									</g>
								</g>
								<g>
									<g>
										<g>
											<defs>
												<path id="SVGID_71_" d="M2308.2,967.3c0,0,37.1,72.3,39.2,113.4c-23.7,15.9-145,43.2-189.4,58.4
													c-32.4-1-58-22.8-73-22.8c-15.2,0-70.8,13.2-89.8,10.2c-11.6,3-4.8,28.2,51.2,29.4c-34,27.6-73.5,86.8-82,115.7
													c-0.8,9.8,22.1-7.5,25.8-9.8c-3,9,8.7,8.3,26,4s92.7-16.7,146.3-68.5c55.8,0.6,251.6,15.2,335-9.2
													c83.4-24.4,81.2-75.1,77.4-93.5c-17-49.3-110.5-202.8-110.5-202.8l-3.1-5.8C2461.2,886.5,2390,884.5,2308.2,967.3z"/>
											</defs>
											<clipPath id="SVGID_72_">
												<use xlink:href="#SVGID_71_"  style="overflow:visible;"/>
											</clipPath>
											<g class="st37">
												<g>
													<g>
														<g>
															<defs>
																<path id="SVGID_73_" d="M2331.5,1088.4c0,0,29.9,41.2,34.5,115.9c37.7,7,79.9,19.3,139.2-5.1
																	c59.2-24.4,136.4-84.9,119.4-137.6c-17-52.7-102.7-114.1-111.2-134.8s-56.8-40.5-56.8-40.5s-91.9,9.1-150.1,83
																	C2331,1044.4,2331.5,1088.4,2331.5,1088.4z"/>
															</defs>
															<clipPath id="SVGID_74_">
																<use xlink:href="#SVGID_73_"  style="overflow:visible;"/>
															</clipPath>
															<path class="st38" d="M2331.5,1088.4c0,0,29.9,41.2,34.5,115.9c37.7,7,79.9,19.3,139.2-5.1
																c59.2-24.4,136.4-84.9,119.4-137.6c-17-52.7-102.7-114.1-111.2-134.8s-56.8-40.5-56.8-40.5s-91.9,9.1-150.1,83
																C2331,1044.4,2331.5,1088.4,2331.5,1088.4z"/>
														</g>
													</g>
												</g>
												<g>
													<g>
														<g>
															<defs>
																<path id="SVGID_75_" d="M2331.5,1088.4c0,0,29.9,41.2,34.5,115.9c37.7,7,79.9,19.3,139.2-5.1
																	c59.2-24.4,136.4-84.9,119.4-137.6c-17-52.7-102.7-114.1-111.2-134.8s-56.8-40.5-56.8-40.5s-91.9,9.1-150.1,83
																	C2331,1044.4,2331.5,1088.4,2331.5,1088.4z"/>
															</defs>
															<clipPath id="SVGID_76_">
																<use xlink:href="#SVGID_75_"  style="overflow:visible;"/>
															</clipPath>
															<path class="st39" d="M2347.4,1080.7c0,0,74.6-23.1,115.5-25.4c-22.8-10.1-89.9-4.7-128.5,16.7
																c-1.4,6.1,6.1,8.7,6.1,8.7"/>
														</g>
													</g>
												</g>
											</g>
										</g>
									</g>
								</g>
							</g>
						</g>
					</g>
				</g>
			</g>
			<g>
				<g>
					<g>
						<defs>
							<path id="SVGID_77_" d="M2519.4,1364.1H622c-51.2,0-92.7-41.5-92.7-92.7V178.1c0-51.2,41.5-92.7,92.7-92.7h1897.4
								c51.2,0,92.7,41.5,92.7,92.7v1093.3C2612.1,1322.6,2570.7,1364.1,2519.4,1364.1z"/>
						</defs>
						<clipPath id="SVGID_78_">
							<use xlink:href="#SVGID_77_"  style="overflow:visible;"/>
						</clipPath>
						<g class="st40">
							<path class="st41" d="M2097.8,952.4c-0.6-0.5-1.5-0.7-2.3-0.5c-6.8,1.4-15.1,0.6-18.7,0c-1.6-0.2-3.1,1-3.1,2.8
								c0,5.3,4.1,16,13.3,16.3C2098.6,971.6,2104.1,957.5,2097.8,952.4z"/>
							<path class="st41" d="M2052.4,914c-13-0.2-10.1,12.7-9.3,15.8c0.1,0.3,0.5,0.5,0.7,0.3c2.6-1,13.5-3.9,19.3,4.9
								c0.2,0.2,0.6,0.3,0.8,0.1C2068.4,929.2,2066.7,914.2,2052.4,914z"/>
							<path class="st41" d="M2108.1,916.7c-12,5.2-4,15.8-2,18.2c0.2,0.2,0.6,0.2,0.8,0c2-2.1,10.7-9.2,19.6-3.5
								c0.2,0.1,0.7,0,0.7-0.2C2129,924.1,2121.3,911.1,2108.1,916.7z"/>
							<path class="st41" d="M2195.3,898.2c0-0.7-0.1-1.5-0.1-2.3v-1.2c0-0.5-0.1-0.7-0.1-1.2c-0.1-1.5-0.2-3.1-0.3-4.5
								c-0.1-1.5-0.3-3.1-0.6-4.4c-0.1-1.5-0.3-2.8-0.7-4.1c-0.1-0.7-0.2-1.4-0.3-2.1c-0.1-0.3-0.1-0.7-0.2-1
								c-0.1-0.3-0.1-0.7-0.2-0.8c-0.2-1.4-0.6-2.5-0.9-3.8c-0.1-0.3-0.1-0.6-0.2-0.8c-0.1-0.2-0.1-0.6-0.2-0.8
								c-0.1-0.6-0.3-1-0.5-1.7c-0.3-1-0.6-2.1-0.9-3.1c-0.3-0.8-0.6-1.8-0.9-2.6v-0.1c1.7-1.6,2.8-4,2.8-6.9c0-4.8-3.2-8.7-7.1-8.7
								c-3.9,0-7.1,3.9-7.1,8.7c0,4.7,3.1,8.5,6.9,8.6c0,0.1,0.1,0.3,0.1,0.5c0.2,0.8,0.5,1.7,0.7,2.6c0.2,0.8,0.5,2,0.7,3.1
								c0.1,0.5,0.2,1,0.3,1.6c0.1,0.2,0.1,0.5,0.2,0.8c0.1,0.2,0.1,0.6,0.1,0.8c0.2,1,0.3,2.3,0.6,3.3c0.1,0.3,0.1,0.6,0.1,0.8
								c0.1,0.3,0.1,0.6,0.1,0.8c0.1,0.6,0.1,1.4,0.2,1.8c0.1,1.4,0.3,2.5,0.5,3.8c0.1,1.4,0.2,2.6,0.3,4s0.1,2.6,0.1,4.1v2.1
								c0,0.7-0.1,1.5-0.1,2.1c0,0.7,0,1.5-0.1,2.1l-0.1,2.1l-0.1,2.1c0,0.3-0.1,0.7-0.1,1l-0.1,1c-0.2,1.4-0.3,2.8-0.6,4.1
								c-0.2,1.4-0.5,2.6-0.7,4c-0.1,0.3-0.1,0.7-0.2,1c-0.1,0.3-0.1,0.7-0.2,1c-0.1,0.7-0.2,1.2-0.5,1.7c-0.5-1.8-1.2-3.3-2-4.7
								c-0.1-0.1-0.1-0.2-0.2-0.3c0-0.1-0.1-0.1-0.1-0.2c-2-3.3-4.9-5.8-8.4-6.7c-2.2-0.8-7.7-0.7-9.7-0.8
								c-1.4-4.5-5.5-45.2-84.5-45.5c-84-0.2-79,40.6-79,40.6s0.1,0.7,0.6,3.1c-4.3,0.9-9.7,3.2-12.2,8.7l0,0
								c-0.3-0.6-0.6-1.2-0.7-1.8c-0.1-0.3-0.2-0.7-0.3-1c-0.1-0.3-0.2-0.7-0.3-1c-0.3-1.3-0.8-2.5-1.2-3.9c-0.3-1.3-0.7-2.8-1.2-4
								l-0.2-1c0-0.3-0.2-0.7-0.2-1l-0.3-2.1l-0.3-2.2c-0.2-0.6-0.2-1.3-0.3-2.1c-0.1-0.6-0.2-1.3-0.3-2.1l-0.2-2.1
								c-0.2-1.5-0.3-2.8-0.3-4.1s0-2.6-0.1-4c0-1.4,0.1-2.5,0-3.9c0.1-0.6,0.1-1.4,0.1-2.1c0-0.2-0.1-0.6,0-0.9
								c0-0.2,0-0.5-0.1-0.8c0.1-1,0.1-2.3,0.2-3.5c0-0.2,0-0.6,0-0.9c0.1-0.2,0-0.6,0.1-0.8c0-0.6,0.1-1.2,0.2-1.6
								c0.1-1.2,0.2-2.2,0.3-3.1c0.1-0.9,0.2-1.8,0.3-2.8c0-0.1,0-0.2,0.1-0.5h0.1c3.9-0.5,6.7-4.7,6.1-9.5
								c-0.6-4.7-4.3-8.3-8.2-7.7c-3.9,0.5-6.7,4.7-6.1,9.5c0.3,2.6,1.6,4.8,3.2,6.2c0,0.1,0,0.2-0.1,0.5c-0.1,0.9-0.2,1.8-0.6,2.8
								c-0.1,1-0.2,2.1-0.5,3.2c0,0.7-0.2,1.2-0.2,1.7c-0.1,0.2-0.1,0.6-0.1,0.9c-0.1,0.2,0,0.6-0.1,0.9c-0.1,1.3-0.3,2.5-0.5,3.9
								c-0.1,0.1,0,0.6-0.1,0.9s0,0.7-0.1,1c0,0.6-0.1,1.4,0,2.1c-0.1,1.4-0.2,2.8-0.2,4.1c0,1.4-0.1,3-0.1,4.4s0.1,3,0.1,4.5
								c0,0.5,0,0.7,0,1.2l0.1,1c0.1,0.8,0.1,1.6,0.2,2.3c0,0.9,0.1,1.6,0.2,2.3l0.5,2.3l0.3,2.3c0.1,0.5,0.2,0.7,0.2,1.2l0.2,1.2
								c0.3,1.4,0.7,2.9,0.9,4.6c0.3,1.4,0.7,2.9,1.2,4.4c0,0.3,0.1,0.7,0.2,1c0,0.3,0.1,0.7,0.2,1c0.2,0.6,0.5,1.3,0.6,2
								c0.3,0.6,0.7,1.3,0.8,2c0.2,0.7,0.5,1.3,0.6,2c0.5,1.2,0.9,2.4,1.4,3.7c0.1,0.5,0.5,1.2,0.6,1.7s0.6,1.2,0.7,1.7
								c0.6,1.2,1,2.2,1.4,3.2c0.3,1,0.9,2,1.4,3c0.2,0.6,0.5,1.2,0.8,1.7c3.1,13.8,10.1,26,22.7,25c10.7,27.6,40.7,43.8,89.1,43.6
								c46.4-0.2,59.7-14.6,63.9-38.9c6.7,1.5,11.7-1,15.2-8.4c1.6-1.8,2.8-4,3.6-6.4c0.2-0.6,0.7-1.7,1.3-3.3
								c0.3-1.2,1-2.5,1.5-4.4c0.2-0.8,0.6-1.8,0.9-2.8c0.2-1,0.7-2.1,1-3.1c0.2-1,0.6-2.2,1-3.3c0.1-0.6,0.3-1.2,0.5-1.8
								c0.1-0.6,0.2-1.4,0.3-1.8c0.2-1.4,0.6-2.6,0.9-3.8c0.1-0.7,0.2-1.4,0.3-2.1s0.2-1.5,0.3-2.1c0.1-0.7,0.2-1.5,0.3-2.1
								c0.1-0.3,0.1-0.7,0.1-1c0.1-0.3,0.1-0.7,0.1-1c0.2-1.5,0.3-3.1,0.6-4.5c0.1-1.5,0.2-3.1,0.3-4.6l0.1-1.2c0-0.5,0-0.7,0.1-1.2
								l0.1-2.4l0.1-2.3C2195.3,899.8,2195.3,899.1,2195.3,898.2z M2121,982.4c-25.5,4.8-86-2.8-93.7-28.8
								c-6.9-23.2-15.1-51,1.5-63.8c3.2-2.5,7-4,10.9-4.7c16.7-3,82.1-12.5,102.5,18.6C2163.8,936.8,2146.5,977.6,2121,982.4z"/>
						</g>
					</g>
				</g>
			</g>
		</g>
	</g>
	<path class="st42" d="M2518.9,87.5l363.9-87.2c10.8-2.6,18.7,10.2,11.5,18.7l-261.7,305.9c-7.2,8.4-20.9,2.9-20.2-8.3
		c3.5-57-3.3-164.5-95.8-207.6C2506.7,104.6,2508.4,90,2518.9,87.5z"/>
	<g>
		<g>
			<g>
				<g>
					<defs>
						<path id="SVGID_79_" d="M2741.9,1433.1c-2.5-2.1-5.6-3.2-8.9-3.2H1570.8h-1.2H407.3c-3.2,0-6.3,1.2-8.9,3.2L145,1646
							c-4.5,3.8-6.1,9.9-4,15.4l25.1,66.5c2.1,5.4,7.1,8.9,12.9,8.9h1390.5h1.2h1390.5c5.8,0,10.8-3.6,12.9-8.9l25.1-66.5
							c2.1-5.5,0.5-11.6-4-15.4L2741.9,1433.1z"/>
					</defs>
					<clipPath id="SVGID_80_">
						<use xlink:href="#SVGID_79_"  style="overflow:visible;"/>
					</clipPath>
					<path class="st43" d="M2741.9,1433.1c-2.5-2.1-5.6-3.2-8.9-3.2H1570.8h-1.2H407.3c-3.2,0-6.3,1.2-8.9,3.2L145,1646
						c-4.5,3.8-6.1,9.9-4,15.4l25.1,66.5c2.1,5.4,7.1,8.9,12.9,8.9h1390.5h1.2h1390.5c5.8,0,10.8-3.6,12.9-8.9l25.1-66.5
						c2.1-5.5,0.5-11.6-4-15.4L2741.9,1433.1z"/>
				</g>
			</g>
		</g>
		<g>
			<g>
				<g>
					<defs>
						<path id="SVGID_81_" d="M2741.9,1433.1c-2.5-2.1-5.6-3.2-8.9-3.2H1570.8h-1.2H407.3c-3.2,0-6.3,1.2-8.9,3.2L145,1646
							c-4.5,3.8-6.1,9.9-4,15.4l25.1,66.5c2.1,5.4,7.1,8.9,12.9,8.9h1390.5h1.2h1390.5c5.8,0,10.8-3.6,12.9-8.9l25.1-66.5
							c2.1-5.5,0.5-11.6-4-15.4L2741.9,1433.1z"/>
					</defs>
					<clipPath id="SVGID_82_">
						<use xlink:href="#SVGID_81_"  style="overflow:visible;"/>
					</clipPath>
					
						<linearGradient id="SVGID_83_" gradientUnits="userSpaceOnUse" x1="1608.1102" y1="2045.8719" x2="1594.2798" y2="3421.9919" gradientTransform="matrix(1 0 0 -1 0 3968)">
						<stop  offset="0.2433" style="stop-color:#D6F0FC;stop-opacity:0"/>
						<stop  offset="0.5132" style="stop-color:#92C3E7;stop-opacity:0.5106"/>
						<stop  offset="0.7718" style="stop-color:#4E96D1"/>
					</linearGradient>
					<rect x="98.6" y="1303.2" class="st44" width="3010.3" height="370.2"/>
				</g>
			</g>
		</g>
		<g>
			<g>
				<g>
					<defs>
						<path id="SVGID_84_" d="M2741.9,1433.1c-2.5-2.1-5.6-3.2-8.9-3.2H1570.8h-1.2H407.3c-3.2,0-6.3,1.2-8.9,3.2L145,1646
							c-4.5,3.8-6.1,9.9-4,15.4l25.1,66.5c2.1,5.4,7.1,8.9,12.9,8.9h1390.5h1.2h1390.5c5.8,0,10.8-3.6,12.9-8.9l25.1-66.5
							c2.1-5.5,0.5-11.6-4-15.4L2741.9,1433.1z"/>
					</defs>
					<clipPath id="SVGID_85_">
						<use xlink:href="#SVGID_84_"  style="overflow:visible;"/>
					</clipPath>
					<rect x="74.3" y="1652.3" class="st45" width="3205.2" height="334.5"/>
				</g>
			</g>
		</g>
		<g>
			<g>
				<g>
					<defs>
						<path id="SVGID_86_" d="M2741.9,1433.1c-2.5-2.1-5.6-3.2-8.9-3.2H1570.8h-1.2H407.3c-3.2,0-6.3,1.2-8.9,3.2L145,1646
							c-4.5,3.8-6.1,9.9-4,15.4l25.1,66.5c2.1,5.4,7.1,8.9,12.9,8.9h1390.5h1.2h1390.5c5.8,0,10.8-3.6,12.9-8.9l25.1-66.5
							c2.1-5.5,0.5-11.6-4-15.4L2741.9,1433.1z"/>
					</defs>
					<clipPath id="SVGID_87_">
						<use xlink:href="#SVGID_86_"  style="overflow:visible;"/>
					</clipPath>
					<polygon class="st46" points="2678,1479.7 1595.7,1479.7 1559.2,1479.7 476.9,1479.7 359.2,1606.4 1559.2,1606.4 
						1595.7,1606.4 2795.7,1606.4 					"/>
				</g>
			</g>
		</g>
		<g>
			<g>
				<g>
					<defs>
						<path id="SVGID_88_" d="M2741.9,1433.1c-2.5-2.1-5.6-3.2-8.9-3.2H1570.8h-1.2H407.3c-3.2,0-6.3,1.2-8.9,3.2L145,1646
							c-4.5,3.8-6.1,9.9-4,15.4l25.1,66.5c2.1,5.4,7.1,8.9,12.9,8.9h1390.5h1.2h1390.5c5.8,0,10.8-3.6,12.9-8.9l25.1-66.5
							c2.1-5.5,0.5-11.6-4-15.4L2741.9,1433.1z"/>
					</defs>
					<clipPath id="SVGID_89_">
						<use xlink:href="#SVGID_88_"  style="overflow:visible;"/>
					</clipPath>
					<path class="st47" d="M2774.6,1508.2c11.6-7,18.1-14.8,18.1-23c0-30.6-89.8-55.4-200.6-55.4c-95.6,0-175.5,18.5-195.6,43.2
						c-63.9,2.6-112.7,16.2-112.7,32.5c0,16.8,51.3,30.6,117.8,32.8c-0.6,2.2-0.3,4.4-0.8,6.6c-12,59.1,89.8,73.3,200.6,73.3
						s200.6-32.8,200.6-73.3C2801.7,1531.6,2791.9,1519,2774.6,1508.2z"/>
				</g>
			</g>
		</g>
		<g>
			<g>
				<g>
					<defs>
						<path id="SVGID_90_" d="M2741.9,1433.1c-2.5-2.1-5.6-3.2-8.9-3.2H1570.8h-1.2H407.3c-3.2,0-6.3,1.2-8.9,3.2L145,1646
							c-4.5,3.8-6.1,9.9-4,15.4l25.1,66.5c2.1,5.4,7.1,8.9,12.9,8.9h1390.5h1.2h1390.5c5.8,0,10.8-3.6,12.9-8.9l25.1-66.5
							c2.1-5.5,0.5-11.6-4-15.4L2741.9,1433.1z"/>
					</defs>
					<clipPath id="SVGID_91_">
						<use xlink:href="#SVGID_90_"  style="overflow:visible;"/>
					</clipPath>
					<path class="st48" d="M345,1508.2c-11.6-7-18.1-14.8-18.1-23c0-30.6,89.8-55.4,200.6-55.4c95.6,0,175.5,18.5,195.6,43.2
						c63.9,2.6,112.7,16.2,112.7,32.5c0,16.8-51.3,30.6-117.8,32.8c0.6,2.2,0.3,4.4,0.8,6.6c12,59.1-89.8,72.5-200.6,73.3
						c-143.8,1-200.6-32.8-200.6-73.3C317.9,1531.6,327.8,1519,345,1508.2z"/>
				</g>
			</g>
		</g>
	</g>
</g>
<g id="Layer_14_copy">
	<g id="coin_copy_7_00000092416407582613912440000003091137224349222572_">
		<path class="st49" d="M683.1,1477.3c0,21.5-77.7,39-173.8,39s-173.8-17.5-173.8-39V1435c0,0,73.7,0.5,76.5,2.3
			c2.9,1.8,271-2.2,271-2.2L683.1,1477.3L683.1,1477.3z"/>
		<g>
			<g>
				<g>
					<g>
						<defs>
							<ellipse id="SVGID_92_" cx="509.3" cy="1435.1" rx="173.8" ry="39"/>
						</defs>
						<clipPath id="SVGID_93_">
							<use xlink:href="#SVGID_92_"  style="overflow:visible;"/>
						</clipPath>
						<ellipse class="st50" cx="509.3" cy="1435.1" rx="173.8" ry="39"/>
					</g>
				</g>
			</g>
			<g>
				<g>
					<g>
						<defs>
							<ellipse id="SVGID_94_" cx="509.3" cy="1435.1" rx="173.8" ry="39"/>
						</defs>
						<clipPath id="SVGID_95_">
							<use xlink:href="#SVGID_94_"  style="overflow:visible;"/>
						</clipPath>
						<ellipse class="st51" cx="509.3" cy="1434.4" rx="146.4" ry="26.6"/>
					</g>
				</g>
			</g>
			<g>
				<g>
					<g>
						<defs>
							<ellipse id="SVGID_96_" cx="509.3" cy="1435.1" rx="173.8" ry="39"/>
						</defs>
						<clipPath id="SVGID_97_">
							<use xlink:href="#SVGID_96_"  style="overflow:visible;"/>
						</clipPath>
						<path class="st52" d="M690.4,1420.8c0,20.9-76,38-171.6,38.9c-2.9,0-5.8,0-8.6,0c-99.5,0-180.2-17.5-180.2-39v-42.3
							c0,0,76.4,0.5,79.4,2.3s281-2.2,281-2.2V1420.8L690.4,1420.8z"/>
					</g>
				</g>
			</g>
		</g>
	</g>
	<g id="coin_copy_7_00000158707096659052579730000007270950106058974130_">
		<path class="st49" d="M819.3,1488.7c0,21.5-77.7,39-173.8,39s-173.8-17.5-173.8-39v-42.3c0,0,73.7,0.5,76.5,2.3
			c2.9,1.8,271-2.2,271-2.2L819.3,1488.7L819.3,1488.7z"/>
		<g>
			<g>
				<g>
					<g>
						<defs>
							<ellipse id="SVGID_98_" cx="645.5" cy="1446.5" rx="173.8" ry="39"/>
						</defs>
						<clipPath id="SVGID_99_">
							<use xlink:href="#SVGID_98_"  style="overflow:visible;"/>
						</clipPath>
						<ellipse class="st53" cx="645.5" cy="1446.5" rx="173.8" ry="39"/>
					</g>
				</g>
			</g>
			<g>
				<g>
					<g>
						<defs>
							<ellipse id="SVGID_100_" cx="645.5" cy="1446.5" rx="173.8" ry="39"/>
						</defs>
						<clipPath id="SVGID_101_">
							<use xlink:href="#SVGID_100_"  style="overflow:visible;"/>
						</clipPath>
						<ellipse class="st54" cx="645.5" cy="1445.7" rx="146.4" ry="26.6"/>
					</g>
				</g>
			</g>
			<g>
				<g>
					<g>
						<defs>
							<ellipse id="SVGID_102_" cx="645.5" cy="1446.5" rx="173.8" ry="39"/>
						</defs>
						<clipPath id="SVGID_103_">
							<use xlink:href="#SVGID_102_"  style="overflow:visible;"/>
						</clipPath>
						<path class="st55" d="M690.4,1420.8c0,20.9-73.4,38-165.5,38.9c-2.8,0-5.5,0-8.3,0c-95.9,0-173.8-17.5-173.8-39v-42.3
							c0,0,73.7,0.5,76.5,2.3c2.9,1.8,271-2.2,271-2.2L690.4,1420.8L690.4,1420.8z"/>
					</g>
				</g>
			</g>
		</g>
	</g>
	<g id="coin_copy_7_00000111161345146809088950000015219280805449631390_">
		<path class="st49" d="M692.5,1560.9c0,21.5-77.7,39-173.8,39s-173.8-17.5-173.8-39v-42.3c0,0,73.7,0.5,76.5,2.3
			c2.9,1.8,271-2.2,271-2.2L692.5,1560.9L692.5,1560.9z"/>
		<ellipse class="st56" cx="518.9" cy="1518.7" rx="173.8" ry="39"/>
		<ellipse class="st57" cx="518.9" cy="1518" rx="146.4" ry="26.6"/>
	</g>
	<g id="coin_copy_7_00000125569763189187089900000008671934995545680001_">
		<path class="st49" d="M683.1,1412.5c0,21.5-77.7,39-173.8,39s-173.8-17.5-173.8-39v-42.3c0,0,73.7,0.5,76.5,2.3s271-2.2,271-2.2
			L683.1,1412.5L683.1,1412.5z"/>
		<g>
			<g>
				<g>
					<g>
						<defs>
							<ellipse id="SVGID_104_" cx="509.3" cy="1370.3" rx="173.8" ry="39"/>
						</defs>
						<clipPath id="SVGID_105_">
							<use xlink:href="#SVGID_104_"  style="overflow:visible;"/>
						</clipPath>
						<ellipse class="st58" cx="509.3" cy="1370.3" rx="173.8" ry="39"/>
					</g>
				</g>
			</g>
			<g>
				<g>
					<g>
						<defs>
							<ellipse id="SVGID_106_" cx="509.3" cy="1370.3" rx="173.8" ry="39"/>
						</defs>
						<clipPath id="SVGID_107_">
							<use xlink:href="#SVGID_106_"  style="overflow:visible;"/>
						</clipPath>
						<ellipse class="st59" cx="509.3" cy="1369.6" rx="146.4" ry="26.6"/>
					</g>
				</g>
			</g>
			<g>
				<g>
					<g>
						<defs>
							<ellipse id="SVGID_108_" cx="509.3" cy="1370.3" rx="173.8" ry="39"/>
						</defs>
						<clipPath id="SVGID_109_">
							<use xlink:href="#SVGID_108_"  style="overflow:visible;"/>
						</clipPath>
						<path class="st60" d="M665.3,1326c0,22.5-73.4,40.9-165.5,42c-2.8,0-5.5,0-8.3,0c-95.9,0-173.8-18.9-173.8-42.1v-45.7
							c0,0,73.7,0.6,76.5,2.5c2.9,2,271-2.4,271-2.4L665.3,1326L665.3,1326z"/>
					</g>
				</g>
			</g>
		</g>
	</g>
	<g id="Layer_11_copy_2_00000075152429479493446650000007928018205497446307_">
		<g>
			<g>
				<path id="SVGID_34_" class="st61" d="M535,1350.4c0,0-72.6,35.1-112.8,94.9c-47.4-18.4-136.7-46.1-182.3-47
					c22.7-29.7,109.7-95.8,135.1-102.2c29.2,16.9,159.9,51.6,159.9,51.6"/>
			</g>
			<g>
				<g>
					<g>
						<defs>
							<path id="SVGID_110_" d="M535,1350.4c0,0-72.6,35.1-112.8,94.9c-47.4-18.4-136.7-46.1-182.3-47
								c22.7-29.7,109.7-95.8,135.1-102.2c29.2,16.9,159.9,51.6,159.9,51.6"/>
						</defs>
						<clipPath id="SVGID_111_">
							<use xlink:href="#SVGID_110_"  style="overflow:visible;"/>
						</clipPath>
						<path class="st62" d="M535,1350.4c0,0-72.6,35.1-112.8,94.9c-47.4-18.4-136.7-46.1-182.3-47c22.7-29.7,109.7-95.8,135.1-102.2
							c29.2,16.9,159.9,51.6,159.9,51.6"/>
					</g>
				</g>
			</g>
			<g>
				<g>
					<g>
						<defs>
							<path id="SVGID_112_" d="M535,1350.4c0,0-72.6,35.1-112.8,94.9c-47.4-18.4-136.7-46.1-182.3-47
								c22.7-29.7,109.7-95.8,135.1-102.2c29.2,16.9,159.9,51.6,159.9,51.6"/>
						</defs>
						<clipPath id="SVGID_113_">
							<use xlink:href="#SVGID_112_"  style="overflow:visible;"/>
						</clipPath>
						<path class="st63" d="M368.1,1312.9c0,0-38.2,12.2-88.1,61.2c4.3,4.1,3.9,14.1-4.5,18.5c9.7,0.2,64.2,12.8,120.6,30.9
							c0,0,11.2-11.6,28.3-6.6c10.9-11.5,53.9-62.6,109.3-77.4c-17-11.3-140.1-13.2-141.9-13.1s-17.9-7.5-17.9-7.5"/>
					</g>
				</g>
			</g>
			<g>
				<g>
					<g>
						<defs>
							<path id="SVGID_114_" d="M535,1350.4c0,0-72.6,35.1-112.8,94.9c-47.4-18.4-136.7-46.1-182.3-47
								c22.7-29.7,109.7-95.8,135.1-102.2c29.2,16.9,159.9,51.6,159.9,51.6"/>
						</defs>
						<clipPath id="SVGID_115_">
							<use xlink:href="#SVGID_114_"  style="overflow:visible;"/>
						</clipPath>
						<path class="st64" d="M313.6,1315.3c4.1,34,116.7,50.3,218.1,46.1s182.8-25,181.8-46.5l-1.7-42.3c0,0-77.7,3.7-80.7,5.6
							c-3,2-286.3,9.5-286.3,9.5L313.6,1315.3z"/>
					</g>
				</g>
			</g>
		</g>
	</g>
	<g id="coin_copy_7_00000087371995646466651430000010262598767735266234_">
		<path class="st49" d="M665.3,1314.2c0,21.5-77.7,39-173.8,39s-173.8-17.5-173.8-39v-42.3c0,0,73.7,0.5,76.5,2.3
			c2.9,1.8,271-2.2,271-2.2L665.3,1314.2L665.3,1314.2z"/>
		<g>
			<g>
				<g>
					<g>
						<defs>
							<ellipse id="SVGID_116_" cx="491.5" cy="1272" rx="173.8" ry="39"/>
						</defs>
						<clipPath id="SVGID_117_">
							<use xlink:href="#SVGID_116_"  style="overflow:visible;"/>
						</clipPath>
						<ellipse class="st65" cx="491.5" cy="1272" rx="173.8" ry="39"/>
					</g>
				</g>
			</g>
			<g>
				<g>
					<g>
						<defs>
							<ellipse id="SVGID_118_" cx="491.5" cy="1272" rx="173.8" ry="39"/>
						</defs>
						<clipPath id="SVGID_119_">
							<use xlink:href="#SVGID_118_"  style="overflow:visible;"/>
						</clipPath>
						<ellipse class="st66" cx="491.6" cy="1270.7" rx="146.4" ry="26.6"/>
					</g>
				</g>
			</g>
			<g>
				<g>
					<g>
						<defs>
							<ellipse id="SVGID_120_" cx="491.5" cy="1272" rx="173.8" ry="39"/>
						</defs>
						<clipPath id="SVGID_121_">
							<use xlink:href="#SVGID_120_"  style="overflow:visible;"/>
						</clipPath>
						<path class="st67" d="M677,1252.9c0,20.9-73.4,38-165.5,38.9c-2.8,0-5.5,0-8.3,0c-95.9,0-173.8-17.5-173.8-39v-42.3
							c0,0,73.7,0.5,76.5,2.3c2.9,1.8,271-2.2,271-2.2L677,1252.9L677,1252.9L677,1252.9z"/>
					</g>
				</g>
			</g>
		</g>
	</g>
	<g id="Layer_11_copy_2">
		<g>
			<g>
				<path id="SVGID_38_" class="st61" d="M509.3,1281c0,0,74,32.1,116.6,90.2c46.6-20.4,134.8-51.8,180.2-54.4
					c-23.8-28.6-113.5-91.2-139.3-96.6c-28.5,18.2-157.7,58.2-157.7,58.2"/>
			</g>
			<g>
				<g>
					<g>
						<defs>
							<path id="SVGID_122_" d="M509.3,1281c0,0,74,32.1,116.6,90.2c46.6-20.4,134.8-51.8,180.2-54.4
								c-23.8-28.6-113.5-91.2-139.3-96.6c-28.5,18.2-157.7,58.2-157.7,58.2"/>
						</defs>
						<clipPath id="SVGID_123_">
							<use xlink:href="#SVGID_122_"  style="overflow:visible;"/>
						</clipPath>
						<path class="st68" d="M509.3,1281c0,0,74,32.1,116.6,90.2c46.6-20.4,134.8-51.8,180.2-54.4c-23.8-28.6-113.5-91.2-139.3-96.6
							c-28.5,18.2-157.7,58.2-157.7,58.2"/>
					</g>
				</g>
			</g>
			<g>
				<g>
					<g>
						<defs>
							<path id="SVGID_124_" d="M509.3,1281c0,0,74,32.1,116.6,90.2c46.6-20.4,134.8-51.8,180.2-54.4
								c-23.8-28.6-113.5-91.2-139.3-96.6c-28.5,18.2-157.7,58.2-157.7,58.2"/>
						</defs>
						<clipPath id="SVGID_125_">
							<use xlink:href="#SVGID_124_"  style="overflow:visible;"/>
						</clipPath>
						<path class="st69" d="M674.5,1236.7c0,0,38.6,10.6,90.5,57.5c-4,4.3-3.3,14.3,5.3,18.3c-9.7,0.7-63.6,15.3-119.3,35.9
							c0,0-11.6-11.2-28.5-5.4c-11.4-11-56.5-60.3-112.3-72.8c16.6-12,139.4-19,141.2-19c1.8,0,17.6-8.2,17.6-8.2"/>
					</g>
				</g>
			</g>
			<g>
				<g>
					<g>
						<defs>
							<path id="SVGID_126_" d="M509.3,1281c0,0,74,32.1,116.6,90.2c46.6-20.4,134.8-51.8,180.2-54.4
								c-23.8-28.6-113.5-91.2-139.3-96.6c-28.5,18.2-157.7,58.2-157.7,58.2"/>
						</defs>
						<clipPath id="SVGID_127_">
							<use xlink:href="#SVGID_126_"  style="overflow:visible;"/>
						</clipPath>
						<path class="st70" d="M696.7,1252.9c0,21.5-82.2,39-183.6,39s-183.6-17.5-183.6-39v-42.3c0,0,77.9,0.5,80.9,2.3
							s286.4-2.2,286.4-2.2L696.7,1252.9L696.7,1252.9z"/>
					</g>
				</g>
			</g>
		</g>
	</g>
	<g id="coin_copy_7_00000047059002391057528730000010118279674326045843_">
		<path class="st49" d="M687.1,1244.7c0,21.5-77.7,39-173.8,39s-173.8-17.5-173.8-39v-42.3c0,0,73.7,0.5,76.5,2.3s271-2.2,271-2.2
			L687.1,1244.7L687.1,1244.7z"/>
		<g>
			<g>
				<g>
					<g>
						<defs>
							<ellipse id="SVGID_128_" cx="513.5" cy="1202.5" rx="173.8" ry="39"/>
						</defs>
						<clipPath id="SVGID_129_">
							<use xlink:href="#SVGID_128_"  style="overflow:visible;"/>
						</clipPath>
						<ellipse class="st71" cx="513.5" cy="1202.5" rx="173.8" ry="39"/>
					</g>
				</g>
			</g>
			<g>
				<g>
					<g>
						<defs>
							<ellipse id="SVGID_130_" cx="513.5" cy="1202.5" rx="173.8" ry="39"/>
						</defs>
						<clipPath id="SVGID_131_">
							<use xlink:href="#SVGID_130_"  style="overflow:visible;"/>
						</clipPath>
						<ellipse class="st72" cx="513.5" cy="1201.8" rx="146.4" ry="26.6"/>
					</g>
				</g>
			</g>
			<g>
				<g>
					<g>
						<defs>
							<ellipse id="SVGID_132_" cx="513.5" cy="1202.5" rx="173.8" ry="39"/>
						</defs>
						<clipPath id="SVGID_133_">
							<use xlink:href="#SVGID_132_"  style="overflow:visible;"/>
						</clipPath>
						<path class="st73" d="M657.8,1181.1c0,21.5-77.7,39-173.8,39s-173.8-17.5-173.8-39v-42.3c0,0,73.7,0.5,76.5,2.3
							c2.9,1.8,271-2.2,271-2.2L657.8,1181.1L657.8,1181.1z"/>
					</g>
				</g>
			</g>
		</g>
	</g>
	<g id="coin_copy_7">
		<path class="st49" d="M650.1,1168.5c0,21.5-77.7,39-173.8,39c-95.9,0-173.8-17.5-173.8-39v-42.3c0,0,73.7,0.5,76.5,2.3
			s271-2.2,271-2.2L650.1,1168.5L650.1,1168.5z"/>
		<ellipse class="st56" cx="476.4" cy="1126.3" rx="173.8" ry="39"/>
		<ellipse class="st57" cx="476.4" cy="1125.5" rx="146.4" ry="26.6"/>
	</g>
</g>
<g id="Layer_14">
	<g id="coin_copy_6">
		<path class="st49" d="M2432.2,1477.3c0,21.5,77.7,39,173.8,39c96,0,173.8-17.5,173.8-39V1435c0,0-73.7,0.5-76.5,2.3
			c-2.9,1.8-271-2.2-271-2.2v42.2H2432.2z"/>
		<g>
			<g>
				<g>
					<g>
						<defs>
							<ellipse id="SVGID_134_" cx="2606" cy="1435.1" rx="173.8" ry="39"/>
						</defs>
						<clipPath id="SVGID_135_">
							<use xlink:href="#SVGID_134_"  style="overflow:visible;"/>
						</clipPath>
						<ellipse class="st74" cx="2606" cy="1435.1" rx="173.8" ry="39"/>
					</g>
				</g>
			</g>
			<g>
				<g>
					<g>
						<defs>
							<ellipse id="SVGID_136_" cx="2606" cy="1435.1" rx="173.8" ry="39"/>
						</defs>
						<clipPath id="SVGID_137_">
							<use xlink:href="#SVGID_136_"  style="overflow:visible;"/>
						</clipPath>
						<ellipse class="st75" cx="2606" cy="1434.4" rx="146.4" ry="26.6"/>
					</g>
				</g>
			</g>
			<g>
				<g>
					<g>
						<defs>
							<ellipse id="SVGID_138_" cx="2606" cy="1435.1" rx="173.8" ry="39"/>
						</defs>
						<clipPath id="SVGID_139_">
							<use xlink:href="#SVGID_138_"  style="overflow:visible;"/>
						</clipPath>
						<path class="st76" d="M2425,1420.8c0,20.9,76,38,171.6,38.9c2.9,0,5.8,0,8.6,0c99.5,0,180.2-17.5,180.2-39v-42.3
							c0,0-76.4,0.5-79.4,2.3s-281-2.2-281-2.2L2425,1420.8L2425,1420.8z"/>
					</g>
				</g>
			</g>
		</g>
	</g>
	<g id="coin_copy_4">
		<path class="st49" d="M2296,1488.7c0,21.5,77.7,39,173.8,39c96,0,173.8-17.5,173.8-39v-42.3c0,0-73.7,0.5-76.5,2.3
			c-2.9,1.8-271-2.2-271-2.2v42.2H2296z"/>
		<g>
			<g>
				<g>
					<g>
						<defs>
							<ellipse id="SVGID_140_" cx="2469.8" cy="1446.5" rx="173.8" ry="39"/>
						</defs>
						<clipPath id="SVGID_141_">
							<use xlink:href="#SVGID_140_"  style="overflow:visible;"/>
						</clipPath>
						<ellipse class="st77" cx="2469.8" cy="1446.5" rx="173.8" ry="39"/>
					</g>
				</g>
			</g>
			<g>
				<g>
					<g>
						<defs>
							<ellipse id="SVGID_142_" cx="2469.8" cy="1446.5" rx="173.8" ry="39"/>
						</defs>
						<clipPath id="SVGID_143_">
							<use xlink:href="#SVGID_142_"  style="overflow:visible;"/>
						</clipPath>
						<ellipse class="st78" cx="2469.8" cy="1445.7" rx="146.4" ry="26.6"/>
					</g>
				</g>
			</g>
			<g>
				<g>
					<g>
						<defs>
							<ellipse id="SVGID_144_" cx="2469.8" cy="1446.5" rx="173.8" ry="39"/>
						</defs>
						<clipPath id="SVGID_145_">
							<use xlink:href="#SVGID_144_"  style="overflow:visible;"/>
						</clipPath>
						<path class="st79" d="M2425,1420.8c0,20.9,73.4,38,165.5,38.9c2.8,0,5.5,0,8.3,0c95.9,0,173.8-17.5,173.8-39v-42.3
							c0,0-73.7,0.5-76.5,2.3c-2.9,1.8-271-2.2-271-2.2v42.3L2425,1420.8L2425,1420.8z"/>
					</g>
				</g>
			</g>
		</g>
	</g>
	<g id="coin_copy_5">
		<path class="st49" d="M2422.8,1560.9c0,21.5,77.7,39,173.8,39s173.8-17.5,173.8-39v-42.3c0,0-73.7,0.5-76.5,2.3
			c-2.9,1.8-271-2.2-271-2.2v42.2H2422.8z"/>
		<ellipse class="st56" cx="2596.6" cy="1518.7" rx="173.8" ry="39"/>
		<ellipse class="st57" cx="2596.6" cy="1518" rx="146.4" ry="26.6"/>
	</g>
	<g id="coin_copy_3">
		<path class="st49" d="M2432.2,1412.5c0,21.5,77.7,39,173.8,39c96,0,173.8-17.5,173.8-39v-42.3c0,0-73.7,0.5-76.5,2.3
			c-2.9,1.8-271-2.2-271-2.2v42.2H2432.2z"/>
		<g>
			<g>
				<g>
					<g>
						<defs>
							<ellipse id="SVGID_146_" cx="2606" cy="1370.3" rx="173.8" ry="39"/>
						</defs>
						<clipPath id="SVGID_147_">
							<use xlink:href="#SVGID_146_"  style="overflow:visible;"/>
						</clipPath>
						<ellipse class="st80" cx="2606" cy="1370.3" rx="173.8" ry="39"/>
					</g>
				</g>
			</g>
			<g>
				<g>
					<g>
						<defs>
							<ellipse id="SVGID_148_" cx="2606" cy="1370.3" rx="173.8" ry="39"/>
						</defs>
						<clipPath id="SVGID_149_">
							<use xlink:href="#SVGID_148_"  style="overflow:visible;"/>
						</clipPath>
						<ellipse class="st81" cx="2606" cy="1369.6" rx="146.4" ry="26.6"/>
					</g>
				</g>
			</g>
			<g>
				<g>
					<g>
						<defs>
							<ellipse id="SVGID_150_" cx="2606" cy="1370.3" rx="173.8" ry="39"/>
						</defs>
						<clipPath id="SVGID_151_">
							<use xlink:href="#SVGID_150_"  style="overflow:visible;"/>
						</clipPath>
						<path class="st82" d="M2450.2,1325.8c0,22.4,73.4,40.8,165.5,41.9c2.8,0,5.5,0,8.3,0c95.9,0,173.8-18.7,173.8-41.9v-45.4
							c0,0-73.7,0.6-76.5,2.5c-2.9,2-271-2.4-271-2.4v45.3H2450.2z"/>
					</g>
				</g>
			</g>
		</g>
	</g>
	<g id="Layer_11_copy">
		<g>
			<g>
				<path id="SVGID_48_" class="st61" d="M2580.5,1350.4c0,0,72.6,35.1,112.8,94.9c47.4-18.4,136.7-46.1,182.3-47
					c-22.7-29.7-109.7-95.8-135.1-102.2c-29.2,16.9-159.9,51.6-159.9,51.6"/>
			</g>
			<g>
				<g>
					<g>
						<defs>
							<path id="SVGID_152_" d="M2580.5,1350.4c0,0,72.6,35.1,112.8,94.9c47.4-18.4,136.7-46.1,182.3-47
								c-22.7-29.7-109.7-95.8-135.1-102.2c-29.2,16.9-159.9,51.6-159.9,51.6"/>
						</defs>
						<clipPath id="SVGID_153_">
							<use xlink:href="#SVGID_152_"  style="overflow:visible;"/>
						</clipPath>
						<path class="st83" d="M2580.5,1350.4c0,0,72.6,35.1,112.8,94.9c47.4-18.4,136.7-46.1,182.3-47
							c-22.7-29.7-109.7-95.8-135.1-102.2c-29.2,16.9-159.9,51.6-159.9,51.6"/>
					</g>
				</g>
			</g>
			<g>
				<g>
					<g>
						<defs>
							<path id="SVGID_154_" d="M2580.5,1350.4c0,0,72.6,35.1,112.8,94.9c47.4-18.4,136.7-46.1,182.3-47
								c-22.7-29.7-109.7-95.8-135.1-102.2c-29.2,16.9-159.9,51.6-159.9,51.6"/>
						</defs>
						<clipPath id="SVGID_155_">
							<use xlink:href="#SVGID_154_"  style="overflow:visible;"/>
						</clipPath>
						<path class="st84" d="M2747.2,1312.9c0,0,38.2,12.2,88.1,61.2c-4.3,4.1-3.9,14.1,4.5,18.5c-9.7,0.2-64.2,12.8-120.6,30.9
							c0,0-11.2-11.6-28.3-6.6c-10.9-11.5-53.9-62.6-109.3-77.4c17-11.3,140.1-13.2,141.9-13.1s17.9-7.5,17.9-7.5"/>
					</g>
				</g>
			</g>
			<g>
				<g>
					<g>
						<defs>
							<path id="SVGID_156_" d="M2580.5,1350.4c0,0,72.6,35.1,112.8,94.9c47.4-18.4,136.7-46.1,182.3-47
								c-22.7-29.7-109.7-95.8-135.1-102.2c-29.2,16.9-159.9,51.6-159.9,51.6"/>
						</defs>
						<clipPath id="SVGID_157_">
							<use xlink:href="#SVGID_156_"  style="overflow:visible;"/>
						</clipPath>
						<path class="st85" d="M2801.7,1315.3c-4.1,34-116.7,50.3-218.1,46.1c-101.3-4.1-182.8-25-181.8-46.5l1.7-42.3
							c0,0,77.7,3.7,80.7,5.6c3,2,286.3,9.5,286.3,9.5L2801.7,1315.3z"/>
					</g>
				</g>
			</g>
		</g>
	</g>
	<g id="coin_copy_2">
		<path class="st49" d="M2450.2,1314.2c0,21.5,77.7,39,173.8,39c96,0,173.8-17.5,173.8-39v-42.3c0,0-73.7,0.5-76.5,2.3
			c-2.9,1.8-271-2.2-271-2.2v42.2H2450.2z"/>
		<g>
			<g>
				<g>
					<g>
						<defs>
							<ellipse id="SVGID_158_" cx="2623.8" cy="1272" rx="173.8" ry="39"/>
						</defs>
						<clipPath id="SVGID_159_">
							<use xlink:href="#SVGID_158_"  style="overflow:visible;"/>
						</clipPath>
						<ellipse class="st86" cx="2623.8" cy="1272" rx="173.8" ry="39"/>
					</g>
				</g>
			</g>
			<g>
				<g>
					<g>
						<defs>
							<ellipse id="SVGID_160_" cx="2623.8" cy="1272" rx="173.8" ry="39"/>
						</defs>
						<clipPath id="SVGID_161_">
							<use xlink:href="#SVGID_160_"  style="overflow:visible;"/>
						</clipPath>
						<ellipse class="st87" cx="2623.8" cy="1270.7" rx="146.4" ry="26.6"/>
					</g>
				</g>
			</g>
			<g>
				<g>
					<g>
						<defs>
							<ellipse id="SVGID_162_" cx="2623.8" cy="1272" rx="173.8" ry="39"/>
						</defs>
						<clipPath id="SVGID_163_">
							<use xlink:href="#SVGID_162_"  style="overflow:visible;"/>
						</clipPath>
						<path class="st88" d="M2438.4,1252.9c0,20.9,73.4,38,165.5,38.9c2.8,0,5.5,0,8.3,0c95.9,0,173.8-17.5,173.8-39v-42.3
							c0,0-73.7,0.5-76.5,2.3c-2.9,1.8-271-2.2-271-2.2v42.3L2438.4,1252.9L2438.4,1252.9z"/>
					</g>
				</g>
			</g>
		</g>
	</g>
	<g id="Layer_11">
		<g>
			<g>
				<path id="SVGID_52_" class="st61" d="M2606,1281c0,0-74,32.1-116.6,90.2c-46.6-20.4-134.8-51.8-180.2-54.4
					c23.8-28.6,113.5-91.2,139.3-96.6c28.5,18.2,157.7,58.2,157.7,58.2"/>
			</g>
			<g>
				<g>
					<g>
						<defs>
							<path id="SVGID_164_" d="M2606,1281c0,0-74,32.1-116.6,90.2c-46.6-20.4-134.8-51.8-180.2-54.4
								c23.8-28.6,113.5-91.2,139.3-96.6c28.5,18.2,157.7,58.2,157.7,58.2"/>
						</defs>
						<clipPath id="SVGID_165_">
							<use xlink:href="#SVGID_164_"  style="overflow:visible;"/>
						</clipPath>
						<path class="st89" d="M2606,1281c0,0-74,32.1-116.6,90.2c-46.6-20.4-134.8-51.8-180.2-54.4c23.8-28.6,113.5-91.2,139.3-96.6
							c28.5,18.2,157.7,58.2,157.7,58.2"/>
					</g>
				</g>
			</g>
			<g>
				<g>
					<g>
						<defs>
							<path id="SVGID_166_" d="M2606,1281c0,0-74,32.1-116.6,90.2c-46.6-20.4-134.8-51.8-180.2-54.4
								c23.8-28.6,113.5-91.2,139.3-96.6c28.5,18.2,157.7,58.2,157.7,58.2"/>
						</defs>
						<clipPath id="SVGID_167_">
							<use xlink:href="#SVGID_166_"  style="overflow:visible;"/>
						</clipPath>
						<path class="st90" d="M2440.8,1236.7c0,0-38.6,10.6-90.5,57.5c4,4.3,3.3,14.3-5.3,18.3c9.7,0.7,63.6,15.3,119.3,35.9
							c0,0,11.6-11.2,28.5-5.4c11.4-11,56.5-60.3,112.3-72.8c-16.6-12-139.4-19-141.2-19s-17.6-8.2-17.6-8.2"/>
					</g>
				</g>
			</g>
			<g>
				<g>
					<g>
						<defs>
							<path id="SVGID_168_" d="M2606,1281c0,0-74,32.1-116.6,90.2c-46.6-20.4-134.8-51.8-180.2-54.4
								c23.8-28.6,113.5-91.2,139.3-96.6c28.5,18.2,157.7,58.2,157.7,58.2"/>
						</defs>
						<clipPath id="SVGID_169_">
							<use xlink:href="#SVGID_168_"  style="overflow:visible;"/>
						</clipPath>
						<path class="st91" d="M2418.6,1252.9c0,21.5,82.2,39,183.6,39c101.4,0,183.6-17.5,183.6-39v-42.3c0,0-77.9,0.5-80.9,2.3
							s-286.4-2.2-286.4-2.2L2418.6,1252.9L2418.6,1252.9z"/>
					</g>
				</g>
			</g>
		</g>
	</g>
	<g id="coin_copy">
		<path class="st49" d="M2428.2,1244.7c0,21.5,77.7,39,173.8,39s173.8-17.5,173.8-39v-42.3c0,0-73.7,0.5-76.5,2.3
			c-2.9,1.8-271-2.2-271-2.2v42.2H2428.2z"/>
		<g>
			<g>
				<g>
					<g>
						<defs>
							<ellipse id="SVGID_170_" cx="2602" cy="1202.5" rx="173.8" ry="39"/>
						</defs>
						<clipPath id="SVGID_171_">
							<use xlink:href="#SVGID_170_"  style="overflow:visible;"/>
						</clipPath>
						<ellipse class="st92" cx="2602" cy="1202.5" rx="173.8" ry="39"/>
					</g>
				</g>
			</g>
			<g>
				<g>
					<g>
						<defs>
							<ellipse id="SVGID_172_" cx="2602" cy="1202.5" rx="173.8" ry="39"/>
						</defs>
						<clipPath id="SVGID_173_">
							<use xlink:href="#SVGID_172_"  style="overflow:visible;"/>
						</clipPath>
						<ellipse class="st93" cx="2602" cy="1201.8" rx="146.4" ry="26.6"/>
					</g>
				</g>
			</g>
			<g>
				<g>
					<g>
						<defs>
							<ellipse id="SVGID_174_" cx="2602" cy="1202.5" rx="173.8" ry="39"/>
						</defs>
						<clipPath id="SVGID_175_">
							<use xlink:href="#SVGID_174_"  style="overflow:visible;"/>
						</clipPath>
						<path class="st94" d="M2457.5,1181.1c0,21.5,77.7,39,173.8,39s173.8-17.5,173.8-39v-42.3c0,0-73.7,0.5-76.5,2.3
							c-2.9,1.8-271-2.2-271-2.2v42.2H2457.5z"/>
					</g>
				</g>
			</g>
		</g>
	</g>
	<g id="coin">
		<path class="st49" d="M2465.2,1168.5c0,21.5,77.7,39,173.8,39s173.8-17.5,173.8-39v-42.3c0,0-73.7,0.5-76.5,2.3
			c-2.9,1.8-271-2.2-271-2.2v42.2H2465.2z"/>
		<ellipse class="st56" cx="2639" cy="1126.3" rx="173.8" ry="39"/>
		<ellipse class="st57" cx="2639" cy="1125.5" rx="146.4" ry="26.6"/>
	</g>
</g>
<g id="Layer_25">
	<ellipse class="st95" cx="2609.2" cy="1115.3" rx="128.8" ry="23.3"/>
	<g>
		<g>
			<g>
				<g>
					<defs>
						<circle id="SVGID_176_" cx="2589.1" cy="957.3" r="169"/>
					</defs>
					<clipPath id="SVGID_177_">
						<use xlink:href="#SVGID_176_"  style="overflow:visible;"/>
					</clipPath>
					<circle class="st96" cx="2589.1" cy="957.3" r="169"/>
				</g>
			</g>
		</g>
		<g>
			<g>
				<g>
					<defs>
						<circle id="SVGID_178_" cx="2589.1" cy="957.3" r="169"/>
					</defs>
					<clipPath id="SVGID_179_">
						<use xlink:href="#SVGID_178_"  style="overflow:visible;"/>
					</clipPath>
					<g class="st97">
						<g>
							<g>
								<g>
									<defs>
										<circle id="SVGID_180_" cx="2589.1" cy="978.8" r="169"/>
									</defs>
									<clipPath id="SVGID_181_">
										<use xlink:href="#SVGID_180_"  style="overflow:visible;"/>
									</clipPath>
									<circle class="st98" cx="2589.1" cy="978.8" r="169"/>
								</g>
							</g>
						</g>
						<g>
							<g>
								<g>
									<defs>
										<circle id="SVGID_182_" cx="2589.1" cy="978.8" r="169"/>
									</defs>
									<clipPath id="SVGID_183_">
										<use xlink:href="#SVGID_182_"  style="overflow:visible;"/>
									</clipPath>
									<path class="st99" d="M2404,998.4c0,0,154.9,238.7,401.4,0c166.1,41.4,49.2,165.6-8.5,202.2
										c-57.6,36.6-134.7,104.2-256.5,49.2s-212-176.2-194.8-198.4"/>
								</g>
							</g>
						</g>
					</g>
				</g>
			</g>
		</g>
		<g>
			<g>
				<g>
					<defs>
						<circle id="SVGID_184_" cx="2589.1" cy="957.3" r="169"/>
					</defs>
					<clipPath id="SVGID_185_">
						<use xlink:href="#SVGID_184_"  style="overflow:visible;"/>
					</clipPath>
					<circle class="st100" cx="2591.3" cy="970.7" r="124"/>
				</g>
			</g>
		</g>
		<g>
			<g>
				<g>
					<defs>
						<circle id="SVGID_186_" cx="2589.1" cy="957.3" r="169"/>
					</defs>
					<clipPath id="SVGID_187_">
						<use xlink:href="#SVGID_186_"  style="overflow:visible;"/>
					</clipPath>
					<g class="st101">
						<rect x="2471.5" y="883.6" class="st102" width="239.3" height="204.1"/>
						<g class="st103">
							<path class="st49" d="M2637.3,931.1h-40.6v-6.7c0-7.2-0.5-11.9-1.4-14.1c-0.9-2.2-2.9-3.3-6-3.3c-2.5,0-4.3,1-5.6,2.9
								c-1.2,1.9-1.9,4.8-1.9,8.6c0,6.4,1.3,10.8,3.8,13.4c2.5,2.5,9.8,7.5,21.9,14.9c10.3,6.2,17.4,11,21.1,14.3
								c3.8,3.3,6.9,8,9.5,14.1c2.6,6.1,3.9,13.6,3.9,22.7c0,14.5-3.5,25.8-10.5,34.1c-7,8.2-17.4,13.3-31.4,15.3v15.3h-18.7v-15.8
								c-10.9-1.1-20.3-5.2-28.4-12.5c-8.1-7.3-12.2-20-12.2-38v-7.9h40.6v10c0,10.9,0.4,17.7,1.3,20.4c0.8,2.6,2.9,4,6.1,4
								c2.7,0,4.8-0.9,6.1-2.8c1.3-1.8,2-4.6,2-8.2c0-9.1-0.6-15.6-1.9-19.6c-1.3-3.9-5.6-8.2-13.1-12.8
								c-12.4-7.8-20.8-13.5-25.3-17.1c-4.5-3.7-8.3-8.8-11.6-15.4c-3.3-6.6-4.9-14.1-4.9-22.5c0-12.1,3.4-21.6,10.3-28.5
								c6.9-6.9,17.2-11.2,30.9-12.8v-13h18.7v13c12.5,1.6,21.9,5.8,28.1,12.6c6.2,6.8,9.3,16.2,9.3,28.2
								C2637.7,925.2,2637.6,927.7,2637.3,931.1z"/>
						</g>
					</g>
				</g>
			</g>
		</g>
	</g>
</g>
</svg>
