<?xml version="1.0" encoding="utf-8"?>
<!-- Generator: Adobe Illustrator 25.0.1, SVG Export Plug-In . SVG Version: 6.00 Build 0)  -->
<svg version="1.1" id="bg" xmlns="http://www.w3.org/2000/svg" xmlns:xlink="http://www.w3.org/1999/xlink" x="0px" y="0px"
	 viewBox="0 0 1920 1048.5" style="enable-background:new 0 0 1920 1048.5;" xml:space="preserve">
<style type="text/css">
	.st0{fill-rule:evenodd;clip-rule:evenodd;fill:#1A8DFF;}
	.st1{opacity:5.000000e-02;fill-rule:evenodd;clip-rule:evenodd;fill:#FFFFFF;enable-background:new    ;}
	.st2{opacity:4.000000e-02;fill-rule:evenodd;clip-rule:evenodd;fill:#FFFFFF;enable-background:new    ;}
</style>
<path class="st0" d="M1920,1047.7V157.4c-51.8,20.1-104.4,36.6-157.6,49.8c-4.2,1-8.3,2-12.5,3c-27.8,6.5-55.8,12-83.8,16.7
	c-4.4,0.8-8.8,1.4-13.2,2.1c-33.2,5.1-66.6,8.7-100.2,11.1c-14.7,1-29.3,1.8-44.2,2.3c-35.8,1.2-73.4,0.6-107.6-1.1
	c-28.8-1.3-55.2-3.4-75.8-5.5c-3.5-0.3-7.1-0.8-11-1.2c-5.2-0.6-10.7-1.2-16.6-2c-20.5-2.5-45.2-6.1-73.4-10.4
	c-183.2-27.7-514.5-87.8-826-146.3c-5.2-1-10.3-2-15.5-2.9c-55.9-10.5-111-21-164.4-31.1c-5.9-1.1-11.9-2.2-17.8-3.4
	c-11.2-2.1-22.2-4.2-33.2-6.4c-5.8-1.1-11.6-2.2-17.4-3.3C102.9,19.9,57.6,11,14.8,2.9C9.8,1.9,4.9,1,0,0v1047.7H1920z"/>
<path class="st0" d="M1920,0v890.3c-51.8-20.1-104.4-36.6-157.6-49.8c-4.2-1-8.3-2-12.5-3c-27.8-6.5-55.8-12-83.8-16.7
	c-4.4-0.8-8.8-1.4-13.2-2.1c-33.2-5.1-66.6-8.7-100.2-11.1c-14.7-1-29.3-1.8-44.2-2.3c-35.8-1.2-73.4-0.6-107.6,1.1
	c-28.8,1.3-55.2,3.4-75.8,5.5c-3.5,0.3-7.1,0.8-11,1.2c-5.2,0.6-10.7,1.2-16.6,2c-20.5,2.5-45.2,6.1-73.4,10.4
	c-183.2,27.7-514.5,87.8-826,146.3c-5.2,1-10.3,2-15.5,2.9c-55.9,10.5-111,21-164.4,31.1c-5.9,1.1-11.9,2.2-17.8,3.4
	c-11.2,2.1-22.2,4.2-33.2,6.4c-5.8,1.1-11.6,2.2-17.4,3.3c-46.9,8.9-92.2,17.8-135,25.9c-5,1-9.9,1.9-14.8,2.9V0H1920z"/>
<g id="btm">
	<path class="st1" d="M289.3,759.9c0,10-3.4,20.1-10.4,28.4L167.2,920.2c0,0,0,0,0,0L58.5,1048.5H0V946.6l15.9-18.8c0,0,0,0,0,0
		L194.5,717c15.7-18.6,43.4-20.9,62-5.2l17.2,14.5C284,735,289.3,747.4,289.3,759.9z"/>
	<path class="st1" d="M389.5,866.3c0,10-3.4,20.1-10.4,28.4l-111.7,131.9c0,0,0,0,0,0l-18.5,21.8H104.1l12.1-14.2c0,0,0,0,0,0
		l178.5-210.8c15.7-18.6,43.4-20.9,62-5.2l17.2,14.5C384.2,841.4,389.5,853.8,389.5,866.3z"/>
	<path class="st1" d="M1873.8,0c10.9,27.9,3.7,85.9-91.1,203.9l-781.9,844.6h358.9C1546.4,850.7,1733.2,652.8,1920,455V0H1873.8z"/>
	<polygon class="st1" points="1920,582.3 1920,1048.5 1509.7,1048.5 	"/>
</g>
<g id="top">
	<path class="st2" d="M425,0h148l-37.7,43.7C512.7,70,473,72.9,446.8,50.3l-0.1-0.1C431.7,37.1,424.3,18.5,425,0z"/>
	<path class="st2" d="M603.1,0H748L594.3,181.4c-15.7,18.6-43.5,20.9-62,5.2L515.1,172c-18.5-15.7-20.9-43.4-5.2-62l0,0L603.1,0z"/>
</g>
</svg>
