<?xml version="1.0" encoding="utf-8"?>
<!-- Generator: Adobe Illustrator 25.0.1, SVG Export Plug-In . SVG Version: 6.00 Build 0)  -->
<svg version="1.1" id="Layer_1" xmlns="http://www.w3.org/2000/svg" xmlns:xlink="http://www.w3.org/1999/xlink" x="0px" y="0px"
	 viewBox="0 0 1920 319.5" style="enable-background:new 0 0 1920 319.5;" xml:space="preserve">
<style type="text/css">
	.st0{fill-rule:evenodd;clip-rule:evenodd;fill:#dddddd;enable-background:new;}
	.st1{fill:#FFFFFF;}
</style>
<g id="bg">
	<g id="btm_1_">
		<path class="st0" d="M1920,77.6v241.9H0v-99.3c4.9-0.9,9.8-1.7,14.8-2.6c42.8-7.4,88.1-15.4,135-23.5c5.8-1,11.6-2,17.4-3
			c11-2,22-3.9,33.2-5.8c5.9-1.1,11.9-2.1,17.8-3.1c53.4-9.2,108.5-18.7,164.4-28.2c5.2-0.8,10.3-1.7,15.5-2.6
			c311.5-53,642.8-107.4,826-132.5c28.2-3.9,52.9-7.1,73.4-9.4c5.9-0.7,11.4-1.3,16.6-1.8c3.9-0.4,7.5-0.8,11-1.1
			c20.6-1.9,47-3.8,75.8-5c34.2-1.5,71.8-2.1,107.6-1c14.9,0.5,29.5,1.2,44.2,2.1c33.6,2.2,67,5.5,100.2,10.1
			c4.4,0.6,8.8,1.2,13.2,1.9c28,4.2,56,9.2,83.8,15.1c4.2,0.9,8.3,1.8,12.5,2.7C1815.6,44.4,1868.2,59.4,1920,77.6z"/>
		<path class="st1" d="M1920.1,319.5c-640,0-1280,0-1920,0c19.3-5.5,38.5-11,57.7-16.4c18.2-5.2,36.5-10.3,54.7-15.4
			c72.3-20.2,144.4-39.8,216.8-59c44.1-11.7,88.3-23.2,132.8-34.6c136.6-35,293.8-70.3,443-107C962.3,73,1038,58.9,1106.6,43.6
			c40.9-9.1,79.2-17.6,117.7-24.5c24.6-4.4,49.3-8.1,74.8-11c32.2-3.6,65.7-5.9,101.9-6.3c9.8-0.1,19.8-0.1,30,0.1
			c79.9,1.4,148.8,9.1,211.3,23.1c10.3,2.3,20.4,4.8,30.4,7.4c20,5.3,39.8,11.3,59.3,17.9c56.1,19,100.2,40.8,115.8,48.7
			c19.7,9.9,44.4,23.3,72.2,40.7C1920,199.6,1920.1,259.6,1920.1,319.5z"/>
	</g>
</g>
</svg>
