<?xml version="1.0" encoding="utf-8"?>
<!-- Generator: Adobe Illustrator 25.0.1, SVG Export Plug-In . SVG Version: 6.00 Build 0)  -->
<svg version="1.1" id="Layer_1" xmlns="http://www.w3.org/2000/svg" xmlns:xlink="http://www.w3.org/1999/xlink" x="0px" y="0px"
	 viewBox="0 0 896.3 629.3" style="enable-background:new 0 0 896.3 629.3;" xml:space="preserve">
<style type="text/css">
	.st0{fill:url(#SVGID_1_);}
	.st1{fill:url(#SVGID_2_);}
	.st2{fill:url(#SVGID_3_);}
	.st3{fill:#08A0F0;}
</style>
<g id="Layer_2_1_">
	<g id="Layer_1-2">
		
			<radialGradient id="SVGID_1_" cx="550.5317" cy="211.2313" r="566.7753" fx="-16.2405" fy="211.2313" gradientUnits="userSpaceOnUse">
			<stop  offset="0" style="stop-color:#0595EF"/>
			<stop  offset="0.51" style="stop-color:#0CACF2"/>
			<stop  offset="0.99" style="stop-color:#0595EF"/>
		</radialGradient>
		<path class="st0" d="M896.4,25.2v370.9c0,13.9-11.3,25.2-25.2,25.1h-34.9c0.2-1,0.3-2,0.3-2.9V77.9c0-9.9-9.3-18-20.8-18H207V25.1
			C207,11.2,218.3,0,232.2,0h639C885.1,0,896.4,11.3,896.4,25.2z"/>
		
			<radialGradient id="SVGID_2_" cx="446.5348" cy="315.5026" r="566.8246" fx="-120.2867" fy="315.5026" gradientUnits="userSpaceOnUse">
			<stop  offset="0" style="stop-color:#0595EF"/>
			<stop  offset="0.51" style="stop-color:#0CACF2"/>
			<stop  offset="0.99" style="stop-color:#0595EF"/>
		</radialGradient>
		<path class="st1" d="M792.4,129.2v370.9c0,13.9-11.3,25.2-25.2,25.1h-34.7V181.9c0-9.9-9.3-18-20.8-18H103v-34.8
			c0-13.9,11.3-25.2,25.2-25.1h639C781.1,104,792.4,115.3,792.4,129.2z"/>
		
			<radialGradient id="SVGID_3_" cx="344.1663" cy="200.45" r="595.2491" fx="-251.0795" fy="200.45" gradientTransform="matrix(1 -6.806731e-03 -5.853789e-03 -0.86 1.6722 592.2032)" gradientUnits="userSpaceOnUse">
			<stop  offset="0" style="stop-color:#0595EF"/>
			<stop  offset="0.51" style="stop-color:#0CACF2"/>
			<stop  offset="0.99" style="stop-color:#0595EF"/>
		</radialGradient>
		<path class="st2" d="M629.5,421.3v44.1h59.9v-44.1H629.5z M664.2,208H266.9v59.9h341.8c10.5,0,19.1,6.7,20.6,15.3
			c0,0.3,0.1,0.6,0.1,0.8c0.1,0.6,0.1,1.2,0.1,1.8v179.4h59.9V233.2C689.3,219.3,678.1,208,664.2,208z M664.2,208h-639
			C11.3,208,0,219.2,0,233.1v370.9c0,13.9,11.2,25.2,25.1,25.2h639c13.9,0,25.2-11.2,25.2-25.1V233.2
			C689.3,219.3,678.1,208,664.2,208z M629.5,551.3c0,10-9.3,18-20.8,18h-528c-11.5,0-20.8-8.1-20.8-18V285.9c0-10,9.3-18,20.8-18
			h528c10.5,0,19.1,6.6,20.6,15.3c0,0.3,0.1,0.6,0.1,0.8c0.1,0.6,0.1,1.2,0.1,1.8V551.3z M629.5,361.3v104h58v-104H629.5z
			 M664.2,208H266.9v59.9h341.8c10.5,0,19.1,6.7,20.6,15.3c0,0.3,0.1,0.6,0.1,0.8c0.1,0.6,0.1,1.2,0.1,1.8v75.4h59.9V233.2
			C689.3,219.3,678.1,208,664.2,208z M629.5,421.3v44.1h59.9v-44.1H629.5z"/>
		<path class="st3" d="M333.5,547.4v-28.9c-20.4-0.9-40.1-6.4-51.7-13.1l9.2-35.6c12.8,7,30.7,13.4,50.5,13.4
			c17.3,0,29.2-6.7,29.2-18.9c0-11.6-9.7-18.9-32.2-26.5c-32.5-11-54.8-26.2-54.8-55.7c0-26.8,18.9-47.8,51.4-54.1v-28.9h29.8V326
			c20.4,0.9,34.1,5.2,44.1,10l-8.8,34.4c-8-3.4-22-10.4-43.9-10.4c-19.8,0-26.2,8.5-26.2,17c0,10,10.6,16.4,36.5,26.2
			c36.2,12.8,50.8,29.6,50.8,56.9c0,27.1-19.2,50.2-54.1,56.3v31L333.5,547.4z"/>
		<path class="st3" d="M426.5,460.1c0-16.2-4.6-29.2-14.1-39.9c-9.2-10.3-22.7-18.5-42.6-25.5c-14.3-5.4-30.6-12.2-30.6-17.7
			c0-7,10.8-8,17.2-8c18.1,0,30.1,5.2,38,8.6l2.3,1l9.6,4.1l13.2-51.6l-6.6-3.2c-11.3-5.5-24.1-8.9-39-10.3v-27.4h-47.8V321
			c-31.9,8.8-51.4,31.7-51.4,61.3c0,38.7,32.5,54.7,60.9,64.2c23,7.8,26.1,13.2,26.1,17.9c0,9.4-16.8,9.9-20.2,9.9
			c-20.7,0-37.8-7.7-46.2-12.3l-10.2-5.6l-13.7,53.4l5.9,3.4c11.7,6.8,29.2,11.8,47.2,13.6v29.5h47.8l0-32.8
			C405.5,515.2,426.5,490.9,426.5,460.1z M354.4,508.8v29.6h-11.8l0-28.5l-8.6-0.4c-14.9-0.7-30.4-4-41.6-8.9l4.6-17.9
			c14,6.1,29.2,9.3,44.5,9.5c23.2,0,38.2-10.9,38.2-27.9c0-19.4-18.4-28.3-38.4-35c-34.5-11.6-48.6-25.3-48.6-47.1
			c0-22.9,16.5-39.9,44.1-45.3l7.3-1.4v-27.3h11.8v26.3l8.6,0.4c13,0.6,24.2,2.6,33.9,6.3L394,358c-12-4.7-24.8-7-37.6-6.9
			c-25.9,0-35.2,13.4-35.2,26c0,17.3,18.3,25.6,42.3,34.6l0.2,0.1c37.2,13.1,44.8,28.8,44.8,48.4c0,24.2-17.9,42.4-46.7,47.4
			L354.4,508.8z"/>
	</g>
</g>
</svg>
