<?xml version="1.0" encoding="utf-8"?>
<!-- Generator: Adobe Illustrator 25.0.1, SVG Export Plug-In . SVG Version: 6.00 Build 0)  -->
<svg version="1.1" id="Layer_1" xmlns="http://www.w3.org/2000/svg" xmlns:xlink="http://www.w3.org/1999/xlink" x="0px" y="0px"
	 viewBox="0 0 604.7 666.2" style="enable-background:new 0 0 604.7 666.2;" xml:space="preserve">
<style type="text/css">
	.st0{fill:#08A0F0;}
</style>
<g id="Layer_2_1_">
	<g id="Layer_1-2">
		<path class="st0" d="M603.8,281.2l-1.1-3.4c-7.9-24.6-37-59.2-77-59.2c-2.4,0-4.9,0.1-7.3,0.4c0,0,0,0,0,0
			c-16.2-24.9-41.7-38.9-72-38.9c-6.1,0-12.1,0.5-18.1,1.6c0,0,0,0,0,0c-20.5-21.8-44.7-33.6-70.7-34.4c0,0-0.1,0-0.1-0.1V77.1v-2.3
			v-1.8c0,0,0,0,0,0l-0.4-1.8l-0.5-2.2c-3.3-15.1-12-31.1-23.2-43c-16-17-37-26-60.8-26c-3.6,0-7.1,0.3-10.7,0.7
			c-33.6,3.7-52.3,21.7-62,36.1s-15.6,33.3-15.6,50.3v238.2c0,0,0,0.1-0.1,0L134.1,291l-0.8-0.6l-0.9-0.6c0,0,0,0,0,0l-1-0.5l-1-0.5
			l-0.1-0.1l-0.1,0c-12.6-6.4-26.5-9.7-40.7-9.6c-22.1,0-43,8.1-60.6,23.3C5.7,322.6,0.3,345.5,0,361.1c-0.3,15.9,4.5,32.9,13,45.6
			l1.4,2.3l1.2,1.9c0,0,0,0,0,0l1.7,1.5l2,1.8L196.7,578c6.3,6.4,27.8,27.1,60.4,47c18.9,11.7,39,21.2,60,28.4
			c24.1,8.3,49.5,12.6,75,12.8c13.4,0,29,0,44.3-1.4l38.1-4c5.5-0.6,11-1.5,16.4-2.6h0l2.3-0.5c0,0,0,0,0,0l1.8-0.5l2.1-0.6l0,0
			c17.7-5.3,34.5-13.4,49.7-23.8c32.1-22,51.9-52.1,57.3-86.9l0.3-1.7l0.2-1.4c0,0,0,0,0,0V283.9c0,0,0,0,0,0L603.8,281.2z
			 M424.2,607.4c-7.8,0.5-18.8,0.9-32,0c-15.2-1.1-60.8-4.9-108.1-35c-28-17.8-45.5-35.9-45.7-36.1l-0.4-0.4l-0.4-0.4L61.3,372.8
			c0,0,0,0,0,0c-1.3-2.7-2-5.5-2.3-8.5c-0.3-4.1,0.3-10.4,8.6-17.6c6.8-5.9,14.2-8.9,22-8.9c4.2,0,8.4,0.8,12.4,2.5c0,0,0,0,0,0
			l113.2,76.9l28,19.1c0,0,0.1,0,0.1,0V87.1c0,0,0,0,0,0c0.3-5,1.6-9.9,3.8-14.4c4.1-8.1,10.9-12.4,21.2-13.5
			c1.4-0.2,2.8-0.2,4.3-0.3c8.6,0,15.1,3.2,20.3,10.1c2.5,3.5,4.5,7.3,5.9,11.4c0,0,0,0,0,0V93v22v109.3h-0.1V308
			c0,16.1,12.6,29.7,28.7,30.1c16.6,0.4,30.2-12.9,30.2-29.4V206.2c0,0,0-0.1,0.1-0.1c11.2,1,20.9,8.4,27.9,15.9c0,0,0,0,0,0v123.1
			c0,16.3,13.2,29.4,29.5,29.4c16.2,0,29.4-13.2,29.4-29.4V239.1c0,0,0-0.1,0.1-0.1c0.7,0,1.3,0,1.9,0c7.9,0,18.9,2,26,18.5
			c0,0,0,0,0,0v124.4c0,16.3,13.2,29.4,29.4,29.5c16.3,0,29.4-13.2,29.5-29.4c0,0,0,0,0,0V277.2c0,0,0-0.1,0.1-0.1
			c2.9,0.1,9.5,0.8,16.6,9.2c2.1,2.4,3.9,5.1,5.4,7.9c0,0,0,0,0,0l0,243.8c0,0,0,0,0,0c-3.3,18.5-15.9,34.4-37.3,47.1
			c-13.9,8.2-24.3,12.6-33.1,14.2c0,0,0,0,0,0C468.2,602.9,450.8,605.5,424.2,607.4z"/>
	</g>
</g>
</svg>
