<?xml version="1.0" encoding="utf-8"?>
<!-- Generator: Adobe Illustrator 25.0.1, SVG Export Plug-In . SVG Version: 6.00 Build 0)  -->
<svg version="1.1" id="bg" xmlns="http://www.w3.org/2000/svg" xmlns:xlink="http://www.w3.org/1999/xlink" x="0px" y="0px"
	 viewBox="0 0 1920 1048.5" style="enable-background:new 0 0 1920 1048.5;" xml:space="preserve">
<style type="text/css">
	.st0{opacity:0.23;fill-rule:evenodd;clip-rule:evenodd;fill:#AEADAD;enable-background:new    ;}
	.st1{fill-rule:evenodd;clip-rule:evenodd;fill:#1A8DFF;}
	.st2{opacity:5.000000e-02;fill-rule:evenodd;clip-rule:evenodd;fill:#FFFFFF;enable-background:new    ;}
	.st3{opacity:4.000000e-02;fill-rule:evenodd;clip-rule:evenodd;fill:#FFFFFF;enable-background:new    ;}
</style>
<path id="shadow" class="st0" d="M0,0v1048.5c19.3-5.5,38.5-11,57.7-16.4h0c18.2-5.2,36.5-10.3,54.7-15.4
	c72.3-20.2,144.4-39.8,216.8-59h0c44.1-11.7,88.3-23.2,132.8-34.6c136.6-35,293.8-70.3,443-107c57.2-14.1,132.9-28.2,201.5-43.5
	c40.9-9.1,79.2-17.6,117.7-24.5c24.6-4.4,49.3-8.1,74.8-11c32.2-3.6,65.7-5.9,101.9-6.3c9.8-0.1,19.8-0.1,30,0.1
	c79.9,1.4,148.8,9.1,211.3,23.1c10.3,2.3,20.4,4.8,30.4,7.4c20,5.3,39.8,11.3,59.3,17.9c39.8,13.6,78.4,29.8,115.8,48.7
	c24.6,12.4,48.7,26,72.2,40.7V0H0z"/>
<path id="blue" class="st1" d="M1920,0v806.6c-55.8-19.6-112.6-35.5-170.1-47.8c-32.1-6.8-64.5-12.5-97-17
	c-33.2-4.6-66.6-7.9-100.2-10.1c-14.7-0.9-29.3-1.6-44.2-2.1c-35.8-1.1-73.4-0.5-107.6,1c-28.8,1.2-55.2,3.1-75.8,5
	c-8.1,0.8-17.3,1.7-27.6,2.9c-20.5,2.3-45.2,5.5-73.4,9.4c-186.2,25.5-525.6,81.3-841.5,135.2c-62.1,10.6-123.3,21.1-182.2,31.3
	c-17.1,2.9-34,5.9-50.6,8.8C97.4,932.3,47.1,941.1,0,949.3V0H1920z"/>
<g id="btm">
	<path class="st2" d="M57.7,1032L57.7,1032l92.2-108.9l114.2-134.8c0,0,0,0,0,0c15.7-18.5,13.4-46.3-5.2-62l-17.2-14.5
		c-18.6-15.7-46.3-13.4-62,5.2L0,929.2v20.1v99.2L57.7,1032z"/>
	<path class="st2" d="M382.8,883.2c-2.1,10.2-6.7,20.1-14,28.6l-39.5,45.9h0c-72.4,19.2-144.5,38.8-216.8,59l88.1-102.2l73.2-84.9
		c22.6-26.2,62.2-29.2,88.5-6.6c0,0,0.1,0.1,0.1,0.1C380,838.5,387.1,861.6,382.8,883.2z"/>
	<path class="st2" d="M1859,0c10.9,27.9,3.7,85.9-91.1,203.9l0,0L1299,737l-1.5,1.7c10.2-1.2,19.4-2.1,27.6-2.9
		c20.7-1.9,47-3.8,75.8-5c9.8-0.1,19.8-0.1,30,0.1c79.9,1.4,148.8,9.1,211.3,23.1l10.6-12.1L1920,438.2V0H1859z M1732,779.3l18-20.5
		L1920,565.5v241.1V828h-72.2L1732,779.3z"/>
</g>
<g id="top">
	<path class="st3" d="M425,0h148l-37.7,43.7c-22.6,26.3-62.3,29.2-88.5,6.6c0,0-0.1-0.1-0.1-0.1C431.7,37.1,424.3,18.5,425,0z"/>
	<path class="st3" d="M603.1,0H748L594.3,181.4c-15.7,18.6-43.5,20.9-62,5.2L515.1,172c-18.5-15.7-20.9-43.4-5.2-62c0,0,0,0,0,0
		L603.1,0z"/>
</g>
</svg>
