<?xml version="1.0" encoding="utf-8"?>
<!-- Generator: Adobe Illustrator 18.0.0, SVG Export Plug-In . SVG Version: 6.00 Build 0)  -->
<!DOCTYPE svg PUBLIC "-//W3C//DTD SVG 1.1//EN" "http://www.w3.org/Graphics/SVG/1.1/DTD/svg11.dtd">
<svg version="1.1" id="Layer_1" xmlns="http://www.w3.org/2000/svg" xmlns:xlink="http://www.w3.org/1999/xlink" x="0px" y="0px"
	 viewBox="0 512 1000 488" enable-background="new 0 512 1000 488" xml:space="preserve">
<g>
	<g>
		<g>
			<g id="XMLID_10143_">
				<g id="XMLID_10144_">
					<g id="XMLID_10216_">
						<g id="XMLID_10217_">
							<path id="XMLID_10218_" fill="#E2E2E4" d="M846.5,956.9v16.9c-13.8,7.2-29.5,11-45.5,11H118.5c-15.9,0-31.6-3.8-45.5-11
								v-16.9H846.5z"/>
						</g>
					</g>
					
						<linearGradient id="XMLID_2_" gradientUnits="userSpaceOnUse" x1="219.949" y1="988.9231" x2="219.949" y2="704.2902" gradientTransform="matrix(-1.4684 0 0 -1.4684 782.8218 1980.0822)">
						<stop  offset="0" style="stop-color:#F1F2F2"/>
						<stop  offset="1" style="stop-color:#D1D3D4"/>
					</linearGradient>
					<path id="XMLID_10215_" fill="url(#XMLID_2_)" d="M133.6,529.3c3.1-2.5,7.2-4,11.5-4h629.4c4.4,0,8.4,1.5,11.5,4
						c4.3,3.4,6.9,8.5,6.9,14.4v8.7v22.9v22.9v22.9V644v22.9v22.9v22.9v22.9v22.9v23.3v22.9v22.9v22.9v22.9v10v23.2v22.9v18.9
						c0,1.3-0.1,2.8-0.4,4c-1.8,8.2-9.1,14.4-17.9,14.4H145.1c-8.8,0-16.2-6.2-17.9-14.4c-0.3-1.3-0.4-2.6-0.4-4v-18.9v-22.9v-22.9
						v-10v-22.9V828v-23v-23.2v-22.9V736v-22.9v-22.9v-22.9v-23.2V621v-22.9V575v-22.9v-8.7C126.7,537.8,129.4,532.7,133.6,529.3z"
						/>
					<g id="XMLID_10209_">
						<g id="XMLID_10210_">
							<g>
								<g>
									<g>
										<defs>
											<rect id="SVGID_1_" x="73" y="956.9" width="773.4" height="16.9"/>
										</defs>
										<clipPath id="SVGID_2_">
											<use xlink:href="#SVGID_1_"  overflow="visible"/>
										</clipPath>
										<g id="XMLID_10213_" clip-path="url(#SVGID_2_)">
											<rect id="XMLID_10214_" x="73" y="956.9" fill="#F1F2F2" width="773.4" height="16.9"/>
										</g>
									</g>
								</g>
							</g>
						</g>
					</g>
					<g id="XMLID_10206_">
						<g id="XMLID_10207_">
							<path id="XMLID_10208_" fill="#E2E2E4" d="M118.5,984.6H801c15.9,0,31.6-3.8,45.5-11l0,0H73l0,0
								C86.9,981,102.5,984.6,118.5,984.6z"/>
						</g>
					</g>
					<g id="XMLID_10203_">
						<g id="XMLID_10204_">
							<path id="XMLID_10205_" fill="#E2E2E4" d="M394.4,967h130.7c4.4,0,8.1-3.7,8.1-8.1v-2.1H386.3v2.1
								C386.3,963.3,390,967,394.4,967z"/>
						</g>
					</g>
					<g id="XMLID_10149_">
						<g id="XMLID_10153_">
							<g id="XMLID_10154_">
								<g>
									<g>
										<g>
											<defs>
												<circle id="SVGID_3_" cx="459.8" cy="536.6" r="5.4"/>
											</defs>
											<clipPath id="SVGID_4_">
												<use xlink:href="#SVGID_3_"  overflow="visible"/>
											</clipPath>
											<g id="XMLID_10201_" clip-path="url(#SVGID_4_)">
												<rect id="XMLID_10202_" x="454.3" y="531" fill="#BCBDC0" width="10.9" height="0.1"/>
											</g>
										</g>
									</g>
								</g>
								<g>
									<g>
										<g>
											<defs>
												<circle id="SVGID_5_" cx="459.8" cy="536.6" r="5.4"/>
											</defs>
											<clipPath id="SVGID_6_">
												<use xlink:href="#SVGID_5_"  overflow="visible"/>
											</clipPath>
											<g id="XMLID_10199_" clip-path="url(#SVGID_6_)">
												<rect id="XMLID_10200_" x="454.3" y="531.2" fill="#BDBEC1" width="10.9" height="0.4"/>
											</g>
										</g>
									</g>
								</g>
								<g>
									<g>
										<g>
											<defs>
												<circle id="SVGID_7_" cx="459.8" cy="536.6" r="5.4"/>
											</defs>
											<clipPath id="SVGID_8_">
												<use xlink:href="#SVGID_7_"  overflow="visible"/>
											</clipPath>
											<g id="XMLID_10197_" clip-path="url(#SVGID_8_)">
												<rect id="XMLID_10198_" x="454.3" y="531.8" fill="#BEBFC2" width="10.9" height="0.4"/>
											</g>
										</g>
									</g>
								</g>
								<g>
									<g>
										<g>
											<defs>
												<circle id="SVGID_9_" cx="459.8" cy="536.6" r="5.4"/>
											</defs>
											<clipPath id="SVGID_10_">
												<use xlink:href="#SVGID_9_"  overflow="visible"/>
											</clipPath>
											<g id="XMLID_10195_" clip-path="url(#SVGID_10_)">
												<rect id="XMLID_10196_" x="454.3" y="532.2" fill="#BFC0C3" width="10.9" height="0.4"/>
											</g>
										</g>
									</g>
								</g>
								<g>
									<g>
										<g>
											<defs>
												<circle id="SVGID_11_" cx="459.8" cy="536.6" r="5.4"/>
											</defs>
											<clipPath id="SVGID_12_">
												<use xlink:href="#SVGID_11_"  overflow="visible"/>
											</clipPath>
											<g id="XMLID_10193_" clip-path="url(#SVGID_12_)">
												<rect id="XMLID_10194_" x="454.3" y="532.8" fill="#C0C1C4" width="10.9" height="0.4"/>
											</g>
										</g>
									</g>
								</g>
								<g>
									<g>
										<g>
											<defs>
												<circle id="SVGID_13_" cx="459.8" cy="536.6" r="5.4"/>
											</defs>
											<clipPath id="SVGID_14_">
												<use xlink:href="#SVGID_13_"  overflow="visible"/>
											</clipPath>
											<g id="XMLID_10191_" clip-path="url(#SVGID_14_)">
												<rect id="XMLID_10192_" x="454.3" y="533.2" fill="#C1C2C5" width="10.9" height="0.4"/>
											</g>
										</g>
									</g>
								</g>
								<g>
									<g>
										<g>
											<defs>
												<circle id="SVGID_15_" cx="459.8" cy="536.6" r="5.4"/>
											</defs>
											<clipPath id="SVGID_16_">
												<use xlink:href="#SVGID_15_"  overflow="visible"/>
											</clipPath>
											<g id="XMLID_10189_" clip-path="url(#SVGID_16_)">
												<rect id="XMLID_10190_" x="454.3" y="533.8" fill="#C2C3C6" width="10.9" height="0.4"/>
											</g>
										</g>
									</g>
								</g>
								<g>
									<g>
										<g>
											<defs>
												<circle id="SVGID_17_" cx="459.8" cy="536.6" r="5.4"/>
											</defs>
											<clipPath id="SVGID_18_">
												<use xlink:href="#SVGID_17_"  overflow="visible"/>
											</clipPath>
											<g id="XMLID_10187_" clip-path="url(#SVGID_18_)">
												<rect id="XMLID_10188_" x="454.3" y="534.3" fill="#C3C4C7" width="10.9" height="0.4"/>
											</g>
										</g>
									</g>
								</g>
								<g>
									<g>
										<g>
											<defs>
												<circle id="SVGID_19_" cx="459.8" cy="536.6" r="5.4"/>
											</defs>
											<clipPath id="SVGID_20_">
												<use xlink:href="#SVGID_19_"  overflow="visible"/>
											</clipPath>
											<g id="XMLID_10185_" clip-path="url(#SVGID_20_)">
												<rect id="XMLID_10186_" x="454.3" y="534.7" fill="#C4C5C8" width="10.9" height="0.4"/>
											</g>
										</g>
									</g>
								</g>
								<g>
									<g>
										<g>
											<defs>
												<circle id="SVGID_21_" cx="459.8" cy="536.6" r="5.4"/>
											</defs>
											<clipPath id="SVGID_22_">
												<use xlink:href="#SVGID_21_"  overflow="visible"/>
											</clipPath>
											<g id="XMLID_10183_" clip-path="url(#SVGID_22_)">
												<rect id="XMLID_10184_" x="454.3" y="535.3" fill="#C5C6C9" width="10.9" height="0.4"/>
											</g>
										</g>
									</g>
								</g>
								<g>
									<g>
										<g>
											<defs>
												<circle id="SVGID_23_" cx="459.8" cy="536.6" r="5.4"/>
											</defs>
											<clipPath id="SVGID_24_">
												<use xlink:href="#SVGID_23_"  overflow="visible"/>
											</clipPath>
											<g id="XMLID_10181_" clip-path="url(#SVGID_24_)">
												<rect id="XMLID_10182_" x="454.3" y="535.7" fill="#C6C7CA" width="10.9" height="0.4"/>
											</g>
										</g>
									</g>
								</g>
								<g>
									<g>
										<g>
											<defs>
												<circle id="SVGID_25_" cx="459.8" cy="536.6" r="5.4"/>
											</defs>
											<clipPath id="SVGID_26_">
												<use xlink:href="#SVGID_25_"  overflow="visible"/>
											</clipPath>
											<g id="XMLID_10179_" clip-path="url(#SVGID_26_)">
												<rect id="XMLID_10180_" x="454.3" y="536.3" fill="#C7C8CB" width="10.9" height="0.4"/>
											</g>
										</g>
									</g>
								</g>
								<g>
									<g>
										<g>
											<defs>
												<circle id="SVGID_27_" cx="459.8" cy="536.6" r="5.4"/>
											</defs>
											<clipPath id="SVGID_28_">
												<use xlink:href="#SVGID_27_"  overflow="visible"/>
											</clipPath>
											<g id="XMLID_10177_" clip-path="url(#SVGID_28_)">
												<rect id="XMLID_10178_" x="454.3" y="536.8" fill="#C8C9CC" width="10.9" height="0.4"/>
											</g>
										</g>
									</g>
								</g>
								<g>
									<g>
										<g>
											<defs>
												<circle id="SVGID_29_" cx="459.8" cy="536.6" r="5.4"/>
											</defs>
											<clipPath id="SVGID_30_">
												<use xlink:href="#SVGID_29_"  overflow="visible"/>
											</clipPath>
											<g id="XMLID_10175_" clip-path="url(#SVGID_30_)">
												<rect id="XMLID_10176_" x="454.3" y="537.4" fill="#C9CACD" width="10.9" height="0.4"/>
											</g>
										</g>
									</g>
								</g>
								<g>
									<g>
										<g>
											<defs>
												<circle id="SVGID_31_" cx="459.8" cy="536.6" r="5.4"/>
											</defs>
											<clipPath id="SVGID_32_">
												<use xlink:href="#SVGID_31_"  overflow="visible"/>
											</clipPath>
											<g id="XMLID_10173_" clip-path="url(#SVGID_32_)">
												<rect id="XMLID_10174_" x="454.3" y="537.8" fill="#CACBCE" width="10.9" height="0.4"/>
											</g>
										</g>
									</g>
								</g>
								<g>
									<g>
										<g>
											<defs>
												<circle id="SVGID_33_" cx="459.8" cy="536.6" r="5.4"/>
											</defs>
											<clipPath id="SVGID_34_">
												<use xlink:href="#SVGID_33_"  overflow="visible"/>
											</clipPath>
											<g id="XMLID_10171_" clip-path="url(#SVGID_34_)">
												<rect id="XMLID_10172_" x="454.3" y="538.2" fill="#CCCCCF" width="10.9" height="0.4"/>
											</g>
										</g>
									</g>
								</g>
								<g>
									<g>
										<g>
											<defs>
												<circle id="SVGID_35_" cx="459.8" cy="536.6" r="5.4"/>
											</defs>
											<clipPath id="SVGID_36_">
												<use xlink:href="#SVGID_35_"  overflow="visible"/>
											</clipPath>
											<g id="XMLID_10169_" clip-path="url(#SVGID_36_)">
												<rect id="XMLID_10170_" x="454.3" y="538.8" fill="#CDCDCF" width="10.9" height="0.4"/>
											</g>
										</g>
									</g>
								</g>
								<g>
									<g>
										<g>
											<defs>
												<circle id="SVGID_37_" cx="459.8" cy="536.6" r="5.4"/>
											</defs>
											<clipPath id="SVGID_38_">
												<use xlink:href="#SVGID_37_"  overflow="visible"/>
											</clipPath>
											<g id="XMLID_10167_" clip-path="url(#SVGID_38_)">
												<rect id="XMLID_10168_" x="454.3" y="539.3" fill="#CECED0" width="10.9" height="0.4"/>
											</g>
										</g>
									</g>
								</g>
								<g>
									<g>
										<g>
											<defs>
												<circle id="SVGID_39_" cx="459.8" cy="536.6" r="5.4"/>
											</defs>
											<clipPath id="SVGID_40_">
												<use xlink:href="#SVGID_39_"  overflow="visible"/>
											</clipPath>
											<g id="XMLID_10165_" clip-path="url(#SVGID_40_)">
												<rect id="XMLID_10166_" x="454.3" y="539.8" fill="#CFCFD1" width="10.9" height="0.4"/>
											</g>
										</g>
									</g>
								</g>
								<g>
									<g>
										<g>
											<defs>
												<circle id="SVGID_41_" cx="459.8" cy="536.6" r="5.4"/>
											</defs>
											<clipPath id="SVGID_42_">
												<use xlink:href="#SVGID_41_"  overflow="visible"/>
											</clipPath>
											<g id="XMLID_10163_" clip-path="url(#SVGID_42_)">
												<rect id="XMLID_10164_" x="454.3" y="540.3" fill="#D0D0D2" width="10.9" height="0.4"/>
											</g>
										</g>
									</g>
								</g>
								<g>
									<g>
										<g>
											<defs>
												<circle id="SVGID_43_" cx="459.8" cy="536.6" r="5.4"/>
											</defs>
											<clipPath id="SVGID_44_">
												<use xlink:href="#SVGID_43_"  overflow="visible"/>
											</clipPath>
											<g id="XMLID_10161_" clip-path="url(#SVGID_44_)">
												<rect id="XMLID_10162_" x="454.3" y="540.9" fill="#D1D1D3" width="10.9" height="0.4"/>
											</g>
										</g>
									</g>
								</g>
								<g>
									<g>
										<g>
											<defs>
												<circle id="SVGID_45_" cx="459.8" cy="536.6" r="5.4"/>
											</defs>
											<clipPath id="SVGID_46_">
												<use xlink:href="#SVGID_45_"  overflow="visible"/>
											</clipPath>
											<g id="XMLID_10159_" clip-path="url(#SVGID_46_)">
												<rect id="XMLID_10160_" x="454.3" y="541.3" fill="#D2D2D4" width="10.9" height="0.4"/>
											</g>
										</g>
									</g>
								</g>
								<g>
									<g>
										<g>
											<defs>
												<circle id="SVGID_47_" cx="459.8" cy="536.6" r="5.4"/>
											</defs>
											<clipPath id="SVGID_48_">
												<use xlink:href="#SVGID_47_"  overflow="visible"/>
											</clipPath>
											<g id="XMLID_10157_" clip-path="url(#SVGID_48_)">
												<rect id="XMLID_10158_" x="454.3" y="541.8" fill="#D3D3D5" width="10.9" height="0.1"/>
											</g>
										</g>
									</g>
								</g>
							</g>
						</g>
						<g id="XMLID_10150_">
							<g id="XMLID_10151_">
								<circle id="XMLID_10152_" fill="#FFFFFF" cx="459.8" cy="536.6" r="1.9"/>
							</g>
						</g>
					</g>
					<g id="XMLID_10145_">
						<g id="XMLID_10146_">
							<g id="XMLID_10147_">
								<path id="XMLID_10148_" fill="#1A9EFE" d="M152.7,940h614.1c4.1,0,7.5-3.4,7.5-7.5V555c0-4.1-3.4-7.5-7.5-7.5H152.7
									c-4.1,0-7.5,3.4-7.5,7.5v377.5C145.2,936.6,148.5,940,152.7,940z"/>
							</g>
						</g>
					</g>
				</g>
			</g>
			
				<linearGradient id="SVGID_49_" gradientUnits="userSpaceOnUse" x1="102.501" y1="776.5439" x2="-72.7948" y2="699.8152" gradientTransform="matrix(-1.4684 0 0 -1.4684 782.8218 1980.0822)">
				<stop  offset="0" style="stop-color:#FFFFFF;stop-opacity:0"/>
				<stop  offset="1" style="stop-color:#231F20"/>
			</linearGradient>
			<path fill="url(#SVGID_49_)" d="M73,956.9h55.7c-0.7-1.3-1.2-2.8-1.5-4.3c-0.3-1.3-0.4-2.6-0.4-4v-18.9v-23.1v-22.9v-10v-22.9
				V828v-23v-23.2v-22.9V736v-22.9v-22.9v-22.9v-23.2V621v-22.9V575v-22.9v-8.7c0-5.9,2.6-11,6.9-14.4c3.1-2.5,7.2-4,11.5-4h629.4
				c4.4,0,8.4,1.5,11.5,4c4.3,3.4,6.9,8.5,6.9,14.4v8.7V575v23v22.9v22.9v22.9v22.9v22.9v22.9v22.9v23.5v22.9v22.9v22.9v22.9v10
				v23.2v22.9v18.9c0,1.3-0.1,2.8-0.4,4c-0.3,1.5-0.9,2.9-1.5,4.3h55.7l0,0l0,0v16.9l0,0c-13.8,7.2-29.5,11-45.5,11H118.5
				c-15.9,0-31.6-3.8-45.4-11l0,0L73,956.9L73,956.9L73,956.9z"/>
			
				<linearGradient id="SVGID_50_" gradientUnits="userSpaceOnUse" x1="379.3099" y1="790.429" x2="529.3474" y2="752.0439" gradientTransform="matrix(-1.4684 0 0 -1.4684 782.8218 1980.0822)">
				<stop  offset="0" style="stop-color:#FFFFFF;stop-opacity:0"/>
				<stop  offset="1" style="stop-color:#231F20"/>
			</linearGradient>
			<path fill="url(#SVGID_50_)" d="M73,956.9h55.7c-0.7-1.3-1.2-2.8-1.5-4.3c-0.3-1.3-0.4-2.6-0.4-4v-18.9v-23.1v-22.9v-10v-22.9
				V828v-23v-23.2v-22.9V736v-22.9v-22.9v-22.9v-23.2V621v-22.9V575v-22.9v-8.7c0-5.9,2.6-11,6.9-14.4c3.1-2.5,7.2-4,11.5-4h629.4
				c4.4,0,8.4,1.5,11.5,4c4.3,3.4,6.9,8.5,6.9,14.4v8.7V575v23v22.9v22.9v22.9v22.9v22.9v22.9v22.9v23.5v22.9v22.9v22.9v22.9v10
				v23.2v22.9v18.9c0,1.3-0.1,2.8-0.4,4c-0.3,1.5-0.9,2.9-1.5,4.3h55.7l0,0l0,0v16.9l0,0c-13.8,7.2-29.5,11-45.5,11H118.5
				c-15.9,0-31.6-3.8-45.4-11l0,0L73,956.9L73,956.9L73,956.9z"/>
		</g>
		<g>
			<g id="XMLID_10125_">
				<circle id="XMLID_10142_" opacity="0.15" fill="#FFFFFF" enable-background="new    " cx="951.1" cy="657.3" r="5.6"/>
				<g id="XMLID_10126_">
					<g id="XMLID_10137_">
						<g id="XMLID_10138_">
							<g id="XMLID_10139_">
								<g id="XMLID_10140_">
									<g id="XMLID_10141_">
										<path fill="#F1F2F2" d="M752.7,986.8h213.2c13.7,0,24.7-11,24.7-24.7V650.9c0-13.7-11-24.7-24.7-24.7H752.7
											c-13.7,0-24.7,11-24.7,24.7v311.3C728,975.8,739.1,986.8,752.7,986.8z"/>
									</g>
								</g>
							</g>
						</g>
					</g>
					<g id="XMLID_10132_">
						<path id="XMLID_10136_" fill="#BCBEC0" d="M853.2,638.2c0-0.1,0-0.3,0-0.3c0-0.1,0-0.3,0-0.3c0-0.1,0-0.3,0.1-0.3
							c0-0.1,0.1-0.3,0.1-0.3c0-0.1,0.1-0.3,0.1-0.3c0.1-0.1,0.1-0.3,0.3-0.3c0.1-0.1,0.1-0.3,0.3-0.3c0.1-0.1,0.3-0.3,0.4-0.3
							c0.1-0.1,0.3-0.3,0.6-0.3c0.3-0.1,0.6-0.3,0.9-0.3c0.3,0,0.6-0.1,0.9-0.1s0.6,0,0.9,0.1c0.3,0.1,0.6,0.1,0.9,0.3
							c0.1,0.1,0.4,0.3,0.6,0.3c0.1,0.1,0.3,0.3,0.4,0.3c0.1,0.1,0.1,0.3,0.3,0.3c0.1,0.1,0.1,0.3,0.3,0.3c0,0.1,0.1,0.3,0.1,0.3
							c0,0.1,0.1,0.3,0.1,0.3c0,0.1,0.1,0.3,0.1,0.3c0,0.1,0,0.3,0,0.3c0,0.1,0,0.3,0,0.3v0.1v0.1c0,0.1,0,0.3,0,0.3
							c0,0.1,0,0.3,0,0.3c0,0.1,0,0.3-0.1,0.3c0,0.1-0.1,0.3-0.1,0.3c0,0.1-0.1,0.3-0.1,0.3c0,0.1-0.1,0.3-0.3,0.3
							c-0.1,0.1-0.1,0.3-0.3,0.3c-0.1,0.1-0.3,0.3-0.4,0.3c-0.1,0.1-0.3,0.3-0.6,0.3c-0.3,0.1-0.6,0.3-0.9,0.3
							c-0.3,0.1-0.6,0.1-0.9,0.1c-0.3,0-0.6,0-0.9-0.1c-0.3-0.1-0.6-0.1-0.9-0.3c-0.1-0.1-0.4-0.3-0.6-0.3c-0.1-0.1-0.3-0.3-0.4-0.3
							c-0.1-0.1-0.1-0.3-0.3-0.3c-0.1-0.1-0.1-0.3-0.3-0.3c0-0.1-0.1-0.3-0.1-0.3c0-0.1-0.1-0.3-0.1-0.3c0-0.1-0.1-0.3-0.1-0.3
							c0-0.1,0-0.3,0-0.3c0-0.1,0-0.3,0-0.3V638.2C853.2,638.2,853.2,638.2,853.2,638.2z"/>
						<g id="XMLID_10133_">
							<g id="XMLID_10134_">
								<circle id="XMLID_10135_" fill="#FFFFFF" cx="857.1" cy="638.4" r="1.3"/>
							</g>
						</g>
					</g>
					<g id="XMLID_10127_">
						<g id="XMLID_10128_">
							<g id="XMLID_10129_">
								<g id="XMLID_10130_">
									<path id="XMLID_10131_" fill="#1A9EFE" d="M748,964.8h222.5c4.1,0,7.3-3.2,7.3-7.3V655.6c0-4.1-3.2-7.3-7.3-7.3H748
										c-4.1,0-7.3,3.2-7.3,7.3v301.9C740.7,961.6,744.1,964.8,748,964.8z"/>
								</g>
							</g>
						</g>
					</g>
				</g>
			</g>
		</g>
		<g>
			<g id="XMLID_10112_">
				<path id="XMLID_10124_" fill="#1A9EFE" d="M20.6,711.5v8.4h129.8v-8.4c0-6.3-5.1-11.6-11.3-11.6h-17.2c-1.6,0-2.9,1.3-2.9,3.1
					v4.3c0,1.6-1.3,3.1-2.9,3.1H55.2c-1.6,0-2.9-1.3-2.9-3.1V703c0-1.6-1.3-3.1-2.9-3.1H32C25.7,700.1,20.6,705.2,20.6,711.5z"/>
				<g>
					<g id="XMLID_10123_">
						<path fill="#F1F2F2" d="M10.6,763l0.6-0.1v-57c0-10.3,8.4-18.6,18.6-18.6h111.5c10.3,0,18.6,8.4,18.6,18.6v21.3l0,0
							c0.6,0.1,1,0.6,1,1.2v9.4c0,0.6-0.4,1.2-1,1.2l0,0v10.6l0,0c0.6,0.1,1,0.6,1,1.2v23.8c0,0.6-0.4,1.2-1,1.2l0,0v5.6l0,0
							c0.6,0.1,1,0.6,1,1.2v23.8c0,0.6-0.4,1.2-1,1.2l0,0v160.2c0,10.3-8.4,18.6-18.6,18.6H29.8c-10.3,0-18.6-8.4-18.6-18.6V799.3
							l-0.6-0.1c-0.6-0.1-1-0.6-1-1.2v-33.6C9.5,763.8,10,763.2,10.6,763z"/>
					</g>
					<path id="XMLID_10122_" fill="#1A9EFE" d="M20.6,711.5v251.1c0,6.3,5.1,11.6,11.3,11.6h107c6.3,0,11.3-5.1,11.3-11.6V711.5
						c0-6.3-5.1-11.6-11.3-11.6h-17c-1.6,0-2.9,1.3-2.9,3.1v4.3c0,1.6-1.3,3.1-2.9,3.1H55.2c-1.6,0-2.9-1.3-2.9-3.1V703
						c0-1.6-1.3-3.1-2.9-3.1H32C25.7,700.1,20.6,705.2,20.6,711.5z"/>
					<g id="XMLID_10118_">
						<path id="XMLID_10119_" fill="#ECECED" d="M149.1,706.5c0-0.1-0.1-0.2-0.2-0.3c-0.9-1.7-2.2-3.1-3.7-4.2
							c-1.8-1.2-3.9-1.9-6.2-1.9h-17.2c-1,0-2,0.6-2.5,1.4l0,0l0,0c-0.3,0.5-0.4,1-0.4,1.6v4.3c0,0.5-0.1,0.9-0.3,1.3l0,0v0.1
							c0,0,0,0,0,0.1c-0.5,0.9-1.4,1.6-2.5,1.6H55.2c-1.6,0-2.9-1.3-2.9-3.1v-4.3c0-1.6-1.3-3.1-2.9-3.1H32
							c-6.3,0-11.3,5.1-11.3,11.6v251.1c0,1.8,0.4,3.5,1.1,5c0,0.1,0.1,0.2,0.1,0.3c0.1,0.2,0.2,0.3,0.3,0.5c2,3.5,5.6,5.8,9.8,5.8
							h107c1.5,0,2.9-0.3,4.2-0.8c3-1.2,5.4-3.7,6.5-6.8c0.4-1.2,0.7-2.6,0.7-4v-251C150.3,709.8,149.9,708.1,149.1,706.5z
							 M21.6,962.6V711.5c0-5.7,4.7-10.6,10.4-10.6h17.2c1.2,0,2.1,0.9,2.1,2.1v4.3c0,2.2,1.8,4,4,4h60.6c2.2,0,4-1.8,4-4V703
							c0-1.2,0.9-2.1,2.1-2.1h17.2c2.2,0,4.3,0.7,6,1.9c2.6,1.9,4.4,5.1,4.4,8.7v251.1c0,1.5-0.3,2.9-0.8,4.2
							c-1.6,3.8-5.3,6.4-9.5,6.4H32C26.3,973.2,21.6,968.5,21.6,962.6z"/>
					</g>
				</g>
				<path id="XMLID_10116_" opacity="0.38" fill="#58595B" enable-background="new    " d="M74.4,705.6h22c0.4,0,0.7-0.3,0.7-0.7
					v-0.3c0-0.4-0.3-0.7-0.7-0.7h-22c-0.4,0-0.7,0.3-0.7,0.7v0.3C73.9,705.3,74.2,705.6,74.4,705.6z"/>
				
					<ellipse id="XMLID_10114_" opacity="0.38" fill="#58595B" enable-background="new    " cx="68.6" cy="704.8" rx="1.6" ry="1.8"/>
				<ellipse id="XMLID_10113_" fill="#ECECED" cx="68.6" cy="704.8" rx="0.9" ry="0.9"/>
			</g>
		</g>
	</g>
</g>
<g>
	<path fill="#FFFFFF" d="M456.2,903.6c0.7,0.1,1.5,0.3,2.1,0.3c0.4,0,0.9,0,1.3,0c1.2,0,2.3-0.1,3.5-0.3
		C623.2,871,612,704.5,606.6,662.3c-0.7-5.9-5.3-10.7-11.5-12.5L464.3,614c-1.5-0.4-3.1-0.6-4.7-0.6c-0.4,0-0.9,0-1.3,0
		c-1.2,0-2.2,0.3-3.2,0.6l-130.8,35.8c-6.2,1.8-10.7,6.6-11.5,12.5C307.3,704.5,296.2,871,456.2,903.6z"/>
	<path opacity="0.3" fill="#2BB5FF" enable-background="new    " d="M588,667.9l-128.2-35.1l0,0v79c2.9-0.6,5.7-0.9,8.7-1.2
		c6.2-0.4,12.3,0.3,18.5,1c5,0.7,10,1.8,14.8,2.9c4.6,1,9.4,1.9,13.8,3.7c5.1,2.1,10,5,13.5,9.4c3.7,4.6,6,9,8.1,14.4
		c1.3,3.5,2.2,7.3,2.9,11c0.7,4.1,1.5,8.5,1,12.8c-0.6,7.3-2.6,14.5-6.9,20.6c-4.4,6.2-9.7,11.2-16.2,15.1c-12,7.5-26.3,11-40.2,12
		c-5.9,0.4-11.9,0.3-17.9-0.6v71.5l0,0c33-6.8,60.2-20.3,80.8-40.4c17-16.6,30-38,38.2-63.7C593.4,735.6,590.5,688.8,588,667.9z"/>
	<g>
		<g id="XMLID_84_">
			<g id="XMLID_10068_">
				<g id="XMLID_10069_">
					<g id="XMLID_10078_">
						<path id="XMLID_10079_" fill="#040E29" d="M380.8,791.4h-17.2c-8.8,0-15.9-7-15.9-15.9v-18.9c0-8.8,7-15.9,15.9-15.9h17.2
							V791.4z"/>
					</g>
					<g id="XMLID_10070_">
						<g id="XMLID_10075_">
							<g id="XMLID_10076_">
								<path id="XMLID_10077_" fill="#040E29" d="M348.9,781.6c0,0-0.6-1.3-1.5-3.4c-0.4-1.2-1.2-2.3-1.8-4c-0.3-0.7-0.7-1.8-1-2.6
									c-0.3-0.9-0.7-1.9-1.2-2.9c-0.3-1-0.7-2.1-1.2-3.1c-0.1-0.4-0.4-1.2-0.6-1.8s-0.3-1.2-0.4-1.8c-0.3-1.2-0.7-2.3-1-3.5
									c-0.1-0.6-0.3-1.3-0.4-1.9s-0.3-1.3-0.4-1.9c-0.1-0.7-0.3-1.3-0.4-2.1c-0.1-0.3-0.1-0.7-0.1-1c-0.1-0.3-0.1-0.7-0.1-1
									c-0.1-1.3-0.4-2.6-0.7-4.1c-0.1-1.3-0.3-2.8-0.4-4.1l-0.1-1.3c0-0.4,0-0.7,0-1.2l-0.1-2.1l-0.1-2.1c0-0.7,0-1.3,0.1-2.1
									c0-0.7,0-1.3,0.1-2.1v-1.2c0-0.4,0.1-0.7,0.1-1.2c0.1-1.3,0.3-2.8,0.4-4.1s0.4-2.6,0.6-4c0.1-1.3,0.4-2.6,0.7-3.8
									c0.1-0.6,0.3-1.2,0.4-1.9c0.1-0.3,0.1-0.6,0.1-0.9c0.1-0.3,0.1-0.6,0.3-0.9c0.3-1.2,0.7-2.3,1-3.4c0.1-0.3,0.1-0.4,0.1-0.7
									c0.1-0.3,0.1-0.4,0.3-0.7c0.1-0.4,0.4-1,0.4-1.5c0.4-1,0.7-2.1,1-2.9c0.4-0.9,0.7-1.8,1-2.5s0.6-1.5,0.9-2.2
									s0.6-1.3,0.9-1.8c1-2.2,1.6-3.5,1.6-3.5l4.6,2.1c0,0-0.4,1.2-1.3,3.4c-0.1,0.4-0.4,1.2-0.7,1.8c-0.1,0.7-0.4,1.3-0.7,2.2
									c-0.3,0.7-0.4,1.6-0.7,2.3c-0.3,0.9-0.4,1.8-0.7,2.6c-0.1,0.4-0.3,1-0.4,1.5c-0.1,0.1-0.1,0.4-0.1,0.7
									c-0.1,0.3-0.1,0.4-0.1,0.7c-0.1,1-0.4,2.1-0.7,3.2c-0.1,0.3-0.1,0.6-0.1,0.7c-0.1,0.3-0.1,0.6-0.1,0.9
									c-0.1,0.6-0.1,1.2-0.3,1.8c-0.1,1.2-0.4,2.3-0.4,3.5c-0.1,1.2-0.3,2.5-0.4,3.7c0,1.3-0.1,2.5-0.1,3.8c0,0.3,0,0.6,0,1v1
									c0,0.6,0,1.3,0.1,1.9c0,0.6,0,1.3,0.1,2.1l0.1,1.9l0.1,1.9c0,0.3,0.1,0.6,0.1,1l0.1,1c0.1,1.3,0.4,2.6,0.6,3.8
									c0.3,1.3,0.6,2.5,0.7,3.7c0.1,0.3,0.1,0.6,0.1,0.9c0.1,0.3,0.1,0.6,0.1,0.9c0.1,0.6,0.3,1.2,0.4,1.8s0.3,1.2,0.4,1.8
									s0.3,1.2,0.4,1.8c0.4,1.2,0.7,2.2,1.2,3.2c0.1,0.4,0.4,1.2,0.6,1.6c0.1,0.4,0.4,1,0.6,1.5c0.4,1,0.7,1.9,1.2,2.9
									c0.4,0.9,0.7,1.8,1.2,2.6c0.4,0.7,0.7,1.6,1.2,2.3c0.6,1.3,1.3,2.6,1.9,3.8c1.2,2.1,1.8,3.2,1.8,3.2L348.9,781.6z"/>
							</g>
						</g>
						<g id="XMLID_10071_">
							<g id="XMLID_10072_">
								<g id="XMLID_10073_">
									<circle id="XMLID_10074_" fill="#040E29" cx="349.5" cy="695.7" r="7.9"/>
								</g>
							</g>
						</g>
					</g>
				</g>
			</g>
			<g id="XMLID_10055_">
				<g id="XMLID_10056_">
					<g id="XMLID_10065_">
						<path id="XMLID_10067_" fill="#040E29" d="M538.8,791.4H556c8.8,0,15.9-7,15.9-15.9v-18.9c0-8.8-7-15.9-15.9-15.9h-17.2V791.4
							z"/>
					</g>
					<g id="XMLID_10057_">
						<g id="XMLID_10062_">
							<g id="XMLID_10063_">
								<path id="XMLID_10064_" fill="#040E29" d="M570.6,781.6c0,0,0.6-1.3,1.5-3.4c0.4-1.2,1.2-2.3,1.8-4c0.3-0.7,0.7-1.8,1-2.6
									c0.3-0.9,0.7-1.9,1.2-2.9c0.3-1,0.7-2.1,1.2-3.1c0.1-0.4,0.4-1.2,0.6-1.8s0.3-1.2,0.4-1.8c0.3-1.2,0.7-2.3,1-3.5
									c0.1-0.6,0.3-1.3,0.4-1.9c0.1-0.6,0.3-1.3,0.4-1.9c0.1-0.7,0.3-1.3,0.4-2.1c0.1-0.3,0.1-0.7,0.1-1c0.1-0.3,0.1-0.7,0.1-1
									c0.1-1.3,0.4-2.6,0.7-4.1c0.1-1.3,0.3-2.8,0.4-4.1l0.1-1.2c0-0.4,0-0.7,0-1.2l0.1-2.1l0.1-2.1c0-0.7,0-1.3-0.1-2.1
									c0-0.7,0-1.3-0.1-2.1v-1.2c0-0.4-0.1-0.7-0.1-1.2c-0.1-1.3-0.3-2.8-0.4-4.1c-0.1-1.3-0.4-2.6-0.6-4
									c-0.1-1.3-0.4-2.6-0.7-3.8c-0.1-0.6-0.3-1.2-0.4-1.9c-0.1-0.3-0.1-0.6-0.1-0.9c-0.1-0.3-0.1-0.6-0.3-0.9
									c-0.3-1.2-0.7-2.3-1-3.4c-0.1-0.3-0.1-0.4-0.1-0.7c-0.1-0.3-0.1-0.4-0.3-0.7c-0.1-0.4-0.4-1-0.4-1.5c-0.4-1-0.7-2.1-1-2.9
									c-0.4-0.9-0.7-1.8-1-2.5s-0.6-1.5-0.9-2.2s-0.6-1.3-0.9-1.8c-1-2.2-1.6-3.5-1.6-3.5l-4.6,2.1c0,0,0.4,1.2,1.3,3.4
									c0.1,0.4,0.4,1.2,0.7,1.8c0.1,0.7,0.4,1.3,0.7,2.2c0.3,0.7,0.4,1.6,0.7,2.3c0.3,0.9,0.4,1.8,0.7,2.6c0.1,0.4,0.3,1,0.4,1.5
									c0.1,0.1,0.1,0.4,0.1,0.7s0.1,0.4,0.1,0.7c0.1,1,0.4,2.1,0.7,3.2c0.1,0.3,0.1,0.6,0.1,0.7c0.1,0.3,0.1,0.6,0.1,0.9
									c0.1,0.6,0.1,1.2,0.3,1.8c0.1,1.2,0.4,2.3,0.4,3.5c0.1,1.2,0.3,2.5,0.4,3.7c0,1.3,0.1,2.5,0.1,3.8c0,0.3,0,0.6,0,1v1
									c0,0.6,0,1.3-0.1,1.9c0,0.6,0,1.3-0.1,2.1l-0.1,1.9l-0.1,1.9c0,0.3-0.1,0.6-0.1,1l-0.1,1c-0.1,1.3-0.4,2.6-0.6,3.8
									c-0.3,1.3-0.6,2.5-0.7,3.7c-0.1,0.3-0.1,0.6-0.1,0.9c-0.1,0.3-0.1,0.6-0.1,0.9c-0.1,0.6-0.3,1.2-0.4,1.8s-0.3,1.2-0.4,1.8
									c-0.1,0.6-0.3,1.2-0.4,1.8c-0.4,1.2-0.7,2.2-1.2,3.2c-0.1,0.4-0.4,1.2-0.6,1.6c-0.1,0.4-0.4,1-0.6,1.5
									c-0.4,1-0.7,1.9-1.2,2.9c-0.4,0.9-0.7,1.8-1.2,2.6c-0.4,0.7-0.7,1.6-1.2,2.3c-0.6,1.3-1.3,2.6-1.9,3.8
									c-1.2,2.1-1.8,3.2-1.8,3.2L570.6,781.6z"/>
							</g>
						</g>
						<g id="XMLID_10058_">
							<g id="XMLID_10059_">
								<g id="XMLID_10060_">
									<circle id="XMLID_10061_" fill="#040E29" cx="570" cy="695.7" r="7.9"/>
								</g>
							</g>
						</g>
					</g>
				</g>
			</g>
			
				<radialGradient id="XMLID_3_" cx="311.4612" cy="812.7507" r="103.8292" gradientTransform="matrix(1.4684 0 0 1.4684 3.051758e-005 -535.171)" gradientUnits="userSpaceOnUse">
				<stop  offset="0" style="stop-color:#F26522"/>
				<stop  offset="1" style="stop-color:#C82431"/>
			</radialGradient>
			<path id="XMLID_10054_" fill="url(#XMLID_3_)" d="M510,707.9l-16.7-1.8c-22.3-2.3-44.9-2.3-67.1,0l-16.7,1.8
				c-27.2,2.9-47.3,26.4-45.2,53.3l1.3,17.2c1.8,22.9,19.2,41.6,42.4,45.2l0,0c34.4,5.6,69.5,5.6,103.7,0l0,0
				c23.1-3.7,40.5-22.5,42.4-45.2l1.3-17.2C557.4,734.3,537.3,710.6,510,707.9z"/>
			<path id="XMLID_10053_" opacity="0.5" fill="#13131F" enable-background="new    " d="M459.8,807.7c-17.5,0-35.2-1.3-52.6-3.8
				c-15.4-2.3-27-13.8-28.2-27.9l-1.5-17.2c-1.3-16.6,11.9-31.1,30.1-32.7l18.1-1.8c11.3-1.2,22.6-1.6,34.1-1.6
				c11.3,0,22.8,0.4,34.1,1.6l18.1,1.8c18.4,1.8,31.6,16.2,30.1,32.7l-1.3,17.2c-1.2,14.1-12.8,25.6-28.2,27.9
				C495,806.4,477.2,807.7,459.8,807.7z"/>
			<path id="XMLID_10052_" fill="#13131F" d="M459.8,807.7c-15.9,0-32-1.3-47.7-3.8c-14-2.3-24.5-13.8-25.6-27.9l-1.3-17.2
				c-1.3-16.6,10.7-31.1,27.3-32.7l16.3-1.8c10.3-1.2,20.6-1.6,30.8-1.6c10.3,0,20.7,0.4,30.8,1.6l16.3,1.8
				c16.6,1.8,28.6,16.2,27.3,32.7l-1.3,17.2c-1.2,14.1-11.6,25.6-25.6,27.9C491.8,806.4,475.6,807.7,459.8,807.7z"/>
			
				<linearGradient id="XMLID_4_" gradientUnits="userSpaceOnUse" x1="313.2656" y1="861.3284" x2="313.2656" y2="904.045" gradientTransform="matrix(1.4684 0 0 1.4684 3.051758e-005 -535.171)">
				<stop  offset="0" style="stop-color:#25253C"/>
				<stop  offset="1" style="stop-color:#13131F;stop-opacity:0"/>
			</linearGradient>
			<path id="XMLID_10051_" fill="url(#XMLID_4_)" d="M459.8,798.5c-14.1,0-28.5-1-42.4-3.1c-12.5-1.8-21.7-10.9-22.8-21.9l-1-13.4
				c-1.2-13.1,9.5-24.4,24.4-25.7l14.5-1.3c9.1-0.9,18.4-1.3,27.5-1.3s18.4,0.4,27.5,1.3l14.5,1.3c14.7,1.3,25.6,12.6,24.4,25.7
				l-1.2,13.4c-1,11-10.4,20.1-22.8,21.9C488.3,797.4,473.9,798.5,459.8,798.5z"/>
			<g opacity="6.000000e-002">
				<path fill="#FFFFFF" d="M412,803.7c10,1.8,20.3,2.8,30.4,3.4l45.2-83.1c-9.3-0.9-18.6-1.3-27.9-1.3c-3.5,0-7.2,0.1-10.9,0.1
					l-43,79.1C407.9,802.9,409.8,803.3,412,803.7z"/>
				<path fill="#FFFFFF" d="M529.4,739.7c-3.2-5.1-8.1-9.1-14.1-11.6l-43,79.3c7-0.3,14.1-0.9,21.1-1.8L529.4,739.7z"/>
			</g>
			<g id="XMLID_450_">
				<path id="XMLID_10050_" fill="#FFFFFF" d="M437.3,770.7c-1.2,6.9-6-0.1-13.4-1.3c-7.3-1.2-14.2,4-13.2-2.9
					c1.2-6.9,7.9-11.5,15.3-10.4C433.3,757.3,438.3,764,437.3,770.7z"/>
				<path id="XMLID_4441_" fill="#FFFFFF" d="M482.2,770.7c1.2,6.9,6-0.1,13.4-1.3s14.2,4,13.2-2.9c-1.2-6.9-7.9-11.5-15.3-10.4
					C486.2,757.3,481.2,764,482.2,770.7z"/>
			</g>
		</g>
	</g>
</g>
<g>
	<path fill="#FFFFFF" d="M856.5,904.5c0.4,0.1,0.7,0.1,1.2,0.1c0.3,0,0.6,0,0.7,0c0.6,0,1.3,0,1.9-0.1c90-18.4,83.8-112,80.8-135.7
		c-0.4-3.2-2.9-6-6.5-7L861,741.7c-0.9-0.3-1.8-0.3-2.6-0.3c-0.3,0-0.6,0-0.7,0c-0.6,0-1.2,0.1-1.8,0.3l-73.6,20.1
		c-3.5,0.9-6,3.7-6.5,7C772.8,792.6,766.5,886.3,856.5,904.5z"/>
	<path opacity="0.3" fill="#2BB5FF" enable-background="new    " d="M930.7,772l-72.1-19.7l0,0v44.5c1.6-0.3,3.2-0.6,4.8-0.6
		c3.5-0.3,6.9,0.1,10.4,0.6c2.8,0.4,5.6,0.9,8.4,1.6c2.5,0.6,5.3,1,7.8,2.1c2.9,1.2,5.6,2.8,7.6,5.3s3.4,5,4.6,8.1
		c0.7,2.1,1.3,4.1,1.6,6.2c0.4,2.3,0.9,4.7,0.6,7.2c-0.3,4.1-1.5,8.2-4,11.6c-2.5,3.5-5.4,6.3-9.1,8.5c-6.8,4.3-14.8,6.2-22.6,6.8
		c-3.2,0.3-6.8,0.1-10.1-0.3v39.9l0,0c18.6-3.8,33.9-11.5,45.4-22.6c9.5-9.4,16.9-21.4,21.4-35.8C933.6,810.1,932,783.8,930.7,772z"
		/>
	<g>
		<g id="XMLID_10080_">
			<g id="XMLID_10104_">
				<g id="XMLID_10105_">
					<g id="XMLID_10219_">
						<path id="XMLID_10220_" fill="#040E29" d="M814.1,841.3h-9.7c-5,0-9-4-9-9v-10.6c0-5,4-9,9-9h9.7V841.3z"/>
					</g>
					<g id="XMLID_10106_">
						<g id="XMLID_10111_">
							<g id="XMLID_10115_">
								<path id="XMLID_10117_" fill="#040E29" d="M796.2,835.9c0,0-0.3-0.7-0.9-1.9c-0.3-0.6-0.6-1.3-0.9-2.2
									c-0.1-0.4-0.4-0.9-0.6-1.5c-0.1-0.6-0.4-1-0.6-1.6c-0.1-0.6-0.4-1.2-0.6-1.8c-0.1-0.3-0.3-0.6-0.3-0.9
									c-0.1-0.3-0.1-0.7-0.3-0.9c-0.1-0.7-0.4-1.3-0.6-2.1c-0.1-0.3-0.1-0.7-0.3-1c0-0.3-0.1-0.7-0.3-1c0-0.4-0.1-0.7-0.3-1.2
									c0-0.1,0-0.4-0.1-0.6c0-0.1,0-0.4-0.1-0.6c-0.1-0.7-0.3-1.5-0.4-2.3c0-0.7-0.1-1.6-0.3-2.3v-0.7c0-0.3,0-0.4,0-0.6v-1.2
									v-1.2c0-0.4,0-0.7,0-1.2c0-0.4,0-0.7,0-1.2v-0.6c0-0.3,0-0.4,0-0.6c0-0.7,0.1-1.6,0.3-2.3c0.1-0.7,0.3-1.5,0.3-2.2
									c0.1-0.7,0.3-1.5,0.4-2.2c0-0.3,0.1-0.7,0.3-1c0-0.1,0-0.3,0.1-0.4c0-0.1,0.1-0.3,0.1-0.4c0.1-0.7,0.4-1.3,0.6-1.9
									c0-0.1,0.1-0.3,0.1-0.4s0.1-0.3,0.1-0.4c0.1-0.3,0.3-0.6,0.3-0.9c0.3-0.6,0.4-1.2,0.6-1.6c0.3-0.4,0.4-0.9,0.6-1.5
									c0.1-0.6,0.3-0.9,0.4-1.2s0.3-0.7,0.4-1c0.6-1.2,0.9-1.9,0.9-1.9l2.5,1.2c0,0-0.3,0.7-0.7,1.9c-0.1,0.3-0.3,0.6-0.4,1
									c-0.1,0.4-0.3,0.7-0.4,1.2s-0.3,0.9-0.4,1.3c-0.1,0.4-0.3,1-0.4,1.5c0,0.3-0.1,0.6-0.3,0.9c0,0.1,0,0.3-0.1,0.4
									c0,0.1,0,0.3-0.1,0.4c-0.1,0.6-0.3,1.2-0.4,1.8c0,0.1,0,0.3-0.1,0.4c0,0.1,0,0.3,0,0.4c0,0.3-0.1,0.7-0.1,0.9
									c-0.1,0.7-0.3,1.3-0.3,2.1c0,0.7-0.1,1.5-0.3,2.1c0,0.7,0,1.5,0,2.2c0,0.1,0,0.3,0,0.6v0.6c0,0.3,0,0.7,0,1s0,0.7,0,1.2
									l0.1,1l0.1,1c0,0.1,0,0.3,0,0.6l0.1,0.6c0.1,0.7,0.3,1.5,0.3,2.2c0.1,0.7,0.3,1.5,0.4,2.1c0,0.1,0,0.3,0.1,0.4
									c0,0.1,0,0.3,0.1,0.4c0.1,0.3,0.1,0.7,0.3,1c0.1,0.3,0.1,0.7,0.3,1c0.1,0.3,0.1,0.7,0.3,0.9c0.3,0.6,0.4,1.2,0.6,1.9
									c0.1,0.3,0.3,0.6,0.3,0.9c0.1,0.3,0.3,0.6,0.3,0.9c0.3,0.6,0.4,1,0.7,1.6c0.3,0.4,0.4,1,0.6,1.5c0.3,0.4,0.4,0.9,0.6,1.3
									c0.3,0.7,0.7,1.5,1,2.2c0.6,1.2,0.9,1.9,0.9,1.9L796.2,835.9z"/>
							</g>
						</g>
						<g id="XMLID_10107_">
							<g id="XMLID_10108_">
								<g id="XMLID_10109_">
									<circle id="XMLID_10110_" fill="#040E29" cx="796.5" cy="787.6" r="4.6"/>
								</g>
							</g>
						</g>
					</g>
				</g>
			</g>
			<g id="XMLID_10092_">
				<g id="XMLID_10093_">
					<g id="XMLID_10102_">
						<path id="XMLID_10103_" fill="#040E29" d="M902.9,841.3h9.7c5,0,9-4,9-9v-10.6c0-5-4-9-9-9h-9.7V841.3z"/>
					</g>
					<g id="XMLID_10094_">
						<g id="XMLID_10099_">
							<g id="XMLID_10100_">
								<path id="XMLID_10101_" fill="#040E29" d="M920.9,835.9c0,0,0.3-0.7,0.9-1.9c0.3-0.6,0.6-1.3,0.9-2.2
									c0.1-0.4,0.4-0.9,0.6-1.5c0.1-0.4,0.4-1,0.6-1.6c0.1-0.6,0.4-1.2,0.6-1.8c0.1-0.3,0.3-0.6,0.3-0.9c0.1-0.3,0.1-0.7,0.3-0.9
									c0.1-0.7,0.4-1.3,0.6-2.1c0.1-0.3,0.1-0.7,0.3-1c0-0.3,0.1-0.7,0.3-1c0-0.4,0.1-0.7,0.3-1.2c0-0.1,0-0.4,0.1-0.6
									c0-0.1,0-0.4,0.1-0.6c0.1-0.7,0.3-1.5,0.4-2.3c0-0.7,0.1-1.6,0.3-2.3v-0.6c0-0.3,0-0.4,0-0.6v-1.2v-1.2c0-0.4,0-0.7,0-1.2
									c0-0.4,0-0.7,0-1.2v-0.6c0-0.3,0-0.4,0-0.6c0-0.7-0.1-1.6-0.3-2.3c-0.1-0.7-0.3-1.5-0.3-2.2c-0.1-0.7-0.3-1.5-0.4-2.2
									c0-0.3-0.1-0.7-0.3-1c0-0.1,0-0.3-0.1-0.4c0-0.1-0.1-0.3-0.1-0.4c-0.1-0.7-0.4-1.3-0.6-1.9c0-0.1-0.1-0.3-0.1-0.4
									s-0.1-0.3-0.1-0.4c-0.1-0.3-0.3-0.6-0.3-0.9c-0.3-0.6-0.4-1.2-0.6-1.6c-0.3-0.4-0.4-0.9-0.6-1.5c-0.1-0.4-0.3-0.9-0.4-1.2
									s-0.3-0.7-0.4-1c-0.6-1.2-0.9-1.9-0.9-1.9l-2.5,1.2c0,0,0.3,0.7,0.7,1.9c0.1,0.3,0.3,0.6,0.4,1c0.1,0.4,0.3,0.7,0.4,1.2
									s0.3,0.9,0.4,1.3c0.1,0.4,0.3,1,0.4,1.5c0,0.3,0.1,0.6,0.3,0.9c0,0.1,0,0.3,0.1,0.4c0,0.1,0,0.3,0.1,0.4
									c0.1,0.6,0.3,1.2,0.4,1.8c0,0.1,0,0.3,0.1,0.4c0,0.1,0,0.3,0,0.4c0,0.3,0.1,0.7,0.1,0.9c0.1,0.7,0.3,1.3,0.3,2.1
									c0,0.7,0.1,1.5,0.3,2.1c0,0.7,0,1.5,0,2.2c0,0.1,0,0.3,0,0.6v0.6c0,0.3,0,0.7,0,1s0,0.7,0,1.2l-0.1,1l-0.1,1
									c0,0.1,0,0.3,0,0.6l-0.1,0.6c-0.1,0.7-0.3,1.5-0.3,2.2c-0.1,0.7-0.3,1.5-0.4,2.1c0,0.1,0,0.3-0.1,0.4c0,0.1,0,0.3-0.1,0.4
									c-0.1,0.3-0.1,0.7-0.3,1c-0.1,0.3-0.1,0.7-0.3,1c-0.1,0.3-0.1,0.7-0.3,0.9c-0.3,0.6-0.4,1.2-0.6,1.9
									c-0.1,0.3-0.3,0.6-0.3,0.9c-0.1,0.3-0.3,0.6-0.3,0.9c-0.3,0.6-0.4,1-0.7,1.6c-0.3,0.4-0.4,1-0.6,1.5
									c-0.3,0.4-0.4,0.9-0.6,1.3c-0.3,0.7-0.7,1.5-1,2.2c-0.6,1.2-0.9,1.9-0.9,1.9L920.9,835.9z"/>
							</g>
						</g>
						<g id="XMLID_10095_">
							<g id="XMLID_10096_">
								<g id="XMLID_10097_">
									<circle id="XMLID_10098_" fill="#040E29" cx="920.6" cy="787.6" r="4.6"/>
								</g>
							</g>
						</g>
					</g>
				</g>
			</g>
			
				<radialGradient id="XMLID_5_" cx="583.7511" cy="886.4684" r="58.4001" gradientTransform="matrix(1.4684 0 0 1.4684 3.051758e-005 -535.171)" gradientUnits="userSpaceOnUse">
				<stop  offset="0" style="stop-color:#F26522"/>
				<stop  offset="1" style="stop-color:#C82431"/>
			</radialGradient>
			<path id="XMLID_10091_" fill="url(#XMLID_5_)" d="M886.8,794.3l-9.4-0.9c-12.5-1.3-25.3-1.3-37.7,0l-9.4,0.9
				c-15.3,1.6-26.6,14.8-25.4,30l0.7,9.7c1,12.9,10.9,23.3,23.8,25.4l0,0c19.4,3.1,39.1,3.1,58.3,0l0,0
				c12.9-2.1,22.9-12.6,23.8-25.4l0.7-9.7C913.5,809.3,902.2,796,886.8,794.3z"/>
			<path id="XMLID_10090_" opacity="0.5" fill="#13131F" enable-background="new    " d="M858.6,850.6c-9.8,0-19.8-0.7-29.5-2.2
				c-8.7-1.3-15.1-7.8-15.9-15.7l-0.9-9.7c-0.7-9.4,6.6-17.5,17-18.4l10.1-0.9c6.3-0.6,12.8-0.9,19.1-0.9s12.8,0.3,19.1,0.9
				l10.1,0.9c10.3,1,17.8,9.1,17,18.4l-0.7,9.7c-0.7,7.9-7.2,14.4-15.9,15.7C878.4,849.9,868.4,850.6,858.6,850.6z"/>
			<path id="XMLID_10089_" fill="#13131F" d="M858.6,850.6c-9,0-17.9-0.7-26.9-2.2c-7.8-1.3-13.8-7.8-14.4-15.7l-0.7-9.7
				c-0.7-9.4,6-17.5,15.4-18.4l9.3-0.9c5.7-0.6,11.6-0.9,17.3-0.9s11.6,0.3,17.3,0.9l9.3,0.9c9.4,1,16,9.1,15.4,18.4l-0.7,9.7
				c-0.6,7.9-6.5,14.4-14.4,15.7C876.5,849.9,867.5,850.6,858.6,850.6z"/>
			
				<linearGradient id="XMLID_6_" gradientUnits="userSpaceOnUse" x1="584.7905" y1="913.7916" x2="584.7905" y2="937.8181" gradientTransform="matrix(1.4684 0 0 1.4684 3.051758e-005 -535.171)">
				<stop  offset="0" style="stop-color:#25253C"/>
				<stop  offset="1" style="stop-color:#13131F;stop-opacity:0"/>
			</linearGradient>
			<path id="XMLID_10088_" fill="url(#XMLID_6_)" d="M858.6,845.4c-7.9,0-16-0.6-23.8-1.8c-7-1-12.2-6.2-12.8-12.3l-0.6-7.5
				c-0.6-7.3,5.4-13.7,13.7-14.4l8.2-0.7c5.1-0.4,10.3-0.7,15.4-0.7c5.1,0,10.3,0.3,15.4,0.7l8.2,0.7c8.2,0.7,14.4,7,13.7,14.4
				l-0.7,7.5c-0.6,6.2-5.9,11.3-12.8,12.3C874.6,844.7,866.5,845.4,858.6,845.4z"/>
			<g opacity="6.000000e-002">
				<path fill="#FFFFFF" d="M831.7,848.4c5.6,0.9,11.3,1.6,17,1.9l25.4-46.7c-5.1-0.4-10.4-0.7-15.7-0.7c-2.1,0-4.1,0-6.2,0.1
					l-24.1,44.3C829.4,847.9,830.5,848.1,831.7,848.4z"/>
				<path fill="#FFFFFF" d="M897.8,812.4c-1.9-2.8-4.6-5.1-7.9-6.5l-24.2,44.5c4-0.1,7.9-0.4,11.9-0.9L897.8,812.4z"/>
			</g>
			<g id="XMLID_10085_">
				<path id="XMLID_10087_" fill="#FFFFFF" d="M845.8,829.7c-0.6,3.8-3.4-0.1-7.5-0.7c-4.1-0.7-7.9,2.2-7.5-1.6
					c0.6-3.8,4.6-6.5,8.5-5.9C843.6,822.2,846.5,825.9,845.8,829.7z"/>
				<path id="XMLID_10086_" fill="#FFFFFF" d="M871.2,829.7c0.6,3.8,3.4-0.1,7.5-0.7c4.1-0.7,7.9,2.2,7.5-1.6
					c-0.6-3.8-4.6-6.5-8.5-5.9C873.4,822.2,870.6,825.9,871.2,829.7z"/>
			</g>
		</g>
	</g>
</g>
<g>
	<path fill="#FFFFFF" d="M84.3,898.9c0.3,0,0.4,0.1,0.7,0.1c0.1,0,0.3,0,0.4,0c0.4,0,0.7,0,1.2-0.1c54.3-11,50.5-67.5,48.8-81.8
		c-0.3-2.1-1.8-3.7-3.8-4.3l-44.3-12.2c-0.6-0.1-1-0.1-1.6-0.1c-0.1,0-0.3,0-0.4,0c-0.4,0-0.7,0.1-1,0.1L40,812.8
		c-2.1,0.6-3.7,2.2-3.8,4.3C33.8,831.4,30,887.9,84.3,898.9z"/>
	<path opacity="0.3" fill="#2BB5FF" enable-background="new    " d="M129.1,819l-43.6-11.9l0,0V834c1-0.1,1.9-0.3,2.9-0.4
		c2.1-0.1,4.3,0.1,6.3,0.3c1.8,0.3,3.4,0.6,5,1c1.6,0.3,3.2,0.6,4.7,1.3c1.8,0.7,3.4,1.8,4.6,3.2c1.2,1.5,2.1,3.1,2.8,4.8
		c0.4,1.2,0.7,2.5,1,3.7c0.3,1.5,0.4,2.9,0.3,4.3c-0.1,2.5-0.9,5-2.3,6.9c-1.5,2.1-3.2,3.8-5.4,5.1c-4.1,2.5-9,3.8-13.7,4.1
		c-2.1,0.1-4.1,0.1-6-0.1v24.2l0,0c11.2-2.3,20.4-6.9,27.5-13.7c5.7-5.6,10.1-12.9,12.9-21.6C130.8,841.9,129.8,826.1,129.1,819z"/>
	<g>
		<g id="XMLID_10221_">
			<g id="XMLID_10243_">
				<g id="XMLID_10244_">
					<g id="XMLID_10255_">
						<path id="XMLID_10256_" fill="#040E29" d="M58.7,860.9h-5.9c-2.9,0-5.4-2.3-5.4-5.4V849c0-2.9,2.3-5.4,5.4-5.4h5.9V860.9z"/>
					</g>
					<g id="XMLID_10245_">
						<g id="XMLID_10252_">
							<g id="XMLID_10253_">
								<path id="XMLID_10254_" fill="#040E29" d="M47.9,857.5c0,0-0.1-0.4-0.4-1.2c-0.1-0.4-0.4-0.9-0.6-1.3
									c-0.1-0.3-0.3-0.6-0.3-0.9c-0.1-0.3-0.3-0.6-0.4-1c-0.1-0.4-0.3-0.7-0.4-1c0-0.1-0.1-0.4-0.1-0.6s-0.1-0.4-0.1-0.6
									c-0.1-0.4-0.3-0.9-0.3-1.2c0-0.1-0.1-0.4-0.1-0.6c0-0.1-0.1-0.4-0.1-0.6c0-0.3-0.1-0.4-0.1-0.7c0-0.1,0-0.3,0-0.3v-0.3
									c0-0.4-0.1-0.9-0.3-1.3c0-0.4-0.1-0.9-0.1-1.5V844c0-0.1,0-0.3,0-0.4v-0.7v-0.7c0-0.3,0-0.4,0-0.7s0-0.4,0-0.7v-0.4
									c0-0.1,0-0.3,0-0.4c0-0.4,0.1-0.9,0.1-1.5c0-0.4,0.1-0.9,0.1-1.3c0-0.4,0.1-0.9,0.3-1.3c0-0.1,0.1-0.4,0.1-0.6s0-0.1,0-0.3
									c0-0.1,0-0.1,0.1-0.3c0.1-0.4,0.3-0.7,0.3-1.2c0-0.1,0-0.1,0-0.3s0-0.1,0.1-0.3c0-0.1,0.1-0.3,0.1-0.4
									c0.1-0.3,0.3-0.7,0.3-1c0.1-0.3,0.3-0.6,0.3-0.9s0.1-0.4,0.3-0.7s0.1-0.4,0.3-0.6c0.3-0.7,0.6-1.2,0.6-1.2l1.5,0.7
									c0,0-0.1,0.4-0.4,1.2c0,0.1-0.1,0.4-0.3,0.6c-0.1,0.1-0.1,0.4-0.3,0.7c-0.1,0.3-0.1,0.6-0.3,0.9c-0.1,0.3-0.1,0.6-0.3,0.9
									c0,0.1-0.1,0.3-0.1,0.4c0,0,0,0.1,0,0.3s0,0.1,0,0.3c0,0.3-0.1,0.7-0.3,1c0,0.1,0,0.1,0,0.3c0,0.1,0,0.1,0,0.3
									s0,0.4-0.1,0.6c0,0.4-0.1,0.9-0.1,1.2c0,0.4-0.1,0.9-0.1,1.3c0,0.4,0,0.9,0,1.3c0,0.1,0,0.1,0,0.3v0.3c0,0.1,0,0.4,0,0.6
									c0,0.1,0,0.4,0,0.7v0.6v0.6c0,0.1,0,0.1,0,0.3v0.3c0,0.4,0.1,0.9,0.1,1.3c0.1,0.4,0.1,0.9,0.3,1.3c0,0.1,0,0.1,0,0.3
									s0,0.1,0,0.3s0.1,0.4,0.1,0.6s0.1,0.4,0.1,0.6c0,0.1,0.1,0.4,0.1,0.6c0.1,0.4,0.3,0.7,0.4,1.2c0,0.1,0.1,0.4,0.1,0.6
									s0.1,0.3,0.1,0.4c0.1,0.3,0.3,0.6,0.4,1c0.1,0.3,0.3,0.6,0.4,0.9c0.1,0.3,0.3,0.6,0.4,0.7c0.1,0.4,0.4,0.9,0.6,1.3
									c0.4,0.7,0.6,1.2,0.6,1.2L47.9,857.5z"/>
							</g>
						</g>
						<g id="XMLID_10246_">
							<g id="XMLID_10247_">
								<g id="XMLID_10248_">
									<circle id="XMLID_10249_" fill="#040E29" cx="48" cy="828.4" r="2.6"/>
								</g>
							</g>
						</g>
					</g>
				</g>
			</g>
			<g id="XMLID_10229_">
				<g id="XMLID_10232_">
					<g id="XMLID_10241_">
						<path id="XMLID_10242_" fill="#040E29" d="M112.3,860.9h5.9c2.9,0,5.4-2.3,5.4-5.4V849c0-2.9-2.3-5.4-5.4-5.4h-5.9V860.9z"/>
					</g>
					<g id="XMLID_10233_">
						<g id="XMLID_10238_">
							<g id="XMLID_10239_">
								<path id="XMLID_10240_" fill="#040E29" d="M123.1,857.5c0,0,0.1-0.4,0.4-1.2c0.1-0.4,0.4-0.9,0.6-1.3
									c0.1-0.3,0.3-0.6,0.3-0.9c0.1-0.3,0.3-0.6,0.4-1s0.3-0.7,0.4-1c0-0.1,0.1-0.4,0.1-0.6s0.1-0.4,0.1-0.6
									c0.1-0.4,0.3-0.9,0.3-1.2c0-0.1,0.1-0.4,0.1-0.6c0-0.1,0.1-0.4,0.1-0.6c0-0.3,0.1-0.4,0.1-0.7c0-0.1,0-0.3,0-0.3
									c0-0.1,0-0.3,0-0.3c0-0.4,0.1-0.9,0.3-1.3c0-0.4,0.1-0.9,0.1-1.5V844c0-0.1,0-0.3,0-0.4v-0.7v-0.7c0-0.3,0-0.4,0-0.7
									s0-0.4,0-0.7v-0.4c0-0.1,0-0.3,0-0.4c0-0.4-0.1-0.9-0.1-1.5c0-0.4-0.1-0.9-0.1-1.3c0-0.4-0.1-0.9-0.3-1.3
									c0-0.1-0.1-0.4-0.1-0.6s0-0.1,0-0.3c0-0.1,0-0.1-0.1-0.3c-0.1-0.4-0.3-0.7-0.3-1.2c0-0.1,0-0.1,0-0.3s0-0.1-0.1-0.3
									c0-0.1-0.1-0.3-0.1-0.4c-0.1-0.3-0.3-0.7-0.3-1c-0.1-0.3-0.3-0.6-0.3-0.9c-0.1-0.3-0.1-0.4-0.3-0.7
									c-0.1-0.3-0.1-0.4-0.3-0.6c-0.3-0.7-0.6-1.2-0.6-1.2l-1.5,0.7c0,0,0.1,0.4,0.4,1.2c0,0.1,0.1,0.4,0.3,0.6
									c0,0.3,0.1,0.4,0.3,0.7c0.1,0.3,0.1,0.6,0.3,0.9c0.1,0.3,0.1,0.6,0.3,0.9c0,0.1,0.1,0.3,0.1,0.4c0,0,0,0.1,0,0.3
									s0,0.1,0,0.3c0,0.3,0.1,0.7,0.3,1c0,0.1,0,0.1,0,0.3c0,0.1,0,0.1,0,0.3s0,0.4,0.1,0.6c0,0.4,0.1,0.9,0.1,1.2
									c0,0.4,0.1,0.9,0.1,1.3c0,0.4,0,0.9,0,1.3c0,0.1,0,0.1,0,0.3v0.3c0,0.1,0,0.4,0,0.6c0,0.1,0,0.4,0,0.7v0.6v0.6
									c0,0.1,0,0.1,0,0.3v0.3c0,0.4-0.1,0.9-0.1,1.3c-0.1,0.4-0.1,0.9-0.3,1.3c0,0.1,0,0.1,0,0.3s0,0.1,0,0.3s-0.1,0.4-0.1,0.6
									s-0.1,0.4-0.1,0.6c0,0.1-0.1,0.4-0.1,0.6c-0.1,0.4-0.3,0.7-0.4,1.2c0,0.1-0.1,0.4-0.1,0.6s-0.1,0.3-0.1,0.4
									c-0.1,0.3-0.3,0.6-0.4,1c-0.1,0.3-0.3,0.6-0.4,0.9c-0.1,0.3-0.3,0.6-0.4,0.7c-0.1,0.4-0.4,0.9-0.6,1.3
									c-0.4,0.7-0.6,1.2-0.6,1.2L123.1,857.5z"/>
							</g>
						</g>
						<g id="XMLID_10234_">
							<g id="XMLID_10235_">
								<g id="XMLID_10236_">
									<circle id="XMLID_10237_" fill="#040E29" cx="122.9" cy="828.4" r="2.6"/>
								</g>
							</g>
						</g>
					</g>
				</g>
			</g>
			
				<radialGradient id="XMLID_7_" cx="57.6706" cy="919.9268" r="35.2302" gradientTransform="matrix(1.4684 0 0 1.4684 3.051758e-005 -535.171)" gradientUnits="userSpaceOnUse">
				<stop  offset="0" style="stop-color:#F26522"/>
				<stop  offset="1" style="stop-color:#C82431"/>
			</radialGradient>
			<path id="XMLID_10228_" fill="url(#XMLID_7_)" d="M102.5,832.5l-5.7-0.6c-7.6-0.7-15.3-0.7-22.8,0l-5.7,0.6
				c-9.3,1-16,9-15.3,18.1l0.4,5.9c0.6,7.8,6.6,14.1,14.4,15.4l0,0c11.6,1.9,23.5,1.9,35.2,0l0,0c7.8-1.3,13.8-7.6,14.4-15.4
				l0.4-5.9C118.6,841.5,111.7,833.4,102.5,832.5z"/>
			<path id="XMLID_10227_" opacity="0.5" fill="#13131F" enable-background="new    " d="M85.5,866.3c-5.9,0-11.9-0.4-17.8-1.3
				c-5.3-0.7-9.1-4.7-9.5-9.4l-0.4-5.9c-0.4-5.6,4-10.6,10.3-11.2l6.2-0.6c3.8-0.4,7.6-0.6,11.6-0.6c3.8,0,7.8,0.1,11.6,0.6l6.2,0.6
				c6.2,0.6,10.7,5.4,10.3,11.2l-0.4,5.9c-0.4,4.8-4.3,8.7-9.5,9.4C97.5,865.9,91.5,866.3,85.5,866.3z"/>
			<path id="XMLID_10226_" fill="#13131F" d="M85.5,866.3c-5.4,0-10.9-0.4-16.2-1.3c-4.7-0.7-8.4-4.7-8.7-9.4l-0.4-5.9
				c-0.4-5.6,3.7-10.6,9.3-11.2L75,838c3.5-0.4,7-0.6,10.4-0.6s7,0.1,10.4,0.6l5.6,0.6c5.6,0.6,9.7,5.4,9.3,11.2l-0.4,5.9
				c-0.4,4.8-4,8.7-8.7,9.4C96.3,865.9,90.9,866.3,85.5,866.3z"/>
			
				<linearGradient id="XMLID_8_" gradientUnits="userSpaceOnUse" x1="58.1636" y1="936.4097" x2="58.1636" y2="950.9039" gradientTransform="matrix(1.4684 0 0 1.4684 3.051758e-005 -535.171)">
				<stop  offset="0" style="stop-color:#25253C"/>
				<stop  offset="1" style="stop-color:#13131F;stop-opacity:0"/>
			</linearGradient>
			<path id="XMLID_10225_" fill="url(#XMLID_8_)" d="M85.5,863.2c-4.8,0-9.7-0.3-14.4-1c-4.3-0.6-7.3-3.7-7.8-7.5l-0.4-4.6
				c-0.4-4.4,3.2-8.2,8.2-8.7l5-0.4c3.1-0.3,6.2-0.4,9.3-0.4c3.1,0,6.3,0.1,9.3,0.4l5,0.4c5,0.4,8.7,4.3,8.2,8.7l-0.4,4.6
				c-0.3,3.8-3.5,6.8-7.8,7.5C95.2,862.9,90.3,863.2,85.5,863.2z"/>
			<g opacity="6.000000e-002">
				<path fill="#FFFFFF" d="M69.3,865c3.4,0.6,6.9,0.9,10.3,1.2L95,838c-3.1-0.3-6.3-0.4-9.4-0.4c-1.2,0-2.5,0-3.7,0l-14.5,26.9
					C67.8,864.7,68.6,864.8,69.3,865z"/>
				<path fill="#FFFFFF" d="M109.1,843.4c-1.2-1.8-2.8-3.1-4.7-4l-14.5,26.9c2.3-0.1,4.8-0.3,7.2-0.6L109.1,843.4z"/>
			</g>
			<g id="XMLID_10222_">
				<path id="XMLID_10224_" fill="#FFFFFF" d="M77.8,853.8c-0.4,2.3-2.1,0-4.6-0.4s-4.8,1.3-4.6-1c0.4-2.3,2.6-3.8,5.1-3.5
					C76.5,849.3,78.3,851.5,77.8,853.8z"/>
				<path id="XMLID_10223_" fill="#FFFFFF" d="M93.1,853.8c0.4,2.3,2.1,0,4.6-0.4s4.8,1.3,4.6-1c-0.4-2.3-2.6-3.8-5.1-3.5
					C94.4,849.3,92.8,851.5,93.1,853.8z"/>
			</g>
		</g>
	</g>
</g>
<path fill="#24262B" d="M766.9,547.5H152.6c-4.1,0-7.4,3.3-7.4,7.4v35.4h629.1v-35.4C774.3,550.8,771,547.5,766.9,547.5z"/>
<path fill="#24262B" d="M970.4,648.3H747.7c-3.9,0-7,3.1-7,7v21.9h237.1v-21.5C977.8,651.6,974.5,648.3,970.4,648.3z"/>
<path fill="#24262B" d="M149.6,711.3v16.3h-128v-16.3c0-5.7,4.1-10.5,9.5-11.5h20c1.1,0.5,1.9,1.7,1.9,2.9v4.3
	c0,1.8,1.3,3.1,2.9,3.1H116c1.6,0,2.9-1.5,2.9-3.1v-4.3c0-1.4,0.8-2.5,1.8-2.9h19.9C145.6,700.9,149.6,705.7,149.6,711.3z"/>
<g>
	<path fill="#FFFFFF" d="M175.2,568.1c-5,0-9.8,1.1-14.3,3.5h28.5C185,569.2,180.2,568.1,175.2,568.1z"/>
	<path fill="#FFFFFF" d="M181.9,572.9c-2.1,0-3.9,1.4-4.5,3.2c-1.2-0.4-2.4-0.4-3.5-0.1c-0.7-1.7-2.4-3-4.5-3
		c-2.6,0-4.7,2.1-4.7,4.7s2.1,4.7,4.7,4.7c2.6,0,4.7-2.1,4.7-4.7v-0.5c1-0.2,2-0.1,3,0.2v0.4c0,2.6,2.1,4.7,4.7,4.7
		c2.6,0,4.7-2.1,4.7-4.7C186.6,575.2,184.5,572.9,181.9,572.9L181.9,572.9z M172.9,577.8c0,2-1.6,3.5-3.5,3.5c-2,0-3.5-1.6-3.5-3.5
		s1.6-3.5,3.5-3.5c1.5,0,2.7,0.9,3.2,2.1C172.8,576.8,172.9,577.2,172.9,577.8C172.9,577.7,172.9,577.7,172.9,577.8z M181.9,581.3
		c-2,0-3.5-1.6-3.5-3.5s1.6-3.5,3.5-3.5s3.5,1.6,3.5,3.5S183.8,581.3,181.9,581.3z"/>
	<path fill="#FFFFFF" d="M181.7,557l-8.5,1.4l-4.1-1.4l-2.7,8.4h18.1L181.7,557z"/>
</g>
<g>
	<path fill="#FFFFFF" d="M37.1,713.5c-3.2,0-6.4,0.7-9.3,2.3h18.5C43.4,714.2,40.3,713.5,37.1,713.5z"/>
	<path fill="#FFFFFF" d="M41.4,716.6c-1.4,0-2.5,0.9-2.9,2.1c-0.8-0.2-1.5-0.2-2.3-0.1c-0.5-1.1-1.5-1.9-2.9-1.9
		c-1.7,0-3.1,1.4-3.1,3.1s1.4,3.1,3.1,3.1s3.1-1.4,3.1-3.1v-0.3c0.6-0.2,1.3-0.1,1.9,0.2v0.2c0,1.7,1.4,3.1,3.1,3.1
		c1.7,0,3.1-1.4,3.1-3.1C44.5,718.1,43.1,716.6,41.4,716.6L41.4,716.6z M35.6,719.8c0,1.3-1,2.3-2.3,2.3s-2.3-1-2.3-2.3
		c0-1.2,1-2.3,2.3-2.3c1,0,1.8,0.6,2.1,1.4C35.5,719.1,35.6,719.4,35.6,719.8C35.6,719.7,35.6,719.7,35.6,719.8z M41.4,722
		c-1.3,0-2.3-1-2.3-2.3c0-1.2,1-2.3,2.3-2.3c1.2,0,2.3,1,2.3,2.3S42.6,722,41.4,722z"/>
	<path fill="#FFFFFF" d="M41.3,706.3l-5.5,0.9l-2.7-0.9l-1.8,5.4H43L41.3,706.3z"/>
</g>
<g>
	<path fill="#FFFFFF" d="M759.5,661.5c-3.6,0-7,0.8-10.2,2.5h20.3C766.4,662.3,763,661.5,759.5,661.5z"/>
	<path fill="#FFFFFF" d="M764.2,664.9c-1.5,0-2.8,1-3.2,2.3c-0.9-0.3-1.7-0.3-2.5-0.1c-0.5-1.2-1.7-2.1-3.2-2.1
		c-1.9,0-3.4,1.5-3.4,3.4s1.5,3.4,3.4,3.4s3.4-1.5,3.4-3.4V668c0.7-0.2,1.4-0.1,2.1,0.2v0.3c0,1.9,1.5,3.4,3.4,3.4s3.4-1.5,3.4-3.4
		C767.6,666.5,766.1,664.9,764.2,664.9L764.2,664.9z M757.8,668.4c0,1.4-1.2,2.5-2.5,2.5c-1.4,0-2.5-1.2-2.5-2.5s1.2-2.5,2.5-2.5
		c1.1,0,2,0.6,2.3,1.5C757.8,667.7,757.8,667.9,757.8,668.4C757.8,668.3,757.8,668.3,757.8,668.4z M764.2,670.9
		c-1.4,0-2.5-1.2-2.5-2.5s1.2-2.5,2.5-2.5s2.5,1.2,2.5,2.5S765.6,670.9,764.2,670.9z"/>
	<path fill="#FFFFFF" d="M764.1,653.6l-6,1l-2.9-1l-2,5.9h12.9L764.1,653.6z"/>
</g>
</svg>
