<?xml version="1.0" encoding="utf-8"?>
<!-- Generator: Adobe Illustrator 24.1.2, SVG Export Plug-In . SVG Version: 6.00 Build 0)  -->
<svg version="1.1" id="Layer_1" xmlns="http://www.w3.org/2000/svg" xmlns:xlink="http://www.w3.org/1999/xlink" x="0px" y="0px"
	 viewBox="0 0 281.3 97.8" preserveAspectRatio="none" style="enable-background:new 0 0 281.3 97.8;" xml:space="preserve">
<style type="text/css">
	.st0{fill:#F25022;}
	.st1{fill:#7FBA00;}
	.st2{fill:#00A4EF;}
	.st3{fill:#FFB900;}
	.st4{fill:#FFFFFF;}
</style>
<g id="Layer_2_1_">
	<g id="Layer_1-2">
		<path d="M11.1,0h259.1c6.1,0,11.1,4.9,11.1,11v75.7c0,6.1-5,11-11.1,11H11.1C5,97.8,0,92.9,0,86.8V11C0,4.9,5,0,11.1,0z"/>
		<path class="st0" d="M47.6,20.5H20.5v27h27.1V20.5z"/>
		<path class="st1" d="M77.4,20.5H50.4v27h27.1V20.5z"/>
		<path class="st2" d="M47.6,50.3H20.5v27h27.1V50.3z"/>
		<path class="st3" d="M77.4,50.3H50.4v27h27.1V50.3z"/>
		<path class="st4" d="M108.1,39.2c-0.9,0.5-1.9,0.9-2.9,1.2c-1,0.3-2.1,0.4-3.2,0.4c-2.3,0.1-4.6-0.8-6.3-2.4
			c-1.7-1.8-2.7-4.2-2.6-6.7c-0.1-2.6,0.8-5.1,2.6-6.9c1.8-1.8,4.3-2.7,6.9-2.6c1.9,0,3.8,0.4,5.4,1.3l-0.9,1.9
			c-0.7-0.4-1.4-0.7-2.2-0.9c-0.8-0.2-1.6-0.3-2.3-0.3c-1.9-0.1-3.7,0.6-5,1.9c-1.4,1.5-2.1,3.4-1.9,5.4c-0.1,1.9,0.5,3.9,1.7,5.4
			c1.3,1.3,3,1.9,4.8,1.8c0.6,0,1.3-0.1,1.9-0.2c0.6-0.1,1.1-0.3,1.6-0.6v-4.8h-4v-2h6.3L108.1,39.2z"/>
		<path class="st4" d="M122.9,34.4h-9.3c-0.1,1.2,0.4,2.4,1.2,3.3c0.8,0.8,2,1.3,3.2,1.2c0.6,0,1.2-0.1,1.8-0.3
			c0.7-0.2,1.3-0.5,1.8-0.9l1,1.5c-1.4,1-3.1,1.5-4.8,1.5c-1.7,0.1-3.4-0.6-4.6-1.8c-1.2-1.4-1.8-3.1-1.7-5
			c-0.1-1.9,0.5-3.7,1.7-5.1c1.1-1.3,2.7-2,4.4-2c1.6-0.1,3.1,0.5,4.1,1.7c1,1.3,1.5,3,1.4,4.7L122.9,34.4z M120.7,32.6
			c0.1-1-0.2-2-0.9-2.8c-0.6-0.7-1.5-1.1-2.4-1c-0.9,0-1.8,0.4-2.5,1c-0.7,0.8-1.2,1.7-1.2,2.8H120.7z"/>
		<path class="st4" d="M132.7,40.3c-0.3,0.2-0.7,0.3-1.1,0.3c-0.4,0-0.8,0-1.2,0c-0.9,0.1-1.8-0.3-2.5-0.9c-0.6-0.8-1-1.7-0.9-2.7
			v-7.8h-2.2v-1.9h2.3v-3.2l2.1-0.5v3.6h3.2v1.9h-3.2v7.7c0,0.6,0.1,1.1,0.4,1.6c0.3,0.3,0.8,0.5,1.2,0.5c0.2,0,0.5,0,0.7,0l0.6-0.2
			L132.7,40.3z"/>
		<path class="st4" d="M143.8,24.5c-0.4,0-0.8-0.2-1.1-0.4c-0.3-0.3-0.5-0.7-0.4-1.1c0-0.4,0.1-0.8,0.4-1.1c0.3-0.3,0.7-0.5,1.1-0.4
			c0.4,0,0.8,0.2,1.1,0.4c0.3,0.3,0.5,0.7,0.4,1.1c0,0.4-0.2,0.8-0.4,1.1C144.6,24.4,144.2,24.5,143.8,24.5z M144.9,40.5h-2.2V27.3
			h2.2V40.5z"/>
		<path class="st4" d="M155.8,40.3c-0.3,0.2-0.7,0.3-1.1,0.3c-0.4,0-0.8,0-1.2,0c-0.9,0.1-1.9-0.3-2.5-0.9c-0.7-0.8-1-1.7-0.9-2.7
			v-7.8h-2.2v-1.9h2.3v-3.2l2.2-0.5v3.6h3.3v1.9h-3.3v7.7c0,0.6,0.1,1.1,0.4,1.6c0.3,0.3,0.7,0.5,1.2,0.5c0.2,0,0.5,0,0.7,0
			c0.2,0,0.4-0.1,0.6-0.2L155.8,40.3z"/>
		<path class="st4" d="M105.1,54.4l-0.9-0.3c-0.3,0-0.6,0-0.9,0c-0.7,0-1.3,0.2-1.7,0.7c-0.4,0.6-0.6,1.3-0.6,2V59h4.2v4.1h-4.2
			v14.2h-5.7V63.1h-3.2v-4.2h3.2v-2.5c-0.1-1.9,0.7-3.6,2.1-4.9c1.5-1.3,3.5-2,5.4-1.9c0.7,0,1.4,0,2.1,0.2l1.8,0.4L105.1,54.4z"/>
		<path class="st4" d="M116.6,77.7c-2.7,0.2-5.3-0.8-7.2-2.6c-1.8-1.8-2.8-4.4-2.6-7c-0.1-2.7,0.9-5.3,2.7-7.2
			c2-1.8,4.7-2.8,7.4-2.7c2.6-0.2,5.2,0.8,7.2,2.6c1.8,1.8,2.8,4.3,2.6,6.9c0.1,2.7-0.8,5.3-2.7,7.3C122,76.9,119.3,77.9,116.6,77.7
			z M116.8,73.4c1.2,0.1,2.4-0.4,3.2-1.4c0.8-1.3,1.1-2.7,0.9-4.2c0.1-1.4-0.3-2.7-1-3.9c-1.6-1.7-4.2-1.9-6-0.3
			c-0.1,0.1-0.2,0.2-0.3,0.3c-0.8,1.1-1.2,2.5-1.1,3.9c-0.1,1.4,0.3,2.8,1.1,4C114.3,72.9,115.5,73.5,116.8,73.4z"/>
		<path class="st4" d="M142,63.6c-0.2,0-0.5,0-0.7,0h-0.7c-1.3-0.2-2.5,0.2-3.5,1.1c-0.8,1.1-1.2,2.4-1.1,3.8v8.9h-5.7V58.9h5.7v3.4
			l0,0c0.4-1.1,1-2.1,1.9-2.8c0.9-0.6,1.9-0.9,3-0.9h0.8l0.8,0.2L142,63.6z"/>
		<path class="st4" d="M161.6,68.8v8.5h-5.8V51.5h9.1c2.6-0.2,5.2,0.6,7.4,2.1c1.7,1.6,2.6,4,2.4,6.3c0.1,2.5-0.9,4.8-2.8,6.5
			c-2.1,1.7-4.8,2.6-7.5,2.4H161.6z M161.6,56v8.5h2.3c1.3,0.1,2.5-0.3,3.5-1.1c0.8-0.8,1.2-2,1.1-3.2c0.1-1.2-0.3-2.3-1.1-3.2
			c-1-0.8-2.3-1.1-3.5-1L161.6,56z"/>
		<path class="st4" d="M197.8,76c-2.5,1.2-5.3,1.7-8.1,1.7c-3.5,0.2-6.9-1-9.5-3.4c-2.5-2.6-3.7-6.1-3.5-9.7
			c-0.1-3.6,1.3-7.1,3.8-9.8c2.6-2.6,6.2-4,10-3.9c1.2,0,2.5,0.1,3.7,0.3c1.2,0.2,2.3,0.5,3.4,0.9l-1.7,4.7
			c-0.8-0.3-1.7-0.5-2.5-0.7c-0.9-0.2-1.8-0.2-2.7-0.2c-2.1,0-4,0.8-5.5,2.2c-1.6,1.6-2.4,3.8-2.3,6c-0.2,2.2,0.5,4.5,2,6.2
			c1.4,1.5,3.5,2.3,5.5,2.2c0.8,0,1.6-0.1,2.3-0.3c1-0.2,2-0.6,2.9-1L197.8,76z"/>
	</g>
</g>
</svg>
