<?xml version="1.0" encoding="utf-8"?>
<!-- Generator: Adobe Illustrator 24.1.2, SVG Export Plug-In . SVG Version: 6.00 Build 0)  -->
<svg version="1.1" id="Layer_1" xmlns="http://www.w3.org/2000/svg" xmlns:xlink="http://www.w3.org/1999/xlink" x="0px" y="0px"
	 viewBox="0 0 330.1 97.8" preserveAspectRatio="none" style="enable-background:new 0 0 330.1 97.8;" xml:space="preserve">
<style type="text/css">
	.st0{fill:#100F0D;}
	.st1{fill:#FFFFFF;}
	.st2{fill:#EB3131;}
	.st3{fill:#F6B60B;}
	.st4{fill:#5778C5;}
	.st5{fill:#3BAD49;}
	.st6{fill:#FFFFFF;stroke:#FFFFFF;stroke-width:0.2667;stroke-miterlimit:10;}
</style>
<path id="path11" class="st0" d="M317.9,97.8H12.2C5.5,97.8,0,92.3,0,85.6V12.2C0,5.5,5.5,0,12.2,0h305.7c6.7,0,12.2,5.5,12.2,12.2
	v73.4C330.1,92.3,324.6,97.8,317.9,97.8"/>
<path id="path35" class="st1" d="M261.5,73.4h4.6V42.8h-4.6V73.4z M302.6,53.8L297.4,67h-0.2l-5.4-13.3h-4.9l8.1,18.5l-4.6,10.3h4.8
	l12.5-28.8L302.6,53.8z M276.7,69.9c-1.5,0-3.6-0.7-3.6-2.6c0-2.4,2.6-3.3,4.8-3.3c2,0,3,0.4,4.2,1
	C281.8,67.9,279.4,69.9,276.7,69.9L276.7,69.9z M277.3,53.1c-3.3,0-6.7,1.5-8.1,4.7l4,1.7c0.9-1.7,2.5-2.2,4.2-2.2
	c2.4,0,4.8,1.4,4.8,3.9v0.3c-0.8-0.5-2.6-1.2-4.8-1.2c-4.4,0-8.8,2.4-8.8,6.9c0,4.1,3.6,6.7,7.6,6.7c3.1,0,4.8-1.4,5.8-3h0.2v2.4
	h4.4V61.6C286.6,56.2,282.5,53.1,277.3,53.1L277.3,53.1z M249.1,57.5h-6.5V47h6.5c3.4,0,5.3,2.8,5.3,5.2
	C254.4,54.6,252.5,57.5,249.1,57.5z M249,42.8H238v30.6h4.6V61.8h6.4c5.1,0,10-3.7,10-9.5C259,46.4,254,42.8,249,42.8L249,42.8z
	 M189.3,69.9c-3.2,0-5.8-2.6-5.8-6.3c0-3.7,2.6-6.3,5.8-6.3c3.1,0,5.6,2.7,5.6,6.3C194.9,67.2,192.4,69.9,189.3,69.9z M194.6,55.5
	h-0.2c-1-1.2-3-2.3-5.5-2.3c-5.2,0-10,4.6-10,10.4c0,5.8,4.8,10.4,10,10.4c2.5,0,4.5-1.1,5.5-2.4h0.2v1.5c0,4-2.1,6.1-5.6,6.1
	c-2.8,0-4.5-2-5.2-3.7l-4,1.7c1.1,2.8,4.2,6.1,9.2,6.1c5.4,0,9.9-3.2,9.9-10.8V53.8h-4.3L194.6,55.5z M202.1,73.4h4.6V42.8h-4.6
	V73.4z M213.4,63.3c-0.1-4,3.1-6.1,5.4-6.1c1.8,0,3.3,0.9,3.9,2.2L213.4,63.3z M227.6,59.8c-0.9-2.3-3.5-6.6-8.9-6.6
	c-5.4,0-9.8,4.2-9.8,10.4c0,5.8,4.4,10.4,10.3,10.4c4.8,0,7.5-2.9,8.7-4.6l-3.5-2.4c-1.2,1.7-2.8,2.9-5.1,2.9c-2.3,0-4-1.1-5-3.2
	L228,61L227.6,59.8z M116.8,56.4v4.4h10.6c-0.3,2.5-1.1,4.3-2.4,5.6c-1.5,1.5-3.9,3.2-8.2,3.2c-6.5,0-11.6-5.2-11.6-11.7
	s5.1-11.7,11.6-11.7c3.5,0,6.1,1.4,8,3.2l3.1-3.1c-2.6-2.5-6.1-4.5-11.1-4.5c-8.9,0-16.4,7.2-16.4,16.2c0,8.9,7.5,16.2,16.4,16.2
	c4.8,0,8.4-1.6,11.3-4.5c2.9-2.9,3.8-7,3.8-10.3c0-1-0.1-2-0.2-2.8L116.8,56.4z M143.8,69.9c-3.2,0-5.9-2.6-5.9-6.3
	c0-3.7,2.7-6.3,5.9-6.3c3.2,0,5.9,2.6,5.9,6.3C149.7,67.3,147,69.9,143.8,69.9z M143.8,53.2c-5.8,0-10.4,4.4-10.4,10.4
	c0,6,4.7,10.4,10.4,10.4c5.8,0,10.4-4.4,10.4-10.4C154.3,57.6,149.6,53.2,143.8,53.2z M166.6,69.9c-3.2,0-5.9-2.6-5.9-6.3
	c0-3.7,2.7-6.3,5.9-6.3c3.2,0,5.9,2.6,5.9,6.3C172.5,67.3,169.8,69.9,166.6,69.9z M166.6,53.2c-5.8,0-10.4,4.4-10.4,10.4
	c0,6,4.7,10.4,10.4,10.4c5.8,0,10.4-4.4,10.4-10.4C177.1,57.6,172.4,53.2,166.6,53.2"/>
<path id="path37" class="st2" d="M50.7,47.5l-26,27.6c0,0,0,0,0,0c0.8,3,3.5,5.2,6.8,5.2c1.3,0,2.5-0.4,3.6-1l0.1,0l29.3-16.9
	L50.7,47.5"/>
<path id="path39" class="st3" d="M77,42.8L77,42.8l-12.7-7.4L50.1,48.1l14.3,14.3L77,55.2c2.2-1.2,3.7-3.5,3.7-6.2
	C80.7,46.3,79.2,44,77,42.8"/>
<path id="path41" class="st4" d="M24.6,22.7c-0.2,0.6-0.2,1.2-0.2,1.8v48.8c0,0.6,0.1,1.2,0.2,1.8l26.9-26.9L24.6,22.7"/>
<path id="path43" class="st5" d="M50.8,48.9l13.5-13.5l-29.3-17c-1.1-0.6-2.3-1-3.6-1c-3.3,0-6,2.2-6.8,5.2c0,0,0,0,0,0L50.8,48.9"
	/>
<path id="path33" class="st6" d="M115.9,23.9h-7.1v1.8h5.3c-0.1,1.4-0.7,2.6-1.7,3.4c-1,0.8-2.2,1.2-3.7,1.2c-1.6,0-3-0.6-4.1-1.7
	c-1.1-1.1-1.6-2.5-1.6-4.2c0-1.7,0.6-3.1,1.6-4.2c1.1-1.1,2.5-1.7,4.1-1.7c0.8,0,1.6,0.1,2.3,0.5c0.7,0.3,1.3,0.7,1.7,1.3l1.4-1.4
	c-0.6-0.7-1.4-1.2-2.4-1.6c-1-0.4-2-0.6-3.1-0.6c-2.1,0-3.9,0.7-5.4,2.2c-1.5,1.5-2.2,3.3-2.2,5.5s0.7,4,2.2,5.5
	c1.5,1.5,3.3,2.2,5.4,2.2c2.2,0,4-0.7,5.4-2.2c1.2-1.2,1.8-2.9,1.8-4.9C116,24.7,116,24.3,115.9,23.9L115.9,23.9z M118.7,17.1v14.7
	h8.6V30h-6.7v-4.7h6v-1.8h-6v-4.7h6.7v-1.8L118.7,17.1z M139.3,18.9v-1.8h-10.1v1.8h4.1v12.9h1.9V18.9L139.3,18.9z M148.5,17.1h-1.9
	v14.7h1.9V17.1z M160.9,18.9v-1.8h-10.1v1.8h4.1v12.9h1.9V18.9L160.9,18.9z M180,19c-1.5-1.5-3.2-2.2-5.4-2.2
	c-2.1,0-3.9,0.7-5.4,2.2c-1.5,1.5-2.2,3.3-2.2,5.5s0.7,4,2.2,5.5c1.5,1.5,3.2,2.2,5.4,2.2c2.1,0,3.9-0.7,5.4-2.2
	c1.5-1.5,2.2-3.3,2.2-5.5C182.2,22.3,181.5,20.4,180,19z M170.6,20.2c1.1-1.1,2.4-1.7,4-1.7c1.6,0,2.9,0.6,4,1.7
	c1.1,1.1,1.6,2.5,1.6,4.2c0,1.7-0.5,3.1-1.6,4.2c-1.1,1.1-2.4,1.7-4,1.7c-1.6,0-2.9-0.6-4-1.7c-1.1-1.1-1.6-2.5-1.6-4.2
	C169,22.7,169.5,21.3,170.6,20.2z M186.7,22.6l-0.1-2.8h0.1l7.5,12h2V17.1h-1.9v8.6l0.1,2.8h-0.1l-7.2-11.5h-2.3v14.7h1.9V22.6z"/>
</svg>
