<?xml version="1.0" encoding="utf-8"?>
<!-- Generator: Adobe Illustrator 24.1.2, SVG Export Plug-In . SVG Version: 6.00 Build 0)  -->
<svg version="1.1" id="Layer_1" xmlns="http://www.w3.org/2000/svg" xmlns:xlink="http://www.w3.org/1999/xlink" x="0px" y="0px"
	 viewBox="0 0 301.5 97.8" preserveAspectRatio="none" style="enable-background:new 0 0 301.5 97.8;" xml:space="preserve">
<style type="text/css">
	.st0{fill:#FFFFFF;}
</style>
<g>
	<g>
		<g>
			<path d="M19.4,97.8c-0.8,0-1.5,0-2.3,0c-1.6,0-3.2-0.2-4.8-0.4C10.8,97.1,9.4,96.6,8,96c-1.3-0.7-2.5-1.5-3.6-2.6
				c-1.1-1-1.9-2.2-2.6-3.6c-0.7-1.3-1.1-2.8-1.4-4.2C0.2,84,0.1,82.4,0,80.8c0-0.5,0-2.3,0-2.3V19.4c0,0,0-1.8,0-2.3
				c0-1.6,0.2-3.2,0.4-4.8C0.7,10.8,1.2,9.4,1.9,8c0.7-1.3,1.5-2.5,2.6-3.6c1-1,2.2-1.9,3.5-2.6s2.8-1.1,4.2-1.4
				C13.8,0.2,15.4,0,17.1,0h2.3h262.8h2.3c1.6,0,3.2,0.2,4.8,0.4c1.5,0.3,2.9,0.7,4.3,1.4c2.7,1.4,4.8,3.5,6.2,6.2
				c0.7,1.3,1.1,2.7,1.4,4.2c0.3,1.6,0.4,3.2,0.4,4.8c0,0.7,0,1.5,0,2.3c0,1,0,1.9,0,2.8v53.5c0,0.9,0,1.8,0,2.7c0,0.8,0,1.6,0,2.4
				c0,1.6-0.2,3.2-0.4,4.7c-0.2,1.5-0.7,2.9-1.4,4.3c-0.7,1.3-1.6,2.5-2.6,3.5c-1,1.1-2.3,1.9-3.6,2.6c-1.3,0.7-2.8,1.2-4.3,1.4
				c-1.6,0.3-3.2,0.4-4.8,0.4c-0.7,0-1.5,0-2.3,0h-2.8L19.4,97.8z"/>
		</g>
		<g id="_Group__1_">
			<g id="_Group_2_1_">
				<g id="_Group_3_1_">
					<path id="_Path__1_" class="st0" d="M61.1,49.7c0.1-4.3,2.3-8.3,6-10.6c-2.3-3.3-6.1-5.4-10.2-5.5c-4.3-0.5-8.5,2.6-10.6,2.6
						c-2.2,0-5.6-2.5-9.2-2.4c-4.8,0.2-9.1,2.8-11.4,7c-4.9,8.6-1.3,21.1,3.5,28.1c2.4,3.4,5.1,7.2,8.8,7c3.5-0.1,4.9-2.3,9.2-2.3
						c4.2,0,5.5,2.3,9.2,2.2c3.8-0.1,6.2-3.4,8.5-6.8c1.7-2.4,3-5.1,3.9-7.9C64,59,61.1,54.6,61.1,49.7z"/>
					<path id="_Path_2_1_" class="st0" d="M54.1,29c2.1-2.5,3.1-5.7,2.8-8.9c-3.2,0.3-6.1,1.8-8.2,4.2c-2.1,2.4-3.1,5.5-2.9,8.6
						C49.1,32.9,52.1,31.5,54.1,29z"/>
				</g>
			</g>
			<g>
				<path class="st0" d="M105.9,67.2H93.8l-2.9,8.6h-5.1L97.3,44h5.3L114,75.7h-5.2L105.9,67.2z M95.1,63.2h9.6L100,49.3h-0.1
					L95.1,63.2z"/>
				<path class="st0" d="M138.8,64.2c0,7.2-3.9,11.8-9.7,11.8c-3,0.2-5.8-1.4-7.3-4.1h-0.1v11.5H117V52.6h4.6v3.9h0.1
					c1.5-2.6,4.3-4.2,7.4-4.1C134.9,52.3,138.8,57,138.8,64.2z M133.9,64.2c0-4.7-2.4-7.8-6.1-7.8c-3.6,0-6.1,3.1-6.1,7.8
					s2.4,7.8,6.1,7.8C131.5,71.9,133.9,68.9,133.9,64.2z"/>
				<path class="st0" d="M164.3,64.2c0,7.2-3.9,11.8-9.7,11.8c-3,0.2-5.8-1.4-7.3-4.1h-0.1v11.5h-4.8V52.6h4.6v3.9h0.1
					c1.5-2.6,4.3-4.2,7.4-4.1C160.4,52.3,164.3,57,164.3,64.2z M159.4,64.2c0-4.7-2.4-7.8-6.1-7.8c-3.6,0-6.1,3.1-6.1,7.8
					s2.4,7.8,6.1,7.8C157,71.9,159.4,68.9,159.4,64.2L159.4,64.2z"/>
				<path class="st0" d="M181.1,66.9c0.4,3.1,3.4,5.2,7.6,5.2c4,0,6.9-2.1,6.9-4.9c0-2.5-1.7-3.9-5.9-5l-4.1-1
					c-5.8-1.4-8.5-4.1-8.5-8.6c0-5.5,4.8-9.2,11.6-9.2c6.7,0,11.3,3.8,11.5,9.2h-4.8c-0.3-3.2-2.9-5.1-6.7-5.1s-6.4,1.9-6.4,4.8
					c0,2.2,1.7,3.6,5.8,4.6l3.5,0.9c6.5,1.5,9.2,4.2,9.2,8.8c0,5.9-4.7,9.7-12.3,9.7c-7,0-11.8-3.6-12.1-9.4L181.1,66.9z"/>
				<path class="st0" d="M210.9,47.1v5.5h4.4v3.8h-4.4v12.8c0,2,0.9,2.9,2.8,2.9c0.5,0,1,0,1.6-0.1v3.7c-0.9,0.2-1.8,0.2-2.6,0.2
					c-4.7,0-6.5-1.8-6.5-6.2V56.3h-3.4v-3.8h3.4V47L210.9,47.1L210.9,47.1z"/>
				<path class="st0" d="M217.8,64.2c0-7.3,4.3-11.9,11-11.9s11,4.6,11,11.9s-4.2,11.9-11,11.9C222.1,76,217.8,71.5,217.8,64.2z
					 M234.9,64.2c0-5-2.3-7.9-6.1-7.9c-3.9,0-6.1,3-6.1,7.9c0,5,2.3,7.9,6.1,7.9C232.7,72.1,234.9,69.2,234.9,64.2L234.9,64.2z"/>
				<path class="st0" d="M243.7,52.6h4.5v3.9h0.1c0.6-2.5,3-4.3,5.6-4.2c0.5,0,1.1,0.1,1.6,0.2V57c-0.7-0.2-1.4-0.3-2.1-0.3
					c-2.6-0.1-4.9,1.9-5,4.6c0,0.2,0,0.5,0,0.7v13.7h-4.8L243.7,52.6z"/>
				<path class="st0" d="M277.4,68.9c-0.6,4.2-4.7,7.1-10,7.1c-6.7,0-10.9-4.5-10.9-11.8s4.2-12,10.7-12c6.4,0,10.4,4.4,10.4,11.4
					v1.6h-16.3v0.3c-0.3,3.3,2.2,6.2,5.5,6.5c0.3,0,0.5,0,0.8,0c2.3,0.2,4.5-1.1,5.3-3.3L277.4,68.9z M261.4,62H273
					c0.2-3.1-2.2-5.7-5.2-5.9c-0.1,0-0.3,0-0.4,0C264,56.1,261.4,58.7,261.4,62L261.4,62z"/>
			</g>
		</g>
	</g>
	<g id="_Group_4_1_">
		<g>
			<path class="st0" d="M94.5,20.1c3.7-0.3,6.9,2.5,7.2,6.2c0,0.4,0,0.9,0,1.3c0,4.9-2.6,7.7-7.2,7.7H89V20.1H94.5z M91.3,33.2h2.9
				c2.6,0.2,4.9-1.9,5.1-4.5c0-0.3,0-0.7,0-1c0.4-2.6-1.5-5.1-4.1-5.4c-0.3,0-0.6-0.1-0.9,0h-2.9L91.3,33.2L91.3,33.2z"/>
			<path class="st0" d="M104.3,29.6c-0.3-3,1.9-5.7,4.9-5.9c3-0.3,5.7,1.9,5.9,4.9c0,0.3,0,0.7,0,1c0.3,3-1.9,5.7-4.9,6
				s-5.7-1.9-6-4.9C104.3,30.3,104.3,29.9,104.3,29.6z M112.9,29.6c0-2.5-1.1-4-3.1-4s-3.1,1.5-3.1,4s1.1,4,3.1,4
				C111.7,33.5,112.9,32.1,112.9,29.6L112.9,29.6z"/>
			<path class="st0" d="M129.6,35.3h-2.4l-2.4-8.5h-0.2l-2.4,8.5H120l-3.2-11.5h2.3l2.1,8.8h0.2l2.4-8.8h2.2l2.4,8.8h0.2l2.1-8.8
				h2.3L129.6,35.3z"/>
			<path class="st0" d="M135.5,23.8h2.2v1.8h0.2c0.6-1.3,2-2.2,3.4-2.1c2.1-0.2,3.9,1.4,4,3.5c0,0.3,0,0.6,0,0.8v7.5H143v-6.9
				c0-1.9-0.8-2.8-2.5-2.8c-1.5-0.1-2.7,1.1-2.8,2.5c0,0.1,0,0.3,0,0.4v6.7h-2.3L135.5,23.8z"/>
			<path class="st0" d="M148.9,19.3h2.3v16h-2.3V19.3z"/>
			<path class="st0" d="M154.3,29.6c-0.3-3,1.9-5.7,4.9-5.9c3-0.3,5.7,1.9,5.9,4.9c0,0.3,0,0.7,0,1c0.3,3-1.9,5.7-4.9,6
				s-5.7-1.9-6-4.9C154.3,30.3,154.3,29.9,154.3,29.6z M162.8,29.6c0-2.5-1.1-4-3.1-4s-3.1,1.5-3.1,4s1.1,4,3.1,4
				C161.7,33.5,162.8,32.1,162.8,29.6z"/>
			<path class="st0" d="M167.5,32.1c0-2.1,1.5-3.3,4.3-3.4l3.1-0.2v-1c0-1.2-0.8-1.9-2.4-1.9c-1.3,0-2.1,0.5-2.4,1.3H168
				c0.2-2,2.1-3.2,4.7-3.2c2.9,0,4.5,1.4,4.5,3.9v7.9H175v-1.6h-0.2c-0.7,1.2-2.1,1.9-3.5,1.8c-1.9,0.2-3.6-1.2-3.8-3.1
				C167.6,32.3,167.5,32.2,167.5,32.1z M174.9,31.1v-1l-2.8,0.2c-1.6,0.1-2.3,0.6-2.3,1.7c0,1,0.9,1.6,2.1,1.6
				C173.5,33.8,174.8,32.7,174.9,31.1C174.9,31.2,174.9,31.1,174.9,31.1z"/>
			<path class="st0" d="M180.2,29.6c0-3.6,1.9-5.9,4.8-5.9c1.5-0.1,2.8,0.7,3.5,2h0.2v-6.3h2.3v16h-2.2v-1.8h-0.2
				c-0.7,1.3-2.1,2.1-3.6,2C182,35.5,180.2,33.2,180.2,29.6z M182.5,29.6c0,2.4,1.2,3.9,3.1,3.9c1.9,0,3.1-1.5,3.1-3.9
				s-1.2-3.9-3.1-3.9S182.5,27.2,182.5,29.6L182.5,29.6z"/>
			<path class="st0" d="M200.3,29.6c-0.3-3,1.9-5.7,4.9-5.9c3-0.3,5.7,1.9,5.9,4.9c0,0.3,0,0.7,0,1c0.3,3-1.9,5.7-4.9,6
				s-5.7-1.9-6-4.9C200.3,30.3,200.3,29.9,200.3,29.6z M208.9,29.6c0-2.5-1.1-4-3.1-4s-3.1,1.5-3.1,4s1.1,4,3.1,4
				C207.7,33.5,208.9,32.1,208.9,29.6z"/>
			<path class="st0" d="M214.3,23.8h2.2v1.8h0.2c0.6-1.3,2-2.2,3.4-2.1c2.1-0.2,3.9,1.4,4,3.5c0,0.3,0,0.6,0,0.8v7.5h-2.3v-6.9
				c0-1.9-0.8-2.8-2.5-2.8c-1.5-0.1-2.7,1.1-2.8,2.5c0,0.1,0,0.3,0,0.4v6.7h-2.3V23.8H214.3z"/>
			<path class="st0" d="M236.9,21v2.9h2.5v1.9h-2.5v5.9c0,1.2,0.5,1.7,1.6,1.7c0.3,0,0.6,0,0.9-0.1v1.9c-0.4,0.1-0.8,0.1-1.2,0.1
				c-2.5,0-3.5-0.9-3.5-3.1v-6.5h-1.8v-1.9h1.8V21H236.9z"/>
			<path class="st0" d="M242.5,19.3h2.3v6.3h0.2c0.6-1.4,2-2.2,3.5-2.1c2.1-0.1,3.9,1.5,4,3.6c0,0.2,0,0.5,0,0.7v7.4h-2.3v-6.9
				c0-1.8-0.9-2.8-2.5-2.8c-1.5-0.1-2.8,1-2.9,2.5c0,0.2,0,0.3,0,0.5v6.7h-2.3V19.3z"/>
			<path class="st0" d="M265.6,32.2c-0.6,2.2-2.7,3.6-5,3.3c-2.9,0.1-5.3-2.2-5.4-5.1c0-0.3,0-0.6,0-0.9c-0.4-2.9,1.7-5.6,4.6-6
				c0.2,0,0.5,0,0.8,0c3.2,0,5.1,2.2,5.1,5.8v0.8h-8.1v0.1c-0.1,1.7,1.1,3.1,2.8,3.3c0.1,0,0.2,0,0.3,0c1.1,0.1,2.2-0.4,2.7-1.4
				L265.6,32.2z M257.6,28.5h5.8c0.1-1.5-1-2.9-2.6-3c-0.1,0-0.2,0-0.3,0C259,25.5,257.7,26.8,257.6,28.5L257.6,28.5L257.6,28.5z"/>
		</g>
	</g>
</g>
</svg>
