<svg xmlns="http://www.w3.org/2000/svg" width="32" height="24" viewBox="0 0 32 24"><g fill="none"><path fill="#000" d="M26.8 12v-1h.8c.3 0 .5.1.6.4v.1c0 .3-.2.5-.5.5h-.9zm-.8 1.8h.8v-1.1h.6l.7 1.1h.9l-.8-1.3c.5-.2.8-.6.7-1.1 0-.3-.1-.6-.3-.8-.3-.3-.6-.4-1-.4H26v3.6zm-3.3 0h2.6v-.7h-1.9v-.7H25v-.7h-1.6v-.8h1.8v-.7h-2.6l.1 3.6zm-2.6 0h.7l1.4-3.6h-.8l-.9 2.5-.9-2.5h-.8l1.3 3.6zm-6.9.1c.5 0 1.1-.2 1.4-.6l-.5-.5c-.2.3-.6.4-.9.4-.6 0-1-.5-1-1.1 0-.6.4-1.1 1-1.1.3 0 .7.2.9.4l.5-.6c-.3-.4-.8-.6-1.4-.6-1 0-1.8.8-1.8 1.8v.1c0 .9.7 1.7 1.8 1.8-.1 0 0 0 0 0zm-3.5 0c.6.1 1.2-.3 1.3-1v-.2c0-.6-.5-1.1-1.1-1.1-.6-.1-.8-.2-.8-.4s.2-.3.4-.3c.3 0 .6.1.9.4l.4-.6c-.3-.4-.8-.5-1.2-.5-.6-.1-1.2.3-1.2.9v.1c0 .7.4.9 1.1 1.1.6.2.7.3.7.5s-.2.4-.5.3c-.4 0-.7-.2-1-.4l-.4.6c.3.4.9.6 1.4.6zm-2.8-.1h.8v-3.6h-.8v3.6zm-3.1-.7v-2.2h.6c.6 0 1 .4 1 1v.1c0 .6-.4 1-.9 1.1h-.7zm-.8.7h1.3c1 0 1.8-.7 1.8-1.7V12c0-1-.7-1.8-1.7-1.8H3v3.6z"/><path fill="#F16000" d="M16.7 13.9c1 0 1.8-.8 1.8-1.8V12a2 2 0 00-1.8-1.9c-1-.1-1.8.8-1.9 1.8v.1c.1 1 .9 1.8 1.9 1.9"/></g></svg>
