<svg xmlns="http://www.w3.org/2000/svg" width="32" height="24" viewBox="0 0 32 24"><path fill="#16277C" d="M10.1 8.1l-2 5.3-.2-1.1a5.9 5.9 0 00-2.8-3.2l1.8 6.8H9l3.2-7.7-2.1-.1zm13.8 5l.8-2.2.3-.7.1.7.5 2.2h-1.7zm2.5-5h-1.6c-.5-.1-.9.2-1.1.6l-3 7.1h2.1l.4-1.2h2.6l.2 1.2h2l-1.6-7.7zm-5.2.2L19.4 8c-2 0-3.4 1-3.4 2.6.1 1 .8 1.8 1.8 2.1.8.4 1.1.6 1 1-.1.5-.7.9-1.2.8a4 4 0 01-1.9-.4l-.3-.1-.3 1.7c.7.3 1.5.4 2.3.4 2.1 0 3.5-1 3.5-2.6 0-.9-.5-1.6-1.7-2.1-.7-.4-1.1-.6-1.1-1 0-.3.4-.7 1.2-.7l1.5.3h.1l.3-1.7zm-9.4 7.6l1.3-7.7h2l-1.3 7.7h-2zM6.3 8.1a1 1 0 01.9.7l.7 3.5c-.8-2-2.7-3.6-4.9-4v-.2h3.3z"/></svg>
