<?xml version="1.0" encoding="utf-8"?>
<!-- Generator: Adobe Illustrator 16.0.4, SVG Export Plug-In . SVG Version: 6.00 Build 0)  -->
<!DOCTYPE svg PUBLIC "-//W3C//DTD SVG 1.1//EN" "http://www.w3.org/Graphics/SVG/1.1/DTD/svg11.dtd">
<svg version="1.1" id="OBJECTS" xmlns="http://www.w3.org/2000/svg" xmlns:xlink="http://www.w3.org/1999/xlink" x="0px" y="0px"
	 width="100px" height="63.481px" viewBox="0 18.259 100 63.481" enable-background="new 0 18.259 100 63.481" xml:space="preserve"
	>
<g>
	<path fill="#009FFF" d="M100,22.542v54.915c0,2.361-1.922,4.283-4.283,4.283H4.283C1.922,81.74,0,79.818,0,77.457V22.542
		c0-2.361,1.922-4.283,4.283-4.283h91.434C98.078,18.259,100,20.181,100,22.542z"/>
	<g>
		<path fill="#FFFFFF" d="M8.622,26.497c0.165,0.219,0.274,0.494,0.274,0.824c0,0.439-0.165,0.824-0.439,1.098
			c-0.275,0.274-0.769,0.384-1.318,0.384H4.613v-5.381h2.471c0.549,0,0.988,0.11,1.263,0.384c0.274,0.274,0.439,0.604,0.439,1.043
			c0,0.33-0.109,0.604-0.274,0.824c-0.165,0.22-0.384,0.384-0.659,0.439C8.182,26.112,8.457,26.277,8.622,26.497z M5.931,25.618
			H6.81c0.439,0,0.659-0.22,0.659-0.604s-0.22-0.604-0.714-0.604H5.931V25.618z M7.578,27.155c0-0.22-0.055-0.33-0.165-0.439
			c-0.11-0.109-0.33-0.165-0.549-0.165H5.931v1.208h0.934C7.358,27.759,7.578,27.54,7.578,27.155z"/>
		<path fill="#FFFFFF" d="M12.96,27.814h-2.032l-0.33,0.988H9.226l1.977-5.381h1.483l1.977,5.381H13.29L12.96,27.814z M12.63,26.826
			l-0.714-1.977l-0.659,1.977H12.63z"/>
		<path fill="#FFFFFF" d="M19.989,28.803h-1.318l-2.196-3.295v3.295h-1.318v-5.381h1.318l2.196,3.35v-3.35h1.318V28.803z"/>
		<path fill="#FFFFFF" d="M23.394,26.057l2.197,2.746h-1.592l-1.812-2.416v2.416h-1.318v-5.381h1.318v2.361l1.867-2.361h1.538
			L23.394,26.057z"/>
	</g>
	<g>
		<path fill="#FFFFFF" d="M10.434,72.295c0.22,0.165,0.33,0.385,0.439,0.715h-0.659c-0.055-0.11-0.11-0.221-0.22-0.275
			s-0.22-0.109-0.384-0.109c-0.165,0-0.33,0.055-0.439,0.22c-0.11,0.11-0.165,0.329-0.165,0.549s0.055,0.385,0.165,0.55
			c0.11,0.109,0.274,0.219,0.439,0.219c0.165,0,0.274-0.055,0.384-0.109s0.165-0.164,0.22-0.274h0.659
			c-0.055,0.274-0.22,0.549-0.439,0.714c-0.219,0.164-0.494,0.274-0.823,0.274c-0.275,0-0.495-0.055-0.659-0.165
			c-0.165-0.109-0.33-0.274-0.439-0.439c-0.11-0.164-0.165-0.439-0.165-0.658c0-0.275,0.055-0.494,0.165-0.659
			s0.274-0.329,0.439-0.439c0.165-0.11,0.384-0.165,0.659-0.165C9.939,72.021,10.214,72.076,10.434,72.295z"/>
		<path fill="#FFFFFF" d="M12.521,74.602l-0.549-0.988h-0.165v0.988h-0.604v-2.58h1.043c0.22,0,0.384,0.055,0.494,0.109
			c0.165,0.055,0.274,0.164,0.33,0.274c0.055,0.11,0.11,0.274,0.11,0.439s-0.055,0.329-0.165,0.494s-0.274,0.22-0.439,0.274
			l0.604,1.043h-0.659V74.602z M11.807,73.229h0.384c0.11,0,0.22-0.055,0.275-0.109c0.055-0.055,0.11-0.109,0.11-0.22
			s-0.055-0.165-0.11-0.22c-0.055-0.055-0.165-0.109-0.275-0.109h-0.384V73.229z"/>
		<path fill="#FFFFFF" d="M14.113,72.516v0.549h0.878v0.494h-0.878v0.549h0.988v0.494h-1.592v-2.58h1.592v0.494H14.113z"/>
		<path fill="#FFFFFF" d="M17.627,73.998c-0.109,0.219-0.274,0.329-0.494,0.439c-0.22,0.109-0.439,0.164-0.714,0.164h-0.988v-2.58
			h1.043c0.274,0,0.494,0.055,0.714,0.164s0.384,0.274,0.439,0.439c0.11,0.22,0.165,0.439,0.165,0.658
			C17.792,73.559,17.737,73.778,17.627,73.998z M16.969,73.889c0.11-0.11,0.22-0.33,0.22-0.55s-0.055-0.439-0.22-0.55
			c-0.11-0.109-0.33-0.219-0.549-0.219h-0.274v1.482h0.274C16.639,74.053,16.859,73.998,16.969,73.889z"/>
		<path fill="#FFFFFF" d="M18.781,72.021v2.58h-0.604v-2.58H18.781z"/>
		<path fill="#FFFFFF" d="M21.087,72.021v0.494h-0.714v2.086H19.77v-2.086h-0.714v-0.494H21.087z"/>
		<path fill="#FFFFFF" d="M24.053,72.295c0.22,0.165,0.33,0.385,0.439,0.715h-0.659c-0.055-0.11-0.11-0.221-0.22-0.275
			s-0.22-0.109-0.384-0.109s-0.33,0.055-0.439,0.22s-0.165,0.329-0.165,0.549s0.055,0.385,0.165,0.55
			c0.11,0.164,0.275,0.219,0.439,0.219s0.274-0.055,0.384-0.109s0.165-0.164,0.22-0.274h0.659c-0.055,0.274-0.22,0.549-0.439,0.714
			c-0.22,0.164-0.494,0.274-0.824,0.274c-0.274,0-0.494-0.055-0.659-0.165c-0.165-0.109-0.329-0.274-0.439-0.439
			c-0.11-0.219-0.165-0.439-0.165-0.658c0-0.275,0.055-0.494,0.165-0.659c0.11-0.22,0.274-0.329,0.439-0.439
			c0.165-0.11,0.385-0.165,0.659-0.165C23.559,72.021,23.833,72.076,24.053,72.295z"/>
		<path fill="#FFFFFF" d="M26.469,74.162H25.48l-0.165,0.494h-0.659l0.934-2.58h0.714l0.934,2.58h-0.659L26.469,74.162z
			 M26.304,73.668l-0.33-0.934l-0.33,0.934H26.304z"/>
		<path fill="#FFFFFF" d="M28.83,74.602l-0.549-0.988h-0.165v0.988h-0.604v-2.58h1.043c0.22,0,0.384,0.055,0.494,0.109
			c0.165,0.055,0.275,0.164,0.33,0.274c0.055,0.11,0.11,0.274,0.11,0.439s-0.055,0.329-0.165,0.494s-0.275,0.22-0.439,0.274
			l0.604,1.043H28.83V74.602z M28.116,73.229h0.385c0.11,0,0.22-0.055,0.274-0.109s0.11-0.109,0.11-0.22s-0.055-0.165-0.11-0.22
			s-0.165-0.109-0.274-0.109h-0.385V73.229z"/>
		<path fill="#FFFFFF" d="M32.016,73.998c-0.11,0.219-0.275,0.329-0.495,0.439c-0.22,0.109-0.439,0.164-0.714,0.164h-0.988v-2.58
			h0.988c0.275,0,0.494,0.055,0.714,0.164s0.385,0.274,0.439,0.439c0.11,0.22,0.165,0.439,0.165,0.658
			C32.18,73.559,32.125,73.778,32.016,73.998z M31.356,73.889c0.11-0.11,0.22-0.33,0.22-0.55s-0.055-0.439-0.22-0.55
			c-0.11-0.109-0.33-0.219-0.549-0.219h-0.274v1.482h0.22C31.027,74.053,31.191,73.998,31.356,73.889z"/>
	</g>
	<g>
		<path fill="#FFFFFF" d="M8.182,56.315v-0.55h1.263v4.504H8.841v-3.954H8.182z"/>
		<path fill="#FFFFFF" d="M11.917,58.348c0.439-0.494,0.659-0.934,0.659-1.318c0-0.275-0.055-0.439-0.22-0.604
			c-0.11-0.165-0.33-0.22-0.604-0.22c-0.275,0-0.495,0.11-0.659,0.275c-0.165,0.164-0.22,0.439-0.274,0.768h-0.549
			c0.055-0.494,0.165-0.878,0.439-1.152c0.274-0.275,0.659-0.385,1.098-0.385s0.769,0.109,0.988,0.33
			c0.22,0.219,0.385,0.549,0.385,0.934c0,0.329-0.11,0.658-0.33,1.043c-0.22,0.33-0.494,0.659-0.824,0.988
			c-0.33,0.275-0.659,0.549-0.988,0.77h2.251v0.494h-3.075V59.83C10.928,59.336,11.477,58.842,11.917,58.348z"/>
		<path fill="#FFFFFF" d="M16.2,55.766c0.22,0.11,0.385,0.221,0.495,0.439c0.109,0.165,0.165,0.385,0.165,0.604
			c0,0.274-0.055,0.494-0.22,0.714s-0.384,0.33-0.714,0.33v0.055c0.33,0.109,0.604,0.219,0.769,0.384
			c0.165,0.165,0.274,0.439,0.274,0.714c0,0.385-0.11,0.659-0.384,0.879c-0.22,0.22-0.604,0.33-1.043,0.33s-0.824-0.11-1.099-0.385
			c-0.274-0.22-0.439-0.604-0.494-1.044h0.549c0.055,0.274,0.165,0.495,0.33,0.659c0.165,0.165,0.439,0.274,0.714,0.274
			c0.274,0,0.494-0.055,0.659-0.22c0.165-0.164,0.22-0.329,0.22-0.549c0-0.274-0.11-0.494-0.33-0.659
			c-0.219-0.165-0.549-0.22-0.933-0.22h-0.165v-0.494h0.165c0.769,0,1.153-0.274,1.153-0.769c0-0.22-0.055-0.385-0.22-0.55
			c-0.165-0.109-0.329-0.219-0.604-0.219c-0.274,0-0.494,0.055-0.659,0.219c-0.165,0.165-0.275,0.385-0.33,0.66h-0.549
			c0.055-0.439,0.165-0.77,0.439-0.989s0.604-0.384,1.098-0.384C15.706,55.656,15.98,55.711,16.2,55.766z"/>
		<path fill="#FFFFFF" d="M17.463,59.226v-0.494l2.307-3.021h0.604v2.966h0.659v0.494h-0.659v1.044H19.77v-1.044L17.463,59.226
			L17.463,59.226z M19.879,56.425l-1.757,2.252h1.757V56.425z"/>
	</g>
	<g>
		<path fill="#FFFFFF" d="M84.074,56.315v-0.55h1.264v4.504h-0.604v-3.954H84.074z"/>
		<path fill="#FFFFFF" d="M87.809,58.348c0.439-0.494,0.659-0.934,0.659-1.318c0-0.275-0.055-0.439-0.22-0.604
			c-0.109-0.165-0.329-0.22-0.604-0.22c-0.275,0-0.494,0.11-0.659,0.275c-0.165,0.164-0.22,0.439-0.274,0.768h-0.549
			c0.055-0.494,0.164-0.878,0.438-1.152c0.274-0.275,0.659-0.385,1.099-0.385s0.769,0.109,0.988,0.33
			c0.22,0.219,0.385,0.549,0.385,0.934c0,0.329-0.11,0.658-0.33,1.043c-0.219,0.33-0.494,0.659-0.823,0.988
			c-0.329,0.275-0.659,0.549-0.989,0.77h2.252v0.494h-3.075V59.83C86.766,59.336,87.369,58.842,87.809,58.348z"/>
		<path fill="#FFFFFF" d="M92.037,55.766c0.22,0.11,0.385,0.221,0.494,0.439c0.11,0.165,0.165,0.385,0.165,0.604
			c0,0.274-0.055,0.494-0.22,0.714c-0.164,0.22-0.385,0.33-0.714,0.33v0.055c0.329,0.109,0.604,0.219,0.769,0.384
			c0.165,0.165,0.275,0.439,0.275,0.714c0,0.385-0.11,0.659-0.385,0.879c-0.22,0.22-0.604,0.33-1.043,0.33s-0.824-0.11-1.099-0.385
			c-0.274-0.22-0.439-0.604-0.495-1.044h0.55c0.055,0.274,0.165,0.495,0.329,0.659c0.165,0.165,0.439,0.274,0.715,0.274
			c0.273,0,0.494-0.055,0.658-0.22c0.165-0.164,0.22-0.329,0.22-0.549c0-0.274-0.11-0.494-0.329-0.659
			c-0.22-0.165-0.549-0.22-0.934-0.22h-0.165v-0.494h0.165c0.769,0,1.152-0.274,1.152-0.769c0-0.22-0.055-0.385-0.219-0.55
			c-0.165-0.109-0.33-0.219-0.604-0.219s-0.494,0.055-0.659,0.219c-0.164,0.165-0.274,0.385-0.329,0.66h-0.55
			c0.056-0.439,0.166-0.77,0.439-0.989c0.275-0.22,0.604-0.384,1.099-0.384C91.598,55.656,91.818,55.711,92.037,55.766z"/>
	</g>
	<g>
		<path fill="#FFFFFF" d="M28.83,56.205h-2.306v1.482c0.11-0.164,0.274-0.273,0.439-0.329c0.219-0.11,0.439-0.11,0.659-0.11
			c0.33,0,0.604,0.056,0.769,0.221c0.22,0.109,0.384,0.329,0.439,0.549c0.11,0.22,0.165,0.439,0.165,0.714
			c0,0.439-0.11,0.823-0.384,1.153c-0.275,0.274-0.659,0.439-1.153,0.439c-0.439,0-0.824-0.109-1.098-0.385
			c-0.275-0.22-0.439-0.549-0.495-0.988h0.549c0.055,0.274,0.165,0.494,0.33,0.604c0.165,0.165,0.384,0.221,0.659,0.221
			c0.33,0,0.549-0.11,0.714-0.275c0.165-0.219,0.275-0.439,0.275-0.769s-0.11-0.55-0.275-0.714
			c-0.165-0.164-0.384-0.274-0.714-0.274c-0.22,0-0.439,0.055-0.604,0.165c-0.165,0.109-0.274,0.219-0.384,0.384h-0.549v-2.526
			h2.856v0.439H28.83z"/>
		<path fill="#FFFFFF" d="M32.016,56.315c-0.165-0.165-0.33-0.22-0.604-0.22c-0.384,0-0.659,0.164-0.824,0.439
			c-0.165,0.274-0.274,0.713-0.274,1.318v0.219c0.055-0.274,0.22-0.439,0.439-0.604c0.22-0.165,0.494-0.221,0.824-0.221
			c0.439,0,0.769,0.11,1.043,0.385c0.274,0.275,0.384,0.659,0.384,1.099c0,0.274-0.055,0.55-0.165,0.769
			c-0.109,0.22-0.274,0.385-0.494,0.549c-0.22,0.11-0.494,0.221-0.824,0.221c-0.659,0-1.098-0.221-1.318-0.604
			s-0.384-0.934-0.384-1.647c0-0.77,0.11-1.373,0.384-1.812c0.274-0.385,0.659-0.604,1.263-0.604c0.439,0,0.769,0.109,0.988,0.385
			c0.22,0.219,0.384,0.549,0.384,0.934H32.29C32.235,56.699,32.125,56.48,32.016,56.315z M30.643,59.445
			c0.165,0.22,0.439,0.33,0.824,0.33c0.274,0,0.549-0.11,0.714-0.275c0.165-0.164,0.274-0.439,0.274-0.714
			c0-0.329-0.11-0.604-0.274-0.769s-0.439-0.274-0.714-0.274c-0.165,0-0.33,0.055-0.494,0.11c-0.165,0.055-0.275,0.164-0.385,0.328
			c-0.11,0.166-0.165,0.33-0.165,0.55C30.368,59.006,30.478,59.281,30.643,59.445z"/>
		<path fill="#FFFFFF" d="M36.354,56.205l-1.702,4.064h-0.604l1.702-4.01h-2.361v-0.494h2.911L36.354,56.205L36.354,56.205z"/>
		<path fill="#FFFFFF" d="M37.177,56.205c0.11-0.164,0.275-0.329,0.549-0.439c0.22-0.109,0.494-0.164,0.824-0.164
			s0.604,0.055,0.824,0.164c0.22,0.11,0.384,0.275,0.549,0.439c0.109,0.165,0.165,0.385,0.165,0.604c0,0.274-0.055,0.438-0.22,0.659
			c-0.11,0.164-0.33,0.329-0.604,0.385c0.274,0.055,0.549,0.219,0.714,0.438s0.274,0.439,0.274,0.714
			c0,0.439-0.165,0.77-0.439,0.988c-0.275,0.221-0.714,0.385-1.208,0.385c-0.494,0-0.878-0.109-1.208-0.385
			c-0.274-0.219-0.439-0.549-0.439-0.988c0-0.274,0.055-0.549,0.22-0.714c0.165-0.22,0.385-0.329,0.714-0.438
			c-0.274-0.056-0.494-0.221-0.604-0.385c-0.11-0.165-0.22-0.385-0.22-0.659C37.013,56.59,37.067,56.37,37.177,56.205z
			 M37.727,59.665c0.22,0.165,0.439,0.22,0.769,0.22c0.33,0,0.604-0.055,0.769-0.22c0.22-0.165,0.274-0.384,0.274-0.659
			c0-0.274-0.11-0.494-0.33-0.658c-0.219-0.166-0.439-0.221-0.769-0.221s-0.604,0.055-0.769,0.221
			c-0.165,0.164-0.329,0.384-0.329,0.658C37.342,59.281,37.562,59.5,37.727,59.665z M37.836,57.469
			c0.165,0.164,0.384,0.219,0.714,0.219c0.274,0,0.549-0.055,0.714-0.219c0.165-0.165,0.274-0.33,0.274-0.604
			s-0.11-0.439-0.274-0.604c-0.165-0.164-0.384-0.219-0.714-0.219c-0.274,0-0.549,0.055-0.714,0.219
			c-0.165,0.165-0.274,0.33-0.274,0.604S37.671,57.358,37.836,57.469z"/>
	</g>
	<g>
		<path fill="#FFFFFF" d="M45.36,57.963c0-0.715,0.11-1.264,0.329-1.647c0.22-0.385,0.659-0.604,1.208-0.604
			c0.604,0,0.988,0.22,1.263,0.604c0.22,0.384,0.385,0.933,0.385,1.647c0,0.714-0.11,1.263-0.385,1.702
			c-0.219,0.384-0.659,0.604-1.263,0.604s-0.989-0.221-1.208-0.604C45.47,59.226,45.36,58.677,45.36,57.963z M47.996,57.963
			c0-0.385,0-0.659-0.055-0.934c-0.055-0.22-0.165-0.439-0.275-0.604c-0.165-0.165-0.384-0.22-0.659-0.22
			c-0.275,0-0.495,0.055-0.659,0.22s-0.274,0.329-0.274,0.604c-0.055,0.219-0.055,0.549-0.055,0.934s0,0.658,0.055,0.934
			c0.055,0.274,0.165,0.439,0.274,0.604c0.11,0.165,0.384,0.22,0.659,0.22c0.274,0,0.494-0.055,0.659-0.22
			c0.165-0.164,0.275-0.329,0.275-0.604C47.941,58.621,47.996,58.348,47.996,57.963z"/>
		<path fill="#FFFFFF" d="M48.984,56.315v-0.55h1.263v4.504h-0.604v-3.954H48.984z"/>
		<path fill="#FFFFFF" d="M52.719,58.348c0.439-0.494,0.658-0.934,0.658-1.318c0-0.275-0.055-0.439-0.219-0.604
			c-0.11-0.165-0.33-0.22-0.604-0.22s-0.495,0.11-0.659,0.275c-0.164,0.164-0.274,0.439-0.274,0.768h-0.55
			c0.056-0.494,0.165-0.878,0.439-1.152c0.275-0.275,0.659-0.385,1.099-0.385s0.769,0.109,0.988,0.33
			c0.22,0.219,0.385,0.549,0.385,0.934c0,0.329-0.11,0.658-0.329,1.043c-0.221,0.33-0.494,0.659-0.824,0.988
			c-0.33,0.275-0.659,0.549-0.988,0.77h2.252v0.494h-3.076V59.83C51.73,59.336,52.279,58.842,52.719,58.348z"/>
		<path fill="#FFFFFF" d="M56.947,55.766c0.219,0.11,0.384,0.221,0.494,0.439c0.109,0.165,0.164,0.385,0.164,0.604
			c0,0.274-0.055,0.494-0.219,0.714c-0.166,0.164-0.385,0.33-0.715,0.33v0.055c0.33,0.109,0.604,0.219,0.77,0.384
			c0.164,0.165,0.273,0.439,0.273,0.714c0,0.385-0.109,0.659-0.384,0.879c-0.22,0.22-0.604,0.33-1.044,0.33
			c-0.438,0-0.823-0.11-1.098-0.385c-0.274-0.22-0.439-0.604-0.494-1.044h0.549c0.055,0.274,0.165,0.495,0.33,0.659
			c0.164,0.165,0.439,0.274,0.713,0.274c0.275,0,0.495-0.055,0.66-0.22c0.164-0.164,0.219-0.329,0.219-0.549
			c0-0.274-0.109-0.494-0.329-0.659s-0.55-0.22-0.934-0.22h-0.165v-0.494h0.165c0.769,0,1.153-0.274,1.153-0.769
			c0-0.22-0.055-0.385-0.22-0.55c-0.165-0.109-0.329-0.219-0.604-0.219c-0.273,0-0.494,0.055-0.658,0.219
			c-0.165,0.165-0.275,0.385-0.33,0.66h-0.549c0.055-0.439,0.164-0.77,0.439-0.989c0.274-0.22,0.604-0.384,1.098-0.384
			C56.508,55.656,56.782,55.711,56.947,55.766z"/>
	</g>
	<g>
		<path fill="#FFFFFF" d="M18.451,66.749c0-0.329,0.055-0.604,0.165-0.769c0.11-0.165,0.33-0.275,0.604-0.275
			s0.494,0.11,0.604,0.275c0.11,0.164,0.165,0.439,0.165,0.769s-0.055,0.604-0.165,0.769c-0.11,0.165-0.33,0.275-0.604,0.275
			s-0.494-0.11-0.604-0.275C18.506,67.354,18.451,67.133,18.451,66.749z M19.66,66.749c0-0.165,0-0.329-0.055-0.439
			c0-0.11-0.055-0.22-0.165-0.274c-0.055-0.055-0.165-0.109-0.33-0.109c-0.11,0-0.22,0.055-0.274,0.109
			c-0.055,0.055-0.11,0.164-0.165,0.274c-0.055,0.11-0.055,0.274-0.055,0.439s0,0.329,0.055,0.439
			c0.055,0.11,0.055,0.22,0.165,0.274c0.055,0.055,0.165,0.109,0.274,0.109s0.22-0.055,0.33-0.109
			c0.055-0.055,0.11-0.164,0.165-0.274C19.66,67.078,19.66,66.969,19.66,66.749z"/>
		<path fill="#FFFFFF" d="M20.154,65.98v-0.275h0.604v2.143h-0.274V65.98H20.154z"/>
		<path fill="#FFFFFF" d="M22.076,64.992l-0.824,3.35h-0.274l0.824-3.35H22.076z"/>
		<path fill="#FFFFFF" d="M23.009,66.969c0.22-0.22,0.33-0.439,0.33-0.604c0-0.11-0.055-0.221-0.11-0.275
			c-0.055-0.055-0.165-0.109-0.274-0.109c-0.165,0-0.22,0.055-0.33,0.109c-0.055,0.109-0.11,0.22-0.11,0.385h-0.274
			c0-0.22,0.11-0.439,0.219-0.549c0.11-0.11,0.275-0.165,0.495-0.165s0.329,0.055,0.494,0.165c0.11,0.109,0.165,0.273,0.165,0.439
			c0,0.164-0.055,0.329-0.165,0.494c-0.11,0.164-0.22,0.329-0.384,0.439c-0.165,0.109-0.33,0.273-0.495,0.384h1.099v0.22h-1.428
			v-0.22C22.57,67.408,22.845,67.188,23.009,66.969z"/>
		<path fill="#FFFFFF" d="M25.371,65.926h-1.098v0.713c0.055-0.055,0.11-0.109,0.22-0.164s0.22-0.055,0.329-0.055
			c0.165,0,0.275,0.055,0.385,0.109s0.165,0.165,0.22,0.274c0.055,0.11,0.055,0.22,0.055,0.329c0,0.221-0.055,0.385-0.165,0.55
			s-0.275,0.22-0.549,0.22c-0.22,0-0.384-0.055-0.494-0.165s-0.22-0.274-0.22-0.438h0.274c0,0.109,0.055,0.219,0.165,0.273
			s0.165,0.11,0.329,0.11c0.165,0,0.275-0.056,0.33-0.165c0.055-0.109,0.11-0.219,0.11-0.385c0-0.164-0.055-0.273-0.11-0.329
			c-0.055-0.055-0.22-0.109-0.33-0.109c-0.109,0-0.219,0-0.274,0.055c-0.055,0.055-0.11,0.11-0.165,0.165h-0.275v-1.209h1.318
			L25.371,65.926L25.371,65.926z"/>
	</g>
	<g>
		<path fill="#FFFFFF" d="M8.622,65.705l0.659,1.812l0.659-1.812h0.275l-0.769,2.143h-0.33l-0.769-2.143H8.622z"/>
		<path fill="#FFFFFF" d="M11.697,67.354h-0.934l-0.165,0.494h-0.274l0.769-2.087h0.33l0.769,2.087h-0.274L11.697,67.354z
			 M11.642,67.133l-0.385-1.043l-0.384,1.043H11.642z"/>
		<path fill="#FFFFFF" d="M12.74,67.627h0.769v0.221h-1.043v-2.143h0.274V67.627z"/>
		<path fill="#FFFFFF" d="M14.058,65.705v2.143h-0.274v-2.143H14.058z"/>
		<path fill="#FFFFFF" d="M16.145,67.354c-0.11,0.164-0.22,0.273-0.384,0.384c-0.165,0.11-0.385,0.11-0.604,0.11h-0.659v-2.143
			h0.659c0.219,0,0.439,0.056,0.604,0.11c0.165,0.11,0.274,0.22,0.384,0.384c0.11,0.166,0.11,0.33,0.11,0.55
			C16.255,67.023,16.2,67.188,16.145,67.354z M15.761,67.408c0.165-0.165,0.22-0.33,0.22-0.604s-0.055-0.438-0.22-0.604
			c-0.165-0.164-0.33-0.219-0.659-0.219h-0.384v1.646h0.384C15.431,67.572,15.596,67.518,15.761,67.408z"/>
	</g>
	<g>
		<path fill="#FFFFFF" d="M62.658,59.226v-0.494l2.307-3.021h0.604v2.966h0.659v0.494h-0.659v1.044h-0.604v-1.044L62.658,59.226
			L62.658,59.226z M65.02,56.425l-1.758,2.252h1.758V56.425z"/>
		<path fill="#FFFFFF" d="M69.797,56.205H67.49v1.482c0.109-0.164,0.275-0.273,0.439-0.329c0.164-0.055,0.439-0.11,0.659-0.11
			c0.329,0,0.604,0.056,0.769,0.221c0.22,0.109,0.385,0.329,0.439,0.549c0.109,0.22,0.164,0.439,0.164,0.714
			c0,0.439-0.109,0.823-0.384,1.153c-0.274,0.274-0.659,0.439-1.153,0.439c-0.439,0-0.824-0.109-1.098-0.385
			c-0.275-0.22-0.439-0.549-0.494-0.988h0.549c0.055,0.274,0.164,0.494,0.329,0.604c0.165,0.165,0.384,0.221,0.659,0.221
			c0.33,0,0.549-0.11,0.714-0.275c0.165-0.219,0.274-0.439,0.274-0.769s-0.109-0.55-0.274-0.714s-0.384-0.274-0.714-0.274
			c-0.22,0-0.439,0.055-0.604,0.165c-0.166,0.109-0.275,0.219-0.385,0.384h-0.549v-2.526h2.855v0.439H69.797z"/>
		<path fill="#FFFFFF" d="M72.927,56.315c-0.165-0.165-0.329-0.22-0.604-0.22c-0.384,0-0.658,0.164-0.823,0.439
			c-0.165,0.274-0.274,0.713-0.274,1.318v0.219c0.055-0.274,0.22-0.439,0.439-0.604c0.22-0.165,0.494-0.221,0.824-0.221
			c0.438,0,0.768,0.11,1.043,0.385c0.274,0.275,0.385,0.659,0.385,1.099c0,0.274-0.056,0.55-0.166,0.769
			c-0.109,0.22-0.273,0.385-0.494,0.549c-0.219,0.11-0.494,0.221-0.823,0.221c-0.659,0-1.099-0.221-1.317-0.604
			c-0.221-0.384-0.385-0.934-0.385-1.647c0-0.77,0.109-1.373,0.385-1.812c0.273-0.385,0.658-0.604,1.263-0.604
			c0.439,0,0.769,0.109,0.988,0.385c0.22,0.219,0.384,0.549,0.384,0.934h-0.549C73.146,56.699,73.092,56.48,72.927,56.315z
			 M71.555,59.445c0.164,0.22,0.438,0.33,0.823,0.33c0.274,0,0.549-0.11,0.714-0.275c0.164-0.164,0.274-0.439,0.274-0.714
			c0-0.329-0.11-0.604-0.274-0.769c-0.165-0.164-0.439-0.274-0.714-0.274c-0.165,0-0.329,0.055-0.494,0.11
			c-0.165,0.055-0.274,0.164-0.385,0.328c-0.11,0.166-0.165,0.33-0.165,0.55C71.279,59.006,71.389,59.281,71.555,59.445z"/>
		<path fill="#FFFFFF" d="M77.266,56.205l-1.703,4.064h-0.604l1.702-4.01H74.3v-0.494h2.911v0.439H77.266z"/>
	</g>
	<ellipse fill="#FFFFFF" cx="87.314" cy="71.966" rx="4.833" ry="4.833"/>
	<ellipse fill="#C9E5FD" cx="79.901" cy="71.966" rx="4.833" ry="4.833"/>
	<rect y="34.624" fill="#C9E5FD" width="100" height="14.278"/>
	<g>
		<path fill="#ED1C24" d="M97.475,64.223H79.078V51.758h18.396V64.223z M80.779,62.576h15.102v-9.172H80.779V62.576z"/>
	</g>
</g>
</svg>
