<?xml version="1.0" encoding="utf-8"?>
<!-- Generator: Adobe Illustrator 24.2.3, SVG Export Plug-In . SVG Version: 6.00 Build 0)  -->
<svg version="1.1" id="Layer_1" xmlns="http://www.w3.org/2000/svg" xmlns:xlink="http://www.w3.org/1999/xlink" x="0px" y="0px"
	 viewBox="0 0 168 56" style="enable-background:new 0 0 168 56;" xml:space="preserve">
<style type="text/css">
	.st0{fill-rule:evenodd;clip-rule:evenodd;fill:#2C3038;}
	.st1{fill:#FFFFFF;}
</style>
<g>
	<path class="st0" d="M3,0h162c1.7,0,3,1.3,3,3v50c0,1.7-1.3,3-3,3H3c-1.7,0-3-1.3-3-3V3C0,1.3,1.3,0,3,0z"/>
	<g>
		<path class="st1" d="M57,22.2v-7.1h2.1c0.6,0,1.2,0.1,1.7,0.4c0.5,0.3,0.9,0.7,1.1,1.2c0.3,0.5,0.4,1.1,0.4,1.8v0.4
			c0,0.7-0.1,1.3-0.4,1.8c-0.3,0.5-0.7,0.9-1.1,1.2c-0.5,0.3-1.1,0.4-1.7,0.4H57z M58.2,16.1v5.1H59c0.6,0,1.1-0.2,1.5-0.6
			s0.5-1,0.5-1.7v-0.4c0-0.8-0.2-1.4-0.5-1.8c-0.3-0.4-0.8-0.6-1.5-0.6H58.2z"/>
		<path class="st1" d="M69.2,18.9c0,0.7-0.1,1.3-0.4,1.8c-0.2,0.5-0.6,0.9-1,1.2c-0.4,0.3-1,0.4-1.5,0.4c-0.6,0-1.1-0.1-1.5-0.4
			c-0.5-0.3-0.8-0.7-1-1.2c-0.2-0.5-0.4-1.1-0.4-1.8v-0.4c0-0.7,0.1-1.3,0.4-1.8c0.2-0.5,0.6-0.9,1-1.2c0.4-0.3,1-0.4,1.5-0.4
			s1.1,0.1,1.5,0.4s0.8,0.7,1,1.2s0.4,1.1,0.4,1.8V18.9z M67.9,18.5c0-0.8-0.1-1.4-0.4-1.8s-0.7-0.6-1.3-0.6c-0.5,0-1,0.2-1.3,0.6
			c-0.3,0.4-0.5,1-0.5,1.8v0.4c0,0.8,0.2,1.4,0.5,1.8c0.3,0.4,0.7,0.6,1.3,0.6c0.5,0,1-0.2,1.3-0.6c0.3-0.4,0.4-1,0.4-1.8V18.5z"/>
		<path class="st1" d="M76,20.5l1.1-5.4h1.2l-1.6,7.1h-1.2l-1.4-5.2l-1.4,5.2h-1.2l-1.6-7.1h1.2l1.1,5.3l1.4-5.3h1L76,20.5z"/>
		<path class="st1" d="M84.8,22.2h-1.2l-3.2-5v5h-1.2v-7.1h1.2l3.2,5.1v-5.1h1.2V22.2z"/>
		<path class="st1" d="M87.5,21.3h3.2v1h-4.5v-7.1h1.2V21.3z"/>
		<path class="st1" d="M97.1,18.9c0,0.7-0.1,1.3-0.4,1.8c-0.2,0.5-0.6,0.9-1,1.2c-0.4,0.3-1,0.4-1.5,0.4c-0.6,0-1.1-0.1-1.5-0.4
			c-0.5-0.3-0.8-0.7-1-1.2c-0.2-0.5-0.4-1.1-0.4-1.8v-0.4c0-0.7,0.1-1.3,0.4-1.8c0.2-0.5,0.6-0.9,1-1.2c0.4-0.3,1-0.4,1.5-0.4
			s1.1,0.1,1.5,0.4c0.4,0.3,0.8,0.7,1,1.2s0.4,1.1,0.4,1.8V18.9z M95.8,18.5c0-0.8-0.1-1.4-0.4-1.8c-0.3-0.4-0.7-0.6-1.3-0.6
			c-0.5,0-1,0.2-1.3,0.6c-0.3,0.4-0.5,1-0.5,1.8v0.4c0,0.8,0.2,1.4,0.5,1.8c0.3,0.4,0.7,0.6,1.3,0.6c0.5,0,1-0.2,1.3-0.6
			c0.3-0.4,0.4-1,0.4-1.8V18.5z"/>
		<path class="st1" d="M102.2,20.6h-2.8l-0.6,1.7h-1.3l2.7-7.1h1.1l2.7,7.1h-1.3L102.2,20.6z M99.8,19.6h2.1l-1-2.9L99.8,19.6z"/>
		<path class="st1" d="M104.9,22.2v-7.1h2.1c0.6,0,1.2,0.1,1.7,0.4c0.5,0.3,0.9,0.7,1.1,1.2c0.3,0.5,0.4,1.1,0.4,1.8v0.4
			c0,0.7-0.1,1.3-0.4,1.8c-0.3,0.5-0.7,0.9-1.1,1.2c-0.5,0.3-1.1,0.4-1.7,0.4H104.9z M106.1,16.1v5.1h0.8c0.6,0,1.1-0.2,1.5-0.6
			c0.3-0.4,0.5-1,0.5-1.7v-0.4c0-0.8-0.2-1.4-0.5-1.8c-0.3-0.4-0.8-0.6-1.5-0.6H106.1z"/>
		<path class="st1" d="M118.7,16.1h-2.2v6.1h-1.2v-6.1h-2.2v-1h5.6V16.1z"/>
		<path class="st1" d="M125.3,22.2h-1.2v-3.2h-3.2v3.2h-1.2v-7.1h1.2v3h3.2v-3h1.2V22.2z"/>
		<path class="st1" d="M130.9,19.1H128v2.2h3.4v1h-4.6v-7.1h4.6v1H128v2h2.9V19.1z"/>
		<path class="st1" d="M63.1,36.3h-3.5l-0.6,2h-2.7l3.9-10.7h2.4l3.9,10.7h-2.8L63.1,36.3z M60.2,34.3h2.3l-1.1-3.7L60.2,34.3z"/>
		<path class="st1" d="M76.2,38.2h-2.6l-3.8-6.6v6.6h-2.6V27.6h2.6l3.8,6.6v-6.6h2.6V38.2z"/>
		<path class="st1" d="M77.8,38.2V27.6h3.4c0.9,0,1.8,0.2,2.5,0.6c0.8,0.4,1.3,1,1.8,1.8c0.4,0.8,0.6,1.7,0.6,2.6v0.5
			c0,1-0.2,1.9-0.6,2.6c-0.4,0.8-1,1.4-1.7,1.8c-0.7,0.4-1.6,0.7-2.5,0.7H77.8z M80.4,29.6v6.7h0.9c0.7,0,1.3-0.3,1.7-0.8
			c0.4-0.5,0.6-1.3,0.6-2.3v-0.5c0-1-0.2-1.8-0.6-2.3s-1-0.8-1.7-0.8H80.4z"/>
		<path class="st1" d="M91.5,34.5h-1.4v3.8h-2.6V27.6h4.2c1.3,0,2.3,0.3,3,0.8c0.7,0.6,1.1,1.4,1.1,2.4c0,0.7-0.2,1.4-0.5,1.8
			c-0.3,0.5-0.8,0.9-1.4,1.2l2.2,4.3v0.1h-2.8L91.5,34.5z M90.1,32.5h1.6c0.5,0,0.9-0.1,1.1-0.4c0.2-0.3,0.4-0.6,0.4-1.1
			S93,30.2,92.8,30c-0.2-0.3-0.6-0.4-1.1-0.4h-1.6V32.5z"/>
		<path class="st1" d="M106.3,33.1c0,1-0.2,2-0.6,2.8c-0.4,0.8-0.9,1.4-1.6,1.8c-0.7,0.4-1.5,0.6-2.4,0.6s-1.7-0.2-2.4-0.6
			c-0.7-0.4-1.3-1-1.6-1.8c-0.4-0.8-0.6-1.7-0.6-2.7v-0.6c0-1,0.2-2,0.6-2.8c0.4-0.8,0.9-1.4,1.6-1.8c0.7-0.4,1.5-0.7,2.4-0.7
			c0.9,0,1.7,0.2,2.4,0.6s1.3,1,1.7,1.8c0.4,0.8,0.6,1.7,0.6,2.7V33.1z M103.7,32.7c0-1.1-0.2-1.9-0.5-2.4c-0.4-0.5-0.9-0.8-1.5-0.8
			c-1.3,0-2,1-2,2.9l0,0.8c0,1,0.2,1.8,0.5,2.4c0.3,0.6,0.9,0.8,1.5,0.8c0.6,0,1.2-0.3,1.5-0.8c0.4-0.6,0.5-1.3,0.5-2.4V32.7z"/>
		<path class="st1" d="M110.4,38.2h-2.6V27.6h2.6V38.2z"/>
		<path class="st1" d="M112.2,38.2V27.6h3.4c0.9,0,1.8,0.2,2.5,0.6c0.8,0.4,1.3,1,1.8,1.8c0.4,0.8,0.6,1.7,0.6,2.6v0.5
			c0,1-0.2,1.9-0.6,2.6c-0.4,0.8-1,1.4-1.7,1.8c-0.7,0.4-1.6,0.7-2.5,0.7H112.2z M114.7,29.6v6.7h0.9c0.7,0,1.3-0.3,1.7-0.8
			c0.4-0.5,0.6-1.3,0.6-2.3v-0.5c0-1-0.2-1.8-0.6-2.3c-0.4-0.5-1-0.8-1.7-0.8H114.7z"/>
		<path class="st1" d="M131.7,36.3h-3.5l-0.6,2h-2.7l3.9-10.7h2.4l3.9,10.7h-2.8L131.7,36.3z M128.7,34.3h2.3l-1.2-3.7L128.7,34.3z"
			/>
		<path class="st1" d="M138.4,34.6v3.6h-2.6V27.6h4.3c0.8,0,1.5,0.2,2.2,0.5c0.6,0.3,1.1,0.7,1.5,1.3c0.3,0.6,0.5,1.2,0.5,1.9
			c0,1-0.4,1.9-1.1,2.5c-0.7,0.6-1.8,0.9-3.1,0.9H138.4z M138.4,32.6h1.7c0.5,0,0.9-0.1,1.1-0.4c0.3-0.2,0.4-0.6,0.4-1.1
			c0-0.5-0.1-0.9-0.4-1.2c-0.3-0.3-0.6-0.4-1.1-0.5h-1.7V32.6z"/>
		<path class="st1" d="M149.2,34.3l-1.1,1.2v2.8h-2.6V27.6h2.6v4.7l0.9-1.4l2.3-3.3h3.2l-3.6,4.7l3.6,5.9h-3L149.2,34.3z"/>
	</g>
	<g>
		<path class="st1" d="M23.1,28.4c-0.1-0.5-0.3-1.1-0.4-1.6h0c-0.1,0.5-0.2,1.1-0.4,1.6l-0.5,1.8h1.8L23.1,28.4z"/>
		<path class="st1" d="M30.3,26.7c-0.4,0-0.6,0-0.8,0.1v2.5c0.2,0,0.4,0,0.6,0c1,0,1.6-0.5,1.6-1.4C31.8,27.2,31.2,26.7,30.3,26.7z"
			/>
		<path class="st1" d="M42,23.8h-0.7v-3.4c0,0,0,0,0-0.1c0-0.1,0-0.3-0.1-0.4l-5.7-6.5c0,0,0,0,0,0c0,0-0.1-0.1-0.1-0.1c0,0,0,0,0,0
			c0,0-0.1,0-0.1,0c0,0,0,0,0,0c0,0-0.1,0-0.1,0H21c-0.6,0-1.2,0.5-1.2,1.2v9.4h-0.7c-0.9,0-1.7,0.7-1.7,1.7v8.6
			c0,0.9,0.7,1.7,1.7,1.7h0.7v5.9c0,0.6,0.5,1.2,1.2,1.2h19.2c0.6,0,1.2-0.5,1.2-1.2v-5.9H42c0.9,0,1.7-0.7,1.7-1.7v-8.6
			C43.7,24.5,43,23.8,42,23.8z M21,14.3h13.5v5.9c0,0.3,0.3,0.6,0.6,0.6h5.1v2.9H21L21,14.3L21,14.3z M33.6,27.9
			c0,0.8-0.3,1.5-0.8,2c-0.6,0.6-1.6,0.9-2.7,0.9c-0.2,0-0.5,0-0.6,0v3h-1.9v-8.2c0.6-0.1,1.4-0.2,2.5-0.2c1.2,0,2,0.2,2.5,0.7
			C33.3,26.4,33.6,27.1,33.6,27.9z M20.9,33.7h-2l2.5-8.3H24l2.6,8.3h-2l-0.6-2.1h-2.4L20.9,33.7z M40.2,41.3H21v-5.6h19.2V41.3z
			 M39.4,33.7l-2-3.6L36.7,31v2.7h-1.9v-8.3h1.9V29h0c0.2-0.3,0.4-0.6,0.6-0.9l1.9-2.8h2.3l-2.8,3.5l2.9,4.8L39.4,33.7L39.4,33.7
			L39.4,33.7z"/>
	</g>
</g>
</svg>
