<?xml version="1.0" encoding="utf-8"?>
<!-- Generator: Adobe Illustrator 22.0.1, SVG Export Plug-In . SVG Version: 6.00 Build 0)  -->
<svg version="1.1" xmlns="http://www.w3.org/2000/svg" xmlns:xlink="http://www.w3.org/1999/xlink" x="0px" y="0px"
	 viewBox="0 0 177.1 177.1" style="enable-background:new 0 0 177.1 177.1;" xml:space="preserve">
<style type="text/css">
	.st0{fill:#3F0091;}
	.st1{fill:#FFFFFF;}
	.st2{opacity:0.5;fill:#CBC2FF;}
	.st3{fill:#E4E5FB;}
	.st4{fill:#4E01D4;}
	.st5{opacity:0.3;fill:#4E01D4;}
	.st6{opacity:0.5;fill:#4E01D4;}
	.st7{opacity:0.5;}
	.st8{fill:none;}
	.st9{fill:#C5E7FF;}
	.st10{fill:#1A9EFE;}
	.st11{fill:#24A1CD;}
	.st12{fill:#19708F;}
	.st13{fill:#F99B20;}
	.st14{fill:#22BF66;}
	.st15{fill:#FF5046;}
	.st16{fill:#FFD516;}
	.st17{fill:#E5E8ED;}
	.st18{fill:#B9B9BB;}
	.st19{fill:#1A8DFF;}
	.st20{fill:#E4E7EC;}
	.st21{fill:#ABB8C7;}
	.st22{clip-path:url(#SVGID_2_);}
	.st23{fill:#B22234;}
	.st24{fill:#3C3B6E;}
	.st25{clip-path:url(#SVGID_4_);}
	.st26{fill:#012169;}
	.st27{fill:#E4002B;}
	.st28{clip-path:url(#SVGID_6_);}
	.st29{fill:#DD0000;}
	.st30{fill:#FFCE00;}
	.st31{fill:#F6C922;}
	.st32{fill:#FF6D31;}
	.st33{fill:#B1443A;}
	.st34{fill:#F9FBFC;}
</style>
<g id="BACKGROUND">
</g>
<g id="OBJECT">
	<g>
		<rect class="st11" width="177.1" height="177.1"/>
		<path class="st1" d="M124.9,82.7c0-0.3,0.1-0.6,0.1-0.9c0-16.6-13.3-30.1-29.6-30.1c-11.8,0-21.9,7-26.7,17.1
			c-2.1-1-4.4-1.7-6.9-1.7c-7.5,0-13.8,5.6-15,12.9c-9.1,3.1-15.5,11.8-15.5,22c0,12.8,10.3,23.3,22.9,23.3h70.8l0,0
			c11.6-0.1,20.9-9.6,20.9-21.3C145.9,92.3,136.5,82.7,124.9,82.7z"/>
	</g>
</g>
<g id="DESIGNED_BY_FREEPIK">
</g>
</svg>
