<?xml version="1.0" encoding="utf-8"?>
<!-- Generator: Adobe Illustrator 22.0.1, SVG Export Plug-In . SVG Version: 6.00 Build 0)  -->
<svg version="1.1" xmlns="http://www.w3.org/2000/svg" xmlns:xlink="http://www.w3.org/1999/xlink" x="0px" y="0px"
	 viewBox="0 0 177.1 177.1" style="enable-background:new 0 0 177.1 177.1;" xml:space="preserve">
<style type="text/css">
	.st0{fill:#3F0091;}
	.st1{fill:#FFFFFF;}
	.st2{opacity:0.5;fill:#CBC2FF;}
	.st3{fill:#E4E5FB;}
	.st4{fill:#4E01D4;}
	.st5{opacity:0.3;fill:#4E01D4;}
	.st6{opacity:0.5;fill:#4E01D4;}
	.st7{opacity:0.5;}
	.st8{fill:none;}
	.st9{fill:#C5E7FF;}
	.st10{fill:#1A9EFE;}
	.st11{fill:#24A1CD;}
	.st12{fill:#19708F;}
	.st13{fill:#F99B20;}
	.st14{fill:#22BF66;}
	.st15{fill:#FF5046;}
	.st16{fill:#FFD516;}
	.st17{fill:#E5E8ED;}
	.st18{fill:#B9B9BB;}
	.st19{fill:#1A8DFF;}
	.st20{fill:#E4E7EC;}
	.st21{fill:#ABB8C7;}
	.st22{clip-path:url(#SVGID_2_);}
	.st23{fill:#B22234;}
	.st24{fill:#3C3B6E;}
	.st25{clip-path:url(#SVGID_4_);}
	.st26{fill:#012169;}
	.st27{fill:#E4002B;}
	.st28{clip-path:url(#SVGID_6_);}
	.st29{fill:#DD0000;}
	.st30{fill:#FFCE00;}
	.st31{fill:#F6C922;}
	.st32{fill:#FF6D31;}
	.st33{fill:#B1443A;}
	.st34{fill:#F9FBFC;}
</style>
<g id="BACKGROUND">
</g>
<g id="OBJECT">
	<g>
		<g>
			<g>
				<rect class="st13" width="177.1" height="177.1"/>
			</g>
		</g>
		<path class="st1" d="M124,110.3c-1.1-0.3-2.2-0.4-3.3-0.4c-3.6,0-7.1,1.4-9.7,3.8L76.2,96.2c2.4-4.5,2.8-9.9,1-14.7l27-15.3
			c4.9,4.7,12.7,4.6,17.4-0.3c4.7-4.9,4.6-12.7-0.3-17.4c-4.9-4.7-12.7-4.6-17.4,0.3c-2.6,2.7-3.9,6.4-3.4,10.1L73,74.8
			c-7.2-7-18.7-6.9-25.7,0.3c-7,7.2-6.9,18.7,0.3,25.7c6.3,6.1,16,6.9,23.1,1.8l36.3,18.1c-1.8,7.6,2.9,15.2,10.5,17
			c7.6,1.8,15.2-2.9,17-10.5C136.3,119.6,131.6,112,124,110.3z"/>
	</g>
</g>
<g id="DESIGNED_BY_FREEPIK">
</g>
</svg>
