<?xml version="1.0" encoding="utf-8"?>
<!-- Generator: Adobe Illustrator 22.0.1, SVG Export Plug-In . SVG Version: 6.00 Build 0)  -->
<svg version="1.1" xmlns="http://www.w3.org/2000/svg" xmlns:xlink="http://www.w3.org/1999/xlink" x="0px" y="0px"
	 viewBox="0 0 177.1 177.1" style="enable-background:new 0 0 177.1 177.1;" xml:space="preserve">
<style type="text/css">
	.st0{fill:#3F0091;}
	.st1{fill:#FFFFFF;}
	.st2{opacity:0.5;fill:#CBC2FF;}
	.st3{fill:#E4E5FB;}
	.st4{fill:#4E01D4;}
	.st5{opacity:0.3;fill:#4E01D4;}
	.st6{opacity:0.5;fill:#4E01D4;}
	.st7{opacity:0.5;}
	.st8{fill:none;}
	.st9{fill:#C5E7FF;}
	.st10{fill:#1A9EFE;}
	.st11{fill:#24A1CD;}
	.st12{fill:#19708F;}
	.st13{fill:#F99B20;}
	.st14{fill:#22BF66;}
	.st15{fill:#FF5046;}
	.st16{fill:#FFD516;}
	.st17{fill:#E5E8ED;}
	.st18{fill:#B9B9BB;}
	.st19{fill:#1A8DFF;}
	.st20{fill:#E4E7EC;}
	.st21{fill:#ABB8C7;}
	.st22{clip-path:url(#SVGID_2_);}
	.st23{fill:#B22234;}
	.st24{fill:#3C3B6E;}
	.st25{clip-path:url(#SVGID_4_);}
	.st26{fill:#012169;}
	.st27{fill:#E4002B;}
	.st28{clip-path:url(#SVGID_6_);}
	.st29{fill:#DD0000;}
	.st30{fill:#FFCE00;}
	.st31{fill:#F6C922;}
	.st32{fill:#FF6D31;}
	.st33{fill:#B1443A;}
	.st34{fill:#F9FBFC;}
</style>
<g id="BACKGROUND">
</g>
<g id="OBJECT">
	<g>
		<rect class="st16" width="177.1" height="177.1"/>
		<g>
			<path class="st1" d="M79.8,109.7c4.9-4.9,12.7-4.8,17.6,0c4.9,4.9,4.9,12.7,0,17.6s-12.7,4.9-17.6,0
				C74.9,122.4,74.9,114.5,79.8,109.7z"/>
			<path class="st1" d="M58.8,106.2c16.4-16.4,43-16.4,59.6,0.2l12.2-12.2c-23.2-23.2-60.9-23.3-84-0.2L58.8,106.2L58.8,106.2z"/>
			<path class="st1" d="M37.1,84.6c28.3-28.3,74.4-28.1,102.9,0.3l12.2-12.2C117,37.5,59.9,37.4,24.9,72.3L37.1,84.6L37.1,84.6z"/>
		</g>
	</g>
</g>
<g id="DESIGNED_BY_FREEPIK">
</g>
</svg>
