<?xml version="1.0" encoding="utf-8"?>
<!-- Generator: Adobe Illustrator 22.0.1, SVG Export Plug-In . SVG Version: 6.00 Build 0)  -->
<svg version="1.1" xmlns="http://www.w3.org/2000/svg" xmlns:xlink="http://www.w3.org/1999/xlink" x="0px" y="0px"
	 viewBox="0 0 607.4 396.1" style="enable-background:new 0 0 607.4 396.1;" xml:space="preserve">
<style type="text/css">
	.st0{fill:#3F0091;}
	.st1{fill:#FFFFFF;}
	.st2{opacity:0.5;fill:#CBC2FF;}
	.st3{fill:#E4E5FB;}
	.st4{fill:#4E01D4;}
	.st5{opacity:0.3;fill:#4E01D4;}
	.st6{opacity:0.5;fill:#4E01D4;}
	.st7{opacity:0.5;}
	.st8{fill:none;}
	.st9{fill:#C5E7FF;}
	.st10{fill:#1A9EFE;}
	.st11{fill:#24A1CD;}
	.st12{fill:#19708F;}
	.st13{fill:#F99B20;}
	.st14{fill:#22BF66;}
	.st15{fill:#FF5046;}
	.st16{fill:#FFD516;}
	.st17{fill:#E5E8ED;}
	.st18{fill:#B9B9BB;}
	.st19{fill:#1A8DFF;}
	.st20{fill:#E4E7EC;}
	.st21{fill:#ABB8C7;}
	.st22{clip-path:url(#SVGID_2_);}
	.st23{fill:#B22234;}
	.st24{fill:#3C3B6E;}
	.st25{clip-path:url(#SVGID_4_);}
	.st26{fill:#012169;}
	.st27{fill:#E4002B;}
	.st28{clip-path:url(#SVGID_6_);}
	.st29{fill:#DD0000;}
	.st30{fill:#FFCE00;}
	.st31{fill:#F6C922;}
	.st32{fill:#FF6D31;}
	.st33{fill:#B1443A;}
	.st34{fill:#F9FBFC;}
</style>
<g id="BACKGROUND">
</g>
<g id="OBJECT">
	<g>
		<rect x="0" y="0" class="st19" width="607.4" height="26.8"/>
		<polygon class="st1" points="0,26.8 0,326.9 0,362.4 0,373 0,396.1 23.5,396.1 69.1,396.1 583.9,396.1 607.4,396.1 607.4,373 
			607.4,362.4 607.4,26.8 		"/>
		<path class="st20" d="M338.2,258.3H47.4c-8,0-14.5-6.5-14.5-14.5v-68.3c0-8,6.5-14.5,14.5-14.5h290.8c8,0,14.5,6.5,14.5,14.5v68.3
			C352.7,251.8,346.2,258.3,338.2,258.3z"/>
		<rect x="124.9" y="75.6" class="st21" width="148.6" height="11.7"/>
		<rect x="124.9" y="101.2" class="st20" width="190.3" height="11.7"/>
		<rect x="32.8" y="307.5" class="st21" width="141.3" height="11.7"/>
		<rect x="32.8" y="333.1" class="st20" width="202.4" height="11.7"/>
		<rect x="328.4" y="307.5" class="st21" width="181.9" height="11.7"/>
		<rect x="328.4" y="333.1" class="st20" width="134.2" height="11.7"/>
		<g>
			
				<rect x="557" y="98" transform="matrix(0.7071 -0.7071 0.7071 0.7071 95.4096 429.717)" class="st20" width="18.8" height="3.3"/>
			
				<rect x="557" y="87.1" transform="matrix(0.7071 0.7071 -0.7071 0.7071 228.6648 -374.5262)" class="st20" width="18.8" height="3.3"/>
		</g>
		<g>
			<path class="st19" d="M69.1,130.6L69.1,130.6c-20,0-36.3-16.2-36.3-36.3v0c0-20,16.2-36.3,36.3-36.3h0c20,0,36.3,16.2,36.3,36.3
				v0C105.4,114.4,89.2,130.6,69.1,130.6z"/>
			<g>
				<g>
					<defs>
						<circle id="SVGID_1_" cx="69.1" cy="94.3" r="31.2"/>
					</defs>
					<clipPath id="SVGID_2_">
						<use xlink:href="#SVGID_1_"  style="overflow:visible;"/>
					</clipPath>
					<g class="st22">
						<rect x="21.6" y="63" class="st23" width="118.8" height="62.5"/>
						<g>
							<path d="M21.6,70.2h118.8 M140.4,79.9H21.6 M21.6,89.5h118.8 M140.4,99.1H21.6 M21.6,108.8h118.8 M140.4,118.4H21.6"/>
							<path class="st1" d="M140.4,120.7H21.6V116h118.8V120.7z M140.4,111.2H21.6v-4.8h118.8V111.2z M140.4,101.5H21.6v-4.8h118.8
								V101.5z M140.4,91.9H21.6v-4.8h118.8V91.9z M140.4,82.3H21.6v-4.8h118.8V82.3z M140.4,72.7H21.6v-4.8h118.8V72.7z"/>
						</g>
						<rect x="21.6" y="63" class="st24" width="47.5" height="33.7"/>
						<g>
							<g>
								<g>
									<g id="s5_11_">
										<g id="s4_21_">
											<path id="s_99_" class="st1" d="M25.6,64.5l1.2,3.5l-3-2.2h3.6l-3,2.2L25.6,64.5z"/>
											<g>
												<path id="s_98_" class="st1" d="M25.6,71.2l1.2,3.5l-3-2.2h3.6l-3,2.2L25.6,71.2z"/>
											</g>
											<g>
												<path id="s_97_" class="st1" d="M25.6,77.9l1.2,3.5l-3-2.2h3.6l-3,2.2L25.6,77.9z"/>
											</g>
											<g>
												<path id="s_96_" class="st1" d="M25.6,84.7l1.2,3.5l-3-2.2h3.6l-3,2.2L25.6,84.7z"/>
											</g>
										</g>
										<g>
											<path id="s_95_" class="st1" d="M25.6,91.4l1.2,3.5l-3-2.2h3.6l-3,2.2L25.6,91.4z"/>
										</g>
									</g>
									<g id="s9_9_">
										<g id="s4_20_">
											<path id="s_94_" class="st1" d="M29.5,67.9l1.2,3.5l-3-2.2h3.6l-3,2.2L29.5,67.9z"/>
											<g>
												<path id="s_93_" class="st1" d="M29.5,74.6l1.2,3.5l-3-2.2h3.6l-3,2.2L29.5,74.6z"/>
											</g>
											<g>
												<path id="s_92_" class="st1" d="M29.5,81.3l1.2,3.5l-3-2.2h3.6l-3,2.2L29.5,81.3z"/>
											</g>
											<g>
												<path id="s_91_" class="st1" d="M29.5,88l1.2,3.5l-3-2.2h3.6l-3,2.2L29.5,88z"/>
											</g>
										</g>
									</g>
									<g>
										<g id="s18_3_">
											<g id="s5_10_">
												<g id="s4_19_">
													<path id="s_90_" class="st1" d="M33.5,64.5l1.2,3.5l-3-2.2h3.6l-3,2.2L33.5,64.5z"/>
													<g>
														<path id="s_89_" class="st1" d="M33.5,71.2l1.2,3.5l-3-2.2h3.6l-3,2.2L33.5,71.2z"/>
													</g>
													<g>
														<path id="s_88_" class="st1" d="M33.5,77.9l1.2,3.5l-3-2.2h3.6l-3,2.2L33.5,77.9z"/>
													</g>
													<g>
														<path id="s_87_" class="st1" d="M33.5,84.7l1.2,3.5l-3-2.2h3.6l-3,2.2L33.5,84.7z"/>
													</g>
												</g>
												<g>
													<path id="s_86_" class="st1" d="M33.5,91.4l1.2,3.5l-3-2.2h3.6l-3,2.2L33.5,91.4z"/>
												</g>
											</g>
											<g id="s9_8_">
												<g id="s4_18_">
													<path id="s_85_" class="st1" d="M37.5,67.9l1.2,3.5l-3-2.2h3.6l-3,2.2L37.5,67.9z"/>
													<g>
														<path id="s_84_" class="st1" d="M37.5,74.6l1.2,3.5l-3-2.2h3.6l-3,2.2L37.5,74.6z"/>
													</g>
													<g>
														<path id="s_83_" class="st1" d="M37.5,81.3l1.2,3.5l-3-2.2h3.6l-3,2.2L37.5,81.3z"/>
													</g>
													<g>
														<path id="s_82_" class="st1" d="M37.5,88l1.2,3.5l-3-2.2h3.6l-3,2.2L37.5,88z"/>
													</g>
												</g>
											</g>
										</g>
										<g>
											<g>
												<g>
													<g id="s5_9_">
														<g id="s4_17_">
															<path id="s_81_" class="st1" d="M41.4,64.5l1.2,3.5l-3-2.2h3.6L40.3,68L41.4,64.5z"/>
															<g>
																<path id="s_80_" class="st1" d="M41.4,71.2l1.2,3.5l-3-2.2h3.6l-3,2.2L41.4,71.2z"/>
															</g>
															<g>
																<path id="s_79_" class="st1" d="M41.4,77.9l1.2,3.5l-3-2.2h3.6l-3,2.2L41.4,77.9z"/>
															</g>
															<g>
																<path id="s_78_" class="st1" d="M41.4,84.7l1.2,3.5l-3-2.2h3.6l-3,2.2L41.4,84.7z"/>
															</g>
														</g>
														<g>
															<path id="s_77_" class="st1" d="M41.4,91.4l1.2,3.5l-3-2.2h3.6l-3,2.2L41.4,91.4z"/>
														</g>
													</g>
													<g id="s9_7_">
														<g id="s4_16_">
															<path id="s_76_" class="st1" d="M45.4,67.9l1.2,3.5l-3-2.2h3.6l-3,2.2L45.4,67.9z"/>
															<g>
																<path id="s_75_" class="st1" d="M45.4,74.6l1.2,3.5l-3-2.2h3.6l-3,2.2L45.4,74.6z"/>
															</g>
															<g>
																<path id="s_74_" class="st1" d="M45.4,81.3l1.2,3.5l-3-2.2h3.6l-3,2.2L45.4,81.3z"/>
															</g>
															<g>
																<path id="s_73_" class="st1" d="M45.4,88l1.2,3.5l-3-2.2h3.6l-3,2.2L45.4,88z"/>
															</g>
														</g>
													</g>
													<g>
														<g id="s18_2_">
															<g id="s5_8_">
																<g id="s4_15_">
																	<path id="s_72_" class="st1" d="M49.3,64.5l1.2,3.5l-3-2.2h3.6l-3,2.2L49.3,64.5z"/>
																	<g>
																		<path id="s_71_" class="st1" d="M49.3,71.2l1.2,3.5l-3-2.2h3.6l-3,2.2L49.3,71.2z"/>
																	</g>
																	<g>
																		<path id="s_70_" class="st1" d="M49.3,77.9l1.2,3.5l-3-2.2h3.6l-3,2.2L49.3,77.9z"/>
																	</g>
																	<g>
																		<path id="s_69_" class="st1" d="M49.3,84.7l1.2,3.5l-3-2.2h3.6l-3,2.2L49.3,84.7z"/>
																	</g>
																</g>
																<g>
																	<path id="s_68_" class="st1" d="M49.3,91.4l1.2,3.5l-3-2.2h3.6l-3,2.2L49.3,91.4z"/>
																</g>
															</g>
															<g id="s9_6_">
																<g id="s4_14_">
																	<path id="s_67_" class="st1" d="M53.3,67.9l1.2,3.5l-3-2.2h3.6l-3,2.2L53.3,67.9z"/>
																	<g>
																		<path id="s_66_" class="st1" d="M53.3,74.6l1.2,3.5l-3-2.2h3.6l-3,2.2L53.3,74.6z"/>
																	</g>
																	<g>
																		<path id="s_65_" class="st1" d="M53.3,81.3l1.2,3.5l-3-2.2h3.6l-3,2.2L53.3,81.3z"/>
																	</g>
																	<g>
																		<path id="s_64_" class="st1" d="M53.3,88l1.2,3.5l-3-2.2h3.6l-3,2.2L53.3,88z"/>
																	</g>
																</g>
															</g>
														</g>
														<g>
															<g>
																<g id="s5_7_">
																	<g id="s4_13_">
																		<path id="s_63_" class="st1" d="M57.3,64.5l1.2,3.5l-3-2.2h3.6l-3,2.2L57.3,64.5z"/>
																		<g>
																			<path id="s_62_" class="st1" d="M57.3,71.2l1.2,3.5l-3-2.2h3.6l-3,2.2L57.3,71.2z"/>
																		</g>
																		<g>
																			<path id="s_61_" class="st1" d="M57.3,77.9l1.2,3.5l-3-2.2h3.6l-3,2.2L57.3,77.9z"/>
																		</g>
																		<g>
																			<path id="s_60_" class="st1" d="M57.3,84.7l1.2,3.5l-3-2.2h3.6l-3,2.2L57.3,84.7z"/>
																		</g>
																	</g>
																	<g>
																		<path id="s_59_" class="st1" d="M57.3,91.4l1.2,3.5l-3-2.2h3.6l-3,2.2L57.3,91.4z"/>
																	</g>
																</g>
																<g id="s9_5_">
																	<g id="s4_12_">
																		<path id="s_58_" class="st1" d="M61.2,67.9l1.2,3.5l-3-2.2H63l-3,2.2L61.2,67.9z"/>
																		<g>
																			<path id="s_57_" class="st1" d="M61.2,74.6l1.2,3.5l-3-2.2H63l-3,2.2L61.2,74.6z"/>
																		</g>
																		<g>
																			<path id="s_56_" class="st1" d="M61.2,81.3l1.2,3.5l-3-2.2H63l-3,2.2L61.2,81.3z"/>
																		</g>
																		<g>
																			<path id="s_55_" class="st1" d="M61.2,88l1.2,3.5l-3-2.2H63l-3,2.2L61.2,88z"/>
																		</g>
																	</g>
																</g>
																<g>
																	<g id="s5_6_">
																		<g id="s4_11_">
																			<path id="s_54_" class="st1" d="M65.2,64.5l1.2,3.5l-3-2.2H67l-3,2.2L65.2,64.5z"/>
																			<g>
																				<path id="s_53_" class="st1" d="M65.2,71.2l1.2,3.5l-3-2.2H67l-3,2.2L65.2,71.2z"/>
																			</g>
																			<g>
																				<path id="s_52_" class="st1" d="M65.2,77.9l1.2,3.5l-3-2.2H67l-3,2.2L65.2,77.9z"/>
																			</g>
																			<g>
																				<path id="s_51_" class="st1" d="M65.2,84.7l1.2,3.5l-3-2.2H67l-3,2.2L65.2,84.7z"/>
																			</g>
																		</g>
																		<g>
																			<path id="s_50_" class="st1" d="M65.2,91.4l1.2,3.5l-3-2.2H67l-3,2.2L65.2,91.4z"/>
																		</g>
																	</g>
																</g>
															</g>
														</g>
													</g>
												</g>
											</g>
										</g>
									</g>
								</g>
							</g>
						</g>
					</g>
				</g>
			</g>
		</g>
		<rect x="140.1" y="189.6" class="st10" width="148.6" height="11.7"/>
		<rect x="140.1" y="217.5" class="st1" width="190.3" height="11.7"/>
		<g>
			<g>
				<path class="st21" d="M84.3,245.9L84.3,245.9c-20,0-36.3-16.2-36.3-36.3v0c0-20,16.2-36.3,36.3-36.3h0c20,0,36.3,16.2,36.3,36.3
					v0C120.6,229.7,104.4,245.9,84.3,245.9z"/>
			</g>
		</g>
		<g>
			<g>
				<defs>
					<circle id="SVGID_3_" cx="84.3" cy="209.7" r="31.3"/>
				</defs>
				<clipPath id="SVGID_4_">
					<use xlink:href="#SVGID_3_"  style="overflow:visible;"/>
				</clipPath>
				<g class="st25">
					<rect x="29.6" y="177.5" class="st26" width="129" height="64.4"/>
					<rect x="29.7" y="188.2" class="st1" width="64.6" height="11"/>
					<polygon class="st1" points="94.2,206.3 94.2,209.9 87,209.9 67.4,200 65.7,199.1 65.2,198.9 62,197.2 61.4,196.9 60.8,196.6 
						58.7,195.5 58.3,195.4 56.5,194.4 54.8,193.7 48.4,190.4 44.1,188.1 29.8,181 29.8,177.5 37.2,177.5 56.5,187.2 58.2,188.1 
						58.7,188.4 62,190 62.6,190.4 63,190.6 65.2,191.7 65.4,191.8 67.4,192.8 69.1,193.7 75.5,196.9 79.9,199.1 					"/>
					<polygon class="st27" points="59.8,192.5 58.8,194.3 58.7,194.3 56.5,193.3 56,193 50.8,190.4 46.4,188.1 29.8,179.8 
						29.8,177.5 30.2,177.5 51.2,188.1 55.5,190.4 56.5,190.8 58.4,191.8 58.7,191.9 					"/>
					<polygon class="st27" points="94.2,207.4 94.2,209.9 72.9,199.1 68.6,196.9 67.4,196.3 65.5,195.3 65.2,195.2 64.6,194.9 
						64.8,194.5 65.2,193.9 65.6,193 67.4,193.9 68,194.1 73.3,196.9 77.7,199.1 					"/>
					<polygon class="st1" points="94.2,177.5 94.2,180.9 79.9,188.1 75.5,190.4 69.1,193.7 68,194.1 67.4,194.4 65.5,195.3 
						65.2,195.5 62.6,196.9 62,197.2 58.7,198.9 58.2,199.1 56.5,200 36.9,209.9 29.8,209.9 29.8,206.2 44,199.1 48.3,196.9 
						54.8,193.7 56,193 56.5,192.8 58.4,191.8 58.7,191.7 61.4,190.4 62,190 65.2,188.4 65.6,188.1 67.4,187.2 86.7,177.5 					"/>
					<polygon class="st27" points="66.1,193.9 65.2,194.3 64.8,194.5 60.8,196.6 60.2,196.9 58.7,197.6 56.5,198.7 55.8,199.1 
						34.5,209.9 29.8,209.9 29.8,209.8 51,199.1 55.3,196.9 56.5,196.3 58.3,195.4 58.7,195.2 65.1,192 65.2,192.2 65.6,193 					
						"/>
					<polygon class="st27" points="93.7,177.5 72.6,188.1 68.3,190.4 67.4,190.8 65.4,191.8 65.2,191.9 61.6,193.8 60.6,191.9 
						63,190.6 63.5,190.4 65.2,189.5 67.4,188.4 67.9,188.1 88.9,177.5 					"/>
					<rect x="56.5" y="177.5" class="st1" width="10.9" height="32.2"/>
					<rect x="58.7" y="177.5" class="st27" width="6.5" height="32.2"/>
					<rect x="29.7" y="190.4" class="st27" width="64.6" height="6.5"/>
					<rect x="29.8" y="177.5" class="st8" width="64.4" height="32.4"/>
					<polygon class="st1" points="62.1,230.3 58.1,233.9 58.5,228.6 53.2,227.8 57.6,224.7 54.9,220.1 60.1,221.7 62.1,216.7 
						64,221.7 69.1,220.1 66.4,224.7 70.9,227.8 65.6,228.6 65.9,233.9 					"/>
					<polygon class="st1" points="126.5,233.3 124.6,235 124.8,232.4 122.2,232 124.3,230.7 123.1,228.4 125.5,229.2 126.5,226.8 
						127.4,229.2 129.8,228.4 128.6,230.7 130.6,232 128.2,232.4 128.4,235 					"/>
					<polygon class="st1" points="110.3,207.9 108.5,209.6 108.7,207 106.2,206.6 108.3,205.2 107,203.1 109.5,203.7 110.3,201.4 
						111.3,203.7 113.8,203.1 112.5,205.2 114.6,206.6 112,207 112.2,209.6 					"/>
					<polygon class="st1" points="126.5,190.5 124.6,192.2 124.8,189.7 122.2,189.3 124.3,187.8 123.1,185.6 125.5,186.3 126.5,184 
						127.4,186.3 129.8,185.6 128.6,187.8 130.6,189.3 128.2,189.7 128.4,192.2 					"/>
					<polygon class="st1" points="140.8,203.5 138.9,205.2 139.1,202.7 136.7,202.3 138.7,200.9 137.5,198.6 139.9,199.4 140.8,197 
						141.8,199.4 144.3,198.6 143,200.9 145.1,202.3 142.5,202.7 142.7,205.2 					"/>
					<polygon class="st1" points="132.8,213.5 131.5,214.2 131.8,212.8 130.7,211.7 132.2,211.5 132.8,210.2 133.5,211.5 135,211.7 
						133.9,212.8 134.2,214.2 					"/>
				</g>
			</g>
		</g>
		<path class="st20" d="M607.4,160.9v97.4H385.8c-9,0-16.2-7.3-16.2-16.2v-64.9c0-9,7.3-16.2,16.2-16.2H607.4z"/>
		<rect x="476.8" y="189.6" class="st10" width="130.6" height="11.7"/>
		<rect x="476.8" y="217.5" class="st1" width="130.6" height="11.7"/>
		<g>
			<g>
				<path class="st21" d="M422.2,246L422.2,246c-20,0-36.3-16.2-36.3-36.3v0c0-20,16.2-36.3,36.3-36.3h0c20,0,36.3,16.2,36.3,36.3v0
					C458.5,229.7,442.3,246,422.2,246z"/>
			</g>
		</g>
		<g>
			<g>
				<defs>
					
						<ellipse id="SVGID_5_" transform="matrix(0.1602 -0.9871 0.9871 0.1602 147.6277 592.8817)" cx="422.2" cy="209.7" rx="31.4" ry="31.4"/>
				</defs>
				<clipPath id="SVGID_6_">
					<use xlink:href="#SVGID_5_"  style="overflow:visible;"/>
				</clipPath>
				<g class="st28">
					<rect x="365.7" y="175.8" width="113" height="22.6"/>
					<rect x="365.7" y="198.4" class="st29" width="113" height="22.7"/>
					<rect id="gold_stripe_1_" x="365.7" y="221.1" class="st30" width="113" height="22.6"/>
				</g>
			</g>
		</g>
		<path class="st20" d="M516,81C516,81,515.9,81,516,81c-0.2,0-0.6-0.2-0.9-0.3l-0.3-0.1l-0.3,0c-0.1,0-0.3,0-0.5,0.1
			c0,0,0-0.1,0-0.1c0.1-0.1,0.2-0.3,0.6-0.4c0.7-0.2,1-0.5,1.2-0.7c0.2-0.1,0.7-0.2,1-0.2l0.6,0.4c0.2,0.2,0.4,0.4,0.8,0.7L516,81
			L516,81z M515.5,125c-7.1,0-14-2.5-19.4-7c0.3-0.2,0.5-0.3,0.6-0.4l0.7-0.6l-0.6-1.9l0.9-2.9l0.1-0.5c0-1.1-0.4-2.4-1.6-2.6
			c-0.1-0.1-0.5-0.6-0.7-0.8c-0.6-0.4-1.1-1.1-1.6-1.1c0,0,0,0,0,0c-0.1,0-0.4,0.2-0.6,0c-0.2-0.1-0.4-0.1-0.6-0.2
			c-0.1-0.1-0.4-0.1-0.3-0.1c-0.2-0.3-0.5-0.8-0.8-1.5c-0.2-0.6-0.4-0.9-1.4-2c-0.7-0.7-0.8-0.9-1.4-1.2l-0.3-0.1
			c-0.3-0.1-0.4-0.3-0.6-0.4c-0.3-0.2-0.6-0.4-1.1-0.6c-0.4-0.2-0.5-0.3-0.9-0.6c-0.1-0.1-0.3-0.3-0.5-0.4c-0.4-1.9-0.6-3.9-0.6-5.9
			l0-0.4c0.3-0.8,0.6-2.1,0.4-2.8c0-0.2,0.1-0.7,0.2-1c0.1-0.6,0.2-1.1,0.2-1.4c0.1-0.2,0.5-0.9,0.7-1.2c0.3-0.4,0.5-0.9,0.7-1.1
			c0.1-0.3,0.8-1.3,1.1-1.8l0.6-1c0.2-0.3,0.6-0.9,0.4-1.6c0.7-0.5,1.7-1.2,1.8-1.3c0.1-0.1,1.4-1.5,0.1-3.9c0-0.1,0.4-0.1,0.4-0.2
			c0.1-0.2,0.8-0.5,0.8-1v-0.1c0-0.8,0.3-1.5,1.1-1.5h0.5c0.2,0,0.3-0.5,0.5-0.5l1.1,0.3l2.3-1l0.2-0.5c0,0,0.2-0.5,0.8-0.8
			c0.8-0.6,1-0.9,1.4-1.5l-1.1-0.8l1.3,0.6c0.2-0.1,0.5-1.2,1.3-2c0.9-1,1.5-1.9,1.4-1.9h0.6l0.4,0.3c0.1-0.1,0.6-0.4,1-0.9
			c5.3-1.9,11.2-2.2,16.7-1.1c-0.7,0-1.4,0.3-2.5,0.8c-0.3,0.1-0.5,0.3-0.6,0.3c-0.2,0.1-0.6,0.2-1,0.4c-0.2,0.1-0.7,0.3-0.7,0.3
			c-0.9,0-1.8,0.8-2.4,1.6c-0.8,1.5-0.6,2.4-0.4,2.8l0.5,0.9h0.4c-0.5,0-1,0.7-1.3,1l-1.4-1.7l-1.3-2.8l-2.3,2v1l-1.4-0.5l-1.4,3
			l2,2.8l0.8-0.7v0.2l1.3-0.3c0,0.3-0.1,0.6,0,0.9l-3.8,0.9l0.3,1.4c0.1,0.2,0.1,0.7,0.1,0.9c-0.5,2.1,0,2.7,0.1,2.9l0.3,0.4
			c-0.5,0.5-0.8,1-0.9,1.3c-0.2,0.3-0.6,0.7-0.7,1.4c-0.1,0.2-0.4,0.4-0.6,0.5l-0.3,0.2c-0.9,0.6-1.8,1.1-2.2,1.8
			c-0.5,0.9-0.9,1.7-1,2.3c-0.1,0.7-0.1,1.3-0.1,2.2c0,0.3,0,0.5,0,0.7c0,0.5-0.1,0.9,0,1.6c0.2,1.3,2,3.7,2.1,3.7
			c0.6,0.7,1.2,1.5,2,2c0.4,0.2,0.9,0.7,1.1,0.9c0.5,0.6,1.7,1.1,2.9,0.7c0.3-0.1,0.7-0.2,1-0.3c0.6-0.1,1.3-0.3,1.9-0.7
			c0.2-0.1,0.3-0.2,0.4-0.2c0.5,0.9,1.6,1.3,2.6,0.9l0,0c0,0.2,0.1,0.4,0.1,0.6c0,0.2,0.1,0.4,0.1,0.7c0,0.5-0.1,1.3,0.6,2.1
			c0.1,0.1,0.4,0.3,0.6,0.5c0.1,0.1,0.2,0.2,0.4,0.3c0,0.6,0.2,1.6,0.5,2.2c0.1,0.3,0.2,0.5,0.2,0.4c-0.3,0.5-0.8,1.9-0.8,2.1
			c-0.3,1.4-0.1,2-0.1,2.1c0.2,0.7,0.6,1.3,1.3,2c0.1,0.1,0.1,0.2,0.2,0.5c0.1,0.3,0.2,0.8,0.5,1.2c0.1,0.2,0.4,0.9,0.5,1.3l0.2,1
			l0,2.7l1.6-0.2c0,0,2.6-0.4,3.1-0.5c0.6-0.2,2.6-1.1,3.3-1.8c0.4-0.4,0.5-0.7,0.7-0.9c0.1-0.2,0.1-0.2,0.2-0.3
			c0.6-0.5,1.7-1.3,1.7-1.3l0.6-0.4l-0.1-2l1-1.3l0.8-0.9c-0.2,0.5-0.4,1.1-0.5,1.5c-0.2,0.7-0.1,1.4,0.5,2.1l0.6,0.4h0.7l0.5,0.2
			c0.5-0.2,0.9-0.4,1.3-0.8c0.1-0.1,0.2-0.2,0.3-0.2c0.8-0.5,1.5-1.8,1.7-2.4l0.5-1.8c0.1-0.5,0.3-1.6,0.3-2.1
			c0-0.5-0.1-1.1-0.2-1.2l-0.9-3.5l-2.4,4.5c-0.4,0.2-0.6,0.3-0.8,0.5c0-0.2,0-0.4,0-0.5c-0.1-0.2-0.2-1.3-0.3-2.3
			c0.2-0.4,0.4-0.8,0.5-1c0.2-0.3,0.4-0.6,0.5-0.8c0.1-0.3,0.2-0.4,0.4-0.6c0.7-0.6,1.2-1.3,1.6-1.8l0.3-0.4c0.4-0.5,1-1.3,1.2-1.7
			c0.3-0.5,0.6-1.4,0.7-1.9l0.4-2l-1.7,0.3c0.2-0.1,0.4-0.2,0.5-0.3c0.1-0.1,0.3-0.2,0.5-0.3c0.8-0.4,1.3-0.7,1.7-1.1l0.7-0.5
			c0.6-0.4,1.5-1,1.6-1.9c0.1,0.1,0.3,0.2,0.5,0.3c0.1,0.1,0.4,0.4,0.6,0.7c0.2,0.4,0.6,1.4,0.7,1.8c0.1,0.2,0.2,0.7,0.4,1.2
			c0.2,0.4,0.3,0.7,0.4,0.8c0,0.3,0.1,1.2,0.7,1.8C543.8,113.5,531,125,515.5,125z M522,82.2l0.9,1.5l-0.1,0l-0.4,0.3
			c-0.3,0.2-2.5,0.2-3.3-0.2c0-0.1-0.1-0.3-0.1-0.5l0.4,0.3l0.6-0.1C521.1,83.4,521.7,82.8,522,82.2z M525.3,81.6
			c0.2,0.7,0.6,1.4,1.3,2.2l0.3,0.4c0.1,0.2,0.3,0.3,0.4,0.5c-0.4-0.1-0.9-0.2-1.5-0.4l-0.9-2.6C525,81.6,525.1,81.6,525.3,81.6z
			 M515.5,59.9c-19,0-34.4,15.4-34.4,34.4s15.4,34.4,34.4,34.4c19,0,34.4-15.4,34.4-34.4S534.5,59.9,515.5,59.9z"/>
	</g>
</g>
<g id="DESIGNED_BY_FREEPIK">
</g>
</svg>
