<?xml version="1.0" encoding="utf-8"?>
<!-- Generator: Adobe Illustrator 24.2.1, SVG Export Plug-In . SVG Version: 6.00 Build 0)  -->
<svg version="1.1" id="Layer_1" xmlns="http://www.w3.org/2000/svg" xmlns:xlink="http://www.w3.org/1999/xlink" x="0px" y="0px"
	 viewBox="0 0 484.5 1025.9" style="enable-background:new 0 0 484.5 1025.9;" xml:space="preserve">
<style type="text/css">
	.st0{fill:#FFFFFF;}
	.st1{fill:#1A9EFE;}
	.st2{fill:#B9B9BB;}
</style>
<g id="BACKGROUND">
</g>
<g id="OBJECT">
	<g>
		<rect class="st0" width="484.5" height="1025.9"/>
		<g>
			<g>
				<g>
					<path class="st1" d="M242.2,445c-60.8,0-110.3-49.5-110.3-110.3s49.5-110.3,110.3-110.3s110.3,49.5,110.3,110.3
						C352.6,395.5,303.1,445,242.2,445z M242.2,229.5c-58,0-105.2,47.2-105.2,105.2s47.2,105.2,105.2,105.2s105.2-47.2,105.2-105.2
						S300.3,229.5,242.2,229.5z"/>
					<path class="st1" d="M242.2,445.3c-61,0-110.6-49.6-110.6-110.6s49.6-110.6,110.6-110.6s110.6,49.6,110.6,110.6
						S303.2,445.3,242.2,445.3z M242.2,224.7c-60.7,0-110,49.4-110,110c0,60.7,49.4,110,110,110c60.7,0,110-49.4,110-110
						C352.3,274,302.9,224.7,242.2,224.7z M242.2,440.2c-58.2,0-105.5-47.3-105.5-105.5S184,229.2,242.2,229.2
						s105.5,47.3,105.5,105.5S300.4,440.2,242.2,440.2z M242.2,229.8c-57.9,0-104.9,47.1-104.9,104.9c0,57.9,47.1,104.9,104.9,104.9
						c57.9,0,104.9-47.1,104.9-104.9C347.2,276.8,300.1,229.8,242.2,229.8z"/>
				</g>
			</g>
			<g>
				<g>
					<path class="st1" d="M242.2,322.4c-1.3,0-2.3-0.8-2.3-1.8v-27.8c0-1,1-1.8,2.3-1.8s2.3,0.8,2.3,1.8v27.8
						C244.6,321.6,243.5,322.4,242.2,322.4z"/>
					<path class="st1" d="M242.2,323.2c-1.8,0-3.2-1.1-3.2-2.6v-27.8c0-1.4,1.4-2.6,3.2-2.6s3.2,1.1,3.2,2.6v27.8
						C245.4,322.1,244,323.2,242.2,323.2z M242.2,291.9c-0.9,0-1.5,0.5-1.5,1v27.8c0,0.5,0.6,1,1.5,1s1.5-0.5,1.5-1v-27.8
						C243.8,292.4,243.1,291.9,242.2,291.9z"/>
				</g>
				<g>
					<path class="st1" d="M242.2,368.2c-18.6,0-33.7-15-33.7-33.6c0-14.4,9.1-27.2,22.8-31.9c1.1-0.3,2.2,0.3,2.5,1.4
						c0.3,1-0.2,2.1-1.2,2.5c-15.5,5.3-23.7,22.1-18.4,37.6s22.1,23.7,37.6,18.4s23.7-22.1,18.4-37.6c-3-8.6-9.7-15.4-18.4-18.4
						c-1.1-0.4-1.6-1.5-1.3-2.6s1.5-1.6,2.6-1.3c17.6,6,27,25.1,21,42.7C269.5,359,256.6,368.2,242.2,368.2z"/>
					<path class="st1" d="M242.3,369h-0.1c-9.2,0-17.8-3.6-24.4-10.1c-6.5-6.5-10.1-15.2-10.1-24.4c0-14.8,9.4-27.9,23.3-32.6
						c1.5-0.5,3.1,0.4,3.6,1.9c0.4,1.4-0.3,3-1.7,3.5c-15,5.2-23,21.5-17.9,36.6c5.1,15,21.5,23,36.5,17.9c15-5.1,23-21.5,17.9-36.5
						c-2.9-8.5-9.4-15-17.9-17.9c-0.7-0.2-1.3-0.8-1.6-1.4s-0.4-1.5-0.1-2.2c0.5-1.5,2.1-2.3,3.6-1.8c8.7,3,15.8,9.1,19.8,17.4
						c4.1,8.3,4.7,17.6,1.7,26.3C270.2,359.6,257.1,369,242.3,369z M242.2,367.3L242.2,367.3h0.1c14.1,0,26.6-8.9,31.1-22.3
						c2.8-8.3,2.2-17.2-1.6-25.1c-3.9-7.9-10.6-13.8-18.9-16.6c-0.3-0.1-0.6-0.1-0.9,0.1c-0.3,0.1-0.5,0.4-0.6,0.7
						c-0.1,0.3-0.1,0.6,0.1,0.9c0.1,0.3,0.4,0.5,0.7,0.6c8.9,3.1,15.8,9.9,18.9,18.9c5.4,15.8-3,33.2-18.9,38.6
						c-15.8,5.4-33.2-3-38.6-18.9c-5.4-15.8,3-33.2,18.9-38.6c0.6-0.2,0.9-0.9,0.7-1.5s-0.9-1-1.5-0.8c-13.3,4.5-22.2,17-22.2,31.1
						c0,8.8,3.4,17,9.6,23.2C225.2,363.9,233.4,367.3,242.2,367.3L242.2,367.3z"/>
				</g>
			</g>
		</g>
		<g>
			<g>
				<g>
					<g>
						<g id="XMLID_10_">
							<g id="XMLID_16_">
								<path id="XMLID_17_" class="st1" d="M99.4,47.5h-3.6c-1.8,0-3.3-1.5-3.3-3.3v-3.9c0-1.8,1.5-3.3,3.3-3.3h3.6V47.5z"/>
							</g>
							<g id="XMLID_11_">
								<g id="XMLID_14_">
									<path id="XMLID_15_" class="st1" d="M92.7,45.5c0,0-0.1-0.3-0.3-0.7c-0.1-0.2-0.2-0.5-0.3-0.8c-0.1-0.2-0.1-0.3-0.2-0.5
										s-0.2-0.4-0.2-0.6c-0.1-0.2-0.1-0.4-0.2-0.6c0-0.1-0.1-0.2-0.1-0.3s-0.1-0.3-0.1-0.3c-0.1-0.3-0.1-0.5-0.2-0.7
										c0-0.1-0.1-0.3-0.1-0.4c0-0.1-0.1-0.3-0.1-0.4c0-0.1-0.1-0.3-0.1-0.4c0-0.1,0-0.1,0-0.2c0-0.1,0-0.1,0-0.2
										c-0.1-0.3-0.1-0.6-0.1-0.9c0-0.3-0.1-0.6-0.1-0.9v-0.2c0-0.1,0-0.1,0-0.2v-0.5v-0.5c0-0.1,0-0.3,0-0.4c0-0.1,0-0.3,0-0.4
										v-0.2c0-0.1,0-0.1,0-0.2c0-0.3,0.1-0.6,0.1-0.9c0-0.3,0.1-0.6,0.1-0.8c0-0.3,0.1-0.5,0.2-0.8c0-0.1,0-0.3,0.1-0.4
										c0-0.1,0-0.1,0.1-0.2c0-0.1,0-0.1,0.1-0.2c0.1-0.3,0.1-0.5,0.2-0.7c0-0.1,0-0.1,0.1-0.2c0-0.1,0-0.1,0.1-0.2
										c0-0.1,0.1-0.2,0.1-0.3c0.1-0.2,0.1-0.4,0.2-0.6s0.1-0.3,0.2-0.5s0.1-0.3,0.2-0.5c0.1-0.1,0.1-0.3,0.2-0.4
										c0.2-0.5,0.3-0.7,0.3-0.7l0.9,0.4c0,0-0.1,0.3-0.3,0.7c-0.1,0.1-0.1,0.3-0.1,0.4c-0.1,0.1-0.1,0.3-0.2,0.5
										s-0.1,0.3-0.2,0.5s-0.1,0.4-0.2,0.6c0,0.1-0.1,0.2-0.1,0.3c0,0,0,0.1-0.1,0.1c0,0.1,0,0.1,0,0.2c-0.1,0.2-0.1,0.4-0.1,0.6
										c0,0.1,0,0.1,0,0.2s0,0.1,0,0.2c0,0.1-0.1,0.3-0.1,0.4c0,0.3-0.1,0.5-0.1,0.7c0,0.3-0.1,0.5-0.1,0.8s0,0.5,0,0.8
										c0,0.1,0,0.1,0,0.2v0.2c0,0.1,0,0.3,0,0.4c0,0.1,0,0.3,0,0.4v0.4V37c0,0.1,0,0.1,0,0.2v0.2c0.1,0.3,0.1,0.5,0.1,0.8
										c0.1,0.3,0.1,0.5,0.2,0.8c0,0.1,0,0.1,0.1,0.2c0,0.1,0,0.1,0.1,0.2c0,0.1,0.1,0.3,0.1,0.4c0,0.1,0.1,0.3,0.1,0.3
										c0,0.1,0.1,0.3,0.1,0.3c0.1,0.2,0.2,0.5,0.3,0.7c0,0.1,0.1,0.2,0.1,0.3c0.1,0.1,0.1,0.2,0.1,0.3c0.1,0.2,0.2,0.4,0.3,0.6
										c0.1,0.2,0.2,0.3,0.3,0.5c0.1,0.2,0.1,0.3,0.2,0.5c0.1,0.3,0.3,0.6,0.4,0.8c0.2,0.4,0.3,0.7,0.3,0.7L92.7,45.5z"/>
								</g>
								<g id="XMLID_12_">
									<circle id="XMLID_13_" class="st1" cx="92.9" cy="27.6" r="1.7"/>
								</g>
							</g>
						</g>
						<g id="XMLID_2_">
							<g id="XMLID_8_">
								<path id="XMLID_9_" class="st1" d="M132.2,47.5h3.6c1.8,0,3.3-1.5,3.3-3.3v-3.9c0-1.8-1.5-3.3-3.3-3.3h-3.6V47.5z"/>
							</g>
							<g id="XMLID_3_">
								<g id="XMLID_6_">
									<path id="XMLID_7_" class="st1" d="M138.8,45.5c0,0,0.1-0.3,0.3-0.7c0.1-0.2,0.2-0.5,0.3-0.8c0.1-0.2,0.1-0.3,0.2-0.5
										c0.1-0.2,0.2-0.4,0.2-0.6c0.1-0.2,0.1-0.4,0.2-0.6c0-0.1,0.1-0.2,0.1-0.3s0.1-0.3,0.1-0.3c0.1-0.3,0.1-0.5,0.2-0.7
										c0-0.1,0.1-0.3,0.1-0.4c0-0.1,0.1-0.3,0.1-0.4c0-0.1,0.1-0.3,0.1-0.4c0-0.1,0-0.1,0-0.2c0-0.1,0-0.1,0-0.2
										c0.1-0.3,0.1-0.6,0.1-0.9c0-0.3,0.1-0.6,0.1-0.9v-0.2c0-0.1,0-0.1,0-0.2v-0.5v-0.4c0-0.1,0-0.3,0-0.4c0-0.1,0-0.3,0-0.4
										v-0.2c0-0.1,0-0.1,0-0.2c0-0.3-0.1-0.6-0.1-0.9c0-0.3-0.1-0.6-0.1-0.8c0-0.3-0.1-0.5-0.2-0.8c0-0.1-0.1-0.3-0.1-0.4
										c0-0.1,0-0.1-0.1-0.2c0-0.1,0-0.1-0.1-0.2c-0.1-0.3-0.1-0.5-0.2-0.7c0-0.1,0-0.1-0.1-0.2c0-0.1,0-0.1-0.1-0.2
										c0-0.1-0.1-0.2-0.1-0.3c-0.1-0.2-0.1-0.4-0.2-0.6c-0.1-0.2-0.1-0.3-0.2-0.5c-0.1-0.2-0.1-0.3-0.2-0.5
										c-0.1-0.1-0.1-0.3-0.2-0.4c-0.2-0.5-0.3-0.7-0.3-0.7l-0.9,0.4c0,0,0.1,0.3,0.3,0.7c0.1,0.1,0.1,0.3,0.1,0.4
										c0.1,0.1,0.1,0.3,0.2,0.5c0.1,0.2,0.1,0.3,0.2,0.5c0.1,0.2,0.1,0.4,0.2,0.6c0,0.1,0.1,0.2,0.1,0.3c0,0.1,0,0.1,0.1,0.2
										c0,0.1,0,0.1,0,0.2c0.1,0.2,0.1,0.4,0.1,0.6c0,0.1,0,0.1,0,0.2c0,0.1,0,0.1,0,0.2c0,0.1,0,0.3,0.1,0.3
										c0,0.3,0.1,0.5,0.1,0.7c0,0.3,0.1,0.5,0.1,0.8s0,0.5,0,0.8c0,0.1,0,0.1,0,0.2v0.2c0,0.1,0,0.3,0,0.4c0,0.1,0,0.3,0,0.4v0.4
										v0.4c0,0.1,0,0.1,0,0.2v0.2c-0.1,0.3-0.1,0.5-0.1,0.8c-0.1,0.3-0.1,0.5-0.2,0.8c0,0.1,0,0.1-0.1,0.2c0,0.1,0,0.1-0.1,0.2
										c0,0.1-0.1,0.3-0.1,0.4c0,0.1-0.1,0.3-0.1,0.3c0,0.1-0.1,0.3-0.1,0.3c-0.1,0.2-0.2,0.5-0.3,0.7c0,0.1-0.1,0.2-0.1,0.3
										c-0.1,0.1-0.1,0.2-0.1,0.3c-0.1,0.2-0.2,0.4-0.3,0.6c-0.1,0.2-0.2,0.3-0.3,0.5s-0.1,0.3-0.2,0.5c-0.1,0.3-0.3,0.6-0.4,0.8
										c-0.2,0.4-0.3,0.7-0.3,0.7L138.8,45.5z"/>
								</g>
								<g id="XMLID_4_">
									<circle id="XMLID_5_" class="st1" cx="138.7" cy="27.6" r="1.7"/>
								</g>
							</g>
						</g>
						<path class="st1" d="M111.1,41.7c-0.2,1.4-1.2,0-2.8-0.3s-3,0.8-2.8-0.6c0.2-1.4,1.6-2.4,3.2-2.2
							C110.2,39,111.3,40.3,111.1,41.7z"/>
						<path class="st1" d="M126,40.9c0.2,1.4-1.2,0.3-2.8,0.6c-1.5,0.3-2.6,1.7-2.8,0.3s0.9-2.8,2.4-3
							C124.3,38.5,125.7,39.4,126,40.9z"/>
						<path class="st1" d="M135.1,37c-1.3-3.6-4.7-6.4-8.8-6.8l-3.5-0.3c-4.6-0.5-9.3-0.5-14,0l-3.5,0.3c-4.2,0.4-7.5,3.2-8.9,6.8
							c-0.5,1.3-0.7,2.8-0.6,4.2l0.3,3.5c0.1,1,0.3,1.9,0.6,2.8c1.3,3.5,4.4,6,8.2,6.6c3.6,0.6,7.2,0.9,10.8,0.9s7.2-0.3,10.8-0.9
							c2.4-0.4,4.5-1.6,6.1-3.2c0.9-1,1.7-2.2,2.1-3.5c0.3-0.9,0.5-1.8,0.6-2.8l0.3-3.5C135.7,39.7,135.5,38.3,135.1,37z
							 M131.2,40.8l-0.3,3.5c-0.2,2.9-2.4,5.3-5.3,5.8c-3.2,0.5-6.6,0.8-9.9,0.8s-6.6-0.3-9.9-0.8c-2.9-0.5-5.1-2.9-5.3-5.8
							l-0.3-3.5c-0.3-3.4,2.2-6.4,5.7-6.8l3.4-0.3c2.1-0.2,4.3-0.3,6.4-0.3s4.3,0.1,6.4,0.3l3.4,0.3C129,34.3,131.5,37.3,131.2,40.8
							z"/>
						<path class="st1" d="M111.1,41.7c-0.2,1.4-1.2,0-2.8-0.3s-3,0.8-2.8-0.6c0.2-1.4,1.6-2.4,3.2-2.2
							C110.2,39,111.3,40.3,111.1,41.7z"/>
						<path class="st1" d="M123.2,41.5c-1.5,0.3-2.6,1.7-2.8,0.3s0.9-2.8,2.4-3c1.5-0.3,2.9,0.7,3.2,2.2
							C126.2,42.3,124.8,41.2,123.2,41.5z"/>
						<g id="XMLID_1_">
							<path class="st1" d="M111.1,41.7c-0.2,1.4-1.2,0-2.8-0.3s-3,0.8-2.8-0.6c0.2-1.4,1.6-2.4,3.2-2.2
								C110.2,39,111.3,40.3,111.1,41.7z"/>
							<path class="st1" d="M123.2,41.5c-1.5,0.3-2.6,1.7-2.8,0.3s0.9-2.8,2.4-3c1.5-0.3,2.9,0.7,3.2,2.2
								C126.2,42.3,124.8,41.2,123.2,41.5z"/>
						</g>
					</g>
					<path class="st1" d="M119.2,46c0,0.9-0.3,1.7-0.9,2.2c-0.6,0.6-1.4,0.9-2.2,0.9h-0.5c-1.8,0-3.2-1.4-3.2-3.2
						c0-0.2,0.1-0.3,0.2-0.4c0.1-0.1,0.3-0.2,0.4-0.2h5.7C118.9,45.4,119.2,45.6,119.2,46z"/>
				</g>
			</g>
		</g>
		<g>
			<rect x="35.2" y="29.6" class="st2" width="30.5" height="3.5"/>
			<rect x="35.2" y="39.3" class="st2" width="30.5" height="3.5"/>
			<rect x="35.2" y="49" class="st2" width="30.5" height="3.5"/>
		</g>
	</g>
</g>
</svg>
