<?xml version="1.0" encoding="utf-8"?>
<!-- Generator: Adobe Illustrator 22.0.1, SVG Export Plug-In . SVG Version: 6.00 Build 0)  -->
<svg version="1.1" xmlns="http://www.w3.org/2000/svg" xmlns:xlink="http://www.w3.org/1999/xlink" x="0px" y="0px"
	 viewBox="0 0 177.1 177.1" style="enable-background:new 0 0 177.1 177.1;" xml:space="preserve">
<style type="text/css">
	.st0{fill:#3F0091;}
	.st1{fill:#FFFFFF;}
	.st2{opacity:0.5;fill:#CBC2FF;}
	.st3{fill:#E4E5FB;}
	.st4{fill:#4E01D4;}
	.st5{opacity:0.3;fill:#4E01D4;}
	.st6{opacity:0.5;fill:#4E01D4;}
	.st7{opacity:0.5;}
	.st8{fill:none;}
	.st9{fill:#C5E7FF;}
	.st10{fill:#1A9EFE;}
	.st11{fill:#24A1CD;}
	.st12{fill:#19708F;}
	.st13{fill:#F99B20;}
	.st14{fill:#22BF66;}
	.st15{fill:#FF5046;}
	.st16{fill:#FFD516;}
	.st17{fill:#E5E8ED;}
	.st18{fill:#B9B9BB;}
	.st19{fill:#1A8DFF;}
	.st20{fill:#E4E7EC;}
	.st21{fill:#ABB8C7;}
	.st22{clip-path:url(#SVGID_2_);}
	.st23{fill:#B22234;}
	.st24{fill:#3C3B6E;}
	.st25{clip-path:url(#SVGID_4_);}
	.st26{fill:#012169;}
	.st27{fill:#E4002B;}
	.st28{clip-path:url(#SVGID_6_);}
	.st29{fill:#DD0000;}
	.st30{fill:#FFCE00;}
	.st31{fill:#F6C922;}
	.st32{fill:#FF6D31;}
	.st33{fill:#B1443A;}
	.st34{fill:#F9FBFC;}
</style>
<g id="BACKGROUND">
</g>
<g id="OBJECT">
	<g>
		<rect class="st15" width="177.1" height="177.1"/>
		<g>
			<path class="st1" d="M127.3,83h-3.7c-2-5.6-7.3-9.6-13.5-9.6c-6.2,0-11.5,4-13.5,9.6H49.8c-2.4,0-4.3,1.9-4.3,4.3
				c0,2.4,1.9,4.3,4.3,4.3h46.4c1.7,6.1,7.2,10.5,13.8,10.5s12.1-4.5,13.8-10.5h3.4c2.4,0,4.3-1.9,4.3-4.3
				C131.6,85,129.6,83,127.3,83z"/>
			<path class="st1" d="M127.3,120.3H80.5c-2-5.6-7.3-9.6-13.5-9.6s-11.5,4-13.5,9.6h-3.7c-2.4,0-4.3,1.9-4.3,4.3
				c0,2.4,1.9,4.3,4.3,4.3h3.4c1.7,6.1,7.2,10.5,13.8,10.5s12.1-4.5,13.8-10.5h46.4c2.4,0,4.3-1.9,4.3-4.3
				C131.6,122.3,129.6,120.3,127.3,120.3z"/>
			<path class="st1" d="M49.8,55.8h3.4c1.7,6.1,7.2,10.5,13.8,10.5s12.1-4.5,13.8-10.5h46.4c2.4,0,4.3-1.9,4.3-4.3s-1.9-4.3-4.3-4.3
				H80.5c-2-5.6-7.3-9.6-13.5-9.6s-11.5,4-13.5,9.6h-3.7c-2.4,0-4.3,1.9-4.3,4.3S47.4,55.8,49.8,55.8z"/>
		</g>
	</g>
</g>
<g id="DESIGNED_BY_FREEPIK">
</g>
</svg>
