<?xml version="1.0" encoding="utf-8"?>
<!-- Generator: Adobe Illustrator 25.4.1, SVG Export Plug-In . SVG Version: 6.00 Build 0)  -->
<svg version="1.1" id="Layer_1" xmlns="http://www.w3.org/2000/svg" xmlns:xlink="http://www.w3.org/1999/xlink" x="0px" y="0px"
	 viewBox="0 0 127.4 127.4" style="enable-background:new 0 0 127.4 127.4;" xml:space="preserve">
<style type="text/css">
	.st0{fill:url(#SVGID_1_);}
	.st1{fill:url(#SVGID_00000096016973219905649960000012630107665196395707_);}
	.st2{fill:url(#SVGID_00000020390562097710924300000007099554686064883587_);}
	.st3{fill:url(#SVGID_00000085947011999078337830000013194787041173012891_);}
	.st4{fill:#FFFFFF;}
	.st5{fill:#1A9EFE;}
	.st6{fill:url(#SVGID_00000136405624352811234490000002894381254724117913_);}
	.st7{fill:url(#SVGID_00000090987039063985745590000009284446628347627708_);}
</style>
<linearGradient id="SVGID_1_" gradientUnits="userSpaceOnUse" x1="63.7" y1="254.77" x2="63.7" y2="561.29" gradientTransform="matrix(1 0 0 1 0 -254.61)">
	<stop  offset="0" style="stop-color:#F7AF04"/>
	<stop  offset="1" style="stop-color:#F42014"/>
</linearGradient>
<circle class="st0" cx="63.7" cy="63.7" r="63.7"/>
<radialGradient id="SVGID_00000172405461944352089830000006389790240361416835_" cx="63.7" cy="318.31" r="89.11" gradientTransform="matrix(1 0 0 1 0 -254.61)" gradientUnits="userSpaceOnUse">
	<stop  offset="0" style="stop-color:#F6D201"/>
	<stop  offset="0.33" style="stop-color:#F6CC01;stop-opacity:0.67"/>
	<stop  offset="0.75" style="stop-color:#F7BC03;stop-opacity:0.25"/>
	<stop  offset="1" style="stop-color:#F7AF04;stop-opacity:0"/>
</radialGradient>
<circle style="fill:url(#SVGID_00000172405461944352089830000006389790240361416835_);" cx="63.7" cy="63.7" r="58.5"/>
<linearGradient id="SVGID_00000068665971467189887590000008108417858702657720_" gradientUnits="userSpaceOnUse" x1="63.7" y1="254.77" x2="63.7" y2="561.29" gradientTransform="matrix(1 0 0 1 0 -254.61)">
	<stop  offset="0" style="stop-color:#F7AF04"/>
	<stop  offset="1" style="stop-color:#F42014"/>
</linearGradient>
<circle style="fill:url(#SVGID_00000068665971467189887590000008108417858702657720_);" cx="63.7" cy="63.7" r="63.7"/>
<linearGradient id="SVGID_00000003098149556225891270000008266517056804306105_" gradientUnits="userSpaceOnUse" x1="63.72" y1="173.9" x2="63.72" y2="478.7" gradientTransform="matrix(1 0 0 1 0 -254.61)">
	<stop  offset="0" style="stop-color:#F7AF04"/>
	<stop  offset="1" style="stop-color:#F42014"/>
</linearGradient>
<circle style="fill:url(#SVGID_00000003098149556225891270000008266517056804306105_);" cx="63.7" cy="63" r="56.3"/>
<circle class="st4" cx="63.7" cy="63" r="52.9"/>
<path class="st5" d="M63.9,31.2c-14.9,0-29.2,5.9-39.8,16.5l4.5,4.5c17.4-17.1,44.6-19.2,64.5-5l4.7-4.5
	C88.1,35.2,76.2,31.2,63.9,31.2z"/>
<path class="st5" d="M63.9,47.3c-10.7,0-21,4.1-28.7,11.5l4.6,4.6c11.4-10.6,28.3-12.5,41.7-4.8l4.8-4.7
	C79.6,49.5,71.9,47.3,63.9,47.3z"/>
<path class="st5" d="M63.9,62.6c-6.6,0-12.9,2.6-17.6,7.3l4.9,4.9c4.7-4.8,11.7-6.5,18-4.2l5.5-5.4C71.4,63.4,67.7,62.6,63.9,62.6z"
	/>
<linearGradient id="SVGID_00000183217901861765619640000010572542462984460426_" gradientUnits="userSpaceOnUse" x1="55.17" y1="42.56" x2="114.96" y2="42.56" gradientTransform="matrix(1 0 0 -1 0 130)">
	<stop  offset="0" style="stop-color:#F7AF04"/>
	<stop  offset="1" style="stop-color:#F42014"/>
</linearGradient>
<circle style="fill:url(#SVGID_00000183217901861765619640000010572542462984460426_);" cx="63.9" cy="87.4" r="8.8"/>
<linearGradient id="SVGID_00000142893047726590263710000002633356120433810071_" gradientUnits="userSpaceOnUse" x1="68.4152" y1="66.379" x2="195.6052" y2="66.379" gradientTransform="matrix(1 0 0 -1 0 130)">
	<stop  offset="0" style="stop-color:#F7AF04"/>
	<stop  offset="1" style="stop-color:#F42014"/>
</linearGradient>
<path style="fill:url(#SVGID_00000142893047726590263710000002633356120433810071_);" d="M101.8,49.1l-25,32
	c-0.8,1.1-2.3,1.3-3.4,0.4c-0.2-0.1-0.3-0.3-0.5-0.5c-0.9-1.3-2-2.3-3.3-3.1c-1.1-0.7-1.5-2.2-0.7-3.4c0.1-0.2,0.2-0.3,0.4-0.4
	l29-28.3c0.9-0.9,2.3-0.9,3.3-0.1l0,0C102.5,46.6,102.6,48.1,101.8,49.1z"/>
</svg>
