<?xml version="1.0" encoding="utf-8"?>
<!-- Generator: Adobe Illustrator 22.0.1, SVG Export Plug-In . SVG Version: 6.00 Build 0)  -->
<svg version="1.1" id="Layer_1" xmlns="http://www.w3.org/2000/svg" xmlns:xlink="http://www.w3.org/1999/xlink" x="0px" y="0px"
	 viewBox="0 0 696 618" style="enable-background:new 0 0 696 618;" xml:space="preserve">
<style type="text/css">
	.st0{fill:#18162E;}
	.st1{fill:#FFFEFF;}
	.st2{fill:#EAEAEA;}
	.st3{fill:#898989;}
	.st4{opacity:0.2;fill:#FFFFFF;}
	.st5{opacity:0.3;fill:#18162E;}
	.st6{fill:#FFFFFF;}
	.st7{fill:#DDDCE0;}
	.st8{opacity:0.5;fill:#18162E;}
	.st9{opacity:0.15;fill:#18162E;}
	.st10{fill:#252247;}
	.st11{fill:#03A9F5;enable-background:new    ;}
	.st12{fill:#4FC2F8;enable-background:new    ;}
	.st13{enable-background:new    ;}
</style>
<g>
	<g>
		<g>
			
				<ellipse transform="matrix(0.1937 -0.9811 0.9811 0.1937 257.6261 805.5839)" class="st0" cx="618.9" cy="246.1" rx="46.1" ry="40.1"/>
			<path class="st0" d="M631.9,266.1c9.1-11.2,17.5-22.8,24.7-35.2c7.2-12.3,13-25.4,17-39c4-13.6,6-27.8,6.1-42.1
				c0.1-14.3-1.6-28.8-4.7-43l9.2-2.2c4,14.6,6.7,29.6,7.4,45c0.7,15.3-0.6,30.9-4.2,46c-3.5,15.1-9.1,29.7-16.1,43.4
				c-7,13.7-15.3,26.7-24.3,39L631.9,266.1z"/>
			<circle class="st0" cx="679.6" cy="105.7" r="16.3"/>
			<path class="st1" d="M648.1,243.9c-0.1,0.3-0.2,0.6-0.3,0.9c-0.9,2.5-1.9,5-2.9,7.5c-1.5,4-3.1,7.9-4.6,11.9
				c-4.4,9.6-9.9,18.9-15.9,27.2C616,303,606.5,312.7,597,319c-5.9,3.9-50.3,28.7-117.4,15.5c-0.9-0.2-1.7-0.4-2.6-0.5
				c-1.7-0.4-3.4-0.7-5.1-1.1c-0.8-0.2-1.7-0.4-2.5-0.6c-1.7-0.4-3.3-0.8-4.9-1.1c-0.8-0.2-1.6-0.4-2.4-0.6
				c-6.7-1.6-17.4-4.2-26.7-6.6c-0.5-0.1-0.9-0.2-1.3-0.3c-4.7-1.2-8.9-2.4-11.9-3.3l-0.5-0.2c-4-1.3-7.9-2.6-11.7-3.9
				c-1.3-0.5-2.6-0.9-3.9-1.4c-1.3-0.5-2.5-0.9-3.8-1.4c-21.4-8.1-75.6-24.2-92.5-33.4c-5.1-2.8-10.1-5.5-15-8.3
				c-0.2-0.1-0.4-0.3-0.7-0.4c-7.8-4.6-15.7-12.8-22.6-23.3c-13.8-21.1-23.8-51.6-21.9-81.1c0.3-5.5,1-10.8,2-15.9
				c7.2-36.5,53.1-57.6,76.4-57.6c5,0,10.2,0.1,15.8,0.3l0,0c5.1,0.2,10.5,0.5,16.2,0.9c3.4,0.2,6.9,0.5,10.5,0.8
				c16.5,2.5,23.5,3.3,42.2,6.5c3.1,0.5,6.1,1.1,9.2,1.6c0.4,0.1,0.7,0.1,1.1,0.2c4.7,0.8,9.5,1.7,14.3,2.5c2.1,0.4,4.2,0.7,6.4,1.1
				c15.3,2.7,30.7,5.6,46.1,8.5l0.7,0.1c17,3.2,33.9,6.5,50,9.8c6.6,1.6,12.9,3.3,19,4.8c2.4,0.6,4.8,1.3,7.2,1.9
				c5.9,1.6,11.5,3.2,16.8,4.8c4.3,1.3,8.4,2.5,12.4,3.8c6.3,2,12.2,4,17.8,5.9c1.3,0.5,2.6,0.9,3.8,1.4c2.2,0.8,4.3,1.6,6.4,2.4
				c5.3,2,10,5.4,14,9.9c0,0,0,0,0,0c0.5,0.6,1,1.2,1.6,1.9c0.5,0.6,1,1.3,1.5,2c0,0,0,0,0,0c1.2,1.7,2.4,3.5,3.4,5.4
				c0.2,0.4,0.4,0.8,0.6,1.2c0.4,0.8,0.8,1.6,1.2,2.4c1,2,1.8,4.1,2.6,6.3c0.3,0.9,0.6,1.8,0.9,2.7c2,6.5,3.3,13.7,3.7,21.4
				c0,0.7,0.1,1.5,0.1,2.3c0.1,3.1,0,6.2-0.1,9.4c0,0.9-0.1,1.7-0.2,2.5C652.6,226.4,650.9,235.1,648.1,243.9z"/>
			<path class="st2" d="M516.7,153.4c-2-0.4-4.1-0.9-6.2-1.3c-1-0.2-2.1-0.4-3.1-0.6c-0.5-0.1-1-0.2-1.6-0.3
				c15.6,3,29.9,6.1,42.9,9.2c3.6,0.9,7.2,1.7,10.6,2.6C546.5,159.9,532.4,156.7,516.7,153.4z"/>
			
				<ellipse transform="matrix(0.9995 -3.236664e-02 3.236664e-02 0.9995 -5.584 9.3804)" class="st0" cx="287" cy="177.2" rx="31.7" ry="46.1"/>
			<path class="st0" d="M255.8,188.1c-3.6-14.8-6.4-29.9-7.7-45.3c-1.2-15.3-0.9-30.9,1.6-46.2c2.5-15.3,7.1-30.2,13.6-44.1
				c6.5-13.9,14.7-26.8,23.9-38.8l7.7,5.6c-8.2,12-15.4,24.7-20.7,38c-5.3,13.3-8.8,27.2-10.3,41.3c-1.5,14.1-1.1,28.4,0.9,42.5
				c1.9,14.1,5.3,28.1,9.5,41.9L255.8,188.1z"/>
			<circle class="st0" cx="290.3" cy="16.3" r="16.3"/>
			<path d="M622.3,236.3c-10.1,28.9-29.6,48.8-49.6,50.7c-2.9,0.3-5.8,0.5-8.8,0.8c-2.3,0.2-4.5,0.4-6.9,0.6
				c-13.8,1-28.2,1.6-44.7,0.7c-1.6-0.1-3.1-0.2-4.8-0.3c-11.7-0.8-24.4-2.3-38.7-4.8c-14.2-3.1-26.7-6.6-37.9-10.3
				c-20.3-6.8-36.5-14.5-51.7-22.3c-2.6-1.3-5.2-2.7-7.8-4.1c-1.8-0.9-3.4-2-5-3.2c-14.7-11.3-23.1-35-21.6-62.5
				c0.2-3.6,0.7-7.2,1.3-10.6c4.9-25,21.8-42.4,39.2-42.1c18.3,0.3,42.3,2.2,72.8,7c9.1,1.4,18.7,3.1,28.9,5
				c1.9,0.3,3.7,0.7,5.6,1.1c0.9,0.2,1.9,0.4,2.9,0.6c1.9,0.4,3.8,0.8,5.8,1.2c0.5,0.1,1.1,0.2,1.6,0.3c1.6,0.3,3.2,0.6,4.7,1
				c1.2,0.2,2.4,0.5,3.6,0.7c0.9,0.2,1.7,0.4,2.6,0.6c7.3,1.6,14.3,3.2,21,4.8c22.6,5.5,41.3,11,56.4,16.2c4.9,1.7,9.4,3.4,13.6,5
				c7.2,2.8,13,8.9,16.8,16.9c0,0.1,0.1,0.2,0.1,0.3c4.6,10,6.1,23,3.4,36.7C624.4,229.4,623.5,232.9,622.3,236.3z"/>
			<path class="st0" d="M633.1,236.4c-9.5,28.8-28.6,49-48.5,51.2c-8.5,0.9-18.1,1.8-28.6,2.3c-13.8,0.7-28.9,0.9-44.2,0
				c-9.6-0.5-19.3-1.5-28.8-3.1c-0.3-0.1-0.7-0.1-1-0.2c-1.7-0.3-3.3-0.6-5-0.9c-0.8-0.2-1.6-0.3-2.4-0.4l-0.8-0.1
				c-1-0.2-2-0.4-3-0.6c-0.7-0.1-1.3-0.3-2-0.4c-14.2-3.1-26.7-6.6-37.9-10.3c-20.3-6.8-36.5-14.5-51.7-22.3
				c-2.6-1.3-5.2-2.7-7.8-4.1c-1.8-0.9-3.4-2-5-3.2c-6.8-12.4-10.3-29.2-9.3-47.7c0.2-3.6,0.7-7.2,1.3-10.6
				c4.9-25,21.8-42.4,39.2-42.1c14,0.2,31.4,1.4,52.4,4.1c6.5,0.8,13.3,1.8,20.4,2.9c11.2,1.8,23.3,3.9,36.3,6.4
				c2.3,0.4,4.5,0.9,6.9,1.4c1.1,0.2,2.1,0.4,3.2,0.6c1.1,0.2,2.1,0.4,3.1,0.6c9.6,2,18.6,4,27.1,6.1c14.3,3.4,27.1,6.9,38.3,10.4
				c12.3,3.7,22.8,7.4,31.7,10.9c1.5,0.6,3,1.3,4.4,2.2c0.1,0,0.1,0.1,0.2,0.1c7.2,4.6,12.6,12.8,15.2,22.9
				C637,219.9,635.9,228.1,633.1,236.4z"/>
			<path class="st3" d="M633.1,236.4c-9.5,28.8-28.6,49-48.5,51.2c-8.5,0.9-18.1,1.8-28.6,2.3c-13.8,0.7-28.9,0.9-44.2,0
				c-9.6-0.5-19.3-1.5-28.8-3.1c-0.3-0.1-0.7-0.1-1-0.2c-1.7-0.3-3.3-0.6-5-0.9c-0.8-0.2-1.6-0.3-2.4-0.4l-0.8-0.1
				c-1-0.2-2-0.4-3-0.6c-0.7-0.1-1.3-0.3-2-0.4c14.2,2.5,27,4,38.7,4.8c1.6,0.1,3.2,0.2,4.8,0.3c16.5,0.9,31,0.3,44.7-0.7
				c2.3-0.2,4.6-0.4,6.9-0.6c3-0.2,5.9-0.5,8.8-0.8c20-1.9,39.6-21.8,49.6-50.7c1.2-3.5,2.1-6.9,2.8-10.3
				c2.7-13.8,1.2-26.7-3.4-36.7c0-0.1-0.1-0.2-0.1-0.3c-3.8-8-9.5-14-16.8-16.9c-4.2-1.6-8.7-3.3-13.6-5
				c-15.1-5.2-33.8-10.8-56.4-16.2c-6.6-1.6-13.6-3.2-21-4.8c-0.9-0.2-1.7-0.4-2.6-0.6c0.9,0.2,1.7,0.4,2.6,0.5
				c15.6,3.3,29.8,6.5,42.6,9.6c0.1,0,0.2,0,0.3,0.1c13.4,3.3,25.2,6.5,35.6,9.6c8.1,2.4,15.4,4.8,21.9,7.2
				c4.7,1.7,8.9,4.8,12.3,8.8c2.2,2.6,4.1,5.6,5.6,8.9c0,0,0,0,0,0c2.9,6.3,4.6,13.8,4.8,21.9C637,219.9,635.9,228.1,633.1,236.4z"
				/>
			<path class="st4" d="M513.8,146.1L513.8,146.1L513.8,146.1l-7.1,10.9l-28.9,44.5l-12.2,18.8L431,273.7
				c-20.3-6.8-36.5-14.5-51.7-22.3L450,147.7l8.1-11.9c9.1,1.4,18.7,3.1,28.9,5c1.9,0.3,3.7,0.7,5.6,1.1c0.9,0.2,1.9,0.4,2.9,0.6
				c1.9,0.4,3.8,0.8,5.8,1.2c0.5,0.1,1.1,0.2,1.6,0.3c1.6,0.3,3.2,0.6,4.7,1c1,0.2,2.1,0.4,3.1,0.6
				C511.8,145.7,512.8,145.9,513.8,146.1z"/>
			<path class="st4" d="M626.5,181.4l-5,7.6l-0.1,0.1l-16,24.6l-18,27.7L557,288.4l-1,1.5c-13.8,0.7-28.9,0.9-44.2,0l0.5-0.7
				l73.1-113l5.8-8.9l1.1-1.7c8.1,2.4,15.4,4.8,21.9,7.2C619,174.2,623.1,177.3,626.5,181.4z"/>
			<path class="st3" d="M633.1,236.4c-9.5,28.8-28.6,49-48.5,51.2c-8.5,0.9-18.1,1.8-28.6,2.3c-13.8,0.7-28.9,0.9-44.2,0
				c-9.6-0.5-19.3-1.5-28.8-3.1c-0.3-0.1-0.7-0.1-1-0.2c-1.7-0.3-3.3-0.6-5-0.9c-0.8-0.2-1.6-0.3-2.4-0.4l-0.8-0.1
				c-1-0.2-2-0.4-3-0.6c-0.7-0.1-1.3-0.3-2-0.4c14.2,2.5,27,4,38.7,4.8c1.6,0.1,3.2,0.2,4.8,0.3c16.5,0.9,31,0.3,44.7-0.7
				c2.3-0.2,4.6-0.4,6.9-0.6c3-0.2,5.9-0.5,8.8-0.8c20-1.9,39.6-21.8,49.6-50.7c1.2-3.5,2.1-6.9,2.8-10.3
				c2.7-13.8,1.2-26.7-3.4-36.7c0-0.1-0.1-0.2-0.1-0.3c-3.8-8-9.5-14-16.8-16.9c-4.2-1.6-8.7-3.3-13.6-5
				c-15.1-5.2-33.8-10.8-56.4-16.2c-6.6-1.6-13.6-3.2-21-4.8c-0.9-0.2-1.7-0.4-2.6-0.6c0.9,0.2,1.7,0.4,2.6,0.5
				c15.6,3.3,29.8,6.5,42.6,9.6c0.1,0,0.2,0,0.3,0.1c13.4,3.3,25.2,6.5,35.6,9.6c8.1,2.4,15.4,4.8,21.9,7.2
				c4.7,1.7,8.9,4.8,12.3,8.8c2.2,2.6,4.1,5.6,5.6,8.9c0,0,0,0,0,0c2.9,6.3,4.6,13.8,4.8,21.9C637,219.9,635.9,228.1,633.1,236.4z"
				/>
			<path class="st4" d="M513.8,146.1L513.8,146.1L513.8,146.1l-7.1,10.9l-28.9,44.5l-12.2,18.8L431,273.7
				c-20.3-6.8-36.5-14.5-51.7-22.3L450,147.7l8.1-11.9c9.1,1.4,18.7,3.1,28.9,5c1.9,0.3,3.7,0.7,5.6,1.1c0.9,0.2,1.9,0.4,2.9,0.6
				c1.9,0.4,3.8,0.8,5.8,1.2c0.5,0.1,1.1,0.2,1.6,0.3c1.6,0.3,3.2,0.6,4.7,1c1,0.2,2.1,0.4,3.1,0.6
				C511.8,145.7,512.8,145.9,513.8,146.1z"/>
			<path class="st4" d="M626.5,181.4l-5,7.6l-0.1,0.1l-16,24.6l-18,27.7L557,288.4l-1,1.5c-13.8,0.7-28.9,0.9-44.2,0l0.5-0.7
				l73.1-113l5.8-8.9l1.1-1.7c8.1,2.4,15.4,4.8,21.9,7.2C619,174.2,623.1,177.3,626.5,181.4z"/>
			<path class="st5" d="M624.4,291.4C616,303,606.5,312.7,597,319c-5.9,3.9-50.3,28.7-117.4,15.5c-0.9-0.2-1.7-0.4-2.6-0.5
				c-1.7-0.4-3.4-0.7-5.1-1.1c-0.8-0.2-1.7-0.4-2.5-0.6c-1.7-0.4-3.3-0.8-4.9-1.1c-0.8-0.2-1.6-0.4-2.4-0.6
				c-6.7-1.6-17.4-4.2-26.7-6.6c-0.5-0.1-0.9-0.2-1.3-0.3c-4.6-1.2-8.7-2.4-11.9-3.3l-0.5-0.2c-4-1.3-7.9-2.6-11.7-3.9
				c-1.3-0.5-2.6-0.9-3.9-1.4c-1.3-0.5-2.5-0.9-3.8-1.4c-21.4-8.1-75.6-24.2-92.5-33.4c-5.1-2.8-10.1-5.5-15-8.3
				c-0.2-0.1-0.4-0.3-0.7-0.4c-7.8-4.6-15.7-12.8-22.6-23.3c48.6,19.8,107.7,37.1,165.4,54.9C525.9,330.5,585.5,322.1,624.4,291.4z"
				/>
			<path class="st6" d="M452.6,217.8c-3.3,14.5-13-1.2-28.6-4.7c-15.6-3.5-31.1,6.5-27.8-8c3.3-14.5,18.5-23.5,34.1-20
				S455.9,203.2,452.6,217.8z"/>
			<path class="st6" d="M604.1,248c-3,13.2-11.8-1.1-26-4.2c-14.2-3.2-28.3,6-25.3-7.3c3-13.2,16.8-21.3,31-18.2
				C598,221.5,607.1,234.8,604.1,248z"/>
		</g>
		<g>
			<path class="st0" d="M615,482.2c-4.2,3.3-7.4,5.7-10.9,8.4c-11-5.6-21.6-10.9-31.7-16c-1.3-6.4-2.4-11.7-3.6-17.7c0,0,0,0,0,0
				c0,0,0.1,0,0.1,0.1c0,0,0.1,0,0.1,0.1c0.1,0,0.2,0.1,0.3,0.1l9.9-24.1l0,0l2.7-1.6c5.7-3.8,10.7-7,16.4-10.8
				c10.6,5.2,21.2,10.4,32.7,16.1c-1,4.8-1.8,8.9-2.8,13.6c-8.2-2-14.9-3.7-23.4-5.7c-4,7.8-7.4,14.7-11.2,22.2L615,482.2z"/>
			<g>
				<path class="st7" d="M581,431.7l-0.2,0.4l-11.2,27c-0.1-0.1-0.3-0.1-0.4-0.2c-26.5-11.1-44.2-25.7-56-40.2c0,0,0,0,0,0
					c-1.4-1.7-2.8-3.5-4-5.2c-3.1-4.3-5.8-8.6-8-12.8c-3.1-5.8-5.4-11.4-7.1-16.4c-4.3-12.7-4.6-21.8-4.6-22.8l28.5-0.6
					c0.7,0.8,1.2,1.7,1.5,2.8c0.1,0.8,0.2,1.6,0.4,2.6C522.4,379.4,533.4,411.8,581,431.7z"/>
			</g>
			<path class="st0" d="M478.6,540.3c-3,9.7-10.2,17.5-19.7,21c-5.9,2.2-13.1,4.6-20.3,7c-23.5,7.6-49.1,4.2-69.8-9.2
				c-6.4-4.2-12.7-8.4-17.9-12.1c-8.2-5.9-13.2-15.3-13.6-25.4c-0.2-7.1,1-14,2.5-20.7c0.4-1.7,2.2-2.6,3.8-2
				c18.1,7.2,37.3,12.4,62.6,15.7c0.9,0.1,1.8,0.2,2.6,0.3c0.4,0.1,0.8,0.1,1.2,0.1c0.4,0.1,0.8,0.1,1.2,0.2
				c0.9,0.1,1.8,0.3,2.6,0.4c25.2,3.3,45.1,3.3,64.5,1.1c1.7-0.2,3.2,1.2,3.2,2.9C481.3,526.5,480.7,533.5,478.6,540.3z"/>
			<path class="st8" d="M478.6,540.3c-3,9.7-10.2,17.5-19.7,21c-5.9,2.2-13.1,4.6-20.3,7c-22.4,7.3-46.7,4.6-66.9-7.4
				c50,5.2,92.9-13.4,96.8-42.6c0-0.2,0.1-0.5,0.1-0.7c3.3-0.2,6.6-0.6,9.8-0.9c1.7-0.2,3.2,1.2,3.2,2.9
				C481.3,526.5,480.7,533.5,478.6,540.3z"/>
			<path class="st6" d="M519.8,366.4c0,0.2,0,0.4,0,0.7c-0.3,4.3-0.5,8.5-0.7,13v0c0,0.8-0.1,1.6-0.1,2.4c0,0.8-0.1,1.5-0.1,2.3
				c-0.1,1-0.3,2.1-0.4,3.1c-0.3,2.1-0.6,4.3-1,6.6c-0.4,2.8-0.9,5.6-1.4,8.4c-0.2,1.1-0.4,2.2-0.6,3.3c-0.8,4.7-1.7,9.1-2.3,12.6
				c0,0,0,0,0,0c-0.8,4.1-1.4,7-1.6,7.9c0,0.2-0.1,0.3-0.1,0.3c-1.4,8.3-3.5,16.5-6,24.7c-1.1,3.7-2.3,7.4-3.6,11.1
				c-0.2,0.6-0.4,1.1-0.6,1.7c-0.4,1.1-0.9,2.2-1.4,3.3c-0.5,1.1-1,2.1-1.6,3.2c-1.4,2.6-3,5-4.8,7.2c-4.3,5.3-9.6,9.6-15.4,12.4
				c-0.5,0.2-1,0.5-1.5,0.7c-1.7,0.8-3.5,1.4-5.4,1.9c-0.8,0.2-1.6,0.4-2.4,0.6c-0.5,0.1-1.1,0.2-1.6,0.3c-0.8,0.1-1.6,0.3-2.4,0.4
				h0c-0.8,0.1-1.6,0.2-2.5,0.2c-0.9,0-1.9,0.1-2.8,0.1c-6.7,0.2-13.8,0.2-21.1-0.1c-2.2-0.1-4.5-0.2-6.8-0.4
				c-0.6,0-1.1-0.1-1.7-0.1c-6.6-0.5-13.3-1.3-20-2.2c0,0,0,0-0.1,0c-4.2-0.6-8.3-1.3-12.5-2.1c-0.3-0.1-0.7-0.1-1-0.2
				c-3.3-0.6-6.5-1.3-9.7-2.1c-0.8-0.2-1.7-0.4-2.5-0.6c-1.7-0.4-3.3-0.8-5-1.3c0,0,0,0,0,0c-3.3-0.9-6.6-1.9-9.7-2.9
				c-0.3-0.1-0.5-0.2-0.8-0.3c-0.1-0.1-0.3-0.1-0.4-0.2c-0.2-0.1-0.4-0.1-0.6-0.2c-0.3-0.1-0.6-0.2-0.9-0.4
				c-0.3-0.1-0.6-0.2-0.9-0.4c-0.5-0.2-1.1-0.5-1.6-0.7c-0.3-0.1-0.5-0.3-0.8-0.4c-0.4-0.2-0.8-0.4-1.3-0.7c0,0,0,0,0,0
				c-0.5-0.3-0.9-0.5-1.4-0.8c-0.4-0.3-0.9-0.5-1.3-0.8c0,0-0.1,0-0.1-0.1c-0.3-0.2-0.6-0.4-0.9-0.6c-0.5-0.3-0.9-0.7-1.4-1
				c-0.3-0.2-0.5-0.4-0.8-0.6c-0.1-0.1-0.2-0.2-0.3-0.2c-0.2-0.2-0.4-0.3-0.6-0.5c-0.3-0.3-0.6-0.6-0.9-0.8c0,0-0.1-0.1-0.2-0.1
				c-0.4-0.3-0.7-0.7-1.1-1c-0.3-0.3-0.6-0.6-0.9-0.9c-0.2-0.2-0.3-0.3-0.4-0.5c-0.6-0.6-1.2-1.3-1.7-2c-0.2-0.2-0.3-0.4-0.5-0.6
				c-0.2-0.2-0.3-0.4-0.4-0.6c-0.2-0.2-0.3-0.4-0.5-0.6c-0.3-0.4-0.7-0.9-1-1.4c-0.2-0.3-0.5-0.7-0.7-1c0,0,0-0.1-0.1-0.1
				c-0.2-0.3-0.4-0.6-0.6-1c-0.1-0.2-0.3-0.4-0.4-0.6c-0.5-0.8-0.9-1.5-1.3-2.3c-0.1-0.2-0.2-0.4-0.3-0.6c-0.2-0.4-0.4-0.8-0.6-1.1
				c-0.1-0.3-0.3-0.5-0.4-0.8c-0.2-0.5-0.4-1-0.6-1.5c0,0,0-0.1-0.1-0.1c-1.8-4.3-3-9-3.5-13.9c-0.4-3.5-0.7-7-1-10.5
				c-0.6-8.4-0.9-16.7-0.5-25c0,0,0-0.1,0-0.3c0-1.9,0.3-13.1,0.9-25.1c0.3-5.6,0.6-11.5,1.1-16.6c0-0.2,0-0.4,0.1-0.7
				c1-6.2,2-11.7,2.9-17.5c0.6-3.7,3.3-6.5,6.6-7c0.1,0,0.1,0,0.2,0c4.9-0.6,9.8-1.1,14.7-1.5c1.7-0.1,3.4-0.3,5-0.4
				c7.1-0.5,14.2-0.8,21.3-0.8c14.2-0.1,28.4,0.6,42.5,2.2h0c16.4,1.8,32.6,4.7,48.6,8.7c11,2.8,21.9,6.1,32.8,10
				c1.3,0.4,2.3,1.2,3.2,2.3c0.7,0.8,1.2,1.7,1.5,2.8C519.7,364.6,519.8,365.5,519.8,366.4z"/>
			<path class="st9" d="M519.1,380c-0.1,1.5-0.2,3.1-0.3,4.7c-2.1,16.3-6.7,39.1-7.3,41.9c0,0.2-0.1,0.3-0.1,0.3
				c-2.1,12.1-5.6,24-9.7,35.9c-6.3,18.4-21.9,31-39.6,31.9c-28.2,1.4-63.6-2.5-93-12c-12-3.9-21.5-13.3-26.5-25.5
				c18.1,11.7,40,18.5,63.5,18.5C464.7,475.7,512.7,433.8,519.1,380z"/>
			<g>
				<path class="st7" d="M370,385.3c-5.5,13.8-15.1,30.9-31.6,47.4c-0.6-8.4-0.9-16.7-0.5-25c0,0,0-0.1,0-0.3
					c0-1.9,0.3-13.1,0.9-25.1c1.1-2.2,2.1-4.4,3.1-6.7c7.5-18,7.7-32.5,7.6-35.1c0-0.3,0-0.4,0-0.4l0,0.1l19.9-1.7c0,0,0,0,0,0.1
					C369.7,341,380,360.4,370,385.3z"/>
			</g>
			<g>
				<path class="st6" d="M369.2,368.9c-0.1,0-0.1,0-0.2,0c-4,0-98.7-1.8-139.9-74.2c-4.1-7.1-1.6-16.2,5.6-20.2
					c7.1-4.1,16.2-1.6,20.2,5.6c32.7,57.4,113.6,59.2,114.4,59.2c8.2,0.1,14.7,6.8,14.6,15C383.9,362.3,377.3,368.9,369.2,368.9z"/>
			</g>
			<path class="st0" d="M200.6,252.5c-2.7,4.6-4.8,8-7,11.9c6.9,10.3,13.5,20.1,19.8,29.5c6.5,0.5,11.9,0.9,18,1.4c0,0,0,0,0,0
				c0,0,0-0.1-0.1-0.1c0,0,0-0.1-0.1-0.1c-0.1-0.1-0.1-0.2-0.2-0.3l22.7-12.8l0,0l1.3-2.9c3-6.1,5.6-11.4,8.7-17.6
				c-6.5-9.9-12.9-19.7-20-30.5c-4.6,1.5-8.6,2.9-13.1,4.4c3,7.9,5.5,14.3,8.5,22.5c-7.3,4.9-13.7,9.2-20.7,13.8L200.6,252.5z"/>
			<circle class="st6" cx="467.9" cy="405.4" r="28.4"/>
			<path class="st10" d="M501.1,400.7c-0.9-6.2-3.4-11.8-7.1-16.4c-6.2-7.7-15.6-12.5-26.2-12.5c-18.6,0-33.6,15.1-33.6,33.6
				c0,18.6,15.1,33.6,33.6,33.6c18.6,0,33.6-15.1,33.6-33.6C501.5,403.8,501.4,402.2,501.1,400.7z M467.9,427.5
				c-12.2,0-22.1-9.9-22.1-22.1c0-12.2,9.9-22.1,22.1-22.1c12.2,0,22.1,9.9,22.1,22.1C489.9,417.6,480,427.5,467.9,427.5z"/>
		</g>
	</g>
	<g>
		<path class="st11" d="M143.1,250.4C143.2,250.4,143,250.4,143.1,250.4L143.1,250.4z"/>
		<path class="st11" d="M309,257c-24.7,5.4-95,17.3-158.9-4.1c-4.1-1.4-8.6-0.1-11.3,3.2c-42.4,52.5-108.2,80.3-131.9,89
			c-5,1.8-7.8,7.2-6.4,12.4C68.6,606.4,223.4,617.8,247.2,618c2,0,4-0.6,5.7-1.7c19.9-13,144.4-105.7,68.2-352.3
			C319.5,258.9,314.2,255.9,309,257z"/>
	</g>
	<path class="st12" d="M296.9,286.5c0,0-77.4,21.5-143.9-3.6c-0.1,0-0.1,0-0.2-0.1c0,0-0.1,0.1-0.1,0.1
		c-42.6,56.9-119.5,80.3-119.5,80.3C92.9,593.5,241,585.5,241,585.5v0C241,585.5,370.2,512.7,296.9,286.5z"/>
	<g class="st13">
		<path class="st6" d="M116.3,436.7L72,379.8l20.4-6.2l28.3,40.1l1.1-49.1l19.6-6l-5.2,72L116.3,436.7z"/>
		<path class="st6" d="M175.6,348.1c16.6-5.1,28.7,0.2,33.2,14.9c4.7,15.3-2.2,27.1-18.8,32.2l-10.1,3.1l5.3,17.4l-19.1,5.9
			L146.4,357L175.6,348.1z M175.4,383.5l9.2-2.8c5.7-1.7,8-5.9,6.3-11.7c-1.7-5.6-6-7.7-11.7-6l-9.2,2.8L175.4,383.5z"/>
		<path class="st6" d="M273.7,388.5L235.5,361l11,35.8l-17.5,5.4l-19.7-64.4l16.4-5l38.3,27.7l-11-36l17.5-5.3l19.7,64.4
			L273.7,388.5z"/>
	</g>
	<g>
		<path class="st6" d="M254.1,505.3c-11.3-7.4-25.3-9.5-38.5-5.9c-13.2,3.6-24.2,12.6-30.3,24.7c-2.5,5.6,0.6,10.6,4.8,12.6
			c1.3,0.6,2.7,0.9,4.1,0.9c0.8,0,1.7-0.1,2.5-0.4c2.4-0.7,4.4-2.5,5.5-4.9c3.3-7.1,10.1-12.6,18.3-14.8c8.1-2.2,16.8-0.9,23.3,3.5
			c2.2,1.6,4.8,2.1,7.3,1.5c2.1-0.5,4-1.9,5.4-3.8C259,514.8,259.2,508.8,254.1,505.3z"/>
		<path class="st6" d="M224.4,530c-6.6,1.8-10.7,9-8.9,15.6s9,10.7,15.6,8.9c6.6-1.8,10.7-9,8.9-15.6
			C238.2,532.3,231.1,528.2,224.4,530z"/>
		<path class="st6" d="M266.8,475.9c-17.9-10.2-39.1-12.8-59.6-7.2c-20.6,5.6-37.5,18.5-47.7,36.4c-1.8,3.1-1.9,6.3-0.3,9.1
			c1.7,2.9,5.1,4.8,8.7,4.8c0,0,0,0,0,0c3.4,0,6.2-1.7,7.9-4.5c8-13.9,20.2-23.2,36.4-27.6c16.2-4.4,31.4-2.6,45.4,5.4
			c2.9,1.6,6.2,1.6,9.1-0.1c3.1-1.8,5.1-5.2,5.1-8.5C271.6,480.4,269.9,477.7,266.8,475.9z"/>
		<path class="st6" d="M279.7,447c-25.6-13.3-53.6-16.4-80.9-9c-27.3,7.4-49.8,24.3-65.1,48.7c-1.9,3-1.7,5.7-1.3,7.4
			c0.6,2.1,2,4,4,5.3c1.5,1,3.4,1.5,5.3,1.5c3,0,6-1.4,8.1-4.7c12.1-19.7,31.3-34,53.9-40.2c22.6-6.2,46.3-3.6,66.8,7.3
			c5.6,2.9,11,0,13.1-4.1C285.8,455.3,285.1,449.8,279.7,447z"/>
	</g>
</g>
</svg>
