<svg id="Layer_2" data-name="Layer 2" xmlns="http://www.w3.org/2000/svg" xmlns:xlink="http://www.w3.org/1999/xlink" viewBox="0 0 178.24 111.1"><defs><style>.cls-1{fill:#c7ceda;}.cls-2{fill:#dd442a;}.cls-3{fill:#fff;}.cls-4{fill:#1a9efe;}.cls-5{fill:#087bc1;}.cls-6{fill:url(#linear-gradient);}.cls-7{fill:url(#linear-gradient-2);}.cls-8{fill:#e0e4ea;}.cls-9{fill:url(#linear-gradient-3);}.cls-10{fill:url(#linear-gradient-4);}.cls-11{fill:#fafafb;}</style><linearGradient id="linear-gradient" x1="17.88" y1="71.57" x2="17.88" y2="55.2" gradientUnits="userSpaceOnUse"><stop offset="0" stop-color="#f6d201"/><stop offset="0.18" stop-color="#f6cc02"/><stop offset="0.41" stop-color="#f6bc03"/><stop offset="0.67" stop-color="#f6a106"/><stop offset="0.95" stop-color="#f67c0a"/><stop offset="1" stop-color="#f6740b"/></linearGradient><linearGradient id="linear-gradient-2" x1="17.87" y1="61.72" x2="17.87" y2="60.62" xlink:href="#linear-gradient"/><linearGradient id="linear-gradient-3" x1="157.93" y1="42.16" x2="157.93" y2="77.76" xlink:href="#linear-gradient"/><linearGradient id="linear-gradient-4" x1="157.93" y1="31.84" x2="157.93" y2="77.63" gradientUnits="userSpaceOnUse"><stop offset="0" stop-color="#f7af04"/><stop offset="1" stop-color="#f42014"/></linearGradient></defs><title>how-does-big-surveillance-impact-no-logs-policies</title><path class="cls-1" d="M84.07,98.1h-1v-.17h1Zm0-3.17h-1v-3h1Zm0-6h-1v-3h1Zm0-6h-1v-3h1Zm0-6h-1v-3h1Zm0-6h-1v-3h1Zm0-6h-1v-3h1Z" transform="translate(0.45 0)"/><path class="cls-1" d="M76.26,40.58h-1V38.69h1Zm0-4.89h-1v-3h1Zm0-6h-1v-3h1Zm-1-6a10.65,10.65,0,0,0-.52-2.8l1-.32a11.48,11.48,0,0,1,.57,3.08Zm-1.79-5.36a10.37,10.37,0,0,0-1.91-2.11l.64-.77a11.86,11.86,0,0,1,2.1,2.32Zm-4.33-3.63a10.09,10.09,0,0,0-2.73-.81l.14-1a11.51,11.51,0,0,1,3,.88Zm-5.65-.92h-3v-1h3Zm-6,0h-3v-1h3Zm-6,0h-3v-1h3Z" transform="translate(0.45 0)"/><circle class="cls-2" cx="76.21" cy="25.83" r="5.08"/><polygon class="cls-3" points="78.92 24.18 77.86 23.12 76.21 24.77 74.56 23.12 73.5 24.18 75.15 25.83 73.5 27.49 74.56 28.55 76.21 26.89 77.86 28.55 78.92 27.49 77.27 25.83 78.92 24.18"/><path class="cls-1" d="M92.49,40.58h-1V38.69h1Zm0-4.89h-1v-3h1Zm0-6h-1v-3h1Zm0-6-1,0a10.75,10.75,0,0,1,.57-3.08l.94.32A10.65,10.65,0,0,0,92.5,23.71Zm1.79-5.36-.83-.56a11.58,11.58,0,0,1,2.1-2.32l.64.77A10.37,10.37,0,0,0,94.29,18.35Zm4.33-3.63-.41-.92a11.51,11.51,0,0,1,3-.88l.14,1A10.09,10.09,0,0,0,98.62,14.72Zm20.65-.92h-3v-1h3Zm-6,0h-3v-1h3Zm-6,0h-3v-1h3Z" transform="translate(0.45 0)"/><circle class="cls-2" cx="92.45" cy="25.83" r="5.08"/><polygon class="cls-3" points="89.73 24.18 90.79 23.12 92.44 24.77 94.1 23.12 95.16 24.18 93.5 25.83 95.16 27.49 94.1 28.55 92.44 26.89 90.79 28.55 89.73 27.49 91.39 25.83 89.73 24.18"/><path class="cls-1" d="M138.6,53.08h-3v-1h3Zm-6,0h-3v-1h3Zm-6,0h-3v-1h3Zm-6,0h-3v-1h3Zm-6,0h-3v-1h3Zm-6,0h-3v-1h3Zm-6,0h-3v-1h3Zm-6,0h-3v-1h3Zm-6,0h-3v-1h3Zm-6,0h-3v-1h3Zm-6,0h-3v-1h3Zm-6,0h-3v-1h3Zm-6,0h-3v-1h3Zm-6,0h-3v-1h3Zm-6,0h-3v-1h3Zm-6,0h-3v-1h3Zm-6,0h-3v-1h3Zm-6,0h-3v-1h3Zm-6,0h-3v-1h3Zm-6,0H22.9v-1h1.7Z" transform="translate(0.45 0)"/><circle class="cls-4" cx="84.02" cy="98.18" r="12.92"/><path class="cls-3" d="M89.27,97.65H77.88A5.7,5.7,0,0,1,83.57,92h0a5.7,5.7,0,0,1,5.7,5.7Z" transform="translate(0.45 0)"/><rect class="cls-3" x="77.12" y="97.65" width="13.81" height="1.5"/><rect class="cls-3" x="75.28" y="100.7" width="7.21" height="2.01" transform="translate(181.04 22.83) rotate(90)"/><rect class="cls-3" x="79.97" y="100.7" width="7.21" height="2.01" transform="translate(185.73 18.14) rotate(90)"/><rect class="cls-3" x="84.66" y="100.7" width="7.21" height="2.01" transform="translate(190.42 13.45) rotate(90)"/><rect class="cls-3" x="77.12" y="102.77" width="13.81" height="1.5"/><rect class="cls-3" x="76.41" y="104.27" width="15.23" height="1.5"/><rect class="cls-3" x="80.38" y="91.44" width="6.27" height="0.76" transform="translate(175.79 8.3) rotate(90)"/><path class="cls-3" d="M87,91.41c-1.55,0-2.33-.65-3.88-.65V88.59c1.55,0,2.33.65,3.88.65Z" transform="translate(0.45 0)"/><circle class="cls-4" cx="52.19" cy="12.92" r="12.92"/><path class="cls-3" d="M45.12,6.89v3.3H58.36V6.89Zm2,2.31a.66.66,0,0,1-.65-.66.65.65,0,1,1,1.3,0A.66.66,0,0,1,47.09,9.2Z" transform="translate(0.45 0)"/><path class="cls-3" d="M45.12,11.27v3.3H58.36v-3.3Zm2,2.3a.65.65,0,0,1-.65-.65.65.65,0,1,1,1.3,0A.65.65,0,0,1,47.09,13.57Z" transform="translate(0.45 0)"/><path class="cls-3" d="M45.12,15.64v3.3H58.36v-3.3Zm2,2.31a.66.66,0,0,1-.65-.66.65.65,0,0,1,1.3,0A.66.66,0,0,1,47.09,18Z" transform="translate(0.45 0)"/><circle class="cls-4" cx="115.9" cy="12.92" r="12.92"/><rect class="cls-3" x="108.77" y="11.03" width="14.26" height="2.27"/><path class="cls-3" d="M120.43,7.8a1.9,1.9,0,0,0-2.1-1.92l-1.59.32a7.36,7.36,0,0,1-2.92,0l-1.23-.27a1.89,1.89,0,0,0-2.12,1.92l-.32,3.68h10.6Z" transform="translate(0.45 0)"/><path class="cls-3" d="M112.27,20A2.74,2.74,0,1,1,115,17.25,2.74,2.74,0,0,1,112.27,20Zm0-4.47A1.73,1.73,0,1,0,114,17.25,1.73,1.73,0,0,0,112.27,15.52Z" transform="translate(0.45 0)"/><path class="cls-3" d="M118.63,20a2.74,2.74,0,1,1,2.74-2.74A2.74,2.74,0,0,1,118.63,20Zm0-4.47a1.73,1.73,0,1,0,1.72,1.73A1.73,1.73,0,0,0,118.63,15.52Z" transform="translate(0.45 0)"/><path class="cls-3" d="M116.11,17.67a1.07,1.07,0,0,0-1.29,0l-.64-.79a2.09,2.09,0,0,1,2.51,0Z" transform="translate(0.45 0)"/><path class="cls-3" d="M120.43,7.8a1.9,1.9,0,0,0-2.1-1.92l-1.59.32a7.36,7.36,0,0,1-2.92,0l-1.23-.27a1.89,1.89,0,0,0-2.12,1.92l-.32,3.68h10.6Z" transform="translate(0.45 0)"/><path class="cls-3" d="M112.27,20A2.74,2.74,0,1,1,115,17.25,2.74,2.74,0,0,1,112.27,20Zm0-4.47A1.73,1.73,0,1,0,114,17.25,1.73,1.73,0,0,0,112.27,15.52Z" transform="translate(0.45 0)"/><path class="cls-3" d="M118.63,20a2.74,2.74,0,1,1,2.74-2.74A2.74,2.74,0,0,1,118.63,20Zm0-4.47a1.73,1.73,0,1,0,1.72,1.73A1.73,1.73,0,0,0,118.63,15.52Z" transform="translate(0.45 0)"/><path class="cls-3" d="M116.11,17.67a1.07,1.07,0,0,0-1.29,0l-.64-.79a2.09,2.09,0,0,1,2.51,0Z" transform="translate(0.45 0)"/><path class="cls-4" d="M115.74,37.09h-62c-1.24,0-2.25,6.49-2.25,14.5s1,14.5,2.25,14.5h62Z" transform="translate(0.45 0)"/><ellipse class="cls-5" cx="116.19" cy="51.59" rx="2.25" ry="14.5"/><path class="cls-6" d="M36.19,67.86a66.67,66.67,0,0,1-18.11,2.5A66.91,66.91,0,0,1-.43,67.75h0c0-.23,0-.45,0-.67a14,14,0,0,1,.73-4.53A12.7,12.7,0,0,1,2.7,58.29a11.62,11.62,0,0,1,2.7-2.35,11,11,0,0,1,2.11-1,7.91,7.91,0,0,1,1.15-.33,5.43,5.43,0,0,1,.68-.13l.14,0c.27,0,.55-.06.82-.09.11,0,3.86,0,7.62,0l7.61,0c.28,0,.56,0,.83.09h0a6.33,6.33,0,0,1,.78.15,10,10,0,0,1,1.07.31,11.33,11.33,0,0,1,5.58,4.33A13.74,13.74,0,0,1,36.19,67.86Z" transform="translate(0.45 0)"/><path class="cls-7" d="M26.39,54.52a9.47,9.47,0,0,1-8.51,5.9,9.47,9.47,0,0,1-8.54-5.94l.14,0c.27,0,.55-.06.82-.09.11,0,3.86,0,7.62,0l7.61,0c.28,0,.56,0,.83.09Z" transform="translate(0.45 0)"/><path class="cls-1" d="M22.9,55.12V46.7h-10v8.42a2.22,2.22,0,0,0,.67,1.59,6.26,6.26,0,0,0,8.69,0A2.2,2.2,0,0,0,22.9,55.12Z" transform="translate(0.45 0)"/><ellipse class="cls-8" cx="9.16" cy="44.1" rx="2.92" ry="3.59" transform="translate(-20.94 11.01) rotate(-30.98)"/><ellipse class="cls-8" cx="26.61" cy="44.1" rx="3.59" ry="2.92" transform="translate(-24.45 44.22) rotate(-59.02)"/><path class="cls-8" d="M17.89,55.54h0a9,9,0,0,1-9-8.95V37.47h17.9v9.12A9,9,0,0,1,17.89,55.54Z" transform="translate(0.45 0)"/><path class="cls-1" d="M8.94,46.38,6.85,40.84a2.57,2.57,0,0,1,1.23-3.19l.86-.45Z" transform="translate(0.45 0)"/><path class="cls-1" d="M26.84,46.38l2.08-5.54a2.57,2.57,0,0,0-1.22-3.19l-.86-.45Z" transform="translate(0.45 0)"/><path class="cls-1" d="M27.41,41.49a16,16,0,0,1-16.62-3.75,2.93,2.93,0,0,1-2.53,3.9c-.72-.09.68-4.44.68-4.44s-1.21-3.26,2.13-6.49c3.78-3.64,20.05-2.7,17.21,8.78C28.18,41.38,27.41,41.49,27.41,41.49Z" transform="translate(0.45 0)"/><path class="cls-9" d="M137.62,43h40.62a0,0,0,0,1,0,0V63.91a1.1,1.1,0,0,1-1.1,1.1H138.72a1.1,1.1,0,0,1-1.1-1.1V43A0,0,0,0,1,137.62,43Z"/><path class="cls-10" d="M138.84,38.16H177a1.22,1.22,0,0,1,1.22,1.22V43a0,0,0,0,1,0,0H137.62a0,0,0,0,1,0,0V39.38A1.22,1.22,0,0,1,138.84,38.16Z"/><circle class="cls-3" cx="140.2" cy="40.58" r="0.69"/><circle class="cls-3" cx="142.31" cy="40.58" r="0.69"/><circle class="cls-3" cx="144.41" cy="40.58" r="0.69"/><path class="cls-11" d="M152.91,51l-1.67,5.22h-1.88l-.85-2.79-.88,2.79h-1.89L144.07,51h1.81l.91,3,1-3h1.62l.91,3,1-3Zm9,0-1.67,5.22h-1.89l-.84-2.79-.89,2.79h-1.89L153.05,51h1.82l.91,3,1-3h1.61l.91,3,1-3Zm9,0-1.67,5.22h-1.89l-.84-2.79-.89,2.79h-1.88L162,51h1.81l.91,3,1-3h1.62l.91,3,1-3Z" transform="translate(0.45 0)"/><path class="cls-3" d="M81.26,47.83l-3.55,8.4H74.93l-3.55-8.4h3.05l2,4.91,2-4.91Z" transform="translate(0.45 0)"/><path class="cls-3" d="M89.41,51c0,1.94-1.49,3.17-3.83,3.17H84.37v2.06H81.54v-8.4h4C87.92,47.83,89.41,49.06,89.41,51Zm-2.85,0c0-.61-.38-1-1.16-1h-1v2h1C86.18,52,86.56,51.61,86.56,51Z" transform="translate(0.45 0)"/><path class="cls-3" d="M98.13,47.83v8.4H95.81l-3.19-3.82v3.82H89.86v-8.4h2.32l3.2,3.82V47.83Z" transform="translate(0.45 0)"/><circle class="cls-2" cx="84.02" cy="75.87" r="5.08"/><polygon class="cls-3" points="81.31 74.21 82.37 73.15 84.02 74.81 85.67 73.15 86.73 74.21 85.08 75.87 86.73 77.52 85.67 78.58 84.02 76.93 82.37 78.58 81.31 77.52 82.96 75.87 81.31 74.21"/></svg>