<?xml version="1.0" encoding="utf-8"?>
<!-- Generator: Adobe Illustrator 23.0.6, SVG Export Plug-In . SVG Version: 6.00 Build 0)  -->
<svg version="1.1" id="Layer_1" xmlns="http://www.w3.org/2000/svg" xmlns:xlink="http://www.w3.org/1999/xlink" x="0px" y="0px"
	 viewBox="0 0 700 700" style="enable-background:new 0 0 700 700;" xml:space="preserve">
<style type="text/css">
	.st0{fill:#169FFE;}
</style>
<g>
	<path class="st0" d="M462,133.9c9.4,0,17.1,7.7,17.1,17.1v397.8c0,9.4-7.7,17.1-17.1,17.1H237.9c-9.4,0-17.1-7.7-17.1-17.1V151.1
		c0-9.4,7.7-17.1,17.1-17.1H462 M462,100H237.9c-28.1,0-51.1,22.9-51.1,51.1v397.8c0,28.1,22.9,51.1,51.1,51.1h224.3
		c28.1,0,51.1-22.9,51.1-51.1V151.1C513.3,122.9,490.3,100,462,100L462,100z"/>
	<path class="st0" d="M410.6,190.8c5.5,0,9.7,4.4,9.7,9.7V436c0,5.5-4.4,9.7-9.7,9.7H289.3c-5.5,0-9.7-4.4-9.7-9.7V200.7
		c0-5.5,4.4-9.7,9.7-9.7h121.3 M410.6,156.9H289.3c-24.2,0-43.8,19.6-43.8,43.8v235.4c0,24.2,19.6,43.8,43.8,43.8h121.3
		c24.2,0,43.8-19.6,43.8-43.8V200.7C454.5,176.5,434.8,156.9,410.6,156.9L410.6,156.9z"/>
	<ellipse class="st0" cx="350" cy="524.5" rx="27.2" ry="27.2"/>
</g>
</svg>
