<?xml version="1.0" encoding="utf-8"?>
<!-- Generator: Adobe Illustrator 23.0.6, SVG Export Plug-In . SVG Version: 6.00 Build 0)  -->
<svg version="1.1" id="Layer_1" xmlns="http://www.w3.org/2000/svg" xmlns:xlink="http://www.w3.org/1999/xlink" x="0px" y="0px"
	 viewBox="0 0 700 700" style="enable-background:new 0 0 700 700;" xml:space="preserve">
<style type="text/css">
	.st0{fill:#169FFE;}
</style>
<g>
	<g>
		<path class="st0" d="M528.6,137H171.4c-39.3,0-71.4,32.1-71.4,71.4v285.7c0,39.4,32.1,71.4,71.4,71.4h357.1
			c39.4,0,71.4-32.1,71.4-71.4V208.4C600,169.1,567.9,137,528.6,137z M171.4,172.7h357.1c19.7,0,35.7,16,35.7,35.7v35.7H135.7v-35.7
			C135.7,188.7,151.7,172.7,171.4,172.7z M528.6,529.8H171.4c-19.7,0-35.7-16-35.7-35.7V279.8h428.6v214.3
			C564.3,513.8,548.3,529.8,528.6,529.8z"/>
		<circle class="st0" cx="296.5" cy="208.4" r="17.9"/>
		<circle class="st0" cx="242.9" cy="208.4" r="17.9"/>
		<circle class="st0" cx="189.4" cy="208.4" r="17.9"/>
	</g>
	<path class="st0" d="M354.4,302.1c-1.4-0.2-3-0.3-4.4-0.3s-3,0.2-4.4,0.3C289.3,304.3,243.9,351,243.9,408S289,511.6,345.6,513.8
		c1.4,0.2,3,0.3,4.4,0.3s3-0.2,4.4-0.3c56.5-2.2,101.7-48.9,101.7-105.9C456.2,350.8,411,304.3,354.4,302.1z M425.1,393h-22.9
		c-0.6-13.3-2.5-31-7.5-47.1C410.3,357,421.3,373.7,425.1,393z M372.7,393h-45.2c2.1-35.1,11.4-61.7,22.7-61.7
		C361.3,331.3,370.6,357.9,372.7,393z M305.1,346.2c-4.8,16.2-6.7,33.7-7.5,47h-22.9C278.7,373.8,289.7,357.1,305.1,346.2z
		 M274.9,422.7h22.9c0.8,13.3,2.7,30.8,7.5,47C289.7,458.6,278.7,441.9,274.9,422.7z M327.3,422.7h45.2
		c-2.1,35.1-11.4,61.7-22.7,61.7C338.7,484.5,329.4,457.8,327.3,422.7z M394.9,469.7c4.9-16.2,6.8-33.8,7.5-47.1h22.9
		C421.3,442.1,410.3,458.7,394.9,469.7z"/>
</g>
</svg>
