<?xml version="1.0" encoding="utf-8"?>
<!-- Generator: Adobe Illustrator 23.0.6, SVG Export Plug-In . SVG Version: 6.00 Build 0)  -->
<svg version="1.1" id="Layer_1" xmlns="http://www.w3.org/2000/svg" xmlns:xlink="http://www.w3.org/1999/xlink" x="0px" y="0px"
	 viewBox="0 0 700 700" style="enable-background:new 0 0 700 700;" xml:space="preserve">
<style type="text/css">
	.st0{fill:#169FFE;}
</style>
<g>
	<g>
		<path class="st0" d="M449.3,172.7H158.2c-32.1,0-58.2,26.2-58.2,58.2v232.9c0,32.1,26.1,58.2,58.2,58.2h176.3
			c8.1,0,14.5-6.5,14.5-14.5l0,0c0-8.1-6.5-14.5-14.5-14.5H158.2c-16,0-29-12.9-29-29V289.1h365.4c7.1,0,12.9-5.8,12.9-12.9v-45.3
			C507.5,198.9,481.4,172.7,449.3,172.7z M478.3,259.9H129.2v-29c0-16,13-29,29-29h291.1c16,0,29,13,29,29L478.3,259.9L478.3,259.9z
			"/>
		<circle class="st0" cx="260.1" cy="230.9" r="14.5"/>
		<circle class="st0" cx="216.4" cy="230.9" r="14.5"/>
		<circle class="st0" cx="172.7" cy="230.9" r="14.5"/>
	</g>
	<path class="st0" d="M489.6,321.5c-60.8,0-110.1,49.3-110.1,110.1s49.3,110.1,110.1,110.1s110.1-49.3,110.1-110.1
		S550.4,321.5,489.6,321.5z M489.6,512.5c-44.7,0-80.9-36.2-80.9-80.9s36.2-80.9,80.9-80.9s80.9,36.2,80.9,80.9
		S534.3,512.5,489.6,512.5z"/>
	<path class="st0" d="M489.6,446.1L489.6,446.1c-8.1,0-14.5-6.5-14.5-14.5v-40.1c0-8.1,6.5-14.5,14.5-14.5l0,0
		c8.1,0,14.5,6.5,14.5,14.5v40.1C504.1,439.5,497.6,446.1,489.6,446.1z"/>
	<path class="st0" d="M478.3,431.6L478.3,431.6c0-8.1,6.5-14.5,14.5-14.5h32.3c8.1,0,14.5,6.5,14.5,14.5l0,0
		c0,8.1-6.5,14.5-14.5,14.5h-32.3C484.9,446.1,478.3,439.5,478.3,431.6z"/>
</g>
</svg>
