<?xml version="1.0" encoding="utf-8"?>
<!-- Generator: Adobe Illustrator 23.0.6, SVG Export Plug-In . SVG Version: 6.00 Build 0)  -->
<svg version="1.1" id="Layer_1" xmlns="http://www.w3.org/2000/svg" xmlns:xlink="http://www.w3.org/1999/xlink" x="0px" y="0px"
	 viewBox="0 0 700 700" style="enable-background:new 0 0 700 700;" xml:space="preserve">
<style type="text/css">
	.st0{fill:#169FFE;}
</style>
<g>
	<path class="st0" d="M349.9,158.8c9.5,0,19.2,0.9,28.9,3.2c52.4,11.4,93.1,56,100.6,109c3.7,26.5-0.6,52.1-11.4,74.5
		c-0.9,2.4-2.1,4.5-3.2,6.7l-106.4,184c-1.9,3.4-5.4,5-8.8,5c-3.4,0-6.9-1.7-8.8-5l-106-184c-1.1-2.4-2.4-4.5-3.2-6.7
		c-8.2-17-12.7-35.8-12.7-55.6C219.3,217.4,277.9,158.8,349.9,158.8 M349.9,100L349.9,100c-104.5,0-189.6,85.1-189.6,189.8
		c0,27.8,6,54.5,17.5,79.3c1.1,2.8,2.4,5.6,3.9,8.2c0.6,1.1,1.7,3.2,2.2,4.1l106,184c12.3,21.3,35.1,34.5,59.7,34.5
		c24.6,0,47.4-13.2,59.7-34.5l106.4-184c0.6-0.9,1.1-2.1,1.7-3.2c1.9-3.5,3.4-6.5,4.5-9.3c15.5-32.8,20.9-69.6,15.7-106.4
		c-11-78.2-69.8-141.8-146.5-158.4C377.7,101.5,363.7,100,349.9,100L349.9,100z"/>
	<path class="st0" d="M350.1,265.9c14.7,0,26.9,11.9,26.9,26.9c0,14.9-11.9,26.9-26.9,26.9s-26.9-11.9-26.9-26.9
		S335.3,265.9,350.1,265.9 M350.1,207.1c-47.2,0-85.6,38.4-85.6,85.6s38.4,85.6,85.6,85.6s85.6-38.4,85.6-85.6
		S397.3,207.1,350.1,207.1L350.1,207.1z"/>
</g>
</svg>
