<?xml version="1.0" encoding="utf-8"?>
<!-- Generator: Adobe Illustrator 23.0.6, SVG Export Plug-In . SVG Version: 6.00 Build 0)  -->
<svg version="1.1" id="Layer_1" xmlns="http://www.w3.org/2000/svg" xmlns:xlink="http://www.w3.org/1999/xlink" x="0px" y="0px"
	 viewBox="0 0 700 700" style="enable-background:new 0 0 700 700;" xml:space="preserve">
<style type="text/css">
	.st0{fill:#169FFE;}
</style>
<g>
	<g>
		<path class="st0" d="M564.2,171.3c-151.6,0-199.3-63.3-199.6-63.7c-3.4-4.7-8.8-7.6-14.5-7.6c-5.6,0.2-11.3,2.7-14.7,7.4
			c-0.5,0.7-48.2,63.8-199.8,63.8c-9.9,0-17.9,7.9-17.9,17.9v156.5c0,165.3,127,214.6,202.8,244.1c8.1,3.2,15.7,6.1,22.6,8.9
			c2.2,0.8,4.5,1.3,6.9,1.3c2.4,0,4.7-0.5,6.9-1.3c6.9-2.9,14.5-5.7,22.6-8.9c75.8-29.5,202.8-78.8,202.8-244.1V189.1
			C582.1,179.3,574.2,171.3,564.2,171.3z M546.4,345.6c0,140.8-104.1,181.3-180.1,210.7c-5.7,2.2-11.3,4.4-16.5,6.4
			c-5.2-2-10.8-4.2-16.5-6.4c-75.8-29.5-179.9-69.9-179.9-210.7V206.8c113.7-3.5,172-41.1,196.4-63.2
			c24.6,22.1,82.7,59.6,196.4,63.2L546.4,345.6L546.4,345.6z"/>
	</g>
	<g>
		<path class="st0" d="M306,303.2l-40.6,93.7H244l-40.4-93.7H227l28.5,66.9l28.8-66.9H306L306,303.2z"/>
		<path class="st0" d="M394.9,337.2c0,20.9-15.7,33.9-40.6,33.9h-18.9v25.8h-21.7v-93.7h40.6C379.2,303.2,394.9,316.1,394.9,337.2z
			 M373,337.2c0-10.3-6.7-16.3-19.9-16.3h-17.7v32.5h17.7C366.3,353.4,373,347.3,373,337.2z"/>
		<path class="st0" d="M496.3,303.2v93.7h-17.9L431.7,340v56.9h-21.4v-93.7h17.9l46.5,56.9v-56.9H496.3L496.3,303.2z"/>
	</g>
</g>
</svg>
