<?xml version="1.0" encoding="utf-8"?>
<!-- Generator: Adobe Illustrator 23.0.6, SVG Export Plug-In . SVG Version: 6.00 Build 0)  -->
<svg version="1.1" id="Layer_1" xmlns="http://www.w3.org/2000/svg" xmlns:xlink="http://www.w3.org/1999/xlink" x="0px" y="0px"
	 viewBox="0 0 700 700" style="enable-background:new 0 0 700 700;" xml:space="preserve">
<style type="text/css">
	.st0{fill:#169FFE;}
</style>
<g>
	<g>
		<g>
			<path class="st0" d="M493.8,304.5v30.2H524v-30.2H493.8z M368.5,455.9h-25.2c0.7,8.6,1.7,19.4,3.9,30.2H373
				C370.9,477.7,369.3,467.4,368.5,455.9z M463.6,455.9h-12.2c-2.2,11.5-7.4,22-15,30.2h27.2c1,0,2.2,0,3.4-0.2
				c5.6-10.1,9.3-21.4,10.5-33.4C473.2,454.7,468.5,455.9,463.6,455.9z M402.4,486.2h25.8c2.2-10.8,3.4-21.6,3.7-30.2h-25.2
				C406.3,467.4,404.8,477.7,402.4,486.2z M324.1,455.9h-25.5c1.5,11,5.1,21.1,10,30.2H339C331.5,477.9,326.3,467.4,324.1,455.9z
				 M463.6,122.8h-303c-33.4,0-60.6,27.1-60.6,60.6v242.3c0,33.4,27.2,60.6,60.6,60.6H206v-30.2h-45.4c-16.7,0-30.2-13.7-30.2-30.2
				v-182h393.8v-60.7C524,149.8,497,122.8,463.6,122.8z M130.2,213.6v-30.2c0-16.7,13.7-30.2,30.2-30.2h302.9
				c16.7,0,30.2,13.7,30.2,30.2v30.2C493.5,213.6,130.2,213.6,130.2,213.6z"/>
			<circle class="st0" cx="266.7" cy="183.2" r="15.2"/>
			<circle class="st0" cx="221.2" cy="183.2" r="15.2"/>
			<circle class="st0" cx="175.8" cy="183.2" r="15.2"/>
		</g>
	</g>
	<g>
		<g>
			<path class="st0" d="M539.2,213.6H236.3c-22.5,0-41.9,12.2-52.3,30.2c-5.2,8.9-8.1,19.3-8.1,30.2v242.3
				c0,33.4,27.2,60.6,60.6,60.6h302.9c33.4,0,60.6-27.2,60.6-60.6V274.1C599.8,240.6,572.6,213.6,539.2,213.6z M569.6,516.5
				c0,16.7-13.7,30.2-30.2,30.2H236.3c-16.7,0-30.2-13.7-30.2-30.2V334.7h363.6v181.8H569.6z M569.6,304.5H206v-30.2
				c0-16.7,13.7-30.2,30.2-30.2h302.9c16.7,0,30.2,13.7,30.2,30.2v30.2H569.6z"/>
			<circle class="st0" cx="342.3" cy="274.1" r="15.2"/>
			<circle class="st0" cx="296.9" cy="274.1" r="15.2"/>
			<circle class="st0" cx="251.5" cy="274.1" r="15.2"/>
		</g>
		<path class="st0" d="M391.6,353.4c-1.2-0.2-2.5-0.3-3.7-0.3s-2.5,0.2-3.7,0.3c-47.8,2-86.1,41.5-86.1,89.8c0,4.2,0.3,8.4,0.8,12.5
			c1.5,11,5.1,21.1,10,30.2c14.7,27,42.9,45.6,75.3,46.9c1.2,0,2.5,0.2,3.7,0.2s2.5-0.2,3.7-0.2c32.6-1.4,60.8-19.9,75.3-47.1
			c5.6-10.1,9.3-21.4,10.5-33.4c0.3-3,0.5-6.1,0.5-9.3C477.7,395,439.6,355.5,391.6,353.4z M451.4,430.8h-19.3
			c-0.7-11.3-2.2-26.2-6.4-40C438.7,400.2,448.4,414.2,451.4,430.8z M387.7,378.4c9.5,0,17.4,22.6,19.3,52.3h-38.5
			C370.3,400.9,378.3,378.4,387.7,378.4z M349.7,390.9c-4.1,13.8-5.6,28.5-6.4,39.9H324C327.1,414.4,336.7,400.4,349.7,390.9z
			 M339.1,486.2c-7.6-8.3-12.8-18.7-15-30.2h19.3c0.7,8.6,1.7,19.4,3.9,30.2c0.8,3.2,1.5,6.4,2.4,9.5
			C346,493.1,342.3,489.9,339.1,486.2z M387.7,508.1c-5.9,0-11.1-8.4-14.7-22c-2.2-8.4-3.7-18.7-4.6-30.2H407
			c-0.8,11.5-2.2,21.8-4.6,30.2C398.9,499.7,393.7,508.1,387.7,508.1z M425.7,495.8c0.8-3.2,1.9-6.4,2.5-9.5
			c2.2-10.8,3.4-21.6,3.7-30.2h19.3c-2.2,11.5-7.4,22-15,30.2C433.2,489.9,429.8,493.1,425.7,495.8z"/>
	</g>
</g>
</svg>
