<?xml version="1.0" encoding="utf-8"?>
<!-- Generator: Adobe Illustrator 23.0.6, SVG Export Plug-In . SVG Version: 6.00 Build 0)  -->
<svg version="1.1" id="Layer_1" xmlns="http://www.w3.org/2000/svg" xmlns:xlink="http://www.w3.org/1999/xlink" x="0px" y="0px"
	 viewBox="0 0 947.8 412.6" style="enable-background:new 0 0 947.8 412.6;" xml:space="preserve">
<style type="text/css">
	.st0{fill:#169FFE;}
</style>
<g>
	<g>
		<path class="st0" d="M639.9,7h-332c-36.6,0-66.4,29.7-66.4,66.4v265.7c0,36.6,29.7,66.4,66.4,66.4H640c36.6,0,66.4-29.7,66.4-66.4
			V73.4C706.5,36.8,676.5,7,639.9,7z M307.9,40.3H640c18.2,0,33.1,14.9,33.1,33.1v33.1H274.6V73.4C274.6,55.2,289.4,40.3,307.9,40.3
			z M639.9,372.4h-332c-18.2,0-33.1-14.9-33.1-33.1V139.9h398.6v199.3C673,357.5,658.3,372.4,639.9,372.4z"/>
		<path class="st0" d="M606.8,173.2H341c-9.3,0-16.7,7.4-16.7,16.7s7.4,16.7,16.7,16.7h265.7c9.3,0,16.7-7.4,16.7-16.7
			C623.2,180.7,615.9,173.2,606.8,173.2z"/>
		<path class="st0" d="M606.8,239.4H341c-9.3,0-16.7,7.4-16.7,16.7c0,9.3,7.4,16.7,16.7,16.7h265.7c9.3,0,16.7-7.4,16.7-16.7
			C623.2,247,615.9,239.4,606.8,239.4z"/>
		<path class="st0" d="M457.2,306H341c-9.3,0-16.7,7.4-16.7,16.7s7.4,16.7,16.7,16.7h116.2c9.3,0,16.7-7.4,16.7-16.7
			S466.5,306,457.2,306z"/>
		<circle class="st0" cx="424.1" cy="73.4" r="16.7"/>
		<circle class="st0" cx="374.2" cy="73.4" r="16.7"/>
		<circle class="st0" cx="324.2" cy="73.4" r="16.7"/>
	</g>
	<g>
		<path class="st0" d="M817.7,168.2c-3.2,3.2-7.4,4.6-11.7,4.6h-66.2v-33.1h59.5l8-8.2c-0.6-2.6-1.3-5.6-1.3-8.4c0-18.1,15-33,33-33
			c18.2,0,33.1,15.1,33.1,33.1S857,156.3,839,156.3c-3.2,0-5.8-0.4-8.4-1.3L817.7,168.2z"/>
		<path class="st0" d="M839,322.5c-18.2,0-33.1-15.1-33.1-33.1c0-3.2,0.4-5.8,1.3-8.4l-8-8.2h-59.5v-33.1H806
			c4.5,0,8.6,1.9,11.7,4.6l13,13c2.6-0.6,5.6-1.3,8.4-1.3c18.2,0,33.1,15.1,33.1,33.1C872.5,307.7,857.5,322.5,839,322.5z"/>
		<path class="st0" d="M938.7,206.3c0-18.2-15.1-33.1-33.1-33.1c-12.3,0-22.9,6.9-28.6,16.7H739.6V223H877
			c5.8,9.9,16.2,16.7,28.6,16.7C923.8,239.4,938.7,224.7,938.7,206.3z"/>
	</g>
	<g>
		<path class="st0" d="M130.1,168.2c3.2,3.2,7.4,4.6,11.7,4.6H208v-33.1h-59.5l-8-8.2c0.6-2.6,1.3-5.6,1.3-8.4
			c0-18.2-15.1-33.1-33.1-33.1s-33.1,15.1-33.1,33.1s15.1,33.1,33.1,33.1c3.2,0,5.8-0.4,8.4-1.3L130.1,168.2z"/>
		<path class="st0" d="M108.7,322.5c18.2,0,33.1-15.1,33.1-33.1c0-3.2-0.4-5.8-1.3-8.4l8-8.2H208v-33.1h-66.2
			c-4.5,0-8.6,1.9-11.7,4.6l-13,13c-2.6-0.6-5.6-1.3-8.4-1.3c-18.2,0-33.1,15.1-33.1,33.1C75.3,307.7,90.3,322.5,108.7,322.5z"/>
		<path class="st0" d="M42.2,239.4c12.3,0,22.9-6.9,28.6-16.7h137.4v-33.1H70.8c-5.8-9.9-16.2-16.7-28.6-16.7
			C23.9,173,9.1,188.1,9.1,206.1C9.1,224.7,23.9,239.4,42.2,239.4z"/>
	</g>
</g>
</svg>
