<?xml version="1.0" encoding="utf-8"?>
<!-- Generator: Adobe Illustrator 23.0.6, SVG Export Plug-In . SVG Version: 6.00 Build 0)  -->
<svg version="1.1" id="Layer_1" xmlns="http://www.w3.org/2000/svg" xmlns:xlink="http://www.w3.org/1999/xlink" x="0px" y="0px"
	 viewBox="0 0 700 700" style="enable-background:new 0 0 700 700;" xml:space="preserve">
<style type="text/css">
	.st0{fill:#169FFE;}
</style>
<g>
	<path class="st0" d="M542.5,212.9c10.5,0,19.1,8.5,19.1,19.1v231c0,10.5-8.5,19.1-19.1,19.1h-385c-10.5,0-19.1-8.5-19.1-19.1V232
		c0-10.5,8.5-19.1,19.1-19.1H542.5 M542.5,174.4h-385c-31.7,0-57.5,25.8-57.5,57.6v231c0,31.7,25.8,57.5,57.5,57.5h384.8
		c31.7,0,57.5-25.8,57.5-57.5V232C600,200.2,574.2,174.4,542.5,174.4L542.5,174.4z"/>
	<g>
		<path class="st0" d="M270.9,376.1h-46.5l-8.9,21.4h-23.8l44.6-100.2h23l44.8,100.2h-24.4L270.9,376.1z M263.6,358.6l-15.9-38.4
			l-15.9,38.4H263.6z"/>
		<path class="st0" d="M314.6,297.5h45.5c32.7,0,55.3,19.7,55.3,50s-22.4,50-55.3,50h-45.5V297.5z M359,378.5
			c19.8,0,32.9-11.9,32.9-31s-13-31-32.9-31h-21.1v62.1H359V378.5z"/>
		<path class="st0" d="M425,387.8l7.8-17.4c8.5,6.1,21,10.5,33,10.5c13.7,0,19.3-4.5,19.3-10.8c0-18.7-58.3-5.8-58.3-43.1
			c0-17,13.7-31.2,42.2-31.2c12.6,0,25.5,3,34.7,8.9l-7.1,17.6c-9.4-5.2-18.9-7.9-27.8-7.9c-13.7,0-19,5.1-19,11.5
			c0,18.4,58.3,5.7,58.3,42.5c0,16.7-13.9,31-42.5,31C449.9,399.2,433.8,394.6,425,387.8z"/>
	</g>
</g>
</svg>
