<?xml version="1.0" encoding="utf-8"?>
<!-- Generator: Adobe Illustrator 23.0.6, SVG Export Plug-In . SVG Version: 6.00 Build 0)  -->
<svg version="1.1" id="Layer_1" xmlns="http://www.w3.org/2000/svg" xmlns:xlink="http://www.w3.org/1999/xlink" x="0px" y="0px"
	 viewBox="0 0 700 700" style="enable-background:new 0 0 700 700;" xml:space="preserve">
<style type="text/css">
	.st0{fill:#169FFE;}
</style>
<g>
	<g>
		<path class="st0" d="M350,135.6c118.1,0,214.4,96.1,214.4,214.4S468.1,564.4,350,564.4S135.6,468.1,135.6,350
			S231.9,135.6,350,135.6 M350,100c-137.8,0-250,112.2-250,250s112.2,250,250,250s250-112.2,250-250S487.8,100,350,100L350,100z"/>
	</g>
	<g>
		<path class="st0" d="M350,135.6c57.8,0,105,96.1,105,214.4s-47.2,214.4-105,214.4S245,468.3,245,350S292.2,135.6,350,135.6
			 M350,100c-80.1,0-140.6,107.4-140.6,250S269.9,600,350,600s140.6-107.4,140.6-250S430.1,100,350,100L350,100z"/>
	</g>
	<g>
		<rect x="117.7" y="270.2" class="st0" width="464.4" height="35.6"/>
		<rect x="117.7" y="394.1" class="st0" width="464.4" height="35.6"/>
	</g>
	<rect x="332.1" y="107.8" class="st0" width="35.6" height="484.6"/>
</g>
</svg>
