<?xml version="1.0" encoding="utf-8"?>
<!-- Generator: Adobe Illustrator 23.0.6, SVG Export Plug-In . SVG Version: 6.00 Build 0)  -->
<svg version="1.1" id="Layer_1" xmlns="http://www.w3.org/2000/svg" xmlns:xlink="http://www.w3.org/1999/xlink" x="0px" y="0px"
	 viewBox="0 0 700 700" style="enable-background:new 0 0 700 700;" xml:space="preserve">
<style type="text/css">
	.st0{fill:#169FFE;}
</style>
<g>
	<path class="st0" d="M528.3,136H171.7c-39.4,0-71.4,32-71.4,71.4v285.4c0,39.4,32,71.4,71.4,71.4h356.7c39.4,0,71.4-32,71.4-71.4
		V207.4C599.6,168,567.6,136,528.3,136z M171.7,171.7h356.7c19.7,0,35.7,16,35.7,35.7v35.7H136v-35.7
		C136,187.7,152,171.7,171.7,171.7z M528.3,528.3H171.7c-19.7,0-35.7-16-35.7-35.7v-214h428v214C564,512.3,547.9,528.3,528.3,528.3z
		"/>
	<path class="st0" d="M421.4,403.4c-23.2,0-42.9,15-50.2,35.7h-42.3c-7.3-20.7-27-35.7-50.2-35.7c-29.5,0-53.5,23.9-53.5,53.5
		c0,29.5,23.9,53.5,53.5,53.5c23.2,0,42.9-15,50.2-35.7h42.3c7.3,20.7,27,35.7,50.2,35.7c29.5,0,53.5-23.9,53.5-53.5
		C474.8,427.5,450.9,403.4,421.4,403.4z M278.6,474.8c-9.8,0-17.8-7.9-17.8-17.8s7.9-17.8,17.8-17.8c9.8,0,17.8,7.9,17.8,17.8
		S288.4,474.8,278.6,474.8z M421.4,474.8c-9.8,0-17.8-7.9-17.8-17.8s7.9-17.8,17.8-17.8c9.8,0,17.8,7.9,17.8,17.8
		S431.2,474.8,421.4,474.8z"/>
	<path class="st0" d="M260.8,385.7c38.5,0,139.4,0,178.3,0c9.8,0,17.8-7.9,17.8-17.8c0-9.8-7.9-17.8-17.8-17.8h-22.8l-13.8-41.3
		c-2.5-7.3-9.3-12.2-16.9-12.2h-71.4c-7.6,0-14.5,4.8-16.9,12.2l-13.8,41.3h-22.8c-9.8,0-17.8,7.9-17.8,17.8
		C242.9,377.7,251,385.7,260.8,385.7z M327.2,332.2h45.7l5.9,17.8h-57.6L327.2,332.2z"/>
	<circle class="st0" cx="296.5" cy="207.4" r="17.8"/>
	<circle class="st0" cx="242.9" cy="207.4" r="17.8"/>
	<circle class="st0" cx="189.5" cy="207.4" r="17.8"/>
</g>
</svg>
