<?xml version="1.0" encoding="utf-8"?>
<!-- Generator: Adobe Illustrator 23.0.6, SVG Export Plug-In . SVG Version: 6.00 Build 0)  -->
<svg version="1.1" id="Layer_1" xmlns="http://www.w3.org/2000/svg" xmlns:xlink="http://www.w3.org/1999/xlink" x="0px" y="0px"
	 viewBox="0 0 700 700" style="enable-background:new 0 0 700 700;" xml:space="preserve">
<style type="text/css">
	.st0{fill:#169FFE;}
</style>
<g>
	<g>
		<path class="st0" d="M464.8,464.8H360.4v-73c0-5.8-4.6-10.4-10.4-10.4s-10.4,4.6-10.4,10.4v73H235.3c-17.3,0-31.3,14-31.3,31.3
			V517c0,17.3,14,31.3,31.3,31.3h229.5c17.3,0,31.3-14,31.3-31.3v-21C496.2,478.9,482,464.8,464.8,464.8z M475.3,517
			c0,5.8-4.6,10.4-10.4,10.4H235.3c-5.8,0-10.4-4.6-10.4-10.4v-20.9c0-5.8,4.6-10.4,10.4-10.4h229.5c5.8,0,10.4,4.6,10.4,10.4V517
			H475.3z"/>
		<path class="st0" d="M443.9,496.2h-10.4c-5.8,0-10.4,4.6-10.4,10.4c0,5.8,4.6,10.4,10.4,10.4h10.4c5.8,0,10.4-4.6,10.4-10.4
			S449.7,496.2,443.9,496.2z"/>
		<path class="st0" d="M402.1,496.2h-10.4c-5.8,0-10.4,4.6-10.4,10.4c0,5.8,4.6,10.4,10.4,10.4h10.4c5.8,0,10.4-4.6,10.4-10.4
			S407.9,496.2,402.1,496.2z"/>
		<path class="st0" d="M350,370.9c11.5,0,20.9,9.4,20.9,20.9c0,5.8,4.6,10.4,10.4,10.4s10.4-4.6,10.4-10.4c0-23-18.8-41.8-41.8-41.8
			c-5.8,0-10.4,4.6-10.4,10.4C339.6,366.3,344.3,370.9,350,370.9z"/>
		<path class="st0" d="M350,339.6c28.8,0,52.1,23.4,52.1,52.1c0,5.8,4.6,10.4,10.4,10.4s10.4-4.6,10.4-10.4c0-40.3-32.8-73-73-73
			c-5.8,0-10.4,4.6-10.4,10.4C339.6,334.9,344.3,339.6,350,339.6z"/>
		<path class="st0" d="M350,308.3c46,0,83.5,37.5,83.5,83.5c0,5.8,4.6,10.4,10.4,10.4s10.4-4.6,10.4-10.4
			c0-57.5-46.9-104.4-104.4-104.4c-5.8,0-10.4,4.6-10.4,10.4C339.6,303.6,344.3,308.3,350,308.3z"/>
		<path class="st0" d="M287.4,496.2h-31.3c-5.8,0-10.4,4.6-10.4,10.4c0,5.8,4.6,10.4,10.4,10.4h31.3c5.8,0,10.4-4.6,10.4-10.4
			S293.1,496.2,287.4,496.2z"/>
	</g>
	<path class="st0" d="M582,294.8c-11.4-16.8-27.3-29.4-45.8-36.9c-3.4-59-52.4-106.1-112.4-106.1c-35.4-0.1-67.8,16.2-88.8,43.4
		c-11.9-5.4-24.9-8.3-38-8.3c-31.9,0-60.8,16.3-77.3,42.6c-2.5-0.3-4.9-0.3-7.4-0.3c-65.5,0-118.3,56.5-112,123.4
		c5.6,58.4,56.8,101.9,115.3,101.9h92.5c5.8,0,10.4-4.6,10.4-10.4l0,0c0-5.8-4.6-10.4-10.4-10.4h-92.8c-48.9,0-91.4-37-94.5-85.8
		c-3.4-53.4,38.9-97.6,91.4-97.6c6.6,0,13,0.8,19.3,2c10.4-25.9,35.8-44.3,65.4-44.3c16.9,0,32.5,6,44.6,16
		c14.9-30.4,46.3-51.3,82.3-51.3c50.8,0,91.8,41,91.8,91.6c0,3-0.3,6-0.4,9c20.5,4.4,38.1,16.6,49.6,33.4
		c8.8,12.6,14,27.6,14.3,44.1c1,45.5-38.6,82.8-84.3,82.8H391.6c-5.8,0-10.4,4.6-10.4,10.4l0,0c0,5.8,4.6,10.4,10.4,10.4h103.1
		c51.8,0,97.6-37.1,104.3-88.4C602.5,340.4,596.3,315.4,582,294.8z"/>
</g>
</svg>
