<?xml version="1.0" encoding="utf-8"?>
<!-- Generator: Adobe Illustrator 23.0.6, SVG Export Plug-In . SVG Version: 6.00 Build 0)  -->
<svg version="1.1" id="Layer_1" xmlns="http://www.w3.org/2000/svg" xmlns:xlink="http://www.w3.org/1999/xlink" x="0px" y="0px"
	 viewBox="0 0 700 700" style="enable-background:new 0 0 700 700;" xml:space="preserve">
<style type="text/css">
	.st0{fill:#169FFE;}
</style>
<g>
	<path class="st0" d="M296.6,136.1c-108.5,0-196.6,88.3-196.6,196.6c0,108.6,88.1,196.6,196.6,196.6c38.2,0,73.9-11,104-29.9
		l-34.3-59.1c-0.4-0.6-1.3-2.6-1.7-3.3c-1.2-2.2-2.2-4.3-3.2-6.5c-8.1-17.1-12.1-36.1-12.1-56.1c0-6.5,0.4-13,1.6-19.1
		c-4.8-2-9.7-2.9-14.9-2.9h-78.7v-59c21.7,0,39.3-17.5,39.3-39.3v-19.7h19.7c21.7,0,39.3-17.5,39.3-39.3V187
		c31.1,12.6,57.3,35,74.8,63.3c12.4-5.5,25.6-9.1,39.5-10.4C436.6,178.2,371.4,136.1,296.6,136.1z M277,450.7v38.2
		C199.5,479,139.3,413,139.3,332.7c0-17.5,2.9-34.6,8.4-50.3l30.8,30.7l39.3,39.3v39.3L277,450.7z"/>
	<g>
		<path class="st0" d="M484.5,294.5c5.8,0,11.7,0.6,17.6,1.9c32,6.9,56.8,34.1,61.3,66.5c2.3,16.2-0.3,31.7-6.9,45.4
			c-0.6,1.4-1.3,2.7-2,4.2l-64.8,112.2c-1.2,2-3.3,3-5.3,3s-4.2-1-5.3-3l-64.6-112.2c-0.7-1.4-1.4-2.7-2-4.2
			c-5.1-10.4-7.7-21.8-7.7-34C404.8,330.3,440.5,294.5,484.5,294.5 M484.5,258.7L484.5,258.7c-63.8,0-115.7,51.9-115.7,115.8
			c0,16.9,3.6,33.3,10.7,48.4c0.7,1.7,1.6,3.3,2.5,5.1c0.3,0.6,1,1.9,1.3,2.5l64.6,112.2c7.5,13,21.4,21.1,36.4,21.1
			s28.9-8.1,36.4-21l64.8-112.2c0.3-0.6,0.7-1.3,1-1.9c1.2-2.2,2-3.9,2.7-5.6c9.4-20.1,12.7-42.5,9.5-64.9
			c-6.7-47.7-42.7-86.5-89.4-96.6C501.4,259.6,492.8,258.7,484.5,258.7L484.5,258.7z"/>
		<path class="st0" d="M484.6,359.9c9.1,0,16.3,7.4,16.3,16.3c0,9.1-7.4,16.3-16.3,16.3c-9.1,0-16.3-7.4-16.3-16.3
			C468.3,367.1,475.5,359.9,484.6,359.9 M484.6,323.9c-28.8,0-52.2,23.4-52.2,52.2c0,28.8,23.4,52.2,52.2,52.2s52.2-23.4,52.2-52.2
			S513.4,323.9,484.6,323.9L484.6,323.9z"/>
	</g>
</g>
</svg>
