<?xml version="1.0" encoding="utf-8"?>
<!-- Generator: Adobe Illustrator 23.0.6, SVG Export Plug-In . SVG Version: 6.00 Build 0)  -->
<svg version="1.1" id="Layer_1" xmlns="http://www.w3.org/2000/svg" xmlns:xlink="http://www.w3.org/1999/xlink" x="0px" y="0px"
	 viewBox="0 0 700 700" style="enable-background:new 0 0 700 700;" xml:space="preserve">
<style type="text/css">
	.st0{fill:#169FFE;}
</style>
<g>
	<g>
		<path class="st0" d="M465.6,157.9H161c-33.7,0-61,27.4-61,60.9v243.8c0,33.7,27.3,60.9,60.9,60.9h184.4c8.3,0,15.2-6.8,15.2-15.2
			l0,0c0-8.3-6.8-15.2-15.2-15.2H161c-16.7,0-30.5-13.5-30.5-30.5V279.8H513c7.4,0,13.5-6.1,13.5-13.5v-47.4
			C526.5,185.3,499.4,157.9,465.6,157.9z M496,249.3H130.5v-30.5c0-16.7,13.6-30.5,30.5-30.5h304.6c16.7,0,30.5,13.6,30.5,30.5v30.5
			H496z"/>
		<circle class="st0" cx="267.6" cy="218.8" r="15.2"/>
		<circle class="st0" cx="221.9" cy="218.8" r="15.2"/>
		<circle class="st0" cx="176.2" cy="218.8" r="15.2"/>
	</g>
	<g>
		<path class="st0" d="M510.4,333.6c4.5,0,9,0.5,13.6,1.5c24.8,5.3,44,26.4,47.6,51.5c1.7,12.6-0.3,24.5-5.3,35.1
			c-0.4,1.1-0.9,2.1-1.6,3.2l-50.2,86.9c-0.9,1.6-2.5,2.4-4.1,2.4s-3.2-0.8-4.1-2.4l-50.1-86.9c-0.5-1.1-1.1-2.1-1.6-3.2
			c-3.8-8.1-6-17-6-26.2C448.6,361.3,476.3,333.6,510.4,333.6 M510.4,305.7L510.4,305.7c-49.4,0-89.6,40.3-89.6,89.7
			c0,13.1,2.8,25.7,8.3,37.5c0.5,1.3,1.2,2.6,1.9,4c0.3,0.5,0.8,1.5,1.1,2l50.1,86.9c5.8,10.1,16.6,16.3,28.2,16.3
			c11.7,0,22.4-6.2,28.2-16.3l50.2-86.9c0.3-0.5,0.5-0.9,0.8-1.5c0.9-1.7,1.6-3,2.1-4.4c7.3-15.5,9.8-32.9,7.4-50.2
			c-5.2-37-33-67-69.3-74.9C523.5,306.4,516.8,305.7,510.4,305.7L510.4,305.7z"/>
		<path class="st0" d="M510.4,384.2c7,0,12.7,5.7,12.7,12.7s-5.7,12.7-12.7,12.7c-7,0-12.7-5.7-12.7-12.7
			C497.6,389.9,503.5,384.2,510.4,384.2 M510.4,356.4c-22.4,0-40.5,18.2-40.5,40.5s18.2,40.5,40.5,40.5c22.3,0,40.5-18.2,40.5-40.5
			S532.7,356.4,510.4,356.4L510.4,356.4z"/>
	</g>
</g>
</svg>
