<?xml version="1.0" encoding="utf-8"?>
<!-- Generator: Adobe Illustrator 22.0.1, SVG Export Plug-In . SVG Version: 6.00 Build 0)  -->
<svg version="1.1" id="a" xmlns="http://www.w3.org/2000/svg" xmlns:xlink="http://www.w3.org/1999/xlink" x="0px" y="0px"
	 viewBox="0 0 1080.8 745.4" enable-background="new 0 0 1080.8 745.4" xml:space="preserve">
<g>
	<g>
		<path fill="#64C4FF" d="M211.9,463.5l-97.1,58.8l76.7,46.4c15.2,9.2,34.3,9.2,49.5,0l72.3-43.8L211.9,463.5z"/>
		<polygon fill="#FFFFFF" points="217.3,489.2 158.2,524.9 168.7,531.1 227.7,495.3 		"/>
		<polygon fill="#FFFFFF" points="241.7,504 182.6,539.7 193.1,545.9 252.1,510.1 		"/>
		<path fill="#1A9EFE" d="M241,568.6l-1.3-0.3c-9.5-2.2-18.2-7.1-25.1-14.1l0,0l-23.2,14.4c0,0,10.5,6.9,24.8,6.9
			C230.5,575.5,241,568.6,241,568.6z"/>
	</g>
	<g>
		<path fill="#C5E7FF" d="M205.6,291L15.2,407C6.8,412.1,0,409.4,0,401l0-139.1c0-8.4,6.8-19.4,15.2-24.5l190.4-116
			c8.4-5.1,15.2-2.5,15.2,6v139.1C220.9,275,214,285.9,205.6,291z"/>
		<g>
			<polygon fill="#FFFFFF" points="23.9,280.4 23.9,378.9 107,328.6 107,230 			"/>
		</g>
		<g>
			<polygon fill="#FFFFFF" points="123.4,265 123.4,319.2 206.5,268.9 206.5,214.7 			"/>
		</g>
		<path fill="#75B5FF" d="M15.2,237.4l190.4-116c8.4-5.1,15.2-2.5,15.2,6v13.4L0,274.5l0-12.6C0,253.5,6.8,242.5,15.2,237.4z"/>
		<g>
			<g>
				<g>
					<path fill="#FFFFFF" d="M18.9,244L18.9,244c-2.8,1.7-5,5.8-5,9.2l0,0c0,3.4,2.3,4.8,5,3.1h0c2.8-1.7,5-5.8,5-9.2v0
						C23.9,243.6,21.7,242.3,18.9,244z"/>
				</g>
				<g>
					<path fill="#FFFFFF" d="M31.3,236.2L31.3,236.2c-2.8,1.7-5,5.8-5,9.2v0c0,3.4,2.3,4.8,5,3.1h0c2.8-1.7,5-5.8,5-9.2v0
						C36.4,235.9,34.1,234.5,31.3,236.2z"/>
				</g>
				<g>
					<path fill="#FFFFFF" d="M43.8,228.5L43.8,228.5c-2.8,1.7-5,5.8-5,9.2v0c0,3.4,2.3,4.8,5,3.1h0c2.8-1.7,5-5.8,5-9.2l0,0
						C48.8,228.2,46.5,226.8,43.8,228.5z"/>
				</g>
			</g>
		</g>
	</g>
	<g>
		<path fill="#C5E7FF" d="M640.2,148.8l-151.3,92.1c-6.7,4.1-12.1,1.9-12.1-4.7V125.6c0-6.7,5.4-15.4,12.1-19.5l151.3-92.1
			c6.7-4.1,12.1-1.9,12.1,4.7v110.5C652.3,136,646.9,144.7,640.2,148.8z"/>
		<g>
			<polygon fill="#FFFFFF" points="549.2,108.1 549.2,151.8 637.8,98.2 637.8,54.4 			"/>
		</g>
		<g>
			<polygon fill="#FFFFFF" points="590.4,141.8 590.4,165.2 637.8,136.5 637.8,113 			"/>
		</g>
		<path fill="#75B5FF" d="M488.9,106.2l151.3-92.1c6.7-4.1,12.1-1.9,12.1,4.7v10.6L476.8,135.7v-10
			C476.8,119,482.3,110.3,488.9,106.2z"/>
	</g>
	<g>
		<g>
			<g>
				<path fill="#75B5FF" d="M272.5,455.9v-14.8h3.8c0.4-0.3,0.8-0.6,1.3-0.9l105.4-63.8c6.2-3.7,15.5-4.2,20.8-1l88.5,53.6h4.5v15.3
					h0c-0.2,2.3-2,4.7-5.1,6.7l-105.4,63.8c-6.2,3.7-15.5,4.2-20.8,1L276,461.6C273.5,460.1,272.3,458,272.5,455.9z"/>
				<linearGradient id="SVGID_1_" gradientUnits="userSpaceOnUse" x1="413.4566" y1="468.6827" x2="346.6749" y2="411.2361">
					<stop  offset="0" style="stop-color:#C5E7FF"/>
					<stop  offset="1" style="stop-color:#C5E7FF;stop-opacity:0"/>
				</linearGradient>
				<path fill="url(#SVGID_1_)" d="M272.5,455.9v-14.8h3.8c0.4-0.3,0.8-0.6,1.3-0.9l105.4-63.8c6.2-3.7,15.5-4.2,20.8-1l88.5,53.6
					h4.5v15.3h0c-0.2,2.3-2,4.7-5.1,6.7l-105.4,63.8c-6.2,3.7-15.5,4.2-20.8,1L276,461.6C273.5,460.1,272.3,458,272.5,455.9z"/>
			</g>
			<path fill="#D6F1FF" d="M491.6,436.2L386.2,500c-6.2,3.7-15.5,4.2-20.8,1L276,446.8c-5.3-3.2-4.6-8.8,1.6-12.6l105.4-63.8
				c6.2-3.7,15.5-4.2,20.8-1l89.4,54.1C498.6,426.9,497.8,432.5,491.6,436.2z"/>
			<linearGradient id="SVGID_2_" gradientUnits="userSpaceOnUse" x1="369.3616" y1="411.3579" x2="391.9043" y2="446.5807">
				<stop  offset="0" style="stop-color:#ADCEFD"/>
				<stop  offset="1" style="stop-color:#ADCEFD;stop-opacity:0"/>
			</linearGradient>
			<path fill="url(#SVGID_2_)" d="M491.6,436.2L386.2,500c-6.2,3.7-15.5,4.2-20.8,1L276,446.8c-5.3-3.2-4.6-8.8,1.6-12.6l105.4-63.8
				c6.2-3.7,15.5-4.2,20.8-1l89.4,54.1C498.6,426.9,497.8,432.5,491.6,436.2z"/>
		</g>
		<path fill="#D6F1FF" d="M559.3,253.9L520.9,24.1l0,0l10.4-10.7l-18-10.9c-0.5-0.4-1.1-0.7-1.7-1.1l0,0l0,0
			C506.7-1,499.9-0.4,492.7,4L169.9,200.2c-12.8,7.8-21.8,24.5-20,37.2l40.3,240.9c0.7,5.2,3.1,9,6.6,11.1l0,0l18.5,11.3l7.1-11.9
			l-3.1-3.2l320-194.5C552.1,283.4,561.1,266.7,559.3,253.9z"/>
		<linearGradient id="SVGID_3_" gradientUnits="userSpaceOnUse" x1="397.0954" y1="481.1408" x2="360.2167" y2="248.9725">
			<stop  offset="0" style="stop-color:#ADCEFD"/>
			<stop  offset="1" style="stop-color:#ADCEFD;stop-opacity:0"/>
		</linearGradient>
		<path fill="url(#SVGID_3_)" d="M559.3,253.9L520.9,24.1l0,0l10.4-10.7l-18-10.9c-0.5-0.4-1.1-0.7-1.7-1.1l0,0l0,0
			C506.7-1,499.9-0.4,492.7,4L169.9,200.2c-12.8,7.8-21.8,24.5-20,37.2l40.3,240.9c0.7,5.2,3.1,9,6.6,11.1l0,0l18.5,11.3l7.1-11.9
			l-3.1-3.2l320-194.5C552.1,283.4,561.1,266.7,559.3,253.9z"/>
		<path fill="#ADCEFD" d="M557.9,302.5L235,498.7c-12.8,7.8-24.6,3.7-26.3-9l-40.3-240.9c-1.7-12.8,7.2-29.4,20-37.2L511.3,15.3
			c12.8-7.8,24.6-3.7,26.3,9l40.3,240.9C579.7,278,570.7,294.7,557.9,302.5z"/>
		<path fill="#C5E7FF" d="M577.9,265.2l-5.9-35.2L202.7,453.7l6,35.9c1.7,12.8,13.5,16.8,26.3,9l322.9-196.2
			C570.7,294.7,579.7,278,577.9,265.2z"/>
		<path fill="#ADCEFD" d="M403.8,351.7L403.8,351.7c-6.5,4-10.9,12.8-9.7,19.9l0,0c1.2,7,7.4,9.5,14,5.5l0,0
			c6.5-4,10.9-12.8,9.7-19.9v0C416.6,350.2,410.4,347.7,403.8,351.7z"/>
		<polygon fill="#1A9EFE" points="554.9,221.8 542.6,229.2 447.4,286.9 425.8,300 345.3,348.7 314.3,367.5 215.2,427.5 196.1,313.3 
			190.1,277.5 183.6,239 230.6,210.4 252.1,197.3 347.1,139.6 386.2,115.8 421.6,94.3 439.9,83.2 523.2,32.5 539.3,128.8 
			542.9,149.9 542.9,149.9 549.7,190.8 		"/>
		<g>
			
				<ellipse transform="matrix(0.3496 -0.9369 0.9369 0.3496 29.9247 496.6635)" fill="#FFFFFF" cx="372.7" cy="226.8" rx="97.2" ry="65.8"/>
			
				<ellipse transform="matrix(0.3496 -0.9369 0.9369 0.3496 29.9247 496.6635)" fill="#FFC12E" cx="372.7" cy="226.8" rx="78.1" ry="52.9"/>
			<path fill="#FFFFFF" d="M395.4,203.2L395.4,203.2l-1.4-8.4c-2.6-15.4-14.3-23.2-27.1-17c-14.7,7.1-24.5,28.3-21.5,45.5l1.6,9.3
				c-3,1.8-4.9,6.3-4.3,9.9l6.4,37.7c0.6,3.7,3.6,5.2,6.6,3.3l48.4-29.4c3-1.8,4.9-6.3,4.3-9.9l-6.4-37.7
				C401.3,202.9,398.4,201.4,395.4,203.2z M379,242.1l1.2,6.8c0.4,2.3-0.8,5.1-2.7,6.2l0,0c-1.9,1.1-3.7,0.2-4.1-2.1l-1.2-6.8
				c-2.3-0.2-4.2-2-4.7-5.1c-0.8-4.6,1.6-10.2,5.4-12.5c3.8-2.3,7.5-0.4,8.3,4.2C381.8,235.8,380.8,239.4,379,242.1z M385.8,209
				l-29.3,17.8l-1.6-9.3c-1.7-9.9,3.5-21.9,11.6-26.8c8.1-4.9,16-0.9,17.7,9L385.8,209z"/>
		</g>
		<polygon fill="#D6F1FF" points="548.2,216.7 543,187.2 455.9,240.2 461,269.5 		"/>
		<polygon fill="#D6F1FF" points="285.7,218.5 280.6,188.9 193.5,242 198.5,271.2 		"/>
		<linearGradient id="SVGID_4_" gradientUnits="userSpaceOnUse" x1="58.2561" y1="152.9008" x2="483.1273" y2="390.2353">
			<stop  offset="0" style="stop-color:#FFFFFF"/>
			<stop  offset="1" style="stop-color:#FFFFFF;stop-opacity:0"/>
		</linearGradient>
		<polygon fill="url(#SVGID_4_)" points="447.4,286.9 425.8,300 345.3,348.7 314.3,367.5 196.1,313.3 190.1,277.5 183.6,239 
			230.6,210.4 252.1,197.3 		"/>
		<linearGradient id="SVGID_5_" gradientUnits="userSpaceOnUse" x1="86.9891" y1="-55.2439" x2="585.9615" y2="223.4837">
			<stop  offset="0" style="stop-color:#FFFFFF"/>
			<stop  offset="1" style="stop-color:#FFFFFF;stop-opacity:0"/>
		</linearGradient>
		<polygon fill="url(#SVGID_5_)" points="554.9,221.8 542.6,229.2 347.1,139.6 386.2,115.8 421.6,94.3 542.9,149.9 542.9,149.9 
			549.7,190.8 		"/>
	</g>
	<g>
		<g>
			<g>
				<path fill="#75B5FF" d="M315.9,591.8v-16.3h4.2c0.4-0.3,0.9-0.7,1.4-1l358.7-216.1c6.8-4.1,17-4.6,22.8-1.1l97.1,58.8h4.9v16.8
					h0c-0.2,2.6-2.2,5.2-5.6,7.3L440.7,656.4c-6.8,4.1-17,4.6-22.8,1.1l-98.1-59.4C317,596.4,315.7,594.1,315.9,591.8z"/>
				<linearGradient id="SVGID_6_" gradientUnits="userSpaceOnUse" x1="606.9731" y1="545.5679" x2="499.4152" y2="453.045">
					<stop  offset="0" style="stop-color:#C5E7FF"/>
					<stop  offset="1" style="stop-color:#C5E7FF;stop-opacity:0"/>
				</linearGradient>
				<path fill="url(#SVGID_6_)" d="M315.9,591.8v-16.3h4.2c0.4-0.3,0.9-0.7,1.4-1l358.7-216.1c6.8-4.1,17-4.6,22.8-1.1l97.1,58.8
					h4.9v16.8h0c-0.2,2.6-2.2,5.2-5.6,7.3L440.7,656.4c-6.8,4.1-17,4.6-22.8,1.1l-98.1-59.4C317,596.4,315.7,594.1,315.9,591.8z"/>
			</g>
			<path fill="#D6F1FF" d="M799.4,424.1L440.7,640.2c-6.8,4.1-17,4.6-22.8,1.1l-98.1-59.4c-5.8-3.5-5-9.7,1.8-13.8L680.3,352
				c6.8-4.1,17-4.6,22.8-1.1l98.1,59.4C807,413.8,806.2,420,799.4,424.1z"/>
			<path fill="#ADCEFD" d="M780.7,424.8L437,631.4c-5.7,3.5-14.3,3.9-19.2,0.9l-82.5-49.9c-4.9-3-4.2-8.1,1.5-11.6l343.6-206.6
				c5.7-3.5,14.3-3.9,19.2-0.9l82.5,49.9C787,416.1,786.4,421.3,780.7,424.8z"/>
		</g>
		<g>
			<g>
				<polygon fill="#D6F1FF" points="451.4,567.8 464,560.2 477.5,568.4 464.9,576 				"/>
				<polygon fill="#D6F1FF" points="431.4,580 444,572.3 457.5,580.5 444.9,588.1 				"/>
				<polygon fill="#D6F1FF" points="471.4,555.7 483.9,548.1 497.4,556.3 484.9,563.9 				"/>
				<polygon fill="#D6F1FF" points="491.4,543.6 503.9,536 517.4,544.2 504.9,551.8 				"/>
				<polygon fill="#D6F1FF" points="443,538.6 429.9,530.6 442.4,523 455.6,531 				"/>
				<polygon fill="#D6F1FF" points="531.3,519.4 543.9,511.8 557.4,520 544.8,527.6 				"/>
				<polygon fill="#D6F1FF" points="423,550.7 409.9,542.7 422.4,535.1 435.6,543.1 				"/>
				<polygon fill="#D6F1FF" points="403.1,562.8 389.9,554.8 402.5,547.2 415.6,555.2 				"/>
				<polygon fill="#D6F1FF" points="390.5,579.4 403.1,571.8 416.6,580 404,587.6 				"/>
				<polygon fill="#D6F1FF" points="410.5,567.3 423,559.7 436.6,567.8 424,575.5 				"/>
				<polygon fill="#D6F1FF" points="383.1,574.9 369.9,566.9 382.5,559.3 395.6,567.3 				"/>
				<polygon fill="#D6F1FF" points="511.3,531.5 523.9,523.9 537.4,532.1 524.8,539.7 				"/>
				<polygon fill="#D6F1FF" points="564.8,515.5 551.3,507.3 563.9,499.7 577.4,507.9 				"/>
				<polygon fill="#D6F1FF" points="476.5,543.6 464,551.3 450.4,543.1 463,535.5 				"/>
				<polygon fill="#D6F1FF" points="626.3,487.3 638.5,494.7 624.4,503.2 612.2,495.8 				"/>
				<polygon fill="#D6F1FF" points="362.5,571.4 375.7,579.4 362.2,587.5 349.1,579.5 				"/>
				<polygon fill="#D6F1FF" points="430.5,555.2 443,547.6 456.5,555.7 444,563.4 				"/>
				<polygon fill="#D6F1FF" points="556.4,495.2 543.9,502.9 530.4,494.7 542.9,487.1 				"/>
				<polygon fill="#D6F1FF" points="536.5,507.3 523.9,515 510.4,506.8 523,499.2 				"/>
				<polygon fill="#D6F1FF" points="516.5,519.4 503.9,527.1 490.4,518.9 503,511.3 				"/>
				<polygon fill="#D6F1FF" points="496.5,531.5 483.9,539.2 470.4,531 483,523.4 				"/>
				<polygon fill="#D6F1FF" points="549.8,458 563.8,449.5 576.9,457.5 562.9,466 				"/>
				<polygon fill="#D6F1FF" points="464.9,585 477.1,592.4 464.5,600 452.3,592.6 				"/>
				<polygon fill="#D6F1FF" points="444.9,597.1 457.1,604.5 444.5,612.1 432.3,604.7 				"/>
				<polygon fill="#D6F1FF" points="484.9,572.9 497.1,580.3 484.5,587.9 472.3,580.5 				"/>
				<polygon fill="#D6F1FF" points="396.6,592.1 383.2,600.2 369.7,592 383.1,583.9 				"/>
				<polygon fill="#D6F1FF" points="437.1,616.6 423.7,624.7 411.6,617.3 424.9,609.2 				"/>
				<polygon fill="#D6F1FF" points="404,596.5 424,584.4 437.5,592.6 424.9,600.2 424.9,600.2 404.1,612.8 390.6,604.7 404,596.5 
									"/>
				<polygon fill="#D6F1FF" points="604.6,491.2 597.1,495.7 597.3,495.8 584.8,503.4 584.5,503.2 584.1,503.4 571.3,495.2 
					591.3,483.1 591.3,483.1 605.3,474.6 618.8,482.8 604.8,491.3 				"/>
				<polygon fill="#D6F1FF" points="576.4,483.1 563.9,490.8 550.4,482.6 562.9,475 				"/>
				<polygon fill="#D6F1FF" points="523,490.2 509.8,482.2 522.4,474.6 535.5,482.6 				"/>
				<polygon fill="#D6F1FF" points="542.9,478.1 529.8,470.1 542.4,462.5 555.5,470.5 				"/>
				<polygon fill="#D6F1FF" points="503,502.3 489.8,494.3 502.4,486.7 515.5,494.7 				"/>
				<polygon fill="#D6F1FF" points="483,514.4 469.8,506.4 482.4,498.8 495.6,506.8 				"/>
				<polygon fill="#D6F1FF" points="584.8,512.4 597,519.8 584.4,527.4 572.2,520 				"/>
				<polygon fill="#D6F1FF" points="570.3,470.5 584.4,462 597.9,470.1 583.8,478.7 				"/>
				<polygon fill="#D6F1FF" points="604.8,500.3 617,507.7 604.4,515.3 592.2,507.9 				"/>
				<polygon fill="#D6F1FF" points="463,526.5 449.8,518.5 462.4,510.9 475.6,518.9 				"/>
				<polygon fill="#D6F1FF" points="522.5,550.1 524.8,548.7 524.8,548.7 564.8,524.5 577,531.9 525.5,563.1 524.5,563.7 
					524.5,563.7 517,568.2 517,568.2 504.5,575.8 492.3,568.4 				"/>
			</g>
			<g>
				<polygon fill="#D6F1FF" points="619.4,457.2 606.9,464.8 593.4,456.6 605.9,449 				"/>
				<polygon fill="#D6F1FF" points="586,452.1 572.8,444.2 585.4,436.6 598.5,444.5 				"/>
				<polygon fill="#D6F1FF" points="647.8,474.4 660,481.7 647.4,489.3 635.2,482 				"/>
			</g>
			<g>
				<polygon fill="#D6F1FF" points="649.3,464.5 635.8,456.3 648.4,448.7 661.9,456.9 				"/>
				<polygon fill="#D6F1FF" points="640.9,444.2 628.4,451.8 614.9,443.6 627.4,436 				"/>
				<polygon fill="#D6F1FF" points="607.5,439.1 594.3,431.2 606.9,423.6 620,431.5 				"/>
				<polygon fill="#D6F1FF" points="669.3,461.4 681.5,468.8 668.9,476.4 656.7,469 				"/>
			</g>
			<g>
				<polygon fill="#D6F1FF" points="662.4,431.2 649.9,438.8 636.4,430.7 648.9,423 				"/>
				<polygon fill="#D6F1FF" points="629,426.2 615.8,418.2 628.4,410.6 641.5,418.6 				"/>
				<polygon fill="#D6F1FF" points="690.8,448.4 703,455.8 690.4,463.4 678.2,456 				"/>
			</g>
			<g>
				<polygon fill="#D6F1FF" points="692.3,438.5 678.8,430.3 691.4,422.7 704.9,430.9 				"/>
				<polygon fill="#D6F1FF" points="684,418.2 671.4,425.9 657.9,417.7 670.5,410.1 				"/>
				<polygon fill="#D6F1FF" points="650.5,413.2 637.3,405.2 649.9,397.6 663,405.6 				"/>
				<polygon fill="#D6F1FF" points="712.3,435.4 724.5,442.8 711.9,450.4 699.7,443 				"/>
			</g>
			<g>
				<polygon fill="#D6F1FF" points="713.8,425.5 700.3,417.4 712.9,409.8 726.4,417.9 				"/>
				<polygon fill="#D6F1FF" points="705.5,405.3 692.9,412.9 679.4,404.7 692,397.1 				"/>
				<polygon fill="#D6F1FF" points="672,400.2 658.8,392.2 671.4,384.6 684.5,392.6 				"/>
				<polygon fill="#D6F1FF" points="733.8,422.4 746,429.8 733.4,437.4 721.2,430 				"/>
			</g>
			<g>
				<polygon fill="#D6F1FF" points="735.3,412.6 721.8,404.4 734.4,396.8 747.9,405 				"/>
				<polygon fill="#D6F1FF" points="727,392.3 714.4,399.9 700.9,391.7 713.5,384.1 				"/>
				<polygon fill="#D6F1FF" points="693.5,387.2 680.3,379.3 692.9,371.7 706,379.6 				"/>
				<polygon fill="#D6F1FF" points="755.3,409.4 767.5,416.8 754.9,424.4 742.7,417.1 				"/>
			</g>
		</g>
	</g>
	<g>
		<g>
			<g>
				<path fill="#75B5FF" d="M163.2,657.3v-9h5.5c0.6-0.4,1.2-0.9,1.9-1.3l65.3-38.7c8.8-5.3,22-5.9,29.5-1.4L391,683h6.3v9.8h0
					c-0.3,3.3-2.8,6.7-7.3,9.5l-65.3,38.7c-8.8,5.3-22,5.9-29.5,1.4l-126.9-76.9C164.7,663.3,163,660.4,163.2,657.3z"/>
				<linearGradient id="SVGID_7_" gradientUnits="userSpaceOnUse" x1="314.82" y1="701.9224" x2="234.6591" y2="632.9667">
					<stop  offset="0" style="stop-color:#C5E7FF"/>
					<stop  offset="1" style="stop-color:#C5E7FF;stop-opacity:0"/>
				</linearGradient>
				<path fill="url(#SVGID_7_)" d="M163.2,657.3v-9h5.5c0.6-0.4,1.2-0.9,1.9-1.3l65.3-38.7c8.8-5.3,22-5.9,29.5-1.4L391,683h6.3v9.8
					h0c-0.3,3.3-2.8,6.7-7.3,9.5l-65.3,38.7c-8.8,5.3-22,5.9-29.5,1.4l-126.9-76.9C164.7,663.3,163,660.4,163.2,657.3z"/>
			</g>
			<path fill="#D6F1FF" d="M390,693.2l-65.3,38.7c-8.8,5.3-22,5.9-29.5,1.4l-126.9-76.9c-7.5-4.5-6.5-12.5,2.3-17.9l65.3-38.7
				c8.8-5.3,22-5.9,29.5-1.4l126.9,76.9C399.8,679.9,398.8,687.9,390,693.2z"/>
		</g>
		<polygon fill="#1A9EFE" points="374.2,676.5 295.4,724.2 289.8,720.8 230.7,685 177.3,652.7 245.6,611.3 256.1,605 307,635.8 		
			"/>
		<g>
			
				<ellipse transform="matrix(0.1104 -0.9939 0.9939 0.1104 -416.5289 866.4563)" fill="#FFFFFF" cx="275.7" cy="665.9" rx="22" ry="36.2"/>
			
				<ellipse transform="matrix(0.1104 -0.9939 0.9939 0.1104 -416.5289 866.4563)" fill="#FFC12E" cx="275.7" cy="665.9" rx="17.7" ry="29.1"/>
			<path fill="#FFFFFF" d="M281.4,659L281.4,659l-2.7-1.7c-4.9-3-12.5-3.7-17.3-1.3c-5.6,2.8-5.4,8.1,0.2,11.5l3,1.8
				c-1,0.6-0.9,1.8,0.2,2.5l12.1,7.4c1.2,0.7,3,0.8,4,0.1l16.9-10.4c1-0.6,0.9-1.8-0.2-2.5l-12.1-7.4
				C284.2,658.4,282.4,658.3,281.4,659z M282.5,668.6l2.2,1.3c0.7,0.5,0.8,1.1,0.1,1.5l0,0c-0.7,0.4-1.8,0.4-2.5-0.1l-2.2-1.3
				c-1.2,0.2-2.5-0.1-3.5-0.7c-1.5-0.9-1.6-2.3-0.3-3.1s3.6-0.7,5.1,0.2C282.4,667,282.7,667.9,282.5,668.6z M278,661l-10.2,6.3
				l-3-1.8c-3.2-1.9-3.4-4.9-0.6-6.7c2.8-1.7,7.7-1.6,10.9,0.4L278,661z"/>
		</g>
		<linearGradient id="SVGID_8_" gradientUnits="userSpaceOnUse" x1="202.2418" y1="552.7291" x2="314.4612" y2="734.1506">
			<stop  offset="0" style="stop-color:#FFFFFF"/>
			<stop  offset="1" style="stop-color:#FFFFFF;stop-opacity:0"/>
		</linearGradient>
		<polygon fill="url(#SVGID_8_)" points="307,635.8 289.8,720.8 230.7,685 245.6,611.3 256.1,605 		"/>
		<path fill="#75B5FF" d="M338.8,715.5l25.1-14.9c2.1-1.3,1.9-3.4-0.5-4.9l0,0c-2.4-1.4-6-1.6-8.1-0.3l-25.1,14.9
			c-2.1,1.3-1.9,3.4,0.5,4.9h0C333,716.6,336.7,716.8,338.8,715.5z"/>
	</g>
	<g>
		<g>
			<g>
				<path fill="#75B5FF" d="M806.9,373.8v-9h5.5c0.6-0.4,1.2-0.9,1.9-1.3l99-58.7c8.8-5.3,22-5.9,29.5-1.4l125.6,76.1h6.3v9.8h0
					c-0.3,3.3-2.8,6.7-7.3,9.5l-99,58.7c-8.8,5.3-22,5.9-29.5,1.4L811.9,382C808.3,379.8,806.7,376.9,806.9,373.8z"/>
			</g>
			<path fill="#C5E7FF" d="M1067.3,389.7l-99,58.7c-8.8,5.3-22,5.9-29.5,1.4L811.9,373c-7.5-4.5-6.5-12.5,2.3-17.9l99-58.7
				c8.8-5.3,22-5.9,29.5-1.4l126.9,76.9C1077.2,376.4,1076.1,384.4,1067.3,389.7z"/>
			<linearGradient id="SVGID_9_" gradientUnits="userSpaceOnUse" x1="966.7846" y1="389.2503" x2="1002.4188" y2="412.3465">
				<stop  offset="0" style="stop-color:#ADCEFD"/>
				<stop  offset="1" style="stop-color:#ADCEFD;stop-opacity:0"/>
			</linearGradient>
			<path fill="url(#SVGID_9_)" d="M1067.3,389.7l-99,58.7c-8.8,5.3-22,5.9-29.5,1.4L811.9,373c-7.5-4.5-6.5-12.5,2.3-17.9l99-58.7
				c8.8-5.3,22-5.9,29.5-1.4l126.9,76.9C1077.2,376.4,1076.1,384.4,1067.3,389.7z"/>
			<polygon fill="#75B5FF" points="1072,384.8 1047.7,279 938.3,293 1016.7,351.2 			"/>
		</g>
		<g>
			<path fill="#ADCEFD" d="M1044.8,268.2L823,130.9c-2.1-1.3-4.5-1.9-6.7-1.9l0,0l-8.4,0l-1.7,4l0.4,1.8c-0.1,0.1-0.2,0.3-0.2,0.4
				l-88.1,169.6c-3.2,6.1-0.9,14.1,5.1,17.8l219,135.5v3.6h10.1l0,0c3.8-0.3,7.4-2.5,9.4-6.2l88.1-169.6
				C1053.1,279.9,1050.8,271.9,1044.8,268.2z"/>
			<path fill="#C5E7FF" d="M715.3,322.7L937.1,460c6,3.7,13.4,1.8,16.6-4.4l88.1-169.6c3.2-6.1,0.9-14.1-5.1-17.8L814.9,130.9
				c-6-3.7-13.4-1.8-16.6,4.4l-88.1,169.6C707,311,709.3,319,715.3,322.7z"/>
			<polygon fill="#1A9EFE" points="1019,265.4 980.6,339.3 940,417.5 940,417.5 926.5,443.5 859.6,402.2 773.4,348.8 720.4,316 
				755.7,248.1 812.9,137.9 813.3,138.1 900.4,192 961.4,229.7 961.4,229.7 			"/>
			<g>
				
					<ellipse transform="matrix(5.717788e-02 -0.9984 0.9984 5.717788e-02 531.7213 1143.5903)" fill="#FFFFFF" cx="871.3" cy="290.3" rx="69.3" ry="64.2"/>
				
					<ellipse transform="matrix(5.717788e-02 -0.9984 0.9984 5.717788e-02 531.7213 1143.5903)" fill="#FFC12E" cx="871.3" cy="290.3" rx="55.7" ry="51.6"/>
				<path fill="#FFFFFF" d="M894.3,295.7L894.3,295.7l3.2-6.1c5.8-11.1,3.3-25.3-6.4-32.5c-11.1-8.2-26.1-4.2-32.6,8.3l-3.5,6.7
					c-2.4-1.5-5.5-0.5-6.9,2.1l-14.2,27.2c-1.4,2.6-0.5,6,1.9,7.4l39.3,23.6c2.4,1.5,5.5,0.5,6.9-2.1l14.2-27.2
					C897.6,300.5,896.7,297.2,894.3,295.7z M867.6,304.4l-2.6,4.9c-0.9,1.6-2.8,2.2-4.3,1.3l0,0c-1.5-0.9-2.1-3-1.2-4.6l2.6-4.9
					c-1.1-2-1.3-4.7-0.1-6.9c1.7-3.3,5.6-4.5,8.7-2.7s4.2,6,2.4,9.4C871.9,303.1,869.8,304.4,867.6,304.4z M886.6,291l-23.8-14.3
					l3.5-6.7c3.7-7.1,12.1-9.7,18.6-5.8c6.6,3.9,8.9,12.9,5.2,20L886.6,291z"/>
			</g>
			<path fill="#75B5FF" d="M982.7,378.2l14.5-27.7c1.4-2.7,0.4-6.2-2.2-7.8l0,0c-2.7-1.6-6-0.7-7.4,2.1l-14.5,27.8
				c-1.4,2.7-0.4,6.2,2.2,7.8l0,0C978,381.9,981.3,381,982.7,378.2z"/>
		</g>
		<path fill="#75B5FF" d="M1066.8,399l10.9-6.9c2.5-1.6,3.6-4.6,2.9-7.4l-29.6-107.9l-4.8,16.4l25.7,90.3c0.4,1.5-0.2,3.1-1.4,4
			l-5.3,3.6L1066.8,399z"/>
		<linearGradient id="SVGID_10_" gradientUnits="userSpaceOnUse" x1="1046.0868" y1="283.7993" x2="1072.4517" y2="387.0619">
			<stop  offset="0" style="stop-color:#C5E7FF"/>
			<stop  offset="1" style="stop-color:#C5E7FF;stop-opacity:0"/>
		</linearGradient>
		<path fill="url(#SVGID_10_)" d="M1066.8,399l10.9-6.9c2.5-1.6,3.6-4.6,2.9-7.4l-29.6-107.9l-4.8,16.4l25.7,90.3
			c0.4,1.5-0.2,3.1-1.4,4l-5.3,3.6L1066.8,399z"/>
		<linearGradient id="SVGID_11_" gradientUnits="userSpaceOnUse" x1="773.6213" y1="98.6579" x2="815.9276" y2="380.0588">
			<stop  offset="0" style="stop-color:#FFFFFF"/>
			<stop  offset="1" style="stop-color:#FFFFFF;stop-opacity:0"/>
		</linearGradient>
		<polygon fill="url(#SVGID_11_)" points="859.6,402.2 773.4,348.8 755.7,248.1 812.9,137.9 813.3,138.1 		"/>
		<linearGradient id="SVGID_12_" gradientUnits="userSpaceOnUse" x1="919.3375" y1="124.9174" x2="955.426" y2="364.9608">
			<stop  offset="0" style="stop-color:#FFFFFF"/>
			<stop  offset="1" style="stop-color:#FFFFFF;stop-opacity:0"/>
		</linearGradient>
		<polygon fill="url(#SVGID_12_)" points="980.6,339.3 940,417.5 900.4,192 961.4,229.7 961.4,229.7 		"/>
	</g>
	<g>
		<g>
			<path fill="#75B5FF" d="M578,650.4v-41.3h4.4c0.5-0.3,1-0.7,1.5-1l169.7-101.8c7-4.2,17.6-4.7,23.6-1.1l100.4,60.8h5.1v41.9h0
				c-0.3,2.6-2.2,5.4-5.8,7.6L707,717.2c-7,4.2-17.6,4.7-23.6,1.1L582,656.9C579.2,655.2,577.9,652.8,578,650.4z"/>
			<linearGradient id="SVGID_14_" gradientUnits="userSpaceOnUse" x1="768.7721" y1="642.8999" x2="679.6552" y2="566.2402">
				<stop  offset="0" style="stop-color:#C5E7FF"/>
				<stop  offset="1" style="stop-color:#C5E7FF;stop-opacity:0"/>
			</linearGradient>
			<path fill="url(#SVGID_14_)" d="M578,650.4v-41.3h4.4c0.5-0.3,1-0.7,1.5-1l169.7-101.8c7-4.2,17.6-4.7,23.6-1.1l100.4,60.8h5.1
				v41.9h0c-0.3,2.6-2.2,5.4-5.8,7.6L707,717.2c-7,4.2-17.6,4.7-23.6,1.1L582,656.9C579.2,655.2,577.9,652.8,578,650.4z"/>
		</g>
		<path fill="#D6F1FF" d="M876.7,574.1L707,675.9c-7,4.2-17.6,4.7-23.6,1.1L582,615.6c-6-3.6-5.2-10,1.9-14.3l169.7-101.8
			c7-4.2,17.6-4.7,23.6-1.1l101.4,61.4C884.6,563.5,883.7,569.8,876.7,574.1z"/>
		<path fill="#75B5FF" d="M768.3,667.1l-37.9,23c-3.4,2-6.1,1-6.1-2.4l0,0c0-3.4,2.7-7.7,6.1-9.8l37.9-23c3.4-2,6.1-1,6.1,2.4l0,0
			C774.4,660.7,771.7,665.1,768.3,667.1z"/>
		<path fill="#75B5FF" d="M789,639.5L789,639.5c-3.6,2.2-6.5,7.5-6.5,11.9l0,0c0,4.4,2.9,6.2,6.5,4l0,0c3.6-2.2,6.5-7.5,6.5-11.9v0
			C795.5,639.1,792.6,637.3,789,639.5z"/>
		<path fill="#75B5FF" d="M873,614.2c0.1-0.1,0.1-0.2,0.2-0.4c0-0.1,0.1-0.1,0.1-0.2c0-0.1,0.1-0.2,0.1-0.3c0-0.1,0-0.2,0.1-0.3
			c0-0.1,0-0.2,0.1-0.3c0-0.1,0-0.2,0-0.3c0-0.1,0-0.2,0-0.3c0-0.1,0-0.2,0-0.3c0-0.1,0-0.1,0-0.2V472.2c0-3.5-2.8-6.3-6.3-6.3h0
			c-3.5,0-6.3,2.8-6.3,6.3v128.2c-2.8-1.3-6.2-0.3-7.9,2.4c-1.8,2.9-0.9,6.8,2.1,8.6l8.8,5.4c0,0,0.1,0,0.1,0.1
			c0.1,0.1,0.2,0.1,0.3,0.2c0.1,0,0.1,0.1,0.2,0.1c0.1,0.1,0.2,0.1,0.3,0.1c0.1,0,0.2,0.1,0.2,0.1c0.1,0,0.2,0.1,0.3,0.1
			c0.1,0,0.2,0.1,0.3,0.1c0.1,0,0.2,0,0.3,0.1c0.1,0,0.2,0,0.3,0c0.1,0,0.2,0,0.3,0c0.1,0,0.2,0,0.3,0c0.1,0,0.1,0,0.2,0h0
			c0,0,0.1,0,0.1,0c0.1,0,0.2,0,0.3,0c0.1,0,0.2,0,0.3,0c0.1,0,0.2,0,0.3,0c0.1,0,0.2,0,0.4-0.1c0.1,0,0.1,0,0.2-0.1
			c0.1,0,0.3-0.1,0.4-0.1c0.1,0,0.1,0,0.2-0.1c0.1,0,0.3-0.1,0.4-0.2c0.1,0,0.1-0.1,0.2-0.1c0.1-0.1,0.2-0.1,0.3-0.2
			c0.1,0,0.1-0.1,0.2-0.1c0.1-0.1,0.2-0.1,0.3-0.2c0.1-0.1,0.2-0.1,0.2-0.2c0.1-0.1,0.2-0.1,0.2-0.2c0.1-0.1,0.1-0.1,0.2-0.2
			c0.1-0.1,0.2-0.1,0.2-0.2c0.1-0.1,0.1-0.1,0.2-0.2c0.1-0.1,0.2-0.2,0.2-0.3c0-0.1,0.1-0.1,0.1-0.2c0.1-0.1,0.2-0.2,0.2-0.3
			c0,0,0,0,0.1-0.1c0,0,0-0.1,0.1-0.1c0.1-0.1,0.1-0.2,0.2-0.4C872.9,614.3,873,614.3,873,614.2z"/>
		<linearGradient id="SVGID_15_" gradientUnits="userSpaceOnUse" x1="862.8798" y1="466.7582" x2="862.8798" y2="554.8698">
			<stop  offset="0" style="stop-color:#C5E7FF"/>
			<stop  offset="1" style="stop-color:#C5E7FF;stop-opacity:0"/>
		</linearGradient>
		<path fill="url(#SVGID_15_)" d="M873,614.2c0.1-0.1,0.1-0.2,0.2-0.4c0-0.1,0.1-0.1,0.1-0.2c0-0.1,0.1-0.2,0.1-0.3
			c0-0.1,0-0.2,0.1-0.3c0-0.1,0-0.2,0.1-0.3c0-0.1,0-0.2,0-0.3c0-0.1,0-0.2,0-0.3c0-0.1,0-0.2,0-0.3c0-0.1,0-0.1,0-0.2V472.2
			c0-3.5-2.8-6.3-6.3-6.3h0c-3.5,0-6.3,2.8-6.3,6.3v128.2c-2.8-1.3-6.2-0.3-7.9,2.4c-1.8,2.9-0.9,6.8,2.1,8.6l8.8,5.4
			c0,0,0.1,0,0.1,0.1c0.1,0.1,0.2,0.1,0.3,0.2c0.1,0,0.1,0.1,0.2,0.1c0.1,0.1,0.2,0.1,0.3,0.1c0.1,0,0.2,0.1,0.2,0.1
			c0.1,0,0.2,0.1,0.3,0.1c0.1,0,0.2,0.1,0.3,0.1c0.1,0,0.2,0,0.3,0.1c0.1,0,0.2,0,0.3,0c0.1,0,0.2,0,0.3,0c0.1,0,0.2,0,0.3,0
			c0.1,0,0.1,0,0.2,0h0c0,0,0.1,0,0.1,0c0.1,0,0.2,0,0.3,0c0.1,0,0.2,0,0.3,0c0.1,0,0.2,0,0.3,0c0.1,0,0.2,0,0.4-0.1
			c0.1,0,0.1,0,0.2-0.1c0.1,0,0.3-0.1,0.4-0.1c0.1,0,0.1,0,0.2-0.1c0.1,0,0.3-0.1,0.4-0.2c0.1,0,0.1-0.1,0.2-0.1
			c0.1-0.1,0.2-0.1,0.3-0.2c0.1,0,0.1-0.1,0.2-0.1c0.1-0.1,0.2-0.1,0.3-0.2c0.1-0.1,0.2-0.1,0.2-0.2c0.1-0.1,0.2-0.1,0.2-0.2
			c0.1-0.1,0.1-0.1,0.2-0.2c0.1-0.1,0.2-0.1,0.2-0.2c0.1-0.1,0.1-0.1,0.2-0.2c0.1-0.1,0.2-0.2,0.2-0.3c0-0.1,0.1-0.1,0.1-0.2
			c0.1-0.1,0.2-0.2,0.2-0.3c0,0,0,0,0.1-0.1c0,0,0-0.1,0.1-0.1c0.1-0.1,0.1-0.2,0.2-0.4C872.9,614.3,873,614.3,873,614.2z"/>
		<path fill="#ADCEFD" d="M605.8,604.1L605.8,604.1c-3.3,2.1-3,5.6,0.8,7.8l0,0c3.8,2.3,9.5,2.4,12.9,0.4l0,0c3.3-2.1,3-5.6-0.8-7.8
			h0C614.8,602.2,609.1,602,605.8,604.1z"/>
		<path fill="#1A9EFE" d="M622.9,593.8L622.9,593.8c-3.3,2.1-3,5.6,0.8,7.8l0,0c3.8,2.3,9.5,2.4,12.9,0.4l0,0c3.3-2.1,3-5.6-0.8-7.8
			l0,0C631.9,591.9,626.2,591.7,622.9,593.8z"/>
		<path fill="#ADCEFD" d="M639.9,583.4L639.9,583.4c-3.3,2.1-3,5.6,0.8,7.8h0c3.8,2.3,9.5,2.4,12.9,0.4v0c3.3-2.1,3-5.6-0.8-7.8l0,0
			C649,581.5,643.3,581.3,639.9,583.4z"/>
	</g>
</g>
</svg>
