<?xml version="1.0" encoding="utf-8"?>
<!-- Generator: Adobe Illustrator 22.0.1, SVG Export Plug-In . SVG Version: 6.00 Build 0)  -->
<svg version="1.1" id="Layer_1" xmlns="http://www.w3.org/2000/svg" xmlns:xlink="http://www.w3.org/1999/xlink" x="0px" y="0px"
	 viewBox="0 0 278.7 219.6" style="enable-background:new 0 0 278.7 219.6;" xml:space="preserve">
<style type="text/css">
	.st0{fill:#E2E2E4;}
	.st1{fill:url(#XMLID_6_);}
	.st2{clip-path:url(#XMLID_7_);}
	.st3{fill:#F1F2F2;}
	.st4{clip-path:url(#XMLID_8_);}
	.st5{fill:#BCBDC0;}
	.st6{fill:#BDBEC1;}
	.st7{fill:#BEBFC2;}
	.st8{fill:#BFC0C3;}
	.st9{fill:#C0C1C4;}
	.st10{fill:#C1C2C5;}
	.st11{fill:#C2C3C6;}
	.st12{fill:#C3C4C7;}
	.st13{fill:#C4C5C8;}
	.st14{fill:#C5C6C9;}
	.st15{fill:#C6C7CA;}
	.st16{fill:#C7C8CB;}
	.st17{fill:#C8C9CC;}
	.st18{fill:#C9CACD;}
	.st19{fill:#CACBCE;}
	.st20{fill:#CCCCCF;}
	.st21{fill:#CDCDCF;}
	.st22{fill:#CECED0;}
	.st23{fill:#CFCFD1;}
	.st24{fill:#D0D0D2;}
	.st25{fill:#D1D1D3;}
	.st26{fill:#D2D2D4;}
	.st27{fill:#D3D3D5;}
	.st28{fill:#FFFFFF;}
	.st29{fill:#1A9EFE;}
	.st30{opacity:0.2;}
	.st31{clip-path:url(#XMLID_9_);}
	.st32{fill:url(#SVGID_1_);}
	.st33{fill:url(#SVGID_2_);}
	.st34{opacity:0.2;fill:#474747;}
	.st35{fill:url(#SVGID_3_);}
	.st36{opacity:0.6;}
	.st37{fill:url(#XMLID_10_);}
	.st38{opacity:0.1;}
	.st39{fill:#18162E;}
	.st40{fill:#88BDFF;}
</style>
<g>
	<g id="XMLID_5088_">
		<g id="XMLID_5089_">
			<g id="XMLID_6422_">
				<g id="XMLID_6431_">
					<path id="XMLID_6435_" class="st0" d="M6.4,210.5v5.5c4.6,2.4,9.7,3.6,14.9,3.6h241.1c5.2,0,10.4-1.2,14.9-3.6v-5.5H6.4z"/>
				</g>
			</g>
			<linearGradient id="XMLID_6_" gradientUnits="userSpaceOnUse" x1="141.8142" y1="73.9442" x2="141.8142" y2="207.0643">
				<stop  offset="0" style="stop-color:#F1F2F2"/>
				<stop  offset="1" style="stop-color:#D1D3D4"/>
			</linearGradient>
			<path id="XMLID_6413_" class="st1" d="M257.4,74.4c-1-0.8-2.3-1.3-3.8-1.3H30c-1.4,0-2.7,0.5-3.8,1.3c-1.4,1.1-2.3,2.8-2.3,4.7
				v2.8v7.5V97v7.5v7.5v7.5v7.5v7.5v7.5v3.3v7.5v7.5v7.5v7.5v7.5v3.3v7.5v7.5v6.2c0,0.5,0.1,0.9,0.1,1.3c0.6,2.7,3,4.7,5.9,4.7
				h223.6c2.9,0,5.3-2,5.9-4.7c0.1-0.4,0.1-0.9,0.1-1.3v-6.2V194v-7.5v-3.3v-7.5v-7.5v-7.5V153v-7.5v-3.3v-7.5v-7.5v-7.5v-7.5v-7.5
				V97v-7.5v-7.5v-2.8C259.6,77.2,258.7,75.5,257.4,74.4z"/>
			<g id="XMLID_6016_">
				<g id="XMLID_6020_">
					<defs>
						<rect id="XMLID_6410_" x="6.4" y="210.5" width="270.9" height="5.5"/>
					</defs>
					<clipPath id="XMLID_7_">
						<use xlink:href="#XMLID_6410_"  style="overflow:visible;"/>
					</clipPath>
					<g id="XMLID_6411_" class="st2">
						<rect id="XMLID_6412_" x="6.4" y="210.5" class="st3" width="270.9" height="5.5"/>
					</g>
				</g>
			</g>
			<g id="XMLID_5828_">
				<g id="XMLID_5829_">
					<path id="XMLID_5830_" class="st0" d="M262.3,219.6H21.3c-5.2,0-10.4-1.2-14.9-3.6h0h270.9l0,0
						C272.7,218.4,267.6,219.6,262.3,219.6z"/>
				</g>
			</g>
			<g id="XMLID_5641_">
				<g id="XMLID_5647_">
					<path id="XMLID_5827_" class="st0" d="M162.6,213.8H121c-1.8,0-3.3-1.5-3.3-3.3l0,0h48.2l0,0
						C165.9,212.3,164.4,213.8,162.6,213.8z"/>
				</g>
			</g>
			<g id="XMLID_5094_">
				<g id="XMLID_5098_">
					<g id="XMLID_5099_">
						<defs>
							<circle id="XMLID_5101_" cx="141.8" cy="76.8" r="1.8"/>
						</defs>
						<clipPath id="XMLID_8_">
							<use xlink:href="#XMLID_5101_"  style="overflow:visible;"/>
						</clipPath>
						<g id="XMLID_5639_" class="st4">
							<rect id="XMLID_5640_" x="140" y="75" class="st5" width="3.6" height="0"/>
						</g>
						<g id="XMLID_5446_" class="st4">
							<rect id="XMLID_5638_" x="140" y="75.1" class="st6" width="3.6" height="0.2"/>
						</g>
						<g id="XMLID_5439_" class="st4">
							<rect id="XMLID_5443_" x="140" y="75.2" class="st7" width="3.6" height="0.2"/>
						</g>
						<g id="XMLID_5413_" class="st4">
							<rect id="XMLID_5414_" x="140" y="75.4" class="st8" width="3.6" height="0.2"/>
						</g>
						<g id="XMLID_5411_" class="st4">
							<rect id="XMLID_5412_" x="140" y="75.6" class="st9" width="3.6" height="0.2"/>
						</g>
						<g id="XMLID_5235_" class="st4">
							<rect id="XMLID_5237_" x="140" y="75.7" class="st10" width="3.6" height="0.2"/>
						</g>
						<g id="XMLID_5226_" class="st4">
							<rect id="XMLID_5228_" x="140" y="75.9" class="st11" width="3.6" height="0.2"/>
						</g>
						<g id="XMLID_5169_" class="st4">
							<rect id="XMLID_5193_" x="140" y="76.1" class="st12" width="3.6" height="0.2"/>
						</g>
						<g id="XMLID_5167_" class="st4">
							<rect id="XMLID_5168_" x="140" y="76.2" class="st13" width="3.6" height="0.2"/>
						</g>
						<g id="XMLID_5165_" class="st4">
							<rect id="XMLID_5166_" x="140" y="76.4" class="st14" width="3.6" height="0.2"/>
						</g>
						<g id="XMLID_5163_" class="st4">
							<rect id="XMLID_5164_" x="140" y="76.5" class="st15" width="3.6" height="0.2"/>
						</g>
						<g id="XMLID_5161_" class="st4">
							<rect id="XMLID_5162_" x="140" y="76.7" class="st16" width="3.6" height="0.2"/>
						</g>
						<g id="XMLID_5159_" class="st4">
							<rect id="XMLID_5160_" x="140" y="76.9" class="st17" width="3.6" height="0.2"/>
						</g>
						<g id="XMLID_5157_" class="st4">
							<rect id="XMLID_5158_" x="140" y="77" class="st18" width="3.6" height="0.2"/>
						</g>
						<g id="XMLID_5155_" class="st4">
							<rect id="XMLID_5156_" x="140" y="77.2" class="st19" width="3.6" height="0.2"/>
						</g>
						<g id="XMLID_5153_" class="st4">
							<rect id="XMLID_5154_" x="140" y="77.4" class="st20" width="3.6" height="0.2"/>
						</g>
						<g id="XMLID_5115_" class="st4">
							<rect id="XMLID_5152_" x="140" y="77.5" class="st21" width="3.6" height="0.2"/>
						</g>
						<g id="XMLID_5113_" class="st4">
							<rect id="XMLID_5114_" x="140" y="77.7" class="st22" width="3.6" height="0.2"/>
						</g>
						<g id="XMLID_5110_" class="st4">
							<rect id="XMLID_5112_" x="140" y="77.9" class="st23" width="3.6" height="0.2"/>
						</g>
						<g id="XMLID_5108_" class="st4">
							<rect id="XMLID_5109_" x="140" y="78" class="st24" width="3.6" height="0.2"/>
						</g>
						<g id="XMLID_5106_" class="st4">
							<rect id="XMLID_5107_" x="140" y="78.2" class="st25" width="3.6" height="0.2"/>
						</g>
						<g id="XMLID_5104_" class="st4">
							<rect id="XMLID_5105_" x="140" y="78.4" class="st26" width="3.6" height="0.2"/>
						</g>
						<g id="XMLID_5102_" class="st4">
							<rect id="XMLID_5103_" x="140" y="78.5" class="st27" width="3.6" height="0.1"/>
						</g>
					</g>
				</g>
				<g id="XMLID_5095_">
					<g id="XMLID_5096_">
						<circle id="XMLID_5097_" class="st28" cx="141.8" cy="76.8" r="0.6"/>
					</g>
				</g>
			</g>
		</g>
	</g>
	<g id="XMLID_5090_">
		<g id="XMLID_5091_">
			<g id="XMLID_5092_">
				<path id="XMLID_5093_" class="st29" d="M251.4,204.9H32.2c-1.2,0-2.2-1-2.2-2.2V82.6c0-1.2,1-2.2,2.2-2.2h219.2
					c1.2,0,2.2,1,2.2,2.2v120.2C253.6,204,252.6,204.9,251.4,204.9z"/>
			</g>
		</g>
	</g>
	<g class="st30">
		<defs>
			<path id="XMLID_4_" class="st30" d="M251.4,204.9H32.2c-1.2,0-2.2-1-2.2-2.2V82.6c0-1.2,1-2.2,2.2-2.2h219.2c1.2,0,2.2,1,2.2,2.2
				v120.2C253.6,204,252.6,204.9,251.4,204.9z"/>
		</defs>
		<clipPath id="XMLID_9_">
			<use xlink:href="#XMLID_4_"  style="overflow:visible;"/>
		</clipPath>
		<g class="st31">
			<linearGradient id="SVGID_1_" gradientUnits="userSpaceOnUse" x1="113.6978" y1="94.4737" x2="113.6978" y2="229.2211">
				<stop  offset="0" style="stop-color:#FFFFFF"/>
				<stop  offset="1" style="stop-color:#1A9EFE"/>
			</linearGradient>
			<polygon class="st32" points="77.9,272.1 13.6,237.2 149.5,-13.9 213.8,21 			"/>
			<linearGradient id="SVGID_2_" gradientUnits="userSpaceOnUse" x1="184.9996" y1="94.4737" x2="184.9996" y2="229.2211">
				<stop  offset="0" style="stop-color:#FFFFFF"/>
				<stop  offset="1" style="stop-color:#1A9EFE"/>
			</linearGradient>
			<polygon class="st33" points="135.4,303.2 98.7,283.3 234.6,32.2 271.3,52.1 			"/>
		</g>
	</g>
</g>
<path class="st34" d="M141.8,187.3L141.8,187.3C49.1,152.8,59.9,24.7,59.9,24.7c47.8,0.3,78.5-16.3,81.9-18.4c0,0,0,0,0,0
	c0,0,0,0,0,0c0.1-0.1,0-0.1,0-0.1c1.2,0.7,32.7,19.5,82,19.8C223.8,26,233.7,153.5,141.8,187.3C141.8,187.3,141.8,187.3,141.8,187.3
	z"/>
<g>
	<path class="st28" d="M141.7,168.6C141.7,168.6,141.7,168.6,141.7,168.6C141.8,168.6,141.8,168.6,141.7,168.6
		C141.8,168.6,141.8,168.6,141.7,168.6C141.8,168.6,141.7,168.6,141.7,168.6z"/>
	<path class="st28" d="M141.8,168.6L141.8,168.6C141.9,168.5,141.9,168.6,141.8,168.6z"/>
	<g>
		<path class="st28" d="M141.8,181.3L141.8,181.3C49.1,146.8,59.9,18.7,59.9,18.7c47.8,0.3,78.5-16.3,81.9-18.4c0,0,0,0,0,0
			c0,0,0,0,0,0c0.1-0.1,0-0.1,0-0.1c1.2,0.7,32.7,19.5,82,19.8C223.8,20,233.7,147.5,141.8,181.3
			C141.8,181.3,141.8,181.3,141.8,181.3z"/>
		<linearGradient id="SVGID_3_" gradientUnits="userSpaceOnUse" x1="100.6413" y1="-89.9872" x2="100.6413" y2="206.3664">
			<stop  offset="0" style="stop-color:#FFFFFF;stop-opacity:0"/>
			<stop  offset="1" style="stop-color:#BFC5CA"/>
		</linearGradient>
		<path class="st35" d="M141.8,0.2v181.2c0,0-0.1,0-0.1,0c0,0,0,0,0.1,0C49.1,146.8,59.9,18.7,59.9,18.7
			C107.7,19,138.4,2.3,141.8,0.2C141.8,0.2,141.7,0.2,141.8,0.2C141.8,0.2,141.8,0.2,141.8,0.2z"/>
	</g>
	<g id="XMLID_6449_" class="st36">
		<linearGradient id="XMLID_10_" gradientUnits="userSpaceOnUse" x1="141.7875" y1="206.2948" x2="141.7875" y2="120.2571">
			<stop  offset="0" style="stop-color:#FFFFFF;stop-opacity:0"/>
			<stop  offset="1" style="stop-color:#BFC5CA"/>
		</linearGradient>
		<path id="XMLID_6544_" class="st37" d="M175,93.8c0,7.5-2.5,14.5-6.8,20.1c-6.1,8-15.7,13.2-26.5,13.2c-10.8,0-20.4-5.2-26.5-13.2
			c-4.2-5.6-6.8-12.5-6.8-20.1c0-18.4,14.9-33.2,33.2-33.2C160.1,60.5,175,75.4,175,93.8z"/>
	</g>
	<g id="XMLID_6436_">
		<path id="XMLID_6634_" class="st29" d="M175,88.2c0,7.5-2.5,14.5-6.8,20.1c-6.1,8-15.7,13.2-26.5,13.2c-10.8,0-20.4-5.2-26.5-13.2
			c-4.2-5.6-6.8-12.5-6.8-20.1c0-18.4,14.9-33.2,33.2-33.2C160.1,55,175,69.9,175,88.2z"/>
	</g>
	<g id="XMLID_6644_" class="st38">
		<g>
			<path id="XMLID_13_" class="st39" d="M168.1,88.2c0,6-2,11.5-5.3,15.9c-4.8,6.3-12.4,10.4-20.9,10.4c-8.5,0-16.1-4.1-20.9-10.4
				c-3.4-4.4-5.3-9.9-5.3-15.9c0-14.5,11.8-26.3,26.3-26.3C156.3,61.9,168.1,73.7,168.1,88.2z"/>
		</g>
	</g>
	<g id="XMLID_6546_">
		<g id="XMLID_6607_">
			
				<rect id="XMLID_6611_" x="131.3" y="82.6" transform="matrix(0.7071 -0.7071 0.7071 0.7071 -25.5053 122.2886)" class="st28" width="7.1" height="18.7"/>
		</g>
		<g id="XMLID_6555_">
			
				<rect id="XMLID_6606_" x="132.5" y="85.5" transform="matrix(0.7071 -0.7071 0.7071 0.7071 -20.2787 129.2566)" class="st28" width="26.7" height="7.1"/>
		</g>
	</g>
</g>
<path class="st40" d="M248.1,47.1l-6.5-1.9l6.6-1.6c1.4-0.4,2.5-1.4,2.9-2.8l1.9-6.5l1.6,6.6c0.4,1.4,1.4,2.5,2.8,2.9l6.5,1.9
	l-6.6,1.6c-1.4,0.4-2.5,1.4-2.9,2.8l-1.9,6.5l-1.6-6.6C250.5,48.7,249.5,47.6,248.1,47.1z"/>
<path class="st40" d="M267.7,32.8l-3.5-1l3.5-0.9c0.8-0.2,1.4-0.8,1.6-1.5l1-3.5l0.9,3.5c0.2,0.8,0.8,1.4,1.5,1.6l3.5,1l-3.5,0.9
	c-0.8,0.2-1.4,0.8-1.6,1.5l-1,3.5l-0.9-3.5C269,33.7,268.4,33.1,267.7,32.8z"/>
<path class="st40" d="M269.9,176.6l-3.5-1l3.5-0.9c0.7-0.2,1.3-0.8,1.6-1.5l1-3.5l0.9,3.5c0.2,0.7,0.8,1.3,1.5,1.6l3.5,1l-3.5,0.9
	c-0.7,0.2-1.3,0.8-1.6,1.5l-1,3.5l-0.9-3.5C271.2,177.4,270.6,176.8,269.9,176.6z"/>
<path class="st40" d="M12.2,35.9l-5.9-1.7l6-1.5c1.3-0.3,2.3-1.3,2.7-2.6l1.7-5.9l1.5,6c0.3,1.3,1.3,2.3,2.6,2.7l5.9,1.7l-6,1.5
	c-1.3,0.3-2.3,1.3-2.7,2.6l-1.7,5.9l-1.5-6C14.5,37.2,13.5,36.2,12.2,35.9z"/>
<path class="st40" d="M35.6,55.5l-3.5-1l3.5-0.9c0.7-0.2,1.3-0.8,1.6-1.5l1-3.5l0.9,3.5c0.2,0.7,0.8,1.3,1.5,1.6l3.5,1l-3.5,0.9
	c-0.7,0.2-1.3,0.8-1.6,1.5l-1,3.5L37.1,57C36.9,56.3,36.3,55.7,35.6,55.5z"/>
<path class="st40" d="M4.1,125.6l-3.5-1l3.5-0.9c0.7-0.2,1.3-0.8,1.6-1.5l1-3.5l0.9,3.5c0.2,0.7,0.8,1.3,1.5,1.6l3.5,1l-3.5,0.9
	c-0.7,0.2-1.3,0.8-1.6,1.5l-1,3.5l-0.9-3.5C5.4,126.4,4.9,125.8,4.1,125.6z"/>
</svg>
