<?xml version="1.0" encoding="utf-8"?>
<!-- Generator: Adobe Illustrator 16.0.4, SVG Export Plug-In . SVG Version: 6.00 Build 0)  -->
<!DOCTYPE svg PUBLIC "-//W3C//DTD SVG 1.1//EN" "http://www.w3.org/Graphics/SVG/1.1/DTD/svg11.dtd">
<svg version="1.1" id="Layer_1" xmlns="http://www.w3.org/2000/svg" xmlns:xlink="http://www.w3.org/1999/xlink" x="0px" y="0px"
	 width="53.375px" height="37.125px" viewBox="24.375 23.25 53.375 37.125" enable-background="new 24.375 23.25 53.375 37.125"
	 xml:space="preserve">
<g>
	<g>
		<g>
			<g>
				<g>
					<g id="XMLID_129_">
						<g id="XMLID_135_">
							<path id="XMLID_136_" fill="#ffffff" d="M34.347,50.364h-3.653c-1.859,0-3.343-1.803-3.343-3.988v-4.778
								c0-2.219,1.51-3.992,3.343-3.992h3.653V50.364z"/>
						</g>
						<g id="XMLID_130_">
							<g id="XMLID_133_">
								<path id="XMLID_134_" fill="#ffffff" d="M27.609,47.885c0,0-0.116-0.307-0.336-0.878c-0.089-0.277-0.232-0.584-0.349-1.018
									c-0.064-0.202-0.142-0.416-0.206-0.647c-0.065-0.249-0.167-0.479-0.232-0.723c-0.065-0.249-0.142-0.508-0.232-0.786
									c-0.026-0.139-0.091-0.277-0.116-0.416c-0.026-0.14-0.065-0.311-0.09-0.417c-0.065-0.31-0.142-0.617-0.208-0.895
									c-0.025-0.169-0.064-0.308-0.09-0.479c-0.026-0.169-0.09-0.338-0.142-0.476c-0.025-0.17-0.064-0.339-0.089-0.479
									c-0.027-0.076-0.027-0.169-0.027-0.248c-0.025-0.076-0.025-0.169-0.025-0.245c-0.052-0.339-0.091-0.709-0.142-1.033
									c-0.027-0.4-0.052-0.755-0.091-1.093l-0.025-0.277c0-0.108,0-0.17-0.027-0.277l-0.025-0.555l-0.039-0.555
									c0-0.17,0-0.339,0.025-0.541c0-0.169,0.027-0.338,0.027-0.539v-0.247c0-0.107,0.025-0.169,0.025-0.277
									c0.025-0.338,0.052-0.708,0.091-1.031c0.025-0.339,0.089-0.709,0.142-1.018c0.025-0.339,0.091-0.646,0.168-0.956
									c-0.013-0.169,0.039-0.338,0.064-0.477c0.025-0.078,0.025-0.17,0.052-0.247c0.025-0.077,0.025-0.169,0.051-0.201
									c0.065-0.308,0.143-0.585,0.207-0.878c0.025-0.076,0.025-0.139,0.052-0.2c0.025-0.062,0.025-0.138,0.064-0.2
									c0.025-0.139,0.09-0.248,0.116-0.401c0.09-0.247,0.142-0.478,0.207-0.725c0.09-0.199,0.142-0.417,0.206-0.616
									c0.065-0.201,0.143-0.402,0.207-0.555c0.064-0.17,0.142-0.309,0.168-0.478c0.206-0.555,0.349-0.894,0.349-0.894l0.941,0.54
									c0,0-0.089,0.308-0.283,0.878c-0.052,0.139-0.091,0.308-0.143,0.446c-0.051,0.169-0.089,0.339-0.167,0.555
									c-0.052,0.201-0.116,0.4-0.168,0.617c-0.052,0.2-0.116,0.446-0.168,0.708c-0.025,0.108-0.064,0.248-0.089,0.37
									c-0.027,0.031-0.027,0.108-0.052,0.17c0,0.061-0.025,0.138-0.025,0.199c-0.052,0.248-0.091,0.541-0.143,0.787
									c0.014,0.078,0.014,0.124,0.014,0.185c-0.025,0.078-0.025,0.139-0.025,0.201c-0.027,0.169-0.052,0.339-0.091,0.479
									c-0.025,0.307-0.09,0.584-0.116,0.893c-0.025,0.31-0.052,0.617-0.09,0.925c-0.026,0.309-0.026,0.617-0.026,0.956
									c0,0.077,0,0.169,0,0.246v0.247c0,0.169,0.026,0.339,0.026,0.478c0,0.169,0,0.338,0.026,0.477l0.025,0.508l0.025,0.479
									c0,0.076,0.027,0.169,0.027,0.247l0.025,0.246c0.052,0.309,0.091,0.646,0.142,0.956c0.065,0.308,0.116,0.616,0.168,0.925
									c0.025,0.076,0.025,0.169,0.052,0.246c0.025,0.078,0.025,0.171,0.051,0.247c0.027,0.169,0.065,0.307,0.116,0.446
									c0.027,0.17,0.065,0.31,0.091,0.417c0.025,0.138,0.064,0.309,0.116,0.416c0.091,0.277,0.168,0.555,0.258,0.817
									c0.027,0.139,0.091,0.277,0.116,0.4c0.052,0.139,0.091,0.247,0.143,0.37c0.089,0.248,0.167,0.48,0.257,0.723
									c0.09,0.249,0.168,0.416,0.258,0.647c0.091,0.203,0.143,0.405,0.232,0.555c0.143,0.341,0.284,0.711,0.4,0.959
									c0.232,0.538,0.349,0.844,0.349,0.844L27.609,47.885z"/>
							</g>
							<g id="XMLID_131_">
								<ellipse id="XMLID_132_" fill="#ffffff" cx="27.751" cy="26.219" rx="1.691" ry="2.019"/>
							</g>
						</g>
					</g>
					<g id="XMLID_121_">
						<g id="XMLID_127_">
							<path id="XMLID_128_" fill="#ffffff" d="M67.696,50.364h3.653c1.858,0,3.343-1.803,3.343-3.988v-4.778
								c0-2.219-1.511-3.992-3.343-3.992h-3.653V50.364z"/>
						</g>
						<g id="XMLID_122_">
							<g id="XMLID_125_">
								<path id="XMLID_126_" fill="#ffffff" d="M74.434,47.885c0,0,0.115-0.307,0.336-0.878c0.09-0.277,0.232-0.584,0.349-1.018
									c0.064-0.202,0.142-0.416,0.206-0.647c0.065-0.249,0.168-0.479,0.232-0.723c0.064-0.249,0.143-0.508,0.231-0.786
									c0.027-0.139,0.091-0.277,0.116-0.416c0.027-0.14,0.065-0.311,0.091-0.417c0.064-0.31,0.142-0.617,0.207-0.895
									c0.025-0.169,0.064-0.308,0.09-0.479c0.026-0.169,0.064-0.338,0.091-0.476c0.025-0.17,0.063-0.339,0.09-0.479
									c0.026-0.076,0.026-0.169,0.026-0.248c0.025-0.076,0.025-0.169,0.025-0.245c0.052-0.339,0.091-0.709,0.143-1.033
									c0.025-0.339,0.064-0.709,0.09-1.062l0.026-0.277c0-0.108,0-0.169,0.025-0.277l0.025-0.555l0.026-0.539
									c0-0.17,0-0.339-0.026-0.541c0-0.169-0.025-0.338-0.025-0.539V35.08c0-0.108-0.025-0.169-0.025-0.277
									c-0.026-0.339-0.052-0.709-0.091-1.033c-0.025-0.338-0.091-0.708-0.142-1.017c-0.026-0.338-0.091-0.647-0.168-0.955
									c-0.026-0.169-0.064-0.307-0.091-0.478c-0.025-0.076-0.025-0.169-0.051-0.246c-0.026-0.078-0.026-0.17-0.052-0.201
									c-0.064-0.308-0.142-0.585-0.207-0.878c-0.025-0.076-0.025-0.138-0.051-0.201c-0.027-0.06-0.027-0.138-0.065-0.199
									c-0.025-0.139-0.09-0.248-0.116-0.401c-0.09-0.246-0.142-0.477-0.206-0.724c-0.091-0.201-0.143-0.416-0.206-0.617
									c-0.064-0.199-0.143-0.4-0.207-0.555c-0.064-0.169-0.143-0.308-0.168-0.477c-0.207-0.555-0.348-0.894-0.348-0.894
									l-0.943,0.539c0,0,0.091,0.309,0.285,0.878c0.051,0.138,0.089,0.309,0.141,0.447c0.053,0.169,0.092,0.338,0.169,0.555
									c0.05,0.2,0.116,0.4,0.167,0.616c0.052,0.201,0.115,0.448,0.168,0.709c0.025,0.108,0.064,0.248,0.091,0.37
									c0.025,0.062,0.025,0.108,0.051,0.201c0.026,0.061,0.026,0.138,0.026,0.199c0.051,0.248,0.09,0.541,0.142,0.787
									c0.025,0.078,0.025,0.138,0.025,0.2c0.026,0.077,0.026,0.139,0.026,0.201c0.025,0.139,0.025,0.308,0.064,0.417
									c0.025,0.307,0.091,0.584,0.116,0.893c0.025,0.31,0.052,0.617,0.091,0.925c0.025,0.309,0.025,0.617,0.025,0.956
									c0,0.077,0,0.169,0,0.246v0.247c0,0.169-0.025,0.339-0.025,0.478c0,0.169,0,0.338-0.027,0.477l-0.024,0.478l-0.025,0.479
									c0,0.076-0.026,0.169-0.026,0.245l-0.025,0.248c-0.053,0.308-0.092,0.647-0.143,0.955c-0.064,0.309-0.115,0.617-0.168,0.925
									c-0.025,0.078-0.025,0.171-0.052,0.247c-0.025,0.076-0.025,0.169-0.051,0.247c-0.026,0.169-0.065,0.308-0.116,0.446
									c-0.027,0.17-0.065,0.308-0.091,0.417c-0.025,0.139-0.063,0.308-0.116,0.417c-0.091,0.277-0.168,0.554-0.258,0.816
									c-0.027,0.139-0.091,0.277-0.116,0.401c-0.052,0.139-0.091,0.246-0.142,0.37c-0.091,0.245-0.168,0.475-0.259,0.724
									s-0.168,0.416-0.258,0.647c-0.091,0.202-0.143,0.398-0.232,0.555c-0.143,0.34-0.284,0.71-0.399,0.953
									c-0.232,0.543-0.35,0.85-0.35,0.85L74.434,47.885z"/>
							</g>
							<g id="XMLID_123_">
								<ellipse id="XMLID_124_" fill="#ffffff" cx="74.291" cy="26.219" rx="1.691" ry="2.019"/>
							</g>
						</g>
					</g>
					<path fill="#ffffff" d="M46.285,43.337c-0.232,1.711-1.265-0.029-2.852-0.336c-1.574-0.31-3.034,1.018-2.801-0.726
						c0.232-1.741,1.665-2.896,3.227-2.619C45.382,39.964,46.491,41.598,46.285,43.337z"/>
					<path fill="#ffffff" d="M61.385,42.275c0.232,1.744-1.251,0.416-2.8,0.726c-1.549,0.307-2.608,2.047-2.853,0.336
						c-0.232-1.739,0.864-3.373,2.426-3.65C59.72,39.379,61.152,40.551,61.385,42.275z"/>
					<path fill="#ffffff" d="M70.613,37.606c-1.342-4.406-4.736-7.75-8.969-8.289l-3.537-0.417c-4.711-0.586-9.461-0.586-14.197,0
						l-3.537,0.417c-4.233,0.539-7.653,3.883-8.996,8.289c-0.49,1.603-0.709,3.344-0.593,5.117l0.284,4.301
						c0.065,1.155,0.284,2.276,0.607,3.34c1.29,4.194,4.453,7.338,8.337,8.06c3.627,0.712,7.279,1.035,10.945,1.035
						c3.665,0,7.318-0.341,10.944-1.035c2.452-0.479,4.595-1.878,6.169-3.911c0.941-1.202,1.691-2.624,2.17-4.195
						c0.334-1.064,0.541-2.155,0.605-3.34l0.284-4.3C71.297,40.92,71.092,39.178,70.613,37.606z M66.729,42.153l-0.283,4.299
						c-0.232,3.577-2.453,6.443-5.396,7.027c-3.29,0.618-6.684,0.953-10.053,0.953c-3.369,0-6.75-0.335-10.08-0.982
						c-2.943-0.588-5.176-3.484-5.396-7.026l-0.283-4.3c-0.259-4.161,2.285-7.782,5.769-8.26l3.433-0.417
						c2.143-0.277,4.35-0.416,6.518-0.416c2.169,0,4.35,0.138,6.518,0.416l3.434,0.417C64.471,34.34,67.013,37.977,66.729,42.153z"
						/>
					<path fill="#ffffff" d="M46.285,43.337c-0.232,1.711-1.265-0.029-2.852-0.336c-1.574-0.31-3.034,1.018-2.801-0.726
						c0.232-1.741,1.665-2.896,3.227-2.619C45.382,39.964,46.491,41.598,46.285,43.337z"/>
					<path fill="#ffffff" d="M58.611,43.001c-1.55,0.307-2.608,2.047-2.854,0.336c-0.232-1.739,0.864-3.373,2.427-3.65
						c1.549-0.308,2.995,0.894,3.228,2.621C61.631,44.019,60.173,42.723,58.611,43.001z"/>
					<g id="XMLID_120_">
						<path fill="#ffffff" d="M46.285,43.337c-0.232,1.711-1.265-0.029-2.852-0.336c-1.574-0.31-3.034,1.018-2.801-0.726
							c0.232-1.741,1.665-2.896,3.227-2.619C45.382,39.964,46.491,41.598,46.285,43.337z"/>
						<path fill="#ffffff" d="M58.611,43.001c-1.55,0.307-2.608,2.047-2.854,0.336c-0.232-1.739,0.864-3.373,2.427-3.65
							c1.549-0.308,2.995,0.894,3.228,2.621C61.631,44.019,60.173,42.723,58.611,43.001z"/>
					</g>
				</g>
				<path fill="#ffffff" d="M54.492,48.486c0,1.063-0.348,2.016-0.941,2.727s-1.393,1.127-2.283,1.127h-0.543
					c-1.794,0-3.227-1.711-3.227-3.854c0-0.202,0.064-0.398,0.193-0.509c0.116-0.138,0.258-0.231,0.426-0.231h5.769
					C54.234,47.746,54.492,48.087,54.492,48.486z"/>
			</g>
		</g>
	</g>
</g>
</svg>
