<?xml version="1.0" encoding="utf-8"?>
<!-- Generator: Adobe Illustrator 24.1.2, SVG Export Plug-In . SVG Version: 6.00 Build 0)  -->
<svg version="1.1" id="Layer_1" xmlns="http://www.w3.org/2000/svg" xmlns:xlink="http://www.w3.org/1999/xlink" x="0px" y="0px"
	 viewBox="0 0 1920 228.9" style="enable-background:new 0 0 1920 228.9;" xml:space="preserve">
<style type="text/css">
	.st0{fill:#1a8dff;}
	.st1{fill:#1a8dff;}
</style>
<g>
	<g>
		<g>
			<g id="XMLID_64_">
				<g id="XMLID_74_">
					<path id="XMLID_75_" class="st0" d="M71.5,169.7H43.2c-14.4,0-25.9-11.7-25.9-25.9v-31c0-14.4,11.7-25.9,25.9-25.9h28.3V169.7z
						"/>
				</g>
				<g id="XMLID_66_">
					<g id="XMLID_71_">
						<path id="XMLID_73_" class="st0" d="M19.3,153.6c0,0-0.9-2-2.6-5.7c-0.7-1.8-1.8-3.8-2.7-6.6c-0.5-1.3-1.1-2.7-1.6-4.2
							c-0.5-1.6-1.3-3.1-1.8-4.7c-0.5-1.6-1.1-3.3-1.8-5.1c-0.2-0.9-0.7-1.8-0.9-2.7c-0.2-0.9-0.5-2-0.7-2.7c-0.5-2-1.1-4-1.6-5.8
							c-0.2-1.1-0.5-2-0.7-3.1s-0.7-2.2-1.1-3.1c-0.2-1.1-0.5-2.2-0.7-3.1c-0.2-0.5-0.2-1.1-0.2-1.6c-0.2-0.5-0.2-1.1-0.2-1.6
							C2.3,101.4,2,99,1.6,96.9c-0.2-2.6-0.4-4.9-0.7-7.1L0.7,88c0-0.7,0-1.1-0.2-1.8l-0.2-3.6L0,79c0-1.1,0-2.2,0.2-3.5
							c0-1.1,0.2-2.2,0.2-3.5v-1.6c0-0.7,0.2-1.1,0.2-1.8C0.8,66.4,1,64,1.3,61.9c0.2-2.2,0.7-4.6,1.1-6.6c0.2-2.2,0.7-4.2,1.3-6.2
							C3.6,48,4,46.9,4.2,46c0.2-0.5,0.2-1.1,0.4-1.6c0.2-0.5,0.2-1.1,0.4-1.3c0.5-2,1.1-3.8,1.6-5.7c0.2-0.5,0.2-0.9,0.4-1.3
							c0.2-0.4,0.2-0.9,0.5-1.3c0.2-0.9,0.7-1.6,0.9-2.6c0.7-1.6,1.1-3.1,1.6-4.7c0.7-1.3,1.1-2.7,1.6-4s1.1-2.6,1.6-3.6
							c0.5-1.1,1.1-2,1.3-3.1c1.6-3.6,2.7-5.8,2.7-5.8l7.3,3.5c0,0-0.7,2-2.2,5.7c-0.4,0.9-0.7,2-1.1,2.9c-0.4,1.1-0.7,2.2-1.3,3.6
							c-0.4,1.3-0.9,2.6-1.3,4c-0.4,1.3-0.9,2.9-1.3,4.6c-0.2,0.7-0.5,1.6-0.7,2.4c-0.2,0.2-0.2,0.7-0.4,1.1c0,0.4-0.2,0.9-0.2,1.3
							c-0.4,1.6-0.7,3.5-1.1,5.1C15,45.7,15,46,15,46.4c-0.2,0.5-0.2,0.9-0.2,1.3c-0.2,1.1-0.4,2.2-0.7,3.1c-0.2,2-0.7,3.8-0.9,5.8
							s-0.4,4-0.7,6c-0.2,2-0.2,4-0.2,6.2c0,0.5,0,1.1,0,1.6V72c0,1.1,0.2,2.2,0.2,3.1c0,1.1,0,2.2,0.2,3.1l0.2,3.3l0.2,3.1
							c0,0.5,0.2,1.1,0.2,1.6l0.2,1.6c0.4,2,0.7,4.2,1.1,6.2c0.5,2,0.9,4,1.3,6c0.2,0.5,0.2,1.1,0.4,1.6s0.2,1.1,0.4,1.6
							c0.2,1.1,0.5,2,0.9,2.9c0.2,1.1,0.5,2,0.7,2.7c0.2,0.9,0.5,2,0.9,2.7c0.7,1.8,1.3,3.6,2,5.3c0.2,0.9,0.7,1.8,0.9,2.6
							c0.4,0.9,0.7,1.6,1.1,2.4c0.7,1.6,1.3,3.1,2,4.7s1.3,2.7,2,4.2c0.7,1.3,1.1,2.6,1.8,3.6c1.1,2.2,2.2,4.6,3.1,6.2
							c1.8,3.5,2.7,5.5,2.7,5.5L19.3,153.6z"/>
					</g>
					<g id="XMLID_67_">
						<circle id="XMLID_70_" class="st0" cx="20.4" cy="13" r="13.1"/>
					</g>
				</g>
			</g>
			<g id="XMLID_52_">
				<g id="XMLID_62_">
					<path id="XMLID_63_" class="st0" d="M329.9,169.7h28.3c14.4,0,25.9-11.7,25.9-25.9v-31c0-14.4-11.7-25.9-25.9-25.9h-28.3V169.7
						z"/>
				</g>
				<g id="XMLID_54_">
					<g id="XMLID_59_">
						<path id="XMLID_61_" class="st0" d="M382.1,153.6c0,0,0.9-2,2.6-5.7c0.7-1.8,1.8-3.8,2.7-6.6c0.5-1.3,1.1-2.7,1.6-4.2
							c0.5-1.6,1.3-3.1,1.8-4.7s1.1-3.3,1.8-5.1c0.2-0.9,0.7-1.8,0.9-2.7c0.2-0.9,0.5-2,0.7-2.7c0.5-2,1.1-4,1.6-5.8
							c0.2-1.1,0.5-2,0.7-3.1s0.5-2.2,0.7-3.1c0.2-1.1,0.5-2.2,0.7-3.1c0.2-0.5,0.2-1.1,0.2-1.6c0.2-0.5,0.2-1.1,0.2-1.6
							c0.4-2.2,0.7-4.6,1.1-6.7c0.2-2.2,0.5-4.6,0.7-6.9l0.2-1.8c0-0.7,0-1.1,0.2-1.8l0.2-3.6l0.2-3.5c0-1.1,0-2.2-0.2-3.5
							c0-1.1-0.2-2.2-0.2-3.5v-1.8c0-0.7-0.2-1.1-0.2-1.8c-0.2-2.2-0.4-4.6-0.7-6.7c-0.2-2.2-0.7-4.6-1.1-6.6
							c-0.2-2.2-0.7-4.2-1.3-6.2c-0.2-1.1-0.5-2-0.7-3.1c-0.2-0.5-0.2-1.1-0.4-1.6c-0.2-0.5-0.2-1.1-0.4-1.3c-0.5-2-1.1-3.8-1.6-5.7
							c-0.2-0.5-0.2-0.9-0.4-1.3c-0.2-0.4-0.2-0.9-0.5-1.3c-0.2-0.9-0.7-1.6-0.9-2.6c-0.7-1.6-1.1-3.1-1.6-4.7
							c-0.7-1.3-1.1-2.7-1.6-4S388,21,387.5,20c-0.5-1.1-1.1-2-1.3-3.1c-1.6-3.6-2.7-5.8-2.7-5.8l-7.3,3.5c0,0,0.7,2,2.2,5.7
							c0.4,0.9,0.7,2,1.1,2.9c0.4,1.1,0.7,2.2,1.3,3.6c0.4,1.3,0.9,2.6,1.3,4c0.4,1.3,0.9,2.9,1.3,4.6c0.2,0.7,0.5,1.6,0.7,2.4
							c0.2,0.4,0.2,0.7,0.4,1.3c0.2,0.4,0.2,0.9,0.2,1.3c0.4,1.6,0.7,3.5,1.1,5.1c0.2,0.5,0.2,0.9,0.2,1.3c0.2,0.5,0.2,0.9,0.2,1.3
							c0.2,0.9,0.2,2,0.5,2.7c0.2,2,0.7,3.8,0.9,5.8s0.4,4,0.7,6c0.2,2,0.2,4,0.2,6.2c0,0.5,0,1.1,0,1.6V72c0,1.1-0.2,2.2-0.2,3.1
							c0,1.1,0,2.2-0.2,3.1l-0.2,3.1l-0.2,3.1c0,0.5-0.2,1.1-0.2,1.6l-0.2,1.6c-0.4,2-0.7,4.2-1.1,6.2c-0.5,2-0.9,4-1.3,6
							c-0.2,0.5-0.2,1.1-0.4,1.6c-0.2,0.5-0.2,1.1-0.4,1.6c-0.2,1.1-0.5,2-0.9,2.9c-0.2,1.1-0.5,2-0.7,2.7c-0.2,0.9-0.5,2-0.9,2.7
							c-0.7,1.8-1.3,3.6-2,5.3c-0.2,0.9-0.7,1.8-0.9,2.6c-0.4,0.9-0.7,1.6-1.1,2.4c-0.7,1.6-1.3,3.1-2,4.7s-1.3,2.7-2,4.2
							c-0.7,1.3-1.1,2.6-1.8,3.6c-1.1,2.2-2.2,4.6-3.1,6.2c-1.8,3.5-2.7,5.5-2.7,5.5L382.1,153.6z"/>
					</g>
					<g id="XMLID_55_">
						<circle id="XMLID_58_" class="st0" cx="381" cy="13" r="13.1"/>
					</g>
				</g>
			</g>
			<path class="st0" d="M164,124.1c-1.8,11.1-9.8-0.2-22.1-2.2c-12.2-2-23.5,6.6-21.7-4.7s12.9-18.8,25-17
				C157,102.2,165.6,112.8,164,124.1z"/>
			<path class="st0" d="M281,117.2c1.8,11.3-9.7,2.7-21.7,4.7s-20.2,13.3-22.1,2.2c-1.8-11.3,6.7-21.9,18.8-23.7
				C268.1,98.4,279.2,106,281,117.2z"/>
			<path class="st0" d="M352.5,86.9c-10.4-28.6-36.7-50.3-69.5-53.8l-27.4-2.7c-36.5-3.8-73.3-3.8-110,0l-27.4,2.7
				c-32.8,3.5-59.3,25.2-69.7,53.8c-3.8,10.4-5.5,21.7-4.6,33.2l2.2,27.9c0.5,7.5,2.2,14.8,4.7,21.7c10,27.2,34.5,47.6,64.6,52.3
				c28.1,4.6,56.4,6.7,84.8,6.7s56.7-2.2,84.8-6.7c19-3.1,35.6-12.2,47.8-25.4c7.3-7.8,13.1-17,16.8-27.2c2.6-6.9,4.2-14,4.7-21.7
				l2.2-27.9C357.8,108.4,356.2,97.1,352.5,86.9z M322.4,116.4l-2.2,27.9c-1.8,23.2-19,41.8-41.8,45.6c-25.5,4-51.8,6.2-77.9,6.2
				s-52.3-2.2-78.1-6.4c-22.8-3.8-40.1-22.6-41.8-45.6l-2.2-27.9c-2-27,17.7-50.5,44.7-53.6l26.6-2.7c16.6-1.8,33.7-2.7,50.5-2.7
				s33.7,0.9,50.5,2.7l26.6,2.7C304.9,65.7,324.6,89.3,322.4,116.4z"/>
			<path class="st0" d="M164,124.1c-1.8,11.1-9.8-0.2-22.1-2.2c-12.2-2-23.5,6.6-21.7-4.7s12.9-18.8,25-17
				C157,102.2,165.6,112.8,164,124.1z"/>
			<path class="st0" d="M259.5,121.9c-12,2-20.2,13.3-22.1,2.2c-1.8-11.3,6.7-21.9,18.8-23.7c12-2,23.2,5.8,25,17
				C282.9,128.5,271.6,120.1,259.5,121.9z"/>
			<g id="XMLID_51_">
				<path class="st0" d="M164,124.1c-1.8,11.1-9.8-0.2-22.1-2.2c-12.2-2-23.5,6.6-21.7-4.7s12.9-18.8,25-17
					C157,102.2,165.6,112.8,164,124.1z"/>
				<path class="st0" d="M259.5,121.9c-12,2-20.2,13.3-22.1,2.2c-1.8-11.3,6.7-21.9,18.8-23.7c12-2,23.2,5.8,25,17
					C282.9,128.5,271.6,120.1,259.5,121.9z"/>
			</g>
		</g>
		<path class="st0" d="M227.6,157.5c0,6.9-2.7,13.1-7.3,17.7c-4.6,4.6-10.8,7.3-17.7,7.3h-4.2c-13.9,0-25-11.1-25-25
			c0-1.3,0.5-2.6,1.5-3.3c0.9-0.9,2-1.5,3.3-1.5h44.7C225.6,152.7,227.6,154.9,227.6,157.5z"/>
	</g>
	<g>
		<path class="st1" d="M615.8,17.9V199h-40.2v-74.2h-78.8V199h-40.2V17.9h40.2v71.4h78.8V17.9H615.8z"/>
		<path class="st1" d="M638.4,129.4c0-41.9,31-71.7,73.4-71.7s73.1,29.8,73.1,71.7s-30.7,71.7-73.1,71.7
			C669.3,201.1,638.4,171.3,638.4,129.4z M745.7,129.4c0-24.1-14.6-38.5-34-38.5s-34.2,14.5-34.2,38.5c0,24.1,14.9,38.5,34.2,38.5
			S745.7,153.5,745.7,129.4z"/>
		<path class="st1" d="M902.6,192.3c-7.9,6-19.6,8.8-31.5,8.8c-31.5,0-49.8-16.8-49.8-49.9V94h-20.6V63h20.6V29H860v33.9h33.2v31
			H860v56.7c0,11.9,6.2,18.4,16.6,18.4c5.7,0,11.4-1.8,15.6-5.2L902.6,192.3z"/>
		<path class="st1" d="M1086.3,149.6c0,31.3-23.8,49.4-69.4,49.4h-89.7V17.9h84.8c43.4,0,65.7,18.9,65.7,47.1
			c0,18.1-8.9,32.1-23.1,39.8C1073.9,111.3,1086.3,126.8,1086.3,149.6z M967,49.5v42.7h39.9c19.6,0,30.2-7.2,30.2-21.5
			s-10.7-21.2-30.2-21.2C1006.9,49.5,967,49.5,967,49.5z M1045.9,145.2c0-15.3-11.2-22.5-32-22.5H967v44.8h46.8
			C1034.7,167.4,1045.9,160.7,1045.9,145.2z"/>
		<path class="st1" d="M1104.1,129.4c0-41.9,31-71.7,73.4-71.7s73.1,29.8,73.1,71.7s-30.7,71.7-73.1,71.7
			C1135.1,201.1,1104.1,171.3,1104.1,129.4z M1211.4,129.4c0-24.1-14.6-38.5-34-38.5s-34.2,14.5-34.2,38.5
			c0,24.1,14.9,38.5,34.2,38.5S1211.4,153.5,1211.4,129.4z"/>
		<path class="st1" d="M1362.4,192.3c-7.9,6-19.6,8.8-31.5,8.8c-31.5,0-49.8-16.8-49.8-49.9V94h-20.6V63h20.6V29h38.7v33.9h33.2v31
			h-33.2v56.7c0,11.9,6.2,18.4,16.6,18.4c5.7,0,11.4-1.8,15.6-5.2L1362.4,192.3z"/>
		<path class="st0" d="M1559.6,17.9L1485.3,199H1437l-74.1-181.1h53l47.1,118l48.1-118C1511.1,17.9,1559.6,17.9,1559.6,17.9z"/>
		<path class="st0" d="M1699.9,26.1c11.6,5.4,20.5,13.2,26.8,23.3s9.4,21.9,9.4,35.6c0,13.6-3.1,25.4-9.4,35.4s-15.2,17.7-26.8,23.2
			c-11.6,5.4-25.2,8.1-40.9,8.1h-30.2V199h-49.1V17.9h79.3C1674.7,17.9,1688.3,20.6,1699.9,26.1z M1678.8,104.4
			c5.1-4.6,7.7-11.1,7.7-19.5s-2.6-15-7.7-19.7s-12.7-7-22.8-7h-27.3v53h27.3C1666.1,111.3,1673.7,109,1678.8,104.4z"/>
		<path class="st0" d="M1920,17.9V199h-40.4l-76.6-96.5V199h-48.1V17.9h40.4l76.6,96.5V17.9H1920z"/>
	</g>
</g>
</svg>
