<?xml version="1.0" encoding="utf-8"?>
<!-- Generator: Adobe Illustrator 16.0.4, SVG Export Plug-In . SVG Version: 6.00 Build 0)  -->
<!DOCTYPE svg PUBLIC "-//W3C//DTD SVG 1.1//EN" "http://www.w3.org/Graphics/SVG/1.1/DTD/svg11.dtd">
<svg version="1.1" id="Layer_1" xmlns="http://www.w3.org/2000/svg" xmlns:xlink="http://www.w3.org/1999/xlink" x="0px" y="0px"
	 width="38.165px" height="21.875px" viewBox="0 0 38.165 21.875" enable-background="new 0 0 38.165 21.875" xml:space="preserve">
<path fill="#141420" d="M6.799,16.193H4.107c-1.369,0-2.488-1.104-2.488-2.485V10.75c0-1.369,1.104-2.488,2.488-2.488h2.691
	L6.799,16.193L6.799,16.193z"/>
<path fill="#141420" d="M1.805,14.67c0,0-0.093-0.203-0.233-0.529c-0.077-0.172-0.171-0.373-0.265-0.623
	c-0.046-0.123-0.109-0.264-0.155-0.401c-0.047-0.142-0.125-0.298-0.171-0.451c-0.046-0.156-0.108-0.326-0.171-0.481
	c-0.031-0.078-0.063-0.17-0.093-0.265c-0.031-0.094-0.047-0.188-0.078-0.267c-0.046-0.188-0.109-0.375-0.155-0.561
	c-0.03-0.094-0.047-0.203-0.078-0.295c-0.015-0.094-0.046-0.203-0.062-0.295C0.328,10.394,0.297,10.3,0.282,10.19
	c-0.017-0.047-0.017-0.108-0.031-0.155C0.236,9.988,0.235,9.926,0.22,9.879c-0.031-0.218-0.062-0.42-0.109-0.638
	C0.095,9.022,0.064,8.806,0.049,8.588L0.033,8.37c0-0.063,0-0.109,0-0.171L0.017,7.872L0,7.545c0-0.108,0-0.218,0.016-0.327
	c0-0.109,0-0.218,0.017-0.326V6.72c0-0.062,0.016-0.109,0.016-0.171C0.063,6.331,0.094,6.112,0.11,5.896
	c0.031-0.217,0.063-0.42,0.094-0.623c0.03-0.201,0.077-0.403,0.125-0.606C0.345,4.574,0.376,4.48,0.392,4.372
	c0.015-0.047,0.015-0.093,0.031-0.14C0.439,4.185,0.454,4.138,0.47,4.091c0.046-0.188,0.109-0.357,0.156-0.529
	c0.015-0.045,0.03-0.078,0.03-0.125c0.017-0.045,0.031-0.078,0.048-0.125c0.03-0.078,0.062-0.154,0.077-0.232
	C0.844,2.924,0.89,2.769,0.937,2.628C1,2.487,1.046,2.364,1.092,2.239c0.047-0.125,0.094-0.233,0.14-0.342
	c0.047-0.109,0.094-0.203,0.141-0.28c0.155-0.343,0.249-0.544,0.249-0.544l0.699,0.326c0,0-0.077,0.188-0.218,0.529
	C2.072,2.006,2.025,2.1,1.995,2.208c-0.032,0.109-0.079,0.219-0.11,0.343C1.839,2.676,1.807,2.8,1.76,2.925
	c-0.046,0.141-0.078,0.28-0.124,0.42C1.62,3.423,1.589,3.501,1.573,3.578c-0.016,0.03-0.016,0.078-0.03,0.125
	C1.527,3.75,1.527,3.781,1.511,3.828C1.48,3.983,1.433,4.155,1.402,4.326C1.386,4.373,1.386,4.42,1.371,4.451
	c-0.017,0.047-0.017,0.094-0.017,0.14c-0.016,0.094-0.03,0.188-0.047,0.266C1.277,5.043,1.246,5.229,1.23,5.416
	s-0.046,0.39-0.062,0.576c0,0.202-0.017,0.389-0.017,0.591c0,0.046,0,0.093,0,0.154v0.156c0,0.094,0,0.203,0.017,0.295
	c0,0.094,0,0.203,0.016,0.312l0.031,0.296l0.031,0.295c0,0.047,0.016,0.094,0.016,0.156l0.031,0.154
	c0.031,0.203,0.062,0.406,0.093,0.592c0.046,0.201,0.093,0.389,0.125,0.576c0.016,0.047,0.016,0.093,0.031,0.14
	c0.016,0.046,0.016,0.093,0.03,0.14c0.031,0.094,0.048,0.188,0.078,0.28c0.031,0.093,0.047,0.187,0.078,0.28
	c0.031,0.093,0.046,0.187,0.078,0.263c0.063,0.172,0.125,0.342,0.171,0.514c0.031,0.078,0.062,0.172,0.093,0.25
	c0.031,0.078,0.063,0.154,0.094,0.232c0.062,0.156,0.125,0.297,0.187,0.451c0.063,0.141,0.125,0.279,0.171,0.404
	c0.063,0.123,0.109,0.248,0.171,0.356c0.094,0.218,0.219,0.42,0.296,0.593c0.172,0.325,0.265,0.512,0.265,0.512L1.805,14.67z"/>
<path fill="#141420" d="M1.898,2.489c0.686,0,1.245-0.561,1.245-1.245s-0.56-1.245-1.245-1.245S0.653,0.56,0.653,1.244
	S1.213,2.489,1.898,2.489z"/>
<path fill="#141420" d="M31.474,16.193h2.691c1.369,0,2.488-1.104,2.488-2.485V10.75c0-1.369-1.104-2.488-2.488-2.488h-2.691V16.193
	z"/>
<path fill="#141420" d="M36.468,14.67c0,0,0.093-0.203,0.233-0.529c0.077-0.172,0.171-0.373,0.265-0.623
	c0.047-0.123,0.109-0.264,0.156-0.401c0.046-0.142,0.125-0.298,0.171-0.451c0.047-0.156,0.108-0.326,0.171-0.481
	c0.031-0.078,0.062-0.17,0.093-0.265c0.031-0.094,0.046-0.188,0.078-0.267c0.047-0.188,0.109-0.375,0.156-0.561
	c0.03-0.094,0.046-0.203,0.078-0.295c0.016-0.094,0.047-0.203,0.063-0.295c0.016-0.109,0.046-0.203,0.063-0.312
	c0.016-0.047,0.016-0.108,0.03-0.155c0.016-0.047,0.017-0.109,0.031-0.156c0.031-0.218,0.063-0.42,0.109-0.638
	c0.015-0.219,0.046-0.436,0.062-0.653l0.017-0.171c0-0.063,0-0.109,0-0.171l0.016-0.327l0.016-0.327c0-0.108,0-0.218-0.016-0.327
	c0-0.108,0-0.218-0.016-0.326V6.767c0-0.063-0.017-0.108-0.017-0.17c-0.016-0.219-0.047-0.437-0.062-0.654
	c-0.031-0.217-0.063-0.42-0.095-0.621c-0.03-0.203-0.077-0.405-0.125-0.607c-0.015-0.093-0.046-0.188-0.062-0.295
	c-0.016-0.047-0.016-0.094-0.031-0.141c-0.015-0.047-0.031-0.092-0.046-0.139c-0.047-0.188-0.109-0.358-0.156-0.529
	c-0.016-0.047-0.03-0.078-0.03-0.125c-0.017-0.047-0.031-0.078-0.046-0.125c-0.031-0.078-0.063-0.156-0.078-0.233
	c-0.063-0.155-0.109-0.312-0.155-0.451c-0.063-0.14-0.109-0.265-0.156-0.389c-0.046-0.125-0.093-0.233-0.14-0.343
	c-0.046-0.109-0.093-0.202-0.141-0.28c-0.155-0.342-0.249-0.544-0.249-0.544l-0.699,0.327c0,0,0.078,0.187,0.218,0.528
	c0.031,0.078,0.078,0.172,0.109,0.28c0.03,0.109,0.077,0.218,0.108,0.343c0.047,0.125,0.078,0.248,0.125,0.373
	c0.047,0.139,0.078,0.279,0.125,0.42c0.017,0.078,0.047,0.154,0.063,0.232c0.016,0.031,0.016,0.078,0.03,0.125
	c0.017,0.046,0.017,0.078,0.031,0.124c0.031,0.155,0.078,0.327,0.109,0.498c0.016,0.047,0.016,0.093,0.03,0.125
	c0.017,0.047,0.017,0.093,0.017,0.14c0.015,0.094,0.031,0.188,0.046,0.264c0.031,0.188,0.063,0.375,0.078,0.561
	c0.016,0.188,0.047,0.389,0.063,0.576c0,0.202,0.017,0.389,0.017,0.591c0,0.047,0,0.093,0,0.156v0.155c0,0.094,0,0.203-0.017,0.295
	c0,0.094,0,0.203-0.016,0.312l-0.03,0.294l-0.034,0.298c0,0.045-0.016,0.092-0.016,0.154l-0.031,0.156
	c-0.03,0.201-0.062,0.404-0.093,0.591c-0.047,0.202-0.093,0.39-0.125,0.576c-0.016,0.046-0.016,0.093-0.031,0.14
	s-0.016,0.094-0.03,0.141c-0.031,0.092-0.047,0.187-0.078,0.279c-0.032,0.094-0.046,0.188-0.078,0.281
	c-0.032,0.092-0.047,0.186-0.078,0.264c-0.063,0.172-0.125,0.342-0.171,0.514c-0.031,0.078-0.063,0.17-0.093,0.25
	c-0.031,0.078-0.063,0.154-0.094,0.231c-0.063,0.156-0.125,0.298-0.187,0.451c-0.063,0.142-0.125,0.278-0.171,0.403
	c-0.063,0.123-0.109,0.248-0.171,0.357c-0.094,0.217-0.219,0.42-0.295,0.59c-0.171,0.328-0.266,0.517-0.266,0.517L36.468,14.67z"/>
<path fill="#141420" d="M36.374,2.489c0.685,0,1.245-0.561,1.245-1.245s-0.561-1.245-1.245-1.245c-0.686,0-1.245,0.561-1.245,1.245
	S35.689,2.489,36.374,2.489z"/>
<radialGradient id="SVGID_1_" cx="258.3428" cy="-192.334" r="0.9981" gradientTransform="matrix(23.8156 0 0 23.8156 -6133.7881 4576.0166)" gradientUnits="userSpaceOnUse">
	<stop  offset="0" style="stop-color:#F26522"/>
	<stop  offset="1" style="stop-color:#C82431"/>
</radialGradient>
<path fill="url(#SVGID_1_)" d="M26.993,3.144l-2.614-0.266c-3.485-0.357-7.018-0.357-10.501,0l-2.614,0.266
	c-4.247,0.45-7.39,4.138-7.063,8.324l0.201,2.677c0.28,3.578,3.019,6.502,6.627,7.078c5.368,0.87,10.845,0.87,16.212,0
	c3.608-0.576,6.348-3.5,6.628-7.078l0.201-2.677C34.398,7.281,31.256,3.594,26.993,3.144z"/>
<radialGradient id="SVGID_2_" cx="306.708" cy="-262.7358" r="1.0004" gradientTransform="matrix(0.7779 16.0245 -27.7399 1.3466 -7508.2227 -4555.9121)" gradientUnits="userSpaceOnUse">
	<stop  offset="0" style="stop-color:#F26522"/>
	<stop  offset="1" style="stop-color:#C82431"/>
</radialGradient>
<path fill="url(#SVGID_2_)" d="M12.68,2.646h13.535c5.119,0,9.257,4.139,9.257,9.254l0,0c0,5.119-4.138,9.259-9.257,9.259H12.68
	c-5.119,0-9.257-4.14-9.257-9.259l0,0C3.423,6.783,7.561,2.646,12.68,2.646z"/>
<path opacity="0.5" fill="#13131F" enable-background="new    " d="M19.136,18.749c-2.738,0-5.508-0.203-8.215-0.606
	c-2.411-0.357-4.216-2.146-4.403-4.355l-0.232-2.678C6.067,8.51,8.137,6.254,11,5.99l2.815-0.265c1.759-0.172,3.547-0.25,5.321-0.25
	c1.773,0,3.563,0.078,5.321,0.25l2.815,0.265c2.863,0.28,4.933,2.52,4.714,5.118l-0.218,2.678c-0.187,2.209-1.991,3.998-4.402,4.354
	C24.644,18.543,21.875,18.749,19.136,18.749z"/>
<path fill="#13131F" d="M19.136,18.749c-2.489,0-4.994-0.203-7.452-0.606c-2.178-0.357-3.827-2.146-3.999-4.355l-0.202-2.678
	c-0.202-2.597,1.681-4.853,4.278-5.117l2.551-0.266c1.604-0.17,3.222-0.248,4.823-0.248c1.601,0,3.236,0.078,4.823,0.248
	l2.552,0.266c2.598,0.279,4.465,2.52,4.278,5.117l-0.202,2.678c-0.171,2.209-1.806,3.998-3.999,4.355
	C24.13,18.543,21.625,18.749,19.136,18.749z"/>
<linearGradient id="SVGID_3_" gradientUnits="userSpaceOnUse" x1="4467.4922" y1="7367.8428" x2="4467.4922" y2="7430.853" gradientTransform="matrix(0.1556 0 0 0.1556 -676.0051 -1139.8286)">
	<stop  offset="0" style="stop-color:#25253C"/>
	<stop  offset="1" style="stop-color:#13131F;stop-opacity:0"/>
</linearGradient>
<path fill="url(#SVGID_3_)" d="M19.136,17.314c-2.209,0-4.45-0.153-6.628-0.479c-1.944-0.28-3.407-1.694-3.563-3.424l-0.171-2.1
	c-0.171-2.039,1.494-3.796,3.796-4.014l2.271-0.218c1.416-0.141,2.862-0.202,4.294-0.202c1.431,0,2.878,0.062,4.294,0.202
	L25.7,7.297c2.302,0.218,3.982,1.976,3.796,4.014l-0.188,2.1c-0.156,1.729-1.618,3.144-3.563,3.424
	C23.585,17.143,21.345,17.314,19.136,17.314z"/>
<path opacity="0.06" fill="#FFFFFF" enable-background="new    " d="M15.76,18.624c0,0-2.598-0.203-4.294-0.528
	c-0.327-0.063-0.949-0.279-1.198-0.421l7.67-12.182c0,0,2.863-0.109,6.005,0.233L15.76,18.624z"/>
<path opacity="0.06" fill="#FFFFFF" enable-background="new    " d="M24.441,18.436c0,0-1.385,0.17-3.313,0.267l6.721-12.37
	c0,0,1.229,0.39,2.178,1.819L24.441,18.436z"/>
<path fill="#FFFFFF" d="M15.62,12.975c-0.171,1.072-0.949-0.031-2.102-0.203c-1.15-0.188-2.225,0.623-2.068-0.448
	c0.171-1.074,1.244-1.789,2.38-1.619C14.998,10.889,15.791,11.9,15.62,12.975z"/>
<path fill="#FFFFFF" d="M22.652,12.975c0.171,1.072,0.949-0.031,2.101-0.203c1.15-0.188,2.225,0.623,2.068-0.448
	c-0.171-1.074-1.244-1.789-2.38-1.619C23.274,10.889,22.481,11.9,22.652,12.975z"/>
<rect id="_x3C_Slice_x3E_" x="-0.516" y="-0.562" fill="none" width="39" height="23"/>
</svg>
