<?xml version="1.0" encoding="utf-8"?>
<!-- Generator: Adobe Illustrator 22.0.1, SVG Export Plug-In . SVG Version: 6.00 Build 0)  -->
<svg version="1.1" id="Layer_1" xmlns="http://www.w3.org/2000/svg" xmlns:xlink="http://www.w3.org/1999/xlink" x="0px" y="0px"
	 viewBox="0 0 1217.2 808" enable-background="new 0 0 1217.2 808" xml:space="preserve">
<g>
	<g id="XMLID_20_">
		<polygon id="XMLID_30_" fill="#151922" points="1217.2,357 1122.9,357 1091,534.2 1091,357 955,357 692.8,357 692.8,474.1 
			692.8,591.1 955,591.1 1217.2,591.1 1148.5,474.1 		"/>
	</g>
	<g id="XMLID_22_">
		<polygon id="XMLID_32_" fill="#151922" points="126.2,357 126.2,534.2 94.3,357 0,357 68.6,474.1 0,591.1 262.2,591.1 
			524.3,591.1 524.3,474.1 524.3,357 262.2,357 		"/>
	</g>
	<g id="XMLID_2_">
		<g>
			<circle fill="#1A9EFE" cx="608.6" cy="404" r="404"/>
		</g>
	</g>
	<g id="XMLID_18_">
		<circle fill="#FFFFFF" cx="608.6" cy="404" r="260.1"/>
	</g>
	<g id="XMLID_3_">
		<g>
			<path id="XMLID_50_" fill="#1A9EFE" d="M608.6,670.1c-71.1,0-137.9-27.7-188.2-77.9c-50.3-50.3-77.9-117.1-77.9-188.2
				s27.7-137.9,77.9-188.2c50.3-50.3,117.1-77.9,188.2-77.9s137.9,27.7,188.2,77.9c50.3,50.3,77.9,117.1,77.9,188.2
				S847,541.9,796.8,592.2C746.5,642.5,679.7,670.1,608.6,670.1z M608.6,149.9c-140.1,0-254.1,114-254.1,254.1
				s114,254.1,254.1,254.1s254.1-114,254.1-254.1S748.7,149.9,608.6,149.9z"/>
		</g>
	</g>
	<g id="XMLID_4_">
		<rect id="XMLID_8_" x="126.2" y="260" fill="#151922" width="964.8" height="288"/>
	</g>
	<g id="XMLID_15_">
		<g>
			<g id="XMLID_59_">
				<polygon fill="#1A9EFE" points="608.6,176.8 618.3,199.1 642.5,201.4 624.3,217.6 629.6,241.3 608.6,229 587.6,241.3 
					592.9,217.6 574.6,201.4 598.9,199.1 				"/>
			</g>
			<g id="XMLID_56_">
				<g id="XMLID_58_">
					<polygon fill="#1A9EFE" points="508.7,200.1 515.4,215.4 532,217 519.5,228 523.1,244.3 508.7,235.8 494.3,244.3 498,228 
						485.4,217 502.1,215.4 					"/>
				</g>
				<g id="XMLID_57_">
					<polygon fill="#1A9EFE" points="708.4,200.1 715.1,215.4 731.7,217 719.2,228 722.8,244.3 708.4,235.8 694,244.3 697.7,228 
						685.2,217 701.8,215.4 					"/>
				</g>
			</g>
		</g>
	</g>
	<g id="XMLID_26_">
		<g>
			<polygon fill="#1A9EFE" points="608.6,567.8 618.3,590.1 642.5,592.4 624.3,608.6 629.6,632.3 608.6,620 587.6,632.3 
				592.9,608.6 574.6,592.4 598.9,590.1 			"/>
		</g>
	</g>
	<g id="XMLID_23_">
		<g>
			<g id="XMLID_37_">
				<polygon fill="#1A9EFE" points="508.7,563.8 515.4,579.1 532,580.7 519.5,591.8 523.1,608.1 508.7,599.6 494.3,608.1 498,591.8 
					485.4,580.7 502.1,579.1 				"/>
			</g>
			<g id="XMLID_36_">
				<polygon fill="#1A9EFE" points="708.4,563.8 715.1,579.1 731.7,580.7 719.2,591.8 722.8,608.1 708.4,599.6 694,608.1 
					697.7,591.8 685.2,580.7 701.8,579.1 				"/>
			</g>
		</g>
	</g>
	<g>
		<path fill="#FFFFFF" d="M330.3,414.2c4.1,5.4,6.1,12.2,6.1,20.4c0,8.5-2.3,15.8-6.9,22s-10.9,10.9-19,14.2
			c-8.1,3.3-17.2,4.9-27.4,4.9c-8.2,0-16.2-1.5-23.8-4.4c-7.6-2.9-13.9-7.5-18.8-13.7c-4.9-6.2-7.4-14-7.4-23.4h34.5
			c0,2.4,0.8,4.7,2.3,6.8c1.6,2.1,3.6,3.7,6.2,5c2.6,1.2,5.3,1.9,8.2,1.9c3.6,0,6.7-0.7,9.4-2.1s4.8-3.2,6.2-5.4s2.1-4.5,2.1-6.9
			c0-6.3-1.6-10.9-4.7-13.6s-7.7-4.1-13.8-4.1h-16.3v-17.5v-9.1h16.3c5.4,0,9.4-1.4,12.1-4.1s4.1-6.7,4.1-11.9
			c0-2.2-0.6-4.3-1.7-6.3s-2.9-3.7-5.2-4.9c-2.3-1.3-5.1-1.9-8.5-1.9c-2.4,0-4.7,0.4-6.9,1.2s-4.1,2-5.5,3.5s-2.2,3.3-2.2,5.3h-34.4
			c0-7.9,2.2-14.6,6.6-20.3c4.4-5.7,10.2-10,17.5-13c7.3-3,15.1-4.5,23.6-4.5c10.2,0,19.1,1.5,26.8,4.6c7.7,3.1,13.7,7.6,17.9,13.6
			c4.2,6,6.4,13.3,6.4,21.8c0,6.5-1.9,12.3-5.6,17.5s-8.8,9.3-15.2,12.4C320.6,404.8,326.2,408.8,330.3,414.2z"/>
		<path fill="#FFFFFF" d="M443.7,449.4c-4.1,8.7-9.9,15.3-17.3,19.7s-16,6.6-25.7,6.6c-9.8,0-18.5-2.2-25.9-6.6s-13.2-11-17.3-19.6
			s-6.2-19.3-6.2-31.8v-26.9c0-12.5,2.1-23.2,6.2-31.9s9.9-15.3,17.2-19.8c7.4-4.4,16-6.7,25.8-6.7c9.7,0,18.3,2.2,25.7,6.7
			s13.2,11.1,17.4,19.8c4.2,8.8,6.2,19.4,6.2,31.8v26.9C449.8,430.1,447.8,440.7,443.7,449.4z M411.6,366.3
			c-2.6-4.1-6.3-6.1-11.1-6.1c-4.9,0-8.6,2-11.2,6.1c-2.5,4.1-3.8,10.8-3.8,20.2v35.4c0,9.6,1.3,16.3,3.8,20.3s6.3,5.9,11.3,5.9
			c4.8,0,8.4-2,11-5.9c2.5-4,3.8-10.7,3.8-20.2v-35.4C415.4,377.1,414.1,370.4,411.6,366.3z"/>
		<path fill="#FFFFFF" d="M595.5,342.9c9.9,5.7,17.6,13.7,23.2,24c5.6,10.2,8.4,21.8,8.4,34.6v5.3c0,12.8-2.8,24.4-8.3,34.5
			c-5.6,10.2-13.2,18.2-23,23.9c-9.8,5.7-20.8,8.6-33,8.6h-31.3h-15.2V334.3H552h10C574.5,334.3,585.7,337.2,595.5,342.9z
			 M590.5,401.3c0-12.5-2.4-22-7.3-28.4c-4.9-6.4-11.9-9.6-21.3-9.6h-10V445h10.8c8.9,0,15.7-3.2,20.5-9.6s7.2-15.9,7.2-28.6
			L590.5,401.3L590.5,401.3z"/>
		<path fill="#FFFFFF" d="M722.7,450.7h-44.8l-7.1,23.1h-38.4l50.9-139.5h24.3h9.6l51.2,139.5h-38.5L722.7,450.7z M713.8,421.8
			l-13.6-44.1l-13.5,44.1H713.8z"/>
		<path fill="#FFFFFF" d="M831.1,334.3h38.4l-44.5,90v49.5h-36.4v-49.5l-44.6-90h38.4l24.3,58.1L831.1,334.3z"/>
		<path fill="#FFFFFF" d="M900.4,407.2c-6.8-3.7-12.4-8.5-16.8-14.3c-4.4-5.8-6.6-12.8-6.6-21c0-8,2.3-15,7-21
			c4.7-5.9,11.2-10.5,19.5-13.7s17.7-4.8,28.1-4.8c10.2,0,19.2,1.7,27.1,5.2c7.9,3.4,14.1,8.4,18.6,15c4.5,6.5,6.8,14.4,6.8,23.4
			h-35.6c0-4.7-1.5-8.5-4.6-11.3c-3-2.8-7.4-4.2-13.2-4.2c-3.8,0-7.1,0.5-9.9,1.6s-4.8,2.5-6.2,4.3s-2.1,3.7-2.1,5.8
			c0,3.5,2,6.5,6.1,9s10.3,5.1,18.6,7.9c15.4,5,27,11.2,34.9,18.6s11.8,16.9,11.8,28.4c0,8.4-2.1,15.6-6.4,21.6
			c-4.3,5.9-10.3,10.4-18.1,13.5s-17,4.6-27.5,4.6c-10.3,0-19.9-1.7-28.9-5.1s-16.3-8.8-21.9-16c-5.6-7.3-8.4-16.4-8.4-27.4h35.9
			c0,5.2,0.8,9.3,2.5,12.3s4.2,5.1,7.6,6.4c3.4,1.2,7.8,1.9,13.1,1.9c5.6,0,9.7-1.1,12.3-3.3c2.7-2.2,4-4.9,4-8.1
			c0-2.7-0.6-5.1-1.7-6.9c-1.1-1.9-3.4-3.8-6.8-5.6c-3.4-1.9-8.4-3.9-15-6.1C915.4,414.4,907.2,410.9,900.4,407.2z"/>
	</g>
	<g>
		<g>
			<path fill="#FFFFFF" d="M394.9,187.9c-4.9,4.7-7.3,7.1-11.9,12.1c-3-2.8-4.4-4.2-7.4-6.9c-7.5-8-11.2-11.9-18.6-20
				c5.1,12.6,10.7,25,16.8,37.1c-2.9,3.4-4.4,5.2-7.2,8.7c-13.1-3.7-26.4-6.7-39.8-9.3c9.3,5.7,13.9,8.6,23.2,14.4
				c3.3,2.4,4.9,3.6,8.2,6c-4.2,5.7-6.2,8.6-10.1,14.7c-15-9.7-30-19.4-45-29c3.9-5.9,5.8-8.8,9.9-14.5c2.3-3.2,3.4-4.7,5.8-7.8
				c12.7,2.7,25.2,5.9,37.6,9.7c-6-11.5-11.6-23.2-16.7-35.1c7.1-7.8,10.8-11.6,18.3-18.8C370.2,162,382.6,174.9,394.9,187.9z"/>
			<path fill="#FFFFFF" d="M436.5,140.4c0.1,4.7-1.1,9.1-3.4,13.3s-5.7,7.9-10.1,11.2c-4.5,3.4-9,5.6-13.7,6.8s-9.4,1.1-13.9-0.2
				c-4.6-1.3-8.7-3.9-12.3-7.9c-0.5-0.6-0.8-0.9-1.3-1.4c-3.6-4-5.8-8.4-6.4-13.2s0.3-9.7,2.8-14.6c2.5-4.9,6.4-9.4,11.6-13.3
				s10.5-6.4,15.8-7.4s10.3-0.5,14.7,1.4c4.5,1.9,8.1,5.2,10.9,9.8c0.4,0.7,0.6,1,1,1.7C435.1,131,436.5,135.7,436.5,140.4z
				 M406.7,127.4c-3.4-0.8-6.8,0-10.2,2.6c-7,5.3-7.2,12.1-0.8,20c0.5,0.6,0.8,0.9,1.3,1.6c3.1,3.8,6.4,6.1,9.6,6.9
				c3.3,0.8,6.4-0.1,9.7-2.5c3.1-2.3,4.7-5.1,4.8-8.5c0.1-3.4-1.1-7.1-3.9-11.1c-0.5-0.7-0.7-1-1.2-1.7
				C413.1,130.7,410.1,128.2,406.7,127.4z"/>
			<path fill="#FFFFFF" d="M485.2,127.8c-10.8-6.8-21.9-13-33.4-18.6c4.8,9.2,9.6,18.4,14.5,27.6c-5.7,3-8.6,4.5-14.2,7.8
				c-9.1-15.4-18.2-30.7-27.3-46.1c6.6-3.9,9.9-5.7,16.6-9.2c11.9,5.3,23.5,11.3,34.7,17.9c-4.2-9.5-8.4-19-12.6-28.5
				c6.9-3,10.4-4.4,17.4-7c6.4,16.7,12.7,33.4,19.1,50C494,124.1,491.1,125.3,485.2,127.8z"/>
			<path fill="#FFFFFF" d="M511.6,73.3c1.1,3.7,1.6,5.6,2.7,9.3c9.8-2.8,14.8-4.1,24.8-6.2c0.9,4.2,1.3,6.3,2.2,10.4
				c-9.7,2-14.5,3.2-24,6c1.2,4.2,1.9,6.3,3.1,10.6c9-2.6,18.3-4.9,27.5-6.6c0.9,4.3,1.3,6.5,2.2,10.8c-10.9,2.3-21.5,5-32.2,8.1
				c-3.9,1.2-5.8,1.8-9.6,3.1c-5.9-16.8-11.8-33.7-17.7-50.5c7.1-2.4,10.7-3.6,17.8-5.6c10.4-2.8,20.8-5.3,31.3-7.6
				c0.9,4.4,1.3,6.5,2.2,10.9C531.8,68,521.5,70.4,511.6,73.3z"/>
			<path fill="#FFFFFF" d="M585.4,49.1c8-0.6,12-0.7,19.9-0.9c-7.2,11.6-14.2,23.3-20.3,35.5c0.6,7.6,0.9,11.4,1.5,18.9
				c-6.4,0.5-9.7,0.8-16.1,1.7c-1-7.5-1.5-11.3-2.5-18.8C559.3,74.8,550,64.8,540.5,55c7.9-1.5,11.8-2.2,19.7-3.3
				c6.3,8.1,9.2,12.3,14.9,20.6C579,63,581,58.3,585.4,49.1z"/>
			<path fill="#FFFFFF" d="M636.2,84.7c0.3-4.3,0.5-6.4,0.8-10.7c9.5,0.7,19.1,1.8,28.5,3.3c-0.7,4.2-1,6.3-1.7,10.6
				C654.7,86.4,645.4,85.4,636.2,84.7z"/>
			<path fill="#FFFFFF" d="M747.8,107.2c0.7,2.6,0.5,5-0.5,7.4c-5.3,11.5-18.8,9.3-28.8,5.6c-7.2-2.6-10.9-3.8-18.2-5.9
				c-2.3-0.7-3.5-1-5.9-1.6c4.7-17.2,9.4-34.4,14.2-51.6c10.2,2.8,15.3,4.3,25.3,7.8c8.9,3.1,15.2,7,19,11.3
				c3.7,4.3,4.5,8.7,2.5,13.2c-1.1,2.4-2.7,4.2-4.9,5.5s-5,1.7-8.4,1.4C745.1,102.2,747.1,104.6,747.8,107.2z M722.9,76.9
				c-1.4,4.2-2.1,6.3-3.5,10.6c2.7,0.9,4.1,1.3,6.8,2.3c3.6,1.2,6.2,1.8,8,1.6c1.7-0.2,3-1.2,3.6-3c0.8-1.9,0.5-3.6-0.7-5.1
				c-1.2-1.4-3.6-2.8-7.1-4C727.2,78.3,725.8,77.8,722.9,76.9z M728.6,110.6c1.6-0.4,2.7-1.3,3.2-2.7c1.4-3.7-0.3-6.4-5.2-8.2
				c-4-1.4-6-2.1-10.1-3.5c-1.4,4.2-2.1,6.3-3.5,10.5c3.7,1.2,5.5,1.8,9.1,3.1C724.9,110.7,727,111,728.6,110.6z"/>
			<path fill="#FFFFFF" d="M782.1,141c-7.1-4.4-10.8-6.5-18.1-10.4c-2.8,2.5-4.2,3.8-7,6.3c-6.2-3.2-9.3-4.7-15.6-7.5
				c14.5-13.4,30.2-25.4,46.3-36.8c4.5,2.5,6.8,3.7,11.2,6.4c1.8,1,2.6,1.6,4.4,2.6c-1.8,19.7-4.4,39.2-8.5,58.6
				c-5.7-4.1-8.7-6.1-14.6-9.9C781,146.6,781.4,144.7,782.1,141z M784.4,129.4c1.3-7.1,1.8-10.7,2.8-18c-5.8,4.5-8.6,6.8-14.2,11.5
				C777.6,125.4,779.9,126.7,784.4,129.4z"/>
			<path fill="#FFFFFF" d="M841.4,189.2c-3.7,0.3-7.6-0.4-11.7-2.1c-4.1-1.7-8-4.3-12-7.8c-4.4-3.8-7.5-7.8-9.5-12
				c-2-4.3-2.7-8.6-2.1-13.1c0.6-4.5,2.4-9,5.6-13.4c0.5-0.7,0.8-1.1,1.3-1.8c3.2-4.4,7-7.4,11.4-9.1c4.4-1.7,9.2-1.9,14.3-0.6
				c5.1,1.3,10.1,4.1,15,8.3c4.9,4.3,8.5,8.8,10.8,13.3c2.2,4.5,3.2,8.7,2.9,12.6c-0.3,3.9-1.7,7.3-4.2,10.3
				c-5.2-5.4-7.8-8.1-13.2-13.2c2-2.1,2.7-4.3,2.2-6.6s-2.4-5-5.8-7.9c-2.1-1.9-4.1-3-6.1-3.3c-1.9-0.4-3.9,0-6,1.2
				c-2,1.2-4.3,3.2-6.7,6.1c-0.6,0.7-0.9,1.1-1.5,1.8c-2.5,3-4.1,5.6-4.9,7.8c-0.8,2.1-0.9,4.1-0.2,5.8c0.6,1.7,2.1,3.5,4.2,5.4
				c2.7,2.3,5.1,3.7,7.3,4.1c2.2,0.4,4.3-0.4,6.2-2.4c5.1,4.8,7.7,7.3,12.6,12.5C848.5,187.5,845.2,188.9,841.4,189.2z"/>
			<path fill="#FFFFFF" d="M889.2,212.7c-3.2,12.2-7.1,24.3-11.5,36.1c-4.5-7.2-6.8-10.7-11.7-17.4c3-8.7,4.4-13.1,6.9-22.2
				c-3.5-0.8-5.2-1.1-8.6-1.8c-4.1,3.3-6.1,5-10.2,8.4c-4.4-5.3-6.6-7.9-11.2-13c13.2-12.1,26.4-24.1,39.5-36.2
				c5.4,5.9,8,8.9,13.1,15.2c-7.1,5.8-10.6,8.7-17.7,14.5c3.7,0.1,5.5,0.2,9.2,0.3c8.7,0.8,13.1,1.3,22,2.7
				c6,8.2,8.8,12.5,14.3,21.3C912.1,217.5,900.7,214.7,889.2,212.7z"/>
		</g>
	</g>
	<g>
		<g>
			<path fill="#FFFFFF" d="M331.5,626.4c8.7-7.4,17.4-14.7,26.1-22.1c-4.4-3.5-6.7-5.3-11-9.1c2.9-2.3,4.4-3.4,7.3-5.7
				c9.1,6.9,13.8,10,23.1,15.7c0.3,0.4,0.5,0.6,0.8,0.9c-11.8,10.9-23.5,21.8-35.3,32.7C338,634,335.8,631.5,331.5,626.4z"/>
			<path fill="#FFFFFF" d="M394.2,674.6c-3.3,1.3-6.8,1.4-10.5,0.5c-3.6-1-7.3-2.9-10.7-5.9c-3.5-3-6.1-6.3-7.7-9.8s-2-7-1.3-10.5
				s2.6-6.8,5.6-9.9c2.6-2.7,3.9-4,6.5-6.7c3-3.1,6.2-5.1,9.6-6.1c3.3-1,6.7-1,9.9-0.1c3.3,0.9,6.4,2.7,9.5,5.3
				c3,2.6,5.2,5.4,6.6,8.5s1.9,6.4,1.5,9.8c-0.5,3.5-1.9,6.9-4.5,10.4c-2.2,3-3.3,4.5-5.6,7.5C400.5,671,397.6,673.3,394.2,674.6z
				 M401,643.3c0.1-1.8-0.7-3.3-2.2-4.6c-1.6-1.3-3.2-1.8-4.9-1.5c-1.7,0.3-3.7,1.7-5.8,4.2c-3.2,3.7-4.9,5.5-8.1,9.1
				c-2.2,2.5-3.3,4.6-3.3,6.4c0,1.8,0.9,3.5,2.6,4.9s3.4,2,5.2,1.7c1.8-0.3,3.7-1.8,5.8-4.3c3.1-3.8,4.6-5.7,7.7-9.5
				C399.9,647.3,401,645.1,401,643.3z"/>
			<path fill="#FFFFFF" d="M437.4,702.7c-3.1,1.7-6.5,2.5-10.2,2.1s-7.5-1.8-11.3-4.1c-3.8-2.4-6.8-5.2-8.8-8.4s-2.9-6.6-2.7-10.1
				c0.2-3.5,1.6-7,4.1-10.6c2.2-3,3.2-4.5,5.4-7.6c2.5-3.5,5.4-6,8.5-7.5s6.3-2,9.7-1.6c3.3,0.4,6.6,1.6,9.9,3.7
				c3.3,2.1,5.8,4.5,7.6,7.3c1.8,2.8,2.7,6,2.7,9.4c0,3.5-1,7.1-3,10.9c-1.8,3.3-2.7,4.9-4.4,8.2C443,698.2,440.5,701,437.4,702.7z
				 M439.8,671c-0.2-1.8-1.1-3.2-2.8-4.2c-1.7-1.1-3.4-1.3-5-0.7s-3.3,2.3-5.1,5c-2.7,4.1-4,6.1-6.7,10.2c-1.8,2.8-2.6,5-2.4,6.8
				s1.3,3.3,3.2,4.4c1.8,1.1,3.6,1.4,5.3,0.8c1.7-0.6,3.3-2.3,5-5.1c2.5-4.2,3.8-6.3,6.3-10.5C439.3,675,440,672.7,439.8,671z"/>
			<path fill="#FFFFFF" d="M463.8,676.5c1.5-0.9,3.3-1.3,5.4-1.3s4.3,0.6,6.7,1.7c2.5,1.1,4.4,2.5,5.7,4c1.4,1.6,2.2,3.2,2.4,4.9
				c0.3,1.7,0,3.5-0.7,5.2c-0.4,0.9-0.6,1.4-1,2.4c-0.7,1.7-1.8,3.1-3.3,4.1s-3.3,1.5-5.4,1.5c-2.2,0-4.6-0.6-7.2-1.8
				s-4.6-2.7-6-4.3c-1.4-1.7-2.2-3.4-2.4-5.2c-0.2-1.8,0.1-3.5,1-5.1c0.5-0.9,0.7-1.4,1.2-2.3C461,678.7,462.2,677.4,463.8,676.5z
				 M466.9,689.1c0.3,0.9,1.1,1.6,2.3,2.1c1.1,0.5,2.2,0.6,3,0.3c0.9-0.3,1.5-0.9,1.9-1.7c0.4-0.9,0.6-1.4,1.1-2.3
				c0.4-0.9,0.4-1.8,0.1-2.6c-0.3-0.9-1.1-1.5-2.2-2.1c-1.1-0.5-2.1-0.6-3-0.3s-1.5,0.9-2,1.7c-0.4,0.9-0.7,1.4-1.1,2.3
				C466.6,687.4,466.6,688.3,466.9,689.1z M454.2,713.7c14.2-6.8,28.1-14.5,41.3-23.3c2,1.9,2.9,2.8,4.9,4.7c-13,9-26.8,16.9-41,24
				C457.3,717,456.2,715.9,454.2,713.7z M477.5,712.6c1.5-1,3.4-1.5,5.6-1.6s4.6,0.4,7.3,1.4c2.7,1,4.9,2.2,6.5,3.7s2.7,3.1,3.1,4.8
				c0.5,1.7,0.4,3.5-0.2,5.3c-0.3,1-0.5,1.5-0.8,2.4c-0.6,1.8-1.6,3.2-3,4.3s-3.3,1.7-5.6,1.9c-2.3,0.2-4.9-0.3-7.8-1.4
				c-2.9-1.1-5.2-2.4-6.8-4c-1.7-1.6-2.7-3.3-3.1-5.1s-0.3-3.5,0.4-5.3c0.4-0.9,0.6-1.4,1-2.4C474.8,714.9,476,713.6,477.5,712.6z
				 M482.5,725.2c0.6,0.9,1.4,1.6,2.5,2c1.6,0.6,2.8,0.7,3.5,0.3s1.2-1,1.6-2.1c0.3-1,0.5-1.4,0.9-2.4c0.3-0.9,0.2-1.8-0.2-2.6
				c-0.5-0.8-1.3-1.5-2.6-2c-1.2-0.5-2.3-0.5-3.2-0.2c-0.9,0.3-1.5,0.9-1.9,1.8c-0.4,1-0.5,1.4-0.9,2.4
				C481.7,723.4,481.9,724.2,482.5,725.2z"/>
			<path fill="#FFFFFF" d="M571.5,750.4c-2.4,0.7-5.3,1.2-8.7,1.5c-3.4,0.2-7.2,0-11.4-0.6c-5.6-0.9-10.2-2.7-13.9-5.3
				s-6.2-5.9-7.6-9.8c-1.4-3.9-1.4-8.3-0.2-13.1c0.2-1,0.3-1.4,0.6-2.4c1.1-4.8,3.2-8.7,6-11.7s6.1-5,10-6.1
				c3.8-1.1,7.9-1.3,12.4-0.6c7.2,1.2,12.4,3.3,15.7,6.6s5,7.6,5.1,13c-5.6-0.5-8.3-0.8-13.9-1.5c-0.1-2.4-0.7-4.3-1.9-5.6
				s-3.2-2.1-6.1-2.6c-3-0.5-5.6,0.2-7.8,2.1c-2.2,1.9-3.8,5-4.6,9.5c-0.2,1-0.3,1.5-0.5,2.5c-0.9,4.5-0.6,8.1,0.9,10.6
				s4.4,4.1,8.7,4.8c1.8,0.3,3.4,0.4,4.8,0.2c1.4-0.1,2.4-0.4,3.1-0.7c0.3-2.6,0.5-3.9,0.9-6.5c-3.7-0.5-5.6-0.8-9.3-1.4
				c0.6-3.4,0.8-5.2,1.4-8.6c9.5,1.5,14.3,2.1,23.9,3c-0.7,8.1-1.1,12.2-1.8,20.3C575.7,748.8,573.9,749.7,571.5,750.4z"/>
			<path fill="#FFFFFF" d="M624.5,719c0.6,11.9,1.1,23.8,1.7,35.8c-5.7,0.3-8.6,0.3-14.3,0.4c-0.2-1.6-0.3-2.4-0.5-3.9
				c-1.4,1.5-3.2,2.6-5.3,3.4c-2.1,0.8-4.4,1.1-6.9,1.1c-4.8-0.1-8.6-1.4-11.2-3.7c-2.6-2.3-3.7-5.8-3.4-10.3
				c0.6-9.2,1-13.9,1.6-23.1c5.5,0.4,8.3,0.5,13.8,0.7c-0.3,9.3-0.4,13.9-0.6,23.2c0,1.1,0.4,2.1,1.3,2.7c0.9,0.7,2.2,1,3.9,1.1
				c3,0,5-0.7,6.2-2.3c0-9.8-0.1-14.8-0.1-24.6C616.2,719.3,619,719.3,624.5,719z"/>
			<path fill="#FFFFFF" d="M672.1,745.8c0.5,1.1,1.2,2.1,2.1,3c0,0.2,0.1,0.3,0.1,0.6c-6,1.1-9.1,1.6-15.1,2.4
				c-0.6-0.7-1.2-1.7-1.7-2.9c-1,1.3-2.4,2.4-4,3.3c-1.6,0.9-3.8,1.4-6.4,1.7c-2.8,0.3-5.4,0.1-7.9-0.6c-2.5-0.7-4.5-1.8-6-3.4
				c-1.5-1.5-2.3-3.4-2.5-5.5c-0.2-3.7,1.3-6.7,4.6-9c3.2-2.3,8.3-3.7,15.2-4.6c1.5-0.2,2.2-0.3,3.7-0.5c-0.1-0.7-0.1-1-0.2-1.6
				c-0.2-1.4-0.7-2.5-1.5-3.1c-0.8-0.7-2-0.9-3.6-0.7c-1.4,0.2-2.4,0.5-3,1.2c-0.6,0.6-0.9,1.5-0.7,2.8c-5.7,0.6-8.5,0.8-14.3,1.2
				c-0.2-2.4,0.5-4.5,1.9-6.4s3.5-3.5,6.2-4.7c2.7-1.3,5.9-2.1,9.6-2.5c3.4-0.4,6.4-0.3,9.2,0.2s5.1,1.7,7,3.4
				c1.8,1.7,3,3.9,3.5,6.6c1,5.5,1.5,8.3,2.4,13.8C671.2,742.9,671.6,744.7,672.1,745.8z M653.6,743.8c1-0.6,1.7-1.2,2.1-1.9
				c-0.3-2.1-0.4-3.1-0.7-5.2c-1.6,0.2-2.5,0.3-4.1,0.5c-2.1,0.3-3.6,0.9-4.4,1.9c-0.8,1.1-1.2,2.2-1,3.5c0.1,0.8,0.5,1.4,1.4,1.8
				c0.8,0.4,1.8,0.5,3,0.4C651.3,744.7,652.6,744.3,653.6,743.8z"/>
			<path fill="#FFFFFF" d="M698.2,706.8c1.2,4.5,1.8,6.8,2.9,11.3c-0.4,0.1-0.7,0.1-1.1,0.2c-1.5,0.3-2.7,0.5-3.4,0.7
				c-2.1,0.5-3.7,1.2-4.8,2s-1.9,1.7-2.2,2.8c2.1,8.5,3.1,12.7,5.1,21.2c-6,1.4-9,2.1-15,3.3c-2.3-11.7-4.6-23.4-7-35.1
				c5.1-1,7.6-1.5,12.6-2.7c0.6,1.8,0.9,2.7,1.6,4.5c0.6-1.9,1.6-3.5,2.9-4.8c1.3-1.3,2.9-2.2,4.7-2.7
				C696,707.1,697.2,706.8,698.2,706.8z"/>
			<path fill="#FFFFFF" d="M749,723.2c0.8,1,1.6,1.8,2.7,2.4c0.1,0.2,0.1,0.3,0.2,0.5c-5.7,2.4-8.6,3.6-14.4,5.7
				c-0.7-0.5-1.5-1.4-2.3-2.4c-0.7,1.5-1.8,2.9-3.2,4.1c-1.4,1.2-3.4,2.2-6,3.1c-2.7,0.9-5.3,1.3-7.9,1.1c-2.6-0.1-4.8-0.8-6.6-2
				s-3-2.8-3.6-4.8c-1-3.6-0.2-6.9,2.5-9.8c2.7-2.9,7.3-5.5,14-7.8c1.4-0.5,2.1-0.8,3.6-1.3c-0.2-0.6-0.3-0.9-0.6-1.6
				c-0.5-1.3-1.2-2.2-2.2-2.7c-0.9-0.5-2.2-0.4-3.7,0.1c-1.3,0.5-2.2,1.1-2.7,1.8s-0.5,1.7-0.1,2.9c-5.5,1.9-8.2,2.7-13.7,4.3
				c-0.7-2.3-0.5-4.5,0.5-6.7s2.6-4.2,5-6s5.3-3.3,8.9-4.6c3.2-1.1,6.3-1.8,9.1-1.8s5.4,0.5,7.6,1.7c2.2,1.2,3.8,3.1,4.9,5.7
				c2.2,5.2,3.3,7.8,5.5,13C747.4,720.6,748.2,722.2,749,723.2z M730.3,725.4c0.9-0.8,1.4-1.6,1.7-2.4c-0.7-2-1.1-2.9-1.8-4.9
				c-1.6,0.6-2.4,0.9-3.9,1.4c-2,0.7-3.3,1.7-3.9,2.9c-0.6,1.2-0.6,2.4-0.2,3.7c0.3,0.8,0.8,1.2,1.7,1.4s1.9,0.1,3-0.3
				C728.3,726.8,729.4,726.2,730.3,725.4z"/>
			<path fill="#FFFFFF" d="M775.1,677.5c3.2,0.7,6.1,3.2,8.7,7.6c4.6,7.6,6.8,11.5,11.4,19.1c-5.4,3.2-8.2,4.8-13.8,7.8
				c-4.2-7.8-6.3-11.8-10.6-19.6c-0.6-1.1-1.3-1.9-2-2.3c-0.7-0.4-1.5-0.5-2.3-0.3s-1.9,0.6-3.1,1.2c-2.1,1.1-3.4,2.5-3.8,4.2
				c4.4,8.9,6.7,13.4,11.1,22.4c-5.6,2.8-8.5,4.1-14.2,6.6c-4.8-10.9-9.7-21.8-14.5-32.7c4.8-2.1,7.2-3.2,12-5.6
				c0.9,1.4,1.4,2.1,2.3,3.5c0.6-2.1,1.6-3.9,3.1-5.6c1.5-1.7,3.3-3.1,5.5-4.3C768.6,677.5,772,676.8,775.1,677.5z"/>
			<path fill="#FFFFFF" d="M818.5,677.8c2.1,2.8,3.1,4.3,5.2,7.1c-1.7,2.1-3.9,4.1-6.5,5.9c-4.3,3-8,4.4-11.2,4.3
				c-3.2-0.1-5.8-1.8-7.9-5.1c-3.5-5.6-5.3-8.4-8.9-14c-1.8,1.1-2.7,1.7-4.4,2.8c-1.8-2.9-2.7-4.4-4.5-7.3c1.7-1.1,2.6-1.6,4.3-2.7
				c-1.9-3-2.9-4.6-4.8-7.6c4.7-3,7-4.5,11.6-7.7c2.1,3,3.1,4.4,5.1,7.4c2.3-1.6,3.4-2.4,5.7-4.1c2,2.8,3,4.2,5,6.9
				c-2.3,1.7-3.5,2.5-5.8,4.2c3.4,4.8,5,7.3,8.4,12.1c0.5,0.7,1,1.2,1.5,1.5s1.1,0.3,1.7,0.1c0.7-0.2,1.5-0.7,2.6-1.4
				C817,679,818,678.3,818.5,677.8z"/>
			<path fill="#FFFFFF" d="M852,643.2c-6.8,6.7-14,13.1-21.4,19.1c1.5,0.8,3.1,1.1,5,0.7c1.8-0.4,3.7-1.4,5.6-3.1
				c1.6-1.4,2.9-2.9,4-4.6c1.1-1.7,1.7-3.4,1.8-5.2c3.9,0.1,5.9,0.2,9.9,0.2c0,1.5-0.4,3.3-1.2,5.2c-0.8,2-1.9,4-3.4,6.2
				s-3.4,4.2-5.6,6.1c-4,3.4-8,5.7-12,6.9s-7.6,1.2-10.8,0.3s-5.7-2.7-7.5-5.2c-0.3-0.4-0.4-0.6-0.7-1c-2.1-2.8-3.3-5.8-3.7-9
				s0.2-6.4,1.7-9.7s4.1-6.4,7.7-9.5c3.1-2.7,6.3-4.6,9.5-5.6c3.2-1.1,6.3-1.2,9.4-0.5c3,0.7,5.8,2.4,8.3,5
				C849.9,641,850.6,641.7,852,643.2z M827.5,648.1c-1.6,1.3-2.4,2.7-2.6,4.1c-0.2,1.4,0.1,2.9,0.9,4.4c4.1-3.4,6.1-5.1,10.1-8.6
				c-0.3-0.3-0.4-0.4-0.6-0.7C833.3,644.9,830.8,645.2,827.5,648.1z"/>
			<path fill="#FFFFFF" d="M885.4,605.9c-6,7.8-12.4,15.4-19.1,22.6c1.6,0.6,3.3,0.6,5.1-0.1c1.8-0.7,3.6-2,5.3-4
				c1.4-1.7,2.6-3.4,3.4-5.3c0.9-1.8,1.3-3.7,1.2-5.5c4-0.5,6-0.8,10-1.4c0.1,1.5,0,3.4-0.5,5.4c-0.5,2.1-1.4,4.4-2.6,6.8
				c-1.3,2.4-2.9,4.8-4.9,7.1c-3.6,4.1-7.3,7-11.2,8.8s-7.5,2.4-10.8,2s-6-1.8-8.2-4c-0.3-0.3-0.5-0.5-0.9-0.9
				c-2.4-2.5-4-5.3-4.9-8.4c-0.8-3.1-0.7-6.5,0.4-10c1.1-3.5,3.3-7.1,6.5-10.8c2.8-3.2,5.7-5.6,8.8-7.2c3.1-1.6,6.2-2.3,9.4-2
				c3.1,0.2,6.2,1.4,9,3.7C883,604,883.8,604.6,885.4,605.9z M861.3,614.7c-1.4,1.6-2.1,3.1-2.1,4.5s0.5,2.9,1.5,4.3
				c3.7-4,5.5-6.1,9.1-10.3c-0.3-0.2-0.4-0.4-0.7-0.6C866.8,610.6,864.2,611.4,861.3,614.7z"/>
		</g>
	</g>
</g>
</svg>
