<?xml version="1.0" encoding="utf-8"?>
<!-- Generator: Adobe Illustrator 23.0.1, SVG Export Plug-In . SVG Version: 6.00 Build 0)  -->
<svg version="1.1" id="Layer_1" xmlns="http://www.w3.org/2000/svg" xmlns:xlink="http://www.w3.org/1999/xlink" x="0px" y="0px"
	 viewBox="0 0 556.3 480.1" style="enable-background:new 0 0 556.3 480.1;" xml:space="preserve">
<style type="text/css">
	.st0{fill:#FFFFFF;}
	.st1{fill:#00073B;}
	.st2{fill:url(#SVGID_1_);}
	.st3{fill:url(#SVGID_2_);}
	.st4{fill:url(#SVGID_3_);}
	.st5{fill:url(#SVGID_4_);}
	.st6{fill:url(#SVGID_5_);}
	.st7{fill:url(#SVGID_6_);}
	.st8{fill:url(#SVGID_7_);}
	.st9{fill:url(#SVGID_8_);}
	.st10{fill:url(#SVGID_9_);}
	.st11{fill:url(#SVGID_10_);}
	.st12{fill:url(#SVGID_11_);}
	.st13{fill:url(#SVGID_12_);}
	.st14{fill:url(#SVGID_13_);}
	.st15{fill:url(#SVGID_14_);}
</style>
<title>flag</title>
<g>
	<g>
		<g id="Layer_3">
			<path class="st0" d="M556.4,0c0,0-57.4-4.4-104,77.3s-67.6,131.3-106,174.6s-75.6,40.5-81.6,40.6s-47.7,1.1-72.9,27.6
				c-25.2,26.5-31.9,28.8-56.9,64.9S70,482.7,0.5,480.1L0,1.1L556.4,0z"/>
			<path class="st1" d="M298.2,0.2c0,0-53.6,16.1-71.7,68.5c-17.8,52.4-27.9,86.8-78.9,81.8c0,0-91.4-64.6-147.7-47.6V0.2H298.2z"/>
			
				<linearGradient id="SVGID_1_" gradientUnits="userSpaceOnUse" x1="280.9" y1="-628.0549" x2="555.1" y2="-628.0549" gradientTransform="matrix(1 0 0 -1 0 -606.1102)">
				<stop  offset="0" style="stop-color:#720000"/>
				<stop  offset="1" style="stop-color:#DE0000"/>
			</linearGradient>
			<path class="st2" d="M280.9,7.6c0,0,148.1,4.6,194.6,36.1c0,0,35.8-44.3,79.6-43.5H298.2C292.3,2.2,286.5,4.7,280.9,7.6z"/>
			
				<linearGradient id="SVGID_2_" gradientUnits="userSpaceOnUse" x1="225.5" y1="-689.7155" x2="452" y2="-689.7155" gradientTransform="matrix(1 0 0 -1 0 -606.1102)">
				<stop  offset="0" style="stop-color:#720000"/>
				<stop  offset="1" style="stop-color:#DE0000"/>
			</linearGradient>
			<path class="st3" d="M244.4,37.1c0,0,73.4-9.6,104.9,4s88,36.2,102.7,34.5c0,0-22.4,37.2-33.4,57.8c0,0-78.4-49.3-106.3-57.8
				S225.5,73,225.5,73C229.3,59.9,235.7,47.7,244.4,37.1z"/>
			
				<linearGradient id="SVGID_3_" gradientUnits="userSpaceOnUse" x1="194.4" y1="-783.8602" x2="392.3" y2="-783.8602" gradientTransform="matrix(1 0 0 -1 0 -606.1102)">
				<stop  offset="0" style="stop-color:#720000"/>
				<stop  offset="0.9944" style="stop-color:#DE0000"/>
			</linearGradient>
			<path class="st4" d="M214.6,103.3c0,0,48.6,3.3,87.5,15.6c33.4,10.8,90.2,62.8,90.2,62.8s-25.5,47.6-47.9,70.5
				c0,0,1.2-70.2-51.9-89.8c-23.8-8.9-44-21.5-98.1-25.4C194.4,137,204,129.4,214.6,103.3z"/>
			
				<linearGradient id="SVGID_4_" gradientUnits="userSpaceOnUse" x1="147.6" y1="-826.9603" x2="309.7739" y2="-826.9603" gradientTransform="matrix(1 0 0 -1 0 -606.1102)">
				<stop  offset="0" style="stop-color:#720000"/>
				<stop  offset="1" style="stop-color:#DE0000"/>
			</linearGradient>
			<path class="st5" d="M171,149.6c0,0,59.4,10.4,80.8,29.6c18.8,16.7,61.8,67.4,57.7,100.9c-12,6.6-25.3,10.2-39,10.7
				c-6,0.3-12.5,0-21.4,1.3c0,0-5.8-59.3-38-88.3c-32.5-28.9-63.5-53.4-63.5-53.4S161.9,151.9,171,149.6z"/>
			
				<linearGradient id="SVGID_5_" gradientUnits="userSpaceOnUse" x1="0" y1="-839.0103" x2="205.4007" y2="-839.0103" gradientTransform="matrix(1 0 0 -1 0 -606.1102)">
				<stop  offset="0" style="stop-color:#720000"/>
				<stop  offset="1" style="stop-color:#DE0000"/>
			</linearGradient>
			<path class="st6" d="M0,122.4c0,0,46.7,5.9,72.2,27.2c25.7,21.3,29.3,57.6,60.1,71.3c30.5,13.7,73.3,45.5,73.1,87.1
				c0,0-19.2,11.7-39.9,35.4c0,0-19.2-58-48.6-69.3s-34.4-27.9-56-64.9C39,172.1,0,165.9,0,165.9V122.4z"/>
			
				<linearGradient id="SVGID_6_" gradientUnits="userSpaceOnUse" x1="0" y1="-941.8102" x2="131.8" y2="-941.8102" gradientTransform="matrix(1 0 0 -1 0 -606.1102)">
				<stop  offset="0" style="stop-color:#720000"/>
				<stop  offset="1" style="stop-color:#DE0000"/>
			</linearGradient>
			<path class="st7" d="M0,228.1c0,0,84.7,51.2,102.7,98.5s29.1,61.5,29.1,61.5s-26.9,39.2-45,55.2c0,0-52-116.6-86.8-137V228.1z"/>
			
				<linearGradient id="SVGID_7_" gradientUnits="userSpaceOnUse" x1="3.000000e-02" y1="-1038.6079" x2="20.8837" y2="-1038.6079" gradientTransform="matrix(1 0 0 -1 0 -606.1102)">
				<stop  offset="0" style="stop-color:#720000"/>
				<stop  offset="1" style="stop-color:#DE0000"/>
			</linearGradient>
			<path class="st8" d="M0,385.3c0,0,24.3,66.9,20.4,92.6c0,0-12.3,2.5-20.4,1.6V385.3z"/>
			
				<linearGradient id="SVGID_8_" gradientUnits="userSpaceOnUse" x1="198.4404" y1="-595.5872" x2="224.7504" y2="-631.5271" gradientTransform="matrix(1 0 0 -1 0 -606.1102)">
				<stop  offset="0" style="stop-color:#283156"/>
				<stop  offset="1" style="stop-color:#FFFFFF"/>
			</linearGradient>
			<polygon class="st9" points="239.8,16.4 224.2,18.2 220.8,33.8 215,19.3 199.6,21.3 211.4,10.6 207.1,0.3 212.1,0.3 218.4,4.1 
				222.7,0.3 228.5,0.3 226.6,8.8 			"/>
			<polygon class="st0" points="204.4,62.8 208.1,47.2 196,57.9 182.1,49.7 188.8,64.4 176.6,74.9 192.7,73.3 199.2,88.1 
				199.2,88.1 199.2,88.1 202.5,72.3 218.4,70.9 			"/>
			
				<linearGradient id="SVGID_9_" gradientUnits="userSpaceOnUse" x1="132.9687" y1="-636.3513" x2="159.4987" y2="-665.4315" gradientTransform="matrix(1 0 0 -1 0 -606.1102)">
				<stop  offset="0" style="stop-color:#283156"/>
				<stop  offset="1" style="stop-color:#FFFFFF"/>
			</linearGradient>
			<polygon class="st10" points="153.9,43.3 158.8,28.3 148.2,39.8 138.1,33.8 141.4,46.7 130.6,57.9 143.4,54.5 146.7,67.4 
				146.7,67.4 146.7,67.4 151.3,52.3 164.1,49.1 			"/>
			
				<linearGradient id="SVGID_10_" gradientUnits="userSpaceOnUse" x1="85.5877" y1="-638.9724" x2="59.2777" y2="-608.7422" gradientTransform="matrix(1 0 0 -1 0 -606.1102)">
				<stop  offset="0" style="stop-color:#FFFFFF"/>
				<stop  offset="1" style="stop-color:#283156"/>
			</linearGradient>
			<polygon class="st11" points="84.9,30.6 100.8,28.5 86.6,21.3 89.3,5.8 77.9,16.7 63.8,9.3 71,23.4 59.4,34.1 59.4,34.1 
				59.4,34.1 75.3,31.9 82.3,46.1 			"/>
			<polygon class="st0" points="130.9,0.3 130.4,0.4 126.5,15.8 121.7,1.8 107.1,4.4 111.4,0.3 			"/>
			
				<linearGradient id="SVGID_11_" gradientUnits="userSpaceOnUse" x1="46.9222" y1="-682.1505" x2="17.0422" y2="-644.8004" gradientTransform="matrix(1 0 0 -1 0 -606.1102)">
				<stop  offset="0" style="stop-color:#FFFFFF"/>
				<stop  offset="1" style="stop-color:#283156"/>
			</linearGradient>
			<polygon class="st12" points="45.2,60.4 48.6,44.6 36.6,55.3 22.6,47.1 29.4,61.8 17.1,72.3 33.5,70.7 40,85.7 40,85.7 40,85.7 
				43.1,69.9 59.4,68.6 			"/>
			
				<linearGradient id="SVGID_12_" gradientUnits="userSpaceOnUse" x1="43.0618" y1="-644.0178" x2="-2.0282" y2="-611.5379" gradientTransform="matrix(1 0 0 -1 0 -606.1102)">
				<stop  offset="0" style="stop-color:#FFFFFF"/>
				<stop  offset="1" style="stop-color:#283156"/>
			</linearGradient>
			<polygon class="st13" points="31.3,19.5 15.4,20.8 12.1,36.6 5.8,21.8 0,22.4 0,14.6 2,12.9 0,8.8 0,1.1 9.2,6.6 15.9,0.3 
				20,0.3 17.3,11.5 			"/>
			<polygon class="st0" points="167.6,108.1 171.7,93 160.7,104 149.1,97.2 153.7,110.8 142.4,121.8 156.6,119 161.2,132.8 
				161.2,132.8 161.2,132.8 165,117.4 179.4,114.9 			"/>
			
				<linearGradient id="SVGID_13_" gradientUnits="userSpaceOnUse" x1="89.25" y1="-688.5103" x2="116.19" y2="-688.5103" gradientTransform="matrix(1 0 0 -1 0 -606.1102)">
				<stop  offset="0" style="stop-color:#FFFFFF"/>
				<stop  offset="1" style="stop-color:#283156"/>
			</linearGradient>
			<polygon class="st14" points="109.2,78.1 115,63.6 105.1,75.7 98.4,71.6 99.1,82.9 89.3,94.7 99.6,89.7 100.3,101.2 100.3,101.2 
				100.3,101.2 105.8,86.7 116.2,81.9 			"/>
			
				<linearGradient id="SVGID_14_" gradientUnits="userSpaceOnUse" x1="0.5" y1="-846.4602" x2="552.2" y2="-846.4602" gradientTransform="matrix(1 0 0 -1 0 -606.1102)">
				<stop  offset="0" style="stop-color:#840004"/>
				<stop  offset="7.000000e-02" style="stop-color:#FFFFFF"/>
				<stop  offset="0.19" style="stop-color:#840004"/>
				<stop  offset="0.3" style="stop-color:#FFFFFF"/>
				<stop  offset="0.48" style="stop-color:#840004"/>
				<stop  offset="0.65" style="stop-color:#FFFFFF"/>
				<stop  offset="0.88" style="stop-color:#840004"/>
			</linearGradient>
			<path class="st15" d="M552.2,0.5c-1,0.2-1.9,0.4-2.9,0.5l-2.9,0.4c-1,0.1-2.1,0.3-3.1,0.5l-2.9,0.5L537.5,3l-0.7,0.1l-0.7,0.1
				l-1.4,0.5l-2.9,0.8l-1.2,0.4c-0.5,0.2-0.9,0.4-1.4,0.5l-5.8,2.2L521,8.8c-1,0.5-1.9,0.8-2.9,1.3c-1.7,0.8-3.4,1.8-5,2.8
				c-1,0.5-1.7,1-2.6,1.6L508,16c-6.7,4.4-12.9,9.4-18.6,15c-2.6,2.8-5.5,5.4-8.2,8.4l-4.1,4.5c-1.2,1.5-2.4,3-3.6,4.6
				s-2.6,3-3.9,4.6l-3.6,4.7l-1.7,2.3c-0.5,0.8-1.2,1.7-1.7,2.4l-3.4,4.9l-3.4,5l-3.4,4.9l-3.1,4.9l-1.4,2.5l-1.7,2.5
				c-8.2,13.5-15.4,27.5-23.1,41.5c-7.5,14-14.9,27.9-22.6,41.7c-1.9,3.5-3.8,7-5.8,10.6l-5.8,10.3l-6,10.1l-1.5,2.6l-1.7,2.5
				l-3.1,4.9l-3.1,5.2l-3.4,4.9l-3.4,4.9l-3.4,4.8l-3.6,4.8l-3.6,4.7l-3.9,4.7l-3.8,4.4l-3.8,4.6c-1.4,1.4-2.9,2.9-4.1,4.3
				c-1.4,1.3-2.9,2.8-4.3,4.1L334,265l-2.4,1.9c-2.9,2.6-6.3,5.1-9.4,7.5c-3.2,2.3-6.6,4.4-10.1,6.4c-1.7,0.8-3.6,1.9-5.3,2.8
				l-2.6,1.2c-1,0.5-1.9,0.8-2.9,1.2l-2.9,1.1c-1,0.4-1.9,0.6-2.9,1l-2.9,1l-1.9,0.5l-3.9,1c-1,0.2-1.9,0.4-2.9,0.6l-2.9,0.5
				l-3.1,0.4l-3.1,0.4h-2.9l-2.9,0.2h-3.1l-2.9,0.1h-1.5c-0.3,0.1-0.7,0.1-1,0.1l-6.5,0.5l-5.8,0.7c-1.9,0.2-3.9,0.7-5.8,1.1
				l-2.9,0.6l-0.7,0.2h0.2l-0.5,0.1l-1.4,0.4l-2.9,0.7c-0.9,0.2-1.8,0.6-2.6,1c-1.9,0.6-3.6,1.2-5.5,1.8l-5.5,2.3
				c-7.2,3.2-14,7.1-20.4,11.5c-0.7,0.7-1.5,1.2-2.4,1.7l-2.4,1.8l-2.2,1.8c-0.2,0.1-0.5,0.2-0.7,0.4l-0.5,0.6l-1,1l-4.6,3.9
				c-0.8,0.5-1.5,1.2-2.2,1.9L182,329c-11.3,10.8-21.4,23.2-31,35.7s-18.5,25.6-27.9,38.4c-4.8,6.4-9.6,12.8-14.7,18.9
				s-10.3,12-15.6,17.8c-5.6,5.7-11.6,10.9-18,15.8c-1.7,1.2-3.1,2.3-4.8,3.5l-2.4,1.7c-0.8,0.6-1.7,1.1-2.6,1.5l-5,3l-5.3,2.8
				c-14.2,7.2-29.8,10.8-45.5,12.1H8.9l-8.4-0.1h8.4c1-0.2,2.2-0.5,2.2-0.5l3.9-0.4l2.9-0.4l1.4-0.2c0,0,1-0.1,1.5-0.2l5.8-1.1
				l1.5-0.2l1.4-0.4l2.9-0.9c3.8-0.9,7.6-2.1,11.3-3.6c1.9-0.7,3.6-1.6,5.5-2.4l2.7-1.2c1-0.4,1.7-0.9,2.6-1.3l5.3-2.8l4.8-3.1
				c1-0.6,1.7-1.1,2.7-1.6l2.4-1.8c1.4-1.1,3.1-2.3,4.6-3.5c6.2-4.9,12.2-10.2,17.8-15.9c5.3-5.6,10.6-11.6,15.4-17.8
				c5-6.1,9.9-12.5,14.4-18.9c9.4-12.8,18.3-25.9,27.9-38.6c9.4-12.7,19.3-25,30.8-36.1l2.2-2.2c0.7-0.7,1.7-1.3,2.2-1.9l4.6-4
				l1.2-1l0.5-0.5c0.2-0.1,0.3-0.2,0.5-0.4l2.6-1.9l2.2-1.8c0.9-0.5,1.8-1.1,2.6-1.8c6.5-4.6,13.4-8.5,20.7-11.8l5.5-2.3
				c1.9-0.7,3.9-1.3,5.8-2l2.9-0.7l2.9-0.8l1.4-0.4l0.2-0.1l0.2-0.1h0.2l0.7-0.1l2.9-0.6c2-0.5,4-0.9,6-1.2c1.9-0.3,3.9-0.5,6-0.7
				l5.8-0.5l1.4-0.1l1.7-0.1h2.9l3.1-0.1l2.9-0.1l2.9-0.1l2.9-0.4l2.9-0.3l2.9-0.6c1-0.1,1.9-0.4,2.9-0.5l2.9-0.7l2.9-0.7l2.6-1
				c1-0.2,1.9-0.6,2.6-0.8l2.9-1.2c0.9-0.3,1.8-0.6,2.6-1.1l2.6-1.2c1.7-0.8,3.4-1.8,5.3-2.8c3.4-1.9,6.7-3.9,9.9-6.3
				c3.1-2.3,6.3-4.6,9.4-7.2l2.2-1.9l2.2-1.9c1.4-1.5,2.9-2.8,4.1-4.1c1.4-1.4,2.9-2.9,4.1-4.3l4.1-4.4c10.3-11.9,19.6-24.7,28-38.1
				l3.1-5l1.5-2.4l1.7-2.6l6-10.1l5.8-10.4c1.9-3.4,3.9-7,5.8-10.3l22.9-41.7c7.7-13.8,15.1-27.9,23.6-41.2l1.5-2.7
				c0.5-0.8,1.2-1.7,1.7-2.4l3.4-5l3.1-5.1l3.4-4.8l3.6-4.8c0.5-0.8,1-1.7,1.4-2.4l1.9-2.4l3.6-4.8c1.2-1.4,2.6-3,3.9-4.6
				s2.4-3,3.8-4.6l4.1-4.3c2.4-3,5.5-5.7,8.2-8.4c5.7-5.5,12-10.4,18.8-14.7l2.6-1.7c0.9-0.5,1.7-1,2.7-1.4c1.6-1,3.3-1.9,5-2.8
				c0.9-0.4,1.8-0.8,2.7-1.3l2.9-1.2c1.9-0.7,3.8-1.3,5.5-1.9l1-0.5l1.9-0.5l2.9-0.7l1.4-0.6l0.7-0.1l0.7-0.1l2.9-0.6l2.9-0.6
				c0,0,1.9-0.3,2.9-0.3l3.1-0.3C550.3,0.9,551.2,0.7,552.2,0.5z"/>
		</g>
	</g>
</g>
</svg>
