<?xml version="1.0" encoding="utf-8"?>
<!-- Generator: Adobe Illustrator 23.0.1, SVG Export Plug-In . SVG Version: 6.00 Build 0)  -->
<svg version="1.1" id="Layer_1" xmlns="http://www.w3.org/2000/svg" xmlns:xlink="http://www.w3.org/1999/xlink" x="0px" y="0px"
	 viewBox="0 0 727.9 987.9" style="enable-background:new 0 0 727.9 987.9;" xml:space="preserve">
<style type="text/css">
	.st0{fill:#A81E22;}
	.st1{fill:#F3F2F1;}
	.st2{fill:#EE2725;}
	.st3{fill:#224289;}
	.st4{fill:#11153E;}
	.st5{fill:#00002A;}
	.st6{fill:#780B0D;}
	.st7{fill:#B6B7B8;}
	.st8{fill:#18162E;}
	.st9{fill:#FFFEFF;}
	.st10{fill:#EAEAEA;}
	.st11{fill:#898989;}
	.st12{opacity:0.2;fill:#FFFFFF;enable-background:new    ;}
	.st13{opacity:0.3;fill:#18162E;enable-background:new    ;}
	.st14{fill:#FFFFFF;}
	.st15{fill:#DDDCE0;}
	.st16{opacity:0.15;fill:#18162E;enable-background:new    ;}
	.st17{opacity:0.15;fill:#FFFFFF;enable-background:new    ;}
	.st18{display:none;opacity:0.15;fill:#FFFFFF;enable-background:new    ;}
	.st19{fill:#252247;}
	.st20{fill:#03A9F5;}
	.st21{fill:#4FC2F8;}
</style>
<title>hotbot-4th-of-july</title>
<g>
	<g id="Layer_1-2">
		<path class="st0" d="M121.4,111.8c0,0,135.7-128.9,389.3-109.9c0,0,8.1,218.4,67.8,301.2c0,0-42,57-374.4,63.8
			C204.2,366.8,182.5,182.3,121.4,111.8z"/>
		<path class="st1" d="M225.4,337l26.2-10c0,0-11.4-123.7-69.7-257.4c-13.4,7.6-24.6,14.8-33.6,21.1
			C161.7,110.3,197.9,175.6,225.4,337z"/>
		<path class="st1" d="M296,315.3l43.4-16.3c0,0-49.1-204.9-51.2-274.5c-19.7,5.9-39,12.9-57.8,21C240.9,90,284,273.8,296,315.3z"/>
		<path class="st1" d="M341,11.5c6.5,45.7,31.8,215.6,55.4,273.1l47-10c0,0-44.6-180.7-42.6-271.8C380.7,4.6,360.8,7.5,341,11.5z"/>
		<path class="st1" d="M495.4,1c-13.7-0.8-27-1.1-40-1c-2,36.9,7.5,154.6,37.8,267.3l35.3-6.3C528.4,261,491.4,112.1,495.4,1z"/>
		<path class="st2" d="M594.4,341.5c0,0,99.5-38.8,60.6-80.5c0,0-41.6-30.8-105.8,35.3s-238.9,56.1-238.9,56.1
			S500.4,373,594.4,341.5z"/>
		<path class="st3" d="M200.2,338.9c2.8,17.2,4,28,4,28c332.4-6.8,374.4-63.8,374.4-63.8c-10.5-14.5-19.3-33.2-26.8-54.1
			C362.5,268.2,228.2,326,200.2,338.9z"/>
		<polygon class="st1" points="400.4,286.8 415.1,302.5 436.3,299.4 425.9,318.1 435.5,337.4 414.4,333.3 399,348.3 396.4,327 
			377.4,317 396.9,308 		"/>
		<polygon class="st1" points="314.6,307.9 328.7,324.1 350,321.7 339,340.1 347.9,359.6 327,354.8 311.1,369.3 309.3,347.9 
			290.6,337.4 310.3,329 		"/>
		<polygon class="st1" points="231.2,331.9 245.3,348.1 266.6,345.7 255.6,364.1 264.5,383.6 243.5,378.8 227.7,393.3 225.8,371.9 
			207.1,361.4 226.9,353 		"/>
		<path class="st0" d="M594.5,341.5c0,0-2.6,2.4-7.6,6.5C550.3,378.3,386,502.5,203.1,462.6c-1.6-0.3-3.2-0.7-4.8-1.1
			c-8.4-2-16.8-4.3-25.3-6.9c0,0-4.1-1.3-10-4.4c-13.3-7-35.4-23.3-37.9-55.3c0,0-11.8-63.3,115.8-51.5c7.7,0.7,15.3,1.4,22.7,2.1
			c27.3,2.6,53.1,5.2,77.9,7.3C429.8,360.5,505.5,362.6,594.5,341.5z"/>
		<path class="st0" d="M594.5,341.5c0,0-2.6,2.4-7.6,6.5C550.3,378.3,386,502.5,203.1,462.6c-1.6-0.3-3.2-0.7-4.8-1.1
			c-8.4-2-16.8-4.3-25.3-6.9c0,0-4.1-1.3-10-4.4c-13.3-7-35.4-23.3-37.9-55.3c0,0-11.8-63.3,115.8-51.5c7.7,0.7,15.3,1.4,22.7,2.1
			c27.3,2.6,53.1,5.2,77.9,7.3c0.6,0.1,1.1,0.1,1.7,0.1c26.9,2.3,52.7,4.1,78,4.9c2,0.1,4,0.1,6,0.2c0.5,0,1,0,1.4,0
			c1.2,0,2.4,0.1,3.6,0.1c2.3,0,4.5,0.1,6.8,0.1c41,0.4,81.4-2.2,124.4-10.1c8.9-1.6,18-3.5,27.2-5.6
			C591.8,342.1,593.2,341.8,594.5,341.5z"/>
		<path class="st0" d="M586.9,348C550.3,378.3,386,502.5,203.1,462.6c-1.6-0.3-3.2-0.7-4.8-1.1c1.4-2.4,2.9-4.8,4.4-7.2l0,0
			c12.8-21.1,25.9-40.5,35.4-49.8c21.9-21.8,68.5-45.2,112.2-42c56.2,4.2,128.9-0.3,187.7-6.5C557.3,354,573.4,351.3,586.9,348z"/>
		<path class="st4" d="M445.9,408.1c84.8-24.1,103.6-49,108.9-55.9c0.8-1,1.6-2,2.3-3.1c-8.7,1.4-15.5,2.3-24,3.3
			c-4.1,3.2-19.8,15-93.4,19c-33.6,1.8-65.1-0.5-98.7-2.1c-24.1-1.1-85.3-7-98.4,22.4c-13.9,31.2,37,33.9,55.5,34.4
			C347.8,427.5,398,421.7,445.9,408.1z"/>
		<path class="st5" d="M533.1,352.4c-4.1,3.2-19.8,15-93.4,19c-33.6,1.8-65.1-0.5-98.7-2.1c-6.8-0.3-16.5-1-27.2-1.2
			c6.9,16.4,42,18.2,56.6,18.6c49.7,1.3,101.6,0.5,147.8-18C536,361.6,541.7,351.4,533.1,352.4z"/>
		<polygon class="st1" points="486.4,267.4 500,284 521.4,282.2 509.8,300.3 518,320.1 497.3,314.6 481,328.6 479.8,307.2 
			461.5,296 481.5,288.2 		"/>
		<path class="st1" d="M558.3,265.6l-19.9,7.7l18.3,11.2l1.2,21.4l14.5-12.4C567,284.6,562.3,275.3,558.3,265.6z"/>
		<path class="st6" d="M134.9,402.1c0,0.6,0.1,1.1,0.1,1.7c0.2,1.6,0.6,3.1,1.1,4.6c0.7,2.3,1.7,4.6,2.9,6.8
			c1.5,2.8,3.4,5.4,5.5,7.8c2.5,2.9,5.2,5.5,8.2,7.8c0.8,0.7,1.6,1.3,2.4,1.8c0.8,0.6,1.7,1.2,2.6,1.8c1.8,1.1,3.6,2.3,5.5,3.4
			c3.9,2.2,8,4.2,12.2,5.9c2.1,0.9,4.3,1.7,6.5,2.5l6.7,2.2l6.8,1.9l6.8,1.6c4.5,0.9,9,1.9,13.4,2.5c4.3,0.8,8.6,1.5,12.5,2.2
			c2,0.4,3.9,0.6,5.8,0.9l5.5,0.8l9.6,1.3c1.4,0.2,2.8,0.4,4,0.5l3.4,0.5c4.1,0.5,6.5,1,6.5,1v0.5c0,0-2.4,0.1-6.6,0.2
			c-2.1,0.1-4.6,0.2-7.5,0.1s-6.2-0.1-9.8-0.3s-7.5-0.5-11.5-1s-8.4-1-12.8-1.8s-8.9-1.9-13.5-3.1l-6.9-2l-6.8-2.3l-6.8-2.5
			c-2.2-0.9-4.4-1.8-6.6-2.8c-4.2-1.9-8.3-4.1-12.3-6.5c-3.7-2.2-7.2-4.8-10.5-7.7c-3-2.5-5.7-5.4-8.1-8.5c-2-2.6-3.8-5.4-5.3-8.3
			c-1.1-2.3-2-4.7-2.6-7.1c-0.6-2.1-0.9-4.3-0.9-6.5L134.9,402.1z"/>
		<path class="st6" d="M279.9,461.6c0,0,2.8,0,7.6-0.3c2.4-0.2,5.3-0.3,8.7-0.6s7.1-0.7,11.2-1l6.4-0.8c2.2-0.2,4.5-0.5,6.8-0.9
			s4.7-0.7,7.2-1l7.5-1.2c5.1-0.6,10.3-1.7,15.7-2.5s10.7-2.1,16.1-3.2c5.3-1.3,10.7-2.6,16-4l15.3-4.4l14.2-4.7
			c2.3-0.7,4.4-1.5,6.5-2.3l6.1-2.3c3.9-1.5,7.5-2.7,10.5-4.1l8-3.4l7-2.9l0.2,0.4l-6.8,3.3l-7.9,3.7c-3,1.5-6.6,2.9-10.4,4.5
			l-6,2.5c-2.1,0.9-4.2,1.8-6.4,2.6l-14.1,5.2l-15.3,4.9c-5.2,1.6-10.6,3-16,4.5c-5.4,1.3-10.8,2.7-16.1,3.9s-10.6,2.3-15.8,3
			c-2.6,0.4-5.1,0.8-7.6,1.1s-5,0.5-7.3,0.7c-4.8,0.5-9.3,0.6-13.5,0.8s-8,0.1-11.4,0s-6.4-0.3-8.8-0.5s-4.3-0.4-5.6-0.6l-2-0.3
			L279.9,461.6z"/>
		<path class="st6" d="M134.9,116.4c0,0,0.5,0.6,1.4,1.9s2.3,3.1,3.9,5.5l2.6,4l3,4.8c1.1,1.7,2.1,3.6,3.2,5.6s2.3,4,3.5,6.2
			l3.6,6.9l3.6,7.4l1.9,3.9l1.8,4.1c1.2,2.7,2.4,5.5,3.7,8.4c1.2,2.9,2.4,5.8,3.6,8.8s2.5,6,3.5,9s2.2,6.2,3.4,9.3l1.7,4.7l1.5,4.7
			c2,6.3,4.2,12.6,6,18.9l2.7,9.3c0.4,1.5,0.9,3.1,1.3,4.6s0.8,3.1,1.1,4.6c1.4,6.1,2.8,11.9,4,17.5s2,10.9,2.8,15.8
			c0.4,2.5,0.8,4.8,1.2,7s0.6,4.4,0.8,6.4c0.5,4,0.9,7.5,1.2,10.4c0.6,5.8,0.9,9.1,0.9,9.1l-0.5,0.1c0,0-0.8-3.2-2.1-8.9
			c-0.7-2.8-1.4-6.3-2.3-10.2c-0.4-2-0.9-4.1-1.3-6.3c-0.5-2.2-1.1-4.5-1.6-6.9c-1.1-4.8-2.3-10-3.6-15.6
			c-1.4-5.5-2.9-11.3-4.3-17.3c-0.3-1.5-0.7-3-1-4.6s-0.8-3-1.2-4.6c-0.8-3.1-1.6-6.2-2.4-9.3c-1.5-6.3-3.5-12.6-5.3-18.9l-1.4-4.7
			l-1.6-4.7c-1-3.1-2.1-6.2-3.1-9.3s-2.2-6.1-3.3-9.1s-2.2-5.9-3.3-8.8c-2.4-5.7-4.5-11.3-6.9-16.4c-1.2-2.6-2.3-5.1-3.4-7.6
			l-3.5-6.9c-1-2.2-2.2-4.3-3.2-6.3s-2-3.9-3-5.6l-2.8-4.9c-0.9-1.5-1.7-2.9-2.5-4.1c-1.5-2.5-2.8-4.4-3.6-5.6s-1.4-1.9-1.4-1.9
			L134.9,116.4z"/>
		<path class="st6" d="M192.5,79.1c0,0,0.4,0.7,1.3,2.2s2,3.5,3.3,6.2s3,6,4.9,9.8c0.9,1.9,1.8,4,2.8,6.1s2,4.4,3,6.8
			s2.1,4.9,3.2,7.4s2.1,5.3,3.2,8l1.7,4.2c0.5,1.4,1.1,2.9,1.6,4.3c1.1,2.9,2.2,5.9,3.3,9c2.1,6.1,4.4,12.4,6.4,19
			s4.3,13.1,6.1,19.7s4,13.3,5.7,19.9s3.6,13,5,19.4s2.8,12.5,4,18.3s2.1,11.4,2.9,16.5c0.4,2.6,0.8,5,1.2,7.3s0.7,4.6,0.9,6.6
			c0.6,4.2,1,7.8,1.4,10.8c0.8,6,1.1,9.5,1.1,9.5l-0.5,0.1c0,0-0.9-3.4-2.3-9.2c-0.7-2.9-1.6-6.5-2.5-10.6c-0.5-2.1-0.9-4.2-1.4-6.5
			s-1.1-4.7-1.7-7.2c-1.2-5-2.4-10.5-3.7-16.3s-2.9-11.8-4.3-18.1c-0.7-3.2-1.4-6.4-2.2-9.6s-1.5-6.5-2.3-9.8
			c-1.5-6.6-3.3-13.3-5-19.9s-3.7-13.3-5.6-19.8s-4-12.9-5.9-19c-2.1-6.1-4-12.1-6.1-17.6l-2.9-8.1c-1-2.6-2-5.1-2.9-7.5
			s-1.9-4.7-2.8-6.9s-1.7-4.3-2.6-6.2c-1.7-3.8-3.2-7.2-4.5-9.9s-2.4-4.9-3.1-6.3l-1.2-2.2L192.5,79.1z"/>
		<path class="st6" d="M508.7,62.9c0,0,0.8,11.2,2.6,27.9c0.5,4.2,1,8.7,1.6,13.5s1.2,9.8,1.9,15c0.3,2.6,0.7,5.3,1,7.9
			c0.3,2.7,0.8,5.4,1.2,8.1c0.8,5.5,1.7,11,2.6,16.5s2,11,3,16.4s2.2,10.7,3.2,15.8s2.1,10.1,3,14.8c1,4.7,2,9.1,2.9,13.2
			s1.9,7.8,2.7,11.1s1.6,6.2,2.2,8.5c1.3,4.7,2,7.5,2,7.5l-0.5,0.2c0,0-1.2-2.5-3.1-7.1c-1-2.3-2.2-5-3.3-8.3s-2.5-6.9-3.7-10.9
			s-2.5-8.5-3.7-13.1s-2.3-9.7-3.4-14.9c-0.9-5.2-1.9-10.6-2.7-16s-1.7-11-2.4-16.6s-1.5-11.1-2.1-16.6c-0.3-2.7-0.6-5.5-0.9-8.2
			c-0.3-2.7-0.5-5.4-0.8-8c-1.1-10.5-1.8-20.3-2.3-28.7c-1.1-16.8-1.4-28-1.4-28L508.7,62.9z"/>
		<path class="st6" d="M192.4,436.5c0,0,2.1,0.7,5.7,1.8c1.8,0.5,4.1,1.1,6.7,1.7s5.5,1.3,8.7,2s6.7,1.3,10.4,1.9l5.7,0.9l6,0.8
			c4,0.6,8.3,0.9,12.5,1.3s8.6,0.6,13,0.9c4.4,0.1,8.7,0.3,13,0.3s8.5-0.1,12.5-0.1s8-0.1,11.8-0.1c1.9,0,3.7,0,5.4-0.1l5.1-0.1
			c3.3-0.1,6.3,0,8.9-0.1s5-0.1,6.9-0.1c3.8-0.1,6,0,6,0l0.1,0.5c0,0-2.1,0.5-5.9,1.2c-1.9,0.4-4.2,0.8-6.8,1.3s-5.6,0.8-8.9,1.2
			s-6.8,0.8-10.6,1s-7.8,0.4-11.9,0.5c-4.1-0.1-8.4-0.2-12.7-0.4l-13.1-1c-4.4-0.5-8.8-0.9-13.1-1.4s-8.5-1.1-12.6-1.9l-6-1
			l-5.7-1.2c-3.7-0.7-7.1-1.7-10.4-2.4s-6.1-1.6-8.6-2.4s-4.8-1.5-6.6-2.1c-3.6-1.3-5.6-2.1-5.6-2.1L192.4,436.5z"/>
		<path class="st4" d="M410.5,277.1l5.8-1.4c3.7-0.9,9-2.1,15.4-3.5s13.8-3.1,21.8-4.8l25.1-4.9l12.7-2.6c4.2-0.9,8.4-1.6,12.4-2.2
			s8-1.1,11.7-1.5c3.7-0.4,7.2-0.8,10.5-1.1c13-1.3,21.7-1.4,21.7-1.4l0.2,0.2l-0.2,0.2l0,0c0,0-8.5,2.3-21.3,4.8
			c-3.2,0.6-6.7,1.3-10.3,1.9s-7.6,1.3-11.6,1.9s-8.2,1-12.4,1.7l-12.8,1.9l-25.2,3.9l-21.9,3.7c-6.4,1.1-11.8,2-15.5,2.7l-5.9,1.1
			l-0.3-0.2L410.5,277.1z"/>
		<path class="st3" d="M247.5,402l0.1,0.3c0.1,0.2,0.2,0.4,0.3,0.7s0.4,0.7,0.7,1.1s0.7,0.9,1.1,1.3s1,1,1.6,1.5l2.1,1.5l2.6,1.4
			c1,0.5,2,0.9,3,1.3l1.6,0.6l1.7,0.5c1.2,0.4,2.4,0.7,3.6,1.1l3.9,0.9l2,0.5l2.1,0.3c2.8,0.4,5.7,0.9,8.7,1.1s6,0.6,9.1,0.7
			l4.6,0.2c1.5,0.1,3,0.1,4.5,0c3-0.1,6-0.1,8.9-0.1s5.6,0,8.3,0.1s5.1,0.2,7.4,0.3c9.2,0.1,15.5,0.9,15.5,0.9l0.2,0.3l-0.2,0.2
			c0,0-6.1,1.4-15.3,2.5c-2.3,0.2-4.8,0.4-7.5,0.5s-5.5,0.3-8.4,0.3s-5.9-0.3-9-0.5s-6.1-0.6-9.3-0.9s-6.2-0.8-9.2-1.2
			s-6-1.1-8.9-1.7l-2.1-0.5l-2.1-0.6l-4-1.2c-1.3-0.5-2.5-1-3.7-1.4l-1.7-0.7l-1.6-0.8c-1-0.6-2.1-1-3-1.6l-2.6-1.7l-2.1-1.7
			c-0.6-0.6-1.1-1.2-1.6-1.7s-0.8-1.1-1.1-1.5s-0.5-0.9-0.6-1.2s-0.2-0.6-0.3-0.8l-0.1-0.3l0.2-0.3L247.5,402L247.5,402z"/>
		<path class="st7" d="M155.9,93.3l0.9,1.4c0.6,0.9,1.4,2.3,2.6,4l1.8,2.8l2,3.4c1.4,2.5,3.1,5.2,4.6,8.3s3.3,6.5,5.1,10
			s3.4,7.5,5.3,11.4s3.6,8.1,5.4,12.3l5,13c0.8,2.2,1.7,4.3,2.5,6.5c0.4,1.1,0.8,2.2,1.2,3.2s0.7,2.2,1.1,3.3
			c1.5,4.3,2.8,8.6,4.2,12.8s2.4,8.2,3.4,12c0.9,3.9,1.7,7.6,2.4,11c2.8,13.7,4,22.9,4,22.9l-0.5,0.1c0,0-3.3-8.8-7.3-22
			c-1-3.3-2-6.9-3.1-10.8c-1.3-3.8-2.6-7.7-3.8-11.9s-2.5-8.4-3.7-12.8c-0.3-1.1-0.6-2.2-0.9-3.3s-0.7-2.2-1.1-3.3l-2.2-6.6
			c-1.5-4.4-3-8.8-4.4-13.1s-3.3-8.4-4.9-12.4s-3-8-4.7-11.6l-4.5-10.3c-1.4-3.2-3-6-4.2-8.5c-0.6-1.3-1.2-2.4-1.8-3.5
			s-1.1-2-1.6-2.9c-1-1.8-1.7-3.2-2.3-4.1l-0.9-1.4L155.9,93.3z"/>
		<path class="st7" d="M240.5,54.8l8.3,34.8c2.5,10.4,5.5,22.6,8.7,35.6c1.6,6.5,3.2,13.3,4.9,20.1s3.4,13.8,5.1,20.7
			s3.5,13.9,5.3,20.7s3.5,13.5,5.1,20s3.1,12.8,4.6,18.8s2.8,11.6,3.9,16.9s2.3,10,3.3,14.3s1.9,8,2.5,11c1.4,6.1,2.1,9.6,2.1,9.6
			l-0.5,0.1c0,0-1.2-3.4-3.2-9.3c-1-3-2.2-6.6-3.6-10.7s-2.9-8.8-4.3-14s-3.1-10.8-4.7-16.7s-3.4-12.2-4.9-18.7s-3.1-13.3-4.7-20.2
			s-3.1-13.9-4.7-20.9s-3.1-14-4.6-20.9s-3-13.7-4.4-20.2l-4.1-18.9l-3.5-17c-4.3-21-7.2-35.1-7.2-35.1L240.5,54.8z"/>
		<path class="st7" d="M350.3,20.9c0,0,2.1,14.7,5.5,36.6c1.8,11,3.9,23.8,6.1,37.5c1.2,6.8,2.3,13.9,3.6,21.1s2.5,14.5,3.9,21.8
			s2.7,14.6,4.1,21.7s2.8,14.2,4.2,21s2.6,13.4,3.8,19.6c0.6,3.1,1.1,6.2,1.8,9.1s1.1,5.8,1.7,8.5c1,5.4,2.1,10.4,3,14.8
			s1.7,8.3,2.4,11.4c1.5,6.3,2.2,10,2.2,10H392c0,0-1.3-3.5-3.4-9.6c-0.5-1.5-1.1-3.2-1.7-5.1s-1.2-3.9-1.8-6.1
			c-1.2-4.4-2.7-9.2-4-14.6s-2.9-11.2-4.2-17.5s-2.9-12.8-4.1-19.6s-2.6-13.9-3.7-21.1c-0.6-3.6-1.2-7.2-1.8-10.9
			c-0.6-3.6-1.1-7.3-1.7-11c-1.2-7.3-2.3-14.7-3.3-21.9s-2.1-14.3-3.1-21.2c-2-13.8-3.6-26.6-5-37.6c-2.8-22-4.4-36.8-4.4-36.8
			L350.3,20.9z"/>
		<path class="st7" d="M488.5,10c0,0,0.2,12.2,1.3,30.4c0.5,9.1,1.2,19.7,2.1,31.1c0.4,5.7,1,11.5,1.5,17.5s1.2,12,1.9,18
			s1.4,12.1,2.2,18c0.9,5.9,1.5,11.8,2.4,17.4s1.4,11.1,2.2,16.2c0.4,2.6,0.7,5.1,1,7.5s0.6,4.8,1,7c0.7,4.5,1.3,8.6,1.8,12.3
			c0.2,1.8,0.6,3.5,0.8,5.1s0.5,3,0.7,4.4c0.8,5.3,1.2,8.3,1.2,8.3l-0.5,0.1c0,0-0.9-2.9-2.4-8c-0.7-2.6-1.7-5.7-2.6-9.3
			s-1.8-7.7-2.8-12.2s-1.9-9.4-2.9-14.5s-1.7-10.6-2.6-16.3s-1.4-11.6-1.9-17.5c-0.6-6-1-12-1.6-18.1s-0.9-12.2-1.3-18.1
			s-0.7-11.9-1-17.6s-0.5-11.2-0.7-16.5S488,45,487.9,40.5C487.8,22.2,488,10,488,10H488.5z"/>
		
			<ellipse transform="matrix(0.9918 -0.1276 0.1276 0.9918 -49.9493 85.4938)" class="st8" cx="642.3" cy="432.6" rx="46.6" ry="53.6"/>
		<path class="st8" d="M664,449.9c6-15.6,10.8-31.6,14.2-47.9c3.4-16.2,4.9-32.7,4.4-49.2c-0.7-16.5-3.6-32.9-8.8-48.6
			c-5.3-15.9-12.3-31.3-21-45.6l9.3-5.8c10,14.6,18.3,30.4,24.8,46.9c6.5,16.8,10.7,34.3,12.3,52.2c1.6,17.9,1,36-1.7,53.8
			c-2.8,17.6-7.5,34.8-13.1,51.7L664,449.9z"/>
		<circle class="st8" cx="657.4" cy="255.5" r="18.9"/>
		<path class="st9" d="M674.1,418.9v1.1c-0.1,3.1-0.3,6.2-0.4,9.3c-0.2,5-0.5,9.9-0.7,14.8c-1.3,12.2-3.8,24.2-7.5,35.8
			c-5,15.9-11.9,30.1-20,40.5c-5.1,6.5-44.8,50.2-123.6,60.4c-1,0.1-2,0.2-3,0.4c-2,0.2-4,0.5-6,0.7c-1,0.1-2,0.2-3,0.3
			c-2,0.2-3.9,0.3-5.8,0.6l-2.9,0.2c-8,0.7-20.7,1.8-31.9,2.6c-0.6,0.1-1.1,0.1-1.5,0.2c-5.6,0.4-10.7,0.6-14.3,0.8h-0.6
			c-4.9,0-9.8,0-14.4,0c-1.6-0.1-3.2,0-4.8-0.1s-3.1-0.1-4.7-0.2c-26.6-1-92.2,1.2-114.2-2.7c-6.6-1.2-13.1-2.3-19.6-3.6
			c-0.3-0.1-0.6-0.2-0.9-0.2c-10.3-2.2-22-8.3-33.5-17.3c-23-18.2-45.3-48.1-54-81.3c-1.6-6-2.9-12.1-3.7-18.3
			c-5.5-42.9,37.3-83,63-91.6c5.5-1.9,11.3-3.6,17.5-5.5c5.7-1.7,11.8-3.3,18.2-5c3.8-1,7.8-2,11.9-3c19.1-3.3,27.1-5,48.9-8.4
			c3.6-0.6,7.1-1,10.7-1.6c0.5,0,0.8-0.1,1.3-0.2c5.5-0.9,11.1-1.6,16.7-2.5c2.5-0.3,4.9-0.8,7.5-1.1c17.9-2.7,35.9-5.1,53.9-7.6
			l0.8-0.1c19.9-2.7,39.7-5.3,58.7-7.6c7.9-0.7,15.4-1.1,22.7-1.7c2.9-0.2,5.8-0.3,8.6-0.6c7.1-0.4,13.9-0.7,20.3-0.9
			c5.2-0.1,10.2-0.3,15.1-0.4c7.7-0.1,14.9-0.1,21.8-0.1c1.6,0.1,3.2,0,4.7,0.1c2.7,0.1,5.3,0.2,7.9,0.3c6.7,0.3,13.3,2.3,19.1,5.8
			c0.8,0.5,1.5,1,2.5,1.5s1.6,1.1,2.4,1.6c2,1.4,3.9,3,5.7,4.7l1.1,1.1l2.2,2.2c1.8,1.9,3.6,3.9,5.2,6l2,2.6
			c4.9,6.9,8.9,14.3,12,22.2c0.3,0.8,0.7,1.6,1,2.5c1.3,3.4,2.3,6.8,3.3,10.4c0.3,0.9,0.5,1.9,0.7,2.8
			C673,398.7,674,408.7,674.1,418.9L674.1,418.9z"/>
		<path class="st9" d="M674.1,418.9v1.1c-0.1,3.1-0.3,6.2-0.4,9.3c-0.2,5-0.5,9.9-0.7,14.8c-1.3,12.2-3.8,24.2-7.5,35.8
			c-5,15.9-11.9,30.1-20,40.5c-5.1,6.5-44.8,50.2-123.6,60.4c-1,0.1-2,0.2-3,0.4c-2,0.2-4,0.5-6,0.7c-1,0.1-2,0.2-3,0.3
			c-2,0.2-3.9,0.3-5.8,0.6l-2.9,0.2c-8,0.7-20.7,1.8-31.9,2.6c-0.6,0.1-1.1,0.1-1.5,0.2c-5.6,0.4-10.7,0.6-14.3,0.8h-15
			c-1.6-0.1-3.2,0-4.8-0.1c-1.6-0.1-3.1-0.1-4.7-0.2c-26.6-1-92.2,1.2-114.2-2.7c-6.6-1.2-13.1-2.3-19.6-3.6
			c-0.3-0.1-0.6-0.2-0.9-0.2c-10.3-2.2-22-8.3-33.5-17.3c-23-18.2-45.3-48.1-54-81.3c-1.6-6-2.9-12.1-3.7-18.3
			c-0.4-2.9-0.5-5.7-0.5-8.5v-0.1c0-0.6,0-1.2,0.1-1.7c0.9-19.1,10.5-37.2,22.9-51.5c12.8-14.8,28.5-25.6,40.5-29.6
			c5.5-1.9,11.3-3.6,17.5-5.5c5.7-1.7,11.8-3.3,18.2-5c3.8-1,7.8-2,11.9-3c11.5-2,19-3.4,27.8-4.9c0.1,0,0.2,0,0.3-0.1
			c2.8-0.5,5.8-1,9.2-1.5c3.5-0.6,7.3-1.2,11.6-1.9c3.6-0.6,7.1-1,10.7-1.6c0.5,0,0.8-0.1,1.3-0.2c5.5-0.9,11.1-1.6,16.7-2.5
			c2.5-0.3,4.9-0.8,7.5-1.1c17.9-2.7,35.9-5.1,53.9-7.6l0.8-0.1c19.9-2.7,39.7-5.3,58.7-7.6c7.9-0.7,15.4-1.1,22.7-1.7
			c2.9-0.2,5.8-0.3,8.6-0.6c7.1-0.4,13.9-0.7,20.3-0.9c5.2-0.1,10.2-0.3,15.1-0.4c7.7-0.1,14.9-0.1,21.8-0.1c1.6,0.1,3.2,0,4.7,0.1
			c2.7,0.1,5.3,0.2,7.9,0.3c3.5,0.1,6.9,0.8,10.2,1.8h0.1c2.4,0.8,4.8,1.7,7,3c0.1,0,0.1,0.1,0.2,0.1c0.5,0.3,1.1,0.6,1.6,0.9
			c0.8,0.5,1.5,1,2.5,1.5s1.6,1.1,2.4,1.6c2,1.4,3.9,3,5.7,4.7l3.3,3.3c1.8,1.9,3.6,3.9,5.2,6l2,2.6c4.9,6.9,8.9,14.3,12,22.2
			c0.3,0.8,0.7,1.6,1,2.5c1.3,3.4,2.3,6.8,3.3,10.4c0.3,0.9,0.5,1.9,0.7,2.8C673,398.7,674,408.7,674.1,418.9z"/>
		<path class="st10" d="M495.5,368.2c-2.4,0.3-4.9,0.5-7.3,0.9c-1.2,0.1-2.5,0.3-3.6,0.5c-0.6,0.1-1.2,0.1-1.9,0.3
			c18.3-2.5,35.2-4.3,50.7-5.7c4.3-0.3,8.6-0.8,12.6-1C530.8,364.4,514,366.1,495.5,368.2L495.5,368.2z"/>
		
			<ellipse transform="matrix(0.9376 -0.3478 0.3478 0.9376 -150.9486 117.2768)" class="st8" cx="251.2" cy="479.1" rx="36.8" ry="53.6"/>
		<path class="st8" d="M221.5,502.3c-9.6-15-18.6-30.5-25.8-46.8c-7.1-16.5-12.3-33.8-15.3-51.5c-2.9-17.7-3.3-35.8-1.3-53.6
			c2.1-17.6,6.1-34.9,12-51.6l10.6,3.3c-4.7,16.1-7.7,32.7-8.8,49.5c-1,16.5,0.4,33.1,3.9,49.3c3.6,16.1,9.2,31.7,16.7,46.5
			c7.5,14.9,16.1,29.2,25.9,42.7L221.5,502.3z"/>
		<path class="st8" d="M195.5,281.8c10.4,0,18.9,8.5,18.9,18.9s-8.2,19-18.9,18.9c-10.4-0.1-18.9-8.5-18.9-18.9
			S185,281.8,195.5,281.8z"/>
		<path class="st8" d="M195.5,281.9c10.4,0,18.9,8.5,18.9,18.9s-8.2,19-18.9,18.9c-10.4-0.1-18.9-8.5-18.9-18.9
			S185.1,281.9,195.5,281.9z"/>
		<path d="M642.4,420.6c-0.5,35.6-14.6,64.7-36,74.1c-3.1,1.4-6.2,2.7-9.4,4.1c-2.5,1.1-4.8,2.1-7.4,3.2
			c-15.9,6.8-32.3,12.6-49,17.3c-1.8,0.5-3.5,0.9-5.4,1.4c-14.6,3.8-29.5,6.8-44.4,9c-15.1,1.7-30.3,2.5-45.6,2.6
			c-24.9,0-45.6-2.5-65.2-5.5c-3.4-0.5-6.7-1.1-10.1-1.6c-2.3-0.4-4.5-0.9-6.7-1.7c-20.4-7-38.4-30-46.8-60.9
			c-1.1-4-1.9-8.1-2.5-12.2c-3.8-29.4,8.4-54.8,27.7-60.8c20.3-6.4,47.4-13.2,82.8-19.1c10.5-1.8,21.8-3.5,33.7-5.1
			c2.2-0.4,4.3-0.6,6.6-0.9l3.4-0.4c2.2-0.3,4.5-0.5,6.8-0.8c0.6-0.1,1.3-0.2,1.9-0.3c1.9-0.3,3.7-0.5,5.5-0.6
			c1.4-0.2,2.8-0.3,4.2-0.5l3.1-0.3c8.7-0.9,17-1.7,24.9-2.5c26.9-2.3,49.6-3.1,68.1-3c6,0.1,11.6,0.3,16.8,0.5
			c9,0.4,17.6,5,24.7,12.4c0,0.1,0.2,0.2,0.2,0.3c8.8,9.3,15.2,23.1,17.3,39.2C642.2,412.5,642.4,416.6,642.4,420.6L642.4,420.6z"/>
		<path class="st8" d="M654.4,416.7c0.2,35.2-13.5,64.5-34.6,74.3c-9,4.1-19.3,8.7-30.7,13.1c-15.9,6.3-32.2,11.8-48.7,16.3
			c-10.8,3-21.8,5.4-32.9,7.2c-0.4,0-0.8,0.1-1.2,0.1l-5.8,0.9c-0.9,0.1-1.9,0.2-2.8,0.4l-0.9,0.2l-3.5,0.4
			c-0.8,0.2-1.5,0.2-2.4,0.3c-15.1,1.7-30.3,2.5-45.5,2.6c-24.9,0-45.6-2.5-65.2-5.5c-3.3-0.5-6.7-1.1-10.1-1.6
			c-2.3-0.4-4.5-0.9-6.7-1.7c-12.1-11.2-22.1-28.4-27.8-49.1c-1.1-4-1.9-8.1-2.5-12.2c-3.8-29.4,8.4-54.8,27.7-60.8
			c19.5-6,39.2-11,59.3-14.8c7.5-1.5,15.3-2.9,23.5-4.3c13-2.1,27.1-4.3,42.4-6.3c2.7-0.4,5.3-0.7,8.1-1l3.8-0.5
			c1.3-0.2,2.5-0.3,3.6-0.5c11.3-1.3,22-2.4,32.1-3.3c17-1.5,32.4-2.4,46-2.7c14.9-0.5,27.8-0.3,39,0.3c1.9,0.1,3.8,0.4,5.7,0.8
			c0.1,0,0.1,0.1,0.3,0c9.6,2.4,18.6,9.5,25.2,19.6C652.8,397.9,654.4,407.2,654.4,416.7L654.4,416.7z"/>
		<path class="st11" d="M654.4,416.7c0.2,35.2-13.5,64.5-34.6,74.3c-9,4.1-19.3,8.7-30.7,13.1c-15.9,6.3-32.2,11.8-48.7,16.3
			c-10.8,3-21.8,5.4-32.9,7.2c-0.4,0-0.8,0.1-1.2,0.1l-5.8,0.9c-0.9,0.1-1.9,0.2-2.8,0.4l-0.9,0.2l-3.5,0.4
			c-0.8,0.2-1.5,0.2-2.4,0.3c15-2.2,29.8-5.2,44.4-9l5.4-1.4c16.7-4.7,33.1-10.4,49-17.3l7.4-3.2c3.2-1.3,6.3-2.7,9.4-4.1
			c21.3-9.5,35.6-38.6,36-74.1c0-4.1-0.2-8.3-0.7-12.4c-2.1-16.2-8.5-29.9-17.3-39.2c0-0.1-0.2-0.2-0.2-0.3
			c-7.1-7.4-15.6-11.9-24.7-12.4c-5.2-0.2-10.8-0.4-16.8-0.5c-18.6-0.2-41.2,0.6-68.1,3c-7.9,0.7-16.2,1.5-24.9,2.5
			c-1.1,0.1-2,0.2-3.1,0.3c1-0.1,2-0.2,3-0.4c18.4-2.1,35.2-3.8,50.5-5.1c0.1-0.1,0.2-0.1,0.4,0c16-1.3,30.2-2.1,42.8-2.5
			c9.8-0.4,18.7-0.4,26.8-0.1c6,0.2,11.7,2,16.8,5.2c3.5,2.1,6.7,4.7,9.5,7.7c5.9,6.5,10.5,14.1,13.4,22.4
			C652.9,397.7,654.5,407.2,654.4,416.7L654.4,416.7z"/>
		<path class="st12" d="M489.6,361.2l-3.8,14.6l-15.4,59.7l-6.5,25.2l-18.4,71.6c-24.9,0-45.6-2.5-65.2-5.5L420,386.5l4.5-16.1
			c10.5-1.8,21.7-3.5,33.7-5.1c2.2-0.4,4.3-0.6,6.6-0.9l3.4-0.4c2.2-0.3,4.5-0.5,6.8-0.8c0.6-0.1,1.3-0.2,1.9-0.3
			c1.9-0.3,3.8-0.5,5.5-0.6l3.6-0.5C487.2,361.5,488.4,361.3,489.6,361.2L489.6,361.2z M626.8,358.5l-2.7,10.2l-0.1,0.1l-8.6,33
			l-9.6,37.2l-16.2,63l-0.5,2c-15.9,6.3-32.2,11.8-48.7,16.3l0.3-1L579.6,368l3.1-12l0.6-2.3c9.8-0.4,18.7-0.4,26.8-0.1
			C615.9,353.4,621.6,355.3,626.8,358.5L626.8,358.5z"/>
		<path class="st11" d="M654.4,416.7c0.2,35.2-13.5,64.5-34.6,74.3c-9,4.1-19.3,8.7-30.7,13.1c-15.9,6.3-32.2,11.8-48.7,16.3
			c-10.8,3-21.8,5.4-32.9,7.2c-0.4,0-0.8,0.1-1.2,0.1l-5.8,0.9c-0.9,0.1-1.9,0.2-2.8,0.4l-0.9,0.2l-3.5,0.4
			c-0.8,0.2-1.5,0.2-2.4,0.3c15-2.2,29.8-5.2,44.4-9l5.4-1.4c16.7-4.7,33.1-10.4,49-17.3l7.4-3.2c3.2-1.3,6.3-2.7,9.4-4.1
			c21.3-9.5,35.6-38.6,36-74.1c0-4.1-0.2-8.3-0.7-12.4c-2.1-16.2-8.5-29.9-17.3-39.2c0-0.1-0.2-0.2-0.2-0.3
			c-7.1-7.4-15.6-11.9-24.7-12.4c-5.2-0.2-10.8-0.4-16.8-0.5c-18.6-0.2-41.2,0.6-68.1,3c-7.9,0.7-16.2,1.5-24.9,2.5
			c-1.1,0.1-2,0.2-3.1,0.3c1-0.1,2-0.2,3-0.4c18.4-2.1,35.2-3.8,50.5-5.1c0.1-0.1,0.2-0.1,0.4,0c16-1.3,30.2-2.1,42.8-2.5
			c9.8-0.4,18.7-0.4,26.8-0.1c6,0.2,11.7,2,16.8,5.2c3.5,2.1,6.7,4.7,9.5,7.7c5.9,6.5,10.5,14.1,13.4,22.4
			C652.9,397.7,654.5,407.2,654.4,416.7L654.4,416.7z"/>
		<path class="st12" d="M489.6,361.2l-3.8,14.6l-15.4,59.7l-6.5,25.2l-18.4,71.6c-24.9,0-45.6-2.5-65.2-5.5L420,386.5l4.5-16.1
			c10.5-1.8,21.7-3.5,33.7-5.1c2.2-0.4,4.3-0.6,6.6-0.9l3.4-0.4c2.2-0.3,4.5-0.5,6.8-0.8c0.6-0.1,1.3-0.2,1.9-0.3
			c1.9-0.3,3.8-0.5,5.5-0.6l3.6-0.5C487.2,361.5,488.4,361.3,489.6,361.2L489.6,361.2z M626.8,358.5l-2.7,10.2l-0.1,0.1l-8.6,33
			l-9.6,37.2l-16.2,63l-0.5,2c-15.9,6.3-32.2,11.8-48.7,16.3l0.3-1L579.6,368l3.1-12l0.6-2.3c9.8-0.4,18.7-0.4,26.8-0.1
			C615.9,353.4,621.6,355.3,626.8,358.5L626.8,358.5z"/>
		<path class="st13" d="M665.1,480.5c-5,15.9-11.9,30.1-20,40.5c-5.1,6.5-44.8,50.2-123.6,60.4c-1,0.1-2,0.2-3,0.4
			c-2,0.2-4,0.5-6,0.7c-1,0.1-2,0.2-3,0.3c-2,0.2-3.9,0.3-5.8,0.6l-2.9,0.2c-8,0.7-20.7,1.8-31.9,2.6c-0.6,0.1-1.1,0.1-1.5,0.2
			c-5.5,0.4-10.5,0.6-14.3,0.8h-0.6c-4.9,0-9.8,0-14.4,0c-1.6-0.1-3.2,0-4.8-0.1s-3.1-0.1-4.7-0.2c-26.6-1-92.2,1.2-114.2-2.7
			c-6.6-1.2-13.1-2.3-19.6-3.6c-0.3-0.1-0.6-0.2-0.9-0.2c-10.3-2.2-22-8.3-33.5-17.3c60.8,3.9,132.3,1.2,202.5-0.5
			C570.9,559.9,633.5,528.7,665.1,480.5L665.1,480.5z"/>
		<path class="st14" d="M448.6,462.8c1.7,17.2-14.8,3.5-33.2,5.4s-31.9,18.6-33.6,1.4s11.7-32.7,30.2-34.6S446.9,445.5,448.6,462.8z
			 M626.7,440.2c1.6,15.6-13.4,3.1-30.2,5s-29,17-30.6,1.3s10.7-29.7,27.5-31.5S625.1,424.5,626.7,440.2z"/>
		<path class="st8" d="M725,693.7c-3.4,5.2-6.1,9-8.9,13.3c-14.2-2.1-27.8-4-40.8-5.9c-3.8-6.6-5.3-9.4-8.8-15.6
			c0.1,0-1.6-2.6-1.6-2.5l0,0c0.1,0,0.1,0,0.1,0.1l0,0c0.1,0,0.3,0,0.4,0l2-30.2l2.4-2.8c4.9-6.3,9.2-11.7,14.1-18
			c13.6,1.8,27.2,3.7,42,5.7c0.7,5.7,1.3,10.5,1.9,16c-9.8,0.8-17.8,1.4-27.9,2.3c-1.5,10.1-2.7,18.9-4.2,28.6L725,693.7z"/>
		<path class="st15" d="M668.9,651.1l-0.1,0.5l-2.4,33.9c-0.2-0.1-0.4,0-0.5-0.1c-33.3-2.5-58.2-12-76.5-23.7
			c-2.2-1.4-4.4-2.8-6.3-4.3c-4.8-3.4-9.3-7.1-13.5-11.2c-5-4.8-9.7-9.9-13.9-15.5c-9.4-12.4-13.1-22.3-13.5-23.4l28.4-10.1
			c1.1,0.6,3.6,0.5,4.3,1.5c0.4,0.8,2,1.6,2.6,2.6C585,615.1,609.1,646.7,668.9,651.1L668.9,651.1z"/>
		<path class="st14" d="M577.5,601.7l0.3,0.8c1.3,4.8,2.6,9.5,4,14.6c0.3,0.9,0.5,1.8,0.8,2.7s0.5,1.7,0.7,2.6
			c0.3,1.1,0.5,2.4,0.7,3.6c0.4,2.4,0.9,5,1.3,7.6c0.6,3.2,1.1,6.5,1.5,9.8l0.6,3.9c0.8,5.5,1.5,10.7,2.1,14.7
			c0.6,4.8,1,8.2,1.2,9.3c0,0.1,0,0.2,0,0.4c1.5,9.8,2.3,19.6,2.5,29.5c0.2,4.5,0.2,9,0.1,13.6c0,0.7,0,1.4,0,2.1
			c0,1.4-0.2,2.8-0.3,4.2s-0.3,2.7-0.6,4.1c-1.9,11-7.2,21.1-15,29c-0.5,0.4-0.9,0.9-1.4,1.3c-1.6,1.5-3.4,2.9-5.3,4.1l-2.4,1.5
			c-0.5,0.3-1.1,0.6-1.7,0.9c-0.8,0.4-1.7,0.9-2.5,1.3c-0.9,0.4-1.8,0.8-2.7,1.1c-1,0.3-2.1,0.8-3,1.2c-7.3,2.7-15.1,5.3-23.3,7.7
			c-2.5,0.7-5,1.4-7.6,2.1c-0.7,0.2-1.3,0.3-1.9,0.5c-7.5,1.9-15.1,3.5-22.9,4.9h-0.1c-4.9,0.9-9.6,1.6-14.5,2.3
			c-0.4,0-0.8,0.1-1.2,0.1c-3.9,0.6-7.6,1-11.5,1.3c-1,0.1-2,0.2-3,0.3c-2,0.2-3.9,0.3-6,0.4c-4,0.2-8,0.3-11.8,0.4
			c-0.4,0-0.6,0-1,0c-0.1-0.1-0.4,0-0.5-0.1s-0.5,0-0.7,0c0,0-3.7-0.4-4.3-0.4c-0.4,0-0.7-0.2-1-0.2s-1-0.1-1.7-0.3
			s-1.2-0.2-1.8-0.4s-1.2-0.2-1.7-0.4c-0.1,0-0.1,0-0.1-0.1l0,0l-1.2-0.3c-0.7-0.1-1.3-0.4-1.9-0.6c-0.4-0.1-0.7-0.3-1.1-0.4
			c-0.1-0.1-0.3-0.2-0.4-0.1c-0.3-0.2-0.5-0.2-0.8-0.3c-0.4-0.2-0.8-0.4-1.3-0.5c-0.1,0-0.2,0-0.3,0c-0.5-0.2-1-0.5-1.6-0.7
			l-1.3-0.7c-0.2-0.1-0.4-0.2-0.6-0.4c-0.9-0.5-1.8-1-2.6-1.6c-0.3-0.2-0.5-0.3-0.8-0.5c-0.2-0.1-0.5-0.3-0.7-0.5
			c-0.3-0.2-0.5-0.3-0.8-0.5c-0.6-0.4-1.1-0.8-1.6-1.2c-0.3-0.3-0.8-0.6-1.1-0.8c0-0.1-0.1-0.1-0.1-0.1l0,0c-0.4-0.3-0.7-0.6-1-0.9
			c-0.2-0.2-0.5-0.3-0.7-0.5c-0.8-0.6-1.6-1.3-2.3-2.1l-0.5-0.5c-0.3-0.4-0.7-0.7-1.1-1c-0.2-0.3-0.5-0.4-0.7-0.7l-1.2-1.4
			c0-0.1-0.1-0.1-0.1-0.1l0,0c-3.7-4.2-6.7-8.9-9-14c-1.7-3.7-3.4-7.5-5-11.2c-3.8-8.9-7.1-18.1-9.9-27.4l-0.1-0.3
			c-0.7-2.1-4.5-14.5-8.3-28c-1.7-6.3-3.6-12.9-4.9-18.7c-0.1-0.3-0.2-0.5-0.1-0.8c-1.2-7.2-2.1-13.6-3.3-20.3
			c-0.8-4,1.1-8.1,4.7-10.1l0.2-0.1c5.2-2.5,10.4-4.8,15.6-7.1c1.8-0.7,3.6-1.6,5.4-2.3c7.6-3.2,15.4-6.1,23.2-8.7
			c15.6-5.4,31.5-9.8,47.6-13.2c18.7-4.1,37.7-6.8,56.8-8.3c13.2-1,26.4-1.3,39.8-1.1c1.6,0,3.1,0.5,4.4,1.3c1.1,0.6,2,1.5,2.7,2.5
			C576.6,599.8,577.2,600.7,577.5,601.7L577.5,601.7z"/>
		<path class="st14" d="M433.6,781c-0.1-0.1-0.3-0.1-0.4-0.2l-0.7-0.4C432.9,780.6,433.3,780.8,433.6,781z"/>
		<path class="st14" d="M434.8,781.5L434.8,781.5c-0.1,0-0.3-0.1-0.4-0.2C434.5,781.4,434.7,781.4,434.8,781.5z"/>
		<path class="st14" d="M452.6,785.5c-0.1,0-0.2,0-0.2,0s-0.1,0-0.3,0C452.3,785.5,452.4,785.5,452.6,785.5z"/>
		<path class="st16" d="M432.5,780.4c0.4,0.2,0.7,0.4,1.1,0.5c-0.1-0.1-0.3-0.1-0.4-0.2L432.5,780.4z"/>
		<path class="st16" d="M434.4,781.3c0.1,0.1,0.3,0.1,0.4,0.2l0,0C434.7,781.4,434.5,781.4,434.4,781.3z"/>
		<path class="st16" d="M452.6,785.5c-0.1,0-0.2,0-0.2,0s-0.1,0-0.3,0C452.3,785.5,452.4,785.5,452.6,785.5z"/>
		<path class="st16" d="M433.6,781c-0.1-0.1-0.3-0.1-0.4-0.2l-0.7-0.4C432.9,780.6,433.3,780.8,433.6,781z"/>
		<path class="st16" d="M434.8,781.5L434.8,781.5c-0.1,0-0.3-0.1-0.4-0.2C434.5,781.4,434.7,781.4,434.8,781.5z"/>
		<path class="st16" d="M452.6,785.5c-0.1,0-0.2,0-0.2,0s-0.1,0-0.3,0C452.3,785.5,452.4,785.5,452.6,785.5z"/>
		<path class="st17" d="M492.4,764.2c-24.7,8.3-51.2,9.4-76.4,3.1l0,0c-3.7-4.2-6.7-8.9-9-14c-1.7-3.7-3.4-7.5-5-11.2
			c-3.8-8.9-7.1-18.1-9.9-27.4l-0.1-0.3c-0.7-2.1-4.5-14.5-8.3-28c-1.7-6.3-3.6-12.9-4.9-18.7c-0.1-0.3-0.2-0.5-0.1-0.8
			c-1.2-7.2-2.1-13.6-3.3-20.3c-0.8-4,1.1-8.1,4.7-10.1l0.2-0.1c5.2-2.5,10.4-4.8,15.6-7.1c1.8-0.7,3.6-1.6,5.4-2.3
			c7.6-3.2,15.4-6.1,23.2-8.7c15.6-5.4,31.5-9.8,47.6-13.2c18.7-4.1,37.7-6.8,56.8-8.3c13.2-1,26.4-1.3,39.8-1.1c1.4,0,2.7,0.4,4,1
			c1.2,0.6,2.2,1.7,3.2,2.6c1,0.9,1.5,1.9,2,3.1C579.2,607.2,557,742.4,492.4,764.2z"/>
		<path class="st17" d="M587.5,648.3c-0.1-0.6-0.2-1.1-0.3-1.7l0.1,0.7C587.5,647.6,587.5,648,587.5,648.3z"/>
		<path class="st17" d="M593.3,714.8v2.1c0,1.4-0.2,2.8-0.3,4.2s-0.3,2.7-0.6,4.1c-1.9,11-7.2,21.1-15,29c-0.5,0.4-0.9,0.9-1.4,1.3
			c-1.6,1.5-3.4,2.9-5.3,4.1l-2.4,1.5c-0.5,0.3-1.1,0.6-1.7,0.9c-0.8,0.4-1.7,0.9-2.5,1.3c-0.9,0.4-1.8,0.8-2.7,1.1
			c-1,0.3-2.1,0.8-3,1.2c-7.3,2.7-15.1,5.3-23.3,7.7c-2.5,0.7-5,1.4-7.6,2.1c-0.7,0.2-1.3,0.3-1.9,0.5c-7.5,1.9-15.1,3.5-22.9,4.9
			h-0.1c-4.9,0.9-9.6,1.6-14.5,2.3c-0.4,0-0.8,0.1-1.2,0.1c-3.9,0.6-7.6,1-11.5,1.3c-1,0.1-2,0.2-3,0.3c-2,0.2-3.9,0.3-6,0.4
			c-4,0.2-8,0.3-11.8,0.4h-1c-0.1-0.1-0.4,0-0.5-0.1c0.4,0,0.8,0,1.1,0c35.9-0.4,76.3-9.2,106.9-21.1c19.2-7.6,31.7-27.2,31.9-49.8
			c0-3.5,0.1-7,0-10.5c0-6-0.2-11.9-0.6-17.8c0.4,5,0.7,9.9,0.8,14.9C593.4,705.7,593.4,710.2,593.3,714.8z"/>
		<path class="st16" d="M593,714.6c-0.2,22.6-12.7,42.2-31.9,49.8c-30.6,11.9-71,20.7-106.9,21.1c-0.4,0-0.8,0-1.1,0c0,0,0,0-0.1,0
			s-0.2,0-0.4,0c-0.2,0-0.4,0-0.6,0h-0.1c-0.1,0-0.2,0-0.3,0c-0.1,0-0.2,0-0.3,0c-0.4,0-0.8-0.1-1.3-0.1c-0.3,0-0.5,0-0.7-0.1
			c-0.2,0-0.5,0-0.7,0c-0.1,0-0.2,0-0.3,0c-0.1,0-0.2,0-0.2,0c-0.1,0-0.1,0-0.2,0c-0.4,0-0.7-0.2-1-0.2s-1-0.1-1.7-0.3
			s-1.2-0.2-1.8-0.4c-0.6-0.2-1.2-0.2-1.7-0.4c-0.1,0-0.1,0-0.1-0.1l-1.2-0.3c-0.7-0.1-1.3-0.4-1.9-0.6c-0.4-0.1-0.7-0.3-1.1-0.4
			c-0.1-0.1-0.3-0.2-0.4-0.1c-0.3-0.2-0.5-0.2-0.8-0.3c-0.4-0.2-0.8-0.4-1.3-0.5h-0.3c-0.1,0-0.3-0.1-0.4-0.2
			c-0.3-0.1-0.5-0.2-0.8-0.4c-0.4-0.2-0.7-0.4-1.1-0.5l-0.6-0.3c-0.2-0.1-0.4-0.2-0.6-0.4c-0.9-0.5-1.8-1-2.6-1.6
			c-0.3-0.2-0.5-0.3-0.8-0.5c-0.2-0.1-0.5-0.3-0.7-0.5c-0.3-0.2-0.5-0.3-0.8-0.5c-0.6-0.4-1.1-0.8-1.6-1.2c-0.3-0.3-0.8-0.6-1.1-0.8
			c0-0.1-0.1-0.1-0.1-0.1c-0.4-0.3-0.7-0.6-1-0.9c-0.2-0.2-0.5-0.3-0.7-0.5c-0.8-0.6-1.6-1.3-2.3-2.1l-0.5-0.5
			c-0.3-0.4-0.7-0.7-1.1-1c-0.2-0.3-0.5-0.4-0.7-0.7l-1.2-1.4c0,0,0,0,0-0.1l0,0c25.2,6.3,51.7,5.2,76.4-3.1
			c64.6-21.8,102.3-85.9,89.5-147.5c0.2,0.7,0.3,1.1,0.4,1.5c0.2,0.7,0.4,1.2,1.2,4.1c0,0,0.2,0.8,0.2,0.9c0.3,1.6,0.5,3.1,0.8,4.7
			c0.3,1.7,0.6,3.3,0.9,5.1c0.2,1,1.2,6.7,1.6,10.3c0,0,0.3,1.6,0.6,3.8c0.9,6.8,2.2,14.8,2.6,19c0,0.1,0,0.2,0,0.3v0.1
			c0,0.2,0,0.4,0.1,0.6c0,0.1,0,0.2,0,0.3c0.1,0.8,0.2,1.6,0.3,2.4c0,0.5,0.1,1,0.2,1.4v0.4c0.7,4.6,1.3,9.3,1.7,13.9
			c0,0.2,0,0.5,0,0.7c0.4,5.9,0.6,11.9,0.6,17.8C593.1,707.6,593,711.1,593,714.6z"/>
		<path class="st18" d="M593.3,714.8v2.1c0,1.4-0.2,2.8-0.3,4.2s-0.3,2.7-0.6,4.1c-1.9,11-7.2,21.1-15,29c-0.5,0.4-0.9,0.9-1.4,1.3
			c-1.6,1.5-3.4,2.9-5.3,4.1l-2.4,1.5c-0.5,0.3-1.1,0.6-1.7,0.9c-0.8,0.4-1.7,0.9-2.5,1.3c-0.9,0.4-1.8,0.8-2.7,1.1
			c-1,0.3-2.1,0.8-3,1.2c-7.3,2.7-15.1,5.3-23.3,7.7c-2.5,0.7-5,1.4-7.6,2.1c-0.7,0.2-1.3,0.3-1.9,0.5c-7.5,1.9-15.1,3.5-22.9,4.9
			h-0.1c-4.9,0.9-9.6,1.6-14.5,2.3c-0.4,0-0.8,0.1-1.2,0.1c-3.9,0.6-7.6,1-11.5,1.3c-1,0.1-2,0.2-3,0.3c-2,0.2-3.9,0.3-6,0.4
			c-4,0.2-8,0.3-11.8,0.4h-1c-0.1-0.1-0.4,0-0.5-0.1l0,0l0,0c-0.1,0-0.2,0-0.4,0c-0.2,0-0.4,0-0.6,0H452c-0.1,0-0.2,0-0.3,0
			c-0.1,0-0.2,0-0.3,0c-0.4,0-0.8-0.1-1.3-0.1c-0.3,0-0.5,0-0.7-0.1c-0.2,0-0.5,0-0.7,0c-0.1,0-0.2,0-0.3,0c-0.1,0-0.2,0-0.2,0
			c-0.1,0-0.1,0-0.2,0c-0.4,0-0.7-0.2-1-0.2s-1-0.1-1.7-0.3s-1.2-0.2-1.8-0.4c-0.6-0.2-1.2-0.2-1.7-0.4c-0.1,0-0.1,0-0.1-0.1
			l-1.2-0.3c-0.7-0.1-1.3-0.4-1.9-0.6c-0.4-0.1-0.7-0.3-1.1-0.4c-0.1-0.1-0.3-0.2-0.4-0.1c-0.3-0.2-0.5-0.2-0.8-0.3
			c-0.4-0.2-0.8-0.4-1.3-0.5h-0.3c-0.1,0-0.3-0.1-0.4-0.2c-0.3-0.1-0.5-0.2-0.8-0.4c-0.4-0.2-0.7-0.4-1.1-0.5l-0.6-0.3
			c-0.2-0.1-0.4-0.2-0.6-0.4c-0.9-0.5-1.8-1-2.6-1.6c-0.3-0.2-0.5-0.3-0.8-0.5c-0.2-0.1-0.5-0.3-0.7-0.5c-0.3-0.2-0.5-0.3-0.8-0.5
			c-0.6-0.4-1.1-0.8-1.6-1.2c-0.3-0.3-0.8-0.6-1.1-0.8c0-0.1-0.1-0.1-0.1-0.1c-0.4-0.3-0.7-0.6-1-0.9c-0.2-0.2-0.5-0.3-0.7-0.5
			c-0.8-0.6-1.6-1.3-2.3-2.1l-0.5-0.5c-0.3-0.4-0.7-0.7-1.1-1c-0.2-0.3-0.5-0.4-0.7-0.7l-1.2-1.4c0,0,0,0,0-0.1l0,0l0,0
			c-3.7-4.2-6.7-8.9-9-14c-1.7-3.7-3.4-7.5-5-11.2c-3.8-8.9-7.1-18.1-9.9-27.4l-0.1-0.3c-0.7-2.1-4.5-14.5-8.3-28
			c-1.7-6.3-3.6-12.9-4.9-18.7c-0.1-0.3-0.2-0.5-0.1-0.8c-1.2-7.2-2.1-13.6-3.3-20.3c-0.8-4,1.1-8.1,4.7-10.1l0.2-0.1
			c5.2-2.5,10.4-4.8,15.6-7.1c1.8-0.7,3.6-1.6,5.4-2.3c7.6-3.2,15.4-6.1,23.2-8.7c15.6-5.4,31.5-9.8,47.6-13.2
			c18.7-4.1,37.7-6.8,56.8-8.3c13.2-1,26.4-1.3,39.8-1.1c1.4,0,2.7,0.4,4,1c1.2,0.6,2.2,1.7,3.2,2.6c1,0.9,1.5,1.9,2,3.1
			c1.5,4,2.3,8.4,3.4,12.5c3.7,13.6,6.1,27.6,7.6,41.6c1.5,14.3,3.9,28.5,4.3,42.8l0,0c0,0.6,0,1.2,0,1.7
			C593.4,705.7,593.4,710.2,593.3,714.8z"/>
		<path class="st16" d="M432.5,780.4c-6.3-3.1-12.1-7.6-16.9-13.2c0.1,0,0.3,0.1,0.4,0.1l0,0c0,0,0,0,0,0.1l1.2,1.4
			c0.2,0.3,0.5,0.4,0.7,0.7c0.4,0.3,0.8,0.6,1.1,1l0.5,0.5c0.7,0.8,1.5,1.5,2.3,2.1c0.2,0.2,0.5,0.3,0.7,0.5c0.3,0.3,0.6,0.6,1,0.9
			c0,0,0.1,0,0.1,0.1c0.3,0.2,0.8,0.5,1.1,0.8c0.5,0.4,1,0.8,1.6,1.2c0.3,0.2,0.5,0.3,0.8,0.5c0.2,0.2,0.5,0.4,0.7,0.5
			c0.3,0.2,0.5,0.3,0.8,0.5c0.8,0.6,1.7,1.1,2.6,1.6c0.2,0.2,0.4,0.3,0.6,0.4L432.5,780.4z"/>
		<path class="st16" d="M451.9,785.4c-5.9-0.2-11.7-1.6-17.1-4h0.3c0.5,0.1,0.9,0.3,1.3,0.5c0.3,0.1,0.5,0.1,0.8,0.3
			c0.1-0.1,0.3,0,0.4,0.1c0.4,0.1,0.7,0.3,1.1,0.4c0.6,0.2,1.2,0.5,1.9,0.6l1.2,0.3c0,0.1,0,0.1,0.1,0.1c0.5,0.2,1.1,0.2,1.7,0.4
			s1.1,0.2,1.8,0.4c0.7,0.2,1.4,0.3,1.7,0.3c0.3,0,0.6,0.2,1,0.2C448.6,785.1,450.9,785.3,451.9,785.4z"/>
		<path class="st16" d="M453.1,785.5c-0.1,0-0.3,0-0.4,0C452.8,785.5,453,785.4,453.1,785.5z"/>
		<path class="st15" d="M419.4,677.8c-1.4,22.3-7.3,44-17.4,63.9c-3.8-8.9-7.1-18.1-9.8-27.4l-0.1-0.3c-0.7-2.1-4.5-14.5-8.3-28
			c0.4-2.8,0.7-5.6,1-8.5c1.6-22.6-3.5-38.7-4.6-41.5l-0.1-0.4v0.1l22-8.3l0,0C403.4,629.8,421.2,646.6,419.4,677.8z"/>
		<path class="st14" d="M412.5,660l-0.2,0.1c-4.4,1.5-109.4,34.4-181.5-30.2c-7.3-6.1-8.3-16.9-2.2-24.2s16.9-8.3,24.2-2.2
			c0.3,0.3,0.7,0.6,1,0.9c57.2,51.2,147,23.3,147.9,23.1c9-3,18.8,1.9,21.8,10.9C426.4,647.3,421.5,657,412.5,660L412.5,660z"/>
		<path class="st8" d="M183.8,593.9c-1.3,6.1-2.3,10.6-3.3,15.7c11.4,8.8,22.3,17.2,32.7,25.2c7.3-1.8,13.4-3.4,20.3-5.1
			c0-0.1-0.1-0.1-0.1-0.1l0,0c0-0.1-0.1-0.1-0.1-0.1c-0.1-0.1-0.2-0.2-0.3-0.3l20.3-22.5l0.4-3.7c1.1-7.8,2-14.6,3.1-22.6
			c-10.8-8.5-21.5-17-33.3-26.2c-4.5,3.3-8.4,6.4-12.8,9.7c6.2,7.6,11.3,13.7,17.7,21.7c-6.2,8.1-11.7,15.2-17.7,22.8L183.8,593.9z"
			/>
		<circle class="st14" cx="534.7" cy="663.8" r="33"/>
		<path class="st19" d="M569.5,646.4c-3.2-6.3-7.9-11.6-13.9-15.5c-18.2-11.7-42.3-6.4-54,11.7c-11.7,18.2-6.4,42.3,11.7,54
			c18.2,11.7,42.3,6.4,54-11.7c6.4-10,8-22.3,4.2-33.5C571.1,649.7,570.4,648,569.5,646.4z M542.8,688.2c-13.4,4.5-28-2.7-32.5-16.2
			c-4.5-13.4,2.7-28,16.2-32.5c13.4-4.5,28,2.7,32.5,16.2l0,0C563.5,669.1,556.3,683.7,542.8,688.2L542.8,688.2z"/>
		<path class="st20" d="M304.9,558.9c-25.2,15-98.3,54.1-176.6,54.1c-5-0.1-9.5,3-11.3,7.7C89.7,694.1,27.4,749,4.5,767.3
			c-4.8,3.9-5.9,10.8-2.5,16C168.8,1032.5,343.6,988,369.9,979.4c2.2-0.8,4.2-2.2,5.7-4c17.1-21.7,120.1-169.7-54.7-413.3
			C317.1,557.1,310.2,555.7,304.9,558.9L304.9,558.9z"/>
		<path class="st21" d="M302.4,595.8c0,0-77.4,52.2-159.9,49.1c-0.1,0-0.1,0-0.3,0l-0.1,0.2C116.1,723.5,40,777.6,40,777.6
			c150.8,231.7,311,168.3,311,168.3S466.6,818,302.4,595.8z"/>
		<path class="st14" d="M158.8,827.9L89,781.5l20.2-14.3l46,33.8l-16.9-54.5l19.4-13.8l20.8,81.3L158.8,827.9z M191.5,708.4
			c16.4-11.7,31.7-10.4,42.1,4.2c10.8,15.1,7.6,30.7-8.8,42.4l-10,7.1l12.3,17.2l-18.9,13.5L162.6,729L191.5,708.4L191.5,708.4z
			 M204.3,747.5l9.1-6.5c5.7-4,6.6-9.5,2.6-15.2c-3.9-5.5-9.4-6.3-15.1-2.3l-9.1,6.5L204.3,747.5z M314.5,716.8l-52.2-16.2
			l25.3,35.4l-17.3,12.4l-45.4-63.7l16.2-11.6l52.4,16.4L268,653.9l17.3-12.3l45.4,63.7L314.5,716.8z M335.9,852.7
			c-15.3-3.9-31.5-1.1-44.6,7.7c-13.2,8.8-22,22.7-24.3,38.4c-0.7,7.1,4.6,11.5,9.9,12.1c1.6,0.2,3.3,0,4.9-0.5
			c0.9-0.3,1.8-0.8,2.6-1.4c2.4-1.7,4-4.5,4.3-7.4c1-9,6.5-17.6,14.7-23s18.2-7.2,27-4.7c2.9,1,6,0.6,8.6-1c2.2-1.5,3.8-3.7,4.5-6.2
			C344.9,861.4,342.9,854.7,335.9,852.7L335.9,852.7z M312.3,890.9c-6.8,4.5-8.6,13.7-4,20.5c4.5,6.8,13.7,8.6,20.5,4
			c6.8-4.5,8.6-13.7,4-20.5l0,0C328.1,888.2,319.1,886.5,312.3,890.9z"/>
		<path class="st14" d="M339.1,815.6c-23.7-4.6-48.3,0.4-68.3,14c-20.6,13.8-34.5,34.2-39.1,57.7c-0.9,4.1,0.2,7.6,3,10.1
			c3.2,2.6,7.5,3.5,11.4,2.1c3.6-1.2,6.3-4.2,7-7.9c3.7-18.3,13.7-33,29.9-43.8s33.6-14.4,52-10.8c3.7,0.7,7.5-0.6,10-3.5
			c2.7-3.1,3.7-7.3,2.5-11.2C346,818.8,342.8,816.2,339.1,815.6L339.1,815.6z"/>
		<path class="st14" d="M342.6,779c-33.1-5.2-65.1,1.7-92.4,19.9s-45.9,45.1-53.8,77.7c-0.8,2.9-0.3,6.1,1.3,8.6
			c1.5,2.2,3.8,3.7,6.4,4.4c2.1,0.5,4.3,0.4,6.4-0.3c3.7-1.3,6.4-4.4,7.2-8.2c12.9-54.4,65.6-89.7,120.9-80.7c6,1.1,11.8-2.9,12.9-9
			c0-0.1,0-0.2,0.1-0.4C352.4,785.9,349.6,780.1,342.6,779z"/>
		<path class="st8" d="M595.8,808.5c-0.4,7.2-2.3,14.2-5.6,20.5c-7.5,14-22.6,22.7-35.8,30.4c-15.3,8.9-32.8,13.1-50.3,14.2
			c-16.1,1-33-2.2-46.5-11.3c-14.4-9.7-25.7-24.8-32.4-40.7c0.6,1.4,9.2,0.2,10.5,0.1c6.1-0.4,12.3-0.5,18.4-0.8
			c24.6-1.2,49.4-3.9,73.2-10.1c9.9-2.4,19.5-5.8,28.8-10c10.4-4.9,18.8-13.1,29.5-17.7c5.1-2.2,6.3,0.9,7.7,5.3
			C595.3,794.9,596.2,801.7,595.8,808.5z"/>
		<path class="st0" d="M197.3,319.6L197.3,319.6c10.5-1,18.1-10.3,17-20.7c-0.9-8.5-7.3-15.4-15.7-16.8c-3-0.5-6.2-0.4-9.1,0.6
			c-12.7-58.2-34.4-131.8-68.1-170.7c0,0,9.1-8.6,26.9-21.1c1-0.7,2-1.4,3-2.1l1.3-0.9l1.6-1.1l1.6-1.1c1.1-0.7,2.2-1.5,3.4-2.2
			c2-1.3,4.1-2.6,6.2-4c2.9-1.8,5.9-3.6,9-5.5c1.6-1,3.2-1.9,4.8-2.9l2.5-1.4c17.8-10.1,36.2-19,55.1-26.8l2.5-1l2.5-1
			c1.7-0.7,3.4-1.3,5.2-2c2.3-0.9,4.7-1.8,7-2.7l3.6-1.3c3.6-1.3,7.3-2.6,11-3.9c2.5-0.9,5-1.7,7.6-2.5s5.2-1.6,7.8-2.5l4-1.2
			c16.4-4.9,34-9.4,52.8-13.1l3.5-0.7c4.7-0.9,9.5-1.8,14.4-2.6c4.9-0.8,10.1-1.7,15.3-2.4c2.4-0.3,4.8-0.7,7.3-1l1.9-0.2l4-0.5
			l4.1-0.5c3.1-0.3,6.2-0.7,9.4-1c17.5-1.7,35.7-2.6,54.7-2.8c7.3-0.1,14.7,0,22.2,0.2c10.8,0.3,21.9,0.8,33.2,1.7
			c16.9,1.3,5.5,148.6,41,247.1c0.5,1.3,0.9,2.6,1.4,3.9c0.5,1.5,1.1,2.9,1.7,4.3c0.9,2.4,1.9,4.7,2.8,7c0.2,0.5,0.4,0.9,0.6,1.4
			c0.3,0.7,0.6,1.3,0.9,2l0.2,0.4c0.5,1.1,0.9,2.1,1.4,3.2c0.1,0.1,0.1,0.3,0.2,0.4c0.5,1.1,1,2.2,1.5,3.3c0.5,1.1,1.1,2.3,1.7,3.5
			l0.8,1.7l0.5,1c1.7,3.2,3.3,6.4,5.1,9.4c0.4,0.7,0.9,1.5,1.3,2.2c0.2,0.3,0.3,0.5,0.5,0.8c0.7,1.2,1.4,2.3,2.2,3.5
			c0.4,0.7,0.9,1.4,1.3,2.1c0.9,1.3,1.8,2.7,2.7,4c0,0-8.3,11.3-46.8,24.4c-28.9,9.8-74.6,20.7-146.6,28.6
			c-13.2-0.8-26.6-1.8-40.3-3l-1.8-0.1l-0.8-0.1h-0.1c-10.7-0.9-21.7-1.9-32.8-3c-13.9-1.3-28.1-2.7-42.9-4.1h-0.3
			c-8.2-0.8-16.6-1.6-25.1-2.4h-0.3c-4.1-0.4-8-0.7-11.8-0.9c-9.4-0.6-18.9-0.7-28.4-0.3c-0.2-1-0.3-2.1-0.5-3.2
			c-0.9-5.4-1.9-11.5-3.1-17.9L197.3,319.6z"/>
		<path class="st1" d="M225.4,337l26.2-10c0,0-11.4-123.7-69.7-257.4c-13.4,7.6-24.6,14.8-33.6,21.1
			C161.7,110.3,197.9,175.6,225.4,337z"/>
		<path class="st1" d="M296,315.3l43.4-16.3c0,0-49.1-204.9-51.2-274.5c-19.7,5.9-39,12.9-57.8,21C240.9,90,284,273.8,296,315.3z"/>
		<path class="st1" d="M341,11.5c6.5,45.7,31.8,215.6,55.4,273.1l47-10c0,0-44.6-180.7-42.6-271.8C380.7,4.6,360.8,7.5,341,11.5z"/>
		<path class="st1" d="M495.4,1c-13.7-0.8-27-1.1-40-1c-2,36.9,7.5,154.6,37.8,267.3l35.3-6.3C528.4,261,491.4,112.1,495.4,1z"/>
		<path class="st2" d="M622.8,327.6c-9.9,5.7-20.1,11.2-31.1,14.5c-11.3,3.3-23.4,5.1-35,7.1c-7.2,1.2-14.3,2.3-21.4,3.3l-2.7,0.4
			c-49.8,6.5-97.1,6.4-147.4,3.3c-13.2-0.8-26.6-1.8-40.3-3l-1.8-0.1l-0.8-0.1h1.4l0,0h1c36.1-0.5,94.3-4.3,142.8-20.8
			c10-3.4,19.7-7.4,29.1-12.3l1-0.5c12.1-6.4,22.8-13.9,31.6-22.9c2.6-2.7,5.2-5.2,7.7-7.6c2.9-2.7,5.7-5.2,8.5-7.6
			c32.4-27,57.7-29.1,73-26.4c5.4,0.9,10.6,2.7,15.3,5.5c0.8,0.5,1.2,0.8,1.2,0.8c3.5,3.6,6.2,7.9,7.8,12.7c0.6,1.9,1,3.9,1.1,5.9
			C665.2,298.8,642.6,316.2,622.8,327.6z"/>
		<path class="st3" d="M578.6,303.1c0,0-8.3,11.3-46.8,24.4c-28.9,9.8-74.6,20.7-146.6,28.6l0,0c-13.2-0.8-26.6-1.8-40.3-3l0,0
			l-1.8-0.1l-0.8-0.1h-0.1c-10.7-0.9-21.7-1.9-32.8-3c-13.9-1.3-43.2-4.1-43.2-4.1c-8.2-0.8-16.6-1.6-25.1-2.4h-0.3
			c-4.1-0.4-8-0.7-11.8-0.9c-9.4-0.6-18.9-0.7-28.4-0.3c-0.2-1-0.3-2.1-0.5-3.2c4.9-2.2,12.9-5.8,23.8-10.3
			c7.5-3.1,16.5-6.6,26.7-10.4c12.2-4.6,26.3-9.5,42.1-14.7c13.6-4.4,28.5-9,44.5-13.6c17.3-4.9,35.9-9.8,55.7-14.4
			c15.3-3.6,31.4-7,48.2-10.3c15.8-3,32.2-5.9,49.2-8.5c11.7-1.8,23.6-3.4,35.9-4.9c8.4-1,16.9-2,25.5-2.9c0.5,1.3,1,2.6,1.4,3.9
			c0.5,1.5,1.1,2.9,1.7,4.3c0.9,2.4,1.9,4.7,2.8,7c0.2,0.5,0.4,0.9,0.6,1.4c0.3,0.7,0.6,1.3,0.9,2l0.2,0.4c0.5,1.1,0.9,2.1,1.4,3.2
			c0.1,0.1,0.1,0.3,0.2,0.4c0.5,1.1,1,2.2,1.5,3.3s1.1,2.3,1.7,3.5l0.8,1.7l0.5,1l0,0c1.7,3.2,3.3,6.4,5.1,9.4
			c0.4,0.7,0.9,1.5,1.3,2.2c0.2,0.3,0.3,0.5,0.5,0.8c0.7,1.2,1.4,2.3,2.2,3.5c0.4,0.7,0.9,1.4,1.3,2.1
			C576.8,300.5,577.7,301.8,578.6,303.1z"/>
		<polygon class="st1" points="400.4,286.8 415.1,302.5 436.3,299.4 425.9,318.1 435.5,337.4 414.4,333.3 399,348.3 396.4,327 
			377.4,317 396.9,308 		"/>
		<path class="st1" d="M344.8,352.8l0.1,0.3l-1.8-0.1l-0.8-0.1h-0.1c-10.7-0.9-21.7-1.9-32.8-3l-0.2-1.9l-18.7-10.6l19.8-8.4
			l4.2-20.6l0,0l0.1-0.4l0.3,0.3l13.9,15.9l21.3-2.5l-11,18.4L344.8,352.8z"/>
		<path class="st1" d="M233.1,334.1l8.1,9.3h-0.3c-4.1-0.4-8-0.7-11.8-0.9l1.5-7.4l0.6-3.1L233.1,334.1z"/>
		<polygon class="st1" points="486.4,267.4 500,284 521.4,282.2 509.8,300.3 518,320.1 497.3,314.6 481,328.6 479.8,307.2 
			461.5,296 481.5,288.2 		"/>
		<path class="st1" d="M558.3,265.6l-19.9,7.7l18.3,11.2l1.2,21.4l14.5-12.4C567,284.6,562.3,275.3,558.3,265.6z"/>
		<path class="st6" d="M198.6,282.1c-1.3-0.2-2.6-0.3-4-0.3c-1-4.4-2.1-9.2-3.2-14.2c-1.4-5.5-2.9-11.3-4.3-17.3
			c-0.3-1.5-0.7-3-1-4.6s-0.8-3-1.2-4.6c-0.8-3.1-1.6-6.2-2.4-9.3c-1.5-6.3-3.5-12.6-5.3-18.9l-1.4-4.7l-1.5-4.7
			c-1-3.1-2.1-6.2-3.1-9.3s-2.2-6.1-3.3-9.1s-2.2-5.9-3.3-8.8c-2.4-5.7-4.5-11.3-6.9-16.4l-3.4-7.6l-3.4-6.9c-1-2.2-2.2-4.3-3.2-6.3
			s-2-3.9-3-5.6s-1.9-3.4-2.8-4.9c-0.9-1.5-1.7-2.9-2.5-4.1c-1.5-2.4-2.8-4.3-3.6-5.6s-1.4-1.9-1.4-1.9l0.4-0.3c0,0,0.5,0.6,1.4,1.9
			s2.3,3.1,3.9,5.5l2.6,4c0.9,1.5,1.9,3.1,3,4.8s2.1,3.6,3.2,5.6s2.3,4,3.5,6.2l3.6,6.9l3.6,7.5c0.6,1.3,1.3,2.6,1.9,3.9l1.8,4.1
			c1.2,2.7,2.4,5.5,3.7,8.4s2.4,5.8,3.6,8.8s2.5,5.9,3.5,9s2.2,6.2,3.4,9.3l1.7,4.7l1.5,4.7c2,6.3,4.2,12.6,6,18.9
			c0.9,3.1,1.8,6.3,2.7,9.3c0.4,1.5,0.9,3.1,1.3,4.6s0.8,3.1,1.1,4.6c1.4,6.1,2.8,11.9,4,17.5C196.9,272,197.8,277.3,198.6,282.1z"
			/>
		<path class="st6" d="M192.5,79.1c0,0,0.4,0.7,1.3,2.2s2,3.5,3.3,6.2s3,6,4.9,9.8c0.9,1.9,1.8,4,2.8,6.1s2,4.4,3,6.8
			s2.1,4.9,3.2,7.4s2.1,5.3,3.2,8l1.7,4.2c0.5,1.4,1.1,2.9,1.6,4.3c1.1,2.9,2.2,5.9,3.3,9c2.1,6.1,4.4,12.4,6.4,19
			s4.3,13.1,6.1,19.7s4,13.3,5.7,19.9s3.6,13,5,19.4s2.8,12.5,4,18.3s2.1,11.4,2.9,16.5c0.4,2.6,0.8,5,1.2,7.3s0.7,4.6,0.9,6.6
			c0.6,4.2,1,7.8,1.4,10.8c0.8,6,1.1,9.5,1.1,9.5l-0.5,0.1c0,0-0.9-3.4-2.3-9.2c-0.7-2.9-1.6-6.5-2.5-10.6c-0.5-2.1-0.9-4.2-1.4-6.5
			s-1.1-4.7-1.7-7.2c-1.2-5-2.4-10.5-3.7-16.3s-2.9-11.8-4.3-18.1c-0.7-3.2-1.4-6.4-2.2-9.6s-1.5-6.5-2.3-9.8
			c-1.5-6.6-3.3-13.3-5-19.9s-3.7-13.3-5.6-19.8s-4-12.9-5.9-19c-2.1-6.1-4-12.1-6.1-17.6l-2.9-8.1c-1-2.6-2-5.1-2.9-7.5
			s-1.9-4.7-2.8-6.9s-1.7-4.3-2.6-6.2c-1.7-3.8-3.2-7.2-4.5-9.9s-2.4-4.9-3.1-6.3l-1.2-2.2L192.5,79.1z"/>
		<path class="st6" d="M508.7,62.9c0,0,0.8,11.2,2.6,27.9c0.5,4.2,1,8.7,1.6,13.5s1.2,9.8,1.9,15c0.3,2.6,0.7,5.3,1,7.9
			c0.3,2.7,0.8,5.4,1.2,8.1c0.8,5.5,1.7,11,2.6,16.5s2,11,3,16.4s2.2,10.7,3.2,15.8s2.1,10.1,3,14.8c1,4.7,2,9.1,2.9,13.2
			s1.9,7.8,2.7,11.1s1.6,6.2,2.2,8.5c1.3,4.7,2,7.5,2,7.5l-0.5,0.2c0,0-1.2-2.5-3.1-7.1c-1-2.3-2.2-5-3.3-8.3s-2.5-6.9-3.7-10.9
			s-2.5-8.5-3.7-13.1s-2.3-9.7-3.4-14.9c-0.9-5.2-1.9-10.6-2.7-16s-1.7-11-2.4-16.6s-1.5-11.1-2.1-16.6c-0.3-2.7-0.6-5.5-0.9-8.2
			c-0.3-2.7-0.5-5.4-0.8-8c-1.1-10.5-1.8-20.3-2.3-28.7c-1.1-16.8-1.4-28-1.4-28L508.7,62.9z"/>
		<path class="st4" d="M410.5,277.1l5.8-1.4c3.7-0.9,9-2.1,15.4-3.5s13.8-3.1,21.8-4.8l25.1-4.9l12.7-2.6c4.2-0.9,8.4-1.6,12.4-2.2
			s8-1.1,11.7-1.5c3.7-0.4,7.2-0.8,10.5-1.1c13-1.3,21.7-1.4,21.7-1.4l0.2,0.2l-0.2,0.2l0,0c0,0-8.5,2.3-21.3,4.8
			c-3.2,0.6-6.7,1.3-10.3,1.9s-7.6,1.3-11.6,1.9s-8.2,1-12.4,1.7l-12.8,1.9l-25.2,3.9l-21.9,3.7c-6.4,1.1-11.8,2-15.5,2.7l-5.9,1.1
			l-0.3-0.2L410.5,277.1z"/>
		<path class="st7" d="M155.9,93.3l0.9,1.4c0.6,0.9,1.4,2.3,2.6,4l1.8,2.8l2,3.4c1.4,2.5,3.1,5.2,4.6,8.3s3.3,6.5,5.1,10
			s3.4,7.5,5.3,11.4s3.6,8.1,5.4,12.3l5,13c0.8,2.2,1.7,4.3,2.5,6.5c0.4,1.1,0.8,2.2,1.2,3.2s0.7,2.2,1.1,3.3
			c1.5,4.3,2.8,8.6,4.2,12.8s2.4,8.2,3.4,12c0.9,3.9,1.7,7.6,2.4,11c2.8,13.7,4,22.9,4,22.9l-0.5,0.1c0,0-3.3-8.8-7.3-22
			c-1-3.3-2-6.9-3.1-10.8c-1.3-3.8-2.6-7.7-3.8-11.9s-2.5-8.4-3.7-12.8c-0.3-1.1-0.6-2.2-0.9-3.3s-0.7-2.2-1.1-3.3l-2.2-6.6
			c-1.5-4.4-3-8.8-4.4-13.1s-3.3-8.4-4.9-12.4s-3-8-4.7-11.6l-4.5-10.3c-1.4-3.2-3-6-4.2-8.5c-0.6-1.3-1.2-2.4-1.8-3.5
			s-1.1-2-1.6-2.9c-1-1.8-1.7-3.2-2.3-4.1l-0.9-1.4L155.9,93.3z"/>
		<path class="st7" d="M240.5,54.8l8.3,34.8c2.5,10.4,5.5,22.6,8.7,35.6c1.6,6.5,3.2,13.3,4.9,20.1s3.4,13.8,5.1,20.7
			s3.5,13.9,5.3,20.7s3.5,13.5,5.1,20s3.1,12.8,4.6,18.8s2.8,11.6,3.9,16.9s2.3,10,3.3,14.3s1.9,8,2.5,11c1.4,6.1,2.1,9.6,2.1,9.6
			l-0.5,0.1c0,0-1.2-3.4-3.2-9.3c-1-3-2.2-6.6-3.6-10.7s-2.9-8.8-4.3-14s-3.1-10.8-4.7-16.7s-3.4-12.2-4.9-18.7s-3.1-13.3-4.7-20.2
			s-3.1-13.9-4.7-20.9s-3.1-14-4.6-20.9s-3-13.7-4.4-20.2l-4.1-18.9l-3.5-17c-4.3-21-7.2-35.1-7.2-35.1L240.5,54.8z"/>
		<path class="st7" d="M350.3,20.9c0,0,2.1,14.7,5.5,36.6c1.8,11,3.9,23.8,6.1,37.5c1.2,6.8,2.3,13.9,3.6,21.1s2.5,14.5,3.9,21.8
			s2.7,14.6,4.1,21.7s2.8,14.2,4.2,21s2.6,13.4,3.8,19.6c0.6,3.1,1.1,6.2,1.8,9.1s1.1,5.8,1.7,8.5c1,5.4,2.1,10.4,3,14.8
			s1.7,8.3,2.4,11.4c1.5,6.3,2.2,10,2.2,10H392c0,0-1.3-3.5-3.4-9.6c-0.5-1.5-1.1-3.2-1.7-5.1s-1.2-3.9-1.8-6.1
			c-1.2-4.4-2.7-9.2-4-14.6s-2.9-11.2-4.2-17.5s-2.9-12.8-4.1-19.6s-2.6-13.9-3.7-21.1c-0.6-3.6-1.2-7.2-1.8-10.9
			c-0.6-3.6-1.1-7.3-1.7-11c-1.2-7.3-2.3-14.7-3.3-21.9s-2.1-14.3-3.1-21.2c-2-13.8-3.6-26.6-5-37.6c-2.8-22-4.4-36.8-4.4-36.8
			L350.3,20.9z"/>
		<path class="st7" d="M488.5,10c0,0,0.2,12.2,1.3,30.4c0.5,9.1,1.2,19.7,2.1,31.1c0.4,5.7,1,11.5,1.5,17.5s1.2,12,1.9,18
			s1.4,12.1,2.2,18c0.9,5.9,1.5,11.8,2.4,17.4s1.4,11.1,2.2,16.2c0.4,2.6,0.7,5.1,1,7.5s0.6,4.8,1,7c0.7,4.5,1.3,8.6,1.8,12.3
			c0.2,1.8,0.6,3.5,0.8,5.1s0.5,3,0.7,4.4c0.8,5.3,1.2,8.3,1.2,8.3l-0.5,0.1c0,0-0.9-2.9-2.4-8c-0.7-2.6-1.7-5.7-2.6-9.3
			s-1.8-7.7-2.8-12.2s-1.9-9.4-2.9-14.5s-1.7-10.6-2.6-16.3s-1.4-11.6-1.9-17.5c-0.6-6-1-12-1.6-18.1s-0.9-12.2-1.3-18.1
			s-0.7-11.9-1-17.6s-0.5-11.2-0.7-16.5S488,45,487.9,40.5C487.8,22.2,488,10,488,10H488.5z"/>
	</g>
</g>
</svg>
