<?xml version="1.0" encoding="utf-8"?>
<!-- Generator: Adobe Illustrator 18.1.1, SVG Export Plug-In . SVG Version: 6.00 Build 0)  -->
<svg version="1.1" xmlns="http://www.w3.org/2000/svg" xmlns:xlink="http://www.w3.org/1999/xlink" x="0px" y="0px"
	 viewBox="54.8 204.4 502.4 383.3" enable-background="new 54.8 204.4 502.4 383.3" xml:space="preserve">
<g>
	<g>
		<g>
			<g>
				<polygon fill="#F1F2F2" points="483.6,544.5 478.3,544.5 478.3,541 480.1,541 480.1,539.2 483.6,539.2 				"/>
			</g>
		</g>
		<g>
			<g>
				<path fill="#F1F2F2" d="M471.3,544.5h-7V541h7V544.5z M457.2,544.5h-7V541h7V544.5z M443.1,544.5h-7V541h7V544.5z M429,544.5h-7
					V541h7V544.5z M414.9,544.5h-7V541h7V544.5z M400.7,544.5h-7V541h7V544.5z M386.7,544.5h-7V541h7V544.5z M372.5,544.5h-7V541h7
					V544.5z M358.4,544.5h-7V541h7V544.5z M344.4,544.5h-7V541h7V544.5z M330.2,544.5h-7V541h7V544.5z M316.1,544.5h-7V541h7V544.5z
					 M302,544.5h-7V541h7V544.5z M287.9,544.5h-7V541h7V544.5z M273.8,544.5h-7V541h7V544.5z M259.6,544.5h-7V541h7V544.5z
					 M245.6,544.5h-7V541h7V544.5z M231.4,544.5h-7V541h7V544.5z M217.3,544.5h-7V541h7V544.5z M203.3,544.5h-7V541h7V544.5z
					 M189.1,544.5h-7V541h7V544.5z M175,544.5h-7V541h7V544.5z M160.9,544.5h-7V541h7V544.5z M146.8,544.5h-7V541h7V544.5z"/>
			</g>
		</g>
		<g>
			<g>
				<polygon fill="#F1F2F2" points="132.7,544.5 127.4,544.5 127.4,539.2 130.9,539.2 130.9,541 132.7,541 				"/>
			</g>
		</g>
		<g>
			<g>
				<path fill="#F1F2F2" d="M130.9,532.3h-3.5v-6.9h3.5V532.3z M130.9,518.6h-3.5v-6.9h3.5V518.6z M130.9,504.8h-3.5v-6.9h3.5V504.8
					z M130.9,491.1h-3.5v-6.9h3.5V491.1z M130.9,477.4h-3.5v-6.9h3.5V477.4z M130.9,463.6h-3.5v-6.9h3.5V463.6z M130.9,449.9h-3.5
					V443h3.5V449.9z M130.9,436.1h-3.5v-6.9h3.5V436.1z M130.9,422.4h-3.5v-6.9h3.5V422.4z M130.9,408.7h-3.5v-6.9h3.5V408.7z
					 M130.9,394.9h-3.5V388h3.5V394.9z M130.9,381.2h-3.5v-6.9h3.5V381.2z M130.9,367.5h-3.5v-6.9h3.5V367.5z M130.9,353.7h-3.5
					v-6.9h3.5V353.7z M130.9,340h-3.5v-6.9h3.5V340z M130.9,326.2h-3.5v-6.9h3.5V326.2z M130.9,312.5h-3.5v-6.9h3.5V312.5z
					 M130.9,298.8h-3.5v-6.9h3.5V298.8z M130.9,285h-3.5v-6.9h3.5V285z M130.9,271.3h-3.5v-6.9h3.5V271.3z"/>
			</g>
		</g>
		<g>
			<g>
				<polygon fill="#F1F2F2" points="130.9,257.5 127.4,257.5 127.4,252.3 132.7,252.3 132.7,255.7 130.9,255.7 				"/>
			</g>
		</g>
		<g>
			<g>
				<path fill="#F1F2F2" d="M471.3,255.7h-7v-3.5h7V255.7z M457.2,255.7h-7v-3.5h7V255.7z M443.1,255.7h-7v-3.5h7V255.7z M429,255.7
					h-7v-3.5h7V255.7z M414.9,255.7h-7v-3.5h7V255.7z M400.7,255.7h-7v-3.5h7V255.7z M386.7,255.7h-7v-3.5h7V255.7z M372.5,255.7h-7
					v-3.5h7V255.7z M358.4,255.7h-7v-3.5h7V255.7z M344.4,255.7h-7v-3.5h7V255.7z M330.2,255.7h-7v-3.5h7V255.7z M316.1,255.7h-7
					v-3.5h7V255.7z M302,255.7h-7v-3.5h7V255.7z M287.9,255.7h-7v-3.5h7V255.7z M273.8,255.7h-7v-3.5h7V255.7z M259.6,255.7h-7v-3.5
					h7V255.7z M245.6,255.7h-7v-3.5h7V255.7z M231.4,255.7h-7v-3.5h7V255.7z M217.3,255.7h-7v-3.5h7V255.7z M203.3,255.7h-7v-3.5h7
					V255.7z M189.1,255.7h-7v-3.5h7V255.7z M175,255.7h-7v-3.5h7V255.7z M160.9,255.7h-7v-3.5h7V255.7z M146.8,255.7h-7v-3.5h7
					V255.7z"/>
			</g>
		</g>
		<g>
			<g>
				<polygon fill="#F1F2F2" points="483.6,257.5 480.1,257.5 480.1,255.7 478.3,255.7 478.3,252.3 483.6,252.3 				"/>
			</g>
		</g>
		<g>
			<g>
				<path fill="#F1F2F2" d="M483.6,532.3h-3.5v-6.9h3.5V532.3z M483.6,518.6h-3.5v-6.9h3.5V518.6z M483.6,504.8h-3.5v-6.9h3.5V504.8
					z M483.6,491.1h-3.5v-6.9h3.5V491.1z M483.6,477.4h-3.5v-6.9h3.5V477.4z M483.6,463.6h-3.5v-6.9h3.5V463.6z M483.6,449.9h-3.5
					V443h3.5V449.9z M483.6,436.1h-3.5v-6.9h3.5V436.1z M483.6,422.4h-3.5v-6.9h3.5V422.4z M483.6,408.7h-3.5v-6.9h3.5V408.7z
					 M483.6,394.9h-3.5V388h3.5V394.9z M483.6,381.2h-3.5v-6.9h3.5V381.2z M483.6,367.5h-3.5v-6.9h3.5V367.5z M483.6,353.7h-3.5
					v-6.9h3.5V353.7z M483.6,340h-3.5v-6.9h3.5V340z M483.6,326.2h-3.5v-6.9h3.5V326.2z M483.6,312.5h-3.5v-6.9h3.5V312.5z
					 M483.6,298.8h-3.5v-6.9h3.5V298.8z M483.6,285h-3.5v-6.9h3.5V285z M483.6,271.3h-3.5v-6.9h3.5V271.3z"/>
			</g>
		</g>
	</g>
	<g>
		<g>
			<g>
				<circle fill="#1A9EFE" cx="481.9" cy="512.4" r="66.4"/>
			</g>
		</g>
		<g>
			<g>
				<path fill="#FFFFFF" d="M519.6,541.8c-8.6,11.4-22.3,18.7-37.8,18.7c-15.4,0-29.1-7.4-37.8-18.7c4.6-16.5,19.8-28.6,37.8-28.6
					C499.9,513.2,515,525.3,519.6,541.8z"/>
			</g>
		</g>
		<g>
			<g>
				<circle fill="#FFFFFF" cx="481.9" cy="497.9" r="19.6"/>
			</g>
		</g>
	</g>
	<g>
		<g>
			<g>
				<g>
					<path fill="#E7E7E9" d="M295.6,587.7H58.1c-1.8,0-3.3-1.4-3.3-3.3V432.2c0-1.8,1.4-3.3,3.3-3.3h237.6c1.8,0,3.3,1.4,3.3,3.3
						v152.2C298.9,586.3,297.5,587.7,295.6,587.7z"/>
				</g>
			</g>
			<g>
				<g>
					<path fill="#F1F2F2" d="M295.9,587.7h-238c-1.7,0-3-1.4-3-3V451.6c0-1.7,1.4-3,3-3h238c1.7,0,3,1.4,3,3v133.1
						C298.9,586.3,297.6,587.7,295.9,587.7z"/>
				</g>
			</g>
			<g>
				<g>
					<path fill="#FFC12E" d="M197.3,535.8H72.7c-0.9,0-1.6-0.7-1.6-1.6v-68.5c0-0.9,0.7-1.6,1.6-1.6h124.5c0.9,0,1.6,0.7,1.6,1.6
						v68.5C198.9,535.1,198.1,535.8,197.3,535.8z"/>
				</g>
			</g>
			<g>
				<g>
					<path fill="#FFFFFF" d="M281.4,535.8h-73c-0.6,0-1.2-0.6-1.2-1.2v-69.2c0-0.6,0.6-1.2,1.2-1.2h73c0.6,0,1.2,0.6,1.2,1.2v69.2
						C282.7,535.2,282.1,535.8,281.4,535.8z"/>
				</g>
			</g>
			<g>
				<g>
					<circle fill="#FFFFFF" cx="69" cy="438.6" r="4.3"/>
				</g>
			</g>
			<g>
				<g>
					<circle fill="#FFFFFF" cx="84.5" cy="438.6" r="4.3"/>
				</g>
			</g>
			<g>
				<g>
					<circle fill="#FFFFFF" cx="100.1" cy="438.6" r="4.3"/>
				</g>
			</g>
		</g>
		<g>
			<g>
				<path fill="#FFFFFF" d="M282,551.2H74.1c-0.4,0-0.7-0.3-0.7-0.7V543c0-0.4,0.3-0.7,0.7-0.7H282c0.4,0,0.7,0.3,0.7,0.7v7.5
					C282.7,550.9,282.3,551.2,282,551.2z"/>
			</g>
		</g>
		<g>
			<g>
				<path fill="#FFFFFF" d="M282,567.9H74.1c-0.4,0-0.7-0.3-0.7-0.7v-7.5c0-0.4,0.3-0.7,0.7-0.7H282c0.4,0,0.7,0.3,0.7,0.7v7.5
					C282.7,567.6,282.3,567.9,282,567.9z"/>
			</g>
		</g>
	</g>
	<g>
		<g>
			<g>
				<circle fill="#1A9EFE" cx="117.4" cy="264.9" r="60.6"/>
			</g>
		</g>
		<g>
			<g>
				<path fill="#FFFFFF" d="M143.4,258.4h-2.9v-9.5c0-12.7-10.4-23.1-23.1-23.1s-23.1,10.4-23.1,23.1v9.5h-2.9c-1,0-1.8,0.9-1.8,1.8
					v35.1c0,1,0.9,1.8,1.8,1.8h52.1c1,0,1.8-0.9,1.8-1.8v-35.1C145.3,259.2,144.5,258.4,143.4,258.4z M103.3,248.9
					c0-7.8,6.3-14,14-14c7.8,0,14,6.3,14,14v9.5h-28.1L103.3,248.9L103.3,248.9z M121.6,285.2h-8.3l1.6-8.6c-1-0.8-1.6-1.9-1.6-3.3
					c0-2.3,1.8-4.2,4.2-4.2c2.3,0,4.2,1.8,4.2,4.2c0,1.4-0.6,2.5-1.6,3.3L121.6,285.2z"/>
			</g>
		</g>
	</g>
	<g>
		<g>
			<polygon fill="#FFFFFF" points="129.2,489.8 129.2,510.1 146.8,499.9 			"/>
		</g>
	</g>
	<g>
		<g>
			<g>
				<g>
					<path fill="#E7E7E9" d="M553.4,385.6H282.7c-2.1,0-3.8-1.7-3.8-3.8V208.3c0-2.1,1.7-3.8,3.8-3.8h270.8c2.1,0,3.8,1.7,3.8,3.8
						v173.6C557.2,384,555.5,385.6,553.4,385.6z"/>
				</g>
			</g>
			<g>
				<g>
					<path fill="#F1F2F2" d="M553.7,385.6H282.4c-1.9,0-3.5-1.6-3.5-3.5V230.5c0-1.9,1.6-3.5,3.5-3.5h271.2c1.9,0,3.5,1.6,3.5,3.5
						v151.7C557.2,384,555.6,385.6,553.7,385.6z"/>
				</g>
			</g>
			<g>
				<g>
					<path fill="#FFFFFF" d="M417.4,256.8H301.2c-0.4,0-0.7-0.3-0.7-0.7V242c0-0.4,0.3-0.7,0.7-0.7h116.1c0.4,0,0.7,0.3,0.7,0.7
						v14.1C418.1,256.5,417.8,256.8,417.4,256.8z"/>
				</g>
			</g>
			<g>
				<g>
					<path fill="#FFFFFF" d="M417.5,276H301.1c-0.2,0-0.5-0.2-0.5-0.5v-6.8c0-0.2,0.2-0.5,0.5-0.5h116.5c0.2,0,0.5,0.2,0.5,0.5v6.8
						C418.1,275.7,417.9,276,417.5,276z"/>
				</g>
			</g>
			<g>
				<g>
					<path fill="#FFFFFF" d="M417.5,292.4H301.1c-0.2,0-0.5-0.2-0.5-0.5v-6.7c0-0.2,0.2-0.5,0.5-0.5h116.5c0.2,0,0.5,0.2,0.5,0.5
						v6.8C418.1,292.2,417.9,292.4,417.5,292.4z"/>
				</g>
			</g>
			<g>
				<g>
					<path fill="#FFFFFF" d="M534.7,329.8H448c-0.6,0-1,0.4-1,1v35.5c0,0.6,0.4,1,1,1h86.6c0.6,0,1-0.4,1-1v-35.5
						C535.6,330.2,535.1,329.8,534.7,329.8z"/>
				</g>
			</g>
			<g>
				<g>
					<path fill="#FFC12E" d="M535.6,242.6v72.1c0,0.7-0.6,1.4-1.4,1.4h-85.8c-0.7,0-1.4-0.6-1.4-1.4v-72.1c0-0.8,0.6-1.4,1.4-1.4
						h85.8C535,241.3,535.6,241.8,535.6,242.6z"/>
				</g>
			</g>
			<g>
				<g>
					<circle fill="#FFFFFF" cx="295.1" cy="215.7" r="4.9"/>
				</g>
			</g>
			<g>
				<g>
					<circle fill="#FFFFFF" cx="312.8" cy="215.7" r="4.9"/>
				</g>
			</g>
			<g>
				<g>
					<circle fill="#FFFFFF" cx="330.6" cy="215.7" r="4.9"/>
				</g>
			</g>
		</g>
		<g>
			<g>
				<g>
					<path fill="#FFFFFF" d="M496.7,287.8l-24.7-24.7L447,288v10.9l25-24.9l19.3,19.3l5.4,5.4l5.4-5.4L496.7,287.8z"/>
				</g>
			</g>
		</g>
		<g>
			<g>
				<g>
					<path fill="#FFFFFF" d="M514.3,270.1l-17.7,17.7l-5.4,5.4l-22.8,22.8h10.9l35-35l21.2,21.2v-10.9L514.3,270.1z"/>
				</g>
			</g>
		</g>
	</g>
	<g>
		<g>
			<g>
				<g>
					<path fill="#1A9EFE" d="M310.8,532.1L310.8,532.1c-0.6,0.2-1.1,0.4-1.6,0.6C179.3,484.2,196,303.8,196,303.8
						c67,0.5,110.1-23,114.9-25.8c0,0,0.1,0,0.1-0.1c0.2-0.2,0.3-0.2,0.3-0.2s44.2,27.4,114.7,27.8
						C425.9,305.7,439.9,484.6,310.8,532.1z"/>
				</g>
			</g>
			<g opacity="0.1">
				<g>
					<g>
						<path fill="#18162E" d="M311.1,532.1L311.1,532.1L311,278c0,0,0.1,0,0.1-0.1c0.2-0.2,0.3-0.2,0.3-0.2s44.2,27.4,114.7,27.8
							C426.1,305.7,440,484.6,311.1,532.1z"/>
					</g>
				</g>
			</g>
		</g>
		<g>
			<g>
				<g>
					<g>
						<path fill="#FFC12E" d="M362.2,401.6c0,11.7-3.8,22.4-10.4,31c-9.4,12.3-24.2,20.3-40.9,20.3c-16.6,0-31.5-8-40.9-20.3
							c-6.6-8.6-10.4-19.4-10.4-31c0-28.3,23-51.4,51.4-51.4C339.2,350.3,362.2,373.2,362.2,401.6z"/>
					</g>
				</g>
			</g>
			<g>
				<g>
					<g>
						<path fill="#FFFFFF" d="M310.9,459.9c-18.4,0-35.4-8.4-46.5-23.1c-7.8-10.2-11.8-22.4-11.8-35.3c0-32.2,26.2-58.3,58.3-58.3
							s58.3,26.2,58.3,58.3c0,12.9-4.1,25-11.8,35.3C346.2,451.5,329.3,459.9,310.9,459.9z M310.9,357.2
							c-24.4,0-44.3,19.8-44.3,44.3c0,9.8,3.1,19,9,26.8c8.5,11.1,21.4,17.5,35.3,17.5c14,0,26.8-6.4,35.3-17.5c5.9-7.8,9-17,9-26.8
							C355.2,377.2,335.3,357.2,310.9,357.2z"/>
					</g>
				</g>
			</g>
			<g>
				<g>
					<g>
						<g>
							
								<rect x="292.5" y="391.7" transform="matrix(-0.7071 0.7071 -0.7071 -0.7071 798.5956 485.3867)" fill="#FFFFFF" width="12.5" height="32.7"/>
						</g>
					</g>
				</g>
				<g>
					<g>
						<g>
							
								<rect x="311.8" y="379.8" transform="matrix(-0.7071 -0.7071 0.7071 -0.7071 257.8328 913.0718)" fill="#FFFFFF" width="12.5" height="46.7"/>
						</g>
					</g>
				</g>
			</g>
		</g>
	</g>
</g>
</svg>
