<?xml version="1.0" encoding="utf-8"?>
<!-- Generator: Adobe Illustrator 22.0.1, SVG Export Plug-In . SVG Version: 6.00 Build 0)  -->
<svg version="1.1" id="Isolation_Mode" xmlns="http://www.w3.org/2000/svg" xmlns:xlink="http://www.w3.org/1999/xlink" x="0px"
	 y="0px" viewBox="0 0 284.4 247.8" style="enable-background:new 0 0 284.4 247.8;" xml:space="preserve">
<style type="text/css">
	.st0{fill:url(#SVGID_1_);}
</style>
<linearGradient id="SVGID_1_" gradientUnits="userSpaceOnUse" x1="142.2128" y1="-1.7637" x2="142.2128" y2="251.2857">
	<stop  offset="0" style="stop-color:#171D45"/>
	<stop  offset="1" style="stop-color:#232D69"/>
</linearGradient>
<path class="st0" d="M284,84.2C284,84.1,284.1,84.1,284,84.2c0.4-0.4,0.5-0.9,0.3-1.2c0,0,0-0.1-0.1-0.1c0-0.1,0-0.1,0-0.2
	c-0.3-0.8-1.3-1.1-2.1-0.7c-0.1,0.1-0.2,0.1-0.3,0.2L176,2.1c0.2-0.4,0.3-0.9,0.1-1.3c-0.3-0.7-1.3-1.1-2.1-0.7
	c-0.6,0.2-0.9,0.7-1,1.2L58.7,19.1c0,0,0-0.1,0-0.1c-0.3-0.7-1.3-1-2.1-0.7c-0.9,0.4-1.3,1.3-0.9,2c0.1,0.1,0.1,0.2,0.2,0.3
	L2.4,84.6c-0.4-0.1-0.9-0.1-1.3,0.1c-0.9,0.4-1.3,1.3-0.9,2c0.3,0.6,1,0.9,1.7,0.8l44,120.3c-0.7,0.4-1,1.2-0.7,1.9
	c0.3,0.7,1.3,1,2.1,0.7c0.2-0.1,0.3-0.2,0.4-0.3l44.5,28.6c-0.2,0.4-0.2,0.8,0,1.2c0.3,0.7,1.3,1,2.1,0.7c0.4-0.2,0.8-0.5,0.9-0.9
	l103.3,6.9c0,0.1,0,0.3,0.1,0.4c0.3,0.8,1.3,1.1,2.1,0.7c0.9-0.4,1.3-1.3,0.9-2c-0.1-0.2-0.2-0.3-0.4-0.5l59.9-91.9
	c0.4,0.1,0.7,0.1,1.1-0.1c0.8-0.4,1.3-1.3,0.9-2c-0.1-0.3-0.4-0.6-0.7-0.7l20-65.4c0.2,0,0.3-0.1,0.5-0.2c0,0,0.1,0,0.1-0.1
	c0,0,0.1,0,0.1,0C283.6,84.6,283.8,84.4,284,84.2C284,84.2,284,84.2,284,84.2z M200.9,60.8l-73.7-20.3c0-0.2,0-0.5-0.1-0.7
	c0,0,0,0,0-0.1l46.5-37c0.3,0.2,0.8,0.3,1.2,0.2L200.9,60.8z M87.2,144.1c-0.1-0.3-0.3-0.5-0.6-0.6l9.2-24l10.5,20.1L87.2,144.1z
	 M96.1,118.5l29.1-76.1l2.3,92.2l-20.5,4.8L96.1,118.5z M170.9,164l-12.1-2.8l9.2-6.8l3.4,9.1C171.2,163.7,171,163.8,170.9,164z
	 M130.2,181.5c-0.2-0.1-0.5-0.2-0.7-0.3l0-1.1l4.9-1.7L130.2,181.5z M129.5,179.5l-0.6-24.3l28.2,6.5l-20.8,15.4L129.5,179.5z
	 M158,161.8l12.7,2.9c0,0.1,0,0.1,0,0.2l-32.1,11.3L158,161.8z M158.9,127.9l64.1-15.1l-54.6,40.4L158.9,127.9z M167.7,153.7
	l-9.9,7.3l-29-6.7l-0.5-19.2l29.8-7L167.7,153.7z M128.3,134.4L126,42.8l31.8,84.6L128.3,134.4z M124.7,41.8l-29,75.8L69.2,66.9
	c0.5-0.4,0.7-0.9,0.6-1.4l54.4-24C124.3,41.6,124.5,41.7,124.7,41.8z M95.3,118.6l-9.4,24.7c0,0-0.1,0-0.1,0L69.3,68.7L95.3,118.6z
	 M87.3,144.8l19.2-4.5l5.3,10.2L87.3,144.8C87.3,144.8,87.3,144.8,87.3,144.8z M107.4,140.1l20.2-4.8l0.5,18.9l-15.1-3.5
	L107.4,140.1z M128.1,154.9l0.6,24.8l-0.6,0.2l-14.8-28.4L128.1,154.9z M128.7,180.5l0,0.6l-0.3-0.5L128.7,180.5z M172.2,163.3
	l-3.5-9.3l52.3-38.8l-47.9,48.2C172.9,163.2,172.5,163.2,172.2,163.3z M136.6,177.7l24.3-8.5l-29.2,12.2L136.6,177.7z M222.9,112.1
	l-64.3,15.1l-32.2-85.6c0,0,0,0,0.1,0l96.6,69.9C223,111.7,222.9,111.9,222.9,112.1z M115.4,44.6L73.1,63.3l13.2-8L115.4,44.6z
	 M69.4,64.7c-0.3-0.3-0.7-0.4-1.2-0.4l-0.5-2.2l15.1-5.5L69.4,64.7z M86.2,146.2C86.2,146.2,86.3,146.2,86.2,146.2
	c0.2-0.1,0.2-0.1,0.3-0.2l39.6,34.6l-35.9,12.6L86.2,146.2z M87.1,145.5l25.3,5.8l15,28.9l-0.4,0.1L87.1,145.5z M127.7,180.8
	l0.1,0.3l-0.3-0.2L127.7,180.8z M170.6,165.8L161,175l-27.8,6.5L170.6,165.8z M171.4,166.1c0.3,0.1,0.6,0.2,1,0.2l1.9,5.6l-11.9,2.8
	L171.4,166.1z M173.8,164.1C173.8,164.1,173.8,164.1,173.8,164.1l47.2-34.8l-5.2,28.8L173.8,164.1
	C173.9,164.1,173.8,164.1,173.8,164.1z M175.8,161.7l47.9-48.3c0.1,0,0.1,0.1,0.2,0.1l-2.7,14.7L175.8,161.7z M126.6,39.2
	c-0.4-0.3-1.1-0.3-1.6-0.1c-0.3,0.1-0.5,0.3-0.7,0.6l-8.1-2.5l53.9-32.6L126.6,39.2z M124,40.4c0,0.1,0,0.2,0,0.3L89.5,53.4
	l25.8-15.6L124,40.4z M68.1,69.4L85,143.5c-0.1,0-0.2,0.1-0.3,0.2L59.5,126L68.1,69.4z M84.2,144.3c-0.2,0.4-0.3,0.8-0.1,1.2
	c0.1,0.2,0.2,0.4,0.4,0.5l-37.2,61.2l12.1-80.3L84.2,144.3z M47.8,207.8l37.4-61.5c0.1,0,0.1,0,0.2,0l4,47.2l-41.3,14.6
	C48,208,47.9,207.9,47.8,207.8z M127.2,41.2l74.1,20.4l22.3,49.3L127.2,41.2z M114.4,37.5L86,54.7l-18.4,6.8L57.9,21
	c0.2-0.1,0.4-0.3,0.6-0.5L114.4,37.5z M67.1,64.9c-0.3,0.3-0.5,0.7-0.5,1.1L13.2,82.1l53.3-19.6L67.1,64.9z M3.3,85.9l63.5-19.3
	c0.2,0.3,0.5,0.5,0.8,0.6l0,0.1l-8.8,58.2l-55.7-39C3.2,86.3,3.3,86.1,3.3,85.9z M89.5,194.3l0.1,0.7l-21.4,6.8L89.5,194.3z
	 M90.2,194l36.5-12.8l1,0.9c-0.2,0.3-0.3,0.6-0.3,0.9l-37.2,11.8L90.2,194z M127.7,183.6c0.1,0.1,0.2,0.2,0.3,0.3l-33.8,53.8
	c-0.1,0-0.2,0-0.2,0l-3.6-42.3L127.7,183.6z M128.7,184.2c0.3,0.1,0.7,0,1.1-0.1c0.1,0,0.1-0.1,0.2-0.1l11.1,9.9L95.5,237
	L128.7,184.2z M130.5,183.5c0.2-0.2,0.2-0.5,0.3-0.7l29.2-6.8l-18.4,17.4L130.5,183.5z M161.3,175.6l13.2-3.1l24.8,72.5l-57.2-51.2
	L161.3,175.6z M200.1,244.8l-24.7-72.4l39.6-9.3L200.1,244.8z M175.1,171.7l-1.9-5.7c0.4-0.3,0.7-0.7,0.8-1.1l41.8-6.1l-0.6,3.5
	L175.1,171.7z M216.5,158.7l37.3-5.4l-37.9,8.9L216.5,158.7z M260.2,151.6l-43.6,6.3l5.3-29.4l10.4-7.6l28.2,30
	C260.3,151.2,260.2,151.4,260.2,151.6z M222.1,127.6l2.5-14c0.2,0,0.3-0.1,0.5-0.1c0,0,0.1,0,0.1,0l6.6,7L222.1,127.6z M225.8,112.9
	c0.3-0.4,0.4-0.8,0.3-1.2l53.1-26.2L232.5,120L225.8,112.9z M280.9,83.9l-55,27.2c-0.4-0.4-0.9-0.6-1.5-0.4l-22-48.7L281,83.6
	C280.9,83.7,280.9,83.8,280.9,83.9z M115.3,37L58.8,19.8L172.9,2.1L115.3,37z M58.7,126.4l-12.2,81L2.5,87.2c0,0,0.1,0,0.1-0.1
	L58.7,126.4z M281.2,82.9l-79.2-21.8L175.6,2.8l105.7,80C281.2,82.8,281.2,82.9,281.2,82.9z M56.4,21.1c0.2,0.1,0.4,0.1,0.7,0.1
	l9.3,40.7L3.1,85.1C3,85.1,3,85,3,85L56.4,21.1z M48.3,208.8l41.3-13.1l3.6,42.1c0,0-0.1,0-0.1,0c-0.2,0.1-0.3,0.2-0.4,0.3
	l-44.5-28.6C48.2,209.3,48.3,209.1,48.3,208.8z M95.2,238.5c0-0.1-0.1-0.1-0.1-0.2l46.4-44l57.3,51.2c-0.1,0.1-0.1,0.2-0.1,0.2
	L95.3,239C95.3,238.8,95.3,238.7,95.2,238.5z M200.9,244.5l14.8-81.6l44.6-10.4c0.1,0.2,0.2,0.3,0.3,0.4L200.9,244.5z M261.2,150.4
	C261.2,150.4,261.1,150.4,261.2,150.4L233,120.5l48.3-35.6c0.2,0.1,0.3,0.1,0.5,0.2l-19.9,65.2C261.6,150.3,261.4,150.3,261.2,150.4
	z"/>
</svg>
