<?xml version="1.0" encoding="utf-8"?>
<!-- Generator: Adobe Illustrator 22.0.1, SVG Export Plug-In . SVG Version: 6.00 Build 0)  -->
<svg version="1.1" id="Layer_10" xmlns="http://www.w3.org/2000/svg" xmlns:xlink="http://www.w3.org/1999/xlink" x="0px" y="0px"
	 viewBox="0 0 53.2 53.2" style="enable-background:new 0 0 53.2 53.2;" xml:space="preserve">
<style type="text/css">
	.st0{fill:#1A9EFE;}
	.st1{fill:#FFFFFF;}
</style>
<g>
	<g id="XMLID_225_">
		<g id="XMLID_60_">
			<g id="XMLID_62_">
				<g>
					<path id="XMLID_17_" class="st0" d="M53.2,26.6c0,6-2,11.6-5.4,16.1c-4.9,6.4-12.5,10.5-21.2,10.5S10.3,49.1,5.4,42.7
						C2,38.2,0,32.6,0,26.6C0,11.9,11.9,0,26.6,0S53.2,11.9,53.2,26.6z"/>
				</g>
			</g>
		</g>
		<path id="XMLID_230_" class="st1" d="M26.6,15.1c-10.4,0-18.9,11.5-18.9,11.5s8.5,11.5,18.9,11.5s18.9-11.5,18.9-11.5
			S37,15.1,26.6,15.1z M30.8,29.7c-1,1.3-2.5,2.1-4.2,2.1s-3.2-0.8-4.2-2.1c-0.7-0.9-1.1-2-1.1-3.2c0-2.9,2.3-5.2,5.2-5.2
			s5.2,2.3,5.2,5.2C31.8,27.8,31.4,28.9,30.8,29.7z"/>
	</g>
</g>
</svg>
