<svg xmlns="http://www.w3.org/2000/svg" viewBox="0 0 1409.88 272.72"><defs><style>.cls-1{fill:#fff;opacity:0.1;}</style></defs><title>hotbot-connection-elements</title><g id="Layer_2" data-name="Layer 2"><g id="Objects"><path class="cls-1" d="M1396.45,112.42a15.68,15.68,0,0,0-14.45,25.4l-31.2,35.9a23,23,0,1,0,3.49,2.7l30.94-35.59a15.69,15.69,0,1,0,11.22-28.41Z"/><path class="cls-1" d="M151.08,226.56a13.78,13.78,0,0,0-10.21,23.06l-15,20.47,3.58,2.63,14.89-20.32a13.8,13.8,0,1,0,6.74-25.84Z"/><path class="cls-1" d="M100.1,143.85a29.24,29.24,0,0,0-23.31,46.91L23.94,251.05l4.36,3.82L80.75,195a29.25,29.25,0,1,0,19.35-51.18Z"/><path class="cls-1" d="M212.89,161.4A30,30,0,0,0,200.75,164L167,111.35a20.67,20.67,0,1,0-4.77,3.3l33.5,52.16a30.06,30.06,0,1,0,17.19-5.41Z"/><path class="cls-1" d="M164.88,156.38a17.5,17.5,0,0,0-12.54,5.29l-70-48.28a42.12,42.12,0,0,0-3.6-34.1L132.42,40a24.81,24.81,0,1,0-3-5L75.49,74.48a42.19,42.19,0,1,0,4.62,44.42L149,166.42a17.35,17.35,0,0,0-1.71,7.51,17.55,17.55,0,1,0,17.55-17.55Z"/></g></g></svg>