<?xml version="1.0" encoding="utf-8"?>
<!-- Generator: Adobe Illustrator 18.0.0, SVG Export Plug-In . SVG Version: 6.00 Build 0)  -->
<!DOCTYPE svg PUBLIC "-//W3C//DTD SVG 1.1//EN" "http://www.w3.org/Graphics/SVG/1.1/DTD/svg11.dtd">
<svg version="1.1" id="Layer_1" xmlns="http://www.w3.org/2000/svg" xmlns:xlink="http://www.w3.org/1999/xlink" x="0px" y="0px"
	 viewBox="0 0 1235.1 601.5" enable-background="new 0 0 1235.1 601.5" xml:space="preserve">
<g>
	<g>
		<g id="XMLID_10125_">
			<circle id="XMLID_10142_" opacity="0.15" fill="#FFFFFF" cx="244.3" cy="318.6" r="4"/>
			<g id="XMLID_10126_">
				<g id="XMLID_10137_">
					<g id="XMLID_10138_">
						<g id="XMLID_10139_">
							<g id="XMLID_10140_">
								<g id="XMLID_10141_">
									<path fill="#F1F2F2" d="M102.6,552.7h152.9c9.3,0,16.8-7.5,16.8-16.8V313.3c0-9.3-7.5-16.8-16.8-16.8H102.6
										c-9.3,0-16.8,7.5-16.8,16.8V536C85.9,545.2,93.4,552.7,102.6,552.7z"/>
								</g>
							</g>
						</g>
					</g>
				</g>
				<g id="XMLID_10132_">
					<path id="XMLID_10136_" fill="#BCBEC0" d="M174.8,305c0-0.1,0-0.2,0-0.3c0-0.1,0-0.2,0-0.3c0-0.1,0.1-0.2,0.1-0.3
						c0-0.1,0.1-0.2,0.1-0.3c0-0.1,0.1-0.2,0.1-0.3c0.1-0.1,0.1-0.2,0.2-0.3c0.1-0.1,0.1-0.2,0.2-0.3c0.1-0.1,0.2-0.2,0.3-0.3
						c0.1-0.1,0.3-0.2,0.4-0.3c0.2-0.1,0.4-0.2,0.7-0.3c0.2,0,0.4-0.1,0.6-0.1s0.4,0,0.6,0.1c0.2,0.1,0.5,0.1,0.7,0.3
						c0.1,0.1,0.3,0.2,0.4,0.3c0.1,0.1,0.2,0.2,0.3,0.3c0.1,0.1,0.1,0.2,0.2,0.3c0.1,0.1,0.1,0.2,0.2,0.3c0,0.1,0.1,0.2,0.1,0.3
						c0,0.1,0.1,0.2,0.1,0.3c0,0.1,0.1,0.2,0.1,0.3c0,0.1,0,0.2,0,0.3c0,0.1,0,0.2,0,0.3c0,0,0,0.1,0,0.1c0,0,0,0.1,0,0.1
						c0,0.1,0,0.2,0,0.3c0,0.1,0,0.2,0,0.3c0,0.1-0.1,0.2-0.1,0.3c0,0.1-0.1,0.2-0.1,0.3c0,0.1-0.1,0.2-0.1,0.3
						c-0.1,0.1-0.1,0.2-0.2,0.3c-0.1,0.1-0.1,0.2-0.2,0.3c-0.1,0.1-0.2,0.2-0.3,0.3c-0.1,0.1-0.3,0.2-0.4,0.3
						c-0.2,0.1-0.4,0.2-0.6,0.3c-0.2,0.1-0.4,0.1-0.7,0.1c-0.2,0-0.5,0-0.7-0.1c-0.2-0.1-0.4-0.1-0.6-0.3c-0.1-0.1-0.3-0.2-0.4-0.3
						c-0.1-0.1-0.2-0.2-0.3-0.3c-0.1-0.1-0.1-0.2-0.2-0.3c-0.1-0.1-0.1-0.2-0.2-0.3c0-0.1-0.1-0.2-0.1-0.3c0-0.1-0.1-0.2-0.1-0.3
						c0-0.1-0.1-0.2-0.1-0.3c0-0.1,0-0.2,0-0.3c0-0.1,0-0.2,0-0.3c0,0,0-0.1,0-0.1C174.7,305.1,174.8,305.1,174.8,305z"/>
					<g id="XMLID_10133_">
						<g id="XMLID_10134_">
							<circle id="XMLID_10135_" fill="#FFFFFF" cx="177.5" cy="305.2" r="1"/>
						</g>
					</g>
				</g>
				<g id="XMLID_10127_">
					<g id="XMLID_10128_">
						<g id="XMLID_10129_">
							<g id="XMLID_10130_">
								<path id="XMLID_10131_" fill="#1A9EFE" d="M99.8,537.1h158.5c2.8,0,5-2.2,5-5v-215c0-2.8-2.2-5-5-5H99.8c-2.8,0-5,2.2-5,5
									v215C94.8,534.9,97.1,537.1,99.8,537.1z"/>
							</g>
						</g>
					</g>
				</g>
			</g>
		</g>
	</g>
	<g>
		<g id="XMLID_10112_">
			<path id="XMLID_10124_" fill="#1A9EFE" d="M224.3,371.7v5.9h92.2v-5.9c0-4.5-3.6-8.2-8.1-8.2h-12.2c-1.2,0-2.1,1-2.1,2.2v3
				c0,1.2-1,2.2-2.1,2.2h-43.1c-1.2,0-2.1-1-2.1-2.2v-3c0-1.2-1-2.2-2.1-2.2h-12.2C227.9,363.6,224.3,367.2,224.3,371.7z"/>
			<g>
				<g id="XMLID_10123_">
					<path fill="#F1F2F2" d="M217.2,408.4l0.4-0.1v-40.5c0-7.3,5.9-13.3,13.3-13.3H310c7.3,0,13.3,5.9,13.3,13.3V383l0,0
						c0.4,0.1,0.7,0.4,0.7,0.9v6.7c0,0.4-0.3,0.8-0.7,0.9l0,0v7.6l0,0c0.4,0.1,0.7,0.4,0.7,0.9v16.9c0,0.4-0.3,0.8-0.7,0.9l0,0v4
						l0,0c0.4,0.1,0.7,0.4,0.7,0.9v16.9c0,0.4-0.3,0.8-0.7,0.9l0,0V554c0,7.3-5.9,13.3-13.3,13.3h-79.2c-7.3,0-13.3-5.9-13.3-13.3
						V434.1l-0.4-0.1c-0.4-0.1-0.7-0.4-0.7-0.9v-23.9C216.5,408.8,216.8,408.5,217.2,408.4z"/>
				</g>
				<path id="XMLID_10122_" fill="#1A9EFE" d="M224.3,371.7v178.4c0,4.5,3.6,8.2,8.1,8.2h76.1c4.5,0,8.1-3.7,8.1-8.2V371.7
					c0-4.5-3.6-8.2-8.1-8.2h-12.2c-1.2,0-2.1,1-2.1,2.2v3c0,1.2-1,2.2-2.1,2.2h-43.1c-1.2,0-2.1-1-2.1-2.2v-3c0-1.2-1-2.2-2.1-2.2
					h-12.2C227.9,363.6,224.3,367.2,224.3,371.7z"/>
				<g id="XMLID_10118_">
					<path id="XMLID_10119_" fill="#ECECED" d="M232.4,364.2h12.2c0.8,0,1.5,0.7,1.5,1.5v3c0,1.6,1.3,2.9,2.8,2.9H292
						c1.6,0,2.8-1.3,2.8-2.9v-3c0-0.8,0.7-1.5,1.5-1.5h12.2c4.1,0,7.4,3.4,7.4,7.5v178.4c0,4.1-3.3,7.5-7.4,7.5h-76.1
						c-4.1,0-7.4-3.4-7.4-7.5V371.7C225,367.6,228.3,364.2,232.4,364.2 M232.4,363.5c-4.5,0-8.1,3.7-8.1,8.2v178.4
						c0,4.5,3.6,8.2,8.1,8.2h76.1c4.5,0,8.1-3.7,8.1-8.2V371.7c0-4.5-3.6-8.2-8.1-8.2h-12.2c-1.2,0-2.1,1-2.1,2.2v3
						c0,1.2-1,2.2-2.1,2.2h-43.1c-1.2,0-2.1-1-2.1-2.2v-3c0-1.2-1-2.2-2.1-2.2H232.4L232.4,363.5z"/>
				</g>
			</g>
			<path id="XMLID_10116_" opacity="0.38" fill="#58595B" d="M262.6,367.5h15.7c0.3,0,0.5-0.2,0.5-0.5v-0.3c0-0.3-0.2-0.5-0.5-0.5
				h-15.7c-0.3,0-0.5,0.2-0.5,0.5v0.3C262.1,367.3,262.3,367.5,262.6,367.5z"/>
			<ellipse id="XMLID_10114_" opacity="0.38" fill="#58595B" cx="258.4" cy="367" rx="1.2" ry="1.2"/>
			<ellipse id="XMLID_10113_" fill="#ECECED" cx="258.4" cy="367" rx="0.6" ry="0.6"/>
		</g>
	</g>
	<path fill="#F1F2F2" d="M335.8,441.2h14.5V434h-14.5V441.2z M364.7,441.2h14.5V434h-14.5V441.2z M393.6,441.2h14.5V434h-14.5V441.2
		z M424.6,441.2H439V434h-14.5V441.2z M453.5,441.2H468V434h-14.5V441.2z M505.2,441.2h14.5V434h-14.5V441.2z M534.2,441.2h14.5V434
		h-14.5V441.2z M563.1,441.2h14.5V434h-14.5V441.2z M592,441.2h14.5V434H592V441.2z M620.9,441.2h14.5V434h-14.5V441.2z
		 M649.8,441.2h14.5V434h-14.5V441.2z M678.8,441.2h14.5V434h-14.5V441.2z M707.7,441.2h14.5V434h-14.5V441.2z M736.6,441.2h14.5
		V434h-14.5V441.2z M765.5,441.2H780V434h-14.5V441.2z M819.3,441.2h14.5V434h-14.5V441.2z M848.2,441.2h14.5V434h-14.5V441.2z
		 M877.1,441.2h14.5V434h-14.5V441.2z M906.1,441.2h14.5V434h-14.5V441.2z M935,441.2h14.5V434H935V441.2z"/>
	<g>
		<g>
			<path fill="#1A9EFE" d="M635.8,575.7c1.3,0.3,2.7,0.5,4.1,0.6c0.9,0.1,1.8,0.1,2.7,0.1c2.3,0,4.5-0.2,6.8-0.7
				c309.2-63,287.7-384.6,277.1-466c-1.5-11.3-10.1-20.7-22.1-24L651.6,16.6c-2.9-0.8-6-1.2-9-1.2c-0.9,0-1.8,0.1-2.7,0.1
				c-2.1,0.1-4.2,0.5-6.3,1.1L380.8,85.7c-11.9,3.3-20.7,12.7-22.1,24C348.1,191.2,326.7,512.8,635.8,575.7z"/>
			<path opacity="0.1" fill="#18162E" d="M890.3,120.5L642.6,52.8l0,0v152.6c5.5-1.1,11.1-1.8,16.7-2.2c12-0.9,23.9,0.5,35.7,2.1
				c9.7,1.3,19.3,3.3,28.7,5.5c8.8,2.1,18.1,3.7,26.5,7.1c10.1,4.1,19.3,9.7,26.2,18.1c7.1,8.7,11.6,17.2,15.6,27.7
				c2.6,6.9,4.3,14.1,5.5,21.3c1.3,8.1,2.8,16.3,2.1,24.5c-1.2,14.1-5.1,28-13.5,39.6c-8.5,11.9-18.8,21.5-31.2,29.3
				c-23.1,14.5-50.8,21.3-77.8,23.3c-11.3,0.8-23.1,0.6-34.6-1.1v138.2l0,0c63.9-13.1,116.4-39.3,156-77.9
				c32.9-32.1,57.7-73.4,73.8-123C900.7,251.1,895,160.9,890.3,120.5z"/>
		</g>
		<g>
			<path fill="#FFC12E" d="M794.5,295.8c0,34.7-11.6,66.8-31.1,92.5c-28,36.8-72.2,60.6-122,60.6s-94-23.8-122-60.6
				c-19.5-25.7-31.1-57.8-31.1-92.6c0-84.6,68.6-153.1,153.1-153.1C725.9,142.7,794.5,211.2,794.5,295.8"/>
			<path fill="#FFFFFF" d="M641.3,479.9c-58,0-111.5-26.5-146.6-72.8c-24.5-32.2-37.4-70.7-37.4-111.2c0-101.5,82.6-184,184-184
				c101.5,0,184,82.5,184,184c0,40.6-12.9,79-37.4,111.2C752.8,453.3,699.4,479.9,641.3,479.9 M641.3,149.3
				c-80.8,0-146.6,65.7-146.6,146.6c0,32.3,10.3,62.9,29.8,88.6c28,36.9,70.6,58,116.8,58c46.2,0,88.8-21.1,116.8-58
				c19.5-25.6,29.8-56.3,29.8-88.6C787.9,215,722.1,149.3,641.3,149.3"/>
			<path fill="#FFFFFF" d="M641.9,329.7c15.3,0,27.7,12.4,27.7,27.7c0,15.3-12.4,27.7-27.7,27.7s-27.7-12.4-27.7-27.7
				C614.2,342.1,626.6,329.7,641.9,329.7"/>
			<path fill="#FFFFFF" d="M708.1,290.6c-0.4-0.4-0.8-0.8-1.3-1.2l-1.2-1.2c-0.2-0.2-0.4-0.4-0.7-0.6
				c-35.9-32.6-90.7-31.3-124.9,2.9l-4,4l-5.6,5.6c-6.8,6.8-6.7,17.8,0,24.6c6.8,6.8,17.8,6.8,24.6,0l9.6-9.6
				c21.8-21.7,57.2-21.7,78.9,0l6.9,6.7c6.7,6.7,17.6,6.7,24.4-0.1c3.3-3.2,5-7.6,5.1-12.2c0-4.6-1.8-8.9-5-12.1L708.1,290.6z"/>
			<path fill="#FFFFFF" d="M755.4,256.3l-5.8-5.8c0,0,0,0-0.1-0.1l-4.5-4.6c-0.8-0.8-1.7-1.5-2.6-2.1
				c-58.4-51.3-147.3-49.7-203.9,4.7c-0.3,0.3-0.6,0.4-0.9,0.7l-10.4,10.4c-6.2,6.1-6.1,16.2,0.1,22.4c6.2,6.2,16.2,6.2,22.4,0
				l10.4-10.4c0.1-0.1,0.1-0.2,0.2-0.2c45.7-44.2,118.3-44.5,164.4-0.9l8.2,8.2c6.2,6.2,16.2,6.1,22.4-0.1
				C761.5,272.5,761.5,262.5,755.4,256.3"/>
		</g>
	</g>
	<g>
		<path fill="#1A9EFE" d="M1094.6,303.3c-74.1,0-134.3,60.2-134.3,134.3c0,29.6,9.4,57.7,27.3,81.2c25.6,33.8,64.6,53.1,107,53.1
			c42.4,0,81.4-19.4,107-53.1c17.9-23.5,27.3-51.6,27.3-81.2C1228.9,363.5,1168.6,303.3,1094.6,303.3"/>
		<path fill="#FFFFFF" d="M1000,509.3c-11.4-15-18.8-32.1-22.1-50.3c7.7,1.4,15.9,2,23.4,4.1c17.8,5,33.1,21.6,32.4,40.1
			c-0.2,6.4-2.1,13.5,1.7,18.7c5.1,7,15.8,5,24.2,7.4c7.9,2.2,14.2,9.2,15.5,17.3c0.4,2.6,0.2,5.2-0.4,7.8
			C1045.1,549.5,1018.5,533.8,1000,509.3"/>
		<path fill="#FFFFFF" d="M1093,556.2c2.3-4.5,5.3-8.8,8.1-12.8c6.2-8.7,12.1-19.9,7.6-29.7c-3.8-8.1-13.4-11.7-22.3-12.5
			c-8.9-0.8-18,0.5-26.7-1.7c-16.6-4-28.8-21.4-26.9-38.4c1.5-13.5,10.4-24.9,19.8-34.6c9.4-9.7,19.9-18.9,26.1-31
			c7.8-15.4,7.4-34,2.5-50.5c-2.3-8.1-5.6-16.2-9.5-24c7.4-1.5,15.1-2.3,22.9-2.3c15.5,0,30.3,3.1,43.9,8.5
			c-12.3,12.7-15.7,38.1-11.1,52.2c6.7,20.7,26.8,3.9,39.4,0.8c13.7-3.3,26.9,5.3,38.2,13.9c2.9,7.4,5,15.1,6.4,23
			c-1.9,0-3.8,0.1-5.5,0.3c-9.6,1-19.3,7-21.6,16.3c-2.3,9,2.1,20.5-4.8,26.7c-7.4,6.7-19.4-0.3-29.2,2c-6.3,1.5-11,6.9-13.4,12.8
			c-2.4,6-2.9,12.5-3.4,18.9c-1.1,15.4-2.2,30.8-3.2,46.3c-0.2,3.3-0.3,6.7,0.3,9.9c-11.5,3.6-23.5,5.7-36,5.7
			C1094.1,556.3,1093.6,556.2,1093,556.2"/>
	</g>
	<path fill="#1A90E9" stroke="#F1F2F2" stroke-width="9" stroke-miterlimit="10" d="M127.7,527.9c0,33.5-27.2,60.7-60.7,60.7
		c-33.5,0-60.7-27.2-60.7-60.7s27.2-60.7,60.7-60.7C100.5,467.2,127.7,494.4,127.7,527.9"/>
	<g id="Layer_2">
		<g id="XMLID_1_">
			<circle id="XMLID_11_" fill="#FFFFFF" cx="94.9" cy="514.1" r="9.6"/>
			<circle id="XMLID_10_" fill="#FFFFFF" cx="39.1" cy="514.1" r="9.6"/>
			<path id="XMLID_8_" fill="#FFFFFF" d="M101,524.8c-1.7,1.4-3.8,2.3-6.1,2.3s-4.4-0.9-6.1-2.3c-0.9,0.2-1.8,0.3-2.6,0.8
				c3.1,2.1,4.9,5.8,4.9,9.8V547c0,0.6,0,1.2-0.2,1.7h9.2c4.4,0,8.1-3.7,8.1-8.1v-7.6C108.2,528.6,105,525.3,101,524.8z"/>
			<path id="XMLID_9_" fill="#FFFFFF" d="M42.9,535.2c0-4,2-7.5,4.9-9.8c-0.8-0.3-1.7-0.6-2.6-0.8c-1.7,1.4-3.8,2.3-6.1,2.3
				s-4.4-0.9-6.1-2.3c-4,0.5-7.2,3.8-7.2,7.9v7.6c0,4.4,3.7,8.1,8.1,8.1h9.2c-0.2-0.6-0.2-1.1-0.2-1.7V535.2z"/>
			<path id="XMLID_7_" fill="#FFFFFF" d="M81.6,526.9c-1.7-1.2-3.7-2-5.8-2.3c-2.4,2.1-5.7,3.4-9.2,3.4s-6.7-1.4-9.2-3.4
				c-2.1,0.3-4.1,1.1-5.8,2.3c-3.1,2.1-4.9,5.8-4.9,9.8v11.6c0,0.6,0,1.2,0.2,1.7c0.9,5.8,5.8,10.4,11.9,10.4h15.9
				c6.1,0,11-4.6,11.9-10.4c0.2-0.6,0.2-1.1,0.2-1.7v-11.6C86.7,532.5,84.7,529,81.6,526.9z"/>
			<circle id="XMLID_6_" fill="#FFFFFF" cx="66.7" cy="509.9" r="14.4"/>
		</g>
	</g>
</g>
</svg>
