<?xml version="1.0" encoding="utf-8"?>
<!-- Generator: Adobe Illustrator 22.0.1, SVG Export Plug-In . SVG Version: 6.00 Build 0)  -->
<svg version="1.1" id="OBJECTS" xmlns="http://www.w3.org/2000/svg" xmlns:xlink="http://www.w3.org/1999/xlink" x="0px" y="0px"
	 viewBox="0 0 488 308.4" style="enable-background:new 0 0 488 308.4;" xml:space="preserve">
<style type="text/css">
	.st0{fill:#D0EBFE;}
</style>
<g>
	<polygon class="st0" points="58.9,75.8 54.5,68.6 50.5,76 	"/>
	<polygon class="st0" points="58,295 69.3,289.1 58.7,282.2 	"/>
	<polygon class="st0" points="120.7,9.8 106.6,9.8 113.7,22 	"/>
	<polygon class="st0" points="452,82.7 446,95.4 460,94.2 	"/>
	<polygon class="st0" points="450.2,193.8 441.8,193.8 446,201.1 	"/>
	<polygon class="st0" points="334.4,246.5 333.5,238.1 326.7,243.1 	"/>
	<polygon class="st0" points="175.5,246.6 168.2,242.3 168.2,250.7 	"/>
	<polygon class="st0" points="45.1,172.9 42.2,160.3 32.7,169.2 	"/>
	<polygon class="st0" points="387.4,36.1 387.5,18 371.8,26.9 	"/>
	<polygon class="st0" points="217.4,58.4 219.1,50.2 211.1,52.8 	"/>
	<polygon class="st0" points="58.9,75.8 54.5,68.6 50.5,76 	"/>
	<polygon class="st0" points="58,295 69.3,289.1 58.7,282.2 	"/>
	<polygon class="st0" points="120.7,9.8 106.6,9.8 113.7,22 	"/>
	<polygon class="st0" points="452,82.7 446,95.4 460,94.2 	"/>
	<polygon class="st0" points="450.2,193.8 441.8,193.8 446,201.1 	"/>
	<polygon class="st0" points="334.4,246.5 333.5,238.1 326.7,243.1 	"/>
	<polygon class="st0" points="175.5,246.6 168.2,242.3 168.2,250.7 	"/>
	<polygon class="st0" points="45.1,172.9 42.2,160.3 32.7,169.2 	"/>
	<polygon class="st0" points="387.4,36.1 387.5,18 371.8,26.9 	"/>
	<path class="st0" d="M443.5,133.1c-2.9,1.7-7.6,1.7-9.6-1.1c0.1-1.6,0.2-3.2,0.4-4.8c2,2.8,6.7,2.8,9.6,1.1
		C443.7,129.9,443.6,131.5,443.5,133.1z"/>
	<path class="st0" d="M47.1,0c2.7,3,3.8,8.6,0.9,11.6c-1.9,0.3-3.9,0.5-5.8,0.7c2.9-3.1,1.8-8.6-0.9-11.7C43.3,0.5,45.2,0.3,47.1,0z
		"/>
	<path class="st0" d="M84.1,224.4c3.4-7.1-1.8-14.5-6-19.7c2.8-1.8,5.6-3.5,8.6-5.1c4.2,5.2,9.3,12.6,6,19.7
		C89.8,220.8,86.9,222.6,84.1,224.4z"/>
	<path class="st0" d="M315.4,30.5c-0.4-3.3-3.9-4.8-6.6-5.6c0.6-1.3,1.2-2.5,1.9-3.8c2.7,0.9,6.2,2.4,6.6,5.6
		C316.6,27.9,316,29.2,315.4,30.5z"/>
	<path class="st0" d="M222.1,26.8c-0.7-3.1-3.8-5.8-7-6.1c1-1.2,2-2.4,3-3.5c3.2,0.3,6.3,3,7,6.1C224,24.4,223,25.6,222.1,26.8z"/>
	<path class="st0" d="M348.8,69.1c-3-0.9-6.9,0.4-8.8,3c-0.6-1.4-1.1-2.9-1.5-4.4c1.8-2.6,5.7-3.9,8.8-3
		C347.8,66.2,348.3,67.7,348.8,69.1z"/>
	<path class="st0" d="M467.3,249.1c4.3-4.1,5.7-11.7,3.1-17.1c2.9,0.4,5.7,0.9,8.5,1.6c2.6,5.4,1.2,13-3.1,17.1
		C473.1,250.1,470.2,249.5,467.3,249.1z"/>
	<path class="st0" d="M451.7,229.6c-1.5,0.4-4.6-1.2-6.3-1c0.2-0.3,1.3-2,1.5-2.3c1.7-0.2,4.8,1.4,6.3,1
		C452.9,227.6,451.8,229.3,451.7,229.6z"/>
	<path class="st0" d="M8.2,124.2c2-5.3,10.8-5.3,13-10.9c1.9,2.1,3.7,4.3,5.4,6.5c-2.2,5.6-11,5.6-13,10.9
		C12,128.4,10.2,126.3,8.2,124.2z"/>
	<path class="st0" d="M322.9,298.6c1.9,0.1,3.9,0,5.6,0.8c0,0.9,0,1.9-0.1,2.8c-1.8-0.8-3.8-0.7-5.6-0.8
		C322.9,300.5,322.9,299.5,322.9,298.6z"/>
	<path class="st0" d="M453.8,38.4c-1.5,2.9-2.9,6.1-5.4,8.3c-1.5-0.7-2.9-1.5-4.4-2.3c2.5-2.2,3.8-5.4,5.4-8.3
		C450.9,36.9,452.4,37.7,453.8,38.4z"/>
	<path class="st0" d="M475.9,124.5c1.4,1.6,2.8,3.4,4.9,4.1c-0.8,0.7-1.6,1.4-2.4,2.1c-2.1-0.7-3.5-2.5-4.9-4.1
		C474.3,125.9,475.1,125.2,475.9,124.5z"/>
	<path class="st0" d="M470.1,72.8c4.3-4.6,9.5-9.2,11.1-15.6c2.4,2.1,4.6,4.3,6.8,6.6c-1.5,6.4-6.8,11-11.1,15.6
		C474.7,77.1,472.4,74.9,470.1,72.8z"/>
	<path class="st0" d="M63.1,115c-3.9-1.6-9.1-0.3-11.8,2.9c-0.6-1.9-1.1-3.9-1.5-5.9c2.7-3.2,7.9-4.5,11.8-2.9
		C62.1,111.1,62.6,113.1,63.1,115z"/>
	<path class="st0" d="M150,45.6c-2.9-0.2-6.1,1.9-7.1,4.5c-0.8-1.2-1.6-2.3-2.3-3.6c1-2.7,4.2-4.7,7.1-4.5
		C148.5,43.3,149.2,44.5,150,45.6z"/>
	<path class="st0" d="M7.2,212.5c3.6-3.2,10.3,0.3,14.2-3c0.6,2.3,1.1,4.7,1.5,7.1c-3.9,3.4-10.5-0.2-14.2,3
		C8.3,217.2,7.8,214.8,7.2,212.5z"/>
	<path class="st0" d="M14,76.3c0.2-3.6,5.6-5.2,5.9-9c1.5,0.9,3,1.9,4.5,2.9c-0.3,3.8-5.6,5.4-5.9,9C17,78.2,15.5,77.2,14,76.3z"/>
	<path class="st0" d="M97.4,148.3c-3.2,0.5-6.6,1.3-9.8,0.7c-0.3-1.6-0.6-3.2-0.8-4.9c3.3,0.7,6.6-0.1,9.8-0.7
		C96.8,145.1,97,146.7,97.4,148.3z"/>
	<path class="st0" d="M10.4,25.8c1.3,3.9,2.3,8.2,5.4,11.1c-1.9,0.7-3.9,1.3-5.8,1.8c-3.1-2.8-4.1-7.2-5.4-11.1
		C6.6,27.1,8.5,26.5,10.4,25.8z"/>
	<path class="st0" d="M483,167.6c-0.9,1.7-2.1,3.5-2,5.5c-0.9-0.4-1.7-0.9-2.6-1.4c-0.1-2,1.1-3.8,2-5.5
		C481.2,166.7,482.1,167.2,483,167.6z"/>
	<path class="st0" d="M171.5,4.4c3.1,0,6.5,0.4,9.4-1.2c0,1.6,0,3.1-0.1,4.7c-2.8,1.6-6.3,1.2-9.4,1.2C171.5,7.5,171.5,6,171.5,4.4z
		"/>
	<path class="st0" d="M6.8,261.2c-2.5-0.8-5-3.6-4.4-6.3c1-0.8,2-1.6,3-2.3c-0.6,2.7,1.9,5.4,4.4,6.3C8.8,259.6,7.8,260.4,6.8,261.2
		z"/>
	<path class="st0" d="M440.2,283c-4.2-1.3-8.3-5.8-7.4-10.2c1.6-1.4,3.3-2.7,5-3.9c-0.9,4.4,3.2,8.9,7.4,10.2
		C443.5,280.4,441.8,281.7,440.2,283z"/>
	<path class="st0" d="M411,0.9c2.7,7.1,11.3,8.5,17.7,9c-0.6,3.2-1.3,6.3-2.2,9.4c-6.4-0.5-15-1.9-17.7-9C409.7,7.2,410.4,4,411,0.9
		z"/>
	<path class="st0" d="M480.5,288.7c-2.8-1.6-6.9-1.1-9.2,1.1c-0.3-1.5-0.4-3.1-0.6-4.6c2.3-2.2,6.5-2.7,9.3-1.1
		C480.1,285.7,480.3,287.2,480.5,288.7z"/>
	<path class="st0" d="M397.7,249c2.3,2.4,6.6,3.1,9.6,1.6c-0.2,1.6-0.5,3.2-0.8,4.8c-3,1.5-7.2,0.8-9.6-1.6
		C397.2,252.2,397.5,250.6,397.7,249z"/>
	<path class="st0" d="M275.8,246.3c-1.9,1.1-3.6,2.2-4.6,3.4c0.1,1.2,1.2,7.1,1.5,8.2c3.3-3.8,13.3-6.6,15.9-10.6
		c-0.1-0.2-0.1-0.5-0.2-0.9H275.8z"/>
	<path class="st0" d="M416.6,165.9c2.4-6.5,13.1-6.6,15.7-13.5c2.4,2.5,4.6,5.1,6.7,7.8c-2.6,6.9-13.3,6.9-15.7,13.5
		C421.2,171,419,168.4,416.6,165.9z"/>
	<path class="st0" d="M136.5,285.3c1.9-3.8,4.5-7.7,4.3-12.1c1.9,0.9,3.8,1.9,5.6,3c0.2,4.4-2.4,8.3-4.3,12.1
		C140.2,287.2,138.4,286.2,136.5,285.3z"/>
	<path class="st0" d="M46.9,246.8c-2.1,1.5-4.7,2.8-5.8,5.3c-0.8-1.1-1.5-2.1-2.1-3.2c1.2-2.4,3.7-3.8,5.9-5.3
		C45.4,244.7,46.1,245.7,46.9,246.8z"/>
	<path class="st0" d="M395.9,208.6c4.2,2.4,8.5,5.5,13.5,5.6c-1.2,2.1-2.4,4.2-3.7,6.2c-5,0-9.3-3.2-13.5-5.6
		C393.5,212.8,394.7,210.7,395.9,208.6z"/>
	<path class="st0" d="M225.3,279.5c-5.7,2.1-14,0.5-16.7-5.1c0.6-2.8,1.4-5.6,2.2-8.4c2.7,5.6,11,7.2,16.6,5.1
		C226.7,273.9,226,276.7,225.3,279.5z"/>
	<path class="st0" d="M393.2,135.2c0.6,2.3-0.4,5.4-2.6,6.1c-1.1-0.4-2.1-0.8-3.1-1.2c2.3-0.8,3.2-3.9,2.6-6.1
		C391.1,134.5,392.1,134.9,393.2,135.2z"/>
	<path class="st0" d="M97.7,87.1c1.6-1.5,1-4.1,0.4-5.9c0.9-0.2,1.9-0.4,2.8-0.5c0.6,1.8,1.2,4.3-0.4,5.9
		C99.6,86.7,98.6,86.9,97.7,87.1z"/>
	<path class="st0" d="M417.2,68.5c-2.1-5.9-8.8-10.4-15.1-10.2c1.6-2.6,3.3-5.1,5.1-7.5c6.2-0.2,12.9,4.3,15.1,10.2
		C420.4,63.5,418.7,66,417.2,68.5z"/>
	<path class="st0" d="M479.4,25.9c0.9-4.3-1.6-9.5-5.4-11.6c1.9-1,3.8-1.9,5.8-2.7c3.8,2.1,6.3,7.3,5.4,11.6
		C483.3,24,481.3,24.9,479.4,25.9z"/>
	<path class="st0" d="M376,280.6c-0.8,2.3-5.5,4.9-6.7,7.2c-0.3-0.5-1.5-3.3-1.7-3.9c1.2-2.3,5.9-4.9,6.7-7.2
		C374.5,277.3,375.7,280.1,376,280.6z"/>
	<path class="st0" d="M410.9,91.6c4.4,1.9,8.7,11.6,13.1,14.3c-1.1,0.5-6.8,2.5-8,2.8c-4.4-2.7-8.7-12.4-13.1-14.3
		C404.1,94.1,409.8,92.1,410.9,91.6z"/>
	<path class="st0" d="M3.3,176.1c-2.3-1.8-0.9-6-3.3-7.9c1.3-0.6,2.6-1.1,4-1.6c2.4,1.9,1,6.1,3.3,7.9C5.9,175,4.6,175.5,3.3,176.1z
		"/>
	<path class="st0" d="M272.6,306.3c-5.3,3.6-12.7-0.5-18.2,0.9c-0.2-1.5-0.3-3.1-0.6-4.6c5-3.5,12.6,0.8,18.4-1
		C272.4,303.2,272.5,304.8,272.6,306.3z"/>
	<path class="st0" d="M80.5,41.1c-1.4,2.2-2.7,4.5-4.8,6.1c-1.1-0.7-2.2-1.4-3.2-2.1c2.1-1.6,3.4-3.9,4.8-6.1
		C78.3,39.7,79.4,40.4,80.5,41.1z"/>
	<path class="st0" d="M101.6,263.9c-1.2,0.1-2.4,0.3-3.6,0.5c-0.6,2.6,0,5.4,0.4,8c1.1-0.2,2.1-0.3,3.2-0.4V263.9z"/>
	<path class="st0" d="M5.9,297.8c2.3-1.5,4.9-3,6.2-5.5c0.8,1.1,1.5,2.3,2.2,3.4c-1.3,2.5-3.9,4-6.2,5.5
		C7.5,300.1,6.7,298.9,5.9,297.8z"/>
	<path class="st0" d="M443.5,133.1c-2.9,1.7-7.6,1.7-9.6-1.1c0.1-1.6,0.2-3.2,0.4-4.8c2,2.8,6.7,2.8,9.6,1.1
		C443.7,129.9,443.6,131.5,443.5,133.1z"/>
	<path class="st0" d="M47.1,0c2.7,3,3.8,8.6,0.9,11.6c-1.9,0.3-3.9,0.5-5.8,0.7c2.9-3.1,1.8-8.6-0.9-11.7C43.3,0.5,45.2,0.3,47.1,0z
		"/>
	<path class="st0" d="M84.1,224.4c3.4-7.1-1.8-14.5-6-19.7c2.8-1.8,5.6-3.5,8.6-5.1c4.2,5.2,9.3,12.6,6,19.7
		C89.8,220.8,86.9,222.6,84.1,224.4z"/>
	<path class="st0" d="M315.4,30.5c-0.4-3.3-3.9-4.8-6.6-5.6c0.6-1.3,1.2-2.5,1.9-3.8c2.7,0.9,6.2,2.4,6.6,5.6
		C316.6,27.9,316,29.2,315.4,30.5z"/>
	<path class="st0" d="M281.9,50.5c-5.5-2-10.7,2.4-14.2,5.8c-1.6-1.9-3-3.9-4.4-6c3.5-3.5,8.7-7.8,14.2-5.8
		C278.9,46.6,280.4,48.6,281.9,50.5z"/>
	<path class="st0" d="M177.8,40.9c5.1-0.5,10.1-5.1,11.2-10.1c1.8,1.8,3.5,3.7,5.1,5.6c-1.1,5.1-6,9.6-11.2,10.1
		C181.2,44.6,179.5,42.7,177.8,40.9z"/>
	<path class="st0" d="M467.3,249.1c4.3-4.1,5.7-11.7,3.1-17.1c2.9,0.4,5.7,0.9,8.5,1.6c2.6,5.4,1.2,13-3.1,17.1
		C473.1,250.1,470.2,249.5,467.3,249.1z"/>
	<path class="st0" d="M451.7,229.6c-1.5,0.4-4.6-1.2-6.3-1c0.2-0.3,1.3-2,1.5-2.3c1.7-0.2,4.8,1.4,6.3,1
		C452.9,227.6,451.8,229.3,451.7,229.6z"/>
	<path class="st0" d="M8.2,124.2c2-5.3,10.8-5.3,13-10.9c1.9,2.1,3.7,4.3,5.4,6.5c-2.2,5.6-11,5.6-13,10.9
		C12,128.4,10.2,126.3,8.2,124.2z"/>
	<path class="st0" d="M322.9,298.6c1.9,0.1,3.9,0,5.6,0.8c0,0.9,0,1.9-0.1,2.8c-1.8-0.8-3.8-0.7-5.6-0.8
		C322.9,300.5,322.9,299.5,322.9,298.6z"/>
	<path class="st0" d="M453.8,38.4c-1.5,2.9-2.9,6.1-5.4,8.3c-1.5-0.7-2.9-1.5-4.4-2.3c2.5-2.2,3.8-5.4,5.4-8.3
		C450.9,36.9,452.4,37.7,453.8,38.4z"/>
	<path class="st0" d="M475.9,124.5c1.4,1.6,2.8,3.4,4.9,4.1c-0.8,0.7-1.6,1.4-2.4,2.1c-2.1-0.7-3.5-2.5-4.9-4.1
		C474.3,125.9,475.1,125.2,475.9,124.5z"/>
	<path class="st0" d="M470.1,72.8c4.3-4.6,9.5-9.2,11.1-15.6c2.4,2.1,4.6,4.3,6.8,6.6c-1.5,6.4-6.8,11-11.1,15.6
		C474.7,77.1,472.4,74.9,470.1,72.8z"/>
	<path class="st0" d="M63.1,115c-3.9-1.6-9.1-0.3-11.8,2.9c-0.6-1.9-1.1-3.9-1.5-5.9c2.7-3.2,7.9-4.5,11.8-2.9
		C62.1,111.1,62.6,113.1,63.1,115z"/>
	<path class="st0" d="M150,45.6c-2.9-0.2-6.1,1.9-7.1,4.5c-0.8-1.2-1.6-2.3-2.3-3.6c1-2.7,4.2-4.7,7.1-4.5
		C148.5,43.3,149.2,44.5,150,45.6z"/>
	<path class="st0" d="M7.2,212.5c3.6-3.2,10.3,0.3,14.2-3c0.6,2.3,1.1,4.7,1.5,7.1c-3.9,3.4-10.5-0.2-14.2,3
		C8.3,217.2,7.8,214.8,7.2,212.5z"/>
	<path class="st0" d="M14,76.3c0.2-3.6,5.6-5.2,5.9-9c1.5,0.9,3,1.9,4.5,2.9c-0.3,3.8-5.6,5.4-5.9,9C17,78.2,15.5,77.2,14,76.3z"/>
	<path class="st0" d="M97.4,148.3c-3.2,0.5-6.6,1.3-9.8,0.7c-0.3-1.6-0.6-3.2-0.8-4.9c3.3,0.7,6.6-0.1,9.8-0.7
		C96.8,145.1,97,146.7,97.4,148.3z"/>
	<path class="st0" d="M10.4,25.8c1.3,3.9,2.3,8.2,5.4,11.1c-1.9,0.7-3.9,1.3-5.8,1.8c-3.1-2.8-4.1-7.2-5.4-11.1
		C6.6,27.1,8.5,26.5,10.4,25.8z"/>
	<path class="st0" d="M483,167.6c-0.9,1.7-2.1,3.5-2,5.5c-0.9-0.4-1.7-0.9-2.6-1.4c-0.1-2,1.1-3.8,2-5.5
		C481.2,166.7,482.1,167.2,483,167.6z"/>
	<path class="st0" d="M171.5,4.4c3.1,0,6.5,0.4,9.4-1.2c0,1.6,0,3.1-0.1,4.7c-2.8,1.6-6.3,1.2-9.4,1.2C171.5,7.5,171.5,6,171.5,4.4z
		"/>
	<path class="st0" d="M6.8,261.2c-2.5-0.8-5-3.6-4.4-6.3c1-0.8,2-1.6,3-2.3c-0.6,2.7,1.9,5.4,4.4,6.3C8.8,259.6,7.8,260.4,6.8,261.2
		z"/>
	<path class="st0" d="M440.2,283c-4.2-1.3-8.3-5.8-7.4-10.2c1.6-1.4,3.3-2.7,5-3.9c-0.9,4.4,3.2,8.9,7.4,10.2
		C443.5,280.4,441.8,281.7,440.2,283z"/>
	<path class="st0" d="M411,0.9c2.7,7.1,11.3,8.5,17.7,9c-0.6,3.2-1.3,6.3-2.2,9.4c-6.4-0.5-15-1.9-17.7-9C409.7,7.2,410.4,4,411,0.9
		z"/>
	<path class="st0" d="M480.5,288.7c-2.8-1.6-6.9-1.1-9.2,1.1c-0.3-1.5-0.4-3.1-0.6-4.6c2.3-2.2,6.5-2.7,9.3-1.1
		C480.1,285.7,480.3,287.2,480.5,288.7z"/>
	<path class="st0" d="M397.7,249c2.3,2.4,6.6,3.1,9.6,1.6c-0.2,1.6-0.5,3.2-0.8,4.8c-3,1.5-7.2,0.8-9.6-1.6
		C397.2,252.2,397.5,250.6,397.7,249z"/>
	<path class="st0" d="M275.8,246.3c-1.9,1.1-3.6,2.2-4.6,3.4c0.1,1.2,1.2,7.1,1.5,8.2c3.3-3.8,13.3-6.6,15.9-10.6
		c-0.1-0.2-0.1-0.5-0.2-0.9H275.8z"/>
	<path class="st0" d="M416.6,165.9c2.4-6.5,13.1-6.6,15.7-13.5c2.4,2.5,4.6,5.1,6.7,7.8c-2.6,6.9-13.3,6.9-15.7,13.5
		C421.2,171,419,168.4,416.6,165.9z"/>
	<path class="st0" d="M136.5,285.3c1.9-3.8,4.5-7.7,4.3-12.1c1.9,0.9,3.8,1.9,5.6,3c0.2,4.4-2.4,8.3-4.3,12.1
		C140.2,287.2,138.4,286.2,136.5,285.3z"/>
	<path class="st0" d="M46.9,246.8c-2.1,1.5-4.7,2.8-5.8,5.3c-0.8-1.1-1.5-2.1-2.1-3.2c1.2-2.4,3.7-3.8,5.9-5.3
		C45.4,244.7,46.1,245.7,46.9,246.8z"/>
	<path class="st0" d="M395.9,208.6c4.2,2.4,8.5,5.5,13.5,5.6c-1.2,2.1-2.4,4.2-3.7,6.2c-5,0-9.3-3.2-13.5-5.6
		C393.5,212.8,394.7,210.7,395.9,208.6z"/>
	<path class="st0" d="M225.3,279.5c-5.7,2.1-14,0.5-16.7-5.1c0.6-2.8,1.4-5.6,2.2-8.4c2.7,5.6,11,7.2,16.6,5.1
		C226.7,273.9,226,276.7,225.3,279.5z"/>
	<path class="st0" d="M393.2,135.2c0.6,2.3-0.4,5.4-2.6,6.1c-1.1-0.4-2.1-0.8-3.1-1.2c2.3-0.8,3.2-3.9,2.6-6.1
		C391.1,134.5,392.1,134.9,393.2,135.2z"/>
	<path class="st0" d="M97.7,87.1c1.6-1.5,1-4.1,0.4-5.9c0.9-0.2,1.9-0.4,2.8-0.5c0.6,1.8,1.2,4.3-0.4,5.9
		C99.6,86.7,98.6,86.9,97.7,87.1z"/>
	<path class="st0" d="M417.2,68.5c-2.1-5.9-8.8-10.4-15.1-10.2c1.6-2.6,3.3-5.1,5.1-7.5c6.2-0.2,12.9,4.3,15.1,10.2
		C420.4,63.5,418.7,66,417.2,68.5z"/>
	<path class="st0" d="M479.4,25.9c0.9-4.3-1.6-9.5-5.4-11.6c1.9-1,3.8-1.9,5.8-2.7c3.8,2.1,6.3,7.3,5.4,11.6
		C483.3,24,481.3,24.9,479.4,25.9z"/>
	<path class="st0" d="M376,280.6c-0.8,2.3-5.5,4.9-6.7,7.2c-0.3-0.5-1.5-3.3-1.7-3.9c1.2-2.3,5.9-4.9,6.7-7.2
		C374.5,277.3,375.7,280.1,376,280.6z"/>
	<path class="st0" d="M410.9,91.6c4.4,1.9,8.7,11.6,13.1,14.3c-1.1,0.5-6.8,2.5-8,2.8c-4.4-2.7-8.7-12.4-13.1-14.3
		C404.1,94.1,409.8,92.1,410.9,91.6z"/>
	<path class="st0" d="M3.3,176.1c-2.3-1.8-0.9-6-3.3-7.9c1.3-0.6,2.6-1.1,4-1.6c2.4,1.9,1,6.1,3.3,7.9C5.9,175,4.6,175.5,3.3,176.1z
		"/>
	<path class="st0" d="M272.6,306.3c-5.3,3.6-12.7-0.5-18.2,0.9c-0.9,0.2-1.7,0.6-2.5,1.1c-0.2-3.5-0.5-6.9-1-10.4
		c5.7-4,14.6,2.2,20.7-2c0.3,1.9,0.5,3.8,0.7,5.7C272.4,303.2,272.5,304.8,272.6,306.3z"/>
	<path class="st0" d="M80.5,41.1c-1.4,2.2-2.7,4.5-4.8,6.1c-1.1-0.7-2.2-1.4-3.2-2.1c2.1-1.6,3.4-3.9,4.8-6.1
		C78.3,39.7,79.4,40.4,80.5,41.1z"/>
	<path class="st0" d="M101.6,263.9c-1.2,0.1-2.4,0.3-3.6,0.5c-0.6,2.6,0,5.4,0.4,8c1.1-0.2,2.1-0.3,3.2-0.4V263.9z"/>
	<path class="st0" d="M5.9,297.8c2.3-1.5,4.9-3,6.2-5.5c0.8,1.1,1.5,2.3,2.2,3.4c-1.3,2.5-3.9,4-6.2,5.5
		C7.5,300.1,6.7,298.9,5.9,297.8z"/>
	<path class="st0" d="M280.8,12.3c-3.2,0.7-6.7,1.1-9.3,3.3c-0.4-1.6-0.7-3.2-0.9-4.8c2.5-2.2,6.1-2.6,9.3-3.3
		C280.1,9.1,280.4,10.7,280.8,12.3z"/>
	<path class="st0" d="M147.7,79.7c-2.8-1.7-5.7-3.8-9-3.9c0.8-1.4,1.7-2.8,2.6-4.1c3.4,0.1,6.2,2.3,9,3.9
		C149.4,76.9,148.5,78.3,147.7,79.7z"/>
</g>
</svg>
