<?xml version="1.0" encoding="utf-8"?>
<!-- Generator: Adobe Illustrator 23.0.2, SVG Export Plug-In . SVG Version: 6.00 Build 0)  -->
<svg version="1.1" id="Layer_1" xmlns="http://www.w3.org/2000/svg" xmlns:xlink="http://www.w3.org/1999/xlink" x="0px" y="0px"
	 viewBox="0 0 500 444" enable-background="new 0 0 500 444" xml:space="preserve">
<polygon fill="#151922" points="500,96.8 459.5,96.8 445.8,173 445.8,96.8 274.7,96.8 274.7,197.4 500,197.4 470.5,147.1 "/>
<polygon fill="#151922" points="29.5,147.1 0,197.4 225.3,197.4 225.3,96.8 54.2,96.8 54.2,173 40.5,96.8 0,96.8 "/>
<path fill="#1A9EFE" d="M245.2,427.4c-2.8-1.7-69-41.9-109.4-73.6c-42.6-33.5-42.7-74.3-42.6-78.9l0-263.1h315.5l0,263.1
	c0.1,4.6,0,45.4-42.6,78.9c-40.3,31.7-106.6,71.9-109.4,73.6l-5.8,3.5L245.2,427.4z"/>
<path fill="#09225E" d="M397.8,23l0,252.1c0,0,1.9,38.3-38.3,69.9c-40.2,31.6-108.2,72.8-108.2,72.8s-68-41.2-108.2-72.8
	c-40.2-31.6-38.3-69.9-38.3-69.9l0-252.1H397.8 M420.1,0.7h-22.3H104.6H82.3l0,22.3l0,251.8c-0.1,3.6,0.1,15.2,5.2,30.6
	c7.3,21.8,21.7,41.6,41.6,57.2c40.8,32.1,107.6,72.6,110.5,74.3l11.6,7l11.6-7c2.8-1.7,69.6-42.3,110.5-74.3
	c19.9-15.6,34.3-35.4,41.6-57.3c5.2-15.4,5.3-27,5.2-30.6l0-251.8L420.1,0.7L420.1,0.7z"/>
<path fill="#1992DD" d="M397.7,275.1c0,0,1.9,38.3-38.3,69.9c-40.2,31.6-108.2,72.8-108.2,72.8V23h146.6L397.7,275.1z"/>
<rect x="54.2" y="81.8" fill="#151922" width="391.5" height="100.6"/>
<g id="Processing_2_">
	<path fill="#FFFFFF" d="M146.1,203.3c0,6-4.5,9.7-11.7,9.7H129v7.4h-6.2v-26.8h11.6C141.6,193.6,146.1,197.3,146.1,203.3z
		 M139.8,203.3c0-3-1.9-4.7-5.7-4.7H129v9.3h5.1C137.9,208,139.8,206.2,139.8,203.3z"/>
	<path fill="#FFFFFF" d="M167.6,220.4l-5.2-7.5h-0.3h-5.4v7.5h-6.2v-26.8h11.6c7.2,0,11.7,3.7,11.7,9.7c0,4-2,7-5.5,8.5l6,8.6H167.6
		z M161.7,198.7h-5.1v9.4h5.1c3.8,0,5.7-1.8,5.7-4.7C167.5,200.4,165.5,198.7,161.7,198.7z"/>
	<path fill="#FFFFFF" d="M177,207c0-8,6.2-13.9,14.7-13.9c8.4,0,14.7,5.9,14.7,13.9c0,8-6.2,13.9-14.7,13.9
		C183.2,220.9,177,215,177,207z M200,207c0-5.1-3.6-8.6-8.4-8.6s-8.4,3.5-8.4,8.6c0,5.1,3.6,8.6,8.4,8.6S200,212.1,200,207z"/>
	<path fill="#FFFFFF" d="M209.3,207c0-8.1,6.2-13.9,14.6-13.9c4.6,0,8.5,1.7,11,4.8l-4,3.7c-1.8-2.1-4.1-3.1-6.7-3.1
		c-5,0-8.6,3.5-8.6,8.6c0,5.1,3.6,8.6,8.6,8.6c2.7,0,4.9-1.1,6.7-3.2l4,3.7c-2.5,3.1-6.4,4.8-11.1,4.8
		C215.5,220.9,209.3,215.1,209.3,207z"/>
	<path fill="#FFFFFF" d="M259.9,215.4v5h-20.8v-26.8h20.3v5h-14.1v5.8h12.5v4.8h-12.5v6.2H259.9z"/>
	<path fill="#FFFFFF" d="M262.7,217.8l2.1-4.7c2.3,1.6,5.6,2.8,8.9,2.8c3.7,0,5.2-1.2,5.2-2.9c0-5-15.6-1.6-15.6-11.5
		c0-4.6,3.7-8.4,11.3-8.4c3.4,0,6.8,0.8,9.3,2.4l-1.9,4.7c-2.5-1.4-5.1-2.1-7.4-2.1c-3.7,0-5.1,1.4-5.1,3.1
		c0,4.9,15.6,1.5,15.6,11.4c0,4.5-3.7,8.3-11.4,8.3C269.4,220.9,265.1,219.6,262.7,217.8z"/>
	<path fill="#FFFFFF" d="M287.2,217.8l2.1-4.7c2.3,1.6,5.6,2.8,8.9,2.8c3.7,0,5.2-1.2,5.2-2.9c0-5-15.6-1.6-15.6-11.5
		c0-4.6,3.7-8.4,11.3-8.4c3.4,0,6.8,0.8,9.3,2.4l-1.9,4.7c-2.5-1.4-5.1-2.1-7.4-2.1c-3.7,0-5.1,1.4-5.1,3.1
		c0,4.9,15.6,1.5,15.6,11.4c0,4.5-3.7,8.3-11.4,8.3C293.9,220.9,289.6,219.6,287.2,217.8z"/>
	<path fill="#FFFFFF" d="M313.8,193.6h6.2v26.8h-6.2V193.6z"/>
	<path fill="#FFFFFF" d="M351,193.6v26.8h-5.1l-13.4-16.3v16.3h-6.1v-26.8h5.1l13.3,16.3v-16.3H351z"/>
	<path fill="#FFFFFF" d="M375.5,206.6h5.7v10.9c-3,2.2-7,3.4-10.9,3.4c-8.4,0-14.6-5.8-14.6-13.9c0-8.1,6.2-13.9,14.8-13.9
		c4.7,0,8.6,1.6,11.2,4.6l-4,3.7c-2-2.1-4.2-3-6.9-3c-5.2,0-8.8,3.5-8.8,8.6c0,5,3.6,8.6,8.7,8.6c1.7,0,3.3-0.3,4.8-1.2V206.6z"/>
</g>
<g id="Payment_3_">
	<g>
		<path fill="#FFFFFF" d="M117.5,125.4c0,10.8-8.1,17.5-21,17.5h-9.8v13.4H75.5v-48.4h21C109.4,107.9,117.5,114.6,117.5,125.4z
			 M106.2,125.4c0-5.3-3.5-8.4-10.3-8.4h-9.1v16.8h9.1C102.7,133.8,106.2,130.7,106.2,125.4z"/>
		<path fill="#FFFFFF" d="M154.9,145.9h-22.5l-4.3,10.4h-11.5l21.6-48.4h11.1l21.7,48.4h-11.8L154.9,145.9z M151.4,137.4l-7.7-18.5
			l-7.7,18.5H151.4z"/>
		<path fill="#FFFFFF" d="M196.3,139.1v17.2h-11.2V139l-18.7-31.1h11.9l12.9,21.5l12.9-21.5h11L196.3,139.1z"/>
		<path fill="#FFFFFF" d="M263.4,156.3l-0.1-29.1l-14.3,23.9h-5l-14.2-23.3v28.4h-10.5v-48.4h9.3l18.1,30.1l17.8-30.1h9.2l0.1,48.4
			H263.4z"/>
		<path fill="#FFFFFF" d="M322.9,147.3v9h-37.5v-48.4H322v9h-25.5v10.5H319v8.7h-22.5v11.2H322.9z"/>
		<path fill="#FFFFFF" d="M376.3,107.9v48.4h-9.2l-24.1-29.4v29.4h-11.1v-48.4h9.3l24.1,29.4v-29.4H376.3z"/>
		<path fill="#FFFFFF" d="M397.8,117h-15.5v-9.1h42.2v9.1H409v39.3h-11.2V117z"/>
	</g>
	<g>
		<path fill="#FFFFFF" d="M117.5,125.4c0,10.8-8.1,17.5-21,17.5h-9.8v13.4H75.5v-48.4h21C109.4,107.9,117.5,114.6,117.5,125.4z
			 M106.2,125.4c0-5.3-3.5-8.4-10.3-8.4h-9.1v16.8h9.1C102.7,133.8,106.2,130.7,106.2,125.4z"/>
		<path fill="#FFFFFF" d="M154.9,145.9h-22.5l-4.3,10.4h-11.5l21.6-48.4h11.1l21.7,48.4h-11.8L154.9,145.9z M151.4,137.4l-7.7-18.5
			l-7.7,18.5H151.4z"/>
		<path fill="#FFFFFF" d="M196.3,139.1v17.2h-11.2V139l-18.7-31.1h11.9l12.9,21.5l12.9-21.5h11L196.3,139.1z"/>
		<path fill="#FFFFFF" d="M263.4,156.3l-0.1-29.1l-14.3,23.9h-5l-14.2-23.3v28.4h-10.5v-48.4h9.3l18.1,30.1l17.8-30.1h9.2l0.1,48.4
			H263.4z"/>
		<path fill="#FFFFFF" d="M322.9,147.3v9h-37.5v-48.4H322v9h-25.5v10.5H319v8.7h-22.5v11.2H322.9z"/>
		<path fill="#FFFFFF" d="M376.3,107.9v48.4h-9.2l-24.1-29.4v29.4h-11.1v-48.4h9.3l24.1,29.4v-29.4H376.3z"/>
		<path fill="#FFFFFF" d="M397.8,117h-15.5v-9.1h42.2v9.1H409v39.3h-11.2V117z"/>
	</g>
</g>
<g id="Secure_1_">
	<path fill="#FFFFFF" d="M162.8,66l2.3-5.2c2.5,1.8,6.3,3.1,9.8,3.1c4.1,0,5.7-1.4,5.7-3.2c0-5.6-17.3-1.7-17.3-12.8
		c0-5.1,4.1-9.3,12.6-9.3c3.7,0,7.6,0.9,10.4,2.6l-2.1,5.2c-2.8-1.6-5.6-2.3-8.3-2.3c-4.1,0-5.7,1.5-5.7,3.4
		c0,5.5,17.3,1.7,17.3,12.7c0,5-4.1,9.2-12.7,9.2C170.2,69.4,165.4,68,162.8,66z"/>
	<path fill="#FFFFFF" d="M215.4,63.4v5.5h-23.1V39.1h22.5v5.5h-15.7v6.5H213v5.4h-13.8v6.9H215.4z"/>
	<path fill="#FFFFFF" d="M219,54c0-9,6.9-15.4,16.2-15.4c5.2,0,9.5,1.9,12.3,5.3L243,48c-2-2.3-4.5-3.5-7.5-3.5
		c-5.6,0-9.5,3.9-9.5,9.5c0,5.6,4,9.5,9.5,9.5c3,0,5.5-1.2,7.5-3.5l4.4,4.1c-2.8,3.5-7.1,5.3-12.3,5.3C225.9,69.4,219,63,219,54z"/>
	<path fill="#FFFFFF" d="M251.6,55.8V39.1h6.9v16.4c0,5.7,2.5,8,6.6,8c4.2,0,6.6-2.3,6.6-8V39.1h6.8v16.7c0,8.8-5,13.6-13.5,13.6
		C256.6,69.4,251.6,64.6,251.6,55.8z"/>
	<path fill="#FFFFFF" d="M304.4,68.9l-5.7-8.3h-0.3h-6v8.3h-6.9V39.1h12.9c8,0,13,4.1,13,10.8c0,4.5-2.3,7.8-6.1,9.4l6.7,9.6H304.4z
		 M297.9,44.7h-5.6v10.4h5.6c4.2,0,6.3-2,6.3-5.2C304.3,46.7,302.1,44.7,297.9,44.7z"/>
	<path fill="#FFFFFF" d="M339.8,63.4v5.5h-23.1V39.1h22.5v5.5h-15.7v6.5h13.8v5.4h-13.8v6.9H339.8z"/>
</g>
<polygon fill="#FFFFFF" points="144.1,45.8 146.6,51.6 152.8,52.2 148.1,56.3 149.5,62.4 144.1,59.3 138.7,62.4 140,56.3 
	135.3,52.2 141.6,51.6 "/>
<polygon fill="#FFFFFF" points="360.5,45.8 363,51.6 369.3,52.2 364.6,56.3 365.9,62.4 360.5,59.3 355.1,62.4 356.5,56.3 
	351.8,52.2 358,51.6 "/>
<path id="Check_Icon_2_" fill="#FFFFFF" d="M240.4,372.9c-1.3,1.5-3.6,1.7-5.1,0.3l-55.6-52.6c-1.5-1.4-1.5-3.7-0.1-5.2l17.7-18.7
	c1.4-1.5,3.7-1.5,5.2-0.1l30.4,28.8c1.5,1.4,3.8,1.3,5.1-0.3l59.4-69c1.3-1.5,3.7-1.7,5.2-0.4l19.5,16.8c1.5,1.3,1.7,3.7,0.4,5.2
	L240.4,372.9z"/>
</svg>
