<?xml version="1.0" encoding="utf-8"?>
<!-- Generator: Adobe Illustrator 22.0.1, SVG Export Plug-In . SVG Version: 6.00 Build 0)  -->
<svg version="1.1" id="a" xmlns="http://www.w3.org/2000/svg" xmlns:xlink="http://www.w3.org/1999/xlink" x="0px" y="0px"
	 viewBox="0 0 967.4 752.5" enable-background="new 0 0 967.4 752.5" xml:space="preserve">
<g>
	<path fill="#D6F1FF" d="M224.1,564.3l300.7,181.5c13.3,8,33.2,8.9,44.5,2.1L760.8,632c11.3-6.9,9.8-18.9-3.5-26.9L456.5,423.6
		c-13.3-8-33.2-8.9-44.5-2.1L220.6,537.4C209.3,544.3,210.8,556.3,224.1,564.3z"/>
	<path fill="#C5E7FF" d="M728.7,261.8l221.1,134.6c9.8,5.9,17.7,2.8,17.7-6.9V228c0-9.8-7.9-22.5-17.7-28.4L728.7,65
		c-9.8-5.9-17.7-2.8-17.7,6.9v161.5C711,243.2,718.9,255.9,728.7,261.8z"/>
	<polygon fill="#FFFFFF" points="850.5,182.9 850.5,204.3 729.8,131.2 729.8,109.8 	"/>
	<polygon fill="#FFFFFF" points="850.5,210.4 850.5,231.8 729.8,158.7 729.8,137.3 	"/>
	<polygon fill="#FFFFFF" points="850.5,238 850.5,259.3 729.8,186.2 729.8,164.9 	"/>
	<polygon fill="#FFFFFF" points="850.5,273.6 850.5,319.3 729.8,246.2 729.8,200.5 	"/>
	<polygon fill="#D6F1FF" points="945,241.2 945,322.8 869.9,277.3 869.9,195.7 	"/>
	<g>
		<polygon fill="#FFC12E" points="869.9,277.1 945,322.7 945,241.2 869.9,195.5 		"/>
		<polygon fill="#FFFFFF" points="945,294.1 930.1,269.1 930.1,269.1 930.1,269.1 930.1,269.1 930.1,269.1 910.8,277.8 884.9,234.7 
			884.9,234.7 869.9,241.5 869.9,253.3 884.9,246.5 905.2,280.4 888.1,288.1 899.3,294.9 910.8,289.7 916.3,287.2 930.1,280.9 
			945,305.9 		"/>
	</g>
	<polygon fill="#FFFFFF" points="945,343.6 945,374.9 869.9,329.4 869.9,298.1 	"/>
	<path fill="#75B5FF" d="M949.7,199.6L728.7,65c-9.8-5.9-17.7-2.8-17.7,6.9v15.5l256.4,155.3V228
		C967.4,218.3,959.5,205.5,949.7,199.6z"/>
	<path fill="#75B5FF" d="M768.3,554.9v-12.7h-8.2c-0.9-0.7-1.8-1.3-2.8-1.9L456.5,358.8c-13.3-8-33.2-8.9-44.5-2.1L222.6,471.5H213
		v13.8h0.1c0.5,5,4.2,10.2,11,14.3l300.7,181.5c13.3,8,33.2,8.9,44.5,2.1l191.4-115.9C766.1,564,768.6,559.5,768.3,554.9z"/>
	<linearGradient id="SVGID_1_" gradientUnits="userSpaceOnUse" x1="769.75" y1="454.6142" x2="406.7978" y2="539.5863">
		<stop  offset="0" style="stop-color:#C5E7FF"/>
		<stop  offset="1" style="stop-color:#C5E7FF;stop-opacity:0"/>
	</linearGradient>
	<path fill="url(#SVGID_1_)" d="M768.3,554.9v-12.7h-8.2c-0.9-0.7-1.8-1.3-2.8-1.9L456.5,358.8c-13.3-8-33.2-8.9-44.5-2.1
		L222.6,471.5H213v13.8h0.1c0.5,5,4.2,10.2,11,14.3l300.7,181.5c13.3,8,33.2,8.9,44.5,2.1l191.4-115.9
		C766.1,564,768.6,559.5,768.3,554.9z"/>
	<path fill="#D6F1FF" d="M224.1,486.9l300.7,181.5c13.3,8,33.2,8.9,44.5,2.1l191.4-115.9c11.3-6.9,9.8-18.9-3.5-26.9L456.5,346.1
		c-13.3-8-33.2-8.9-44.5-2.1L220.6,460C209.3,466.8,210.8,478.9,224.1,486.9z"/>
	<path fill="#D6F1FF" d="M769.4,244.3L469.3,61.6c-7.6-4.6-14.4-5.2-18.8-2.4l0,0l0,0c-0.3,0.2-0.5,0.4-0.8,0.6l-11,8
		c0,0,3.7,1.8,6.7,3.1v228.7c0,13.2,10.7,30.5,24,38.6l296,180.2l10.5,13.8l12.7-9.1c0.1-0.1,0.2-0.1,0.3-0.2l0.1,0l0,0
		c2.9-2.2,4.6-6,4.6-11.3V282.9C793.4,269.6,782.7,252.4,769.4,244.3z"/>
	<linearGradient id="SVGID_2_" gradientUnits="userSpaceOnUse" x1="616.0577" y1="484.5983" x2="616.0577" y2="275.4536">
		<stop  offset="0" style="stop-color:#C5E7FF"/>
		<stop  offset="1" style="stop-color:#C5E7FF;stop-opacity:0"/>
	</linearGradient>
	<path fill="url(#SVGID_2_)" d="M769.4,244.3L469.3,61.6c-7.6-4.6-14.4-5.2-18.8-2.4l0,0l0,0c-0.3,0.2-0.5,0.4-0.8,0.6l-11,8
		c0,0,3.7,1.8,6.7,3.1v228.7c0,13.2,10.7,30.5,24,38.6l296,180.2l10.5,13.8l12.7-9.1c0.1-0.1,0.2-0.1,0.3-0.2l0.1,0l0,0
		c2.9-2.2,4.6-6,4.6-11.3V282.9C793.4,269.6,782.7,252.4,769.4,244.3z"/>
	<path fill="#75B5FF" d="M457.4,347l300.1,182.7c13.2,8.1,24,3.9,24-9.4V291.6c0-13.2-10.7-30.5-24-38.6L457.4,70.3
		c-13.2-8.1-24-3.9-24,9.4v228.8C433.4,321.7,444.1,338.9,457.4,347z"/>
	<polyline fill="#ADCEFD" points="705.6,541.4 589.5,611.8 302.3,437.9 418.5,367.5 705.6,541.4 	"/>
	<polyline fill="#ADCEFD" points="488.8,564.4 438.8,594.7 334.5,531.5 384.5,501.2 488.8,564.4 	"/>
	<g>
		<polygon fill="#D6F1FF" points="557.7,526.6 542.2,517.3 525.6,527.3 541.1,536.7 		"/>
		<polygon fill="#D6F1FF" points="582.3,541.5 566.8,532.2 550.2,542.2 565.7,551.6 		"/>
		<polygon fill="#D6F1FF" points="533.1,511.7 517.6,502.4 501,512.4 516.5,521.8 		"/>
		<polygon fill="#D6F1FF" points="508.5,496.8 493,487.4 476.4,497.5 491.8,506.9 		"/>
		<polygon fill="#D6F1FF" points="568,490.6 584.2,480.8 568.7,471.4 552.5,481.2 		"/>
		<polygon fill="#D6F1FF" points="459.3,467 443.8,457.6 427.1,467.7 442.6,477.1 		"/>
		<polygon fill="#D6F1FF" points="592.6,505.5 608.8,495.7 593.4,486.3 577.1,496.1 		"/>
		<polygon fill="#D6F1FF" points="617.2,520.4 633.4,510.6 618,501.2 601.7,511 		"/>
		<polygon fill="#D6F1FF" points="632.7,540.8 617.2,531.5 600.6,541.5 616.1,550.9 		"/>
		<polygon fill="#D6F1FF" points="608.1,525.9 592.6,516.6 576,526.6 591.4,536 		"/>
		<polygon fill="#D6F1FF" points="641.8,535.3 658.1,525.5 642.6,516.1 626.4,525.9 		"/>
		<polygon fill="#D6F1FF" points="483.9,481.9 468.4,472.5 451.8,482.6 467.2,492 		"/>
		<polygon fill="#D6F1FF" points="418,462.2 434.6,452.1 419.2,442.7 402.5,452.8 		"/>
		<polygon fill="#D6F1FF" points="526.8,496.8 542.2,506.2 558.9,496.1 543.4,486.7 		"/>
		<polygon fill="#D6F1FF" points="342.3,427.4 327.3,436.5 344.6,447 359.6,437.9 		"/>
		<polygon fill="#D6F1FF" points="667.2,531 651,540.8 667.5,550.8 683.8,541 		"/>
		<polygon fill="#D6F1FF" points="583.5,511 568,501.6 551.4,511.7 566.8,521.1 		"/>
		<polygon fill="#D6F1FF" points="428.3,437.2 443.8,446.6 460.4,436.5 444.9,427.1 		"/>
		<polygon fill="#D6F1FF" points="452.9,452.1 468.4,461.5 485,451.4 469.6,442 		"/>
		<polygon fill="#D6F1FF" points="477.5,467 493,476.4 509.6,466.3 494.2,456.9 		"/>
		<polygon fill="#D6F1FF" points="502.1,481.9 517.6,491.3 534.2,481.2 518.8,471.8 		"/>
		<polygon fill="#D6F1FF" points="436.5,391.4 419.2,380.9 403,390.7 420.3,401.2 		"/>
		<polygon fill="#D6F1FF" points="541.1,547.8 526.1,556.8 541.5,566.2 556.5,557.1 		"/>
		<polygon fill="#D6F1FF" points="565.7,562.7 550.7,571.8 566.2,581.1 581.2,572 		"/>
		<polygon fill="#D6F1FF" points="516.5,532.9 501.5,541.9 516.9,551.3 531.9,542.2 		"/>
		<polygon fill="#D6F1FF" points="625.2,556.4 641.7,566.4 658.4,556.4 641.8,546.4 		"/>
		<polygon fill="#D6F1FF" points="575.3,586.7 591.8,596.6 606.8,587.6 590.3,577.6 		"/>
		<polygon fill="#D6F1FF" points="616.1,562 591.4,547.1 574.8,557.1 590.3,566.5 590.3,566.5 615.9,582 632.6,572 616.1,562 		"/>
		<polygon fill="#D6F1FF" points="369,432.3 378.2,437.7 377.9,437.9 393.4,447.3 393.8,447 394.2,447.3 410,437.2 385.4,422.3 
			385.4,422.3 368.1,411.8 351.5,421.9 368.8,432.4 		"/>
		<polygon fill="#D6F1FF" points="403.7,422.3 419.2,431.7 435.8,421.6 420.3,412.2 		"/>
		<polygon fill="#D6F1FF" points="469.6,431 485.7,421.2 470.3,411.8 454.1,421.6 		"/>
		<polygon fill="#D6F1FF" points="444.9,416.1 461.1,406.3 445.7,396.9 429.5,406.7 		"/>
		<polygon fill="#D6F1FF" points="494.2,445.9 510.4,436.1 494.9,426.7 478.7,436.5 		"/>
		<polygon fill="#D6F1FF" points="518.8,460.8 535,451 519.5,441.6 503.3,451.4 		"/>
		<polygon fill="#D6F1FF" points="393.4,458.3 378.4,467.4 393.8,476.8 408.9,467.7 		"/>
		<polygon fill="#D6F1FF" points="411.2,406.7 393.9,396.2 377.3,406.3 394.6,416.8 		"/>
		<polygon fill="#D6F1FF" points="368.8,443.4 353.8,452.5 369.2,461.9 384.3,452.8 		"/>
		<polygon fill="#D6F1FF" points="543.4,475.7 559.6,465.9 544.1,456.5 527.9,466.3 		"/>
		<polygon fill="#D6F1FF" points="470.1,504.8 467.2,503.1 467.2,503.1 418,473.2 403,482.3 466.5,520.8 467.7,521.5 467.7,521.5 
			476.8,527 476.8,527 492.3,536.4 507.3,527.3 		"/>
	</g>
	<polygon fill="#D6F1FF" points="447.9,95.2 766,288.4 766,507.2 447.9,314.1 	"/>
	<path fill="#C5E7FF" d="M357.8,299.6L26.5,501.3C11.9,510.2,0,505.6,0,491l0-242.1c0-14.6,11.9-33.7,26.5-42.6L357.8,4.5
		c14.6-8.9,26.5-4.3,26.5,10.4V257C384.3,271.6,372.4,290.7,357.8,299.6z"/>
	<path fill="#75B5FF" d="M26.5,206.3L357.8,4.5c14.6-8.9,26.5-4.3,26.5,10.4v23.2L0,270.8l0-22C0,234.2,11.9,215.2,26.5,206.3z"/>
	<g>
		<g>
			<g>
				<path fill="#FFFFFF" d="M27.7,222.5L27.7,222.5c-4.2,2.5-7.5,8.7-7.5,13.8v0c0,5.1,3.4,7.1,7.5,4.6h0c4.2-2.5,7.5-8.7,7.5-13.8
					v0C35.3,222,31.9,219.9,27.7,222.5z"/>
			</g>
			<g>
				<path fill="#FFFFFF" d="M46.3,210.9L46.3,210.9c-4.2,2.5-7.5,8.7-7.5,13.8v0c0,5.1,3.4,7.1,7.5,4.6h0c4.2-2.5,7.5-8.7,7.5-13.8
					v0C53.9,210.5,50.5,208.4,46.3,210.9z"/>
			</g>
			<g>
				<path fill="#FFFFFF" d="M64.9,199.4L64.9,199.4c-4.2,2.5-7.5,8.7-7.5,13.8v0c0,5.1,3.4,7.1,7.5,4.6l0,0
					c4.2-2.5,7.5-8.7,7.5-13.8v0C72.5,198.9,69.1,196.8,64.9,199.4z"/>
			</g>
		</g>
	</g>
	<g>
		<polygon fill="#FFFFFF" points="227,149.3 227,265.9 364.3,182.7 364.3,66.2 		"/>
	</g>
	<polygon fill="#FFFFFF" points="19.6,405.9 19.6,435.7 295.6,268.6 295.6,238.7 	"/>
	<polygon fill="#FFFFFF" points="19.6,449.5 19.6,479.4 295.6,312.3 295.6,282.4 	"/>
	<g>
		<path fill="#FFC12E" d="M336.7,218.3L336.7,218.3c-15.3,9.3-27.6,32-27.6,50.7v0c0,18.7,12.4,26.2,27.6,16.9l0,0
			c15.3-9.3,27.6-32,27.6-50.7v0C364.3,216.5,351.9,209,336.7,218.3z"/>
		<polygon fill="#FEFEFE" points="353.2,232.4 348,229.8 333.7,257.9 325,253.6 319.8,263.9 328.5,268.2 328.5,268.2 333.7,270.8 
			333.7,270.8 333.7,270.8 338.9,260.5 338.9,260.5 		"/>
	</g>
	<g>
		<polygon fill="#FFC12E" points="213,157.8 19.6,274.9 19.6,391.4 213,274.3 		"/>
		<polygon fill="#FEFEFE" points="111.1,299.8 142.9,259.1 111.1,257 		"/>
	</g>
	<g>
		<polygon fill="#C5E7FF" points="132,468.1 58.3,512.8 58.3,651.7 132,696.4 205.8,651.7 205.8,512.8 		"/>
		<polygon fill="#75B5FF" points="132,468.1 132,696.4 58.3,651.7 58.3,512.8 		"/>
		<polygon fill="#D6F1FF" points="58.3,512.8 132,557.4 205.8,512.8 132,468.1 		"/>
	</g>
	<g>
		<polygon fill="#C5E7FF" points="871.3,491.1 797.5,535.7 797.5,635.7 871.3,680.4 945,635.7 945,535.7 		"/>
		<polygon fill="#75B5FF" points="871.3,491.1 871.3,680.4 797.5,635.7 797.5,535.7 		"/>
		<polygon fill="#D6F1FF" points="797.5,535.7 871.3,580.4 945,535.7 871.3,491.1 		"/>
	</g>
	<g>
		<path fill="#1A9EFE" d="M180.6,407.1l-34.7-21.2c-0.3-0.2-0.7-0.4-1-0.6l-0.3-0.2l0,0c-8.2-4.5-19.3-3.6-31.5,3.9l0,0
			c-25.3,15.5-45.8,53.1-45.8,84v0c0,15.5,5.2,26.4,13.5,31.5l0,0l39.1,23.6L180.6,407.1z"/>
		<linearGradient id="SVGID_3_" gradientUnits="userSpaceOnUse" x1="123.9174" y1="388.619" x2="123.9174" y2="455.1052">
			<stop  offset="0" style="stop-color:#64C4FF"/>
			<stop  offset="1" style="stop-color:#64C4FF;stop-opacity:0"/>
		</linearGradient>
		<path fill="url(#SVGID_3_)" d="M180.6,407.1l-34.7-21.2c-0.3-0.2-0.7-0.4-1-0.6l-0.3-0.2l0,0c-8.2-4.5-19.3-3.6-31.5,3.9l0,0
			c-25.3,15.5-45.8,53.1-45.8,84v0c0,15.5,5.2,26.4,13.5,31.5l0,0l39.1,23.6L180.6,407.1z"/>
		<path fill="#0F74ED" d="M151.1,412L151.1,412c-25.3,15.5-45.8,53.1-45.8,84v0c0,30.9,20.5,43.5,45.8,28l0,0
			c25.3-15.5,45.8-53.1,45.8-84v0C196.9,409.1,176.4,396.5,151.1,412z"/>
	</g>
	<g>
		<path fill="#1A9EFE" d="M825.7,436.9l34.7-21.2c0.3-0.2,0.7-0.4,1-0.6l0.3-0.2l0,0c8.2-4.5,19.3-3.6,31.5,3.9l0,0
			c25.3,15.5,45.8,53.1,45.8,84v0c0,15.5-5.2,26.4-13.5,31.5l0,0l-39.1,23.6L825.7,436.9z"/>
		
			<linearGradient id="SVGID_4_" gradientUnits="userSpaceOnUse" x1="878.035" y1="418.4216" x2="878.035" y2="484.9079" gradientTransform="matrix(-1 0 0 1 1760.4196 0)">
			<stop  offset="0" style="stop-color:#64C4FF"/>
			<stop  offset="1" style="stop-color:#64C4FF;stop-opacity:0"/>
		</linearGradient>
		<path fill="url(#SVGID_4_)" d="M825.7,436.9l34.7-21.2c0.3-0.2,0.7-0.4,1-0.6l0.3-0.2l0,0c8.2-4.5,19.3-3.6,31.5,3.9l0,0
			c25.3,15.5,45.8,53.1,45.8,84v0c0,15.5-5.2,26.4-13.5,31.5l0,0l-39.1,23.6L825.7,436.9z"/>
		<path fill="#0F74ED" d="M855.2,441.8L855.2,441.8c25.3,15.5,45.8,53.1,45.8,84v0c0,30.9-20.5,43.5-45.8,28l0,0
			c-25.3-15.5-45.8-53.1-45.8-84v0C809.4,438.9,829.9,426.3,855.2,441.8z"/>
	</g>
	<g>
		<path fill="#0F74ED" d="M603.9,220.9c0,0,35,42.2,70.5,59.3c0,0,12.4,117-70.5,101.5V220.9z"/>
		<path fill="#1A9EFE" d="M603.9,220.9c0,0-35,0.2-70.5-25.4c0,0-12.4,102.2,70.5,186.1V220.9z"/>
		
			<ellipse transform="matrix(0.8163 -0.5777 0.5777 0.8163 -62.4069 404.0131)" fill="#FFFFFF" cx="603.9" cy="300.1" rx="27.1" ry="48.7"/>
		
			<ellipse transform="matrix(0.8163 -0.5777 0.5777 0.8163 -62.4069 404.0131)" fill="#FFC12E" cx="603.9" cy="300.1" rx="19.8" ry="35.6"/>
		<polygon fill="#FFFFFF" points="620.2,303.3 615.1,294.9 601.2,300.9 592.7,287.2 587.7,289.3 596.1,303.1 596.1,303.1 
			601.2,311.4 601.2,311.4 601.2,311.5 606.3,309.3 606.3,309.3 		"/>
	</g>
	<path fill="#D6F1FF" d="M847.4,489.9c-4.2-6-6.9-13.8-6.9-20.9c0-11,6.6-15.9,14.8-11.1c8.2,4.8,14.8,17.7,14.8,28.6
		c0,7.1-2.8,11.6-6.9,12.7c10.9,10.5,19.2,27.6,21.2,43.9c-7.7,4.8-17.9,4.5-29.1-2.2s-21.4-18.4-29.1-32.4
		C828.2,494.7,836.5,487.4,847.4,489.9z"/>
	<path fill="#D6F1FF" d="M171.2,446.1L171.2,446.1l0-6.6c0-12.2-6.7-18.7-15.8-14.3c-10.4,5-19.1,21.3-19.1,35v7.3
		c-2.2,1.3-3.9,4.7-3.9,7.6v29.8c0,2.9,1.8,4.2,3.9,2.9l34.9-21.3c2.2-1.3,3.9-4.7,3.9-7.6v-29.8C175.2,446,173.4,444.8,171.2,446.1
		z M156.2,476v5.4c0,1.8-1.1,3.9-2.4,4.8l0,0c-1.3,0.8-2.4,0-2.4-1.8V479c-1.5-0.2-2.5-1.7-2.5-4.2c0-3.7,2.2-8,4.9-9.6
		s4.9-0.1,4.9,3.6C158.7,471.2,157.7,473.9,156.2,476z M164.4,450.3l-21.2,12.9v-7.3c0-7.8,4.7-17.1,10.6-20.6
		c5.8-3.6,10.6-0.1,10.6,7.7V450.3z"/>
	<g>
		<linearGradient id="SVGID_5_" gradientUnits="userSpaceOnUse" x1="511.4562" y1="82.3806" x2="582.9699" y2="477.1959">
			<stop  offset="0" style="stop-color:#FFFFFF"/>
			<stop  offset="1" style="stop-color:#FFFFFF;stop-opacity:0"/>
		</linearGradient>
		<polygon fill="url(#SVGID_5_)" points="656.4,440.7 524.1,360.4 447.9,173.5 447.9,95.2 537.8,149.8 		"/>
		<linearGradient id="SVGID_6_" gradientUnits="userSpaceOnUse" x1="670.2987" y1="53.6091" x2="741.8124" y2="448.4244">
			<stop  offset="0" style="stop-color:#FFFFFF"/>
			<stop  offset="1" style="stop-color:#FFFFFF;stop-opacity:0"/>
		</linearGradient>
		<polygon fill="url(#SVGID_6_)" points="766,368.2 766,478.8 662.8,225.7 722.7,262.1 		"/>
		<linearGradient id="SVGID_7_" gradientUnits="userSpaceOnUse" x1="511.4562" y1="82.3806" x2="582.9699" y2="477.1959">
			<stop  offset="0" style="stop-color:#FFFFFF"/>
			<stop  offset="1" style="stop-color:#FFFFFF;stop-opacity:0"/>
		</linearGradient>
		<polygon fill="url(#SVGID_7_)" points="656.4,440.7 524.1,360.4 447.9,173.5 447.9,95.2 537.8,149.8 		"/>
		<linearGradient id="SVGID_8_" gradientUnits="userSpaceOnUse" x1="677.2963" y1="52.3416" x2="748.81" y2="447.1569">
			<stop  offset="0" style="stop-color:#FFFFFF"/>
			<stop  offset="1" style="stop-color:#FFFFFF;stop-opacity:0"/>
		</linearGradient>
		<polygon fill="url(#SVGID_8_)" points="766,288.4 766,478.8 662.8,225.7 722.7,262.1 		"/>
	</g>
	<g>
		<g>
			<g>
				<path fill="#FFFFFF" d="M755.1,92.6L755.1,92.6c3.1,1.9,5.6,6.5,5.6,10.3v0c0,3.8-2.5,5.3-5.6,3.4v0c-3.1-1.9-5.6-6.5-5.6-10.3
					v0C749.5,92.3,752,90.7,755.1,92.6z"/>
			</g>
			<g>
				<path fill="#FFFFFF" d="M741.2,84L741.2,84c3.1,1.9,5.6,6.5,5.6,10.3v0c0,3.8-2.5,5.3-5.6,3.4l0,0c-3.1-1.9-5.6-6.5-5.6-10.3v0
					C735.6,83.7,738.1,82.1,741.2,84z"/>
			</g>
			<g>
				<path fill="#FFFFFF" d="M727.4,75.4L727.4,75.4c3.1,1.9,5.6,6.5,5.6,10.3v0c0,3.8-2.5,5.3-5.6,3.4v0c-3.1-1.9-5.6-6.5-5.6-10.3
					v0C721.8,75.1,724.3,73.5,727.4,75.4z"/>
			</g>
		</g>
	</g>
</g>
</svg>
