<?xml version="1.0" encoding="utf-8"?>
<!-- Generator: Adobe Illustrator 24.2.0, SVG Export Plug-In . SVG Version: 6.00 Build 0)  -->
<svg version="1.1" id="Layer_8" xmlns="http://www.w3.org/2000/svg" xmlns:xlink="http://www.w3.org/1999/xlink" x="0px" y="0px"
	 viewBox="0 0 200 200" style="enable-background:new 0 0 200 200;" xml:space="preserve">
<style type="text/css">
	.st0{fill:url(#XMLID_5_);}
	.st1{fill:url(#XMLID_10_);}
	.st2{fill:#FFFFFF;}
	.st3{fill:#F73F09;}
	.st4{fill:#F1F3F4;}
	.st5{fill:#F6D201;}
	.st6{fill:#F86903;}
	.st7{fill:#1A9EFE;}
	.st8{fill-rule:evenodd;clip-rule:evenodd;fill:#FFFFFF;}
</style>
<g>
	<g>
		<g>
			<g id="XMLID_11719_">
				<g id="XMLID_11720_">
					<linearGradient id="XMLID_5_" gradientUnits="userSpaceOnUse" x1="100" y1="48.1958" x2="100" y2="399.0779">
						<stop  offset="0" style="stop-color:#F7AF04"/>
						<stop  offset="1" style="stop-color:#F42014"/>
					</linearGradient>
					<path id="XMLID_11756_" class="st0" d="M181.2,43.8c-0.8-0.6-1.8-1-2.9-1H21.6c-1.1,0-2.1,0.4-2.9,1c-1,0.8-1.7,2.1-1.7,3.6
						v2.1v5.7v5.7v5.7v5.7v5.7v5.7v5.7v5.7v5.7v5.7v5.7v5.7v5.7v5.7v2.5v5.7v5.7v4.7c0,0.3,0,0.7,0.1,1c0.5,2,2.3,3.6,4.5,3.6h156.7
						c2.2,0,4-1.5,4.5-3.6c0.1-0.3,0.1-0.7,0.1-1v-4.7v-5.7v-5.7v-2.5v-5.7v-5.7v-5.7v-5.7V101v-5.7v-5.7v-5.7v-5.7v-5.7v-5.7v-5.7
						v-5.7v-5.7v-2.1C182.9,45.9,182.3,44.6,181.2,43.8z"/>
					<g id="XMLID_11746_">
						<g id="XMLID_11747_">
							<defs>
								<rect id="XMLID_11749_" x="3.7" y="150.3" width="192.6" height="4.2"/>
							</defs>
							<clipPath id="XMLID_7_">
								<use xlink:href="#XMLID_11749_"  style="overflow:visible;"/>
							</clipPath>
						</g>
					</g>
					<g id="XMLID_11740_">
						<g>
							<g id="XMLID_39_">
								<linearGradient id="XMLID_10_" gradientUnits="userSpaceOnUse" x1="100" y1="132.3625" x2="100" y2="207.1965">
									<stop  offset="0" style="stop-color:#F7AF04"/>
									<stop  offset="1" style="stop-color:#F42014"/>
								</linearGradient>
								<path id="XMLID_40_" class="st1" d="M185,157.2H15c-4,0-7.9-0.9-11.3-2.7h0h192.6h0C192.9,156.3,189,157.2,185,157.2z"/>
							</g>
						</g>
					</g>
					<g id="XMLID_11724_">
						<g id="XMLID_11732_">
							<circle id="XMLID_11733_" class="st2" cx="100" cy="45.6" r="1.7"/>
						</g>
						<g id="XMLID_11725_">
							<g>
								<g id="XMLID_37_">
									<g id="XMLID_38_">
										<circle class="st3" cx="100" cy="45.6" r="0.6"/>
									</g>
								</g>
							</g>
						</g>
					</g>
				</g>
			</g>
		</g>
		<g>
			<g id="XMLID_8303_">
				<g id="XMLID_8437_">
					<g id="XMLID_8438_">
						<path class="st2" d="M178.5,51.4v93.4c0,1.3-1,2.3-2.3,2.3H23.8c-1.2,0-2.3-1-2.3-2.3V51.4c0-1.3,1-2.3,2.3-2.3h152.5
							C177.5,49.2,178.5,50.2,178.5,51.4z"/>
					</g>
				</g>
			</g>
		</g>
		<g>
			<g>
				<g id="XMLID_90_">
					<g id="XMLID_91_">
						<g id="XMLID_92_">
							<path class="st4" d="M172.2,55.4v6.7c0,0.1-0.9,0.2-2.1,0.2H29.9c-1.1,0-2.1-0.1-2.1-0.2v-6.7c0-0.1,0.9-0.2,2.1-0.2h140.2
								C171.2,55.3,172.2,55.3,172.2,55.4z"/>
						</g>
					</g>
				</g>
			</g>
		</g>
		<g>
			<g>
				<g>
					<g id="XMLID_87_">
						<g id="XMLID_88_">
							<g id="XMLID_89_">
								<path class="st4" d="M96.3,67.9v37.2c0,0.5-0.4,0.9-1,0.9H28.8c-0.5,0-1-0.4-1-0.9V67.9c0-0.5,0.4-0.9,1-0.9h66.5
									C95.9,67,96.3,67.4,96.3,67.9z"/>
							</g>
						</g>
					</g>
				</g>
			</g>
			<g>
				<g>
					<g>
						<g id="XMLID_84_">
							<g id="XMLID_85_">
								<g id="XMLID_86_">
									<path class="st4" d="M96.3,110.9v4c0,0.1-0.4,0.1-1,0.1H28.8c-0.5,0-1,0-1-0.1v-4c0-0.1,0.4-0.1,1-0.1h66.5
										C95.9,110.8,96.3,110.8,96.3,110.9z"/>
								</g>
							</g>
						</g>
					</g>
				</g>
				<g>
					<g>
						<g id="XMLID_81_">
							<g id="XMLID_82_">
								<g id="XMLID_83_">
									<path class="st4" d="M96.3,119.4v4c0,0.1-0.4,0.1-1,0.1H28.8c-0.5,0-1,0-1-0.1v-4c0-0.1,0.4-0.1,1-0.1h66.5
										C95.9,119.3,96.3,119.3,96.3,119.4z"/>
								</g>
							</g>
						</g>
					</g>
				</g>
				<g>
					<g>
						<g id="XMLID_75_">
							<g id="XMLID_79_">
								<g id="XMLID_80_">
									<path class="st4" d="M96.3,127.9v4c0,0.1-0.4,0.1-1,0.1H28.8c-0.5,0-1,0-1-0.1v-4c0-0.1,0.4-0.1,1-0.1h66.5
										C95.9,127.8,96.3,127.8,96.3,127.9z"/>
								</g>
							</g>
						</g>
					</g>
				</g>
				<g>
					<g>
						<g id="XMLID_69_">
							<g id="XMLID_73_">
								<g id="XMLID_74_">
									<path class="st4" d="M96.3,136.4v4c0,0.1-0.4,0.1-1,0.1H28.8c-0.5,0-1,0-1-0.1v-4c0-0.1,0.4-0.1,1-0.1h66.5
										C95.9,136.3,96.3,136.3,96.3,136.4z"/>
								</g>
							</g>
						</g>
					</g>
				</g>
			</g>
		</g>
		<g>
			<g>
				<g>
					<g id="XMLID_63_">
						<g id="XMLID_67_">
							<g id="XMLID_68_">
								<path class="st4" d="M172.2,67.9v37.2c0,0.5-0.4,0.9-1,0.9h-66.5c-0.5,0-1-0.4-1-0.9V67.9c0-0.5,0.4-0.9,1-0.9h66.5
									C171.7,67,172.2,67.4,172.2,67.9z"/>
							</g>
						</g>
					</g>
				</g>
			</g>
			<g>
				<g>
					<g>
						<g id="XMLID_57_">
							<g id="XMLID_61_">
								<g id="XMLID_62_">
									<path class="st4" d="M172.2,110.9v4c0,0.1-0.4,0.1-1,0.1h-66.5c-0.5,0-1,0-1-0.1v-4c0-0.1,0.4-0.1,1-0.1h66.5
										C171.7,110.8,172.2,110.8,172.2,110.9z"/>
								</g>
							</g>
						</g>
					</g>
				</g>
				<g>
					<g>
						<g id="XMLID_54_">
							<g id="XMLID_55_">
								<g id="XMLID_56_">
									<path class="st4" d="M172.2,119.4v4c0,0.1-0.4,0.1-1,0.1h-66.5c-0.5,0-1,0-1-0.1v-4c0-0.1,0.4-0.1,1-0.1h66.5
										C171.7,119.3,172.2,119.3,172.2,119.4z"/>
								</g>
							</g>
						</g>
					</g>
				</g>
				<g>
					<g>
						<g id="XMLID_48_">
							<g id="XMLID_52_">
								<g id="XMLID_53_">
									<path class="st4" d="M172.2,127.9v4c0,0.1-0.4,0.1-1,0.1h-66.5c-0.5,0-1,0-1-0.1v-4c0-0.1,0.4-0.1,1-0.1h66.5
										C171.7,127.8,172.2,127.8,172.2,127.9z"/>
								</g>
							</g>
						</g>
					</g>
				</g>
				<g>
					<g>
						<g id="XMLID_42_">
							<g id="XMLID_46_">
								<g id="XMLID_47_">
									<path class="st4" d="M172.2,136.4v4c0,0.1-0.4,0.1-1,0.1h-66.5c-0.5,0-1,0-1-0.1v-4c0-0.1,0.4-0.1,1-0.1h66.5
										C171.7,136.3,172.2,136.3,172.2,136.4z"/>
								</g>
							</g>
						</g>
					</g>
				</g>
			</g>
		</g>
		<g id="XMLID_11750_">
			<g>
				<rect id="XMLID_15_" x="3.7" y="150.3" class="st5" width="192.6" height="4.2"/>
			</g>
		</g>
		<g id="XMLID_11734_">
			<g>
				<g id="XMLID_27_">
					<path id="XMLID_28_" class="st6" d="M116.1,152.8H83.9c-1.2,0-2.2-1-2.2-2.2v-0.4h36.6v0.4
						C118.3,151.8,117.3,152.8,116.1,152.8z"/>
				</g>
			</g>
		</g>
	</g>
</g>
<g>
	<g id="XMLID_6907_">
		<g id="XMLID_6909_">
			<g id="XMLID_7583_">
				<path id="XMLID_7584_" class="st7" d="M132.6,98.7c0,7.4-2.5,14.2-6.6,19.7c-6,7.8-15.4,12.9-26,12.9s-20-5.1-26-12.9
					c-4.2-5.5-6.6-12.3-6.6-19.7c0-18,14.6-32.6,32.6-32.6C118,66.1,132.6,80.7,132.6,98.7z"/>
			</g>
		</g>
	</g>
	<path class="st8" d="M82.3,106c4,9.8,15.2,14.5,25,10.5c9.8-4,14.5-15.2,10.5-25c-4-9.8-15.2-14.5-25-10.5
		C82.9,85,78.3,96.2,82.3,106z M86.1,104.4l5.1-2.1c1,2.4,2.9,4.2,5.1,5.2l-2.1,5.1C90.6,111.1,87.7,108.2,86.1,104.4z M105.7,112.6
		l-2.1-5.1c2.4-1,4.2-2.9,5.2-5.1l5.1,2.1C112.4,108.1,109.5,111.1,105.7,112.6z M113.9,93l-5.1,2.1c-1-2.4-2.9-4.2-5.1-5.2l2.1-5.1
		C109.4,86.3,112.3,89.2,113.9,93z M94.3,84.8l2.1,5.1c-2.4,1-4.2,2.9-5.2,5.1l-5.1-2.1C87.6,89.4,90.5,86.4,94.3,84.8z M94.9,100.8
		c-1.2-2.8,0.2-6.1,3-7.2c2.8-1.2,6.1,0.2,7.2,3c1.2,2.8-0.2,6.1-3,7.2C99.3,105,96,103.6,94.9,100.8z"/>
</g>
</svg>
