<?xml version="1.0" encoding="utf-8"?>
<!-- Generator: Adobe Illustrator 22.0.1, SVG Export Plug-In . SVG Version: 6.00 Build 0)  -->
<svg version="1.1" id="Layer_1" xmlns="http://www.w3.org/2000/svg" xmlns:xlink="http://www.w3.org/1999/xlink" x="0px" y="0px"
	 viewBox="0 0 623.8 320.8" style="enable-background:new 0 0 623.8 320.8;" xml:space="preserve">
<style type="text/css">
	.st0{fill:#E2E2E4;}
	.st1{fill:url(#XMLID_2_);}
	.st2{fill:#FFFFFF;}
	.st3{fill:url(#XMLID_3_);}
	.st4{fill:url(#XMLID_4_);}
	.st5{fill:#FFC12E;}
	.st6{fill:#1A9EFE;}
	.st7{opacity:0.49;}
	.st8{opacity:0.1;}
	.st9{fill:#18162E;}
</style>
<g>
	<g id="XMLID_8960_">
		<g id="XMLID_8961_">
			<g id="XMLID_8962_">
				<path id="XMLID_8970_" class="st0" d="M43.9,292.8v11.7c9.6,5,20.5,7.6,31.5,7.6h472.9c11,0,21.9-2.6,31.5-7.6v-11.7H43.9z"/>
				<linearGradient id="XMLID_2_" gradientUnits="userSpaceOnUse" x1="311.8939" y1="1231.4816" x2="311.8939" y2="-282.7417">
					<stop  offset="0" style="stop-color:#E2E2E4"/>
					<stop  offset="1" style="stop-color:#F1F2F2"/>
				</linearGradient>
				<path id="XMLID_8969_" class="st1" d="M539,299.8H84.8c-2,0-3.6-1.6-3.6-3.6V12.3c0-2,1.6-3.6,3.6-3.6H539c2,0,3.6,1.6,3.6,3.6
					v283.8C542.6,298.2,541,299.8,539,299.8z"/>
				<rect id="XMLID_8968_" x="98.3" y="30.4" class="st2" width="427.1" height="243.9"/>
				<linearGradient id="XMLID_3_" gradientUnits="userSpaceOnUse" x1="311.8939" y1="396.1197" x2="311.8939" y2="375.3444">
					<stop  offset="0" style="stop-color:#E2E2E4"/>
					<stop  offset="1" style="stop-color:#F1F2F2"/>
				</linearGradient>
				<rect id="XMLID_8967_" x="43.9" y="292.8" class="st3" width="535.9" height="11.7"/>
				<path id="XMLID_8966_" class="st0" d="M548.4,312.1H75.4c-11,0-21.9-2.6-31.5-7.6l0,0h535.9v0
					C570.2,309.5,559.4,312.1,548.4,312.1z"/>
				<path id="XMLID_8965_" class="st0" d="M360.8,299.8H263c-1.1,0-2-0.9-2-2v-5h101.7v5C362.8,298.9,361.9,299.8,360.8,299.8z"/>
				<linearGradient id="XMLID_4_" gradientUnits="userSpaceOnUse" x1="311.8939" y1="-2.847634e-03" x2="311.8939" y2="45.5093">
					<stop  offset="0" style="stop-color:#98999E"/>
					<stop  offset="1" style="stop-color:#FFFFFF"/>
				</linearGradient>
				<circle id="XMLID_8964_" class="st4" cx="311.9" cy="21" r="4.8"/>
				<circle id="XMLID_8963_" class="st2" cx="311.9" cy="21" r="1.7"/>
			</g>
		</g>
	</g>
	<g>
		<g>
			<rect id="XMLID_8959_" x="98.6" y="123.9" class="st5" width="426.5" height="57"/>
			<g id="XMLID_8908_">
				<g id="XMLID_8928_">
					<circle id="XMLID_8931_" class="st6" cx="76.3" cy="152.4" r="66.8"/>
					<path id="XMLID_8930_" class="st2" d="M114.3,182c-8.7,11.5-22.5,18.9-37.9,18.9s-29.2-7.4-37.9-18.8
						c4.6-16.6,19.9-28.8,37.9-28.8C94.4,153.2,109.6,165.4,114.3,182z"/>
					<circle id="XMLID_8929_" class="st2" cx="76.3" cy="137.9" r="19.7"/>
				</g>
				<g id="XMLID_8910_">
					<g id="XMLID_8926_">
						<path id="XMLID_8927_" class="st6" d="M614.2,152.4c0,15.1-5,29.1-13.6,40.3c-12.2,16.1-31.5,26.4-53.2,26.4
							s-41-10.4-53.2-26.4c-8.5-11.2-13.6-25.2-13.6-40.4c0-36.9,29.9-66.8,66.8-66.8C584.4,85.6,614.2,115.5,614.2,152.4z"/>
					</g>
					<path id="XMLID_8918_" class="st2" d="M547.5,107.3c-24.9,0-45.1,20.2-45.1,45.1c0,9.9,3.2,19.4,9.2,27.3
						c8.6,11.3,21.7,17.8,35.9,17.8c14.2,0,27.3-6.5,35.9-17.8c6-7.9,9.2-17.3,9.2-27.3C592.6,127.5,572.4,107.3,547.5,107.3z
						 M521.6,172c-3.1-4.1-5.1-8.8-6-13.7c2.1,0.4,4.3,0.6,6.4,1.1c4.9,1.4,9,5.9,8.8,11c-0.1,1.7-0.6,3.7,0.5,5.1
						c1.4,1.9,4.3,1.4,6.6,2c2.2,0.6,3.9,2.5,4.2,4.7c0.1,0.7,0,1.4-0.1,2.1C534,183,526.7,178.7,521.6,172z M547.1,184.8
						c0.6-1.2,1.4-2.4,2.2-3.5c1.7-2.4,3.3-5.4,2.1-8.1c-1-2.2-3.7-3.2-6.1-3.4c-2.4-0.2-4.9,0.1-7.3-0.5c-4.5-1.1-7.9-5.9-7.4-10.5
						c0.4-3.7,2.8-6.8,5.4-9.5c2.6-2.7,5.4-5.2,7.1-8.5c2.1-4.2,2-9.3,0.7-13.8c-0.6-2.2-1.5-4.4-2.6-6.5c2-0.4,4.1-0.6,6.3-0.6
						c4.2,0,8.3,0.8,12,2.3c-3.4,3.5-4.3,10.4-3,14.3c1.8,5.7,7.3,1.1,10.8,0.2c3.7-0.9,7.3,1.4,10.4,3.8c0.8,2,1.4,4.1,1.8,6.3
						c-0.5,0-1,0-1.5,0.1c-2.6,0.3-5.3,1.9-5.9,4.5c-0.6,2.5,0.6,5.6-1.3,7.3c-2,1.8-5.3-0.1-8,0.5c-1.7,0.4-3,1.9-3.7,3.5
						c-0.7,1.6-0.8,3.4-0.9,5.2c-0.3,4.2-0.6,8.4-0.9,12.6c-0.1,0.9-0.1,1.8,0.1,2.7c-3.1,1-6.4,1.6-9.8,1.6
						C547.3,184.8,547.2,184.8,547.1,184.8z"/>
				</g>
			</g>
			<g id="XMLID_8895_">
				<g id="XMLID_8901_" class="st7">
					<g id="XMLID_8904_">
						<polygon id="XMLID_8905_" class="st2" points="159.1,166.1 154.5,161.5 163.5,152.4 154.5,143.4 159.1,138.7 172.8,152.4 
													"/>
					</g>
					<g id="XMLID_8902_">
						<polygon id="XMLID_8903_" class="st2" points="194.7,166.1 190,161.5 199,152.4 190,143.4 194.7,138.7 208.4,152.4 						"/>
					</g>
				</g>
				<g id="XMLID_8896_" class="st7">
					<g id="XMLID_8899_">
						<polygon id="XMLID_8900_" class="st2" points="421.1,166.1 416.4,161.5 425.5,152.4 416.4,143.4 421.1,138.7 434.8,152.4 
													"/>
					</g>
					<g id="XMLID_8897_">
						<polygon id="XMLID_8898_" class="st2" points="456.6,166.1 452,161.5 461,152.4 452,143.4 456.6,138.7 470.3,152.4 						"/>
					</g>
				</g>
			</g>
		</g>
		<g id="XMLID_8921_">
			<g id="XMLID_8922_">
				<g id="XMLID_8973_">
					<g id="XMLID_8975_">
						<path id="XMLID_8976_" class="st6" d="M311.9,264C311.9,264.1,311.8,264.1,311.9,264c-0.5,0.2-1,0.4-1.4,0.5
							c-113.8-42.5-99.2-200.3-99.2-200.3c58.7,0.4,96.4-20.1,100.5-22.6c0,0,0.1,0,0.1,0c0.2-0.1,0.3-0.2,0.3-0.2
							s38.7,23.9,100.4,24.4C412.6,65.8,424.8,222.5,311.9,264z"/>
					</g>
				</g>
				<g id="XMLID_8944_" class="st8">
					<g id="XMLID_8946_">
						<g id="XMLID_8957_">
							<path id="XMLID_8971_" class="st9" d="M312,264C312,264.1,312,264.1,312,264L312,41.6c0,0,0.1,0,0.1,0
								c0.2-0.1,0.3-0.2,0.3-0.2S351,65.4,412.7,65.8C412.7,65.8,424.9,222.5,312,264z"/>
						</g>
					</g>
				</g>
			</g>
		</g>
		<g id="XMLID_8919_">
			<path class="st2" d="M290.3,131.3l-18.8,43.5h-9.9l-18.8-43.5h10.9l13.2,31.1l13.4-31.1H290.3z"/>
			<path class="st2" d="M331.7,147c0,9.7-7.3,15.7-18.9,15.7H304v12H294v-43.5h18.8C324.4,131.3,331.7,137.3,331.7,147z M321.5,147
				c0-4.8-3.1-7.6-9.3-7.6H304v15.1h8.2C318.4,154.6,321.5,151.8,321.5,147z"/>
			<path class="st2" d="M375,131.3v43.5h-8.3L345,148.3v26.4h-9.9v-43.5h8.3l21.6,26.4v-26.4H375z"/>
		</g>
	</g>
</g>
</svg>
