<?xml version="1.0" encoding="utf-8"?>
<!-- Generator: Adobe Illustrator 24.3.0, SVG Export Plug-In . SVG Version: 6.00 Build 0)  -->
<svg version="1.1" id="Layer_1" xmlns="http://www.w3.org/2000/svg" xmlns:xlink="http://www.w3.org/1999/xlink" x="0px" y="0px"
	 viewBox="0 0 168 56" style="enable-background:new 0 0 168 56;" xml:space="preserve">
<style type="text/css">
	.st0{fill-rule:evenodd;clip-rule:evenodd;fill:#2C3038;}
	.st1{fill:#FFFFFF;}
</style>
<g>
	<path class="st0" d="M3,0h162c1.7,0,3,1.3,3,3v50c0,1.7-1.3,3-3,3H3c-1.7,0-3-1.3-3-3V3C0,1.3,1.3,0,3,0z"/>
	<g>
		<path class="st1" d="M15.9,27.1l0-8.6l10.5-1.4v10H15.9z M28.2,16.9l14-2v12.3h-14V16.9z M42.3,28.9l0,12.3l-14-2V28.9H42.3z
			 M26.5,39l-10.5-1.4v-8.6h10.5V39z"/>
	</g>
	<g>
		<path class="st1" d="M58,34.1V19.2h4.4c1.3,0,2.5,0.3,3.5,0.9s1.8,1.4,2.4,2.5s0.8,2.3,0.8,3.7v0.7c0,1.4-0.3,2.7-0.8,3.7
			c-0.6,1.1-1.4,1.9-2.4,2.5c-1,0.6-2.2,0.9-3.6,0.9H58z M60.6,21.3v10.8h1.7c1.4,0,2.4-0.4,3.1-1.3c0.7-0.9,1.1-2.1,1.1-3.7v-0.8
			c0-1.6-0.4-2.9-1.1-3.7s-1.7-1.3-3.1-1.3H60.6z"/>
		<path class="st1" d="M71.1,28.5c0-1.1,0.2-2.1,0.6-2.9c0.4-0.9,1-1.5,1.8-2c0.8-0.5,1.7-0.7,2.7-0.7c1.5,0,2.7,0.5,3.6,1.4
			c0.9,1,1.4,2.2,1.5,3.8l0,0.6c0,1.1-0.2,2.1-0.6,2.9c-0.4,0.9-1,1.5-1.8,2c-0.8,0.5-1.7,0.7-2.7,0.7c-1.6,0-2.8-0.5-3.8-1.6
			s-1.4-2.4-1.4-4.2V28.5z M73.6,28.7c0,1.1,0.2,2,0.7,2.7c0.5,0.6,1.1,1,2,1c0.8,0,1.5-0.3,2-1c0.5-0.7,0.7-1.6,0.7-2.9
			c0-1.1-0.2-2-0.7-2.7c-0.5-0.7-1.1-1-2-1c-0.8,0-1.5,0.3-1.9,1C73.8,26.5,73.6,27.4,73.6,28.7z"/>
		<path class="st1" d="M93.2,30.7L95,23h2.4l-3,11.1h-2.1L90,26.5l-2.3,7.6h-2.1l-3-11.1H85l1.8,7.6L89,23h1.9L93.2,30.7z"/>
		<path class="st1" d="M101.4,23l0.1,1.3c0.8-1,1.9-1.5,3.2-1.5c2.3,0,3.5,1.3,3.5,4v7.3h-2.5v-7.2c0-0.7-0.2-1.2-0.5-1.6
			c-0.3-0.3-0.8-0.5-1.5-0.5c-1,0-1.8,0.5-2.2,1.4v7.9h-2.5V23H101.4z"/>
		<path class="st1" d="M113.4,34.1h-2.5V18.4h2.5V34.1z"/>
		<path class="st1" d="M115.7,28.5c0-1.1,0.2-2.1,0.6-2.9c0.4-0.9,1-1.5,1.8-2c0.8-0.5,1.7-0.7,2.7-0.7c1.5,0,2.7,0.5,3.6,1.4
			c0.9,1,1.4,2.2,1.5,3.8l0,0.6c0,1.1-0.2,2.1-0.6,2.9c-0.4,0.9-1,1.5-1.8,2c-0.8,0.5-1.7,0.7-2.7,0.7c-1.6,0-2.8-0.5-3.8-1.6
			c-0.9-1-1.4-2.4-1.4-4.2V28.5z M118.2,28.7c0,1.1,0.2,2,0.7,2.7c0.5,0.6,1.1,1,2,1c0.8,0,1.5-0.3,2-1c0.5-0.7,0.7-1.6,0.7-2.9
			c0-1.1-0.2-2-0.7-2.7c-0.5-0.7-1.1-1-2-1c-0.8,0-1.5,0.3-1.9,1C118.4,26.5,118.2,27.4,118.2,28.7z"/>
		<path class="st1" d="M134.7,34.1c-0.1-0.2-0.2-0.6-0.3-1c-0.8,0.8-1.8,1.2-2.9,1.2c-1.1,0-2-0.3-2.7-1c-0.7-0.6-1.1-1.4-1.1-2.4
			c0-1.2,0.4-2.1,1.3-2.7c0.9-0.6,2.1-0.9,3.8-0.9h1.5v-0.7c0-0.6-0.2-1-0.5-1.4s-0.8-0.5-1.5-0.5c-0.6,0-1,0.1-1.4,0.4
			c-0.4,0.3-0.5,0.6-0.5,1.1H128c0-0.6,0.2-1.2,0.6-1.7s1-0.9,1.6-1.2c0.7-0.3,1.5-0.5,2.3-0.5c1.3,0,2.3,0.3,3.1,1s1.2,1.6,1.2,2.8
			v5c0,1,0.1,1.8,0.4,2.4v0.2H134.7z M132,32.3c0.5,0,1-0.1,1.4-0.4c0.4-0.2,0.8-0.6,1-1v-2.1H133c-0.9,0-1.6,0.2-2.1,0.5
			c-0.5,0.3-0.7,0.8-0.7,1.4c0,0.5,0.2,0.9,0.5,1.1C131,32.2,131.4,32.3,132,32.3z"/>
		<path class="st1" d="M139,28.5c0-1.7,0.4-3.1,1.2-4.1c0.8-1,1.9-1.6,3.2-1.6c1.2,0,2.1,0.4,2.9,1.2v-5.7h2.5v15.8h-2.3l-0.1-1.1
			c-0.7,0.9-1.7,1.4-3,1.4c-1.3,0-2.3-0.5-3.2-1.6C139.4,31.7,139,30.3,139,28.5z M141.5,28.7c0,1.1,0.2,2,0.7,2.6
			c0.4,0.6,1.1,0.9,1.9,0.9c1,0,1.8-0.5,2.2-1.4v-4.7c-0.5-0.9-1.2-1.3-2.2-1.3c-0.8,0-1.4,0.3-1.9,1
			C141.7,26.5,141.5,27.4,141.5,28.7z"/>
	</g>
</g>
</svg>
