<svg version="1.1" id="Layer_1" xmlns="http://www.w3.org/2000/svg" x="0" y="0" viewBox="0 0 512 512" xml:space="preserve"><style>.st11{fill:#3978bd}.st12{fill:#2dc3f2}.st13{fill:#20abe3}.st14{fill:#3068b0}</style><g id="Layer_2-2"><path d="M183.1 254.6l15.1-11.7c1.9-1.5 3.4-2.8 4-3.7.9-1.2 1.2-2.2 1.2-3.4s-.3-2.2-1.2-3.1c-.9-.9-1.9-1.2-3.4-1.2s-2.8.3-4 1.2c-1.2.9-2.8 2.2-4.3 4l-7.7-6.5c1.2-1.5 2.2-2.8 3.4-3.7 1.2-.9 2.5-1.9 3.7-2.8 1.2-.6 2.8-1.2 4.3-1.5 1.5-.3 3.4-.6 5.2-.6 2.2 0 4.3.3 6.2.9 1.9.6 3.4 1.5 4.6 2.8 1.2 1.2 2.5 2.5 3.1 4 .6 1.5 1.2 3.4 1.2 5.2 0 1.5-.3 3.1-.6 4.3-.3 1.2-.9 2.5-1.9 3.7-.9 1.2-1.9 2.2-3.1 3.1s-2.5 2.2-4 3.1l-7.1 4.9h16.7v9.3H183v-8.3zm56.8.6h-19.8l-1.9-8 21-25h11.4v24.7h5.2v8.3h-5.2v8h-10.8v-8zm0-8.3v-11.7l-9.9 11.7h9.9zm41.4-30h9l-25.6 53.7h-9l25.6-53.7zm29 15.1h-18.8v-9.6H323v8.6l-18 32.2h-12.3l17.6-31.2z" fill="#2ca6df"/><path d="M183.1 254.6l15.1-11.7c1.9-1.5 3.4-2.8 4-3.7.9-1.2 1.2-2.2 1.2-3.4s-.3-2.2-1.2-3.1c-.9-.9-1.9-1.2-3.4-1.2s-2.8.3-4 1.2c-1.2.9-2.8 2.2-4.3 4l-7.7-6.5c1.2-1.5 2.2-2.8 3.4-3.7 1.2-.9 2.5-1.9 3.7-2.8 1.2-.6 2.8-1.2 4.3-1.5 1.5-.3 3.4-.6 5.2-.6 2.2 0 4.3.3 6.2.9 1.9.6 3.4 1.5 4.6 2.8 1.2 1.2 2.5 2.5 3.1 4 .6 1.5 1.2 3.4 1.2 5.2 0 1.5-.3 3.1-.6 4.3-.3 1.2-.9 2.5-1.9 3.7-.9 1.2-1.9 2.2-3.1 3.1s-2.5 2.2-4 3.1l-7.1 4.9h16.7v9.3H183v-8.3zm56.8.6h-19.8l-1.9-8 21-25h11.4v24.7h5.2v8.3h-5.2v8h-10.8v-8zm0-8.3v-11.7l-9.9 11.7h9.9zm41.4-30h9l-25.6 53.7h-9l25.6-53.7zm29 15.1h-18.8v-9.6H323v8.6l-18 32.2h-12.3l17.6-31.2z" fill="#1e4671"/><path class="st11" d="M171.3 205.8l-4 9c-.6 1.9-2.8 2.8-4.6 2.2l-15.4-4.9c-1.9-.6-3.1-2.5-2.5-4.6v-.5l4.9-11.7c.9-1.9 3.1-2.8 4.9-1.9 0 0 .3 0 .3.3l14.5 7.7c1.9.7 2.9 2.6 1.9 4.4z"/><path class="st12" d="M287.7 159.8l-9.9-3.1c-1.9-.6-2.8-2.5-2.5-4.3l3.4-16.1c.3-2.2 2.5-3.4 4.3-2.8h.3l12.7 4c1.9.6 3.1 2.8 2.5 4.6v.3l-6.5 15.1c-.2 2-2.4 2.9-4.3 2.3z"/><path class="st13" d="M257.8 149.9c0 1.9-1.5 3.4-3.4 3.7-4 .3-7.7.3-11.4.9-1.9.3-2.5-.3-2.8-1.9-.9-5.9-1.9-11.7-2.8-17.6-.3-2.2.9-4 3.1-4.3h.3l13.3-.9c2.2 0 3.7 1.5 4 3.4v.3l-.3 16.4z"/><path class="st12" d="M308.1 166l9-13.6c1.2-1.9 3.4-2.2 5.2-.9 0 0 .3 0 .3.3l10.5 8.3c1.5 1.2 1.9 3.7.6 5.2l-.3.3-11.4 11.8c-1.2 1.5-3.4 1.5-4.9.3l-8-6.5c-1.6-1.2-1.9-3.4-1-5.2z"/><path class="st11" d="M179.7 185.7L167 175.5c-1.5-1.2-1.9-3.7-.6-5.2l.3-.3 9.3-9.6c1.5-1.5 3.7-1.5 5.2 0l.3.3L192 173c1.2 1.5 1.2 3.7 0 4.9l-7.1 7.4c-1.2 1.7-3.7 1.7-5.2.4z"/><path class="st14" d="M167 286.7l-14.8 6.8c-1.9.9-4 0-4.9-1.9v-.3l-4.3-12.7c-.6-1.9.3-4 2.2-4.6h.3l15.7-4c1.9-.3 3.7.6 4.3 2.5l3.4 9.9c.9 1.2 0 3.4-1.9 4.3zm-8.6-34.6l-16.1.9c-2.2 0-3.7-1.5-4-3.4v-.3l.3-13.3c0-2.2 1.9-3.7 3.7-3.7h.3l16.4 2.2c1.9.3 3.4 1.9 3.4 3.7l-.3 10.2c-.3 2.2-1.6 3.7-3.7 3.7z"/><path class="st13" d="M220.7 160.1l-9.3 4.3c-1.9.9-3.7.3-4.9-1.5l-8-14.2c-.9-1.9-.3-4 1.5-5.2h.3l12-5.6c1.9-.9 4 0 4.9 1.9v.3l5.2 15.4c1.1 1.8.2 3.7-1.7 4.6z"/><path class="st14" d="M171.3 299l-9.9 6.2c-3.1 1.9-4 5.9-2.2 9 0 .3.3.3.3.3 5.2 7.1 11.1 13.6 17.9 19.5 28.1 24.4 65.8 34.9 102.5 28.1 29.9-4.6 56.5-21.6 73.5-46.6 17.6-25.3 24.4-53.7 20.7-85.5l9-.6c1.9 0 3.4-.9 4-2.5.6-1.9 0-3.7-1.2-4.9-8.3-9-16.7-18.2-25.3-27.2-1.2-1.9-4-2.2-5.9-.9-.6.3-.9.9-1.2 1.5-6.2 10.8-12.3 21.6-18.5 32.4-.6 1.2-.6 2.8 0 4.3.9 1.5 2.5 2.5 4.3 2.2 3.4-.3 6.8-.9 10.5-1.2 5.2 30.3-7.1 74.1-47.2 95.7-13.9 7.7-29.6 11.7-45.4 11.7-16.1 0-31.8-4-46-12-12.3-6.8-23.2-16.4-31.8-27.8-1.9-2.9-5.3-3.5-8.1-1.7z"/><g id="base-3"><linearGradient id="SVGID_00000167370664846822532340000006362837242463740057_" gradientUnits="userSpaceOnUse" x1="457.721" y1="-435.144" x2="511.564" y2="-435.144" gradientTransform="matrix(1 0 0 -1 0 -163.89)"><stop offset="0" stop-color="#335eac"/><stop offset=".34" stop-color="#3360ad"/><stop offset=".52" stop-color="#3267b1"/><stop offset=".67" stop-color="#3372b9"/><stop offset=".79" stop-color="#2f84c6"/><stop offset=".9" stop-color="#299ed8"/><stop offset="1" stop-color="#2bbaed"/></linearGradient><path d="M484.7 218.5c14.8 0 26.9 12 26.9 26.9v51.9c0 14.8-12 26.9-26.9 26.9-14.8 0-26.9-12-26.9-26.9v-51.9c.1-14.9 12.1-26.9 26.9-26.9z" fill="url(#SVGID_00000167370664846822532340000006362837242463740057_)"/><linearGradient id="SVGID_00000034089604594393965350000005737426242301973415_" gradientUnits="userSpaceOnUse" x1="53.806" y1="-435.144" x2="-.036" y2="-435.144" gradientTransform="matrix(1 0 0 -1 0 -163.89)"><stop offset="0" stop-color="#335eac"/><stop offset=".34" stop-color="#3360ad"/><stop offset=".52" stop-color="#3267b1"/><stop offset=".67" stop-color="#3372b9"/><stop offset=".79" stop-color="#2f84c6"/><stop offset=".9" stop-color="#299ed8"/><stop offset="1" stop-color="#2bbaed"/></linearGradient><path d="M26.9 218.5c14.8 0 26.9 12 26.9 26.9v51.9c0 14.8-12 26.9-26.9 26.9C12 324 0 312 0 297.2v-51.9c0-14.8 12-26.8 26.9-26.8z" fill="url(#SVGID_00000034089604594393965350000005737426242301973415_)"/><linearGradient id="SVGID_00000035501027962291446690000002840627546717550012_" gradientUnits="userSpaceOnUse" x1="255.785" y1="-665.527" x2="255.785" y2="-173.292" gradientTransform="matrix(1 0 0 -1 0 -163.89)"><stop offset="0" stop-color="#2bbaed"/><stop offset="1" stop-color="#335eac"/></linearGradient><path d="M484.7 270v56.5c0 22.8-15.7 38.6-38.6 40.8-5.9.3-11.1 6.2-13.9 10.2-16.4 28.1-36.4 43.5-64.8 54.6-22.5 9-45.4 17.6-67.9 25.9-3.1 1.2-4.3 2.5-4.6 5.9-.6 14.2-10.5 26.2-24.1 29.3-11.4 2.5-23.2 4.9-34.6 7.1-17.3 3.7-34-7.1-38-24.4-3.7-17 7.1-34 24.1-37.7 11.7-2.8 23.5-4.9 35.5-7.4 9-1.9 17.9.3 25.3 5.9 1.5.9 3.1 1.5 4.9 1.2 30.3-9.6 59.6-21.3 88.3-34.9 19.5-9.6 31.2-25.3 40.4-43.8.3-1.2 0-2.8-.6-4-7.1-7.4-11.1-17.3-11.1-27.5 0-39.5 0-79 .3-118.6 0-11.7 5.9-22.5 15.4-29.3 2.5-1.5 3.7-4.6 2.8-7.4C406.8 102 363 57.6 292.3 39.6c-10.8-2.2-21.6-3.4-32.4-3.7-70.7-5.6-152.8 46.6-171.3 133.7-.3 1.5-.3 2.8-.3 4.3s.6 3.4 1.9 4.6c9.6 8 17 20.4 16.7 33.7v114.2c0 21.9-17.9 39.8-39.8 39.8-20.7 0-38-16.1-39.8-36.7-.3-1.9-.3-3.7-.3-5.6V214c0-20.4 10.5-35.5 29-40.8 5.2-1.5 6.2-4.3 7.7-8.6C83 83.5 134 31.7 216.1 13.5 303.2-6 390.2 37.2 430.7 115.3c8.6 16.7 14.8 34.6 18.2 53.1.3 2.2 1.9 4 4 4 18.5 4 31.8 20.4 31.5 39.2.3 19.5.3 39 .3 58.4z" fill="url(#SVGID_00000035501027962291446690000002840627546717550012_)"/></g></g></svg>