<svg version="1.1" id="Layer_1" xmlns="http://www.w3.org/2000/svg" x="0" y="0" viewBox="0 0 512 512" xml:space="preserve"><style/><g id="Layer_2_00000030476468135151434740000003332929278713472176_"><g id="Layer_2-2"><linearGradient id="SVGID_1_" gradientUnits="userSpaceOnUse" x1="256" y1="-664.157" x2="256" y2="-593.963" gradientTransform="matrix(1 0 0 -1 0 -151.89)"><stop offset="0" stop-color="#2bbaed"/><stop offset=".03" stop-color="#2ab2e7"/><stop offset=".25" stop-color="#2e8dcc"/><stop offset=".45" stop-color="#3272b9"/><stop offset=".62" stop-color="#3163af"/><stop offset=".75" stop-color="#335eac"/></linearGradient><path d="M446.6 442v41.5c0 6.2-12.9 11.8-34.7 16.5-4.7.9-9.4 1.8-15 2.6-27.1 4.1-54.4 6.8-81.8 7.9-5.6.3-11.5.6-17.1.6-13.5.3-27.7.6-42.1.6-15.3 0-30.3-.3-44.7-.9-5.9-.3-11.5-.6-17.1-.6-27.4-1.2-54.4-3.8-81.5-8.2-5.3-.9-10.3-1.8-14.7-2.9-20.3-4.7-32.4-10-32.4-15.9v-41.5l6.2 2.1 1.2.3 15 4.7L124 460l5.9 1.8 7.1-.9c20.6-2.4 44.4-4.4 70.3-5.3 4.4-.3 8.8-.3 13.5-.3 11.2-.3 23-.6 35-.6 10.9 0 21.8 0 32.1.3 4.7 0 9.1.3 13.5.3 25.9.9 49.7 2.6 70 5 3.5.3 6.8.9 10 1.2l3.8-1.2 38.6-12.1 22.8-6.2z" fill="url(#SVGID_1_)"/><linearGradient id="SVGID_00000068657355489423491130000002134228161990080172_" gradientUnits="userSpaceOnUse" x1="65.43" y1="-594.198" x2="446.57" y2="-594.198" gradientTransform="matrix(1 0 0 -1 0 -151.89)"><stop offset="0" stop-color="#2bbaed"/><stop offset="1" stop-color="#335eac"/></linearGradient><path d="M446.6 442c0 .6 0 .9-.3 1.5-1.2 2.4-2.9 4.4-5.3 5.6-8.8 5.3-28 10.3-53.9 13.8-4.1.6-8.5 1.2-12.9 1.8-20 2.4-43.6 4.1-68.9 5.3l-6.8.3-7.7.3c-9.7.3-20 .3-30.3.6h-4.4c-12.9 0-25.3-.3-37.4-.6-5-.3-9.7-.3-14.4-.6-25.6-1.2-48.9-2.9-68.9-5.3-4.4-.6-8.8-1.2-12.9-1.8-24.7-3.5-43-8.2-51.5-13.5-2.6-1.2-4.7-3.2-5.6-6.2v-.9c0-2.4 1.8-4.7 5.6-6.8 5.3-2.9 10.6-5 16.5-6.5 5.6-1.5 12.1-2.9 19.1-4.4 6.5-1.2 13.8-2.4 21.8-3.5 7.9-1.2 15.3-2.1 23.8-2.6l11.5-1.2c9.4-.9 19.1-1.5 29.4-2.1 7.9-.3 16.2-.9 24.7-1.2h4.1l6.5-.3c9.1-.3 18.2-.3 27.7-.3 8.5 0 16.8 0 24.7.3 3.5 0 7.1.3 10.6.3 19.1.6 37.4 1.5 54.2 2.9l11.2.9c9.4.9 18.5 1.8 26.8 2.9 7.9 1.2 15 2.4 21.8 3.5 5.6 1.2 10.9 2.4 15.3 3.5 6.5 1.5 12.7 3.8 18.8 6.8 1.5.6 2.6 1.5 3.8 2.4 1.2.9 2.4 2.1 2.9 3.5.4.7.4 1 .4 1.6z" fill="url(#SVGID_00000068657355489423491130000002134228161990080172_)"/><linearGradient id="SVGID_00000125582320987970879690000016446105553477677724_" gradientUnits="userSpaceOnUse" x1="215.833" y1="365.566" x2="287.425" y2="365.566" gradientTransform="scale(1 -1) rotate(2.303 12853.474 209.753)"><stop offset="0" stop-color="#2bbaed"/><stop offset="1" stop-color="#335eac"/></linearGradient><path d="M256.1 96.2c-12.1 0-22.1 9.7-22.1 22.1v13.2h-4.4c-4.7 0-8.5 3.8-8.8 8.8v35.3c0 4.7 3.8 8.5 8.8 8.8h52.7c4.7 0 8.5-3.8 8.8-8.8v-35.3c0-4.7-3.8-8.5-8.8-8.8h-4.4v-13.2c.3-12.1-9.7-22.1-21.8-22.1zM242.9 118c-.3-7.4 5.6-13.5 12.7-13.5 7.4-.3 13.5 5.6 13.5 12.7V131h-26.5l.3-13zm18 47.4v10H252v-10c-4.1-2.4-5.6-7.7-3.2-12.1 2.4-4.1 7.7-5.6 12.1-3.2 2.1 1.2 3.5 3.5 4.1 5.6v2.1c0 3.1-1.8 5.8-4.1 7.6z" fill="url(#SVGID_00000125582320987970879690000016446105553477677724_)"/><path d="M65.4 442.9l154.5-5.3 40.3 33c10.3 0 20.6-.3 30.3-.6l7.7-.3-30-20.6 178.1-5.9c0-.3.3-.9.3-1.5s0-1.2-.3-1.8c-.6-1.5-1.8-2.6-2.9-3.5l-8.8-4.1-180.4 5.9-31.8-25h-4.1c-8.5.3-16.8.6-24.7 1.2l18.2 15.6-140.4 5-6 7.9z" opacity=".4" fill="#132e44"/><linearGradient id="SVGID_00000101824743993352276420000005671727049548082101_" gradientUnits="userSpaceOnUse" x1="118.352" y1="-336.8" x2="393.443" y2="-336.8" gradientTransform="matrix(1 0 0 -1 0 -151.89)"><stop offset="0" stop-color="#335eac"/><stop offset="1" stop-color="#2bbaed"/></linearGradient><path d="M135.2 203.3c17.4 33.8 84.5 128.3 108.6 161.6 3.5 5 10.6 6.2 15.3 2.6.9-.6 1.5-1.5 2.4-2.1C283.8 337.2 340.9 264 362.1 233c7.7-11.2 14.1-23.3 19.4-35.9 13.5-31.8 15.6-67.4 5.9-100.7C358.6.2 252.3.2 252.3.2c-43.8-.5-85 20.4-110.3 56.3-32.1 43.8-28.6 103.9-6.8 146.8zm29.7-64.1c0-48.9 39.4-88.3 88.3-88.3s88.3 39.4 88.3 88.3-39.4 88.3-88.3 88.3-88.3-39.5-88.3-88.3z" fill="url(#SVGID_00000101824743993352276420000005671727049548082101_)"/></g></g></svg>