<svg version="1.1" id="Layer_1" xmlns="http://www.w3.org/2000/svg" x="0" y="0" viewBox="0 0 512 512" xml:space="preserve"><style>.st2{fill:#fff}</style><g id="Layer_1-2"><linearGradient id="SVGID_1_" gradientUnits="userSpaceOnUse" x1="-83.14" y1="-650.15" x2="283.118" y2="-436.066" gradientTransform="matrix(1 0 0 -1 0 -314)"><stop offset="0" stop-color="#3865b0"/><stop offset=".2" stop-color="#376db5"/><stop offset=".52" stop-color="#3085c7"/><stop offset=".94" stop-color="#29afe5"/><stop offset=".99" stop-color="#2bb5e9"/></linearGradient><path d="M417.3 118.2c-6.3-10.2-17.4-16.3-29.4-16.3h-88.3V85.6c.1-19.7-15.9-35.7-35.6-35.7H159.8c-19.7.1-35.7 16.1-35.7 35.8V102H34.7C15.6 102 .1 117.6 0 136.7v54.6c0 12 6.2 23.1 16.4 29.4 5.5 3.5 11.9 5.4 18.4 5.4h96.4c-.3-5.7-.3-11.4-.3-17-.1-2.9.3-5.8 1.4-8.4 1.8-4 5.1-5.9 8.7-8 4.4-2.7 8.7-4.8 13.1-7.5 5.6-3.3 11-6.7 16.6-10 5.6-3.3 11.4-6.9 17.2-10.2 5.6-3.3 13.1-7.3 18.5-11 2-1.2 4.1-2.4 6.5-2.4 2.2.1 4.2 1.2 6 2.3 13.2 7.8 24.9 16.4 38 24.1 6.6 4.1 13.2 7.9 19.8 11.8 4.6 2.9 11 5.1 13.4 10.3 1.4 2.9 1.6 6.2 1.8 9.5.4 4.2.4 8.6.5 12.8 0 1.2 0 2.5-.1 3.7H388c19.1-.1 34.7-15.6 34.7-34.7v-54.6c0-6.6-1.8-13-5.4-18.6zM158.8 85.1h105.6v16.8H158.8V85.1z" fill="url(#SVGID_1_)"/><linearGradient id="SVGID_00000129192459219665470580000014640322803786550913_" gradientUnits="userSpaceOnUse" x1="-15.197" y1="-766.389" x2="351.062" y2="-552.304" gradientTransform="matrix(1 0 0 -1 0 -314)"><stop offset="0" stop-color="#3865b0"/><stop offset=".2" stop-color="#376db5"/><stop offset=".52" stop-color="#3085c7"/><stop offset=".94" stop-color="#29afe5"/><stop offset=".99" stop-color="#2bb5e9"/></linearGradient><path d="M354.4 377.9c4.2 8.2 12.6 21.5 22.5 36.3H39.4c-6.5 0-12.9-1.9-18.4-5.4-10.1-6.3-16.2-17.4-16.3-29.3V254.3c0-4.4 3.5-7.8 7.8-7.8h.1c1.8 0 3.5.3 5.2 1 1.7.6 3.2 1.6 4.6 2.7 3.2 2.7 7.3 4.2 11.4 4.3H138c.6 3.7 1.3 7.4 2.1 11 1.6 6.8 3.7 13.5 6.3 20 1.9 4.5 4 9.2 6.3 13.5 12 21.9 31.3 39.6 53.7 50.5 2.6 1.4 5.4 2.3 8.3 2.7 3.9.2 7.6-1.2 11.2-2.8 24.9-11.3 44.8-32.2 56.7-56.7 4.2-8.7 7.4-17.7 9.7-27 .9-3.6 1.7-7.3 2.3-11h89.2c-5 3.2-9.7 6.9-14 11-4.1 4-7.8 8.2-11.1 12.9-21.5 29.4-19.1 70.2-4.3 99.3z" fill="url(#SVGID_00000129192459219665470580000014640322803786550913_)"/><circle class="st2" cx="431.8" cy="330.8" r="52.7"/><path d="M471.2 316.3c-.3-1.2-.8-2.7-1.4-4 1.7-1.4 1.2-4.8-1.6-4.8-3.4-.1-3.4 5.3-.1 5.3 1.8 5.2 2 10.8.5 16.1-.6-2.7-3.3-3.5-6.2-3.7-6.3-15.7-28.3-11.6-42-11.4-9.2-.6-16.6 4.2-19.5 11.4-3 .2-5.9 1-6.4 4-1.4-4.5-1.6-9.4-.3-14 .2-.8.5-1.6.7-2.4h.1c3.4.1 3.4-5.4 0-5.3-2.7-.1-3.3 3.3-1.7 4.6-.5 1.4-1.1 2.9-1.4 4.1-2.2 7.4-.1 15.6 3.1 22.3 1 2.3 3 3.5 6.6 3.5 8 17.8 43.3 14.5 56.8 5.4 1.4-1.6 2.5-3.4 3.2-5.4 3.5-.1 5.6-1.2 6.6-3.5 3.2-6.6 5.2-14.7 3-22.2zm-39.6 31.1c-11.5.4-26.8-.9-24.7-16.2-.5-13.1 15.7-11.5 24.7-12 9.1.5 25.4-1.1 24.8 12 1.9 15.4-13.3 16.6-24.8 16.2z" fill="#20295c"/><linearGradient id="SVGID_00000158721954249577434350000017834517759970105503_" gradientUnits="userSpaceOnUse" x1="391.139" y1="-662.123" x2="450.771" y2="-627.263" gradientTransform="matrix(1 0 0 -1 0 -314)"><stop offset="0" stop-color="#3865b0"/><stop offset=".2" stop-color="#376db5"/><stop offset=".52" stop-color="#3085c7"/><stop offset=".94" stop-color="#29afe5"/><stop offset=".99" stop-color="#2bb5e9"/></linearGradient><path d="M471.2 316.3c-.3-1.2-.8-2.7-1.4-4 1.7-1.4 1.2-4.8-1.6-4.8-3.4-.1-3.4 5.3-.1 5.3 1.8 5.2 2 10.8.5 16.1-.6-2.7-3.3-3.5-6.2-3.7-6.3-15.7-28.3-11.6-42-11.4-9.2-.6-16.6 4.2-19.5 11.4-3 .2-5.9 1-6.4 4-1.4-4.5-1.6-9.4-.3-14 .2-.8.5-1.6.7-2.4h.1c3.4.1 3.4-5.4 0-5.3-2.7-.1-3.3 3.3-1.7 4.6-.5 1.4-1.1 2.9-1.4 4.1-2.2 7.4-.1 15.6 3.1 22.3 1 2.3 3 3.5 6.6 3.5 8 17.8 43.3 14.5 56.8 5.4 1.4-1.6 2.5-3.4 3.2-5.4 3.5-.1 5.6-1.2 6.6-3.5 3.2-6.6 5.2-14.7 3-22.2zm-39.6 31.1c-11.5.4-26.8-.9-24.7-16.2-.5-13.1 15.7-11.5 24.7-12 9.1.5 25.4-1.1 24.8 12 1.9 15.4-13.3 16.6-24.8 16.2z" fill="url(#SVGID_00000158721954249577434350000017834517759970105503_)"/><linearGradient id="SVGID_00000156564859476280947840000010139590767356719264_" gradientUnits="userSpaceOnUse" x1="393.815" y1="-667.069" x2="453.573" y2="-632.136" gradientTransform="matrix(1 0 0 -1 0 -314)"><stop offset="0" stop-color="#3865b0"/><stop offset=".2" stop-color="#376db5"/><stop offset=".52" stop-color="#3085c7"/><stop offset=".94" stop-color="#29afe5"/><stop offset=".99" stop-color="#2bb5e9"/></linearGradient><linearGradient id="SVGID_00000167396318873441239020000008362003786812456607_" gradientUnits="userSpaceOnUse" x1="398.197" y1="-674.565" x2="457.955" y2="-639.631" gradientTransform="matrix(1 0 0 -1 0 -314)"><stop offset="0" stop-color="#3865b0"/><stop offset=".2" stop-color="#376db5"/><stop offset=".52" stop-color="#3085c7"/><stop offset=".94" stop-color="#29afe5"/><stop offset=".99" stop-color="#2bb5e9"/></linearGradient><linearGradient id="SVGID_00000002361715908438839260000016616448603232977296_" gradientUnits="userSpaceOnUse" x1="415.044" y1="177.63" x2="448.424" y2="177.63" gradientTransform="matrix(1 0 0 -1 0 514)"><stop offset="0" stop-color="#3865b0"/><stop offset=".2" stop-color="#376db5"/><stop offset=".52" stop-color="#3085c7"/><stop offset=".94" stop-color="#29afe5"/><stop offset=".99" stop-color="#2bb5e9"/></linearGradient><path d="M424.1 332.8c-.3 2.3-2-.1-4.6-.5s-4.8 1.4-4.5-1c1.1-5.4 9.8-4.1 9.1 1.5zm19.8-.5c-2.5.4-4.2 2.7-4.6.5-.8-5.5 8.2-6.9 9.1-1.4.3 2.3-2 .6-4.5.9zm-6.6 7.4c0 6.9-11.2 6.9-11.2 0 0-.5.5-1 1-1h9.3c.5 0 .9.5.9 1z" fill="url(#SVGID_00000002361715908438839260000016616448603232977296_)"/><linearGradient id="SVGID_00000034051337476011835360000004795456913828558216_" gradientUnits="userSpaceOnUse" x1="354.617" y1="-1262.477" x2="511.998" y2="-1262.477" gradientTransform="matrix(1 0 0 -1 0 -906)"><stop offset="0" stop-color="#335eac"/><stop offset="1" stop-color="#2bbaed"/></linearGradient><path d="M508.5 305.9c-2.2-7.8-5.8-15.1-10.4-21.7-1.2-1.7-2.5-3.3-3.7-4.9-24-28.4-63.1-28.4-63.1-28.4-25.1-.4-48.7 11.6-63.2 32.2-18.4 25.1-16.3 59.4-3.9 84 7.7 15 32.5 50.8 49.7 75.1l.3.3 4 5.5c3.2 4.5 6.1 8.4 8.2 11.5 2 2.8 5.9 3.5 8.7 1.5.5-.3.9-.9 1.4-1.2 12.8-16.1 45.4-58.1 57.6-75.7 4.4-6.5 8.1-13.4 11.1-20.6 7.7-18.3 8.9-38.6 3.3-57.6zM396 366.1c-1-1-1.8-1.9-2.7-2.9-.7-.8-1.4-1.6-2-2.5-16.8-22.3-12.2-54 10.2-70.7 22.3-16.8 54-12.2 70.7 10.2.7 1 1.5 2 2.2 3.1.5.9 1.1 1.7 1.6 2.7 13.5 24.5 4.6 55.2-19.8 68.7-19.8 10.6-44.3 7.2-60.2-8.6z" fill="url(#SVGID_00000034051337476011835360000004795456913828558216_)"/><g id="shield"><linearGradient id="SVGID_00000145020148830649791950000011951194143936541830_" gradientUnits="userSpaceOnUse" x1="537.39" y1="-1676.368" x2="537.39" y2="-1517.353" gradientTransform="matrix(1 0 0 -1 -323.15 -1345.8)"><stop offset="0" stop-color="#30b9ec"/><stop offset="1" stop-color="#345fab"/></linearGradient><path d="M280.3 229.4c0-3.5-.1-7-.4-10.5-.2-2.7-.4-5.4-1.5-7.8-1.9-4.2-7.2-6.1-10.9-8.4-5.4-3.2-10.8-6.3-16.2-9.6-10.8-6.3-21.6-12.8-32.4-19.1-1.4-.8-3.1-1.8-4.9-1.8-2-.1-3.6 1-5.3 1.9-4.4 3-9.3 5.7-13.8 8.4-4.7 2.7-9.5 5.7-14 8.4s-9 5.4-13.6 8.2c-3.6 2.2-7.1 4-10.7 6.1-2.9 1.8-5.5 3.3-7.1 6.5-.8 2.2-1.2 4.6-1.2 6.9-.1 9.7.4 19.4 1.6 29.1 1.4 9.9 3.6 19.8 7.4 29 1.6 3.7 3.3 7.5 5.1 11 9.8 17.8 25.6 32.4 43.9 41.2 2.1 1.1 4.4 1.9 6.7 2.2 3.1.1 6.1-1 9.1-2.3 20.4-9.3 36.6-26.4 46.3-46.5 8.2-16.4 11.8-34.7 11.9-52.9z" fill="url(#SVGID_00000145020148830649791950000011951194143936541830_)"/><linearGradient id="SVGID_00000130640288577531269700000011046988711132632714_" gradientUnits="userSpaceOnUse" x1="898.82" y1="-8167.221" x2="898.82" y2="-8035.232" gradientTransform="rotate(-8.1 59902.503 979.893)"><stop offset="0" stop-color="#30b9ec"/><stop offset="1" stop-color="#345fab"/></linearGradient><path d="M270.4 231c0 5.4-.4 10.9-1.2 16.3-1.2 10.6-4.2 20.8-8.9 30.4-8.2 16.9-21.8 31.2-38.8 39-2.4 1.2-5 2.1-7.6 1.8-2-.3-4-.9-5.7-1.8-11.2-5-21.1-13.2-28.9-22.6-5.4-6.7-9.3-14.2-12.4-22-1.1-3.1-2.1-6.1-2.9-9.3-.6-1.8-1-3.7-1.4-5.8-1.5-6.3-2.5-12.7-3.1-19.1-.6-7.3-2.4-16.3 3.2-22.3 3.5-3.7 9.2-5.8 13.6-8.4 5-2.8 10-5.7 14.9-8.8 6.2-4 12.7-7.8 19-11.6 1.1-.8 2.4-1.4 3.7-1.6 2-.3 4 .9 5.8 1.9 5.7 2.9 11 6.6 16.5 9.9 8.1 4.8 16.3 9.7 24.5 14.4 2.6 1.5 5.2 3.1 6.9 5.4 1.9 2.6 2.6 5.9 2.7 9.2.1 1.7.2 3.3.1 5z" fill="url(#SVGID_00000130640288577531269700000011046988711132632714_)"/><path class="st2" d="M168.8 233h8.2l7.2 24 7.2-24h8.2L189 265.7h-9.5L168.8 233zm57.5 11.2c0 6.2-5 11.2-11.3 11.2h-5.1v10.3h-7.5V233h12.4c6.2-.1 11.4 4.8 11.4 11 .1.1.1.1.1.2zm-7.5 0c.1-2.2-1.6-4.1-3.7-4.2H210v8.4h4.9c2.2 0 4-1.8 4-4-.1-.1-.1-.1-.1-.2zm36.9-11.2v32.7h-5.6L237.5 248v17.7H230V233h5.6l12.6 17.7V233h7.5z"/></g></g></svg>