<svg xmlns="http://www.w3.org/2000/svg" viewBox="0 0 512 512"><linearGradient id="a" gradientUnits="userSpaceOnUse" x1="466.734" y1="917.168" x2="-117.092" y2="917.168" gradientTransform="matrix(1 0 0 -1 0 1123.448)"><stop offset=".11" stop-color="#30b9ec"/><stop offset=".5" stop-color="#3093d1"/><stop offset=".99" stop-color="#345fab"/></linearGradient><path d="M422.8 186.7c-.7-7.6-1.8-15.1-3.4-22.6 0-.2-.1-.5-.1-.7-4.1-19.4-11-38.1-20.4-55.5l-.2-.4C364.8 45.4 301.3 4.9 230.7.4c-4.3-.3-8.8-.4-13.2-.4-5.6 0-11.2.2-16.7.7-18.3 1.4-36.2 5.4-53.4 11.6l-1.4.5-1.7.6c-.4.1-.8.3-1.2.5l-1.2.5c-6.1 2.4-12.1 5.1-17.9 8.1l-.1.1c-.5.3-1 .5-1.5.8-25.2 13-47.4 31.1-65.2 53.1l-.7.9c-9.2 11.5-17.1 23.9-23.7 37.1-.2.5-.5.9-.7 1.4l-.6 1.2c-11.3 23.4-18 48.8-19.8 74.7 0 .4-.1.9-.1 1.3-.2 3.4-.4 6.8-.4 10.2v3c-.1 39.4 11.2 77.9 32.4 111l.1.2c25.3 39.4 63.2 69.1 107.6 84.2l.4.1c13.5 4.5 27.4 7.7 41.5 9.3 8.1.9 16.1 1.4 24.3 1.4 6.5 0 12.9-.3 19.2-.9 7-.7 13.9-1.7 20.6-3-2.2-6.5-4-13.1-5.5-19.8-1.5-6-2.6-12-3.6-18.1-3.5 3.8-7.2 7.5-10.9 11.1-3.1 3-6.3 5.9-9.5 8.7V289c2.5-.6 8.9-.3 16.9.7.3-1.2.7-2.4 1.2-3.6.8-1.8 1.9-3.4 3.2-4.9 3.1-3.7 7.2-6.2 11.6-8.8.3-.2.5-.3.8-.4-7.9-1.3-15.9-2.3-24-2.8-3.2-.3-6.4-.4-9.5-.5v-52.1h83.8c-.2 4-.4 8-.8 11.9-.5 5.2-1.1 10.4-1.9 15.5.8-.5 1.7-1 2.5-1.5 3-1.8 6.1-3.7 9.2-5.5l9.9-6c.4-4.1.6-8.1.8-12.1.1-1.7.4-2.5 2.3-2.5h21.9c4.5-2.6 9-5.4 13.3-8.2.4-.3.8-.5 1.2-.8 3.5-2.1 7-4.1 11.1-4.1 3.8.1 7.2 2.2 10.3 3.9.5.3 1.1.6 1.6.9 8.6 5.1 20.3 12 29.8 17.6.6-6.4.9-12.9.9-19.5-.2-6.6-.5-13.1-1.1-19.5zM207.3 24v99.8c-9.3.8-34.5-3.1-51.8-7.3-5.4-1.3-10-2.7-13.2-4 14.9-34.4 36.4-63.7 65-88.5zm-30 .8c-5.9 6.2-11.5 12.5-16.8 19.2-15.1 18.9-27.5 39.8-36.9 62-11.1-4.4-21.8-9.7-32.2-15.7-4.3-2.5-8.6-5.1-12.7-7.9 16.4-23.4 71.8-55.9 98.6-57.6zM65.7 98.3c8.4 4.9 16.5 9.9 24.9 14.3 8.3 4.4 17 8.2 25.8 12.5-.7 2.2-1.4 4.3-2 6.5-6.3 21-10 42.7-10.9 64.6h-72c2.2-36.1 13.6-68.7 34.2-97.9zM31.5 216.5h71.7c.3 4.1.6 8 1 11.9l.3 3.3c1.5 18.1 5.1 36 10.6 53.4.8 2.3.3 3.2-1.9 4.1-15.6 6.5-30.6 14.4-44.8 23.7-.4.3-.8.5-1.2.8-.4.3-.8.5-1.3.8-20.8-29.3-32.2-61.9-34.4-98zm57.8 124.8c-3.7-3.5-7.3-7.2-10.9-11.1 13.9-9.3 28.8-17.1 44.4-23.4 1.9 4.5 3.9 9 6 13.4 10.1 21 22.8 40.5 37.8 58.2 2.5 2.9 5 5.9 7.6 8.7-.3-.1-.7-.1-1-.3-32.3-7.7-60.1-23-83.9-45.5zm34.1-124.7h84V268c-12.3 1.5-24.6 2.4-36.7 4.5-10.2 1.8-20.3 4.4-30.6 6.8l-5.5 1.3c-4.9-10.7-12-50.5-11.2-64zm84.2 84.4v87.7c0 .4-.1.8-.2 1.9-9.5-8.1-18.3-16.9-26.3-26.3-4.1-4.8-8.1-9.8-11.8-15a235.08 235.08 0 01-27.7-49.4c7.6-2 14.9-4.1 22.2-5.7 13.6-3 27.4-4.9 41.3-5.5 1.9-.1 2.6.3 2.6 2.3l-.1 10zm-2.5-104.6c-23.8-.1-47.6 0-71.4 0h-8.2c-.6 0-1.2-.1-2.2-.2 1-22 5.1-43.8 12-64.7 23.4 7.4 47.6 11.6 72.1 12.5.1 1 .1 1.9.1 2.7v46.9c.1 1.8 0 2.8-2.4 2.8zm22.7-172.3C241.2 35.7 253.4 48.7 264 63c11.5 15.4 21.1 32.1 28.6 49.7-18 5.6-36.6 9.2-55.3 10.7-3.2.3-6.3.5-9.5.6V24.1zm0 172.1V144c24.4-1 48.6-5.2 71.9-12.5 1.5 4.5 2.8 9.1 4.1 13.6 4.5 16.7 7 33.7 7.9 51.2l-83.9-.1zm83.7-90.2c-8.6-20.4-19.8-39.7-33.1-57.4-2.9-3.9-6-7.8-9.2-11.5-3.5-4.2-7.1-8.2-10.9-12.2 38.8 8.6 71.3 27.8 98.3 57.4-.5.3-.9.6-1.3.8-12.7 8.4-26.2 15.6-40.3 21.4-1.2.5-2.3 1-3.5 1.5zm20.1 90.2c-1.2-24.3-5.4-48.1-13-71.2 8.8-4.3 17.6-8.1 25.9-12.6 8.4-4.5 16.4-9.4 24.8-14.3 2.9 4.2 5.7 8.4 8.2 12.7 15.6 25.9 24.2 54.4 26.1 85.4h-72z" fill="url(#a)"/><linearGradient id="b" gradientUnits="userSpaceOnUse" x1="705.819" y1="-1102.701" x2="705.819" y2="-818.239" gradientTransform="matrix(1 0 0 -1 -323.15 -591.692)"><stop offset="0" stop-color="#30b9ec"/><stop offset="1" stop-color="#345fab"/></linearGradient><path d="M500.8 330c0-6.2-.1-12.6-.7-18.7-.4-4.8-.8-9.6-2.7-13.9-3.5-7.6-12.8-10.9-19.5-15.1-9.6-5.7-19.3-11.3-29-17.3-19.3-11.3-38.6-22.9-57.9-34.2-2.6-1.5-5.5-3.3-8.8-3.3-3.5-.1-6.5 1.7-9.5 3.5-7.9 5.4-16.6 10.1-24.8 15-8.4 4.9-16.9 10.1-25.1 15-8.2 4.9-16.1 9.7-24.3 14.6-6.5 3.8-12.7 7.1-19.2 11-5.2 3.1-9.9 5.9-12.7 11.7-1.6 4-2.1 8.1-2 12.4-.1 17.2.5 34.9 2.8 52 2.4 17.7 6.5 35.4 13.3 51.9 2.8 6.6 5.9 13.4 9.2 19.7 17.5 32 45.8 57.9 78.6 73.8 3.8 1.9 8 3.5 12.1 4 5.7.3 11-1.8 16.4-4.1 36.4-16.5 65.5-47.2 82.9-83.1 14.2-29.8 20.7-62.4 20.9-94.9z" fill="url(#b)"/><linearGradient id="c" gradientUnits="userSpaceOnUse" x1="597.013" y1="-857.63" x2="597.013" y2="-637.64" gradientTransform="rotate(-8.1 8413.522 1304.272)"><stop offset="0" stop-color="#30b9ec"/><stop offset="1" stop-color="#345fab"/></linearGradient><path d="M476.2 335.3c0 9.1-.6 18.2-1.9 27.1-2.2 17.5-7 34.8-14.8 50.6-13.6 28.2-36.4 52-64.7 65-4 1.9-8.4 3.6-12.7 3.1-3.3-.4-6.4-1.5-9.5-3-18.6-8.4-35.3-22-48.2-37.7-9.1-11.1-15.6-23.6-20.6-36.7-1.8-5.1-3.6-10.2-4.8-15.5-1-3.1-1.7-6.2-2.4-9.6-2.5-10.5-4.2-21.1-5.2-31.8-1-12.2-4-27.3 5.4-37.2 5.9-6.2 15.3-9.6 22.5-13.9 8.2-4.6 16.7-9.6 24.8-14.7 10.4-6.7 21.1-12.9 31.6-19.4 1.9-1.2 4-2.4 6.2-2.7 3.5-.4 6.7 1.4 9.7 3.2 9.5 4.7 18.4 11 27.5 16.5 13.5 8.1 27.2 16.1 40.8 24 4.3 2.5 8.7 5.1 11.6 9.1 3.2 4.3 4.3 9.9 4.5 15.3.1 2.9.2 5.6.2 8.3z" fill="url(#c)"/><path d="M306.8 338.7h13.6l12.1 40.1 12.1-40.1h13.6l-17.8 54.5h-15.9l-17.7-54.5zm95.8 18.7c0 10.4-8.3 18.7-19.1 18.7h-8.2v17.1h-12.5v-54.5h20.6c10.9 0 19.2 8.3 19.2 18.7zm-12.4 0c0-4-2.8-7-6.6-7h-8.2v14h8.2c3.8 0 6.6-3.1 6.6-7zm61.5-18.7v54.5h-9.3l-21-29.6v29.6h-12.5v-54.5h9.3l21 29.6v-29.6h12.5z" fill="#fff"/></svg>