<svg version="1.1" id="Layer_1" xmlns="http://www.w3.org/2000/svg" x="0" y="0" viewBox="0 0 512 512" xml:space="preserve"><style>.st2{fill:#1a9efe}</style><linearGradient id="SVGID_1_" gradientUnits="userSpaceOnUse" x1="218.628" y1="425.746" x2="218.628" y2="-106.831"><stop offset="0" stop-color="#2bbaed"/><stop offset=".317" stop-color="#2c8fce"/><stop offset=".79" stop-color="#336bb4"/><stop offset="1" stop-color="#335eac"/></linearGradient><path d="M437.3 232.3c0 6.7-.3 13.3-.9 19.8-4.3-2.6-8.5-5.1-12.8-7.6l-.4-.3c-2.5-1.4-6.3-3.7-11.4-4.3-.8-.1-1.6-.2-2.5-.2h-.4c-3.4 0-6.3.8-8.8 1.8.2-3.1.2-6.1.2-9.3 0-100.3-81.3-181.6-181.6-181.6S37.1 131.9 37.1 232.2s81.3 181.6 181.6 181.6c29.6 0 57.5-7.1 82.2-19.7.9 3.9 2 7.8 3.2 11.5 1.5 4.8 3.2 9.5 5 14 1.5 3.5 2.9 6.7 4.3 9.7-28.7 13.8-60.8 21.5-94.7 21.5C97.9 450.9 0 353.1 0 232.3 0 111.6 97.9 13.7 218.6 13.7s218.7 97.9 218.7 218.6z" fill="url(#SVGID_1_)"/><linearGradient id="SVGID_00000030479437265495233430000012237050234769286073_" gradientUnits="userSpaceOnUse" x1="218.628" y1="161.723" x2="218.628" y2="548.183"><stop offset="0" stop-color="#2dabea"/><stop offset=".705" stop-color="#2c8fce"/><stop offset=".855" stop-color="#336bb4"/><stop offset="1" stop-color="#335eac"/></linearGradient><path d="M411.9 232.3c0 2.6 0 5.1-.2 7.7-.8-.1-1.6-.2-2.5-.2h-.4c-3.4 0-6.3.8-8.8 1.8.2-3.1.2-6.1.2-9.3 0-100.3-81.3-181.6-181.6-181.6S37 132 37 232.3s81.3 181.6 181.6 181.6c29.6 0 57.5-7.1 82.2-19.7.9 3.9 2 7.8 3.2 11.5-25.8 12.7-54.7 19.9-85.4 19.9-106.7 0-193.2-86.5-193.2-193.2 0-106.7 86.5-193.2 193.2-193.2 106.7-.1 193.3 86.4 193.3 193.1z" fill="url(#SVGID_00000030479437265495233430000012237050234769286073_)"/><path class="st2" d="M220 210.7c-12-.7-22 8.2-22.7 20.2-.7 12 8.2 22 20.2 22.7 12 .7 122.9-14.1 122.9-14.1S231.7 211.4 220 210.7zm-1.4 33.3c-6.5 0-11.7-5.2-11.7-11.7 0-6.4 5.2-11.7 11.7-11.7 6.5 0 11.7 5.3 11.7 11.7 0 6.5-5.2 11.7-11.7 11.7z"/><path d="M374.4 230.9c0 9.1-.8 18.1-2.4 27-4.7 2.7-9.5 5.6-14.1 8.4-2.4 1.4-4.8 2.8-7.1 4.3-2.4 1.5-4.8 2.9-7.2 4.4 4.9-14 7.5-28.8 7.5-44 0-44.3-21.6-83.4-55.3-107.4-16.7-12-36-20.3-57.1-23.5-4.9-.8-9.9-1.2-15-1.4-1.7-.1-3.4-.1-5.1-.1-2.3 0-4.6.1-6.8.2s-4.4.2-6.5.5c-1.1.1-2.1.2-3.1.3-2.1.2-4.1.5-6.1.9C133.6 111 85.8 165.6 85.8 231.1c0 31.6 11.3 62.5 31.9 86.5l-17.3 14.9-.2.2c-24.4-28.1-37.8-64.2-37.8-101.6C62.4 153 120.4 88 195.5 77c1.2-.2 2.4-.3 3.6-.5 3.8-.5 7.6-.8 11.4-1 2.5-.1 5.1-.2 7.7-.2h1.7c1.2 0 2.4 0 3.6.1.5 0 .9 0 1.4.1 1.4.1 2.7.1 4.1.2 8.1.5 16.1 1.7 23.8 3.5 1.3.3 2.6.6 3.8.9 1.5.4 2.9.8 4.4 1.2 3.9 1.1 7.7 2.4 11.4 3.8 13.1 4.9 25.5 11.6 36.7 19.7.1.1.2.1.2.2 39.5 28.3 65.1 74.2 65.1 125.9z" fill="#87d7f6"/><path class="st2" d="M272.5 84.9c-3.7-1.4-7.6-2.6-11.4-3.8-1.4-.4-2.9-.8-4.4-1.2-1.3-.3-2.5-.6-3.8-.9-7.7-1.8-15.7-2.9-23.8-3.5-1.4-.1-2.7-.2-4.1-.2-.4 0-.9 0-1.4-.1-1.2-.1-2.4-.1-3.6-.1h-1.7c-2.6 0-5.1.1-7.7.2-3.8.2-7.7.5-11.4 1-1.2.1-2.4.3-3.6.5-75 11.3-132.8 76.2-132.8 154.1 0 37.3 13.3 73.3 37.6 101.4 0 .1.1.1.1.2l17.5-15.1c-20.6-24-31.9-54.9-31.9-86.5 0-65.4 47.6-119.8 109.9-130.6 2-.3 4-.7 6.1-.9 1-.1 2.1-.2 3.1-.3 2.2-.2 4.3-.4 6.5-.5 2.2-.1 4.5-.2 6.8-.2 1.7 0 3.4 0 5.1.1 5.1.2 10.1.7 15 1.4 21.3 3.2 40.7 11.5 57.5 23.5l13.3-18.7.1-.2c-11.3-8-23.7-14.7-37-19.6z"/><linearGradient id="SVGID_00000073003167518464712870000014682634997555630219_" gradientUnits="userSpaceOnUse" x1="732.574" y1="1601.046" x2="732.574" y2="1356.285" gradientTransform="translate(-323.15 -1103.691)"><stop offset="0" stop-color="#30b9ec"/><stop offset="1" stop-color="#345fab"/></linearGradient><path d="M511 341.7c0-5.3-.1-10.8-.6-16.1-.3-4.1-.7-8.3-2.3-12-3-6.5-11-9.4-16.8-13-8.3-4.9-16.6-9.7-24.9-14.9-16.6-9.7-33.2-19.7-49.8-29.4-2.2-1.3-4.7-2.8-7.6-2.8-3-.1-5.6 1.5-8.2 3-6.8 4.6-14.3 8.7-21.3 12.9-7.2 4.2-14.5 8.7-21.6 12.9-7.1 4.2-13.8 8.3-20.9 12.6-5.6 3.3-10.9 6.1-16.5 9.5-4.5 2.7-8.5 5.1-10.9 10.1-1.4 3.4-1.8 7-1.7 10.7-.1 14.8.4 30 2.4 44.7 2.1 15.2 5.6 30.4 11.4 44.6 2.4 5.7 5.1 11.5 7.9 16.9 15 27.5 39.4 49.8 67.6 63.5 3.3 1.6 6.9 3 10.4 3.4 4.9.3 9.5-1.5 14.1-3.5 31.3-14.2 56.3-40.6 71.3-71.5 12.2-25.6 17.8-53.7 18-81.6z" fill="url(#SVGID_00000073003167518464712870000014682634997555630219_)"/><linearGradient id="SVGID_00000171709832524930308610000011396600383706341509_" gradientUnits="userSpaceOnUse" x1="621.899" y1="1344.153" x2="621.899" y2="1154.98" gradientTransform="scale(1 -1) rotate(8 12054.127 -1039.399)"><stop offset="0" stop-color="#30b9ec"/><stop offset="1" stop-color="#345fab"/></linearGradient><path d="M489.8 346.3c0 7.8-.5 15.7-1.6 23.3-1.9 15-6 29.9-12.7 43.5-11.7 24.2-31.3 44.7-55.6 55.9-3.4 1.6-7.2 3.1-10.9 2.7-2.8-.3-5.5-1.3-8.2-2.6-16-7.2-30.4-18.9-41.4-32.4-7.8-9.5-13.4-20.3-17.7-31.6-1.5-4.4-3.1-8.8-4.1-13.3-.9-2.7-1.5-5.3-2.1-8.3-2.1-9-3.6-18.1-4.5-27.3-.9-10.5-3.4-23.5 4.6-32 5.1-5.3 13.2-8.3 19.3-12 7.1-4 14.4-8.3 21.3-12.6 8.9-5.8 18.1-11.1 27.2-16.7 1.6-1 3.4-2.1 5.3-2.3 3-.3 5.8 1.2 8.3 2.8 8.2 4 15.8 9.5 23.6 14.2 11.6 7 23.4 13.8 35.1 20.6 3.7 2.1 7.5 4.4 10 7.8 2.8 3.7 3.7 8.5 3.9 13.2.1 2.4.2 4.7.2 7.1z" fill="url(#SVGID_00000171709832524930308610000011396600383706341509_)"/><path d="M433.4 366.3h-.4v-16.5c0-10.9-8.1-20.2-19-21.4h-5.2c-1.2.4-2.4.4-3.6.8-9.3 2.8-15.7 11.3-15.7 20.9v16.1c-6 0-10.9 4.8-10.9 10.9v27.4c0 5.7 4.8 10.5 10.5 10.5H433c6 0 10.5-4.8 10.9-10.9v-27.4c0-5.6-4.4-10.4-10.5-10.4zm-18.9 25.8c-.4.4-.4.8-.4 1.2v8.1c0 1.6-1.2 2.8-2.4 2.8h-1.2c-1.2-.4-2-1.6-1.6-2.8v-8.1c0-.4-.4-.8-.8-1.2-2-1.2-2.4-3.6-2-5.7.8-2.8 4-4.5 6.9-3.2 1.6.4 2.8 1.6 3.2 3.2.7 2-.1 4.5-1.7 5.7zm7.6-25.8h-21.8v-16.9c0-6 4.8-10.9 10.5-10.9 6 0 10.9 4.8 10.9 10.5.4 5.6.4 11.2.4 17.3z" fill="#fff"/><path class="st2" d="M156.2 309.7h12.3l10.9 36.3 10.9-36.3h12.3L186.5 359h-14.4l-15.9-49.3zm86.6 16.9c0 9.4-7.5 16.9-17.3 16.9h-7.4V359h-11.3v-49.3h18.6c9.9 0 17.4 7.5 17.4 16.9zm-11.2 0c0-3.6-2.5-6.3-6-6.3h-7.4V333h7.4c3.4-.1 6-2.9 6-6.4zm55.6-16.9V359h-8.4l-19-26.8V359h-11.3v-49.3h8.4l19 26.8v-26.8h11.3z"/></svg>