<?xml version="1.0" encoding="utf-8"?>
<!-- Generator: Adobe Illustrator 26.0.1, SVG Export Plug-In . SVG Version: 6.00 Build 0)  -->
<svg version="1.1" id="Layer_2" xmlns="http://www.w3.org/2000/svg" xmlns:xlink="http://www.w3.org/1999/xlink" x="0px" y="0px"
	 viewBox="0 0 103.2 102.4" style="enable-background:new 0 0 103.2 102.4;" xml:space="preserve">
<style type="text/css">
	.st0{fill:url(#SVGID_1_);}
	.st1{fill:url(#SVGID_00000039819173610858781470000011455892870590634687_);}
	.st2{fill:url(#SVGID_00000005256782591411240740000007218633378741340599_);}
</style>
<g id="internet_key_00000085969734764055846280000001698581430088720257_">
	<g>
		
			<linearGradient id="SVGID_1_" gradientUnits="userSpaceOnUse" x1="52.0742" y1="906.4153" x2="52.0742" y2="975.4726" gradientTransform="matrix(1 0 0 1 0 -886)">
			<stop  offset="0" style="stop-color:#D9DADF"/>
			<stop  offset="0.2183" style="stop-color:#CFD0D5"/>
			<stop  offset="0.5943" style="stop-color:#B3B5BA"/>
			<stop  offset="1" style="stop-color:#8E9196"/>
		</linearGradient>
		<path class="st0" d="M47.9,57.6v12.7H44c-2.4,0-4.4,2-4.4,4.4s2,4.4,4.4,4.4h3.9v2.3c0,2.4,2,4.4,4.4,4.4c2.4,0,4.4-2,4.4-4.4
			V57.5c6.5-2,11.2-8,11.2-15.1c0-8.8-7.1-15.8-15.8-15.8c-8.7,0-15.8,7.1-15.8,15.8C36.3,49.7,41.2,55.8,47.9,57.6z M52,33.7
			c4.8,0,8.7,3.9,8.7,8.7s-3.9,8.7-8.7,8.7s-8.7-3.9-8.7-8.7S47.3,33.7,52,33.7z"/>
		
			<linearGradient id="SVGID_00000114774314839333975350000017947955574884972431_" gradientUnits="userSpaceOnUse" x1="52.1" y1="906.4153" x2="52.1" y2="975.4726" gradientTransform="matrix(1 0 0 1 0 -886)">
			<stop  offset="0" style="stop-color:#D9DADF"/>
			<stop  offset="0.2183" style="stop-color:#CFD0D5"/>
			<stop  offset="0.5943" style="stop-color:#B3B5BA"/>
			<stop  offset="1" style="stop-color:#8E9196"/>
		</linearGradient>
		<path style="fill:url(#SVGID_00000114774314839333975350000017947955574884972431_);" d="M25.4,42.3c0-4,1.1-7.7,3.1-10.8
			c1.2-1.9,0.7-4.5-1.3-5.7l0,0c-1.9-1.1-4.3-0.7-5.5,1.2c-2.8,4.4-4.5,9.6-4.5,15.3c0,6,1.9,11.5,5,16c1.2,1.8,3.6,2.2,5.4,1.1l0,0
			c2-1.2,2.5-3.9,1.2-5.8C26.7,50.3,25.4,46.4,25.4,42.3z M76.9,25.8L76.9,25.8c-2,1.2-2.5,3.8-1.3,5.7c2,3.1,3.1,6.8,3.1,10.8
			c0,4.2-1.3,8.1-3.5,11.3c-1.3,2-0.8,4.6,1.2,5.8l0,0c1.8,1.1,4.2,0.7,5.4-1.1c3.1-4.5,5-10.1,5-16.1c0-5.7-1.6-10.9-4.5-15.3
			C81.2,25.1,78.8,24.7,76.9,25.8z"/>
		
			<linearGradient id="SVGID_00000168806546997481617200000016001111831911134369_" gradientUnits="userSpaceOnUse" x1="52.1" y1="906.4153" x2="52.1" y2="975.4726" gradientTransform="matrix(1 0 0 1 0 -886)">
			<stop  offset="0" style="stop-color:#D9DADF"/>
			<stop  offset="0.2183" style="stop-color:#CFD0D5"/>
			<stop  offset="0.5943" style="stop-color:#B3B5BA"/>
			<stop  offset="1" style="stop-color:#8E9196"/>
		</linearGradient>
		<path style="fill:url(#SVGID_00000168806546997481617200000016001111831911134369_);" d="M8.9,42.3c0-7.2,2.1-13.9,5.6-19.5
			c1.2-1.9,0.7-4.4-1.2-5.6l0,0c-1.9-1.1-4.3-0.6-5.5,1.3C3.5,25.4,1,33.6,1,42.3c0,9,2.7,17.5,7.3,24.5c1.2,1.8,3.6,2.3,5.4,1.2
			l0,0c2-1.2,2.5-3.7,1.2-5.6C11.1,56.5,8.9,49.6,8.9,42.3z M90.9,17.2L90.9,17.2c-1.9,1.2-2.5,3.7-1.2,5.6
			c3.6,5.6,5.6,12.3,5.6,19.5c0,7.4-2.2,14.3-6,20c-1.2,1.9-0.7,4.4,1.2,5.6l0,0c1.8,1.1,4.2,0.6,5.4-1.2c4.6-7.1,7.4-15.5,7.4-24.5
			c0-8.7-2.5-16.8-6.9-23.7C95.3,16.7,92.8,16.1,90.9,17.2z"/>
	</g>
</g>
</svg>
