<?xml version="1.0" encoding="utf-8"?>
<!-- Generator: Adobe Illustrator 26.0.1, SVG Export Plug-In . SVG Version: 6.00 Build 0)  -->
<svg version="1.1" id="Layer_1" xmlns="http://www.w3.org/2000/svg" xmlns:xlink="http://www.w3.org/1999/xlink" x="0px" y="0px"
	 viewBox="0 0 103.2 102.4" style="enable-background:new 0 0 103.2 102.4;" xml:space="preserve">
<style type="text/css">
	.st0{fill:url(#SVGID_1_);}
	.st1{fill:url(#SVGID_00000003099038141951618440000000721096160796303752_);}
	.st2{fill:url(#SVGID_00000056401703337573530130000004550935396885213608_);}
	.st3{fill:url(#SVGID_00000151509933642881477680000009611205021879304895_);}
</style>
<g>
	<g>
		
			<linearGradient id="SVGID_1_" gradientUnits="userSpaceOnUse" x1="25.15" y1="97.5671" x2="25.15" y2="-2.9102" gradientTransform="matrix(1 0 0 -1 0 104)">
			<stop  offset="0" style="stop-color:#D9DADF"/>
			<stop  offset="0.2183" style="stop-color:#CFD0D5"/>
			<stop  offset="0.5943" style="stop-color:#B3B5BA"/>
			<stop  offset="1" style="stop-color:#8E9196"/>
		</linearGradient>
		<path class="st0" d="M48.8,66.3l-9.9,10L9.3,46.7C-1.1,36.3-1.1,19.4,9.3,8.9c5.2-5.2,12.1-7.8,18.9-7.8s13.7,2.6,18.9,7.8
			l1.6,1.6l-9.9,10l-1.6-1.6c-2.5-2.5-5.7-3.7-9-3.7s-6.5,1.3-9,3.7c-5,5-5,13,0,17.9L48.8,66.3z"/>
		
			<linearGradient id="SVGID_00000031194806001526634430000000001767975952391322_" gradientUnits="userSpaceOnUse" x1="78.05" y1="97.5671" x2="78.05" y2="-2.9102" gradientTransform="matrix(1 0 0 -1 0 104)">
			<stop  offset="0" style="stop-color:#D9DADF"/>
			<stop  offset="0.2183" style="stop-color:#CFD0D5"/>
			<stop  offset="0.5943" style="stop-color:#B3B5BA"/>
			<stop  offset="1" style="stop-color:#8E9196"/>
		</linearGradient>
		<path style="fill:url(#SVGID_00000031194806001526634430000000001767975952391322_);" d="M93.9,93.5c-5.2,5.2-12.1,7.8-18.9,7.8
			s-13.7-2.6-18.9-7.8l-1.6-1.6l9.9-10l0.6,0.6c2.5,2.5,5.7,3.7,9,3.7s6.5-1.3,9-3.7c5-5,5-13,0-17.9L54.4,36.1l9.9-10l29.6,29.6
			C104.3,66.1,104.3,83,93.9,93.5z"/>
		
			<linearGradient id="SVGID_00000121982142295912551250000017068133435466468482_" gradientUnits="userSpaceOnUse" x1="39.1185" y1="97.5671" x2="39.1185" y2="-2.9102" gradientTransform="matrix(1 0 0 -1 0 104)">
			<stop  offset="0" style="stop-color:#D9DADF"/>
			<stop  offset="0.2183" style="stop-color:#CFD0D5"/>
			<stop  offset="0.5943" style="stop-color:#B3B5BA"/>
			<stop  offset="1" style="stop-color:#8E9196"/>
		</linearGradient>
		<path style="fill:url(#SVGID_00000121982142295912551250000017068133435466468482_);" d="M76.6,63.9L64.4,76.3L63,77.7l-1.4,1.4
			l-9.9,10l-1.4,1.4l-1.4,1.4l-1.6,1.6c-5.2,5.3-12.1,7.9-19,7.9c-6.8,0-13.6-2.6-18.8-7.7C-0.9,83.3-1,66.4,9.3,55.9l1.8-1.8L21,64
			l-0.7,0.7c-4.9,5-4.9,13,0.1,17.9c2.5,2.4,5.7,3.7,8.9,3.7c3.3,0,6.5-1.3,9-3.8L39,82l2.8-2.8l9.9-10l1.4-1.4l1.4-1.4L66.7,54
			L76.6,63.9z"/>
		
			<linearGradient id="SVGID_00000142860605115871767060000012792129239517376437_" gradientUnits="userSpaceOnUse" x1="64.1" y1="97.5671" x2="64.1" y2="-2.9102" gradientTransform="matrix(1 0 0 -1 0 104)">
			<stop  offset="0" style="stop-color:#D9DADF"/>
			<stop  offset="0.2183" style="stop-color:#CFD0D5"/>
			<stop  offset="0.5943" style="stop-color:#B3B5BA"/>
			<stop  offset="1" style="stop-color:#8E9196"/>
		</linearGradient>
		<path style="fill:url(#SVGID_00000142860605115871767060000012792129239517376437_);" d="M101.6,27.5c0,6.8-2.5,13.7-7.7,18.9
			l-1.8,1.8l-9.9-9.9l1.7-1.7c2.4-2.5,3.7-5.7,3.7-9c0-3.2-1.3-6.5-3.8-8.9S78.1,15,74.9,15c-3.3,0-6.5,1.3-9,3.8l-1.6,1.6l-1.4,1.4
			l-1.4,1.4l-9.9,10l-1.4,1.4L48.8,36L36.5,48.4l-9.9-9.9l12.2-12.4l1.4-1.4l1.4-1.4l9.9-10l1.4-1.4l1.4-1.4l1.6-1.6
			C61.1,3.6,68,1,74.8,1s13.6,2.6,18.8,7.7C98.9,13.9,101.5,20.7,101.6,27.5z"/>
	</g>
</g>
</svg>
