<!-- Generated by IcoMoon.io -->
<svg version="1.1" xmlns="http://www.w3.org/2000/svg" width="31" height="32" viewBox="0 0 31 32">
<title>amazon-icon</title>
<path d="M27.098 26.417c-13.209 6.264-21.379 1.089-26.553-2.179-0.272-0.136-0.817 0-0.408 0.545 1.77 2.179 7.489 7.217 14.979 7.217s11.847-4.085 12.528-4.766c0.409-0.681 0.136-1.089-0.545-0.817z"></path>
<path d="M30.911 24.374c-0.409-0.409-2.179-0.545-3.268-0.409s-2.86 0.817-2.723 1.226c0.136 0.136 0.272 0.136 0.953 0 0.817-0.136 2.996-0.409 3.404 0.272 0.409 0.545-0.681 3.404-0.953 3.949-0.136 0.409 0.136 0.545 0.409 0.272 0.409-0.272 1.089-1.089 1.498-2.179 0.681-1.226 0.953-2.86 0.681-3.132z"></path>
<path d="M23.83 16.34v-10.485c0-1.77-1.77-5.855-8.034-5.855s-9.668 3.949-9.668 7.489l5.311 0.409c0 0 1.226-3.54 3.813-3.54 2.723 0 2.587 2.179 2.587 2.723v2.315c-3.54 0.136-12.119 1.089-12.119 8.443 0 7.762 9.804 8.17 13.072 3.132 0.136 0.272 0.272 0.409 0.409 0.545 1.226 1.226 2.723 2.723 2.723 2.723l4.085-3.949c0.136-0.136-2.179-1.906-2.179-3.949zM17.838 15.523c0 5.719-5.992 4.902-5.992 1.226 0-3.404 3.54-4.085 5.992-4.085v2.86z"></path>
</svg>
