<!-- Generated by IcoMoon.io -->
<svg version="1.1" xmlns="http://www.w3.org/2000/svg" width="32" height="32" viewBox="0 0 32 32">
<title>android-tv</title>
<path d="M29.333 26.667h-26.667c-1.467 0-2.667-1.2-2.667-2.667v-20c0-1.467 1.2-2.667 2.667-2.667h26.667c1.467 0 2.667 1.2 2.667 2.667v20c0 1.467-1.2 2.667-2.667 2.667zM4 24h2.667v-6.667c0-0.8-0.533-1.333-1.333-1.333s-1.333 0.533-1.333 1.333v6.667zM8 24h16v-8h-16v8zM25.333 24h2.667v-6.667c0-0.8-0.533-1.333-1.333-1.333s-1.333 0.533-1.333 1.333v6.667zM20.4 8l1.467-2.267c0.267-0.267 0.133-0.667-0.133-0.933s-0.667-0.133-0.933 0.133c0 0 0 0 0 0l-1.6 2.4c-2-0.933-4.4-0.933-6.4 0l-1.6-2.4c-0.133-0.267-0.667-0.4-0.933-0.267s-0.4 0.667-0.267 0.933c0 0 0 0 0 0l1.467 2.267c-2.267 1.467-3.6 4-3.6 6.667h16c0.133-2.533-1.2-5.067-3.467-6.533zM13.333 12c-0.8 0-1.333-0.533-1.333-1.333s0.533-1.333 1.333-1.333 1.333 0.533 1.333 1.333-0.533 1.333-1.333 1.333zM18.667 12c-0.8 0-1.333-0.533-1.333-1.333s0.533-1.333 1.333-1.333 1.333 0.533 1.333 1.333-0.533 1.333-1.333 1.333z"></path>
</svg>
