<?xml version="1.0" encoding="utf-8"?>
<!-- Generator: Adobe Illustrator 26.0.1, SVG Export Plug-In . SVG Version: 6.00 Build 0)  -->
<svg version="1.1" id="Layer_1" xmlns="http://www.w3.org/2000/svg" xmlns:xlink="http://www.w3.org/1999/xlink" x="0px" y="0px"
	 viewBox="0 0 300 231.5" style="enable-background:new 0 0 300 231.5;" xml:space="preserve">
<path id="XMLID_34_" d="M61.6,73.3c-3.3,3.9-8.5,6.9-13.7,6.5c-0.7-5.2,1.9-10.8,4.9-14.2c3.3-4,9-6.8,13.6-7
	C66.9,64,64.8,69.3,61.6,73.3 M66.3,80.8c-7.6-0.4-14,4.3-17.6,4.3c-3.6,0-9.1-4.1-15.1-4c-7.8,0.1-15,4.5-19,11.5
	c-8.2,14-2.1,34.8,5.8,46.3c3.9,5.7,8.5,11.9,14.6,11.6c5.8-0.2,8.1-3.8,15-3.8c7,0,9,3.8,15.1,3.6c6.3-0.1,10.3-5.7,14.1-11.3
	c4.4-6.4,6.2-12.7,6.3-13c-0.1-0.1-12.2-4.7-12.3-18.7c-0.1-11.6,9.5-17.2,10-17.5C77.8,81.9,69.3,81,66.3,80.8 M110,65v84.8h13.2
	v-29h18.2c16.7,0,28.3-11.4,28.3-28S158.3,65,141.9,65L110,65L110,65z M123.2,76.1h15.2c11.4,0,18,6.1,18,16.8s-6.5,16.9-18,16.9
	h-15.1V76.1z M193.8,150.5c8.3,0,15.9-4.2,19.4-10.8h0.3v10.2h12.2v-42.2c0-12.2-9.8-20.1-24.9-20.1c-14,0-24.3,8-24.7,19H188
	c1-5.2,5.8-8.7,12.5-8.7c8.1,0,12.6,3.8,12.6,10.7v4.7l-16.4,1c-15.3,0.9-23.6,7.2-23.6,18.1C173.1,143.2,181.6,150.5,193.8,150.5z
	 M197.4,140.5c-7,0-11.5-3.4-11.5-8.5c0-5.3,4.3-8.4,12.5-8.9l14.6-0.9v4.8C213.1,134.8,206.3,140.5,197.4,140.5z M242,172.9
	c12.8,0,18.9-4.9,24.2-19.8l23.1-64.9h-13.4l-15.5,50.1h-0.3l-15.5-50.1h-13.8l22.3,61.8l-1.2,3.8c-2,6.4-5.3,8.8-11.1,8.8
	c-1,0-3-0.1-3.9-0.2v10.2C237.8,172.8,241,172.9,242,172.9z"/>
</svg>
