<!-- Generated by IcoMoon.io -->
<svg version="1.1" xmlns="http://www.w3.org/2000/svg" width="32" height="32" viewBox="0 0 32 32">
<title>business-and-employees-working-remotel</title>
<path fill="#1a9ffe" d="M31.985 15.992c0 8.832-7.16 15.992-15.992 15.992s-15.992-7.16-15.992-15.992c0-8.832 7.16-15.992 15.992-15.992s15.992 7.16 15.992 15.992z"></path>
<path fill="#fff" d="M23.529 9.345h-2.849c-0.347-1.537-1.733-2.653-3.316-2.653-0.015 0-0.030 0-0.030 0h-2.668c-1.583 0-2.969 1.13-3.301 2.653h-2.909c-0.904 0-1.628 0.739-1.628 1.628v7.974c0 0.407 0.332 0.739 0.739 0.739h0.136v3.693c0 0.904 0.739 1.628 1.628 1.628h13.294c0.904 0 1.628-0.739 1.628-1.628v-3.693h0.136c0.407 0 0.739-0.332 0.739-0.739v-7.974c0.045-0.904-0.693-1.628-1.598-1.628zM12.902 9.496c0.301-0.693 0.98-1.176 1.764-1.176 0 0 0 0 0 0h2.668c0.784-0.015 1.507 0.452 1.809 1.176h-6.24zM17.334 16.58h-2.668c-0.407 0-0.739 0.332-0.739 0.739v1.025h-5.607v-7.235c0-0.075 0.060-0.136 0.136-0.136h15.073c0.075 0 0.136 0.060 0.136 0.136v7.235h-5.607v-1.010c0.015-0.422-0.317-0.754-0.724-0.754zM15.42 20.122v-2.050h1.176v2.050h-1.176zM9.21 19.851h4.718v1.025c0 0.407 0.332 0.739 0.739 0.739h2.668c0.407 0 0.739-0.332 0.739-0.739v-1.025h4.718v3.693c0 0.075-0.060 0.136-0.136 0.136h-13.309c-0.075 0-0.136-0.060-0.136-0.136v-3.693z"></path>
</svg>
