<!-- Generated by IcoMoon.io -->
<svg version="1.1" xmlns="http://www.w3.org/2000/svg" width="32" height="32" viewBox="0 0 32 32">
<title>firefox</title>
<path d="M16.123 31.019c-3.369 0-6.373-0.896-9.009-2.687-2.637-1.792-4.599-4.164-5.884-7.117-0.691-1.56-1.089-3.351-1.196-5.375s0.047-4.003 0.464-5.937c0.461-2.107 1.144-3.969 2.043-5.7l-0.060 0.127c0.904-1.777 1.969-3.223 3.196-4.329l-0.196 5.019c0.131-0.167 0.535-0.26 1.213-0.277 0.68-0.017 1.096 0.075 1.251 0.277 0.5-0.965 1.455-1.787 2.867-2.465 1.411-0.679 2.807-1.029 4.187-1.053-0.643 0.536-1.353 1.42-2.133 2.652s-1.128 2.205-1.045 2.92c0.299 0.095 0.671 0.175 1.116 0.24 0.447 0.067 0.821 0.111 1.125 0.135s0.708 0.048 1.213 0.072c0.507 0.023 0.808 0.040 0.903 0.053 0.179 0.059 0.236 0.331 0.171 0.813-0.067 0.48-0.248 0.931-0.545 1.347-0.093 0.122-0.19 0.23-0.294 0.33l-0.001 0.001c-0.137 0.137-0.473 0.348-1.009 0.635-0.521 0.279-1.127 0.49-1.766 0.601l-0.036 0.005 0.267 3.375-2.481-1.196c-0.213 0.512-0.259 0.997-0.133 1.456 0.124 0.457 0.339 0.853 0.641 1.187 0.304 0.333 0.693 0.581 1.171 0.741 0.476 0.16 0.959 0.2 1.447 0.116 0.607-0.107 1.191-0.312 1.749-0.616 0.56-0.304 1.057-0.572 1.492-0.804 0.433-0.232 0.872-0.336 1.312-0.312 0.727 0.048 1.259 0.244 1.599 0.589 0.339 0.345 0.455 0.733 0.347 1.16l-0.044 0.099c-0.113 0.208-0.274 0.377-0.468 0.497l-0.006 0.003c-0.162 0.087-0.351 0.153-0.551 0.185l-0.011 0.001c-0.143 0.027-0.308 0.042-0.476 0.042-0.125 0-0.248-0.008-0.369-0.025l0.014 0.002c-0.715 1.131-1.575 1.937-2.581 2.42-1.005 0.483-2.253 0.657-3.741 0.527 0.808 0.681 1.783 1.192 2.853 1.463l0.050 0.011c1.053 0.256 2.056 0.292 3.009 0.107 1.040-0.205 1.963-0.527 2.822-0.957l-0.064 0.029c0.877-0.425 1.63-0.947 2.29-1.567l-0.005 0.004c0.637-0.607 1.116-1.227 1.437-1.857 0.444-0.913 0.704-1.986 0.704-3.12 0-0.112-0.003-0.223-0.008-0.333l0.001 0.016c-0.039-1.22-0.281-2.371-0.694-3.438l0.024 0.071c-0.4-1.036-0.867-1.78-1.403-2.232 1.036 0.453 1.852 0.925 2.447 1.42 0.596 0.493 1.053 1.164 1.375 2.009 0.179-2.024-0.163-4.067-1.027-6.125-0.863-2.060-2.109-3.751-3.741-5.072 3.155 0.916 5.608 2.58 7.357 4.991 1.752 2.412 2.649 5.492 2.699 9.241 0.001 0.047 0.001 0.103 0.001 0.159 0 1.573-0.265 3.084-0.754 4.491l0.029-0.096c-0.547 1.623-1.296 3.031-2.234 4.29l0.029-0.040c-0.984 1.328-2.095 2.479-3.338 3.473l-0.037 0.028c-1.262 1.002-2.727 1.822-4.314 2.386l-0.106 0.033c-1.526 0.56-3.287 0.884-5.124 0.884-0.010 0-0.020 0-0.029-0h0.002z"></path>
</svg>
