<!-- Generated by IcoMoon.io -->
<svg version="1.1" xmlns="http://www.w3.org/2000/svg" width="32" height="32" viewBox="0 0 32 32">
<title>internet-using-humans</title>
<path fill="#1a9ffe" d="M31.985 15.992c0 8.832-7.16 15.992-15.992 15.992s-15.992-7.16-15.992-15.992c0-8.832 7.16-15.992 15.992-15.992s15.992 7.16 15.992 15.992z"></path>
<path fill="#fff" d="M24.494 20.168c0-0.030-0.015-0.075-0.030-0.105 0-0.030-0.015-0.045-0.015-0.075 0 0 0 0 0-0.015 0 0 0 0 0-0.015 0-0.030-0.015-0.060-0.030-0.090 0-0.015 0-0.030-0.015-0.045 0-0.015-0.015-0.045-0.015-0.060-0.015-0.030-0.015-0.060-0.030-0.090 0-0.015-0.015-0.030-0.015-0.045s0-0.030-0.015-0.045c0-0.015 0-0.030-0.015-0.045 0 0 0 0 0 0-0.015-0.030-0.030-0.075-0.030-0.105 0-0.015-0.015-0.030-0.015-0.045s-0.015-0.045-0.030-0.060c0 0 0 0 0-0.015-0.015-0.045-0.030-0.075-0.045-0.121-0.015-0.030-0.030-0.075-0.045-0.105 0 0 0 0 0-0.015 0 0 0 0 0-0.015-0.015-0.030-0.030-0.060-0.045-0.090s-0.030-0.075-0.045-0.105c0 0 0-0.015-0.015-0.015 0-0.015 0-0.015-0.015-0.030-0.015-0.030-0.030-0.045-0.045-0.075 0 0 0 0 0 0-0.015-0.030-0.030-0.060-0.045-0.075 0-0.015-0.015-0.030-0.030-0.045 0 0 0-0.015-0.015-0.015 0 0 0 0 0-0.015 0 0 0-0.015-0.015-0.015-0.015-0.015-0.030-0.045-0.030-0.060-0.015-0.030-0.045-0.075-0.060-0.105-0.015-0.015-0.015-0.030-0.030-0.045s-0.030-0.045-0.030-0.060c-0.030-0.060-0.075-0.105-0.105-0.166-0.030-0.045-0.075-0.105-0.105-0.151-0.060-0.090-0.136-0.166-0.211-0.256-0.090-0.105-0.181-0.196-0.271-0.286-0.211-0.196-0.452-0.377-0.693-0.512-0.060-0.030-0.105-0.060-0.166-0.090 0 0 0 0 0 0-0.060-0.030-0.105-0.060-0.166-0.075-0.060-0.030-0.105-0.045-0.166-0.075 0 0 0 0 0 0-0.015 0-0.030-0.015-0.045-0.015l-0.121-0.060h-0.015l-0.663-0.301-0.422-0.196c0.799-0.799 1.357-1.824 1.598-2.954 0.015-0.075 0.030-0.151 0.045-0.226 0-0.015 0-0.030 0-0.045 0.015-0.075 0.015-0.136 0.030-0.211 0-0.075 0.015-0.136 0.015-0.211 0-0.015 0-0.030 0-0.045 0-0.075 0.015-0.136 0.015-0.211 0-0.045 0-0.075 0-0.121v-0.060c0-0.030 0-0.060 0-0.090v-0.030c0-0.015 0-0.030 0-0.045 0-0.045 0-0.075 0-0.105s0-0.045 0-0.075v-0.105c0 0 0 0 0 0 0-0.045 0-0.090 0-0.136 0 0 0-0.015 0-0.015s0-0.015 0-0.030c0-0.015 0-0.015 0-0.030s0-0.030 0-0.045c0-0.045-0.015-0.090-0.015-0.136s-0.015-0.090-0.015-0.136c0 0 0-0.015 0-0.015-0.015-0.090-0.030-0.181-0.045-0.271-0.015-0.060-0.030-0.121-0.045-0.166 0-0.015 0-0.030-0.015-0.045-0.015-0.060-0.030-0.121-0.045-0.181 0-0.015 0-0.030-0.015-0.030-0.030-0.121-0.075-0.241-0.121-0.377-0.075-0.226-0.181-0.452-0.286-0.678-0.090-0.196-0.196-0.377-0.317-0.558 0 0-0.015-0.015-0.015-0.015-0.136-0.196-0.271-0.392-0.422-0.588-0.015-0.030-0.045-0.045-0.075-0.075-0.060-0.075-0.136-0.151-0.211-0.226 0 0 0 0 0 0-0.060-0.060-0.136-0.136-0.196-0.196-0.105-0.090-0.196-0.196-0.317-0.286-0.075-0.060-0.151-0.121-0.226-0.166s-0.136-0.106-0.211-0.151c-0.95-0.648-2.11-1.040-3.346-1.040-3.271 0-5.939 2.668-5.939 5.939 0 1.643 0.663 3.135 1.748 4.205l-0.467 0.226-0.151 0.075h-0.015l-0.497 0.226h-0.015l-0.030 0.015c-0.045 0.015-0.090 0.045-0.136 0.060 0 0 0 0 0 0-0.060 0.015-0.105 0.045-0.166 0.075s-0.105 0.060-0.166 0.090c0 0 0 0 0 0-0.060 0.030-0.105 0.060-0.166 0.105-0.512 0.317-0.935 0.739-1.281 1.251-0.060 0.090-0.121 0.196-0.181 0.286 0 0 0 0.015 0 0.015-0.045 0.075-0.090 0.166-0.136 0.256v0c-0.045 0.075-0.075 0.151-0.105 0.241 0 0 0 0 0 0-0.030 0.075-0.060 0.151-0.090 0.226 0 0 0 0.015 0 0.015-0.030 0.075-0.060 0.136-0.075 0.211 0 0 0 0 0 0.015-0.030 0.060-0.045 0.136-0.060 0.211-0.015 0.060-0.045 0.136-0.060 0.196 0 0 0 0 0 0.015s0 0.030-0.015 0.030c-0.015 0.060-0.030 0.105-0.045 0.151-0.241 1.085-0.181 1.99-0.181 2.035l0.030 0.286 0.196 0.211c1.899 2.050 3.994 2.909 5.426 3.286 1.1 0.286 1.975 0.332 2.412 0.332 0.090 0 0.151 0 0.211 0h0.015c0.045 0 0.105 0 0.181 0 0.422 0 1.311-0.045 2.412-0.332 1.432-0.377 3.527-1.236 5.426-3.286l0.196-0.211 0.030-0.286c0.030-0.030 0.090-0.935-0.151-1.99zM16.701 24.614v-0.030l-0.271 0.015h-0.015l-0.271-0.015v0.015c-0.95-0.015-3.798-0.286-6.331-2.864 0-0.603 0.105-1.975 0.919-2.879 0.151-0.166 0.317-0.317 0.512-0.437 0 0 0 0 0 0 0.136-0.090 0.271-0.166 0.437-0.226l2.050-0.98c0.799 0.407 1.703 0.633 2.668 0.633 0.889 0 1.718-0.196 2.472-0.543 0.060-0.030 0.121-0.045 0.181-0.075 0.015 0 0.015-0.015 0.030-0.015 0 0 0 0 0.015 0 0.045-0.015 0.090-0.045 0.136-0.075 0 0 0.015-0.015 0.030-0.015 0.030 0.015 0.060 0.045 0.090 0.060 0 0 0 0 0 0 0.090 0.075 0.181 0.136 0.271 0.196 0 0 0 0 0 0 0.121 0.090 0.241 0.166 0.362 0.241l0.347 0.166 0.196 0.090 0.603 0.286 0.045 0.015c0.075 0.030 0.136 0.060 0.211 0.090 0.090 0.045 0.181 0.105 0.256 0.151 0 0 0 0 0 0 0.121 0.075 0.226 0.166 0.317 0.256 0.030 0.030 0.045 0.045 0.075 0.075 0.075 0.075 0.136 0.151 0.196 0.226 0 0 0 0 0 0 0.015 0.015 0.030 0.045 0.045 0.060s0.030 0.045 0.045 0.060c0.045 0.060 0.090 0.121 0.121 0.196 0.015 0.015 0.015 0.030 0.030 0.060 0.045 0.075 0.075 0.151 0.121 0.226 0.362 0.784 0.422 1.658 0.437 2.11-1.236 1.266-2.713 2.14-4.371 2.578-0.874 0.301-1.583 0.347-1.959 0.347zM16.399 7.657c2.050 0 3.753 1.432 4.175 3.361 0.015 0.075 0.030 0.151 0.045 0.226s0.030 0.151 0.030 0.226 0.030 0.317 0.030 0.482v0.030c0 0.075 0 0.166-0.015 0.241 0 0.090-0.015 0.166-0.030 0.256-0.136 1.070-0.663 2.005-1.432 2.683-0.075 0.060-0.151 0.121-0.226 0.181-0.060 0.045-0.136 0.090-0.196 0.136h-0.045l-0.015 0.030c-0.136 0.090-0.256 0.166-0.407 0.241-0.060 0.030-0.136 0.075-0.211 0.105s-0.136 0.060-0.211 0.090c-0.482 0.181-0.995 0.286-1.537 0.286-0.844 0-1.643-0.241-2.306-0.678l-0.015-0.075-0.060 0.015c-1.1-0.769-1.854-2.080-1.854-3.557 0-2.366 1.914-4.281 4.281-4.281z"></path>
</svg>
