<!-- Generated by IcoMoon.io -->
<svg version="1.1" xmlns="http://www.w3.org/2000/svg" width="32" height="32" viewBox="0 0 32 32">
<title>linux</title>
<path d="M27.908 25.424c-0.286-0.177-0.535-0.366-0.764-0.577l0.004 0.003c-0.12-0.12 0-0.667 0-0.96 0.139-0.533 0.041-1.101-0.267-1.56-0.063-0.059-0.133-0.112-0.208-0.157l-0.006-0.003v-0.853c-0.055-3.427-1.416-6.526-3.605-8.83l0.005 0.006c-0.867-0.824-1.483-1.906-1.724-3.123l-0.006-0.037v-0.307c0-1.84 0-5.68-2-7.692-0.819-0.825-1.954-1.335-3.207-1.335-0.044 0-0.088 0.001-0.133 0.002l0.006-0c-2.799 0-4.665 1.333-4.665 8-0.13 1.832-0.703 3.507-1.613 4.949l0.026-0.044c-0.36 0.693-0.72 1.413-1.040 2.173-0.823 1.819-1.526 3.954-2.002 6.172l-0.038 0.213c-0.568 0.336-0.962 0.915-1.038 1.59l-0.001 0.010-0.107 0.44c-0.206 0.079-0.448 0.144-0.699 0.184l-0.021 0.003c-0.8 0.16-2.133 0.427-2.133 1.64 0.004 0.327 0.040 0.653 0.107 0.973 0.061 0.27 0.095 0.581 0.095 0.899 0 0.464-0.074 0.911-0.211 1.33l0.009-0.030c-0.004 0.026-0.006 0.056-0.006 0.087s0.002 0.061 0.006 0.090l-0-0.003c0 1.587 2.493 1.8 4 1.987h0.587c0.364 0.108 0.716 0.251 1.053 0.427 0.875 0.483 1.904 0.807 2.997 0.905l0.030 0.002c0.455-0.005 0.863-0.204 1.145-0.519l0.001-0.001h0.067c1.007-0.507 2.194-0.806 3.45-0.813h4.082c0.068 0.271 0.2 0.523 0.387 0.733 0.399 0.413 0.959 0.632 1.533 0.6 1.369-0.040 2.571-0.719 3.324-1.748l0.008-0.012 0.427-0.44c0.473-0.36 1.013-0.627 1.587-0.787 0.96-0.347 1.947-0.707 1.947-1.68s-0.76-1.48-1.387-1.907zM17.337 4.001c0.773 0 1.333 0.827 1.333 1.973s-0.44 1.787-1.080 1.933c0.239-0.202 0.389-0.501 0.389-0.836 0-0.025-0.001-0.049-0.002-0.074l0 0.003c0-0.547-0.293-1-0.64-1s-0.64 0.44-0.64 1c-0.001 0.021-0.002 0.046-0.002 0.070 0 0.335 0.15 0.634 0.387 0.835l0.002 0.001c-0.64-0.16-1.080-0.933-1.080-1.933s0.56-1.973 1.333-1.973zM17.924 9.175c-0.91 0.716-2.006 1.237-3.203 1.483l-0.050 0.009c-0.792-0.289-1.463-0.746-1.997-1.329l-0.003-0.004c0.671-0.741 1.603-1.234 2.65-1.332l0.016-0.001c0.998 0.155 1.879 0.572 2.594 1.18l-0.007-0.006zM13.337 4c0.773 0 1.333 0.827 1.333 1.973s-0.44 1.773-1.080 1.933c0.239-0.202 0.389-0.501 0.389-0.836 0-0.025-0.001-0.049-0.002-0.074l0 0.003c0-0.547-0.293-1-0.64-1s-0.64 0.44-0.64 1c-0.001 0.021-0.002 0.046-0.002 0.070 0 0.335 0.15 0.634 0.387 0.835l0.002 0.001c-0.64-0.16-1.080-0.92-1.080-1.933s0.56-1.973 1.333-1.973zM11.697 30.276c-0.080 0.253-0.2 0.387-0.36 0.387-0.93-0.113-1.773-0.396-2.528-0.818l0.035 0.018c-0.383-0.215-0.826-0.397-1.292-0.524l-0.042-0.010h-0.747c-1.985-0.16-2.599-0.4-2.732-0.587 0.126-0.44 0.199-0.945 0.199-1.467 0-0.425-0.048-0.839-0.139-1.237l0.007 0.037c-0.049-0.219-0.082-0.476-0.093-0.738l-0-0.009c0.32-0.178 0.695-0.301 1.093-0.345l0.014-0.001c0.507-0.052 0.963-0.24 1.34-0.525l-0.007 0.005c0.253-0.299 0.428-0.672 0.492-1.081l0.002-0.012c0.173-0.707 0.24-0.707 0.333-0.707 0.4 0.467 0.717 1 0.933 1.573 0.45 1.186 1.152 2.188 2.046 2.98l0.008 0.007c0.889 0.538 1.474 1.5 1.474 2.598 0 0.161-0.012 0.318-0.037 0.472l0.002-0.017zM20.191 26.276c-1.96 1.973-5.88 1.84-7.613 1.573-0.376-0.698-0.893-1.275-1.517-1.71l-0.016-0.010c-0.698-0.675-1.247-1.499-1.598-2.421l-0.015-0.046c-0.289-0.823-0.746-1.524-1.332-2.092l-0.001-0.001c0.494-2.282 1.15-4.278 1.987-6.176l-0.080 0.204c0.28-0.707 0.64-1.333 0.987-2.067 0.487-0.896 0.907-1.827 1.253-2.785 0.658 0.609 1.48 1.049 2.393 1.247l0.034 0.006c1.333-0.337 2.604-0.876 3.773-1.6 1.823 3.373 2.895 7.383 2.895 11.644 0 0.101-0.001 0.203-0.002 0.304l0-0.015c-0.685 1.124-1.106 2.475-1.146 3.922l-0 0.011v0.013zM26.935 27.769c-0.797 0.234-1.488 0.614-2.075 1.113l0.008-0.007-0.453 0.467c-0.534 0.784-1.409 1.3-2.407 1.333l-0.005 0c-0.025 0.003-0.054 0.005-0.084 0.005-0.176 0-0.338-0.062-0.464-0.166l0.001 0.001c-0.2-0.227-0.147-0.747-0.133-0.96l0.013-0.227c0-0.4 0.373-4.173 0.493-4.773 0.053 0.080 0.111 0.156 0.173 0.227 0.347 0.367 0.829 0.571 1.333 0.56h0.467c0.078 0.008 0.168 0.013 0.259 0.013 0.648 0 1.243-0.231 1.705-0.616l-0.004 0.003c0.013 0.397 0.169 0.776 0.44 1.067 0.297 0.281 0.624 0.532 0.973 0.747 0.507 0.333 0.827 0.56 0.853 0.707-0.314 0.209-0.678 0.378-1.066 0.487l-0.027 0.007v0.013z"></path>
</svg>
