<!-- Generated by IcoMoon.io -->
<svg version="1.1" xmlns="http://www.w3.org/2000/svg" width="32" height="32" viewBox="0 0 32 32">
<title>media-streamer</title>
<path fill="#1a9ffe" d="M31.985 15.992c0 8.832-7.16 15.992-15.992 15.992s-15.992-7.16-15.992-15.992c0-8.832 7.16-15.992 15.992-15.992s15.992 7.16 15.992 15.992z"></path>
<path fill="#fff" d="M23.83 10.099h-0.497c-0.377 0-0.724 0.151-0.995 0.407l-1.010 0.995c-0.015-1.085-0.889-1.96-1.975-1.96h-10.626c-1.085 0-1.975 0.889-1.975 1.975v8.953c0 1.085 0.889 1.975 1.975 1.975h10.626c1.085 0 1.959-0.874 1.975-1.944l1.010 0.995c0.271 0.256 0.618 0.407 0.995 0.407h0.497c0.784 0 1.417-0.633 1.417-1.417v-8.968c0-0.784-0.633-1.417-1.417-1.417zM20.71 17.485c-0.166-0.196-0.422-0.286-0.663-0.211-0.256 0.075-0.422 0.317-0.422 0.588v2.623c0 0.136-0.121 0.256-0.256 0.256h-10.642c-0.136 0-0.256-0.121-0.256-0.256v-8.968c0-0.136 0.121-0.256 0.256-0.256h10.626c0.136 0 0.256 0.121 0.256 0.256v2.819c0 0.226 0.136 0.407 0.347 0.497 0.211 0.075 0.437 0.030 0.588-0.136l0.136-0.151 2.713-2.713h0.136v8.366h-0.136l-2.065-2.065v-0.015l-0.618-0.633z"></path>
</svg>
