<!-- Generated by IcoMoon.io -->
<svg version="1.1" xmlns="http://www.w3.org/2000/svg" width="32" height="32" viewBox="0 0 32 32">
<title>online-freedom</title>
<path fill="#1a9efe" d="M32 16c0 3.609-1.203 6.977-3.248 9.684-2.947 3.85-7.519 6.316-12.752 6.316s-9.805-2.466-12.752-6.316c-2.045-2.707-3.248-6.075-3.248-9.684 0-8.842 7.158-16 16-16s16 7.158 16 16z"></path>
<path fill="#fff" d="M16 25.504c-3.008 0-5.774-1.383-7.579-3.729-1.263-1.684-1.925-3.669-1.925-5.714 0-5.233 4.271-9.504 9.504-9.504s9.504 4.271 9.504 9.504c0 2.105-0.662 4.090-1.925 5.714-1.805 2.346-4.571 3.729-7.579 3.729zM16 9.143c-3.789 0-6.857 3.068-6.857 6.857 0 1.504 0.481 2.947 1.383 4.15 1.323 1.744 3.308 2.707 5.414 2.707 2.165 0 4.15-0.962 5.414-2.707 0.902-1.203 1.383-2.647 1.383-4.15 0.060-3.789-2.947-6.857-6.737-6.857z"></path>
<path fill="#fff" d="M15.218 10.707c0.301 0.962 0.301 2.045-0.12 2.887-0.361 0.722-0.962 1.203-1.504 1.805-0.541 0.541-1.083 1.203-1.143 1.985-0.12 0.962 0.601 1.985 1.564 2.226 0.481 0.12 1.023 0.060 1.564 0.12s1.083 0.241 1.263 0.722c0.241 0.541-0.060 1.203-0.421 1.684s-0.782 1.083-0.662 1.684c-0.481-0.060-0.902-0.18-1.383-0.241 0.361-0.241 0.601-0.782 0.541-1.203-0.060-0.481-0.421-0.842-0.902-1.023-0.481-0.12-1.083 0-1.383-0.421-0.241-0.301-0.12-0.722-0.12-1.083 0.060-1.083-0.842-2.045-1.865-2.286-0.842-0.241-1.744-0.12-2.406-0.662-0.722-0.602-0.782-1.744-0.421-2.647 0.421-1.143 1.203-2.105 1.985-3.008 0.902-1.083 1.865-2.226 3.128-2.827 0.601-0.301 0.962-0.301 1.383 0.301 0.361 0.481 0.722 1.203 0.902 1.985z"></path>
<path fill="#fff" d="M20.15 12.692c0.842-0.18 1.624 0.361 2.346 0.902 0.662 0.541 1.504 1.083 2.346 0.782 0.12-0.481-0.060-0.962-0.361-1.323s-0.662-0.662-1.023-0.902-1.444-1.083-2.105-1.744c-0.541-0.481-1.083-1.323-1.865-1.263-1.383 0.12-1.865 2.346-1.504 3.429 0.301 1.263 1.444 0.301 2.165 0.12z"></path>
<path fill="#fff" d="M22.376 14.857c-0.541 0.060-1.083 0.421-1.263 0.962-0.12 0.541 0.12 1.203-0.301 1.564s-1.143 0-1.684 0.12c-0.361 0.060-0.662 0.421-0.782 0.722-0.12 0.361-0.18 0.722-0.18 1.083-0.060 0.902-0.12 1.744-0.18 2.647 0 0.361-0.060 0.722 0.18 0.962 0.18 0.18 0.541 0.241 0.782 0.18 0.301-0.060 0.481-0.241 0.722-0.421 1.444-1.143 2.586-2.586 3.368-4.211 0.361-0.782 0.782-1.684 0.902-2.586 0.301-0.962-0.782-1.083-1.564-1.023z"></path>
</svg>
