<!-- Generated by IcoMoon.io -->
<svg version="1.1" xmlns="http://www.w3.org/2000/svg" width="32" height="32" viewBox="0 0 32 32">
<title>online-shoppers</title>
<path fill="#1a9ffe" d="M31.985 15.992c0 8.832-7.16 15.992-15.992 15.992s-15.992-7.16-15.992-15.992c0-8.832 7.16-15.992 15.992-15.992s15.992 7.16 15.992 15.992z"></path>
<path fill="#fff" d="M24.117 9.903c-0.015-0.362-0.317-0.633-0.678-0.633h-2.517c0-0.437-0.060-1.311-0.482-2.201-0.452-0.935-1.658-2.487-4.658-2.487-3.045 0-4.13 1.598-4.492 2.562-0.332 0.844-0.332 1.673-0.286 2.125h-2.14c-0.362 0-0.648 0.271-0.678 0.633l-0.919 14.621c-0.015 0.181 0.060 0.377 0.181 0.512s0.301 0.211 0.497 0.211h16.415c0.181 0 0.362-0.075 0.497-0.211 0.121-0.136 0.196-0.317 0.181-0.512l-0.919-14.621zM9.134 23.439l0.769-12.375h12.48l0.769 12.375h-14.018zM12.902 7.808c0.136-0.347 0.558-1.432 2.879-1.432 1.598 0 2.608 0.482 3.105 1.492 0.271 0.573 0.301 1.146 0.301 1.387h-6.436c-0.030-0.136-0.105-0.799 0.151-1.447z"></path>
<path fill="#fff" d="M20.56 12.797c-0.151-0.105-0.347-0.136-0.528-0.090l-0.377 0.090c-0.347 0.090-0.558 0.437-0.497 0.784 0 0.015 0.136 0.769-0.151 1.492-0.136 0.347-0.558 1.432-2.879 1.432-1.598 0-2.608-0.482-3.105-1.492-0.362-0.739-0.301-1.492-0.301-1.507 0.030-0.362-0.226-0.693-0.588-0.739l-0.392-0.045c-0.181-0.030-0.362 0.030-0.512 0.136-0.136 0.121-0.241 0.286-0.256 0.467 0 0.045-0.121 1.266 0.482 2.487 0.452 0.935 1.658 2.487 4.658 2.487 3.045 0 4.13-1.598 4.492-2.562 0.482-1.236 0.256-2.457 0.241-2.517-0.015-0.166-0.136-0.332-0.286-0.422z"></path>
</svg>
