<!-- Generated by IcoMoon.io -->
<svg version="1.1" xmlns="http://www.w3.org/2000/svg" width="32" height="32" viewBox="0 0 32 32">
<title>privacy-protection</title>
<path fill="#1a9efe" d="M32 16c0 3.609-1.203 6.977-3.248 9.684-2.947 3.85-7.519 6.316-12.752 6.316s-9.805-2.466-12.752-6.316c-2.045-2.707-3.248-6.075-3.248-9.684 0-8.842 7.158-16 16-16s16 7.158 16 16z"></path>
<path fill="#fff" d="M16 25.383v0c-0.060 0-0.060 0-0.12 0.060-8.241-3.068-7.158-14.496-7.158-14.496 4.271 0.060 6.977-1.444 7.278-1.624v0 0c0 0 2.827 1.744 7.278 1.744 0 0 0.902 11.308-7.278 14.316z"></path>
</svg>
