<!-- Generated by IcoMoon.io -->
<svg version="1.1" xmlns="http://www.w3.org/2000/svg" width="32" height="32" viewBox="0 0 32 32">
<title>privacy-conscious-users</title>
<path fill="#1a9ffe" d="M31.985 15.992c0 8.832-7.16 15.992-15.992 15.992s-15.992-7.16-15.992-15.992c0-8.832 7.16-15.992 15.992-15.992s15.992 7.16 15.992 15.992z"></path>
<path fill="#fff" d="M22.308 13.822v-3.075c0-3.030-2.472-5.502-5.502-5.502h-1.326c-3.030 0-5.502 2.472-5.502 5.502v3.090c-1.115 0.121-1.975 1.055-1.975 2.201v7.25c0 1.221 0.995 2.201 2.201 2.201h11.878c1.221 0 2.201-0.995 2.201-2.201v-7.25c0-1.161-0.859-2.095-1.975-2.216zM20.544 13.822h-8.788v-3.075c0-2.050 1.673-3.738 3.738-3.738h1.326c2.050 0 3.738 1.673 3.738 3.738v3.075zM21.419 15.585h0.663c0.241 0 0.437 0.196 0.437 0.437v7.25c0 0.241-0.196 0.437-0.437 0.437h-11.862c-0.241 0-0.437-0.196-0.437-0.437v-7.25c0-0.241 0.196-0.437 0.437-0.437h11.199z"></path>
<path fill="#fff" d="M15.269 19.927v2.261h1.764v-2.261c0.392-0.286 0.663-0.739 0.663-1.266 0-0.859-0.693-1.553-1.553-1.553s-1.553 0.693-1.553 1.553c0.015 0.528 0.271 0.98 0.678 1.266z"></path>
</svg>
