<!-- Generated by IcoMoon.io -->
<svg version="1.1" xmlns="http://www.w3.org/2000/svg" width="32" height="32" viewBox="0 0 32 32">
<title>public-wifi</title>
<path fill="#1a9ffe" d="M31.985 15.992c0 8.832-7.16 15.992-15.992 15.992s-15.992-7.16-15.992-15.992c0-8.832 7.16-15.992 15.992-15.992s15.992 7.16 15.992 15.992z"></path>
<path fill="#fff" d="M15.992 10.144c-3 0-5.788 1.1-7.943 3.12-0.784 0.723-1.884-0.392-1.1-1.1 2.532-2.351 5.667-3.587 9.044-3.587s6.512 1.236 9.044 3.587c0.784 0.723-0.332 1.824-1.1 1.1-2.14-2.020-4.944-3.12-7.943-3.12zM15.992 14.048c-2.080 0-3.964 0.723-5.471 2.216-0.648 0.648-1.884-0.332-1.1-1.1 1.764-1.764 4.1-2.668 6.572-2.668s4.823 0.904 6.572 2.668c0.784 0.784-0.452 1.764-1.1 1.1-1.492-1.507-3.376-2.216-5.471-2.216zM15.992 23.423c-0.844 0-1.568-0.724-1.568-1.568s0.723-1.568 1.568-1.568 1.568 0.724 1.568 1.568c0 0.844-0.708 1.568-1.568 1.568zM15.992 17.952c-1.1 0-2.216 0.452-2.924 1.296-0.648 0.784-1.824-0.256-1.176-1.040 1.040-1.176 2.532-1.824 4.1-1.824s3.060 0.648 4.1 1.824c0.648 0.784-0.528 1.824-1.176 1.040-0.708-0.844-1.809-1.296-2.924-1.296z"></path>
</svg>
