<!-- Generated by IcoMoon.io -->
<svg version="1.1" xmlns="http://www.w3.org/2000/svg" width="32" height="32" viewBox="0 0 32 32">
<title>real-time-monitoring</title>
<path fill="#1a9efe" d="M32 16c0 3.609-1.203 6.977-3.248 9.684-2.947 3.85-7.519 6.316-12.752 6.316s-9.805-2.466-12.752-6.316c-2.045-2.707-3.248-6.075-3.248-9.684 0-8.842 7.158-16 16-16s16 7.158 16 16z"></path>
<path fill="#fff" d="M16 9.083c-6.256 0-11.368 6.917-11.368 6.917s5.113 6.917 11.368 6.917 11.368-6.917 11.368-6.917-5.113-6.917-11.368-6.917zM18.526 17.865c-0.602 0.782-1.504 1.263-2.526 1.263s-1.925-0.481-2.526-1.263c-0.421-0.541-0.662-1.203-0.662-1.925 0-1.744 1.383-3.128 3.128-3.128s3.128 1.383 3.128 3.128c0.060 0.782-0.18 1.444-0.541 1.925z"></path>
</svg>
