<!-- Generated by IcoMoon.io -->
<svg version="1.1" xmlns="http://www.w3.org/2000/svg" width="32" height="32" viewBox="0 0 32 32">
<title>replay_30_black_24dp</title>
<path d="M16 6.667v-5.333l-6.667 6.667 6.667 6.667v-5.333c4.413 0 8 3.587 8 8s-3.587 8-8 8-8-3.587-8-8h-2.667c0 5.893 4.773 10.667 10.667 10.667s10.667-4.773 10.667-10.667-4.773-10.667-10.667-10.667z"></path>
<path d="M12.747 17.987h0.6c0.28 0 0.493-0.067 0.64-0.213s0.213-0.333 0.213-0.573c0-0.107-0.013-0.2-0.053-0.293s-0.080-0.16-0.147-0.227-0.147-0.12-0.24-0.147-0.213-0.053-0.333-0.053c-0.107 0-0.2 0.013-0.293 0.040s-0.173 0.067-0.24 0.133-0.12 0.12-0.16 0.2-0.067 0.173-0.067 0.267h-1.133c0-0.24 0.053-0.453 0.147-0.64s0.227-0.36 0.4-0.493 0.36-0.24 0.587-0.307 0.467-0.107 0.72-0.107c0.28 0 0.547 0.040 0.787 0.107s0.44 0.173 0.613 0.307 0.307 0.307 0.4 0.507 0.147 0.44 0.147 0.707c0 0.12-0.013 0.24-0.053 0.36s-0.093 0.227-0.173 0.333-0.16 0.2-0.267 0.293-0.227 0.16-0.373 0.227c0.32 0.12 0.56 0.28 0.72 0.52s0.24 0.507 0.24 0.813c0 0.267-0.053 0.507-0.16 0.707s-0.24 0.387-0.427 0.52-0.387 0.253-0.64 0.32-0.507 0.107-0.8 0.107c-0.24 0-0.48-0.027-0.707-0.093s-0.44-0.16-0.613-0.307-0.333-0.307-0.44-0.507-0.16-0.453-0.16-0.733h1.133c0 0.107 0.027 0.2 0.067 0.293s0.093 0.16 0.173 0.227 0.16 0.12 0.267 0.147 0.213 0.053 0.333 0.053c0.133 0 0.253-0.013 0.36-0.053s0.2-0.093 0.267-0.16 0.133-0.147 0.173-0.24 0.053-0.2 0.053-0.32c0-0.147-0.027-0.28-0.067-0.387s-0.107-0.2-0.187-0.267-0.173-0.12-0.293-0.147-0.24-0.053-0.387-0.053h-0.627v-0.867z"></path>
<path d="M20.4 18.987c0 0.427-0.040 0.8-0.133 1.093s-0.227 0.56-0.387 0.76-0.373 0.347-0.6 0.44-0.493 0.133-0.787 0.133-0.547-0.040-0.787-0.133-0.44-0.24-0.613-0.44-0.307-0.453-0.4-0.76-0.147-0.667-0.147-1.093v-0.987c0-0.427 0.040-0.8 0.133-1.093s0.227-0.56 0.387-0.76 0.373-0.347 0.6-0.44 0.493-0.133 0.787-0.133 0.547 0.040 0.787 0.133 0.44 0.24 0.613 0.44 0.307 0.453 0.4 0.76 0.147 0.667 0.147 1.093v0.987zM19.267 17.84c0-0.253-0.013-0.467-0.053-0.64s-0.093-0.307-0.16-0.413-0.147-0.187-0.253-0.227-0.213-0.067-0.333-0.067-0.24 0.027-0.333 0.067-0.187 0.12-0.253 0.227-0.12 0.24-0.16 0.413-0.053 0.387-0.053 0.64v1.293c0 0.253 0.013 0.467 0.053 0.64s0.093 0.32 0.16 0.427 0.147 0.187 0.253 0.227 0.213 0.067 0.333 0.067 0.24-0.027 0.333-0.067 0.187-0.12 0.253-0.227 0.12-0.253 0.147-0.427c0.040-0.173 0.053-0.387 0.053-0.64v-1.293z"></path>
</svg>
