<!-- Generated by IcoMoon.io -->
<svg version="1.1" xmlns="http://www.w3.org/2000/svg" width="32" height="32" viewBox="0 0 32 32">
<title>researchers</title>
<path fill="#1a9ffe" d="M31.985 15.992c0 8.832-7.16 15.992-15.992 15.992s-15.992-7.16-15.992-15.992c0-8.832 7.16-15.992 15.992-15.992s15.992 7.16 15.992 15.992z"></path>
<path fill="#fff" d="M8.471 23.83c0.256 0.256 0.588 0.392 0.935 0.392 0 0 0 0 0 0 0.362 0 0.693-0.136 0.935-0.392l4.371-4.371 0.105 0.060c1.010 0.633 2.17 0.965 3.361 0.965 3.512 0 6.376-2.864 6.376-6.376s-2.864-6.376-6.376-6.376-6.376 2.864-6.376 6.376c0 1.191 0.332 2.351 0.965 3.361l0.060 0.105-4.371 4.356c-0.256 0.256-0.392 0.588-0.392 0.935s0.166 0.708 0.407 0.965zM18.178 9.3c2.653 0 4.808 2.155 4.808 4.808s-2.155 4.808-4.808 4.808c-2.653 0-4.808-2.155-4.808-4.808s2.155-4.808 4.808-4.808z"></path>
<path fill="#fff" d="M18.645 11.923v0c0.844 0.196 1.537 0.889 1.748 1.733 0.060 0.301 0.301 0.497 0.588 0.497 0.332 0 0.588-0.271 0.588-0.588 0-0.482-0.437-1.266-1.025-1.854-0.618-0.603-1.296-0.98-1.809-0.98-0.317 0-0.588 0.271-0.588 0.603 0 0.286 0.211 0.528 0.497 0.588z"></path>
</svg>
