<!-- Generated by IcoMoon.io -->
<svg version="1.1" xmlns="http://www.w3.org/2000/svg" width="32" height="32" viewBox="0 0 32 32">
<title>session-information</title>
<path fill="#1a9efe" d="M32 16c0 8.837-7.163 16-16 16s-16-7.163-16-16c0-8.837 7.163-16 16-16s16 7.163 16 16z"></path>
<path fill="#fff" d="M15.579 12.331c0.842 0 1.564-0.301 2.165-0.902s0.902-1.323 0.902-2.165c0-0.842-0.301-1.564-0.902-2.165s-1.323-0.902-2.165-0.902c-0.842 0-1.564 0.301-2.165 0.902s-0.902 1.323-0.902 2.165c0 0.842 0.301 1.564 0.902 2.165s1.323 0.902 2.165 0.902z"></path>
<path fill="#fff" d="M18.827 24.722c-0.241-0.301-0.361-0.902-0.361-1.925v-9.383h-6.677v0.541c0.662 0.060 1.083 0.18 1.323 0.481s0.361 0.902 0.361 1.925v6.496c0 0.962-0.12 1.624-0.301 1.805-0.301 0.361-0.782 0.541-1.383 0.541v0.541h8.421v-0.541c-0.662 0-1.143-0.18-1.383-0.481z"></path>
</svg>
