<!-- Generated by IcoMoon.io -->
<svg version="1.1" xmlns="http://www.w3.org/2000/svg" width="32" height="32" viewBox="0 0 32 32">
<title>strong-ssl-encryption</title>
<path fill="#1a9efe" d="M32 16c0 3.609-1.203 6.977-3.248 9.684-2.947 3.85-7.519 6.316-12.752 6.316s-9.805-2.466-12.752-6.316c-2.045-2.707-3.248-6.075-3.248-9.684 0-8.842 7.158-16 16-16s16 7.158 16 16z"></path>
<path fill="#fff" d="M21.654 15.338h-0.602v-2.105c0-2.767-2.286-5.053-5.053-5.053s-5.053 2.286-5.053 5.053v2.045h-0.601c-0.241 0-0.421 0.18-0.421 0.421v7.639c0 0.241 0.18 0.421 0.421 0.421h11.308c0.241 0 0.421-0.18 0.421-0.421v-7.579c0-0.241-0.18-0.421-0.421-0.421zM13.293 13.173c0-1.504 1.203-2.707 2.707-2.707s2.707 1.203 2.707 2.707v2.105h-5.474v-2.105h0.060z"></path>
</svg>
