<!-- Generated by IcoMoon.io -->
<svg version="1.1" xmlns="http://www.w3.org/2000/svg" width="32" height="32" viewBox="0 0 32 32">
<title>the-bandwidth-you-used</title>
<path fill="#1a9efe" d="M32 16c0 3.609-1.203 6.977-3.248 9.684-2.947 3.85-7.519 6.316-12.752 6.316s-9.805-2.466-12.752-6.316c-2.045-2.707-3.248-6.075-3.248-9.684 0-8.842 7.158-16 16-16s16 7.158 16 16z"></path>
<path fill="#fff" d="M16 5.534c-5.774 0-10.466 4.692-10.466 10.466s4.692 10.406 10.466 10.406 10.466-4.692 10.466-10.406c-0.060-5.774-4.692-10.466-10.466-10.466zM16 8.541c4.090 0 7.459 3.308 7.459 7.459 0 0.541-0.060 1.143-0.18 1.684h-4.932c0-0.060 0-0.060 0-0.12 0-0.481-0.12-0.902-0.361-1.263l2.406-3.368c0.301-0.421 0.18-1.023-0.241-1.263-0.421-0.301-1.023-0.18-1.263 0.241l-2.406 3.429c-0.12 0-0.241-0.060-0.421-0.060-1.263 0-2.346 1.023-2.346 2.346 0 0.060 0 0.060 0 0.12h-4.932c-0.12-0.541-0.18-1.083-0.18-1.684-0.060-4.15 3.308-7.519 7.399-7.519z"></path>
</svg>
