<!-- Generated by IcoMoon.io -->
<svg version="1.1" xmlns="http://www.w3.org/2000/svg" width="32" height="32" viewBox="0 0 32 32">
<title>tor-users</title>
<path fill="#1a9ffe" d="M31.985 15.992c0 8.832-7.16 15.992-15.992 15.992s-15.992-7.16-15.992-15.992c0-8.832 7.16-15.992 15.992-15.992s15.992 7.16 15.992 15.992z"></path>
<path fill="#fff" d="M15.616 20.454v5.517c-0.196-0.105-0.286-0.226-0.437-0.422-0.196-0.286-0.332-0.573-0.467-0.904-0.105-0.256-0.211-0.528-0.271-0.874-0.060-0.497-0.045-1.281 0.512-2.080 0.422-0.558 0.528-0.648 0.663-1.236v0zM15.691 11.26l0.452 0.196c0 0.211 0 0.407 0 0.603 0-0.075 0-0.136 0-0.211-0.045 0.889-0.060 1.221 0.105 1.869 0.181 0.708 1.115 1.748 1.492 2.924 0.739 2.261 0.543 5.23 0.015 7.537-0.090 0.377-0.347 0.844-0.693 1.266 0.121-0.226 0.226-0.467 0.301-0.724 0.528-1.869 0.754-2.728 0.497-4.793-0.030-0.196-0.121-0.889-0.437-1.613-0.467-1.115-1.13-2.186-1.221-2.397-0.151-0.347-0.347-1.869-0.377-2.894 0.015 0.859 0.090 2.487 0.317 3.12 0.060 0.211 0.678 1.161 1.115 2.321 0.301 0.799 0.362 1.537 0.422 1.748 0.196 0.95-0.045 2.547-0.377 4.055-0.136 0.678-0.543 1.477-1.040 1.959 0 0-0.015 0.015-0.015 0.015 0.317-0.317 0.618-0.844 0.799-1.477 0.256-0.889 0.347-2.005 0.332-2.728-0.015-0.422-0.196-1.311-0.528-2.14-0.181-0.452-0.467-0.904-0.648-1.221-0.196-0.317-0.196-0.995-0.301-1.794 0.015 0.859-0.075 1.296 0.151 1.914 0.136 0.362 0.588 0.859 0.724 1.341 0.181 0.648 0.377 1.372 0.362 1.794 0 0.497-0.030 1.432-0.241 2.427-0.166 0.814-0.528 1.507-1.146 1.914-0.015 0-0.015 0.015-0.030 0.015v-0.030c0 0 0.015 0 0.015 0s0 0 0 0 0.015 0 0.015 0v-0.015c0.317-0.362 0.512-0.724 0.588-1.085 0.090-0.437 0.105-0.859 0.151-1.387 0.045-0.437 0.015-1.010-0.105-1.613-0.166-0.754-0.452-1.507-0.558-2.050 0.015 0.588 0.256 1.326 0.347 2.095 0.090 0.573 0.045 1.13 0.030 1.628-0.015 0.573-0.211 1.613-0.467 2.11 0 0 0 0-0.015 0l-0.030-14.681zM14.274 10.657l0.95 0.392c0 0 0 0 0 0l0.407 0.181h-0.015v9.179c-0.181 0.543-0.347 0.633-0.784 1.161-0.512 0.603-0.603 1.477-0.603 2.201 0 0.301 0.121 0.633 0.241 0.95 0.136 0.332 0.241 0.663 0.437 0.919 0.241 0.347 0.528 0.573 0.723 0.648v0.045c-0.633-0.136-1.372-0.362-1.809-0.739-0.889-0.769-1.658-2.050-1.764-3.165-0.090-0.919 0.769-2.261 1.944-2.954 0.995-0.588 1.236-1.251 1.447-2.306-0.301 0.935-0.588 1.718-1.553 2.216-1.402 0.739-2.11 1.959-2.050 3.12 0.105 1.492 0.693 2.517 1.884 3.331 0.347 0.241 0.889 0.482 1.387 0.648-1.809-0.422-1.99-0.618-2.517-1.236 0-0.030-0.136-0.121-0.136-0.151-0.663-0.769-1.522-2.065-1.809-3.256-0.105-0.422-0.196-0.859-0.090-1.281 0.543-1.959 1.748-2.728 2.939-3.542 0.301-0.196 0.588-0.407 0.859-0.603 0.663-0.512 0.829-1.899 0.98-2.668-0.286 0.95-0.573 2.11-1.085 2.502-0.271 0.211-0.603 0.377-0.889 0.573-1.251 0.844-2.487 1.643-3.045 3.678-0.136 0.512-0.030 0.904 0.090 1.402 0.317 1.251 1.161 2.578 1.869 3.376 0 0 0.121 0.121 0.121 0.136 0.317 0.362 0.723 0.618 1.206 0.829-0.422-0.121-0.829-0.256-1.206-0.452-1.944-0.95-3.241-2.984-3.331-4.642-0.181-3.376 1.447-4.356 2.954-5.592 0.844-0.693 2.020-1.025 2.698-2.261 0.136-0.271 0.196-0.859 0.045-1.477-0.075-0.241-0.392-0.995-0.497-1.161v0zM20.077 4.401c-1.553 1.115-2.894 2.382-3.738 4.055l0.603-2.382c-0.904 1.598-1.507 3.256-1.703 4.869l-1.206-0.799-0.211 0.166c1.085 1.944 0.512 2.984-0.015 3.346-1.085 0.754-2.668 1.688-3.452 2.502-1.522 1.553-1.944 3.030-1.809 4.974 0.151 2.502 1.96 4.582 4.401 5.396 1.070 0.347 2.050 0.407 3.15 0.407 1.764 0 3.572-0.467 4.899-1.568 1.402-1.161 2.231-2.909 2.231-4.733s-0.769-3.557-2.11-4.793c-0.708-0.648-1.613-1.176-2.547-1.703-0.422-0.226-1.703-1.236-1.266-2.668l-0.919-0.121c1.281-2.020 2.954-4.009 5.049-5.878-1.613 0.543-3.045 1.387-4.115 2.879 0.603-1.311 1.628-2.638 2.758-3.949z"></path>
</svg>
