<!-- Generated by IcoMoon.io -->
<svg version="1.1" xmlns="http://www.w3.org/2000/svg" width="32" height="32" viewBox="0 0 32 32">
<title>torrenters</title>
<path fill="#1a9ffe" d="M31.985 15.992c0 8.832-7.16 15.992-15.992 15.992s-15.992-7.16-15.992-15.992c0-8.832 7.16-15.992 15.992-15.992s15.992 7.16 15.992 15.992z"></path>
<path fill="#fff" d="M22.097 8.034c-1.598-1.598-3.708-2.487-5.969-2.487 0 0 0 0 0 0-2.261 0-4.386 0.874-5.969 2.472-1.598 1.598-2.487 3.723-2.487 5.984v10.415c0 0.196 0.075 0.392 0.226 0.528 0.136 0.136 0.332 0.226 0.528 0.226 0 0 0 0 0 0h3.618c0.407 0 0.754-0.347 0.754-0.754v-10.144c0-0.889 0.347-1.718 0.98-2.351s1.462-0.98 2.351-0.98c1.824 0 3.316 1.492 3.316 3.316v10.144c0 0.196 0.075 0.392 0.226 0.528 0.136 0.136 0.332 0.226 0.528 0.226h3.618c0.422 0 0.754-0.332 0.754-0.754v-10.4c0.015-2.261-0.874-4.371-2.472-5.969zM23.077 19.836h-2.11v-5.562c0-2.668-2.171-4.823-4.823-4.823-1.296 0-2.502 0.497-3.422 1.417-0.904 0.904-1.417 2.125-1.417 3.422v5.562h-2.11v-5.848c0-1.854 0.723-3.602 2.035-4.914s3.060-2.035 4.914-2.035c3.829 0 6.949 3.12 6.949 6.949v5.833zM20.967 21.343h2.11v2.321h-2.11v-2.321zM11.305 23.665h-2.11v-2.321h2.11v2.321z"></path>
</svg>
