<!-- Generated by IcoMoon.io -->
<svg version="1.1" xmlns="http://www.w3.org/2000/svg" width="32" height="32" viewBox="0 0 32 32">
<title>travellers</title>
<path fill="#1a9ffe" d="M31.985 15.992c0 8.832-7.16 15.992-15.992 15.992s-15.992-7.16-15.992-15.992c0-8.832 7.16-15.992 15.992-15.992s15.992 7.16 15.992 15.992z"></path>
<path fill="#fff" d="M21.283 14.425l2.894-2.758c0.965-0.965 0.965-2.532 0-3.497-0.467-0.467-1.085-0.723-1.748-0.723 0 0 0 0 0 0-0.663 0-1.281 0.256-1.764 0.739l-2.743 2.894-7.642-3.075c-0.271-0.106-0.588-0.045-0.799 0.166l-1.733 1.733c-0.166 0.166-0.241 0.392-0.211 0.618s0.166 0.437 0.377 0.543l6.542 3.633-3.512 3.693-3.030-0.437c-0.226-0.030-0.467 0.045-0.633 0.211l-0.919 0.919c-0.166 0.166-0.241 0.407-0.211 0.648 0.045 0.241 0.196 0.437 0.407 0.543l3.693 1.824 1.809 3.708c0.030 0.075 0.090 0.136 0.136 0.196 0.105 0.105 0.241 0.181 0.407 0.211 0.045 0 0.075 0.015 0.121 0.015 0.196 0 0.377-0.075 0.528-0.211l0.919-0.919c0.166-0.166 0.241-0.392 0.211-0.633l-0.437-3.030 3.693-3.512 3.633 6.542c0.105 0.196 0.317 0.347 0.543 0.377s0.467-0.045 0.618-0.211l1.748-1.748c0.211-0.211 0.271-0.528 0.166-0.799l-3.060-7.657zM12.42 21.253l0.392 2.758-1.372-2.788c-0.075-0.151-0.196-0.271-0.332-0.332l-2.773-1.372 2.758 0.392c0.241 0.030 0.467-0.045 0.633-0.226l4.431-4.658c0.151-0.166 0.226-0.392 0.196-0.618s-0.166-0.422-0.377-0.528l-6.496-3.618 0.708-0.708 7.642 3.075c0.286 0.121 0.603 0.045 0.814-0.181l3.075-3.241c0.392-0.392 1.025-0.392 1.417 0s0.392 1.025 0.015 1.402l-3.256 3.090c-0.226 0.211-0.286 0.528-0.181 0.814l3.075 7.642-0.708 0.708-3.633-6.512c-0.105-0.196-0.317-0.332-0.528-0.377-0.226-0.030-0.452 0.030-0.618 0.196l-4.658 4.431c-0.181 0.166-0.256 0.407-0.226 0.648z"></path>
</svg>
