<!-- Generated by IcoMoon.io -->
<svg version="1.1" xmlns="http://www.w3.org/2000/svg" width="32" height="32" viewBox="0 0 32 32">
<title>your-ip-address-and-location</title>
<path fill="#1a9efe" d="M32 16c0 3.609-1.203 6.977-3.248 9.684-2.947 3.85-7.519 6.316-12.752 6.316s-9.805-2.466-12.752-6.316c-2.045-2.707-3.248-6.075-3.248-9.684 0-8.842 7.158-16 16-16s16 7.158 16 16z"></path>
<path fill="#fff" d="M16 5.173c-5.955 0-10.827 4.872-10.827 10.827 0 2.406 0.782 4.632 2.226 6.556 2.045 2.707 5.173 4.271 8.601 4.271s6.556-1.564 8.602-4.271c1.444-1.865 2.226-4.15 2.226-6.556 0-5.955-4.872-10.827-10.827-10.827zM9.805 20.692c-0.722-0.962-1.263-2.105-1.444-3.308 0.481 0.12 1.023 0.12 1.564 0.241 1.143 0.301 2.165 1.383 2.105 2.647 0 0.421-0.12 0.902 0.12 1.203 0.361 0.481 1.023 0.301 1.564 0.481 0.541 0.12 0.902 0.602 1.023 1.143 0 0.18 0 0.361 0 0.481-1.985-0.241-3.729-1.263-4.932-2.887zM15.88 23.759c0.12-0.301 0.361-0.602 0.541-0.842 0.421-0.602 0.782-1.323 0.481-1.925-0.241-0.541-0.902-0.782-1.444-0.842-0.601-0.060-1.203 0-1.744-0.12-1.083-0.241-1.865-1.383-1.744-2.526 0.12-0.902 0.662-1.624 1.323-2.286 0.601-0.662 1.323-1.263 1.684-2.045 0.481-1.023 0.481-2.226 0.18-3.308-0.18-0.541-0.361-1.083-0.601-1.564 0.481-0.12 0.962-0.12 1.504-0.12 1.023 0 1.985 0.18 2.887 0.541-0.782 0.842-1.023 2.466-0.722 3.429 0.421 1.383 1.744 0.241 2.586 0.060 0.902-0.241 1.744 0.361 2.526 0.902 0.18 0.481 0.301 0.962 0.421 1.504-0.12 0-0.241 0-0.361 0-0.602 0.060-1.263 0.481-1.444 1.083-0.12 0.602 0.12 1.323-0.301 1.744-0.481 0.421-1.263 0-1.925 0.12-0.421 0.12-0.722 0.421-0.902 0.842-0.18 0.361-0.18 0.842-0.241 1.263-0.060 1.023-0.12 2.045-0.241 3.008 0 0.241 0 0.421 0 0.662-0.722 0.241-1.564 0.361-2.346 0.361-0.060 0.060-0.060 0.060-0.12 0.060z"></path>
</svg>
