<!-- Generated by IcoMoon.io -->
<svg version="1.1" xmlns="http://www.w3.org/2000/svg" width="32" height="32" viewBox="0 0 32 32">
<title>your-browsing-or-download-history</title>
<path fill="#1a9efe" d="M32 16c0 3.655-1.198 6.951-3.236 9.648-2.936 3.835-7.551 6.352-12.764 6.352s-9.828-2.517-12.764-6.352c-2.037-2.697-3.236-6.052-3.236-9.648 0-8.869 7.131-16 16-16 8.809 0 16 7.131 16 16z"></path>
<path fill="#fff" d="M16 9.109c-6.292 0-11.386 6.891-11.386 6.891s5.094 6.891 11.386 6.891c6.292 0 11.386-6.891 11.386-6.891s-5.094-6.891-11.386-6.891zM18.517 17.858c-0.599 0.779-1.498 1.258-2.517 1.258s-1.918-0.479-2.517-1.258c-0.419-0.539-0.659-1.198-0.659-1.918 0-1.738 1.378-3.116 3.116-3.116s3.116 1.378 3.116 3.116c0.060 0.779-0.18 1.438-0.539 1.918z"></path>
</svg>
