<svg version="1.1" id="Layer_1" xmlns="http://www.w3.org/2000/svg" x="0" y="0" viewBox="0 0 90.3 63.5" xml:space="preserve"><style>.st2{fill:#3b4751}.st3{fill:#75b8ff}.st9{fill:#c0e9fc}.st10{fill:#fff}.st12{opacity:.51;fill:#e8e8f9;enable-background:new}</style><g id="Background_00000168805351184641194850000005708190625077391244_" opacity=".1"><path id="Background_00000067945312947390889310000000808263057547135362_" class="st2" d="M66.2.8c11 2.8 15.9 11.8 9.4 26.9-4.2 9.8 3.5 24.8-9.5 28.4-21.2 5.8-22-10-39.5-11.8C9.1 42.6 6.3 11.8 24 7c6.5-1.7 7.9.1 13.6-.8C52.1 4.1 54.7-2.1 66.2.8z"/><path id="Background_00000075852287852246857220000018172095242145603752_" class="st2" d="M68.5 45.8s4.4 1.6 6.6 4.3 7.5 7.3-9.6 10.7c-15.7 3.2-46.4 4.6-39.9-2.2S0 57.1 0 49.9c-.1-10.6 68.5-4.1 68.5-4.1z"/><path id="Background_00000167357198657047548240000008308105587395036584_" class="st2" d="M43 60.6s-4-.8-6.2-2.8-7.4-5.3 6.9-10.6c13.2-4.8 39.7-9.9 34.9-3.2-4.8 6.7 10.8.3 11.7 6.5C91.6 59.7 43 60.6 43 60.6z"/></g><path id="XMLID_00000061464995436942808930000014190377716893886891_" class="st3" d="M49.7 56H35.5l1.2-11.4h11.9z"/><linearGradient id="XMLID_00000150798105422495853490000012133479239122208925_" gradientUnits="userSpaceOnUse" x1="42.65" y1="20.092" x2="42.65" y2="16.947" gradientTransform="translate(0 32)"><stop offset="0" stop-color="#4498fa" stop-opacity="0"/><stop offset="1" stop-color="#4498fa"/></linearGradient><path id="XMLID_00000152250943623173293680000010830289422481080239_" opacity=".67" fill="url(#XMLID_00000150798105422495853490000012133479239122208925_)" d="M35.9 52.1h13.5l-.3-3.2H36.2z"/><path id="XMLID_00000075135708969999947580000006211759878240714671_" class="st3" d="M55.3 56.5s.1 0 0 0c0-1.1-.8-1.9-1.9-1.9H32.1c-1 0-1.9.8-1.9 1.9v.1l25.1-.1z"/><path d="M72.1 10.7v36.9l-.1.4c-.1.2-.3.4-.5.6-.2.2-.5.3-.7.3H13.7c-.6 0-1.2-.4-1.5-.9 0-.1-.1-.3-.1-.4-.1 0-.1-.2-.1-.3V10.7c0-.5.3-1 .6-1.3.3-.2.6-.4 1.1-.4h56.8c.4 0 .7.1 1 .4.4.3.6.8.6 1.3z" fill="#a6eaff"/><path d="M70.4 11.9v33.8c0 .4-.4.8-.8.8H14.4c-.4 0-.8-.4-.8-.8V11.9c0-.4.4-.8.8-.8h55.2c.5 0 .8.3.8.8z" fill="#1a9efe"/><path class="st3" d="M71.9 48c-.1.2-.3.4-.4.6-.2.2-.5.3-.7.3H13.7c-.6 0-1.2-.4-1.5-.9h59.7z"/><path d="M42.5 10.2h-2s-.1 0-.1-.1c0 0 0-.1.1-.1h2s.1.1 0 .2c.1 0 0 0 0 0z" fill="#4e7fb0"/><path d="M33.4 11.1L15 46.5h11.4l18.4-35.4H33.4zm-19 0c-.4 0-.8.4-.8.8V42l16-30.9H14.4z" opacity=".1" fill="#fff"/><g id="time_line_00000101094105295449229960000003764044998520669106_"><path class="st9" d="M63.1 41.9H20.5c-.2 0-.3-.1-.3-.3 0-.2.1-.3.3-.3h42.6c.2 0 .3.1.3.3 0 .2-.2.3-.3.3z"/><circle class="st9" cx="63.5" cy="41.6" r=".5"/><path class="st9" d="M57.8 43v1.9h2.5V43h-2.5zm2.1 1.6H58v-1.2h1.9v1.2zm1.6-1.6v.6h.3v-.4h.4V43h-.7zm1.8 0v.3h.4v.4h.3V43h-.7zm-1.5 1.6v-.4h-.3v.6h.6v-.3h-.3v.1zm1.9-.3v.4h-.4v.3h.6v-.6c0-.1-.2-.1-.2-.1zm-6.9-.1v-.3h-.3c0-.1 0-.2-.1-.2l.2-.2-.2-.2-.2.2c-.1-.1-.2-.1-.3-.1v-.3h-.3v.3c-.1 0-.1 0-.2.1l-.2-.2H55l.2.2c-.1.1-.1.2-.1.3h-.3v.3h.3c0 .1.1.2.1.2l-.2.2.2.2.2-.2c.1 0 .2.1.3.1v.3h.3v-.3c.1 0 .1-.1.2-.1l.2.2.2-.2-.2-.2c0-.1.1-.1.1-.2l.3.1zm-.7 0c-.1.1-.3.1-.4 0-.1-.1-.1-.3 0-.4s.3-.1.4 0c.1.1.1.3 0 .4zm-27.9.3h-.4c-.1 0-.1-.1-.1-.1v-.7c0-.1.1-.1.1-.1h.4l.6-.5h.1V45s0 .1-.1.1l-.6-.6zm1.5.5l-.2-.2c.2-.2.3-.5.3-.8s-.1-.6-.4-.8l.2-.2c.3.2.4.6.4 1 .1.4 0 .8-.3 1zm-.4-.4l-.2-.2c.1-.1.2-.2.2-.4s-.1-.3-.2-.4l.2-.2c.2.1.3.3.3.6-.1.3-.2.5-.3.6zm-4.1 0v-1.4l.9.5v-.5h.3v1.4h-.3v-.5zm-4.1 0v-1.4l-.9.5v-.5H20v1.4h.2v-.5zm3.1-.7l-1.5-1h-.1v2.2l1.6-1.2c.1.1.1.1 0 0 .1 0 .1 0 0 0z"/></g><path class="st10" d="M42.4 21.2c-4.1 0-7.5 3.4-7.5 7.5s3.4 7.5 7.5 7.5 7.5-3.4 7.5-7.5-3.3-7.5-7.5-7.5z"/><path d="M46.3 28.6l-5.5-3.8c-.1-.1-.1-.1-.3 0-.1.1-.1.1-.1.2v7.5c0 .1.1.1.1.2h.1c.1 0 .1 0 .1-.1l5.5-3.8c.1-.1.1-.1.1-.2s.1 0 0 0z" fill="#fcbf1e"/><path class="st10" d="M17.7 13.6c.1 0 .2.1.2.2v.9c0 .1-.1.2-.2.2s-.2-.1-.2-.2v-.9c0-.1.1-.2.2-.2zm0-1.7c.1 0 .2.1.2.2v.9c0 .1-.1.2-.2.2s-.2-.1-.2-.2v-.9c0-.1.1-.2.2-.2zm-1.3 1.3h.8c.1 0 .2.1.2.2s-.1.2-.2.2h-.8c-.1 0-.2-.1-.2-.2s0-.2.2-.2zm1.8 0h.8c.1 0 .2.1.2.2s-.1.2-.2.2h-.8c-.1 0-.2-.1-.2-.2-.1-.1 0-.2.2-.2z"/><circle class="st12" cx="62.2" cy="13.1" r=".8"/><circle class="st12" cx="64.9" cy="13.1" r=".8"/><circle class="st12" cx="67.5" cy="13.1" r=".8"/><path class="st10" d="M61.9 7c-.1 0-.1.1 0 0l-.1.7c0 .1.1.1.1.1.1 0 .1-.1.1-.1l-.1-.7zm0-1.1c-.1 0-.1.1 0 0l-.1.7c0 .1.1.1.1.1.1 0 .1-.1.1-.1l-.1-.7c.1 0 0 0 0 0zm.8.8h-.6c-.1 0-.1.1-.1.1 0 .1.1.2.2.2h.6c.1 0 .1-.1.1-.1-.1-.1-.1-.2-.2-.2zm-1.2 0H61c-.1 0-.1.1-.1.1-.1.1 0 .2.1.2h.6c.1 0 .1-.1.1-.1 0-.1-.1-.2-.2-.2z"/><path d="M77.2 27.1c-.1 0-.2-.1-.2-.2v-1.1c0-.1.1-.2.2-.2s.2.1.2.2v1.1c0 .1 0 .2-.2.2zm0 1.9c-.1 0-.2-.1-.2-.2v-1.1c0-.1.1-.2.2-.2s.2.1.2.2v1.1c0 .1 0 .2-.2.2zm1.5-1.4h-.9c-.1 0-.2-.1-.2-.2s.1-.2.2-.2h.9c.1 0 .2.1.2.2 0 0-.1.2-.2.2zm-2 0h-.9c-.1 0-.2-.1-.2-.2s.1-.2.2-.2h.9c.1 0 .2.1.2.2 0 0-.1.2-.2.2zM13.5 53.4c-.1 0-.3-.1-.3-.3V52c0-.1.1-.3.3-.3.1 0 .3.1.3.3v1.2c0 .1 0 .2-.3.2zm0 2.2c-.1 0-.3-.1-.3-.3v-1.2c0-.1.1-.3.3-.3.1 0 .3.1.3.3v1.2c0 .2 0 .3-.3.3zm1.8-1.6h-1.1c-.1 0-.3-.1-.3-.3s.1-.3.3-.3h1.1c.1 0 .3.1.3.3s-.2.3-.3.3zM13 54h-1.1c-.1 0-.3-.1-.3-.3s.1-.3.3-.3H13c.1 0 .3.1.3.3 0 .1-.2.3-.3.3z" fill="#49b8f6"/></svg>