<svg version="1.1" id="Layer_1" xmlns="http://www.w3.org/2000/svg" x="0" y="0" viewBox="0 0 90.3 54.3" xml:space="preserve"><style>.st2{fill:#3b4751}.st3{fill:#a6eaff}.st4{fill:#1a9efe}.st6{fill:#1a8dff}.st11{fill:#fff}.st12{fill:#fcbf1e}</style><g id="Background_00000046307035119440735990000000414830542883714987_" opacity=".1"><path id="Background_00000134208600349348867520000017179816976011960740_" class="st2" d="M65.1 30.4s4.1 2.1 6.3 5.8c2 3.5 7 9.8-9.1 14.4-14.8 4.3-44 6.3-37.8-2.9 6-9-24.5-1.9-24.5-11.6 0-14.3 65.1-5.7 65.1-5.7z"/><path id="Background_00000166641362366052467320000009313845574801253256_" class="st2" d="M39.1 51s-4.3-1.3-6.7-4.3-7.9-8.3 7.6-16.3c14.3-7.5 42.9-15.2 37.7-4.9-5.2 10.4 11.7.4 12.6 10C91.7 49.6 39.1 51 39.1 51z"/></g><g id="loptop"><path class="st3" d="M71.5 35.4H20.8c-.8 0-1.4-.6-1.4-1.4V1.4c0-.8.6-1.4 1.4-1.4h50.6c.8 0 1.4.6 1.4 1.4V34c.1.8-.5 1.4-1.3 1.4z"/><path class="st4" d="M21.2 1.8h50v31.5h-50z"/><path d="M83.7 45v2c0 .1-.1.3-.1.4-.1.1-.2.2-.4.2h-74c-.2 0-.4-.2-.4-.4v-2l1.9-.3v.4l8.8-7.8h53.8l8.4 7.5h2z" fill="#75b8ff"/><path class="st3" d="M83.2 45.5h-74c-.4 0-.5-.5-.3-.7l9.8-8.7c.5-.5 1.2-.7 1.9-.7h51.6c.8 0 1.5.3 2.1.8l9.4 8.4c.2.3 0 .9-.5.9z"/><path class="st6" d="M77.8 42.5h-63l6.6-5.9h49.8z"/></g><ellipse cx="46.2" cy="38.3" rx="10.9" ry=".7" fill="#09225e" opacity=".17"/><path d="M21.2 1.8v27.4L34.7 1.8H21.2zm16.6 0L22.4 33.3H32L47.4 1.8h-9.6z" opacity=".07" fill="#fff"/><g id="location"><path class="st6" d="M45.4 3.2c-7.2.4-13.2 6.2-14 13.4-1 8.4 5.8 13.8 11.1 18.9.1.1 1 1 1.9 1.8 1.1 1.1 2.9 1.1 4 0 .9-.9 1.8-1.7 1.9-1.8 4.9-4.8 11.2-9.7 11.2-17.2-.1-8.7-7.4-15.6-16.1-15.1z"/><radialGradient id="SVGID_1_" cx="46.555" cy="76.235" r="38.887" gradientTransform="matrix(1 0 0 -1 0 73.194)" gradientUnits="userSpaceOnUse"><stop offset="0" stop-color="#0b7cd8"/><stop offset=".326" stop-color="#1082e0"/><stop offset=".749" stop-color="#1a8dff"/><stop offset="1" stop-color="#1a8dff"/></radialGradient><path d="M46.3 37c-.4 0-.7-.1-1-.4-.7-.6-1.3-1.3-1.7-1.6l-.3-.2-1.7-1.7c-4.9-4.6-10-9.4-9.1-16.4.8-6.7 6.4-11.9 12.9-12.3h.8c7.7 0 13.9 6.2 13.9 13.9 0 6.2-4.7 10.6-9.2 14.8-.6.6-1.2 1.1-1.7 1.7l-.2.2c-.4.4-1 1-1.7 1.6-.2.3-.6.4-1 .4z" fill="url(#SVGID_1_)"/><circle class="st11" cx="46.3" cy="18.5" r="9"/><path class="st12" d="M46.3 15c-3.3 0-5.9 3.6-5.9 3.6s2.6 3.6 5.9 3.6c3.3 0 5.9-3.6 5.9-3.6S49.6 15 46.3 15zm1.6 4.8c-.4.5-1 .8-1.6.8s-1.2-.3-1.6-.8c-.3-.3-.4-.7-.4-1.2 0-1.1.9-2 2-2s2 .9 2 2c0 .4-.1.8-.4 1.2z"/><path class="st11" d="M49.3 13.3l1 1-7.9 8.4-1-1 7.9-8.4z"/><path class="st12" d="M50.1 13.8l1 1-7.9 8.4-1-1 7.9-8.4z"/></g><path class="st4" d="M45.3.8h2.6V1h-2.6z"/><path class="st11" d="M19 41.2c-.1 0-.1.1-.1.1v.6c0 .1.1.1.1.1.1 0 .1-.1.1-.1v-.6c.1-.1 0-.1-.1-.1zm0-1.1c-.1 0-.1.1-.1.1v.6c0 .1.1.1.1.1.1 0 .1-.1.1-.1v-.6c.1 0 0-.1-.1-.1zm.8.8h-.5c-.1 0-.1.1-.1.1l.1.1h.5c.1 0 .1-.1.1-.1s0-.1-.1-.1zm-1.1 0h-.5c-.1 0-.2.1-.2.1l.1.1h.5c.1 0 .1-.1.1-.2.1.1.1 0 0 0z"/><path d="M81.4 36.4c-.1 0-.2-.1-.2-.2v-1c0-.1.1-.2.2-.2s.2.1.2.2v1c0 .1 0 .2-.2.2zm0 1.8c-.1 0-.2-.1-.2-.2v-1c0-.1.1-.2.2-.2s.2.1.2.2v1c0 .1 0 .2-.2.2zm1.4-1.3h-.9c-.1 0-.2-.1-.2-.2s.1-.2.2-.2h.9c.1 0 .2.1.2.2s-.1.2-.2.2zm-1.9 0H80c-.1 0-.2-.1-.2-.2s.1-.2.2-.2h.9c.1 0 .2.1.2.2s-.1.2-.2.2zM14.7 8.6c-.1 0-.3-.1-.3-.3V7.2c0-.1.1-.3.3-.3.1 0 .3.1.3.3v1.2c0 .1 0 .2-.3.2zm0 2.1c-.1 0-.3-.1-.3-.3V9.2c0-.1.1-.3.3-.3.2.1.3.2.3.3v1.2c0 .1 0 .3-.3.3zm1.7-1.6h-1c-.1 0-.3-.1-.3-.3 0-.1.1-.3.3-.3h1c.1 0 .3.1.3.3-.1.2-.2.3-.3.3zm-2.2 0h-1c-.1 0-.3-.1-.3-.3 0-.1.1-.3.3-.3h1c.1 0 .3.1.3.3s-.2.3-.3.3z" fill="#49b8f6"/><circle class="st3" cx="64.1" cy="3.5" r=".8"/><circle class="st3" cx="66.7" cy="3.5" r=".8"/><circle class="st3" cx="69.2" cy="3.5" r=".8"/></svg>