<svg version="1.1" id="Layer_1" xmlns="http://www.w3.org/2000/svg" x="0" y="0" viewBox="0 0 71.4 54.3" xml:space="preserve"><style>.st2{fill:#3b4751}.st6{fill:#fff}</style><g id="Background_00000163051256079821711590000010988136737280338061_" opacity=".1"><path class="st2" d="M58.5 9.2c-8.3-4.2-11.3.1-22.7-.6-4.4-.3-5.1-2-10.3-1.8-14.3.5-17.4 24-4.4 28.2C34 39.3 32 51.2 49 50.4c10.3-.5 7.2-13 12-19.6 7.5-10.1 5.3-17.7-2.5-21.6zm-12 31.4c.1-.2.4-.3.6-.1.2.1.3.3.1.6-.1.2-.4.3-.6.1-.1-.1-.2-.4-.1-.6z"/><ellipse class="st2" cx="35.7" cy="51.5" rx="35.7" ry="2.4"/><path class="st2" d="M40.1 5.8c-9.1 1.5-9 6.7-18.7 12.9-3.8 2.3-5.3 1.4-9.4 4.6-11.1 8.9.2 29.7 13.2 25.4 13-4.2 18.4 6.7 31.7-4 8-6.5-1.9-14.7-1.8-22.9-.1-12.6-6.3-17.5-15-16zM49 38.3c0-.3.1-.4.4-.4.3 0 .4.1.4.4s-.1.4-.4.4l-.4-.4z"/></g><path d="M12.3 0H59c.8 0 1.4.6 1.4 1.4v48.4c0 .8-.6 1.4-1.4 1.4H12.3c-.8 0-1.4-.6-1.4-1.4V1.4c0-.8.6-1.4 1.4-1.4z" fill="#a6eaff"/><path d="M58.2 3.7v43.9c0 .8-.6 1.4-1.4 1.4H14.5c-.8 0-1.4-.6-1.4-1.4V3.7c0-.8.6-1.4 1.4-1.4h42.4c.7-.1 1.3.6 1.3 1.4z" fill="#1a9efe"/><path d="M18.3 2.2L13 12.9v23.4l16.7-34H18.3z" opacity=".07" fill="#fff"/><path class="st6" d="M47.2 8.8c-11.8 1.9-13 11-13 11-10 .3-10.9 8-10.9 8s5.9-3.8 11.9-.4 5.2 11.1 5.2 11.1c6.3-4.8 2.8-13.1 2.8-13.1 7.2-6.8 4-16.6 4-16.6zm-5.1 10.9c-1.4.1-2.7-1-2.8-2.4-.1-1.4 1-2.7 2.4-2.8 1.4-.1 2.7 1 2.8 2.4.1 1.4-1 2.7-2.4 2.8z"/><path class="st6" d="M27 42.6l-.4-.2c-.4-.2-.5-.7-.3-1L32.2 31c.2-.4.7-.5 1-.3l.4.2c.4.2.5.7.3 1L28 42.3c-.1.4-.6.6-1 .3zm4.8-1l-.4-.2c-.4-.2-.5-.7-.3-1l3.6-6.3c.2-.4.7-.5 1-.3l.4.2c.4.2.5.7.3 1l-3.6 6.3c-.2.3-.6.5-1 .3zm-6.5-3.4l-.5-.2c-.4-.2-.5-.7-.3-1l3.6-6.3c.2-.4.7-.5 1-.3l.4.2c.4.2.5.7.3 1l-3.6 6.3c-.1.4-.6.5-.9.3zM55.6 4.7c-.1 0-.1.1-.1.1v.6c0 .1.1.1.1.1.1 0 .1-.1.1-.1v-.6s0-.1-.1-.1zm0-1.1c-.1 0-.1.1-.1.1v.6c0 .1.1.1.1.1.1 0 .1-.1.1-.1v-.6s0-.1-.1-.1zm.8.8h-.5c-.1 0-.1.1-.1.1 0 .1.1.1.1.1h.5c.1 0 .1-.1.1-.1s0-.1-.1-.1zm-1.1 0h-.5c-.1 0-.1.1-.1.1 0 .1.1.1.1.1h.5c.1 0 .1-.1.1-.1l-.1-.1z"/><path d="M67.8 19.1c-.1 0-.2-.1-.2-.2v-1c0-.1.1-.2.2-.2s.2.1.2.2v1c0 .1 0 .2-.2.2zm0 1.8c-.1 0-.2-.1-.2-.2v-1c0-.1.1-.2.2-.2s.2.1.2.2v1c0 .1 0 .2-.2.2zm1.5-1.3h-.9c-.1 0-.2-.1-.2-.2s.1-.2.2-.2h.9c.1 0 .2.1.2.2s-.1.2-.2.2zm-1.9 0h-.9c-.1 0-.2-.1-.2-.2s.1-.2.2-.2h.9c.1 0 .2.1.2.2s-.1.2-.2.2zM4.3 34.1c-.1 0-.3-.1-.3-.3v-1.2c0-.1.1-.3.3-.3.1 0 .3.1.3.3v1.2c0 .2 0 .3-.3.3zm0 2.1c-.1 0-.3-.2-.3-.3v-1.2c0-.1.1-.3.3-.3.1 0 .3.1.3.3v1.2c0 .1 0 .3-.3.3zM6 34.6H5c-.1 0-.3-.1-.3-.3 0-.1.1-.3.3-.3h1c.1 0 .3.1.3.3 0 .2-.2.3-.3.3zm-2.2 0h-1c-.1 0-.3-.1-.3-.3 0-.1.1-.3.3-.3h1c.1 0 .3.1.3.3-.1.2-.2.3-.3.3z" fill="#49b8f6"/><path class="st6" d="M51.9 35c-.5.2-.7.6-.7 1v9.6c0 2 .9 3.8 2.5 4.9l5.6 3.6c.4.2.9.2 1.3 0l5.6-3.6c1.6-1.1 2.5-2.9 2.5-4.9v-9.5c0-.4-.3-.8-.8-1-6.9-2.4-9.7-2.5-16-.1z"/><path d="M53 36.3c-.4.1-.6.5-.6.8v8.2c0 1.7.8 3.2 2.1 4.2l4.8 3.1c.3.2.8.2 1.1 0l4.8-3.1c1.3-1 2.1-2.5 2.1-4.2v-8.1c0-.4-.3-.7-.7-.9-5.8-2-8.1-2.1-13.6 0z" fill="#fcbf1e"/><linearGradient id="SVGID_1_" gradientUnits="userSpaceOnUse" x1="59.825" y1="43.736" x2="67.244" y2="43.736"><stop offset="0" stop-color="#fff"/><stop offset="1" stop-color="#fff" stop-opacity="0"/></linearGradient><path d="M66.6 36.3c-2.8-1-4.8-1.5-6.8-1.5v17.9c.2 0 .4-.1.5-.2l4.8-3.1c1.3-1 2.1-2.5 2.1-4.2v-8.1c.1-.3-.2-.7-.6-.8z" opacity=".2" fill="url(#SVGID_1_)"/><path id="check_00000034085004496673762780000012181676774947139744_" class="st6" d="M59.6 47c-.2 0-.4-.1-.6-.2l-2.6-2.6c-.4-.3-.4-.9-.1-1.2.3-.4.9-.4 1.2-.1l1.9 1.9 3.7-5.3c.3-.4.8-.5 1.2-.2.4.3.5.8.2 1.2l-4.2 6.1c-.1.2-.4.3-.7.4z"/></svg>