<svg version="1.1" id="Layer_1" xmlns="http://www.w3.org/2000/svg" x="0" y="0" viewBox="0 0 103.2 65.8" xml:space="preserve"><style>.st2{fill:#fff}.st3{fill:#c0e9fc}.st4{fill:#38b7fc}.st5{fill:#1a9efe}.st11{fill:#3a66eb}.st17{fill:#49b8f6}.st19{fill:#ffaa01}</style><g opacity=".03"><path class="st2" d="M83.5 62.7c-4.7-3.5-12.6-12.3-2.1-26.1 13-17-2.6-24-17.4-23.3-12 .6-25.4-14.5-38.9-11.8-17.9 3.6-6.3 19-18.4 27.2-10.3 7.1-5.9 28.6 7.5 33.9l69.3.1z"/><ellipse class="st2" cx="47.1" cy="63" rx="42.5" ry="2.8"/></g><path class="st3" d="M74.7 24.1v35.6l-.1.4c-.3.5-.8.9-1.4.9H18.5c-.6 0-1.2-.4-1.4-.9 0-.1-.1-.2-.1-.4V24.1c0-.5.2-1 .6-1.3.3-.2.6-.4 1-.4h54.7c.4 0 .7.1 1 .4.2.4.4.8.4 1.3z"/><path class="st4" d="M79.4 61.5c-1.2.6-2.6 1-3.9 1H16.1c-1.4 0-2.8-.3-3.9-1h67.2z"/><path class="st5" d="M72.3 24.5H19.2c-.4 0-.8.4-.8.8v32.5c0 .4.4.8.8.8h53.1c.4 0 .8-.4.8-.8V25.3c0-.5-.3-.8-.8-.8z"/><path class="st3" d="M12.2 60.1h67.2v1.5H12.2v-1.5z"/><path class="st4" d="M62.2 60.9H29.4c-1.5 0-2.7-.4-2.7-.9h38c.2.6-1.1.9-2.5.9z"/><path d="M46.2 23.7h-1.9s-.1 0-.1-.1 0-.1.1-.1h1.9c.1 0 .1 0 0 .2.1-.1.1 0 0 0z" fill="#d4edff"/><linearGradient id="SVGID_1_" gradientUnits="userSpaceOnUse" x1="169.911" y1="502.992" x2="202.082" y2="470.821" gradientTransform="rotate(9.62 2765.048 -468.166)"><stop offset="0" stop-color="#fff"/><stop offset=".194" stop-color="#fff"/><stop offset=".246" stop-color="#fffdf9"/><stop offset=".315" stop-color="#fff6e8"/><stop offset=".394" stop-color="#ffeccc"/><stop offset=".48" stop-color="#ffdea5"/><stop offset=".572" stop-color="#ffcb74"/><stop offset=".626" stop-color="#ffbf53"/><stop offset="1" stop-color="#ff7d30"/></linearGradient><path d="M82 30.4c-1.2.9-2.5 1.8-3.7 2.6-1.3.9-2.5 1.7-3.8 2.6-6 4.1-11.9 8.3-18.7 11.3-3.3 1.5-12.4 4.9-14.2.9l-.7 3.3c4.9 3.2 14.8 0 19.6-2.2 5.7-2.7 11.5-5.4 17-8.5 1.4-.7 2.7-1.5 4.1-2.3s2.7-1.5 4.1-2.4L82 30.4z" fill="url(#SVGID_1_)"/><linearGradient id="SVGID_00000176024898646379363120000000677234718860341131_" gradientUnits="userSpaceOnUse" x1="163.199" y1="495.663" x2="175.938" y2="482.924" gradientTransform="rotate(9.62 2765.048 -468.166)"><stop offset=".24" stop-color="#fff"/><stop offset=".901" stop-color="#fff" stop-opacity="0"/></linearGradient><path d="M48.6 34.8c-1.2.9-2.4 1.9-3.6 3-1.1 1.1-2.2 2.2-3.2 3.5-.5.6-.9 1.3-1.3 2s-.7 1.5-.9 2.4-.2 1.8.1 2.8c.2.5.4.9.7 1.3s.7.7 1.1 1v-3c-.2-.5-.3-1.1-.2-1.8s.3-1.3.6-2 .6-1.3 1-1.9c.8-1.3 1.7-2.4 2.8-3.6 1-1.1 2.1-2.2 3.3-3.2 2.3-2-.5-.1 2.1-1.7-2.7 1.4 0-.7-2.5 1.2z" fill="url(#SVGID_00000176024898646379363120000000677234718860341131_)"/><linearGradient id="SVGID_00000034778851162859338020000012628756435215722129_" gradientUnits="userSpaceOnUse" x1="1190.138" y1="3876.51" x2="1196.107" y2="3876.51" gradientTransform="rotate(58.666 4058.258 976.266)"><stop offset="0" stop-color="#fff"/><stop offset="1" stop-color="#64c4f4"/></linearGradient><path d="M96.7 32.4l-2.5 5.9c-.3.7-.9 1.2-1.6 1.5L85.7 42c-.2.1-.4-.1-.4-.4l1-4.9 10.4-4.3z" fill="url(#SVGID_00000034778851162859338020000012628756435215722129_)"/><linearGradient id="SVGID_00000114060746568432073470000006310482234732592552_" gradientUnits="userSpaceOnUse" x1="7185.665" y1="3876.588" x2="7191.633" y2="3876.588" gradientTransform="scale(-1 1) rotate(-58.666 125.206 8421.244)"><stop offset="0" stop-color="#64c4f4"/><stop offset="1" stop-color="#fff"/></linearGradient><path d="M90.3 21.9l-6.3-.5c-.8-.1-1.5.2-2 .8l-5.2 5.1c-.2.2-.1.5.1.5l4.8 1.4 8.6-7.3z" fill="url(#SVGID_00000114060746568432073470000006310482234732592552_)"/><path class="st11" d="M83.6 35.3l-1.9-3.1c-.4-.7-.2-1.7.5-2.1l.2-.1 3.5 5.7-.2.1c-.7.4-1.6.2-2.1-.5z"/><linearGradient id="SVGID_00000109010128472160900910000008524075707363319728_" gradientUnits="userSpaceOnUse" x1="1178.706" y1="3869.224" x2="1192.9" y2="3869.224" gradientTransform="rotate(58.666 4058.258 976.266)"><stop offset="0" stop-color="#fff"/><stop offset="1" stop-color="#64c4f4"/></linearGradient><path d="M103 21.4c-7.1-3.1-18.2-.3-21.1 7.5-.1.2-.1.5.1.7l4.1 6.8c.1.2.4.4.6.4 8.3.9 15.8-7.7 16.3-15.4z" fill="url(#SVGID_00000109010128472160900910000008524075707363319728_)"/><linearGradient id="SVGID_00000157269979789754115380000007942850290972655514_" gradientUnits="userSpaceOnUse" x1="1185.735" y1="3883.854" x2="1185.735" y2="3870.571" gradientTransform="rotate(58.666 4058.258 976.266)"><stop offset="0" stop-color="#64c4f4"/><stop offset="1" stop-color="#fff"/></linearGradient><path d="M81.5 35.6l-1.1-1.7 6.1-3.9c.7-.5 1.5-.9 2.3-1.2l3.3-1.3.3.5-2.6 2.4c-.6.6-1.4 1.1-2.1 1.5l-6.2 3.7z" fill="url(#SVGID_00000157269979789754115380000007942850290972655514_)"/><path class="st5" d="M97.6 32.4c2-2 3.6-4.5 4.5-7-.3.1-.6.3-.9.5-.8.8-1.6 1.7-2.3 2.5-.4.5-1.2.4-1.7-.2-1.2-1.6-2.2-3.2-3-5-.3-.6 0-1.4.6-1.5l3.3-.9c.3-.1.6-.3.9-.5-2.7-.4-5.6-.1-8.3.8 1.6 4.1 3.9 8 6.9 11.3z"/><path d="M92.1 21.3s0 .1 0 0c.3.4.7.6 1 .5l3.6-.9c.3-.1.6-.4.6-.7h-.2c0 .3-.2.5-.5.6l-3.6.8c-.3.1-.7-.1-.8-.4l-.2-.5h-.2l.3.6zm6 9.8c-.3-.4-.3-.8 0-1.1l2.5-2.8c.2-.3.6-.3.9-.2 0 .1-.1.1-.1.2-.2-.1-.5 0-.7.2l-2.5 2.8c-.2.2-.2.6 0 .9l.4.4-.1.1-.4-.5z" fill="#1460df"/><linearGradient id="SVGID_00000165930544058049566780000015794334476810284681_" gradientUnits="userSpaceOnUse" x1="3316.324" y1="4973.456" x2="3321.993" y2="4974.331" gradientTransform="rotate(94.892 3980.799 1020.601) scale(1.00004)"><stop offset="0" stop-color="#fff"/><stop offset="1" stop-color="#64c4f4"/></linearGradient><path d="M97.9 27c-1.6-.1-2.7-1.5-2.6-3.1s1.5-2.7 3.1-2.6c1.6.1 2.7 1.5 2.6 3.1s-1.5 2.7-3.1 2.6z" fill="url(#SVGID_00000165930544058049566780000015794334476810284681_)"/><path class="st11" d="M99.7 25.9c-1 .8-2.4.7-3.3-.3-.8-1-.7-2.4.3-3.3 1-.8 2.4-.7 3.3.3.8 1 .7 2.5-.3 3.3z"/><path class="st2" d="M99.8 23.1l-.2-.2h-.1c-.1.1-.1.2-.1.3 0 0 0 .1.1.1l.1.1h.1c.2 0 .2-.2.1-.3zm-.3.1zm-.1-.5c0-.1 0-.1 0 0-.5-.4-1.1-.5-1.6-.4-.1 0-.2.1-.2.2v.1c0 .1.1.1.2.1.4-.1.8 0 1.2.3h.1c.1 0 .1 0 .1-.1.2-.1.2-.1.2-.2z"/><path d="M99.7 25.9c.4-.3.7-.8.8-1.3-.1 0-.1.1-.2.1-.2.2-.4.4-.7.5-.3.1-.5 0-.8-.2s-.4-.7-.7-.9c-.4-.3-.9-.1-1.3-.4-.2-.1-.3-.3-.4-.5-.1-.1-.1-.3-.1-.5-.6.8-.6 2 .1 2.8.8 1.1 2.3 1.2 3.3.4z" opacity=".5" fill="#3a66eb"/><circle class="st2" cx="45.3" cy="42.1" r="10.3"/><path class="st17" d="M86.1 56.2h-.7v-.7c0-.2-.2-.4-.4-.4s-.4.2-.4.4v.7h-.7c-.2 0-.4.2-.4.4s.2.4.4.4h.7v.7c0 .2.2.4.4.4s.4-.2.4-.4V57h.7c.2 0 .4-.2.4-.4s-.2-.4-.4-.4zm-78.7-33H7v-.3c0-.1-.1-.2-.2-.2s-.2.1-.2.2v.3h-.3c-.1 0-.2.1-.2.2s.1.2.2.2h.3v.3c0 .1.1.2.2.2.2.1.2 0 .2-.1v-.3h.3c.1 0 .2-.1.2-.2.1-.2 0-.3-.1-.3z"/><path d="M18.5 24.5v29.7l15.4-29.7H18.5zm19 0L19.9 58.6h10.9l17.6-34.1H37.5z" opacity=".1" fill="#fff"/><path class="st19" d="M15.2 51.2l1 1.2c.1.1.4.2.5 0l2.9-2.6 1.2-1.1-1.5-1.7-.7.6-3.4 3c-.2.2-.2.5 0 .6z"/><path d="M18.6 47.7c.1.6.4 1.4 1 2.1l1.2-1.1-1.5-1.7-.7.7z" fill="#f88800"/><path d="M10.5 56.4c.3.3.7.3 1 .1l4.7-4.1-.9-1-4.8 4c-.3.2-.3.7 0 1zm9.7-17c-2.6 2.3-2.9 6.3-.6 8.9 2.3 2.6 6.3 2.9 8.9.6s2.9-6.3.6-8.9c-2.3-2.6-6.3-2.9-8.9-.6zm.6.7c2.2-1.9 5.6-1.7 7.5.5s1.7 5.6-.5 7.5c-2.2 1.9-5.6 1.7-7.5-.5-1.9-2.1-1.7-5.5.5-7.5z" fill="#2e3062"/><path d="M19.6 41.8c-1.3 2.6-.2 5.9 2.4 7.2.2.1.5.2.7.3.6.2 1.2.3 1.8.3.6 0 1.3-.2 1.9-.4.9-.4 1.7-1 2.3-1.9.2-.2.3-.5.4-.7 1.3-2.6.2-5.9-2.4-7.2-.3-.1-.5-.2-.8-.3-1-.3-2-.3-3-.1-.6.2-1.2.4-1.7.8s-.9.8-1.3 1.3c-.1.3-.2.5-.3.7z" opacity=".4" fill="#fff"/><g id="logo_00000036969808677920257300000010708457952394843052_"><g id="XMLID_00000131350616546097060860000004559838304066580364_"><g id="XMLID_00000096744046999267199100000013270886828857864601_"><path id="XMLID_00000036974181330839219320000014656813487167997589_" class="st5" d="M40.5 44.1h-1.1c-.5 0-1-.4-1-1v-1.2c0-.5.4-1 1-1h1.1v3.2z"/></g><g id="XMLID_00000168092119229272288910000014243129473804230539_"><g id="XMLID_00000098922009492943407420000003452301740208046742_"><path id="XMLID_00000162350104056465199610000004361943713329641349_" class="st5" d="M38.5 43.5s0-.1-.1-.2c0-.1-.1-.1-.1-.3 0 0 0-.1-.1-.2 0-.1 0-.1-.1-.2 0-.1 0-.1-.1-.2v-.2c0-.1 0-.2-.1-.2v-2.9c0-.1 0-.1.1-.2v-.1c0-.1 0-.1.1-.2 0 0 0-.1.1-.2 0 0 0-.1.1-.1v-.1c.1-.1.1-.2.1-.2l.3.1s0 .1-.1.2v3.6c0 .1 0 .1.1.2v.2c0 .1 0 .1.1.2 0 .1 0 .1.1.2 0 0 0 .1.1.1 0 .1.1.2.1.2.1.1.1.2.1.2l-.7.3z"/></g><g id="XMLID_00000036241405926246321510000004409564841002955671_"><circle id="XMLID_00000145737585710005501780000015343077073083624584_" class="st5" cx="38.6" cy="38.1" r=".5"/></g></g></g><g id="XMLID_00000040539817768664223910000001065189908968702348_"><g id="XMLID_00000032631246729815419420000006763424125481602989_"><path id="XMLID_00000047038165056548195720000012778095907060234166_" class="st5" d="M50.4 44.1h1.1c.5 0 1-.4 1-1v-1.2c0-.5-.4-1-1-1h-1.1v3.2z"/></g><g id="XMLID_00000068642141845119770200000010037384544861339315_"><g id="XMLID_00000045602587057693974480000018254358004382188171_"><path id="XMLID_00000063597638156199970580000003099765839330430625_" class="st5" d="M52.4 43.5s0-.1.1-.2c0-.1.1-.1.1-.3 0 0 0-.1.1-.2 0-.1 0-.1.1-.2 0-.1 0-.1.1-.2v-.2c0-.1 0-.2.1-.2v-2.9c0-.1 0-.1-.1-.2v-.1c0-.1 0-.1-.1-.2 0 0 0-.1-.1-.2 0 0 0-.1-.1-.1v-.1c-.1-.1-.1-.2-.1-.2l-.3.1s0 .1.1.2v3.6c0 .1 0 .1-.1.2v.2c0 .1 0 .1-.1.2 0 .1 0 .1-.1.2 0 0 0 .1-.1.1 0 .1-.1.2-.1.2-.1.1-.1.2-.1.2l.7.3z"/></g><g id="XMLID_00000102515556526098452560000011313239601920789943_"><circle id="XMLID_00000151544720571707757100000017467793649575265160_" class="st5" cx="52.3" cy="38.1" r=".5"/></g></g></g><path class="st5" d="M44 42.4c-.1.4-.4 0-.8-.1-.5-.1-.9.3-.8-.2.1-.4.5-.7 1-.6.4 0 .7.4.6.9zm4.5-.3c.1.4-.4.1-.8.2-.5.1-.8.5-.8.1-.1-.4.3-.8.7-.9.4-.1.8.2.9.6z"/><path class="st5" d="M51.2 40.9c-.4-1.1-1.4-1.9-2.6-2.1l-1-.1c-1.4-.1-2.8-.1-4.2 0l-1 .1c-1.3.1-2.3 1-2.7 2.1-.1.4-.2.8-.2 1.3l.1 1.1c0 .3.1.6.2.8.4 1 1.3 1.8 2.5 2 1.1.2 2.1.3 3.2.3s2.2-.1 3.2-.3c.7-.1 1.4-.5 1.8-1 .3-.3.5-.6.6-1 .1-.3.2-.5.2-.8l.1-1.1c0-.4 0-.9-.2-1.3zm-1.1 1.2l-.1 1c-.1.9-.7 1.6-1.6 1.7-1 .2-2 .2-3 .2s-2-.1-3-.2c-.9-.1-1.5-.9-1.6-1.7l-.1-1.1c-.1-1 .7-1.9 1.7-2l1-.1c.6-.1 1.3-.1 1.9-.1.6 0 1.3 0 1.9.1l1 .1c1.2.1 2 1 1.9 2.1z"/><path class="st5" d="M44 42.4c-.1.4-.4 0-.8-.1-.5-.1-.9.3-.8-.2.1-.4.5-.7 1-.6.4 0 .7.4.6.9zm3.7-.1c-.5.1-.8.5-.8.1-.1-.4.3-.8.7-.9.5-.1.9.2 1 .6 0 .4-.4.1-.9.2z"/><path id="XMLID_00000039096458745243983830000001972934785461371282_" class="st5" d="M44 42.4c-.1.4-.4 0-.8-.1-.5-.1-.9.3-.8-.2.1-.4.5-.7 1-.6.4 0 .7.4.6.9zm3.7-.1c-.5.1-.8.5-.8.1-.1-.4.3-.8.7-.9.5-.1.9.2 1 .6 0 .4-.4.1-.9.2z"/><path class="st5" d="M46.5 43.6c0 .3-.1.5-.3.7s-.4.3-.7.3h-.2c-.5 0-1-.4-1-1 0 0 0-.1.1-.1l.1-.1h1.7c.2.1.3.1.3.2z"/></g><path class="st2" d="M63.6 19.2c0 1-.8 1.8-1.8 1.8H31.1c-1 0-1.8-.8-1.8-1.8s.8-1.8 1.8-1.8h30.8c.9 0 1.7.8 1.7 1.8z"/><path class="st19" d="M61.8 17.4H57v3.5h4.9c1 0 1.8-.8 1.8-1.8-.1-.9-.9-1.7-1.9-1.7z"/><path class="st2" d="M60.6 19.5c-.3-.3-.4-.8 0-1.2.3-.3.8-.4 1.2 0 .3.3.4.8 0 1.2-.3.3-.9.4-1.2 0zm1-1c-.2-.2-.6-.2-.8 0s-.2.6 0 .8.6.2.8 0c.2-.2.2-.6 0-.8z"/><path class="st2" d="M59.7 20.5c-.1-.1-.1-.1 0-.2l.9-1c.1-.1.1-.1.2 0s.1.1 0 .2l-.9 1c-.1.1-.2.1-.2 0z"/><path class="st3" d="M6 59.5v-.9h-.9c0-.2-.1-.4-.2-.6l.6-.6-.7-.7-.6.6c-.2-.2-.5-.3-.8-.3v-.9h-.9v.9c-.2 0-.4.1-.5.2l-.6-.6-.7.7.6.6c-.2.2-.3.5-.3.8H.2v.9l.8-.2c.1.2.2.5.3.7l-.6.6.7.7.6-.7c.2.1.5.2.7.3v.9h.9v-1c.2-.1.4-.1.6-.3l.6.6.7-.7-.6-.6c.1-.1.1-.2.2-.4H6zm-2.3 0c-.3.3-.9.3-1.2 0s-.3-.9 0-1.2c.3-.3.9-.3 1.2 0 .3.4.3.9 0 1.2zm78.5-13.4l.1-.6-.5-.1c0-.1 0-.3-.1-.4l.4-.3-.3-.5-.4.3c-.1-.1-.3-.2-.4-.3l.1-.5-.6-.1-.1.5c-.1 0-.2 0-.3.1l-.3-.4-.5.3.3.4c-.1.1-.2.3-.3.4l-.5-.1-.1.6.5.1c0 .1 0 .3.1.4l-.4.3.3.5.4-.3c.1.1.3.2.4.2v.6l.6.1.1-.6c.1 0 .2 0 .4-.1l.3.4.5-.3-.3-.4c.1-.1.1-.2.2-.3l.4.1zm-1.4-.2c-.2.2-.6.1-.7-.1-.2-.2-.1-.6.1-.7.2-.2.6-.1.7.1.2.2.1.5-.1.7z"/><path class="st2" d="M24.5 16c.7 0 1.2.5 1.2 1.2s-.5 1.2-1.2 1.2-1.2-.5-1.2-1.2.6-1.2 1.2-1.2zm0 2c.5 0 .8-.4.8-.8 0-.5-.4-.8-.8-.8-.5 0-.8.4-.8.8s.4.8.8.8zm3.5 8.4c.1 0 .2.1.2.2v.8c0 .1-.1.2-.2.2s-.2-.1-.2-.2v-.8c0-.1.1-.2.2-.2zm0-1.5c.1 0 .2.1.2.2v.8c0 .1-.1.2-.2.2s-.2-.1-.2-.2v-.8c0-.1.1-.2.2-.2zm-1.2 1.2h.7c.1 0 .2.1.2.2s-.1.2-.2.2h-.7c-.1 0-.2-.1-.2-.2s.1-.2.2-.2zm1.6 0h.7c.1 0 .2.1.2.2s-.1.2-.2.2h-.7c-.1 0-.2-.1-.2-.2s.1-.2.2-.2z"/><path class="st17" d="M15.1 37.7c.1 0 .2.1.2.2v.8c0 .1-.1.2-.2.2s-.2-.1-.2-.2v-.8c0-.1.1-.2.2-.2zm0-1.4c.1 0 .2.1.2.2v.8c0 .1-.1.2-.2.2s-.2-.1-.2-.2v-.8c0-.1.1-.2.2-.2zm-1.2 1.1h.7c.1 0 .2.1.2.2s-.1.2-.2.2h-.7c-.1 0-.2-.1-.2-.2s.1-.2.2-.2zm1.6 0h.7c.1 0 .2.1.2.2s-.1.2-.2.2h-.7c-.1 0-.2-.1-.2-.2s.1-.2.2-.2z"/><path class="st5" d="M73.1 18.6c-1 .4-2.2-.1-2.6-1.1-.4-1 .1-2.2 1.1-2.6 1-.4 2.2.1 2.6 1.1.5.9 0 2.1-1.1 2.6z"/><path class="st2" d="M71.9 16.9l-.3-.5c0-.1 0-.1.1-.1l.6.1h.7c.1 0 .1.1.1.2l-.4.5-.4.5c0 .1-.1 0-.2 0l-.2-.7z"/></svg>