<svg version="1.1" id="Layer_1" xmlns="http://www.w3.org/2000/svg" x="0" y="0" viewBox="0 0 71.4 54.3" xml:space="preserve"><style>.st2{fill:#3b4751}.st3{fill:#8ea2b1}.st8{fill:#c0e9fc}.st9{fill:#fff}.st11{opacity:.51;fill:#e8e8f9;enable-background:new}</style><switch><g><g id="Background_00000168805351184641194850000005708190625077391244_" opacity=".1"><path id="Background_00000067945312947390889310000000808263057547135362_" class="st2" d="M52.1 3.3c8.5 2.2 12.3 9.1 7.3 20.8-3.3 7.6 2.7 19.2-7.4 22-16.4 4.5-17-7.7-30.6-9.1-13.6-1.3-15.7-25.2-2-28.9 5-1.3 6.1.1 10.5-.6 11.2-1.6 13.2-6.4 22.2-4.2z"/><path id="Background_00000075852287852246857220000018172095242145603752_" class="st2" d="M53.8 38.2s3.4 1.2 5.1 3.3c1.7 2.1 5.8 5.7-7.4 8.3-12.2 2.5-35.9 3.6-30.9-1.7S.8 47 .8 41.4c-.1-8.2 53-3.2 53-3.2z"/><path id="Background_00000167357198657047548240000008308105587395036584_" class="st2" d="M34.1 49.7s-3.1-.6-4.8-2.2c-1.7-1.5-5.7-4.1 5.3-8.2 10.2-3.7 30.8-7.7 27-2.5-3.7 5.2 8.4.2 9.1 5 1 7.2-36.6 7.9-36.6 7.9z"/></g><path id="XMLID_00000061464995436942808930000014190377716893886891_" class="st3" d="M39.3 46.1h-11l.9-8.8h9.2z"/><linearGradient id="XMLID_00000035523280629326186830000008736618840794444680_" gradientUnits="userSpaceOnUse" x1="33.811" y1="1027.071" x2="33.811" y2="1024.634" gradientTransform="translate(0 -984)"><stop offset="0" stop-color="#647e99" stop-opacity="0"/><stop offset="1" stop-color="#647e99"/></linearGradient><path id="XMLID_00000152250943623173293680000010830289422481080239_" opacity=".67" fill="url(#XMLID_00000035523280629326186830000008736618840794444680_)" d="M28.6 43.1H39l-.2-2.5h-10z"/><path id="XMLID_00000075135708969999947580000006211759878240714671_" class="st3" d="M43.6 46.5s.1 0 0 0c0-.9-.6-1.5-1.5-1.5H25.6c-.8 0-1.5.6-1.5 1.5v.1l19.5-.1z"/><path class="st3" d="M56.6 11v28.6l-.1.3c-.1.2-.2.3-.4.5s-.4.2-.5.2H11.4c-.5 0-.9-.3-1.2-.7 0-.1-.1-.2-.1-.3-.1 0-.1-.2-.1-.2V11c0-.4.2-.8.5-1 .2-.2.5-.3.9-.3h44c.3 0 .5.1.8.3.3.2.4.6.4 1z"/><path d="M55.3 11.9v26.2c0 .3-.3.6-.6.6H11.9c-.3 0-.6-.3-.6-.6V11.9c0-.3.3-.6.6-.6h42.8c.4 0 .6.2.6.6z" fill="#647e99"/><path class="st3" d="M56.5 39.9c-.1.2-.2.3-.3.5-.2.2-.4.2-.5.2H11.4c-.5 0-.9-.3-1.2-.7h46.3z"/><path d="M33.7 10.6h-1.5s-.1 0-.1-.1c0 0 0-.1.1-.1h1.5c0 .1.1.1 0 .2.1 0 0 0 0 0z" fill="#4e7fb0"/><path d="M26.6 11.3L12.4 38.7h8.8l14.3-27.4h-8.9zm-14.7 0c-.3 0-.6.3-.6.6v23.3l12.4-23.9H11.9z" opacity=".1" fill="#fff"/><g id="time_line_00000101094105295449229960000003764044998520669106_"><path class="st8" d="M49.7 35.2h-33c-.2 0-.2-.1-.2-.2 0-.2.1-.2.2-.2h33c.2 0 .2.1.2.2s-.2.2-.2.2z"/><circle class="st8" cx="50" cy="34.9" r=".4"/><path class="st8" d="M45.5 36v1.5h1.9V36h-1.9zm1.7 1.3h-1.5v-.9h1.5v.9zm1.2-1.3v.5h.2v-.3h.4V36h-.6zm1.4 0v.2h.3v.3h.2V36h-.5zm-1.2 1.3V37h-.2v.5h.5v-.2h-.3zm1.5-.3v.3h-.3v.2h.5V37h-.2zm-5.3 0v-.2h-.2c0-.1 0-.2-.1-.2l.2-.2-.2-.2-.2.2c-.1-.1-.2-.1-.2-.1v-.2h-.2v.2c-.1 0-.1 0-.2.1l-.2-.2h-.2l.2.2c-.1.1-.1.2-.1.2h-.2v.2h.2c0 .1.1.2.1.2l-.2.2.2.2.2-.2c.1 0 .2.1.2.1v.2h.2v-.2c.1 0 .1-.1.2-.1l.2.2.2-.2-.2-.2c0-.1.1-.1.1-.2l.2.2zm-.6 0h-.3c-.1-.1-.1-.2 0-.3.1-.1.2-.1.3 0s.1.2 0 .3zm-21.6.2h-.3c-.1 0-.1-.1-.1-.1v-.5c0-.1.1-.1.1-.1h.3l.5-.4h.1v1.5s0 .1-.1.1l-.5-.5zm1.2.4l-.2-.2c.2-.2.2-.4.2-.6s-.1-.5-.3-.6l.2-.2c.2.2.3.5.3.8.1.3 0 .6-.2.8zm-.3-.3l-.2-.2c.1-.1.2-.2.2-.3 0-.2-.1-.2-.2-.3l.2-.2c.2.1.2.2.2.5-.1.2-.2.4-.2.5zm-3.2 0v-1.1l.7.4v-.4h.2v1.1H21v-.4zm-3.2 0v-1.1l-.7.4v-.4h-.1v1.1h.1v-.4zm2.4-.6l-1.1-.7h-.1v1.7l1.2-1c.1.1.1.1 0 0 .1 0 .1 0 0 0z"/></g><path class="st9" d="M33.6 19.1c-3.2 0-5.8 2.6-5.8 5.8s2.6 5.8 5.8 5.8c3.2 0 5.8-2.6 5.8-5.8s-2.5-5.8-5.8-5.8z"/><path d="M36.6 24.9L32.3 22c-.1-.1-.1-.1-.2 0s-.1.1-.1.2V28c0 .1.1.1.1.2h.1c.1 0 .1 0 .1-.1l4.3-2.9v-.3c0-.1.1 0 0 0z" fill="#fcbf1e"/><path class="st9" d="M14.5 13.3c.1 0 .2.1.2.2v.7c0 .1-.1.2-.2.2s-.2-.1-.2-.2v-.7c0-.2.1-.2.2-.2zm0-1.4c.1 0 .2.1.2.2v.7c0 .1-.1.2-.2.2s-.2-.1-.2-.2v-.7c0-.1.1-.2.2-.2zm-1 1h.6c.1 0 .2.1.2.2s-.1.2-.2.2h-.6c-.1 0-.2-.1-.2-.2s0-.2.2-.2zm1.4 0h.6c.1 0 .2.1.2.2s-.1.2-.2.2h-.6c-.1 0-.2-.1-.2-.2-.1-.1 0-.2.2-.2z"/><circle class="st11" cx="49" cy="12.9" r=".6"/><circle class="st11" cx="51" cy="12.9" r=".6"/><circle class="st11" cx="53.1" cy="12.9" r=".6"/><path class="st9" d="M48.7 8.1c-.1 0-.1.1 0 0l-.1.5c0 .1.1.1.1.1.1 0 .1-.1.1-.1l-.1-.5zm0-.8c-.1 0-.1.1 0 0l-.1.5c0 .1.1.1.1.1.1 0 .1-.1.1-.1l-.1-.5c.1 0 0 0 0 0zm.6.6h-.5c-.1 0-.1.1-.1.1 0 .1.1.2.2.2h.5c.1 0 .1-.1.1-.1-.1-.1-.1-.2-.2-.2zm-.9 0H48c-.1 0-.1.1-.1.1-.1.1 0 .2.1.2h.5c.1 0 .1-.1.1-.1 0-.1-.1-.2-.2-.2z"/><path d="M60.6 23.7c-.1 0-.2-.1-.2-.2v-.9c0-.1.1-.2.2-.2s.2.1.2.2v.9c-.1.1-.1.2-.2.2zm0 1.5c-.1 0-.2-.1-.2-.2v-.9c0-.1.1-.2.2-.2s.2.1.2.2v.9c-.1.1-.1.2-.2.2zm1.1-1.1H61c-.1 0-.2-.1-.2-.2s.1-.2.2-.2h.7c.1 0 .2.1.2.2 0 0-.1.2-.2.2zm-1.5 0h-.7c-.1 0-.2-.1-.2-.2s.1-.2.2-.2h.7c.1 0 .2.1.2.2-.1 0-.1.2-.2.2zm-49 20c-.1 0-.2-.1-.2-.2V43c0-.1.1-.2.2-.2s.2.1.2.2v.9c.1.1.1.2-.2.2zm0 1.7c-.1 0-.2-.1-.2-.2v-.9c0-.1.1-.2.2-.2s.2.1.2.2v.9c.1.1.1.2-.2.2zm1.4-1.3h-.9c-.1 0-.2-.1-.2-.2 0-.2.1-.2.2-.2h.9c.1 0 .2.1.2.2.1.2-.1.2-.2.2zm-1.8 0H10c-.1 0-.2-.1-.2-.2 0-.2.1-.2.2-.2h.9c.1 0 .2.1.2.2s-.2.2-.3.2z" fill="#49b8f6"/></g></switch></svg>