<svg version="1.1" id="Layer_1" xmlns="http://www.w3.org/2000/svg" x="0" y="0" viewBox="0 0 103.2 58" xml:space="preserve"><style>.st1{fill:#3b4751}.st3{fill:#647e99}.st4{fill:#fff}.st7{fill:#8ea2b1}.st15{fill:#ff4c64}.st16{fill:#f991a2}.st17{fill:#0081ff}</style><g opacity=".1"><path class="st1" d="M17.9 45.7c0-.3-8.4-11.1 1.4-21.1 4.4-4.4 11.9 2.4 10.6-10.7-1-11.4 17.5-18 26.7-10.4C64 9.7 64-.8 75.3 4.2s3.8 18.4 8.5 19.7c9.1 2.5 16.3 10.8 8.9 19l-74.8 2.8z"/><path id="Background_00000094586224586817018130000016510999554740228271_" class="st1" d="M67.7 35.5s3.9 1 6.2 3.1c2.2 2.1 7.2 5.6-7.4 10.4C53 53.4 25.9 57.5 31 50.9S8.2 52.1 7.5 45.6c-1-9.3 60.2-10.1 60.2-10.1z"/><path id="Background_00000156563434231552827990000007615738139144793779_" class="st1" d="M32.4 44.8s-3.7 1.9-5.3 4.4c-1.6 2.6-5.7 7.1 9.6 8.5 14.2 1.2 41.4-.8 34.9-6-6.4-5.3 22.4-3.9 21.7-10.3-1.1-9.3-60.9 3.4-60.9 3.4z"/></g><path d="M40.9 20.3h20.5v20.5H40.9V20.3z" fill="none"/><path class="st3" d="M68.2 31c-.8 6.5-5.6 11.8-11.8 13.4-.3.1-.5.3-.7.4l-2.8 3.8c-.1.2-.3.2-.5 0l-3.1-3.8c-.2-.3-.4-.3-.7-.4-6.8-1.7-12-8-12-15.4 0-8.2 6.2-15.1 14.4-15.8 10.6-.9 18.6 7.2 17.2 17.8z"/><path class="st4" d="M58.8 33.5v3c0 .4-.3.9-.8.9h-.9c-7.5 0-13.7-6.1-13.7-13.7v-.9c0-.4.4-.8.9-.8h3c.3 0 .4.2.4.3 0 .2 0 .3.1.4.2 1.2.5 2.3 1 3.4.1.2 0 .3-.1.5L46.9 28c1.1 2.7 3.2 4.7 5.8 5.8L54 32c.1-.2.3-.2.5-.1 1.1.5 2.2.9 3.4 1 .1 0 .3 0 .4.1.3.2.5.3.5.5z"/><g opacity=".71"><path class="st4" d="M51.7 25.8c0 .2.1.3.3.4 1.3.4 2.4 1.5 2.9 2.7.1.2.3.3.4.3.3 0 .6-.3.4-.6-.6-1.5-1.9-2.7-3.4-3.2-.3-.2-.6.1-.6.4zm0-3c0 .3.2.4.4.5 2.8.6 5 2.8 5.7 5.6.1.3.3.3.4.3.3 0 .6-.3.5-.6-.8-3.2-3.3-5.6-6.5-6.3-.1 0-.4.2-.5.5z"/><path class="st4" d="M51.8 19.9c0 .3.2.5.4.6 4.3.8 7.7 4.1 8.5 8.4.1.3.3.4.5.4.3 0 .6-.3.6-.7-.9-4.7-4.6-8.5-9.3-9.3-.4 0-.7.3-.7.6z"/></g><path d="M77.1 29.6c0 12.1-8.8 22.2-20.4 24.1-1.3.2-2.6.3-3.9.3-.8 0-1.5 0-2.2-.1-.1-.2-.1-.4-.1-.6v-.2H52c1.6 0 3.3-.2 4.8-.4 11.1-2.2 19.7-12.1 19.7-24 0-6.4-2.5-12.3-6.5-16.7 4.2 4.5 7.1 10.6 7.1 17.6z" fill="#8da1b0"/><path class="st7" d="M72.9 14.8L71.5 16C67 10.6 60.3 7.1 52.6 7.1c-7.5 0-14.4 3.4-18.9 8.9l-1.3-1.5C37 8.6 44.3 4.8 52.5 4.8c8.4-.1 15.8 3.8 20.4 10z"/><path class="st3" d="M52.5 3.6c-7.1 0-13.6 2.8-18.3 7.4l2.7 2.8c3.9-3.9 9.4-6.4 15.6-6.4S64 9.8 68.1 13.7l2.8-2.8c-4.7-4.4-11.2-7.3-18.4-7.3z"/><g id="speaker_00000055695185362675903070000017123157586558206884_"><path class="st3" d="M71.1 15.6c.1-.3.4-1 1.4-1.5 0 0 2.7 1.7 4.4 6.8.6 1.8.9 3.5 1 5 .3 2.3 0 4.6-.6 6.8-.1.3-.2.4-.2.6-.2.4-.6.7-1 .5H76c-.3-.2-.6 0-.6.3s0 .7-.6.8c0 0-.3 0-.4-.3 0-.2-.2-.2-.4-.2-.3 0-.5.1-.7.3-.3.3-1 .7-2-.1 0 0-.8-.6-.7-2.5.1-1.5 0-5.6 0-7.1 0-.7.2-1.3.7-1.7.4-.4 1.1-.8 2-.2 0 0 .8-.4 1.1.3 0 0 .3.2.3-.3s-.9-3.3-3.3-7c-.3-.2-.4-.4-.3-.5z"/><path class="st7" d="M73.1 23.2s.7 6.2.2 11c0 .3.2.6.4.6.3.1.5 0 .7-.4.5-.9.3-10.5 0-11 0 0-.1-.7-.8-.6-.5 0-.5.4-.5.4z"/></g><g id="speaker_00000110472525598145833330000009849397048782395819_"><path class="st3" d="M33.9 15.6c-.1-.3-.4-1-1.4-1.5 0 0-2.7 1.7-4.4 6.8-.6 1.8-.9 3.5-1 5-.3 2.3 0 4.6.6 6.8.1.3.2.4.2.6.2.4.6.7 1 .5h.1c.3-.2.6 0 .6.3s0 .7.6.8c0 0 .3 0 .4-.3 0-.2.2-.2.4-.2.3 0 .5.1.7.3.3.3 1 .7 2-.1 0 0 .8-.6.7-2.5-.1-1.5 0-5.6 0-7.1 0-.7-.2-1.3-.7-1.7-.4-.4-1.1-.8-2-.2 0 0-.8-.4-1.1.3 0 0-.3.2-.3-.3s.9-3.3 3.3-7c.3-.2.3-.4.3-.5z"/><path class="st7" d="M31.9 23.2s-.7 6.2-.2 11c0 .3-.2.6-.4.6-.3.1-.5 0-.7-.4-.5-.9-.3-10.5 0-11 0 0 .1-.7.8-.6.5 0 .5.4.5.4z"/></g><path class="st3" d="M56.5 53.4v.4c-.1.4-.3.8-.5 1-.3.3-.9.6-1.5.6h-2.2c-.9 0-1.6-.6-2-1.4-.1-.2-.1-.4-.1-.6v-.2c.1-.5.3-.9.6-1.2s.9-.6 1.5-.6h2.1c.9 0 1.6.6 2 1.4.1.1.1.4.1.6z"/><path d="M67.8 28.6v.9c-.5-8.6-7.5-15.4-16.3-15.4-.5 0-1.1 0-1.6.1 1-.3 2.1-.3 3.2-.3 8.1-.1 14.7 6.5 14.7 14.7z" opacity=".3" fill="#fff"/><path class="st15" d="M88.4 19.9H81c-2 0-3.6-1.6-3.6-3.6s1.6-3.6 3.6-3.6h7.4c2 0 3.6 1.6 3.6 3.6-.1 2.1-1.6 3.6-3.6 3.6z"/><path class="st15" d="M81.1 19.7l-2.2 1.9v-3.1z"/><path class="st16" d="M80.4 15.4h5.8c.3 0 .4-.2.4-.4 0-.3-.2-.4-.4-.4h-5.8c-.3 0-.4.2-.4.4-.1.2.1.4.4.4zm-.4 1.3h5.9c.1 0 .2-.1.2-.2s-.1-.2-.2-.2H80c-.1 0-.2.1-.2.2.1.2.1.2.2.2zm6.9 0h2.2c.1 0 .2-.1.2-.2s-.1-.2-.2-.2h-2.2c-.1 0-.2.1-.2.2 0 .2.1.2.2.2zM80 18.2h9.2c.1 0 .2-.1.2-.2s-.1-.2-.2-.2H80c-.1 0-.2.1-.2.2.1.1.1.2.2.2z"/><path class="st15" d="M20.7 46.6h16.9c1.4 0 2.5-1.1 2.5-2.5s-1.1-2.5-2.5-2.5H20.7c-1.4 0-2.5 1.1-2.5 2.5.1 1.4 1.2 2.5 2.5 2.5z"/><path class="st15" d="M33.9 46.1l3.4 2.9v-4.7z"/><path class="st16" d="M23.1 43.8l.6.1c.1 0 .1.1 0 .1l-.4.4v.1l.1.6c0 .1-.1.1-.1.1l-.5-.3h-.1l-.5.3c-.1 0-.1 0-.1-.1l.1-.6v-.1l-.4-.4v-.1l.6-.1h.1l.3-.5c0-.1.1-.1.1 0l.2.5zm3.1 0l.6.1c.1 0 .1.1 0 .1l-.4.4v.1l.1.6c0 .1-.1.1-.1.1l-.5-.3h-.1l-.5.3c-.1 0-.1 0-.1-.1l.1-.6v-.1l-.4-.4v-.1l.6-.1h.1l.3-.5c0-.1.1-.1.1 0l.2.5zm3.2 0l.6.1c.1 0 .1.1 0 .1l-.4.4v.1l.1.6c0 .1-.1.1-.1.1l-.6-.3h-.1l-.5.3c-.1 0-.1 0-.1-.1l.1-.6v-.1l-.4-.5v-.1l.6-.1h.1l.3-.5c0-.1.1-.1.1 0l.3.6zm3.1 0l.6.1c.1 0 .1.1 0 .1l-.4.4v.1l.1.6c0 .1-.1.1-.1.1l-.5-.3h-.1l-.5.3c-.1 0-.1 0-.1-.1l.1-.6v-.1l-.4-.4v-.1l.6-.1h.1l.3-.5c0-.1.1-.1.1 0l.2.5zm3.2 0l.6.1c.1 0 .1.1 0 .1l-.4.4v.1l.1.6c0 .1-.1.1-.1.1l-.5-.3h-.1l-.5.3c-.1 0-.1 0-.1-.1l.1-.6v-.1l-.4-.4v-.1l.6-.1h.1l.3-.5c0-.1.1-.1.1 0l.2.5c-.1 0 0 0 0 0z"/><path class="st16" d="M35.8 43.9l.6.1-.1-.1h-.5zm-.3 1l.4.3-.4-.3zm-.7.2l.1-.6v-.1l-.5-.4v-.1l.6-.1h.1l.3-.5c0-.1-.1-.1-.1 0l-.3.5h-.1l-.6.1c-.1 0-.1.1 0 .1l.4.4v.1l.1.6c-.1 0-.1 0 0 0z"/><path class="st4" d="M47.8 16.1c.1 0 .2.1.2.2v.7c0 .1-.1.2-.2.2s-.2-.1-.2-.2v-.8c0-.1.1-.1.2-.1zm0-1.4c.1 0 .2.1.2.2v.8c0 .1-.1.2-.2.2s-.2-.1-.2-.2v-.8c0-.1.1-.2.2-.2zm-1.1 1h.7c.1 0 .2.1.2.2s-.1.2-.2.2h-.7c-.1 0-.2-.1-.2-.2l.2-.2zm1.5 0h.7c.1 0 .2.1.2.2s-.1.2-.2.2h-.7c-.1 0-.2-.1-.2-.2s.1-.2.2-.2z"/><path class="st17" d="M23.7 36.3c.1 0 .2.1.2.2v.8c0 .1-.1.2-.2.2s-.2-.1-.2-.2v-.8c0-.1 0-.2.2-.2zm0-1.3c.1 0 .2.1.2.2v.8c0 .1-.1.2-.2.2s-.2-.1-.2-.2v-.8c0-.1 0-.2.2-.2z"/><path class="st17" d="M22.5 36h.7c.1 0 .2.1.2.2s-.1.2-.2.2h-.7c-.1 0-.2-.1-.2-.2l.2-.2zm1.5 0h.7c.1 0 .2.1.2.2s-.1.2-.2.2H24c-.1 0-.2-.1-.2-.2s.1-.2.2-.2z"/><path class="st4" d="M43.1 46.9c.6 0 1.1.5 1.1 1.1s-.5 1.1-1.1 1.1S42 48.6 42 48s.5-1.1 1.1-1.1zm0 1.8c.4 0 .8-.3.8-.8s-.3-.8-.8-.8-.8.3-.8.8.3.8.8.8z"/><circle cx="20.3" cy="25.8" r="3.9" fill="#a5e0f9"/><path d="M19.2 24.7c.3 0 .5.2.7.4h.1c-.1-.4-.4-.8-.8-.8s-.7.3-.8.8c0 .1.1.1.1 0 .1-.2.4-.4.7-.4zm2.3 0c.3 0 .5.2.7.4h.1c-.1-.4-.4-.8-.8-.8-.3 0-.7.3-.8.8 0 .1.1.1.1 0 .2-.2.5-.4.7-.4zm-3.8 1.5c1.3 1.2 3.3 1.4 4.8.3.8-.7.3 0 0 .3-1.2 1.5-4.2 1.1-4.8-.6z" fill="#03426d"/></svg>