<?xml version="1.0" encoding="utf-8"?>
<!-- Generator: Adobe Illustrator 26.0.1, SVG Export Plug-In . SVG Version: 6.00 Build 0)  -->
<svg version="1.1" id="Layer_1" xmlns="http://www.w3.org/2000/svg" xmlns:xlink="http://www.w3.org/1999/xlink" x="0px" y="0px"
	 viewBox="0 0 103.2 60.4" style="enable-background:new 0 0 103.2 60.4;" xml:space="preserve">
<style type="text/css">
	.st0{opacity:7.000000e-02;}
	.st1{fill:#1047C4;}
	.st2{fill:#1A9EFE;}
	.st3{opacity:0.1;fill:#FFFFFF;enable-background:new    ;}
	.st4{opacity:0.51;fill:#E8E8F9;enable-background:new    ;}
	.st5{fill:#FFFFFF;}
	.st6{fill:#C7EAFF;}
	.st7{fill:#FCBF1E;}
	.st8{opacity:0.5;fill:#FCBF1E;enable-background:new    ;}
	.st9{fill:#49B8F6;}
	.st10{fill:#E8E8F9;}
	.st11{fill:#39BDFC;}
</style>
<g>
	<g id="bg" class="st0">
		<ellipse class="st1" cx="51.6" cy="55.7" rx="51.5" ry="3.4"/>
		<path class="st1" d="M7.8,55.2c0-0.4-9.2-13.2,2.5-24.2c5.3-5,13.6,3.3,12.7-11.9C22.3,6,43.9-0.9,54,8.4
			c8.2,7.5,8.7-4.6,21.5,1.6s3.7,21.3,8.9,23C95,36.2,102.8,46.1,94,55.2H7.8z"/>
		<path class="st1" d="M91.5,37.1c0-0.3,6.7-8.7-0.9-16.6c-3.5-3.6-9.4,1.8-8.3-8.5c0.9-8.9-13.6-14.3-20.8-8.3
			c-5.8,4.9-5.8-3.4-14.7,0.4S43.6,18.5,40,19.5c-7.2,1.9-12.8,8.4-7.2,14.8L91.5,37.1z"/>
	</g>
	<path class="st2" d="M84.5,8.4v1.8H22.1c-0.5,0-0.9,0.4-0.9,0.9v37.6h-1.9c-0.5,0-0.9-0.4-0.9-0.9V8.3c0-0.5,0.4-0.9,0.9-0.9h64.3
		C84.1,7.4,84.5,7.8,84.5,8.4z"/>
	<path class="st2" d="M80.3,4.2V6H18c-0.5,0-0.9,0.4-0.9,0.9v37.6h-1.9c-0.5,0-0.9-0.4-0.9-0.9V4.2c0-0.5,0.4-0.9,0.9-0.9h64.3
		C79.9,3.2,80.3,3.7,80.3,4.2z"/>
	<path class="st2" d="M88,11.7H23.7c-0.5,0-0.9,0.4-0.9,0.9V52c0,0.5,0.4,0.9,0.9,0.9H88c0.5,0,0.9-0.4,0.9-0.9V12.7
		C88.9,12.2,88.5,11.7,88,11.7z"/>
	<path id="fade" class="st3" d="M22.8,11.7v36l18.6-36C41.4,11.7,22.8,11.7,22.8,11.7z M45.8,11.7L24.5,53h13.2l21.4-41.3H45.8z"/>
	<g id="controller">
		<circle class="st4" cx="80.4" cy="13.9" r="0.9"/>
		<circle class="st4" cx="83.2" cy="13.9" r="0.9"/>
		<circle class="st4" cx="85.9" cy="13.9" r="0.9"/>
	</g>
	<g id="XMLID_00000119809188221283200040000000402658516248928908_">
		<g id="XMLID_00000180339842150652879140000016000502548915319727_">
			<path id="XMLID_00000010996104151136746280000017248758878895095690_" class="st5" d="M52.6,40.5H43c-1,0-1.8-0.8-1.8-1.8v-7.6
				c0-1,0.8-1.8,1.8-1.8h9.7c1,0,1.8,0.8,1.8,1.8v7.6C54.4,39.7,53.6,40.5,52.6,40.5z"/>
			<path id="XMLID_00000042004179133223771320000018276733242821549751_" class="st5" d="M53.1,31.4H42.5v-4.5
				c0-2.9,2.4-5.3,5.3-5.3c2.9,0,5.3,2.4,5.3,5.3V31.4z M44,29.8h7.6v-3c0-2.1-1.7-3.8-3.8-3.8S44,24.7,44,26.8V29.8z"/>
			<path id="XMLID_00000047748421926654971930000016771307128213838750_" class="st2" d="M49.4,33.8c0-0.9-0.7-1.6-1.6-1.6
				s-1.6,0.7-1.6,1.6c0,0.7,0.4,1.2,1,1.5v1.6c0,0.3,0.3,0.6,0.6,0.6s0.6-0.3,0.6-0.6v-1.7C49,35,49.4,34.4,49.4,33.8z"/>
		</g>
		<g id="XMLID_00000155857658108768232030000003248493401907683747_">
			<path id="XMLID_00000093876258910100606370000012065318672854960268_" class="st6" d="M69.2,33.9H53.4c-1,0-1.8-0.8-1.8-1.8l0,0
				c0-1,0.8-1.8,1.8-1.8h15.9c1,0,1.8,0.8,1.8,1.8l0,0C71,33.1,70.2,33.9,69.2,33.9z"/>
			<path id="XMLID_00000164487364452309667520000014771666546603696304_" class="st6" d="M69.2,38.4H53.4c-1,0-1.8-0.8-1.8-1.8l0,0
				c0-1,0.8-1.8,1.8-1.8h15.9c1,0,1.8,0.8,1.8,1.8l0,0C71,37.6,70.2,38.4,69.2,38.4z"/>
			<g id="XMLID_00000145048124013116931670000009566603118946009733_">
				<path id="XMLID_00000021087994670582349320000004171662710617497529_" class="st2" d="M56.8,32h-0.3l0.2-0.2
					c0.1-0.1,0.1-0.2,0-0.2c-0.1-0.1-0.2-0.1-0.2,0l-0.2,0.2v-0.3c0-0.1-0.1-0.2-0.2-0.2c-0.1,0-0.2,0.1-0.2,0.2v0.3l-0.2-0.2
					c-0.1-0.1-0.2-0.1-0.2,0c-0.1,0.1-0.1,0.2,0,0.2l0.2,0.2h-0.3c-0.1,0-0.2,0.1-0.2,0.2c0,0.1,0.1,0.2,0.2,0.2h0.3l-0.2,0.2
					c-0.1,0.1-0.1,0.2,0,0.2h0.1h0.1l0.2-0.2v0.3c0,0.1,0.1,0.2,0.2,0.2c0.1,0,0.2-0.1,0.2-0.2v-0.3l0.2,0.2h0.1h0.1
					c0.1-0.1,0.1-0.2,0-0.2l-0.2-0.2h0.3c0.1,0,0.2-0.1,0.2-0.2C57,32.1,56.9,32,56.8,32z"/>
				<path id="XMLID_00000113319137916824730520000008743173366901226938_" class="st2" d="M58.9,32h-0.3l0.2-0.2
					c0.1-0.1,0.1-0.2,0-0.2c-0.1-0.1-0.2-0.1-0.2,0l-0.2,0.2v-0.3c0-0.1-0.1-0.2-0.2-0.2c-0.1,0-0.2,0.1-0.2,0.2v0.3l-0.2-0.2
					c-0.1-0.1-0.2-0.1-0.2,0c-0.1,0.1-0.1,0.2,0,0.2l0.2,0.2h-0.3c-0.1,0-0.2,0.1-0.2,0.2c0,0.1,0.1,0.2,0.2,0.2h0.3l-0.2,0.2
					c-0.1,0.1-0.1,0.2,0,0.2h0.1h0.1l0.2-0.2v0.3c0,0.1,0.1,0.2,0.2,0.2c0.1,0,0.2-0.1,0.2-0.2v-0.3l0.2,0.2h0.1h0.1
					c0.1-0.1,0.1-0.2,0-0.2l-0.2-0.2h0.3c0.1,0,0.2-0.1,0.2-0.2C59,32.1,58.9,32,58.9,32z"/>
				<path id="XMLID_00000178915308547638482670000002890930821961717687_" class="st2" d="M60.9,32h-0.3l0.2-0.2
					c0.1-0.1,0.1-0.2,0-0.2c-0.1-0.1-0.2-0.1-0.2,0l-0.2,0.2v-0.3c0-0.1-0.1-0.2-0.2-0.2c-0.1,0-0.2,0.1-0.2,0.2v0.3l-0.2-0.2
					c-0.1-0.1-0.2-0.1-0.2,0c-0.1,0.1-0.1,0.2,0,0.2l0.2,0.2h-0.3c-0.1,0-0.2,0.1-0.2,0.2c0,0.1,0.1,0.2,0.2,0.2h0.3l-0.2,0.2
					c-0.1,0.1-0.1,0.2,0,0.2h0.1h0.1l0.2-0.2v0.3c0,0.1,0.1,0.2,0.2,0.2c0.1,0,0.2-0.1,0.2-0.2v-0.3l0.2,0.2h0.1h0.1
					c0.1-0.1,0.1-0.2,0-0.2l-0.2-0.2h0.3c0.1,0,0.2-0.1,0.2-0.2C61.1,32.1,61,32,60.9,32z"/>
				<path id="XMLID_00000103969592203486864420000017523227163708104364_" class="st2" d="M63,32h-0.3l0.2-0.2
					c0.1-0.1,0.1-0.2,0-0.2c-0.1-0.1-0.2-0.1-0.2,0l-0.2,0.2v-0.3c0-0.1-0.1-0.2-0.2-0.2c-0.1,0-0.2,0.1-0.2,0.2v0.3L62,31.6
					c-0.1-0.1-0.2-0.1-0.2,0c-0.1,0.1-0.1,0.2,0,0.2L62,32h-0.3c-0.1,0-0.2,0.1-0.2,0.2c0,0.1,0.1,0.2,0.2,0.2H62l-0.2,0.2
					c-0.1,0.1-0.1,0.2,0,0.2h0.1H62l0.2-0.2v0.3c0,0.1,0.1,0.2,0.2,0.2c0.1,0,0.2-0.1,0.2-0.2v-0.3l0.2,0.2h0.1H63
					c0.1-0.1,0.1-0.2,0-0.2l-0.2-0.2H63c0.1,0,0.2-0.1,0.2-0.2C63.1,32.1,63.1,32,63,32z"/>
				<path id="XMLID_00000134220305866181580310000009605649581613713050_" class="st2" d="M65,32h-0.3l0.2-0.2
					c0.1-0.1,0.1-0.2,0-0.2c-0.1-0.1-0.2-0.1-0.2,0l-0.2,0.2v-0.3c0-0.1-0.1-0.2-0.2-0.2s-0.2,0.1-0.2,0.2v0.3L64,31.6
					c-0.1-0.1-0.2-0.1-0.2,0c-0.1,0.1-0.1,0.2,0,0.2L64,32h-0.3c-0.1,0-0.2,0.1-0.2,0.2c0,0.1,0.1,0.2,0.2,0.2H64l-0.2,0.2
					c-0.1,0.1-0.1,0.2,0,0.2h0.1H64l0.2-0.2v0.3c0,0.1,0.1,0.2,0.2,0.2s0.2-0.1,0.2-0.2v-0.3l0.2,0.2h0.1H65c0.1-0.1,0.1-0.2,0-0.2
					l-0.2-0.2H65c0.1,0,0.2-0.1,0.2-0.2S65.1,32,65,32z"/>
				<path id="XMLID_00000084498947720087362060000003408044416954497184_" class="st2" d="M67.1,32h-0.3l0.2-0.2
					c0.1-0.1,0.1-0.2,0-0.2c-0.1-0.1-0.2-0.1-0.2,0l-0.2,0.2v-0.3c0-0.1-0.1-0.2-0.2-0.2s-0.2,0.1-0.2,0.2v0.3L66,31.6
					c-0.1-0.1-0.2-0.1-0.2,0c-0.1,0.1-0.1,0.2,0,0.2L66,32h-0.3c-0.1,0-0.2,0.1-0.2,0.2c0,0.1,0.1,0.2,0.2,0.2H66l-0.2,0.2
					c-0.1,0.1-0.1,0.2,0,0.2h0.1H66l0.2-0.2v0.3c0,0.1,0.1,0.2,0.2,0.2s0.2-0.1,0.2-0.2v-0.3l0.2,0.2h0.1H67c0.1-0.1,0.1-0.2,0-0.2
					l-0.2-0.2h0.3c0.1,0,0.2-0.1,0.2-0.2C67.3,32.1,67.2,32,67.1,32z"/>
			</g>
		</g>
	</g>
	<g id="XMLID_00000140718913450284248170000010066613127202982039_">
		<path id="XMLID_00000065763474376711707970000005226649681430803115_" class="st7" d="M35.5,40.5l-11,9.2l-2-2.4l11-9.2
			c0.7-0.5,1.6-0.5,2.2,0.2l0,0C36.2,39,36.2,39.9,35.5,40.5z"/>
		<path id="XMLID_00000183949395521588821850000000155509069112389000_" class="st7" d="M34.7,39.8l-10.9,9.1l-0.7-0.8L34,39
			c0.2-0.2,0.6-0.2,0.8,0.1l0,0C35,39.3,35,39.6,34.7,39.8z"/>
		<path id="XMLID_00000086664701224935476300000009241729726260343480_" class="st7" d="M19.3,45c-2.3,1.9-2.6,5.3-0.7,7.6
			c1.9,2.3,5.3,2.6,7.6,0.7s2.6-5.3,0.7-7.6S21.6,43.1,19.3,45z M22.4,49.4c0.3,0.4,0.3,1-0.1,1.4s-1,0.3-1.4-0.1s-0.3-1,0.1-1.4
			S22.1,48.9,22.4,49.4z"/>
		<path id="XMLID_00000167386159403714870870000010340496048753355939_" class="st7" d="M20.4,46.3c-1.6,1.3-1.8,3.6-0.5,5.2
			s3.6,1.8,5.2,0.5c1.6-1.3,1.8-3.6,0.5-5.2C24.2,45.2,21.9,45,20.4,46.3z M22.3,50.8c-0.4,0.4-1,0.3-1.4-0.1s-0.3-1,0.1-1.4
			s1-0.3,1.4,0.1S22.7,50.4,22.3,50.8z"/>
		<path id="XMLID_00000163041245699077377240000010635392128207953572_" class="st8" d="M20.4,46.3c-1.6,1.3-1.8,3.6-0.5,5.2
			s3.6,1.8,5.2,0.5c1.6-1.3,1.8-3.6,0.5-5.2C24.2,45.2,21.9,45,20.4,46.3z M24.8,51.6c-1.4,1.2-3.5,1-4.6-0.4
			c-1.2-1.4-1-3.5,0.4-4.6c1.4-1.2,3.5-1,4.6,0.4C26.4,48.4,26.2,50.5,24.8,51.6z"/>
		<path id="XMLID_00000103264159181408584250000017341390993221438120_" class="st7" d="M33,44.5L33,44.5c-0.3,0.2-0.7,0.2-1-0.1
			l-1-1.2l1.1-0.9l1,1.2C33.4,43.8,33.3,44.2,33,44.5z"/>
		<path id="XMLID_00000170997806076034011000000015820220737122832521_" class="st7" d="M35.8,42.2L35.8,42.2
			c-0.3,0.2-0.7,0.2-1-0.1l-1-1.2l1.1-0.9l1,1.2C36.1,41.5,36.1,41.9,35.8,42.2z"/>
		<path id="XMLID_00000023996298048472265190000001777834939213439402_" class="st7" d="M35,43.9L35,43.9c-0.3,0.2-0.7,0.2-1-0.1
			L32.5,42l1.1-0.9l1.5,1.8C35.3,43.2,35.3,43.6,35,43.9z"/>
		<path id="XMLID_00000096038282032250193050000012057070176559907492_" class="st7" d="M26.8,44.6l-0.1,0.1c-0.1,0.1-0.2,0.1-0.3,0
			l0,0c-0.1-0.1-0.1-0.2,0-0.3l0.1-0.1c0.1-0.1,0.2-0.1,0.3,0l0,0C26.9,44.3,26.9,44.5,26.8,44.6z"/>
		<path id="XMLID_00000134929341688058228820000015973730763482570390_" class="st7" d="M28.3,43.3l-1.2,1c-0.1,0.1-0.2,0.1-0.3,0
			l0,0c-0.1-0.1-0.1-0.2,0-0.3l1.2-1c0.1-0.1,0.2-0.1,0.3,0l0,0C28.4,43.1,28.4,43.2,28.3,43.3z"/>
	</g>
	<path class="st9" d="M97,10h-0.8V9.2c0-0.3-0.2-0.5-0.5-0.5l0,0c-0.3,0-0.5,0.2-0.5,0.5V10h-0.8c-0.3,0-0.5,0.2-0.5,0.5l0,0
		c0,0.3,0.2,0.5,0.5,0.5h0.8v0.8c0,0.3,0.2,0.5,0.5,0.5l0,0c0.3,0,0.5-0.2,0.5-0.5V11H97c0.3,0,0.5-0.2,0.5-0.5l0,0
		C97.5,10.2,97.3,10,97,10z"/>
	<g id="shape_00000137111598828081224750000006782479070403542458_">
		<g>
			<g>
				<g>
					<path class="st5" d="M42.5,50.4c0.1,0,0.2,0.1,0.2,0.2v1c0,0.1-0.1,0.2-0.2,0.2s-0.2-0.1-0.2-0.2v-1
						C42.3,50.5,42.4,50.4,42.5,50.4z"/>
				</g>
			</g>
			<g>
				<g>
					<path class="st5" d="M42.5,48.7c0.1,0,0.2,0.1,0.2,0.2v1c0,0.1-0.1,0.2-0.2,0.2s-0.2-0.1-0.2-0.2v-1
						C42.3,48.8,42.4,48.7,42.5,48.7z"/>
				</g>
			</g>
		</g>
		<g>
			<g>
				<g>
					<path class="st5" d="M41.2,50.1h0.9c0.1,0,0.2,0.1,0.2,0.2s-0.1,0.2-0.2,0.2h-0.9c-0.1,0-0.2-0.1-0.2-0.2
						C41,50.2,41.1,50.1,41.2,50.1z"/>
				</g>
			</g>
			<g>
				<g>
					<path class="st5" d="M43,50.1h0.9c0.1,0,0.2,0.1,0.2,0.2s-0.1,0.2-0.2,0.2H43c-0.1,0-0.2-0.1-0.2-0.2
						C42.8,50.2,42.9,50.1,43,50.1z"/>
				</g>
			</g>
		</g>
	</g>
	<g id="shape">
		<g>
			<g>
				<path class="st5" d="M27.9,14.2c0.1,0,0.2,0.1,0.2,0.2v1c0,0.1-0.1,0.2-0.2,0.2s-0.2-0.1-0.2-0.2v-1
					C27.6,14.3,27.7,14.2,27.9,14.2z"/>
			</g>
			<g>
				<path class="st5" d="M27.9,12.5c0.1,0,0.2,0.1,0.2,0.2v1c0,0.1-0.1,0.2-0.2,0.2s-0.2-0.1-0.2-0.2v-1
					C27.6,12.6,27.7,12.5,27.9,12.5z"/>
			</g>
		</g>
		<g>
			<g>
				<path class="st5" d="M26.5,13.8h0.9c0.1,0,0.2,0.1,0.2,0.2c0,0.1-0.1,0.2-0.2,0.2h-0.9c-0.1,0-0.2-0.1-0.2-0.2
					S26.4,13.8,26.5,13.8z"/>
			</g>
			<g>
				<path class="st5" d="M28.3,13.8h0.9c0.1,0,0.2,0.1,0.2,0.2c0,0.1-0.1,0.2-0.2,0.2h-0.9c-0.1,0-0.2-0.1-0.2-0.2
					C28.1,13.9,28.2,13.8,28.3,13.8z"/>
			</g>
		</g>
	</g>
	<path class="st10" d="M103.1,34.1v-1.2h-1.2c-0.1-0.3-0.2-0.6-0.3-0.8l0.8-0.8l-0.9-0.9l-0.8,0.8c-0.3-0.2-0.7-0.4-1-0.4v-1.2h-1.2
		v1.2c-0.2,0.1-0.5,0.1-0.7,0.3L97,30.3l-0.9,0.9l0.8,0.8c-0.2,0.3-0.4,0.7-0.4,1h-1v1.2h1c0.1,0.3,0.2,0.6,0.4,0.9l-0.8,0.8
		l0.9,0.9l0.8-0.8c0.3,0.2,0.6,0.3,1,0.4v1.2h1.2v-1.3c0.3-0.1,0.5-0.2,0.7-0.3l0.8,0.8l0.9-0.9l-0.8-0.8c0.1-0.2,0.2-0.5,0.3-0.7
		L103.1,34.1z M100,34.2c-0.4,0.4-1.2,0.4-1.6,0s-0.4-1.2,0-1.6c0.4-0.4,1.2-0.4,1.6,0C100.5,33.1,100.5,33.8,100,34.2z"/>
	<path class="st10" d="M10.9,16v-0.8h-0.8c0-0.2-0.1-0.4-0.2-0.6l0.6-0.5l-0.6-0.6l-0.6,0.4c-0.2-0.1-0.5-0.3-0.7-0.3v-0.8H7.8v0.8
		c-0.2,0-0.3,0.1-0.5,0.2l-0.5-0.6l-0.7,0.7l0.5,0.5c-0.1,0.2-0.3,0.5-0.3,0.7H5.6v0.8h0.7c0.1,0.2,0.1,0.4,0.3,0.6L6.1,17l0.6,0.6
		l0.6-0.5c0.2,0.1,0.4,0.2,0.7,0.2v0.8h0.8v-0.9C9,17.1,9.1,17.1,9.3,17l0.5,0.5l0.6-0.6l-0.5-0.6c0.1-0.2,0.2-0.3,0.2-0.5L10.9,16z
		 M8.8,16c-0.3,0.3-0.8,0.3-1.1,0c-0.3-0.3-0.3-0.8,0-1.1c0.3-0.3,0.8-0.3,1.1,0C9.1,15.3,9.1,15.7,8.8,16z"/>
	<g>
		<path class="st5" d="M77.8,39.6c-0.5,0.2-0.7,0.6-0.7,1v9.6c0,2,0.9,3.8,2.5,4.9l5.6,3.6c0.4,0.2,0.9,0.2,1.3,0l5.6-3.6
			c1.6-1.1,2.5-2.9,2.5-4.9v-9.5c0-0.4-0.3-0.8-0.8-1C86.9,37.3,84.1,37.2,77.8,39.6L77.8,39.6z"/>
		<path class="st11" d="M78.9,40.9c-0.4,0.1-0.6,0.5-0.6,0.8v8.2c0,1.7,0.8,3.2,2.1,4.2l4.8,3.1c0.3,0.2,0.8,0.2,1.1,0l4.8-3.1
			c1.3-1,2.1-2.5,2.1-4.2v-8.1c0-0.4-0.3-0.7-0.7-0.9C86.7,38.9,84.4,38.8,78.9,40.9L78.9,40.9z"/>
		<path class="st2" d="M92.5,40.9c-2.8-1-4.8-1.5-6.8-1.5v17.9c0.2,0,0.4-0.1,0.5-0.2L91,54c1.3-1,2.1-2.5,2.1-4.2v-8.1
			C93.2,41.4,92.9,41,92.5,40.9L92.5,40.9z"/>
	</g>
	<path id="check" class="st5" d="M85.5,51.6c-0.2,0-0.4-0.1-0.6-0.2l-2.6-2.6c-0.4-0.3-0.4-0.9-0.1-1.2c0.3-0.4,0.9-0.4,1.2-0.1
		l1.9,1.9l3.7-5.3c0.3-0.4,0.8-0.5,1.2-0.2c0.4,0.3,0.5,0.8,0.2,1.2l-4.2,6.1C86.1,51.4,85.8,51.5,85.5,51.6
		C85.5,51.6,85.5,51.6,85.5,51.6z"/>
</g>
</svg>
