<?xml version="1.0" encoding="utf-8"?>
<!-- Generator: Adobe Illustrator 25.4.1, SVG Export Plug-In . SVG Version: 6.00 Build 0)  -->
<svg version="1.1" id="Layer_1" xmlns="http://www.w3.org/2000/svg" xmlns:xlink="http://www.w3.org/1999/xlink" x="0px" y="0px"
	 viewBox="0 0 81.6 53.9" style="enable-background:new 0 0 81.6 53.9;" xml:space="preserve">
<style type="text/css">
	.st0{display:none;opacity:0.54;fill:#FFFFFF;enable-background:new    ;}
	.st1{opacity:0.1;}
	.st2{fill:#3B4751;}
	.st3{fill:#1A8DFF;}
	.st4{fill:#0D6ECE;}
	.st5{fill:#09225E;}
	.st6{clip-path:url(#SVGID_00000006671038249670980200000012225442564035537822_);}
	.st7{fill:#A6EAFF;}
	.st8{fill:#1A9EFE;}
	.st9{opacity:0.2;fill:url(#SVGID_00000147199924124354382430000003355197006042662785_);enable-background:new    ;}
	.st10{clip-path:url(#SVGID_00000002376299699906027730000002867624223458166935_);}
	.st11{clip-path:url(#SVGID_00000043453618930873433550000018210980410729246909_);}
	.st12{clip-path:url(#SVGID_00000067224210020110404770000018151302388255740094_);}
	.st13{fill:#FFFFFF;}
	.st14{fill:#657F99;}
	.st15{fill:#49B8F6;}
	.st16{fill:#FCBF1E;}
</style>
<rect x="-17.5" y="-40.3" class="st0" width="125.1" height="127.9"/>
<g>
	<g class="st1">
		<path class="st2" d="M32.9,50.7c-7-12.5-12.4-2.5-20.8-11.8C1.2,26.7,10.9,20.4,22.2,19C31.4,17.9,39.5,4.7,50,4.9
			C64,5.2,57.3,18.4,67.5,23c8.8,4,8.2,20.8-1.2,26.6L32.9,50.7z"/>
		<ellipse class="st2" cx="40.8" cy="50.3" rx="40.8" ry="3.7"/>
	</g>
	<path class="st3" d="M16.4,47.9c0,1,0.8,1.9,1.9,1.9H66c1,0,1.9-0.8,1.9-1.9V18.4H16.4V47.9z"/>
	<path class="st4" d="M16.4,18.4L39.7,0.8c1.4-1.1,3.4-1.1,4.8,0l23.4,17.6H16.4z"/>
	<polygon class="st5" points="67.8,18.4 16.4,18.4 34.7,32.3 49.5,32.3 	"/>
	<path class="st4" d="M18.3,49.8H66c1,0,1.9-0.8,1.9-1.9L49.5,32.3H34.7L16.4,47.9C16.4,48.9,17.2,49.8,18.3,49.8z"/>
	<g>
		<g>
			<defs>
				<polygon id="SVGID_1_" points="16.4,-4.1 16.4,18.4 34.7,32.3 49.5,32.3 67.8,18.4 67.8,-4.1 				"/>
			</defs>
			<clipPath id="SVGID_00000120525179343010643840000004774714726649798276_">
				<use xlink:href="#SVGID_1_"  style="overflow:visible;"/>
			</clipPath>
			<g style="clip-path:url(#SVGID_00000120525179343010643840000004774714726649798276_);">
				<path class="st7" d="M25.6,7.2c-1,0.4-1.4,1.2-1.4,2v19.6c0,4.1,1.8,7.8,5.1,10l11.5,7.4c0.8,0.4,1.8,0.4,2.7,0L55,38.8
					c3.3-2.3,5.1-5.9,5.1-10V9.4c0-0.8-0.6-1.6-1.6-2C44.2,2.5,38.5,2.3,25.6,7.2L25.6,7.2z"/>
				<path class="st8" d="M27.9,9.8c-0.8,0.2-1.2,1-1.2,1.6v16.8c0,3.5,1.6,6.5,4.3,8.6l9.8,6.3c0.6,0.4,1.6,0.4,2.3,0l9.8-6.3
					c2.7-2,4.3-5.1,4.3-8.6V11.7c0-0.8-0.6-1.4-1.4-1.8C43.8,5.7,39.1,5.5,27.9,9.8L27.9,9.8z"/>
				
					<linearGradient id="SVGID_00000098923723269759910310000003148846075225009087_" gradientUnits="userSpaceOnUse" x1="42" y1="29" x2="57.1831" y2="29" gradientTransform="matrix(1 0 0 -1 0 54)">
					<stop  offset="0" style="stop-color:#FFFFFF"/>
					<stop  offset="1" style="stop-color:#FFFFFF;stop-opacity:0"/>
				</linearGradient>
				
					<path style="opacity:0.2;fill:url(#SVGID_00000098923723269759910310000003148846075225009087_);enable-background:new    ;" d="
					M55.9,9.8c-5.7-2-9.8-3.1-13.9-3.1v36.6c0.4,0,0.8-0.2,1-0.4l9.8-6.3c2.7-2,4.3-5.1,4.3-8.6V11.5C57.3,10.9,56.7,10,55.9,9.8
					L55.9,9.8z"/>
			</g>
		</g>
		<g>
			<defs>
				<polygon id="SVGID_00000088837621549718008310000007955368858643704244_" points="16.4,-4.1 16.4,18.4 34.7,32.3 49.5,32.3 
					67.8,18.4 67.8,-4.1 				"/>
			</defs>
			<clipPath id="SVGID_00000106856165990746455500000012633362653457698476_">
				<use xlink:href="#SVGID_00000088837621549718008310000007955368858643704244_"  style="overflow:visible;"/>
			</clipPath>
			<g style="clip-path:url(#SVGID_00000106856165990746455500000012633362653457698476_);">
				<g>
					<defs>
						<path id="SVGID_00000081633902423320239670000001006482724523300772_" d="M27.9,9.8c-0.8,0.2-1.2,1-1.2,1.6v16.8
							c0,3.5,1.6,6.5,4.3,8.6l9.8,6.3c0.6,0.4,1.6,0.4,2.3,0l9.8-6.3c2.7-2,4.3-5.1,4.3-8.6V11.7c0-0.8-0.6-1.4-1.4-1.8
							C43.8,5.7,39.1,5.5,27.9,9.8L27.9,9.8z"/>
					</defs>
					<clipPath id="SVGID_00000150100737180620553730000011249545522262956964_">
						<use xlink:href="#SVGID_00000081633902423320239670000001006482724523300772_"  style="overflow:visible;"/>
					</clipPath>
					<g style="clip-path:url(#SVGID_00000150100737180620553730000011249545522262956964_);">
						<path class="st3" d="M5.3,8.6C5,8.6,4.7,8.5,4.5,8.2C4.3,8,4.3,7.6,4.3,7.2s0.1-0.7,0.3-1C4.7,6,5,5.8,5.3,5.8
							C5.7,5.8,6,6,6.2,6.2s0.3,0.6,0.3,1s-0.1,0.7-0.3,1C6,8.5,5.7,8.6,5.3,8.6z M5,6.6C4.9,6.7,4.8,7,4.8,7.2c0,0.3,0,0.5,0.1,0.6
							C5,8,5.2,8.1,5.3,8.1c0.2,0,0.3-0.1,0.4-0.2c0.1-0.2,0.1-0.4,0.1-0.6c0-0.3,0-0.5-0.1-0.6c0-0.3-0.2-0.4-0.4-0.4
							C5.2,6.3,5,6.4,5,6.6z"/>
						<path class="st3" d="M7.2,5.9h1.1v2.6H7.7V6.4H7.2V5.9z"/>
						<path class="st3" d="M10.2,8.6c-0.4,0-0.6-0.1-0.8-0.4C9.2,8,9.2,7.6,9.2,7.2s0.1-0.7,0.3-1C9.6,6,9.9,5.8,10.2,5.8
							c0.4,0,0.6,0.1,0.8,0.4c0.2,0.2,0.3,0.6,0.3,1s-0.1,0.7-0.3,1C10.9,8.5,10.6,8.6,10.2,8.6z M9.9,6.6C9.8,6.7,9.7,7,9.7,7.2
							c0,0.3,0,0.5,0.1,0.6C9.9,8,10,8,10.2,8s0.3-0.1,0.4-0.2c0.1-0.2,0.1-0.4,0.1-0.6c0-0.3,0-0.5-0.1-0.6
							c-0.1-0.2-0.2-0.2-0.4-0.2C10.1,6.3,9.9,6.4,9.9,6.6z"/>
						<path class="st3" d="M12,5.9h1.1v2.6h-0.6V6.4H12V5.9z"/>
						<path class="st3" d="M15.1,8.6c-0.4,0-0.6-0.1-0.8-0.4C14.1,8,14,7.6,14,7.2s0.1-0.7,0.3-1c0.2-0.2,0.5-0.4,0.8-0.4
							c0.4,0,0.6,0.1,0.8,0.4c0.2,0.2,0.3,0.6,0.3,1s-0.1,0.7-0.3,1C15.8,8.5,15.5,8.6,15.1,8.6z M14.8,6.6
							c-0.1,0.2-0.1,0.4-0.1,0.6c0,0.3,0,0.5,0.1,0.6c0,0.2,0.2,0.3,0.3,0.3c0.2,0,0.3-0.1,0.4-0.2c0.1-0.2,0.1-0.4,0.1-0.6
							c0-0.3,0-0.5-0.1-0.6c-0.1-0.2-0.2-0.2-0.4-0.2C15,6.3,14.8,6.4,14.8,6.6z"/>
						<path class="st3" d="M16.9,5.9H18v2.6h-0.6V6.4h-0.5V5.9z"/>
						<path class="st3" d="M20,8.6c-0.4,0-0.6-0.1-0.8-0.4c-0.2-0.2-0.3-0.6-0.3-1s0.1-0.7,0.3-1C19.4,6,19.7,5.8,20,5.8
							c0.4,0,0.6,0.1,0.8,0.4c0.2,0.2,0.3,0.6,0.3,1s-0.1,0.7-0.3,1C20.7,8.5,20.4,8.6,20,8.6z M19.6,6.6c-0.1,0.2-0.1,0.4-0.1,0.6
							c0,0.3,0,0.5,0.1,0.6C19.7,8,19.9,8.1,20,8.1c0.2,0,0.3-0.1,0.4-0.2c0.1-0.2,0.1-0.4,0.1-0.6c0-0.3,0-0.5-0.1-0.6
							c-0.1-0.2-0.2-0.2-0.4-0.2C19.9,6.3,19.7,6.4,19.6,6.6z"/>
						<path class="st3" d="M23,8.6c-0.4,0-0.6-0.1-0.8-0.4c-0.2-0.2-0.3-0.6-0.3-1s0.1-0.7,0.3-1C22.4,6,22.7,5.8,23,5.8
							c0.4,0,0.6,0.1,0.8,0.4c0.2,0.2,0.3,0.6,0.3,1s-0.1,0.7-0.3,1C23.7,8.5,23.4,8.6,23,8.6z M22.6,6.6c-0.1,0.2-0.1,0.4-0.1,0.6
							c0,0.3,0,0.5,0.1,0.6C22.7,8,22.9,8.1,23,8.1c0.2,0,0.3-0.1,0.4-0.2c0.1-0.2,0.1-0.4,0.1-0.6c0-0.3,0-0.5-0.1-0.6
							c-0.1-0.2-0.2-0.2-0.4-0.2C22.9,6.3,22.7,6.4,22.6,6.6z"/>
						<path class="st3" d="M26,8.6c-0.4,0-0.6-0.1-0.8-0.4c-0.2-0.2-0.3-0.6-0.3-1s0.1-0.7,0.3-1C25.4,6,25.7,5.8,26,5.8
							c0.4,0,0.6,0.1,0.8,0.4c0.2,0.2,0.3,0.6,0.3,1s-0.1,0.7-0.3,1C26.7,8.5,26.4,8.6,26,8.6z M25.6,6.6c-0.1,0.2-0.1,0.4-0.1,0.6
							c0,0.3,0,0.5,0.1,0.6C25.7,8,25.8,8.1,26,8.1s0.3-0.1,0.4-0.2c0.1-0.2,0.1-0.4,0.1-0.6c0-0.3,0-0.5-0.1-0.6
							c-0.1-0.2-0.2-0.2-0.4-0.2C25.8,6.3,25.7,6.4,25.6,6.6z"/>
						<path class="st3" d="M27.8,5.9h1.1v2.6h-0.6V6.4h-0.5V5.9z"/>
						<path class="st3" d="M29.7,5.9h1.1v2.6h-0.6V6.4h-0.5V5.9z"/>
						<path class="st3" d="M32.8,8.6c-0.4,0-0.6-0.1-0.8-0.4c-0.2-0.2-0.3-0.6-0.3-1s0.1-0.7,0.3-1c0.2-0.2,0.5-0.4,0.8-0.4
							c0.4,0,0.6,0.1,0.8,0.4c0.2,0.2,0.3,0.6,0.3,1s-0.1,0.7-0.3,1C33.5,8.5,33.2,8.6,32.8,8.6z M32.4,6.6
							c-0.1,0.2-0.1,0.4-0.1,0.6c0,0.3,0,0.5,0.1,0.6C32.5,8,32.6,8,32.8,8s0.3-0.1,0.4-0.2c0.1-0.2,0.1-0.4,0.1-0.6
							c0-0.3,0-0.5-0.1-0.6c-0.1-0.2-0.2-0.2-0.4-0.2C32.6,6.3,32.5,6.4,32.4,6.6z"/>
						<path class="st3" d="M34.6,5.9h1.1v2.6h-0.6V6.4h-0.5V5.9z"/>
						<path class="st3" d="M37.7,8.6c-0.4,0-0.6-0.1-0.8-0.4c-0.2-0.2-0.3-0.6-0.3-1s0.1-0.7,0.3-1c0.2-0.2,0.5-0.4,0.8-0.4
							c0.4,0,0.6,0.1,0.8,0.4c0.2,0.2,0.3,0.6,0.3,1s-0.1,0.7-0.3,1C38.4,8.5,38.1,8.6,37.7,8.6z M37.3,6.6
							c-0.1,0.2-0.1,0.4-0.1,0.6c0,0.3,0,0.5,0.1,0.6C37.4,8,37.5,8,37.7,8s0.3-0.1,0.4-0.2c0.1-0.2,0.1-0.4,0.1-0.6
							c0-0.3,0-0.5-0.1-0.6c-0.1-0.2-0.2-0.2-0.4-0.2C37.5,6.3,37.4,6.4,37.3,6.6z"/>
						<path class="st3" d="M40.7,8.6c-0.4,0-0.6-0.1-0.8-0.4c-0.2-0.2-0.3-0.6-0.3-1s0.1-0.7,0.3-1c0.2-0.2,0.5-0.4,0.8-0.4
							c0.4,0,0.6,0.1,0.8,0.4c0.2,0.2,0.3,0.6,0.3,1s-0.1,0.7-0.3,1C41.4,8.5,41.1,8.6,40.7,8.6z M40.3,6.6
							c-0.1,0.2-0.1,0.4-0.1,0.6c0,0.3,0,0.5,0.1,0.6C40.4,8,40.5,8,40.7,8s0.3-0.1,0.4-0.2c0.1-0.2,0.1-0.4,0.1-0.6
							c0-0.3,0-0.5-0.1-0.6c-0.1-0.2-0.2-0.2-0.4-0.2C40.5,6.3,40.4,6.4,40.3,6.6z"/>
						<path class="st3" d="M5.3,13.1c-0.4,0-0.6-0.1-0.8-0.4c-0.2-0.2-0.3-0.6-0.3-1s0.1-0.7,0.3-1c0.2-0.2,0.5-0.4,0.8-0.4
							c0.4,0,0.6,0.1,0.8,0.4c0.2,0.2,0.3,0.6,0.3,1s-0.1,0.7-0.3,1C6,13,5.7,13.1,5.3,13.1z M5,11.1c-0.1,0.2-0.1,0.4-0.1,0.6
							c0,0.3,0,0.5,0.1,0.6c0.1,0.2,0.2,0.2,0.4,0.2c0.2,0,0.3-0.1,0.4-0.2c0.1-0.2,0.1-0.4,0.1-0.6c0-0.3,0-0.5-0.1-0.6
							c-0.1-0.2-0.2-0.2-0.4-0.2C5.2,10.9,5,11,5,11.1z"/>
						<path class="st3" d="M7.2,10.5h1.1v2.6H7.7V11H7.2V10.5z"/>
						<path class="st3" d="M10.2,13.1c-0.4,0-0.6-0.1-0.8-0.4c-0.2-0.2-0.3-0.6-0.3-1s0.1-0.7,0.3-1c0.2-0.2,0.5-0.4,0.8-0.4
							c0.4,0,0.6,0.1,0.8,0.4c0.2,0.2,0.3,0.6,0.3,1s-0.1,0.7-0.3,1C10.9,13,10.6,13.1,10.2,13.1z M9.9,11.1
							c-0.1,0.2-0.1,0.4-0.1,0.6c0,0.3,0,0.5,0.1,0.6c0.1,0.2,0.2,0.2,0.4,0.2s0.3-0.1,0.4-0.2c0.1-0.2,0.1-0.4,0.1-0.6
							c0-0.3,0-0.5-0.1-0.6c-0.1-0.2-0.2-0.2-0.4-0.2C10.1,10.9,9.9,11,9.9,11.1z"/>
						<path class="st3" d="M12,10.5h1.1v2.6h-0.6V11H12V10.5z"/>
						<path class="st3" d="M14,10.5h1v2.6h-0.6V11H14V10.5z"/>
						<path class="st3" d="M17,13.1c-0.4,0-0.6-0.1-0.8-0.4c-0.2-0.2-0.3-0.6-0.3-1s0.1-0.7,0.3-1c0.2-0.2,0.5-0.4,0.8-0.4
							c0.4,0,0.6,0.1,0.8,0.4c0.2,0.2,0.3,0.6,0.3,1s-0.1,0.7-0.3,1C17.7,13,17.4,13.1,17,13.1z M16.7,11.1
							c-0.1,0.2-0.1,0.4-0.1,0.6c0,0.3,0,0.5,0.1,0.6c0.1,0.2,0.2,0.2,0.4,0.2c0.2,0,0.3-0.1,0.4-0.2c0.1-0.2,0.1-0.4,0.1-0.6
							c0-0.3,0-0.5-0.1-0.6c-0.1-0.2-0.2-0.2-0.4-0.2C16.9,10.9,16.7,11,16.7,11.1z"/>
						<path class="st3" d="M20,13.1c-0.4,0-0.6-0.1-0.8-0.4c-0.2-0.2-0.3-0.6-0.3-1s0.1-0.7,0.3-1c0.2-0.2,0.5-0.4,0.8-0.4
							c0.4,0,0.6,0.1,0.8,0.4c0.2,0.2,0.3,0.6,0.3,1s-0.1,0.7-0.3,1C20.7,13,20.4,13.1,20,13.1z M19.6,11.1
							c-0.1,0.2-0.1,0.4-0.1,0.6c0,0.3,0,0.5,0.1,0.6c0.1,0.2,0.2,0.2,0.4,0.2c0.2,0,0.3-0.1,0.4-0.2c0.1-0.2,0.1-0.4,0.1-0.6
							c0-0.3,0-0.5-0.1-0.6c-0.1-0.2-0.2-0.2-0.4-0.2C19.9,10.9,19.7,11,19.6,11.1z"/>
						<path class="st3" d="M21.8,10.5h1.1v2.6h-0.6V11h-0.5V10.5z"/>
						<path class="st3" d="M24.9,13.1c-0.4,0-0.6-0.1-0.8-0.4c-0.2-0.2-0.3-0.6-0.3-1s0.1-0.7,0.3-1c0.2-0.2,0.5-0.4,0.8-0.4
							c0.4,0,0.6,0.1,0.8,0.4c0.2,0.2,0.3,0.6,0.3,1s-0.1,0.7-0.3,1C25.6,13,25.3,13.1,24.9,13.1z M24.5,11.1
							c-0.1,0.2-0.1,0.4-0.1,0.6c0,0.3,0,0.5,0.1,0.6c0.1,0.2,0.2,0.2,0.4,0.2c0.2,0,0.3-0.1,0.4-0.2c0.1-0.2,0.1-0.4,0.1-0.6
							c0-0.3,0-0.5-0.1-0.6c-0.1-0.2-0.2-0.2-0.4-0.2C24.8,10.9,24.6,11,24.5,11.1z"/>
						<path class="st3" d="M26.7,10.5h1.1v2.6h-0.6V11h-0.5V10.5z"/>
						<path class="st3" d="M29.8,13.1c-0.4,0-0.6-0.1-0.8-0.4c-0.2-0.2-0.3-0.6-0.3-1s0.1-0.7,0.3-1c0.2-0.2,0.5-0.4,0.8-0.4
							c0.4,0,0.6,0.1,0.8,0.4c0.2,0.2,0.3,0.6,0.3,1s-0.1,0.7-0.3,1C30.5,13,30.2,13.1,29.8,13.1z M29.4,11.1
							c-0.1,0.2-0.1,0.4-0.1,0.6c0,0.3,0,0.5,0.1,0.6c0.1,0.2,0.2,0.2,0.4,0.2c0.2,0,0.3-0.1,0.4-0.2c0.1-0.2,0.1-0.4,0.1-0.6
							c0-0.3,0-0.5-0.1-0.6c-0.1-0.2-0.2-0.2-0.4-0.2C29.7,10.9,29.5,11,29.4,11.1z"/>
						<path class="st3" d="M32.8,13.1c-0.4,0-0.6-0.1-0.8-0.4c-0.2-0.2-0.3-0.6-0.3-1s0.1-0.7,0.3-1c0.2-0.2,0.5-0.4,0.8-0.4
							c0.4,0,0.6,0.1,0.8,0.4c0.2,0.2,0.3,0.6,0.3,1s-0.1,0.7-0.3,1C33.5,13,33.2,13.1,32.8,13.1z M32.4,11.1
							c-0.1,0.2-0.1,0.4-0.1,0.6c0,0.3,0,0.5,0.1,0.6c0.1,0.2,0.2,0.2,0.4,0.2s0.3-0.1,0.4-0.2c0.1-0.2,0.1-0.4,0.1-0.6
							c0-0.3,0-0.5-0.1-0.6c-0.1-0.2-0.2-0.2-0.4-0.2C32.6,10.9,32.5,11,32.4,11.1z"/>
						<path class="st3" d="M34.6,10.5h1.1v2.6h-0.6V11h-0.5V10.5z"/>
						<path class="st3" d="M37.7,13.1c-0.4,0-0.6-0.1-0.8-0.4c-0.2-0.2-0.3-0.6-0.3-1s0.1-0.7,0.3-1c0.2-0.2,0.5-0.4,0.8-0.4
							c0.4,0,0.6,0.1,0.8,0.4c0.2,0.2,0.3,0.6,0.3,1s-0.1,0.7-0.3,1C38.4,13,38.1,13.1,37.7,13.1z M37.3,11.1
							c-0.1,0.2-0.1,0.4-0.1,0.6c0,0.3,0,0.5,0.1,0.6c0.1,0.2,0.2,0.2,0.4,0.2s0.3-0.1,0.4-0.2s0.1-0.4,0.1-0.6c0-0.3,0-0.5-0.1-0.6
							s-0.2-0.2-0.4-0.2C37.5,10.9,37.4,11,37.3,11.1z"/>
						<path class="st3" d="M40.7,13.1c-0.4,0-0.6-0.1-0.8-0.4c-0.2-0.2-0.3-0.6-0.3-1s0.1-0.7,0.3-1c0.2-0.2,0.5-0.4,0.8-0.4
							c0.4,0,0.6,0.1,0.8,0.4c0.2,0.2,0.3,0.6,0.3,1s-0.1,0.7-0.3,1C41.4,13,41.1,13.1,40.7,13.1z M40.3,11.1
							c-0.1,0.2-0.1,0.4-0.1,0.6c0,0.3,0,0.5,0.1,0.6c0.1,0.2,0.2,0.2,0.4,0.2s0.3-0.1,0.4-0.2c0.1-0.2,0.1-0.4,0.1-0.6
							c0-0.3,0-0.5-0.1-0.6c-0.1-0.2-0.2-0.2-0.4-0.2C40.5,10.9,40.4,11,40.3,11.1z"/>
						<path class="st3" d="M5.3,17.7c-0.4,0-0.6-0.1-0.8-0.4c-0.2-0.2-0.3-0.6-0.3-1s0.1-0.7,0.3-1c0.2-0.2,0.5-0.4,0.8-0.4
							c0.4,0,0.6,0.1,0.8,0.4c0.2,0.2,0.3,0.6,0.3,1s-0.1,0.7-0.3,1C6,17.5,5.7,17.7,5.3,17.7z M5,15.7c-0.1,0.2-0.1,0.4-0.1,0.6
							c0,0.3,0,0.5,0.1,0.6c0.1,0.2,0.2,0.2,0.4,0.2c0.2,0,0.3-0.1,0.4-0.2c0.1-0.2,0.1-0.4,0.1-0.6c0-0.3,0-0.5-0.1-0.6
							c-0.1-0.2-0.2-0.2-0.4-0.2C5.2,15.4,5,15.5,5,15.7z"/>
						<path class="st3" d="M8.3,17.7c-0.4,0-0.6-0.1-0.8-0.4c-0.2-0.2-0.3-0.6-0.3-1s0.1-0.7,0.3-1c0.2-0.2,0.5-0.4,0.8-0.4
							c0.4,0,0.6,0.1,0.8,0.4c0.2,0.2,0.3,0.6,0.3,1s-0.1,0.7-0.3,1C9,17.5,8.7,17.7,8.3,17.7z M7.9,15.7c-0.1,0.2-0.1,0.4-0.1,0.6
							c0,0.3,0,0.5,0.1,0.6c0.1,0.2,0.2,0.2,0.4,0.2s0.3-0.1,0.4-0.2c0.1-0.2,0.1-0.4,0.1-0.6c0-0.3,0-0.5-0.1-0.6
							c-0.1-0.2-0.2-0.2-0.4-0.2C8.2,15.4,8,15.5,7.9,15.7z"/>
						<path class="st3" d="M10.1,15h1.1v2.6h-0.6v-2.1h-0.5V15z"/>
						<path class="st3" d="M13.2,17.7c-0.4,0-0.6-0.1-0.8-0.4c-0.2-0.2-0.3-0.6-0.3-1s0.1-0.7,0.3-1c0.2-0.2,0.5-0.4,0.8-0.4
							c0.4,0,0.6,0.1,0.8,0.4c0.2,0.2,0.3,0.6,0.3,1s-0.1,0.7-0.3,1C13.9,17.5,13.6,17.7,13.2,17.7z M12.8,15.7
							c-0.1,0.2-0.1,0.4-0.1,0.6c0,0.3,0,0.5,0.1,0.6c0.1,0.2,0.2,0.2,0.4,0.2s0.3-0.1,0.4-0.2s0.1-0.4,0.1-0.6c0-0.3,0-0.5-0.1-0.6
							s-0.2-0.2-0.4-0.2C13.1,15.4,12.9,15.5,12.8,15.7z"/>
						<path class="st3" d="M15,15h1.1v2.6h-0.6v-2.1H15V15z"/>
						<path class="st3" d="M18.1,17.7c-0.4,0-0.6-0.1-0.8-0.4c-0.2-0.2-0.3-0.6-0.3-1s0.1-0.7,0.3-1c0.2-0.2,0.5-0.4,0.8-0.4
							c0.4,0,0.6,0.1,0.8,0.4c0.2,0.2,0.3,0.6,0.3,1s-0.1,0.7-0.3,1C18.8,17.5,18.5,17.7,18.1,17.7z M17.7,15.7
							c-0.1,0.2-0.1,0.4-0.1,0.6c0,0.3,0,0.5,0.1,0.6c0.1,0.2,0.2,0.2,0.4,0.2c0.2,0,0.3-0.1,0.4-0.2c0.1-0.2,0.1-0.4,0.1-0.6
							c0-0.3,0-0.5-0.1-0.6c-0.1-0.2-0.2-0.2-0.4-0.2C18,15.4,17.8,15.5,17.7,15.7z"/>
						<path class="st3" d="M19.9,15H21v2.6h-0.6v-2.1h-0.5V15z"/>
						<path class="st3" d="M21.8,15h1.1v2.6h-0.6v-2.1h-0.5V15z"/>
						<path class="st3" d="M23.7,15h1.1v2.6h-0.6v-2.1h-0.5V15z"/>
						<path class="st3" d="M25.7,15h1.1v2.6h-0.6v-2.1h-0.5V15z"/>
						<path class="st3" d="M28.7,17.7c-0.4,0-0.6-0.1-0.8-0.4c-0.2-0.2-0.3-0.6-0.3-1s0.1-0.7,0.3-1c0.2-0.2,0.5-0.4,0.8-0.4
							c0.4,0,0.6,0.1,0.8,0.4c0.2,0.2,0.3,0.6,0.3,1s-0.1,0.7-0.3,1C29.4,17.5,29.1,17.7,28.7,17.7z M28.4,15.7
							c-0.1,0.2-0.1,0.4-0.1,0.6c0,0.3,0,0.5,0.1,0.6c0.1,0.2,0.2,0.2,0.4,0.2c0.2,0,0.3-0.1,0.4-0.2s0.1-0.4,0.1-0.6
							c0-0.3,0-0.5-0.1-0.6s-0.2-0.2-0.4-0.2C28.6,15.4,28.4,15.5,28.4,15.7z"/>
						<path class="st3" d="M31.7,17.7c-0.4,0-0.6-0.1-0.8-0.4c-0.2-0.2-0.3-0.6-0.3-1s0.1-0.7,0.3-1c0.2-0.2,0.5-0.4,0.8-0.4
							c0.4,0,0.6,0.1,0.8,0.4c0.2,0.2,0.3,0.6,0.3,1s-0.1,0.7-0.3,1C32.4,17.5,32.1,17.7,31.7,17.7z M31.3,15.7
							c-0.1,0.2-0.1,0.4-0.1,0.6c0,0.3,0,0.5,0.1,0.6c0.1,0.2,0.2,0.2,0.4,0.2c0.2,0,0.3-0.1,0.4-0.2c0.1-0.2,0.1-0.4,0.1-0.6
							c0-0.3,0-0.5-0.1-0.6c-0.1-0.2-0.2-0.2-0.4-0.2C31.6,15.4,31.4,15.5,31.3,15.7z"/>
						<path class="st3" d="M34.7,17.7c-0.4,0-0.6-0.1-0.8-0.4c-0.2-0.2-0.3-0.6-0.3-1s0.1-0.7,0.3-1c0.2-0.2,0.5-0.4,0.8-0.4
							c0.4,0,0.6,0.1,0.8,0.4c0.2,0.2,0.3,0.6,0.3,1s-0.1,0.7-0.3,1C35.4,17.5,35.1,17.7,34.7,17.7z M34.3,15.7
							c-0.1,0.2-0.1,0.4-0.1,0.6c0,0.3,0,0.5,0.1,0.6c0.1,0.2,0.2,0.2,0.4,0.2s0.3-0.1,0.4-0.2c0.1-0.2,0.1-0.4,0.1-0.6
							c0-0.3,0-0.5-0.1-0.6c-0.1-0.2-0.2-0.2-0.4-0.2C34.6,15.4,34.4,15.5,34.3,15.7z"/>
						<path class="st3" d="M37.7,17.7c-0.4,0-0.6-0.1-0.8-0.4c-0.2-0.2-0.3-0.6-0.3-1s0.1-0.7,0.3-1c0.2-0.2,0.5-0.4,0.8-0.4
							c0.4,0,0.6,0.1,0.8,0.4c0.2,0.2,0.3,0.6,0.3,1s-0.1,0.7-0.3,1C38.4,17.5,38.1,17.7,37.7,17.7z M37.3,15.7
							c-0.1,0.2-0.1,0.4-0.1,0.6c0,0.3,0,0.5,0.1,0.6c0.1,0.2,0.2,0.2,0.4,0.2s0.3-0.1,0.4-0.2s0.1-0.4,0.1-0.6c0-0.3,0-0.5-0.1-0.6
							s-0.2-0.2-0.4-0.2C37.5,15.4,37.4,15.5,37.3,15.7z"/>
						<path class="st3" d="M39.5,15h1.1v2.6H40v-2.1h-0.5V15z"/>
						<path class="st3" d="M4.2,19.5h1.1v2.6H4.7V20H4.2V19.5z"/>
						<path class="st3" d="M7.3,22.2c-0.4,0-0.6-0.1-0.8-0.4c-0.2-0.2-0.3-0.6-0.3-1s0.1-0.7,0.3-1c0.2-0.2,0.5-0.4,0.8-0.4
							c0.4,0,0.6,0.1,0.8,0.4c0.2,0.2,0.3,0.6,0.3,1s-0.1,0.7-0.3,1C7.9,22.1,7.6,22.2,7.3,22.2z M6.9,20.2
							c-0.1,0.2-0.1,0.4-0.1,0.6c0,0.3,0,0.5,0.1,0.6c0.1,0.2,0.2,0.2,0.4,0.2c0.2,0,0.3-0.1,0.4-0.2c0.1-0.2,0.1-0.4,0.1-0.6
							c0-0.3,0-0.5-0.1-0.6C7.6,20,7.4,20,7.3,20C7.1,20,6.9,20,6.9,20.2z"/>
						<path class="st3" d="M9.1,19.5h1.1v2.6H9.6V20H9.1V19.5z"/>
						<path class="st3" d="M11,19.5h1v2.6h-0.6V20H11V19.5z"/>
						<path class="st3" d="M12.9,19.5H14v2.6h-0.6V20h-0.5V19.5z"/>
						<path class="st3" d="M16,22.2c-0.4,0-0.6-0.1-0.8-0.4c-0.2-0.2-0.3-0.6-0.3-1s0.1-0.7,0.3-1c0.2-0.2,0.5-0.4,0.8-0.4
							c0.4,0,0.6,0.1,0.8,0.4c0.2,0.2,0.3,0.6,0.3,1s-0.1,0.7-0.3,1S16.3,22.2,16,22.2z M15.6,20.2c-0.1,0.2-0.1,0.4-0.1,0.6
							c0,0.3,0,0.5,0.1,0.6c0.1,0.2,0.2,0.2,0.4,0.2c0.2,0,0.3-0.1,0.4-0.2c0.1-0.2,0.1-0.4,0.1-0.6c0-0.3,0-0.5-0.1-0.6
							C16.3,20,16.1,20,16,20C15.8,20,15.7,20,15.6,20.2z"/>
						<path class="st3" d="M19,22.2c-0.4,0-0.6-0.1-0.8-0.4c-0.2-0.2-0.3-0.6-0.3-1s0.1-0.7,0.3-1c0.2-0.2,0.5-0.4,0.8-0.4
							c0.4,0,0.6,0.1,0.8,0.4c0.2,0.2,0.3,0.6,0.3,1s-0.1,0.7-0.3,1S19.3,22.2,19,22.2z M18.6,20.2c-0.1,0.2-0.1,0.4-0.1,0.6
							c0,0.3,0,0.5,0.1,0.6c0.1,0.2,0.2,0.2,0.4,0.2c0.2,0,0.3-0.1,0.4-0.2c0.1-0.2,0.1-0.4,0.1-0.6c0-0.3,0-0.5-0.1-0.6
							C19.3,20,19.1,20,19,20C18.8,20,18.6,20,18.6,20.2z"/>
						<path class="st3" d="M21.9,22.2c-0.4,0-0.6-0.1-0.8-0.4c-0.2-0.2-0.3-0.6-0.3-1s0.1-0.7,0.3-1c0.2-0.2,0.5-0.4,0.8-0.4
							c0.4,0,0.6,0.1,0.8,0.4c0.2,0.2,0.3,0.6,0.3,1s-0.1,0.7-0.3,1C22.6,22.1,22.3,22.2,21.9,22.2z M21.6,20.2
							c-0.1,0.2-0.1,0.4-0.1,0.6c0,0.3,0,0.5,0.1,0.6c0.1,0.2,0.2,0.2,0.4,0.2c0.2,0,0.3-0.1,0.4-0.2c0.1-0.2,0.1-0.4,0.1-0.6
							c0-0.3,0-0.5-0.1-0.6C22.3,20,22.1,20,21.9,20C21.8,20,21.6,20,21.6,20.2z"/>
						<path class="st3" d="M23.7,19.5h1.1v2.6h-0.6V20h-0.5V19.5z"/>
						<path class="st3" d="M26.8,22.2c-0.4,0-0.6-0.1-0.8-0.4c-0.2-0.2-0.3-0.6-0.3-1s0.1-0.7,0.3-1c0.2-0.2,0.5-0.4,0.8-0.4
							c0.4,0,0.6,0.1,0.8,0.4c0.2,0.2,0.3,0.6,0.3,1s-0.1,0.7-0.3,1C27.5,22.1,27.2,22.2,26.8,22.2z M26.5,20.2
							c-0.1,0.2-0.1,0.4-0.1,0.6c0,0.3,0,0.5,0.1,0.6c0.1,0.2,0.2,0.2,0.4,0.2c0.2,0,0.3-0.1,0.4-0.2c0.1-0.2,0.1-0.4,0.1-0.6
							c0-0.3,0-0.5-0.1-0.6C27.1,20,27,20,26.8,20C26.7,20,26.5,20,26.5,20.2z"/>
						<path class="st3" d="M29.8,22.2c-0.4,0-0.6-0.1-0.8-0.4c-0.2-0.2-0.3-0.6-0.3-1s0.1-0.7,0.3-1c0.2-0.2,0.5-0.4,0.8-0.4
							c0.4,0,0.6,0.1,0.8,0.4c0.2,0.2,0.3,0.6,0.3,1s-0.1,0.7-0.3,1C30.5,22.1,30.2,22.2,29.8,22.2z M29.4,20.2
							c-0.1,0.2-0.1,0.4-0.1,0.6c0,0.3,0,0.5,0.1,0.6c0.1,0.2,0.2,0.2,0.4,0.2c0.2,0,0.3-0.1,0.4-0.2c0.1-0.2,0.1-0.4,0.1-0.6
							c0-0.3,0-0.5-0.1-0.6C30.1,20,30,20,29.8,20C29.7,20,29.5,20,29.4,20.2z"/>
						<path class="st3" d="M32.8,22.2c-0.4,0-0.6-0.1-0.8-0.4c-0.2-0.2-0.3-0.6-0.3-1s0.1-0.7,0.3-1c0.2-0.2,0.5-0.4,0.8-0.4
							c0.4,0,0.6,0.1,0.8,0.4c0.2,0.2,0.3,0.6,0.3,1s-0.1,0.7-0.3,1C33.5,22.1,33.2,22.2,32.8,22.2z M32.4,20.2
							c-0.1,0.2-0.1,0.4-0.1,0.6c0,0.3,0,0.5,0.1,0.6c0.1,0.2,0.2,0.2,0.4,0.2s0.3-0.1,0.4-0.2c0.1-0.2,0.1-0.4,0.1-0.6
							c0-0.3,0-0.5-0.1-0.6C33.1,20,33,20,32.8,20S32.5,20,32.4,20.2z"/>
						<path class="st3" d="M35.8,22.2c-0.4,0-0.6-0.1-0.8-0.4c-0.2-0.2-0.3-0.6-0.3-1s0.1-0.7,0.3-1c0.2-0.2,0.5-0.4,0.8-0.4
							c0.4,0,0.6,0.1,0.8,0.4c0.2,0.2,0.3,0.6,0.3,1s-0.1,0.7-0.3,1C36.5,22.1,36.2,22.2,35.8,22.2z M35.4,20.2
							c-0.1,0.2-0.1,0.4-0.1,0.6c0,0.3,0,0.5,0.1,0.6c0.1,0.2,0.2,0.2,0.4,0.2s0.3-0.1,0.4-0.2c0.1-0.2,0.1-0.4,0.1-0.6
							c0-0.3,0-0.5-0.1-0.6C36.1,20,36,20,35.8,20S35.5,20,35.4,20.2z"/>
						<path class="st3" d="M38.8,22.2c-0.4,0-0.6-0.1-0.8-0.4c-0.2-0.2-0.3-0.6-0.3-1s0.1-0.7,0.3-1c0.2-0.2,0.5-0.4,0.8-0.4
							c0.4,0,0.6,0.1,0.8,0.4c0.2,0.2,0.3,0.6,0.3,1s-0.1,0.7-0.3,1C39.4,22.1,39.2,22.2,38.8,22.2z M38.4,20.2
							c-0.1,0.2-0.1,0.4-0.1,0.6c0,0.3,0,0.5,0.1,0.6c0.1,0.2,0.2,0.2,0.4,0.2s0.3-0.1,0.4-0.2c0.1-0.2,0.1-0.4,0.1-0.6
							c0-0.3,0-0.5-0.1-0.6C39.1,20,39,20,38.8,20S38.5,20,38.4,20.2z"/>
						<path class="st3" d="M5.3,26.8c-0.4,0-0.6-0.1-0.8-0.4c-0.2-0.2-0.3-0.6-0.3-1s0.1-0.7,0.3-1C4.7,24.1,5,24,5.3,24
							c0.4,0,0.6,0.1,0.8,0.4c0.2,0.2,0.3,0.6,0.3,1s-0.1,0.7-0.3,1C6,26.6,5.7,26.8,5.3,26.8z M5,24.8c-0.1,0.2-0.1,0.4-0.1,0.6
							c0,0.3,0,0.5,0.1,0.6c0.1,0.2,0.2,0.2,0.4,0.2c0.2,0,0.3-0.1,0.4-0.2c0.1-0.2,0.1-0.4,0.1-0.6c0-0.3,0-0.5-0.1-0.6
							c-0.1-0.2-0.2-0.2-0.4-0.2C5.2,24.5,5,24.6,5,24.8z"/>
						<path class="st3" d="M8.3,26.8c-0.4,0-0.6-0.1-0.8-0.4c-0.2-0.2-0.3-0.6-0.3-1s0.1-0.7,0.3-1C7.7,24.1,8,24,8.3,24
							c0.4,0,0.6,0.1,0.8,0.4c0.2,0.2,0.3,0.6,0.3,1s-0.1,0.7-0.3,1C9,26.6,8.7,26.8,8.3,26.8z M7.9,24.8c-0.1,0.2-0.1,0.4-0.1,0.6
							c0,0.3,0,0.5,0.1,0.6c0.1,0.2,0.2,0.2,0.4,0.2s0.3-0.1,0.4-0.2c0.1-0.2,0.1-0.4,0.1-0.6c0-0.3,0-0.5-0.1-0.6
							c-0.1-0.2-0.2-0.2-0.4-0.2C8.2,24.5,8,24.6,7.9,24.8z"/>
						<path class="st3" d="M11.3,26.8c-0.4,0-0.6-0.1-0.8-0.4c-0.2-0.2-0.3-0.6-0.3-1s0.1-0.7,0.3-1c0.2-0.2,0.5-0.4,0.8-0.4
							c0.4,0,0.6,0.1,0.8,0.4c0.2,0.2,0.3,0.6,0.3,1s-0.1,0.7-0.3,1C12,26.6,11.7,26.8,11.3,26.8z M10.9,24.8
							c-0.1,0.2-0.1,0.4-0.1,0.6c0,0.3,0,0.5,0.1,0.6c0.1,0.2,0.2,0.2,0.4,0.2s0.3-0.1,0.4-0.2c0.1-0.2,0.1-0.4,0.1-0.6
							c0-0.3,0-0.5-0.1-0.6c-0.1-0.2-0.2-0.2-0.4-0.2C11.2,24.5,11,24.6,10.9,24.8z"/>
						<path class="st3" d="M13.1,24.1h1.1v2.6h-0.6v-2.1h-0.5V24.1z"/>
						<path class="st3" d="M15,24.1h1.1v2.6h-0.6v-2.1H15V24.1z"/>
						<path class="st3" d="M18.1,26.8c-0.4,0-0.6-0.1-0.8-0.4c-0.2-0.2-0.3-0.6-0.3-1s0.1-0.7,0.3-1c0.2-0.2,0.5-0.4,0.8-0.4
							c0.4,0,0.6,0.1,0.8,0.4c0.2,0.2,0.3,0.6,0.3,1s-0.1,0.7-0.3,1C18.8,26.6,18.5,26.8,18.1,26.8z M17.7,24.8
							c-0.1,0.2-0.1,0.4-0.1,0.6c0,0.3,0,0.5,0.1,0.6c0.1,0.2,0.2,0.2,0.4,0.2c0.2,0,0.3-0.1,0.4-0.2c0.1-0.2,0.1-0.4,0.1-0.6
							c0-0.3,0-0.5-0.1-0.6c-0.1-0.2-0.2-0.2-0.4-0.2C18,24.5,17.8,24.6,17.7,24.8z"/>
						<path class="st3" d="M21.1,26.8c-0.4,0-0.6-0.1-0.8-0.4c-0.2-0.2-0.3-0.6-0.3-1s0.1-0.7,0.3-1c0.2-0.2,0.5-0.4,0.8-0.4
							c0.4,0,0.6,0.1,0.8,0.4c0.2,0.2,0.3,0.6,0.3,1s-0.1,0.7-0.3,1C21.8,26.6,21.5,26.8,21.1,26.8z M20.7,24.8
							c-0.1,0.2-0.1,0.4-0.1,0.6c0,0.3,0,0.5,0.1,0.6c0.1,0.2,0.2,0.2,0.4,0.2c0.2,0,0.3-0.1,0.4-0.2c0.1-0.2,0.1-0.4,0.1-0.6
							c0-0.3,0-0.5-0.1-0.6c-0.1-0.2-0.2-0.2-0.4-0.2C20.9,24.5,20.8,24.6,20.7,24.8z"/>
						<path class="st3" d="M22.9,24.1H24v2.6h-0.6v-2.1h-0.5V24.1z"/>
						<path class="st3" d="M24.8,24.1h1.1v2.6h-0.6v-2.1h-0.5V24.1z"/>
						<path class="st3" d="M26.7,24.1h1.1v2.6h-0.6v-2.1h-0.5V24.1z"/>
						<path class="st3" d="M29.8,26.8c-0.4,0-0.6-0.1-0.8-0.4c-0.2-0.2-0.3-0.6-0.3-1s0.1-0.7,0.3-1c0.2-0.2,0.5-0.4,0.8-0.4
							c0.4,0,0.6,0.1,0.8,0.4c0.2,0.2,0.3,0.6,0.3,1s-0.1,0.7-0.3,1C30.5,26.6,30.2,26.8,29.8,26.8z M29.4,24.8
							c-0.1,0.2-0.1,0.4-0.1,0.6c0,0.3,0,0.5,0.1,0.6c0.1,0.2,0.2,0.2,0.4,0.2c0.2,0,0.3-0.1,0.4-0.2c0.1-0.2,0.1-0.4,0.1-0.6
							c0-0.3,0-0.5-0.1-0.6c-0.1-0.2-0.2-0.2-0.4-0.2C29.7,24.5,29.5,24.6,29.4,24.8z"/>
						<path class="st3" d="M31.6,24.1h1.1v2.6h-0.6v-2.1h-0.5C31.6,24.6,31.6,24.1,31.6,24.1z"/>
						<path class="st3" d="M33.5,24.1h1.1v2.6H34v-2.1h-0.5V24.1z"/>
						<path class="st3" d="M36.6,26.8c-0.4,0-0.6-0.1-0.8-0.4c-0.2-0.2-0.3-0.6-0.3-1s0.1-0.7,0.3-1c0.2-0.2,0.5-0.4,0.8-0.4
							c0.4,0,0.6,0.1,0.8,0.4c0.2,0.2,0.3,0.6,0.3,1s-0.1,0.7-0.3,1C37.3,26.6,37,26.8,36.6,26.8z M36.2,24.8
							c-0.1,0.2-0.1,0.4-0.1,0.6c0,0.3,0,0.5,0.1,0.6c0.1,0.2,0.2,0.2,0.4,0.2s0.3-0.1,0.4-0.2c0.1-0.2,0.1-0.4,0.1-0.6
							c0-0.3,0-0.5-0.1-0.6s-0.2-0.2-0.4-0.2C36.5,24.5,36.3,24.6,36.2,24.8z"/>
						<path class="st3" d="M39.6,26.8c-0.4,0-0.6-0.1-0.8-0.4c-0.2-0.2-0.3-0.6-0.3-1s0.1-0.7,0.3-1c0.2-0.2,0.5-0.4,0.8-0.4
							c0.4,0,0.6,0.1,0.8,0.4c0.2,0.2,0.3,0.6,0.3,1s-0.1,0.7-0.3,1C40.3,26.6,40,26.8,39.6,26.8z M39.2,24.8
							c-0.1,0.2-0.1,0.4-0.1,0.6c0,0.3,0,0.5,0.1,0.6c0.1,0.2,0.2,0.2,0.4,0.2s0.3-0.1,0.4-0.2c0.1-0.2,0.1-0.4,0.1-0.6
							c0-0.3,0-0.5-0.1-0.6c-0.1-0.2-0.2-0.2-0.4-0.2C39.5,24.5,39.3,24.6,39.2,24.8z"/>
						<path class="st3" d="M5.3,31.3c-0.4,0-0.6-0.1-0.8-0.4c-0.2-0.2-0.3-0.6-0.3-1s0.1-0.7,0.3-1c0.2-0.2,0.5-0.4,0.8-0.4
							c0.4,0,0.6,0.1,0.8,0.4c0.2,0.2,0.3,0.6,0.3,1s-0.1,0.7-0.3,1C6,31.2,5.7,31.3,5.3,31.3z M5,29.3c-0.1,0.2-0.1,0.4-0.1,0.6
							c0,0.3,0,0.5,0.1,0.6c0.1,0.2,0.2,0.2,0.4,0.2c0.2,0,0.3-0.1,0.4-0.2c0.1-0.2,0.1-0.4,0.1-0.6c0-0.3,0-0.5-0.1-0.6
							c-0.1-0.2-0.2-0.2-0.4-0.2C5.2,29.1,5,29.1,5,29.3z"/>
						<path class="st3" d="M7.2,28.6h1.1v2.6H7.7v-2.1H7.2V28.6z"/>
						<path class="st3" d="M10.2,31.3c-0.4,0-0.6-0.1-0.8-0.4c-0.2-0.2-0.3-0.6-0.3-1s0.1-0.7,0.3-1c0.2-0.2,0.5-0.4,0.8-0.4
							c0.4,0,0.6,0.1,0.8,0.4c0.2,0.2,0.3,0.6,0.3,1s-0.1,0.7-0.3,1C10.9,31.2,10.6,31.3,10.2,31.3z M9.9,29.3
							c-0.1,0.2-0.1,0.4-0.1,0.6c0,0.3,0,0.5,0.1,0.6c0.1,0.2,0.2,0.2,0.4,0.2s0.3-0.1,0.4-0.2c0.1-0.2,0.1-0.4,0.1-0.6
							c0-0.3,0-0.5-0.1-0.6c-0.1-0.2-0.2-0.2-0.4-0.2C10.1,29.1,9.9,29.1,9.9,29.3z"/>
						<path class="st3" d="M12,28.6h1.1v2.6h-0.6v-2.1H12V28.6z"/>
						<path class="st3" d="M15.1,31.3c-0.4,0-0.6-0.1-0.8-0.4c-0.2-0.2-0.3-0.6-0.3-1s0.1-0.7,0.3-1c0.2-0.2,0.5-0.4,0.8-0.4
							c0.4,0,0.6,0.1,0.8,0.4c0.2,0.2,0.3,0.6,0.3,1s-0.1,0.7-0.3,1C15.8,31.2,15.5,31.3,15.1,31.3z M14.8,29.3
							c-0.1,0.2-0.1,0.4-0.1,0.6c0,0.3,0,0.5,0.1,0.6c0.1,0.2,0.2,0.2,0.4,0.2s0.3-0.1,0.4-0.2c0.1-0.2,0.1-0.4,0.1-0.6
							c0-0.3,0-0.5-0.1-0.6c-0.1-0.2-0.2-0.2-0.4-0.2C15,29.1,14.8,29.1,14.8,29.3z"/>
						<path class="st3" d="M18.1,31.3c-0.4,0-0.6-0.1-0.8-0.4c-0.2-0.2-0.3-0.6-0.3-1s0.1-0.7,0.3-1c0.2-0.2,0.5-0.4,0.8-0.4
							c0.4,0,0.6,0.1,0.8,0.4c0.2,0.2,0.3,0.6,0.3,1s-0.1,0.7-0.3,1C18.8,31.2,18.5,31.3,18.1,31.3z M17.7,29.3
							c-0.1,0.2-0.1,0.4-0.1,0.6c0,0.3,0,0.5,0.1,0.6c0.1,0.2,0.2,0.2,0.4,0.2c0.2,0,0.3-0.1,0.4-0.2c0.1-0.2,0.1-0.4,0.1-0.6
							c0-0.3,0-0.5-0.1-0.6c-0.1-0.2-0.2-0.2-0.4-0.2C18,29.1,17.8,29.1,17.7,29.3z"/>
						<path class="st3" d="M19.9,28.6H21v2.6h-0.6v-2.1h-0.5V28.6z"/>
						<path class="st3" d="M23,31.3c-0.4,0-0.6-0.1-0.8-0.4c-0.2-0.2-0.3-0.6-0.3-1s0.1-0.7,0.3-1c0.2-0.2,0.5-0.4,0.8-0.4
							c0.4,0,0.6,0.1,0.8,0.4c0.2,0.2,0.3,0.6,0.3,1s-0.1,0.7-0.3,1C23.7,31.2,23.4,31.3,23,31.3z M22.6,29.3
							c-0.1,0.2-0.1,0.4-0.1,0.6c0,0.3,0,0.5,0.1,0.6c0.1,0.2,0.2,0.2,0.4,0.2c0.2,0,0.3-0.1,0.4-0.2c0.1-0.2,0.1-0.4,0.1-0.6
							c0-0.3,0-0.5-0.1-0.6c-0.1-0.2-0.2-0.2-0.4-0.2C22.9,29.1,22.7,29.1,22.6,29.3z"/>
						<path class="st3" d="M26,31.3c-0.4,0-0.6-0.1-0.8-0.4c-0.2-0.2-0.3-0.6-0.3-1s0.1-0.7,0.3-1c0.2-0.2,0.5-0.4,0.8-0.4
							c0.4,0,0.6,0.1,0.8,0.4c0.2,0.2,0.3,0.6,0.3,1s-0.1,0.7-0.3,1C26.7,31.2,26.4,31.3,26,31.3z M25.6,29.3
							c-0.1,0.2-0.1,0.4-0.1,0.6c0,0.3,0,0.5,0.1,0.6c0.1,0.2,0.2,0.2,0.4,0.2c0.2,0,0.3-0.1,0.4-0.2s0.1-0.4,0.1-0.6
							c0-0.3,0-0.5-0.1-0.6c-0.1-0.2-0.2-0.2-0.4-0.2C25.8,29.1,25.7,29.1,25.6,29.3z"/>
						<path class="st3" d="M29,31.3c-0.4,0-0.6-0.1-0.8-0.4c-0.2-0.2-0.3-0.6-0.3-1s0.1-0.7,0.3-1c0.2-0.2,0.5-0.4,0.8-0.4
							c0.4,0,0.6,0.1,0.8,0.4c0.2,0.2,0.3,0.6,0.3,1s-0.1,0.7-0.3,1C29.7,31.2,29.4,31.3,29,31.3z M28.6,29.3
							c-0.1,0.2-0.1,0.4-0.1,0.6c0,0.3,0,0.5,0.1,0.6c0.1,0.2,0.2,0.2,0.4,0.2c0.2,0,0.3-0.1,0.4-0.2c0.1-0.2,0.1-0.4,0.1-0.6
							c0-0.3,0-0.5-0.1-0.6c-0.1-0.2-0.2-0.2-0.4-0.2C28.8,29.1,28.7,29.1,28.6,29.3z"/>
						<path class="st3" d="M32,31.3c-0.4,0-0.6-0.1-0.8-0.4c-0.2-0.2-0.3-0.6-0.3-1s0.1-0.7,0.3-1c0.2-0.2,0.5-0.4,0.8-0.4
							c0.4,0,0.6,0.1,0.8,0.4c0.2,0.2,0.3,0.6,0.3,1s-0.1,0.7-0.3,1C32.6,31.2,32.4,31.3,32,31.3z M31.6,29.3
							c-0.1,0.2-0.1,0.4-0.1,0.6c0,0.3,0,0.5,0.1,0.6c0.1,0.2,0.2,0.2,0.4,0.2c0.2,0,0.3-0.1,0.4-0.2c0.1-0.2,0.1-0.4,0.1-0.6
							c0-0.3,0-0.5-0.1-0.6c-0.1-0.2-0.2-0.2-0.4-0.2C31.8,29.1,31.7,29.1,31.6,29.3z"/>
						<path class="st3" d="M35,31.3c-0.4,0-0.6-0.1-0.8-0.4c-0.2-0.2-0.3-0.6-0.3-1s0.1-0.7,0.3-1c0.2-0.2,0.5-0.4,0.8-0.4
							c0.4,0,0.6,0.1,0.8,0.4c0.2,0.2,0.3,0.6,0.3,1s-0.1,0.7-0.3,1C35.6,31.2,35.4,31.3,35,31.3z M34.6,29.3
							c-0.1,0.2-0.1,0.4-0.1,0.6c0,0.3,0,0.5,0.1,0.6c0.1,0.2,0.2,0.2,0.4,0.2s0.3-0.1,0.4-0.2c0.1-0.2,0.1-0.4,0.1-0.6
							c0-0.3,0-0.5-0.1-0.6c-0.1-0.2-0.2-0.2-0.4-0.2C34.8,29.1,34.7,29.1,34.6,29.3z"/>
						<path class="st3" d="M38,31.3c-0.4,0-0.6-0.1-0.8-0.4c-0.2-0.2-0.3-0.6-0.3-1s0.1-0.7,0.3-1c0.2-0.2,0.5-0.4,0.8-0.4
							c0.4,0,0.6,0.1,0.8,0.4c0.2,0.2,0.3,0.6,0.3,1s-0.1,0.7-0.3,1C38.6,31.2,38.4,31.3,38,31.3z M37.6,29.3
							c-0.1,0.2-0.1,0.4-0.1,0.6c0,0.3,0,0.5,0.1,0.6c0.1,0.2,0.2,0.2,0.4,0.2s0.3-0.1,0.4-0.2c0.1-0.2,0.1-0.4,0.1-0.6
							c0-0.3,0-0.5-0.1-0.6c-0.1-0.2-0.2-0.2-0.4-0.2C37.8,29.1,37.7,29.1,37.6,29.3z"/>
						<path class="st3" d="M39.8,28.6h1.1v2.6h-0.6v-2.1h-0.5V28.6z"/>
					</g>
				</g>
			</g>
		</g>
		<g>
			<defs>
				<polygon id="SVGID_00000029046216303887050730000011555634136777751430_" points="16.4,-4.1 16.4,18.4 34.7,32.3 49.5,32.3 
					67.8,18.4 67.8,-4.1 				"/>
			</defs>
			<clipPath id="SVGID_00000109029104201250958940000009116979336433144246_">
				<use xlink:href="#SVGID_00000029046216303887050730000011555634136777751430_"  style="overflow:visible;"/>
			</clipPath>
			
				<g id="XMLID_00000096752992263547912620000008462588637321833609_" style="clip-path:url(#SVGID_00000109029104201250958940000009116979336433144246_);">
				<path id="XMLID_00000026125988879836628600000002801966682809515916_" class="st13" d="M47.7,37.8H36.4c-1.2,0-2.1-0.9-2.1-2.1
					v-8.9c0-1.2,0.9-2.1,2.1-2.1h11.4c1.2,0,2.1,0.9,2.1,2.1v8.9C49.8,36.9,48.8,37.8,47.7,37.8z"/>
				<path id="XMLID_00000050623132329628455180000010137143811852056255_" class="st13" d="M48.3,27.1H35.8v-5.3
					c0-3.4,2.8-6.2,6.2-6.2s6.2,2.8,6.2,6.2L48.3,27.1L48.3,27.1z M37.6,25.3h8.9v-3.5c0-2.5-2-4.5-4.5-4.5s-4.5,2-4.5,4.5
					L37.6,25.3L37.6,25.3z"/>
				<path id="XMLID_00000082350911124682126210000001474822492460467602_" class="st14" d="M43.9,29.9c0-1.1-0.8-1.9-1.9-1.9
					s-1.9,0.8-1.9,1.9c0,0.8,0.5,1.4,1.2,1.8v1.9c0,0.4,0.4,0.7,0.7,0.7s0.7-0.4,0.7-0.7v-2C43.4,31.3,43.9,30.6,43.9,29.9z"/>
			</g>
		</g>
	</g>
	<g>
		<g>
			<g>
				<g>
					<g>
						<path class="st13" d="M66.3,22.4c-0.1,0-0.2,0.1-0.2,0.2v0.7c0,0.1,0.1,0.2,0.2,0.2s0.2-0.1,0.2-0.2v-0.7
							C66.4,22.5,66.3,22.4,66.3,22.4z"/>
					</g>
				</g>
				<g>
					<g>
						<path class="st13" d="M66.3,21.2c-0.1,0-0.2,0.1-0.2,0.2V22c0,0.1,0.1,0.2,0.2,0.2s0.2-0.1,0.2-0.2v-0.7
							C66.4,21.3,66.3,21.2,66.3,21.2z"/>
					</g>
				</g>
			</g>
			<g>
				<g>
					<g>
						<path class="st13" d="M67.2,22.1h-0.6c-0.1,0-0.2,0.1-0.2,0.2s0.1,0.2,0.2,0.2h0.6c0.1,0,0.2-0.1,0.2-0.2
							C67.3,22.2,67.3,22.1,67.2,22.1z"/>
					</g>
				</g>
				<g>
					<g>
						<path class="st13" d="M65.9,22.1h-0.6c-0.1,0-0.2,0.1-0.2,0.2s0.1,0.2,0.2,0.2h0.6c0.1,0,0.2-0.1,0.2-0.2
							C66,22.2,66,22.1,65.9,22.1z"/>
					</g>
				</g>
			</g>
		</g>
		<g>
			<g>
				<g>
					<g>
						<path class="st15" d="M63.9,3.2c-0.1,0-0.3,0.1-0.3,0.3v1.2c0,0.1,0.1,0.3,0.3,0.3c0.1,0,0.3-0.1,0.3-0.3V3.5
							C64.2,3.4,64.2,3.2,63.9,3.2z"/>
					</g>
					<g>
						<path class="st15" d="M63.9,1.1c-0.1,0-0.3,0.1-0.3,0.3v1.2c0,0.1,0.1,0.3,0.3,0.3c0.1,0,0.3-0.1,0.3-0.3V1.4
							C64.2,1.3,64.2,1.1,63.9,1.1z"/>
					</g>
				</g>
				<g>
					<g>
						<path class="st15" d="M65.6,2.7h-1.1c-0.1,0-0.3,0.1-0.3,0.3s0.1,0.3,0.3,0.3h1.1c0.1,0,0.3-0.1,0.3-0.3S65.8,2.7,65.6,2.7z"
							/>
					</g>
					<g>
						<path class="st15" d="M63.4,2.7h-1.1C62.2,2.7,62,2.8,62,3s0.1,0.3,0.3,0.3h1.1c0.1,0,0.3-0.1,0.3-0.3S63.5,2.7,63.4,2.7z"/>
					</g>
				</g>
			</g>
		</g>
		<g>
			<g>
				<g>
					<g>
						<path class="st15" d="M10.4,43.7c-0.1,0-0.3,0.1-0.3,0.3v1.3c0,0.1,0.1,0.3,0.3,0.3c0.1,0,0.3-0.1,0.3-0.3V44
							C10.7,43.9,10.7,43.7,10.4,43.7z"/>
					</g>
					<g>
						<path class="st15" d="M10.4,41.3c-0.1,0-0.3,0.1-0.3,0.3V43c0,0.1,0.1,0.3,0.3,0.3c0.1,0,0.3-0.1,0.3-0.3v-1.3
							C10.7,41.5,10.7,41.3,10.4,41.3z"/>
					</g>
				</g>
				<g>
					<g>
						<path class="st15" d="M12.3,43.1h-1.2c-0.1,0-0.3,0.1-0.3,0.3c0,0.1,0.1,0.3,0.3,0.3h1.2c0.1,0,0.3-0.1,0.3-0.3
							C12.6,43.3,12.5,43.1,12.3,43.1z"/>
					</g>
					<g>
						<path class="st15" d="M9.8,43.1H8.6c-0.1,0-0.3,0.1-0.3,0.3c0,0.1,0.1,0.3,0.3,0.3h1.2c0.1,0,0.3-0.1,0.3-0.3
							C10.1,43.3,9.9,43.1,9.8,43.1z"/>
					</g>
				</g>
			</g>
		</g>
	</g>
</g>
<g id="XMLID_00000031926658119794620060000008737527992070795183_">
	<path class="st16" d="M60.5,37.4L60.5,37.4c-0.5-0.3-0.8-0.7-0.9-1c-0.1-0.3-0.1-0.7,0.1-1c0.4-0.8,1.2-1,2-0.7l8.7,4.2
		c1.5-1.6,3.9-2.1,6-1.2c2.6,1.2,3.6,4.3,2.4,6.8c-1.2,2.6-4.3,3.6-6.8,2.4c-2.1-1-3.2-3.2-2.8-5.4l-4.3-2l-0.3,0.6
		c-0.2,0.3-0.6,0.4-0.9,0.3c-0.3-0.2-0.5-0.6-0.3-0.9l0.3-0.6l-0.4-0.2L62.7,40c-0.2,0.3-0.6,0.4-0.9,0.3c-0.3-0.2-0.4-0.6-0.3-0.9
		l0.6-1.4l-0.4,0l-0.3,0.7c-0.2,0.3-0.6,0.4-0.9,0.3c-0.3-0.2-0.4-0.6-0.3-0.9L60.5,37.4z M74.7,43.6c0.1,0,0.1,0.1,0.2,0.1
		c0.5,0.3,1,0,1.3-0.4c0.3-0.5,0-1-0.4-1.3c-0.1,0-0.1-0.1-0.2-0.1s-0.1,0-0.2,0c-0.3,0-0.7,0.2-0.9,0.5
		C74.3,42.9,74.4,43.3,74.7,43.6z"/>
</g>
</svg>
