<?xml version="1.0" encoding="utf-8"?>
<!-- Generator: Adobe Illustrator 25.4.1, SVG Export Plug-In . SVG Version: 6.00 Build 0)  -->
<svg version="1.1" id="Layer_1" xmlns="http://www.w3.org/2000/svg" xmlns:xlink="http://www.w3.org/1999/xlink" x="0px" y="0px"
	 viewBox="0 0 81.6 54.8" style="enable-background:new 0 0 81.6 54.8;" xml:space="preserve">
<style type="text/css">
	.st0{display:none;opacity:0.54;fill:#FFFFFF;enable-background:new    ;}
	.st1{opacity:0.1;}
	.st2{fill:#3B4751;}
	.st3{fill:#0D6ECE;}
	.st4{fill:#75B8FF;}
	.st5{fill:#FFFFFF;}
	.st6{fill:#49B8F6;}
	.st7{fill:#FFAA01;}
</style>
<rect x="-17.5" y="-39.9" class="st0" width="125.1" height="127.9"/>
<g>
	<g id="Background_00000025436241210251508500000011696859573663215028_" class="st1">
		<path class="st2" d="M65.4,3.6c-9.8-4.9-13.2,0.1-26.7-0.7c-5.2-0.4-6-2.4-12.2-2.1C9.7,1.4,6.1,29.1,21.4,34
			C36.6,39,34.2,53.1,54.3,52.2c12.2-0.6,8.4-15.3,14.1-23.1C77.2,17.1,74.7,8.2,65.4,3.6z M51.3,40.7c0.2-0.2,0.4-0.3,0.7-0.2
			s0.3,0.4,0.2,0.7c-0.2,0.2-0.4,0.3-0.7,0.2C51.3,41.2,51.2,40.8,51.3,40.7z"/>
		<path id="Background_00000086693675698752414690000016886387552296534700_" class="st2" d="M58.8,39.6c0,0,3.7,1.3,5.7,3.7
			c1.8,2.2,6.3,6.2-8.2,9.2c-13.4,2.7-39.7,4-34.2-1.8C27.6,44.9,0,49.4,0,43.2C0,34.2,58.8,39.6,58.8,39.6z"/>
		<path id="Background_00000094609793617504266990000006987884294070323891_" class="st2" d="M35.3,52.7c0,0-3.9-0.8-6.1-2.7
			c-2.2-1.9-7.2-5.2,6.8-10.3C49,34.9,74.8,30,70.2,36.6c-4.7,6.6,10.6,0.2,11.4,6.3C82.9,51.8,35.3,52.7,35.3,52.7z"/>
	</g>
	<g id="message">
		<g>
			<g>
				<path class="st3" d="M68.3,9.8v20.5c0,2.9-2.4,5.3-5.3,5.3h-1.8v11.1L51.2,35.6H29.2c-2.9,0-5.3-2.4-5.3-5.3V9.8
					c0-2.9,2.4-5.3,5.3-5.3H63C65.9,4.5,68.3,6.9,68.3,9.8z"/>
			</g>
		</g>
		<g>
			<path class="st4" d="M53.5,17.5V38c0,2.9-2.4,5.3-5.3,5.3H31.4L21.3,54.4V43.3h-6.9c-2.9,0-5.3-2.4-5.3-5.3V17.5
				c0-2.9,2.4-5.3,5.3-5.3h33.8C51.1,12.2,53.5,14.6,53.5,17.5z"/>
		</g>
		<g>
			<circle class="st5" cx="19.3" cy="27.1" r="3.1"/>
			<circle class="st5" cx="31.8" cy="27.1" r="3.1"/>
			<circle class="st5" cx="43.9" cy="27.1" r="3.1"/>
		</g>
	</g>
	<g>
		<g>
			<g>
				<g>
					<path class="st5" d="M17.2,17.7c0.1,0,0.2,0.1,0.2,0.2v0.7c0,0.1-0.1,0.2-0.2,0.2c-0.1,0-0.2-0.1-0.2-0.2v-0.7
						C17,17.8,17.1,17.7,17.2,17.7z"/>
				</g>
			</g>
			<g>
				<g>
					<path class="st5" d="M17.2,16.4c0.1,0,0.2,0.1,0.2,0.2v0.7c0,0.1-0.1,0.2-0.2,0.2c-0.1,0-0.2-0.1-0.2-0.2v-0.7
						C17,16.5,17.1,16.4,17.2,16.4z"/>
				</g>
			</g>
		</g>
		<g>
			<g>
				<g>
					<path class="st5" d="M16.2,17.4h0.6c0.1,0,0.2,0.1,0.2,0.2c0,0.1-0.1,0.2-0.2,0.2h-0.6c-0.1,0-0.2-0.1-0.2-0.2
						S16.2,17.4,16.2,17.4z"/>
				</g>
			</g>
			<g>
				<g>
					<path class="st5" d="M17.6,17.4h0.6c0.1,0,0.2,0.1,0.2,0.2c0,0.1-0.1,0.2-0.2,0.2h-0.6c-0.1,0-0.2-0.1-0.2-0.2
						C17.4,17.4,17.5,17.4,17.6,17.4z"/>
				</g>
			</g>
		</g>
	</g>
	<g>
		<g>
			<g>
				<g>
					<path class="st6" d="M22,2.2c0.1,0,0.3,0.1,0.3,0.3v1.2c0,0.1-0.1,0.3-0.3,0.3c-0.1,0-0.3-0.1-0.3-0.3V2.4
						C21.8,2.3,21.8,2.2,22,2.2z"/>
				</g>
				<g>
					<path class="st6" d="M22,0c0.1,0,0.3,0.1,0.3,0.3v1.2c0,0.1-0.1,0.3-0.3,0.3c-0.1,0-0.3-0.1-0.3-0.3V0.3C21.8,0.1,21.8,0,22,0z
						"/>
				</g>
			</g>
			<g>
				<g>
					<path class="st6" d="M20.3,1.6h1.1c0.1,0,0.3,0.1,0.3,0.3s-0.1,0.3-0.3,0.3h-1.1C20.1,2.2,20,2,20,1.9S20.1,1.6,20.3,1.6z"/>
				</g>
				<g>
					<path class="st6" d="M22.6,1.6h1.1c0.1,0,0.3,0.1,0.3,0.3s-0.1,0.3-0.3,0.3h-1.1c-0.1,0-0.3-0.1-0.3-0.3
						C22.3,1.8,22.4,1.6,22.6,1.6z"/>
				</g>
			</g>
		</g>
	</g>
	<g>
		<g>
			<g>
				<g>
					<path class="st6" d="M70.8,42.7c0.2,0,0.3,0.2,0.3,0.3v1.4c0,0.2-0.2,0.3-0.3,0.3s-0.3-0.2-0.3-0.3V43
						C70.5,42.8,70.5,42.7,70.8,42.7z"/>
				</g>
				<g>
					<path class="st6" d="M70.8,40.2c0.2,0,0.3,0.2,0.3,0.3v1.4c0,0.2-0.2,0.3-0.3,0.3s-0.3-0.2-0.3-0.3v-1.4
						C70.5,40.3,70.5,40.2,70.8,40.2z"/>
				</g>
			</g>
			<g>
				<g>
					<path class="st6" d="M68.8,42H70c0.2,0,0.3,0.2,0.3,0.3s-0.2,0.3-0.3,0.3h-1.2c-0.2,0-0.3-0.2-0.3-0.3S68.6,42,68.8,42z"/>
				</g>
				<g>
					<path class="st6" d="M71.4,42h1.2c0.2,0,0.3,0.2,0.3,0.3s-0.2,0.3-0.3,0.3h-1.2c-0.2,0-0.3-0.2-0.3-0.3S71.2,42,71.4,42z"/>
				</g>
			</g>
		</g>
	</g>
	<g>
		<path class="st5" d="M64.3,6.8c0.6,0,1,0.5,1,1s-0.5,1-1,1c-0.6,0-1-0.5-1-1C63.3,7.3,63.8,6.8,64.3,6.8z M64.3,8.6
			c0.4,0,0.7-0.3,0.7-0.7s-0.3-0.7-0.7-0.7c-0.4,0-0.7,0.3-0.7,0.7C63.6,8.3,63.9,8.6,64.3,8.6z"/>
	</g>
	<g id="star">
		<path class="st7" d="M32.7,51.4l-1.4,0.8l0.3-1.6l-1.2-1.1l1.6-0.2l0.7-1.5l0.7,1.5l1.6,0.2l-1.2,1.1l0.3,1.6L32.7,51.4z"/>
		<path class="st7" d="M37.8,51.4l-1.4,0.8l0.3-1.6l-1.2-1.1l1.6-0.2l0.7-1.5l0.7,1.5l1.6,0.2l-1.2,1.1l0.3,1.6L37.8,51.4z"/>
		<path class="st7" d="M43.2,51.4l-1.4,0.8l0.3-1.6l-1.2-1.1l1.6-0.2l0.7-1.5l0.7,1.5l1.6,0.2l-1.2,1.1l0.3,1.6L43.2,51.4z"/>
		<path class="st7" d="M48.4,51.4l-1.4,0.8l0.3-1.6L46,49.5l1.6-0.2l0.7-1.5l0.7,1.5l1.6,0.2l-1.2,1.1l0.3,1.6L48.4,51.4z"/>
		<path class="st7" d="M53.5,51.4l-1.4,0.8l0.3-1.6l-1.2-1.1l1.6-0.2l0.7-1.5l0.7,1.5l1.6,0.2l-1.2,1.1l0.3,1.6L53.5,51.4z"/>
	</g>
</g>
</svg>
