<?xml version="1.0" encoding="utf-8"?>
<!-- Generator: Adobe Illustrator 26.0.1, SVG Export Plug-In . SVG Version: 6.00 Build 0)  -->
<svg version="1.1" id="Layer_1" xmlns="http://www.w3.org/2000/svg" xmlns:xlink="http://www.w3.org/1999/xlink" x="0px" y="0px"
	 viewBox="0 0 103.2 70.6" style="enable-background:new 0 0 103.2 70.6;" xml:space="preserve">
<style type="text/css">
	.st0{display:none;opacity:0.54;fill:#FFFFFF;enable-background:new    ;}
	.st1{opacity:3.000000e-02;}
	.st2{fill:#FFFFFF;}
	.st3{fill:#75B8FF;}
	.st4{opacity:0.67;fill:url(#XMLID_00000105385886349761625190000001089477495082156699_);enable-background:new    ;}
	.st5{fill:#D6F1FF;}
	.st6{fill:#1A9EFE;}
	.st7{fill:#D4EDFF;}
	.st8{opacity:0.1;fill:#FFFFFF;enable-background:new    ;}
	.st9{fill:#FCBF1E;}
	.st10{opacity:0.2;fill:url(#XMLID_00000182502536130205035830000004187721774180343457_);enable-background:new    ;}
	.st11{fill:#DD7824;}
	.st12{fill:#F99121;}
	.st13{fill:#F7D079;}
	.st14{opacity:0.1;enable-background:new    ;}
	.st15{opacity:0.5;fill:#FCBF1E;enable-background:new    ;}
	.st16{fill:#49B8F6;}
	.st17{fill:#E8E8F9;}
</style>
<rect x="-11.1" y="-26.8" class="st0" width="125.1" height="127.9"/>
<g>
	<g id="Background" class="st1">
		<path id="Background_00000155115314680531210380000000156779984604966543_" class="st2" d="M83.8,5.6c11,5.6,14.1,16.4,3.6,30.9
			c-6.8,9.4-2.3,27.3-16.9,28c-24,1.2-21.1-15.9-39.3-22C12.9,36.5,17.3,3,37.3,2.2c7.4-0.3,8.3,2,14.6,2.5
			C68,5.7,72.1-0.3,83.8,5.6z"/>
		<path id="Background_00000153688513920044128290000014408614040271251110_" class="st2" d="M70.3,51.3c0,0,4.4,1.6,6.7,4.3
			c2.2,2.7,7.5,7.4-9.8,10.9c-15.9,3.3-47.1,4.7-40.5-2.2c6.6-6.8-26.1-1.5-26.1-8.8C0.6,44.7,70.3,51.3,70.3,51.3z"/>
		<path id="Background_00000106827725056403725460000002824515989970191760_" class="st2" d="M47.7,67.3c0,0-4.6-1-7.2-3.3
			c-2.6-2.3-8.5-6.2,8.1-12.2c15.3-5.6,45.9-11.5,40.4-3.7s12.5,0.3,13.5,7.5C104.1,66.2,47.7,67.3,47.7,67.3z"/>
	</g>
	<polygon id="XMLID_00000008862853959407546200000011711374509447114645_" class="st3" points="53.6,59.1 39.9,59.1 41.1,48.1 
		52.4,48.1 	"/>
	
		<linearGradient id="XMLID_00000119817817245151050270000015101993189656592804_" gradientUnits="userSpaceOnUse" x1="46.75" y1="227.6785" x2="46.75" y2="230.6911" gradientTransform="matrix(1 0 0 -1 0 283.0191)">
		<stop  offset="0" style="stop-color:#4498FA;stop-opacity:0"/>
		<stop  offset="1" style="stop-color:#4498FA"/>
	</linearGradient>
	
		<polygon id="XMLID_00000069366020349299421910000011072776963427103116_" style="opacity:0.67;fill:url(#XMLID_00000119817817245151050270000015101993189656592804_);enable-background:new    ;" points="
		40.3,55.3 53.2,55.3 52.9,52.3 40.6,52.3 	"/>
	<path id="XMLID_00000117646042388319613180000000650778651095578029_" class="st3" d="M58.9,59.6L58.9,59.6c0-1-0.8-1.8-1.7-1.8
		H36.8c-1,0-1.8,0.8-1.8,1.8c0,0,0,0,0,0.1L58.9,59.6L58.9,59.6z"/>
	<path class="st5" d="M75,15.7v34.9c0,0.1,0,0.2,0,0.4l-0.2,0.4c-0.3,0.5-0.8,0.9-1.4,0.9H18.9c-0.6,0-1.2-0.4-1.4-0.9
		c0-0.1-0.1-0.2-0.1-0.4c0-0.1,0-0.2,0-0.4V15.7c0-0.5,0.2-1,0.6-1.3c0.3-0.2,0.6-0.4,1-0.4h54.5c0.4,0,0.7,0.1,1,0.4
		C74.7,14.7,75,15.2,75,15.7z"/>
	<path class="st6" d="M72.6,16H19.7c-0.4,0-0.8,0.4-0.8,0.8v32.4c0,0.4,0.4,0.8,0.8,0.8h52.9c0.4,0,0.8-0.4,0.8-0.8V16.8
		C73.4,16.4,73,16,72.6,16z"/>
	<path class="st3" d="M62.5,52.3H29.9c-1.4,0-2.6-0.4-2.6-0.9H65C65.1,52,63.9,52.3,62.5,52.3z"/>
	<path class="st7" d="M46.6,15.2h-1.9c0,0-0.1,0-0.1-0.1s0-0.1,0.1-0.1h1.9C46.7,15.1,46.7,15.1,46.6,15.2
		C46.7,15.2,46.7,15.2,46.6,15.2z"/>
	<path class="st8" d="M17.4,16v29.6L32.7,16C32.7,16,17.4,16,17.4,16z M36.3,16L18.7,50h10.9l17.6-34H36.3z"/>
	<g id="XMLID_00000065053073537034875120000018049299139722263956_">
		<path id="XMLID_00000022531404582142381130000003536473363650005899_" class="st9" d="M18.1,18.1c-1.2,0.4-3.9,1-7.6,0
			C10,18,9.6,18.3,9.6,18.8v8c0,3.6,1.6,7,4.4,9.3c1.5,1.2,3.2,2.2,4.7,2.2s3.1-0.9,4.5-2c2.9-2.3,4.6-5.8,4.6-9.4v-8
			c0-0.5-0.5-0.8-0.9-0.7c-3.7,0.9-6.4,0.3-7.6,0C18.9,18,18.5,18,18.1,18.1z"/>
		<path id="XMLID_00000164491168266695145240000001705258058359710895_" class="st6" d="M18.7,36.4c-0.9,0-2.1-0.6-3.4-1.7
			C13,32.8,11.7,30,11.7,27v-6.5c0.9,0.2,1.8,0.2,2.8,0.2c1.9,0,3.4-0.3,4.3-0.6c0.9,0.3,2.4,0.6,4.3,0.6c0.9,0,1.8-0.1,2.8-0.2V27
			c0,3.1-1.4,6-3.8,7.9C20.7,35.8,19.5,36.4,18.7,36.4z"/>
		
			<linearGradient id="XMLID_00000134930472958514557170000015084344046161380499_" gradientUnits="userSpaceOnUse" x1="18.708" y1="254.7596" x2="25.7866" y2="254.7596" gradientTransform="matrix(1 0 0 -1 0 283.0191)">
			<stop  offset="0" style="stop-color:#FFFFFF"/>
			<stop  offset="1" style="stop-color:#FFFFFF;stop-opacity:0"/>
		</linearGradient>
		
			<path id="XMLID_00000180342506688589374660000000911429666906973061_" style="opacity:0.2;fill:url(#XMLID_00000134930472958514557170000015084344046161380499_);enable-background:new    ;" d="
			M22,34.8c2.4-1.9,3.8-4.8,3.8-7.9v-6.4c-0.9,0.2-1.8,0.2-2.8,0.2c-1.9,0-3.4-0.3-4.3-0.6v16.3C19.5,36.4,20.7,35.8,22,34.8z"/>
		<path id="XMLID_00000114790587822489701070000000344846393168512701_" class="st2" d="M18.1,31.5c-0.2,0-0.4-0.1-0.6-0.2L15,28.8
			c-0.3-0.3-0.4-0.8-0.1-1.2c0.3-0.3,0.8-0.4,1.2-0.1l1.8,1.9l3.5-5.1c0.3-0.4,0.8-0.5,1.2-0.2c0.4,0.3,0.5,0.8,0.2,1.2l-4.1,5.8
			C18.6,31.3,18.4,31.5,18.1,31.5L18.1,31.5z"/>
	</g>
	<g id="XMLID_00000013913422325932638500000016750473079584260482_">
		<g id="XMLID_00000036932540638517931270000017807030441178586292_">
			<g id="XMLID_00000020369768875494677790000013086937704249323160_">
				<polygon id="XMLID_00000139972097681390280930000012583205725989315757_" class="st11" points="66.3,18.5 56.6,18.5 57.8,12 
					67.5,12 				"/>
				<polygon id="XMLID_00000039107483239656029810000010804053736623391399_" class="st11" points="60.3,11.2 58,11.2 57.8,12 
					60.6,12 				"/>
			</g>
			<g id="XMLID_00000168091439480900515540000012798035812205020090_">
				<polygon id="XMLID_00000044899374117139759980000004385289859739117711_" class="st12" points="66.1,18.5 56.4,18.5 57.7,12 
					67.3,12 				"/>
				<polygon id="XMLID_00000018211105735566205360000013933282952205180813_" class="st12" points="60.1,11.2 57.8,11.2 57.7,12 
					60.4,12 				"/>
			</g>
			<g id="XMLID_00000129913654891340163900000010509527812667833009_">
				<polygon id="XMLID_00000011735796159793721460000004120863828632957842_" class="st13" points="66.3,18.5 56.6,18.5 56.2,12 
					65.9,12 				"/>
				<polygon id="XMLID_00000034790331250379111590000004004546186572147612_" class="st13" points="58.5,11.2 56.2,11.2 56.2,12 
					59,12 				"/>
			</g>
			<g id="XMLID_00000043426058121061426550000008271242400922377099_">
				<polygon id="XMLID_00000066491027842708662920000010513824498518154146_" class="st9" points="66.1,18.5 56.4,18.5 56,12 
					65.7,12 				"/>
				<polygon id="XMLID_00000083070372688205819850000017312441608403637694_" class="st9" points="58.3,11.2 56,11.2 56,12 58.8,12 
									"/>
			</g>
		</g>
		<g id="XMLID_00000049930039100007011280000008966716292429502095_">
			<path id="XMLID_00000096049059550553374820000000093068778451076777_" class="st2" d="M62.1,17.7H60c-0.4,0-0.7-0.3-0.7-0.7v-1.6
				c0-0.4,0.3-0.7,0.7-0.7h2.2c0.4,0,0.7,0.3,0.7,0.7V17C62.8,17.4,62.5,17.7,62.1,17.7z"/>
			<path id="XMLID_00000047033273990337696360000017336492201630439338_" class="st2" d="M62.4,15.3h-2.8v-1.2
				c0-0.8,0.6-1.4,1.4-1.4c0.8,0,1.4,0.6,1.4,1.4C62.4,14.1,62.4,15.3,62.4,15.3z M60.1,14.9h2v-0.8c0-0.5-0.4-1-1-1
				c-0.5,0-1,0.4-1,1V14.9z"/>
			<path id="XMLID_00000176723316295164696690000012932734911552727437_" class="st9" d="M61.5,16c0-0.2-0.2-0.4-0.4-0.4
				s-0.4,0.2-0.4,0.4c0,0.2,0.1,0.3,0.3,0.4v0.4c0,0.1,0.1,0.2,0.2,0.2c0.1,0,0.2-0.1,0.2-0.2v-0.4C61.4,16.3,61.5,16.1,61.5,16z"/>
		</g>
	</g>
	<path class="st14" d="M30.7,55.8H12.1c-1.5,0-2.7-1.2-2.7-2.7l0,0c0-1.5,1.2-2.7,2.7-2.7h18.7c1.5,0,2.7,1.2,2.7,2.7l0,0
		C33.4,54.6,32.2,55.8,30.7,55.8z"/>
	<path class="st6" d="M10.9,43.4h0.7V54h-0.7c-0.5,0-1-0.4-1-0.9v-1.4c0-0.2,0.1-0.2,0.3-0.2h0.3c0.2,0,0.3-0.1,0.3-0.2v-5
		c0-0.2-0.1-0.2-0.3-0.2h-0.3c-0.2,0-0.3-0.1-0.3-0.2v-1.4C9.9,43.8,10.4,43.4,10.9,43.4L10.9,43.4z"/>
	<path class="st5" d="M15.1,42.6L15.1,42.6h-4.7c-0.8,0-1.5,0.7-1.5,1.5v9.1c0,0.8,0.7,1.5,1.5,1.5h1.8c0,0,0,0.1,0.1,0.1h0.8
		c0,0,0.1,0,0.1-0.1h0.9c0,0,0,0.1,0.1,0.1h1.9c0,0,0.1,0,0.1-0.1h0.5c0,0,0,0.1,0.1,0.1h1.9c0,0,0.1,0,0.1-0.1h13.1
		c0.8,0,1.5-0.7,1.5-1.5v-9.1c0-0.8-0.7-1.5-1.5-1.5H18.2l0,0c0,0,0-0.1-0.1-0.1h-2.7C15.1,42.5,15.1,42.5,15.1,42.6L15.1,42.6z"/>
	<path class="st6" d="M10.9,43.8h20.5c0.5,0,1,0.4,1,0.8v8.1c0,0.5-0.4,0.8-1,0.8H10.9c-0.5,0-1-0.4-1-0.8v-1.3
		c0-0.1,0.1-0.2,0.2-0.2h0.3c0.2,0,0.3-0.1,0.3-0.2v-4.6c0-0.1-0.1-0.2-0.3-0.2h-0.3c-0.2,0-0.2-0.1-0.2-0.2v-1.3
		C9.9,44.2,10.4,43.8,10.9,43.8L10.9,43.8z"/>
	<path class="st6" d="M10.4,47.8v1.7c0,0,0,0.1-0.1,0.1c0,0-0.1,0-0.1-0.1v-1.8C10.2,47.7,10.3,47.7,10.4,47.8
		C10.4,47.7,10.4,47.7,10.4,47.8z"/>
	<g>
		<path class="st14" d="M65.2,50.5V34.1c0-0.9,0.8-1.7,1.7-1.7h1c1.5,0,2.7,1.2,2.7,2.7v15.4c0,1.5-1.2,2.7-2.7,2.7l0,0
			C66.4,53.1,65.2,51.9,65.2,50.5z"/>
		<path class="st5" d="M67.6,54.6h14.3c0.5,0,1-0.4,1-1V33.3c0-0.5-0.4-1-1-1H67.6c-0.5,0-1,0.4-1,1v20.3
			C66.6,54.1,67,54.6,67.6,54.6z"/>
		<path class="st2" d="M67.5,34.3v17.4c0,0.4,0.3,0.6,0.7,0.6h13c0.4,0,0.7-0.3,0.7-0.6V34.3c0-0.4-0.3-0.6-0.7-0.6h-13
			C67.8,33.6,67.5,33.9,67.5,34.3z"/>
		<path class="st6" d="M68.2,33.6h13c0.4,0,0.7,0.3,0.7,0.6v17.4c0,0.4-0.3,0.6-0.7,0.6h-13c-0.4,0-0.7-0.3-0.7-0.6V34.3
			C67.5,33.9,67.8,33.6,68.2,33.6z"/>
		<path class="st6" d="M74,33h1.3c0,0,0.1,0,0.1-0.1c0,0,0-0.1-0.1-0.1H74C74,32.9,74,32.9,74,33L74,33z"/>
		<circle class="st2" cx="74.5" cy="53.5" r="0.7"/>
	</g>
	<g id="logo_00000065040564421317072040000003615772767866304399_">
		<g>
			<g id="XMLID_00000057836805422240005920000001446108945095675822_">
				<g id="XMLID_00000087397594375931741620000005767509196160754085_">
					<path id="XMLID_00000038415030639966877570000018157070540353534904_" class="st2" d="M37.4,36.9h-2.1c-1.1,0-1.9-0.9-1.9-1.9
						v-2.3c0-1.1,0.9-1.9,1.9-1.9h2.1V36.9z"/>
				</g>
				<g id="XMLID_00000071539885893608159090000001464644584468504712_">
					<g id="XMLID_00000058557731576866115260000016249328855646598328_">
						<path id="XMLID_00000039817842370016749040000015839671018449908917_" class="st2" d="M33.6,35.7c0,0-0.1-0.1-0.2-0.4
							c-0.1-0.1-0.1-0.3-0.2-0.5c0-0.1-0.1-0.2-0.1-0.3S33,34.3,33,34.2s-0.1-0.2-0.1-0.4c0-0.1-0.1-0.1-0.1-0.2
							c0-0.1,0-0.1-0.1-0.2c0-0.1-0.1-0.3-0.1-0.4c0-0.1,0-0.1-0.1-0.2c0-0.1-0.1-0.2-0.1-0.2c0-0.1,0-0.2-0.1-0.2v-0.1v-0.1
							c0-0.2-0.1-0.3-0.1-0.5s0-0.4-0.1-0.5v-0.1c0-0.1,0-0.1,0-0.1v-0.3v-0.3c0-0.1,0-0.2,0-0.3s0-0.2,0-0.3v-0.3
							c0-0.1,0-0.1,0-0.1c0-0.2,0-0.3,0.1-0.5c0-0.2,0.1-0.3,0.1-0.5s0.1-0.3,0.1-0.5c0-0.1,0-0.2,0-0.2v-0.1v-0.1
							c0-0.1,0.1-0.3,0.1-0.4V27v-0.1c0-0.1,0.1-0.1,0.1-0.2c0.1-0.1,0.1-0.2,0.1-0.3c0.1-0.1,0.1-0.2,0.1-0.3s0.1-0.2,0.1-0.3
							s0.1-0.1,0.1-0.2c0.1-0.3,0.2-0.4,0.2-0.4l0.5,0.3c0,0-0.1,0.1-0.2,0.4c0,0.1-0.1,0.1-0.1,0.2c0,0.1-0.1,0.2-0.1,0.3
							s-0.1,0.2-0.1,0.3s-0.1,0.2-0.1,0.3s0,0.1-0.1,0.2v0.1v0.1c0,0.1-0.1,0.3-0.1,0.4v0.1V28c0,0.1,0,0.2-0.1,0.2
							c0,0.1-0.1,0.3-0.1,0.4c0,0.1,0,0.3-0.1,0.4c0,0.1,0,0.3,0,0.5v0.2c0,0.1,0,0.2,0,0.2c0,0.1,0,0.2,0,0.2v0.2v0.2v0.1v0.1
							c0,0.1,0.1,0.3,0.1,0.5c0,0.1,0.1,0.3,0.1,0.4v0.1v0.1c0,0.1,0,0.1,0.1,0.2c0,0.1,0,0.1,0.1,0.2c0,0.1,0,0.1,0.1,0.2
							c0.1,0.1,0.1,0.3,0.1,0.4c0,0.1,0.1,0.1,0.1,0.2c0,0.1,0.1,0.1,0.1,0.2c0.1,0.1,0.1,0.2,0.1,0.3c0.1,0.1,0.1,0.2,0.1,0.3
							c0.1,0.1,0.1,0.2,0.1,0.3c0.1,0.2,0.2,0.3,0.2,0.5c0.1,0.3,0.2,0.4,0.2,0.4L33.6,35.7z"/>
					</g>
					<g id="XMLID_00000174597466331617249780000017147434209433710242_">
						<circle id="XMLID_00000072977401760663891710000008699466389932204991_" class="st2" cx="33.6" cy="25.3" r="1"/>
					</g>
				</g>
			</g>
			<g id="XMLID_00000061456132342373898900000013272382496966921398_">
				<g id="XMLID_00000111901702737404679170000001761842258171203001_">
					<path id="XMLID_00000176751454207029859330000000008466148531170694_" class="st2" d="M56.5,36.9h2.1c1.1,0,1.9-0.9,1.9-1.9
						v-2.3c0-1.1-0.9-1.9-1.9-1.9h-2.1V36.9L56.5,36.9z"/>
				</g>
				<g id="XMLID_00000021083149361835577850000011914183151636896923_">
					<g id="XMLID_00000106856020334999398560000005788042075961509794_">
						<path id="XMLID_00000121272771468403272800000003848243261262311051_" class="st2" d="M60.4,35.7c0,0,0.1-0.1,0.2-0.4
							c0.1-0.1,0.1-0.3,0.2-0.5c0-0.1,0.1-0.2,0.1-0.3s0.1-0.2,0.1-0.3s0.1-0.2,0.1-0.4c0-0.1,0.1-0.1,0.1-0.2c0-0.1,0-0.1,0.1-0.2
							c0-0.1,0.1-0.3,0.1-0.4c0-0.1,0-0.1,0.1-0.2s0-0.2,0.1-0.2c0-0.1,0-0.2,0.1-0.2v-0.1v-0.1c0-0.2,0.1-0.3,0.1-0.5
							s0-0.3,0.1-0.5v-0.1c0-0.1,0-0.1,0-0.1v-0.3v-0.3c0-0.1,0-0.2,0-0.3s0-0.2,0-0.3v-0.1c0-0.1,0-0.1,0-0.1c0-0.2,0-0.3-0.1-0.5
							c0-0.2-0.1-0.3-0.1-0.5s-0.1-0.3-0.1-0.5c0-0.1,0-0.1-0.1-0.2v-0.1v-0.1c0-0.1-0.1-0.3-0.1-0.4v-0.1v-0.1
							c0-0.1-0.1-0.1-0.1-0.2c-0.1-0.1-0.1-0.2-0.1-0.3c-0.1-0.1-0.1-0.2-0.1-0.3S61,26.1,61,26s-0.1-0.1-0.1-0.2
							c-0.1-0.3-0.2-0.4-0.2-0.4H60c0,0,0.1,0.1,0.2,0.4c0,0.1,0.1,0.1,0.1,0.2c0,0.1,0.1,0.2,0.1,0.3s0.1,0.2,0.1,0.3
							s0.1,0.2,0.1,0.3s0,0.1,0.1,0.2v0.1v0.1c0,0.1,0.1,0.3,0.1,0.4v0.1v0.1c0,0.1,0,0.1,0,0.2c0,0.1,0.1,0.3,0.1,0.4
							s0,0.3,0.1,0.4c0,0.1,0,0.3,0,0.5v0.2c0,0.1,0,0.2,0,0.2c0,0.1,0,0.2,0,0.2v0.2v0.2v0.1v0.1c0,0.1-0.1,0.3-0.1,0.5
							c0,0.1-0.1,0.3-0.1,0.4v0.1v0.1c0,0.1,0,0.1-0.1,0.2c0,0.1,0,0.1-0.1,0.2c0,0.1,0,0.1-0.1,0.2c-0.1,0.1-0.1,0.3-0.1,0.4
							c0,0.1-0.1,0.1-0.1,0.2c0,0.1-0.1,0.1-0.1,0.2c-0.2,0.4-0.2,0.5-0.3,0.6c-0.1,0.1-0.1,0.2-0.1,0.3c-0.1,0.1-0.1,0.2-0.1,0.3
							c-0.1,0.2-0.2,0.3-0.2,0.5c-0.1,0.3-0.2,0.4-0.2,0.4L60.4,35.7L60.4,35.7z"/>
					</g>
					<g id="XMLID_00000015347072377394206010000012910362355973708985_">
						<circle id="XMLID_00000089554419542923750770000011444998358403125168_" class="st2" cx="60.3" cy="25.3" r="1"/>
					</g>
				</g>
			</g>
			<path class="st2" d="M44.3,33.5c-0.1,0.8-0.7,0-1.6-0.2c-0.9-0.1-1.7,0.5-1.6-0.3c0.1-0.8,1-1.4,1.8-1.3
				C43.8,31.9,44.4,32.7,44.3,33.5z M52.9,33c0.1,0.8-0.7,0.2-1.6,0.3c-0.9,0.1-1.5,1-1.6,0.2s0.5-1.6,1.4-1.8
				C52,31.6,52.8,32.2,52.9,33z"/>
			<path class="st2" d="M58.2,30.8c-0.8-2.1-2.7-3.7-5.1-4l-2-0.2c-2.7-0.3-5.4-0.3-8.1,0l-2,0.2c-2.4,0.3-4.4,1.9-5.2,4
				c-0.3,0.8-0.4,1.6-0.3,2.5l0.2,2.1c0,0.6,0.2,1.1,0.3,1.6c0.7,2,2.6,3.5,4.8,3.9c2.1,0.3,4.2,0.5,6.3,0.5s4.2-0.2,6.3-0.5
				c1.4-0.2,2.6-0.9,3.5-1.9c0.5-0.6,1-1.3,1.2-2c0.2-0.5,0.3-1,0.3-1.6l0.2-2.1C58.6,32.4,58.5,31.5,58.2,30.8z M56,32.9L55.8,35
				c-0.1,1.7-1.4,3.1-3.1,3.4c-1.9,0.3-3.8,0.5-5.8,0.5s-3.9-0.2-5.8-0.5c-1.7-0.3-3-1.7-3.1-3.4l-0.2-2.1c-0.1-2,1.3-3.7,3.3-4
				l2-0.2c1.2-0.1,2.5-0.2,3.7-0.2s2.5,0.1,3.7,0.2l2,0.2C54.7,29.2,56.2,30.9,56,32.9L56,32.9z"/>
			<path class="st2" d="M44.3,33.5c-0.1,0.8-0.7,0-1.6-0.2c-0.9-0.1-1.7,0.5-1.6-0.3c0.1-0.8,1-1.4,1.8-1.3
				C43.8,31.9,44.4,32.7,44.3,33.5z M51.3,33.4c-0.9,0.1-1.5,1-1.6,0.2s0.5-1.6,1.4-1.8c0.9-0.1,1.7,0.4,1.8,1.3
				C53.1,33.8,52.2,33.2,51.3,33.4L51.3,33.4z"/>
			<path id="XMLID_00000161610018679826223670000008660402393233086638_" class="st2" d="M44.3,33.5c-0.1,0.8-0.7,0-1.6-0.2
				c-0.9-0.1-1.7,0.5-1.6-0.3c0.1-0.8,1-1.4,1.8-1.3C43.8,31.9,44.4,32.7,44.3,33.5z M51.3,33.4c-0.9,0.1-1.5,1-1.6,0.2
				s0.5-1.6,1.4-1.8c0.9-0.1,1.7,0.4,1.8,1.3C53.1,33.8,52.2,33.2,51.3,33.4L51.3,33.4z"/>
			<path class="st2" d="M49,36c0,0.5-0.2,1-0.5,1.3s-0.8,0.5-1.3,0.5h-0.3c-1,0-1.8-0.8-1.8-1.8c0-0.1,0-0.2,0.1-0.2
				c0.1-0.1,0.1-0.1,0.2-0.1h3.3C48.8,35.6,49,35.8,49,36z"/>
		</g>
	</g>
	<g id="logo_00000073689346042088509460000003439897977095776152_">
		<g>
			<g id="XMLID_00000158726825607854584900000003051923397913021057_">
				<g id="XMLID_00000003790216417964148940000016767366838615843469_">
					<path id="XMLID_00000111192976920488868170000002902599938174904762_" class="st2" d="M71.4,44.6h-0.8c-0.4,0-0.7-0.3-0.7-0.7
						v-0.8c0-0.4,0.3-0.7,0.7-0.7h0.8V44.6z"/>
				</g>
				<g id="XMLID_00000070798721392800800630000003371041996998171575_">
					<g id="XMLID_00000041981562184982555980000016625215082165258916_">
						<path id="XMLID_00000085968398585941802230000005003812402540451513_" class="st2" d="M70,44.2c0,0,0-0.1-0.1-0.2
							c0,0,0-0.1-0.1-0.2v-0.1v-0.1v-0.1c0,0,0,0,0-0.1s0-0.1,0-0.1c0-0.1,0-0.1,0-0.2V43v-0.1v-0.1l0,0l0,0c0-0.1,0-0.1,0-0.2
							c0-0.1,0-0.1,0-0.2l0,0l0,0v-0.1v-0.1v-0.1V42l0,0l0,0c0-0.1,0-0.1,0-0.2c0-0.1,0-0.1,0-0.2c0-0.1,0-0.1,0-0.2v-0.1l0,0l0,0
							c0-0.1,0-0.1,0-0.2l0,0l0,0c0,0,0,0,0-0.1v-0.1v-0.1v-0.1v-0.1c0-0.1,0.1-0.2,0.1-0.2l0.2,0.1c0,0,0,0.1-0.1,0.2v0.1v0.1V41
							v0.1c0,0,0,0,0,0.1l0,0l0,0v0.1l0,0l0,0v0.1c0,0.1,0,0.1,0,0.2c0,0.1,0,0.1,0,0.2c0,0.1,0,0.1,0,0.2v0.1v0.1v0.1v0.1v0.1l0,0
							l0,0c0,0.1,0,0.1,0,0.2c0,0.1,0,0.1,0,0.2l0,0l0,0V43v0.1v0.1c0,0,0,0.1,0.1,0.1c0,0,0,0,0,0.1c0,0,0,0,0,0.1
							c0,0,0,0.1,0.1,0.1c0,0,0,0.1,0.1,0.1v0.1c0,0.1,0.1,0.1,0.1,0.2c0,0.1,0.1,0.2,0.1,0.2L70,44.2z"/>
					</g>
					<g id="XMLID_00000107561201978788096400000009173034828427567007_">
						<circle id="XMLID_00000063617880768166125620000003456991642079630754_" class="st2" cx="70" cy="40.3" r="0.4"/>
					</g>
				</g>
			</g>
			<g id="XMLID_00000085237971072929518800000011514272464270636420_">
				<g id="XMLID_00000008115687595398339620000003264510835299215264_">
					<path id="XMLID_00000064352957015308756040000001257199249348933038_" class="st2" d="M78.5,44.6h0.8c0.4,0,0.7-0.3,0.7-0.7
						v-0.8c0-0.4-0.3-0.7-0.7-0.7h-0.8V44.6L78.5,44.6z"/>
				</g>
				<g id="XMLID_00000175321975745007474930000001714018360249429679_">
					<g id="XMLID_00000018923440148966554980000017240092823434209696_">
						<path id="XMLID_00000080900461127191690140000008332280722280877244_" class="st2" d="M80,44.2c0,0,0-0.1,0.1-0.2
							c0,0,0-0.1,0.1-0.2v-0.1v-0.1v-0.1c0,0,0,0,0-0.1v-0.1c0-0.1,0-0.1,0-0.2V43v-0.1v-0.1l0,0l0,0c0-0.1,0-0.1,0-0.2
							c0-0.1,0-0.1,0-0.2l0,0l0,0v-0.1v-0.1v-0.1V42l0,0l0,0c0-0.1,0-0.1,0-0.2c0-0.1,0-0.1,0-0.2c0-0.1,0-0.1,0-0.2v-0.1l0,0l0,0
							c0-0.1,0-0.1,0-0.2l0,0l0,0c0,0,0,0,0-0.1v-0.1v-0.1v-0.1v-0.1c0-0.1-0.1-0.2-0.1-0.2l-0.2,0.1c0,0,0,0.1,0.1,0.2v0.1v0.1V41
							v0.1c0,0,0,0,0,0.1l0,0l0,0v0.1l0,0l0,0v0.1c0,0.1,0,0.1,0,0.2c0,0.1,0,0.1,0,0.2c0,0.1,0,0.1,0,0.2v0.1v0.1v0.1v0.1v0.1l0,0
							l0,0c0,0.1,0,0.1,0,0.2c0,0.1,0,0.1,0,0.2l0,0l0,0V43v0.1v0.1c0,0,0,0.1-0.1,0.1c0,0,0,0,0,0.1c0,0,0,0,0,0.1
							c0,0,0,0.1-0.1,0.1c0,0,0,0.1-0.1,0.1v0.1c0,0.1-0.1,0.1-0.1,0.2c0,0.1-0.1,0.2-0.1,0.2L80,44.2L80,44.2z"/>
					</g>
					<g id="XMLID_00000171699126964234073740000004173472243681171092_">
						<circle id="XMLID_00000145060360890710824730000004783436981870268547_" class="st2" cx="79.9" cy="40.3" r="0.4"/>
					</g>
				</g>
			</g>
			<path class="st2" d="M74,43.4c0,0.3-0.3,0-0.6-0.1c-0.3-0.1-0.6,0.2-0.6-0.1s0.4-0.5,0.7-0.5C73.8,42.8,74,43.1,74,43.4z
				 M77.2,43.2c0,0.3-0.3,0.1-0.6,0.1c-0.3,0.1-0.6,0.4-0.6,0.1c0-0.3,0.2-0.6,0.5-0.6C76.8,42.7,77.1,42.9,77.2,43.2z"/>
			<path class="st2" d="M79.1,42.3c-0.3-0.8-1-1.4-1.9-1.5l-0.8-0.1c-1-0.1-2-0.1-3,0l-0.8,0.1c-0.9,0.1-1.6,0.7-1.9,1.5
				c-0.1,0.3-0.2,0.6-0.1,0.9l0.1,0.8c0,0.2,0.1,0.4,0.1,0.6c0.3,0.7,0.9,1.3,1.8,1.4c0.8,0.1,1.5,0.2,2.3,0.2s1.6-0.1,2.3-0.2
				c0.5-0.1,1-0.3,1.3-0.7c0.2-0.2,0.4-0.5,0.5-0.7s0.1-0.4,0.1-0.6l0.1-0.8C79.3,42.9,79.2,42.6,79.1,42.3z M78.3,43.2L78.2,44
				c0,0.6-0.5,1.1-1.1,1.2c-0.7,0.1-1.4,0.2-2.1,0.2s-1.4-0.1-2.1-0.2c-0.6-0.1-1.1-0.6-1.1-1.2l-0.1-0.8c-0.1-0.7,0.5-1.4,1.2-1.5
				l0.7-0.1c0.5,0,0.9-0.1,1.4-0.1s0.9,0,1.4,0.1l0.7,0.1C77.8,41.8,78.4,42.4,78.3,43.2L78.3,43.2z"/>
			<path class="st2" d="M74,43.4c0,0.3-0.3,0-0.6-0.1c-0.3-0.1-0.6,0.2-0.6-0.1s0.4-0.5,0.7-0.5C73.8,42.8,74,43.1,74,43.4z
				 M76.6,43.3c-0.3,0.1-0.6,0.4-0.6,0.1c0-0.3,0.2-0.6,0.5-0.6c0.3-0.1,0.6,0.2,0.7,0.5C77.2,43.5,76.9,43.3,76.6,43.3L76.6,43.3z"
				/>
			<path id="XMLID_00000080888519673517433670000010088219121654099860_" class="st2" d="M74,43.4c0,0.3-0.3,0-0.6-0.1
				c-0.3-0.1-0.6,0.2-0.6-0.1s0.4-0.5,0.7-0.5C73.8,42.8,74,43.1,74,43.4z M76.6,43.3c-0.3,0.1-0.6,0.4-0.6,0.1
				c0-0.3,0.2-0.6,0.5-0.6c0.3-0.1,0.6,0.2,0.7,0.5C77.2,43.5,76.9,43.3,76.6,43.3L76.6,43.3z"/>
			<path class="st2" d="M75.7,44.3c0,0.2-0.1,0.4-0.2,0.5S75.2,45,75,45h-0.1c-0.4,0-0.7-0.3-0.7-0.7v-0.1h0.1h1.2
				C75.7,44.1,75.7,44.2,75.7,44.3z"/>
		</g>
	</g>
	<g id="logo_00000148639047169328042500000001589564613363277718_">
		<g>
			<g id="XMLID_00000154417901721904154870000002303391229109859509_">
				<g id="XMLID_00000060018935859158244080000010040095624854763139_">
					<path id="XMLID_00000170241652262776238720000001409958740393648782_" class="st2" d="M17.7,50.4h-0.8c-0.4,0-0.7-0.3-0.7-0.7
						v-0.8c0-0.4,0.3-0.7,0.7-0.7h0.8V50.4z"/>
				</g>
				<g id="XMLID_00000089562886737822464270000013285040143017142931_">
					<g id="XMLID_00000168797547301466452040000000540123753786921383_">
						<path id="XMLID_00000042717894958617278200000007623007301147372207_" class="st2" d="M16.3,49.9c0,0,0-0.1-0.1-0.2
							c0,0,0-0.1-0.1-0.2v-0.1v-0.1v-0.1c0,0,0,0,0-0.1s0-0.1,0-0.1c0-0.1,0-0.1,0-0.2v-0.1v-0.1v-0.1l0,0l0,0c0-0.1,0-0.1,0-0.2
							c0-0.1,0-0.1,0-0.2l0,0l0,0V48v-0.1v-0.1v-0.1l0,0l0,0c0-0.1,0-0.1,0-0.2c0-0.1,0-0.1,0-0.2c0-0.1,0-0.1,0-0.2V47l0,0l0,0
							c0-0.1,0-0.1,0-0.2l0,0l0,0c0,0,0,0,0-0.1v-0.1v-0.1v-0.1v-0.1c0-0.1,0.1-0.2,0.1-0.2l0.2,0.1c0,0,0,0.1-0.1,0.2v0.1v0.1v0.1
							v0.1c0,0,0,0,0,0.1l0,0l0,0V47l0,0l0,0v0.1c0,0.1,0,0.1,0,0.2c0,0.1,0,0.1,0,0.2c0,0.1,0,0.1,0,0.2v0.1v0.1V48v0.1v0.1l0,0
							l0,0c0,0.1,0,0.1,0,0.2c0,0.1,0,0.1,0,0.2l0,0l0,0v0.1v0.1v0.1c0,0,0,0.1,0.1,0.1c0,0,0,0,0,0.1c0,0,0,0,0,0.1
							c0,0,0,0.1,0.1,0.1c0,0,0,0.1,0.1,0.1v0.1c0,0.1,0.1,0.1,0.1,0.2s0.1,0.2,0.1,0.2L16.3,49.9z"/>
					</g>
					<g id="XMLID_00000087374599407232420570000014568062972367312302_">
						<circle id="XMLID_00000013153611203892123460000012261206383272562609_" class="st2" cx="16.3" cy="46.1" r="0.4"/>
					</g>
				</g>
			</g>
			<g id="XMLID_00000019669156749966316810000005827960164755784845_">
				<g id="XMLID_00000114040705960904463100000016138794232616521127_">
					<path id="XMLID_00000071529359333454793970000014647410963164910507_" class="st2" d="M24.8,50.4h0.8c0.4,0,0.7-0.3,0.7-0.7
						v-0.8c0-0.4-0.3-0.7-0.7-0.7h-0.8V50.4L24.8,50.4z"/>
				</g>
				<g id="XMLID_00000062906221589167502720000009935878668893167528_">
					<g id="XMLID_00000113316909732578187520000015377966920502367125_">
						<path id="XMLID_00000080205142608529306500000013850911506291149959_" class="st2" d="M26.2,49.9c0,0,0-0.1,0.1-0.2
							c0,0,0-0.1,0.1-0.2v-0.1v-0.1v-0.1c0,0,0,0,0-0.1s0-0.1,0-0.1c0-0.1,0-0.1,0-0.2v-0.1v-0.1v-0.1l0,0l0,0c0-0.1,0-0.1,0-0.2
							c0-0.1,0-0.1,0-0.2l0,0l0,0V48v-0.1v-0.1v-0.1l0,0l0,0c0-0.1,0-0.1,0-0.2c0-0.1,0-0.1,0-0.2c0-0.1,0-0.1,0-0.2V47l0,0l0,0
							c0-0.1,0-0.1,0-0.2l0,0l0,0c0,0,0,0,0-0.1v-0.1v-0.1v-0.1v-0.1c0-0.1-0.1-0.2-0.1-0.2H26c0,0,0,0.1,0.1,0.2v0.1v0.1v0.1v0.1
							c0,0,0,0,0,0.1l0,0l0,0v0.1l0,0l0,0V47c0,0.1,0,0.1,0,0.2c0,0.1,0,0.1,0,0.2c0,0.1,0,0.1,0,0.2v0.1v0.1v0.1V48v0.1l0,0l0,0
							c0,0.1,0,0.1,0,0.2c0,0.1,0,0.1,0,0.2l0,0l0,0v0.1v0.1v0.1c0,0,0,0.1-0.1,0.1c0,0,0,0,0,0.1c0,0,0,0,0,0.1c0,0,0,0.1-0.1,0.1
							s0,0.1-0.1,0.1v0.1c0,0.1-0.1,0.1-0.1,0.2s-0.1,0.2-0.1,0.2L26.2,49.9L26.2,49.9z"/>
					</g>
					<g id="XMLID_00000122691027565640902760000002239320425972226971_">
						<circle id="XMLID_00000099636459822037220980000008896936086826110348_" class="st2" cx="26.2" cy="46.1" r="0.4"/>
					</g>
				</g>
			</g>
			<path class="st2" d="M20.2,49.1c0,0.3-0.3,0-0.6-0.1c-0.3-0.1-0.6,0.2-0.6-0.1c0-0.3,0.4-0.5,0.7-0.5
				C20,48.5,20.3,48.8,20.2,49.1z M23.4,48.9c0,0.3-0.3,0.1-0.6,0.1c-0.3,0.1-0.6,0.4-0.6,0.1s0.2-0.6,0.5-0.6
				C23.1,48.4,23.4,48.6,23.4,48.9z"/>
			<path class="st2" d="M25.4,48.1c-0.3-0.8-1-1.4-1.9-1.5l-0.8-0.1c-1-0.1-2-0.1-3,0L19,46.6c-0.9,0.1-1.6,0.7-1.9,1.5
				C17,48.4,16.9,48.7,17,49l0.1,0.8c0,0.2,0.1,0.4,0.1,0.6c0.3,0.7,0.9,1.3,1.8,1.4c0.8,0.1,1.5,0.2,2.3,0.2s1.6-0.1,2.3-0.2
				c0.5-0.1,1-0.3,1.3-0.7c0.2-0.2,0.4-0.5,0.5-0.7s0.1-0.4,0.1-0.6l0.1-0.8C25.5,48.7,25.5,48.4,25.4,48.1z M24.6,48.9l-0.1,0.8
				c0,0.6-0.5,1.1-1.1,1.2c-0.7,0.1-1.4,0.2-2.1,0.2s-1.4-0.1-2.1-0.2c-0.6-0.1-1.1-0.6-1.1-1.2L18,48.9c-0.1-0.7,0.5-1.4,1.2-1.5
				l0.7-0.1c0.5,0,0.9-0.1,1.4-0.1s0.9,0,1.4,0.1l0.7,0.1C24.1,47.5,24.6,48.2,24.6,48.9L24.6,48.9z"/>
			<path class="st2" d="M20.2,49.1c0,0.3-0.3,0-0.6-0.1c-0.3-0.1-0.6,0.2-0.6-0.1c0-0.3,0.4-0.5,0.7-0.5
				C20,48.5,20.3,48.8,20.2,49.1z M22.8,49.1c-0.3,0.1-0.6,0.4-0.6,0.1s0.2-0.6,0.5-0.6c0.3-0.1,0.6,0.2,0.7,0.5
				C23.5,49.2,23.2,49,22.8,49.1L22.8,49.1z"/>
			<path id="XMLID_00000028309658195286915590000018128694210271963529_" class="st2" d="M20.2,49.1c0,0.3-0.3,0-0.6-0.1
				c-0.3-0.1-0.6,0.2-0.6-0.1c0-0.3,0.4-0.5,0.7-0.5C20,48.5,20.3,48.8,20.2,49.1z M22.8,49.1c-0.3,0.1-0.6,0.4-0.6,0.1
				s0.2-0.6,0.5-0.6c0.3-0.1,0.6,0.2,0.7,0.5C23.5,49.2,23.2,49,22.8,49.1L22.8,49.1z"/>
			<path class="st2" d="M22,50c0,0.2-0.1,0.4-0.2,0.5s-0.3,0.2-0.5,0.2h-0.1c-0.4,0-0.7-0.3-0.7-0.7v-0.1h0.1h1.2
				C21.9,49.9,22,50,22,50z"/>
		</g>
	</g>
	<g id="XMLID_00000176760774947814481590000015182991290750024329_">
		<path id="XMLID_00000095311623696361800620000006331552406942458784_" class="st9" d="M59,46.6l6.9,4.3l0.9-1.5l-6.9-4.3
			c-0.4-0.3-0.9-0.1-1.2,0.3l0,0C58.4,45.9,58.6,46.4,59,46.6z"/>
		<path id="XMLID_00000163758764312690770510000014027644404888864932_" class="st9" d="M59.3,46.2l6.9,4.2l0.3-0.5l-6.9-4.2
			c-0.1-0.1-0.3,0-0.4,0.1l0,0C59.2,45.9,59.2,46.1,59.3,46.2z"/>
		<path id="XMLID_00000007399210291848786990000015363813440055466672_" class="st9" d="M68.4,47.9c1.4,0.9,1.9,2.8,1,4.2
			c-0.9,1.4-2.8,1.9-4.2,1c-1.4-0.9-1.9-2.8-1-4.2C65.1,47.4,67,47,68.4,47.9z M67,50.6c-0.2,0.3-0.1,0.6,0.2,0.8
			c0.3,0.2,0.6,0.1,0.8-0.2c0.2-0.3,0.1-0.6-0.2-0.8C67.5,50.2,67.2,50.3,67,50.6z"/>
		<path id="XMLID_00000123401975278216871660000011173016382620029868_" class="st9" d="M67.9,48.7c1,0.6,1.3,1.9,0.7,2.9
			c-0.6,1-1.9,1.3-2.9,0.7c-1-0.6-1.3-1.9-0.7-2.9C65.7,48.4,67,48.1,67.9,48.7z M67.2,51.4c0.3,0.2,0.6,0.1,0.8-0.2
			c0.2-0.3,0.1-0.6-0.2-0.8c-0.3-0.2-0.6-0.1-0.8,0.2C66.9,50.8,67,51.2,67.2,51.4z"/>
		<path id="XMLID_00000078732486894961052610000017975273353719785610_" class="st15" d="M67.9,48.7c1,0.6,1.3,1.9,0.7,2.9
			c-0.6,1-1.9,1.3-2.9,0.7c-1-0.6-1.3-1.9-0.7-2.9C65.7,48.4,67,48.1,67.9,48.7z M65.9,52.1c0.9,0.5,2,0.3,2.6-0.6
			c0.5-0.9,0.3-2-0.6-2.6c-0.9-0.5-2-0.3-2.6,0.6C64.7,50.4,65,51.5,65.9,52.1z"/>
		<path id="XMLID_00000054262139733088995330000013923625076614535832_" class="st9" d="M60.7,48.7L60.7,48.7
			c0.2,0.1,0.4,0.1,0.5-0.1l0.5-0.8L61,47.4l-0.5,0.8C60.4,48.3,60.5,48.6,60.7,48.7z"/>
		<path id="XMLID_00000033364735010476616690000018135577103968554626_" class="st9" d="M58.9,47.6L58.9,47.6
			c0.2,0.1,0.4,0.1,0.5-0.1l0.5-0.8l-0.7-0.4l-0.5,0.8C58.7,47.3,58.7,47.5,58.9,47.6z"/>
		<path id="XMLID_00000150069800675214591710000009535233657315982750_" class="st9" d="M59.5,48.5L59.5,48.5
			c0.2,0.1,0.4,0.1,0.5-0.1l0.7-1.1L60,46.9L59.3,48C59.3,48.2,59.3,48.4,59.5,48.5z"/>
		<path id="XMLID_00000137839885390400908590000009394953045967031473_" class="st9" d="M64.2,48.2L64.2,48.2c0.1,0.1,0.2,0.1,0.2,0
			l0,0c0-0.1,0-0.1,0-0.2l-0.1-0.1c-0.1,0-0.1,0-0.2,0l0,0C64.1,48.1,64.1,48.2,64.2,48.2z"/>
		<path id="XMLID_00000094602701672873388560000014092192916942575537_" class="st9" d="M63.2,47.6l0.7,0.4c0.1,0,0.1,0,0.2,0l0,0
			c0-0.1,0-0.1,0-0.2l-0.7-0.4c-0.1,0-0.1,0-0.2,0l0,0C63.1,47.5,63.2,47.6,63.2,47.6z"/>
	</g>
	<path class="st8" d="M10.9,43.8h5.8l15.6,7.5v1.5c0,0.4-0.4,0.8-1,0.8H19l-8.2-3.9v-3.2c0-0.1-0.1-0.2-0.3-0.2h-0.3
		c-0.2,0-0.2-0.1-0.2-0.2v-1.5C9.9,44.2,10.3,43.8,10.9,43.8z"/>
	<path class="st8" d="M81.5,33.8l-9.4,18.5h-4c-0.4,0-0.6-0.3-0.6-0.7v-4.8l7.4-13.1h6.2C81.3,33.6,81.4,33.7,81.5,33.8z"/>
	<path class="st16" d="M91.5,40.8h-0.7v-0.7c0-0.2-0.2-0.4-0.4-0.4l0,0c-0.2,0-0.4,0.2-0.4,0.4v0.7h-0.7c-0.2,0-0.4,0.2-0.4,0.4l0,0
		c0,0.2,0.2,0.4,0.4,0.4H90v0.7c0,0.2,0.2,0.4,0.4,0.4l0,0c0.2,0,0.4-0.2,0.4-0.4v-0.7h0.7c0.2,0,0.4-0.2,0.4-0.4l0,0
		C91.9,41,91.7,40.8,91.5,40.8z"/>
	<path class="st17" d="M11.6,38.5v-1.1h-1.1c0-0.3-0.1-0.5-0.3-0.8l0.7-0.7l-0.8-0.8l-0.7,0.7c-0.3-0.2-0.6-0.3-0.9-0.4v-1.1H7.4
		v1.1c-0.2,0-0.4,0.1-0.6,0.2l-0.7-0.7l-0.8,0.8L6,36.4c-0.2,0.3-0.3,0.6-0.4,0.9H4.7v1.1h1c0.1,0.3,0.2,0.6,0.4,0.8l-0.7,0.7
		L6,40.7L6.7,40c0.3,0.2,0.6,0.3,0.9,0.3v1.1h1.1v-1.2c0.2-0.1,0.5-0.2,0.7-0.3l0.7,0.7l0.8-0.8l-0.7-0.7c0.1-0.2,0.2-0.4,0.3-0.6
		H11.6z M8.8,38.6c-0.4,0.4-1.1,0.4-1.5,0s-0.4-1.1,0-1.5s1.1-0.4,1.5,0S9.2,38.2,8.8,38.6z"/>
	<g>
		<g>
			<g>
				<g>
					<path class="st2" d="M71.1,18.6c0.1,0,0.2,0.1,0.2,0.2v0.9c0,0.1-0.1,0.2-0.2,0.2s-0.2-0.1-0.2-0.2v-0.9
						C70.9,18.7,71,18.6,71.1,18.6z"/>
				</g>
			</g>
			<g>
				<g>
					<path class="st2" d="M71.1,17c0.1,0,0.2,0.1,0.2,0.2v0.9c0,0.1-0.1,0.2-0.2,0.2s-0.2-0.1-0.2-0.2v-0.9C70.9,17.1,71,17,71.1,17
						z"/>
				</g>
			</g>
		</g>
		<g>
			<g>
				<g>
					<path class="st2" d="M69.9,18.3h0.8c0.1,0,0.2,0.1,0.2,0.2c0,0.1-0.1,0.2-0.2,0.2h-0.8c-0.1,0-0.2-0.1-0.2-0.2
						C69.7,18.4,69.8,18.3,69.9,18.3z"/>
				</g>
			</g>
			<g>
				<g>
					<path class="st2" d="M71.6,18.3h0.8c0.1,0,0.2,0.1,0.2,0.2c0,0.1-0.1,0.2-0.2,0.2h-0.8c-0.1,0-0.2-0.1-0.2-0.2
						C71.4,18.4,71.5,18.3,71.6,18.3z"/>
				</g>
			</g>
		</g>
	</g>
</g>
</svg>
