<?xml version="1.0" encoding="utf-8"?>
<!-- Generator: Adobe Illustrator 25.4.1, SVG Export Plug-In . SVG Version: 6.00 Build 0)  -->
<svg version="1.1" id="Layer_1" xmlns="http://www.w3.org/2000/svg" xmlns:xlink="http://www.w3.org/1999/xlink" x="0px" y="0px"
	 viewBox="0 0 90.3 63.5" style="enable-background:new 0 0 90.3 63.5;" xml:space="preserve">
<style type="text/css">
	.st0{display:none;opacity:0.54;fill:#FFFFFF;enable-background:new    ;}
	.st1{opacity:0.1;}
	.st2{fill:#3B4751;}
	.st3{fill:#75B8FF;}
	.st4{opacity:0.67;fill:url(#XMLID_00000169519803257856828570000014943997717323629241_);enable-background:new    ;}
	.st5{fill:#A6EAFF;}
	.st6{fill:#1A9EFE;}
	.st7{fill:#4E7FB0;}
	.st8{opacity:0.1;fill:#FFFFFF;enable-background:new    ;}
	.st9{fill:#C0E9FC;}
	.st10{fill:#FFFFFF;}
	.st11{fill:#FCBF1E;}
	.st12{opacity:0.51;fill:#E8E8F9;enable-background:new    ;}
	.st13{fill:#49B8F6;}
</style>
<rect x="-17.5" y="-30.4" class="st0" width="125.1" height="127.9"/>
<g>
	<g id="Background_00000168805351184641194850000005708190625077391244_" class="st1">
		<path id="Background_00000067945312947390889310000000808263057547135362_" class="st2" d="M66.2,0.8c11,2.8,15.9,11.8,9.4,26.9
			c-4.2,9.8,3.5,24.8-9.5,28.4c-21.2,5.8-22-10-39.5-11.8C9.1,42.6,6.3,11.8,24,7c6.5-1.7,7.9,0.1,13.6-0.8
			C52.1,4.1,54.7-2.1,66.2,0.8z"/>
		<path id="Background_00000075852287852246857220000018172095242145603752_" class="st2" d="M68.5,45.8c0,0,4.4,1.6,6.6,4.3
			s7.5,7.3-9.6,10.7c-15.7,3.2-46.4,4.6-39.9-2.2S0,57.1,0,49.9C-0.1,39.3,68.5,45.8,68.5,45.8z"/>
		<path id="Background_00000167357198657047548240000008308105587395036584_" class="st2" d="M43,60.6c0,0-4-0.8-6.2-2.8
			s-7.4-5.3,6.9-10.6c13.2-4.8,39.7-9.9,34.9-3.2c-4.8,6.7,10.8,0.3,11.7,6.5C91.6,59.7,43,60.6,43,60.6z"/>
	</g>
	<polygon id="XMLID_00000061464995436942808930000014190377716893886891_" class="st3" points="49.7,56 35.5,56 36.7,44.6 
		48.6,44.6 	"/>
	
		<linearGradient id="XMLID_00000150798105422495853490000012133479239122208925_" gradientUnits="userSpaceOnUse" x1="42.65" y1="20.0918" x2="42.65" y2="16.9466" gradientTransform="matrix(1 0 0 1 0 32)">
		<stop  offset="0" style="stop-color:#4498FA;stop-opacity:0"/>
		<stop  offset="1" style="stop-color:#4498FA"/>
	</linearGradient>
	
		<polygon id="XMLID_00000152250943623173293680000010830289422481080239_" style="opacity:0.67;fill:url(#XMLID_00000150798105422495853490000012133479239122208925_);enable-background:new    ;" points="
		35.9,52.1 49.4,52.1 49.1,48.9 36.2,48.9 	"/>
	<path id="XMLID_00000075135708969999947580000006211759878240714671_" class="st3" d="M55.3,56.5C55.3,56.5,55.4,56.5,55.3,56.5
		c0-1.1-0.8-1.9-1.9-1.9H32.1c-1,0-1.9,0.8-1.9,1.9c0,0,0,0,0,0.1L55.3,56.5L55.3,56.5z"/>
	<path class="st5" d="M72.1,10.7v36.9L72,48c-0.1,0.2-0.3,0.4-0.5,0.6l0,0c-0.2,0.2-0.5,0.3-0.7,0.3H13.7c-0.6,0-1.2-0.4-1.5-0.9
		c0-0.1-0.1-0.3-0.1-0.4c-0.1,0-0.1-0.2-0.1-0.3V10.7c0-0.5,0.3-1,0.6-1.3C12.9,9.2,13.2,9,13.7,9h56.8c0.4,0,0.7,0.1,1,0.4
		C71.9,9.7,72.1,10.2,72.1,10.7z"/>
	<path class="st6" d="M70.4,11.9v33.8c0,0.4-0.4,0.8-0.8,0.8H14.4c-0.4,0-0.8-0.4-0.8-0.8V11.9c0-0.4,0.4-0.8,0.8-0.8h55.2
		C70.1,11.1,70.4,11.4,70.4,11.9z"/>
	<path class="st3" d="M71.9,48c-0.1,0.2-0.3,0.4-0.4,0.6l0,0c-0.2,0.2-0.5,0.3-0.7,0.3H13.7c-0.6,0-1.2-0.4-1.5-0.9
		C12.2,48,71.9,48,71.9,48z"/>
	<path class="st7" d="M42.5,10.2h-2c0,0-0.1,0-0.1-0.1c0,0,0-0.1,0.1-0.1h2C42.5,10,42.6,10.1,42.5,10.2
		C42.6,10.2,42.5,10.2,42.5,10.2z"/>
	<path class="st8" d="M33.4,11.1L15,46.5h11.4l18.4-35.4C44.8,11.1,33.4,11.1,33.4,11.1z M14.4,11.1c-0.4,0-0.8,0.4-0.8,0.8V42
		l16-30.9H14.4z"/>
	<g id="time_line_00000101094105295449229960000003764044998520669106_">
		<path class="st9" d="M63.1,41.9H20.5c-0.2,0-0.3-0.1-0.3-0.3l0,0c0-0.2,0.1-0.3,0.3-0.3h42.6c0.2,0,0.3,0.1,0.3,0.3l0,0
			C63.4,41.8,63.2,41.9,63.1,41.9z"/>
		<circle class="st9" cx="63.5" cy="41.6" r="0.5"/>
		<path class="st9" d="M57.8,43v1.9h2.5V43H57.8z M59.9,44.6H58v-1.2h1.9V44.6z"/>
		<path class="st9" d="M61.5,43v0.6h0.3v-0.4h0.4V43H61.5z M63.3,43v0.3h0.4v0.4H64V43H63.3z M61.8,44.6v-0.4h-0.3v0.6h0.6v-0.3
			h-0.3V44.6z M63.7,44.3v0.4h-0.4V45h0.6v-0.6C63.9,44.3,63.7,44.3,63.7,44.3z"/>
		<path class="st9" d="M56.8,44.2v-0.3h-0.3c0-0.1,0-0.2-0.1-0.2l0.2-0.2l-0.2-0.2l-0.2,0.2c-0.1-0.1-0.2-0.1-0.3-0.1v-0.3h-0.3v0.3
			c-0.1,0-0.1,0-0.2,0.1l-0.2-0.2H55l0.2,0.2c-0.1,0.1-0.1,0.2-0.1,0.3h-0.3v0.3h0.3c0,0.1,0.1,0.2,0.1,0.2L55,44.5l0.2,0.2l0.2-0.2
			c0.1,0,0.2,0.1,0.3,0.1v0.3H56v-0.3c0.1,0,0.1-0.1,0.2-0.1l0.2,0.2l0.2-0.2l-0.2-0.2c0-0.1,0.1-0.1,0.1-0.2L56.8,44.2z M56.1,44.2
			c-0.1,0.1-0.3,0.1-0.4,0c-0.1-0.1-0.1-0.3,0-0.4s0.3-0.1,0.4,0C56.2,43.9,56.2,44.1,56.1,44.2z"/>
		<path class="st9" d="M28.2,44.5h-0.4c-0.1,0-0.1-0.1-0.1-0.1v-0.7c0-0.1,0.1-0.1,0.1-0.1h0.4l0.6-0.5h0.1l0,0V45
			c0,0,0,0.1-0.1,0.1l0,0L28.2,44.5L28.2,44.5z M29.7,45l-0.2-0.2c0.2-0.2,0.3-0.5,0.3-0.8s-0.1-0.6-0.4-0.8l0.2-0.2
			c0.3,0.2,0.4,0.6,0.4,1C30.1,44.4,30,44.8,29.7,45z M29.3,44.6l-0.2-0.2c0.1-0.1,0.2-0.2,0.2-0.4s-0.1-0.3-0.2-0.4l0.2-0.2
			c0.2,0.1,0.3,0.3,0.3,0.6C29.5,44.3,29.4,44.5,29.3,44.6z"/>
		<polygon class="st9" points="25.2,44.6 25.2,43.2 26.1,43.7 26.1,43.2 26.4,43.2 26.4,44.6 26.1,44.6 26.1,44.1 		"/>
		<polygon class="st9" points="21.1,44.6 21.1,43.2 20.2,43.7 20.2,43.2 20,43.2 20,44.6 20.2,44.6 20.2,44.1 		"/>
		<path class="st9" d="M24.2,43.9l-1.5-1c0,0,0,0-0.1,0c0,0,0,0,0,0.1v2c0,0,0,0,0,0.1l0,0l0,0L24.2,43.9C24.3,44,24.3,44,24.2,43.9
			C24.3,43.9,24.3,43.9,24.2,43.9z"/>
	</g>
	<g>
		<path class="st10" d="M42.4,21.2c-4.1,0-7.5,3.4-7.5,7.5s3.4,7.5,7.5,7.5s7.5-3.4,7.5-7.5S46.6,21.2,42.4,21.2z"/>
		<path class="st11" d="M46.3,28.6l-5.5-3.8c-0.1-0.1-0.1-0.1-0.3,0c-0.1,0.1-0.1,0.1-0.1,0.2v7.5c0,0.1,0.1,0.1,0.1,0.2
			c0.1,0,0.1,0,0.1,0c0.1,0,0.1,0,0.1-0.1l5.5-3.8C46.3,28.7,46.3,28.7,46.3,28.6C46.3,28.5,46.4,28.6,46.3,28.6z"/>
	</g>
	<g>
		<g>
			<g>
				<g>
					<path class="st10" d="M17.7,13.6c0.1,0,0.2,0.1,0.2,0.2v0.9c0,0.1-0.1,0.2-0.2,0.2s-0.2-0.1-0.2-0.2v-0.9
						C17.5,13.7,17.6,13.6,17.7,13.6z"/>
				</g>
			</g>
			<g>
				<g>
					<path class="st10" d="M17.7,11.9c0.1,0,0.2,0.1,0.2,0.2V13c0,0.1-0.1,0.2-0.2,0.2s-0.2-0.1-0.2-0.2v-0.9
						C17.5,12,17.6,11.9,17.7,11.9z"/>
				</g>
			</g>
		</g>
		<g>
			<g>
				<g>
					<path class="st10" d="M16.4,13.2h0.8c0.1,0,0.2,0.1,0.2,0.2c0,0.1-0.1,0.2-0.2,0.2h-0.8c-0.1,0-0.2-0.1-0.2-0.2
						C16.2,13.3,16.2,13.2,16.4,13.2z"/>
				</g>
			</g>
			<g>
				<g>
					<path class="st10" d="M18.2,13.2H19c0.1,0,0.2,0.1,0.2,0.2c0,0.1-0.1,0.2-0.2,0.2h-0.8c-0.1,0-0.2-0.1-0.2-0.2
						C17.9,13.3,18,13.2,18.2,13.2z"/>
				</g>
			</g>
		</g>
	</g>
	<g>
		<g>
			<circle class="st12" cx="62.2" cy="13.1" r="0.8"/>
			<circle class="st12" cx="64.9" cy="13.1" r="0.8"/>
			<circle class="st12" cx="67.5" cy="13.1" r="0.8"/>
			<g>
				<g>
					<g>
						<g>
							<g>
								<path class="st10" d="M61.9,7C61.8,7,61.8,7.1,61.9,7l-0.1,0.7c0,0.1,0.1,0.1,0.1,0.1C62,7.8,62,7.7,62,7.7L61.9,7L61.9,7z"
									/>
							</g>
						</g>
						<g>
							<g>
								<path class="st10" d="M61.9,5.9C61.8,5.9,61.8,6,61.9,5.9l-0.1,0.7c0,0.1,0.1,0.1,0.1,0.1C62,6.7,62,6.6,62,6.6L61.9,5.9
									C62,5.9,61.9,5.9,61.9,5.9z"/>
							</g>
						</g>
					</g>
					<g>
						<g>
							<g>
								<path class="st10" d="M62.7,6.7h-0.6C62,6.7,62,6.8,62,6.8C62,6.9,62.1,7,62.2,7h0.6c0.1,0,0.1-0.1,0.1-0.1
									C62.8,6.8,62.8,6.7,62.7,6.7z"/>
							</g>
						</g>
						<g>
							<g>
								<path class="st10" d="M61.5,6.7H61c-0.1,0-0.1,0.1-0.1,0.1C60.8,6.9,60.9,7,61,7h0.6c0.1,0,0.1-0.1,0.1-0.1
									C61.7,6.8,61.6,6.7,61.5,6.7z"/>
							</g>
						</g>
					</g>
				</g>
				<g>
					<g>
						<g>
							<g>
								<path class="st13" d="M77.2,27.1c-0.1,0-0.2-0.1-0.2-0.2v-1.1c0-0.1,0.1-0.2,0.2-0.2s0.2,0.1,0.2,0.2v1.1
									C77.4,27,77.4,27.1,77.2,27.1z"/>
							</g>
							<g>
								<path class="st13" d="M77.2,29c-0.1,0-0.2-0.1-0.2-0.2v-1.1c0-0.1,0.1-0.2,0.2-0.2s0.2,0.1,0.2,0.2v1.1
									C77.4,28.9,77.4,29,77.2,29z"/>
							</g>
						</g>
						<g>
							<g>
								<path class="st13" d="M78.7,27.6h-0.9c-0.1,0-0.2-0.1-0.2-0.2s0.1-0.2,0.2-0.2h0.9c0.1,0,0.2,0.1,0.2,0.2
									C78.9,27.4,78.8,27.6,78.7,27.6z"/>
							</g>
							<g>
								<path class="st13" d="M76.7,27.6h-0.9c-0.1,0-0.2-0.1-0.2-0.2s0.1-0.2,0.2-0.2h0.9c0.1,0,0.2,0.1,0.2,0.2
									C76.9,27.4,76.8,27.6,76.7,27.6z"/>
							</g>
						</g>
					</g>
				</g>
				<g>
					<g>
						<g>
							<g>
								<path class="st13" d="M13.5,53.4c-0.1,0-0.3-0.1-0.3-0.3V52c0-0.1,0.1-0.3,0.3-0.3c0.1,0,0.3,0.1,0.3,0.3v1.2
									C13.8,53.3,13.8,53.4,13.5,53.4z"/>
							</g>
							<g>
								<path class="st13" d="M13.5,55.6c-0.1,0-0.3-0.1-0.3-0.3v-1.2c0-0.1,0.1-0.3,0.3-0.3c0.1,0,0.3,0.1,0.3,0.3v1.2
									C13.8,55.5,13.8,55.6,13.5,55.6z"/>
							</g>
						</g>
						<g>
							<g>
								<path class="st13" d="M15.3,54h-1.1c-0.1,0-0.3-0.1-0.3-0.3s0.1-0.3,0.3-0.3h1.1c0.1,0,0.3,0.1,0.3,0.3S15.4,54,15.3,54z"/>
							</g>
							<g>
								<path class="st13" d="M13,54h-1.1c-0.1,0-0.3-0.1-0.3-0.3s0.1-0.3,0.3-0.3H13c0.1,0,0.3,0.1,0.3,0.3
									C13.3,53.8,13.1,54,13,54z"/>
							</g>
						</g>
					</g>
				</g>
			</g>
		</g>
	</g>
</g>
</svg>
