<?xml version="1.0" encoding="utf-8"?>
<!-- Generator: Adobe Illustrator 25.4.1, SVG Export Plug-In . SVG Version: 6.00 Build 0)  -->
<svg version="1.1" id="Layer_1" xmlns="http://www.w3.org/2000/svg" xmlns:xlink="http://www.w3.org/1999/xlink" x="0px" y="0px"
	 viewBox="0 0 81.6 57.4" style="enable-background:new 0 0 81.6 57.4;" xml:space="preserve">
<style type="text/css">
	.st0{display:none;opacity:0.54;fill:#FFFFFF;enable-background:new    ;}
	.st1{opacity:0.1;}
	.st2{fill:#3B4751;}
	.st3{fill:url(#SVGID_1_);}
	.st4{fill:#A6EAFF;}
	.st5{opacity:0.1;enable-background:new    ;}
	.st6{fill:#FFFFFF;}
	.st7{fill:#1A9EFE;}
	.st8{opacity:0.1;fill:#FFFFFF;enable-background:new    ;}
	.st9{fill:#FFAA01;}
	.st10{font-family:'Gilroy-ExtraBold';}
	.st11{font-size:5.3667px;}
	.st12{fill:#F88800;}
	.st13{fill:#46497C;}
	.st14{fill:#2E3062;}
	.st15{opacity:0.4;fill:#FFFFFF;enable-background:new    ;}
	.st16{fill:#647E99;}
	.st17{fill:#49B8F6;}
</style>
<rect x="-17.5" y="-36.8" class="st0" width="125.1" height="127.9"/>
<g>
	<g id="Background_00000077321371601238209310000004283159251137981626_" class="st1">
		<path class="st2" d="M50,2.1c-8.1,4.7-6.1,9.5-13,18.7c-2.7,3.5-4.5,3.2-7.2,7.7c-7.4,12.3,11,28.1,21.7,19.5
			c10.8-8.5,19.9-0.1,28.6-14.9c5.3-9-7.2-13.3-10.1-21.1C65.3,0.1,57.6-2.4,50,2.1z M70.3,29.7c-0.1-0.2,0-0.5,0.2-0.6
			c0.2-0.1,0.5,0,0.6,0.2c0.1,0.2,0,0.5-0.2,0.6C70.7,30,70.4,29.9,70.3,29.7z"/>
		<path class="st2" d="M20.5,13.7c-5.1,4.1-2.4,7.1-5.4,14.2c-1.2,2.7-2.7,2.7-3.7,6.1C8.8,43.1,27,51.5,33.1,44.4
			c6.2-7,15.4-2.5,18.4-13.5c1.8-6.7-8.9-8.1-13.1-13C31.8,10.4,25.3,9.7,20.5,13.7z M43.1,29.8c-0.1-0.1-0.1-0.3,0-0.4
			c0.2-0.1,0.3-0.1,0.5,0.1c0.1,0.1,0.1,0.3,0,0.4C43.4,29.9,43.2,29.9,43.1,29.8z"/>
		<path id="Background_00000120540320885827229260000006368397916274691731_" class="st2" d="M58.8,40.2c0,0,3.8,1.3,5.7,3.7
			c1.8,2.3,6.3,6.3-8.3,9.2c-13.4,2.8-39.8,4-34.2-1.8C27.6,45.4,0,49.9,0,43.8C0,34.7,58.8,40.2,58.8,40.2z"/>
		<path id="Background_00000153670191204523817410000016418130365284968582_" class="st2" d="M39,48.4c0,0-3.7-1.5-5.5-3.7
			c-1.8-2.3-6.2-6.4,8.5-9c13.5-2.5,39.8-3,34.1,2.7c-5.7,5.7,5.8,2.3,5.6,8.4C81.4,55.8,39,48.4,39,48.4z"/>
	</g>
	<g>
		<linearGradient id="SVGID_1_" gradientUnits="userSpaceOnUse" x1="2.7545" y1="28.4088" x2="71.0574" y2="28.4088">
			<stop  offset="0" style="stop-color:#1A9EFE"/>
			<stop  offset="1" style="stop-color:#09225E"/>
		</linearGradient>
		<path class="st3" d="M38.2,43.2c-18.8,4.2-34.7,5.1-35.4,2c-0.4-1.8,4.3-4.5,11.9-7.3c0.2-0.1,0.4-0.2,0.6-0.2L16.2,19
			c1.6-5.7,6.9-3.9,8.8-3.4c1.9,0.5,6.2,0.6,8.5-0.1c2.3-0.7,3.3-1.6,8-4.7C46.1,7.8,49,12,49,12l8.6,16.3c7.8-0.7,13-0.2,13.4,1.6
			C71.7,33,57,39,38.2,43.2z"/>
		<path class="st4" d="M57.6,28.2c0.5,2.4-8.5,6.6-20.2,9.2c-11.7,2.6-21.6,2.8-22.1,0.3c-0.1-0.4-0.4-1.1,0-1.6
			c2.9,1.3,11.9,1,21.6-1.2c9.7-2.2,17.9-5.7,20-8.1C57.5,27.1,57.5,27.8,57.6,28.2z"/>
	</g>
	<g>
		<g>
			<path class="st5" d="M33.7,43.8l4.6-35.9c0.3-1.9,2.2-3.5,4.1-3.2L44.6,5c3.2,0.4,5.5,3.3,5.1,6.6l-4.3,33.7
				c-0.4,3.2-3.3,5.5-6.6,5.1l0,0C35.5,50,33.3,46.8,33.7,43.8z"/>
			<path class="st4" d="M37.7,53.5l31.3,4c1.1,0.1,2.3-0.6,2.4-1.9l5.7-44.5c0.1-1.1-0.6-2.3-1.9-2.4L44,4.7
				c-1.1-0.1-2.3,0.6-2.4,1.9l-5.7,44.5C35.7,52.2,36.4,53.4,37.7,53.5z"/>
			<path class="st6" d="M43.2,9l-4.9,38c-0.1,0.9,0.5,1.4,1.3,1.5l28.5,3.7c0.9,0.1,1.6-0.5,1.7-1.1l4.9-38c0.1-0.9-0.5-1.4-1.3-1.5
				L44.9,7.9C44.1,7.5,43.3,8.1,43.2,9z"/>
			<path class="st7" d="M44.9,7.7l28.5,3.7c0.9,0.1,1.4,0.8,1.3,1.5l-4.9,38.3c-0.1,0.9-0.8,1.2-1.7,1.1l-28.5-3.7
				c-0.9-0.1-1.4-0.8-1.3-1.5l4.9-38C43.3,8.1,44.1,7.5,44.9,7.7z"/>
			<path class="st7" d="M57.9,8l2.8,0.4c0,0,0.2,0,0.2-0.2c0,0,0-0.2-0.2-0.2l-2.8-0.4C57.9,7.8,57.9,7.8,57.9,8L57.9,8z"/>
			<ellipse transform="matrix(0.1278 -0.9918 0.9918 0.1278 -6.3228 99.0314)" class="st6" cx="53.1" cy="53.1" rx="1.5" ry="1.5"/>
		</g>
		<path class="st8" d="M74.1,11.9L48.3,49.6l-8.6-1.1c-0.9-0.1-1.2-0.8-1.1-1.7l1.4-10.6L59.9,9.6l13.6,1.8
			C73.7,11.4,73.9,11.6,74.1,11.9z"/>
		<g>
			<path class="st6" d="M69.1,36.5L69.1,36.5c-0.1,0.7-0.8,1.3-1.5,1.2l-22.9-2.9c-0.7-0.1-1.3-0.8-1.2-1.5l0,0
				c0.1-0.7,0.8-1.3,1.5-1.2L68,35C68.6,35.1,69.1,35.8,69.1,36.5z"/>
			<path class="st9" d="M67.9,35l-3.6-0.5L64,37.2l3.7,0.5c0.7,0.1,1.4-0.5,1.5-1.2l0,0C69.1,35.8,68.6,35.1,67.9,35z"/>
			<g>
				<g>
					<path class="st6" d="M66.8,36.4c-0.2-0.3-0.2-0.6,0.1-0.9c0.3-0.2,0.6-0.2,0.9,0.1c0.2,0.3,0.2,0.6-0.1,0.9
						C67.4,36.7,67,36.8,66.8,36.4z M67.6,35.8c-0.1-0.2-0.4-0.2-0.6-0.1c-0.2,0.1-0.2,0.4-0.1,0.6s0.4,0.2,0.6,0.1
						C67.7,36.2,67.8,36,67.6,35.8z"/>
				</g>
				<g>
					<path class="st6" d="M66,37.1C66,37,66,37,66,36.9l0.8-0.7c0.1-0.1,0.1-0.1,0.1,0s0.1,0.1,0,0.1l-0.8,0.7
						C66.1,37.2,66,37.2,66,37.1z"/>
				</g>
			</g>
		</g>
		<text transform="matrix(0.9918 0.1279 -0.1279 0.9918 46.3503 29.1817)" class="st6 st10 st11">HISTORY</text>
		<g>
			<path class="st9" d="M28.4,48l1.7,1.5c0.2,0.1,0.5,0.1,0.7-0.1l3.6-4.3l1.5-1.8l-2.5-2.1l-0.9,1.1l-4.2,5
				C28.2,47.5,28.2,47.8,28.4,48z"/>
			<path class="st12" d="M32.6,42.1c0.4,0.9,0.9,2,1.8,2.8l1.5-1.7l-2.5-2.1L32.6,42.1z"/>
			<path class="st13" d="M22.9,56.3L22.9,56.3c0.5,0.4,1.1,0.2,1.5-0.1l5.8-7L28.6,48l-5.8,7C22.4,55.4,22.5,56.1,22.9,56.3z"/>
			<g>
				<path class="st14" d="M32.8,30c-3.2,3.9-2.7,9.6,1.2,12.9C38,46,43.6,45.5,47,41.6c3.2-3.9,2.7-9.6-1.2-12.9
					C41.9,25.5,36.2,26,32.8,30z M34,30.8c2.7-3.3,7.6-3.7,10.9-1c3.3,2.7,3.7,7.6,1,10.9c-2.7,3.3-7.6,3.7-10.9,1
					C31.7,39,31.3,34.1,34,30.8z"/>
				<path class="st15" d="M32.5,33.5c-1.2,4,1.1,8.3,5.2,9.7c0.4,0.1,0.7,0.2,1.1,0.2c0.9,0.1,1.8,0.1,2.7,0c0.9-0.1,1.7-0.5,2.6-1
					c1.2-0.7,2.2-1.8,2.9-3.2c0.1-0.4,0.4-0.7,0.5-1.1c1.2-4-1.1-8.3-5.2-9.7c-0.4-0.1-0.7-0.2-1.2-0.2c-1.5-0.2-2.9,0-4.3,0.6
					c-0.9,0.4-1.6,0.9-2.2,1.6c-0.6,0.6-1.1,1.3-1.6,2.2C32.7,32.8,32.6,33.2,32.5,33.5z"/>
			</g>
		</g>
		<g id="XMLID_00000049911444475249827830000016333428198842342534_">
			<path id="XMLID_00000066509626127479801400000018445496547884732320_" class="st6" d="M58.7,23.9L56,23.5c-0.5-0.1-0.8-0.5-0.8-1
				l0.3-2c0.1-0.5,0.5-0.8,1-0.8l2.8,0.4c0.5,0.1,0.8,0.5,0.8,1l-0.3,2C59.6,23.6,59.2,23.9,58.7,23.9z"/>
			<path id="XMLID_00000109002934523930463770000015589528524556741541_" class="st6" d="M59.6,20.9l-3.5-0.5l0.2-1.5
				c0.1-1,1-1.7,2-1.5c1,0.1,1.7,1,1.5,2C59.8,19.4,59.6,20.9,59.6,20.9z M56.7,20l2.5,0.3l0.1-1c0.1-0.6-0.3-1.3-1.1-1.4
				c-0.6-0.1-1.3,0.3-1.4,1.1L56.7,20z"/>
			<path id="XMLID_00000039842592825457762380000001975593157422182309_" class="st16" d="M58.2,21.6c0-0.3-0.2-0.5-0.4-0.6
				c-0.3,0-0.5,0.2-0.6,0.4c0,0.3,0.1,0.4,0.3,0.6l-0.1,0.5c0,0.1,0.1,0.3,0.2,0.3c0.1,0,0.3-0.1,0.3-0.2l0.1-0.5
				C58,22,58.2,21.8,58.2,21.6z"/>
		</g>
	</g>
	<g>
		<g>
			<g>
				<g>
					<g>
						<path class="st6" d="M68,50.2c-0.1,0-0.2,0.1-0.2,0.2V51c0,0.1,0.1,0.2,0.2,0.2s0.2-0.1,0.2-0.2v-0.7
							C68.1,50.2,68.1,50.2,68,50.2z"/>
					</g>
				</g>
				<g>
					<g>
						<path class="st6" d="M68,48.9c-0.1,0-0.2,0.1-0.2,0.2v0.7c0,0.1,0.1,0.2,0.2,0.2s0.2-0.1,0.2-0.2v-0.7
							C68.1,49,68.1,48.9,68,48.9z"/>
					</g>
				</g>
			</g>
			<g>
				<g>
					<g>
						<path class="st6" d="M68.9,49.9h-0.6c-0.1,0-0.2,0.1-0.2,0.2c0,0.1,0.1,0.2,0.2,0.2h0.6c0.1,0,0.2-0.1,0.2-0.2
							C69.1,49.9,69,49.9,68.9,49.9z"/>
					</g>
				</g>
				<g>
					<g>
						<path class="st6" d="M67.6,49.9H67c-0.1,0-0.2,0.1-0.2,0.2c0,0.1,0.1,0.2,0.2,0.2h0.6c0.1,0,0.2-0.1,0.2-0.2
							C67.7,49.9,67.7,49.9,67.6,49.9z"/>
					</g>
				</g>
			</g>
		</g>
		<g>
			<g>
				<g>
					<g>
						<path class="st17" d="M77.8,52c-0.1,0-0.3-0.1-0.3-0.3v-1.2c0-0.1,0.1-0.3,0.3-0.3s0.3,0.1,0.3,0.3v1.2C78,51.9,78,52,77.8,52
							z"/>
					</g>
					<g>
						<path class="st17" d="M77.8,54.1c-0.1,0-0.3-0.1-0.3-0.3v-1.2c0-0.1,0.1-0.3,0.3-0.3s0.3,0.1,0.3,0.3v1.2
							C78,54,78,54.1,77.8,54.1z"/>
					</g>
				</g>
				<g>
					<g>
						<path class="st17" d="M79.5,52.5h-1c-0.1,0-0.3-0.1-0.3-0.3s0.1-0.3,0.3-0.3h1c0.1,0,0.3,0.1,0.3,0.3S79.6,52.5,79.5,52.5z"/>
					</g>
					<g>
						<path class="st17" d="M77.2,52.5h-1c-0.1,0-0.3-0.1-0.3-0.3s0.1-0.3,0.3-0.3h1c0.1,0,0.3,0.1,0.3,0.3
							C77.5,52.4,77.4,52.5,77.2,52.5z"/>
					</g>
				</g>
			</g>
		</g>
		<g>
			<g>
				<g>
					<g>
						<path class="st17" d="M30.1,8.1c-0.1,0-0.3-0.1-0.3-0.3V6.5c0-0.1,0.1-0.3,0.3-0.3s0.3,0.1,0.3,0.3v1.3
							C30.4,8,30.4,8.1,30.1,8.1z"/>
					</g>
					<g>
						<path class="st17" d="M30.1,10.5c-0.1,0-0.3-0.1-0.3-0.3V8.9c0-0.1,0.1-0.3,0.3-0.3s0.3,0.1,0.3,0.3v1.3
							C30.4,10.4,30.4,10.5,30.1,10.5z"/>
					</g>
				</g>
				<g>
					<g>
						<path class="st17" d="M32,8.7h-1.2c-0.1,0-0.3-0.1-0.3-0.3c0-0.1,0.1-0.3,0.3-0.3H32c0.1,0,0.3,0.1,0.3,0.3
							C32.3,8.6,32.2,8.7,32,8.7z"/>
					</g>
					<g>
						<path class="st17" d="M29.5,8.7h-1.2c-0.1,0-0.3-0.1-0.3-0.3c0-0.1,0.1-0.3,0.3-0.3h1.2c0.1,0,0.3,0.1,0.3,0.3
							C29.8,8.6,29.7,8.7,29.5,8.7z"/>
					</g>
				</g>
			</g>
		</g>
	</g>
</g>
</svg>
