<?xml version="1.0" encoding="utf-8"?>
<!-- Generator: Adobe Illustrator 25.4.1, SVG Export Plug-In . SVG Version: 6.00 Build 0)  -->
<svg version="1.1" id="Layer_1" xmlns="http://www.w3.org/2000/svg" xmlns:xlink="http://www.w3.org/1999/xlink" x="0px" y="0px"
	 viewBox="0 0 103.2 58" style="enable-background:new 0 0 103.2 58;" xml:space="preserve">
<style type="text/css">
	.st0{opacity:0.3;}
	.st1{fill:#3B4751;}
	.st2{fill:#657F99;}
	.st3{opacity:0.1;fill:#FFFFFF;enable-background:new    ;}
	.st4{fill:#8EA3B2;}
	.st5{fill:#FFFFFF;}
	.st6{fill:#C7EAFF;}
	.st7{fill:#FF4C64;}
	.st8{opacity:0.2;fill:#FFFFFF;enable-background:new    ;}
</style>
<g>
	<g id="bg_00000017498918243487215540000016578454911670544044_" class="st0">
		<ellipse class="st1" cx="51.6" cy="54.6" rx="51.6" ry="3.4"/>
		<path class="st1" d="M7.7,54.1c0-0.4-9.2-13.2,2.5-24.2c5.3-5,13.6,3.3,12.7-11.9C22.2,4.8,43.9-2.1,54,7.2
			c8.2,7.5,8.7-4.6,21.5,1.6s3.7,21.3,8.9,23C95,35,102.8,44.9,94,54L7.7,54.1L7.7,54.1z"/>
		<path class="st1" d="M91.6,36c0-0.3,6.7-8.7-0.9-16.6c-3.5-3.6-9.4,1.8-8.3-8.5C83.3,2,68.8-3.4,61.6,2.6
			C55.8,7.5,55.8-0.8,46.9,3S43.6,17.3,40,18.3c-7.2,1.9-12.8,8.4-7.2,14.8L91.6,36z"/>
	</g>
	<path class="st2" d="M84.6,7.2V9H22c-0.5,0-0.9,0.4-0.9,0.9v37.7h-1.9c-0.5,0-0.9-0.4-0.9-0.9V7.1c0-0.5,0.4-0.9,0.9-0.9h64.4
		C84.2,6.2,84.6,6.6,84.6,7.2z"/>
	<path class="st2" d="M80.4,3v1.8H17.9c-0.5,0-0.9,0.4-0.9,0.9v37.7h-1.9c-0.5,0-0.9-0.4-0.9-0.9V3c0-0.5,0.4-0.9,0.9-0.9h64.4
		C80,2,80.4,2.5,80.4,3z"/>
	<path class="st2" d="M88.1,10.5H23.6c-0.5,0-0.9,0.4-0.9,0.9v39.5c0,0.5,0.4,0.9,0.9,0.9H88c0.5,0,0.9-0.4,0.9-0.9V11.5
		C89,11,88.6,10.5,88.1,10.5z"/>
	<path id="fade_00000016063507763251093540000014762032615503664049_" class="st3" d="M22.7,10.5v36.1l18.6-36.1
		C41.4,10.5,22.7,10.5,22.7,10.5z M45.8,10.5L24.4,51.9h13.2L59,10.5H45.8z"/>
	<g id="controller_00000056420751848406522670000007687219476311902384_">
		<circle class="st4" cx="80.5" cy="12.7" r="0.9"/>
		<circle class="st4" cx="83.3" cy="12.7" r="0.9"/>
		<circle class="st4" cx="86" cy="12.7" r="0.9"/>
	</g>
	<g id="XMLID_00000097489011687416610820000015857469917397091766_">
		<g id="XMLID_00000093865358524563058900000005606612266238932881_">
			<path id="XMLID_00000075882818756856492900000007103097089823820709_" class="st5" d="M52.6,39.4H43c-1,0-1.8-0.8-1.8-1.8V30
				c0-1,0.8-1.8,1.8-1.8h9.7c1,0,1.8,0.8,1.8,1.8v7.6C54.4,38.6,53.6,39.4,52.6,39.4z"/>
			<path id="XMLID_00000090263683648946314040000003506539301517125776_" class="st5" d="M53.1,30.2H42.5v-4.5
				c0-2.9,2.4-5.3,5.3-5.3c2.9,0,5.3,2.4,5.3,5.3V30.2z M44,28.6h7.6v-3c0-2.1-1.7-3.8-3.8-3.8S44,23.5,44,25.6V28.6z"/>
			<path id="XMLID_00000163778248482629883440000003454626391997530034_" class="st2" d="M49.4,32.7c0-0.9-0.7-1.6-1.6-1.6
				s-1.6,0.7-1.6,1.6c0,0.7,0.4,1.2,1,1.5v1.6c0,0.3,0.3,0.6,0.6,0.6s0.6-0.3,0.6-0.6v-1.7C49,33.9,49.4,33.3,49.4,32.7z"/>
		</g>
		<g id="XMLID_00000090258055201322540720000015314837709590625725_">
			<path id="XMLID_00000150073905539169712490000014951575539647287224_" class="st6" d="M69.2,32.8H53.4c-1,0-1.8-0.8-1.8-1.8l0,0
				c0-1,0.8-1.8,1.8-1.8h15.9c1,0,1.8,0.8,1.8,1.8l0,0C71,31.9,70.2,32.8,69.2,32.8z"/>
			<path id="XMLID_00000096023932552573842670000015530491876700674989_" class="st6" d="M69.2,37.3H53.4c-1,0-1.8-0.8-1.8-1.8l0,0
				c0-1,0.8-1.8,1.8-1.8h15.9c1,0,1.8,0.8,1.8,1.8l0,0C71,36.5,70.2,37.3,69.2,37.3z"/>
			<g id="XMLID_00000047026397020013381850000015268191602193839010_">
				<g>
					<path id="XMLID_00000042707860997589314130000012200172387167717012_" class="st2" d="M56.8,30.8h-0.3l0.2-0.2
						c0.1-0.1,0.1-0.2,0-0.2c-0.1-0.1-0.2-0.1-0.2,0l-0.2,0.2v-0.3c0-0.1-0.1-0.2-0.2-0.2s-0.2,0.1-0.2,0.2v0.3l-0.2-0.2
						c-0.1-0.1-0.2-0.1-0.2,0c-0.1,0.1-0.1,0.2,0,0.2l0.2,0.2h-0.3c-0.1,0-0.2,0.1-0.2,0.2s0.1,0.2,0.2,0.2h0.3l-0.2,0.2
						c-0.1,0.1-0.1,0.2,0,0.2h0.1h0.1l0.2-0.2v0.3c0,0.1,0.1,0.2,0.2,0.2c0.1,0,0.2-0.1,0.2-0.2v-0.3l0.2,0.2h0.1h0.1
						c0.1-0.1,0.1-0.2,0-0.2l-0.2-0.2h0.3c0.1,0,0.2-0.1,0.2-0.2C57,30.9,56.9,30.8,56.8,30.8z"/>
					<path id="XMLID_00000051376644727986406800000014372789347154919097_" class="st2" d="M58.9,30.8h-0.3l0.2-0.2
						c0.1-0.1,0.1-0.2,0-0.2c-0.1-0.1-0.2-0.1-0.2,0l-0.2,0.2v-0.3c0-0.1-0.1-0.2-0.2-0.2c-0.1,0-0.2,0.1-0.2,0.2v0.3l-0.2-0.2
						c-0.1-0.1-0.2-0.1-0.2,0c-0.1,0.1-0.1,0.2,0,0.2l0.2,0.2h-0.3c-0.1,0-0.2,0.1-0.2,0.2s0.1,0.2,0.2,0.2h0.3l-0.2,0.2
						c-0.1,0.1-0.1,0.2,0,0.2h0.1h0.1l0.2-0.2v0.3c0,0.1,0.1,0.2,0.2,0.2s0.2-0.1,0.2-0.2v-0.3l0.2,0.2h0.1h0.1
						c0.1-0.1,0.1-0.2,0-0.2l-0.2-0.2h0.3c0.1,0,0.2-0.1,0.2-0.2C59,30.9,58.9,30.8,58.9,30.8z"/>
					<path id="XMLID_00000179605004924673944960000008100612936041762214_" class="st2" d="M60.9,30.8h-0.3l0.2-0.2
						c0.1-0.1,0.1-0.2,0-0.2c-0.1-0.1-0.2-0.1-0.2,0l-0.2,0.2v-0.3c0-0.1-0.1-0.2-0.2-0.2c-0.1,0-0.2,0.1-0.2,0.2v0.3l-0.2-0.2
						c-0.1-0.1-0.2-0.1-0.2,0c-0.1,0.1-0.1,0.2,0,0.2l0.2,0.2h-0.3c-0.1,0-0.2,0.1-0.2,0.2s0.1,0.2,0.2,0.2h0.3l-0.2,0.2
						c-0.1,0.1-0.1,0.2,0,0.2h0.1h0.1l0.2-0.2v0.3c0,0.1,0.1,0.2,0.2,0.2s0.2-0.1,0.2-0.2v-0.3l0.2,0.2h0.1h0.1
						c0.1-0.1,0.1-0.2,0-0.2l-0.2-0.2h0.3c0.1,0,0.2-0.1,0.2-0.2C61.1,30.9,61,30.8,60.9,30.8z"/>
					<path id="XMLID_00000040557664974903983390000012540285346521788079_" class="st2" d="M63,30.8h-0.3l0.2-0.2
						c0.1-0.1,0.1-0.2,0-0.2c-0.1-0.1-0.2-0.1-0.2,0l-0.2,0.2v-0.3c0-0.1-0.1-0.2-0.2-0.2c-0.1,0-0.2,0.1-0.2,0.2v0.3L62,30.4
						c-0.1-0.1-0.2-0.1-0.2,0c-0.1,0.1-0.1,0.2,0,0.2l0.2,0.2h-0.3c-0.1,0-0.2,0.1-0.2,0.2s0.1,0.2,0.2,0.2H62l-0.2,0.2
						c-0.1,0.1-0.1,0.2,0,0.2h0.1H62l0.2-0.2v0.3c0,0.1,0.1,0.2,0.2,0.2c0.1,0,0.2-0.1,0.2-0.2v-0.3l0.2,0.2h0.1H63
						c0.1-0.1,0.1-0.2,0-0.2l-0.2-0.2H63c0.1,0,0.2-0.1,0.2-0.2C63.1,30.9,63.1,30.8,63,30.8z"/>
					<path id="XMLID_00000119105315071178546070000016914559721758823852_" class="st2" d="M65,30.8h-0.3l0.2-0.2
						c0.1-0.1,0.1-0.2,0-0.2c-0.1-0.1-0.2-0.1-0.2,0l-0.2,0.2v-0.3c0-0.1-0.1-0.2-0.2-0.2s-0.2,0.1-0.2,0.2v0.3L64,30.4
						c-0.1-0.1-0.2-0.1-0.2,0c-0.1,0.1-0.1,0.2,0,0.2l0.2,0.2h-0.3c-0.1,0-0.2,0.1-0.2,0.2s0.1,0.2,0.2,0.2H64l-0.2,0.2
						c-0.1,0.1-0.1,0.2,0,0.2h0.1H64l0.2-0.2v0.3c0,0.1,0.1,0.2,0.2,0.2s0.2-0.1,0.2-0.2v-0.3l0.2,0.2h0.1H65c0.1-0.1,0.1-0.2,0-0.2
						l-0.2-0.2H65c0.1,0,0.2-0.1,0.2-0.2S65.1,30.8,65,30.8z"/>
					<path id="XMLID_00000079474247700496731700000013783701136109413791_" class="st2" d="M67.1,30.8h-0.3l0.2-0.2
						c0.1-0.1,0.1-0.2,0-0.2c-0.1-0.1-0.2-0.1-0.2,0l-0.2,0.2v-0.3c0-0.1-0.1-0.2-0.2-0.2s-0.2,0.1-0.2,0.2v0.3L66,30.4
						c-0.1-0.1-0.2-0.1-0.2,0c-0.1,0.1-0.1,0.2,0,0.2l0.2,0.2h-0.3c-0.1,0-0.2,0.1-0.2,0.2s0.1,0.2,0.2,0.2H66l-0.2,0.2
						c-0.1,0.1-0.1,0.2,0,0.2h0.1H66l0.2-0.2v0.3c0,0.1,0.1,0.2,0.2,0.2s0.2-0.1,0.2-0.2v-0.3l0.2,0.2h0.1H67c0.1-0.1,0.1-0.2,0-0.2
						l-0.2-0.2h0.3c0.1,0,0.2-0.1,0.2-0.2C67.3,30.9,67.2,30.8,67.1,30.8z"/>
				</g>
			</g>
		</g>
	</g>
	<g id="XMLID_00000052789334425539777660000016316033143795737736_">
		<g>
			<path class="st7" d="M34.8,40L34.8,40c0.5-0.4,0.7-0.8,0.7-1.3c0-0.4-0.1-0.7-0.3-1C34.6,37,33.7,37,33,37.5L25.1,44
				c-1.9-1.3-4.5-1.2-6.4,0.4c-2.3,1.9-2.6,5.3-0.7,7.6s5.3,2.6,7.6,0.7c1.9-1.6,2.4-4.1,1.5-6.3l3.8-3.2l0.5,0.6
				c0.3,0.3,0.7,0.3,1,0.1c0.3-0.3,0.4-0.7,0.1-1L32,42.3l0.4-0.3l1,1.2c0.3,0.3,0.7,0.3,1,0.1c0.3-0.3,0.3-0.7,0.1-1l-1-1.2
				l0.2-0.2l0.5,0.6c0.3,0.3,0.7,0.3,1,0.1c0.3-0.3,0.3-0.7,0.1-1L34.8,40z M21.1,51.1c-0.9,0-1.6-0.7-1.6-1.6
				c0-0.9,0.7-1.6,1.6-1.6s1.6,0.7,1.6,1.6C22.7,50.3,22,51.1,21.1,51.1z"/>
		</g>
	</g>
	<g id="shape_00000150792022210776463470000009980188501495138493_">
		<g>
			<g>
				<g>
					<path class="st5" d="M42.5,49.3c0.1,0,0.2,0.1,0.2,0.2v1c0,0.1-0.1,0.2-0.2,0.2s-0.2-0.1-0.2-0.2v-1
						C42.3,49.4,42.4,49.3,42.5,49.3z"/>
				</g>
			</g>
			<g>
				<g>
					<path class="st5" d="M42.5,47.6c0.1,0,0.2,0.1,0.2,0.2v1c0,0.1-0.1,0.2-0.2,0.2s-0.2-0.1-0.2-0.2v-1
						C42.3,47.7,42.4,47.6,42.5,47.6z"/>
				</g>
			</g>
		</g>
		<g>
			<g>
				<g>
					<path class="st5" d="M41.2,49h0.9c0.1,0,0.2,0.1,0.2,0.2s-0.1,0.2-0.2,0.2h-0.9c-0.1,0-0.2-0.1-0.2-0.2S41.1,49,41.2,49z"/>
				</g>
			</g>
			<g>
				<g>
					<path class="st5" d="M43,49h0.9c0.1,0,0.2,0.1,0.2,0.2s-0.1,0.2-0.2,0.2H43c-0.1,0-0.2-0.1-0.2-0.2S42.9,49,43,49z"/>
				</g>
			</g>
		</g>
	</g>
	<g id="shape_00000159430341476152431290000018371745437973997452_">
		<g>
			<g>
				<path class="st5" d="M27.9,13c0.1,0,0.2,0.1,0.2,0.2v1c0,0.1-0.1,0.2-0.2,0.2s-0.2-0.1-0.2-0.2v-1C27.6,13.1,27.7,13,27.9,13z"
					/>
			</g>
			<g>
				<path class="st5" d="M27.9,11.3c0.1,0,0.2,0.1,0.2,0.2v1c0,0.1-0.1,0.2-0.2,0.2s-0.2-0.1-0.2-0.2v-1
					C27.6,11.4,27.7,11.3,27.9,11.3z"/>
			</g>
		</g>
		<g>
			<g>
				<path class="st5" d="M26.5,12.6h0.9c0.1,0,0.2,0.1,0.2,0.2c0,0.1-0.1,0.2-0.2,0.2h-0.9c-0.1,0-0.2-0.1-0.2-0.2
					C26.3,12.7,26.4,12.6,26.5,12.6z"/>
			</g>
			<g>
				<path class="st5" d="M28.3,12.6h0.9c0.1,0,0.2,0.1,0.2,0.2c0,0.1-0.1,0.2-0.2,0.2h-0.9c-0.1,0-0.2-0.1-0.2-0.2
					C28.1,12.7,28.2,12.6,28.3,12.6z"/>
			</g>
		</g>
	</g>
	<g>
		<path class="st4" d="M77.9,38.5c-0.5,0.2-0.7,0.6-0.7,1v9.6c0,2,0.9,3.8,2.5,4.9l5.6,3.6c0.4,0.2,0.9,0.2,1.3,0l5.6-3.6
			c1.6-1.1,2.5-2.9,2.5-4.9v-9.5c0-0.4-0.3-0.8-0.8-1C87,36.2,84.2,36.1,77.9,38.5L77.9,38.5z"/>
		<path class="st2" d="M79,39.8c-0.4,0.1-0.6,0.5-0.6,0.8v8.2c0,1.7,0.8,3.2,2.1,4.2l4.8,3.1c0.3,0.2,0.8,0.2,1.1,0l4.8-3.1
			c1.3-1,2.1-2.5,2.1-4.2v-8.1c0-0.4-0.3-0.7-0.7-0.9C86.8,37.8,84.5,37.7,79,39.8L79,39.8z"/>
		<path class="st8" d="M93.3,40.7v8.1c0,1.7-0.8,3.2-2.1,4.2l-4.8,3.1c-0.2,0.1-0.4,0.2-0.6,0.2v-18c1.9,0,3.9,0.6,6.8,1.5
			C93,40,93.3,40.3,93.3,40.7z"/>
	</g>
	<path id="check_00000120555431482647793680000010626014651369010344_" class="st5" d="M85.6,50.5c-0.2,0-0.4-0.1-0.6-0.2l-2.6-2.6
		c-0.4-0.3-0.4-0.9-0.1-1.2c0.3-0.4,0.9-0.4,1.2-0.1l1.9,1.9l3.7-5.3c0.3-0.4,0.8-0.5,1.2-0.2c0.4,0.3,0.5,0.8,0.2,1.2l-4.2,6.1
		C86.2,50.3,85.9,50.4,85.6,50.5L85.6,50.5z"/>
</g>
</svg>
