<?xml version="1.0" encoding="utf-8"?>
<!-- Generator: Adobe Illustrator 25.4.1, SVG Export Plug-In . SVG Version: 6.00 Build 0)  -->
<svg version="1.1" id="Layer_1" xmlns="http://www.w3.org/2000/svg" xmlns:xlink="http://www.w3.org/1999/xlink" x="0px" y="0px"
	 viewBox="0 0 71.4 54.3" style="enable-background:new 0 0 71.4 54.3;" xml:space="preserve">
<style type="text/css">
	.st0{display:none;opacity:0.54;fill:#FFFFFF;enable-background:new    ;}
	.st1{opacity:0.1;}
	.st2{fill:#3B4751;}
	.st3{fill:#A6EAFF;}
	.st4{fill:#1A9EFE;}
	.st5{opacity:7.000000e-02;fill:#FFFFFF;enable-background:new    ;}
	.st6{fill:#FFFFFF;}
	.st7{fill:#49B8F6;}
	.st8{fill:#FCBF1E;}
	.st9{opacity:0.2;fill:url(#SVGID_1_);enable-background:new    ;}
</style>
<rect x="-27.2" y="-36.8" class="st0" width="125.1" height="127.9"/>
<g id="Background_00000163051256079821711590000010988136737280338061_" class="st1">
	<path class="st2" d="M58.5,9.2C50.2,5,47.2,9.3,35.8,8.6c-4.4-0.3-5.1-2-10.3-1.8C11.2,7.3,8.1,30.8,21.1,35
		C34,39.3,32,51.2,49,50.4c10.3-0.5,7.2-13,12-19.6C68.5,20.7,66.3,13.1,58.5,9.2z M46.5,40.6c0.1-0.2,0.4-0.3,0.6-0.1
		c0.2,0.1,0.3,0.3,0.1,0.6c-0.1,0.2-0.4,0.3-0.6,0.1C46.5,41.1,46.4,40.8,46.5,40.6z"/>
	<ellipse class="st2" cx="35.7" cy="51.5" rx="35.7" ry="2.4"/>
	<path class="st2" d="M40.1,5.8c-9.1,1.5-9,6.7-18.7,12.9c-3.8,2.3-5.3,1.4-9.4,4.6C0.9,32.2,12.2,53,25.2,48.7
		c13-4.2,18.4,6.7,31.7-4c8-6.5-1.9-14.7-1.8-22.9C55,9.2,48.8,4.3,40.1,5.8z M49,38.3c0-0.3,0.1-0.4,0.4-0.4c0.3,0,0.4,0.1,0.4,0.4
		s-0.1,0.4-0.4,0.4C49.3,38.6,49.1,38.4,49,38.3z"/>
</g>
<path class="st3" d="M12.3,0H59c0.8,0,1.4,0.6,1.4,1.4v48.4c0,0.8-0.6,1.4-1.4,1.4H12.3c-0.8,0-1.4-0.6-1.4-1.4V1.4
	C10.9,0.6,11.5,0,12.3,0z"/>
<path class="st4" d="M58.2,3.7v43.9c0,0.8-0.6,1.4-1.4,1.4H14.5c-0.8,0-1.4-0.6-1.4-1.4V3.7c0-0.8,0.6-1.4,1.4-1.4c0,0,0,0,0.1,0
	h42.3C57.6,2.2,58.2,2.9,58.2,3.7z"/>
<path class="st5" d="M18.3,2.2L13,12.9v23.4l16.7-34H18.3z"/>
<g>
	<path class="st6" d="M47.2,8.8c-11.8,1.9-13,11-13,11c-10,0.3-10.9,8-10.9,8s5.9-3.8,11.9-0.4s5.2,11.1,5.2,11.1
		c6.3-4.8,2.8-13.1,2.8-13.1C50.4,18.6,47.2,8.8,47.2,8.8z M42.1,19.7c-1.4,0.1-2.7-1-2.8-2.4c-0.1-1.4,1-2.7,2.4-2.8
		c1.4-0.1,2.7,1,2.8,2.4C44.6,18.3,43.5,19.6,42.1,19.7z"/>
	<path class="st6" d="M27,42.6l-0.4-0.2c-0.4-0.2-0.5-0.7-0.3-1l5.9-10.4c0.2-0.4,0.7-0.5,1-0.3l0.4,0.2c0.4,0.2,0.5,0.7,0.3,1
		l-5.9,10.4C27.9,42.7,27.4,42.9,27,42.6z"/>
	<path class="st6" d="M31.8,41.6l-0.4-0.2c-0.4-0.2-0.5-0.7-0.3-1l3.6-6.3c0.2-0.4,0.7-0.5,1-0.3l0.4,0.2c0.4,0.2,0.5,0.7,0.3,1
		l-3.6,6.3C32.6,41.6,32.2,41.8,31.8,41.6z"/>
	<path class="st6" d="M25.3,38.2L24.8,38c-0.4-0.2-0.5-0.7-0.3-1l3.6-6.3c0.2-0.4,0.7-0.5,1-0.3l0.4,0.2c0.4,0.2,0.5,0.7,0.3,1
		l-3.6,6.3C26.1,38.3,25.6,38.4,25.3,38.2z"/>
</g>
<g>
	<g>
		<g>
			<g>
				<g>
					<path class="st6" d="M55.6,4.7c-0.1,0-0.1,0.1-0.1,0.1v0.6c0,0.1,0.1,0.1,0.1,0.1c0.1,0,0.1-0.1,0.1-0.1V4.8
						C55.7,4.8,55.7,4.7,55.6,4.7z"/>
				</g>
			</g>
			<g>
				<g>
					<path class="st6" d="M55.6,3.6c-0.1,0-0.1,0.1-0.1,0.1v0.6c0,0.1,0.1,0.1,0.1,0.1c0.1,0,0.1-0.1,0.1-0.1V3.7
						C55.7,3.7,55.7,3.6,55.6,3.6z"/>
				</g>
			</g>
		</g>
		<g>
			<g>
				<g>
					<path class="st6" d="M56.4,4.4h-0.5c-0.1,0-0.1,0.1-0.1,0.1c0,0.1,0.1,0.1,0.1,0.1h0.5c0.1,0,0.1-0.1,0.1-0.1
						C56.5,4.5,56.5,4.4,56.4,4.4z"/>
				</g>
			</g>
			<g>
				<g>
					<path class="st6" d="M55.3,4.4h-0.5c-0.1,0-0.1,0.1-0.1,0.1c0,0.1,0.1,0.1,0.1,0.1h0.5c0.1,0,0.1-0.1,0.1-0.1
						C55.4,4.5,55.3,4.4,55.3,4.4z"/>
				</g>
			</g>
		</g>
	</g>
	<g>
		<g>
			<g>
				<g>
					<path class="st7" d="M67.8,19.1c-0.1,0-0.2-0.1-0.2-0.2v-1c0-0.1,0.1-0.2,0.2-0.2c0.1,0,0.2,0.1,0.2,0.2v1
						C68,19,68,19.1,67.8,19.1z"/>
				</g>
				<g>
					<path class="st7" d="M67.8,20.9c-0.1,0-0.2-0.1-0.2-0.2v-1c0-0.1,0.1-0.2,0.2-0.2c0.1,0,0.2,0.1,0.2,0.2v1
						C68,20.8,68,20.9,67.8,20.9z"/>
				</g>
			</g>
			<g>
				<g>
					<path class="st7" d="M69.3,19.6h-0.9c-0.1,0-0.2-0.1-0.2-0.2s0.1-0.2,0.2-0.2h0.9c0.1,0,0.2,0.1,0.2,0.2S69.4,19.6,69.3,19.6z"
						/>
				</g>
				<g>
					<path class="st7" d="M67.4,19.6h-0.9c-0.1,0-0.2-0.1-0.2-0.2s0.1-0.2,0.2-0.2h0.9c0.1,0,0.2,0.1,0.2,0.2S67.5,19.6,67.4,19.6z"
						/>
				</g>
			</g>
		</g>
	</g>
	<g>
		<g>
			<g>
				<g>
					<path class="st7" d="M4.3,34.1C4.2,34.1,4,34,4,33.8v-1.2c0-0.1,0.1-0.3,0.3-0.3c0.1,0,0.3,0.1,0.3,0.3v1.2
						C4.6,34,4.6,34.1,4.3,34.1z"/>
				</g>
				<g>
					<path class="st7" d="M4.3,36.2C4.2,36.2,4,36,4,35.9v-1.2c0-0.1,0.1-0.3,0.3-0.3c0.1,0,0.3,0.1,0.3,0.3v1.2
						C4.6,36,4.6,36.2,4.3,36.2z"/>
				</g>
			</g>
			<g>
				<g>
					<path class="st7" d="M6,34.6h-1c-0.1,0-0.3-0.1-0.3-0.3c0-0.1,0.1-0.3,0.3-0.3h1c0.1,0,0.3,0.1,0.3,0.3
						C6.3,34.5,6.1,34.6,6,34.6z"/>
				</g>
				<g>
					<path class="st7" d="M3.8,34.6h-1c-0.1,0-0.3-0.1-0.3-0.3c0-0.1,0.1-0.3,0.3-0.3h1c0.1,0,0.3,0.1,0.3,0.3
						C4,34.5,3.9,34.6,3.8,34.6z"/>
				</g>
			</g>
		</g>
	</g>
</g>
<g>
	<g>
		<path class="st6" d="M51.9,35c-0.5,0.2-0.7,0.6-0.7,1v9.6c0,2,0.9,3.8,2.5,4.9l5.6,3.6c0.4,0.2,0.9,0.2,1.3,0l5.6-3.6
			c1.6-1.1,2.5-2.9,2.5-4.9v-9.5c0-0.4-0.3-0.8-0.8-1C61,32.7,58.2,32.6,51.9,35L51.9,35z"/>
		<path class="st8" d="M53,36.3c-0.4,0.1-0.6,0.5-0.6,0.8v8.2c0,1.7,0.8,3.2,2.1,4.2l4.8,3.1c0.3,0.2,0.8,0.2,1.1,0l4.8-3.1
			c1.3-1,2.1-2.5,2.1-4.2v-8.1c0-0.4-0.3-0.7-0.7-0.9C60.8,34.3,58.5,34.2,53,36.3L53,36.3z"/>
		<linearGradient id="SVGID_1_" gradientUnits="userSpaceOnUse" x1="59.8247" y1="43.7362" x2="67.2441" y2="43.7362">
			<stop  offset="0" style="stop-color:#FFFFFF"/>
			<stop  offset="1" style="stop-color:#FFFFFF;stop-opacity:0"/>
		</linearGradient>
		<path class="st9" d="M66.6,36.3c-2.8-1-4.8-1.5-6.8-1.5v17.9c0.2,0,0.4-0.1,0.5-0.2l4.8-3.1c1.3-1,2.1-2.5,2.1-4.2v-8.1
			C67.3,36.8,67,36.4,66.6,36.3L66.6,36.3z"/>
	</g>
	<path id="check_00000034085004496673762780000012181676774947139744_" class="st6" d="M59.6,47c-0.2,0-0.4-0.1-0.6-0.2l-2.6-2.6
		C56,43.9,56,43.3,56.3,43c0.3-0.4,0.9-0.4,1.2-0.1l1.9,1.9l3.7-5.3c0.3-0.4,0.8-0.5,1.2-0.2c0.4,0.3,0.5,0.8,0.2,1.2l-4.2,6.1
		C60.2,46.8,59.9,46.9,59.6,47C59.6,47,59.6,47,59.6,47z"/>
</g>
</svg>
