<?xml version="1.0" encoding="utf-8"?>
<!-- Generator: Adobe Illustrator 26.0.1, SVG Export Plug-In . SVG Version: 6.00 Build 0)  -->
<svg version="1.1" id="Layer_1" xmlns="http://www.w3.org/2000/svg" xmlns:xlink="http://www.w3.org/1999/xlink" x="0px" y="0px"
	 viewBox="0 0 103.2 58" style="enable-background:new 0 0 103.2 58;" xml:space="preserve">
<style type="text/css">
	.st0{opacity:0.1;}
	.st1{fill:#3B4751;}
	.st2{fill:#8EA2B1;}
	.st3{opacity:0.4;fill:url(#XMLID_00000047763377931831162560000016293949317577171113_);enable-background:new    ;}
	.st4{fill:#647E99;}
	.st5{opacity:0.1;fill:#FFFFFF;enable-background:new    ;}
	.st6{fill:#FF4C64;}
	.st7{opacity:0.2;fill:url(#XMLID_00000005954512286906138960000002884541412442669729_);enable-background:new    ;}
	.st8{fill:#FFFFFF;}
	.st9{fill:#ED4873;}
	.st10{fill:#E23056;}
	.st11{fill:#F9647D;}
	.st12{opacity:0.1;enable-background:new    ;}
	.st13{fill:#1EABF9;}
	.st14{fill:#E8E8F9;}
	.st15{enable-background:new    ;}
</style>
<g>
	<g id="Background_00000172406666025275788090000006116972922171674033_" class="st0">
		<path class="st1" d="M79.2,3.2c-10-5.1-13.6,0.1-27.4-0.8C46.5,2,45.7,0,39.4,0.2c-17.2,0.7-20.9,29.5-5.3,34.6
			c15.6,5.3,13.1,19.9,33.7,18.9c12.5-0.6,8.6-15.9,14.5-24C91.3,17.3,88.7,8,79.2,3.2z M64.8,41.8c0.2-0.3,0.4-0.3,0.7-0.2
			c0.3,0.2,0.3,0.4,0.2,0.7c-0.2,0.3-0.4,0.3-0.7,0.2C64.8,42.3,64.7,42,64.8,41.8z"/>
		<path id="Background_00000112593270285195215530000008095288701935541943_" class="st1" d="M67.7,42.4c0,0,3.8,1.4,5.8,3.7
			c1.9,2.3,6.4,6.4-8.4,9.3c-13.6,2.8-40.4,4.1-34.8-1.9c5.6-5.8-22.5-1.3-22.5-7.5C7.8,36.8,67.7,42.4,67.7,42.4z"/>
		<path id="Background_00000144319930566836998500000003624958855053273999_" class="st1" d="M48.3,56.1c0,0-4-0.8-6.2-2.8
			s-7.3-5.3,7-10.5C62.2,38,88.5,33,83.7,39.7s10.8,0.3,11.6,6.4C96.7,55.2,48.3,56.1,48.3,56.1z"/>
	</g>
	<polygon id="XMLID_00000047743056272051820850000012192834778269980304_" class="st2" points="53.4,49.1 41.6,49.1 42.6,39.7 
		52.3,39.7 	"/>
	
		<linearGradient id="XMLID_00000096022291893475827780000013930085179698290062_" gradientUnits="userSpaceOnUse" x1="47.45" y1="295.6246" x2="47.45" y2="298.2101" gradientTransform="matrix(1 0 0 -1 0 341.4919)">
		<stop  offset="0" style="stop-color:#656666;stop-opacity:0"/>
		<stop  offset="1" style="stop-color:#656666"/>
	</linearGradient>
	
		<polygon id="XMLID_00000003106256561537513700000004556572017581253513_" style="opacity:0.4;fill:url(#XMLID_00000096022291893475827780000013930085179698290062_);enable-background:new    ;" points="
		41.9,45.9 53,45.9 52.7,43.3 42.2,43.3 	"/>
	<path id="XMLID_00000029740980974685992430000012387631374965500290_" class="st2" d="M57.9,49.5L57.9,49.5c0-0.8-0.7-1.5-1.4-1.5
		H38.9c-0.8,0-1.5,0.7-1.5,1.5c0,0,0,0,0,0.1L57.9,49.5L57.9,49.5z"/>
	<path class="st2" d="M71.7,11.9v29.9c0,0.1,0,0.2,0,0.3l-0.2,0.3c-0.3,0.4-0.7,0.8-1.2,0.8H23.5c-0.5,0-1-0.3-1.2-0.8
		c0-0.1-0.1-0.2-0.1-0.3s0-0.2,0-0.3V11.9c0-0.4,0.2-0.8,0.5-1.1c0.3-0.2,0.5-0.3,0.8-0.3h46.8c0.3,0,0.6,0.1,0.8,0.3
		C71.4,11,71.7,11.4,71.7,11.9z"/>
	<path class="st4" d="M69.6,12.1H24.2c-0.3,0-0.7,0.3-0.7,0.7v27.8c0,0.3,0.3,0.7,0.7,0.7h45.4c0.3,0,0.7-0.3,0.7-0.7V12.8
		C70.3,12.5,70,12.1,69.6,12.1z"/>
	<path class="st2" d="M61,43.3H33c-1.2,0-2.2-0.3-2.2-0.8h32.4C63.2,43,62.2,43.3,61,43.3z"/>
	<path class="st4" d="M47.3,11.4h-1.6c0,0-0.1,0-0.1-0.1s0-0.1,0.1-0.1h1.6C47.4,11.4,47.4,11.4,47.3,11.4
		C47.4,11.4,47.4,11.4,47.3,11.4z"/>
	<path class="st5" d="M22.3,12.1v25.4l13.1-25.4H22.3z M38.4,12.1l-15,29.2h9.3l15.2-29.2C47.9,12.1,38.4,12.1,38.4,12.1z"/>
	<g id="XMLID_00000045604411932320646420000001504340742124586419_">
		<path id="XMLID_00000113340629871197779260000001585783163250524546_" class="st6" d="M22.9,13.9c-1,0.3-3.3,0.8-6.5,0
			c-0.4-0.1-0.8,0.2-0.8,0.6v6.9c0,3.1,1.4,6,3.8,8c1.3,1,2.7,1.9,4.1,1.9s2.6-0.8,3.9-1.7c2.5-1.9,4-5,4-8.1v-6.9
			c0-0.4-0.4-0.7-0.8-0.6c-3.1,0.8-5.5,0.3-6.5,0C23.5,13.8,23.2,13.8,22.9,13.9z"/>
		<path id="XMLID_00000087408813519845658280000003301049797602958775_" class="st4" d="M23.4,29.7c-0.8,0-1.8-0.5-2.9-1.4
			c-1.9-1.6-3.1-4.1-3.1-6.6V16c0.8,0.2,1.5,0.2,2.4,0.2c1.6,0,2.9-0.3,3.7-0.5c0.8,0.3,2,0.5,3.7,0.5c0.8,0,1.5-0.1,2.4-0.2v5.6
			c0,2.6-1.2,5.2-3.2,6.8C25.1,29.1,24,29.7,23.4,29.7z"/>
		
			<linearGradient id="XMLID_00000086679799838809022790000005914042609792665522_" gradientUnits="userSpaceOnUse" x1="23.3871" y1="318.8865" x2="29.4619" y2="318.8865" gradientTransform="matrix(1 0 0 -1 0 341.4919)">
			<stop  offset="0" style="stop-color:#FFFFFF"/>
			<stop  offset="1" style="stop-color:#FFFFFF;stop-opacity:0"/>
		</linearGradient>
		
			<path id="XMLID_00000007402214887756458710000003201434698044717240_" style="opacity:0.2;fill:url(#XMLID_00000086679799838809022790000005914042609792665522_);enable-background:new    ;" d="
			M26.2,28.2c2-1.6,3.2-4.2,3.2-6.8v-5.5c-0.8,0.2-1.5,0.2-2.4,0.2c-1.6,0-2.9-0.3-3.7-0.5v14C24,29.7,25.1,29.1,26.2,28.2z"/>
		<path id="XMLID_00000091703154832569757440000013824396336183610513_" class="st8" d="M22.9,25.4c-0.2,0-0.3-0.1-0.5-0.2l-2.1-2.1
			c-0.3-0.3-0.3-0.7-0.1-1c0.3-0.3,0.7-0.3,1-0.1l1.5,1.6l3-4.4c0.3-0.3,0.7-0.4,1-0.2s0.4,0.7,0.2,1l-3.6,5
			C23.3,25.3,23.1,25.4,22.9,25.4L22.9,25.4z"/>
	</g>
	<g id="XMLID_00000063612776927726685530000015168397763716487352_">
		<g id="XMLID_00000072990518478806272750000002326897736055720357_">
			<g id="XMLID_00000109005487830951560170000001208973909891007158_">
				<polygon id="XMLID_00000009550701444502575770000012752326593913082805_" class="st9" points="64.2,14.2 55.9,14.2 56.9,8.6 
					65.2,8.6 				"/>
				<polygon id="XMLID_00000029012162643611488330000016588403753551986072_" class="st9" points="59,8 57.1,8 56.9,8.6 59.3,8.6 
									"/>
			</g>
			<g id="XMLID_00000075140296359936552180000011246327530232803996_">
				<g>
					<polygon id="XMLID_00000153703675272656592900000013924417290415964308_" class="st10" points="64,14.2 55.7,14.2 56.8,8.6 
						65.1,8.6 					"/>
					<polygon id="XMLID_00000101092355617965909730000003664372282093143695_" class="st10" points="58.9,8 56.9,8 56.8,8.6 
						59.1,8.6 					"/>
				</g>
			</g>
			<g id="XMLID_00000034795788833297906090000010962413167113479573_">
				<polygon id="XMLID_00000046333096115559231840000007989315917376641468_" class="st11" points="64.2,14.2 55.9,14.2 55.6,8.6 
					63.9,8.6 				"/>
				<polygon id="XMLID_00000029748558314062438150000009282606130308951442_" class="st11" points="57.5,8 55.6,8 55.6,8.6 
					57.9,8.6 				"/>
			</g>
			<g id="XMLID_00000160901562436535768980000009359631709061548937_">
				<g>
					<polygon id="XMLID_00000143599524775163115830000017330311476732394388_" class="st6" points="64,14.2 55.7,14.2 55.4,8.6 
						63.7,8.6 					"/>
					<polygon id="XMLID_00000016761582881128561990000006593360489951410340_" class="st6" points="57.4,8 55.4,8 55.4,8.6 
						57.8,8.6 					"/>
				</g>
			</g>
		</g>
		<g id="XMLID_00000091731512784325634930000010734926660097512852_">
			<path id="XMLID_00000172420440445034177550000015842316983651390906_" class="st8" d="M60.7,13.6h-1.8c-0.3,0-0.6-0.3-0.6-0.6
				v-1.4c0-0.3,0.3-0.6,0.6-0.6h1.9c0.3,0,0.6,0.3,0.6,0.6V13C61.2,13.3,61,13.6,60.7,13.6z"/>
			<path id="XMLID_00000152257343123256257000000009886498171826655403_" class="st8" d="M60.9,11.5h-2.4v-1c0-0.7,0.5-1.2,1.2-1.2
				s1.2,0.5,1.2,1.2V11.5z M58.9,11.2h1.7v-0.7c0-0.4-0.3-0.8-0.8-0.8c-0.4,0-0.8,0.3-0.8,0.8v0.7H58.9z"/>
			<path id="XMLID_00000090275189889712720230000016166958984545386912_" class="st6" d="M60.1,12.1c0-0.2-0.2-0.3-0.3-0.3
				s-0.3,0.2-0.3,0.3s0.1,0.3,0.3,0.3v0.3c0,0.1,0.1,0.2,0.2,0.2c0.1,0,0.2-0.1,0.2-0.2v-0.3C60.1,12.4,60.1,12.2,60.1,12.1z"/>
		</g>
	</g>
	<path class="st12" d="M33.7,46.3h-16c-1.3,0-2.3-1-2.3-2.3l0,0c0-1.3,1-2.3,2.3-2.3h16c1.3,0,2.3,1,2.3,2.3l0,0
		C36,45.3,35,46.3,33.7,46.3z"/>
	<path class="st13" d="M16.7,35.6h0.6v9.1h-0.6c-0.4,0-0.8-0.3-0.8-0.8v-1.2c0-0.2,0.1-0.2,0.3-0.2h0.3c0.2,0,0.3-0.1,0.3-0.2V38
		c0-0.2-0.1-0.2-0.3-0.2h-0.3c-0.2,0-0.3-0.1-0.3-0.2v-1.2C15.8,35.9,16.2,35.6,16.7,35.6L16.7,35.6z"/>
	<path class="st2" d="M20.3,34.9L20.3,34.9h-4.1c-0.7,0-1.3,0.6-1.3,1.3V44c0,0.7,0.6,1.3,1.3,1.3h1.5c0,0,0,0.1,0.1,0.1h0.7
		c0,0,0.1,0,0.1-0.1h0.8c0,0,0,0.1,0.1,0.1h1.6c0,0,0.1,0,0.1-0.1h0.4c0,0,0,0.1,0.1,0.1h1.6c0,0,0.1,0,0.1-0.1h11.3
		c0.7,0,1.3-0.6,1.3-1.3v-7.8c0-0.7-0.6-1.3-1.3-1.3H22.9l0,0c0,0,0-0.1-0.1-0.1h-2.3C20.3,34.8,20.3,34.8,20.3,34.9L20.3,34.9z"/>
	<path class="st4" d="M16.7,35.9h17.6c0.4,0,0.8,0.3,0.8,0.7v7c0,0.4-0.3,0.7-0.8,0.7H16.7c-0.4,0-0.8-0.3-0.8-0.7v-1.1
		c0-0.1,0.1-0.2,0.2-0.2h0.3c0.2,0,0.3-0.1,0.3-0.2v-4c0-0.1-0.1-0.2-0.3-0.2H16c-0.2,0-0.2-0.1-0.2-0.2v-1.1
		C15.8,36.3,16.2,35.9,16.7,35.9L16.7,35.9z"/>
	<path class="st4" d="M16.2,39.4v1.4c0,0,0,0.1-0.1,0.1c0,0-0.1,0-0.1-0.1v-1.5C16.1,39.3,16.2,39.3,16.2,39.4
		C16.2,39.3,16.2,39.3,16.2,39.4z"/>
	<g>
		<path class="st12" d="M63.3,41.7V27.6c0-0.8,0.7-1.4,1.4-1.4h0.8c1.3,0,2.3,1,2.3,2.3v13.2c0,1.3-1,2.3-2.3,2.3l0,0
			C64.3,44,63.3,42.9,63.3,41.7z"/>
		<path class="st2" d="M65.3,45.3h12.3c0.4,0,0.8-0.3,0.8-0.8V26.9c0-0.4-0.3-0.8-0.8-0.8H65.3c-0.4,0-0.8,0.3-0.8,0.8v17.5
			C64.5,44.8,64.8,45.3,65.3,45.3z"/>
		<path class="st8" d="M65.2,27.8v14.9c0,0.3,0.3,0.5,0.6,0.5H77c0.3,0,0.6-0.3,0.6-0.5V27.8c0-0.3-0.3-0.5-0.6-0.5H65.8
			C65.5,27.2,65.2,27.5,65.2,27.8z"/>
		<path class="st4" d="M65.8,27.2H77c0.3,0,0.6,0.3,0.6,0.5v15c0,0.3-0.3,0.5-0.6,0.5H65.8c-0.3,0-0.6-0.3-0.6-0.5V27.8
			C65.2,27.5,65.5,27.2,65.8,27.2z"/>
		<path class="st4" d="M70.8,26.7h1.1c0,0,0.1,0,0.1-0.1c0,0,0-0.1-0.1-0.1h-1.1C70.8,26.6,70.8,26.6,70.8,26.7L70.8,26.7z"/>
		<circle class="st8" cx="71.3" cy="44.3" r="0.6"/>
	</g>
	<path class="st5" d="M16.7,35.9h5l13.4,6.4v1.3c0,0.3-0.3,0.7-0.8,0.7H23.6l-7-3.3v-2.7c0-0.1-0.1-0.2-0.3-0.2H16
		c-0.2,0-0.2-0.1-0.2-0.2v-1.3C15.8,36.3,16.2,35.9,16.7,35.9z"/>
	<path class="st5" d="M77.3,27.4l-8.1,15.9h-3.4c-0.3,0-0.5-0.3-0.5-0.6v-4.2l6.4-11.3H77C77.1,27.2,77.2,27.3,77.3,27.4z"/>
	<path class="st14" d="M17.3,31.4v-0.9h-0.9c0-0.3-0.1-0.4-0.3-0.7l0.6-0.6L16,28.6l-0.6,0.5c-0.3-0.2-0.5-0.3-0.8-0.3v-0.9h-0.9
		v0.9c-0.2,0-0.3,0.1-0.5,0.2l-0.6-0.6L11.9,29l0.6,0.6c-0.2,0.3-0.3,0.5-0.3,0.8h-0.8v0.9h0.8c0.1,0.3,0.2,0.5,0.3,0.7L12,32.5
		l0.5,0.8l0.6-0.6c0.3,0.2,0.5,0.3,0.8,0.3v0.9h0.9v-1c0.2-0.1,0.4-0.2,0.6-0.3l0.6,0.6l0.7-0.7l-0.6-0.6c0.1-0.2,0.2-0.3,0.3-0.5
		H17.3z M14.9,31.5c-0.3,0.3-0.9,0.3-1.3,0c-0.3-0.3-0.3-0.9,0-1.3s0.9-0.3,1.3,0C15.2,30.6,15.2,31.2,14.9,31.5z"/>
	<g>
		<g>
			<g>
				<g>
					<path class="st8" d="M68.4,14.3c0.1,0,0.2,0.1,0.2,0.2v0.8c0,0.1-0.1,0.2-0.2,0.2s-0.2-0.1-0.2-0.2v-0.8
						C68.2,14.4,68.3,14.3,68.4,14.3z"/>
				</g>
			</g>
			<g>
				<g>
					<path class="st8" d="M68.4,13c0.1,0,0.2,0.1,0.2,0.2V14c0,0.1-0.1,0.2-0.2,0.2s-0.2-0.1-0.2-0.2v-0.8C68.2,13,68.3,13,68.4,13z
						"/>
				</g>
			</g>
		</g>
		<g>
			<g>
				<g>
					<path class="st8" d="M67.4,14.1H68c0.1,0,0.2,0.1,0.2,0.2c0,0.1-0.1,0.2-0.2,0.2h-0.7c-0.1,0-0.2-0.1-0.2-0.2
						C67.2,14.1,67.3,14.1,67.4,14.1z"/>
				</g>
			</g>
			<g>
				<g>
					<path class="st8" d="M68.8,14.1h0.7c0.1,0,0.2,0.1,0.2,0.2c0,0.1-0.1,0.2-0.2,0.2h-0.7c-0.1,0-0.2-0.1-0.2-0.2
						C68.6,14.1,68.7,14.1,68.8,14.1z"/>
				</g>
			</g>
		</g>
	</g>
	<g id="XMLID_00000036218948156701229870000017786242780660809393_">
		<path class="st6" d="M66,39.5c-0.9-0.6-2.2-0.5-3.1,0.3l-4.2-2.6c-0.3-0.3-0.8-0.1-1,0.3c-0.1,0.2-0.1,0.3-0.1,0.4
			c0,0.3,0.2,0.5,0.4,0.6l0,0l-0.3,0.4c0,0.2,0,0.3,0.2,0.4c0.2,0.1,0.3,0.1,0.4-0.1l0.3-0.4l0.2,0.1l-0.5,0.8c0,0.2,0,0.3,0.2,0.4
			c0.2,0.1,0.3,0.1,0.4-0.1l0.4-0.8l0.3,0.2l-0.3,0.4c-0.1,0.1,0,0.3,0.2,0.4c0.2,0.1,0.3,0.1,0.4-0.1l0.3-0.4l2,1.3
			c-0.3,1.1,0.2,2.3,1.2,3c1.2,0.8,2.8,0.3,3.6-0.8C67.7,41.9,67.3,40.3,66,39.5z M65.2,42.9c-0.4,0-0.8-0.3-0.8-0.8
			s0.3-0.8,0.8-0.8s0.8,0.3,0.8,0.8C66,42.5,65.7,42.9,65.2,42.9z"/>
	</g>
	<g id="logo">
		<g id="XMLID_121_">
			<g id="XMLID_122_">
				<g id="XMLID_123_">
					<path class="st8" d="M60.6,24.2c0-1.2-0.3-2.3-0.8-3.4c0.6-0.4,0.3-1.5-0.5-1.5c-1.1,0-1.1,1.7,0,1.7c0.6,1.6,0.7,3.5,0.2,5.2
						c-0.3-0.8-1.1-1.4-1.9-1.2c-0.8-2.5-3.6-3.6-6.2-3.6c-2.4-0.3-4.7-0.3-7,0c-2.5,0-5.4,1.1-6.3,3.6c-0.9-0.1-1.8,0.4-1.9,1.3
						c-0.5-1.7-0.4-3.6,0.2-5.3c1.1,0,1.1-1.7,0-1.7c-0.8,0-1.1,1-0.5,1.4c-0.5,1.4-0.8,2.8-0.7,4.3c0.1,1.3,0.5,2.5,1,3.7
						c0.3,1,1.1,1.5,2.2,1.4c1.4,3.9,6.2,3.7,9.6,3.8c3.5-0.1,8.2,0.1,9.6-3.8c1.4,0.2,2-0.6,2.5-1.9C60.2,26.9,60.6,25.5,60.6,24.2
						z M55.5,26.7c0,2-0.4,4.4-2.8,4.7c-3.3,0.5-6.7,0.5-10,0c-2.4-0.3-2.8-2.7-2.8-4.7C39.7,24,42.2,23,44.5,23
						c2.1-0.3,4.3-0.3,6.5,0C53.2,23,55.7,24,55.5,26.7z"/>
				</g>
			</g>
		</g>
		<path class="st8" d="M45.3,27.2c-0.1,0.7-0.6,0-1.4-0.2c-0.8-0.2-1.5,0.4-1.4-0.3C42.9,25.1,45.6,25.5,45.3,27.2z M52.9,26.8
			c0.1,0.8-0.6,0.2-1.4,0.3c-0.8,0.2-1.3,0.8-1.4,0.2C49.8,25.5,52.6,25.1,52.9,26.8z"/>
		<path class="st8" d="M45.3,27.2c-0.1,0.7-0.6,0-1.4-0.2c-0.8-0.2-1.5,0.4-1.4-0.3C42.9,25.1,45.6,25.5,45.3,27.2z M51.5,27
			c-0.8,0.2-1.3,0.8-1.4,0.2c-0.1-0.8,0.4-1.4,1.2-1.5c0.8-0.2,1.5,0.3,1.6,1.1C53,27.5,52.3,26.9,51.5,27L51.5,27z"/>
		<path id="XMLID_120_" class="st8" d="M45.3,27.2c-0.1,0.7-0.6,0-1.4-0.2c-0.8-0.2-1.5,0.4-1.4-0.3C42.9,25.1,45.6,25.5,45.3,27.2z
			 M51.5,27c-0.8,0.2-1.3,0.8-1.4,0.2c-0.1-0.8,0.4-1.4,1.2-1.5c0.8-0.2,1.5,0.3,1.6,1.1C53,27.5,52.3,26.9,51.5,27L51.5,27z"/>
		<path class="st8" d="M49.5,29.3c0,2.1-3.6,2.1-3.5,0c0-0.2,0.2-0.3,0.3-0.3h2.9C49.3,29.1,49.5,29.2,49.5,29.3z"/>
	</g>
	<g id="logo_00000120523946136921781510000010961678516425700001_">
		<g id="XMLID_00000167360326575284665470000011138856945251906725_" class="st15">
			<g id="XMLID_00000027584071793636330820000010227997739428617377_">
				<g id="XMLID_00000067209682520771281830000013011369802384902298_">
					<path class="st8" d="M76.3,34.3c0-0.4-0.1-0.8-0.3-1.3c0.3-0.2,0.1-0.6-0.2-0.6c-0.4,0-0.4,0.6,0,0.6c0.3,0.6,0.3,1.3,0.1,1.9
						c-0.1-0.3-0.4-0.5-0.8-0.4c-0.3-0.9-1.4-1.4-2.3-1.4c-0.8-0.1-1.7-0.1-2.6,0c-0.9,0-2,0.4-2.3,1.4c-0.3,0-0.7,0.2-0.8,0.5
						c-0.2-0.6-0.2-1.3,0.1-1.9c0.4,0,0.4-0.6,0-0.6c-0.3,0-0.4,0.3-0.2,0.5c-0.2,0.5-0.3,1-0.3,1.6c0,0.5,0.2,0.9,0.3,1.4
						c0.1,0.3,0.4,0.6,0.8,0.5c0.5,1.4,2.3,1.4,3.6,1.4c1.3,0,3.1,0,3.6-1.4c0.5,0.1,0.8-0.2,0.9-0.7C76.2,35.3,76.3,34.8,76.3,34.3
						z M74.5,35.3c0,0.8-0.2,1.6-1,1.7c-1.2,0.2-2.5,0.2-3.6,0c-0.8-0.1-1-1-1-1.7c-0.1-1,0.8-1.4,1.7-1.4c0.8-0.1,1.6-0.1,2.4,0
						C73.6,33.9,74.5,34.2,74.5,35.3z"/>
				</g>
			</g>
		</g>
		<path class="st8" d="M70.7,35.4c-0.1,0.3-0.3,0-0.5-0.1c-0.3-0.1-0.6,0.2-0.5-0.1C69.8,34.7,70.7,34.8,70.7,35.4z M73.5,35.3
			c0.1,0.3-0.3,0.1-0.5,0.1c-0.3,0-0.5,0.3-0.5,0.1C72.4,34.8,73.4,34.7,73.5,35.3z"/>
		<path class="st8" d="M70.7,35.4c-0.1,0.3-0.3,0-0.5-0.1c-0.3-0.1-0.6,0.2-0.5-0.1C69.8,34.7,70.7,34.8,70.7,35.4z M72.9,35.3
			c-0.3,0.1-0.5,0.3-0.5,0.1c-0.1-0.3,0.2-0.5,0.4-0.6c0.3-0.1,0.5,0.2,0.6,0.4S73.2,35.3,72.9,35.3L72.9,35.3z"/>
		<path id="XMLID_00000158723346642539619540000014954100610809977478_" class="st8" d="M70.7,35.4c-0.1,0.3-0.3,0-0.5-0.1
			c-0.3-0.1-0.6,0.2-0.5-0.1C69.8,34.7,70.7,34.8,70.7,35.4z M72.9,35.3c-0.3,0.1-0.5,0.3-0.5,0.1c-0.1-0.3,0.2-0.5,0.4-0.6
			c0.3-0.1,0.5,0.2,0.6,0.4S73.2,35.3,72.9,35.3L72.9,35.3z"/>
		<path class="st8" d="M72.2,36.2c0,0.8-1.3,0.8-1.3,0c0-0.1,0.1-0.1,0.1-0.1h1C72.2,36.1,72.2,36.2,72.2,36.2z"/>
	</g>
	<g id="logo_00000083053651319963789460000008598499802888583850_">
		<g id="XMLID_00000038398551818136019450000005762793519304318103_" class="st15">
			<g id="XMLID_00000056413570964739329710000002745982830649985695_">
				<g id="XMLID_00000176749613756917770230000005478752304675343510_">
					<path class="st8" d="M30.3,39.4c0-0.4-0.1-0.8-0.3-1.3c0.3-0.2,0.1-0.6-0.2-0.6c-0.4,0-0.4,0.6,0,0.6c0.3,0.6,0.3,1.3,0.1,1.9
						c-0.1-0.3-0.4-0.5-0.8-0.4c-0.3-0.9-1.4-1.4-2.3-1.4c-0.8-0.1-1.7-0.1-2.6,0c-0.9,0-2,0.4-2.3,1.4c-0.3,0-0.7,0.2-0.8,0.5
						c-0.2-0.6-0.2-1.3,0.1-1.9c0.4,0,0.4-0.6,0-0.6c-0.3,0-0.4,0.3-0.2,0.5c-0.2,0.5-0.3,1-0.3,1.6c0,0.5,0.2,0.9,0.3,1.4
						c0.1,0.3,0.4,0.6,0.8,0.5c0.5,1.4,2.3,1.4,3.6,1.4s3.1,0,3.6-1.4c0.5,0.1,0.8-0.2,0.9-0.7C30.1,40.4,30.3,39.9,30.3,39.4z
						 M28.4,40.3c0,0.8-0.2,1.6-1,1.7c-1.2,0.2-2.5,0.2-3.6,0c-0.8-0.1-1-1-1-1.7c-0.1-1,0.8-1.4,1.7-1.4c0.8-0.1,1.6-0.1,2.4,0
						C27.6,39,28.5,39.3,28.4,40.3z"/>
				</g>
			</g>
		</g>
		<path class="st8" d="M24.7,40.5c-0.1,0.3-0.3,0-0.5-0.1c-0.3-0.1-0.6,0.2-0.5-0.1C23.8,39.7,24.8,39.9,24.7,40.5z M27.4,40.3
			c0.1,0.3-0.3,0.1-0.5,0.1c-0.3,0.1-0.5,0.3-0.5,0.1C26.3,39.9,27.3,39.7,27.4,40.3z"/>
		<path class="st8" d="M24.7,40.5c-0.1,0.3-0.3,0-0.5-0.1c-0.3-0.1-0.6,0.2-0.5-0.1C23.8,39.7,24.8,39.9,24.7,40.5z M26.9,40.5
			c-0.3,0.1-0.5,0.3-0.5,0.1c-0.1-0.3,0.2-0.5,0.4-0.6c0.3-0.1,0.5,0.2,0.6,0.4C27.5,40.7,27.3,40.4,26.9,40.5L26.9,40.5z"/>
		<path id="XMLID_00000096043938227798590640000012556745383664207500_" class="st8" d="M24.7,40.5c-0.1,0.3-0.3,0-0.5-0.1
			c-0.3-0.1-0.6,0.2-0.5-0.1C23.8,39.7,24.8,39.9,24.7,40.5z M26.9,40.5c-0.3,0.1-0.5,0.3-0.5,0.1c-0.1-0.3,0.2-0.5,0.4-0.6
			c0.3-0.1,0.5,0.2,0.6,0.4C27.5,40.7,27.3,40.4,26.9,40.5L26.9,40.5z"/>
		<path class="st8" d="M26.2,41.4c0,0.8-1.3,0.8-1.3,0c0-0.1,0.1-0.1,0.1-0.1h1C26.2,41.2,26.2,41.3,26.2,41.4z"/>
	</g>
</g>
</svg>
