<?xml version="1.0" encoding="utf-8"?>
<!-- Generator: Adobe Illustrator 26.0.1, SVG Export Plug-In . SVG Version: 6.00 Build 0)  -->
<svg version="1.1" id="Layer_1" xmlns="http://www.w3.org/2000/svg" xmlns:xlink="http://www.w3.org/1999/xlink" x="0px" y="0px"
	 viewBox="0 0 103.2 58" style="enable-background:new 0 0 103.2 58;" xml:space="preserve">
<style type="text/css">
	.st0{opacity:0.1;}
	.st1{fill:#3B4751;}
	.st2{fill:#8EA2B1;}
	.st3{fill:#657F99;}
	.st4{fill:#647E99;}
	.st5{fill:#D4EDFF;}
	.st6{fill:url(#SVGID_1_);}
	.st7{fill:url(#SVGID_00000183249827436035652130000001564821803950640302_);}
	.st8{fill:url(#SVGID_00000001658210903355048000000012622225348939599241_);}
	.st9{fill:url(#SVGID_00000173144488186098559860000001628120088276170925_);}
	.st10{fill:url(#SVGID_00000075141657553303761540000006239827007038736802_);}
	.st11{fill:url(#SVGID_00000039117458600854009010000004869052729750966664_);}
	.st12{fill:#556A7C;}
	.st13{fill:url(#SVGID_00000071521583346640685710000013204497734090003347_);}
	.st14{fill:#FFFFFF;}
	.st15{opacity:0.1;fill:#FFFFFF;enable-background:new    ;}
	.st16{fill:#FF4C64;}
	.st17{fill:#E23056;}
	.st18{fill:#46497C;}
	.st19{fill:#2E3062;}
	.st20{opacity:0.4;fill:#FFFFFF;enable-background:new    ;}
	.st21{fill:#4E7EAF;}
</style>
<g>
	<g class="st0">
		<path class="st1" d="M83.5,54.8c-4.8-3.1-12.7-10.9-2.1-23.2c13.2-15.1-2.6-21.4-17.6-20.8C51.6,11.4,38-2.1,24.4,0.3
			C6.3,3.5,18,17.3,5.8,24.6c-10.4,6.3-6,25.4,7.6,30.2L83.5,54.8L83.5,54.8z"/>
		<ellipse class="st1" cx="46.6" cy="55.1" rx="43" ry="2.8"/>
	</g>
	<g>
		<path class="st2" d="M74.6,15.7v35.6c0,0.1,0,0.2,0,0.4l-0.1,0.4c-0.3,0.5-0.8,0.9-1.4,0.9H17.7c-0.6,0-1.2-0.4-1.4-0.9
			c0-0.1-0.1-0.2-0.1-0.4c0-0.1,0-0.2,0-0.4V15.7c0-0.5,0.2-1,0.6-1.3c0.3-0.2,0.6-0.4,1-0.4h55.4c0.4,0,0.7,0.1,1,0.4
			C74.4,14.8,74.6,15.2,74.6,15.7z"/>
		<path class="st3" d="M79.3,53.5c-1.2,0.6-2.6,1-3.9,1H15.3c-1.4,0-2.8-0.3-3.9-1H79.3z"/>
		<path class="st4" d="M72.9,16.9v32.9c0,0.4-0.4,0.8-0.8,0.8H18.4c-0.4,0-0.8-0.4-0.8-0.8V16.9c0-0.1,0-0.2,0.1-0.3
			c0.1-0.3,0.4-0.5,0.7-0.5h53.7C72.6,16.1,72.9,16.4,72.9,16.9z"/>
		<path class="st2" d="M11.3,52.1h68v1.5h-68C11.3,53.6,11.3,52.1,11.3,52.1z"/>
		<path class="st3" d="M61.9,52.9H28.7c-1.5,0-2.7-0.4-2.7-0.9h38.5C64.6,52.6,63.3,52.9,61.9,52.9z"/>
		<path class="st5" d="M45.7,15.3h-1.9c0,0-0.1,0-0.1-0.1s0-0.1,0.1-0.1h1.9C45.8,15.1,45.8,15.1,45.7,15.3
			C45.8,15.2,45.8,15.3,45.7,15.3z"/>
	</g>
	<g>
		<g>
			
				<linearGradient id="SVGID_1_" gradientUnits="userSpaceOnUse" x1="162.2469" y1="574.3486" x2="194.801" y2="606.9024" gradientTransform="matrix(0.9859 0.1671 0.1671 -0.9859 -212.3561 586.7516)">
				<stop  offset="0" style="stop-color:#FFFFFF"/>
				<stop  offset="0.194" style="stop-color:#FFFFFF"/>
				<stop  offset="0.2457" style="stop-color:#FFFDF9"/>
				<stop  offset="0.3202" style="stop-color:#F7C1D4"/>
				<stop  offset="0.394" style="stop-color:#F4A6BE"/>
				<stop  offset="0.4804" style="stop-color:#F294AD"/>
				<stop  offset="0.5718" style="stop-color:#F47F98"/>
				<stop  offset="0.6258" style="stop-color:#F96982"/>
				<stop  offset="1" style="stop-color:#F93A5A"/>
			</linearGradient>
			<path class="st6" d="M82,22.1c-1.2,0.9-2.5,1.8-3.7,2.6c-1.3,0.9-2.5,1.7-3.8,2.6c-6.1,4.1-12,8.4-18.9,11.4
				c-3.3,1.5-12.5,5-14.4,0.9l-0.7,3.3c5,3.2,15,0,19.8-2.2c5.8-2.7,11.6-5.5,17.2-8.6c1.4-0.7,2.7-1.5,4.1-2.3s2.7-1.5,4.1-2.4
				L82,22.1z"/>
			
				<linearGradient id="SVGID_00000018937312303384261970000001356467660413356195_" gradientUnits="userSpaceOnUse" x1="155.4277" y1="581.7925" x2="168.3184" y2="594.6832" gradientTransform="matrix(0.9859 0.1671 0.1671 -0.9859 -212.3561 586.7516)">
				<stop  offset="0.2401" style="stop-color:#FFFFFF"/>
				<stop  offset="0.9008" style="stop-color:#FFFFFF;stop-opacity:0"/>
			</linearGradient>
			<path style="fill:url(#SVGID_00000018937312303384261970000001356467660413356195_);" d="M48.2,26.5c-1.2,0.9-2.4,1.9-3.6,3
				c-1.1,1.1-2.2,2.2-3.2,3.5c-0.5,0.6-0.9,1.3-1.3,2c-0.4,0.7-0.7,1.5-0.9,2.4s-0.2,1.8,0.1,2.8c0.2,0.5,0.4,0.9,0.7,1.3
				c0.3,0.4,0.7,0.7,1.1,1v-3c-0.2-0.5-0.3-1.1-0.2-1.8s0.3-1.3,0.6-2s0.6-1.3,1-1.9c0.8-1.3,1.7-2.4,2.8-3.6c1-1.1,2.1-2.2,3.3-3.2
				c2.3-2-0.5-0.1,2.1-1.7C48,26.7,50.7,24.6,48.2,26.5z"/>
		</g>
		<g>
			<g>
				<g>
					
						<linearGradient id="SVGID_00000062902255254252098380000015327441596986209721_" gradientUnits="userSpaceOnUse" x1="1329.2048" y1="-3129.6113" x2="1335.2448" y2="-3129.6113" gradientTransform="matrix(0.52 0.8541 0.8541 -0.52 2071.8813 -2735.4548)">
						<stop  offset="0" style="stop-color:#FFFFFF"/>
						<stop  offset="1" style="stop-color:#647E99"/>
					</linearGradient>
					<path style="fill:url(#SVGID_00000062902255254252098380000015327441596986209721_);" d="M96.8,24.1l-2.5,6
						c-0.3,0.7-0.9,1.2-1.6,1.5l-7,2.2c-0.2,0.1-0.4-0.1-0.4-0.4l1-5L96.8,24.1z"/>
					
						<linearGradient id="SVGID_00000000217214975741012690000002886684014366519175_" gradientUnits="userSpaceOnUse" x1="7905.6572" y1="-3129.6282" x2="7911.6572" y2="-3130.3186" gradientTransform="matrix(-0.52 -0.8541 0.8541 -0.52 6867.9307 5141.9194)">
						<stop  offset="0" style="stop-color:#FFFFFF"/>
						<stop  offset="1" style="stop-color:#647E99"/>
					</linearGradient>
					<path style="fill:url(#SVGID_00000000217214975741012690000002886684014366519175_);" d="M90.3,13.5L84,13
						c-0.8-0.1-1.5,0.2-2,0.8L76.7,19c-0.2,0.2-0.1,0.5,0.1,0.5l4.9,1.4L90.3,13.5z"/>
				</g>
				<path class="st4" d="M83.6,27l-1.9-3.1c-0.4-0.7-0.2-1.7,0.5-2.1l0.2-0.1l3.5,5.8h-0.2C85,27.9,84.1,27.7,83.6,27z"/>
				
					<linearGradient id="SVGID_00000102541037645945615310000002984281401786105526_" gradientUnits="userSpaceOnUse" x1="1315.5189" y1="-3122.2988" x2="1334.8601" y2="-3122.2988" gradientTransform="matrix(0.52 0.8541 0.8541 -0.52 2071.8813 -2735.4548)">
					<stop  offset="0" style="stop-color:#FFFFFF"/>
					<stop  offset="1" style="stop-color:#8EA2B1"/>
				</linearGradient>
				<path style="fill:url(#SVGID_00000102541037645945615310000002984281401786105526_);" d="M103.2,13c-7.2-3.1-18.4-0.3-21.4,7.6
					c-0.1,0.2-0.1,0.5,0.1,0.7l4.1,6.9c0.1,0.2,0.4,0.4,0.6,0.4C95.1,29.5,102.7,20.8,103.2,13z"/>
				<g>
					<g>
						
							<linearGradient id="SVGID_00000049199105309779817370000005010421658453426334_" gradientUnits="userSpaceOnUse" x1="1323.754" y1="-3125.1221" x2="1323.754" y2="-3138.5627" gradientTransform="matrix(0.52 0.8541 0.8541 -0.52 2071.8813 -2735.4548)">
							<stop  offset="0" style="stop-color:#FFFFFF"/>
							<stop  offset="1" style="stop-color:#647E99"/>
						</linearGradient>
						<path style="fill:url(#SVGID_00000049199105309779817370000005010421658453426334_);" d="M81.4,27.3l-1.1-1.7l6.2-3.9
							c0.7-0.5,1.5-0.9,2.3-1.2l3.3-1.3l0.3,0.5l-2.6,2.4c-0.6,0.6-1.4,1.1-2.1,1.5L81.4,27.3z"/>
					</g>
				</g>
				<path class="st4" d="M97.7,24.1c2-2,3.6-4.6,4.6-7.1c-0.3,0.1-0.6,0.3-0.9,0.5c-0.8,0.8-1.6,1.7-2.3,2.5
					c-0.4,0.5-1.2,0.4-1.7-0.2c-1.2-1.6-2.2-3.2-3-5.1c-0.3-0.6,0-1.4,0.6-1.5c1.1-0.3,2.2-0.6,3.3-0.9c0.3-0.1,0.6-0.3,0.9-0.5
					c-2.7-0.4-5.7-0.1-8.4,0.8C92.4,16.8,94.7,20.8,97.7,24.1z"/>
				<path class="st12" d="M92.2,12.9C92.2,12.9,92.2,13,92.2,12.9c0.3,0.4,0.7,0.6,1,0.5l3.6-0.9c0.3-0.1,0.6-0.4,0.6-0.7
					c-0.1,0-0.1,0-0.2,0c0,0.3-0.2,0.5-0.5,0.6l-3.6,0.8C92.8,13.3,92.4,13.1,92.2,12.9l-0.1-0.6c-0.1,0-0.1,0-0.2,0L92.2,12.9z"/>
				<path class="st12" d="M98.2,22.8L98.2,22.8c-0.3-0.4-0.3-0.8,0-1.1l2.5-2.8c0.2-0.3,0.6-0.3,0.9-0.2c0,0.1-0.1,0.1-0.1,0.2
					c-0.2-0.1-0.5,0-0.7,0.2l-2.5,2.8c-0.2,0.2-0.2,0.6,0,0.9l0.4,0.4l-0.1,0.1L98.2,22.8z"/>
				
					<linearGradient id="SVGID_00000083788848328374907580000011500545032289851549_" gradientUnits="userSpaceOnUse" x1="3702.0974" y1="-4335.0532" x2="3707.8335" y2="-4335.9385" gradientTransform="matrix(-8.527540e-02 0.9964 0.9964 8.527540e-02 4734.0444 -3305.9526)">
					<stop  offset="0" style="stop-color:#FFFFFF"/>
					<stop  offset="1" style="stop-color:#647E99"/>
				</linearGradient>
				<path style="fill:url(#SVGID_00000083788848328374907580000011500545032289851549_);" d="M98,18.6c-1.6-0.1-2.7-1.5-2.6-3.1
					s1.5-2.7,3.1-2.6s2.7,1.5,2.6,3.1C101.1,17.6,99.7,18.7,98,18.6z"/>
				<path class="st4" d="M99.9,17.5c-1,0.8-2.4,0.7-3.3-0.3c-0.8-1-0.7-2.4,0.3-3.3c1-0.8,2.4-0.7,3.3,0.3
					C101,15.2,100.9,16.7,99.9,17.5z"/>
				<g>
					<path class="st14" d="M100,14.7L100,14.7l-0.2-0.2c-0.1,0-0.1,0-0.1,0c-0.1,0.1-0.1,0.2-0.1,0.3l0,0c0,0,0,0.1,0.1,0.1l0.1,0.1
						c0.1,0,0.1,0,0.1,0C100.1,15,100.1,14.8,100,14.7z M99.7,14.8L99.7,14.8L99.7,14.8L99.7,14.8z"/>
					<path class="st14" d="M99.6,14.3C99.6,14.2,99.6,14.2,99.6,14.3c-0.5-0.4-1.1-0.5-1.6-0.4c-0.1,0-0.2,0.1-0.2,0.2
						c0,0,0,0,0,0.1s0.1,0.1,0.2,0.1c0.4-0.1,0.8,0,1.2,0.3h0.1c0.1,0,0.1,0,0.1-0.1C99.6,14.4,99.6,14.4,99.6,14.3z"/>
				</g>
				<path class="st12" d="M99.9,17.5c0.4-0.3,0.7-0.8,0.8-1.3c-0.1,0-0.1,0.1-0.2,0.1c-0.2,0.2-0.4,0.4-0.7,0.5
					c-0.3,0.1-0.5,0-0.8-0.2s-0.4-0.7-0.7-0.9c-0.4-0.3-0.9-0.1-1.3-0.4c-0.2-0.1-0.3-0.3-0.4-0.5c-0.1-0.1-0.1-0.3-0.1-0.5
					c-0.6,0.8-0.6,2,0.1,2.8C97.3,18.2,98.8,18.3,99.9,17.5z"/>
			</g>
		</g>
	</g>
	<circle class="st14" cx="44.8" cy="33.9" r="10.4"/>
	<path class="st15" d="M36.9,16.1L19.1,50.6h11L48,16.1H36.9z M18.4,16.1c-0.3,0-0.6,0.2-0.7,0.5v29.6l15.6-30.1H18.4z"/>
	<g>
		<path class="st16" d="M14.4,43.1l1,1.2c0.1,0.1,0.4,0.2,0.5,0l2.9-2.6l1.2-1.1l-1.5-1.7l-0.7,0.6l-3.4,3
			C14.2,42.7,14.2,43,14.4,43.1z"/>
		<path class="st17" d="M17.8,39.6c0.1,0.6,0.4,1.4,1,2.1l1.2-1.1l-1.5-1.7L17.8,39.6z"/>
		<path class="st18" d="M9.6,48.4L9.6,48.4c0.3,0.3,0.7,0.3,1,0.1l4.8-4.1l-0.9-1l-4.9,4C9.3,47.6,9.3,48.1,9.6,48.4z"/>
		<g>
			<path class="st19" d="M19.4,31.2c-2.6,2.3-2.9,6.4-0.6,9s6.4,2.9,9,0.6s2.9-6.4,0.6-9S22,28.9,19.4,31.2z M20,31.9
				c2.2-1.9,5.7-1.7,7.6,0.5s1.7,5.7-0.5,7.6c-2.2,1.9-5.7,1.7-7.6-0.5C17.6,37.4,17.8,33.9,20,31.9z"/>
			<path class="st20" d="M18.8,33.6c-1.3,2.6-0.2,6,2.4,7.3c0.2,0.1,0.5,0.2,0.7,0.3c0.6,0.2,1.2,0.3,1.8,0.3c0.6,0,1.3-0.2,1.9-0.4
				c0.9-0.4,1.7-1,2.3-1.9c0.2-0.2,0.3-0.5,0.4-0.7c1.3-2.6,0.2-6-2.4-7.3c-0.3-0.1-0.5-0.2-0.8-0.3c-1-0.3-2-0.3-3-0.1
				c-0.6,0.2-1.2,0.4-1.7,0.8s-0.9,0.8-1.3,1.3C19,33.2,18.9,33.4,18.8,33.6z"/>
		</g>
	</g>
	<g id="logo">
		<g id="XMLID_121_">
			<g id="XMLID_122_">
				<g id="XMLID_123_">
					<path class="st4" d="M52.7,32.4c0-0.7-0.2-1.3-0.4-2c0.3-0.2,0.1-0.9-0.3-0.9c-0.6,0-0.6,1,0,1c0.3,0.9,0.4,2,0.1,3
						C52,33,51.5,32.7,51,32.8c-0.5-1.5-2.1-2.1-3.6-2.1c-1.4-0.1-2.8-0.1-4.1,0c-1.5,0-3.2,0.6-3.7,2.1c-0.5,0-1,0.2-1.1,0.7
						c-0.3-1-0.2-2.1,0.1-3.1c0.6,0,0.6-1,0-1c-0.4,0-0.6,0.6-0.3,0.8c-0.3,0.8-0.5,1.6-0.4,2.5c0,0.7,0.3,1.5,0.6,2.2
						c0.2,0.6,0.6,0.9,1.3,0.8c0.8,2.3,3.6,2.2,5.6,2.2s4.8,0,5.6-2.2c0.8,0.1,1.2-0.3,1.4-1.1C52.5,34,52.7,33.2,52.7,32.4z
						 M49.7,33.9c0,1.2-0.2,2.6-1.6,2.8c-1.9,0.3-3.9,0.3-5.9,0c-1.4-0.2-1.6-1.6-1.6-2.8c-0.1-1.6,1.3-2.1,2.7-2.1
						c1.2-0.1,2.5-0.1,3.8,0C48.4,31.7,49.9,32.3,49.7,33.9z"/>
				</g>
			</g>
		</g>
		<path class="st4" d="M43.8,34.2c0,0.4-0.3,0-0.8-0.1c-0.4-0.1-0.9,0.2-0.8-0.2C42.3,32.9,43.9,33.2,43.8,34.2z M48.2,33.9
			c0,0.4-0.3,0.1-0.8,0.2c-0.4,0.1-0.7,0.5-0.8,0.1C46.4,33.2,48.1,32.9,48.2,33.9z"/>
		<path class="st4" d="M43.8,34.2c0,0.4-0.3,0-0.8-0.1c-0.4-0.1-0.9,0.2-0.8-0.2C42.3,32.9,43.9,33.2,43.8,34.2z M47.4,34.1
			c-0.4,0.1-0.7,0.5-0.8,0.1c0-0.4,0.2-0.8,0.7-0.9c0.4-0.1,0.9,0.2,0.9,0.6C48.3,34.3,47.9,34,47.4,34.1L47.4,34.1z"/>
		<path id="XMLID_120_" class="st4" d="M43.8,34.2c0,0.4-0.3,0-0.8-0.1c-0.4-0.1-0.9,0.2-0.8-0.2C42.3,32.9,43.9,33.2,43.8,34.2z
			 M47.4,34.1c-0.4,0.1-0.7,0.5-0.8,0.1c0-0.4,0.2-0.8,0.7-0.9c0.4-0.1,0.9,0.2,0.9,0.6C48.3,34.3,47.9,34,47.4,34.1L47.4,34.1z"/>
		<path class="st4" d="M46.2,35.4c0,1.2-2.1,1.2-2,0c0-0.1,0.1-0.2,0.2-0.2h1.7C46.1,35.3,46.2,35.3,46.2,35.4z"/>
	</g>
	<g>
		<path class="st14" d="M63.3,10.7L63.3,10.7c0,1-0.8,1.8-1.8,1.8H30.4c-1,0-1.8-0.8-1.8-1.8l0,0c0-1,0.8-1.8,1.8-1.8h31.2
			C62.5,8.9,63.3,9.7,63.3,10.7z"/>
		<path class="st16" d="M61.5,8.9h-4.9v3.6h5c1,0,1.8-0.9,1.8-1.9l0,0C63.3,9.7,62.5,8.9,61.5,8.9z"/>
		<g>
			<g>
				<path class="st14" d="M60.3,11c-0.3-0.3-0.4-0.8,0-1.2c0.3-0.3,0.8-0.4,1.2,0c0.3,0.3,0.4,0.8,0,1.2
					C61.2,11.3,60.6,11.5,60.3,11z M61.3,10c-0.2-0.2-0.6-0.2-0.8,0s-0.2,0.6,0,0.8s0.6,0.2,0.8,0S61.5,10.2,61.3,10z"/>
			</g>
			<g>
				<path class="st14" d="M59.4,12.1c-0.1-0.1-0.1-0.1,0-0.2l0.9-1c0.1-0.1,0.1-0.1,0.2,0c0.1,0.1,0.1,0.1,0,0.2l-0.9,1
					C59.5,12.2,59.4,12.2,59.4,12.1z"/>
			</g>
		</g>
	</g>
	<g>
		<g>
			<path class="st21" d="M23.8,7.5C24.5,7.5,25,8,25,8.7s-0.5,1.2-1.2,1.2s-1.2-0.5-1.2-1.2C22.6,8,23.2,7.5,23.8,7.5z M23.8,9.5
				c0.5,0,0.8-0.4,0.8-0.8c0-0.5-0.4-0.8-0.8-0.8c-0.5,0-0.8,0.4-0.8,0.8S23.4,9.5,23.8,9.5z"/>
		</g>
	</g>
	<g>
		<g>
			<g>
				<g>
					<path class="st14" d="M27.3,18c0.1,0,0.2,0.1,0.2,0.2V19c0,0.1-0.1,0.2-0.2,0.2s-0.2-0.1-0.2-0.2v-0.8
						C27.1,18.1,27.2,18,27.3,18z"/>
				</g>
			</g>
			<g>
				<g>
					<path class="st14" d="M27.3,16.5c0.1,0,0.2,0.1,0.2,0.2v0.8c0,0.1-0.1,0.2-0.2,0.2s-0.2-0.1-0.2-0.2v-0.8
						C27.1,16.6,27.2,16.5,27.3,16.5z"/>
				</g>
			</g>
		</g>
		<g>
			<g>
				<g>
					<path class="st14" d="M26.1,17.7h0.7c0.1,0,0.2,0.1,0.2,0.2s-0.1,0.2-0.2,0.2h-0.7c-0.1,0-0.2-0.1-0.2-0.2
						C25.9,17.8,26,17.7,26.1,17.7z"/>
				</g>
			</g>
			<g>
				<g>
					<path class="st14" d="M27.7,17.7h0.7c0.1,0,0.2,0.1,0.2,0.2s-0.1,0.2-0.2,0.2h-0.7c-0.1,0-0.2-0.1-0.2-0.2
						C27.5,17.8,27.6,17.7,27.7,17.7z"/>
				</g>
			</g>
		</g>
	</g>
	<g>
		<g>
			<g>
				<g>
					<path class="st21" d="M14.3,29.5c0.1,0,0.2,0.1,0.2,0.2v0.8c0,0.1-0.1,0.2-0.2,0.2s-0.2-0.1-0.2-0.2v-0.8
						C14.1,29.6,14.2,29.5,14.3,29.5z"/>
				</g>
				<g>
					<path class="st21" d="M14.3,28c0.1,0,0.2,0.1,0.2,0.2V29c0,0.1-0.1,0.2-0.2,0.2s-0.2-0.1-0.2-0.2v-0.8
						C14.1,28.1,14.2,28,14.3,28z"/>
				</g>
			</g>
			<g>
				<g>
					<path class="st21" d="M13,29.2h0.7c0.1,0,0.2,0.1,0.2,0.2s-0.1,0.2-0.2,0.2H13c-0.1,0-0.2-0.1-0.2-0.2S12.9,29.2,13,29.2z"/>
				</g>
				<g>
					<path class="st21" d="M14.7,29.2h0.7c0.1,0,0.2,0.1,0.2,0.2s-0.1,0.2-0.2,0.2h-0.7c-0.1,0-0.2-0.1-0.2-0.2S14.6,29.2,14.7,29.2
						z"/>
				</g>
			</g>
		</g>
	</g>
	<g>
		<g>
			<g>
				<g>
					<path class="st2" d="M72.9,10.1L72.9,10.1c-1,0.4-2.2-0.1-2.6-1.1l0,0c-0.4-1,0.1-2.2,1.1-2.6l0,0c1-0.4,2.2,0.1,2.6,1.1l0,0
						C74.6,8.4,74.1,9.6,72.9,10.1z"/>
				</g>
			</g>
		</g>
		<path class="st14" d="M71.7,8.4l-0.3-0.5c0-0.1,0-0.1,0.1-0.1l0.6,0.1h0.7c0.1,0,0.1,0.1,0.1,0.2l-0.4,0.5l-0.4,0.5
			c0,0.1-0.1,0-0.2,0L71.7,8.4z"/>
	</g>
</g>
</svg>
