<?xml version="1.0" encoding="utf-8"?>
<!-- Generator: Adobe Illustrator 25.4.1, SVG Export Plug-In . SVG Version: 6.00 Build 0)  -->
<svg version="1.1" id="Layer_1" xmlns="http://www.w3.org/2000/svg" xmlns:xlink="http://www.w3.org/1999/xlink" x="0px" y="0px"
	 viewBox="0 0 101.7 84" style="enable-background:new 0 0 101.7 84;" xml:space="preserve">
<style type="text/css">
	.st0{display:none;opacity:0.54;fill:#FFFFFF;enable-background:new    ;}
	.st1{opacity:0.3;}
	.st2{fill:#3B4751;}
	.st3{fill:#8EA3B2;}
	.st4{opacity:0.4;fill:url(#XMLID_00000013193768750950043700000008086631942485251498_);enable-background:new    ;}
	.st5{fill:#657F99;}
	.st6{opacity:0.1;fill:#FFFFFF;enable-background:new    ;}
	.st7{opacity:0.1;enable-background:new    ;}
	.st8{fill:#1A9EFE;}
	.st9{fill:#FFFFFF;}
	.st10{fill:#FF4C64;}
	.st11{fill-rule:evenodd;clip-rule:evenodd;fill:#FFFFFF;}
	.st12{opacity:0.7;fill:#657F99;enable-background:new    ;}
</style>
<rect x="-12.6" y="-13.7" class="st0" width="125.1" height="127.9"/>
<g>
	<g id="Background_00000025406083571067389090000013041952360494129034_" class="st1">
		<path id="Background_00000150076405296772207270000001999041716525830310_" class="st2" d="M83,19.7c11.4,5.8,14.6,16.9,3.7,31.9
			c-7,9.7-2.3,28.1-17.5,28.9c-24.7,1.2-21.7-16.4-40.5-22.7S14.4,17,35.1,16.1c7.6-0.3,8.6,2.1,15.1,2.5C66.7,19.8,71,13.6,83,19.7
			z"/>
		<path id="Background_00000110458075611112034150000012625946288644116374_" class="st2" d="M77.2,64.3c0,0,4.9,1.8,7.4,4.8
			s8.4,8.2-10.8,12.1c-17.7,3.6-52.3,5.2-44.9-2.5C36.2,71.1,0,77,0,68.9C-0.1,57,77.2,64.3,77.2,64.3z"/>
		<path id="Background_00000053508706853934214500000009787557235066909827_" class="st2" d="M48.4,82c0,0-4.5-0.9-7-3.2
			s-8.3-6,7.8-11.9c14.9-5.4,44.7-11.2,39.3-3.6s12.2,0.3,13.2,7.3C103.2,81,48.4,82,48.4,82z"/>
	</g>
	<polygon id="XMLID_00000113322645331459364530000001549003871463393454_" class="st3" points="56,75.8 40,75.8 41.3,62.9 
		54.7,62.9 	"/>
	
		<linearGradient id="XMLID_00000007394931204185059620000003443165900104086704_" gradientUnits="userSpaceOnUse" x1="48" y1="116.9031" x2="48" y2="120.4443" gradientTransform="matrix(1 0 0 -1 0 188.2696)">
		<stop  offset="0" style="stop-color:#656666;stop-opacity:0"/>
		<stop  offset="1" style="stop-color:#656666"/>
	</linearGradient>
	
		<polygon id="XMLID_00000116208496726785641200000002322277226356769445_" style="opacity:0.4;fill:url(#XMLID_00000007394931204185059620000003443165900104086704_);enable-background:new    ;" points="
		40.4,71.4 55.6,71.4 55.3,67.8 40.8,67.8 	"/>
	<path id="XMLID_00000157291803791381100910000000847580695128401287_" class="st3" d="M62.3,76.4C62.3,76.4,62.4,76.4,62.3,76.4
		c0-1.2-0.9-2.1-2.1-2.1h-24c-1.1,0-2.1,0.9-2.1,2.1c0,0,0,0,0,0.1L62.3,76.4L62.3,76.4z"/>
	<path class="st3" d="M81.2,24.8V66c0,0.1,0,0.3,0,0.4l-0.1,0.4l0,0c-0.3,0.5-0.8,0.9-1.4,1c-0.1,0-0.2,0-0.3,0h-64
		c-0.7,0-1.4-0.4-1.7-1c0-0.1-0.1-0.3-0.1-0.4c-0.1-0.1-0.1-0.3-0.1-0.4V24.8c0-0.6,0.3-1.1,0.7-1.5c0.3-0.2,0.7-0.4,1.2-0.4h64
		c0.4,0,0.8,0.1,1.1,0.4C81,23.6,81.2,24.2,81.2,24.8z"/>
	<path class="st5" d="M78.4,25.2H16.2c-0.5,0-0.9,0.4-0.9,0.9v38.1c0,0.5,0.4,0.9,0.9,0.9h62.2c0.5,0,0.9-0.4,0.9-0.9V26.1
		C79.3,25.6,78.9,25.2,78.4,25.2z"/>
	<path class="st3" d="M81,66.8L81,66.8c-0.3,0.6-0.8,1-1.4,1.1H29.4c-2.3,0-4.3-0.5-4.3-1.1H81z"/>
	<path class="st5" d="M47.9,24.2h-2.2c0,0-0.1,0-0.1-0.1c0,0,0-0.1,0.1-0.1h2.2C47.9,24,48,24.1,47.9,24.2
		C48,24.2,47.9,24.2,47.9,24.2z"/>
	<path class="st6" d="M13.5,25.2V60l18-34.8H13.5z M35.8,25.2L15.1,65.1h12.8l20.7-39.9C48.6,25.2,35.8,25.2,35.8,25.2z"/>
	<g id="time_line_00000059307005853622806160000000945436213528984510_">
		<g>
			<path class="st3" d="M73.4,59.9h-48c-0.2,0-0.3-0.1-0.3-0.3l0,0c0-0.2,0.1-0.3,0.3-0.3h48c0.2,0,0.3,0.1,0.3,0.3l0,0
				C73.7,59.8,73.5,59.9,73.4,59.9z"/>
			<circle class="st3" cx="73.8" cy="59.7" r="0.6"/>
			<path class="st3" d="M67.4,61.2v2.1h2.8v-2.1H67.4z M69.8,63h-2.1v-1.4h2.1V63z"/>
			<path class="st3" d="M71.6,61.2v0.7h0.3v-0.4h0.4v-0.3H71.6z M73.6,61.2v0.3H74v0.4h0.3v-0.7H73.6z M71.9,63v-0.4h-0.3v0.7h0.7
				V63H71.9z M74,62.6V63h-0.4v0.3h0.7v-0.7C74.3,62.6,74,62.6,74,62.6z"/>
			<path class="st3" d="M66.3,62.5v-0.3H66c0-0.1,0-0.2-0.1-0.2l0.2-0.2l-0.2-0.2l-0.2,0.2c-0.1-0.1-0.2-0.1-0.3-0.1v-0.3h-0.3v0.3
				c-0.1,0-0.1,0-0.2,0.1l-0.2-0.2h-0.2l0.2,0.2c-0.1,0.1-0.1,0.2-0.1,0.3h-0.3v0.3h0.3c0,0.1,0.1,0.2,0.1,0.2l-0.2,0.2l0.2,0.2
				l0.2-0.2c0.1,0,0.2,0.1,0.3,0.1v0.3h0.3v-0.3c0.1,0,0.1-0.1,0.2-0.1l0.2,0.2l0.2-0.2l-0.2-0.2c0-0.1,0.1-0.1,0.1-0.2L66.3,62.5z
				 M65.5,62.5c-0.1,0.1-0.3,0.1-0.4,0s-0.1-0.3,0-0.4s0.3-0.1,0.4,0C65.6,62.2,65.6,62.4,65.5,62.5z"/>
			<g>
				<path class="st3" d="M34.7,61.5L34.1,62h-0.6v0.7h0.6l0.6,0.5C34.7,63.2,34.7,61.5,34.7,61.5z"/>
				<path class="st3" d="M34.7,63.3C34.7,63.3,34.6,63.3,34.7,63.3l-0.6-0.5h-0.6c0,0-0.1,0-0.1-0.1V62c0,0,0-0.1,0.1-0.1H34
					l0.6-0.5h0.1c0,0,0.1,0,0.1,0.1L34.7,63.3C34.8,63.2,34.8,63.3,34.7,63.3L34.7,63.3z M33.6,62.6h0.5c0,0,0,0,0.1,0l0.5,0.4v-1.3
					l-0.5,0.4c0,0,0,0-0.1,0h-0.5V62.6z"/>
			</g>
			<g>
				<path class="st3" d="M35.5,63.3C35.4,63.3,35.4,63.3,35.5,63.3C35.4,63.3,35.4,63.2,35.5,63.3c0.3-0.6,0.3-1.2-0.1-1.7v-0.1h0.1
					c0.2,0.3,0.3,0.6,0.3,0.9C35.9,62.7,35.7,63,35.5,63.3L35.5,63.3z M35.2,63L35.2,63C35.1,63,35.1,62.9,35.2,63
					c0.2-0.4,0.2-0.9-0.1-1.2v-0.1h0.1c0.1,0.2,0.2,0.4,0.2,0.7C35.5,62.6,35.5,62.8,35.2,63C35.3,63,35.3,63,35.2,63z M35,62.8
					L35,62.8C34.9,62.8,34.9,62.7,35,62.8c0-0.3,0-0.6-0.1-0.8v-0.1H35C35.2,62.2,35.2,62.5,35,62.8L35,62.8z"/>
			</g>
			<polygon class="st3" points="30.7,62.9 30.7,61.4 31.7,61.9 31.7,61.4 32,61.4 32,62.9 31.7,62.9 31.7,62.4 			"/>
			<polygon class="st3" points="26.1,62.9 26.1,61.4 25.1,61.9 25.1,61.4 24.8,61.4 24.8,62.9 25.1,62.9 25.1,62.4 			"/>
		</g>
	</g>
	<g id="phone_00000103982967755076828980000004038462452726988211_">
		<path class="st7" d="M29.3,71.9H7.2c-1.7,0-3.1-1.4-3.1-3.1v-0.1c0-1.7,1.4-3.1,3.1-3.1h22.1c1.7,0,3.1,1.4,3.1,3.1v0.1
			C32.4,70.5,31,71.9,29.3,71.9z"/>
		<path class="st8" d="M5.9,57.4h0.8v12.5H5.9c-0.6,0-1.1-0.5-1.1-1.1v-1.7c0-0.2,0.1-0.3,0.3-0.3h0.4c0.2,0,0.3-0.1,0.3-0.3v-5.8
			c0-0.2-0.1-0.3-0.3-0.3H5.1c-0.2,0-0.3-0.1-0.3-0.3v-1.7C4.8,57.9,5.3,57.4,5.9,57.4L5.9,57.4z"/>
		<path class="st3" d="M10.8,56.4L10.8,56.4H5.3c-1,0-1.8,0.8-1.8,1.8v10.7c0,1,0.8,1.8,1.8,1.8h2.1c0,0,0,0.1,0.1,0.1h0.9
			c0,0,0.1,0,0.1-0.1h1c0,0,0,0.1,0.1,0.1h2.3c0,0,0.1,0,0.1-0.1h0.5c0,0,0,0.1,0.1,0.1h2.3c0,0,0.1,0,0.1-0.1h15.4
			c1,0,1.8-0.8,1.8-1.8V58.2c0-1-0.8-1.8-1.8-1.8h-16l0,0c0,0,0-0.1-0.1-0.1h-3.2C10.9,56.3,10.8,56.3,10.8,56.4L10.8,56.4z"/>
		<path class="st5" d="M5.9,57.9H30c0.6,0,1.1,0.5,1.1,1v9.5c0,0.5-0.5,1-1.1,1H5.9c-0.6,0-1.1-0.5-1.1-1v-1.5
			c0-0.2,0.1-0.2,0.3-0.2h0.4c0.2,0,0.3-0.1,0.3-0.2v-5.4c0-0.2-0.1-0.2-0.3-0.2H5c-0.2,0-0.3-0.1-0.3-0.2v-1.5
			C4.8,58.3,5.3,57.9,5.9,57.9L5.9,57.9z"/>
		<path class="st5" d="M5.3,62.5v2.1c0,0,0,0.1-0.1,0.1c0,0-0.1,0-0.1-0.1v-2.1C5.1,62.5,5.2,62.4,5.3,62.5
			C5.3,62.4,5.3,62.5,5.3,62.5z"/>
	</g>
	<g>
		<path class="st9" d="M47.8,34.7c-5.7,0-10.4,4.7-10.4,10.4s4.7,10.4,10.4,10.4s10.4-4.7,10.4-10.4S53.6,34.7,47.8,34.7z"/>
		<path class="st5" d="M53.2,44.9l-7.6-5.2c-0.1-0.1-0.2-0.1-0.4,0C45.1,39.8,45,39.9,45,40v10.4c0,0.1,0.1,0.2,0.2,0.3
			c0.1,0,0.1,0,0.2,0s0.1,0,0.2-0.1l7.6-5.2c0.1-0.1,0.2-0.2,0.2-0.3C53.4,45,53.3,44.9,53.2,44.9z"/>
	</g>
	<g>
		<path class="st9" d="M17.6,59.8c-2.1,0-3.8,1.7-3.8,3.8s1.7,3.8,3.8,3.8s3.8-1.7,3.8-3.8S19.7,59.8,17.6,59.8z"/>
		<path class="st5" d="M19.6,63.5l-2.8-1.9h-0.1l-0.1,0.1v3.8c0,0,0,0.1,0.1,0.1c0,0,0,0,0.1,0c0,0,0,0,0.1,0l2.8-1.9l0.1-0.1
			C19.6,63.6,19.6,63.5,19.6,63.5z"/>
	</g>
	<path class="st6" d="M5.8,57.8h6.9l18.4,8.8v1.7c0,0.5-0.5,1-1.1,1H15.4l-9.7-4.6V61c0-0.2-0.1-0.2-0.3-0.2H5
		c-0.2,0-0.3-0.1-0.3-0.2v-1.7C4.7,58.3,5.2,57.8,5.8,57.8z"/>
	<g>
		<g>
			<g>
				<g>
					<path class="st9" d="M19.9,28c0.1,0,0.2,0.1,0.2,0.2v1c0,0.1-0.1,0.2-0.2,0.2s-0.2-0.1-0.2-0.2v-1C19.7,28.1,19.8,28,19.9,28z"
						/>
				</g>
			</g>
			<g>
				<g>
					<path class="st9" d="M19.9,26.1c0.1,0,0.2,0.1,0.2,0.2v1c0,0.1-0.1,0.2-0.2,0.2s-0.2-0.1-0.2-0.2v-1
						C19.7,26.2,19.8,26.1,19.9,26.1z"/>
				</g>
			</g>
		</g>
		<g>
			<g>
				<g>
					<path class="st9" d="M18.5,27.6h0.9c0.1,0,0.2,0.1,0.2,0.2S19.5,28,19.4,28h-0.9c-0.1,0-0.2-0.1-0.2-0.2
						C18.2,27.7,18.3,27.6,18.5,27.6z"/>
				</g>
			</g>
			<g>
				<g>
					<path class="st9" d="M20.5,27.6h0.9c0.1,0,0.2,0.1,0.2,0.2S21.5,28,21.4,28h-0.9c-0.1,0-0.2-0.1-0.2-0.2
						C20.2,27.7,20.3,27.6,20.5,27.6z"/>
				</g>
			</g>
		</g>
	</g>
	<circle class="st3" cx="70.1" cy="27.5" r="0.9"/>
	<circle class="st3" cx="73.1" cy="27.5" r="0.9"/>
	<circle class="st3" cx="76" cy="27.5" r="0.9"/>
	<rect x="65.4" y="30.1" class="st10" width="11.3" height="3.9"/>
	<g id="live_00000005229536245335598890000013987414007331402172_">
		<polygon class="st11" points="71.1,32.7 71.5,32.7 71.5,33.1 70.5,33.1 70.5,30.9 71.1,30.9 		"/>
		<rect x="71.7" y="30.9" class="st11" width="0.6" height="2.2"/>
		<path class="st11" d="M73.5,30.9h0.6l-0.3,2.2h-0.9l-0.4-2.2h0.6c0.1,0.6,0.1,1.1,0.2,1.6c0-0.4,0.1-0.8,0.1-1.1L73.5,30.9z"/>
		<polygon class="st11" points="74.9,32.7 75.3,32.7 75.3,33.2 74.3,33.2 74.3,30.9 75.3,30.9 75.3,31.4 74.9,31.4 74.9,31.8 
			75.3,31.8 75.3,32.2 74.9,32.2 		"/>
		<g id="camera_00000181766610467357019810000003009621339615747981_">
			<path class="st9" d="M67.7,33h-0.3c-0.4,0-0.8-0.4-0.8-0.8l0,0c0-0.4,0.4-0.8,0.8-0.8h0.3c0.4,0,0.8,0.4,0.8,0.8l0,0
				C68.5,32.6,68.2,33,67.7,33z"/>
			<path class="st9" d="M69.1,32.8l-0.5-0.3v-0.7l0.5-0.3c0.1-0.1,0.3,0,0.3,0.2v0.9C69.4,32.8,69.2,32.9,69.1,32.8z"/>
		</g>
	</g>
	<g>
		<path class="st10" d="M69.5,8.7c0,4.7-3.8,8.5-8.5,8.5c-1.6,0-3.2-0.5-4.5-1.3l-3.7,1.4l0.7-4.6c-0.7-1.2-1.1-2.6-1.1-4.2
			c0-4.7,3.8-8.5,8.5-8.5C65.6,0,69.5,4,69.5,8.7z"/>
		<circle class="st9" cx="56.9" cy="9" r="1.4"/>
		<circle class="st9" cx="61.2" cy="9" r="1.4"/>
		<circle class="st9" cx="65.3" cy="9" r="1.4"/>
	</g>
	<g>
		<path class="st10" d="M33.4,10.7c4.6,0.8,7.7,5.3,6.9,9.9c-0.3,1.6-1,3-2,4.2l0.7,3.9l-4.4-1.5c-1.3,0.5-2.8,0.6-4.3,0.3
			c-4.6-0.8-7.7-5.3-6.9-9.9C24.2,13,28.7,9.9,33.4,10.7z"/>
		<circle class="st9" cx="27.8" cy="18.4" r="1.4"/>
		<circle class="st9" cx="32" cy="19.1" r="1.4"/>
		<circle class="st9" cx="36.1" cy="19.9" r="1.4"/>
	</g>
	<path id="path4_00000121266359908321450920000018199353917894817685_" class="st12" d="M88,40.2c0-0.5-0.3-1-0.8-1.3
		c-0.7-0.3-1.5-0.1-1.8,0.6c-0.7,1.3,0,1.9,0.9,4.3c2.4-0.8,3.2-0.6,3.9-1.9c0.3-0.7,0.1-1.5-0.6-1.8C89,39.9,88.4,39.9,88,40.2z"/>
	<path id="path4_00000154393275037139005120000011619023401642163858_" class="st12" d="M5.3,28.6c-0.5-0.2-1.1-0.1-1.5,0.2
		c-0.6,0.5-0.7,1.3-0.2,1.9c0.9,1.2,1.7,0.8,4.2,1.1c0.3-2.5,0.8-3.2-0.1-4.3c-0.5-0.6-1.3-0.7-1.9-0.2C5.4,27.5,5.2,28,5.3,28.6z"
		/>
</g>
</svg>
