<?xml version="1.0" encoding="utf-8"?>
<!-- Generator: Adobe Illustrator 26.0.1, SVG Export Plug-In . SVG Version: 6.00 Build 0)  -->
<svg version="1.1" id="Layer_1" xmlns="http://www.w3.org/2000/svg" xmlns:xlink="http://www.w3.org/1999/xlink" x="0px" y="0px"
	 viewBox="0 0 103.2 58" style="enable-background:new 0 0 103.2 58;" xml:space="preserve">
<style type="text/css">
	.st0{opacity:0.1;}
	.st1{fill:#3B4751;}
	.st2{fill:none;}
	.st3{fill:#647E99;}
	.st4{fill:#FFFFFF;}
	.st5{opacity:0.71;}
	.st6{fill:#8DA1B0;}
	.st7{fill:#8EA2B1;}
	.st8{opacity:0.3;fill:#FFFFFF;enable-background:new    ;}
	.st9{display:none;}
	.st10{display:inline;fill:#A5E0F9;}
	.st11{display:inline;}
	.st12{fill:#03426D;}
	.st13{fill:#54B8FC;}
	.st14{fill:url(#SVGID_1_);}
	.st15{fill:#FF4C64;}
	.st16{fill:#F991A2;}
	.st17{fill:#0081FF;}
	.st18{fill:#A5E0F9;}
</style>
<g>
	<g>
		<g class="st0">
			<path class="st1" d="M17.9,45.7c0-0.3-8.4-11.1,1.4-21.1c4.4-4.4,11.9,2.4,10.6-10.7c-1-11.4,17.5-18,26.7-10.4
				C64,9.7,64-0.8,75.3,4.2s3.8,18.4,8.5,19.7c9.1,2.5,16.3,10.8,8.9,19L17.9,45.7z"/>
			<path id="Background_00000094586224586817018130000016510999554740228271_" class="st1" d="M67.7,35.5c0,0,3.9,1,6.2,3.1
				c2.2,2.1,7.2,5.6-7.4,10.4C53,53.4,25.9,57.5,31,50.9S8.2,52.1,7.5,45.6C6.5,36.3,67.7,35.5,67.7,35.5z"/>
			<path id="Background_00000156563434231552827990000007615738139144793779_" class="st1" d="M32.4,44.8c0,0-3.7,1.9-5.3,4.4
				c-1.6,2.6-5.7,7.1,9.6,8.5c14.2,1.2,41.4-0.8,34.9-6c-6.4-5.3,22.4-3.9,21.7-10.3C92.2,32.1,32.4,44.8,32.4,44.8z"/>
		</g>
		<g>
			<path class="st2" d="M40.9,20.3h20.5v20.5H40.9V20.3z"/>
			<g>
				<path class="st3" d="M68.2,31c-0.8,6.5-5.6,11.8-11.8,13.4c-0.3,0.1-0.5,0.3-0.7,0.4l-2.8,3.8c-0.1,0.2-0.3,0.2-0.5,0l-3.1-3.8
					c-0.2-0.3-0.4-0.3-0.7-0.4c-6.8-1.7-12-8-12-15.4c0-8.2,6.2-15.1,14.4-15.8C61.6,12.3,69.6,20.4,68.2,31z"/>
				<path class="st4" d="M58.8,33.5v3c0,0.4-0.3,0.9-0.8,0.9c-0.3,0-0.7,0-0.9,0c-7.5,0-13.7-6.1-13.7-13.7c0-0.3,0-0.5,0-0.9
					s0.4-0.8,0.9-0.8h3c0.3,0,0.4,0.2,0.4,0.3c0,0.2,0,0.3,0.1,0.4c0.2,1.2,0.5,2.3,1,3.4c0.1,0.2,0,0.3-0.1,0.5L46.9,28
					c1.1,2.7,3.2,4.7,5.8,5.8L54,32c0.1-0.2,0.3-0.2,0.5-0.1c1.1,0.5,2.2,0.9,3.4,1c0.1,0,0.3,0,0.4,0.1
					C58.6,33.2,58.8,33.3,58.8,33.5L58.8,33.5z"/>
				<g class="st5">
					<path class="st4" d="M51.7,25.8L51.7,25.8c0,0.2,0.1,0.3,0.3,0.4c1.3,0.4,2.4,1.5,2.9,2.7c0.1,0.2,0.3,0.3,0.4,0.3l0,0
						c0.3,0,0.6-0.3,0.4-0.6c-0.6-1.5-1.9-2.7-3.4-3.2C52,25.2,51.7,25.5,51.7,25.8z"/>
					<path class="st4" d="M51.7,22.8L51.7,22.8c0,0.3,0.2,0.4,0.4,0.5c2.8,0.6,5,2.8,5.7,5.6c0.1,0.3,0.3,0.3,0.4,0.3l0,0
						c0.3,0,0.6-0.3,0.5-0.6c-0.8-3.2-3.3-5.6-6.5-6.3C52.1,22.3,51.8,22.5,51.7,22.8z"/>
					<path class="st4" d="M51.8,19.9L51.8,19.9c0,0.3,0.2,0.5,0.4,0.6c4.3,0.8,7.7,4.1,8.5,8.4c0.1,0.3,0.3,0.4,0.5,0.4l0,0
						c0.3,0,0.6-0.3,0.6-0.7c-0.9-4.7-4.6-8.5-9.3-9.3C52.1,19.3,51.8,19.6,51.8,19.9z"/>
				</g>
			</g>
			<path class="st6" d="M77.1,29.6c0,12.1-8.8,22.2-20.4,24.1c-1.3,0.2-2.6,0.3-3.9,0.3c-0.8,0-1.5,0-2.2-0.1
				c-0.1-0.2-0.1-0.4-0.1-0.6c0-0.1,0-0.2,0-0.2c0.4,0,0.9,0,1.5,0c1.6,0,3.3-0.2,4.8-0.4c11.1-2.2,19.7-12.1,19.7-24
				c0-6.4-2.5-12.3-6.5-16.7C74.2,16.5,77.1,22.6,77.1,29.6z"/>
			<g>
				<path class="st7" d="M72.9,14.8L71.5,16C67,10.6,60.3,7.1,52.6,7.1c-7.5,0-14.4,3.4-18.9,8.9l-1.3-1.5C37,8.6,44.3,4.8,52.5,4.8
					C60.9,4.7,68.3,8.6,72.9,14.8z"/>
				<path class="st3" d="M52.5,3.6c-7.1,0-13.6,2.8-18.3,7.4l2.7,2.8c3.9-3.9,9.4-6.4,15.6-6.4S64,9.8,68.1,13.7l2.8-2.8
					C66.2,6.5,59.7,3.6,52.5,3.6z"/>
			</g>
			<g id="speaker_00000055695185362675903070000017123157586558206884_">
				<path class="st3" d="M71.1,15.6c0.1-0.3,0.4-1,1.4-1.5c0,0,2.7,1.7,4.4,6.8c0.6,1.8,0.9,3.5,1,5c0.3,2.3,0,4.6-0.6,6.8
					c-0.1,0.3-0.2,0.4-0.2,0.6c-0.2,0.4-0.6,0.7-1,0.5H76l0,0c-0.3-0.2-0.6,0-0.6,0.3s0,0.7-0.6,0.8c0,0-0.3,0-0.4-0.3
					c0-0.2-0.2-0.2-0.4-0.2c-0.3,0-0.5,0.1-0.7,0.3c-0.3,0.3-1,0.7-2-0.1c0,0-0.8-0.6-0.7-2.5c0.1-1.5,0-5.6,0-7.1
					c0-0.7,0.2-1.3,0.7-1.7c0.4-0.4,1.1-0.8,2-0.2c0,0,0.8-0.4,1.1,0.3c0,0,0.3,0.2,0.3-0.3s-0.9-3.3-3.3-7
					C71.1,15.9,71,15.7,71.1,15.6z"/>
				<path class="st7" d="M73.1,23.2c0,0,0.7,6.2,0.2,11c0,0.3,0.2,0.6,0.4,0.6c0.3,0.1,0.5,0,0.7-0.4c0.5-0.9,0.3-10.5,0-11
					c0,0-0.1-0.7-0.8-0.6C73.1,22.8,73.1,23.2,73.1,23.2z"/>
			</g>
			<g id="speaker_00000110472525598145833330000009849397048782395819_">
				<path class="st3" d="M33.9,15.6c-0.1-0.3-0.4-1-1.4-1.5c0,0-2.7,1.7-4.4,6.8c-0.6,1.8-0.9,3.5-1,5c-0.3,2.3,0,4.6,0.6,6.8
					c0.1,0.3,0.2,0.4,0.2,0.6c0.2,0.4,0.6,0.7,1,0.5H29l0,0c0.3-0.2,0.6,0,0.6,0.3s0,0.7,0.6,0.8c0,0,0.3,0,0.4-0.3
					c0-0.2,0.2-0.2,0.4-0.2c0.3,0,0.5,0.1,0.7,0.3c0.3,0.3,1,0.7,2-0.1c0,0,0.8-0.6,0.7-2.5c-0.1-1.5,0-5.6,0-7.1
					c0-0.7-0.2-1.3-0.7-1.7c-0.4-0.4-1.1-0.8-2-0.2c0,0-0.8-0.4-1.1,0.3c0,0-0.3,0.2-0.3-0.3s0.9-3.3,3.3-7
					C33.9,15.9,33.9,15.7,33.9,15.6z"/>
				<path class="st7" d="M31.9,23.2c0,0-0.7,6.2-0.2,11c0,0.3-0.2,0.6-0.4,0.6c-0.3,0.1-0.5,0-0.7-0.4c-0.5-0.9-0.3-10.5,0-11
					c0,0,0.1-0.7,0.8-0.6C31.9,22.8,31.9,23.2,31.9,23.2z"/>
			</g>
			<path class="st3" d="M56.5,53.4c0,0.2,0,0.3,0,0.4c-0.1,0.4-0.3,0.8-0.5,1c-0.3,0.3-0.9,0.6-1.5,0.6h-2.2c-0.9,0-1.6-0.6-2-1.4
				c-0.1-0.2-0.1-0.4-0.1-0.6c0-0.1,0-0.2,0-0.2c0.1-0.5,0.3-0.9,0.6-1.2s0.9-0.6,1.5-0.6h2.1c0.9,0,1.6,0.6,2,1.4
				C56.5,52.9,56.5,53.2,56.5,53.4z"/>
			<path class="st8" d="M67.8,28.6c0,0.3,0,0.6,0,0.9c-0.5-8.6-7.5-15.4-16.3-15.4c-0.5,0-1.1,0-1.6,0.1c1-0.3,2.1-0.3,3.2-0.3
				C61.2,13.8,67.8,20.4,67.8,28.6z"/>
		</g>
		<g class="st9">
			<circle class="st10" cx="72.2" cy="1.1" r="3.9"/>
			<g class="st11">
				<g>
					<path class="st12" d="M71,0c0.3,0,0.4,0.1,0.6,0.3h0.1C71.6,0,71.3-0.3,71-0.3s-0.6,0.2-0.7,0.5c0,0,0,0.1,0.1,0S70.8,0,71,0z"
						/>
				</g>
				<g>
					<path class="st12" d="M73.4,0c0.3,0,0.4,0.1,0.6,0.3l0,0c0-0.3-0.3-0.6-0.6-0.6s-0.6,0.2-0.7,0.5c0,0,0,0.1,0.1,0
						S73.1,0,73.4,0z"/>
				</g>
			</g>
			<g class="st11">
				<g>
					<path class="st13" d="M70.4,2.7c0.4,0.3,1,0.5,1.7,0.5c0.6,0,1.2-0.2,1.7-0.5c-0.3-0.2-0.2-0.3-0.4-0.3
						c-0.3-0.1-0.9-0.1-1.3-0.1C71.6,2.4,71,2.5,70.4,2.7z"/>
					<path class="st12" d="M74.8,1.2c-0.1,0-0.1,0.1-0.2,0.1c-0.6,0.5-1.5,0.9-2.5,0.9s-1.9-0.3-2.5-0.9c-0.1,0-0.1-0.1-0.2-0.1
						c0.1,0.6,0.4,1.2,0.9,1.5c0.5-0.2,1.1-0.3,1.7-0.3s1.2,0.1,1.7,0.3C74.4,2.4,74.7,1.8,74.8,1.2z"/>
					
						<radialGradient id="SVGID_1_" cx="72.1352" cy="942.5609" r="2.983" gradientTransform="matrix(1 0 0 0.6353 0 -597.0501)" gradientUnits="userSpaceOnUse">
						<stop  offset="0" style="stop-color:#FDFFFC"/>
						<stop  offset="1" style="stop-color:#D6D5DD"/>
					</radialGradient>
					<path class="st14" d="M69.7,1.3c0.6,0.5,1.5,0.9,2.5,0.9s1.9-0.3,2.5-0.9c-0.7,0.3-1.5,0.4-2.5,0.4S70.4,1.5,69.7,1.3z"/>
				</g>
			</g>
		</g>
		<g>
			<path class="st15" d="M88.4,19.9H81c-2,0-3.6-1.6-3.6-3.6l0,0c0-2,1.6-3.6,3.6-3.6h7.4c2,0,3.6,1.6,3.6,3.6l0,0
				C91.9,18.4,90.4,19.9,88.4,19.9z"/>
			<polygon class="st15" points="81.1,19.7 78.9,21.6 78.9,18.5 			"/>
			<path class="st16" d="M80.4,15.4h5.8c0.3,0,0.4-0.2,0.4-0.4l0,0c0-0.3-0.2-0.4-0.4-0.4h-5.8c-0.3,0-0.4,0.2-0.4,0.4l0,0
				C79.9,15.2,80.1,15.4,80.4,15.4z"/>
			<path class="st16" d="M80,16.7h5.9c0.1,0,0.2-0.1,0.2-0.2l0,0c0-0.1-0.1-0.2-0.2-0.2H80c-0.1,0-0.2,0.1-0.2,0.2l0,0
				C79.9,16.7,79.9,16.7,80,16.7z"/>
			<path class="st16" d="M86.9,16.7h2.2c0.1,0,0.2-0.1,0.2-0.2l0,0c0-0.1-0.1-0.2-0.2-0.2h-2.2c-0.1,0-0.2,0.1-0.2,0.2l0,0
				C86.7,16.7,86.8,16.7,86.9,16.7z"/>
			<path class="st16" d="M80,18.2h9.2c0.1,0,0.2-0.1,0.2-0.2l0,0c0-0.1-0.1-0.2-0.2-0.2H80c-0.1,0-0.2,0.1-0.2,0.2l0,0
				C79.9,18.1,79.9,18.2,80,18.2z"/>
		</g>
		<g>
			<g>
				<path class="st15" d="M20.7,46.6h16.9c1.4,0,2.5-1.1,2.5-2.5l0,0c0-1.4-1.1-2.5-2.5-2.5H20.7c-1.4,0-2.5,1.1-2.5,2.5l0,0
					C18.3,45.5,19.4,46.6,20.7,46.6z"/>
				<polygon class="st15" points="33.9,46.1 37.3,49 37.3,44.3 				"/>
			</g>
		</g>
		<g>
			<g>
				<path class="st16" d="M23.1,43.8l0.6,0.1c0.1,0,0.1,0.1,0,0.1l-0.4,0.4c0,0,0,0,0,0.1l0.1,0.6c0,0.1-0.1,0.1-0.1,0.1l-0.5-0.3
					c0,0,0,0-0.1,0l-0.5,0.3c-0.1,0-0.1,0-0.1-0.1l0.1-0.6c0,0,0,0,0-0.1L21.8,44v-0.1l0.6-0.1c0,0,0,0,0.1,0l0.3-0.5
					c0-0.1,0.1-0.1,0.1,0L23.1,43.8L23.1,43.8z"/>
				<path class="st16" d="M26.2,43.8l0.6,0.1c0.1,0,0.1,0.1,0,0.1l-0.4,0.4c0,0,0,0,0,0.1l0.1,0.6c0,0.1-0.1,0.1-0.1,0.1l-0.5-0.3
					c0,0,0,0-0.1,0l-0.5,0.3c-0.1,0-0.1,0-0.1-0.1l0.1-0.6c0,0,0,0,0-0.1L24.9,44v-0.1l0.6-0.1c0,0,0,0,0.1,0l0.3-0.5
					c0-0.1,0.1-0.1,0.1,0L26.2,43.8L26.2,43.8z"/>
				<path class="st16" d="M29.4,43.8l0.6,0.1c0.1,0,0.1,0.1,0,0.1l-0.4,0.4c0,0,0,0,0,0.1l0.1,0.6c0,0.1-0.1,0.1-0.1,0.1L29,44.9
					c0,0,0,0-0.1,0l-0.5,0.3c-0.1,0-0.1,0-0.1-0.1l0.1-0.6c0,0,0,0,0-0.1L28,43.9v-0.1l0.6-0.1c0,0,0,0,0.1,0l0.3-0.5
					c0-0.1,0.1-0.1,0.1,0L29.4,43.8L29.4,43.8z"/>
				<path class="st16" d="M32.5,43.8l0.6,0.1c0.1,0,0.1,0.1,0,0.1l-0.4,0.4c0,0,0,0,0,0.1l0.1,0.6c0,0.1-0.1,0.1-0.1,0.1l-0.5-0.3
					c0,0,0,0-0.1,0l-0.5,0.3c-0.1,0-0.1,0-0.1-0.1l0.1-0.6c0,0,0,0,0-0.1L31.2,44v-0.1l0.6-0.1c0,0,0,0,0.1,0l0.3-0.5
					c0-0.1,0.1-0.1,0.1,0L32.5,43.8L32.5,43.8z"/>
				<path class="st16" d="M35.7,43.8l0.6,0.1c0.1,0,0.1,0.1,0,0.1l-0.4,0.4c0,0,0,0,0,0.1l0.1,0.6c0,0.1-0.1,0.1-0.1,0.1l-0.5-0.3
					c0,0,0,0-0.1,0l-0.5,0.3c-0.1,0-0.1,0-0.1-0.1l0.1-0.6c0,0,0,0,0-0.1L34.4,44v-0.1l0.6-0.1c0,0,0,0,0.1,0l0.3-0.5
					c0-0.1,0.1-0.1,0.1,0L35.7,43.8C35.6,43.8,35.7,43.8,35.7,43.8z"/>
				<g>
					<path class="st16" d="M35.8,43.9L35.8,43.9l0.6,0.1c0,0,0,0-0.1-0.1H35.8L35.8,43.9z"/>
					<path class="st16" d="M35.5,44.9L35.5,44.9l0.4,0.3l0,0L35.5,44.9z"/>
					<path class="st16" d="M34.8,45.1l0.1-0.6c0,0,0,0,0-0.1L34.4,44v-0.1l0.6-0.1c0,0,0,0,0.1,0l0.3-0.5l0,0l0,0
						c0-0.1-0.1-0.1-0.1,0L35,43.8c0,0,0,0-0.1,0l-0.6,0.1c-0.1,0-0.1,0.1,0,0.1l0.4,0.4c0,0,0,0,0,0.1L34.8,45.1
						C34.7,45.1,34.7,45.1,34.8,45.1L34.8,45.1L34.8,45.1z"/>
				</g>
			</g>
		</g>
		<g>
			<g>
				<g>
					<g>
						<path class="st4" d="M47.8,16.1c0.1,0,0.2,0.1,0.2,0.2V17c0,0.1-0.1,0.2-0.2,0.2c-0.1,0-0.2-0.1-0.2-0.2v-0.8
							C47.6,16.1,47.7,16.1,47.8,16.1z"/>
					</g>
				</g>
				<g>
					<g>
						<path class="st4" d="M47.8,14.7c0.1,0,0.2,0.1,0.2,0.2v0.8c0,0.1-0.1,0.2-0.2,0.2c-0.1,0-0.2-0.1-0.2-0.2v-0.8
							C47.6,14.8,47.7,14.7,47.8,14.7z"/>
					</g>
				</g>
			</g>
			<g>
				<g>
					<g>
						<path class="st4" d="M46.7,15.7h0.7c0.1,0,0.2,0.1,0.2,0.2c0,0.1-0.1,0.2-0.2,0.2h-0.7c-0.1,0-0.2-0.1-0.2-0.2
							C46.6,15.8,46.7,15.7,46.7,15.7z"/>
					</g>
				</g>
				<g>
					<g>
						<path class="st4" d="M48.2,15.7h0.7c0.1,0,0.2,0.1,0.2,0.2c0,0.1-0.1,0.2-0.2,0.2h-0.7c-0.1,0-0.2-0.1-0.2-0.2
							C48,15.8,48.1,15.7,48.2,15.7z"/>
					</g>
				</g>
			</g>
		</g>
		<g>
			<g>
				<g>
					<g>
						<path class="st17" d="M23.7,36.3c0.1,0,0.2,0.1,0.2,0.2v0.8c0,0.1-0.1,0.2-0.2,0.2s-0.2-0.1-0.2-0.2v-0.8
							C23.5,36.4,23.5,36.3,23.7,36.3z"/>
					</g>
					<g>
						<path class="st17" d="M23.7,35c0.1,0,0.2,0.1,0.2,0.2V36c0,0.1-0.1,0.2-0.2,0.2s-0.2-0.1-0.2-0.2v-0.8
							C23.5,35.1,23.5,35,23.7,35z"/>
					</g>
				</g>
				<g>
					<g>
						<path class="st17" d="M22.5,36h0.7c0.1,0,0.2,0.1,0.2,0.2c0,0.1-0.1,0.2-0.2,0.2h-0.7c-0.1,0-0.2-0.1-0.2-0.2
							C22.4,36.1,22.5,36,22.5,36z"/>
					</g>
					<g>
						<path class="st17" d="M24,36h0.7c0.1,0,0.2,0.1,0.2,0.2c0,0.1-0.1,0.2-0.2,0.2H24c-0.1,0-0.2-0.1-0.2-0.2S23.9,36,24,36z"/>
					</g>
				</g>
			</g>
		</g>
		<g>
			<path class="st4" d="M43.1,46.9c0.6,0,1.1,0.5,1.1,1.1s-0.5,1.1-1.1,1.1S42,48.6,42,48S42.5,46.9,43.1,46.9z M43.1,48.7
				c0.4,0,0.8-0.3,0.8-0.8s-0.3-0.8-0.8-0.8s-0.8,0.3-0.8,0.8S42.6,48.7,43.1,48.7z"/>
		</g>
		<g>
			<circle class="st18" cx="20.3" cy="25.8" r="3.9"/>
			<g>
				<path class="st12" d="M19.2,24.7c0.3,0,0.5,0.2,0.7,0.4H20c-0.1-0.4-0.4-0.8-0.8-0.8s-0.7,0.3-0.8,0.8c0,0.1,0.1,0.1,0.1,0
					C18.6,24.9,18.9,24.7,19.2,24.7z"/>
			</g>
			<g>
				<path class="st12" d="M21.5,24.7c0.3,0,0.5,0.2,0.7,0.4h0.1c-0.1-0.4-0.4-0.8-0.8-0.8c-0.3,0-0.7,0.3-0.8,0.8
					c0,0.1,0.1,0.1,0.1,0C21,24.9,21.3,24.7,21.5,24.7z"/>
			</g>
		</g>
	</g>
	<g>
		<path class="st12" d="M17.7,26.2c1.3,1.2,3.3,1.4,4.8,0.3c0.8-0.7,0.3,0,0,0.3C21.3,28.3,18.3,27.9,17.7,26.2z"/>
	</g>
</g>
</svg>
