<?xml version="1.0" encoding="utf-8"?>
<!-- Generator: Adobe Illustrator 25.4.1, SVG Export Plug-In . SVG Version: 6.00 Build 0)  -->
<svg version="1.1" id="Layer_1" xmlns="http://www.w3.org/2000/svg" xmlns:xlink="http://www.w3.org/1999/xlink" x="0px" y="0px"
	 viewBox="0 0 90.3 63.5" style="enable-background:new 0 0 90.3 63.5;" xml:space="preserve">
<style type="text/css">
	.st0{display:none;opacity:0.54;fill:#FFFFFF;enable-background:new    ;}
	.st1{opacity:0.1;}
	.st2{fill:#3B4751;}
	.st3{fill:#8EA2B1;}
	.st4{opacity:0.67;fill:url(#XMLID_00000012434699370870353860000003631493791825109923_);enable-background:new    ;}
	.st5{fill:#647E99;}
	.st6{fill:#4E7FB0;}
	.st7{opacity:0.1;fill:#FFFFFF;enable-background:new    ;}
	.st8{fill:#C0E9FC;}
	.st9{fill:#FFFFFF;}
	.st10{opacity:0.51;fill:#E8E8F9;enable-background:new    ;}
	.st11{fill:#FF4C64;}
	.st12{fill:#49B8F6;}
</style>
<rect x="-17.5" y="-30.4" class="st0" width="125.1" height="127.9"/>
<g>
	<g id="Background_00000168805351184641194850000005708190625077391244_" class="st1">
		<path id="Background_00000067945312947390889310000000808263057547135362_" class="st2" d="M66.2,0.8c11,2.8,15.9,11.8,9.4,26.9
			c-4.2,9.8,3.5,24.8-9.5,28.4c-21.2,5.8-22-10-39.5-11.8C9.1,42.6,6.3,11.8,24,7c6.5-1.7,7.9,0.1,13.6-0.8
			C52.1,4.1,54.7-2.1,66.2,0.8z"/>
		<path id="Background_00000075852287852246857220000018172095242145603752_" class="st2" d="M68.5,45.8c0,0,4.4,1.6,6.6,4.3
			s7.5,7.3-9.6,10.7c-15.7,3.2-46.4,4.6-39.9-2.2S0,57.1,0,49.9C-0.1,39.3,68.5,45.8,68.5,45.8z"/>
		<path id="Background_00000167357198657047548240000008308105587395036584_" class="st2" d="M43,60.6c0,0-4-0.8-6.2-2.8
			s-7.4-5.3,6.9-10.6c13.2-4.8,39.7-9.9,34.9-3.2c-4.8,6.7,10.8,0.3,11.7,6.5C91.6,59.7,43,60.6,43,60.6z"/>
	</g>
	<polygon id="XMLID_00000061464995436942808930000014190377716893886891_" class="st3" points="49.7,56 35.5,56 36.7,44.6 
		48.6,44.6 	"/>
	
		<linearGradient id="XMLID_00000124844443821224106450000013630081957755590528_" gradientUnits="userSpaceOnUse" x1="42.65" y1="-43.9082" x2="42.65" y2="-47.0534" gradientTransform="matrix(1 0 0 1 0 96)">
		<stop  offset="0" style="stop-color:#647E99;stop-opacity:0"/>
		<stop  offset="1" style="stop-color:#647E99"/>
	</linearGradient>
	
		<polygon id="XMLID_00000152250943623173293680000010830289422481080239_" style="opacity:0.67;fill:url(#XMLID_00000124844443821224106450000013630081957755590528_);enable-background:new    ;" points="
		35.9,52.1 49.4,52.1 49.1,48.9 36.2,48.9 	"/>
	<path id="XMLID_00000075135708969999947580000006211759878240714671_" class="st3" d="M55.3,56.5C55.3,56.5,55.4,56.5,55.3,56.5
		c0-1.1-0.8-1.9-1.9-1.9H32.1c-1,0-1.9,0.8-1.9,1.9c0,0,0,0,0,0.1L55.3,56.5L55.3,56.5z"/>
	<path class="st3" d="M72.1,11v36.9L72,48.3c-0.1,0.2-0.3,0.4-0.5,0.6l0,0c-0.2,0.2-0.5,0.3-0.7,0.3H13.7c-0.6,0-1.2-0.4-1.5-0.9
		c0-0.1-0.1-0.3-0.1-0.4c-0.1,0-0.1-0.2-0.1-0.3V11c0-0.5,0.3-1,0.6-1.3c0.3-0.2,0.6-0.4,1.1-0.4h56.8c0.4,0,0.7,0.1,1,0.4
		C71.9,10,72.1,10.5,72.1,11z"/>
	<path class="st5" d="M70.4,11.9v33.8c0,0.4-0.4,0.8-0.8,0.8H14.4c-0.4,0-0.8-0.4-0.8-0.8V11.9c0-0.4,0.4-0.8,0.8-0.8h55.2
		C70.1,11.1,70.4,11.4,70.4,11.9z"/>
	<path class="st3" d="M71.9,48c-0.1,0.2-0.3,0.4-0.4,0.6l0,0c-0.2,0.2-0.5,0.3-0.7,0.3H13.7c-0.6,0-1.2-0.4-1.5-0.9
		C12.2,48,71.9,48,71.9,48z"/>
	<path class="st6" d="M42.5,10.2h-2c0,0-0.1,0-0.1-0.1c0,0,0-0.1,0.1-0.1h2C42.5,10,42.6,10.1,42.5,10.2
		C42.6,10.2,42.5,10.2,42.5,10.2z"/>
	<path class="st7" d="M33.4,11.1L15,46.5h11.4l18.4-35.4C44.8,11.1,33.4,11.1,33.4,11.1z M14.4,11.1c-0.4,0-0.8,0.4-0.8,0.8V42
		l16-30.9H14.4z"/>
	<g id="time_line_00000101094105295449229960000003764044998520669106_">
		<path class="st8" d="M63.1,41.9H20.5c-0.2,0-0.3-0.1-0.3-0.3l0,0c0-0.2,0.1-0.3,0.3-0.3h42.6c0.2,0,0.3,0.1,0.3,0.3l0,0
			C63.4,41.8,63.2,41.9,63.1,41.9z"/>
		<circle class="st8" cx="63.5" cy="41.6" r="0.5"/>
		<path class="st8" d="M57.8,43v1.9h2.5V43H57.8z M60.1,44.7H58v-1.5h2.1V44.7z"/>
		<path class="st8" d="M28.2,44.5h-0.4c-0.1,0-0.1-0.1-0.1-0.1v-0.7c0-0.1,0.1-0.1,0.1-0.1h0.4l0.6-0.5h0.1l0,0V45
			c0,0,0,0.1-0.1,0.1l0,0L28.2,44.5L28.2,44.5z"/>
		<polygon class="st8" points="25.2,44.6 25.2,43.2 26.1,43.7 26.1,43.2 26.4,43.2 26.4,44.6 26.1,44.6 26.1,44.1 		"/>
		<polygon class="st8" points="21.1,44.6 21.1,43.2 20.2,43.7 20.2,43.2 20,43.2 20,44.6 20.2,44.6 20.2,44.1 		"/>
		<path class="st8" d="M24.2,43.9l-1.5-1c0,0,0,0-0.1,0c0,0,0,0,0,0.1v2c0,0,0,0,0,0.1l0,0l0,0L24.2,43.9C24.3,44,24.3,44,24.2,43.9
			C24.3,43.9,24.3,43.9,24.2,43.9z"/>
	</g>
	<g>
		<path class="st9" d="M42.4,21.2c-4.1,0-7.5,3.4-7.5,7.5s3.4,7.5,7.5,7.5s7.5-3.4,7.5-7.5S46.6,21.2,42.4,21.2z"/>
	</g>
	<g>
		<g>
			<circle class="st10" cx="62.2" cy="13.1" r="0.8"/>
			<circle class="st10" cx="64.9" cy="13.1" r="0.8"/>
			<circle class="st10" cx="67.5" cy="13.1" r="0.8"/>
		</g>
	</g>
</g>
<polygon class="st8" points="61.5,43 61.5,43.6 61.8,43.6 61.8,43.2 62.2,43.2 62.2,43 "/>
<polygon class="st8" points="64,43 64,43.6 63.7,43.6 63.7,43.2 63.3,43.2 63.3,43 "/>
<polygon class="st8" points="61.5,44.8 61.5,44.2 61.8,44.2 61.8,44.6 62.2,44.6 62.2,44.8 "/>
<polygon class="st8" points="64,44.8 64,44.2 63.7,44.2 63.7,44.6 63.3,44.6 63.3,44.8 "/>
<rect x="29.2" y="43.7" class="st8" width="0.2" height="0.8"/>
<rect x="29.6" y="43.5" class="st8" width="0.2" height="1.1"/>
<polygon class="st11" points="46.6,28.8 39.8,24.9 39.8,32.8 "/>
<g>
	<path class="st12" d="M77.2,29L77.2,29c-0.1,0-0.2-0.1-0.2-0.2v-1.1c0-0.1,0.1-0.2,0.2-0.2l0,0c0.1,0,0.2,0.1,0.2,0.2v1.1
		C77.4,28.9,77.3,29,77.2,29z"/>
	<path class="st12" d="M77.6,27.4L77.6,27.4c0-0.1,0.1-0.2,0.2-0.2h1.1c0.1,0,0.2,0.1,0.2,0.2l0,0c0,0.1-0.1,0.2-0.2,0.2h-1.1
		C77.7,27.6,77.6,27.5,77.6,27.4z"/>
	<path class="st12" d="M75.4,27.4L75.4,27.4c0-0.1,0.1-0.2,0.2-0.2h1.1c0.1,0,0.2,0.1,0.2,0.2l0,0c0,0.1-0.1,0.2-0.2,0.2h-1.1
		C75.5,27.6,75.4,27.5,75.4,27.4z"/>
	<path class="st12" d="M77.2,27.1L77.2,27.1c-0.1,0-0.2-0.1-0.2-0.2v-1.1c0-0.1,0.1-0.2,0.2-0.2l0,0c0.1,0,0.2,0.1,0.2,0.2v1.1
		C77.4,27,77.3,27.1,77.2,27.1z"/>
</g>
<g>
	<path class="st12" d="M15.9,54.6L15.9,54.6c-0.1,0-0.2-0.1-0.2-0.2v-1.1c0-0.1,0.1-0.2,0.2-0.2l0,0c0.1,0,0.2,0.1,0.2,0.2v1.1
		C16.1,54.5,16,54.6,15.9,54.6z"/>
	<path class="st12" d="M16.3,53L16.3,53c0-0.1,0.1-0.2,0.2-0.2h1.1c0.1,0,0.2,0.1,0.2,0.2l0,0c0,0.1-0.1,0.2-0.2,0.2h-1.1
		C16.4,53.2,16.3,53.1,16.3,53z"/>
	<path class="st12" d="M14.1,53L14.1,53c0-0.1,0.1-0.2,0.2-0.2h1.1c0.1,0,0.2,0.1,0.2,0.2l0,0c0,0.1-0.1,0.2-0.2,0.2h-1.1
		C14.2,53.2,14.1,53.1,14.1,53z"/>
	<path class="st12" d="M15.9,52.7L15.9,52.7c-0.1,0-0.2-0.1-0.2-0.2v-1.1c0-0.1,0.1-0.2,0.2-0.2l0,0c0.1,0,0.2,0.1,0.2,0.2v1.1
		C16.1,52.6,16,52.7,15.9,52.7z"/>
</g>
<g>
	<path class="st9" d="M17.7,15.1L17.7,15.1c-0.1,0-0.2-0.1-0.2-0.2v-1.1c0-0.1,0.1-0.2,0.2-0.2l0,0c0.1,0,0.2,0.1,0.2,0.2v1.1
		C17.9,15,17.8,15.1,17.7,15.1z"/>
	<path class="st9" d="M18.1,13.5L18.1,13.5c0-0.1,0.1-0.2,0.2-0.2h1.1c0.1,0,0.2,0.1,0.2,0.2l0,0c0,0.1-0.1,0.2-0.2,0.2h-1.1
		C18.2,13.7,18.1,13.6,18.1,13.5z"/>
	<path class="st9" d="M15.9,13.5L15.9,13.5c0-0.1,0.1-0.2,0.2-0.2h1.1c0.1,0,0.2,0.1,0.2,0.2l0,0c0,0.1-0.1,0.2-0.2,0.2h-1.1
		C16,13.7,15.9,13.6,15.9,13.5z"/>
	<path class="st9" d="M17.7,13.2L17.7,13.2c-0.1,0-0.2-0.1-0.2-0.2v-1.1c0-0.1,0.1-0.2,0.2-0.2l0,0c0.1,0,0.2,0.1,0.2,0.2V13
		C17.9,13.1,17.8,13.2,17.7,13.2z"/>
</g>
</svg>
