<?xml version="1.0" encoding="utf-8"?>
<!-- Generator: Adobe Illustrator 25.4.1, SVG Export Plug-In . SVG Version: 6.00 Build 0)  -->
<svg version="1.1" id="Layer_1" xmlns="http://www.w3.org/2000/svg" xmlns:xlink="http://www.w3.org/1999/xlink" x="0px" y="0px"
	 viewBox="0 0 90.3 54.3" style="enable-background:new 0 0 90.3 54.3;" xml:space="preserve">
<style type="text/css">
	.st0{display:none;opacity:0.54;fill:#FFFFFF;enable-background:new    ;}
	.st1{opacity:0.1;}
	.st2{fill:#3B4751;}
	.st3{fill:#A6EAFF;}
	.st4{fill:#1A9EFE;}
	.st5{fill:#75B8FF;}
	.st6{fill:#1A8DFF;}
	.st7{opacity:0.17;}
	.st8{fill:#09225E;}
	.st9{opacity:7.000000e-02;fill:#FFFFFF;enable-background:new    ;}
	.st10{fill:url(#SVGID_1_);}
	.st11{fill:#FFFFFF;}
	.st12{fill:#FCBF1E;}
	.st13{fill:#49B8F6;}
</style>
<rect x="-17.5" y="-36.8" class="st0" width="125.1" height="127.9"/>
<g>
	<g id="Background_00000046307035119440735990000000414830542883714987_" class="st1">
		<path id="Background_00000134208600349348867520000017179816976011960740_" class="st2" d="M65.1,30.4c0,0,4.1,2.1,6.3,5.8
			c2,3.5,7,9.8-9.1,14.4c-14.8,4.3-44,6.3-37.8-2.9c6-9-24.5-1.9-24.5-11.6C0,21.8,65.1,30.4,65.1,30.4z"/>
		<path id="Background_00000166641362366052467320000009313845574801253256_" class="st2" d="M39.1,51c0,0-4.3-1.3-6.7-4.3
			s-7.9-8.3,7.6-16.3c14.3-7.5,42.9-15.2,37.7-4.9c-5.2,10.4,11.7,0.4,12.6,10C91.7,49.6,39.1,51,39.1,51z"/>
	</g>
	<g id="loptop">
		<path class="st3" d="M71.5,35.4H20.8c-0.8,0-1.4-0.6-1.4-1.4V1.4C19.4,0.6,20,0,20.8,0h50.6c0.8,0,1.4,0.6,1.4,1.4V34
			C72.9,34.8,72.3,35.4,71.5,35.4z"/>
		<rect x="21.2" y="1.8" class="st4" width="50" height="31.5"/>
		<path d="M8.7,47.1L8.7,47.1L8.7,47.1L8.7,47.1z"/>
		<path class="st5" d="M83.7,45v1.9l0,0V47c0,0.1-0.1,0.3-0.1,0.4c-0.1,0.1-0.2,0.2-0.4,0.2h-74c-0.2,0-0.4-0.2-0.4-0.4l0,0v-2
			l1.9-0.3v0.4l8.8-7.8h53.8l8.4,7.5L83.7,45z"/>
		<path class="st3" d="M83.2,45.5h-74c-0.4,0-0.5-0.5-0.3-0.7l9.8-8.7c0.5-0.5,1.2-0.7,1.9-0.7h51.6c0.8,0,1.5,0.3,2.1,0.8l9.4,8.4
			C83.9,44.9,83.7,45.5,83.2,45.5z"/>
		<polygon class="st6" points="77.8,42.5 14.8,42.5 21.4,36.6 71.2,36.6 		"/>
	</g>
	<g class="st7">
		<g>
			<g>
				<g>
					<ellipse class="st8" cx="46.2" cy="38.3" rx="10.9" ry="0.7"/>
				</g>
			</g>
		</g>
	</g>
	<path class="st9" d="M21.2,1.8v27.4L34.7,1.8H21.2z M37.8,1.8L22.4,33.3H32L47.4,1.8H37.8z"/>
	<g id="location">
		<path class="st6" d="M45.4,3.2c-7.2,0.4-13.2,6.2-14,13.4c-1,8.4,5.8,13.8,11.1,18.9c0.1,0.1,1,1,1.9,1.8c1.1,1.1,2.9,1.1,4,0
			c0.9-0.9,1.8-1.7,1.9-1.8c4.9-4.8,11.2-9.7,11.2-17.2C61.4,9.6,54.1,2.7,45.4,3.2z"/>
		
			<radialGradient id="SVGID_1_" cx="46.5554" cy="76.2349" r="38.8872" gradientTransform="matrix(1 0 0 -1 0 73.1943)" gradientUnits="userSpaceOnUse">
			<stop  offset="0" style="stop-color:#0B7CD8"/>
			<stop  offset="0.326" style="stop-color:#1082E0"/>
			<stop  offset="0.749" style="stop-color:#1A8DFF"/>
			<stop  offset="1" style="stop-color:#1A8DFF"/>
		</radialGradient>
		<path class="st10" d="M46.3,37c-0.4,0-0.7-0.1-1-0.4C44.6,36,44,35.3,43.6,35l-0.3-0.2c-0.6-0.6-1.1-1.1-1.7-1.7
			c-4.9-4.6-10-9.4-9.1-16.4C33.3,10,38.9,4.8,45.4,4.4c0.3,0,0.6,0,0.8,0c7.7,0,13.9,6.2,13.9,13.9c0,6.2-4.7,10.6-9.2,14.8
			c-0.6,0.6-1.2,1.1-1.7,1.7L49,35c-0.4,0.4-1,1-1.7,1.6C47.1,36.9,46.7,37,46.3,37z"/>
		<circle class="st11" cx="46.3" cy="18.5" r="9"/>
		<path class="st12" d="M46.3,15c-3.3,0-5.9,3.6-5.9,3.6s2.6,3.6,5.9,3.6c3.3,0,5.9-3.6,5.9-3.6S49.6,15,46.3,15z M47.9,19.8
			c-0.4,0.5-1,0.8-1.6,0.8s-1.2-0.3-1.6-0.8c-0.3-0.3-0.4-0.7-0.4-1.2c0-1.1,0.9-2,2-2s2,0.9,2,2C48.3,19,48.2,19.4,47.9,19.8z"/>
		<path class="st11" d="M49.3,13.3l1,1l-7.9,8.4l-1-1L49.3,13.3z"/>
		<path class="st12" d="M50.1,13.8l1,1l-7.9,8.4l-1-1L50.1,13.8z"/>
	</g>
	<rect x="45.3" y="0.8" class="st4" width="2.6" height="0.2"/>
	<g>
		<g>
			<g>
				<g>
					<g>
						<path class="st11" d="M19,41.2c-0.1,0-0.1,0.1-0.1,0.1v0.6C18.9,42,19,42,19,42c0.1,0,0.1-0.1,0.1-0.1v-0.6
							C19.2,41.2,19.1,41.2,19,41.2z"/>
					</g>
				</g>
				<g>
					<g>
						<path class="st11" d="M19,40.1c-0.1,0-0.1,0.1-0.1,0.1v0.6c0,0.1,0.1,0.1,0.1,0.1c0.1,0,0.1-0.1,0.1-0.1v-0.6
							C19.2,40.2,19.1,40.1,19,40.1z"/>
					</g>
				</g>
			</g>
			<g>
				<g>
					<g>
						<path class="st11" d="M19.8,40.9h-0.5c-0.1,0-0.1,0.1-0.1,0.1l0.1,0.1h0.5c0.1,0,0.1-0.1,0.1-0.1S19.9,40.9,19.8,40.9z"/>
					</g>
				</g>
				<g>
					<g>
						<path class="st11" d="M18.7,40.9h-0.5C18.1,40.9,18,41,18,41l0.1,0.1h0.5C18.7,41.1,18.7,41,18.7,40.9
							C18.8,41,18.8,40.9,18.7,40.9z"/>
					</g>
				</g>
			</g>
		</g>
		<g>
			<g>
				<g>
					<g>
						<path class="st13" d="M81.4,36.4c-0.1,0-0.2-0.1-0.2-0.2v-1c0-0.1,0.1-0.2,0.2-0.2s0.2,0.1,0.2,0.2v1
							C81.6,36.3,81.6,36.4,81.4,36.4z"/>
					</g>
					<g>
						<path class="st13" d="M81.4,38.2c-0.1,0-0.2-0.1-0.2-0.2v-1c0-0.1,0.1-0.2,0.2-0.2s0.2,0.1,0.2,0.2v1
							C81.6,38.1,81.6,38.2,81.4,38.2z"/>
					</g>
				</g>
				<g>
					<g>
						<path class="st13" d="M82.8,36.9h-0.9c-0.1,0-0.2-0.1-0.2-0.2s0.1-0.2,0.2-0.2h0.9c0.1,0,0.2,0.1,0.2,0.2S82.9,36.9,82.8,36.9
							z"/>
					</g>
					<g>
						<path class="st13" d="M80.9,36.9H80c-0.1,0-0.2-0.1-0.2-0.2s0.1-0.2,0.2-0.2h0.9c0.1,0,0.2,0.1,0.2,0.2S81,36.9,80.9,36.9z"/>
					</g>
				</g>
			</g>
		</g>
		<g>
			<g>
				<g>
					<g>
						<path class="st13" d="M14.7,8.6c-0.1,0-0.3-0.1-0.3-0.3V7.2c0-0.1,0.1-0.3,0.3-0.3C14.8,6.9,15,7,15,7.2v1.2
							C15,8.5,15,8.6,14.7,8.6z"/>
					</g>
					<g>
						<path class="st13" d="M14.7,10.7c-0.1,0-0.3-0.1-0.3-0.3V9.2c0-0.1,0.1-0.3,0.3-0.3C14.9,9,15,9.1,15,9.2v1.2
							C15,10.5,15,10.7,14.7,10.7z"/>
					</g>
				</g>
				<g>
					<g>
						<path class="st13" d="M16.4,9.1h-1c-0.1,0-0.3-0.1-0.3-0.3c0-0.1,0.1-0.3,0.3-0.3h1c0.1,0,0.3,0.1,0.3,0.3
							C16.6,9,16.5,9.1,16.4,9.1z"/>
					</g>
					<g>
						<path class="st13" d="M14.2,9.1h-1c-0.1,0-0.3-0.1-0.3-0.3c0-0.1,0.1-0.3,0.3-0.3h1c0.1,0,0.3,0.1,0.3,0.3S14.3,9.1,14.2,9.1z
							"/>
					</g>
				</g>
			</g>
		</g>
	</g>
	<g>
		<circle class="st3" cx="64.1" cy="3.5" r="0.8"/>
		<circle class="st3" cx="66.7" cy="3.5" r="0.8"/>
		<circle class="st3" cx="69.2" cy="3.5" r="0.8"/>
	</g>
</g>
</svg>
