<?xml version="1.0" encoding="utf-8"?>
<!-- Generator: Adobe Illustrator 25.4.1, SVG Export Plug-In . SVG Version: 6.00 Build 0)  -->
<svg version="1.1" id="Layer_1" xmlns="http://www.w3.org/2000/svg" xmlns:xlink="http://www.w3.org/1999/xlink" x="0px" y="0px"
	 viewBox="0 0 90.3 63.5" style="enable-background:new 0 0 90.3 63.5;" xml:space="preserve">
<style type="text/css">
	.st0{display:none;opacity:0.54;fill:#FFFFFF;enable-background:new    ;}
	.st1{opacity:0.1;}
	.st2{fill:#3B4751;}
	.st3{fill:#99AEBB;}
	.st4{fill:#647E99;}
	.st5{fill:#FFFFFF;}
	.st6{fill:#F97C8D;}
</style>
<rect x="-17.5" y="-30.4" class="st0" width="125.1" height="127.9"/>
<g>
	<g id="Background_00000025436241210251508500000011696859573663215028_" class="st1">
		<path class="st2" d="M72.3,5.4C61.5,0,57.7,5.5,42.8,4.7C37.1,4.2,36.2,2,29.3,2.3C10.7,3,6.7,33.6,23.7,39.1
			c16.8,5.5,14.2,21.1,36.4,20.1c13.5-0.7,9.3-16.9,15.6-25.6C85.4,20.4,82.6,10.5,72.3,5.4z M56.8,46.5c0.2-0.2,0.4-0.3,0.8-0.2
			c0.3,0.1,0.3,0.4,0.2,0.8c-0.2,0.2-0.4,0.3-0.8,0.2C56.8,47,56.6,46.6,56.8,46.5z"/>
		<path id="Background_00000086693675698752414690000016886387552296534700_" class="st2" d="M65,45.3c0,0,4.1,1.4,6.3,4.1
			c2,2.4,7,6.9-9.1,10.2c-14.8,3-43.9,4.4-37.8-2S0,56.1,0,49.2C0,39.3,65,45.3,65,45.3z"/>
		<path id="Background_00000094609793617504266990000006987884294070323891_" class="st2" d="M39.1,59.7c0,0-4.3-0.9-6.7-3
			s-8-5.8,7.5-11.4c14.4-5.3,42.9-10.7,37.8-3.4c-5.2,7.3,11.7,0.2,12.6,7C91.7,58.7,39.1,59.7,39.1,59.7z"/>
	</g>
	<g id="message">
		<g>
			<g>
				<g>
					<path class="st3" d="M75.6,12.3V35c0,3.2-2.7,5.9-5.9,5.9h-2v12.3L56.6,40.8H32.3c-3.2,0-5.9-2.7-5.9-5.9V12.3
						c0-3.2,2.7-5.9,5.9-5.9h37.4C72.9,6.4,75.6,9.1,75.6,12.3z"/>
				</g>
			</g>
		</g>
		<g>
			<g>
				<path class="st4" d="M59.2,20.8v22.7c0,3.2-2.7,5.9-5.9,5.9H34.7L23.6,61.6V49.3H16c-3.2,0-5.9-2.7-5.9-5.9V20.8
					c0-3.2,2.7-5.9,5.9-5.9h37.4C56.5,14.9,59.2,17.6,59.2,20.8z"/>
			</g>
		</g>
		<g>
			<circle class="st5" cx="21.4" cy="31.4" r="3.4"/>
			<circle class="st5" cx="35.2" cy="31.4" r="3.4"/>
			<circle class="st5" cx="48.6" cy="31.4" r="3.4"/>
		</g>
	</g>
	<g>
		<g>
			<g>
				<g>
					<path class="st5" d="M19,21c0.1,0,0.2,0.1,0.2,0.2V22c0,0.1-0.1,0.2-0.2,0.2s-0.2-0.1-0.2-0.2v-0.8C18.8,21.1,18.9,21,19,21z"
						/>
				</g>
			</g>
			<g>
				<g>
					<path class="st5" d="M19,19.6c0.1,0,0.2,0.1,0.2,0.2v0.8c0,0.1-0.1,0.2-0.2,0.2s-0.2-0.1-0.2-0.2v-0.8
						C18.8,19.7,18.9,19.6,19,19.6z"/>
				</g>
			</g>
		</g>
		<g>
			<g>
				<g>
					<path class="st5" d="M17.9,20.7h0.7c0.1,0,0.2,0.1,0.2,0.2s-0.1,0.2-0.2,0.2h-0.7c-0.1,0-0.2-0.1-0.2-0.2S17.9,20.7,17.9,20.7z
						"/>
				</g>
			</g>
			<g>
				<g>
					<path class="st5" d="M19.5,20.7h0.7c0.1,0,0.2,0.1,0.2,0.2s-0.1,0.2-0.2,0.2h-0.7c-0.1,0-0.2-0.1-0.2-0.2
						C19.2,20.7,19.4,20.7,19.5,20.7z"/>
				</g>
			</g>
		</g>
	</g>
	<g>
		<path class="st5" d="M71.1,9c0.7,0,1.1,0.6,1.1,1.1c0,0.6-0.6,1.1-1.1,1.1c-0.7,0-1.1-0.6-1.1-1.1C70,9.5,70.6,9,71.1,9z M71.1,11
			c0.4,0,0.8-0.3,0.8-0.8s-0.3-0.8-0.8-0.8c-0.4,0-0.8,0.3-0.8,0.8S70.7,11,71.1,11z"/>
	</g>
	<g id="star">
		<g>
			<path class="st4" d="M36.2,58.3l-1.5,0.9l0.3-1.8l-1.3-1.2l1.8-0.2l0.8-1.7l0.8,1.7l1.8,0.2l-1.3,1.2l0.3,1.8L36.2,58.3z"/>
			<path class="st4" d="M41.8,58.3l-1.5,0.9l0.3-1.8l-1.3-1.2L41,56l0.8-1.7l0.8,1.7l1.8,0.2L43,57.4l0.3,1.8L41.8,58.3z"/>
			<path class="st4" d="M47.8,58.3l-1.5,0.9l0.3-1.8l-1.3-1.2L47,56l0.8-1.7l0.8,1.7l1.8,0.2L49,57.4l0.3,1.8L47.8,58.3z"/>
			<path class="st4" d="M53.5,58.3L52,59.2l0.3-1.8l-1.4-1.2l1.8-0.2l0.8-1.7l0.8,1.7l1.8,0.2l-1.3,1.2l0.3,1.8L53.5,58.3z"/>
			<path class="st4" d="M59.2,58.3l-1.5,0.9l0.3-1.8l-1.3-1.2l1.8-0.2l0.8-1.7L60,56l1.8,0.2l-1.3,1.2l0.3,1.8L59.2,58.3z"/>
		</g>
	</g>
</g>
<g>
	<path class="st6" d="M78.2,50.3L78.2,50.3c-0.1,0-0.2-0.1-0.2-0.2v-1.2c0-0.1,0.1-0.2,0.2-0.2l0,0c0.1,0,0.2,0.1,0.2,0.2v1.2
		C78.5,50.2,78.4,50.3,78.2,50.3z"/>
	<path class="st6" d="M78.7,48.3L78.7,48.3c0-0.1,0.1-0.2,0.2-0.2h1.2c0.1,0,0.2,0.1,0.2,0.2l0,0c0,0.1-0.1,0.2-0.2,0.2h-1.2
		C78.8,48.6,78.7,48.4,78.7,48.3z"/>
	<path class="st6" d="M76.2,48.3L76.2,48.3c0-0.1,0.1-0.2,0.2-0.2h1.2c0.1,0,0.2,0.1,0.2,0.2l0,0c0,0.1-0.1,0.2-0.2,0.2h-1.2
		C76.3,48.6,76.2,48.4,76.2,48.3z"/>
	<path class="st6" d="M78.2,48L78.2,48c-0.1,0-0.2-0.1-0.2-0.2v-1.2c0-0.1,0.1-0.2,0.2-0.2l0,0c0.1,0,0.2,0.1,0.2,0.2v1.2
		C78.5,47.9,78.4,48,78.2,48z"/>
</g>
<g>
	<path class="st6" d="M24.3,5.6L24.3,5.6c-0.1,0-0.2-0.1-0.2-0.2V4.1c0-0.1,0.1-0.2,0.2-0.2l0,0c0.1,0,0.2,0.1,0.2,0.2v1.3
		C24.5,5.5,24.4,5.6,24.3,5.6z"/>
	<path class="st6" d="M24.7,3.5L24.7,3.5c0-0.1,0.1-0.2,0.2-0.2h1.3c0.1,0,0.2,0.1,0.2,0.2l0,0c0,0.1-0.1,0.2-0.2,0.2H25
		C24.9,3.8,24.7,3.7,24.7,3.5z"/>
	<path class="st6" d="M22.1,3.5L22.1,3.5c0-0.1,0.1-0.2,0.2-0.2h1.3c0.1,0,0.2,0.1,0.2,0.2l0,0c0,0.1-0.1,0.2-0.2,0.2h-1.3
		C22.2,3.8,22.1,3.7,22.1,3.5z"/>
	<path class="st6" d="M24.3,3.2L24.3,3.2c-0.1,0-0.2-0.1-0.2-0.2V1.6c0-0.1,0.1-0.2,0.2-0.2l0,0c0.1,0,0.2,0.1,0.2,0.2v1.3
		C24.5,3.1,24.4,3.2,24.3,3.2z"/>
</g>
</svg>
