<svg fill="none" xmlns="http://www.w3.org/2000/svg" viewBox="0 0 80 80"><path d="M12.2 47.04h7.35m5.65 0h12.95M5.95 25.99v-2.95a7 7 0 017-7H53.7a7 7 0 017 7v2.95m-54.75 0H60.7m-54.75 0v9.15m54.75-9.15v9.15H5.95m0 0v16.25a7 7 0 007 7H45.3m9.568-5.413l3.2 3.044a1.5 1.5 0 002.062.006L66.535 50m-19.85.592c.018-2.399 0-5.796 0-5.824 0-2.008 1.216-3.528 2.99-3.993 1.174-.307 9.053-2.677 9.053-2.677 1.442-.427 2.501-.412 3.948 0 0 0 7.878 2.37 9.052 2.677 1.774.465 2.99 1.986 2.99 3.993 0 .028-.018 3.425 0 5.824 0 10.242-5.347 14.986-13.057 19.186-.59.3-1.33.3-1.918 0-7.71-4.2-13.058-8.944-13.058-19.187z" stroke="currentColor" stroke-width="1.5" stroke-linecap="round" stroke-linejoin="round"/></svg>