<?xml version="1.0" encoding="utf-8"?>
<!-- Generator: Adobe Illustrator 25.4.1, SVG Export Plug-In . SVG Version: 6.00 Build 0)  -->
<svg version="1.1" id="Layer_1" xmlns="http://www.w3.org/2000/svg" xmlns:xlink="http://www.w3.org/1999/xlink" x="0px" y="0px"
	 viewBox="0 0 512 512" style="enable-background:new 0 0 512 512;" xml:space="preserve">
<style type="text/css">
	.st0{fill:url(#SVGID_1_);}
	.st1{fill:url(#SVGID_00000014599524226920324930000010227314907955985543_);}
	.st2{fill:url(#SVGID_00000077323507649624390710000011708340601901649306_);}
	.st3{fill:url(#SVGID_00000036240352199335411700000004383664240539196317_);}
	.st4{fill:url(#SVGID_00000029739114382917215020000009008328932956833669_);}
	.st5{fill:url(#SVGID_00000030480872340568151440000002446376550719475633_);}
</style>
<g>
	
		<linearGradient id="SVGID_1_" gradientUnits="userSpaceOnUse" x1="0.1346" y1="112.4458" x2="491.4699" y2="112.4458" gradientTransform="matrix(1 0 0 -1 0 514)">
		<stop  offset="0" style="stop-color:#2B4A9F"/>
		<stop  offset="1" style="stop-color:#2BBAED"/>
	</linearGradient>
	<path class="st0" d="M268.4,421.9l-0.3,0.4c-11.5,12.4-30.8,13.1-43.2,1.7c-0.6-0.5-1.1-1.1-1.7-1.7l0,0
		c-11.4-12.4-10.6-31.7,1.8-43.2c5.3-4.9,12.2-7.8,19.5-8.1h2.9c16.7,0.6,29.7,14.6,29.1,31.2C276.3,409.6,273.4,416.5,268.4,421.9z
		"/>
	
		<linearGradient id="SVGID_00000176763608849094867830000016546532700728111511_" gradientUnits="userSpaceOnUse" x1="0.1346" y1="243.8696" x2="491.5967" y2="243.8696" gradientTransform="matrix(1 0 0 -1 0 514)">
		<stop  offset="0" style="stop-color:#2B4A9F"/>
		<stop  offset="1" style="stop-color:#2BBAED"/>
	</linearGradient>
	<path style="fill:url(#SVGID_00000176763608849094867830000016546532700728111511_);" d="M246.7,216.9
		c-45.8-0.1-90.5,14.3-127.7,41.1c-13.8,9.8-17,29-7.1,42.8c0.7,1,1.5,2,2.3,2.9l9.2,9.9c10.5,11.5,27.9,13.2,40.4,4
		c39.9-29.9,92.8-36.3,138.7-16.8c9.9-23.8,27.2-43.8,49.4-57.1C319.6,225.9,283.5,216.7,246.7,216.9z"/>
	
		<linearGradient id="SVGID_00000090281198360859534020000006995194559920677535_" gradientUnits="userSpaceOnUse" x1="0.1324" y1="376.3598" x2="491.4333" y2="376.3598" gradientTransform="matrix(1 0 0 -1 0 514)">
		<stop  offset="0" style="stop-color:#2B4A9F"/>
		<stop  offset="1" style="stop-color:#2BBAED"/>
	</linearGradient>
	<path style="fill:url(#SVGID_00000090281198360859534020000006995194559920677535_);" d="M483.5,186.9l-10.1,11.2
		c-10.4,11.5-27.9,13.2-40.4,4c-111.3-82.8-263.9-82.7-375.1,0.3c-12.5,9.2-30,7.5-40.5-4l-9.3-10.3c-11.4-12.5-10.5-31.8,1.9-43.2
		c0.9-0.8,1.9-1.6,2.9-2.3c138.8-100.4,326.2-100.9,465.6-1.3c13.8,9.8,17,28.9,7.2,42.7C485.1,185,484.3,185.9,483.5,186.9z"/>
	
		<linearGradient id="SVGID_00000152254931508976207700000005115052516082034866_" gradientUnits="userSpaceOnUse" x1="414.247" y1="146.3157" x2="414.247" y2="120.0902" gradientTransform="matrix(1 0 0 -1 0 514)">
		<stop  offset="0.1" style="stop-color:#DADADF"/>
		<stop  offset="0.45" style="stop-color:#D0D1D5"/>
	</linearGradient>
	<path style="fill:url(#SVGID_00000152254931508976207700000005115052516082034866_);" d="M420.4,361.1c1,2.6,0.1,5.6-2.2,7.2
		c-0.4,0.3-0.7,0.9-0.7,1.5c0,3.3,0,6.5,0,9.8c0.1,1.8-1.4,3.4-3.2,3.4c-0.4,0-0.8,0-1.2-0.2c-1.4-0.6-2.2-1.9-2.2-3.4
		c0-3.2,0-6.4,0-9.6c0-0.6-0.3-1.2-0.8-1.5c-2.2-1.6-3.1-4.5-2.1-7.1c1.2-3.4,4.9-5.2,8.3-4C418.2,357.8,419.7,359.3,420.4,361.1
		L420.4,361.1z"/>
	
		<linearGradient id="SVGID_00000137844912878677409690000007945440299527860352_" gradientUnits="userSpaceOnUse" x1="414.2785" y1="208.237" x2="414.2785" y2="175.5112" gradientTransform="matrix(1 0 0 -1 0 514)">
		<stop  offset="0" style="stop-color:#DADADF"/>
		<stop  offset="0.66" style="stop-color:#D0D1D5"/>
	</linearGradient>
	<path style="fill:url(#SVGID_00000137844912878677409690000007945440299527860352_);" d="M427.3,316.5c0,6.8,0,13.6,0,20.5h-26.1
		c0,0,0,0,0-0.4c0-6.6,0-13.1,0-19.7c0.3-7.2,6.4-12.8,13.6-12.4C421.5,304.8,426.8,309.9,427.3,316.5z"/>
	
		<linearGradient id="SVGID_00000137843603267232823670000001272924608397907351_" gradientUnits="userSpaceOnUse" x1="413.9143" y1="182.6839" x2="413.9143" y2="-13.4467" gradientTransform="matrix(1 0 0 -1 0 514)">
		<stop  offset="0" style="stop-color:#DADADF"/>
		<stop  offset="0.24" style="stop-color:#D0D1D5"/>
		<stop  offset="0.55" style="stop-color:#B4B5BA"/>
		<stop  offset="1" style="stop-color:#8E9197"/>
	</linearGradient>
	<path style="fill:url(#SVGID_00000137843603267232823670000001272924608397907351_);" d="M483.1,277.8
		c-38.3-38.2-100.3-38.2-138.5,0.1s-38.2,100.3,0.1,138.5s100.3,38.2,138.5-0.1c18.3-18.4,28.6-43.3,28.6-69.2
		C511.9,321.1,501.5,296.2,483.1,277.8z M453.6,383.1c-0.1,7.1-5.8,12.9-12.9,12.9h-52.8c-7.1-0.1-12.9-5.8-12.9-12.9
		c0-11.2,0-22,0-32.9c-0.1-4.6,2.4-8.9,6.4-11.2c2-1.2,4.3-1.8,6.6-1.8v-1.2c0-6.2,0-12.4,0-18.7c-0.1-11.8,7.7-22.2,19.1-25.4
		c1.4-0.4,2.9-0.7,4.3-1h5.6h0.6c13,1.7,22.7,12.8,22.8,25.8v19.8h0.5c7.1,0.2,12.7,6.1,12.6,13.2L453.6,383.1z"/>
</g>
</svg>
