<?xml version="1.0" encoding="utf-8"?>
<!-- Generator: Adobe Illustrator 25.4.1, SVG Export Plug-In . SVG Version: 6.00 Build 0)  -->
<svg version="1.1" id="Layer_1" xmlns="http://www.w3.org/2000/svg" xmlns:xlink="http://www.w3.org/1999/xlink" x="0px" y="0px"
	 viewBox="0 0 91.3 67.5" style="enable-background:new 0 0 91.3 67.5;" xml:space="preserve">
<style type="text/css">
	.st0{fill:#DCEEFF;}
	.st1{fill:url(#SVGID_1_);}
	.st2{fill:url(#SVGID_00000131353434578760403140000009269227126418441375_);}
	.st3{fill:url(#SVGID_00000154399200747344665810000009298098802640286624_);}
	.st4{fill:url(#SVGID_00000183947692547378111120000017570148332052788909_);}
	.st5{fill:url(#SVGID_00000081616744704191386630000003060113739501493950_);}
	.st6{fill:url(#SVGID_00000016050498696058441180000011897218492391830696_);}
	.st7{fill:url(#SVGID_00000081638181634581228720000003967152831716069267_);}
	.st8{fill:url(#SVGID_00000141418430097611885670000003960028433793050760_);}
	.st9{fill:url(#SVGID_00000078748721000458515750000017766136539356073865_);}
	.st10{fill:url(#SVGID_00000181802819783187559800000018335337077536234384_);}
	.st11{fill:#FCFCFC;}
	.st12{fill:url(#SVGID_00000077281910759121052630000010465094724786595730_);}
	.st13{fill:url(#SVGID_00000022523509467714805150000010652906554566441407_);}
	.st14{fill:url(#SVGID_00000121981409204806794190000013006899242208125323_);}
	.st15{fill:url(#SVGID_00000059295831408027178590000001671230000035840406_);}
</style>
<g>
	<path class="st0" d="M83.2,8.8v30.3c-4.6-1.1-9.7,0.2-13.3,3.8C64.8,48,64.4,56,68.6,61.6H4.8c-2.6,0-4.7-2.1-4.7-4.7V8.8
		c0-2.6,2.1-4.7,4.7-4.7h73.8C81.1,4.1,83.2,6.2,83.2,8.8z"/>
	
		<linearGradient id="SVGID_1_" gradientUnits="userSpaceOnUse" x1="34.3943" y1="53.913" x2="65.1743" y2="85.8749" gradientTransform="matrix(1 0 0 -1 0 70)">
		<stop  offset="0" style="stop-color:#12BBF2"/>
		<stop  offset="0.3779" style="stop-color:#1791DC"/>
		<stop  offset="0.7867" style="stop-color:#1B6AC7"/>
		<stop  offset="1" style="stop-color:#1D5BBF"/>
	</linearGradient>
	<path class="st1" d="M83.2,11H0.1V7.9c0-2.6,2.1-4.7,4.7-4.7h73.8c2.6,0,4.7,2.1,4.7,4.7V11H83.2z"/>
	<circle class="st0" cx="69" cy="6.7" r="1.2"/>
	<circle class="st0" cx="73.9" cy="6.7" r="1.2"/>
	<circle class="st0" cx="79" cy="6.7" r="1.2"/>
	<g>
		<g>
			
				<linearGradient id="SVGID_00000030470220963652847080000003835186894682326416_" gradientUnits="userSpaceOnUse" x1="21.2" y1="47.2" x2="61.9531" y2="47.2" gradientTransform="matrix(1 0 0 -1 0 70)">
				<stop  offset="8.199069e-03" style="stop-color:#12BBF2"/>
				<stop  offset="0.9627" style="stop-color:#1C64C4"/>
			</linearGradient>
			<path style="fill:url(#SVGID_00000030470220963652847080000003835186894682326416_);" d="M25.2,20.3v5h-0.9l-1.9-2.7v2.7h-1.2v-5
				h0.9L24,23v-2.7H25.2z"/>
			
				<linearGradient id="SVGID_00000183210412534123747050000012951666098956510100_" gradientUnits="userSpaceOnUse" x1="21.2029" y1="47.2" x2="61.956" y2="47.2" gradientTransform="matrix(1 0 0 -1 0 70)">
				<stop  offset="8.199069e-03" style="stop-color:#12BBF2"/>
				<stop  offset="0.9627" style="stop-color:#1C64C4"/>
			</linearGradient>
			<path style="fill:url(#SVGID_00000183210412534123747050000012951666098956510100_);" d="M25.8,22.8c0-1.5,1.2-2.6,2.6-2.6
				s2.6,1.1,2.6,2.6s-1.2,2.6-2.6,2.6S25.8,24.3,25.8,22.8z M29.9,22.8c0-0.9-0.6-1.5-1.5-1.5c-0.8,0-1.5,0.6-1.5,1.5
				s0.6,1.5,1.5,1.5S29.9,23.7,29.9,22.8z"/>
			
				<linearGradient id="SVGID_00000025410267634221111720000012369963977883668911_" gradientUnits="userSpaceOnUse" x1="21.2029" y1="47.2" x2="61.956" y2="47.2" gradientTransform="matrix(1 0 0 -1 0 70)">
				<stop  offset="8.199069e-03" style="stop-color:#12BBF2"/>
				<stop  offset="0.9627" style="stop-color:#1C64C4"/>
			</linearGradient>
			<path style="fill:url(#SVGID_00000025410267634221111720000012369963977883668911_);" d="M37.4,20.3v5h-1.2v-2h-1.6v2h-1.2v-5
				h1.2v1.9h1.6v-1.9H37.4z"/>
			
				<linearGradient id="SVGID_00000105412432142409341610000015063077297870948753_" gradientUnits="userSpaceOnUse" x1="21.2029" y1="47.2" x2="61.956" y2="47.2" gradientTransform="matrix(1 0 0 -1 0 70)">
				<stop  offset="8.199069e-03" style="stop-color:#12BBF2"/>
				<stop  offset="0.9627" style="stop-color:#1C64C4"/>
			</linearGradient>
			<path style="fill:url(#SVGID_00000105412432142409341610000015063077297870948753_);" d="M39.4,20.3v5h-1.2v-5H39.4z"/>
			<g>
				
					<linearGradient id="SVGID_00000111174352506665178980000006457990342167996061_" gradientUnits="userSpaceOnUse" x1="21.2029" y1="47.05" x2="61.956" y2="47.05" gradientTransform="matrix(1 0 0 -1 0 70)">
					<stop  offset="8.199069e-03" style="stop-color:#12BBF2"/>
					<stop  offset="0.9627" style="stop-color:#1C64C4"/>
				</linearGradient>
				<path style="fill:url(#SVGID_00000111174352506665178980000006457990342167996061_);" d="M40,24.2l1-0.6
					c0.2,0.4,0.5,0.7,1.1,0.7c0.5,0,0.7-0.2,0.7-0.4c0-0.3-0.3-0.4-1-0.6c-0.8-0.2-1.5-0.6-1.5-1.5c0-1,0.8-1.5,1.7-1.5
					c0.8,0,1.5,0.4,1.8,1.1l-1,0.6c-0.2-0.4-0.4-0.6-0.9-0.6c-0.4,0-0.5,0.2-0.5,0.4c0,0.2,0.1,0.4,0.9,0.6c0.8,0.2,1.6,0.5,1.6,1.6
					c0,1-0.8,1.6-1.9,1.6C40.9,25.5,40.3,25,40,24.2z"/>
			</g>
			
				<linearGradient id="SVGID_00000021098669401692239660000004589764829144513706_" gradientUnits="userSpaceOnUse" x1="21.2029" y1="47.2" x2="61.956" y2="47.2" gradientTransform="matrix(1 0 0 -1 0 70)">
				<stop  offset="8.199069e-03" style="stop-color:#12BBF2"/>
				<stop  offset="0.9627" style="stop-color:#1C64C4"/>
			</linearGradient>
			<path style="fill:url(#SVGID_00000021098669401692239660000004589764829144513706_);" d="M47.7,21.4h-1.3v3.9h-1.2v-3.9h-1.3
				v-1.1h3.8V21.4z"/>
			
				<linearGradient id="SVGID_00000014606954886254124130000006962654491922729100_" gradientUnits="userSpaceOnUse" x1="21.2029" y1="47.1971" x2="61.956" y2="47.1971" gradientTransform="matrix(1 0 0 -1 0 70)">
				<stop  offset="8.199069e-03" style="stop-color:#12BBF2"/>
				<stop  offset="0.9627" style="stop-color:#1C64C4"/>
			</linearGradient>
			<path style="fill:url(#SVGID_00000014606954886254124130000006962654491922729100_);" d="M47.7,22.8c0-1.5,1.2-2.6,2.6-2.6
				c1.4,0,2.6,1.1,2.6,2.6s-1.2,2.6-2.6,2.6C48.8,25.5,47.7,24.3,47.7,22.8z M51.8,22.8c0-0.9-0.6-1.5-1.5-1.5
				c-0.8,0-1.5,0.6-1.5,1.5s0.6,1.5,1.5,1.5C51.1,24.3,51.8,23.7,51.8,22.8z"/>
			
				<linearGradient id="SVGID_00000091011287812497560100000015359339624726624446_" gradientUnits="userSpaceOnUse" x1="21.2029" y1="47.05" x2="61.956" y2="47.05" gradientTransform="matrix(1 0 0 -1 0 70)">
				<stop  offset="8.199069e-03" style="stop-color:#12BBF2"/>
				<stop  offset="0.9627" style="stop-color:#1C64C4"/>
			</linearGradient>
			<path style="fill:url(#SVGID_00000091011287812497560100000015359339624726624446_);" d="M55.3,23.7h-0.5v1.7h-1.2v-5h2
				c1,0,1.7,0.8,1.7,1.7c0,0.6-0.4,1.2-0.9,1.5l1.1,1.9h-1.2L55.3,23.7z M54.7,22.7h0.9c0.3,0,0.6-0.3,0.6-0.6
				c0-0.4-0.3-0.6-0.6-0.6h-0.9V22.7z"/>
			
				<linearGradient id="SVGID_00000057124879576190651880000004787360614987938183_" gradientUnits="userSpaceOnUse" x1="21.2029" y1="47.2" x2="61.956" y2="47.2" gradientTransform="matrix(1 0 0 -1 0 70)">
				<stop  offset="8.199069e-03" style="stop-color:#12BBF2"/>
				<stop  offset="0.9627" style="stop-color:#1C64C4"/>
			</linearGradient>
			<path style="fill:url(#SVGID_00000057124879576190651880000004787360614987938183_);" d="M60.3,23.4v1.9h-1.2v-1.9l-1.7-3.1h1.3
				l1,1.9l1-1.9H62L60.3,23.4z"/>
		</g>
	</g>
	<g>
		<path class="st11" d="M66.6,39.1H17.5c-1.7,0-3-1.3-3-3v-0.2c0-1.7,1.3-3,3-3h49.2c1.7,0,3,1.3,3,3v0.2
			C69.6,37.8,68.3,39.1,66.6,39.1z"/>
		
			<linearGradient id="SVGID_00000037659479860626888220000014113168629950624685_" gradientUnits="userSpaceOnUse" x1="14.4589" y1="34" x2="30.08" y2="34" gradientTransform="matrix(1 0 0 -1 0 70)">
			<stop  offset="0" style="stop-color:#12BBF2"/>
			<stop  offset="0.3779" style="stop-color:#1791DC"/>
			<stop  offset="0.7867" style="stop-color:#1B6AC7"/>
			<stop  offset="1" style="stop-color:#1D5BBF"/>
		</linearGradient>
		<path style="fill:url(#SVGID_00000037659479860626888220000014113168629950624685_);" d="M21.7,39.1h-4.2c-1.7,0-3-1.3-3-3v-0.2
			c0-1.7,1.3-3,3-3h4.2V39.1z"/>
		<path class="st11" d="M18,34.4c0.8,0,1.5,0.7,1.5,1.5s-0.7,1.5-1.5,1.5s-1.5-0.7-1.5-1.5S17.1,34.4,18,34.4z M18,37
			c0.6,0,1.2-0.5,1.2-1.2c0-0.6-0.5-1.2-1.2-1.2c-0.6,0-1.2,0.5-1.2,1.2S17.3,37,18,37z M19.4,37l0.5,0.5l-0.2,0.2l-0.5-0.5
			C19.1,37.3,19.4,37,19.4,37z"/>
	</g>
	<g>
		
			<linearGradient id="SVGID_00000176725939122350104770000003720875612543208625_" gradientUnits="userSpaceOnUse" x1="80.1176" y1="753.4223" x2="80.1176" y2="756.419" gradientTransform="matrix(1 0 0 1 0 -698)">
			<stop  offset="0.1" style="stop-color:#D9DADF"/>
			<stop  offset="0.45" style="stop-color:#CFD0D5"/>
		</linearGradient>
		<path style="fill:url(#SVGID_00000176725939122350104770000003720875612543208625_);" d="M80.8,54.7c0.1,0.3,0,0.6-0.2,0.8
			c-0.1,0-0.1,0.1-0.1,0.2c0,0.4,0,0.7,0,1.1c0,0.2-0.2,0.4-0.4,0.4H80c-0.2-0.1-0.3-0.2-0.2-0.4c0-0.4,0-0.7,0-1.1
			c0-0.1,0-0.1-0.1-0.2c-0.3-0.2-0.4-0.5-0.2-0.8c0.1-0.4,0.6-0.6,0.9-0.5C80.6,54.3,80.7,54.5,80.8,54.7L80.8,54.7z"/>
		
			<linearGradient id="SVGID_00000046333934231720363890000008356857879630098610_" gradientUnits="userSpaceOnUse" x1="80.1" y1="746.3466" x2="80.1" y2="750.0861" gradientTransform="matrix(1 0 0 1 0 -698)">
			<stop  offset="0" style="stop-color:#D9DADF"/>
			<stop  offset="0.66" style="stop-color:#CFD0D5"/>
		</linearGradient>
		<path style="fill:url(#SVGID_00000046333934231720363890000008356857879630098610_);" d="M81.6,49.6c0,0.8,0,1.6,0,2.3h-3l0,0
			c0-0.7,0-1.5,0-2.2c0-0.8,0.7-1.5,1.6-1.4C80.9,48.2,81.5,48.8,81.6,49.6z"/>
		
			<linearGradient id="SVGID_00000162346759477732829910000004350800001182876063_" gradientUnits="userSpaceOnUse" x1="80.1187" y1="749.2665" x2="80.1187" y2="771.6665" gradientTransform="matrix(1 0 0 1 0 -698)">
			<stop  offset="0" style="stop-color:#D9DADF"/>
			<stop  offset="0.24" style="stop-color:#CFD0D5"/>
			<stop  offset="0.55" style="stop-color:#B3B5BA"/>
			<stop  offset="1" style="stop-color:#8E9196"/>
		</linearGradient>
		<path style="fill:url(#SVGID_00000162346759477732829910000004350800001182876063_);" d="M88,45.2c-4.4-4.4-11.5-4.4-15.8,0
			s-4.4,11.5,0,15.8c4.4,4.4,11.5,4.4,15.8,0c2.1-2.1,3.3-4.9,3.3-7.9S90.1,47.2,88,45.2z M84.6,57.2c0,0.8-0.7,1.5-1.5,1.5h-6
			c-0.8,0-1.5-0.7-1.5-1.5c0-1.3,0-2.5,0-3.8c0-0.5,0.3-1,0.7-1.3c0.2-0.1,0.5-0.2,0.8-0.2v-0.1c0-0.7,0-1.4,0-2.1
			c0-1.3,0.9-2.5,2.2-2.9c0.2,0,0.3-0.1,0.5-0.1h0.6h0.1c1.5,0.2,2.6,1.5,2.6,3V52h0.1c0.8,0,1.5,0.7,1.4,1.5L84.6,57.2z"/>
	</g>
</g>
</svg>
