<svg xmlns="http://www.w3.org/2000/svg" xmlns:xlink="http://www.w3.org/1999/xlink" viewBox="0 0 1370.74 998.24"><defs><linearGradient id="a" x1="517.28" y1="563.3" x2="517.28" y2="1075.59" gradientUnits="userSpaceOnUse"><stop offset="0" stop-color="#dceeff"/><stop offset="1" stop-color="#a9d6fc"/></linearGradient><linearGradient id="b" x1="890.2" y1="975.87" x2="890.2" y2="516.24" gradientUnits="userSpaceOnUse"><stop offset="0" stop-color="#55e3c9"/><stop offset="1" stop-color="#15b798"/></linearGradient><linearGradient id="c" x1="890.2" y1="947.54" x2="890.2" y2="544.57" gradientUnits="userSpaceOnUse"><stop offset="0" stop-color="#15b798"/><stop offset="0.18" stop-color="#27c4a6"/><stop offset="0.49" stop-color="#40d5b9"/><stop offset="0.77" stop-color="#50dfc5"/><stop offset="1" stop-color="#55e3c9"/></linearGradient></defs><path d="M1258.41,726.62V28.08A27.72,27.72,0,0,0,1230.33,0H140.41a27.73,27.73,0,0,0-28.09,28.08V724.86c0,14,10.54,24.57,24.58,24.57H1235.6C1247.88,751.19,1258.41,738.9,1258.41,726.62Z" fill="#dceeff"/><path d="M1370.74,752.94v10.53c0,3.51-3.51,7-7,8.78l-24.57,10.53c-10.53,5.26-21.06,7-33.35,7H68.45c-12.29,0-24.57-1.76-36.86-7l-21.06-7a33.45,33.45,0,0,1-4.47-3.51C2.64,769,0,764.94,0,760v-8.77H1369C1370.74,751.19,1370.74,751.19,1370.74,752.94Z" fill="#91b8d8"/><path d="M596.74,751.19v5.26a7.55,7.55,0,0,0,7,7H767a7.55,7.55,0,0,0,7-7v-5.26Z" fill="#657f99"/><path d="M1363.72,772.25l-24.57,10.53c-10.53,5.26-21.06,7-33.35,7H68.45c-12.29,0-24.57-1.76-36.86-7l-21.06-7a33.45,33.45,0,0,1-4.47-3.51Z" fill="#0b4479"/><circle cx="684.49" cy="14.04" r="7.02" fill="#8098aa" stroke="#7b93a8" stroke-miterlimit="10" stroke-width="0.15"/><path d="M391.39,252.74c1.75,49.14,15.79,94.77,40.37,136.89l40.36-24.57c-21.06-35.1-31.59-75.47-33.34-115.83Z" fill="none"/><path d="M1142.58,645.88h-8.78v-8.77c0-3.51-1.76-5.27-3.51-5.27h0q-5.26,0-5.27,5.27h0v8.77h-8.77q-5.26,0-5.27,5.27h0q0,5.26,5.27,5.26H1125v8.78q0,5.26,5.27,5.26h0q5.26,0,5.26-5.26h0v-8.78h8.78q5.26,0,5.27-5.26h0c-1.76-3.51-3.51-5.27-7-5.27Z" fill="#c5c8cb"/><path d="M159.71,29.84H1216.29a17.58,17.58,0,0,1,17.55,17.55V696.78a17.58,17.58,0,0,1-17.55,17.55H159.71a17.59,17.59,0,0,1-17.55-17.55V47.39A17.59,17.59,0,0,1,159.71,29.84Z" fill="#1171bb"/><path d="M1105.72,73.71c0,7-7,14.05-14,14.05s-14-7-14-14.05,7-14,14-14S1105.72,66.69,1105.72,73.71Z" fill="#fff"/><path d="M1153.11,73.71c0,7-7,14.05-14,14.05s-14-7-14-14.05,7-14,14-14h0C1146.09,59.67,1153.11,66.69,1153.11,73.71Z" fill="#fff"/><path d="M1200.49,73.71c0,7-7,14.05-14,14.05a13.85,13.85,0,0,1-14-14.05h0c0-7,7-14,14-14S1200.49,66.69,1200.49,73.71Z" fill="#fff"/><path d="M1248.93,50.2V735.35H1083.55l-701.3-728h823.83A42.85,42.85,0,0,1,1248.93,50.2Z" fill="#fff" opacity="0.2" style="isolation:isolate"/><path d="M773.42,160.79v805A32.44,32.44,0,0,1,741,998.24H293.57a32.44,32.44,0,0,1-32.44-32.44v-805a32.41,32.41,0,0,1,32.44-32.44H741a32.41,32.41,0,0,1,32.44,32.44Z" fill="url(#a)"/><path d="M752.78,166.23V960.36a17,17,0,0,1-16.95,16.95H298.72a17,17,0,0,1-17-16.95V166.23a17,17,0,0,1,17-16.95h78.51A16.75,16.75,0,0,1,394,166V189.1a16.6,16.6,0,0,0,16.59,16.6H623.9A16.67,16.67,0,0,0,640.57,189V165.74A16.46,16.46,0,0,1,657,149.28h78.8A17,17,0,0,1,752.78,166.23Z" fill="#1171bb"/><circle cx="513.68" cy="562.8" r="114.25" fill="#00a2fd"/><circle cx="513.68" cy="562.8" r="103.22" fill="#0074c3"/><circle cx="513.68" cy="562.8" r="88.93" fill="#55e3c9"/><path d="M489.83,528.74h0a4.62,4.62,0,0,1-.71,6.12,37.2,37.2,0,1,0,49.1,0,4.62,4.62,0,0,1-.7-6.11h0a4.67,4.67,0,0,1,6.93-.8,46.5,46.5,0,1,1-61.54,0A4.66,4.66,0,0,1,489.83,528.74ZM509,558.15V521a4.65,4.65,0,0,1,4.65-4.65h0a4.65,4.65,0,0,1,4.65,4.65v37.19a4.65,4.65,0,0,1-4.65,4.65h0A4.65,4.65,0,0,1,509,558.15Z" fill="#066ecc"/><rect x="427.19" y="955.48" width="180.17" height="9.1" rx="4.55" fill="#ade1f7"/><path d="M773.42,160.79V941.71h-7L261.13,417.24V160.79A32.3,32.3,0,0,1,263.34,149H771.21A32.3,32.3,0,0,1,773.42,160.79Z" fill="#fff" opacity="0.2" style="isolation:isolate"/><rect x="469.05" y="163.84" width="141.04" height="19.11" rx="9.55" fill="#1171bb"/><circle cx="435.38" cy="173.39" r="10.92" fill="#1171bb"/><path d="M1079.66,681.89c0-17.67-.41-30.29.13-42.86.41-9.59-3.44-15.56-11.6-20.37q-82.89-48.88-165.4-98.4c-8.79-5.28-16-5.42-24.9-.07Q795.06,570,711.73,619.06c-7.93,4.68-11.24,10.64-11,19.77.43,18.29-1,36.69.42,54.88,2,25.92,3.16,52.41,9.57,77.39,24.16,94.07,79.15,163.35,169.57,202.52a23.53,23.53,0,0,0,19.81.12c59.15-24.67,104.32-65.25,136.65-120.23A310.87,310.87,0,0,0,1079.66,681.89Z" fill="url(#b)"/><path d="M1056.3,689.8c0-15.49-.36-26.55.12-37.58.36-8.4-3-13.64-10.17-17.86q-72.68-42.86-145-86.26c-7.71-4.64-14-4.75-21.83-.07q-72.63,43.71-145.68,86.68c-7,4.11-9.85,9.33-9.66,17.34.38,16-.89,32.17.36,48.12,1.79,22.72,2.78,45.94,8.4,67.84C754,850.49,802.22,911.23,881.49,945.56a20.6,20.6,0,0,0,17.37.11c51.86-21.63,91.46-57.21,119.81-105.41A272.55,272.55,0,0,0,1056.3,689.8Z" fill="url(#c)"/><path d="M890.22,544.57v403a22.07,22.07,0,0,1-8.73-2C802.22,911.22,754,850.48,732.83,768c-5.62-21.9-6.61-45.12-8.39-67.84-1.25-16,0-32.08-.37-48.12-.19-8,2.7-13.23,9.66-17.34q73-43.07,145.67-86.68C883.26,545.72,886.74,544.58,890.22,544.57Z" fill="#fff" opacity="0.17"/><path d="M890.2,642.53a51.82,51.82,0,0,0-51.76,51.76v31.06H828.09a20.71,20.71,0,0,0-20.71,20.7v82.82a20.71,20.71,0,0,0,20.71,20.71H952.32A20.71,20.71,0,0,0,973,828.87V746.05a20.7,20.7,0,0,0-20.7-20.7H942V694.29A51.82,51.82,0,0,0,890.2,642.53Zm-31.05,51.76a31.06,31.06,0,1,1,62.11,0v31.06H859.15Zm41.41,111v23.57H879.85V805.3A20.68,20.68,0,1,1,910.42,783a20.56,20.56,0,0,1-9.86,22.31Z" fill="#fff"/></svg>