<?xml version="1.0" encoding="utf-8"?>
<!-- Generator: Adobe Illustrator 23.0.1, SVG Export Plug-In . SVG Version: 6.00 Build 0)  -->
<svg version="1.1" id="Layer_1" xmlns="http://www.w3.org/2000/svg" xmlns:xlink="http://www.w3.org/1999/xlink" x="0px" y="0px"
	 viewBox="0 0 384.3 232.5" style="enable-background:new 0 0 384.3 232.5;" xml:space="preserve">
<style type="text/css">
	.st0{fill:url(#SVGID_1_);}
	.st1{opacity:0.5;fill:url(#SVGID_2_);enable-background:new    ;}
	.st2{fill:url(#SVGID_3_);}
	.st3{opacity:0.5;}
	.st4{fill:#FFFFFF;}
	.st5{opacity:0.2;fill:#FFFFFF;enable-background:new    ;}
	.st6{opacity:0.1;fill:url(#SVGID_4_);enable-background:new    ;}
	.st7{fill:url(#SVGID_5_);}
	.st8{fill:#7293B2;}
	.st9{opacity:0.1;enable-background:new    ;}
	.st10{fill:#F2F2F2;}
	.st11{fill:#018F98;}
	.st12{fill:url(#SVGID_6_);}
	.st13{opacity:0.3;fill:#FFFFFF;enable-background:new    ;}
	.st14{fill:#00B5F8;}
	.st15{fill:url(#SVGID_7_);}
	.st16{fill:url(#SVGID_8_);}
	.st17{fill:none;stroke:#00B5F8;stroke-width:2;stroke-linecap:round;stroke-linejoin:round;}
</style>
<title>hotbot-unbreakable-vpn-security-2</title>
<g>
	<g id="Layer_1-2">
		<g id="monitor">
			
				<linearGradient id="SVGID_1_" gradientUnits="userSpaceOnUse" x1="196.47" y1="231.8898" x2="196.47" y2="62.7998" gradientTransform="matrix(1 0 0 -1 0 231.8898)">
				<stop  offset="0" style="stop-color:#DCEEFF"/>
				<stop  offset="0.39" style="stop-color:#D9ECFD"/>
				<stop  offset="0.63" style="stop-color:#D1E4F8"/>
				<stop  offset="0.84" style="stop-color:#C2D7EE"/>
				<stop  offset="1" style="stop-color:#B0C7E2"/>
			</linearGradient>
			<path class="st0" d="M327.9,4.2v160.7c0,2.3-1.8,4.2-4.1,4.2c0,0,0,0,0,0H69.2c-2.3,0-4.1-1.9-4.1-4.2c0,0,0,0,0,0V4.2
				C65,1.9,66.9,0,69.2,0c0,0,0,0,0,0h254.6C326,0,327.9,1.9,327.9,4.2C327.9,4.2,327.9,4.2,327.9,4.2z"/>
			
				<linearGradient id="SVGID_2_" gradientUnits="userSpaceOnUse" x1="196.47" y1="231.8898" x2="196.47" y2="45.4398" gradientTransform="matrix(1 0 0 -1 0 231.8898)">
				<stop  offset="0.81" style="stop-color:#D8D8D8;stop-opacity:0"/>
				<stop  offset="0.89" style="stop-color:#EFEFEF;stop-opacity:0.6"/>
				<stop  offset="0.94" style="stop-color:#FFFFFF"/>
			</linearGradient>
			<path class="st1" d="M327.9,4.2v160.7c0,2.3-1.8,4.2-4.1,4.2c0,0,0,0,0,0H69.2c-2.3,0-4.1-1.9-4.1-4.2c0,0,0,0,0,0V4.2
				C65,1.9,66.9,0,69.2,0c0,0,0,0,0,0h254.6C326,0,327.9,1.9,327.9,4.2C327.9,4.2,327.9,4.2,327.9,4.2z"/>
			
				<radialGradient id="SVGID_3_" cx="270.0829" cy="149.4098" r="136.32" gradientTransform="matrix(0.98 0 0 -1 -68.78 231.8898)" gradientUnits="userSpaceOnUse">
				<stop  offset="0" style="stop-color:#2782CC"/>
				<stop  offset="0.53" style="stop-color:#2582CD"/>
				<stop  offset="0.75" style="stop-color:#1E83CF"/>
				<stop  offset="0.9" style="stop-color:#1385D3"/>
			</radialGradient>
			<rect x="75.2" y="9.2" class="st2" width="242.5" height="146.5"/>
			<g class="st3">
				<path class="st4" d="M249.7,63.1c-0.5-1.8-1.1-3.6-1.8-5.4c2.3-1.8,1.6-6.4-2.2-6.5c-4.6,0-4.7,7-0.1,7.2
					c1.5,4.3,2.2,8.8,2.1,13.4c-0.1,2.8-0.6,5.6-1.4,8.3c-1-4-4.5-5-8.4-5.2c-3.7-11-15.2-15.3-26.4-15.4c-6-0.6-12-0.9-18.1-0.7
					c-4,0.1-8,0.3-11.9,0.7c-4.4-0.1-8.7,0.6-12.8,2.2c-6.4,2.4-11.5,6.8-13.7,13.2c-3.9,0.2-7.4,1.3-8.3,5.5
					c-1.9-6.1-2-12.7-0.4-18.9c0.2-0.9,0.6-2,1-3.2h0.1c4.7,0,4.7-7.1,0-7.2c-3.7,0-4.5,4.5-2.3,6.3c-0.7,1.8-1.4,3.6-1.9,5.4
					c-2.9,10-0.5,21,3.9,30.2l0.1-0.1c0.9,2.5,2.7,4.3,6.4,4.4h2.3c2.6,7.2,8,12.6,17.4,14.3c14.6,2.3,29.4,2.4,44,0.3
					c0.8-0.1,1.5-0.2,2.3-0.3c8-1.3,14.7-6.7,17.6-14.3h2.4c3.7-0.1,5.6-2,6.4-4.4l0.1,0.1c2.8-5.6,4.5-11.7,5-18
					C251.4,71.1,250.9,67,249.7,63.1z M229.7,83.1c-0.1,7.2-1.1,14.7-7,18.3c-1.5,0.9-3.2,1.5-5,1.8c-2.7,0.4-5.5,0.8-8.2,1.1
					c-11.4,1.1-23,0.7-34.3-1.1c-10.4-1.8-11.9-11.2-12-20.1c-0.3-8.8,5-12.9,12-14.5c2.5-0.5,5-0.8,7.5-0.8
					c5.4-0.6,10.9-0.8,16.4-0.7c3.7,0.1,7.5,0.3,11.2,0.7C220.3,67.7,230.3,71.2,229.7,83.1L229.7,83.1z"/>
				<path class="st4" d="M174.6,83.3c-0.5,3.1,2.6,0.7,5.9,1.3s5.5,3.6,6,0.6C187.4,77.8,175.9,76,174.6,83.3z M218.4,83.3
					c-0.1-1-0.6-2-1.3-2.8c-0.3-0.4-0.7-0.7-1.1-0.9l-0.4-0.2c-0.2-0.1-0.3-0.1-0.5-0.2c-0.2-0.1-0.4-0.1-0.6-0.2l-0.4-0.1
					c-0.3-0.1-0.6-0.1-0.8-0.1h-0.1c-1.8-0.1-3.6,0.4-5,1.6c-1.4,1.2-2.1,3-1.8,4.8c0.1,0.8,0.4,1.2,0.8,1.3h0.2c0.1,0,0.1,0,0.2,0
					c0.9-0.1,2.1-1.1,3.7-1.6c0.3-0.1,0.7-0.2,1-0.3h0.2C215.8,84,218.9,86.3,218.4,83.3z"/>
				<path class="st4" d="M174.6,83.3c-0.5,3.1,2.6,0.7,5.9,1.3s5.5,3.6,6,0.6C187.4,77.8,175.9,76,174.6,83.3z M218.5,83.3
					c-0.1-1.1-0.6-2.1-1.3-2.9c-0.3-0.4-0.7-0.7-1.1-0.9l-0.4-0.2c-0.2-0.1-0.3-0.1-0.5-0.2c-0.2-0.1-0.4-0.1-0.6-0.2l-0.4-0.1
					c-0.3-0.1-0.6-0.1-0.8-0.1h-0.1c-1.8-0.1-3.6,0.5-5,1.6c-1.4,1.2-2,3-1.7,4.8c0.1,0.8,0.4,1.2,0.8,1.3h0.2c0.1,0,0.1,0,0.2,0
					c0.9-0.1,2.1-1,3.7-1.6l0.4-0.1c0.2-0.1,0.4-0.1,0.6-0.1h0.2C215.9,84,219,86.3,218.5,83.3z"/>
				<path class="st4" d="M174.6,83.3c-0.5,3.1,2.6,0.7,5.9,1.3s5.5,3.6,6,0.6C187.4,77.8,175.9,76,174.6,83.3z M218.5,83.3
					c-0.1-1.1-0.6-2.1-1.3-2.9c-0.3-0.4-0.7-0.7-1.1-0.9l-0.4-0.2c-0.2-0.1-0.3-0.1-0.5-0.2c-0.2-0.1-0.4-0.1-0.6-0.2l-0.4-0.1
					c-0.3-0.1-0.6-0.1-0.8-0.1h-0.1c-1.8-0.1-3.6,0.5-5,1.6c-1.4,1.2-2,3-1.7,4.8c0.1,0.8,0.4,1.2,0.8,1.3h0.2c0.1,0,0.1,0,0.2,0
					c0.9-0.1,2.1-1,3.7-1.6l0.4-0.1c0.2-0.1,0.4-0.1,0.6-0.1h0.2C215.9,84,219,86.3,218.5,83.3z"/>
				<path class="st4" d="M203.9,94.3c0,9.1-14.9,9.1-14.8,0c0.1-0.7,0.6-1.2,1.3-1.3h12.2C203.3,93,203.9,93.6,203.9,94.3
					L203.9,94.3z"/>
			</g>
			<path class="st5" d="M327.9,4.2v160.7c0,2.3-1.8,4.2-4.1,4.2c0,0,0,0,0,0h-75.5L85.4,0h238.3C326,0,327.9,1.9,327.9,4.2
				C327.9,4.2,327.9,4.2,327.9,4.2z"/>
			
				<radialGradient id="SVGID_4_" cx="196.46" cy="16.2498" r="83.5551" gradientTransform="matrix(1 0 0 -1 0 231.8898)" gradientUnits="userSpaceOnUse">
				<stop  offset="0" style="stop-color:#2782CC"/>
				<stop  offset="0.53" style="stop-color:#2582CD"/>
				<stop  offset="0.75" style="stop-color:#1E83CF"/>
				<stop  offset="0.9" style="stop-color:#1385D3"/>
			</radialGradient>
			<ellipse class="st6" cx="196.5" cy="215.6" rx="116.9" ry="16.9"/>
			
				<linearGradient id="SVGID_5_" gradientUnits="userSpaceOnUse" x1="196.465" y1="22.1798" x2="196.465" y2="62.8898" gradientTransform="matrix(1 0 0 -1 0 231.8898)">
				<stop  offset="0" style="stop-color:#B0C7E2"/>
				<stop  offset="0.2" style="stop-color:#B6CCE6;stop-opacity:0.93"/>
				<stop  offset="0.58" style="stop-color:#C6DBF1;stop-opacity:0.74"/>
				<stop  offset="1" style="stop-color:#DCEEFF;stop-opacity:0.5"/>
			</linearGradient>
			<polygon class="st7" points="261.6,209.7 131.3,209.7 168.3,192.3 168.3,169.1 224.6,169.1 224.6,192.3 			"/>
			<rect x="131.3" y="209.7" class="st8" width="130.3" height="2.7"/>
		</g>
		<g id="shield">
			<path class="st9" d="M67.4,180.3C2.1,140.3,6.6,94.9,6.6,94.9l62.3-44.2l-6.9-7.2v-9c0,0,38.5,14.7,66.1,14.7v45.7
				C128.1,94.9,132.7,140.3,67.4,180.3z"/>
			<path class="st10" d="M60.8,174.6c-65.3-40-60.8-85.4-60.8-85.4V43.5c27.6,0,60.8-13.6,60.8-13.6s33.1,13.6,60.8,13.6v45.6
				C121.6,89.1,126.1,134.5,60.8,174.6z"/>
			<path class="st11" d="M92.4,138.6L92.4,138.6c-7.5,8.4-17.7,17.2-31.5,25.7C4.8,129.9,8.7,91,8.7,91V51.8
				c23.7,0,52.2-11.7,52.2-11.7S89.3,51.8,113,51.8V91C113,91.6,114.8,113.4,92.4,138.6z"/>
			<path class="st5" d="M92.4,138.6L8.7,51.8c23.7,0,52.2-11.7,52.2-11.7S89.3,51.8,113,51.8V91C113,91.6,114.8,113.4,92.4,138.6z"
				/>
			<path class="st10" d="M38.6,86.5v31.8c-0.1,2.3,1.7,4.3,4.1,4.4H79c2.3-0.1,4.1-2.1,4-4.4V86.5H38.6z M63.1,104v8.7
				c0,1.3-1,2.3-2.3,2.3c-1.3,0-2.3-1-2.3-2.3V104c-2.5-1.3-3.5-4.3-2.2-6.8s4.3-3.5,6.8-2.2c2.5,1.3,3.5,4.3,2.2,6.8
				C64.9,102.7,64.1,103.5,63.1,104z"/>
			<path class="st10" d="M79.7,84.3v0.3h-4.4c0-0.1,0-0.2,0-0.3c0-8-6.5-14.5-14.5-14.5s-14.5,6.5-14.5,14.5c0,0,0,0,0,0
				c0,0.1,0,0.2,0,0.3h-4.4v-0.3c0-10.4,8.5-18.9,18.9-18.9S79.7,73.8,79.7,84.3z"/>
		</g>
		<g id="popup">
			<path class="st9" d="M272.4,43.2v44.7c0,2.2,1.8,3.9,3.9,3.9l0,0h51.5v-6h49.4V43.2H272.4z M377.2,37.2c-0.3-1.9-1.9-3.4-3.9-3.4
				h-97c-2.2,0-3.9,1.8-3.9,3.9v0v5.5h104.8v-5.5C377.3,37.6,377.2,37.4,377.2,37.2L377.2,37.2z"/>
			<path class="st10" d="M384.3,31.8v5.5H279.4v-5.5c0-2.2,1.8-3.9,3.9-3.9l0,0h97C382.5,27.9,384.2,29.6,384.3,31.8
				C384.2,31.8,384.3,31.8,384.3,31.8z"/>
			
				<linearGradient id="SVGID_6_" gradientUnits="userSpaceOnUse" x1="287.6313" y1="149.1372" x2="379.1513" y2="194.5672" gradientTransform="matrix(1 0 0 -1 0 231.8898)">
				<stop  offset="0" style="stop-color:#00B5F8"/>
				<stop  offset="0.28" style="stop-color:#2DC0F9"/>
				<stop  offset="0.92" style="stop-color:#9DDBFB"/>
				<stop  offset="1" style="stop-color:#ABDEFB"/>
			</linearGradient>
			<path class="st12" d="M384.3,37.2v44.7c0,2.2-1.8,3.9-3.9,3.9l0,0h-97c-2.2,0-3.9-1.8-3.9-3.9v0V37.2H384.3z"/>
			<path class="st13" d="M384.3,31.8v50.2c0,2.2-1.8,3.9-3.9,3.9l0,0h-23.8l-1.2-1.2l-14.5-14.5l-1.5-1.5l-8.3-8.3l-1.3-1.3
				l-12.1-12.1l-3.8-3.8l-2.2-2.2l-3.8-3.8l-3.4-3.4l-3.1-3.1l-1.7-1.7l-1.1-1.1h81.8C382.5,27.9,384.2,29.6,384.3,31.8z"/>
			<path class="st14" d="M285.8,32c0,0.8-0.7,1.5-1.5,1.5s-1.5-0.7-1.5-1.5c0-0.8,0.7-1.5,1.5-1.5C285.1,30.5,285.8,31.2,285.8,32
				C285.8,32,285.8,32,285.8,32z"/>
			<path class="st14" d="M292.5,32c0,0.8-0.7,1.5-1.5,1.4c-0.8,0-1.5-0.7-1.4-1.5c0-0.8,0.7-1.4,1.5-1.4
				C291.8,30.5,292.5,31.1,292.5,32C292.5,31.9,292.5,32,292.5,32z"/>
			<path class="st14" d="M299.2,32c0,0.8-0.7,1.5-1.5,1.5s-1.5-0.7-1.5-1.5c0-0.8,0.7-1.5,1.5-1.5C298.5,30.5,299.2,31.2,299.2,32
				C299.2,32,299.2,32,299.2,32z"/>
			
				<linearGradient id="SVGID_7_" gradientUnits="userSpaceOnUse" x1="299.0744" y1="166.5354" x2="309.1056" y2="156.5041" gradientTransform="matrix(1 0 0 -1 0 231.8898)">
				<stop  offset="0" style="stop-color:#FFFFFF"/>
				<stop  offset="1" style="stop-color:#ABDEFB"/>
			</linearGradient>
			<path class="st15" d="M302.3,64h3.5c2.5,0,4.6,2.1,4.6,4.6v3.5c0,2.5-2.1,4.6-4.6,4.6h-3.5c-2.5,0-4.6-2.1-4.6-4.6v-3.5
				C297.7,66.1,299.8,64,302.3,64z"/>
			
				<linearGradient id="SVGID_8_" gradientUnits="userSpaceOnUse" x1="315.7769" y1="166.5379" x2="325.8031" y2="156.5016" gradientTransform="matrix(1 0 0 -1 0 231.8898)">
				<stop  offset="0" style="stop-color:#FFFFFF"/>
				<stop  offset="1" style="stop-color:#ABDEFB"/>
			</linearGradient>
			<path class="st16" d="M319,64h3.5c2.5,0,4.6,2.1,4.6,4.6v3.5c0,2.5-2.1,4.6-4.6,4.6H319c-2.5,0-4.6-2.1-4.6-4.6v-3.5
				C314.4,66.1,316.5,64,319,64z"/>
			<polyline class="st17" points="301.1,69.9 303.4,72.2 307.1,68.5 			"/>
			<line class="st17" x1="322.7" y1="68.4" x2="318.9" y2="72.3"/>
			<line class="st17" x1="322.7" y1="72.3" x2="318.9" y2="68.4"/>
		</g>
	</g>
</g>
</svg>
