<?xml version="1.0" encoding="utf-8"?>
<!-- Generator: Adobe Illustrator 25.4.1, SVG Export Plug-In . SVG Version: 6.00 Build 0)  -->
<svg version="1.1" id="Layer_1" xmlns="http://www.w3.org/2000/svg" xmlns:xlink="http://www.w3.org/1999/xlink" x="0px" y="0px"
	 viewBox="0 0 512 512" style="enable-background:new 0 0 512 512;" xml:space="preserve">
<style type="text/css">
	.st0{fill:#2B83C5;}
	.st1{fill:url(#SVGID_1_);}
	.st2{fill:#2BBAED;}
	.st3{fill:url(#SVGID_00000083793413797693659850000000637821077631197064_);}
	.st4{fill:#FFFFFF;}
	.st5{fill:url(#SVGID_00000121995577885010854150000003439857475619682480_);}
</style>
<g>
	<path class="st0" d="M383.5,74.9v151.1c0,18.3-2.2,36.7-5.9,55c-66.7,17.6-106.3,85.8-88.7,152.5c-22,19.1-46.9,34.5-74.1,45.5
		c-7.3,2.9-14.7,5.9-22.7,8.1l0,0V8.9l0,0L383.5,74.9z"/>
	
		<linearGradient id="SVGID_1_" gradientUnits="userSpaceOnUse" x1="0" y1="689.5671" x2="192.124" y2="689.5671" gradientTransform="matrix(1 0 0 1 0 -442)">
		<stop  offset="0" style="stop-color:#2B4A9F"/>
		<stop  offset="1" style="stop-color:#2BBAED"/>
	</linearGradient>
	<path class="st1" d="M192.1,8.9v477.4c-8.1-2.2-15.4-5.1-23.5-8.1C66.7,436.4,0,336.7,0,225.9V74.9L192.1,8.9z"/>
	<path class="st2" d="M192.1,74.9v344.6c-5.9-1.5-11-3.7-16.9-5.9C101.2,383.6,52.8,311.7,53.5,231.8V122.5L192.1,74.9z"/>
	
		<linearGradient id="SVGID_00000120555196485613230750000014057595179272456321_" gradientUnits="userSpaceOnUse" x1="330.0265" y1="689.2004" x2="191.585" y2="689.2004" gradientTransform="matrix(1 0 0 1 0 -442)">
		<stop  offset="0" style="stop-color:#2B4A9F"/>
		<stop  offset="1" style="stop-color:#2BBAED"/>
	</linearGradient>
	<path style="fill:url(#SVGID_00000120555196485613230750000014057595179272456321_);" d="M192.1,74.9v344.6
		c5.9-1.5,11-3.7,16.9-5.9c74.1-30.1,121.7-101.9,121.7-181.9V122.5L192.1,74.9z"/>
	<path class="st4" d="M232.5,216.4h-0.7v-30.1c0-19.8-14.7-36.7-34.5-38.9h-0.7h-8.8c-2.2,0.7-4.4,0.7-6.6,1.5
		c-16.9,5.1-28.6,20.5-28.6,38.1c0,9.5,0,19.1,0,27.9v1.5c-11,0-19.8,8.8-19.8,19.8l0,0c0,16.9,0,33,0,49.9
		c0,10.3,8.8,19.1,19.1,19.1h79.9c11,0,19.1-8.8,19.8-19.8v-49.9C251.5,225.2,243.5,216.4,232.5,216.4z M198,263.3
		c-0.7,0.7-0.7,1.5-0.7,2.2c0,5.1,0,9.5,0,14.7c0,2.9-2.2,5.1-4.4,5.1c-0.7,0-1.5,0-2.2,0c-2.2-0.7-3.7-2.9-2.9-5.1
		c0-5.1,0-9.5,0-14.7c0-0.7-0.7-1.5-1.5-2.2c-3.7-2.2-4.4-6.6-3.7-10.3c1.5-5.1,7.3-8.1,12.5-5.9c2.9,0.7,5.1,2.9,5.9,5.9
		C202.4,256.7,200.9,261.1,198,263.3L198,263.3z M211.9,216.4h-39.6v-0.7c0-10.3,0-19.8,0-30.1c0-11,8.8-19.8,19.1-19.8
		c11,0,19.8,8.8,19.8,19.1C211.9,195.1,211.9,205.4,211.9,216.4L211.9,216.4z"/>
	
		<linearGradient id="SVGID_00000111872187526850977090000005084190809508586629_" gradientUnits="userSpaceOnUse" x1="409.9133" y1="826.9225" x2="409.9133" y2="1030.5123" gradientTransform="matrix(1 0 0 1 0 -442)">
		<stop  offset="0" style="stop-color:#DADADF"/>
		<stop  offset="0.24" style="stop-color:#D0D1D5"/>
		<stop  offset="0.55" style="stop-color:#B4B5BA"/>
		<stop  offset="1" style="stop-color:#8E9197"/>
	</linearGradient>
	<path style="fill:url(#SVGID_00000111872187526850977090000005084190809508586629_);" d="M409.9,299.3L409.9,299.3
		c56.5,0,101.9,45.5,101.9,101.9l0,0c0,56.5-45.5,101.9-101.9,101.9l0,0c-56.5,0-101.9-45.5-101.9-101.9l0,0
		C308,345.5,353.4,299.3,409.9,299.3z"/>
	<polygon class="st4" points="392.3,415.9 373.2,396.8 365.2,404.9 392.3,432 448.8,375.5 440.7,367.5 	"/>
	<path class="st4" d="M392.3,436.4l-31.5-31.5l12.5-12.5l19.1,19.1l48.4-48.4l12.5,12.5L392.3,436.4z M369.6,404.9l23.5,23.5
		l52.1-52.1l-4.4-4.4l-48.4,48.4l-19.1-19.1L369.6,404.9z"/>
</g>
</svg>
