<?xml version="1.0" encoding="utf-8"?>
<!-- Generator: Adobe Illustrator 25.4.1, SVG Export Plug-In . SVG Version: 6.00 Build 0)  -->
<svg version="1.1" id="Layer_1" xmlns="http://www.w3.org/2000/svg" xmlns:xlink="http://www.w3.org/1999/xlink" x="0px" y="0px"
	 viewBox="0 0 512 512" style="enable-background:new 0 0 512 512;" xml:space="preserve">
<style type="text/css">
	.st0{fill:#40BCED;}
	.st1{fill:#71CCD6;}
	.st2{fill:url(#SVGID_1_);}
	.st3{fill:url(#SVGID_00000085938746208013863710000012266413188681288582_);}
	.st4{fill:url(#SVGID_00000138566514693366617050000003894809209420994976_);}
	.st5{fill:url(#SVGID_00000183967721501148646990000003407993996140026786_);}
	.st6{fill:url(#SVGID_00000170241104511139518940000012329996720329810064_);}
</style>
<g>
	<path class="st0" d="M258.9,175.8c-73.3,0-139.1,45.4-165.3,113.5c-5.2,14,1.2,29.7,14.6,36.7l1.2,0.6c14.6,7,32,1.2,39-13.4v-0.6
		c27.4-61.1,99.5-87.9,160.7-60.5c7.6,3.5,14.6,7.6,21.5,12.2l53-37.8C349.7,193.8,304.9,175.8,258.9,175.8z M424.2,289.8
		c-5.2-13.4-12.2-26.8-20.4-38.4l-36.1,58.2l1.7,3.5c6.4,14.6,23.9,21.5,38.4,15.1l0,0l1.2-0.6C423.1,320.1,430,304.4,424.2,289.8z"
		/>
	<path class="st1" d="M505.1,192.6C412,54.7,225.2,18,87.2,110.6c-31.4,21-58.8,47.7-80.3,79.2c-10.5,15.1-6.4,36.1,8.7,46.6
		c0.6,0.6,1.7,1.2,2.3,1.2l1.7,1.2c15.7,8.7,35.5,4.1,44.8-11.1C132,121.6,272.9,90.8,378.8,158.3c16.9,11.1,32,23.9,46,38.4
		c2.9,2.9,5.2,5.8,7.6,9.3c5.8,7.6,11.6,15.1,16.9,23.3c9.9,15.7,30.3,20.4,46,10.5c9.9-6.4,15.7-16.9,15.7-27.9
		C510.4,204.3,508.6,197.9,505.1,192.6z"/>
	
		<linearGradient id="SVGID_1_" gradientUnits="userSpaceOnUse" x1="259.5305" y1="559.2999" x2="258.8158" y2="821.5068" gradientTransform="matrix(1 0 0 1 0 -442)">
		<stop  offset="0" style="stop-color:#27AEE4"/>
		<stop  offset="0.18" style="stop-color:#28A5DE"/>
		<stop  offset="0.47" style="stop-color:#2A8BCB"/>
		<stop  offset="0.85" style="stop-color:#2D65B0"/>
		<stop  offset="0.99" style="stop-color:#2956A6"/>
	</linearGradient>
	<path class="st2" d="M258.9,175.8c-73.3,0-139.1,45.4-165.3,113.5c-5.2,14,1.2,29.7,14.6,36.7l1.2,0.6c14.6,7,32,1.2,39-13.4v-0.6
		c27.4-61.1,99.5-87.9,160.7-60.5c7.6,3.5,14.6,7.6,21.5,12.2l53-37.8C349.7,193.8,304.9,175.8,258.9,175.8z M424.2,289.8
		c-5.2-13.4-12.2-26.8-20.4-38.4l-36.1,58.2l1.7,3.5c6.4,14.6,23.9,21.5,38.4,15.1l0,0l1.2-0.6C423.1,320.1,430,304.4,424.2,289.8z"
		/>
	
		<linearGradient id="SVGID_00000026157863824907135710000001117902078812086920_" gradientUnits="userSpaceOnUse" x1="259.5305" y1="559.2999" x2="258.8158" y2="821.5068" gradientTransform="matrix(1 0 0 1 0 -442)">
		<stop  offset="0" style="stop-color:#27AEE4"/>
		<stop  offset="0.18" style="stop-color:#28A5DE"/>
		<stop  offset="0.47" style="stop-color:#2A8BCB"/>
		<stop  offset="0.85" style="stop-color:#2D65B0"/>
		<stop  offset="0.99" style="stop-color:#2956A6"/>
	</linearGradient>
	<path style="fill:url(#SVGID_00000026157863824907135710000001117902078812086920_);" d="M258.9,175.8
		c-73.3,0-139.1,45.4-165.3,113.5c-5.2,14,1.2,29.7,14.6,36.7l1.2,0.6c14.6,7,32,1.2,39-13.4v-0.6c27.4-61.1,99.5-87.9,160.7-60.5
		c7.6,3.5,14.6,7.6,21.5,12.2l53-37.8C349.7,193.8,304.9,175.8,258.9,175.8z M424.2,289.8c-5.2-13.4-12.2-26.8-20.4-38.4l-36.1,58.2
		l1.7,3.5c6.4,14.6,23.9,21.5,38.4,15.1l0,0l1.2-0.6C423.1,320.1,430,304.4,424.2,289.8z"/>
	
		<linearGradient id="SVGID_00000125591981699801106470000012898166124800772526_" gradientUnits="userSpaceOnUse" x1="256.2533" y1="559.2909" x2="255.538" y2="821.4977" gradientTransform="matrix(1 0 0 1 0 -442)">
		<stop  offset="0" style="stop-color:#27AEE4"/>
		<stop  offset="0.18" style="stop-color:#28A5DE"/>
		<stop  offset="0.47" style="stop-color:#2A8BCB"/>
		<stop  offset="0.85" style="stop-color:#2D65B0"/>
		<stop  offset="0.99" style="stop-color:#2956A6"/>
	</linearGradient>
	<path style="fill:url(#SVGID_00000125591981699801106470000012898166124800772526_);" d="M505.1,192.6
		C412,54.7,225.2,18,87.2,110.6c-31.4,21-58.8,47.7-80.3,79.2c-10.5,15.1-6.4,36.1,8.7,46.6c0.6,0.6,1.7,1.2,2.3,1.2l1.7,1.2
		c15.7,8.7,35.5,4.1,44.8-11.1C132,121.6,272.9,90.8,378.8,158.3c16.9,11.1,32,23.9,46,38.4c2.9,2.9,5.2,5.8,7.6,9.3
		c5.8,7.6,11.6,15.1,16.9,23.3c9.9,15.7,30.3,20.4,46,10.5c9.9-6.4,15.7-16.9,15.7-27.9C510.4,204.3,508.6,197.9,505.1,192.6z"/>
	
		<linearGradient id="SVGID_00000031891557367200270720000002236714218774058386_" gradientUnits="userSpaceOnUse" x1="256.2533" y1="559.2909" x2="255.538" y2="821.4977" gradientTransform="matrix(1 0 0 1 0 -442)">
		<stop  offset="0" style="stop-color:#27AEE4"/>
		<stop  offset="0.18" style="stop-color:#28A5DE"/>
		<stop  offset="0.47" style="stop-color:#2A8BCB"/>
		<stop  offset="0.85" style="stop-color:#2D65B0"/>
		<stop  offset="0.99" style="stop-color:#2956A6"/>
	</linearGradient>
	<path style="fill:url(#SVGID_00000031891557367200270720000002236714218774058386_);" d="M505.1,192.6
		C412,54.7,225.2,18,87.2,110.6c-31.4,21-58.8,47.7-80.3,79.2c-10.5,15.1-6.4,36.1,8.7,46.6c0.6,0.6,1.7,1.2,2.3,1.2l1.7,1.2
		c15.7,8.7,35.5,4.1,44.8-11.1C132,121.6,272.9,90.8,378.8,158.3c16.9,11.1,32,23.9,46,38.4c2.9,2.9,5.2,5.8,7.6,9.3
		c5.8,7.6,11.6,15.1,16.9,23.3c9.9,15.7,30.3,20.4,46,10.5c9.9-6.4,15.7-16.9,15.7-27.9C510.4,204.3,508.6,197.9,505.1,192.6z"/>
	
		<linearGradient id="SVGID_00000151517927742591400810000000850186849953883012_" gradientUnits="userSpaceOnUse" x1="190.4821" y1="770.1046" x2="425.9087" y2="770.1046" gradientTransform="matrix(1 0 0 1 0 -442)">
		<stop  offset="0" style="stop-color:#DADADF"/>
		<stop  offset="0.24" style="stop-color:#D0D1D5"/>
		<stop  offset="0.55" style="stop-color:#B4B5BA"/>
		<stop  offset="1" style="stop-color:#8E9197"/>
	</linearGradient>
	<path style="fill:url(#SVGID_00000151517927742591400810000000850186849953883012_);" d="M213.5,356.8L213.5,356.8
		c-23.9,15.7-30.8,47.7-15.1,72.2c15.7,23.9,47.7,30.8,72.2,15.1c5.8-4.1,11.1-9.3,15.1-15.1l0,0l1.2-2.9l138.5-222.4L213.5,356.8z
		 M242.6,423.7c-13.4,0-23.9-11.1-23.9-24.4c0-9.9,6.4-18.6,15.1-22.1c2.9-1.2,5.8-1.7,8.7-1.7c13.4,0,23.9,10.5,23.9,23.9l0,0
		c0,2.9-0.6,5.8-1.7,8.7C261.2,417.9,252.5,423.7,242.6,423.7z"/>
</g>
</svg>
