<?xml version="1.0" encoding="utf-8"?>
<!-- Generator: Adobe Illustrator 23.0.1, SVG Export Plug-In . SVG Version: 6.00 Build 0)  -->
<svg version="1.1" id="Layer_1" xmlns="http://www.w3.org/2000/svg" xmlns:xlink="http://www.w3.org/1999/xlink" x="0px" y="0px"
	 viewBox="0 0 309.2 255.2" style="enable-background:new 0 0 309.2 255.2;" xml:space="preserve">
<style type="text/css">
	.st0{fill:url(#SVGID_1_);}
	.st1{opacity:0.1;fill:url(#SVGID_2_);enable-background:new    ;}
	.st2{fill:url(#SVGID_3_);}
	.st3{fill:url(#SVGID_4_);}
	.st4{fill:url(#SVGID_5_);}
	.st5{opacity:0.2;}
	.st6{fill:#FFFFFF;}
	.st7{opacity:0.1;enable-background:new    ;}
	.st8{fill:#E6F3FC;}
	.st9{fill:#56BA63;}
	.st10{opacity:0.1;}
	.st11{fill:#F4D9E7;}
	.st12{fill:url(#SVGID_6_);}
	.st13{fill:#FBB249;}
	.st14{fill:url(#SVGID_7_);}
	.st15{fill:url(#SVGID_8_);}
	.st16{fill:url(#SVGID_9_);}
	.st17{fill:url(#SVGID_10_);}
</style>
<title>hotbot-zero-restrictions-unlimited-content</title>
<g>
	<g id="Layer_1-2">
		<g id="tablet_screen">
			
				<linearGradient id="SVGID_1_" gradientUnits="userSpaceOnUse" x1="141.8" y1="206.8298" x2="141.8" y2="57.0327" gradientTransform="matrix(1 0 0 -1 0 255.8898)">
				<stop  offset="0" style="stop-color:#DCECF9"/>
				<stop  offset="0.39" style="stop-color:#D9EAF8"/>
				<stop  offset="0.63" style="stop-color:#D1E3F3"/>
				<stop  offset="0.83" style="stop-color:#C2D6EB"/>
				<stop  offset="1" style="stop-color:#AFC6E0"/>
			</linearGradient>
			<path class="st0" d="M279.1,55.8v98.3c-2.1,0-4.1,0.2-6.1,0.6c-1.4,0.3-2.7,0.6-4,1.1c-8.7,2.9-15.9,9.3-19.9,17.6
				c-1.8,3.8-2.9,7.8-3.1,12c-0.1,1.8,0,3.6,0.2,5.4c0.3,2.3,0.9,4.5,1.7,6.6l0.3,0.7c-71.8,1.5-243.7,0.5-243.7-2.5V55.8
				c0-3.7,3.6-6.8,8.1-6.8h258.6C275.5,49.1,279.1,52.1,279.1,55.8z"/>
			
				<radialGradient id="SVGID_2_" cx="131.2" cy="37.0098" r="93.3427" gradientTransform="matrix(1 0 0 -1 0 255.8898)" gradientUnits="userSpaceOnUse">
				<stop  offset="0" style="stop-color:#2F80C3"/>
				<stop  offset="0.66" style="stop-color:#2D81C4"/>
				<stop  offset="0.9" style="stop-color:#2782C5"/>
			</radialGradient>
			<path class="st1" d="M262.4,226.5c-25,4.1-69.7,6.9-120.6,6.9C63.5,233.4,0,226.9,0,218.9c0-1.5,2.1-2.9,6-4.2
				c17.6-6,71.7-10.4,135.8-10.4c45.2,0,85.4,2.2,111.4,5.6c1.3,2.8,2.7,5.4,4.1,8c0.2,0.4,0.4,0.7,0.6,1
				C259.4,221.5,260.9,224,262.4,226.5z"/>
			
				<radialGradient id="SVGID_3_" cx="141.8" cy="135.7198" r="180.0364" gradientTransform="matrix(1 0 0 -1 0 255.8898)" gradientUnits="userSpaceOnUse">
				<stop  offset="0" style="stop-color:#2F80C3"/>
				<stop  offset="0.82" style="stop-color:#2C81C4"/>
				<stop  offset="1" style="stop-color:#2A82C5"/>
			</radialGradient>
			<path class="st2" d="M273,54.8v100c-1.4,0.3-2.7,0.6-4,1.1c-8.7,2.9-15.9,9.3-19.9,17.6c-1.8,3.8-2.9,7.8-3.1,12H10.6V54.8H273z"
				/>
			
				<linearGradient id="SVGID_4_" gradientUnits="userSpaceOnUse" x1="131.185" y1="81.0798" x2="131.185" y2="32.2598" gradientTransform="matrix(1 0 0 -1 0 255.8898)">
				<stop  offset="0.25" style="stop-color:#DCECF9"/>
				<stop  offset="0.87" style="stop-color:#AFC6E0"/>
			</linearGradient>
			<path class="st3" d="M257.9,218.9H13.8c-5.2,0-9.3-4.2-9.4-9.4v-18.7h241.8c0.3,2.3,0.9,4.5,1.7,6.6l0.3,0.7
				c1.6,4.1,3.3,8,5,11.7c1.3,2.8,2.7,5.4,4.1,8C257.5,218.2,257.7,218.5,257.9,218.9z"/>
			
				<linearGradient id="SVGID_5_" gradientUnits="userSpaceOnUse" x1="141.8" y1="51.1398" x2="141.8" y2="35.3298" gradientTransform="matrix(1 0 0 -1 0 255.8898)">
				<stop  offset="0" style="stop-color:#AFC6E0"/>
				<stop  offset="1" style="stop-color:#A6BDCF"/>
			</linearGradient>
			<path class="st4" d="M197.9,218.9H85.7l0,0v-6c0-1.9,1.6-3.5,3.5-3.5l0,0h105.3c1.9,0,3.5,1.6,3.5,3.5l0,0L197.9,218.9
				L197.9,218.9L197.9,218.9z"/>
			<g class="st5">
				<path class="st6" d="M273,54.8v100c-1.4,0.3-2.7,0.6-4,1.1c-8.7,2.9-15.9,9.3-19.9,17.6c-1.8,3.8-2.9,7.8-3.1,12h-92L90.1,54.8
					l-0.1-0.1L273,54.8z"/>
			</g>
		</g>
		<g id="play">
			<path class="st7" d="M155.1,111h60.3c5.5,0,9.9,4.4,9.9,9.9v43.3c0,5.5-4.4,9.9-9.9,9.9h-60.3c-5.5,0-9.9-4.4-9.9-9.9V121
				C145.2,115.5,149.6,111,155.1,111z"/>
			<path class="st8" d="M158.7,106h63.2c4.7,0,8.5,3.8,8.5,8.5v46.2c0,4.7-3.8,8.5-8.5,8.5h-63.2c-4.7,0-8.5-3.8-8.5-8.5v-46.2
				C150.2,109.9,154,106,158.7,106z"/>
			<path class="st9" d="M219.1,149.8c-0.2-7.6-1-15.3-2.5-22.8c-1.2-5.9-6.3-10.2-12.3-10.4c-5-0.2-6,2.7-11.7,2.6
				c-1.6,0-3.1,0-4.7,0c-5.7,0.1-6.7-2.8-11.7-2.6c-6,0.2-11.1,4.5-12.3,10.4c-1.5,7.5-2.3,15.1-2.5,22.8c0,5.2,5.1,8.7,8.6,9
				c6.6,0.5,11.8-11.1,15.8-11.1c3,0,6,0,8.9,0c4,0,9.2,11.6,15.8,11.1C214,158.6,219.3,155.1,219.1,149.8L219.1,149.8z
				 M182.9,135.1h-3.1v3.1c0,1.3-1.1,2.3-2.4,2.3c-1.3,0-2.3-1.1-2.3-2.3v-3.1h-3.1c-1.3,0-2.3-1.1-2.3-2.4c0-1.3,1.1-2.3,2.3-2.3
				h3.1v-3.1c0-1.3,1.1-2.3,2.4-2.3c1.3,0,2.3,1.1,2.3,2.3v3.1h3.1c1.3,0,2.3,1.1,2.3,2.4C185.3,134,184.2,135.1,182.9,135.1z
				 M201.9,140.5c-1.8,0-3.4-1.4-3.4-3.2c0-1.8,1.4-3.4,3.2-3.4c1.8,0,3.4,1.4,3.4,3.2C205.2,138.9,203.8,140.5,201.9,140.5
				C201.9,140.5,201.9,140.5,201.9,140.5z M207.5,131.6c-1.8,0-3.4-1.4-3.4-3.3c0-1.8,1.4-3.4,3.3-3.4c1.8,0,3.4,1.4,3.4,3.2
				C210.8,130.1,209.3,131.6,207.5,131.6C207.5,131.6,207.5,131.6,207.5,131.6z"/>
		</g>
		<g id="photos">
			<g class="st10">
				<path d="M58.2,111h60.3c5.5,0,9.9,4.4,9.9,9.9v43.3c0,5.5-4.4,9.9-9.9,9.9H58.2c-5.5,0-9.9-4.4-9.9-9.9V121
					C48.3,115.5,52.7,111,58.2,111z"/>
			</g>
			<path class="st8" d="M61.8,106h63.1c4.7,0,8.5,3.8,8.5,8.5v46.2c0,4.7-3.8,8.5-8.5,8.5H61.8c-4.7,0-8.5-3.8-8.5-8.5v-46.2
				C53.3,109.9,57.1,106,61.8,106z"/>
			<path class="st11" d="M68.6,114.3h49.5c3.9,0,7.1,3.2,7.1,7.1v32.5c0,3.9-3.2,7.1-7.1,7.1H68.6c-3.9,0-7.1-3.2-7.1-7.1v-32.5
				C61.5,117.5,64.7,114.3,68.6,114.3z"/>
			
				<linearGradient id="SVGID_6_" gradientUnits="userSpaceOnUse" x1="93.325" y1="133.8598" x2="93.325" y2="102.6298" gradientTransform="matrix(1 0 0 -1 0 255.8898)">
				<stop  offset="0" style="stop-color:#E682B4"/>
				<stop  offset="1" style="stop-color:#F7AEAF"/>
			</linearGradient>
			<polygon class="st12" points="74.4,153.3 112.2,153.3 103.2,132.1 95.6,147.4 87.8,122 			"/>
			<circle class="st13" cx="98.2" cy="127" r="3.4"/>
		</g>
		<g id="media">
			<path class="st7" d="M197.9,49.1v38.5c0,5.5-4.4,9.9-9.9,9.9c0,0,0,0,0,0H90.6c-5.5,0-9.9-4.4-9.9-9.9V49.1H197.9z"/>
			<path class="st8" d="M94.2,0h100.3c4.7,0,8.5,3.8,8.5,8.5v75.4c0,4.7-3.8,8.5-8.5,8.5H94.2c-4.7,0-8.5-3.8-8.5-8.5V8.5
				C85.7,3.8,89.5,0,94.2,0z"/>
			
				<linearGradient id="SVGID_7_" gradientUnits="userSpaceOnUse" x1="144.3062" y1="240.4926" x2="144.3062" y2="178.8898" gradientTransform="matrix(1 0 0 -1 0 255.8898)">
				<stop  offset="0" style="stop-color:#DF8CBB"/>
				<stop  offset="1" style="stop-color:#7E62AA"/>
			</linearGradient>
			<path class="st14" d="M178.6,30.6c-1.8-6-6.4-10.8-12.4-12.8c-4.7-1.5-13.4-2.3-21.9-2.4s-17.2,0.8-21.9,2.4
				c-6,2-10.6,6.8-12.4,12.8c-1.4,5.1-2.1,10.4-2,15.6c-0.1,5.3,0.6,10.6,2,15.6c1.8,6,6.4,10.8,12.4,12.8
				c4.7,1.5,13.4,2.3,21.9,2.3s17.2-0.8,21.9-2.4c6-2,10.6-6.8,12.4-12.8c1.4-5.1,2.1-10.4,2-15.6C180.7,40.9,180,35.6,178.6,30.6
				L178.6,30.6z M156,48.1l-15.1,9.7c-0.4,0.3-1,0.5-1.5,0.5c-0.5,0-0.9-0.1-1.4-0.3c-0.9-0.5-1.5-1.4-1.5-2.4V36.1
				c0-1,0.6-2,1.5-2.4c0.9-0.5,2-0.5,2.8,0.1l15.1,9.7c0.8,0.5,1.3,1.4,1.3,2.4C157.2,46.7,156.8,47.6,156,48.1z"/>
		</g>
		<g id="location">
			<circle class="st6" cx="279.6" cy="187.4" r="19"/>
			
				<linearGradient id="SVGID_8_" gradientUnits="userSpaceOnUse" x1="279.536" y1="5.2498" x2="279.536" y2="77.7498" gradientTransform="matrix(1 0 0 -1 0 255.8898)">
				<stop  offset="0" style="stop-color:#2F80C3"/>
				<stop  offset="0.32" style="stop-color:#368ACA"/>
				<stop  offset="0.87" style="stop-color:#47A7DD"/>
				<stop  offset="1" style="stop-color:#4CAEE2"/>
			</linearGradient>
			<path class="st15" d="M279.4,244.6c-6.2-10.1-12.2-19.5-17.7-29.2c-3.5-6.3-6.6-12.9-9.1-19.7c-5.5-14.4,3.9-30.5,17.9-35
				c19.1-6.2,38.5,8.1,37.6,28.1c-0.4,3.9-1.4,7.7-3,11.3C298.6,215.7,289.4,229.8,279.4,244.6z M279.7,206.3
				c10.4-0.1,18.8-8.6,18.7-19.1c-0.1-10.4-8.6-18.8-19.1-18.7c-10.3,0.1-18.6,8.5-18.7,18.8C260.6,197.8,269.1,206.3,279.7,206.3
				C279.6,206.3,279.6,206.3,279.7,206.3L279.7,206.3z"/>
			
				<linearGradient id="SVGID_9_" gradientUnits="userSpaceOnUse" x1="279.535" y1="-13.6202" x2="279.535" y2="21.4498" gradientTransform="matrix(1 0 0 -1 0 255.8898)">
				<stop  offset="0" style="stop-color:#2F80C3"/>
				<stop  offset="0.4" style="stop-color:#3990CE"/>
				<stop  offset="1" style="stop-color:#4CAEE2"/>
			</linearGradient>
			<path class="st16" d="M309.2,243.5c0,6.4-12.3,11.4-28.6,11.6h-2.4c-16.2-0.3-28.4-5.3-28.4-11.6c0-4.6,6.1-8.5,16.3-10.4
				l0.8-0.1l2.2,3.7l-1.6,0.3c-9.2,1.6-13.4,4.5-13.4,6.6c0,3.3,9.3,7.1,23,7.6c1.5,0.1,3.1,0.1,4.6,0c13.8-0.4,23.1-4.2,23.1-7.6
				c0-2.1-4-5-13-6.6l-1.6-0.3l2.3-3.7l0.8,0.1C303.3,235.1,309.2,239,309.2,243.5z"/>
			
				<linearGradient id="SVGID_10_" gradientUnits="userSpaceOnUse" x1="279.535" y1="79.1498" x2="279.535" y2="52.0498" gradientTransform="matrix(1 0 0 -1 0 255.8898)">
				<stop  offset="0.15" style="stop-color:#4CAEE2"/>
				<stop  offset="0.66" style="stop-color:#3B94D0"/>
				<stop  offset="1" style="stop-color:#2F80C3"/>
			</linearGradient>
			<path class="st17" d="M279.5,176.7c-2.9,0-5.3,2.4-5.3,5.3v3.2h-1.1c-1.2,0-2.1,1-2.1,2.1c0,0,0,0,0,0v8.6c0,1.2,0.9,2.1,2.1,2.1
				c0,0,0,0,0,0h12.8c1.2,0,2.1-1,2.1-2.1v0v-8.6c0-1.2-1-2.1-2.1-2.1c0,0,0,0,0,0h-1.1v-3.2C284.9,179.2,282.5,176.8,279.5,176.7
				C279.5,176.7,279.5,176.7,279.5,176.7z M276.3,182.1c0.1-1.8,1.6-3.1,3.4-3c1.6,0.1,2.9,1.4,3,3v3.2h-6.4V182.1z M280.6,193.5
				v2.5h-2.1v-2.4c-1-0.6-1.4-1.9-0.8-2.9c0.6-1,1.9-1.4,2.9-0.8c0.5,0.3,0.9,0.8,1,1.4c0,0.2,0,0.3,0,0.5
				C281.7,192.5,281.3,193.2,280.6,193.5L280.6,193.5z"/>
		</g>
	</g>
</g>
</svg>
