<?xml version="1.0" encoding="utf-8"?>
<!-- Generator: Adobe Illustrator 25.4.1, SVG Export Plug-In . SVG Version: 6.00 Build 0)  -->
<svg version="1.1" id="Layer_1" xmlns="http://www.w3.org/2000/svg" xmlns:xlink="http://www.w3.org/1999/xlink" x="0px" y="0px"
	 viewBox="0 0 512 512" style="enable-background:new 0 0 512 512;" xml:space="preserve">
<style type="text/css">
	.st0{fill:url(#SVGID_1_);}
	.st1{fill:url(#SVGID_00000031916522292335806950000003917865048677803434_);}
</style>
<linearGradient id="SVGID_1_" gradientUnits="userSpaceOnUse" x1="142.7384" y1="620.8829" x2="363.012" y2="620.8829" gradientTransform="matrix(1 0 0 1 0 -442)">
	<stop  offset="0" style="stop-color:#2B4A9F"/>
	<stop  offset="1" style="stop-color:#2BBAED"/>
</linearGradient>
<path class="st0" d="M245.2,0.4c-69.1,3-119.2,76.7-97.9,141.9C148,150.7,243.7,342,249,354.9c1.5,2.3,4.6,3.8,6.8,2.3
	c0.8-0.8,2.3-1.5,2.3-2.3c3.8-9.1,96.4-203.4,97.2-206.5C384.1,74.8,324.1-6.4,245.2,0.4z M258.1,146.9
	c-48.6,6.8-57.7-69.1-9.9-74.4C296.8,65.7,305.9,141.6,258.1,146.9z"/>
<linearGradient id="SVGID_00000103950196903444443370000007845629416656163223_" gradientUnits="userSpaceOnUse" x1="255.8324" y1="798.6568" x2="255.8324" y2="996.3297" gradientTransform="matrix(1 0 0 1 0 -442)">
	<stop  offset="0" style="stop-color:#DADADF"/>
	<stop  offset="0.24" style="stop-color:#D0D1D5"/>
	<stop  offset="0.55" style="stop-color:#B4B5BA"/>
	<stop  offset="1" style="stop-color:#8E9197"/>
</linearGradient>
<path style="fill:url(#SVGID_00000103950196903444443370000007845629416656163223_);" d="M340.8,235.7L340.8,235.7
	c-2.3,2.3-1.5,6.1,0.8,8.3l0.8,0.8c34.9,19.7,57.7,50.9,57.7,85.8c0,59.2-64.5,107-145,107s-145-47.8-145-107.8
	c0-33.4,21.3-63.8,53.9-83.5c2.3-1.5,3.8-5.3,2.3-7.6l0,0c-1.5-3-4.6-3.8-7.6-3c0,0,0,0-0.8,0c-50.9,26.6-83.5,72.9-83.5,126
	c0,82.7,81.2,150.3,181.4,150.3s181.4-66.8,181.4-150.3c0-54.7-35.7-102.5-88-129C346.2,231.9,342.4,232.7,340.8,235.7z"/>
</svg>
