<?xml version="1.0" encoding="utf-8"?>
<!-- Generator: Adobe Illustrator 25.4.1, SVG Export Plug-In . SVG Version: 6.00 Build 0)  -->
<svg version="1.1" id="Layer_1" xmlns="http://www.w3.org/2000/svg" xmlns:xlink="http://www.w3.org/1999/xlink" x="0px" y="0px"
	 viewBox="0 0 512 512" style="enable-background:new 0 0 512 512;" xml:space="preserve">
<style type="text/css">
	.st0{fill:#C3C3C8;}
	.st1{fill:url(#SVGID_1_);}
	.st2{fill:#FFFFFF;}
</style>
<g>
	<path class="st0" d="M490.5,258.8c-42.7-40.4-96.6-40.4-129.1-35.4c-1.1,29.8-14,57.8-35.9,78.6c-12.9,11.8-26.9,21.9-42.7,30.3
		c7.9,25.8,28.1,46.6,54.5,54.5c29.8,8.4,61.7,9.5,91.5,2.2c20.8,23.6,54.5,25.3,54.5,25.3c-10.1-19.6-18-20.8,15.7-67.9
		S490.5,258.8,490.5,258.8z M360.3,322.8c-8.4,0-15.2-6.7-15.2-15.2s6.7-15.2,15.2-15.2s15.2,6.7,15.2,15.2l0,0
		C375.4,316.1,368.7,322.8,360.3,322.8z M400.1,322.8c-8.4,0-15.2-6.7-15.2-15.2s6.7-15.2,15.2-15.2s15.2,6.7,15.2,15.2l0,0
		C415.3,316.1,408.6,322.8,400.1,322.8L400.1,322.8z M438.9,322.8c-8.4,0-15.2-6.7-15.2-15.2s6.7-15.2,15.2-15.2
		c8.4,0,15.2,6.7,15.2,15.2l0,0C454,316.1,447.3,322.8,438.9,322.8L438.9,322.8L438.9,322.8z"/>
	
		<linearGradient id="SVGID_1_" gradientUnits="userSpaceOnUse" x1="-1.818989e-12" y1="674.9844" x2="345.7453" y2="674.9844" gradientTransform="matrix(1 0 0 1 0 -442)">
		<stop  offset="0" style="stop-color:#2B4A9F"/>
		<stop  offset="1" style="stop-color:#2BBAED"/>
	</linearGradient>
	<path class="st1" d="M40.9,368.3c0,0,47.7-2.2,76.9-35.9c0,0,117.9,32.6,197-42.1c39.3-37,41.5-98.8,4.5-138.1
		c-1.1-1.1-2.2-2.2-3.4-3.4c-18-16.3-39.3-29.2-62.3-38.2c0,0-130.2-47.7-222.9,39.9c0,0-60.1,55.6-12.3,122.4
		S54.9,340.2,40.9,368.3z"/>
	<path class="st2" d="M86.9,181.9h169c6.7,0,11.8,5.1,11.8,11.8l0,0c0,6.7-5.1,11.8-11.8,11.8h-169c-6.7,0-11.8-5.1-11.8-11.8l0,0
		C75.1,187.5,80.2,181.9,86.9,181.9z"/>
	<path class="st2" d="M86.9,230.8h110.6c6.7,0,11.8,5.1,11.8,11.8l0,0c0,6.7-5.1,11.8-11.8,11.8H86.9c-6.7,0-11.8-5.1-11.8-11.8l0,0
		C75.1,235.8,80.2,230.8,86.9,230.8z"/>
</g>
</svg>
