<?xml version="1.0" encoding="utf-8"?>
<!-- Generator: Adobe Illustrator 25.4.1, SVG Export Plug-In . SVG Version: 6.00 Build 0)  -->
<svg version="1.1" id="Layer_1" xmlns="http://www.w3.org/2000/svg" xmlns:xlink="http://www.w3.org/1999/xlink" x="0px" y="0px"
	 viewBox="0 0 571.6 694.5" style="enable-background:new 0 0 571.6 694.5;" xml:space="preserve">
<style type="text/css">
	.st0{fill:#18162E;}
	.st1{fill:#09225E;}
	.st2{fill:url(#SVGID_1_);}
	.st3{fill:#18162E;stroke:#18162E;stroke-width:13;stroke-miterlimit:10;}
	.st4{fill:#FFFFFF;}
	.st5{fill:#CACACC;}
	.st6{fill:#E5E3E5;}
	.st7{fill:#151922;}
	.st8{fill:url(#SVGID_00000168089460124259472400000007393652871780481157_);}
	.st9{opacity:0.15;enable-background:new    ;}
	.st10{opacity:0.1;fill:#FFFFFF;enable-background:new    ;}
	.st11{enable-background:new    ;}
	.st12{fill:#F2F2F2;}
	.st13{fill:none;stroke:#FFFFFF;stroke-width:2;stroke-miterlimit:10;}
	.st14{opacity:0.13;enable-background:new    ;}
	.st15{fill:none;}
	.st16{fill:#37325A;}
	.st17{fill:#26243D;}
	.st18{fill:#FFFEFF;}
	.st19{fill:url(#SVGID_00000175310759934820929320000015028713119497617056_);}
	.st20{fill:url(#SVGID_00000157292607818771920540000010454024326723695496_);}
</style>
<g id="left-ear">
	<path class="st0" d="M157.9,87v82.8h-28.3c-13.7-0.5-23.9-16.1-23.9-16.1c-15.9-33.4-25.1-74-14.3-110.5c1.8-6.8,4.1-13.5,6.8-20
		c-7.8-6.9-5-23.1,8.6-23.2c17.1,0.1,17.1,26.1,0,26.2h-0.2c-1.4,4.1-2.8,8.4-3.6,11.6c-6.1,22.8-5.6,46.8,1.4,69.3
		C109.2,82.9,138,86.9,157.9,87z"/>
</g>
<g id="right-ear">
	<path class="st0" d="M466.5,153.7c0,0-10.2,15.6-23.9,16.1h-28.3V87c12.2,0,27.7-1.6,39,2.8c6.9,2.6,12.1,7.4,14.2,16
		c0.4-1.4,0.8-2.8,1.1-4.2c6.2-24.3,5.5-48.5-3.5-74.8c-0.1-0.2-0.1-0.5-0.2-0.7c-0.9,0-1.7-0.1-2.6-0.3c-14.1-2.9-13.1-25.8,3-25.9
		c2,0,4.1,0.4,5.9,1.3c8.5,4.1,9.2,16.8,2.1,22.3c2.7,6.4,4.9,13,6.7,19.7C491.2,79.6,482.5,120.4,466.5,153.7z"/>
</g>
<path id="eyes" class="st1" d="M249.4,126.2c-1.8,11.1-9.8-0.2-22.1-2.2s-23.5,6.6-21.7-4.7C210.4,92.5,252.7,99.4,249.4,126.2z
	 M366.4,119.3c1.8,11.3-9.7,2.7-21.7,4.7s-20.2,13.3-22.1,2.2C318.5,99.7,362.2,92.8,366.4,119.3z"/>
<g id="head">
	
		<linearGradient id="SVGID_1_" gradientUnits="userSpaceOnUse" x1="285.65" y1="439.81" x2="285.65" y2="553.79" gradientTransform="matrix(1 0 0 -1 0 622)">
		<stop  offset="0" style="stop-color:#D2D1D6"/>
		<stop  offset="0.99" style="stop-color:#FFFEFF"/>
	</linearGradient>
	<path class="st2" d="M437.9,89c-11.5-34.6-43.8-51.1-78.6-55.3h-0.1c-76.8-12.6-139-2.1-156.2,1.3c-2.1,0.4-3.5,0.7-4.2,0.9
		l-0.4,0.1h-0.2l0,0c-38.1,9-67.5,35.2-69,77.2c0,0.6,0,1.3,0.1,1.9c-0.2,49.3,17.5,92.3,71.5,101.9c56.2,9,113.4,9,169.6,0
		c37.4-5.9,66.7-36.9,69.3-74.3c0.5-9.6,2.1-21,2.4-32.2v-0.1C441.9,102.7,440.7,95.3,437.9,89z M407.8,111.5L407.8,111.5
		c-0.5,32.5-6,67-44,73.5c-51.7,8.3-104.3,8.2-156-0.2c-37.6-6.5-43.4-40.3-44-72.6c0-0.3,0-0.6,0-0.9C162.1,68,198.2,55.5,235.1,55
		c33.6-3.6,67.4-3.6,101,0C373.2,55.5,409.9,68.1,407.8,111.5z"/>
	<path class="st3" d="M407.8,118.5c-0.5,32.5-6,67-44,73.5c-51.7,8.3-104.3,8.2-156-0.2c-35.4-6.1-42.6-36.5-43.8-66.9
		c-3.9-36.3,15.6-52.1,42-59.1l0,0c0,0,66.7-19.3,148.7-2.5c4.9,0.7,9.7,1.7,14.5,3.1h0.1c1.9,0.5,3.7,1.1,5.5,1.8
		C394.5,75.8,409.3,90.9,407.8,118.5z"/>
	<path class="st0" d="M407.8,118.5c-0.5,32.5-6,67-44,73.5c-51.7,8.3-104.3,8.2-156-0.2c-35.4-6.1-42.6-36.5-43.8-66.9
		c-3.9-36.3,15.6-52.1,42-59.1l0,0c0,0,66.7-19.3,148.7-2.5c4.9,0.7,9.7,1.7,14.5,3.1h0.1c1.9,0.5,3.7,1.1,5.5,1.8
		C394.5,75.8,409.3,90.9,407.8,118.5z"/>
	<path class="st4" d="M249.4,126.2c-1.8,11.1-9.8-0.2-22.1-2.2s-23.5,6.6-21.7-4.7C210.4,92.5,252.7,99.4,249.4,126.2z M344.9,124
		c-12,2-20.2,13.3-22.1,2.2c-4-26.6,39.5-33.3,43.8-6.7C368.3,130.6,357,122.2,344.9,124L344.9,124z"/>
	<path class="st4" d="M249.4,126.2c-1.8,11.1-9.8-0.2-22.1-2.2s-23.5,6.6-21.7-4.7C210.4,92.5,252.7,99.4,249.4,126.2z M344.9,124
		c-12,2-20.2,13.3-22.1,2.2c-4-26.6,39.5-33.3,43.8-6.7C368.3,130.6,357,122.2,344.9,124L344.9,124z"/>
	<path class="st4" d="M313,159.6c0.2,33.4-54.4,33.4-54.2,0c0.1-2.6,2.2-4.7,4.8-4.8h44.7C310.9,154.8,313,156.9,313,159.6
		L313,159.6z"/>
</g>
<g id="right">
	<path class="st5" d="M493,220.5c0,0,30.3,6.4,32.2,31.2s-37.2,3.8-37.2,3.8l-0.8-32.7L493,220.5z"/>
	<path class="st6" d="M523.4,259.2c0,0,3.5-15-9.4-18.6s-18,5-18,5l-1,10L523.4,259.2z"/>
</g>
<g id="left">
	<path class="st5" d="M79,236.5c0,0-30.9,14.3-32.7,39.2s37.2,3.8,37.2,3.8l0.8-32.7L79,236.5z"/>
	<path class="st6" d="M48,283.2c0,0-3.5-15,9.4-18.6s18,5,18,5l1,10L48,283.2z"/>
</g>
<polygon class="st7" points="555.2,556.7 571.6,593.4 445,593.4 451.3,573.9 516,574.5 527,517.5 571.6,518 "/>
<polygon class="st7" points="16.3,556.7 0,593.4 126.6,593.4 121.6,572.5 55.6,574.5 44.6,517.5 0,518 "/>
<linearGradient id="SVGID_00000103954138728527381800000006022233516400021948_" gradientUnits="userSpaceOnUse" x1="288.2953" y1="53.3002" x2="286.3052" y2="470.0502" gradientTransform="matrix(1 0 0 -1 0 694)">
	<stop  offset="0" style="stop-color:#0077FF"/>
	<stop  offset="0.99" style="stop-color:#00ACFF"/>
</linearGradient>
<path style="fill:url(#SVGID_00000103954138728527381800000006022233516400021948_);" d="M494,525.2c0,0,4.8,17.1-20.1,47.4
	c-2,2.5-4.3,5-6.7,7.7c-3,3.3-6.4,6.7-10.2,10.3c-28.6,27.2-78.9,61.8-167,102.1l-4.1,1.8l-4.1-1.8
	c-99.6-45.6-150.8-83.9-177.1-112.4c-3.3-3.6-6.2-7-8.7-10.2c-22.5-28.7-18-44.9-18-44.9l-3.6-331.9l-0.5-22.8l210.1-31l214.2,31
	L494,525.2z"/>
<path class="st9" d="M473.9,564.8v7.8c-2,2.5-4.3,5-6.7,7.7H104.7c-3.3-3.6-6.2-7-8.7-10.2v-5.3H473.9z"/>
<path class="st10" d="M494,525.2c0,0,6.7,24-37,65.4L74,170.5l0,0l210-31l214.1,31.4L494,525.2z"/>
<rect x="56" y="499.6" class="st7" width="460" height="75.5"/>
<g class="st11">
	<path class="st12" d="M174.5,223.2h-7.2V205l-8.1,13.4h-0.8l-8.1-13.4v18.3H143v-31.5h7.2l8.5,14l8.5-14h7.2v31.4H174.5z"/>
	<path class="st12" d="M178.5,207.5c0-9.3,7.3-16.4,16.4-16.4c9,0,16.4,7.1,16.4,16.4c0,9.3-7.3,16.4-16.4,16.4
		C185.9,223.9,178.5,216.8,178.5,207.5z M204.1,207.5c0-5.6-4-9.3-9.2-9.3c-5.1,0-9.2,3.7-9.2,9.3s4,9.4,9.2,9.4
		C200,216.9,204.1,213.1,204.1,207.5z"/>
	<path class="st12" d="M240,191.8v31.5h-5.4l-12.1-17.1v17.1h-7.2v-31.5h5.4l12.1,17.1v-17.1H240z"/>
	<path class="st12" d="M265.2,216.3v6.9h-19.8v-31.5H265v6.9h-12.4v5.2h11.2v6.8h-11.2v5.6h12.6V216.3z"/>
</g>
<g class="st11">
	<path class="st12" d="M284.4,211.2v12.1h-7.2v-12.1l-10.6-19.4h8.2l6,12.1l6-12.1h8.2L284.4,211.2z"/>
</g>
<g class="st11">
	<path class="st12" d="M295,206.6h17v6.5h-17V206.6z"/>
	<path class="st12" d="M340.8,214c0,5.6-4.5,9.2-10.2,9.2h-13.2v-31.5h12.3c5.5,0,9.9,3.6,9.9,9c0,2.6-1,4.7-2.7,6.2
		C339.3,208.4,340.8,210.8,340.8,214z M324.6,198.5v5.6h5.1c1.6,0,2.7-1.2,2.7-2.8s-1.1-2.8-2.7-2.8H324.6z M333.6,213.5
		c0-1.8-1.2-3-3-3h-6v6h6C332.5,216.5,333.6,215.2,333.6,213.5z"/>
</g>
<g class="st11">
	<path class="st12" d="M363.3,218.3h-11.7l-1.6,4.9h-7.9l10.7-31.5h9.2l10.7,31.5h-7.9L363.3,218.3z M361.1,211.6l-3.7-11.6
		l-3.7,11.6H361.1z"/>
</g>
<g class="st11">
	<path class="st12" d="M372.4,207.5c0-9.3,6.9-16.4,16.4-16.4c5.7,0,10.7,2.8,13.5,7.3l-6.2,3.6c-1.4-2.4-4.1-3.9-7.3-3.9
		c-5.6,0-9.2,3.7-9.2,9.3s3.6,9.4,9.2,9.4c3.2,0,5.9-1.4,7.3-3.9l6.2,3.6c-2.7,4.5-7.7,7.3-13.5,7.3
		C379.3,223.9,372.4,216.8,372.4,207.5z"/>
</g>
<g class="st11">
	<path class="st12" d="M423.3,223.2l-10.1-14.6v14.6H406v-31.5h7.2v13.7l9.6-13.7h8.2L420.4,207l11.1,16.1L423.3,223.2L423.3,223.2z
		"/>
</g>
<g id="_x33_0" class="st11">
	<path class="st12" d="M276.7,355.9c0,22.2-17.3,33.7-36.8,33.7c-15.3,0-29.1-6.8-35.3-21.6l19.9-11.5c2.3,6.6,6.6,10.7,15.4,10.7
		c9.5,0,13.7-5,13.7-11.2s-4.2-11.2-13.7-11.2h-4.8l-8.8-13.1l18.3-23.2h-36.9v-21.6h64.9v18.7l-17.4,22.2
		C267.7,332,276.7,342,276.7,355.9z"/>
	<path class="st12" d="M285.4,337.2c0-31.1,15-52.5,41.1-52.5s41.1,21.3,41.1,52.5c0,31.1-15,52.5-41.1,52.5
		S285.4,368.3,285.4,337.2z M344.5,337.2c0-19.5-5.9-30-18-30s-18,10.5-18,30s5.9,30,18,30S344.5,356.7,344.5,337.2z"/>
</g>
<g class="st11">
	<path class="st12" d="M249.8,437.7c0,13.5-10,23.9-23.2,23.9h-19.1v-47.8h19.1C239.8,413.8,249.8,424.2,249.8,437.7z M239.3,437.7
		c0-8.2-5.2-13.4-12.7-13.4h-8.2V451h8.2C234.1,451.1,239.3,445.9,239.3,437.7z"/>
</g>
<g class="st11">
	<path class="st12" d="M282.4,454.1h-17.7l-2.4,7.5h-11.9l16.2-47.8h13.9l16.2,47.8h-11.9L282.4,454.1z M279.1,443.8l-5.6-17.5
		l-5.6,17.5H279.1z"/>
</g>
<g class="st11">
	<path class="st12" d="M316.7,443.2v18.4h-10.9v-18.4l-16-29.4h12.4l9.1,18.4l9.1-18.4h12.4L316.7,443.2z"/>
</g>
<g class="st11">
	<path class="st12" d="M331,450.7l9.4-5.5c1.7,4,4.6,6.6,10,6.6c5.2,0,6.5-2,6.5-3.9c0-2.9-2.7-4.1-9.9-6.1
		c-7.1-2-14.1-5.4-14.1-14.5c0-9.2,7.8-14.5,16-14.5c7.8,0,14,3.8,17.5,10.8l-9.2,5.4c-1.6-3.4-3.9-5.5-8.3-5.5
		c-3.4,0-5.1,1.7-5.1,3.6c0,2.2,1.2,3.7,8.6,5.9c7.2,2.2,15.4,4.7,15.4,14.8c0,9.2-7.4,14.7-17.7,14.7
		C340.1,462.5,333.7,457.7,331,450.7z"/>
</g>
<line id="line" class="st13" x1="140" y1="250.5" x2="429" y2="250.5"/>
<g class="st11">
	<path class="st4" d="M102.3,516.9v33.8h-7.7V525l-6,1.6l-1.9-6.6l8.8-3.2h6.8C102.3,516.8,102.3,516.9,102.3,516.9z"/>
	<path class="st4" d="M107.1,533.8c0-10.4,5-17.6,13.8-17.6s13.8,7.1,13.8,17.6s-5,17.6-13.8,17.6S107.1,544.2,107.1,533.8z
		 M126.9,533.8c0-6.5-2-10-6-10s-6,3.5-6,10s2,10,6,10S126.9,540.3,126.9,533.8z"/>
</g>
<g class="st11">
	<path class="st4" d="M136.8,533.8c0-10.4,5-17.6,13.8-17.6c8.7,0,13.8,7.1,13.8,17.6s-5,17.6-13.8,17.6
		C141.8,551.3,136.8,544.2,136.8,533.8z M156.6,533.8c0-6.5-2-10-6-10s-6,3.5-6,10s2,10,6,10S156.6,540.3,156.6,533.8z"/>
</g>
<g class="st11">
	<path class="st4" d="M166.7,524.4c0-4.5,3.6-8.2,8.4-8.2c4.8,0,8.3,3.5,8.3,8.2c0,4.5-3.6,8.2-8.3,8.2
		C170.3,532.6,166.7,529,166.7,524.4z M192.5,521.2l3.2,1.8l-21.8,24.2l-3.2-1.9L192.5,521.2z M177.7,524.4c0-1.5-1.1-2.7-2.6-2.7
		s-2.6,1.2-2.6,2.7s1.1,2.7,2.6,2.7C176.6,527.1,177.7,525.8,177.7,524.4z M183.9,543c0-4.5,3.6-8.2,8.4-8.2c4.8,0,8.3,3.7,8.3,8.2
		s-3.6,8.2-8.3,8.2C187.5,551.2,183.9,547.6,183.9,543z M194.9,543c0-1.5-1.1-2.7-2.6-2.7s-2.6,1.2-2.6,2.7s1.1,2.7,2.6,2.7
		C193.8,545.7,194.9,544.4,194.9,543z"/>
</g>
<g class="st11">
	<path class="st4" d="M250.1,534.7c0,10.3-7.2,16.6-16.7,16.6c-10.6,0-18.2-7.8-18.2-17.5c0-9.8,7.8-17.6,17.7-17.6
		c6.5,0,11.9,3.2,14.8,7.7l-6.6,3.8c-1.4-2.2-4.4-4-8.3-4c-5.7,0-9.9,4.2-9.9,10.1c0,5.7,4.1,9.9,10.6,9.9c4.5,0,7.4-2,8.6-5.2h-9
		v-6.8H250L250.1,534.7L250.1,534.7z"/>
</g>
<g class="st11">
	<path class="st4" d="M254.1,539.8v-22.9h7.7v22.2c0,2.6,1.2,4.7,5.3,4.7s5.3-2.2,5.3-4.7v-22.2h7.7v22.9c0,7.2-5.6,11.6-13,11.6
		S254.1,547,254.1,539.8z"/>
</g>
<g class="st11">
	<path class="st4" d="M304.6,545.4h-12.5l-1.7,5.3H282l11.5-33.8h9.8l11.5,33.8h-8.4L304.6,545.4z M302.3,538.1l-4-12.4l-4,12.4
		H302.3z"/>
	<path class="st4" d="M329.1,539.6h-3.7v11.1h-7.7v-33.8h13.5c6.4,0,11.6,5.2,11.6,11.6c0,4.2-2.5,7.9-6.2,9.8l7.2,12.4h-8.3
		L329.1,539.6z M325.4,532.8h5.8c2.1,0,3.9-1.9,3.9-4.3c0-2.5-1.7-4.3-3.9-4.3h-5.8V532.8z"/>
	<path class="st4" d="M367.1,545.4h-12.5l-1.7,5.3h-8.4l11.5-33.8h9.8l11.5,33.8h-8.4L367.1,545.4z M364.8,538.1l-4-12.4l-4,12.4
		H364.8z"/>
	<path class="st4" d="M406.7,516.9v33.8h-5.8l-13-18.3v18.3h-7.7v-33.8h5.8l13,18.3v-18.3H406.7z"/>
	<path class="st4" d="M435.2,524.3h-8.7v26.4h-7.7v-26.4h-8.7v-7.4h25.1L435.2,524.3L435.2,524.3z"/>
	<path class="st4" d="M459.8,543.2v7.4h-21.2v-33.8h21v7.4h-13.3v5.6h12.1v7.3h-12.1v6L459.8,543.2L459.8,543.2z"/>
	<path class="st4" d="M485.4,543.2v7.4h-21.2v-33.8h21v7.4h-13.3v5.6H484v7.3h-12.1v6L485.4,543.2L485.4,543.2z"/>
</g>
<g id="left-arm">
	<polygon class="st14" points="162.1,385.4 155,387.9 144.7,383.3 144.8,374.5 151.8,369.8 	"/>
	<path class="st14" d="M141.2,417l-9.1,3.4l-25.9-13.6l-2.3-19.2c0,0-25.1-18.6-27.8-32l0.1-19.4l50.4,53.3l21.5,22.6L141.2,417z"/>
	<g>
		<polygon class="st15" points="154,408.4 141.2,389.5 147.4,378.9 141.1,389.5 		"/>
		<polygon class="st16" points="147,354.5 128.8,358.7 108.6,370.3 111.2,399.9 141.2,417 148.9,414.5 154,408.4 141.1,389.5 
			147.4,378.9 162.1,385.4 169.8,383.5 174.3,375.5 		"/>
	</g>
	<g>
		<polygon class="st15" points="143.9,414.9 150.4,407.1 140.4,393.2 140,373.9 149.9,374.3 149.9,380 158.9,384 166.1,381.8 
			171.1,373 147,354.5 128.8,358.7 108.6,370.3 111.2,399.9 141.2,417 143.5,416.3 		"/>
	</g>
	<g>
		<path class="st15" d="M147,354.5l-18.2,4.2l-12.6,7.2c0.8,6.6,3.9,31,3.5,31.2c-0.5,0.2,25.2,14.9,29.3,17.2l5.1-5.9l-12.9-19
			l6.2-10.5l14.7,6.5l7.7-1.9l4.6-8.1L147,354.5z"/>
		<path class="st17" d="M119.7,397.2c0.5-0.2-2.6-24.6-3.5-31.2l-7.6,4.4l2.6,29.7l30,17.1l7.7-2.6l0.1-0.1
			C144.9,412,119.2,397.4,119.7,397.2z"/>
	</g>
	<g>
		<path class="st15" d="M146.7,357c-0.3-0.2-17.2,3.9-17.2,3.9l-11.6,6.7c0,0,0.4-1.3,1.2-3.3l-10.5,6l2.6,29.7l30,17.1l7.7-2.6
			l5.1-6l-12.9-19l6.2-10.5l14.7,6.5l7.7-1.9l3.8-6.7C168.3,372.9,147,357.2,146.7,357z"/>
	</g>
	<g>
		<polygon class="st15" points="147.4,378.9 147.4,378.9 149.9,374.3 169.8,383.5 174.3,375.5 147,354.5 128.8,358.7 108.6,370.3 
			111.2,399.9 141.2,417 148.9,414.5 154,408.4 141.2,389.5 		"/>
		<polygon class="st17" points="147.4,378.9 162.1,385.4 169.8,383.5 149.9,374.3 		"/>
	</g>
	<path class="st18" d="M126,361.3c-0.2-0.5-0.6-1-1.2-1.2c-2.6-1.1-11.6-6.4-25.7-29.9C82.2,302,81.8,279.3,77.2,273
		s-14.8-7.9-23.8-2s-10.6,22.4,3.4,47.9s37.9,56.5,53.5,63.1C117.5,382.3,130,372.7,126,361.3z"/>
	<g>
		<path class="st15" d="M116.5,380.5c-0.2,0.1-0.4,0.2-0.6,0.3C116.1,380.7,116.3,380.6,116.5,380.5z"/>
		<path class="st15" d="M118.1,379.6c-0.2,0.1-0.4,0.2-0.6,0.3C117.7,379.8,117.9,379.7,118.1,379.6z"/>
		<path class="st15" d="M117.3,380.1c-0.2,0.1-0.4,0.2-0.6,0.3C116.9,380.3,117.1,380.2,117.3,380.1z"/>
		<path class="st15" d="M115.7,380.9c-0.2,0.1-0.4,0.2-0.6,0.2C115.3,381.1,115.5,381,115.7,380.9z"/>
		<path class="st15" d="M114.9,381.2c-0.2,0.1-0.4,0.2-0.6,0.2C114.5,381.4,114.7,381.3,114.9,381.2z"/>
		<path class="st15" d="M120.4,377.9c-0.2,0.2-0.4,0.3-0.6,0.5C120,378.2,120.2,378,120.4,377.9z"/>
		<path class="st15" d="M118.9,379.1c-0.2,0.1-0.4,0.3-0.6,0.4C118.5,379.3,118.7,379.2,118.9,379.1z"/>
		<path class="st15" d="M121.2,377.2c-0.2,0.2-0.4,0.4-0.6,0.6C120.8,377.6,121,377.4,121.2,377.2z"/>
		<path class="st15" d="M119.7,378.5c-0.2,0.1-0.4,0.3-0.6,0.4C119.3,378.8,119.5,378.6,119.7,378.5z"/>
		<path class="st15" d="M121.9,376.5c-0.2,0.2-0.4,0.4-0.6,0.6C121.5,376.9,121.7,376.7,121.9,376.5z"/>
		<path class="st15" d="M77.2,273.1c4.6,6.2,5,29,21.9,57.2c14.4,23.8,23.4,28.9,25.8,29.9c0,0-0.1,0-0.1-0.1
			c-2.6-1.1-11.6-6.4-25.7-29.9C82.2,302.1,81.8,279.3,77.2,273.1c-2.8-3.9-7.9-6-13.5-5.6C69.3,267.1,74.3,269.2,77.2,273.1z"/>
		<path class="st15" d="M122.6,375.7c3.3-3.8,5.3-8.9,3.4-14.4c0-0.1-0.1-0.2-0.2-0.3C128,366.6,126,371.9,122.6,375.7z"/>
		<path class="st15" d="M122.6,375.8c-0.2,0.2-0.4,0.5-0.6,0.7C122.2,376.2,122.4,376,122.6,375.8z"/>
		<path class="st15" d="M114.1,381.5c-0.2,0.1-0.4,0.1-0.7,0.2C113.6,381.6,113.8,381.6,114.1,381.5z"/>
		<path class="st15" d="M113.3,381.7c-0.2,0.1-0.5,0.1-0.7,0.2C112.8,381.9,113,381.8,113.3,381.7z"/>
		<path class="st15" d="M112.5,381.9c-0.5,0.1-1,0.2-1.5,0.2C111.5,382.1,112,382,112.5,381.9z"/>
		<path class="st15" d="M110.3,382.1c0.2,0,0.4,0,0.6,0C110.7,382.1,110.5,382.1,110.3,382.1L110.3,382.1z"/>
		<path class="st18" d="M122,376.4c0.2-0.2,0.4-0.5,0.6-0.7l0,0c3.4-3.9,5.4-9.1,3.2-14.7c-0.2-0.4-0.5-0.6-0.9-0.8
			c-2.4-1-11.5-6.1-25.8-29.9c-16.9-28.2-17.3-50.9-21.9-57.2c-2.9-3.9-7.9-6-13.5-5.6c-3.3,0.2-6.9,1.4-10.2,3.6
			c-9,5.9-10.6,22.4,3.4,47.9c14,25.6,37.9,56.5,53.5,63.1c0.2,0,0.4,0,0.6,0h0.1c0.5,0,1-0.1,1.5-0.2l0,0c0.2,0,0.5-0.1,0.7-0.2
			h0.1c0.2-0.1,0.4-0.1,0.7-0.2c0.1,0,0.1,0,0.2-0.1c0.2-0.1,0.4-0.1,0.6-0.2c0.1,0,0.1-0.1,0.2-0.1c0.2-0.1,0.4-0.2,0.6-0.2
			c0.1,0,0.2-0.1,0.2-0.1c0.2-0.1,0.4-0.2,0.6-0.3c0.1,0,0.2-0.1,0.2-0.1c0.2-0.1,0.4-0.2,0.6-0.3c0.1,0,0.2-0.1,0.2-0.1
			c0.2-0.1,0.4-0.2,0.6-0.3c0.1,0,0.1-0.1,0.2-0.1c0.2-0.1,0.4-0.3,0.6-0.4c0.1,0,0.1-0.1,0.2-0.1c0.2-0.1,0.4-0.3,0.6-0.4
			c0.1,0,0.1-0.1,0.2-0.1c0.2-0.2,0.4-0.3,0.6-0.5l0.1-0.1c0.2-0.2,0.4-0.4,0.6-0.6l0.1-0.1C121.5,376.9,121.7,376.7,122,376.4
			C121.9,376.5,122,376.5,122,376.4z"/>
	</g>
	<g>
		<path class="st15" d="M83.9,294.8c-3.1-10.7-4.3-18.4-6.7-21.7c-4.6-6.2-14.8-7.9-23.8-2c-7.3,4.8-9.7,16.6-2.8,34.6
			C59.7,300.9,75.6,294.7,83.9,294.8z"/>
		
			<linearGradient id="SVGID_00000175319635859764897000000016985824761130366603_" gradientUnits="userSpaceOnUse" x1="2101.8081" y1="2189.5095" x2="1976.7882" y2="2150.8296" gradientTransform="matrix(0.1638 0.9865 0.9865 -0.1638 -2374.1172 -1297.3398)">
			<stop  offset="0" style="stop-color:#B5B4BC"/>
			<stop  offset="1" style="stop-color:#B5B4BC;stop-opacity:0"/>
		</linearGradient>
		<path style="fill:url(#SVGID_00000175319635859764897000000016985824761130366603_);" d="M50.6,305.7c1.6,4.1,3.6,8.5,6.2,13.3
			c14,25.6,37.9,56.5,53.5,63.1c7.2,0.2,19.7-9.4,15.7-20.8c-0.2-0.5-0.6-1-1.2-1.2c-2.6-1.1-11.6-6.4-25.7-29.9
			c-8.1-13.5-12.4-25.7-15.2-35.5C75.6,294.7,59.7,300.9,50.6,305.7z"/>
	</g>
	<g>
		<path class="st15" d="M64.5,292.6C63,308.2,85,343.4,95.4,355.9c8.7,10.6,19.6,17.4,26.6,20.5c3.7-3.8,6.1-9.2,4-15.1
			c-0.2-0.5-0.6-1-1.2-1.2c-2.6-1.1-11.6-6.4-25.7-29.9c-14-23.3-16.7-43-19.8-52.5C75.8,277.9,65.6,279.7,64.5,292.6z"/>
	</g>
	<g>
		<path class="st15" d="M83.7,294v-0.1c-1.1-3.8-1.9-7.1-2.6-10.1c-2.5-5.9-7.1-12-15.8-11.5c-16.3,1-17.2,22.2-0.3,54.3
			c13.3,25.4,28.8,45.4,45.9,55.5c7.2-0.3,19.1-9.7,15.2-20.8c-0.2-0.5-0.6-1-1.2-1.2c-2.6-1.1-11.6-6.4-25.7-29.9
			c-8.3-13.7-12.6-26.2-15.4-36L83.7,294z"/>
		<path class="st18" d="M83.8,294.2c0-0.1-0.1-0.2-0.1-0.3c0,0.1,0,0.1,0,0.1L83.8,294.2z"/>
		<path class="st18" d="M64.9,326.6c-16.8-32.1-16-53.2,0.3-54.3c8.6-0.6,13.3,5.6,15.8,11.5c-1.3-5-2.3-8.7-3.8-10.7
			c-4.6-6.2-14.8-7.9-23.8-2s-10.6,22.4,3.4,47.9s37.9,56.5,53.5,63.1c0.2,0,0.3,0,0.5,0C93.7,372,78.2,352,64.9,326.6z"/>
	</g>
</g>
<g id="right-arm">
	<polygon class="st14" points="414.9,366.7 421,368.1 433.7,361.2 430.2,354.3 413.6,365.1 	"/>
	<path class="st14" d="M437.8,396.8l9.4,2.5l24.4-16.2V365c0,0,14.9-11.8,24.5-27.4l0.2-14.4l-56.6,67.4L437.8,396.8z"/>
	<g>
		<path class="st15" d="M436,369.3l-11.6,19.8L436,369.3z"/>
		<polygon class="st16" points="446.3,337.8 427.9,334.8 402,357.5 407.1,365.3 414.9,366.7 429.1,359.2 436,369.3 436,369.3 
			436,369.3 424.4,389.1 429.9,394.8 437.8,396.8 466.6,377.8 467.2,348 		"/>
	</g>
	<g>
		<polygon class="st15" points="446.3,337.8 427.9,334.8 405,354.8 410.6,363.3 417.9,365.1 426.7,360.4 426.3,354.7 436.1,353.7 
			437.1,372.9 428,387.5 435,394.8 435.5,396.2 437.8,396.8 466.6,377.8 467.2,348 		"/>
	</g>
	<g>
		<path class="st15" d="M429.8,394.7c3.8-2.5,28.7-18.9,28.1-19.1c-0.5-0.2,1-24.7,1.4-31.4l-13-6.4l-18.4-3L402,357.5l5.1,7.7
			l7.8,1.4l14.2-7.5l7,10.1L424.5,389L429.8,394.7z"/>
		<path class="st17" d="M457.9,375.5c0.5,0.2-24.3,16.6-28.1,19.1l0.1,0.1l7.9,2.1l28.8-19.1l0.6-29.8l-7.9-3.8
			C458.9,350.9,457.5,375.4,457.9,375.5z"/>
	</g>
	<g>
		<path class="st15" d="M456.3,342.7c0.9,1.9,1.4,3.3,1.4,3.3l-12-5.9c0,0-17.1-3-17.4-2.7c-0.3,0.2-20.5,17.3-25.4,21.6l4.2,6.4
			l7.8,1.4l14.2-7.5l7,10.1l-11.6,19.8l5.5,5.7l7.9,2.1l28.8-19.1l0.6-29.8L456.3,342.7z"/>
	</g>
	<g>
		<polygon class="st15" points="446.3,337.8 427.9,334.8 402,357.5 407.1,365.3 426.3,354.7 429,359.2 429.1,359.2 436,369.3 
			424.4,389.1 429.9,394.8 437.8,396.8 466.6,377.8 467.2,348 		"/>
		<polygon class="st17" points="407.1,365.3 414.9,366.7 429,359.2 426.3,354.7 		"/>
	</g>
	<path class="st18" d="M449.3,340.2c0.2-0.6,0.6-1,1.1-1.3c2.5-1.3,11.2-7.1,23.7-31.5c15-29.2,13.9-52,18.1-58.5s14.2-8.9,23.6-3.6
		c9.3,5.3,12,21.6-0.2,48s-34,58.9-49.1,66.5C459.1,360.6,446,351.8,449.3,340.2z"/>
	<g>
		<path class="st15" d="M463.5,325.2c0.3-0.4,0.5-0.7,0.8-1.1C464,324.5,463.8,324.9,463.5,325.2z"/>
		<path class="st15" d="M459.3,330.9c0.2-0.3,0.5-0.6,0.7-0.9C459.7,330.3,459.5,330.6,459.3,330.9z"/>
		<path class="st15" d="M460.1,329.9c1-1.3,2.1-2.8,3.3-4.4C462.2,327.1,461.1,328.6,460.1,329.9z"/>
		<path class="st15" d="M464.5,323.7c0.3-0.4,0.5-0.8,0.8-1.2C465.1,323,464.8,323.4,464.5,323.7z"/>
		<path class="st15" d="M465.6,322.2c0.9-1.3,1.8-2.8,2.7-4.3C467.3,319.4,466.4,320.9,465.6,322.2z"/>
		<path class="st15" d="M454.5,336c0.2-0.1,0.3-0.3,0.5-0.5C454.8,335.7,454.6,335.8,454.5,336z"/>
		<path class="st15" d="M458.5,331.8c0.2-0.3,0.4-0.5,0.7-0.8C458.9,331.3,458.7,331.6,458.5,331.8z"/>
		<path class="st15" d="M450.3,339L450.3,339c0.7-0.4,2.1-1.2,4-2.9C452.5,337.7,451.1,338.6,450.3,339z"/>
		<path class="st15" d="M455.1,335.4c0.2-0.2,0.3-0.3,0.5-0.5C455.4,335.1,455.3,335.2,455.1,335.4z"/>
		<path class="st15" d="M469.6,315.5c0.2-0.4,0.4-0.8,0.7-1.2C470.1,314.7,469.9,315.1,469.6,315.5z"/>
		<path class="st15" d="M466.3,359.9c-7.2,0.7-20.4-8.2-16.9-19.9c0,0.1-0.1,0.1-0.1,0.2C446,351.8,459.1,360.6,466.3,359.9
			c8.2-4.1,18.3-15.5,27.8-29.3C484.5,344.4,474.4,355.8,466.3,359.9z"/>
		<path class="st15" d="M458.4,331.9c-1,1.1-1.8,2-2.6,2.8C456.5,334,457.4,333,458.4,331.9z"/>
		<path class="st15" d="M519.7,248.9c5.8,7.5,5.9,22.4-4.3,44.4C525.7,271.4,525.5,256.4,519.7,248.9z"/>
		<path class="st15" d="M468.5,317.5c0.2-0.4,0.5-0.8,0.7-1.2C468.9,316.7,468.7,317.1,468.5,317.5z"/>
		<path class="st15" d="M472.2,310.9c0.2-0.3,0.4-0.7,0.5-1C472.6,310.2,472.4,310.5,472.2,310.9z"/>
		<path class="st15" d="M515.7,245.4c-9.3-5.3-19.4-3-23.6,3.6c-0.4,0.6-0.7,1.4-1,2.3c0.3-0.9,0.7-1.6,1-2.2
			C496.2,242.4,506.3,240,515.7,245.4z"/>
		<path class="st15" d="M470.9,313.3c0.2-0.4,0.4-0.8,0.6-1.1C471.3,312.5,471.1,312.9,470.9,313.3z"/>
		<path class="st18" d="M519.7,248.9c-1.1-1.5-2.5-2.7-4.1-3.6c-9.3-5.3-19.4-2.9-23.6,3.6c-0.4,0.6-0.7,1.4-1,2.2
			c-3,8.6-3.4,29.8-17,56.3c-0.4,0.8-0.8,1.6-1.3,2.4c-0.2,0.3-0.4,0.7-0.5,1c-0.2,0.4-0.5,0.9-0.7,1.3s-0.4,0.8-0.6,1.1
			c-0.2,0.3-0.4,0.7-0.6,1c-0.2,0.4-0.4,0.8-0.7,1.2c-0.2,0.3-0.3,0.5-0.5,0.8c-0.2,0.4-0.5,0.8-0.7,1.2c-0.1,0.1-0.1,0.2-0.2,0.3
			c-0.9,1.6-1.8,3-2.7,4.3c-0.1,0.1-0.2,0.2-0.2,0.4c-0.3,0.4-0.5,0.8-0.8,1.2c-0.1,0.1-0.2,0.2-0.2,0.3c-0.3,0.4-0.5,0.8-0.8,1.1
			c-0.1,0.1-0.1,0.1-0.2,0.2c-1.2,1.7-2.3,3.1-3.3,4.4l-0.1,0.1c-0.2,0.3-0.5,0.6-0.7,0.9c0,0.1-0.1,0.1-0.1,0.2
			c-0.2,0.3-0.4,0.5-0.7,0.8l-0.1,0.1c-1,1.1-1.8,2-2.6,2.8l-0.1,0.1c-0.2,0.2-0.4,0.3-0.5,0.5l-0.1,0.1c-0.2,0.2-0.3,0.3-0.5,0.5
			l-0.1,0.1c-1.9,1.7-3.3,2.5-4.1,2.9c-0.4,0.2-0.8,0.6-1,1.1c-3.4,11.7,9.7,20.6,16.9,19.9c8.2-4.1,18.3-15.5,27.8-29.3
			c8.1-11.7,15.7-25.1,21.4-37.2C525.6,271.4,525.5,256.4,519.7,248.9z"/>
	</g>
	<g>
		
			<linearGradient id="SVGID_00000125569001493359198950000005292967323556916926_" gradientUnits="userSpaceOnUse" x1="2284.3767" y1="3596.7876" x2="2159.3567" y2="3558.1077" gradientTransform="matrix(-0.1 1 -1 -0.1 4267.4497 -1513.05)">
			<stop  offset="0" style="stop-color:#B5B4BC"/>
			<stop  offset="1" style="stop-color:#B5B4BC;stop-opacity:0"/>
		</linearGradient>
		<path style="fill:url(#SVGID_00000125569001493359198950000005292967323556916926_);" d="M486.8,271c-2.2,9.9-5.6,22.4-12.8,36.4
			c-12.5,24.4-21.1,30.2-23.7,31.5c-0.5,0.3-0.9,0.7-1.1,1.3c-3.3,11.6,9.8,20.4,17,19.7c15.1-7.7,36.8-40.2,49.1-66.5
			c2.3-4.9,4-9.4,5.3-13.6C511.4,275.5,495.1,270.5,486.8,271z"/>
	</g>
	<g>
		<path class="st15" d="M465.9,359.9c16.4-11.2,30.5-32.2,42-58.3c14.7-33.1,12.4-54.2-3.9-54.1c-8.7,0-12.9,6.4-15,12.5
			c-0.6,3-1.2,6.4-2,10.2c0,0.1,0,0.1,0,0.1l-0.1,0.2c-2.1,10-5.6,22.7-12.9,36.9c-12.5,24.4-21.1,30.2-23.7,31.5
			c-0.5,0.3-0.9,0.7-1.1,1.3C446.1,351.6,458.7,360.3,465.9,359.9z"/>
		<path class="st18" d="M504,247.5c16.3,0,18.6,21,3.9,54.1c-11.6,26.1-25.7,47.1-42,58.3c0.1,0,0.3,0,0.4,0
			c15.1-7.7,36.8-40.2,49.1-66.5c12.3-26.4,9.6-42.7,0.2-48c-9.3-5.3-19.4-3-23.6,3.6c-1.3,2.1-2.1,5.9-3.1,11
			C491.1,253.9,495.3,247.5,504,247.5z"/>
		<path class="st18" d="M487,270.1c0,0.1-0.1,0.2-0.1,0.4l0.1-0.2C487,270.3,487,270.2,487,270.1z"/>
	</g>
</g>
<g id="star">
	<path class="st12" d="M287,650.7l-14.1,7.9l3.1-15.8l-11.8-11l16-1.9l6.8-14.6l6.8,14.6l16,1.9l-11.8,11l3.1,15.8L287,650.7z"/>
	<path class="st12" d="M341,624.5l-10.8,6l2.4-12.2l-9.1-8.4l12.3-1.5l5.2-11.2l5.2,11.2l12.3,1.5l-9.1,8.4l2.4,12.2L341,624.5z"/>
	<path class="st12" d="M233,624.5l-10.8,6l2.4-12.2l-9.1-8.4l12.3-1.5l5.2-11.2l5.2,11.2l12.3,1.5l-9.1,8.4l2.4,12.2L233,624.5z"/>
</g>
</svg>
