<svg viewBox="0 0 121 30" xmlns="http://www.w3.org/2000/svg"><path d="M5 5h8.206c1.563 0 2.736.379 3.604 1.01.955.758 1.476 1.853 1.476 3.2 0 1.558-.651 2.526-1.954 3.116v.084c1.737.547 2.736 2.063 2.736 3.874 0 1.726-.695 3.073-1.824 3.915-.955.674-2.17.969-3.82.969H5V5zm7.381 6.316c.869 0 1.52-.464 1.52-1.432 0-.926-.651-1.39-1.563-1.39H9.516v2.78h2.865v.042zm.391 6.273c.999 0 1.737-.59 1.737-1.642 0-1.137-.782-1.642-1.737-1.642H9.559v3.326h3.213v-.042zM19.807 5h4.298v16.21h-4.298V5zm5.166 10.442c0-3.663 2.431-6.105 6.209-6.105 3.777 0 6.165 2.484 6.165 6.105 0 3.663-2.388 6.105-6.165 6.105-3.778 0-6.209-2.442-6.209-6.105zm8.076 0c0-2.021-.651-3.284-1.954-3.284s-1.91 1.263-1.91 3.284c0 2.02.607 3.326 1.91 3.326 1.303-.042 1.954-1.305 1.954-3.326zm4.775 0c0-3.663 2.432-6.105 6.209-6.105s6.122 2.442 6.122 6.105c0 3.663-2.388 6.105-6.165 6.105-3.735 0-6.166-2.442-6.166-6.105zm8.076 0c0-2.021-.651-3.284-1.954-3.284-1.302 0-1.91 1.263-1.91 3.284 0 2.02.608 3.326 1.91 3.326 1.303-.042 1.954-1.305 1.954-3.326zm5.123-5.81h3.995v1.726h.086c.782-1.347 1.867-2.063 3.604-2.063 1.52 0 2.649.716 3.213 1.979h.087c.955-1.516 2.214-1.98 3.69-1.98 2.78 0 3.952 1.98 3.952 4.632v7.242h-4.17v-6.526c0-1.179-.39-1.937-1.432-1.937-1.042 0-1.563.926-1.563 2.19v6.273h-4.169v-6.526c0-1.179-.39-1.937-1.432-1.937-1.042 0-1.563.926-1.563 2.19v6.273h-4.299V9.632zm23.881 10.02h-.043v1.516h-3.995V5h4.168v5.81h.087c.782-1.01 1.867-1.558 3.387-1.558 2.996 0 4.732 2.61 4.732 6.105 0 3.916-1.867 6.19-4.993 6.19-1.302 0-2.648-.59-3.343-1.895zm4.038-4.337c0-1.852-.695-3.073-1.954-3.073-1.303 0-2.084 1.22-2.084 3.073s.825 3.074 2.084 3.074c1.26 0 1.954-1.179 1.954-3.074zm4.777.085c0-3.62 2.475-6.105 6.035-6.105 1.78 0 3.126.547 4.168 1.516 1.39 1.305 1.998 3.326 1.954 5.684h-7.989c.174 1.431.868 2.189 2.128 2.189.738 0 1.39-.337 1.65-1.095h4.037c-.694 2.653-2.822 3.958-5.818 3.958-3.69-.042-6.165-2.484-6.165-6.147zm4.168-1.221h3.821c-.087-1.39-.868-2.105-1.867-2.105-1.172-.042-1.824.758-1.954 2.105zm12.723-2.569h.087c.868-1.6 1.997-2.232 3.43-2.232.347 0 .564.043.694.127v3.537h-.086c-2.475-.422-3.908.715-3.908 3.326v4.842h-4.212V9.632h3.995v1.978zm4.64 9.599h4.038c.174.505.695.968 1.693.968 1.346 0 1.824-.8 1.824-2.02v-.843h-.087c-.651.758-1.563 1.306-2.865 1.306-2.562 0-4.82-1.853-4.82-5.474 0-3.326 1.824-5.894 4.603-5.894 1.606 0 2.561.631 3.213 1.6h.086V9.589h3.995v10.02c0 1.853-.651 3.285-1.65 4.127-1.042.884-2.518 1.263-4.212 1.263-3.213.042-5.427-1.221-5.818-3.79zm7.729-6.231c0-1.432-.695-2.61-1.911-2.61-1.172 0-1.91 1.01-1.91 2.61 0 1.558.738 2.652 1.91 2.652 1.173 0 1.911-1.137 1.911-2.652z" fill="#fff"/></svg>