<svg fill="none" viewBox="0 0 142 44" xmlns="http://www.w3.org/2000/svg"><path d="M10.978 44h3.295V26.4h-3.295V44zm12.077-.264h2.95V32.632L38.426 44V26.664h-2.942v10.915L23.054 26.4v17.336zm22.107-4.263c1.606 1.252 3.534 1.975 5.6 1.975 2.013 0 3.425-.693 3.425-2.223 0-1.334-.9-1.857-2.477-2.441l-2.554-.887c-2.354-.836-4.144-2.057-4.144-4.863 0-3.002 2.71-4.634 5.951-4.634 1.986 0 3.795.5 5.209 1.383v2.977c-1.47-1.086-3.079-1.834-5.146-1.834-1.779 0-3.109.664-3.109 2.049 0 1.25.835 1.751 2.305 2.255l2.845.998c2.757.97 4.022 2.472 4.022 4.944 0 3.11-2.737 4.828-6.327 4.828-2.36 0-4.365-.66-5.6-1.493v-3.033zM64.775 44h3.293V26.4h-3.293V44zm18.743-2.663c3.712 0 5.697-2.382 5.697-6.141 0-3.787-1.986-6.16-5.697-6.16h-3.671v12.3h3.671zM76.849 26.4h6.779c5.218 0 8.592 3.437 8.592 8.795 0 5.363-3.374 8.805-8.592 8.805h-6.779V26.4zm31.841 0v2.635h-7.97v4.235h7.147v2.606h-7.15v5.46h7.973V44H97.71V26.4h10.98zm11.69 7.97h3.268c1.935 0 3.025-1.062 3.025-2.695s-1.09-2.695-3.025-2.695h-3.268v5.39zm0 2.488V44h-2.908V26.4h6.231c3.553 0 5.852 1.83 5.852 5.275 0 2.947-1.276 4.64-3.994 5.074l6.183 7.25h-3.308l-5.987-7.14h-2.068v-.001zM9.83 9.06c1.289-.472 2.292-1.887 2.292-3.832 0-3.243-2.292-4.923-5.959-4.923H.003v18.1h6.732c3.667 0 5.96-1.8 5.96-5.189 0-1.917-1.204-3.597-2.865-4.156zM2.896 7.91V2.96h3.24c2.035 0 3.122.737 3.122 2.446 0 1.71-1.089 2.505-3.122 2.505h-3.24zm0 2.536h3.781c2.008 0 3.095 1 3.095 2.652 0 1.621-1.089 2.654-3.093 2.654H2.897v-5.308l-.001.002zm23.24 8.253c4.21 0 7.047-2.536 7.047-7.487V.307h-2.98v10.552c0 3.478-1.432 5.1-4.068 5.1-2.636 0-4.067-1.622-4.067-5.1V.307h-2.98v10.876c0 4.981 2.864 7.517 7.047 7.517zm14.063-1.593c1.232.886 3.238 1.593 5.587 1.593 3.582 0 6.303-1.83 6.303-5.13 0-2.623-1.26-4.215-4.011-5.246l-2.835-1.062c-1.462-.53-2.293-1.06-2.293-2.387 0-1.474 1.318-2.18 3.094-2.18 2.063 0 3.667.794 5.129 1.945V1.484C49.769.543 47.963.012 45.986.012c-3.236 0-5.93 1.74-5.93 4.922 0 2.977 1.777 4.274 4.125 5.158l2.55.943c1.576.619 2.465 1.18 2.465 2.595 0 1.621-1.404 2.358-3.41 2.358-2.063 0-3.982-.767-5.587-2.093v3.212zM62.735.307h-2.978v18.097h2.978V.306zm8.5 18.075h2.871V6.608L86.19 18.663V.28h-2.862v11.573L71.236 0v18.382zM104.808.31v2.71h-7.735v4.356h6.936v2.68h-6.936v5.614h7.735v2.74H94.152V.31h10.656zm6.937 16.785c1.232.886 3.237 1.592 5.587 1.592 3.58 0 6.303-1.827 6.303-5.128 0-2.624-1.26-4.215-4.01-5.247l-2.838-1.06c-1.46-.531-2.292-1.062-2.292-2.389 0-1.474 1.317-2.18 3.094-2.18 2.062 0 3.667.796 5.13 1.945V1.474C121.313.531 119.508 0 117.53 0c-3.237 0-5.93 1.74-5.93 4.922 0 2.977 1.776 4.274 4.125 5.158l2.55.943c1.576.62 2.464 1.18 2.464 2.595 0 1.621-1.402 2.358-3.41 2.358-2.062 0-3.982-.766-5.585-2.093v3.212zm17.993 0c1.232.886 3.238 1.592 5.587 1.592 3.582 0 6.303-1.827 6.303-5.128 0-2.624-1.26-4.215-4.01-5.247l-2.838-1.06c-1.46-.531-2.292-1.062-2.292-2.389 0-1.474 1.32-2.18 3.094-2.18 2.063 0 3.67.796 5.13 1.945V1.474C139.307.531 137.502 0 135.525 0c-3.238 0-5.93 1.74-5.93 4.922 0 2.977 1.776 4.274 4.124 5.158l2.551.943c1.576.62 2.464 1.18 2.464 2.595 0 1.621-1.404 2.358-3.41 2.358-2.062 0-3.982-.766-5.587-2.093v3.212z" clip-rule="evenodd" fill="#161616" fill-rule="evenodd"/></svg>