<svg version="1.1" id="Layer_1" xmlns="http://www.w3.org/2000/svg" x="0" y="0" viewBox="0 0 1216.3 1430" xml:space="preserve"><style>.st3{opacity:.15;enable-background:new}.st6{fill:#2193a6}.st8{fill:#d5def1}.st9{fill:#161819}.st13{fill:#00a2fd}.st19{fill:#fff}.st20{fill:#00c3ff}.st27{fill:#ff9100}</style><g id="Layer_1-2"><g id="bg" opacity=".6"><path d="M771.4 1119.9c-92.2-30-193.3-32.9-289.8-9.8-252.4 60.5-129.3-61.9-172-137.7-49.6-88.1 196.7-169.2 234.2-264.8S294.7 543.4 375.8 473c63.5-55-62.6-157.5 20.5-180.9 81.1-22.8 167.1-19.9 250.8-15.2 107.7 6 217 14.9 316.4 50.9 81.1 29.3 161.2 88.9 159.9 169.4-1.1 68.6-61.5 129.8-61.3 198.3.3 96 114.6 155.7 144.8 246.8 35.2 106.2-35.1 211.6-117.5 227-85.8 15.9-215.8-16.1-318-49.4z" opacity=".68" fill="#c5e3e8"/><path d="M758.3 232.3c-39.5-1.1-98 17.7-160.3 33.3-10.1 2.5-20.3 4.9-30.5 7.2-26 5.7-52.3 10.3-77.6 12.1-34.7 2.5-67.7-.4-96.1-12.6-38-16.4-115.1-48.8-156-55.3-7.7-1.2-15.5-1.9-23.3-2.2-16.7-.6-33.4 1.5-49.4 6.2-8.1 2.3-15.9 5.3-23.5 8.9-39.6 18.6-72.6 52.9-103 94.8-12.7 17.8-22.6 37.5-29 58.4C4 401.2.8 420 .1 439c-1.6 48.1 13.5 95.8 47.4 129.7 1.6 1.6 3.2 3.2 4.9 4.7 34.6 31.9 83.1 53 105.7 91.5 3.7 6.4 6.7 13.1 8.8 20.2 13.3 45.3-12.1 84.7-42.4 124.2-1.2 1.6-2.3 3.1-3.5 4.7-3.6 4.6-7.3 9.3-10.9 13.9-2.4 3.2-4.9 6.3-7.3 9.5-2.6 3.4-5.2 6.7-7.7 10.1-7.3 9.7-14.1 19.7-20.4 30-3.6 5.9-6.9 12-9.9 18.3-.9 1.9-1.8 3.8-2.6 5.8-9.2 22.1-13.4 45.8-12.5 69.7 2 62 35.6 124.6 85.2 164.1 70.2 56 164.3 72.9 254 71.8 64-.8 130.7-12.6 190.3-37.2 2.3-.9 4.7-1.8 7-2.9 9.3-4 18.5-8.4 27.4-13.1 4.5-2.4 8.9-4.8 13.3-7.4 1.4-.8 2.8-1.7 4.2-2.5 5.2-3.1 10.3-6.3 15.3-9.7 7-4.7 13.7-9.6 20.3-14.8l1.5-1.2c3.2-2.6 6.3-5.2 9.4-7.8l.6-.6c1-.9 2-1.8 3-2.6l4.2-3.9c1.3-1.1 2.6-2.3 3.7-3.5 1.8-1.7 3.6-3.5 5.4-5.3l2-2.2c1.4-1.5 2.9-3 4.3-4.6.7-.7 1.3-1.3 1.8-2 1-1 2-2.1 2.9-3.3 3-3.4 5.9-7 8.7-10.6l4.2-5.4c2.2-3.1 4.4-6.2 6.5-9.3.8-1.3 1.8-2.7 2.6-4 .2-.3.4-.6.7-1 1.2-1.9 2.5-3.9 3.7-6 1.1-1.7 2.1-3.4 3.1-5.2.2-.3.3-.5.5-.8 1.8-3.2 3.6-6.4 5.3-9.8 1.4-2.8 2.8-5.5 4.1-8.4 2.6-5.7 5.1-11.6 7.3-17.5l.1-.2c.7-1.6 1.3-3.4 1.9-5.1.1-.3.2-.7.3-1 2.4-6.6 4.6-13.4 6.6-20.3 1.2-4.1 2.3-8.3 3.4-12.4.6-2.3 1.1-4.5 1.7-6.9 2.2-8.9 4.1-17.9 5.9-27 .7-3.6 1.4-7.1 2-10.7 2-10.8 3.9-21.5 5.6-32.3 3.8-22.7 7.4-45.4 12.1-67.4 2.2-10.9 4.8-21.6 7.7-32 .9-3.3 1.8-6.4 2.9-9.7 2.9-9.7 6.4-19.2 10.3-28.5 3.7-8.7 8-17.1 12.8-25.2 5.9-10.3 12.9-19.9 20.8-28.7 33.4-37.5-138.7-56.3-103.4-91.7 33.6-33.7 59.4-70.6 55.9-118s30-41.9 0-78.9c-30.8-38 85.9-130.5 42.2-152.7-27.7-14-56-22.8-82.7-23.6z" opacity=".77" fill="#d2edf3"/></g><g id="phone"><path class="st3" d="M252.3 16.1c-.8.3-1.7 1.1-2.4 1.1.7-.6 1.4-1.1 2.2-1.7 0 .3.1.5.2.6zM755.1.1c-.1 0-.1 0-.2-.1h1.6c-.4.1-.9.2-1.4.1z"/><linearGradient id="SVGID_1_" gradientUnits="userSpaceOnUse" x1="594.85" y1="1450" x2="594.85" y2="50.8" gradientTransform="translate(0 -20)"><stop offset="0" stop-color="#bac8e1"/><stop offset=".38" stop-color="#becce4"/><stop offset=".79" stop-color="#cbd6eb"/><stop offset="1" stop-color="#d5def1"/></linearGradient><path d="M940.7 103.8V1357c0 40.3-32.7 73-73 73H322c-4.7 0-9.4-.4-14-1.3-34.3-6.7-59-36.8-59-71.7V103.8c0-40.3 32.7-73 73-73h545.6c7 0 13.9 1 20.5 3 1.9.6 3.8 1.2 5.6 1.9 3.7 1.4 7.2 3 10.5 5C923.9 52.1 937.1 72 940 94.5c.4 3.1.7 6.2.7 9.3z" fill="url(#SVGID_1_)"/><linearGradient id="SVGID_2_" gradientUnits="userSpaceOnUse" x1="594.9" y1="1430.4" x2="594.9" y2="70.5" gradientTransform="translate(0 -20)"><stop offset="0" stop-color="#1c5887"/><stop offset="1" stop-color="#2193a6"/></linearGradient><path d="M920.7 115.3v1230.3c0 35.8-30.4 64.8-67.8 64.8h-516c-37.5 0-67.8-29-67.8-64.7V115.2c0-35.8 30.4-64.7 67.8-64.7h88.7v1.7c0 23 19.5 41.7 43.6 41.7h251.4c24.1 0 43.7-18.6 43.7-41.7v-1.7H853c37.3 0 67.7 29 67.7 64.8z" fill="url(#SVGID_2_)"/><path class="st6" d="M497.1 50.5h-1c-6.2 0-11.3 5.1-11.3 11.3 0 3 1.2 5.8 3.3 7.9 2.1 2.1 5 3.3 8 3.3h1c6.2.2 11.4-4.7 11.6-10.9.2-6.2-4.7-11.4-10.9-11.6h-.7zm196.6 0H541.1c-6 0-11 4.7-11.2 10.8v.1c-.1.1-.1.3-.1.4 0 6.2 5 11.3 11.3 11.3h152.6c3 0 5.8-1.2 8-3.3 2.1-2.1 3.2-5 3.3-8-.1-6.2-5.1-11.3-11.3-11.3z"/><path d="M940.7 103.8v502.9l-6.1.1c-3.6 12.3-6 24.9-7.2 37.7l-.1.1v.1l-6.7 16-.1.1-44.6 107.3h.1l-11.3 27.3-50.9 122.4-8.2 19.7-36.4 87.4v.1l-.1.4-3.3 8-136.5 328.1-20.4 49.1-8.2 19.6H322c-4.7 0-9.4-.4-14-1.3l8.8-21.2v-.1l53.3-128.1v-.1l78.9-189.6 23.5-56.5 3.3-8 8.8-21 .6-1.5 7.4-17.7 6-14 4.6-11 2.4-5.8 1.4-3.3 1-2.5 5.8-14.2.6-1.3 8.5-20.6 12-28.8 3.3-7.8 6-14.4 2.7-6.4 5.8-14.2 1.4-3.3 2.3-5.6.1-.3 20.8-50.2 4.3-10.2 17.6-42.4 4-9.7 5.4-13 48.9-117.6 5.4-13.1 4-9.8 21.8-52.5 17.3-41.5 3.7-8.9 3.7-8.8 34.1-82.1 11.6-27.9 8-19.4 13.6-32.7 6.7-16 3-7.3 10.9-26.2 6.6-15.7 12.7-30.6 2.9-7 6.7-16.2 9.1-21.9v-.1L879.2 55l9-21.8c1.9.6 3.8 1.2 5.6 1.9 3.7 1.4 7.2 3 10.5 5C923.9 52 937.1 72 940 94.5c.4 3.1.7 6.2.7 9.3zm0 680.4V1357c0 40.3-32.7 73-73 73H672.1l8.2-19.7v-.1L695 1375l177.3-426.5 48.3-116.3.1-.2 9.2-22 2.2-5.3 8.6-20.5z" opacity=".1" fill="#d2edf3"/></g><g id="no_ads"><path class="st3" d="M384.2 443.5l-79.1 14.8-20.1 3.8-84.9 15.8-9 1.7c-8.8 1.7-17.3-4.1-19-12.9v-.1l-36-192.9c-1.6-8.8 4.2-17.3 13-18.9l135.8-25.4 20.1-3.8 37.1-6.9c8.8-1.6 17.3 4.2 19 13l1.2 6.2 34.9 186.8c1.7 8.7-4.2 17.2-13 18.8z"/><path class="st8" d="M348.1 421.8l-.5.1-42.5 8-34.8 6.6-1.3.2-20 3.8-16.9 3.2-11.2 2.1-28.1 5.2-17.9 3.3-10.7 2-.4.1-.5.1-8.1 1.5c-5.2 1-10.6-.7-14.4-4.4-2.4-2.3-4-5.3-4.6-8.5l-4-21.6-9-47.8v-.1l-1.8-9.8-1.8-9.5-19.5-104.2c-1.6-8.8 4.2-17.3 13-18.9L184 220l12.9-2.4 23.9-4.4 28.2-5.3 3.1-.6L269 204l8.2-1.5 28.9-5.4c8.8-1.6 17.2 4.2 18.9 12.9l1.1 6.1.8 4.1 12.9 69.1.2 1 4.9 26.2.9 4.7 7.1 38 7.5 40.4.6 3.3c1.7 8.8-4.1 17.2-12.9 18.9z"/><path class="st9" d="M248.9 339.5c-.7-.4-1.3-.9-1.9-1.5 0 0-.1 0-.1-.1-.6-.6-1.1-1.2-1.5-1.8-2.1 2.5-5 4.1-8.2 4.6l-2.7.5 12 8.2c.8-.4 1.6-.9 2.4-1.5v-8.4c.1.1 0 .1 0 0zm10.3-17.5c-.8-4.3-2.6-8.4-5.4-11.9-1.4-1.8-3.1-3.4-4.9-4.8-2.4-1.7-5-2.9-7.8-3.7-3.7-1.1-7.5-1.2-11.3-.4l-2.9.5-6.1 1.2-10 1.9-1.2.2 1.4 7.4.4 2.2 2.3 12.3 5.4 28.8 20.3-3.8c2.5-.5 5-1.3 7.2-2.5.8-.4 1.6-.9 2.4-1.5 3.9-2.8 6.9-6.5 8.8-10.9 1.9-4.7 2.4-9.9 1.4-15zm-30.6 20.4l-1.2-6-4.2-22.4.8-.1 7.9-1.5c5.8-1.1 10.8 1 13.7 5.6 1.2 1.9 2.1 3.9 2.5 6.1.4 2.1.4 4.3.1 6.4-.4 2.1-1.3 4.1-2.7 5.7-2.1 2.5-5 4.1-8.2 4.6l-2.7.5-6 1.1zm20.3-3c-.7-.4-1.3-.9-1.9-1.5 0 0-.1 0-.1-.1-.6-.6-1.1-1.2-1.5-1.8-2.1 2.5-5 4.1-8.2 4.6l-2.7.5 12 8.2c.8-.4 1.6-.9 2.4-1.5v-8.4c.1.2 0 .2 0 0z"/><path d="M293.8 315.6l-.3-1.2c-.6-3.4-1.6-6.6-2.8-9.8-1.1-2.9-2.4-5.6-3.9-8.3-.7-1.4-1.6-2.7-2.5-4-.1-.2-.2-.4-.4-.6-3.7-5.4-8.2-10.3-13.4-14.3-.3-.3-.6-.5-.9-.7-.2-.2-.4-.3-.6-.4-6-4.5-12.8-7.8-20-9.8l-3.3-.9c-5.2-1.3-10.6-1.8-16-1.6-3 0-5.9.2-8.8.8-.4 0-.8.1-1.1.1a63.68 63.68 0 00-36.6 21.2c-3.6 4.2-6.7 8.9-9.1 13.9-5 10.5-7 22.1-5.8 33.7.2 1.8.4 3.7.8 5.5 0 .4.1.7.2 1.1.5 2.7 1.2 5.3 2.1 7.8v.1c1.5 4.4 3.5 8.6 6 12.6v.1c.4.5.6 1.1 1 1.6 1.2 1.5 2.2 3.1 3.4 4.6 1.2 1.5 2.5 3 3.8 4.4 2.7 2.8 5.6 5.3 8.7 7.6 6.2 4.5 13.3 7.9 20.8 9.9 6.6 1.8 13.5 2.4 20.3 2h.1c2.6-.1 5.2-.4 7.7-.9.9-.1 1.7-.3 2.5-.5h.1c1.1-.2 2.3-.5 3.4-.9 7.2-2.1 14-5.5 20-10 5.3-3.8 9.9-8.4 13.6-13.7 1.2-1.6 2.3-3.2 3.3-4.9.4-.6.8-1.3 1.1-2v-.1l.2-.2.1-.1c2.6-4.8 4.5-9.8 5.9-15.1.5-2 .9-4 1.2-6 .6-7.2.4-14.2-.8-21zM249 367.2c-.1.1-.2.1-.4.1-3 1.3-6.1 2.2-9.3 2.8-6.1 1.2-12.4 1-18.5-.6-2.2-.5-4.3-1.2-6.4-2.1-5.6-2.4-10.6-5.9-14.7-10.3-1.6-1.6-3-3.4-4.3-5.3-2.2-3.2-4-6.6-5.2-10.3-.7-2.1-1.3-4.3-1.7-6.4-.1-.7-.2-1.3-.3-2-.1-.5-.1-1-.1-1.5-.4-3-.4-6-.1-9 .4-3.3 1.1-6.6 2.2-9.8.2-.6.4-1.1.6-1.7l8.8 6.1 14.1 9.7 7.1 4.9 6.6 4.5 7.2 4.8 12 8.2 2.4 1.7 11.9 8.2c-3.5 3.3-7.6 6-11.9 8zm25.1-31c-.5 2.3-1.2 4.5-2 6.6-.4 1.1-.9 2-1.3 3.1l-1.8-1.2-2.8-2-8.4-5.7-8.8-6.1-.8-.6-4.9-3.3-19.3-13.1-2.5-1.7-.6-.4-3-2.1-7-4.8-11.1-7.6c4.4-4.6 9.8-8.3 15.8-10.6h.1c1.7-.7 3.5-1.2 5.3-1.7.8-.2 1.7-.4 2.5-.6 8.6-1.6 17.6-.6 25.6 3 4.9 2.1 9.3 5.2 13.1 8.9l2.2 2.2c1.8 2.1 3.4 4.3 4.8 6.7 1.8 3 3.2 6.3 4.1 9.8.5 1.4.9 2.9 1.1 4.3.1.9.4 2 .4 3 .3 2.6.4 5.2.2 7.9-.2 2-.5 4-.9 6z" fill="#ed1c24"/><path class="st9" d="M194 319.9l-3.9-6.9-2.1-3.8-14.8 2.7-3 20.5-1 7.6-3.8 25.8 12.7-2.4.1-1.3.1-1 .7-6.1 16.3-3 2.6-.5 2.3 4.4 1.7 3.1 12.7-2.4-20.6-36.7zm-13.4 23.6l1.3-10.4 1-7.7.2-1.7.6 1.2 3.7 6.9.7 1.4 4.3 8.1-2.2.4-9.6 1.8zm122-18.4c-.5-3.1-2-5.9-4.3-8-1.4-1.2-3.1-2.1-4.8-2.7-3.3-1-6.7-1.7-10.2-2-2.2-.2-4.3-.5-6.4-1.1-2.8-.9-3.5-2-3.8-3.5-.2-1.7.8-3.4 2.4-4 2.6-1.3 5.6-1.4 8.2-.1.8.4 1.5.9 2.1 1.5.7.6 1.3 1.3 1.8 2.1l3.1-2.7 4.5-4 1.1-.9c-.5-.6-1-1.2-1.6-1.8-1.6-1.8-3.6-3.3-5.8-4.4-1.4-.7-2.8-1.3-4.4-1.7-3.5-.8-7.2-.7-10.7.3-3.2.8-6.1 2.5-8.4 4.9-.5.5-.9 1-1.3 1.5-2.5 3.2-3.5 7.4-2.8 11.4 0 .1.1.3.1.4.7 4.4 3.5 8.3 7.5 10.2 3 1.3 6.1 2.1 9.4 2.3 2.6.2 5.1.5 7.6.9 1.2.2 2.4.6 3.4 1.3.8.6 1.4 1.4 1.6 2.4.3 2-.6 4.3-6.1 5.4-1.3.2-2.7.3-4 .1-1.8-.2-3.5-.8-4.9-1.9-.4-.3-.7-.6-1.1-.9-.8-.7-1.4-1.5-2-2.4l-3.9 3.4-5 4.3c1.1 2 2.7 3.7 4.4 5.1 1.1.9 2.4 1.6 3.6 2.3 1.9.9 4 1.5 6.1 1.7 2.4.3 4.9.2 7.3-.1.4-.1.9-.1 1.3-.2 2.2-.4 4.3-1.1 6.4-2 3.7-1.6 6.6-4.4 8.4-8l.4-1.1c1.1-2.5 1.4-5.3.8-8z"/></g><g id="switch"><g id="wave"><radialGradient id="SVGID_3_" cx="594.8" cy="571.11" r="204" gradientTransform="matrix(1 0 0 -1 0 1202.81)" gradientUnits="userSpaceOnUse"><stop offset="0" stop-color="#bfe4e8"/><stop offset="1" stop-color="#80d2d8" stop-opacity=".1"/></radialGradient><circle cx="594.8" cy="631.7" r="204" fill="url(#SVGID_3_)"/><linearGradient id="SVGID_4_" gradientUnits="userSpaceOnUse" x1="594.225" y1="420.111" x2="595.375" y2="722.109" gradientTransform="matrix(1 0 0 -1 0 1202.81)"><stop offset="0" stop-color="#a3e2e5"/><stop offset="1" stop-color="#5fc4c4"/></linearGradient><circle cx="594.8" cy="631.7" r="151" fill="url(#SVGID_4_)"/></g><g id="shotdown"><circle class="st13" cx="594.8" cy="631.7" r="97.5"/><circle cx="594.8" cy="631.7" r="88" fill="#0074c3"/><circle cx="594.8" cy="631.7" r="75.9" fill="#55e3c9"/><path d="M594.8 592c-2.2 0-4 1.8-4 4v31.7c0 2.2 1.8 4 4 4s4-1.8 4-4V596c0-2.2-1.7-4-4-4zm37 26.1c-2.2-6.2-6-11.7-10.9-16-.1-.2-.3-.2-.4-.3-.6-.5-1.4-.8-2.2-.8-1.3 0-2.5.6-3.2 1.7-1.2 1.7-.9 4 .7 5.3 1 .9 2 1.9 2.9 2.9 4.9 5.6 7.7 12.8 7.9 20.2v.1c.2 8.9-3.4 17.4-9.8 23.6l-.9.9c-13.2 11.6-33.2 10.3-44.8-2.9s-10.3-33.2 2.9-44.8c1.6-1.3 1.8-3.6.7-5.3-.1-.1-.1-.3-.4-.3-1.5-1.6-4-1.8-5.6-.3-1.3 1.1-2.5 2.3-3.6 3.5-14.6 16.3-13.3 41.4 3 56s41.4 13.3 56-3l.6-.6c9.4-10.9 12.2-26.2 7.1-39.9z" fill="#066ecc"/></g><g id="pop-up"><linearGradient id="SVGID_5_" gradientUnits="userSpaceOnUse" x1="594.398" y1="168.844" x2="595.428" y2="437.133" gradientTransform="matrix(1 0 0 -1 0 1202.81)"><stop offset="0" stop-color="#001b43"/><stop offset="1" stop-color="#09316c"/></linearGradient><path d="M813.9 818.7c0-10.6-8.6-19.2-19.1-19.2H641.3l-34.4-29.4c-6.9-5.9-17-5.9-23.9 0l-34.4 29.4H395c-10.6 0-19.2 8.5-19.2 19.1V1014c0 10.6 8.6 19.2 19.2 19.2h399.7c10.6 0 19.2-8.6 19.2-19.2V818.7z" fill="url(#SVGID_5_)"/><path d="M793 912.4H396.7c-7.2.1-12.9 6-12.8 13.2v86.3c-.1 7.2 5.6 13.1 12.8 13.3h396.2c7.2-.2 12.9-6.1 12.8-13.3v-86.1c.3-7.1-5.2-13.1-12.3-13.4h-.4z" fill="#f7f7f9"/><path class="st13" d="M507.7 841.1c-1.3 0-2.7-.3-3.8-1-1-.6-1.8-1.6-2.2-2.7l2.6-1.5c.5 1.4 1.9 2.4 3.5 2.3.6.1 1.3-.1 1.8-.5.4-.3.6-.7.6-1.2s-.3-1-.8-1.3c-.8-.5-1.7-.8-2.5-1-.6-.2-1.1-.4-1.7-.6-.5-.3-.9-.5-1.4-.8s-.8-.8-1-1.3c-.3-.6-.4-1.2-.4-1.8 0-1.3.5-2.5 1.4-3.3 1-.8 2.2-1.2 3.5-1.3 1.1-.1 2.3.3 3.2.9.9.6 1.7 1.5 2.2 2.4l-2.6 1.4c-.5-1.2-1.6-2-2.9-1.9-.5 0-1 .1-1.4.4-.4.3-.6.7-.5 1.2 0 .5.2.9.6 1.2.7.4 1.5.8 2.3 1 .3.1.7.2 1 .4s.7.3 1 .4c.3.1.6.3.9.5s.5.4.8.6c.2.2.5.5.6.8s.3.6.4.9c.1.4.2.8.1 1.2.1 1.3-.5 2.5-1.5 3.3-.7.9-2.1 1.3-3.8 1.3zm13.1-8.3h-2.4v4.5c0 .3.1.6.3.8s.5.2.8.3h1.3v2.6c-1.4.3-2.8.1-4.1-.5-.9-.8-1.3-1.9-1.2-3.1v-4.5h-1.7v-2.7h1.9V828l2.8-.9v3.1h2.4l-.1 2.6zm9.5-2.7v1.1c-.8-1.1-2.1-1.7-3.4-1.6-1.4 0-2.8.6-3.8 1.7-1 1.2-1.5 2.6-1.4 4.1-.1 1.5.4 3 1.4 4.1 1 1 2.3 1.6 3.8 1.6 1.3.1 2.5-.5 3.4-1.4v1.2h2.9v-10.8h-2.9zm-.7 7.6c-.6.6-1.3.9-2.2.9-.8 0-1.6-.3-2.2-.9-.6-.6-.9-1.4-.9-2.2-.1-.8.3-1.6.9-2.2.5-.6 1.3-.9 2.2-.9.8 0 1.6.3 2.2.9.6.5 1 1.3.9 2.2 0 .8-.3 1.6-.9 2.2zm12.3-4.9h-2.4v4.5c0 .3.1.6.3.8s.5.2.8.3h1.3v2.6c-1.4.3-2.8.1-4.1-.5-.9-.8-1.3-1.9-1.2-3.1v-4.5h-1.9v-2.7h1.9V828l2.8-.9v3.1h2.4v2.7l.1-.1zm9.2-2.7h2.8v10.7h-2.8v-1.2c-.7 1-1.9 1.6-3.2 1.5-1.1 0-2.2-.4-2.9-1.2-.8-.9-1.2-2.1-1.2-3.3v-6.7h2.8v6.3c0 .6.2 1.2.6 1.7.4.4 1 .6 1.5.5.6 0 1.2-.2 1.7-.6.5-.6.7-1.3.6-2l.1-5.7zm7.7 3.1c0 .3.2.6.5.6.4.1.9.4 1.4.5.6.1 1.1.3 1.7.5.5.2 1 .6 1.4 1 .4.5.5 1.2.5 1.8.1 1-.4 2-1.3 2.6-.9.6-2 1-3.1.9-1.9.2-3.7-.9-4.5-2.6l2.4-1.4c.3.9 1.2 1.5 2.2 1.4 1 0 1.5-.3 1.5-.9 0-.3-.2-.6-.5-.6-.4-.1-.9-.4-1.4-.5s-1.2-.4-1.7-.5c-.6-.2-1.1-.5-1.4-1-.4-.5-.6-1.2-.5-1.8 0-1 .4-1.9 1.2-2.6.8-.6 1.9-1 2.9-.9.8 0 1.7.2 2.4.6.7.4 1.3 1 1.7 1.7l-2.4 1.3c-.3-.9-1.3-1.4-2.2-1-.1 0-.2.1-.3.2-.3.1-.5.4-.5.7zm10 4.9c-.3-.4-.8-.6-1.3-.6s-1 .2-1.3.6c-.4.3-.5.8-.5 1.2 0 .5.2.9.5 1.3.4.3.8.5 1.3.4.5 0 .9-.1 1.3-.4.3-.3.5-.8.5-1.3 0-.4-.2-.9-.5-1.2zm0-7.7c-.3-.3-.8-.5-1.3-.5s-.9.2-1.3.5c-.3.3-.5.8-.5 1.3s.2.9.5 1.3c.4.3.8.5 1.3.4.5 0 .9-.1 1.3-.4.3-.3.5-.8.5-1.3s-.2-1-.5-1.3z"/><path class="st19" d="M586.3 841.1c-2.1.1-4.2-.8-5.6-2.3-1.5-1.5-2.3-3.5-2.2-5.6 0-2.1.8-4.1 2.2-5.6 1.5-1.5 3.5-2.4 5.6-2.3 1.4-.1 2.7.3 3.8 1 1.1.6 2 1.5 2.7 2.6l-2.5 1.5c-.4-.6-.9-1.2-1.5-1.5-.7-.4-1.5-.6-2.3-.5-2.8 0-5 2.3-5 5.1 0 1.3.5 2.5 1.4 3.4s2.2 1.5 3.6 1.4c.8 0 1.6-.1 2.3-.5.7-.3 1.2-.9 1.5-1.5l2.5 1.5c-.6 1.1-1.6 2-2.7 2.6-1.2.5-2.5.7-3.8.7zm17.7-9.7c-1-1.1-2.5-1.7-4-1.6-1.5-.1-3 .5-4.1 1.6s-1.7 2.6-1.7 4.1v.2c0 1.5.6 2.9 1.7 3.9 1.1 1.1 2.6 1.7 4.1 1.7 1.5.1 3-.6 4-1.7s1.6-2.6 1.7-4.1v-.1c0-1.5-.6-3-1.7-4zm-1 4.2c0 .8-.4 1.6-.9 2.1-.5.6-1.2.9-2 .9s-1.5-.3-2.1-.9c-.5-.5-.8-1.3-.7-2v-.2c-.1-.8.2-1.6.7-2.2.5-.6 1.3-.9 2.1-.9 1.6 0 3 1.4 3 3l-.1.2zm10.7-5.9c1.1 0 2.2.4 2.9 1.2.8.9 1.2 2.1 1.2 3.3v6.7H615v-6.3c0-.6-.2-1.2-.6-1.7-.4-.4-1-.6-1.5-.5-.6 0-1.2.2-1.7.6-.4.6-.7 1.3-.6 2v5.9h-2.8v-10.7h2.8v1.2c.5-1.1 1.7-1.8 3.1-1.7zm12.4 0c1.1 0 2.2.4 2.9 1.2.8.9 1.2 2.1 1.2 3.3v6.7h-2.8v-6.3c0-.6-.2-1.2-.6-1.7-.4-.4-1-.6-1.5-.5-.6 0-1.2.2-1.7.6-.4.6-.7 1.3-.6 2v5.9h-3v-10.7h2.8v1.2c.7-1.1 1.9-1.8 3.3-1.7zm16.6 5.8c0-1.5-.5-3-1.6-4.1-.2-.3-.5-.5-.8-.7 0 0-.1 0-.1-.1-.9-.5-1.9-.8-3-.8-1.5 0-3 .5-4.1 1.6-.2.3-.4.5-.7.8v.1c-.6 1-.9 2.1-.9 3.3 0 1.5.6 3 1.7 4.1 1.1 1.1 2.7 1.7 4.3 1.7 1.9.1 3.6-.8 4.7-2.3l-2.2-1.3c-.6.7-1.5 1.1-2.5 1-1.7 0-2.7-.6-3-2h8c.2-.5.2-.9.2-1.3zm-8.2-1c.1-.7.4-1.3.9-1.7.6-.3 1.2-.5 1.9-.4.6 0 1.2.1 1.7.4.5.4.9 1.1 1 1.7h-5.5zm15.2 6.6c-1.5.1-3-.6-4.1-1.7-1.1-1.1-1.7-2.6-1.7-4.1-.1-1.5.5-3 1.7-4.1 1.8-1.8 4.7-2.2 6.9-.9.9.4 1.5 1.2 1.9 2l-2.5 1.4c-.2-.4-.6-.8-1-1-.5-.3-1-.4-1.5-.4-.8 0-1.5.2-2 .8s-.8 1.4-.8 2.2c0 .7.2 1.5.8 2s1.3.8 2 .8c.5 0 1.1-.1 1.5-.4.4-.3.7-.6 1-1l2.4 1.4c-.5.8-1.2 1.5-2 2-.7.7-1.6 1.1-2.6 1zm12.9-8.3h-2.4v4.5c0 .3.1.6.3.8s.5.2.8.3h1.3v2.6c-1.4.3-2.8.1-4.1-.5-.9-.8-1.3-1.9-1.2-3.1v-4.5h-1.9v-2.7h1.9V828l2.8-.9v3.1h2.4v2.7l.1-.1zm12 2.7c.1-1.5-.5-3-1.6-4.1-1-1.1-2.4-1.7-3.9-1.6-1.5-.1-3 .5-4.1 1.6-1 1.1-1.6 2.6-1.6 4.1 0 3.2 2.6 5.8 5.8 5.8h.3c1.9.1 3.6-.8 4.7-2.3l-2.3-1.3c-.6.7-1.5 1.1-2.4 1-1.7 0-2.8-.6-3-2h8c.1-.4.1-.8.1-1.2zm-8.2-1c.1-.6.4-1.2.9-1.7.6-.3 1.2-.5 1.9-.4.6 0 1.2.1 1.7.4.6.4 1 1 1 1.7h-5.5zm18.4-8.7v5.4c-.8-1.1-2.2-1.7-3.5-1.6-1.4 0-2.8.6-3.7 1.7-1 1.1-1.5 2.6-1.5 4.1s.5 3 1.5 4.1c.9 1.1 2.3 1.6 3.7 1.6 1.3.1 2.6-.5 3.5-1.4v1.2h2.8v-15.1h-2.8zm-.8 11.9c-.5.6-1.3.9-2.1.9s-1.6-.3-2.2-.9c-.6-.5-1-1.3-.9-2.2 0-.8.3-1.6.9-2.2.6-.6 1.4-.9 2.2-.9s1.5.3 2.1.9c.6.5 1 1.3.9 2.2.1.8-.3 1.6-.9 2.2zm-156.7 31.7c-.3-9.1-4.9-15-12.5-15-7.9 0-12.5 6.5-12.5 16.1s4.6 16.1 12.5 16.1c2.1 0 4.2-.5 6-1.6 4.3-2.5 6.6-7.7 6.6-14.5 0-.3 0-.7-.1-1.1zm-12.5 10.4c-3.7 0-5.4-3.3-5.4-9.3s1.7-9.3 5.4-9.3 5.6 3.3 5.6 9.3-1.8 9.3-5.6 9.3zm31.9-24.8c-1.3-.4-2.6-.6-4-.6-7.9 0-12.5 6.5-12.5 16.1 0 5.6 1.7 10.3 4.6 13.1 2.1 2 5 3.1 7.9 3 8 0 12.6-6.6 12.6-16.1-.1-7.8-3.2-13.6-8.6-15.5zm-3.9 24.8c-2.5 0-4-1.4-4.8-4-.5-1.7-.8-3.5-.7-5.3 0-6 1.8-9.3 5.6-9.3.4 0 .8.1 1.2.1 2.8.6 4.3 3.8 4.3 9.1-.2 6.2-2 9.4-5.6 9.4zm20-1.6c-2.3 0-4.2 1.9-4.2 4.3 0 2.3 1.9 4.2 4.3 4.2 2.3 0 4.2-1.9 4.2-4.2 0-2.4-1.9-4.3-4.3-4.3zm0-15c-2.3 0-4.2 1.9-4.2 4.3 0 2.3 1.9 4.2 4.3 4.2 2.3 0 4.2-1.9 4.2-4.2-.1-2.3-1.9-4.2-4.3-4.3zm20-8.8c-7.9 0-12.5 6.5-12.5 16.1s4.6 16.1 12.5 16.1 12.6-6.6 12.6-16.1-4.5-16.1-12.6-16.1zm.1 25.4c-3.7 0-5.5-3.3-5.5-9.3s1.8-9.3 5.5-9.3 5.5 3.3 5.5 9.3-1.8 9.3-5.5 9.3zm27.8-25.4c-8 0-12.5 6.5-12.5 16.1s4.5 16.1 12.5 16.1 12.5-6.6 12.5-16.1-4.5-16.1-12.5-16.1zm.1 25.4c-3.7 0-5.5-3.3-5.5-9.3s1.8-9.3 5.5-9.3 5.6 3.3 5.6 9.3-2 9.3-5.6 9.3zm20.1-1.6c-2.3 0-4.2 1.9-4.3 4.2s1.9 4.2 4.2 4.3c2.3 0 4.2-1.9 4.3-4.2 0-2.3-1.8-4.2-4.2-4.3zm0-15c-2.3 0-4.2 1.9-4.3 4.2s1.9 4.2 4.2 4.3c2.3 0 4.2-1.9 4.3-4.2 0-2.3-1.9-4.2-4.2-4.3zm20-8.8c-8 0-12.5 6.5-12.5 16.1s4.5 16.1 12.5 16.1 12.5-6.6 12.5-16.1-4.4-16.1-12.5-16.1zm.1 25.4c-3.7 0-5.5-3.3-5.5-9.3s1.8-9.3 5.5-9.3 5.5 3.3 5.5 9.3-1.7 9.3-5.5 9.3zm33.6-9.9c1.9-1.5 3.1-3.8 3-6.2 0-6.1-4.6-9.3-10.2-9.3s-10.3 3.2-10.3 9.3c-.1 2.4 1.1 4.7 3 6.2-2.5 1.6-4.1 4.4-4 7.4 0 5.6 4.2 9.3 11.4 9.3s11.4-3.7 11.4-9.3c.1-3-1.6-5.9-4.3-7.4zm-7.1-8.7c1.6-.2 3.1 1 3.2 2.6.2 1.6-1 3.1-2.6 3.2h-.6c-1.7.1-3.1-1.2-3.2-2.8v-.2c0-1.6 1.3-2.9 2.9-2.9.1.1.2.1.3.1zm.1 18.8c-2.4 0-4.2-1.5-4.2-3.8s1.8-3.6 4.2-3.6 4.3 1.4 4.3 3.6c0 2.5-1.8 3.8-4.3 3.8z"/><path class="st20" d="M781.2 964.2c-2.1-17.7-16.9-31-34.7-31.2H443.1c-19.7.5-35.3 16.8-34.8 36.5.5 19 15.8 34.3 34.8 34.8h303.5c7.7-.1 15.1-2.8 21.2-7.5 8.9-6.9 14-17.6 13.8-28.8-.1-1.3-.2-2.5-.4-3.8zm-10.4 28.6c-.8.7-1.5 1.4-2.4 2.1-6.1 5.2-13.9 8-21.9 8H443.1c-18.9 0-34.3-15.3-34.3-34.2v-.1c.1-18.9 15.4-34.2 34.3-34.2h303.5c17.8-.1 32.6 13.5 34.1 31.2.1 1 .2 2 .2 3 0 9.1-3.6 17.8-10.1 24.2z"/><circle cx="443.9" cy="968.5" r="28.9" fill="#999"/><path class="st20" d="M443.9 938.9c-16.4 0-29.7 13.3-29.7 29.7s13.3 29.7 29.7 29.7 29.7-13.3 29.7-29.7v-.1c0-16.4-13.3-29.6-29.7-29.6zm19.9 49.5c-.6.6-1.3 1.2-2 1.8l-.3.3h-.1c-.3.3-.6.5-.9.7-.2.2-.4.3-.6.4-.1.1-.3.2-.4.3-.4.3-.9.6-1.4.9-.6.4-1.2.8-1.9 1-.4.3-.9.5-1.4.7-.2.1-.5.2-.7.3-.5.2-1 .4-1.6.6-.1.1-.1.1-.2.1-.6.2-1.2.4-1.8.5-.2.1-.5.1-.7.1-.5.1-1.1.2-1.6.3-.3.1-.6.1-.9.1-.2.1-.3.1-.5.1-.9.1-1.9.1-2.8.1s-1.9-.1-2.8-.1c-.6-.1-1.3-.2-1.9-.3-.5-.1-.9-.2-1.4-.3-.1 0-.3 0-.4-.1-.5-.1-1-.2-1.5-.4s-.9-.3-1.4-.4c-.4-.1-.8-.3-1.2-.4-.6-.2-1.2-.5-1.7-.8-.4-.2-.9-.4-1.3-.6-.1 0-.1-.1-.1-.1-.6-.4-1.3-.8-2-1.2l-.2-.2c-.5-.3-1-.7-1.5-1.1-.1-.1-.2-.2-.3-.2-.8-.6-1.6-1.3-2.4-2.1h-.1c-.7-.6-1.2-1.3-1.7-2-.7-.6-1.2-1.3-1.6-2.1-.3-.4-.5-.7-.7-1.2h-.1c-.1-.2-.2-.3-.3-.5-.2-.2-.3-.5-.4-.7s-.1-.4-.2-.5c-.4-.6-.7-1.2-.9-1.9l-.1-.1c-.2-.4-.4-.9-.5-1.4-.1-.2-.2-.5-.3-.7-.1-.1-.1-.2-.1-.4-.1-.1-.1-.2-.1-.4-.1-.2-.1-.5-.2-.7-.4-1.4-.6-2.7-.8-4.1v-.3c-.1-.2-.1-.4-.1-.7-.1-.8-.1-1.5-.1-2.3s.1-1.5.1-2.2c0-.2 0-.4.1-.7v-.3c0-.2.1-.4.1-.6s.1-.6.1-.9c0-.3.1-.6.2-.9 0-.3.1-.5.1-.8s.1-.6.2-.9c.1-.4.2-.8.4-1.2 0-.2.1-.4.1-.6 0-.2.1-.4.1-.5h.1c0-.4.2-.7.4-1 0-.2.1-.3.2-.4 0-.2.1-.4.1-.5s.1-.3.1-.4l.6-1.2c.1-.2.2-.3.3-.4l.6-1.2.1-.1v-.1c.1-.3.3-.5.4-.8.1-.1.2-.2.2-.3.3-.5.7-1 1.1-1.5 0-.1.1-.1.1-.1s0-.1.1-.1c0 0 .1-.1.1-.2s0-.1.1-.1l.1-.1.2-.3c0-.1.1-.2.3-.3l.1-.1c.1 0 .1-.1.1-.1s.1 0 .1-.1h.1c.1-.1.1-.2.1-.2.2-.3.5-.7.8-1l.2-.2c.3-.2.5-.4.8-.7l.4-.4c.1 0 .2-.1.3-.2l.1-.1v.4c.7-.7 1.5-1.2 2.4-1.7.3-.2.5-.4.7-.5.4-.3.8-.5 1.2-.7.1-.1.1-.2.2-.2.7-.4 1.4-.8 2.2-1.1.2-.1.3-.2.5-.2s.4-.2.6-.3c.6-.3 1.2-.5 1.9-.7.8-.3 1.5-.5 2.3-.7.1 0 .2-.1.4-.1h.1c.7-.1 1.5-.3 2.2-.4.3-.1.6-.1.9-.1.7-.1 1.4-.1 2.2-.2h.4c1.9 0 3.8.2 5.7.6.9.2 1.8.4 2.7.7.9.2 1.7.5 2.5.9.8.3 1.7.7 2.5 1.2.8.4 1.6.9 2.4 1.5.1 0 .1.1.2.1.5.3 1 .6 1.4 1 0 0 .1.1.1.2.1.1.1.1.2.1.2.1.4.2.5.4.4.4.8.7 1.2 1.1.1 0 .1 0 .1.1l1.2 1.2c.2.2.4.5.6.7.4.4.8.9 1.1 1.4.6.7 1.1 1.5 1.6 2.3.2.2.4.5.6.9l.4.9c.5.8.9 1.7 1.2 2.6.1.2.1.3.1.5.2.4.4.8.4 1.2.2.4.3.8.4 1.2.1.1.1.1.1.2l.3 1.2c.1.6.2 1.2.3 1.9.1.2.1.3.1.5.1.3.1.5.1.8l.1.1c.1.9.1 1.8.1 2.7v.2c0 .7 0 1.4-.1 2.1 0 .2 0 .4-.1.7v.3c-.2 1.4-.4 2.8-.8 4.1 0 .1-.1.1-.1.2 0 .2-.1.3-.1.4 0 .1-.1.3-.1.4-.1.4-.3.9-.5 1.3-.1.4-.3.9-.4 1.3l-1.2 2.4-1.5 2.4c-.4.8-1 1.5-1.6 2.1-.3 1-.8 1.6-1.5 2.2z"/><circle cx="443.9" cy="968.5" r="28.1" fill="#f0f0f0"/><path d="M442.6 968.5H472c0-2.5-.3-4.9-1-7.3h-28.4v7.3zm0-14.7h25.2c-1.7-2.8-3.9-5.3-6.5-7.3h-18.7v7.3zm1.3 42.9c6.4 0 12.5-2.2 17.5-6.1h-35.1c5 3.9 11.2 6.1 17.6 6.1zm-24.1-13.6h48c1.4-2.3 2.5-4.7 3.2-7.3h-54.4c.8 2.6 1.8 5.1 3.2 7.3z" fill="#d80027"/><path d="M441.4 940.5c-.3 0-.6 0-.9.1-.7.1-1.4.2-2.2.4h-.1c-.1 0-.2.1-.4.1-.8.2-1.6.4-2.3.7-.6.1-1.3.4-1.9.7l-.6.3c-.2.1-.3.1-.5.2-.7.3-1.5.7-2.2 1.1-.1 0-.1.1-.2.2-.4.2-.8.4-1.2.7h2.5l-2.5 1.8.9 2.8-2.5-1.7-2.3 1.7.7-2.2v-.1l.1-.1c-.1.1-.2.2-.4.3l-.4.4c-.3.2-.5.4-.8.7l-.2.2c-.3.3-.5.7-.8 1 0 .1-.1.2-.1.2h-.1s0 .1-.1.1c0 .1 0 .1-.1.1l-.1.1c-.1.1-.1.2-.3.3l-.2.3-.1.1-.1.1c0 .1 0 .1-.1.2-.1 0-.1 0-.1.1s-.1.1-.1.1l-1.5 1.8h.8l-1 .8-.1.1-.1.1-.4.3c-.3.4-.5.8-.6 1.2l.1.1v.1l.7 2-1.2-.9h-.1l-.1-.2c-.4.7-.7 1.4-.9 2.2l.1.3h.1v.1l.6 2.1h2.9l-2.4 1.8.9 2.7-2.5-2.1-.9.8h-.1l-.4.3c-.1 1.1-.2 2.3-.2 3.4h28.1v-28.1c-.7 0-1.4 0-2.1.1zm-11.6 25.2l-2.5-1.8-2.3 1.8.9-2.8-2.5-1.8h3l.9-2.8.9 2.8h2.9l-2.5 1.8 1.2 2.8zm-.9-11l.9 2.8-2.5-1.8-2.3 1.8.9-2.8-2.5-1.8h3l.9-2.8.9 2.8h2.9l-2.2 1.8zm11 11l-2.5-1.8-2.4 1.8.9-2.8-2.5-1.8h3l.9-2.8.9 2.8h3l-2.5 1.8 1.2 2.8zm-.8-11l.9 2.8-2.5-1.8-2.4 1.8.9-2.8-2.5-1.8h3l.9-2.8.9 2.8h3l-2.2 1.8zm0-8.2l.9 2.8-2.5-1.7-2.4 1.7.9-2.8-2.5-1.8h3l.9-2.8.9 2.8h3l-2.2 1.8z" fill="#0052b4"/><path d="M494.8 960.6l-4.1-12.2h2.6l2.9 9.3 2.9-9.3h2.6l-4.1 12.2h-2.8zm15.7-11c-.7-.8-1.7-1.2-2.7-1.2H503v12.1h2.4v-4h2.2c1.1.1 2.1-.4 2.9-1.2s1.2-1.9 1.2-3c0-.9-.4-1.9-1.2-2.7zm-1.6 4.4c-.4.3-.8.5-1.3.5v.1h-2.2V951h2.2c.5 0 1 .1 1.3.5.4.3.5.8.5 1.3 0 .4-.2.9-.5 1.2zm11.5-5.5h2.4v12.2H521l-5.3-7.4v7.4h-2.4v-12.2h1.8l5.3 7.4v-7.4zm11 9.8h4.6v2.3h-7v-12.2h2.4v9.9zm15.5-8.2c-1.2-1.2-2.8-1.8-4.5-1.8-1.7-.1-3.3.6-4.5 1.8s-1.9 2.8-1.8 4.5c-.1 1.7.6 3.3 1.8 4.5 1.2 1.1 2.8 1.7 4.5 1.7 1.7.1 3.3-.5 4.5-1.7 1.1-1.2 1.8-2.8 1.8-4.5 0-1.7-.6-3.3-1.8-4.5zm-1.7 7.3c-1.6 1.5-4.1 1.5-5.6 0-.8-.7-1.2-1.8-1.2-2.8-.1-1.1.4-2.1 1.2-2.8 1.6-1.5 4.1-1.5 5.6 0 .8.7 1.2 1.8 1.2 2.8 0 1.1-.4 2.1-1.2 2.8zm11 3.5c-3.5 0-6.3-2.8-6.3-6.3s2.8-6.3 6.3-6.3c1.1 0 2.1.2 3.1.8.9.5 1.6 1.2 2.2 2l-2 1.2c-.3-.5-.7-1-1.3-1.3s-1.2-.5-1.9-.5c-1.1-.1-2.1.4-2.8 1.2s-1 1.9-1 2.9.3 2 1 2.8 1.8 1.2 2.8 1.2c.7 0 1.3-.2 1.9-.5.5-.3 1-.7 1.3-1.3l2 1.2c-.5.8-1.3 1.5-2.2 2-.9.5-2 .9-3.1.9zm13.1-12.4h-3l-4.2 12.1h2.5l.8-2.2h5l.7 2.2h2.5l-4.3-12.1zm-3.1 7.8l1.7-5.1 1.8 5.1h-3.5zm15.2-7.8v2.3h-3.3v9.8h-2.4v-9.8h-3.1v-2.3h8.8zm1.4 0h2.4v12.2h-2.4v-12.2zm14.8 1.6c-1.2-1.2-2.8-1.8-4.5-1.8-1.7-.1-3.3.6-4.4 1.8-1.2 1.2-1.9 2.8-1.8 4.5-.1 1.7.6 3.3 1.8 4.5 1.2 1.1 2.8 1.7 4.4 1.7 1.7.1 3.3-.5 4.5-1.7 1.3-1.1 1.9-2.8 1.8-4.5.1-1.7-.6-3.3-1.8-4.5zm-1.6 7.3c-.8.8-1.8 1.2-2.9 1.2-1 0-2-.4-2.8-1.2-.7-.8-1.1-1.8-1.2-2.8 0-2.2 1.7-4 3.9-4 1.1 0 2.1.4 2.9 1.2.8.7 1.2 1.8 1.2 2.8 0 1.1-.4 2.1-1.1 2.8zm12.3-8.9h2.4v12.2h-1.8l-5.2-7.4v7.4h-2.4v-12.2h1.8l5.2 7.4v-7.4z" fill="#383838"/><path d="M510.9 986.7h-4.2V976l-4.7 7.8h-.5l-4.8-7.8v10.8h-4.2v-18.6h4.2l5 8.2 5-8.2h4.2v18.5zm3.1-13.2v13.2h4v-13.2h-4zm2-6c-1.3 0-2.4 1.1-2.4 2.4 0 1.3 1.1 2.4 2.4 2.4s2.4-1.1 2.4-2.4-1.1-2.4-2.4-2.4zm14.5 5.9v1.3c-1-1.2-2.5-1.8-4-1.7-3.4 0-6.3 3.1-6.3 7.1s2.9 7 6.3 7c1.5.1 3-.5 4-1.6v1.2h4v-13.3h-4zm-3.2 9.8c-1.7.1-3.1-1.2-3.2-2.8v-.4c-.1-1.7 1.3-3.1 3-3.2h.2c1.7-.1 3.1 1.2 3.2 2.8v.4c0 2.2-1.3 3.4-3.2 3.2zm29.9-4.5v8.1h-4V979c0-1.3-.6-2.2-1.9-2.2s-2 .9-2 2.4v7.4h-4v-7.8c0-1.3-.6-2.2-1.9-2.2s-2 .9-2 2.4v7.4h-4v-13.2h4v1.3c.9-1.1 2.2-1.7 3.6-1.6 1.4-.1 2.7.6 3.5 1.8.9-1.2 2.3-1.9 3.8-1.8 2.9.3 4.9 2.4 4.9 5.8zm2.7-5.2v13.2h4v-13.2h-4zm2.1-6c-1.3 0-2.4 1.1-2.4 2.4 0 1.3 1.1 2.4 2.4 2.4 1.3 0 2.4-1 2.4-2.2v-.1c.1-1.3-.9-2.4-2.2-2.4-.1 0-.1 0-.2-.1zm7.8 22.9h-3.2l1-7.8h4.2l-2 7.8zm11.2-9.7v-12.5h4.2v12.2c0 1.4.6 2.6 2.9 2.6s2.9-1.2 2.9-2.6v-12.2h4.2v12.5c0 4-3.1 6.4-7.2 6.4s-7-2.4-7-6.4zm30-2v8.1h-4v-7.5c.1-1.2-.7-2.3-1.9-2.4h-.4c-1.4 0-2.4.9-2.4 2.7v7.2h-4v-13.2h4v1.3c.9-1.1 2.4-1.8 3.8-1.7 2.6 0 4.9 1.9 4.9 5.5zm2.6-5.2v13.2h4v-13.2h-4zm2.1-6c-1.3 0-2.4 1.1-2.5 2.4v.1c.1 1.3 1.1 2.4 2.5 2.4 1.3 0 2.4-1 2.4-2.2v-.1c.1-1.4-1-2.5-2.4-2.6.1.1.1.1 0 0zm8.4 9.7v4.8c0 1.2 1 1.3 2.7 1.2v3.6c-5.2.5-6.7-1-6.7-4.7v-4.7H618v-3.8h2.2V971l4-1.2v3.7h2.7v3.8l-2.8-.1zm17.9 2.7c.1-3.8-2.8-7.1-6.7-7.2-3.8-.1-7.1 2.8-7.2 6.7v.5c-.1 3.8 2.9 7 6.7 7.1h.6c2.2.1 4.4-.9 5.7-2.7l-3.2-1.8c-.7.7-1.6 1-2.5 1-1.5 0-2.7-.4-3-2h9.3c.2-.5.3-1 .3-1.6zm-9.9-1.1c.4-1.3 1.6-2.2 3-2 1.3-.1 2.5.7 2.7 2h-5.7zm21.4-10.6v6.5c-1-1.2-2.4-1.8-3.9-1.7-3.5 0-6.3 3.1-6.3 7.1s2.7 7 6.3 7c1.5.1 2.9-.5 3.9-1.6v1.2h4v-18.5h-4zm-3.1 15c-1.8 0-3.2-1.4-3.2-3.2s1.4-3.2 3.2-3.2c1.6-.1 3 1 3.2 2.7v.5c.2 1.6-.9 3-2.5 3.2-.3.1-.5.1-.7 0zm15.9-.7l3.7-2.2c.6 1.6 2.1 2.7 3.8 2.6 2 0 2.6-.8 2.6-1.5 0-1.2-1-1.5-3.8-2.3s-5.5-2-5.5-5.6 3.1-5.6 6.3-5.6c2.9-.1 5.6 1.6 6.8 4.2l-3.6 2c-.5-1.3-1.8-2.2-3.2-2.2-1.3 0-1.9.6-1.9 1.4s.5 1.4 3.3 2.3 6 1.8 6 5.8c0 3.6-2.8 5.6-6.9 5.6s-6.5-1.7-7.6-4.5zm20.9-5.3v4.8c0 1.2 1 1.3 2.7 1.2v3.6c-5.2.5-6.7-1-6.7-4.7v-4.7H681v-3.8h2.2V971l4-1.2v3.7h2.7v3.8l-2.7-.1zm14-3.8v1.3c-.9-1.2-2.4-1.8-3.9-1.7-3.5 0-6.3 3.1-6.3 7.1s2.8 7 6.3 7c1.5.1 2.9-.5 3.9-1.6v1.2h4v-13.3h-4zm-3.1 9.8c-1.7.1-3.1-1.2-3.2-2.8v-.4c-.1-1.7 1.3-3.1 3-3.2h.2c1.6-.1 3 1 3.2 2.7v.5c-.1 2.2-1.3 3.4-3.2 3.2zm15.2-6v4.8c0 1.2 1 1.3 2.7 1.2v3.6c-5.3.5-6.7-1-6.7-4.7v-4.7h-2.2v-3.8h2.2V971l4-1.2v3.7h2.7v3.8l-2.7-.1zm17.8 2.7c0-3.8-3.1-6.9-6.9-6.9-3.8 0-6.9 3.1-6.9 6.9.2 4.1 3.6 7.3 7.7 7.1 2.1-.1 4.1-1.1 5.4-2.7l-3.3-1.8c-.7.7-1.6 1-2.5 1-1.4 0-2.7-.4-3-2h9.3c.1-.5.2-1 .2-1.6zm-9.8-1.1c.4-1.3 1.6-2.1 2.9-2 1.3-.1 2.5.7 2.9 2h-5.8zm21.7 3.9c0 3.1-2.7 4.3-5.5 4.3s-4.6-1-5.6-3.2l3.5-1.9c.3 1 1.3 1.6 2.3 1.5.9 0 1.4-.3 1.4-.8 0-1.4-6.5-.6-6.5-5.2 0-2.9 2.4-4.3 5.3-4.3 2.1-.1 4.1 1 5.1 2.8l-3.3 1.8c-.3-.7-1-1.2-1.8-1.2-.6 0-1.2.3-1.2.8-.2 1.6 6.3.6 6.3 5.4z" fill="#111"/></g></g><g id="shield"><path class="st3" d="M1081.4 626.2l-42.9 191.5c-2 8.8-10.7 14.2-19.5 12.3l-8.1-1.8-106.4-23.8-20-4.5-44.7-10-12.4-2.8c-8.7-2-14.3-10.6-12.3-19.4l41.3-184.6 1.6-6.9c2-8.8 10.7-14.3 19.4-12.3l7 1.6 20 4.5 164.5 36.9c8.9 1.8 14.4 10.5 12.5 19.3z"/><path class="st8" d="M1117.5 604.5L1074.6 796c-2 8.7-10.7 14.2-19.4 12.3l-8.1-1.8-106.4-23.8-20-4.5-44.7-10-12.4-2.8c-8.8-1.9-14.3-10.6-12.3-19.4l41.3-184.6 1.6-6.9c2-8.8 10.7-14.3 19.4-12.3l7 1.6 20 4.5 164.5 36.9c8.8 1.8 14.4 10.5 12.4 19.3z"/><path class="st6" d="M968.8 745c-66.8-37.6-34.2-138.1-34.2-138.1l65.4-1.3 58.6 29.1c0-.1-13.4 104.8-89.8 110.3z"/><path class="st19" d="M971.5 733c-55.3-31.2-28.3-114.5-28.3-114.5l54.2-1.1 48.5 24.1c0 .1-11.1 87-74.4 91.5z"/><path class="st6" d="M976.6 720.4c49.1-3.8 57.9-72.1 57.9-72.1L997 629.4l-20.4 91z"/></g><g id="rocket"><path class="st3" d="M396 1172.3l-4.5 10-46.8 105.9-28.2 63.6c-3.6 8.2-13.2 11.9-21.4 8.3l-11.6-5.2-14.5-6.3-5.6-2.4-14.4-6.4-28.1-12.4-97.5-43.2-7.8-3.4c-8.2-3.6-11.9-13.2-8.3-21.4l4.5-10.1 23-51.9L179 1097l7.7-17.3c3.6-8.2 13.2-11.9 21.5-8.3l12.7 5.6 14.5 6.4 13.7 6.1 14.4 6.4 5.6 2.4 14.5 6.4 93.6 41.5 10.6 4.7c8 3.6 11.8 13.1 8.2 21.4z"/><path class="st8" d="M381.5 1128.9l-4.4 10.1-75 169.5c-3.6 8.2-13.2 11.9-21.4 8.3l-11.7-5.2-20-8.8-140-62-7.8-3.4c-8.2-3.6-11.9-13.2-8.3-21.4l79.4-179.5c3.6-8.2 13.2-11.9 21.4-8.3l55.2 24.4 20.1 8.9 104.2 46.1c8.2 3.6 11.9 13.1 8.3 21.3z"/><path class="st27" d="M302.5 1167.8c-1.9-12.8-6.6-25.1-13.8-35.8-1.3-2.1-3.6-3.2-6-3-4.6.1-9.2.4-13.7 1-6.8 1-13.5 2.4-20 4.4-7.1 2.1-14.1 4.7-20.9 7.7-1.2.5-2.5 1-3.8 1.6l-3.5 1.5c-5.3 2.3-10.5 4.7-15.5 6.9.1.4.3.7.5 1.1 5.1 13.2 10.1 26 15 39 2 5.2 4 10.3 6 15.6h.1l.3.9c6.7-2.2 13.6-4.4 20.5-6.7.4-.2.9-.3 1.3-.5.4-.1.8-.2 1.2-.4 6.4-2.2 12.7-4.7 18.8-7.5 11.3-5.1 21.9-11.8 31.2-20 1.8-1.3 2.7-3.6 2.3-5.8zm-18.6-6.1c-2.2 4.9-8 7.2-12.9 5-.7-.3-1.3-.8-2-1.2-3.5-2.9-4.7-7.7-2.8-11.8.6-1.4 1.6-2.6 2.8-3.5 2.8-2.2 6.6-2.7 9.8-1.3 4.9 2.1 7.2 7.7 5.1 12.6v.2zm-80.5 41.6c-4-10.6-8-20.9-11.8-31.3-.3-1 0-2 .8-2.7 2.9-2.2 6.1-4.1 9.1-6.1 5.2 13.4 10.2 26.5 15.4 39.9l-10.9 1.6c-1.1.3-2.2-.4-2.6-1.4z"/><path class="st27" d="M179.8 1139.5c8.2-2.8 16.4-5.6 24.6-8.2.9-.2 1.8-.1 2.6.4 6.1 4.2 12.2 8.4 18.9 13.2l-20.2 8.4c-2.6-6.6-7.6-7.3-12.6-8.8-4.4-1.3-8.8-2.6-13.2-4l-.1-1zm36.6 94.8c2.7-4.4 5.3-8.8 8.1-13.1 2.7-4 4.4-8.4 2.4-13.3l21.1-7.3c-2 8.1-3.8 15.4-5.6 22.8-.3.8-.8 1.4-1.6 1.7-7.9 3.5-15.9 6.9-23.8 10.3l-.6-1.1zm106.3-95c-2.2 9.9-7.5 17.7-13.1 24.7-4.4-11.3-8.8-22.7-13.2-34.1 8.8 1.2 18 3.5 26.3 9.4zm-154.8 41.4c8.2-3.1 16.3-.8 20 5.2-2.9.7-6.2.9-8.7 2.4s-4.4 4.5-6.6 6.9c9.3 3.6 10.4 3.5 17.8-1 .8 7-4.4 13.7-13.2 16.3l2.1-8.1c-8.2 2.7-17 2.3-24.9-1.2 4.6-7.3 11.6-12.7 19.9-15.2l-6.4-5.3z"/></g></g></svg>