<svg viewBox="0 0 84 30" xmlns="http://www.w3.org/2000/svg"><path d="M77.807 18.428c-.44-.878-1.244-1.471-2.928-2.181-1.376-.578-2.071-.974-2.496-1.435-.344-.373-.446-.68-.41-1.237.03-.52.161-.827.483-1.171.418-.447.988-.6 1.677-.454 1.127.234 1.844 1.017 2.466 2.664.22.586.25.608.644.462l.25-.096-.008-.673a101.67 101.67 0 00-.044-1.735l-.03-1.076-.19-.08c-1.032-.44-2.993-.71-4.267-.593-1.45.132-2.518.593-3.338 1.442-.812.842-1.186 1.837-1.12 3.016.052.973.344 1.676.945 2.283.556.571 1.024.842 2.364 1.362 2.16.842 2.737 1.347 2.73 2.386 0 .878-.468 1.522-1.317 1.823-.3.11-1.07.11-1.48 0-1.075-.286-1.895-1.215-2.598-2.943l-.183-.44-.212.008a1.129 1.129 0 00-.351.08l-.147.067.015.754c.007.417.03 1.288.044 1.947l.03 1.185.24.103c.491.212 1.97.534 2.892.637.117.014.747.014 1.406.007 1.141-.015 1.222-.022 1.8-.168 1.698-.447 2.796-1.391 3.28-2.826.146-.439.168-.578.19-1.23.029-.863-.051-1.317-.337-1.888zM64.69 11.305c-1.427-.717-3.638-.666-5.256.124-1.53.747-2.584 1.991-3.17 3.748-.307.915-.402 1.654-.372 2.84.022.747.05 1.135.131 1.486.6 2.694 2.452 4.524 5.03 4.992.57.103 1.858.103 2.437.007.82-.146 1.764-.504 2.364-.914.724-.49 1.478-1.23 1.478-1.464 0-.14-.248-.461-.358-.461-.044 0-.25.102-.447.234-.71.46-1.39.651-2.342.651-1.303 0-2.137-.33-2.965-1.164-.365-.373-.52-.57-.71-.944-.417-.812-.644-1.742-.68-2.796l-.015-.454 3.85-.015 3.85-.014.015-.264a6.503 6.503 0 00-.044-.834c-.241-2.342-1.186-3.953-2.796-4.758zm-3.88 4.743l-.973.015v-.212c0-.118.037-.425.073-.681.322-2.094 1.105-3.353 2.086-3.353.9 0 1.457 1.237 1.574 3.507l.03.644-.908.029c-.498.022-1.347.044-1.882.051zm-10.074-4.992c-.307-.066-.586-.073-1.178-.059-.9.03-1.516.169-2.19.476-.219.103-.416.19-.43.19-.016 0-.016-1.361.006-3.015.022-2.342.015-3.023-.036-3.023-.169 0-5.483 1.01-5.541 1.054-.044.036-.059.146-.052.314.015.293-.014.271.63.418.198.044.424.131.505.19.22.154.395.49.52.966.095.374.11.644.153 3.199.044 2.606.037 5.278-.036 10.182l-.03 2.035.381.088c.55.124 2.13.388 2.643.439.754.08 2.525.066 3.081-.015 2.445-.366 4.282-1.786 5.139-3.952a9.528 9.528 0 00.52-2.116c.087-.768.036-2.313-.096-2.935-.505-2.38-1.983-4.019-3.989-4.436zm-3.711 12.283c-.066-.176-.147-6.273-.117-8.71l.022-1.904.344-.102c.227-.066.497-.103.812-.103.44 0 .498.015.871.198.893.44 1.508 1.544 1.794 3.213.102.615.117 2.306.022 3.045-.235 1.816-.828 3.287-1.618 3.997a1.914 1.914 0 01-.988.505c-.271.051-.359.051-.85.015-.204-.015-.248-.037-.292-.154z" fill="#fff"/><path d="M40.804 10.779c-.608 0-.93.066-1.42.293-.893.41-1.56 1.076-2.16 2.16l-.19.336.022-.6c.015-.33.037-.945.052-1.37l.021-.768h-.124c-.161 0-5.322 1.032-5.475 1.098-.103.044-.117.088-.117.337 0 .256.014.285.117.307.066.015.3.059.527.103.454.088.593.16.783.41.344.46.417 1.266.417 4.699 0 2.804-.058 4.202-.197 4.64-.161.535-.454.813-.96.901-.16.03-.38.073-.475.095l-.183.037-.015.359c-.007.248.008.373.052.402.036.022 1.8.037 3.916.03l3.85-.015.014-.403c.008-.22 0-.402-.029-.402-.3 0-1.215-.125-1.361-.183-.432-.183-.644-.571-.732-1.362-.11-.93-.169-3.243-.14-5.131.03-1.91.03-1.918.147-2.05.278-.3.988-.534 1.618-.534.505 0 1.032.132 1.588.395.27.132.512.22.55.213.072-.03 1.331-3.368 1.331-3.521.008-.242-.71-.476-1.427-.476z" fill="#fff"/><path d="M31.421 16.583c-.27-2.313-1.252-4.004-2.87-4.955-1.793-1.055-4.523-1.12-6.463-.147-1.398.703-2.547 2.057-3.052 3.609-.527 1.603-.527 3.71 0 5.35.337 1.047.79 1.816 1.493 2.511.842.835 1.947 1.37 3.206 1.552.454.066 1.874.066 2.343 0 .22-.03.6-.117.849-.183 2.29-.666 3.85-2.423 4.384-4.94.14-.601.19-2.094.11-2.797zm-5.79 6.925c-1.42.424-2.438-.93-2.833-3.77-.124-.915-.124-3.419 0-4.465.278-2.284.981-3.44 2.094-3.448.498 0 .776.125 1.17.512.93.937 1.377 2.73 1.37 5.549-.008 2.247-.227 3.66-.732 4.619-.25.46-.703.893-1.069 1.003z" fill="#fff"/><path d="M12.631 7.396h1.64c1.88 0 2.188.037 2.854.366.967.476 1.67 1.413 2.291 3.046.25.666.25.658.806.49l.373-.11-.037-2.4c-.022-1.318-.05-2.497-.066-2.614l-.036-.205-7.18-.015c-3.953-.007-7.262 0-7.35.015L5.75 6l.015.424.015.424.549.066c.71.088 1.134.286 1.383.652.564.827.666 1.954.666 7.298 0 5.694-.117 7.078-.666 7.795-.285.374-.512.49-1.15.608-.834.153-.804.131-.804.563 0 .242.022.366.066.388.095.037 9.281.044 9.376 0 .125-.05.117-.724-.007-.79-.051-.03-.359-.088-.688-.14s-.696-.131-.805-.182c-.6-.264-.937-.988-1.062-2.299-.088-.937-.16-2.671-.16-3.952v-1.172l.556.015c1.193.037 1.807.103 2.056.212.542.242.974.9 1.2 1.83l.118.498.425.015.424.014v-6.243l-.424.014-.425.015-.124.49c-.242.96-.63 1.545-1.208 1.816-.235.11-.403.139-.966.175a24.98 24.98 0 01-1.164.044h-.483v-1.552c0-1.551.08-4.845.139-5.358l.029-.27z" fill="#fff"/></svg>