<svg version="1.1" id="Layer_1" xmlns="http://www.w3.org/2000/svg" x="0" y="0" viewBox="0 0 408.6 302.7" xml:space="preserve"><style>.st0,.st3{opacity:.65;fill:#d8e0f2;enable-background:new}.st3{opacity:.1;fill:#2197a3}.st12{fill:#fff}.st13{fill:#228c8c}.st14{font-family:&apos;Gilroy-Regular&apos;}.st15{font-size:12px}.st22{opacity:.1}.st23{fill:#d2edf1}</style><g id="Layer_1-2"><path class="st0" d="M396.6 225.6c-4.9 20.8-13.4 40.6-25.1 58.4-3.5-.4-7.3-.7-11.4-1 12.7-18 21.8-38.3 26.8-59.7.6-2.5 3.1-4.2 5.6-3.8 2.7.4 4.6 3 4.2 5.7-.1.2-.1.3-.1.4z"/><path d="M219.1 40.8c0 6.9-5.6 12.5-12.5 12.5-4.6 0-8.8-2.5-11-6.5-75.4 12.4-126.5 83.6-114.1 159 4.6 28 17.7 53.9 37.5 74.2 3.1-1.3 6.5-1.3 9.6 0-7.8.3-15.2.6-22.3 1-53.9-61.7-47.7-155.5 14-209.4 21-18.4 46.8-30.5 74.4-34.8 2.2-6.5 9.3-10 15.8-7.8 5.2 1.7 8.6 6.5 8.6 11.8zm142.2 181.3l-.2.9.2.2v19c-2.3 2-5.3 3-8.3 3-5 10.9-11.3 21.1-18.8 30.5-1.4 1.8-2.9 3.6-4.4 5.3-4.2-.2-8.6-.4-13.1-.6 1.5-1.5 3-3.1 4.4-4.7 9.3-10.4 16.9-22.1 22.7-34.7-4.6-5.1-4.2-13 1-17.6 1.8-1.6 4.1-2.7 6.6-3.1 20.3-73.7-23-150-96.7-170.4-.9-.2-1.8-.5-2.7-.7-2.5-.6-4.1-3.1-3.7-5.6.4-2.7 3-4.6 5.7-4.2.1 0 .3.1.4.1 51.9 13.2 92.7 53.4 106.8 105.1l.1 77.5z" opacity=".45" fill="#d8e0f2"/><path d="M254.3 93.8c-6.3 0-11.7-4.7-12.4-11-55.6-13.1-111.3 21.3-124.5 76.9-4.4 18.9-3.5 38.6 2.7 56.9 6.9.1 12.4 5.8 12.3 12.7 0 2.8-1 5.4-2.8 7.6 11.4 18.7 28.3 33.3 48.5 41.8-7.1.1-14 .2-20.8.4-15-9.5-27.5-22.4-36.6-37.6-6.9.5-12.8-4.7-13.3-11.6-.2-3.5 1-7 3.4-9.5-20.5-59.2 11-123.9 70.2-144.3 20.5-7.1 42.6-8.1 63.7-3 4.5-5.2 12.4-5.8 17.6-1.3 5.2 4.5 5.8 12.4 1.3 17.6-2.2 2.8-5.7 4.4-9.3 4.4zm53.2 159.3c3.7 5.9 1.9 13.6-4 17.2-3.5 2.2-7.9 2.5-11.7.8l-1.2-.6c-3.8 3.1-7.7 6-11.8 8.6-6.7-.1-13.7-.3-20.7-.4 9.7-4.1 18.7-9.6 26.7-16.3-1.5-6.7 2.7-13.4 9.4-14.9 1.7-.4 3.4-.4 5.1-.1 33.6-42.5 28.7-103.7-11.3-140.3l6.6-7.5c43.7 39.9 49.3 106.8 12.9 153.5z" opacity=".25" fill="#d8e0f2"/><path class="st0" d="M151.6 23.9c0 6.9-5.6 12.5-12.5 12.5-3 0-5.8-1.1-8.1-3C48.2 81.5 20 187.7 68.1 270.5c2.5 4.3 5.1 8.4 8 12.5-4.1.3-7.9.7-11.4 1C9.1 199.3 32.8 85.6 117.5 30c3-2 6-3.8 9.1-5.6v-.5c0-6.9 5.6-12.5 12.5-12.5s12.5 5.6 12.5 12.5zm249.6 142.5c-.2-.1-.4-.1-.6-.2C391 65.3 301.5-8.8 200.5.8c-6 .6-12.1 1.4-18 2.6-2.7.5-4.5 3.2-3.9 5.9 0 .1.1.3.1.4.7 2.5 3.2 4 5.8 3.6 94.1-18.5 185.3 42.8 203.8 136.9 1.1 5.5 1.9 11 2.4 16.5-2.9 1.4-5.1 3.8-6.2 6.8-2.4 6.5.8 13.7 7.3 16.1 6.5 2.4 13.7-.8 16.1-7.3 2.3-6.2-.6-13.1-6.7-15.9z"/><path class="st3" d="M401.4 290.6c0 2.9-15.1 5.5-40.4 7.6-4.4.4-9 .7-14 1-11.5.8-24.5 1.4-38.7 1.9-6 .2-12.2.4-18.5.6-21.9.6-46 1-71.4 1-25.6 0-50.1-.4-72.2-1-11-.3-21.4-.7-31.2-1.1-9.4-.4-18.1-.9-26.1-1.4-5-.3-9.6-.7-14-1-24.7-2.1-39.5-4.7-39.5-7.5 0-2.4 10.7-4.7 29.3-6.6 3.5-.4 7.3-.7 11.4-1 8.9-.7 19-1.4 30.2-2 7-.4 14.5-.7 22.2-1 26.5-1 57.2-1.6 89.9-1.6 36.2 0 69.9.7 98.3 1.9 4.5.2 8.8.4 13.1.6 11.2.6 21.3 1.2 30.2 1.9 4.1.3 7.9.7 11.4 1 19 2 30 4.3 30 6.7z"/><path class="st3" d="M218 286.8c-13.7 0-27.3-2.7-39.9-8 13-.2 26.5-.3 40.4-.3 13.6 0 26.8.1 39.5.3-12.7 5.3-26.3 8-40 8z"/><linearGradient id="SVGID_1_" gradientUnits="userSpaceOnUse" x1="218.025" y1="21.229" x2="218.025" y2="38.329" gradientTransform="matrix(1 0 0 -1 0 303.339)"><stop offset=".36" stop-color="#b7c0d9"/><stop offset=".38" stop-color="#b9c2db"/><stop offset=".54" stop-color="#cad2e8"/><stop offset=".71" stop-color="#d4dcf0"/><stop offset=".94" stop-color="#d7dff2"/></linearGradient><path d="M361.3 99.7v176H74.7v-176c0-4.7 3.8-8.6 8.6-8.6h269.4c4.8 0 8.6 3.8 8.6 8.6z" fill="url(#SVGID_1_)"/><path fill="#d7dff2" d="M53.4 275.5h330v9.9h-330z"/><path d="M374.3 288.6H60.6c-1.8 0-7.2-1.4-7.2-3.2h330c0 1.8-7.4 3.2-9.1 3.2z" fill="#b7bfd6"/><linearGradient id="SVGID_2_" gradientUnits="userSpaceOnUse" x1="83.91" y1="119.934" x2="352.14" y2="119.934" gradientTransform="matrix(1 0 0 -1 0 303.339)"><stop offset="0" stop-color="#2d95a5"/><stop offset="1" stop-color="#135184"/></linearGradient><path d="M86.4 99.6h263.2c1.4 0 2.5 1.1 2.5 2.5v162.6c0 1.4-1.1 2.5-2.5 2.5H86.4c-1.4 0-2.5-1.1-2.5-2.5V102.1c0-1.4 1.1-2.5 2.5-2.5z" fill="url(#SVGID_2_)"/><path d="M80.2 240.9c-1.7.7-3.6 1-5.4 1V99.7c0-4.7 3.8-8.6 8.6-8.6H126c7.2 4.2 14.2 8.3 19.9 11.7 2.2 1.3 3.6 3.7 3.6 6.3 1.2 96.1-51.9 124.9-69.3 131.8z" opacity=".25" fill="#106975"/><linearGradient id="SVGID_3_" gradientUnits="userSpaceOnUse" x1="74.431" y1="253.179" x2="75.491" y2="78.469" gradientTransform="matrix(1 0 0 -1 0 303.339)"><stop offset="0" stop-color="#228c8c"/><stop offset="1" stop-color="#72cbce"/></linearGradient><path d="M80.2 227.2c-3.5 1.4-7.4 1.4-10.9 0-10.7-4.2-34.9-16.7-51.7-48.1C7.1 159.5-.4 132.5 0 95.5c0-2.6 1.4-5 3.6-6.4 18.1-10.8 48.5-28.2 62.9-36.5 5-2.9 11.2-2.9 16.3 0 10.7 6.1 30 17.2 46.7 27 5.9 3.4 11.5 6.7 16.2 9.6 2.2 1.3 3.6 3.8 3.6 6.4 1.4 96-51.7 124.7-69.1 131.6z" fill="url(#SVGID_3_)"/><linearGradient id="SVGID_4_" gradientUnits="userSpaceOnUse" x1="12.993" y1="163.972" x2="136.507" y2="163.972" gradientTransform="matrix(1 0 0 -1 0 303.339)"><stop offset="0" stop-color="#228c8c"/><stop offset="1" stop-color="#72cbce"/></linearGradient><path d="M133.5 97.8c-15-8.9-40-23.3-52-30.2-4.2-2.4-9.3-2.4-13.5 0-12 6.8-37 21.3-52 30.2-1.8 1.1-3 3.1-3 5.3-1 79.4 42.9 103.2 57.2 108.9 2.9 1.1 6.1 1.1 9 0 14.4-5.7 58.3-29.5 57.2-108.8.1-2.2-1.1-4.2-2.9-5.4z" fill="url(#SVGID_4_)"/><linearGradient id="SVGID_5_" gradientUnits="userSpaceOnUse" x1="74.586" y1="234.649" x2="75.296" y2="88.529" gradientTransform="matrix(1 0 0 -1 0 303.339)"><stop offset="0" stop-color="#72cbce"/><stop offset="1" stop-color="#228c8c"/></linearGradient><path d="M130.5 99.9c-14.2-8.5-38-22.2-49.4-28.7-4-2.3-8.8-2.3-12.8 0C57 77.8 33.2 91.5 19 99.9c-1.8 1.1-2.8 2.9-2.9 5-1 75.4 40.7 98 54.4 103.4 2.7 1.1 5.8 1.1 8.5 0 13.7-5.4 55.3-28 54.4-103.4 0-2-1.1-3.9-2.9-5z" fill="url(#SVGID_5_)"/><path class="st12" d="M136.7 210h144.7v20.5H136.7c-5.7 0-10.2-4.6-10.2-10.2 0-5.7 4.6-10.3 10.2-10.3z"/><path class="st13" d="M281.4 210h18.8c5.7 0 10.2 4.6 10.2 10.2 0 5.7-4.6 10.2-10.2 10.2h-18.8V210z"/><path class="st12" d="M301.1 215c-2.1-2.1-5.5-2.1-7.6 0-1.9 1.9-2.1 4.9-.5 7.1l-3.6 3.6c-.3.3-.3.8 0 1.1.3.3.8.3 1.1 0l3.6-3.6c.9.7 2.1 1.1 3.3 1.1 3 0 5.4-2.4 5.4-5.4-.1-1.5-.7-2.9-1.7-3.9zm-1.1 6.6c-1.5 1.5-4 1.5-5.5 0s-1.5-4 0-5.5 4-1.5 5.5 0c.7.7 1.2 1.7 1.2 2.8-.1 1-.5 1.9-1.2 2.7z"/><text transform="translate(139.09 224.23)" class="st13 st14 st15">S</text><text transform="translate(146.17 224.23)" class="st13 st14 st15">e</text><text transform="translate(152.89 224.23)" class="st13 st14 st15">a</text><text transform="translate(160.04 224.23)" class="st13 st14 st15">r</text><text transform="translate(163.45 224.23)" class="st13 st14 st15">ch</text><linearGradient id="SVGID_6_" gradientUnits="userSpaceOnUse" x1="220.715" y1="24.639" x2="220.715" y2="27.819" gradientTransform="matrix(1 0 0 -1 0 303.339)"><stop offset="0" stop-color="#9eafc8"/><stop offset="1" stop-color="#b7bfd6"/></linearGradient><path d="M133.7 275.5h174.1c0 1.8-1.4 3.2-3.2 3.2H136.9c-1.8 0-3.2-1.4-3.2-3.2z" fill="url(#SVGID_6_)"/><linearGradient id="SVGID_7_" gradientUnits="userSpaceOnUse" x1="83.311" y1="229.879" x2="83.621" y2="151.639" gradientTransform="matrix(1 0 0 -1 0 303.339)"><stop offset="0" stop-color="#006e78"/><stop offset="1" stop-color="#004141" stop-opacity="0"/></linearGradient><path d="M80.2 227.2c-3.5 1.4-7.4 1.4-10.9 0-10.7-4.2-34.9-16.7-51.7-48.1 13.5-42.7 55.2-78.7 112-99.6 5.9 3.4 11.5 6.7 16.2 9.6 2.2 1.3 3.6 3.8 3.6 6.4 1.3 96.1-51.8 124.8-69.2 131.7z" opacity=".25" fill="url(#SVGID_7_)"/><path class="st12" d="M97 132.6h-4v-11.2c-.2-10.1-8.6-18-18.7-17.8-9.7.2-17.6 8.1-17.8 17.8v11.2h-4c-4.2 0-7.6 3.4-7.6 7.6v27.6c0 4.2 3.4 7.6 7.6 7.6H97c4.2 0 7.6-3.4 7.7-7.6v-27.6c0-4.1-3.5-7.6-7.7-7.6zM79.6 159c-.4.4-.8.7-1.2 1l.7 8.6h-8.6l.7-8.6c-2.1-1.3-3.3-3.5-3.3-5.9 0-3.8 3.1-7 6.9-7 3.8 0 7 3.1 7 6.9-.1 1.9-.9 3.7-2.2 5zm6.5-26.4H63.4v-11.3c-.2-6.3 4.7-11.5 11-11.7s11.5 4.7 11.7 11v12z"/><path d="M220.7 192.8c-3.2 0-6.3 0-9.4-.1-23.6-.7-44.3-4-41.8-11.2.9-2.4 5.3-5.6 17.1-7.2h.1c1.1-7.7 9.4-33.3 19.5-39.4 2.2-1.3 4.2-.4 7.6 3.2.8 1.2 1.8 2.3 3 3.2 1.2.8 2.5 1.1 3.9 1 3.5.2 5.4-2.1 6.9-4.2 3.4-3.6 5.5-4.5 7.6-3.2 10.1 6.1 18.5 31.8 19.5 39.4 3.7.4 7.4 1.3 10.9 2.5 3.9 1.5 5.7 3.3 6.3 4.7 2.9 8.1-24 11.3-51.2 11.3z" fill="#72cbce"/><linearGradient id="SVGID_8_" gradientUnits="userSpaceOnUse" x1="229.929" y1="131.423" x2="227.99" y2="109.24" gradientTransform="matrix(1 0 0 -1 0 303.339)"><stop offset="0" stop-color="#006e78"/><stop offset="1" stop-color="#67c2c5" stop-opacity="0"/></linearGradient><path d="M220.7 192.8c-3.2 0-6.3 0-9.4-.1-27.5-8.4-24.8-18-24.7-18.4h.1c1.1-.3 18.9-5.6 68.1 0 11.8 1.6 16.2 4.8 17.2 7.2 2.8 8.1-24.1 11.3-51.3 11.3z" opacity=".35" fill="url(#SVGID_8_)"/><linearGradient id="SVGID_9_" gradientUnits="userSpaceOnUse" x1="216.79" y1="150.418" x2="254.28" y2="150.418" gradientTransform="matrix(1 0 0 -1 0 303.339)"><stop offset="0" stop-color="#67c2c5" stop-opacity="0"/><stop offset="1" stop-color="#006e78"/></linearGradient><path d="M254.3 171.7h-37.5v-30.5c1.2.8 2.5 1.1 3.9 1 3.5.2 5.4-2.1 6.9-4.2 3.4-3.6 5.5-4.5 7.6-3.2 9.2 5.6 16.9 27.2 19.1 36.9z" opacity=".35" fill="url(#SVGID_9_)"/><path class="st13" d="M254.8 174.8v-.6c-.4-3.4-1.3-6.7-2.5-9.9h-.1c-9.5 1.6-19 2.5-28.6 2.7-1 0-2 0-2.8-.1h-.1c-.9 0-1.8.1-2.8.1-9.6-.3-19.2-1.2-28.6-2.7h-.1c-1.2 3.2-2.1 6.5-2.5 9.9v.6c-.1 2.8 3.8 4.6 9 5.7 9.1 2 22.4 1.9 25 1.9h.1c2.7 0 15.9.1 25-1.9 5.2-1.1 9.1-2.9 9-5.7z"/><linearGradient id="SVGID_10_" gradientUnits="userSpaceOnUse" x1="186.635" y1="129.983" x2="254.801" y2="129.983" gradientTransform="matrix(1 0 0 -1 0 303.339)"><stop offset="0" stop-color="#004141" stop-opacity="0"/><stop offset="1" stop-color="#002e25"/></linearGradient><path d="M254.8 174.8v-.6c-.4-3.4-1.3-6.7-2.5-9.9h-.1c-9.5 1.6-19 2.5-28.6 2.7-1 0-2 0-2.8-.1h-.1c-.9 0-1.8.1-2.8.1-9.6-.3-19.2-1.2-28.6-2.7h-.1c-1.2 3.2-2.1 6.5-2.5 9.9v.6c-.1 2.8 3.8 4.6 9 5.7 9.1 2 22.4 1.9 25 1.9h.1c2.7 0 15.9.1 25-1.9 5.2-1.1 9.1-2.9 9-5.7z" opacity=".25" fill="url(#SVGID_10_)"/><g class="st22"><path class="st23" d="M288.6 267.2H234l51.3-167.6h54.5z"/></g><g class="st22"><path class="st23" d="M352.1 105.4v159.3c0 1.4-1.1 2.5-2.5 2.5h-47l49.5-161.8z"/></g></g></svg>