<svg viewBox="0 0 136 24" xmlns="http://www.w3.org/2000/svg"><path d="M11.528 1.359a.5.5 0 01.945 0l2.234 6.43a.5.5 0 00.462.335l6.806.139a.5.5 0 01.292.898l-5.424 4.112a.5.5 0 00-.177.543l1.971 6.515a.5.5 0 01-.764.556l-5.587-3.888a.5.5 0 00-.571 0l-5.587 3.888a.5.5 0 01-.765-.556l1.972-6.515a.5.5 0 00-.177-.543L1.734 9.161a.5.5 0 01.292-.898l6.805-.14a.5.5 0 00.462-.335l2.235-6.43zm28 0a.5.5 0 01.945 0l2.234 6.43a.5.5 0 00.462.335l6.806.139a.5.5 0 01.292.898l-5.424 4.112a.5.5 0 00-.177.543l1.971 6.515a.5.5 0 01-.764.556l-5.587-3.888a.5.5 0 00-.571 0l-5.587 3.888a.5.5 0 01-.765-.556l1.971-6.515a.5.5 0 00-.176-.543l-5.424-4.112a.5.5 0 01.292-.898l6.805-.14a.5.5 0 00.462-.335l2.235-6.43zm28 0a.5.5 0 01.945 0l2.234 6.43a.5.5 0 00.463.335l6.805.139a.5.5 0 01.292.898l-5.424 4.112a.5.5 0 00-.177.543l1.971 6.515a.5.5 0 01-.764.556l-5.587-3.888a.5.5 0 00-.571 0l-5.587 3.888a.5.5 0 01-.765-.556l1.972-6.515a.5.5 0 00-.177-.543l-5.424-4.112a.5.5 0 01.292-.898l6.805-.14a.5.5 0 00.462-.335l2.235-6.43zm28 0a.5.5 0 01.945 0l2.234 6.43a.5.5 0 00.463.335l6.805.139a.5.5 0 01.291.898l-5.424 4.112a.5.5 0 00-.176.543l1.971 6.515a.5.5 0 01-.764.556l-5.587-3.888a.5.5 0 00-.571 0l-5.587 3.888a.5.5 0 01-.765-.556l1.971-6.515a.5.5 0 00-.176-.543l-5.424-4.112a.5.5 0 01.292-.898l6.805-.14a.5.5 0 00.462-.335l2.235-6.43zm28.002 0a.5.5 0 01.944 0l2.235 6.43a.5.5 0 00.462.335l6.806.139a.5.5 0 01.291.898l-5.424 4.112a.5.5 0 00-.176.543l1.971 6.515a.5.5 0 01-.764.556l-5.587-3.888a.501.501 0 00-.572 0l-5.587 3.888a.5.5 0 01-.764-.556l1.971-6.515a.5.5 0 00-.176-.543l-5.424-4.112a.5.5 0 01.291-.898l6.806-.14a.5.5 0 00.462-.335l2.235-6.43z" fill="#FF8C5A"/></svg>